<?xml version="1.0" encoding="UTF-8" standalone="no"?>
<!DOCTYPE svg PUBLIC "-//W3C//DTD SVG 1.1//EN"
 "http://www.w3.org/Graphics/SVG/1.1/DTD/svg11.dtd">
<!-- Generated by graphviz version 2.40.1 (20161225.0304)
 -->
<!-- Title: qjs::Context Pages: 1 -->
<!--zoomable 661 -->
<svg id="main" version="1.1" xmlns="http://www.w3.org/2000/svg" xmlns:xlink="http://www.w3.org/1999/xlink" xml:space="preserve" onload="init(evt)">
<style type="text/css"><![CDATA[
.edge:hover path { stroke: red; }
.edge:hover polygon { stroke: red; fill: red; }
]]></style>
<script type="text/javascript"><![CDATA[
var edges = document.getElementsByTagName('g');
if (edges && edges.length) {
  for (var i=0;i<edges.length;i++) {
    if (edges[i].id.substr(0,4)=='edge') {
      edges[i].setAttribute('class','edge');
    }
  }
}
]]></script>
        <defs>
                <circle id="rim" cx="0" cy="0" r="7"/>
                <circle id="rim2" cx="0" cy="0" r="3.5"/>
                <g id="zoomPlus">
                        <use xlink:href="#rim" fill="#404040">
                                <set attributeName="fill" to="#808080" begin="zoomplus.mouseover" end="zoomplus.mouseout"/>
                        </use>
                        <path d="M-4,0h8M0,-4v8" fill="none" stroke="white" stroke-width="1.5" pointer-events="none"/>
                </g>
                <g id="zoomMin">
                        <use xlink:href="#rim" fill="#404040">
                                <set attributeName="fill" to="#808080" begin="zoomminus.mouseover" end="zoomminus.mouseout"/>
                        </use>
                        <path d="M-4,0h8" fill="none" stroke="white" stroke-width="1.5" pointer-events="none"/>
                </g>
                <g id="dirArrow">
                        <path fill="none" stroke="white" stroke-width="1.5" d="M0,-3.0v7 M-2.5,-0.5L0,-3.0L2.5,-0.5"/>
                </g>
               <g id="resetDef">
                       <use xlink:href="#rim2" fill="#404040">
                               <set attributeName="fill" to="#808080" begin="reset.mouseover" end="reset.mouseout"/>
                       </use>
               </g>
        </defs>

<script type="text/javascript">
var viewWidth = 1360;
var viewHeight = 661;
var sectionId = 'dynsection-0';
</script>
<script xlink:href="svgpan.js"/>
<svg id="graph" class="graph">
<g id="viewport">
<title>qjs::Context</title>
<!-- Node1 -->
<g id="node1" class="node">
<title>Node1</title>
<polygon fill="#bfbfbf" stroke="#000000" points="1282,-111.5 1282,-130.5 1352,-130.5 1352,-111.5 1282,-111.5"/>
<text text-anchor="middle" x="1317" y="-118.5" font-family="Helvetica,sans-Serif" font-size="10.00" fill="#000000">qjs::Context</text>
</g>
<!-- Node2 -->
<g id="node2" class="node">
<title>Node2</title>
<g id="a_node2"><a xlink:href="structJSContext.html" target="_top" xlink:title="JSContext">
<polygon fill="none" stroke="#000000" points="743,-133.5 743,-152.5 806,-152.5 806,-133.5 743,-133.5"/>
<text text-anchor="middle" x="774.5" y="-140.5" font-family="Helvetica,sans-Serif" font-size="10.00" fill="#000000">JSContext</text>
</a>
</g>
</g>
<!-- Node2&#45;&gt;Node1 -->
<g id="edge1" class="edge">
<title>Node2&#45;&gt;Node1</title>
<path fill="none" stroke="#9a32cd" stroke-dasharray="5,2" d="M816.2859,-143.1352C900.9216,-143.0968 1098.6194,-141.421 1264,-128 1269.8281,-127.527 1275.9974,-126.8629 1281.9871,-126.1304"/>
<polygon fill="#9a32cd" stroke="#9a32cd" points="816.0594,-139.6352 806.0582,-143.1319 816.0571,-146.6352 816.0594,-139.6352"/>
<text text-anchor="middle" x="1041.5" y="-143" font-family="Helvetica,sans-Serif" font-size="10.00" fill="#000000"> ctx</text>
</g>
<!-- Node46 -->
<g id="node15" class="node">
<title>Node46</title>
<g id="a_node15"><a xlink:href="classqjs_1_1Context_1_1Module.html" target="_top" xlink:title="Module wrapper Workaround for lack of opaque pointer for module load function by keeping a list of mo...">
<polygon fill="none" stroke="#000000" points="895,-75.5 895,-94.5 1002,-94.5 1002,-75.5 895,-75.5"/>
<text text-anchor="middle" x="948.5" y="-82.5" font-family="Helvetica,sans-Serif" font-size="10.00" fill="#000000">qjs::Context::Module</text>
</a>
</g>
</g>
<!-- Node2&#45;&gt;Node46 -->
<g id="edge25" class="edge">
<title>Node2&#45;&gt;Node46</title>
<path fill="none" stroke="#9a32cd" stroke-dasharray="5,2" d="M808.2887,-129.8365C818.7281,-125.8941 830.2958,-121.6511 841,-118 865.7598,-109.5546 894.0527,-100.9089 915.3962,-94.5865"/>
<polygon fill="#9a32cd" stroke="#9a32cd" points="806.7881,-126.6628 798.6906,-133.4952 809.2815,-133.2037 806.7881,-126.6628"/>
<text text-anchor="middle" x="859" y="-121" font-family="Helvetica,sans-Serif" font-size="10.00" fill="#000000"> ctx</text>
</g>
<!-- Node3 -->
<g id="node3" class="node">
<title>Node3</title>
<g id="a_node3"><a xlink:href="structJSRuntime.html" target="_top" xlink:title="JSRuntime">
<polygon fill="none" stroke="#000000" points="613,-238.5 613,-257.5 678,-257.5 678,-238.5 613,-238.5"/>
<text text-anchor="middle" x="645.5" y="-245.5" font-family="Helvetica,sans-Serif" font-size="10.00" fill="#000000">JSRuntime</text>
</a>
</g>
</g>
<!-- Node3&#45;&gt;Node2 -->
<g id="edge2" class="edge">
<title>Node3&#45;&gt;Node2</title>
<path fill="none" stroke="#9a32cd" stroke-dasharray="5,2" d="M665.4475,-231.7636C692.6348,-209.6345 740.4711,-170.698 762.624,-152.6665"/>
<polygon fill="#9a32cd" stroke="#9a32cd" points="662.951,-229.2828 657.4048,-238.3101 667.3699,-234.7118 662.951,-229.2828"/>
<text text-anchor="middle" x="702" y="-207" font-family="Helvetica,sans-Serif" font-size="10.00" fill="#000000"> rt</text>
</g>
<!-- Node4 -->
<g id="node4" class="node">
<title>Node4</title>
<g id="a_node4"><a xlink:href="structlist__head.html" target="_top" xlink:title="list_head">
<polygon fill="none" stroke="#000000" points="0,-206.5 0,-225.5 56,-225.5 56,-206.5 0,-206.5"/>
<text text-anchor="middle" x="28" y="-213.5" font-family="Helvetica,sans-Serif" font-size="10.00" fill="#000000">list_head</text>
</a>
</g>
</g>
<!-- Node4&#45;&gt;Node2 -->
<g id="edge19" class="edge">
<title>Node4&#45;&gt;Node2</title>
<path fill="none" stroke="#9a32cd" stroke-dasharray="5,2" d="M30.0542,-235.954C39.1193,-318.7576 78.8799,-631 163,-631 163,-631 163,-631 645.5,-631 748.2489,-631 771.0005,-221.5267 774.0974,-152.748"/>
<polygon fill="#9a32cd" stroke="#9a32cd" points="33.5174,-235.4219 28.9774,-225.8492 26.5568,-236.1638 33.5174,-235.4219"/>
<text text-anchor="middle" x="408" y="-645" font-family="Helvetica,sans-Serif" font-size="10.00" fill="#000000"> loaded_modules</text>
<text text-anchor="middle" x="408" y="-634" font-family="Helvetica,sans-Serif" font-size="10.00" fill="#000000">link</text>
</g>
<!-- Node4&#45;&gt;Node3 -->
<g id="edge3" class="edge">
<title>Node4&#45;&gt;Node3</title>
<path fill="none" stroke="#9a32cd" stroke-dasharray="5,2" d="M66.32,-215.2719C107.5018,-214.5285 174.8813,-213.4252 233,-213 268.999,-212.7366 285.6604,-190.7994 314,-213 340.3056,-233.6072 305.6944,-265.3928 332,-286 385.1805,-327.6603 416.5424,-289.6358 484,-286 533.5489,-283.3295 547.4736,-288.264 595,-274 607.4673,-270.2582 620.5041,-263.4626 630.2084,-257.7571"/>
<polygon fill="#9a32cd" stroke="#9a32cd" points="66.1188,-211.7749 56.1845,-215.4571 66.2468,-218.7737 66.1188,-211.7749"/>
<text text-anchor="middle" x="273.5" y="-271" font-family="Helvetica,sans-Serif" font-size="10.00" fill="#000000"> job_list</text>
<text text-anchor="middle" x="273.5" y="-260" font-family="Helvetica,sans-Serif" font-size="10.00" fill="#000000">tmp_obj_list</text>
<text text-anchor="start" x="233" y="-249" font-family="Helvetica,sans-Serif" font-size="10.00" fill="#000000">gc_zero_ref_count</text>
<text text-anchor="middle" x="273.5" y="-238" font-family="Helvetica,sans-Serif" font-size="10.00" fill="#000000">_list</text>
<text text-anchor="middle" x="273.5" y="-227" font-family="Helvetica,sans-Serif" font-size="10.00" fill="#000000">gc_obj_list</text>
<text text-anchor="middle" x="273.5" y="-216" font-family="Helvetica,sans-Serif" font-size="10.00" fill="#000000">context_list</text>
</g>
<!-- Node4&#45;&gt;Node4 -->
<g id="edge4" class="edge">
<title>Node4&#45;&gt;Node4</title>
<path fill="none" stroke="#9a32cd" stroke-dasharray="5,2" d="M18.0556,-235.7663C18.8366,-240.4965 22.1514,-244 28,-244 37.5977,-244 40.372,-234.5653 36.323,-225.7571"/>
<polygon fill="#9a32cd" stroke="#9a32cd" points="21.5328,-236.1881 19.677,-225.7571 14.6229,-235.0687 21.5328,-236.1881"/>
<text text-anchor="middle" x="28" y="-258" font-family="Helvetica,sans-Serif" font-size="10.00" fill="#000000"> prev</text>
<text text-anchor="middle" x="28" y="-247" font-family="Helvetica,sans-Serif" font-size="10.00" fill="#000000">next</text>
</g>
<!-- Node16 -->
<g id="node11" class="node">
<title>Node16</title>
<g id="a_node11"><a xlink:href="structJSGCObjectHeader.html" target="_top" xlink:title="JSGCObjectHeader">
<polygon fill="none" stroke="#000000" points="111,-76.5 111,-95.5 215,-95.5 215,-76.5 111,-76.5"/>
<text text-anchor="middle" x="163" y="-83.5" font-family="Helvetica,sans-Serif" font-size="10.00" fill="#000000">JSGCObjectHeader</text>
</a>
</g>
</g>
<!-- Node4&#45;&gt;Node16 -->
<g id="edge13" class="edge">
<title>Node4&#45;&gt;Node16</title>
<path fill="none" stroke="#9a32cd" stroke-dasharray="5,2" d="M45.4597,-199.187C74.1535,-171.5559 130.364,-117.4273 153.1022,-95.5312"/>
<polygon fill="#9a32cd" stroke="#9a32cd" points="42.9224,-196.7713 38.1469,-206.2289 47.7779,-201.8136 42.9224,-196.7713"/>
<text text-anchor="middle" x="83.5" y="-173" font-family="Helvetica,sans-Serif" font-size="10.00" fill="#000000"> link</text>
</g>
<!-- Node31 -->
<g id="node13" class="node">
<title>Node31</title>
<g id="a_node13"><a xlink:href="structJSStackFrame.html" target="_top" xlink:title="JSStackFrame">
<polygon fill="none" stroke="#000000" points="367,-333.5 367,-352.5 449,-352.5 449,-333.5 367,-333.5"/>
<text text-anchor="middle" x="408" y="-340.5" font-family="Helvetica,sans-Serif" font-size="10.00" fill="#000000">JSStackFrame</text>
</a>
</g>
</g>
<!-- Node4&#45;&gt;Node31 -->
<g id="edge16" class="edge">
<title>Node4&#45;&gt;Node31</title>
<path fill="none" stroke="#9a32cd" stroke-dasharray="5,2" d="M45.4911,-232.6872C78.7658,-263.1395 154.8617,-326.7275 233,-350 277.2946,-363.1926 330.6837,-358.2512 366.752,-352.059"/>
<polygon fill="#9a32cd" stroke="#9a32cd" points="47.6861,-229.9489 37.9789,-225.7037 42.92,-235.0758 47.6861,-229.9489"/>
<text text-anchor="middle" x="163" y="-345" font-family="Helvetica,sans-Serif" font-size="10.00" fill="#000000"> var_ref_list</text>
</g>
<!-- Node47 -->
<g id="node16" class="node">
<title>Node47</title>
<g id="a_node16"><a xlink:href="structJSModuleDef.html" target="_top" xlink:title="JSModuleDef">
<polygon fill="none" stroke="#ff0000" points="370,-.5 370,-19.5 446,-19.5 446,-.5 370,-.5"/>
<text text-anchor="middle" x="408" y="-7.5" font-family="Helvetica,sans-Serif" font-size="10.00" fill="#000000">JSModuleDef</text>
</a>
</g>
</g>
<!-- Node4&#45;&gt;Node47 -->
<g id="edge27" class="edge">
<title>Node4&#45;&gt;Node47</title>
<path fill="none" stroke="#9a32cd" stroke-dasharray="5,2" d="M32.2314,-196.3393C40.7256,-161.9487 63.273,-91.19 111,-56 188.4827,1.1295 308.547,-.1948 369.57,-5.3911"/>
<polygon fill="#9a32cd" stroke="#9a32cd" points="28.8093,-195.6031 29.9532,-206.136 35.6274,-197.1887 28.8093,-195.6031"/>
<text text-anchor="middle" x="163" y="-59" font-family="Helvetica,sans-Serif" font-size="10.00" fill="#000000"> link</text>
</g>
<!-- Node5 -->
<g id="node5" class="node">
<title>Node5</title>
<g id="a_node5"><a xlink:href="structJSMallocState.html" target="_top" xlink:title="JSMallocState">
<polygon fill="none" stroke="#000000" points="368,-257.5 368,-276.5 448,-276.5 448,-257.5 368,-257.5"/>
<text text-anchor="middle" x="408" y="-264.5" font-family="Helvetica,sans-Serif" font-size="10.00" fill="#000000">JSMallocState</text>
</a>
</g>
</g>
<!-- Node5&#45;&gt;Node3 -->
<g id="edge5" class="edge">
<title>Node5&#45;&gt;Node3</title>
<path fill="none" stroke="#9a32cd" stroke-dasharray="5,2" d="M458.2194,-262.9825C504.8904,-259.2488 573.033,-253.7974 612.9644,-250.6028"/>
<polygon fill="#9a32cd" stroke="#9a32cd" points="457.7091,-259.512 448.0201,-263.7984 458.2674,-266.4897 457.7091,-259.512"/>
<text text-anchor="middle" x="548.5" y="-262" font-family="Helvetica,sans-Serif" font-size="10.00" fill="#000000"> malloc_state</text>
</g>
<!-- Node6 -->
<g id="node6" class="node">
<title>Node6</title>
<g id="a_node6"><a xlink:href="structJSValue.html" target="_top" xlink:title="JSValue">
<polygon fill="none" stroke="#ff0000" points="136.5,-420.5 136.5,-439.5 189.5,-439.5 189.5,-420.5 136.5,-420.5"/>
<text text-anchor="middle" x="163" y="-427.5" font-family="Helvetica,sans-Serif" font-size="10.00" fill="#000000">JSValue</text>
</a>
</g>
</g>
<!-- Node6&#45;&gt;Node2 -->
<g id="edge20" class="edge">
<title>Node6&#45;&gt;Node2</title>
<path fill="none" stroke="#9a32cd" stroke-dasharray="5,2" d="M191.4823,-443.7232C203.9422,-449.1096 218.907,-454.7663 233,-458 389.9311,-494.0082 463.0314,-536.24 595,-444 706.4582,-366.0958 760.1168,-194.7942 771.9446,-152.5552"/>
<polygon fill="#9a32cd" stroke="#9a32cd" points="192.6479,-440.4101 182.0911,-439.5127 189.7841,-446.7975 192.6479,-440.4101"/>
<text text-anchor="middle" x="548.5" y="-603" font-family="Helvetica,sans-Serif" font-size="10.00" fill="#000000"> async_iterator_proto</text>
<text text-anchor="middle" x="548.5" y="-592" font-family="Helvetica,sans-Serif" font-size="10.00" fill="#000000">function_proto</text>
<text text-anchor="middle" x="548.5" y="-581" font-family="Helvetica,sans-Serif" font-size="10.00" fill="#000000">function_ctor</text>
<text text-anchor="middle" x="548.5" y="-570" font-family="Helvetica,sans-Serif" font-size="10.00" fill="#000000">array_ctor</text>
<text text-anchor="middle" x="548.5" y="-559" font-family="Helvetica,sans-Serif" font-size="10.00" fill="#000000">class_proto</text>
<text text-anchor="middle" x="548.5" y="-548" font-family="Helvetica,sans-Serif" font-size="10.00" fill="#000000">array_proto_values</text>
<text text-anchor="middle" x="548.5" y="-537" font-family="Helvetica,sans-Serif" font-size="10.00" fill="#000000">regexp_ctor</text>
<text text-anchor="middle" x="548.5" y="-526" font-family="Helvetica,sans-Serif" font-size="10.00" fill="#000000">throw_type_error</text>
<text text-anchor="middle" x="548.5" y="-515" font-family="Helvetica,sans-Serif" font-size="10.00" fill="#000000">native_error_proto</text>
<text text-anchor="middle" x="548.5" y="-504" font-family="Helvetica,sans-Serif" font-size="10.00" fill="#000000">eval_obj</text>
<text text-anchor="middle" x="548.5" y="-493" font-family="Helvetica,sans-Serif" font-size="10.00" fill="#000000">...</text>
</g>
<!-- Node6&#45;&gt;Node3 -->
<g id="edge6" class="edge">
<title>Node6&#45;&gt;Node3</title>
<path fill="none" stroke="#9a32cd" stroke-dasharray="5,2" d="M199.6634,-437.4906C210.3627,-439.3488 222.107,-441.0731 233,-442 313.3774,-448.8396 533.3696,-467.0481 595,-415 619.877,-393.9909 638.5879,-290.4792 643.9432,-257.8619"/>
<polygon fill="#9a32cd" stroke="#9a32cd" points="200.2531,-434.0405 189.7874,-435.6897 198.9973,-440.9269 200.2531,-434.0405"/>
<text text-anchor="middle" x="408" y="-453" font-family="Helvetica,sans-Serif" font-size="10.00" fill="#000000"> current_exception</text>
</g>
<!-- Node6&#45;&gt;Node31 -->
<g id="edge17" class="edge">
<title>Node6&#45;&gt;Node31</title>
<path fill="none" stroke="#9a32cd" stroke-dasharray="5,2" d="M191.0757,-415.9807C203.7042,-409.9848 218.9104,-403.1866 233,-398 268.1192,-385.072 278.2749,-386.1449 314,-375 336.7106,-367.9152 362.2516,-359.1698 380.9721,-352.613"/>
<polygon fill="#9a32cd" stroke="#9a32cd" points="189.467,-412.8707 181.9823,-420.3694 192.5096,-419.1749 189.467,-412.8707"/>
<text text-anchor="middle" x="273.5" y="-434" font-family="Helvetica,sans-Serif" font-size="10.00" fill="#000000"> var_buf</text>
<text text-anchor="middle" x="273.5" y="-423" font-family="Helvetica,sans-Serif" font-size="10.00" fill="#000000">arg_buf</text>
<text text-anchor="middle" x="273.5" y="-412" font-family="Helvetica,sans-Serif" font-size="10.00" fill="#000000">cur_sp</text>
<text text-anchor="middle" x="273.5" y="-401" font-family="Helvetica,sans-Serif" font-size="10.00" fill="#000000">cur_func</text>
</g>
<!-- Node6&#45;&gt;Node47 -->
<g id="edge28" class="edge">
<title>Node6&#45;&gt;Node47</title>
<path fill="none" stroke="#9a32cd" stroke-dasharray="5,2" d="M183.4507,-413.9432C194.0906,-404.692 206.5946,-392.2833 215,-379 228.0774,-358.3335 217.1846,-345.6547 233,-327 259.4932,-295.7505 291.6113,-317.3099 314,-283 340.3222,-242.6622 308.6875,-109.1489 332,-67 344.2134,-44.9182 368.9746,-28.871 386.9226,-19.5327"/>
<polygon fill="#9a32cd" stroke="#9a32cd" points="181.1998,-411.2629 175.7763,-420.3643 185.6918,-416.6315 181.1998,-411.2629"/>
<text text-anchor="middle" x="273.5" y="-363" font-family="Helvetica,sans-Serif" font-size="10.00" fill="#000000"> func_obj</text>
<text text-anchor="middle" x="273.5" y="-352" font-family="Helvetica,sans-Serif" font-size="10.00" fill="#000000">meta_obj</text>
<text text-anchor="middle" x="273.5" y="-341" font-family="Helvetica,sans-Serif" font-size="10.00" fill="#000000">eval_exception</text>
<text text-anchor="middle" x="273.5" y="-330" font-family="Helvetica,sans-Serif" font-size="10.00" fill="#000000">module_ns</text>
</g>
<!-- Node8 -->
<g id="node7" class="node">
<title>Node8</title>
<g id="a_node7"><a xlink:href="structJSMallocFunctions.html" target="_top" xlink:title="JSMallocFunctions">
<polygon fill="none" stroke="#000000" points="358,-219.5 358,-238.5 458,-238.5 458,-219.5 358,-219.5"/>
<text text-anchor="middle" x="408" y="-226.5" font-family="Helvetica,sans-Serif" font-size="10.00" fill="#000000">JSMallocFunctions</text>
</a>
</g>
</g>
<!-- Node8&#45;&gt;Node3 -->
<g id="edge7" class="edge">
<title>Node8&#45;&gt;Node3</title>
<path fill="none" stroke="#9a32cd" stroke-dasharray="5,2" d="M468.2614,-228.9584C505.0172,-229.582 552.8763,-231.5523 595,-237 600.7842,-237.7481 606.8868,-238.8254 612.7732,-240.0166"/>
<polygon fill="#9a32cd" stroke="#9a32cd" points="468.2512,-225.458 458.2027,-228.8164 468.1523,-232.4573 468.2512,-225.458"/>
<text text-anchor="middle" x="548.5" y="-240" font-family="Helvetica,sans-Serif" font-size="10.00" fill="#000000"> mf</text>
</g>
<!-- Node9 -->
<g id="node8" class="node">
<title>Node9</title>
<g id="a_node8"><a xlink:href="structJSSharedArrayBufferFunctions.html" target="_top" xlink:title="JSSharedArrayBufferFunctions">
<polygon fill="none" stroke="#000000" points="332,-181.5 332,-200.5 484,-200.5 484,-181.5 332,-181.5"/>
<text text-anchor="middle" x="408" y="-188.5" font-family="Helvetica,sans-Serif" font-size="10.00" fill="#000000">JSSharedArrayBufferFunctions</text>
</a>
</g>
</g>
<!-- Node9&#45;&gt;Node3 -->
<g id="edge8" class="edge">
<title>Node9&#45;&gt;Node3</title>
<path fill="none" stroke="#9a32cd" stroke-dasharray="5,2" d="M494.4245,-193.1661C526.7773,-196.1484 563.341,-202.1749 595,-214 609.8517,-219.5474 624.6369,-230.2669 634.3345,-238.1929"/>
<polygon fill="#9a32cd" stroke="#9a32cd" points="494.3367,-189.6467 484.0799,-192.3013 493.7535,-196.6223 494.3367,-189.6467"/>
<text text-anchor="middle" x="548.5" y="-217" font-family="Helvetica,sans-Serif" font-size="10.00" fill="#000000"> sab_funcs</text>
</g>
<!-- Node10 -->
<g id="node9" class="node">
<title>Node10</title>
<g id="a_node9"><a xlink:href="structJSString.html" target="_top" xlink:title="JSString">
<polygon fill="none" stroke="#ff0000" points="381,-143.5 381,-162.5 435,-162.5 435,-143.5 381,-143.5"/>
<text text-anchor="middle" x="408" y="-150.5" font-family="Helvetica,sans-Serif" font-size="10.00" fill="#000000">JSString</text>
</a>
</g>
</g>
<!-- Node10&#45;&gt;Node3 -->
<g id="edge9" class="edge">
<title>Node10&#45;&gt;Node3</title>
<path fill="none" stroke="#9a32cd" stroke-dasharray="5,2" d="M445.3196,-149.9738C485.1987,-148.5176 548.8944,-151.4524 595,-179 618.4478,-193.0098 634.2778,-222.526 641.3274,-238.0207"/>
<polygon fill="#9a32cd" stroke="#9a32cd" points="445.0506,-146.4825 435.2287,-150.4549 445.384,-153.4746 445.0506,-146.4825"/>
<text text-anchor="middle" x="548.5" y="-182" font-family="Helvetica,sans-Serif" font-size="10.00" fill="#000000"> atom_array</text>
</g>
<!-- Node12 -->
<g id="node10" class="node">
<title>Node12</title>
<g id="a_node10"><a xlink:href="structJSShape.html" target="_top" xlink:title="JSShape">
<polygon fill="none" stroke="#ff0000" points="380,-76.5 380,-95.5 436,-95.5 436,-76.5 380,-76.5"/>
<text text-anchor="middle" x="408" y="-83.5" font-family="Helvetica,sans-Serif" font-size="10.00" fill="#000000">JSShape</text>
</a>
</g>
</g>
<!-- Node12&#45;&gt;Node2 -->
<g id="edge21" class="edge">
<title>Node12&#45;&gt;Node2</title>
<path fill="none" stroke="#9a32cd" stroke-dasharray="5,2" d="M446.3721,-89.6591C484.2546,-93.4727 543.7785,-100.0049 595,-108 647.0746,-116.1283 707.0895,-128.4317 742.8513,-136.0779"/>
<polygon fill="#9a32cd" stroke="#9a32cd" points="446.5833,-86.1629 436.2861,-88.6566 445.8909,-93.1286 446.5833,-86.1629"/>
<text text-anchor="middle" x="645.5" y="-125" font-family="Helvetica,sans-Serif" font-size="10.00" fill="#000000"> array_shape</text>
</g>
<!-- Node12&#45;&gt;Node3 -->
<g id="edge10" class="edge">
<title>Node12&#45;&gt;Node3</title>
<path fill="none" stroke="#9a32cd" stroke-dasharray="5,2" d="M446.1357,-94.357C497.4338,-105.876 583.5888,-126.3056 595,-136 627.5109,-163.6197 640.0463,-216.443 643.9748,-238.2315"/>
<polygon fill="#9a32cd" stroke="#9a32cd" points="446.5878,-90.8719 436.0655,-92.1096 445.063,-97.7038 446.5878,-90.8719"/>
<text text-anchor="middle" x="548.5" y="-139" font-family="Helvetica,sans-Serif" font-size="10.00" fill="#000000"> shape_hash</text>
</g>
<!-- Node12&#45;&gt;Node12 -->
<g id="edge11" class="edge">
<title>Node12&#45;&gt;Node12</title>
<path fill="none" stroke="#9a32cd" stroke-dasharray="5,2" d="M383.0745,-105.0292C384.4341,-110.128 392.7426,-114 408,-114 431.8164,-114 438.7008,-104.5653 428.6533,-95.7571"/>
<polygon fill="#9a32cd" stroke="#9a32cd" points="386.3407,-106.304 387.3467,-95.7571 379.9831,-103.3747 386.3407,-106.304"/>
<text text-anchor="middle" x="408" y="-117" font-family="Helvetica,sans-Serif" font-size="10.00" fill="#000000"> shape_hash_next</text>
</g>
<!-- Node16&#45;&gt;Node2 -->
<g id="edge22" class="edge">
<title>Node16&#45;&gt;Node2</title>
<path fill="none" stroke="#9a32cd" stroke-dasharray="5,2" d="M225.282,-76.3539C310.0512,-65.2032 465.9748,-51.7504 595,-80 653.718,-92.8561 719.6714,-119.2747 752.8944,-133.4737"/>
<polygon fill="#9a32cd" stroke="#9a32cd" points="224.7462,-72.8944 215.3037,-77.6994 225.6817,-79.8316 224.7462,-72.8944"/>
<text text-anchor="middle" x="548.5" y="-83" font-family="Helvetica,sans-Serif" font-size="10.00" fill="#000000"> header</text>
</g>
<!-- Node16&#45;&gt;Node12 -->
<g id="edge12" class="edge">
<title>Node16&#45;&gt;Node12</title>
<path fill="none" stroke="#9a32cd" stroke-dasharray="5,2" d="M225.2684,-86C274.991,-86 342.3395,-86 379.8328,-86"/>
<polygon fill="#9a32cd" stroke="#9a32cd" points="225.2582,-82.5001 215.2581,-86 225.2581,-89.5001 225.2582,-82.5001"/>
<text text-anchor="middle" x="273.5" y="-89" font-family="Helvetica,sans-Serif" font-size="10.00" fill="#000000"> header</text>
</g>
<!-- Node43 -->
<g id="node12" class="node">
<title>Node43</title>
<g id="a_node12"><a xlink:href="structJSClass.html" target="_top" xlink:title="JSClass">
<polygon fill="none" stroke="#ff0000" points="381,-400.5 381,-419.5 435,-419.5 435,-400.5 381,-400.5"/>
<text text-anchor="middle" x="408" y="-407.5" font-family="Helvetica,sans-Serif" font-size="10.00" fill="#000000">JSClass</text>
</a>
</g>
</g>
<!-- Node43&#45;&gt;Node3 -->
<g id="edge14" class="edge">
<title>Node43&#45;&gt;Node3</title>
<path fill="none" stroke="#9a32cd" stroke-dasharray="5,2" d="M445.3628,-409.2873C486.5833,-406.59 552.6743,-396.3632 595,-360 627.3575,-332.2007 639.9792,-279.4784 643.9528,-257.7427"/>
<polygon fill="#9a32cd" stroke="#9a32cd" points="444.9937,-405.802 435.1956,-409.8328 445.3688,-412.792 444.9937,-405.802"/>
<text text-anchor="middle" x="548.5" y="-403" font-family="Helvetica,sans-Serif" font-size="10.00" fill="#000000"> class_array</text>
</g>
<!-- Node31&#45;&gt;Node3 -->
<g id="edge15" class="edge">
<title>Node31&#45;&gt;Node3</title>
<path fill="none" stroke="#9a32cd" stroke-dasharray="5,2" d="M459.3627,-347.1288C499.0999,-347.9125 554.0681,-343.5411 595,-319 619.26,-304.4547 635.0237,-273.2747 641.7589,-257.5233"/>
<polygon fill="#9a32cd" stroke="#9a32cd" points="459.4552,-343.6301 449.351,-346.8169 459.2372,-350.6267 459.4552,-343.6301"/>
<text text-anchor="middle" x="548.5" y="-348" font-family="Helvetica,sans-Serif" font-size="10.00" fill="#000000"> current_stack_frame</text>
</g>
<!-- Node31&#45;&gt;Node31 -->
<g id="edge18" class="edge">
<title>Node31&#45;&gt;Node31</title>
<path fill="none" stroke="#9a32cd" stroke-dasharray="5,2" d="M383.0745,-362.0292C384.4341,-367.128 392.7426,-371 408,-371 431.8164,-371 438.7008,-361.5653 428.6533,-352.7571"/>
<polygon fill="#9a32cd" stroke="#9a32cd" points="386.3407,-363.304 387.3467,-352.7571 379.9831,-360.3747 386.3407,-363.304"/>
<text text-anchor="middle" x="408" y="-374" font-family="Helvetica,sans-Serif" font-size="10.00" fill="#000000"> prev_frame</text>
</g>
<!-- Node45 -->
<g id="node14" class="node">
<title>Node45</title>
<polygon fill="none" stroke="#bfbfbf" points="1081,-82 1081,-112 1206,-112 1206,-82 1081,-82"/>
<text text-anchor="start" x="1089" y="-100" font-family="Helvetica,sans-Serif" font-size="10.00" fill="#000000">std::vector&lt; qjs::Context</text>
<text text-anchor="middle" x="1143.5" y="-89" font-family="Helvetica,sans-Serif" font-size="10.00" fill="#000000">::Module &gt;</text>
</g>
<!-- Node45&#45;&gt;Node1 -->
<g id="edge23" class="edge">
<title>Node45&#45;&gt;Node1</title>
<path fill="none" stroke="#9a32cd" stroke-dasharray="5,2" d="M1216.1009,-107.0428C1238.7872,-110.1809 1262.8002,-113.5026 1281.7067,-116.1179"/>
<polygon fill="#9a32cd" stroke="#9a32cd" points="1216.5228,-103.5679 1206.1375,-105.6646 1215.5635,-110.5019 1216.5228,-103.5679"/>
<text text-anchor="middle" x="1244" y="-116" font-family="Helvetica,sans-Serif" font-size="10.00" fill="#000000"> modules</text>
</g>
<!-- Node46&#45;&gt;Node45 -->
<g id="edge24" class="edge">
<title>Node46&#45;&gt;Node45</title>
<path fill="none" stroke="#9a32cd" stroke-dasharray="5,2" d="M1012.2699,-88.9243C1034.2536,-90.2771 1058.8467,-91.7906 1080.7484,-93.1384"/>
<polygon fill="#9a32cd" stroke="#9a32cd" points="1012.2387,-85.4158 1002.0425,-88.2949 1011.8086,-92.4026 1012.2387,-85.4158"/>
<text text-anchor="middle" x="1041.5" y="-94" font-family="Helvetica,sans-Serif" font-size="10.00" fill="#000000"> elements</text>
</g>
<!-- Node47&#45;&gt;Node46 -->
<g id="edge26" class="edge">
<title>Node47&#45;&gt;Node46</title>
<path fill="none" stroke="#9a32cd" stroke-dasharray="5,2" d="M456.0463,-15.6756C533.4329,-24.9467 690.4303,-44.2902 823,-64 846.599,-67.5086 872.6227,-71.7944 894.825,-75.5771"/>
<polygon fill="#9a32cd" stroke="#9a32cd" points="456.4583,-12.2001 446.1136,-14.4887 455.6277,-19.1506 456.4583,-12.2001"/>
<text text-anchor="middle" x="702" y="-51" font-family="Helvetica,sans-Serif" font-size="10.00" fill="#000000"> m</text>
</g>
<!-- Node52 -->
<g id="node17" class="node">
<title>Node52</title>
<polygon fill="none" stroke="#bfbfbf" points="726,-73.5 726,-92.5 823,-92.5 823,-73.5 726,-73.5"/>
<text text-anchor="middle" x="774.5" y="-80.5" font-family="Helvetica,sans-Serif" font-size="10.00" fill="#000000">std::vector&lt; nvp &gt;</text>
</g>
<!-- Node52&#45;&gt;Node46 -->
<g id="edge29" class="edge">
<title>Node52&#45;&gt;Node46</title>
<path fill="none" stroke="#9a32cd" stroke-dasharray="5,2" d="M833.4391,-83.5324C847.6992,-83.673 862.8956,-83.8326 877,-84 882.7102,-84.0678 888.6769,-84.1435 894.6235,-84.2221"/>
<polygon fill="#9a32cd" stroke="#9a32cd" points="833.2836,-80.0308 823.2501,-83.4335 833.2156,-87.0305 833.2836,-80.0308"/>
<text text-anchor="middle" x="859" y="-87" font-family="Helvetica,sans-Serif" font-size="10.00" fill="#000000"> exports</text>
</g>
</g>
</svg>
        <g id="navigator" transform="translate(0 0)" fill="#404254">
                <rect fill="#f2f5e9" fill-opacity="0.5" stroke="#606060" stroke-width=".5" x="0" y="0" width="60" height="60"/>
                <use id="zoomplus" xlink:href="#zoomPlus" x="17" y="9" onmousedown="handleZoom(evt,'in')"/>
                <use id="zoomminus" xlink:href="#zoomMin" x="42" y="9" onmousedown="handleZoom(evt,'out')"/>
                <use id="reset" xlink:href="#resetDef" x="30" y="36" onmousedown="handleReset()"/>
                <g id="arrowUp" xlink:href="#dirArrow" transform="translate(30 24)" onmousedown="handlePan(0,-1)">
                  <use xlink:href="#rim" fill="#404040">
                        <set attributeName="fill" to="#808080" begin="arrowUp.mouseover" end="arrowUp.mouseout"/>
                  </use>
                  <path fill="none" stroke="white" stroke-width="1.5" d="M0,-3.0v7 M-2.5,-0.5L0,-3.0L2.5,-0.5"/>
                </g>
                <g id="arrowRight" xlink:href="#dirArrow" transform="rotate(90) translate(36 -43)" onmousedown="handlePan(1,0)">
                  <use xlink:href="#rim" fill="#404040">
                        <set attributeName="fill" to="#808080" begin="arrowRight.mouseover" end="arrowRight.mouseout"/>
                  </use>
                  <path fill="none" stroke="white" stroke-width="1.5" d="M0,-3.0v7 M-2.5,-0.5L0,-3.0L2.5,-0.5"/>
                </g>
                <g id="arrowDown" xlink:href="#dirArrow" transform="rotate(180) translate(-30 -48)" onmousedown="handlePan(0,1)">
                  <use xlink:href="#rim" fill="#404040">
                        <set attributeName="fill" to="#808080" begin="arrowDown.mouseover" end="arrowDown.mouseout"/>
                  </use>
                  <path fill="none" stroke="white" stroke-width="1.5" d="M0,-3.0v7 M-2.5,-0.5L0,-3.0L2.5,-0.5"/>
                </g>
                <g id="arrowLeft" xlink:href="#dirArrow" transform="rotate(270) translate(-36 17)" onmousedown="handlePan(-1,0)">
                  <use xlink:href="#rim" fill="#404040">
                        <set attributeName="fill" to="#808080" begin="arrowLeft.mouseover" end="arrowLeft.mouseout"/>
                  </use>
                  <path fill="none" stroke="white" stroke-width="1.5" d="M0,-3.0v7 M-2.5,-0.5L0,-3.0L2.5,-0.5"/>
                </g>
        </g>
        <svg viewBox="0 0 15 15" width="100%" height="30px" preserveAspectRatio="xMaxYMin meet">
         <g id="arrow_out" transform="scale(0.3 0.3)">
          <a xlink:href="classqjs_1_1Context__coll__graph_org.svg" target="_base">
           <rect id="button" ry="5" rx="5" y="6" x="6" height="38" width="38"
                fill="#f2f5e9" fill-opacity="0.5" stroke="#606060" stroke-width="1.0"/>
           <path id="arrow"
             d="M 11.500037,31.436501 C 11.940474,20.09759 22.043105,11.32322 32.158766,21.979434 L 37.068811,17.246167 C 37.068811,17.246167 37.088388,32 37.088388,32 L 22.160133,31.978069 C 22.160133,31.978069 26.997745,27.140456 26.997745,27.140456 C 18.528582,18.264221 13.291696,25.230495 11.500037,31.436501 z"
             style="fill:#404040;"/>
          </a>
         </g>
        </svg>
</svg>
