<?xml version="1.0" encoding="UTF-8" standalone="no"?>
<!DOCTYPE svg PUBLIC "-//W3C//DTD SVG 1.1//EN"
 "http://www.w3.org/Graphics/SVG/1.1/DTD/svg11.dtd">
<!-- Generated by graphviz version 2.40.1 (20161225.0304)
 -->
<!-- Title: qjs::Context::Context Pages: 1 -->
<svg width="580pt" height="496pt"
 viewBox="0.00 0.00 580.00 495.50" xmlns="http://www.w3.org/2000/svg" xmlns:xlink="http://www.w3.org/1999/xlink">
<g id="graph0" class="graph" transform="scale(1 1) rotate(0) translate(4 491.5)">
<title>qjs::Context::Context</title>
<!-- Node0 -->
<g id="node1" class="node">
<title>Node0</title>
<polygon fill="#bfbfbf" stroke="#000000" points="0,-145 0,-164 110,-164 110,-145 0,-145"/>
<text text-anchor="middle" x="55" y="-152" font-family="Helvetica,sans-Serif" font-size="10.00" fill="#000000">qjs::Context::Context</text>
</g>
<!-- Node1 -->
<g id="node2" class="node">
<title>Node1</title>
<g id="a_node2"><a xlink:href="classqjs_1_1Context.html#a4392a23648acfc4bf6b445336efb5007" target="_top" xlink:title="qjs::Context::Context">
<polygon fill="none" stroke="#000000" points="146,-145 146,-164 256,-164 256,-145 146,-145"/>
<text text-anchor="middle" x="201" y="-152" font-family="Helvetica,sans-Serif" font-size="10.00" fill="#000000">qjs::Context::Context</text>
</a>
</g>
</g>
<!-- Node0&#45;&gt;Node1 -->
<g id="edge1" class="edge">
<title>Node0&#45;&gt;Node1</title>
<path fill="none" stroke="#191970" d="M110.1963,-154.5C118.4633,-154.5 127.0546,-154.5 135.5101,-154.5"/>
<polygon fill="#191970" stroke="#191970" points="135.7256,-158.0001 145.7256,-154.5 135.7256,-151.0001 135.7256,-158.0001"/>
</g>
<!-- Node2 -->
<g id="node3" class="node">
<title>Node2</title>
<g id="a_node3"><a xlink:href="quickjs_8c.html#ad8aedb643b8753b7a15f6cb2df61945e" target="_top" xlink:title="JS_NewContext">
<polygon fill="none" stroke="#000000" points="292,-259 292,-278 381,-278 381,-259 292,-259"/>
<text text-anchor="middle" x="336.5" y="-266" font-family="Helvetica,sans-Serif" font-size="10.00" fill="#000000">JS_NewContext</text>
</a>
</g>
</g>
<!-- Node1&#45;&gt;Node2 -->
<g id="edge2" class="edge">
<title>Node1&#45;&gt;Node2</title>
<path fill="none" stroke="#191970" d="M212.5527,-164.2196C235.8524,-183.8223 288.6856,-228.2724 317.2717,-252.3227"/>
<polygon fill="#191970" stroke="#191970" points="315.0713,-255.0453 324.9766,-258.805 319.5778,-249.6889 315.0713,-255.0453"/>
</g>
<!-- Node798 -->
<g id="node15" class="node">
<title>Node798</title>
<g id="a_node15"><a xlink:href="classqjs_1_1Context.html#aae629cc551168d549a405db5c762b61e" target="_top" xlink:title="qjs::Context::init">
<polygon fill="none" stroke="#000000" points="292,-50 292,-69 381,-69 381,-50 292,-50"/>
<text text-anchor="middle" x="336.5" y="-57" font-family="Helvetica,sans-Serif" font-size="10.00" fill="#000000">qjs::Context::init</text>
</a>
</g>
</g>
<!-- Node1&#45;&gt;Node798 -->
<g id="edge14" class="edge">
<title>Node1&#45;&gt;Node798</title>
<path fill="none" stroke="#191970" d="M214.7381,-144.8681C238.1725,-128.4381 286.0724,-94.8551 314.3058,-75.0605"/>
<polygon fill="#191970" stroke="#191970" points="316.5467,-77.764 322.7255,-69.1574 312.5282,-72.0323 316.5467,-77.764"/>
</g>
<!-- Node3 -->
<g id="node4" class="node">
<title>Node3</title>
<g id="a_node4"><a xlink:href="quickjs_8c.html#a4c9489297c684663f30e517204a9ec14" target="_top" xlink:title="JS_AddIntrinsicBaseObjects">
<polygon fill="none" stroke="#ff0000" points="423.5,-468 423.5,-487 565.5,-487 565.5,-468 423.5,-468"/>
<text text-anchor="middle" x="494.5" y="-475" font-family="Helvetica,sans-Serif" font-size="10.00" fill="#000000">JS_AddIntrinsicBaseObjects</text>
</a>
</g>
</g>
<!-- Node2&#45;&gt;Node3 -->
<g id="edge3" class="edge">
<title>Node2&#45;&gt;Node3</title>
<path fill="none" stroke="#191970" d="M337.5754,-278.1515C341.5922,-309.4235 358.6227,-408.8053 417,-458.5 418.9845,-460.1893 421.0958,-461.733 423.3047,-463.1432"/>
<polygon fill="#191970" stroke="#191970" points="421.78,-466.2972 432.2455,-467.9474 425.0933,-460.131 421.78,-466.2972"/>
</g>
<!-- Node472 -->
<g id="node5" class="node">
<title>Node472</title>
<g id="a_node5"><a xlink:href="quickjs_8c.html#a8ecbf5799518b7bfc3fefd47c7a0dd4e" target="_top" xlink:title="JS_AddIntrinsicDate">
<polygon fill="none" stroke="#ff0000" points="441,-430 441,-449 548,-449 548,-430 441,-430"/>
<text text-anchor="middle" x="494.5" y="-437" font-family="Helvetica,sans-Serif" font-size="10.00" fill="#000000">JS_AddIntrinsicDate</text>
</a>
</g>
</g>
<!-- Node2&#45;&gt;Node472 -->
<g id="edge4" class="edge">
<title>Node2&#45;&gt;Node472</title>
<path fill="none" stroke="#191970" d="M338.6663,-278.1093C345.2709,-305.1011 367.7764,-382.1328 417,-420.5 421.3705,-423.9066 426.2673,-426.7125 431.4193,-429.0222"/>
<polygon fill="#191970" stroke="#191970" points="430.3197,-432.3491 440.9098,-432.6665 432.8291,-425.8143 430.3197,-432.3491"/>
</g>
<!-- Node495 -->
<g id="node6" class="node">
<title>Node495</title>
<g id="a_node6"><a xlink:href="quickjs_8c.html#acbcccb7ec58fd4a024ea1d01e5d04561" target="_top" xlink:title="JS_AddIntrinsicEval">
<polygon fill="none" stroke="#ff0000" points="442,-392 442,-411 547,-411 547,-392 442,-392"/>
<text text-anchor="middle" x="494.5" y="-399" font-family="Helvetica,sans-Serif" font-size="10.00" fill="#000000">JS_AddIntrinsicEval</text>
</a>
</g>
</g>
<!-- Node2&#45;&gt;Node495 -->
<g id="edge5" class="edge">
<title>Node2&#45;&gt;Node495</title>
<path fill="none" stroke="#191970" d="M340.4779,-278.2273C350.0821,-300.4381 376.7567,-355.0749 417,-382.5 421.6507,-385.6693 426.777,-388.3113 432.1108,-390.5134"/>
<polygon fill="#191970" stroke="#191970" points="431.2835,-393.9351 441.878,-394.021 433.6495,-387.347 431.2835,-393.9351"/>
</g>
<!-- Node675 -->
<g id="node7" class="node">
<title>Node675</title>
<g id="a_node7"><a xlink:href="quickjs_8c.html#ac43d15fc0b5d1b90ae3c92779ab12725" target="_top" xlink:title="JS_AddIntrinsicJSON">
<polygon fill="none" stroke="#ff0000" points="438,-354 438,-373 551,-373 551,-354 438,-354"/>
<text text-anchor="middle" x="494.5" y="-361" font-family="Helvetica,sans-Serif" font-size="10.00" fill="#000000">JS_AddIntrinsicJSON</text>
</a>
</g>
</g>
<!-- Node2&#45;&gt;Node675 -->
<g id="edge6" class="edge">
<title>Node2&#45;&gt;Node675</title>
<path fill="none" stroke="#191970" d="M343.8045,-278.0812C356.7262,-294.3343 385.2642,-327.223 417,-344.5 421.1901,-346.7811 425.6552,-348.7923 430.2457,-350.5649"/>
<polygon fill="#191970" stroke="#191970" points="429.2015,-353.9072 439.7963,-353.8785 431.496,-347.294 429.2015,-353.9072"/>
</g>
<!-- Node676 -->
<g id="node8" class="node">
<title>Node676</title>
<g id="a_node8"><a xlink:href="quickjs_8c.html#a4497f8c7cf2ec38da989910ae8b1f042" target="_top" xlink:title="JS_AddIntrinsicMapSet">
<polygon fill="none" stroke="#ff0000" points="435,-316 435,-335 554,-335 554,-316 435,-316"/>
<text text-anchor="middle" x="494.5" y="-323" font-family="Helvetica,sans-Serif" font-size="10.00" fill="#000000">JS_AddIntrinsicMapSet</text>
</a>
</g>
</g>
<!-- Node2&#45;&gt;Node676 -->
<g id="edge7" class="edge">
<title>Node2&#45;&gt;Node676</title>
<path fill="none" stroke="#191970" d="M353.9717,-278.0027C369.9935,-286.4108 394.5682,-298.5466 417,-306.5 424.0813,-309.0107 431.6406,-311.3104 439.1575,-313.3758"/>
<polygon fill="#191970" stroke="#191970" points="438.4098,-316.7981 448.971,-315.954 440.1885,-310.0278 438.4098,-316.7981"/>
</g>
<!-- Node678 -->
<g id="node9" class="node">
<title>Node678</title>
<g id="a_node9"><a xlink:href="quickjs_8c.html#a2e66fcf1bc1d19f346317f10ee590621" target="_top" xlink:title="JS_AddIntrinsicPromise">
<polygon fill="none" stroke="#ff0000" points="433.5,-278 433.5,-297 555.5,-297 555.5,-278 433.5,-278"/>
<text text-anchor="middle" x="494.5" y="-285" font-family="Helvetica,sans-Serif" font-size="10.00" fill="#000000">JS_AddIntrinsicPromise</text>
</a>
</g>
</g>
<!-- Node2&#45;&gt;Node678 -->
<g id="edge8" class="edge">
<title>Node2&#45;&gt;Node678</title>
<path fill="none" stroke="#191970" d="M381.3538,-273.8938C394.3482,-275.4564 408.8689,-277.2026 423.0611,-278.9092"/>
<polygon fill="#191970" stroke="#191970" points="422.9642,-282.4227 433.3106,-280.1418 423.8001,-275.4728 422.9642,-282.4227"/>
</g>
<!-- Node704 -->
<g id="node10" class="node">
<title>Node704</title>
<g id="a_node10"><a xlink:href="quickjs_8c.html#a3afdbdd7b58ef7e1dcc178c362071b3d" target="_top" xlink:title="JS_AddIntrinsicProxy">
<polygon fill="none" stroke="#ff0000" points="439,-240 439,-259 550,-259 550,-240 439,-240"/>
<text text-anchor="middle" x="494.5" y="-247" font-family="Helvetica,sans-Serif" font-size="10.00" fill="#000000">JS_AddIntrinsicProxy</text>
</a>
</g>
</g>
<!-- Node2&#45;&gt;Node704 -->
<g id="edge9" class="edge">
<title>Node2&#45;&gt;Node704</title>
<path fill="none" stroke="#191970" d="M381.3538,-263.1062C396.0225,-261.3422 412.6361,-259.3444 428.5266,-257.4335"/>
<polygon fill="#191970" stroke="#191970" points="429.3262,-260.8627 438.8368,-256.1937 428.4904,-253.9127 429.3262,-260.8627"/>
</g>
<!-- Node708 -->
<g id="node11" class="node">
<title>Node708</title>
<g id="a_node11"><a xlink:href="quickjs_8c.html#aafc8241682ce24b6d72e0f237ee85a51" target="_top" xlink:title="JS_AddIntrinsicRegExp">
<polygon fill="none" stroke="#ff0000" points="434,-202 434,-221 555,-221 555,-202 434,-202"/>
<text text-anchor="middle" x="494.5" y="-209" font-family="Helvetica,sans-Serif" font-size="10.00" fill="#000000">JS_AddIntrinsicRegExp</text>
</a>
</g>
</g>
<!-- Node2&#45;&gt;Node708 -->
<g id="edge10" class="edge">
<title>Node2&#45;&gt;Node708</title>
<path fill="none" stroke="#191970" d="M353.9717,-258.9973C369.9935,-250.5892 394.5682,-238.4534 417,-230.5 424.0813,-227.9893 431.6406,-225.6896 439.1575,-223.6242"/>
<polygon fill="#191970" stroke="#191970" points="440.1885,-226.9722 448.971,-221.046 438.4098,-220.2019 440.1885,-226.9722"/>
</g>
<!-- Node769 -->
<g id="node12" class="node">
<title>Node769</title>
<g id="a_node12"><a xlink:href="quickjs_8c.html#abd9525850b564b2c2d2cb6ddfd89b1c6" target="_top" xlink:title="JS_AddIntrinsicStringNormalize">
<polygon fill="none" stroke="#ff0000" points="417,-164 417,-183 572,-183 572,-164 417,-164"/>
<text text-anchor="middle" x="494.5" y="-171" font-family="Helvetica,sans-Serif" font-size="10.00" fill="#000000">JS_AddIntrinsicStringNormalize</text>
</a>
</g>
</g>
<!-- Node2&#45;&gt;Node769 -->
<g id="edge11" class="edge">
<title>Node2&#45;&gt;Node769</title>
<path fill="none" stroke="#191970" d="M343.8045,-258.9188C356.7262,-242.6657 385.2642,-209.777 417,-192.5 421.1901,-190.2189 425.6552,-188.2077 430.2457,-186.4351"/>
<polygon fill="#191970" stroke="#191970" points="431.496,-189.706 439.7963,-183.1215 429.2015,-183.0928 431.496,-189.706"/>
</g>
<!-- Node770 -->
<g id="node13" class="node">
<title>Node770</title>
<g id="a_node13"><a xlink:href="quickjs_8c.html#a177d09828596bfe6df4bd90b2e93989d" target="_top" xlink:title="JS_AddIntrinsicTypedArrays">
<polygon fill="none" stroke="#ff0000" points="424,-126 424,-145 565,-145 565,-126 424,-126"/>
<text text-anchor="middle" x="494.5" y="-133" font-family="Helvetica,sans-Serif" font-size="10.00" fill="#000000">JS_AddIntrinsicTypedArrays</text>
</a>
</g>
</g>
<!-- Node2&#45;&gt;Node770 -->
<g id="edge12" class="edge">
<title>Node2&#45;&gt;Node770</title>
<path fill="none" stroke="#191970" d="M340.4779,-258.7727C350.0821,-236.5619 376.7567,-181.9251 417,-154.5 419.9514,-152.4887 423.0943,-150.6898 426.3603,-149.0809"/>
<polygon fill="#191970" stroke="#191970" points="428.0141,-152.1804 435.8334,-145.0313 425.2625,-145.7439 428.0141,-152.1804"/>
</g>
<!-- Node794 -->
<g id="node14" class="node">
<title>Node794</title>
<g id="a_node14"><a xlink:href="quickjs_8c.html#a442ff496ba00319ad39eb0a129b9eb8b" target="_top" xlink:title="JS_NewContextRaw">
<polygon fill="none" stroke="#ff0000" points="440,-88 440,-107 549,-107 549,-88 440,-88"/>
<text text-anchor="middle" x="494.5" y="-95" font-family="Helvetica,sans-Serif" font-size="10.00" fill="#000000">JS_NewContextRaw</text>
</a>
</g>
</g>
<!-- Node2&#45;&gt;Node794 -->
<g id="edge13" class="edge">
<title>Node2&#45;&gt;Node794</title>
<path fill="none" stroke="#191970" d="M338.6663,-258.8907C345.2709,-231.8989 367.7764,-154.8672 417,-116.5 421.0615,-113.3343 425.5775,-110.6873 430.3304,-108.4752"/>
<polygon fill="#191970" stroke="#191970" points="431.7142,-111.6914 439.7053,-104.735 429.1203,-105.1898 431.7142,-111.6914"/>
</g>
<!-- Node799 -->
<g id="node16" class="node">
<title>Node799</title>
<g id="a_node16"><a xlink:href="quickjs_8c.html#aa28cb15ab0d131c2d312dd3fe3ddcb07" target="_top" xlink:title="JS_SetContextOpaque">
<polygon fill="none" stroke="#000000" points="436,-50 436,-69 553,-69 553,-50 436,-50"/>
<text text-anchor="middle" x="494.5" y="-57" font-family="Helvetica,sans-Serif" font-size="10.00" fill="#000000">JS_SetContextOpaque</text>
</a>
</g>
</g>
<!-- Node798&#45;&gt;Node799 -->
<g id="edge15" class="edge">
<title>Node798&#45;&gt;Node799</title>
<path fill="none" stroke="#191970" d="M381.3538,-59.5C395.1415,-59.5 410.6476,-59.5 425.6563,-59.5"/>
<polygon fill="#191970" stroke="#191970" points="425.9403,-63.0001 435.9403,-59.5 425.9402,-56.0001 425.9403,-63.0001"/>
</g>
<!-- Node800 -->
<g id="node17" class="node">
<title>Node800</title>
<g id="a_node17"><a xlink:href="structqjs_1_1js__traits_3_01detail_1_1function_01_4.html#afe383c63f389edaf9f878cd30062d37f" target="_top" xlink:title="qjs::js_traits\&lt; detail\l::function \&gt;::register_class">
<polygon fill="none" stroke="#ff0000" points="428,-.5 428,-30.5 561,-30.5 561,-.5 428,-.5"/>
<text text-anchor="start" x="436" y="-18.5" font-family="Helvetica,sans-Serif" font-size="10.00" fill="#000000">qjs::js_traits&lt; detail</text>
<text text-anchor="middle" x="494.5" y="-7.5" font-family="Helvetica,sans-Serif" font-size="10.00" fill="#000000">::function &gt;::register_class</text>
</a>
</g>
</g>
<!-- Node798&#45;&gt;Node800 -->
<g id="edge16" class="edge">
<title>Node798&#45;&gt;Node800</title>
<path fill="none" stroke="#191970" d="M370.7836,-49.9527C388.2549,-45.0872 410.077,-39.0102 430.5085,-33.3204"/>
<polygon fill="#191970" stroke="#191970" points="431.7072,-36.6199 440.4016,-30.5654 429.8292,-29.8765 431.7072,-36.6199"/>
</g>
</g>
</svg>
