<?xml version="1.0" encoding="UTF-8" standalone="no"?>
<!DOCTYPE svg PUBLIC "-//W3C//DTD SVG 1.1//EN"
 "http://www.w3.org/Graphics/SVG/1.1/DTD/svg11.dtd">
<!-- Generated by graphviz version 2.40.1 (20161225.0304)
 -->
<!-- Title: qjs::Context::Context Pages: 1 -->
<svg width="729pt" height="718pt"
 viewBox="0.00 0.00 729.00 718.00" xmlns="http://www.w3.org/2000/svg" xmlns:xlink="http://www.w3.org/1999/xlink">
<g id="graph0" class="graph" transform="scale(1 1) rotate(0) translate(4 714)">
<title>qjs::Context::Context</title>
<!-- Node808 -->
<g id="node1" class="node">
<title>Node808</title>
<polygon fill="#bfbfbf" stroke="#000000" points="0,-456.5 0,-475.5 110,-475.5 110,-456.5 0,-456.5"/>
<text text-anchor="middle" x="55" y="-463.5" font-family="Helvetica,sans-Serif" font-size="10.00" fill="#000000">qjs::Context::Context</text>
</g>
<!-- Node809 -->
<g id="node2" class="node">
<title>Node809</title>
<g id="a_node2"><a xlink:href="classqjs_1_1Context.html#aae629cc551168d549a405db5c762b61e" target="_top" xlink:title="qjs::Context::init">
<polygon fill="none" stroke="#000000" points="146,-570.5 146,-589.5 235,-589.5 235,-570.5 146,-570.5"/>
<text text-anchor="middle" x="190.5" y="-577.5" font-family="Helvetica,sans-Serif" font-size="10.00" fill="#000000">qjs::Context::init</text>
</a>
</g>
</g>
<!-- Node808&#45;&gt;Node809 -->
<g id="edge1" class="edge">
<title>Node808&#45;&gt;Node809</title>
<path fill="none" stroke="#191970" d="M66.5527,-475.7196C89.8524,-495.3223 142.6856,-539.7724 171.2717,-563.8227"/>
<polygon fill="#191970" stroke="#191970" points="169.0713,-566.5453 178.9766,-570.305 173.5778,-561.1889 169.0713,-566.5453"/>
</g>
<!-- Node842 -->
<g id="node12" class="node">
<title>Node842</title>
<g id="a_node12"><a xlink:href="quickjs_8c.html#ad8aedb643b8753b7a15f6cb2df61945e" target="_top" xlink:title="JS_NewContext">
<polygon fill="none" stroke="#000000" points="146,-361.5 146,-380.5 235,-380.5 235,-361.5 146,-361.5"/>
<text text-anchor="middle" x="190.5" y="-368.5" font-family="Helvetica,sans-Serif" font-size="10.00" fill="#000000">JS_NewContext</text>
</a>
</g>
</g>
<!-- Node808&#45;&gt;Node842 -->
<g id="edge12" class="edge">
<title>Node808&#45;&gt;Node842</title>
<path fill="none" stroke="#191970" d="M68.7381,-456.3681C92.1725,-439.9381 140.0724,-406.3551 168.3058,-386.5605"/>
<polygon fill="#191970" stroke="#191970" points="170.5467,-389.264 176.7255,-380.6574 166.5282,-383.5323 170.5467,-389.264"/>
</g>
<!-- Node810 -->
<g id="node3" class="node">
<title>Node810</title>
<g id="a_node3"><a xlink:href="quickjs_8c.html#aa28cb15ab0d131c2d312dd3fe3ddcb07" target="_top" xlink:title="JS_SetContextOpaque">
<polygon fill="none" stroke="#000000" points="290,-570.5 290,-589.5 407,-589.5 407,-570.5 290,-570.5"/>
<text text-anchor="middle" x="348.5" y="-577.5" font-family="Helvetica,sans-Serif" font-size="10.00" fill="#000000">JS_SetContextOpaque</text>
</a>
</g>
</g>
<!-- Node809&#45;&gt;Node810 -->
<g id="edge2" class="edge">
<title>Node809&#45;&gt;Node810</title>
<path fill="none" stroke="#191970" d="M235.3538,-580C249.1415,-580 264.6476,-580 279.6563,-580"/>
<polygon fill="#191970" stroke="#191970" points="279.9403,-583.5001 289.9403,-580 279.9402,-576.5001 279.9403,-583.5001"/>
</g>
<!-- Node811 -->
<g id="node4" class="node">
<title>Node811</title>
<g id="a_node4"><a xlink:href="structqjs_1_1js__traits_3_01detail_1_1function_01_4.html#afe383c63f389edaf9f878cd30062d37f" target="_top" xlink:title="qjs::js_traits\&lt; detail\l::function \&gt;::register_class">
<polygon fill="none" stroke="#000000" points="282,-609 282,-639 415,-639 415,-609 282,-609"/>
<text text-anchor="start" x="290" y="-627" font-family="Helvetica,sans-Serif" font-size="10.00" fill="#000000">qjs::js_traits&lt; detail</text>
<text text-anchor="middle" x="348.5" y="-616" font-family="Helvetica,sans-Serif" font-size="10.00" fill="#000000">::function &gt;::register_class</text>
</a>
</g>
</g>
<!-- Node809&#45;&gt;Node811 -->
<g id="edge3" class="edge">
<title>Node809&#45;&gt;Node811</title>
<path fill="none" stroke="#191970" d="M224.7836,-589.5473C242.2549,-594.4128 264.077,-600.4898 284.5085,-606.1796"/>
<polygon fill="#191970" stroke="#191970" points="283.8292,-609.6235 294.4016,-608.9346 285.7072,-602.8801 283.8292,-609.6235"/>
</g>
<!-- Node812 -->
<g id="node5" class="node">
<title>Node812</title>
<g id="a_node5"><a xlink:href="quickjs_8c.html#a4f56d0a794368a8861c89819fc79cdb5" target="_top" xlink:title="JS_NewClassID">
<polygon fill="none" stroke="#000000" points="479,-614.5 479,-633.5 569,-633.5 569,-614.5 479,-614.5"/>
<text text-anchor="middle" x="524" y="-621.5" font-family="Helvetica,sans-Serif" font-size="10.00" fill="#000000">JS_NewClassID</text>
</a>
</g>
</g>
<!-- Node811&#45;&gt;Node812 -->
<g id="edge4" class="edge">
<title>Node811&#45;&gt;Node812</title>
<path fill="none" stroke="#191970" d="M415.0993,-624C432.7656,-624 451.6482,-624 468.6446,-624"/>
<polygon fill="#191970" stroke="#191970" points="468.9558,-627.5001 478.9558,-624 468.9557,-620.5001 468.9558,-627.5001"/>
</g>
<!-- Node813 -->
<g id="node6" class="node">
<title>Node813</title>
<g id="a_node6"><a xlink:href="quickjs_8c.html#af1866c7f8a91153f11602a2b521d9399" target="_top" xlink:title="JS_GetRuntime">
<polygon fill="none" stroke="#000000" points="481,-576.5 481,-595.5 567,-595.5 567,-576.5 481,-576.5"/>
<text text-anchor="middle" x="524" y="-583.5" font-family="Helvetica,sans-Serif" font-size="10.00" fill="#000000">JS_GetRuntime</text>
</a>
</g>
</g>
<!-- Node811&#45;&gt;Node813 -->
<g id="edge5" class="edge">
<title>Node811&#45;&gt;Node813</title>
<path fill="none" stroke="#191970" d="M415.0993,-609.5796C433.4997,-605.5955 453.2196,-601.3257 470.7533,-597.5292"/>
<polygon fill="#191970" stroke="#191970" points="471.765,-600.8913 480.7978,-595.3543 470.2836,-594.0499 471.765,-600.8913"/>
</g>
<!-- Node814 -->
<g id="node7" class="node">
<title>Node814</title>
<g id="a_node7"><a xlink:href="quickjs_8c.html#a3f0ebc39396c0cd909ec04585f92b1b9" target="_top" xlink:title="JS_IsRegisteredClass">
<polygon fill="none" stroke="#000000" points="466.5,-304.5 466.5,-323.5 581.5,-323.5 581.5,-304.5 466.5,-304.5"/>
<text text-anchor="middle" x="524" y="-311.5" font-family="Helvetica,sans-Serif" font-size="10.00" fill="#000000">JS_IsRegisteredClass</text>
</a>
</g>
</g>
<!-- Node811&#45;&gt;Node814 -->
<g id="edge6" class="edge">
<title>Node811&#45;&gt;Node814</title>
<path fill="none" stroke="#191970" d="M414.3601,-608.7883C418.67,-606.0451 422.627,-602.8113 426,-599 482.0924,-535.6194 430.8316,-490.6892 462,-412 474.0329,-381.6212 495.7278,-350.3728 509.9976,-331.5673"/>
<polygon fill="#191970" stroke="#191970" points="512.7952,-333.6711 516.1508,-323.6217 507.2607,-329.3851 512.7952,-333.6711"/>
</g>
<!-- Node815 -->
<g id="node8" class="node">
<title>Node815</title>
<g id="a_node8"><a xlink:href="quickjs_8c.html#a5644dc5dba0d760dcc06cc1a79e256cc" target="_top" xlink:title="JS_GetOpaque">
<polygon fill="none" stroke="#000000" points="630,-614.5 630,-633.5 713,-633.5 713,-614.5 630,-614.5"/>
<text text-anchor="middle" x="671.5" y="-621.5" font-family="Helvetica,sans-Serif" font-size="10.00" fill="#000000">JS_GetOpaque</text>
</a>
</g>
</g>
<!-- Node811&#45;&gt;Node815 -->
<g id="edge7" class="edge">
<title>Node811&#45;&gt;Node815</title>
<path fill="none" stroke="#191970" d="M404.7302,-608.9451C412.0924,-606.0918 419.3723,-602.789 426,-599 444.5846,-588.3754 441.9902,-574.6077 462,-567 513.5136,-547.4146 533.2536,-551.0297 586,-567 612.172,-574.9242 637.6552,-593.794 653.8915,-607.6611"/>
<polygon fill="#191970" stroke="#191970" points="651.6807,-610.3781 661.4939,-614.3722 656.3133,-605.1303 651.6807,-610.3781"/>
</g>
<!-- Node816 -->
<g id="node9" class="node">
<title>Node816</title>
<g id="a_node9"><a xlink:href="quickjs_8c.html#a69e19dda8a93d613203e0baa06f0ed8d" target="_top" xlink:title="js_free_rt">
<polygon fill="none" stroke="#000000" points="495.5,-421.5 495.5,-440.5 552.5,-440.5 552.5,-421.5 495.5,-421.5"/>
<text text-anchor="middle" x="524" y="-428.5" font-family="Helvetica,sans-Serif" font-size="10.00" fill="#000000">js_free_rt</text>
</a>
</g>
</g>
<!-- Node811&#45;&gt;Node816 -->
<g id="edge8" class="edge">
<title>Node811&#45;&gt;Node816</title>
<path fill="none" stroke="#191970" d="M410.4258,-608.9012C416.0019,-606.1331 421.3058,-602.8627 426,-599 451.5004,-578.0168 445.4818,-562.5958 462,-534 479.304,-504.0439 500.1914,-469.7004 512.7681,-449.2086"/>
<polygon fill="#191970" stroke="#191970" points="515.8129,-450.9389 518.0708,-440.5874 509.8505,-447.2715 515.8129,-450.9389"/>
</g>
<!-- Node817 -->
<g id="node10" class="node">
<title>Node817</title>
<g id="a_node10"><a xlink:href="quickjs_8c.html#a1951b8aab94369f326d8c0720097c523" target="_top" xlink:title="JS_GetOpaque2">
<polygon fill="none" stroke="#ff0000" points="479.5,-690.5 479.5,-709.5 568.5,-709.5 568.5,-690.5 479.5,-690.5"/>
<text text-anchor="middle" x="524" y="-697.5" font-family="Helvetica,sans-Serif" font-size="10.00" fill="#000000">JS_GetOpaque2</text>
</a>
</g>
</g>
<!-- Node811&#45;&gt;Node817 -->
<g id="edge9" class="edge">
<title>Node811&#45;&gt;Node817</title>
<path fill="none" stroke="#191970" d="M375.4277,-639.1402C398.0595,-651.4682 431.5059,-668.7712 462,-681 467.556,-683.2281 473.4787,-685.3502 479.3761,-687.3144"/>
<polygon fill="#191970" stroke="#191970" points="478.6168,-690.7463 489.2079,-690.4616 480.7509,-684.0795 478.6168,-690.7463"/>
</g>
<!-- Node819 -->
<g id="node11" class="node">
<title>Node819</title>
<g id="a_node11"><a xlink:href="quickjs_8c.html#a9f0339d81c06451de278073572cc194e" target="_top" xlink:title="JS_NewClass">
<polygon fill="none" stroke="#ff0000" points="484,-652.5 484,-671.5 564,-671.5 564,-652.5 484,-652.5"/>
<text text-anchor="middle" x="524" y="-659.5" font-family="Helvetica,sans-Serif" font-size="10.00" fill="#000000">JS_NewClass</text>
</a>
</g>
</g>
<!-- Node811&#45;&gt;Node819 -->
<g id="edge11" class="edge">
<title>Node811&#45;&gt;Node819</title>
<path fill="none" stroke="#191970" d="M415.0993,-638.4204C434.6535,-642.6543 455.6977,-647.2109 474.025,-651.1792"/>
<polygon fill="#191970" stroke="#191970" points="473.3863,-654.6219 483.9005,-653.3175 474.8677,-647.7805 473.3863,-654.6219"/>
</g>
<!-- Node817&#45;&gt;Node815 -->
<g id="edge10" class="edge">
<title>Node817&#45;&gt;Node815</title>
<path fill="none" stroke="#191970" d="M561.3847,-690.4654C569.6635,-687.8286 578.2687,-684.6651 586,-681 609.8857,-669.6766 634.7645,-652.3658 651.4849,-639.792"/>
<polygon fill="#191970" stroke="#191970" points="653.6232,-642.5629 659.4364,-633.7052 649.3683,-637.0044 653.6232,-642.5629"/>
</g>
<!-- Node843 -->
<g id="node13" class="node">
<title>Node843</title>
<g id="a_node13"><a xlink:href="quickjs_8c.html#a4c9489297c684663f30e517204a9ec14" target="_top" xlink:title="JS_AddIntrinsicBaseObjects">
<polygon fill="none" stroke="#ff0000" points="277.5,-133.5 277.5,-152.5 419.5,-152.5 419.5,-133.5 277.5,-133.5"/>
<text text-anchor="middle" x="348.5" y="-140.5" font-family="Helvetica,sans-Serif" font-size="10.00" fill="#000000">JS_AddIntrinsicBaseObjects</text>
</a>
</g>
</g>
<!-- Node842&#45;&gt;Node843 -->
<g id="edge13" class="edge">
<title>Node842&#45;&gt;Node843</title>
<path fill="none" stroke="#191970" d="M192.1112,-361.4102C197.652,-331.1512 218.5505,-236.4232 271,-181 281.0289,-170.4024 294.6401,-162.3692 307.6578,-156.4827"/>
<polygon fill="#191970" stroke="#191970" points="309.1082,-159.6698 316.9721,-152.5698 306.397,-153.2161 309.1082,-159.6698"/>
</g>
<!-- Node1292 -->
<g id="node21" class="node">
<title>Node1292</title>
<g id="a_node21"><a xlink:href="quickjs_8c.html#a8ecbf5799518b7bfc3fefd47c7a0dd4e" target="_top" xlink:title="JS_AddIntrinsicDate">
<polygon fill="none" stroke="#ff0000" points="295,-532.5 295,-551.5 402,-551.5 402,-532.5 295,-532.5"/>
<text text-anchor="middle" x="348.5" y="-539.5" font-family="Helvetica,sans-Serif" font-size="10.00" fill="#000000">JS_AddIntrinsicDate</text>
</a>
</g>
</g>
<!-- Node842&#45;&gt;Node1292 -->
<g id="edge22" class="edge">
<title>Node842&#45;&gt;Node1292</title>
<path fill="none" stroke="#191970" d="M192.6663,-380.6093C199.2709,-407.6011 221.7764,-484.6328 271,-523 275.3705,-526.4066 280.2673,-529.2125 285.4193,-531.5222"/>
<polygon fill="#191970" stroke="#191970" points="284.3197,-534.8491 294.9098,-535.1665 286.8291,-528.3143 284.3197,-534.8491"/>
</g>
<!-- Node1315 -->
<g id="node22" class="node">
<title>Node1315</title>
<g id="a_node22"><a xlink:href="quickjs_8c.html#acbcccb7ec58fd4a024ea1d01e5d04561" target="_top" xlink:title="JS_AddIntrinsicEval">
<polygon fill="none" stroke="#ff0000" points="296,-494.5 296,-513.5 401,-513.5 401,-494.5 296,-494.5"/>
<text text-anchor="middle" x="348.5" y="-501.5" font-family="Helvetica,sans-Serif" font-size="10.00" fill="#000000">JS_AddIntrinsicEval</text>
</a>
</g>
</g>
<!-- Node842&#45;&gt;Node1315 -->
<g id="edge23" class="edge">
<title>Node842&#45;&gt;Node1315</title>
<path fill="none" stroke="#191970" d="M194.4779,-380.7273C204.0821,-402.9381 230.7567,-457.5749 271,-485 275.6507,-488.1693 280.777,-490.8113 286.1108,-493.0134"/>
<polygon fill="#191970" stroke="#191970" points="285.2835,-496.4351 295.878,-496.521 287.6495,-489.847 285.2835,-496.4351"/>
</g>
<!-- Node1495 -->
<g id="node23" class="node">
<title>Node1495</title>
<g id="a_node23"><a xlink:href="quickjs_8c.html#ac43d15fc0b5d1b90ae3c92779ab12725" target="_top" xlink:title="JS_AddIntrinsicJSON">
<polygon fill="none" stroke="#ff0000" points="292,-456.5 292,-475.5 405,-475.5 405,-456.5 292,-456.5"/>
<text text-anchor="middle" x="348.5" y="-463.5" font-family="Helvetica,sans-Serif" font-size="10.00" fill="#000000">JS_AddIntrinsicJSON</text>
</a>
</g>
</g>
<!-- Node842&#45;&gt;Node1495 -->
<g id="edge24" class="edge">
<title>Node842&#45;&gt;Node1495</title>
<path fill="none" stroke="#191970" d="M197.8045,-380.5812C210.7262,-396.8343 239.2642,-429.723 271,-447 275.1901,-449.2811 279.6552,-451.2923 284.2457,-453.0649"/>
<polygon fill="#191970" stroke="#191970" points="283.2015,-456.4072 293.7963,-456.3785 285.496,-449.794 283.2015,-456.4072"/>
</g>
<!-- Node1496 -->
<g id="node24" class="node">
<title>Node1496</title>
<g id="a_node24"><a xlink:href="quickjs_8c.html#a4497f8c7cf2ec38da989910ae8b1f042" target="_top" xlink:title="JS_AddIntrinsicMapSet">
<polygon fill="none" stroke="#ff0000" points="289,-228.5 289,-247.5 408,-247.5 408,-228.5 289,-228.5"/>
<text text-anchor="middle" x="348.5" y="-235.5" font-family="Helvetica,sans-Serif" font-size="10.00" fill="#000000">JS_AddIntrinsicMapSet</text>
</a>
</g>
</g>
<!-- Node842&#45;&gt;Node1496 -->
<g id="edge25" class="edge">
<title>Node842&#45;&gt;Node1496</title>
<path fill="none" stroke="#191970" d="M194.4779,-361.2727C204.0821,-339.0619 230.7567,-284.4251 271,-257 273.9514,-254.9887 277.0943,-253.1898 280.3603,-251.5809"/>
<polygon fill="#191970" stroke="#191970" points="282.0141,-254.6804 289.8334,-247.5313 279.2625,-248.2439 282.0141,-254.6804"/>
</g>
<!-- Node1498 -->
<g id="node25" class="node">
<title>Node1498</title>
<g id="a_node25"><a xlink:href="quickjs_8c.html#a2e66fcf1bc1d19f346317f10ee590621" target="_top" xlink:title="JS_AddIntrinsicPromise">
<polygon fill="none" stroke="#ff0000" points="287.5,-266.5 287.5,-285.5 409.5,-285.5 409.5,-266.5 287.5,-266.5"/>
<text text-anchor="middle" x="348.5" y="-273.5" font-family="Helvetica,sans-Serif" font-size="10.00" fill="#000000">JS_AddIntrinsicPromise</text>
</a>
</g>
</g>
<!-- Node842&#45;&gt;Node1498 -->
<g id="edge27" class="edge">
<title>Node842&#45;&gt;Node1498</title>
<path fill="none" stroke="#191970" d="M197.8045,-361.4188C210.7262,-345.1657 239.2642,-312.277 271,-295 275.1901,-292.7189 279.6552,-290.7077 284.2457,-288.9351"/>
<polygon fill="#191970" stroke="#191970" points="285.496,-292.206 293.7963,-285.6215 283.2015,-285.5928 285.496,-292.206"/>
</g>
<!-- Node1520 -->
<g id="node26" class="node">
<title>Node1520</title>
<g id="a_node26"><a xlink:href="quickjs_8c.html#a3afdbdd7b58ef7e1dcc178c362071b3d" target="_top" xlink:title="JS_AddIntrinsicProxy">
<polygon fill="none" stroke="#ff0000" points="293,-304.5 293,-323.5 404,-323.5 404,-304.5 293,-304.5"/>
<text text-anchor="middle" x="348.5" y="-311.5" font-family="Helvetica,sans-Serif" font-size="10.00" fill="#000000">JS_AddIntrinsicProxy</text>
</a>
</g>
</g>
<!-- Node842&#45;&gt;Node1520 -->
<g id="edge29" class="edge">
<title>Node842&#45;&gt;Node1520</title>
<path fill="none" stroke="#191970" d="M207.9717,-361.4973C223.9935,-353.0892 248.5682,-340.9534 271,-333 278.0813,-330.4893 285.6406,-328.1896 293.1575,-326.1242"/>
<polygon fill="#191970" stroke="#191970" points="294.1885,-329.4722 302.971,-323.546 292.4098,-322.7019 294.1885,-329.4722"/>
</g>
<!-- Node1524 -->
<g id="node27" class="node">
<title>Node1524</title>
<g id="a_node27"><a xlink:href="quickjs_8c.html#aafc8241682ce24b6d72e0f237ee85a51" target="_top" xlink:title="JS_AddIntrinsicRegExp">
<polygon fill="none" stroke="#ff0000" points="288,-418.5 288,-437.5 409,-437.5 409,-418.5 288,-418.5"/>
<text text-anchor="middle" x="348.5" y="-425.5" font-family="Helvetica,sans-Serif" font-size="10.00" fill="#000000">JS_AddIntrinsicRegExp</text>
</a>
</g>
</g>
<!-- Node842&#45;&gt;Node1524 -->
<g id="edge31" class="edge">
<title>Node842&#45;&gt;Node1524</title>
<path fill="none" stroke="#191970" d="M207.9717,-380.5027C223.9935,-388.9108 248.5682,-401.0466 271,-409 278.0813,-411.5107 285.6406,-413.8104 293.1575,-415.8758"/>
<polygon fill="#191970" stroke="#191970" points="292.4098,-419.2981 302.971,-418.454 294.1885,-412.5278 292.4098,-419.2981"/>
</g>
<!-- Node1584 -->
<g id="node28" class="node">
<title>Node1584</title>
<g id="a_node28"><a xlink:href="quickjs_8c.html#abd9525850b564b2c2d2cb6ddfd89b1c6" target="_top" xlink:title="JS_AddIntrinsicStringNormalize">
<polygon fill="none" stroke="#ff0000" points="271,-380.5 271,-399.5 426,-399.5 426,-380.5 271,-380.5"/>
<text text-anchor="middle" x="348.5" y="-387.5" font-family="Helvetica,sans-Serif" font-size="10.00" fill="#000000">JS_AddIntrinsicStringNormalize</text>
</a>
</g>
</g>
<!-- Node842&#45;&gt;Node1584 -->
<g id="edge32" class="edge">
<title>Node842&#45;&gt;Node1584</title>
<path fill="none" stroke="#191970" d="M235.3538,-376.3938C243.4409,-377.3663 252.119,-378.4099 260.9413,-379.4708"/>
<polygon fill="#191970" stroke="#191970" points="260.5929,-382.954 270.9392,-380.6731 261.4287,-376.0041 260.5929,-382.954"/>
</g>
<!-- Node1585 -->
<g id="node29" class="node">
<title>Node1585</title>
<g id="a_node29"><a xlink:href="quickjs_8c.html#a177d09828596bfe6df4bd90b2e93989d" target="_top" xlink:title="JS_AddIntrinsicTypedArrays">
<polygon fill="none" stroke="#ff0000" points="278,-190.5 278,-209.5 419,-209.5 419,-190.5 278,-190.5"/>
<text text-anchor="middle" x="348.5" y="-197.5" font-family="Helvetica,sans-Serif" font-size="10.00" fill="#000000">JS_AddIntrinsicTypedArrays</text>
</a>
</g>
</g>
<!-- Node842&#45;&gt;Node1585 -->
<g id="edge33" class="edge">
<title>Node842&#45;&gt;Node1585</title>
<path fill="none" stroke="#191970" d="M192.6663,-361.3907C199.2709,-334.3989 221.7764,-257.3672 271,-219 273.3048,-217.2036 275.7559,-215.5742 278.3136,-214.0965"/>
<polygon fill="#191970" stroke="#191970" points="279.9415,-217.1962 287.3627,-209.6347 276.8459,-210.9179 279.9415,-217.1962"/>
</g>
<!-- Node1609 -->
<g id="node30" class="node">
<title>Node1609</title>
<g id="a_node30"><a xlink:href="quickjs_8c.html#a442ff496ba00319ad39eb0a129b9eb8b" target="_top" xlink:title="JS_NewContextRaw">
<polygon fill="none" stroke="#ff0000" points="294,-342.5 294,-361.5 403,-361.5 403,-342.5 294,-342.5"/>
<text text-anchor="middle" x="348.5" y="-349.5" font-family="Helvetica,sans-Serif" font-size="10.00" fill="#000000">JS_NewContextRaw</text>
</a>
</g>
</g>
<!-- Node842&#45;&gt;Node1609 -->
<g id="edge36" class="edge">
<title>Node842&#45;&gt;Node1609</title>
<path fill="none" stroke="#191970" d="M235.3538,-365.6062C250.4644,-363.7891 267.6389,-361.7238 283.9607,-359.7611"/>
<polygon fill="#191970" stroke="#191970" points="284.4765,-363.2243 293.9871,-358.5553 283.6407,-356.2744 284.4765,-363.2243"/>
</g>
<!-- Node844 -->
<g id="node14" class="node">
<title>Node844</title>
<g id="a_node14"><a xlink:href="quickjs_8c.html#a68c7842d6b1ef577bc4625aec4ede310" target="_top" xlink:title="js_array_constructor">
<polygon fill="none" stroke="#ff0000" points="471.5,-76.5 471.5,-95.5 576.5,-95.5 576.5,-76.5 471.5,-76.5"/>
<text text-anchor="middle" x="524" y="-83.5" font-family="Helvetica,sans-Serif" font-size="10.00" fill="#000000">js_array_constructor</text>
</a>
</g>
</g>
<!-- Node843&#45;&gt;Node844 -->
<g id="edge14" class="edge">
<title>Node843&#45;&gt;Node844</title>
<path fill="none" stroke="#191970" d="M376.4205,-133.4296C399.3548,-125.622 432.7137,-114.3883 462,-105 468.6267,-102.8757 475.6679,-100.6695 482.5371,-98.5449"/>
<polygon fill="#191970" stroke="#191970" points="483.8802,-101.7937 492.41,-95.5094 481.823,-95.1028 483.8802,-101.7937"/>
</g>
<!-- Node1053 -->
<g id="node15" class="node">
<title>Node1053</title>
<g id="a_node15"><a xlink:href="quickjs_8c.html#ab18048ab5eea3e47109a5473f78515bc" target="_top" xlink:title="JS_AtomGetStr">
<polygon fill="none" stroke="#ff0000" points="481,-228.5 481,-247.5 567,-247.5 567,-228.5 481,-228.5"/>
<text text-anchor="middle" x="524" y="-235.5" font-family="Helvetica,sans-Serif" font-size="10.00" fill="#000000">JS_AtomGetStr</text>
</a>
</g>
</g>
<!-- Node843&#45;&gt;Node1053 -->
<g id="edge15" class="edge">
<title>Node843&#45;&gt;Node1053</title>
<path fill="none" stroke="#191970" d="M373.506,-152.559C389.3481,-159.2489 409.8239,-169.1027 426,-181 444.7413,-194.784 442.2262,-206.7431 462,-219 465.4014,-221.1084 469.0536,-222.9976 472.8214,-224.6878"/>
<polygon fill="#191970" stroke="#191970" points="471.7631,-228.0339 482.3481,-228.491 474.3585,-221.5328 471.7631,-228.0339"/>
</g>
<!-- Node911 -->
<g id="node16" class="node">
<title>Node911</title>
<g id="a_node16"><a xlink:href="quickjs_8c.html#a260bfa297ff6cb5bd18e229afaa54663" target="_top" xlink:title="JS_AtomToString">
<polygon fill="none" stroke="#ff0000" points="477,-152.5 477,-171.5 571,-171.5 571,-152.5 477,-152.5"/>
<text text-anchor="middle" x="524" y="-159.5" font-family="Helvetica,sans-Serif" font-size="10.00" fill="#000000">JS_AtomToString</text>
</a>
</g>
</g>
<!-- Node843&#45;&gt;Node911 -->
<g id="edge16" class="edge">
<title>Node843&#45;&gt;Node911</title>
<path fill="none" stroke="#191970" d="M419.6296,-150.7006C435.3013,-152.3973 451.7071,-154.1734 466.7477,-155.8017"/>
<polygon fill="#191970" stroke="#191970" points="466.5978,-159.3059 476.9165,-156.9026 467.3513,-152.3466 466.5978,-159.3059"/>
</g>
<!-- Node1111 -->
<g id="node17" class="node">
<title>Node1111</title>
<g id="a_node17"><a xlink:href="quickjs_8c.html#afa67965c1017685fc6783776d6d0d4d7" target="_top" xlink:title="JS_AtomToValue">
<polygon fill="none" stroke="#ff0000" points="477.5,-114.5 477.5,-133.5 570.5,-133.5 570.5,-114.5 477.5,-114.5"/>
<text text-anchor="middle" x="524" y="-121.5" font-family="Helvetica,sans-Serif" font-size="10.00" fill="#000000">JS_AtomToValue</text>
</a>
</g>
</g>
<!-- Node843&#45;&gt;Node1111 -->
<g id="edge17" class="edge">
<title>Node843&#45;&gt;Node1111</title>
<path fill="none" stroke="#191970" d="M419.6296,-135.2994C435.4557,-133.586 452.0304,-131.7916 467.1918,-130.1502"/>
<polygon fill="#191970" stroke="#191970" points="467.8707,-133.5972 477.4358,-129.0411 467.1172,-126.6379 467.8707,-133.5972"/>
</g>
<!-- Node1257 -->
<g id="node18" class="node">
<title>Node1257</title>
<g id="a_node18"><a xlink:href="quickjs_8c.html#afdf7195d04af324d0c20a7fd13a040ba" target="_top" xlink:title="js_boolean_constructor">
<polygon fill="none" stroke="#ff0000" points="465.5,-.5 465.5,-19.5 582.5,-19.5 582.5,-.5 465.5,-.5"/>
<text text-anchor="middle" x="524" y="-7.5" font-family="Helvetica,sans-Serif" font-size="10.00" fill="#000000">js_boolean_constructor</text>
</a>
</g>
</g>
<!-- Node843&#45;&gt;Node1257 -->
<g id="edge18" class="edge">
<title>Node843&#45;&gt;Node1257</title>
<path fill="none" stroke="#191970" d="M356.3128,-133.226C373.4314,-112.3747 416.3785,-63.0656 462,-34 468.3578,-29.9494 475.5071,-26.4035 482.6302,-23.3684"/>
<polygon fill="#191970" stroke="#191970" points="484.249,-26.4915 492.2504,-19.5468 481.6647,-19.986 484.249,-26.4915"/>
</g>
<!-- Node987 -->
<g id="node19" class="node">
<title>Node987</title>
<g id="a_node19"><a xlink:href="quickjs_8c.html#ab50618f1bf78e444caa6da0e3e2785d7" target="_top" xlink:title="JS_DefineProperty">
<polygon fill="none" stroke="#ff0000" points="622,-114.5 622,-133.5 721,-133.5 721,-114.5 622,-114.5"/>
<text text-anchor="middle" x="671.5" y="-121.5" font-family="Helvetica,sans-Serif" font-size="10.00" fill="#000000">JS_DefineProperty</text>
</a>
</g>
</g>
<!-- Node843&#45;&gt;Node987 -->
<g id="edge19" class="edge">
<title>Node843&#45;&gt;Node987</title>
<path fill="none" stroke="#191970" d="M358.354,-133.3364C376.8121,-115.9936 418.6623,-80.1697 462,-67 514.7302,-50.9761 533.2536,-51.0297 586,-67 612.172,-74.9242 637.6552,-93.794 653.8915,-107.6611"/>
<polygon fill="#191970" stroke="#191970" points="651.6807,-110.3781 661.4939,-114.3722 656.3133,-105.1303 651.6807,-110.3781"/>
</g>
<!-- Node986 -->
<g id="node20" class="node">
<title>Node986</title>
<g id="a_node20"><a xlink:href="quickjs_8c.html#a0a8765bd4012467d9139bc24aabcb3ca" target="_top" xlink:title="JS_DefinePropertyValue">
<polygon fill="none" stroke="#ff0000" points="462,-190.5 462,-209.5 586,-209.5 586,-190.5 462,-190.5"/>
<text text-anchor="middle" x="524" y="-197.5" font-family="Helvetica,sans-Serif" font-size="10.00" fill="#000000">JS_DefinePropertyValue</text>
</a>
</g>
</g>
<!-- Node843&#45;&gt;Node986 -->
<g id="edge20" class="edge">
<title>Node843&#45;&gt;Node986</title>
<path fill="none" stroke="#191970" d="M376.4205,-152.5704C399.3548,-160.378 432.7137,-171.6117 462,-181 468.6267,-183.1243 475.6679,-185.3305 482.5371,-187.4551"/>
<polygon fill="#191970" stroke="#191970" points="481.823,-190.8972 492.41,-190.4906 483.8802,-184.2063 481.823,-190.8972"/>
</g>
<!-- Node986&#45;&gt;Node987 -->
<g id="edge21" class="edge">
<title>Node986&#45;&gt;Node987</title>
<path fill="none" stroke="#191970" d="M561.3847,-190.4654C569.6635,-187.8286 578.2687,-184.6651 586,-181 609.8857,-169.6766 634.7645,-152.3658 651.4849,-139.792"/>
<polygon fill="#191970" stroke="#191970" points="653.6232,-142.5629 659.4364,-133.7052 649.3683,-137.0044 653.6232,-142.5629"/>
</g>
<!-- Node1496&#45;&gt;Node1053 -->
<g id="edge26" class="edge">
<title>Node1496&#45;&gt;Node1053</title>
<path fill="none" stroke="#191970" d="M408.4063,-238C428.7005,-238 451.2113,-238 470.9356,-238"/>
<polygon fill="#191970" stroke="#191970" points="470.9696,-241.5001 480.9696,-238 470.9695,-234.5001 470.9696,-241.5001"/>
</g>
<!-- Node1498&#45;&gt;Node814 -->
<g id="edge28" class="edge">
<title>Node1498&#45;&gt;Node814</title>
<path fill="none" stroke="#191970" d="M392.7861,-285.589C416.2581,-290.6713 445.281,-296.9554 470.0584,-302.3203"/>
<polygon fill="#191970" stroke="#191970" points="469.5182,-305.7844 480.0324,-304.4799 470.9996,-298.9429 469.5182,-305.7844"/>
</g>
<!-- Node1520&#45;&gt;Node814 -->
<g id="edge30" class="edge">
<title>Node1520&#45;&gt;Node814</title>
<path fill="none" stroke="#191970" d="M404.0293,-314C420.6507,-314 439.0632,-314 456.3717,-314"/>
<polygon fill="#191970" stroke="#191970" points="456.4133,-317.5001 466.4132,-314 456.4132,-310.5001 456.4133,-317.5001"/>
</g>
<!-- Node1585&#45;&gt;Node1053 -->
<g id="edge34" class="edge">
<title>Node1585&#45;&gt;Node1053</title>
<path fill="none" stroke="#191970" d="M392.7861,-209.589C416.5259,-214.7293 445.9439,-221.099 470.9047,-226.5036"/>
<polygon fill="#191970" stroke="#191970" points="470.4273,-229.9812 480.9415,-228.6768 471.9087,-223.1398 470.4273,-229.9812"/>
</g>
<!-- Node1585&#45;&gt;Node986 -->
<g id="edge35" class="edge">
<title>Node1585&#45;&gt;Node986</title>
<path fill="none" stroke="#191970" d="M419.124,-200C429.8066,-200 440.8415,-200 451.5618,-200"/>
<polygon fill="#191970" stroke="#191970" points="451.7219,-203.5001 461.7219,-200 451.7219,-196.5001 451.7219,-203.5001"/>
</g>
<!-- Node1609&#45;&gt;Node816 -->
<g id="edge37" class="edge">
<title>Node1609&#45;&gt;Node816</title>
<path fill="none" stroke="#191970" d="M397.6098,-361.6069C407.1986,-364.1583 417.049,-367.2693 426,-371 454.2958,-382.7934 483.9319,-402.0468 503.1043,-415.5554"/>
<polygon fill="#191970" stroke="#191970" points="501.2128,-418.5059 511.3791,-421.4887 505.2919,-412.8172 501.2128,-418.5059"/>
</g>
</g>
</svg>
