<?xml version="1.0" encoding="UTF-8" standalone="no"?>
<!DOCTYPE svg PUBLIC "-//W3C//DTD SVG 1.1//EN"
 "http://www.w3.org/Graphics/SVG/1.1/DTD/svg11.dtd">
<!-- Generated by graphviz version 2.40.1 (20161225.0304)
 -->
<!-- Title: qjs::Value::release Pages: 1 -->
<svg width="252pt" height="137pt"
 viewBox="0.00 0.00 252.00 137.00" xmlns="http://www.w3.org/2000/svg" xmlns:xlink="http://www.w3.org/1999/xlink">
<g id="graph0" class="graph" transform="scale(1 1) rotate(0) translate(4 133)">
<title>qjs::Value::release</title>
<!-- Node88 -->
<g id="node1" class="node">
<title>Node88</title>
<polygon fill="#bfbfbf" stroke="#000000" points="0,-55 0,-74 98,-74 98,-55 0,-55"/>
<text text-anchor="middle" x="49" y="-62" font-family="Helvetica,sans-Serif" font-size="10.00" fill="#000000">qjs::Value::release</text>
</g>
<!-- Node89 -->
<g id="node2" class="node">
<title>Node89</title>
<g id="a_node2"><a xlink:href="classqjs_1_1Value.html#ad04b949f09968e4677fcfc1141b4b180" target="_top" xlink:title="Implicit conversion to JSValue (rvalue only). ">
<polygon fill="none" stroke="#000000" points="138.5,-98.5 138.5,-128.5 239.5,-128.5 239.5,-98.5 138.5,-98.5"/>
<text text-anchor="start" x="146.5" y="-116.5" font-family="Helvetica,sans-Serif" font-size="10.00" fill="#000000">qjs::Value::operator</text>
<text text-anchor="middle" x="189" y="-105.5" font-family="Helvetica,sans-Serif" font-size="10.00" fill="#000000"> JSValue</text>
</a>
</g>
</g>
<!-- Node88&#45;&gt;Node89 -->
<g id="edge1" class="edge">
<title>Node88&#45;&gt;Node89</title>
<path fill="none" stroke="#191970" d="M85.8532,-77.3986C104.3207,-83.8622 126.7901,-91.7265 146.0372,-98.463"/>
<polygon fill="#191970" stroke="#191970" points="86.9206,-74.0641 76.3258,-74.064 84.6081,-80.6711 86.9206,-74.0641"/>
</g>
<!-- Node90 -->
<g id="node3" class="node">
<title>Node90</title>
<g id="a_node3"><a xlink:href="structqjs_1_1js__traits_3_01Value_01_4.html#af4727ca29ead31139e17d81f8d54fe68" target="_top" xlink:title="qjs::js_traits\&lt; Value\l \&gt;::wrap">
<polygon fill="none" stroke="#000000" points="137,-49.5 137,-79.5 241,-79.5 241,-49.5 137,-49.5"/>
<text text-anchor="start" x="145" y="-67.5" font-family="Helvetica,sans-Serif" font-size="10.00" fill="#000000">qjs::js_traits&lt; Value</text>
<text text-anchor="middle" x="189" y="-56.5" font-family="Helvetica,sans-Serif" font-size="10.00" fill="#000000"> &gt;::wrap</text>
</a>
</g>
</g>
<!-- Node88&#45;&gt;Node90 -->
<g id="edge2" class="edge">
<title>Node88&#45;&gt;Node90</title>
<path fill="none" stroke="#191970" d="M108.4395,-64.5C117.8546,-64.5 127.5306,-64.5 136.765,-64.5"/>
<polygon fill="#191970" stroke="#191970" points="108.3588,-61.0001 98.3588,-64.5 108.3587,-68.0001 108.3588,-61.0001"/>
</g>
<!-- Node91 -->
<g id="node4" class="node">
<title>Node91</title>
<g id="a_node4"><a xlink:href="structqjs_1_1js__traits_3_01std_1_1vector_3_01T_01_4_01_4.html#a0a1cc387d5c49e5cb5ae417730d32b1c" target="_top" xlink:title="qjs::js_traits\&lt; std\l::vector\&lt; T \&gt; \&gt;::wrap">
<polygon fill="none" stroke="#000000" points="134,-.5 134,-30.5 244,-30.5 244,-.5 134,-.5"/>
<text text-anchor="start" x="142" y="-18.5" font-family="Helvetica,sans-Serif" font-size="10.00" fill="#000000">qjs::js_traits&lt; std</text>
<text text-anchor="middle" x="189" y="-7.5" font-family="Helvetica,sans-Serif" font-size="10.00" fill="#000000">::vector&lt; T &gt; &gt;::wrap</text>
</a>
</g>
</g>
<!-- Node88&#45;&gt;Node91 -->
<g id="edge3" class="edge">
<title>Node88&#45;&gt;Node91</title>
<path fill="none" stroke="#191970" d="M85.8532,-51.6014C104.3207,-45.1378 126.7901,-37.2735 146.0372,-30.537"/>
<polygon fill="#191970" stroke="#191970" points="84.6081,-48.3289 76.3258,-54.936 86.9206,-54.9359 84.6081,-48.3289"/>
</g>
</g>
</svg>
