<?xml version="1.0" encoding="UTF-8" standalone="no"?>
<!DOCTYPE svg PUBLIC "-//W3C//DTD SVG 1.1//EN"
 "http://www.w3.org/Graphics/SVG/1.1/DTD/svg11.dtd">
<!-- Generated by graphviz version 2.40.1 (20161225.0304)
 -->
<!-- Title: qjs::Value::add_getter Pages: 1 -->
<svg width="639pt" height="236pt"
 viewBox="0.00 0.00 639.00 236.08" xmlns="http://www.w3.org/2000/svg" xmlns:xlink="http://www.w3.org/1999/xlink">
<g id="graph0" class="graph" transform="scale(1 1) rotate(0) translate(4 232.0752)">
<title>qjs::Value::add_getter</title>
<!-- Node162 -->
<g id="node1" class="node">
<title>Node162</title>
<polygon fill="#bfbfbf" stroke="#000000" points="0,-143.5 0,-162.5 112,-162.5 112,-143.5 0,-143.5"/>
<text text-anchor="middle" x="56" y="-150.5" font-family="Helvetica,sans-Serif" font-size="10.00" fill="#000000">qjs::Value::add_getter</text>
</g>
<!-- Node163 -->
<g id="node2" class="node">
<title>Node163</title>
<g id="a_node2"><a xlink:href="quickjs_8c.html#ab7fc45a99935a1c0ba50b0216d9401a9" target="_top" xlink:title="JS_FreeAtom">
<polygon fill="none" stroke="#000000" points="148,-190.5 148,-209.5 225,-209.5 225,-190.5 148,-190.5"/>
<text text-anchor="middle" x="186.5" y="-197.5" font-family="Helvetica,sans-Serif" font-size="10.00" fill="#000000">JS_FreeAtom</text>
</a>
</g>
</g>
<!-- Node162&#45;&gt;Node163 -->
<g id="edge1" class="edge">
<title>Node162&#45;&gt;Node163</title>
<path fill="none" stroke="#191970" d="M82.4086,-162.5112C101.9136,-169.5359 128.699,-179.1828 150.2136,-186.9313"/>
<polygon fill="#191970" stroke="#191970" points="149.0883,-190.2461 159.6827,-190.3417 151.4603,-183.6602 149.0883,-190.2461"/>
</g>
<!-- Node169 -->
<g id="node6" class="node">
<title>Node169</title>
<g id="a_node6"><a xlink:href="quickjs_8c.html#aa2ef5af1544a3012f91a80c98c326b8f" target="_top" xlink:title="JS_NewAtom">
<polygon fill="none" stroke="#000000" points="148,-124.5 148,-143.5 225,-143.5 225,-124.5 148,-124.5"/>
<text text-anchor="middle" x="186.5" y="-131.5" font-family="Helvetica,sans-Serif" font-size="10.00" fill="#000000">JS_NewAtom</text>
</a>
</g>
</g>
<!-- Node162&#45;&gt;Node169 -->
<g id="edge5" class="edge">
<title>Node162&#45;&gt;Node169</title>
<path fill="none" stroke="#191970" d="M112.1011,-144.832C120.6468,-143.5878 129.406,-142.3125 137.7768,-141.0938"/>
<polygon fill="#191970" stroke="#191970" points="138.3628,-144.5455 147.7542,-139.6412 137.3542,-137.6185 138.3628,-144.5455"/>
</g>
<!-- Node164 -->
<g id="node3" class="node">
<title>Node164</title>
<g id="a_node3"><a xlink:href="quickjs_8c.html#a7f6796ee7a195631366f57c713a33f65" target="_top" xlink:title="__JS_AtomIsConst">
<polygon fill="none" stroke="#000000" points="529,-190.5 529,-209.5 631,-209.5 631,-190.5 529,-190.5"/>
<text text-anchor="middle" x="580" y="-197.5" font-family="Helvetica,sans-Serif" font-size="10.00" fill="#000000">__JS_AtomIsConst</text>
</a>
</g>
</g>
<!-- Node163&#45;&gt;Node164 -->
<g id="edge2" class="edge">
<title>Node163&#45;&gt;Node164</title>
<path fill="none" stroke="#191970" d="M216.6178,-209.5048C230.0526,-213.2689 246.1666,-217.1383 261,-219 363.3085,-231.8405 390.4842,-230.0639 493,-219 506.7185,-217.5194 521.446,-214.7619 534.8115,-211.7977"/>
<polygon fill="#191970" stroke="#191970" points="535.7711,-215.1683 544.7274,-209.5084 534.1964,-208.3477 535.7711,-215.1683"/>
</g>
<!-- Node165 -->
<g id="node4" class="node">
<title>Node165</title>
<g id="a_node4"><a xlink:href="quickjs_8c.html#a0bbd9e3ecd55e3ea6c9d44bfda382095" target="_top" xlink:title="__JS_FreeAtom">
<polygon fill="none" stroke="#000000" points="264,-190.5 264,-209.5 351,-209.5 351,-190.5 264,-190.5"/>
<text text-anchor="middle" x="307.5" y="-197.5" font-family="Helvetica,sans-Serif" font-size="10.00" fill="#000000">__JS_FreeAtom</text>
</a>
</g>
</g>
<!-- Node163&#45;&gt;Node165 -->
<g id="edge3" class="edge">
<title>Node163&#45;&gt;Node165</title>
<path fill="none" stroke="#191970" d="M225.1178,-200C234.1587,-200 243.9531,-200 253.5269,-200"/>
<polygon fill="#191970" stroke="#191970" points="253.7829,-203.5001 263.7828,-200 253.7828,-196.5001 253.7829,-203.5001"/>
</g>
<!-- Node166 -->
<g id="node5" class="node">
<title>Node166</title>
<g id="a_node5"><a xlink:href="quickjs_8c.html#a58c8965dad50b15b75918a09f3d9dc7c" target="_top" xlink:title="JS_FreeAtomStruct">
<polygon fill="none" stroke="#ff0000" points="390,-190.5 390,-209.5 493,-209.5 493,-190.5 390,-190.5"/>
<text text-anchor="middle" x="441.5" y="-197.5" font-family="Helvetica,sans-Serif" font-size="10.00" fill="#000000">JS_FreeAtomStruct</text>
</a>
</g>
</g>
<!-- Node165&#45;&gt;Node166 -->
<g id="edge4" class="edge">
<title>Node165&#45;&gt;Node166</title>
<path fill="none" stroke="#191970" d="M351.006,-200C360.1943,-200 370.0576,-200 379.7722,-200"/>
<polygon fill="#191970" stroke="#191970" points="379.8075,-203.5001 389.8074,-200 379.8074,-196.5001 379.8075,-203.5001"/>
</g>
<!-- Node170 -->
<g id="node7" class="node">
<title>Node170</title>
<g id="a_node7"><a xlink:href="quickjs_8c.html#a522741f41afb1d0da0aa55968cd8579e" target="_top" xlink:title="JS_NewAtomLen">
<polygon fill="none" stroke="#000000" points="261,-95.5 261,-114.5 354,-114.5 354,-95.5 261,-95.5"/>
<text text-anchor="middle" x="307.5" y="-102.5" font-family="Helvetica,sans-Serif" font-size="10.00" fill="#000000">JS_NewAtomLen</text>
</a>
</g>
</g>
<!-- Node169&#45;&gt;Node170 -->
<g id="edge6" class="edge">
<title>Node169&#45;&gt;Node170</title>
<path fill="none" stroke="#191970" d="M225.1178,-124.7445C235.4966,-122.257 246.8684,-119.5315 257.7594,-116.9213"/>
<polygon fill="#191970" stroke="#191970" points="258.6752,-120.301 267.5841,-114.5666 257.0437,-113.4938 258.6752,-120.301"/>
</g>
<!-- Node171 -->
<g id="node8" class="node">
<title>Node171</title>
<g id="a_node8"><a xlink:href="quickjs_8c.html#ac8c91ebeea0cf07e3079c49a16de739f" target="_top" xlink:title="__JS_FindAtom">
<polygon fill="none" stroke="#ff0000" points="398.5,-152.5 398.5,-171.5 484.5,-171.5 484.5,-152.5 398.5,-152.5"/>
<text text-anchor="middle" x="441.5" y="-159.5" font-family="Helvetica,sans-Serif" font-size="10.00" fill="#000000">__JS_FindAtom</text>
</a>
</g>
</g>
<!-- Node170&#45;&gt;Node171 -->
<g id="edge7" class="edge">
<title>Node170&#45;&gt;Node171</title>
<path fill="none" stroke="#191970" d="M327.3121,-114.6555C343.9048,-122.6136 368.2909,-134.0119 390,-143 394.7754,-144.9772 399.8389,-146.9693 404.854,-148.8814"/>
<polygon fill="#191970" stroke="#191970" points="403.7579,-152.2082 414.3503,-152.4348 406.2111,-145.6522 403.7579,-152.2082"/>
</g>
<!-- Node173 -->
<g id="node9" class="node">
<title>Node173</title>
<g id="a_node9"><a xlink:href="quickjs_8c.html#ab3ca6381d29dea396b12acd7f755c51a" target="_top" xlink:title="is_digit">
<polygon fill="none" stroke="#000000" points="418,-114.5 418,-133.5 465,-133.5 465,-114.5 418,-114.5"/>
<text text-anchor="middle" x="441.5" y="-121.5" font-family="Helvetica,sans-Serif" font-size="10.00" fill="#000000">is_digit</text>
</a>
</g>
</g>
<!-- Node170&#45;&gt;Node173 -->
<g id="edge9" class="edge">
<title>Node170&#45;&gt;Node173</title>
<path fill="none" stroke="#191970" d="M354.3667,-111.6453C371.9493,-114.1383 391.5713,-116.9206 407.7364,-119.2126"/>
<polygon fill="#191970" stroke="#191970" points="407.4115,-122.7015 417.8038,-120.6401 408.3943,-115.7708 407.4115,-122.7015"/>
</g>
<!-- Node174 -->
<g id="node10" class="node">
<title>Node174</title>
<g id="a_node10"><a xlink:href="quickjs_8h.html#ad80a83d73e9b7d872b88fbf2943aebe9" target="_top" xlink:title="JS_IsException">
<polygon fill="none" stroke="#000000" points="398.5,-76.5 398.5,-95.5 484.5,-95.5 484.5,-76.5 398.5,-76.5"/>
<text text-anchor="middle" x="441.5" y="-83.5" font-family="Helvetica,sans-Serif" font-size="10.00" fill="#000000">JS_IsException</text>
</a>
</g>
</g>
<!-- Node170&#45;&gt;Node174 -->
<g id="edge10" class="edge">
<title>Node170&#45;&gt;Node174</title>
<path fill="none" stroke="#191970" d="M354.3667,-98.3547C365.3455,-96.798 377.1195,-95.1286 388.3505,-93.5361"/>
<polygon fill="#191970" stroke="#191970" points="389.0641,-96.97 398.4736,-92.1008 388.0813,-90.0394 389.0641,-96.97"/>
</g>
<!-- Node175 -->
<g id="node11" class="node">
<title>Node175</title>
<g id="a_node11"><a xlink:href="quickjs_8c.html#a33fd643aff7f70e649d246385cd99b00" target="_top" xlink:title="JS_NewAtomStr">
<polygon fill="none" stroke="#ff0000" points="396.5,-38.5 396.5,-57.5 486.5,-57.5 486.5,-38.5 396.5,-38.5"/>
<text text-anchor="middle" x="441.5" y="-45.5" font-family="Helvetica,sans-Serif" font-size="10.00" fill="#000000">JS_NewAtomStr</text>
</a>
</g>
</g>
<!-- Node170&#45;&gt;Node175 -->
<g id="edge11" class="edge">
<title>Node170&#45;&gt;Node175</title>
<path fill="none" stroke="#191970" d="M327.3121,-95.3445C343.9048,-87.3864 368.2909,-75.9881 390,-67 394.7754,-65.0228 399.8389,-63.0307 404.854,-61.1186"/>
<polygon fill="#191970" stroke="#191970" points="406.2111,-64.3478 414.3503,-57.5652 403.7579,-57.7918 406.2111,-64.3478"/>
</g>
<!-- Node190 -->
<g id="node12" class="node">
<title>Node190</title>
<g id="a_node12"><a xlink:href="quickjs_8c.html#ac34cc554aab1e98c45a7f845fff64385" target="_top" xlink:title="JS_NewStringLen">
<polygon fill="none" stroke="#ff0000" points="394,-.5 394,-19.5 489,-19.5 489,-.5 394,-.5"/>
<text text-anchor="middle" x="441.5" y="-7.5" font-family="Helvetica,sans-Serif" font-size="10.00" fill="#000000">JS_NewStringLen</text>
</a>
</g>
</g>
<!-- Node170&#45;&gt;Node190 -->
<g id="edge12" class="edge">
<title>Node170&#45;&gt;Node190</title>
<path fill="none" stroke="#191970" d="M315.7007,-95.2997C329.5502,-79.4555 359.0997,-47.8995 390,-29 393.1961,-27.0452 396.625,-25.2427 400.14,-23.5918"/>
<polygon fill="#191970" stroke="#191970" points="401.7223,-26.722 409.5441,-19.5756 398.973,-20.2844 401.7223,-26.722"/>
</g>
<!-- Node171&#45;&gt;Node164 -->
<g id="edge8" class="edge">
<title>Node171&#45;&gt;Node164</title>
<path fill="none" stroke="#191970" d="M476.4494,-171.589C494.3284,-176.4944 516.2884,-182.5196 535.3778,-187.7571"/>
<polygon fill="#191970" stroke="#191970" points="534.4921,-191.1434 545.0618,-190.4141 536.3443,-184.3928 534.4921,-191.1434"/>
</g>
</g>
</svg>
