<?xml version="1.0" encoding="UTF-8" standalone="no"?>
<!DOCTYPE svg PUBLIC "-//W3C//DTD SVG 1.1//EN"
 "http://www.w3.org/Graphics/SVG/1.1/DTD/svg11.dtd">
<!-- Generated by graphviz version 2.40.1 (20161225.0304)
 -->
<!-- Title: qjs::Context::Module::Module Pages: 1 -->
<svg width="668pt" height="241pt"
 viewBox="0.00 0.00 668.00 240.78" xmlns="http://www.w3.org/2000/svg" xmlns:xlink="http://www.w3.org/1999/xlink">
<g id="graph0" class="graph" transform="scale(1 1) rotate(0) translate(4 236.78)">
<title>qjs::Context::Module::Module</title>
<!-- Node0 -->
<g id="node1" class="node">
<title>Node0</title>
<polygon fill="#bfbfbf" stroke="#000000" points="0,-150.78 0,-180.78 107,-180.78 107,-150.78 0,-150.78"/>
<text text-anchor="start" x="8" y="-168.78" font-family="Helvetica,sans-Serif" font-size="10.00" fill="#000000">qjs::Context::Module</text>
<text text-anchor="middle" x="53.5" y="-157.78" font-family="Helvetica,sans-Serif" font-size="10.00" fill="#000000">::Module</text>
</g>
<!-- Node1 -->
<g id="node2" class="node">
<title>Node1</title>
<g id="a_node2"><a xlink:href="classqjs_1_1Context.html#abfd1fa6f49f2743081f7d4ee80bcad90" target="_top" xlink:title="Get qjs::Context from JSContext opaque pointer. ">
<polygon fill="none" stroke="#000000" points="153,-213.28 153,-232.28 242,-232.28 242,-213.28 153,-213.28"/>
<text text-anchor="middle" x="197.5" y="-220.28" font-family="Helvetica,sans-Serif" font-size="10.00" fill="#000000">qjs::Context::get</text>
</a>
</g>
</g>
<!-- Node0&#45;&gt;Node1 -->
<g id="edge1" class="edge">
<title>Node0&#45;&gt;Node1</title>
<path fill="none" stroke="#191970" d="M87.7087,-180.9311C104.2974,-188.1172 124.5753,-196.6659 143,-203.78 148.2581,-205.8102 153.8367,-207.8656 159.3412,-209.837"/>
<polygon fill="#191970" stroke="#191970" points="158.4891,-213.2477 169.0839,-213.2714 160.8163,-206.6458 158.4891,-213.2477"/>
</g>
<!-- Node3 -->
<g id="node4" class="node">
<title>Node3</title>
<g id="a_node4"><a xlink:href="quickjs_8h.html#a775522f2d084fc8fa0fcb33f390006b4" target="_top" xlink:title="JS_DupValue">
<polygon fill="none" stroke="#000000" points="159,-175.28 159,-194.28 236,-194.28 236,-175.28 159,-175.28"/>
<text text-anchor="middle" x="197.5" y="-182.28" font-family="Helvetica,sans-Serif" font-size="10.00" fill="#000000">JS_DupValue</text>
</a>
</g>
</g>
<!-- Node0&#45;&gt;Node3 -->
<g id="edge3" class="edge">
<title>Node0&#45;&gt;Node3</title>
<path fill="none" stroke="#191970" d="M107.1203,-172.8549C120.7565,-174.6541 135.3354,-176.5777 148.7163,-178.3433"/>
<polygon fill="#191970" stroke="#191970" points="148.3078,-181.8196 158.6797,-179.6579 149.2235,-174.8798 148.3078,-181.8196"/>
</g>
<!-- Node4 -->
<g id="node5" class="node">
<title>Node4</title>
<g id="a_node5"><a xlink:href="quickjs_8c.html#ac29cc4ec49efa0f0308e494316ce5139" target="_top" xlink:title="JS_NewCModule">
<polygon fill="none" stroke="#000000" points="151,-137.28 151,-156.28 244,-156.28 244,-137.28 151,-137.28"/>
<text text-anchor="middle" x="197.5" y="-144.28" font-family="Helvetica,sans-Serif" font-size="10.00" fill="#000000">JS_NewCModule</text>
</a>
</g>
</g>
<!-- Node0&#45;&gt;Node4 -->
<g id="edge4" class="edge">
<title>Node0&#45;&gt;Node4</title>
<path fill="none" stroke="#191970" d="M107.1203,-158.7051C118.1402,-157.2511 129.7758,-155.7158 140.8972,-154.2484"/>
<polygon fill="#191970" stroke="#191970" points="141.4776,-157.7023 150.9338,-152.9241 140.5618,-150.7624 141.4776,-157.7023"/>
</g>
<!-- Node60 -->
<g id="node11" class="node">
<title>Node60</title>
<g id="a_node11"><a xlink:href="quickjs_8c.html#acc3990661d2851b858601061a62cc7d6" target="_top" xlink:title="JS_SetModuleExport">
<polygon fill="none" stroke="#000000" points="143,-80.28 143,-99.28 252,-99.28 252,-80.28 143,-80.28"/>
<text text-anchor="middle" x="197.5" y="-87.28" font-family="Helvetica,sans-Serif" font-size="10.00" fill="#000000">JS_SetModuleExport</text>
</a>
</g>
</g>
<!-- Node0&#45;&gt;Node60 -->
<g id="edge10" class="edge">
<title>Node0&#45;&gt;Node60</title>
<path fill="none" stroke="#191970" d="M81.9498,-150.7648C107.533,-137.2626 144.8668,-117.5586 170.1167,-104.2323"/>
<polygon fill="#191970" stroke="#191970" points="171.9425,-107.2263 179.1526,-99.4633 168.6751,-101.0356 171.9425,-107.2263"/>
</g>
<!-- Node2 -->
<g id="node3" class="node">
<title>Node2</title>
<g id="a_node3"><a xlink:href="quickjs_8c.html#a2da4d4ea8b060716bf80ca5808043a0b" target="_top" xlink:title="JS_GetContextOpaque">
<polygon fill="none" stroke="#000000" points="288,-213.28 288,-232.28 406,-232.28 406,-213.28 288,-213.28"/>
<text text-anchor="middle" x="347" y="-220.28" font-family="Helvetica,sans-Serif" font-size="10.00" fill="#000000">JS_GetContextOpaque</text>
</a>
</g>
</g>
<!-- Node1&#45;&gt;Node2 -->
<g id="edge2" class="edge">
<title>Node1&#45;&gt;Node2</title>
<path fill="none" stroke="#191970" d="M242.3549,-222.78C253.5091,-222.78 265.7266,-222.78 277.753,-222.78"/>
<polygon fill="#191970" stroke="#191970" points="277.7828,-226.2801 287.7828,-222.78 277.7828,-219.2801 277.7828,-226.2801"/>
</g>
<!-- Node5 -->
<g id="node6" class="node">
<title>Node5</title>
<g id="a_node6"><a xlink:href="quickjs_8c.html#a882c4281596de628ebd966718888e30a" target="_top" xlink:title="js_new_module_def">
<polygon fill="none" stroke="#000000" points="295.5,-175.28 295.5,-194.28 398.5,-194.28 398.5,-175.28 295.5,-175.28"/>
<text text-anchor="middle" x="347" y="-182.28" font-family="Helvetica,sans-Serif" font-size="10.00" fill="#000000">js_new_module_def</text>
</a>
</g>
</g>
<!-- Node4&#45;&gt;Node5 -->
<g id="edge5" class="edge">
<title>Node4&#45;&gt;Node5</title>
<path fill="none" stroke="#191970" d="M235.2252,-156.369C254.7756,-161.3383 278.8466,-167.4567 299.6374,-172.7413"/>
<polygon fill="#191970" stroke="#191970" points="298.9921,-176.1885 309.5461,-175.2599 300.7165,-169.4043 298.9921,-176.1885"/>
</g>
<!-- Node14 -->
<g id="node9" class="node">
<title>Node14</title>
<g id="a_node9"><a xlink:href="quickjs_8c.html#aa2ef5af1544a3012f91a80c98c326b8f" target="_top" xlink:title="JS_NewAtom">
<polygon fill="none" stroke="#000000" points="308.5,-137.28 308.5,-156.28 385.5,-156.28 385.5,-137.28 308.5,-137.28"/>
<text text-anchor="middle" x="347" y="-144.28" font-family="Helvetica,sans-Serif" font-size="10.00" fill="#000000">JS_NewAtom</text>
</a>
</g>
</g>
<!-- Node4&#45;&gt;Node14 -->
<g id="edge8" class="edge">
<title>Node4&#45;&gt;Node14</title>
<path fill="none" stroke="#191970" d="M244.3926,-146.78C261.4119,-146.78 280.6795,-146.78 297.8853,-146.78"/>
<polygon fill="#191970" stroke="#191970" points="298.2935,-150.2801 308.2935,-146.78 298.2934,-143.2801 298.2935,-150.2801"/>
</g>
<!-- Node6 -->
<g id="node7" class="node">
<title>Node6</title>
<g id="a_node7"><a xlink:href="quickjs_8c.html#ab7fc45a99935a1c0ba50b0216d9401a9" target="_top" xlink:title="JS_FreeAtom">
<polygon fill="none" stroke="#ff0000" points="450,-156.28 450,-175.28 527,-175.28 527,-156.28 450,-156.28"/>
<text text-anchor="middle" x="488.5" y="-163.28" font-family="Helvetica,sans-Serif" font-size="10.00" fill="#000000">JS_FreeAtom</text>
</a>
</g>
</g>
<!-- Node5&#45;&gt;Node6 -->
<g id="edge6" class="edge">
<title>Node5&#45;&gt;Node6</title>
<path fill="none" stroke="#191970" d="M398.8859,-177.813C412.2047,-176.0246 426.4857,-174.107 439.6455,-172.34"/>
<polygon fill="#191970" stroke="#191970" points="440.474,-175.7602 449.9192,-170.9604 439.5424,-168.8225 440.474,-175.7602"/>
</g>
<!-- Node12 -->
<g id="node8" class="node">
<title>Node12</title>
<g id="a_node8"><a xlink:href="list_8h.html#a3a5d0733570b2fafc18f4c71a2968ea5" target="_top" xlink:title="list_add_tail">
<polygon fill="none" stroke="#ff0000" points="454.5,-194.28 454.5,-213.28 522.5,-213.28 522.5,-194.28 454.5,-194.28"/>
<text text-anchor="middle" x="488.5" y="-201.28" font-family="Helvetica,sans-Serif" font-size="10.00" fill="#000000">list_add_tail</text>
</a>
</g>
</g>
<!-- Node5&#45;&gt;Node12 -->
<g id="edge7" class="edge">
<title>Node5&#45;&gt;Node12</title>
<path fill="none" stroke="#191970" d="M398.8859,-191.747C413.7378,-193.7413 429.7862,-195.8962 444.1422,-197.8238"/>
<polygon fill="#191970" stroke="#191970" points="443.8784,-201.3197 454.2553,-199.1818 444.81,-194.382 443.8784,-201.3197"/>
</g>
<!-- Node15 -->
<g id="node10" class="node">
<title>Node15</title>
<g id="a_node10"><a xlink:href="quickjs_8c.html#a522741f41afb1d0da0aa55968cd8579e" target="_top" xlink:title="JS_NewAtomLen">
<polygon fill="none" stroke="#ff0000" points="442,-118.28 442,-137.28 535,-137.28 535,-118.28 442,-118.28"/>
<text text-anchor="middle" x="488.5" y="-125.28" font-family="Helvetica,sans-Serif" font-size="10.00" fill="#000000">JS_NewAtomLen</text>
</a>
</g>
</g>
<!-- Node14&#45;&gt;Node15 -->
<g id="edge9" class="edge">
<title>Node14&#45;&gt;Node15</title>
<path fill="none" stroke="#191970" d="M385.6655,-141.5882C399.8958,-139.6774 416.3231,-137.4716 431.8132,-135.3917"/>
<polygon fill="#191970" stroke="#191970" points="432.3793,-138.8471 441.8245,-134.0474 431.4476,-131.9094 432.3793,-138.8471"/>
</g>
<!-- Node60&#45;&gt;Node6 -->
<g id="edge12" class="edge">
<title>Node60&#45;&gt;Node6</title>
<path fill="none" stroke="#191970" d="M252.2239,-95.1279C294.9696,-100.3998 355.4045,-110.2829 406,-127.78 423.0981,-133.6929 425.6067,-139.1271 442,-146.78 445.9116,-148.606 450.049,-150.4363 454.1787,-152.2008"/>
<polygon fill="#191970" stroke="#191970" points="453.1139,-155.5488 463.6907,-156.166 455.8073,-149.0877 453.1139,-155.5488"/>
</g>
<!-- Node60&#45;&gt;Node14 -->
<g id="edge15" class="edge">
<title>Node60&#45;&gt;Node14</title>
<path fill="none" stroke="#191970" d="M222.5229,-99.3205C247.1014,-108.6916 284.807,-123.0676 312.28,-133.5423"/>
<polygon fill="#191970" stroke="#191970" points="311.3046,-136.9161 321.8954,-137.2083 313.7984,-130.3754 311.3046,-136.9161"/>
</g>
<!-- Node61 -->
<g id="node12" class="node">
<title>Node61</title>
<g id="a_node12"><a xlink:href="quickjs_8c.html#af5a10beab08419072e00fedfe4e467af" target="_top" xlink:title="find_export_entry">
<polygon fill="none" stroke="#000000" points="301,-61.28 301,-80.28 393,-80.28 393,-61.28 301,-61.28"/>
<text text-anchor="middle" x="347" y="-68.28" font-family="Helvetica,sans-Serif" font-size="10.00" fill="#000000">find_export_entry</text>
</a>
</g>
</g>
<!-- Node60&#45;&gt;Node61 -->
<g id="edge11" class="edge">
<title>Node60&#45;&gt;Node61</title>
<path fill="none" stroke="#191970" d="M252.3194,-82.813C264.6893,-81.2409 277.8449,-79.5689 290.2907,-77.9872"/>
<polygon fill="#191970" stroke="#191970" points="291.0666,-81.4168 300.5455,-76.6839 290.184,-74.4727 291.0666,-81.4168"/>
</g>
<!-- Node62 -->
<g id="node13" class="node">
<title>Node62</title>
<g id="a_node13"><a xlink:href="quickjs_8h.html#afaa20c47565bc704c6c85f3d77254e7d" target="_top" xlink:title="JS_FreeValue">
<polygon fill="none" stroke="#000000" points="449.5,-4.28 449.5,-23.28 527.5,-23.28 527.5,-4.28 449.5,-4.28"/>
<text text-anchor="middle" x="488.5" y="-11.28" font-family="Helvetica,sans-Serif" font-size="10.00" fill="#000000">JS_FreeValue</text>
</a>
</g>
</g>
<!-- Node60&#45;&gt;Node62 -->
<g id="edge13" class="edge">
<title>Node60&#45;&gt;Node62</title>
<path fill="none" stroke="#191970" d="M204.9189,-80.1629C218.9241,-62.8958 251.1782,-27.1903 288,-13.78 337.148,4.1195 397.6789,1.0059 439.2963,-4.6196"/>
<polygon fill="#191970" stroke="#191970" points="439.0522,-8.1207 449.4511,-6.0927 440.0572,-1.1932 439.0522,-8.1207"/>
</g>
<!-- Node91 -->
<g id="node15" class="node">
<title>Node91</title>
<g id="a_node15"><a xlink:href="quickjs_8c.html#a0ec52a675282f321a6f42aa1298a53fe" target="_top" xlink:title="set_value">
<polygon fill="none" stroke="#000000" points="317.5,-23.28 317.5,-42.28 376.5,-42.28 376.5,-23.28 317.5,-23.28"/>
<text text-anchor="middle" x="347" y="-30.28" font-family="Helvetica,sans-Serif" font-size="10.00" fill="#000000">set_value</text>
</a>
</g>
</g>
<!-- Node60&#45;&gt;Node91 -->
<g id="edge16" class="edge">
<title>Node60&#45;&gt;Node91</title>
<path fill="none" stroke="#191970" d="M218.8694,-80.1943C237.0781,-72.1748 264.0287,-60.6537 288,-51.78 294.3736,-49.4206 301.1933,-47.0689 307.8512,-44.8648"/>
<polygon fill="#191970" stroke="#191970" points="308.9892,-48.1753 317.419,-41.7574 306.8268,-41.5176 308.9892,-48.1753"/>
</g>
<!-- Node63 -->
<g id="node14" class="node">
<title>Node63</title>
<g id="a_node14"><a xlink:href="quickjs_8c.html#aa059f309c30fd5166d16c82a97973146" target="_top" xlink:title="__JS_FreeValue">
<polygon fill="none" stroke="#ff0000" points="571,-4.28 571,-23.28 660,-23.28 660,-4.28 571,-4.28"/>
<text text-anchor="middle" x="615.5" y="-11.28" font-family="Helvetica,sans-Serif" font-size="10.00" fill="#000000">__JS_FreeValue</text>
</a>
</g>
</g>
<!-- Node62&#45;&gt;Node63 -->
<g id="edge14" class="edge">
<title>Node62&#45;&gt;Node63</title>
<path fill="none" stroke="#191970" d="M527.6405,-13.78C538.1309,-13.78 549.6669,-13.78 560.8314,-13.78"/>
<polygon fill="#191970" stroke="#191970" points="560.9394,-17.2801 570.9394,-13.78 560.9394,-10.2801 560.9394,-17.2801"/>
</g>
<!-- Node91&#45;&gt;Node62 -->
<g id="edge17" class="edge">
<title>Node91&#45;&gt;Node62</title>
<path fill="none" stroke="#191970" d="M376.663,-28.797C394.84,-26.3562 418.5541,-23.172 439.4655,-20.3641"/>
<polygon fill="#191970" stroke="#191970" points="440.0242,-23.8206 449.4695,-19.0208 439.0926,-16.8829 440.0242,-23.8206"/>
</g>
</g>
</svg>
