<?xml version="1.0" encoding="UTF-8" standalone="no"?>
<!DOCTYPE svg PUBLIC "-//W3C//DTD SVG 1.1//EN"
 "http://www.w3.org/Graphics/SVG/1.1/DTD/svg11.dtd">
<!-- Generated by graphviz version 2.40.1 (20161225.0304)
 -->
<!-- Title: qjs::Context::Module::class_registrar&lt; T &gt; Pages: 1 -->
<!--zoomable 746 -->
<svg id="main" version="1.1" xmlns="http://www.w3.org/2000/svg" xmlns:xlink="http://www.w3.org/1999/xlink" xml:space="preserve" onload="init(evt)">
<style type="text/css"><![CDATA[
.edge:hover path { stroke: red; }
.edge:hover polygon { stroke: red; fill: red; }
]]></style>
<script type="text/javascript"><![CDATA[
var edges = document.getElementsByTagName('g');
if (edges && edges.length) {
  for (var i=0;i<edges.length;i++) {
    if (edges[i].id.substr(0,4)=='edge') {
      edges[i].setAttribute('class','edge');
    }
  }
}
]]></script>
        <defs>
                <circle id="rim" cx="0" cy="0" r="7"/>
                <circle id="rim2" cx="0" cy="0" r="3.5"/>
                <g id="zoomPlus">
                        <use xlink:href="#rim" fill="#404040">
                                <set attributeName="fill" to="#808080" begin="zoomplus.mouseover" end="zoomplus.mouseout"/>
                        </use>
                        <path d="M-4,0h8M0,-4v8" fill="none" stroke="white" stroke-width="1.5" pointer-events="none"/>
                </g>
                <g id="zoomMin">
                        <use xlink:href="#rim" fill="#404040">
                                <set attributeName="fill" to="#808080" begin="zoomminus.mouseover" end="zoomminus.mouseout"/>
                        </use>
                        <path d="M-4,0h8" fill="none" stroke="white" stroke-width="1.5" pointer-events="none"/>
                </g>
                <g id="dirArrow">
                        <path fill="none" stroke="white" stroke-width="1.5" d="M0,-3.0v7 M-2.5,-0.5L0,-3.0L2.5,-0.5"/>
                </g>
               <g id="resetDef">
                       <use xlink:href="#rim2" fill="#404040">
                               <set attributeName="fill" to="#808080" begin="reset.mouseover" end="reset.mouseout"/>
                       </use>
               </g>
        </defs>

<script type="text/javascript">
var viewWidth = 580;
var viewHeight = 746;
var sectionId = 'dynsection-0';
</script>
<script xlink:href="svgpan.js"/>
<svg id="graph" class="graph">
<g id="viewport">
<title>qjs::Context::Module::class_registrar&lt; T &gt;</title>
<!-- Node1 -->
<g id="node1" class="node">
<title>Node1</title>
<polygon fill="#bfbfbf" stroke="#000000" points="42,-.5 42,-30.5 152,-30.5 152,-.5 42,-.5"/>
<text text-anchor="start" x="50" y="-18.5" font-family="Helvetica,sans-Serif" font-size="10.00" fill="#000000">qjs::Context::Module</text>
<text text-anchor="middle" x="97" y="-7.5" font-family="Helvetica,sans-Serif" font-size="10.00" fill="#000000">::class_registrar&lt; T &gt;</text>
</g>
<!-- Node2 -->
<g id="node2" class="node">
<title>Node2</title>
<g id="a_node2"><a xlink:href="classqjs_1_1Value.html" target="_top" xlink:title="JSValue with RAAI semantics. ">
<polygon fill="none" stroke="#000000" points="0,-223.5 0,-242.5 60,-242.5 60,-223.5 0,-223.5"/>
<text text-anchor="middle" x="30" y="-230.5" font-family="Helvetica,sans-Serif" font-size="10.00" fill="#000000">qjs::Value</text>
</a>
</g>
</g>
<!-- Node2&#45;&gt;Node1 -->
<g id="edge1" class="edge">
<title>Node2&#45;&gt;Node1</title>
<path fill="none" stroke="#9a32cd" stroke-dasharray="5,2" d="M26.8278,-213.1523C23.7942,-189.4581 21.0077,-148.906 31,-116 41.2502,-82.245 66.7301,-49.2586 82.8647,-30.7367"/>
<polygon fill="#9a32cd" stroke="#9a32cd" points="23.4017,-213.9185 28.2821,-223.3224 30.3312,-212.9276 23.4017,-213.9185"/>
<text text-anchor="middle" x="53" y="-119" font-family="Helvetica,sans-Serif" font-size="10.00" fill="#000000"> prototype</text>
</g>
<!-- Node3 -->
<g id="node3" class="node">
<title>Node3</title>
<g id="a_node3"><a xlink:href="structJSValue.html" target="_top" xlink:title="JSValue">
<polygon fill="none" stroke="#000000" points="49.5,-526.5 49.5,-545.5 102.5,-545.5 102.5,-526.5 49.5,-526.5"/>
<text text-anchor="middle" x="76" y="-533.5" font-family="Helvetica,sans-Serif" font-size="10.00" fill="#000000">JSValue</text>
</a>
</g>
</g>
<!-- Node3&#45;&gt;Node2 -->
<g id="edge2" class="edge">
<title>Node3&#45;&gt;Node2</title>
<path fill="none" stroke="#9a32cd" stroke-dasharray="5,2" d="M66.7037,-517.0736C65.3165,-513.7694 64.0142,-510.3247 63,-507 59.1839,-494.49 59.8544,-490.9469 58,-478 44.9495,-386.8849 34.0703,-276.007 30.9203,-242.8285"/>
<polygon fill="#9a32cd" stroke="#9a32cd" points="63.5806,-518.6604 70.9169,-526.3044 69.9487,-515.7539 63.5806,-518.6604"/>
<text text-anchor="middle" x="45.5" y="-331" font-family="Helvetica,sans-Serif" font-size="10.00" fill="#000000"> v</text>
</g>
<!-- Node5 -->
<g id="node5" class="node">
<title>Node5</title>
<g id="a_node5"><a xlink:href="structJSContext.html" target="_top" xlink:title="JSContext">
<polygon fill="none" stroke="#000000" points="217.5,-290.5 217.5,-309.5 280.5,-309.5 280.5,-290.5 217.5,-290.5"/>
<text text-anchor="middle" x="249" y="-297.5" font-family="Helvetica,sans-Serif" font-size="10.00" fill="#000000">JSContext</text>
</a>
</g>
</g>
<!-- Node3&#45;&gt;Node5 -->
<g id="edge14" class="edge">
<title>Node3&#45;&gt;Node5</title>
<path fill="none" stroke="#9a32cd" stroke-dasharray="5,2" d="M70.4691,-516.0973C61.8089,-480.3064 49.4656,-404.4023 85,-357 101.1365,-335.4742 174.5035,-316.2546 217.4461,-306.5905"/>
<polygon fill="#9a32cd" stroke="#9a32cd" points="67.1947,-517.4155 73.0861,-526.2213 73.972,-515.6636 67.1947,-517.4155"/>
<text text-anchor="middle" x="131" y="-470" font-family="Helvetica,sans-Serif" font-size="10.00" fill="#000000"> async_iterator_proto</text>
<text text-anchor="middle" x="131" y="-459" font-family="Helvetica,sans-Serif" font-size="10.00" fill="#000000">function_proto</text>
<text text-anchor="middle" x="131" y="-448" font-family="Helvetica,sans-Serif" font-size="10.00" fill="#000000">function_ctor</text>
<text text-anchor="middle" x="131" y="-437" font-family="Helvetica,sans-Serif" font-size="10.00" fill="#000000">array_ctor</text>
<text text-anchor="middle" x="131" y="-426" font-family="Helvetica,sans-Serif" font-size="10.00" fill="#000000">class_proto</text>
<text text-anchor="middle" x="131" y="-415" font-family="Helvetica,sans-Serif" font-size="10.00" fill="#000000">array_proto_values</text>
<text text-anchor="middle" x="131" y="-404" font-family="Helvetica,sans-Serif" font-size="10.00" fill="#000000">regexp_ctor</text>
<text text-anchor="middle" x="131" y="-393" font-family="Helvetica,sans-Serif" font-size="10.00" fill="#000000">throw_type_error</text>
<text text-anchor="middle" x="131" y="-382" font-family="Helvetica,sans-Serif" font-size="10.00" fill="#000000">native_error_proto</text>
<text text-anchor="middle" x="131" y="-371" font-family="Helvetica,sans-Serif" font-size="10.00" fill="#000000">eval_obj</text>
<text text-anchor="middle" x="131" y="-360" font-family="Helvetica,sans-Serif" font-size="10.00" fill="#000000">...</text>
</g>
<!-- Node6 -->
<g id="node6" class="node">
<title>Node6</title>
<g id="a_node6"><a xlink:href="structJSRuntime.html" target="_top" xlink:title="JSRuntime">
<polygon fill="none" stroke="#ff0000" points="186.5,-408 186.5,-427 251.5,-427 251.5,-408 186.5,-408"/>
<text text-anchor="middle" x="219" y="-415" font-family="Helvetica,sans-Serif" font-size="10.00" fill="#000000">JSRuntime</text>
</a>
</g>
</g>
<!-- Node3&#45;&gt;Node6 -->
<g id="edge8" class="edge">
<title>Node3&#45;&gt;Node6</title>
<path fill="none" stroke="#9a32cd" stroke-dasharray="5,2" d="M87.6042,-518.1052C93.4735,-510.3148 101.2165,-501.685 110,-496 134.0882,-480.4093 148.2608,-494.1171 172,-478 191.5872,-464.7018 206.6586,-440.6471 214.0243,-427.2233"/>
<polygon fill="#9a32cd" stroke="#9a32cd" points="84.7021,-516.1477 81.818,-526.3424 90.4301,-520.1713 84.7021,-516.1477"/>
<text text-anchor="middle" x="150.5" y="-499" font-family="Helvetica,sans-Serif" font-size="10.00" fill="#000000"> current_exception</text>
</g>
<!-- Node4 -->
<g id="node4" class="node">
<title>Node4</title>
<g id="a_node4"><a xlink:href="unionJSValueUnion.html" target="_top" xlink:title="JSValueUnion">
<polygon fill="none" stroke="#000000" points="36.5,-649.5 36.5,-668.5 115.5,-668.5 115.5,-649.5 36.5,-649.5"/>
<text text-anchor="middle" x="76" y="-656.5" font-family="Helvetica,sans-Serif" font-size="10.00" fill="#000000">JSValueUnion</text>
</a>
</g>
</g>
<!-- Node4&#45;&gt;Node3 -->
<g id="edge3" class="edge">
<title>Node4&#45;&gt;Node3</title>
<path fill="none" stroke="#9a32cd" stroke-dasharray="5,2" d="M76,-639.2305C76,-612.4497 76,-565.686 76,-545.6068"/>
<polygon fill="#9a32cd" stroke="#9a32cd" points="72.5001,-639.3484 76,-649.3484 79.5001,-639.3484 72.5001,-639.3484"/>
<text text-anchor="middle" x="80.5" y="-595.5" font-family="Helvetica,sans-Serif" font-size="10.00" fill="#000000"> u</text>
</g>
<!-- Node5&#45;&gt;Node2 -->
<g id="edge4" class="edge">
<title>Node5&#45;&gt;Node2</title>
<path fill="none" stroke="#9a32cd" stroke-dasharray="5,2" d="M208.0435,-287.4699C165.1161,-274.3369 98.6813,-254.0121 60.2623,-242.2583"/>
<polygon fill="#9a32cd" stroke="#9a32cd" points="207.0362,-290.8218 217.6226,-290.4005 209.0841,-284.1281 207.0362,-290.8218"/>
<text text-anchor="middle" x="161.5" y="-264" font-family="Helvetica,sans-Serif" font-size="10.00" fill="#000000"> ctx</text>
</g>
<!-- Node46 -->
<g id="node10" class="node">
<title>Node46</title>
<g id="a_node10"><a xlink:href="classqjs_1_1Context.html" target="_top" xlink:title="Wrapper over JSContext * ctx Calls JS_SetContextOpaque(ctx, this); on construction and JS_FreeContext...">
<polygon fill="none" stroke="#000000" points="153,-78.5 153,-97.5 223,-97.5 223,-78.5 153,-78.5"/>
<text text-anchor="middle" x="188" y="-85.5" font-family="Helvetica,sans-Serif" font-size="10.00" fill="#000000">qjs::Context</text>
</a>
</g>
</g>
<!-- Node5&#45;&gt;Node46 -->
<g id="edge18" class="edge">
<title>Node5&#45;&gt;Node46</title>
<path fill="none" stroke="#9a32cd" stroke-dasharray="5,2" d="M255.3155,-280.8103C264.128,-250.6991 277.1139,-191.0383 259,-145 250.203,-122.6414 226.8221,-106.7389 209.2771,-97.5082"/>
<polygon fill="#9a32cd" stroke="#9a32cd" points="251.9337,-279.8993 252.3229,-290.487 258.6213,-281.9675 251.9337,-279.8993"/>
<text text-anchor="middle" x="276.5" y="-197" font-family="Helvetica,sans-Serif" font-size="10.00" fill="#000000"> ctx</text>
</g>
<!-- Node48 -->
<g id="node12" class="node">
<title>Node48</title>
<g id="a_node12"><a xlink:href="classqjs_1_1Context_1_1Module.html" target="_top" xlink:title="Module wrapper Workaround for lack of opaque pointer for module load function by keeping a list of mo...">
<polygon fill="none" stroke="#ff0000" points="134.5,-223.5 134.5,-242.5 241.5,-242.5 241.5,-223.5 134.5,-223.5"/>
<text text-anchor="middle" x="188" y="-230.5" font-family="Helvetica,sans-Serif" font-size="10.00" fill="#000000">qjs::Context::Module</text>
</a>
</g>
</g>
<!-- Node5&#45;&gt;Node48 -->
<g id="edge21" class="edge">
<title>Node5&#45;&gt;Node48</title>
<path fill="none" stroke="#9a32cd" stroke-dasharray="5,2" d="M233.2626,-282.7147C221.6329,-269.941 206.2293,-253.0224 196.7236,-242.5817"/>
<polygon fill="#9a32cd" stroke="#9a32cd" points="230.9399,-285.3624 240.2602,-290.4005 236.116,-280.6498 230.9399,-285.3624"/>
<text text-anchor="middle" x="231.5" y="-264" font-family="Helvetica,sans-Serif" font-size="10.00" fill="#000000"> ctx</text>
</g>
<!-- Node6&#45;&gt;Node5 -->
<g id="edge5" class="edge">
<title>Node6&#45;&gt;Node5</title>
<path fill="none" stroke="#9a32cd" stroke-dasharray="5,2" d="M224.0018,-397.9095C230.4964,-372.4723 241.5823,-329.0527 246.5111,-309.7484"/>
<polygon fill="#9a32cd" stroke="#9a32cd" points="220.5377,-397.3294 221.455,-407.8845 227.3201,-399.0612 220.5377,-397.3294"/>
<text text-anchor="middle" x="247" y="-331" font-family="Helvetica,sans-Serif" font-size="10.00" fill="#000000"> rt</text>
</g>
<!-- Node7 -->
<g id="node7" class="node">
<title>Node7</title>
<g id="a_node7"><a xlink:href="structlist__head.html" target="_top" xlink:title="list_head">
<polygon fill="none" stroke="#000000" points="290,-717.5 290,-736.5 346,-736.5 346,-717.5 290,-717.5"/>
<text text-anchor="middle" x="318" y="-724.5" font-family="Helvetica,sans-Serif" font-size="10.00" fill="#000000">list_head</text>
</a>
</g>
</g>
<!-- Node7&#45;&gt;Node5 -->
<g id="edge13" class="edge">
<title>Node7&#45;&gt;Node5</title>
<path fill="none" stroke="#9a32cd" stroke-dasharray="5,2" d="M356.1734,-720.5283C409.0107,-710.4693 498,-689.065 498,-659 498,-659 498,-659 498,-417.5 498,-379.3159 469.7933,-376.5608 437,-357 386.7659,-327.036 319.4641,-311.6377 280.5075,-304.7371"/>
<polygon fill="#9a32cd" stroke="#9a32cd" points="355.321,-717.1265 346.125,-722.388 356.595,-724.0096 355.321,-717.1265"/>
<text text-anchor="middle" x="535" y="-539" font-family="Helvetica,sans-Serif" font-size="10.00" fill="#000000"> loaded_modules</text>
<text text-anchor="middle" x="535" y="-528" font-family="Helvetica,sans-Serif" font-size="10.00" fill="#000000">link</text>
</g>
<!-- Node7&#45;&gt;Node6 -->
<g id="edge6" class="edge">
<title>Node7&#45;&gt;Node6</title>
<path fill="none" stroke="#9a32cd" stroke-dasharray="5,2" d="M289.5011,-712.3719C262.071,-696.5083 222.2839,-668.3629 205,-631 171.6255,-558.854 203.8321,-458.1351 215.2982,-427.0286"/>
<polygon fill="#9a32cd" stroke="#9a32cd" points="287.8424,-715.4544 298.2794,-717.2765 291.2567,-709.3435 287.8424,-715.4544"/>
<text text-anchor="middle" x="245.5" y="-623" font-family="Helvetica,sans-Serif" font-size="10.00" fill="#000000"> job_list</text>
<text text-anchor="middle" x="245.5" y="-612" font-family="Helvetica,sans-Serif" font-size="10.00" fill="#000000">tmp_obj_list</text>
<text text-anchor="start" x="205" y="-601" font-family="Helvetica,sans-Serif" font-size="10.00" fill="#000000">gc_zero_ref_count</text>
<text text-anchor="middle" x="245.5" y="-590" font-family="Helvetica,sans-Serif" font-size="10.00" fill="#000000">_list</text>
<text text-anchor="middle" x="245.5" y="-579" font-family="Helvetica,sans-Serif" font-size="10.00" fill="#000000">gc_obj_list</text>
<text text-anchor="middle" x="245.5" y="-568" font-family="Helvetica,sans-Serif" font-size="10.00" fill="#000000">context_list</text>
</g>
<!-- Node7&#45;&gt;Node7 -->
<g id="edge7" class="edge">
<title>Node7&#45;&gt;Node7</title>
<path fill="none" stroke="#9a32cd" stroke-dasharray="5,2" d="M356.5533,-732.4491C361.0634,-731.4467 364,-729.6303 364,-727 364,-722.6836 356.0919,-720.5591 346.2994,-720.6266"/>
<polygon fill="#9a32cd" stroke="#9a32cd" points="355.9447,-728.9897 346.2994,-733.3734 356.5733,-735.9614 355.9447,-728.9897"/>
<text text-anchor="middle" x="375" y="-730" font-family="Helvetica,sans-Serif" font-size="10.00" fill="#000000"> prev</text>
<text text-anchor="middle" x="375" y="-719" font-family="Helvetica,sans-Serif" font-size="10.00" fill="#000000">next</text>
</g>
<!-- Node17 -->
<g id="node9" class="node">
<title>Node17</title>
<g id="a_node9"><a xlink:href="structJSGCObjectHeader.html" target="_top" xlink:title="JSGCObjectHeader">
<polygon fill="none" stroke="#000000" points="266,-649.5 266,-668.5 370,-668.5 370,-649.5 266,-649.5"/>
<text text-anchor="middle" x="318" y="-656.5" font-family="Helvetica,sans-Serif" font-size="10.00" fill="#000000">JSGCObjectHeader</text>
</a>
</g>
</g>
<!-- Node7&#45;&gt;Node17 -->
<g id="edge12" class="edge">
<title>Node7&#45;&gt;Node17</title>
<path fill="none" stroke="#9a32cd" stroke-dasharray="5,2" d="M318,-707.1951C318,-694.5514 318,-678.7157 318,-668.7247"/>
<polygon fill="#9a32cd" stroke="#9a32cd" points="314.5001,-707.2572 318,-717.2573 321.5001,-707.2573 314.5001,-707.2572"/>
<text text-anchor="middle" x="327.5" y="-690" font-family="Helvetica,sans-Serif" font-size="10.00" fill="#000000"> link</text>
</g>
<!-- Node13 -->
<g id="node8" class="node">
<title>Node13</title>
<g id="a_node8"><a xlink:href="structJSShape.html" target="_top" xlink:title="JSShape">
<polygon fill="none" stroke="#ff0000" points="308,-526.5 308,-545.5 364,-545.5 364,-526.5 308,-526.5"/>
<text text-anchor="middle" x="336" y="-533.5" font-family="Helvetica,sans-Serif" font-size="10.00" fill="#000000">JSShape</text>
</a>
</g>
</g>
<!-- Node13&#45;&gt;Node5 -->
<g id="edge15" class="edge">
<title>Node13&#45;&gt;Node5</title>
<path fill="none" stroke="#9a32cd" stroke-dasharray="5,2" d="M368.5763,-520.7956C373.5665,-517.0078 378.0358,-512.4367 381,-507 383.3403,-502.7076 382.157,-500.75 381,-496 361.1015,-414.3038 351.0696,-389.7517 294,-328 287.1303,-320.5667 277.8559,-314.3518 269.5116,-309.6805"/>
<polygon fill="#9a32cd" stroke="#9a32cd" points="366.348,-518.069 359.8603,-526.4452 370.1554,-523.943 366.348,-518.069"/>
<text text-anchor="middle" x="404.5" y="-415" font-family="Helvetica,sans-Serif" font-size="10.00" fill="#000000"> array_shape</text>
</g>
<!-- Node13&#45;&gt;Node6 -->
<g id="edge9" class="edge">
<title>Node13&#45;&gt;Node6</title>
<path fill="none" stroke="#9a32cd" stroke-dasharray="5,2" d="M327.4461,-517.0481C323.8256,-510.0614 319.2295,-502.3165 314,-496 289.9864,-466.9949 254.0892,-440.7683 233.9985,-427.2092"/>
<polygon fill="#9a32cd" stroke="#9a32cd" points="324.5068,-519.0096 332.0124,-526.4874 330.8082,-515.9612 324.5068,-519.0096"/>
<text text-anchor="middle" x="349" y="-499" font-family="Helvetica,sans-Serif" font-size="10.00" fill="#000000"> shape_hash</text>
</g>
<!-- Node13&#45;&gt;Node13 -->
<g id="edge10" class="edge">
<title>Node13&#45;&gt;Node13</title>
<path fill="none" stroke="#9a32cd" stroke-dasharray="5,2" d="M374.5533,-541.4491C379.0634,-540.4467 382,-538.6303 382,-536 382,-531.6836 374.0919,-529.5591 364.2994,-529.6266"/>
<polygon fill="#9a32cd" stroke="#9a32cd" points="373.9447,-537.9897 364.2994,-542.3734 374.5733,-544.9614 373.9447,-537.9897"/>
<text text-anchor="middle" x="422" y="-533.5" font-family="Helvetica,sans-Serif" font-size="10.00" fill="#000000"> shape_hash_next</text>
</g>
<!-- Node17&#45;&gt;Node5 -->
<g id="edge16" class="edge">
<title>Node17&#45;&gt;Node5</title>
<path fill="none" stroke="#9a32cd" stroke-dasharray="5,2" d="M311.7387,-639.5451C302.7345,-610.8444 286.2027,-555.3304 277,-507 264.4501,-441.0907 268.3621,-423.5703 260,-357 258.3784,-344.0905 258.4703,-340.7743 256,-328 254.8013,-321.8013 253.0868,-314.9215 251.6547,-309.5327"/>
<polygon fill="#9a32cd" stroke="#9a32cd" points="308.4294,-640.6881 314.7901,-649.1611 315.1015,-638.5709 308.4294,-640.6881"/>
<text text-anchor="middle" x="293.5" y="-499" font-family="Helvetica,sans-Serif" font-size="10.00" fill="#000000"> header</text>
</g>
<!-- Node17&#45;&gt;Node13 -->
<g id="edge11" class="edge">
<title>Node17&#45;&gt;Node13</title>
<path fill="none" stroke="#9a32cd" stroke-dasharray="5,2" d="M320.8931,-639.2305C324.8122,-612.4497 331.6557,-565.686 334.5941,-545.6068"/>
<polygon fill="#9a32cd" stroke="#9a32cd" points="317.3974,-638.947 319.4124,-649.3484 324.3236,-639.9606 317.3974,-638.947"/>
<text text-anchor="middle" x="347.5" y="-595.5" font-family="Helvetica,sans-Serif" font-size="10.00" fill="#000000"> header</text>
</g>
<!-- Node46&#45;&gt;Node1 -->
<g id="edge17" class="edge">
<title>Node46&#45;&gt;Node1</title>
<path fill="none" stroke="#9a32cd" stroke-dasharray="5,2" d="M167.8051,-71.9107C152.3542,-59.6008 131.1945,-42.7429 116.0385,-30.668"/>
<polygon fill="#9a32cd" stroke="#9a32cd" points="165.7251,-74.7285 175.7273,-78.2223 170.087,-69.2536 165.7251,-74.7285"/>
<text text-anchor="middle" x="169" y="-52" font-family="Helvetica,sans-Serif" font-size="10.00" fill="#000000"> context</text>
</g>
<!-- Node47 -->
<g id="node11" class="node">
<title>Node47</title>
<polygon fill="none" stroke="#bfbfbf" points="125.5,-145.5 125.5,-175.5 250.5,-175.5 250.5,-145.5 125.5,-145.5"/>
<text text-anchor="start" x="133.5" y="-163.5" font-family="Helvetica,sans-Serif" font-size="10.00" fill="#000000">std::vector&lt; qjs::Context</text>
<text text-anchor="middle" x="188" y="-152.5" font-family="Helvetica,sans-Serif" font-size="10.00" fill="#000000">::Module &gt;</text>
</g>
<!-- Node47&#45;&gt;Node46 -->
<g id="edge19" class="edge">
<title>Node47&#45;&gt;Node46</title>
<path fill="none" stroke="#9a32cd" stroke-dasharray="5,2" d="M188,-135.305C188,-122.424 188,-107.4836 188,-97.8957"/>
<polygon fill="#9a32cd" stroke="#9a32cd" points="184.5001,-135.4779 188,-145.478 191.5001,-135.478 184.5001,-135.4779"/>
<text text-anchor="middle" x="208" y="-119" font-family="Helvetica,sans-Serif" font-size="10.00" fill="#000000"> modules</text>
</g>
<!-- Node48&#45;&gt;Node1 -->
<g id="edge22" class="edge">
<title>Node48&#45;&gt;Node1</title>
<path fill="none" stroke="#9a32cd" stroke-dasharray="5,2" d="M160.0347,-218.2199C144.3961,-208.4142 126.0753,-194.0337 116,-176 89.4502,-128.4789 92.2286,-60.8101 95.1317,-30.8203"/>
<polygon fill="#9a32cd" stroke="#9a32cd" points="158.4651,-221.3584 168.8499,-223.4577 162.0408,-215.3406 158.4651,-221.3584"/>
<text text-anchor="middle" x="116.5" y="-119" font-family="Helvetica,sans-Serif" font-size="10.00" fill="#000000"> module</text>
</g>
<!-- Node48&#45;&gt;Node47 -->
<g id="edge20" class="edge">
<title>Node48&#45;&gt;Node47</title>
<path fill="none" stroke="#9a32cd" stroke-dasharray="5,2" d="M188,-213.0177C188,-201.2164 188,-186.513 188,-175.668"/>
<polygon fill="#9a32cd" stroke="#9a32cd" points="184.5001,-213.2223 188,-223.2223 191.5001,-213.2224 184.5001,-213.2223"/>
<text text-anchor="middle" x="209.5" y="-197" font-family="Helvetica,sans-Serif" font-size="10.00" fill="#000000"> elements</text>
</g>
</g>
</svg>
        <g id="navigator" transform="translate(0 0)" fill="#404254">
                <rect fill="#f2f5e9" fill-opacity="0.5" stroke="#606060" stroke-width=".5" x="0" y="0" width="60" height="60"/>
                <use id="zoomplus" xlink:href="#zoomPlus" x="17" y="9" onmousedown="handleZoom(evt,'in')"/>
                <use id="zoomminus" xlink:href="#zoomMin" x="42" y="9" onmousedown="handleZoom(evt,'out')"/>
                <use id="reset" xlink:href="#resetDef" x="30" y="36" onmousedown="handleReset()"/>
                <g id="arrowUp" xlink:href="#dirArrow" transform="translate(30 24)" onmousedown="handlePan(0,-1)">
                  <use xlink:href="#rim" fill="#404040">
                        <set attributeName="fill" to="#808080" begin="arrowUp.mouseover" end="arrowUp.mouseout"/>
                  </use>
                  <path fill="none" stroke="white" stroke-width="1.5" d="M0,-3.0v7 M-2.5,-0.5L0,-3.0L2.5,-0.5"/>
                </g>
                <g id="arrowRight" xlink:href="#dirArrow" transform="rotate(90) translate(36 -43)" onmousedown="handlePan(1,0)">
                  <use xlink:href="#rim" fill="#404040">
                        <set attributeName="fill" to="#808080" begin="arrowRight.mouseover" end="arrowRight.mouseout"/>
                  </use>
                  <path fill="none" stroke="white" stroke-width="1.5" d="M0,-3.0v7 M-2.5,-0.5L0,-3.0L2.5,-0.5"/>
                </g>
                <g id="arrowDown" xlink:href="#dirArrow" transform="rotate(180) translate(-30 -48)" onmousedown="handlePan(0,1)">
                  <use xlink:href="#rim" fill="#404040">
                        <set attributeName="fill" to="#808080" begin="arrowDown.mouseover" end="arrowDown.mouseout"/>
                  </use>
                  <path fill="none" stroke="white" stroke-width="1.5" d="M0,-3.0v7 M-2.5,-0.5L0,-3.0L2.5,-0.5"/>
                </g>
                <g id="arrowLeft" xlink:href="#dirArrow" transform="rotate(270) translate(-36 17)" onmousedown="handlePan(-1,0)">
                  <use xlink:href="#rim" fill="#404040">
                        <set attributeName="fill" to="#808080" begin="arrowLeft.mouseover" end="arrowLeft.mouseout"/>
                  </use>
                  <path fill="none" stroke="white" stroke-width="1.5" d="M0,-3.0v7 M-2.5,-0.5L0,-3.0L2.5,-0.5"/>
                </g>
        </g>
        <svg viewBox="0 0 15 15" width="100%" height="30px" preserveAspectRatio="xMaxYMin meet">
         <g id="arrow_out" transform="scale(0.3 0.3)">
          <a xlink:href="classqjs_1_1Context_1_1Module_1_1class__registrar__coll__graph_org.svg" target="_base">
           <rect id="button" ry="5" rx="5" y="6" x="6" height="38" width="38"
                fill="#f2f5e9" fill-opacity="0.5" stroke="#606060" stroke-width="1.0"/>
           <path id="arrow"
             d="M 11.500037,31.436501 C 11.940474,20.09759 22.043105,11.32322 32.158766,21.979434 L 37.068811,17.246167 C 37.068811,17.246167 37.088388,32 37.088388,32 L 22.160133,31.978069 C 22.160133,31.978069 26.997745,27.140456 26.997745,27.140456 C 18.528582,18.264221 13.291696,25.230495 11.500037,31.436501 z"
             style="fill:#404040;"/>
          </a>
         </g>
        </svg>
</svg>
