<?xml version="1.0" encoding="UTF-8" standalone="no"?>
<!DOCTYPE svg PUBLIC "-//W3C//DTD SVG 1.1//EN"
 "http://www.w3.org/Graphics/SVG/1.1/DTD/svg11.dtd">
<!-- Generated by graphviz version 2.40.1 (20161225.0304)
 -->
<!-- Title: pstrcat Pages: 1 -->
<svg width="470pt" height="85pt"
 viewBox="0.00 0.00 470.00 85.00" xmlns="http://www.w3.org/2000/svg" xmlns:xlink="http://www.w3.org/1999/xlink">
<g id="graph0" class="graph" transform="scale(1 1) rotate(0) translate(4 81)">
<title>pstrcat</title>
<!-- Node22 -->
<g id="node1" class="node">
<title>Node22</title>
<polygon fill="#bfbfbf" stroke="#000000" points="0,-19.5 0,-38.5 47,-38.5 47,-19.5 0,-19.5"/>
<text text-anchor="middle" x="23.5" y="-26.5" font-family="Helvetica,sans-Serif" font-size="10.00" fill="#000000">pstrcat</text>
</g>
<!-- Node23 -->
<g id="node2" class="node">
<title>Node23</title>
<g id="a_node2"><a xlink:href="quickjs-libc_8c.html#a5cc3e22713f1916d49867f60a7375505" target="_top" xlink:title="js_module_set_import_meta">
<polygon fill="none" stroke="#000000" points="83,-19.5 83,-38.5 222,-38.5 222,-19.5 83,-19.5"/>
<text text-anchor="middle" x="152.5" y="-26.5" font-family="Helvetica,sans-Serif" font-size="10.00" fill="#000000">js_module_set_import_meta</text>
</a>
</g>
</g>
<!-- Node22&#45;&gt;Node23 -->
<g id="edge1" class="edge">
<title>Node22&#45;&gt;Node23</title>
<path fill="none" stroke="#191970" d="M57.398,-29C65.3157,-29 74.0343,-29 82.8821,-29"/>
<polygon fill="#191970" stroke="#191970" points="57.1606,-25.5001 47.1606,-29 57.1606,-32.5001 57.1606,-25.5001"/>
</g>
<!-- Node24 -->
<g id="node3" class="node">
<title>Node24</title>
<g id="a_node3"><a xlink:href="quickjs-libc_8c.html#ad61d60681847f324c5ba4ad88c546f1e" target="_top" xlink:title="js_module_loader">
<polygon fill="none" stroke="#000000" points="261,-38.5 261,-57.5 353,-57.5 353,-38.5 261,-38.5"/>
<text text-anchor="middle" x="307" y="-45.5" font-family="Helvetica,sans-Serif" font-size="10.00" fill="#000000">js_module_loader</text>
</a>
</g>
</g>
<!-- Node23&#45;&gt;Node24 -->
<g id="edge2" class="edge">
<title>Node23&#45;&gt;Node24</title>
<path fill="none" stroke="#191970" d="M232.2592,-38.8086C242.0468,-40.0122 251.7806,-41.2093 260.8313,-42.3223"/>
<polygon fill="#191970" stroke="#191970" points="232.4189,-35.3019 222.0665,-37.5551 231.5645,-42.2496 232.4189,-35.3019"/>
</g>
<!-- Node30 -->
<g id="node6" class="node">
<title>Node30</title>
<g id="a_node6"><a xlink:href="quickjs-libc_8c.html#ab1b439d304c2125490b47ef262b5df67" target="_top" xlink:title="js_std_eval_binary">
<polygon fill="none" stroke="#000000" points="258,-.5 258,-19.5 356,-19.5 356,-.5 258,-.5"/>
<text text-anchor="middle" x="307" y="-7.5" font-family="Helvetica,sans-Serif" font-size="10.00" fill="#000000">js_std_eval_binary</text>
</a>
</g>
</g>
<!-- Node23&#45;&gt;Node30 -->
<g id="edge5" class="edge">
<title>Node23&#45;&gt;Node30</title>
<path fill="none" stroke="#191970" d="M232.2366,-19.1942C240.9061,-18.1281 249.5337,-17.0671 257.6821,-16.065"/>
<polygon fill="#191970" stroke="#191970" points="231.5645,-15.7504 222.0665,-20.4449 232.4189,-22.6981 231.5645,-15.7504"/>
</g>
<!-- Node25 -->
<g id="node4" class="node">
<title>Node25</title>
<g id="a_node4"><a xlink:href="qjs_8cpp.html#a3c04138a5bfe5d72780bb7e82a18e627" target="_top" xlink:title="main">
<polygon fill="none" stroke="#000000" points="408,-57.5 408,-76.5 446,-76.5 446,-57.5 408,-57.5"/>
<text text-anchor="middle" x="427" y="-64.5" font-family="Helvetica,sans-Serif" font-size="10.00" fill="#000000">main</text>
</a>
</g>
</g>
<!-- Node24&#45;&gt;Node25 -->
<g id="edge3" class="edge">
<title>Node24&#45;&gt;Node25</title>
<path fill="none" stroke="#191970" d="M363.0009,-56.8668C379.1271,-59.4201 395.6402,-62.0347 407.853,-63.9684"/>
<polygon fill="#191970" stroke="#191970" points="363.4763,-53.3986 353.0519,-55.2916 362.3815,-60.3124 363.4763,-53.3986"/>
</g>
<!-- Node26 -->
<g id="node5" class="node">
<title>Node26</title>
<g id="a_node5"><a xlink:href="quickjs-libc_8c.html#a1fbb3adc15e7b967479fc1940e99b67a" target="_top" xlink:title="worker_func">
<polygon fill="none" stroke="#ff0000" points="392,-19.5 392,-38.5 462,-38.5 462,-19.5 392,-19.5"/>
<text text-anchor="middle" x="427" y="-26.5" font-family="Helvetica,sans-Serif" font-size="10.00" fill="#000000">worker_func</text>
</a>
</g>
</g>
<!-- Node24&#45;&gt;Node26 -->
<g id="edge4" class="edge">
<title>Node24&#45;&gt;Node26</title>
<path fill="none" stroke="#191970" d="M363.1055,-39.1166C372.842,-37.575 382.7158,-36.0117 391.6957,-34.5899"/>
<polygon fill="#191970" stroke="#191970" points="362.3815,-35.6876 353.0519,-40.7084 363.4763,-42.6014 362.3815,-35.6876"/>
</g>
</g>
</svg>
