<?xml version="1.0" encoding="UTF-8" standalone="no"?>
<!DOCTYPE svg PUBLIC "-//W3C//DTD SVG 1.1//EN"
 "http://www.w3.org/Graphics/SVG/1.1/DTD/svg11.dtd">
<!-- Generated by graphviz version 2.40.1 (20161225.0304)
 -->
<!-- Title: has_suffix Pages: 1 -->
<svg width="420pt" height="66pt"
 viewBox="0.00 0.00 420.00 66.00" xmlns="http://www.w3.org/2000/svg" xmlns:xlink="http://www.w3.org/1999/xlink">
<g id="graph0" class="graph" transform="scale(1 1) rotate(0) translate(4 62)">
<title>has_suffix</title>
<!-- Node652 -->
<g id="node1" class="node">
<title>Node652</title>
<polygon fill="#bfbfbf" stroke="#000000" points="0,-19.5 0,-38.5 62,-38.5 62,-19.5 0,-19.5"/>
<text text-anchor="middle" x="31" y="-26.5" font-family="Helvetica,sans-Serif" font-size="10.00" fill="#000000">has_suffix</text>
</g>
<!-- Node653 -->
<g id="node2" class="node">
<title>Node653</title>
<g id="a_node2"><a xlink:href="quickjs-libc_8c.html#ad61d60681847f324c5ba4ad88c546f1e" target="_top" xlink:title="js_module_loader">
<polygon fill="none" stroke="#000000" points="98,-19.5 98,-38.5 190,-38.5 190,-19.5 98,-19.5"/>
<text text-anchor="middle" x="144" y="-26.5" font-family="Helvetica,sans-Serif" font-size="10.00" fill="#000000">js_module_loader</text>
</a>
</g>
</g>
<!-- Node652&#45;&gt;Node653 -->
<g id="edge1" class="edge">
<title>Node652&#45;&gt;Node653</title>
<path fill="none" stroke="#191970" d="M72.3179,-29C80.567,-29 89.2825,-29 97.687,-29"/>
<polygon fill="#191970" stroke="#191970" points="72.1769,-25.5001 62.1769,-29 72.1768,-32.5001 72.1769,-25.5001"/>
</g>
<!-- Node654 -->
<g id="node3" class="node">
<title>Node654</title>
<g id="a_node3"><a xlink:href="qjs_8cpp.html#a3c04138a5bfe5d72780bb7e82a18e627" target="_top" xlink:title="main">
<polygon fill="none" stroke="#000000" points="242,-38.5 242,-57.5 280,-57.5 280,-38.5 242,-38.5"/>
<text text-anchor="middle" x="261" y="-45.5" font-family="Helvetica,sans-Serif" font-size="10.00" fill="#000000">main</text>
</a>
</g>
</g>
<!-- Node653&#45;&gt;Node654 -->
<g id="edge2" class="edge">
<title>Node653&#45;&gt;Node654</title>
<path fill="none" stroke="#191970" d="M200.4969,-38.1747C215.4195,-40.598 230.5162,-43.0496 241.8966,-44.8977"/>
<polygon fill="#191970" stroke="#191970" points="200.6732,-34.6576 190.2415,-36.5093 199.5511,-41.5671 200.6732,-34.6576"/>
</g>
<!-- Node655 -->
<g id="node4" class="node">
<title>Node655</title>
<g id="a_node4"><a xlink:href="quickjs-libc_8c.html#a1fbb3adc15e7b967479fc1940e99b67a" target="_top" xlink:title="worker_func">
<polygon fill="none" stroke="#000000" points="226,-.5 226,-19.5 296,-19.5 296,-.5 226,-.5"/>
<text text-anchor="middle" x="261" y="-7.5" font-family="Helvetica,sans-Serif" font-size="10.00" fill="#000000">worker_func</text>
</a>
</g>
</g>
<!-- Node653&#45;&gt;Node655 -->
<g id="edge3" class="edge">
<title>Node653&#45;&gt;Node655</title>
<path fill="none" stroke="#191970" d="M200.387,-19.8431C209.0934,-18.4293 217.8623,-17.0053 225.9209,-15.6966"/>
<polygon fill="#191970" stroke="#191970" points="199.5511,-16.4329 190.2415,-21.4907 200.6732,-23.3424 199.5511,-16.4329"/>
</g>
<!-- Node656 -->
<g id="node5" class="node">
<title>Node656</title>
<g id="a_node5"><a xlink:href="quickjs-libc_8c.html#aff1e6131e8bf8b7eb25307623ad669e7" target="_top" xlink:title="js_worker_ctor">
<polygon fill="none" stroke="#ff0000" points="332,-.5 332,-19.5 412,-19.5 412,-.5 332,-.5"/>
<text text-anchor="middle" x="372" y="-7.5" font-family="Helvetica,sans-Serif" font-size="10.00" fill="#000000">js_worker_ctor</text>
</a>
</g>
</g>
<!-- Node655&#45;&gt;Node656 -->
<g id="edge4" class="edge">
<title>Node655&#45;&gt;Node656</title>
<path fill="none" stroke="#191970" d="M306.1986,-10C314.6394,-10 323.4096,-10 331.691,-10"/>
<polygon fill="#191970" stroke="#191970" points="306.1211,-6.5001 296.1211,-10 306.1211,-13.5001 306.1211,-6.5001"/>
</g>
</g>
</svg>
