<?xml version="1.0" encoding="UTF-8" standalone="no"?>
<!DOCTYPE svg PUBLIC "-//W3C//DTD SVG 1.1//EN"
 "http://www.w3.org/Graphics/SVG/1.1/DTD/svg11.dtd">
<!-- Generated by graphviz version 2.40.1 (20161225.0304)
 -->
<!-- Title: dbuf_put_u16 Pages: 1 -->
<!--zoomable 965 -->
<svg id="main" version="1.1" xmlns="http://www.w3.org/2000/svg" xmlns:xlink="http://www.w3.org/1999/xlink" xml:space="preserve" onload="init(evt)">
<style type="text/css"><![CDATA[
.edge:hover path { stroke: red; }
.edge:hover polygon { stroke: red; fill: red; }
]]></style>
<script type="text/javascript"><![CDATA[
var edges = document.getElementsByTagName('g');
if (edges && edges.length) {
  for (var i=0;i<edges.length;i++) {
    if (edges[i].id.substr(0,4)=='edge') {
      edges[i].setAttribute('class','edge');
    }
  }
}
]]></script>
        <defs>
                <circle id="rim" cx="0" cy="0" r="7"/>
                <circle id="rim2" cx="0" cy="0" r="3.5"/>
                <g id="zoomPlus">
                        <use xlink:href="#rim" fill="#404040">
                                <set attributeName="fill" to="#808080" begin="zoomplus.mouseover" end="zoomplus.mouseout"/>
                        </use>
                        <path d="M-4,0h8M0,-4v8" fill="none" stroke="white" stroke-width="1.5" pointer-events="none"/>
                </g>
                <g id="zoomMin">
                        <use xlink:href="#rim" fill="#404040">
                                <set attributeName="fill" to="#808080" begin="zoomminus.mouseover" end="zoomminus.mouseout"/>
                        </use>
                        <path d="M-4,0h8" fill="none" stroke="white" stroke-width="1.5" pointer-events="none"/>
                </g>
                <g id="dirArrow">
                        <path fill="none" stroke="white" stroke-width="1.5" d="M0,-3.0v7 M-2.5,-0.5L0,-3.0L2.5,-0.5"/>
                </g>
               <g id="resetDef">
                       <use xlink:href="#rim2" fill="#404040">
                               <set attributeName="fill" to="#808080" begin="reset.mouseover" end="reset.mouseout"/>
                       </use>
               </g>
        </defs>

<script type="text/javascript">
var viewWidth = 848;
var viewHeight = 965;
var sectionId = 'dynsection-43';
</script>
<script xlink:href="svgpan.js"/>
<svg id="graph" class="graph">
<g id="viewport">
<title>dbuf_put_u16</title>
<!-- Node7724 -->
<g id="node1" class="node">
<title>Node7724</title>
<polygon fill="#bfbfbf" stroke="#000000" points="0,-228.5 0,-247.5 75,-247.5 75,-228.5 0,-228.5"/>
<text text-anchor="middle" x="37.5" y="-235.5" font-family="Helvetica,sans-Serif" font-size="10.00" fill="#000000">dbuf_put_u16</text>
</g>
<!-- Node7725 -->
<g id="node2" class="node">
<title>Node7725</title>
<g id="a_node2"><a xlink:href="quickjs_8c.html#a226c9e47a5047a3adcce0950aa3e3610" target="_top" xlink:title="bc_put_u16">
<polygon fill="none" stroke="#000000" points="143,-899.5 143,-918.5 210,-918.5 210,-899.5 143,-899.5"/>
<text text-anchor="middle" x="176.5" y="-906.5" font-family="Helvetica,sans-Serif" font-size="10.00" fill="#000000">bc_put_u16</text>
</a>
</g>
</g>
<!-- Node7724&#45;&gt;Node7725 -->
<g id="edge1" class="edge">
<title>Node7724&#45;&gt;Node7725</title>
<path fill="none" stroke="#191970" d="M40.9772,-257.685C51.0857,-314.5798 81.6139,-484.0936 111,-624 133.7502,-732.3131 165.2519,-862.8257 174.1026,-899.1851"/>
<polygon fill="#191970" stroke="#191970" points="44.3771,-256.8119 39.1858,-247.576 37.4845,-258.0334 44.3771,-256.8119"/>
</g>
<!-- Node7736 -->
<g id="node5" class="node">
<title>Node7736</title>
<g id="a_node5"><a xlink:href="quickjs_8c.html#a50b5ef50e38aaeb8cba27214601474c7" target="_top" xlink:title="emit_u16">
<polygon fill="none" stroke="#ff0000" points="148.5,-595.5 148.5,-614.5 204.5,-614.5 204.5,-595.5 148.5,-595.5"/>
<text text-anchor="middle" x="176.5" y="-602.5" font-family="Helvetica,sans-Serif" font-size="10.00" fill="#000000">emit_u16</text>
</a>
</g>
</g>
<!-- Node7724&#45;&gt;Node7736 -->
<g id="edge4" class="edge">
<title>Node7724&#45;&gt;Node7736</title>
<path fill="none" stroke="#191970" d="M44.766,-257.1843C70.1338,-324.1625 154.2308,-546.2029 172.8352,-595.3238"/>
<polygon fill="#191970" stroke="#191970" points="48.033,-255.9284 41.2179,-247.8164 41.4868,-258.4078 48.033,-255.9284"/>
</g>
<!-- Node7783 -->
<g id="node20" class="node">
<title>Node7783</title>
<g id="a_node20"><a xlink:href="quickjs_8c.html#adf2446812028f0212ac1a3371a900cb1" target="_top" xlink:title="get_loc_or_ref">
<polygon fill="none" stroke="#000000" points="137.5,-266.5 137.5,-285.5 215.5,-285.5 215.5,-266.5 137.5,-266.5"/>
<text text-anchor="middle" x="176.5" y="-273.5" font-family="Helvetica,sans-Serif" font-size="10.00" fill="#000000">get_loc_or_ref</text>
</a>
</g>
</g>
<!-- Node7724&#45;&gt;Node7783 -->
<g id="edge35" class="edge">
<title>Node7724&#45;&gt;Node7783</title>
<path fill="none" stroke="#191970" d="M82.2953,-250.2462C101.4547,-255.484 123.4938,-261.5091 141.4357,-266.4141"/>
<polygon fill="#191970" stroke="#191970" points="83.1446,-246.85 72.5756,-247.589 81.2986,-253.6022 83.1446,-246.85"/>
</g>
<!-- Node7784 -->
<g id="node21" class="node">
<title>Node7784</title>
<g id="a_node21"><a xlink:href="quickjs_8c.html#a7d2ad72913c8768cc7bceeb2693d53c4" target="_top" xlink:title="resolve_scope_private\l_field">
<polygon fill="none" stroke="#000000" points="278,-242 278,-272 392,-272 392,-242 278,-242"/>
<text text-anchor="start" x="286" y="-260" font-family="Helvetica,sans-Serif" font-size="10.00" fill="#000000">resolve_scope_private</text>
<text text-anchor="middle" x="335" y="-249" font-family="Helvetica,sans-Serif" font-size="10.00" fill="#000000">_field</text>
</a>
</g>
</g>
<!-- Node7724&#45;&gt;Node7784 -->
<g id="edge51" class="edge">
<title>Node7724&#45;&gt;Node7784</title>
<path fill="none" stroke="#191970" d="M85.2239,-241.0479C137.6559,-244.3965 221.837,-249.7728 277.7738,-253.3452"/>
<polygon fill="#191970" stroke="#191970" points="85.3814,-237.5509 75.1786,-240.4064 84.9351,-244.5367 85.3814,-237.5509"/>
</g>
<!-- Node7785 -->
<g id="node22" class="node">
<title>Node7785</title>
<g id="a_node22"><a xlink:href="quickjs_8c.html#a7a4eedc4cc552a71e165f4d28ad43985" target="_top" xlink:title="resolve_variables">
<polygon fill="none" stroke="#ff0000" points="438.5,-269.5 438.5,-288.5 530.5,-288.5 530.5,-269.5 438.5,-269.5"/>
<text text-anchor="middle" x="484.5" y="-276.5" font-family="Helvetica,sans-Serif" font-size="10.00" fill="#000000">resolve_variables</text>
</a>
</g>
</g>
<!-- Node7724&#45;&gt;Node7785 -->
<g id="edge53" class="edge">
<title>Node7724&#45;&gt;Node7785</title>
<path fill="none" stroke="#191970" d="M85.2438,-230.0858C154.0761,-220.2949 284.7084,-207.7945 392,-233 421.8563,-240.014 453.0983,-258.1821 470.5535,-269.4736"/>
<polygon fill="#191970" stroke="#191970" points="84.5299,-226.653 75.1435,-231.5668 85.5455,-233.579 84.5299,-226.653"/>
</g>
<!-- Node7787 -->
<g id="node23" class="node">
<title>Node7787</title>
<g id="a_node23"><a xlink:href="quickjs_8c.html#a942ca594c506978a0dfded4cb3cd20fa" target="_top" xlink:title="instantiate_hoisted\l_definitions">
<polygon fill="none" stroke="#000000" points="127.5,-381 127.5,-411 225.5,-411 225.5,-381 127.5,-381"/>
<text text-anchor="start" x="135.5" y="-399" font-family="Helvetica,sans-Serif" font-size="10.00" fill="#000000">instantiate_hoisted</text>
<text text-anchor="middle" x="176.5" y="-388" font-family="Helvetica,sans-Serif" font-size="10.00" fill="#000000">_definitions</text>
</a>
</g>
</g>
<!-- Node7724&#45;&gt;Node7787 -->
<g id="edge38" class="edge">
<title>Node7724&#45;&gt;Node7787</title>
<path fill="none" stroke="#191970" d="M44.2142,-257.2871C54.6269,-284.7053 77.0723,-335.0506 111,-366 117.4683,-371.9005 125.2966,-376.8172 133.2574,-380.847"/>
<polygon fill="#191970" stroke="#191970" points="47.4234,-255.8716 40.7049,-247.6794 40.8483,-258.2732 47.4234,-255.8716"/>
</g>
<!-- Node7788 -->
<g id="node24" class="node">
<title>Node7788</title>
<g id="a_node24"><a xlink:href="quickjs_8c.html#a7c152c8f95a5338351e7f99447d6aea4" target="_top" xlink:title="optimize_scope_make_ref">
<polygon fill="none" stroke="#000000" points="111,-304.5 111,-323.5 242,-323.5 242,-304.5 111,-304.5"/>
<text text-anchor="middle" x="176.5" y="-311.5" font-family="Helvetica,sans-Serif" font-size="10.00" fill="#000000">optimize_scope_make_ref</text>
</a>
</g>
</g>
<!-- Node7724&#45;&gt;Node7788 -->
<g id="edge40" class="edge">
<title>Node7724&#45;&gt;Node7788</title>
<path fill="none" stroke="#191970" d="M55.0713,-254.745C69.1959,-267.3945 90.0696,-284.3423 111,-295 118.3858,-298.7608 126.6298,-301.8856 134.7105,-304.4409"/>
<polygon fill="#191970" stroke="#191970" points="57.3194,-252.0575 47.5855,-247.8738 52.5858,-257.2145 57.3194,-252.0575"/>
</g>
<!-- Node7789 -->
<g id="node25" class="node">
<title>Node7789</title>
<g id="a_node25"><a xlink:href="quickjs_8c.html#a7858f1fc9afe7bc3548a21f983d015da" target="_top" xlink:title="resolve_scope_var">
<polygon fill="none" stroke="#000000" points="286,-291.5 286,-310.5 384,-310.5 384,-291.5 286,-291.5"/>
<text text-anchor="middle" x="335" y="-298.5" font-family="Helvetica,sans-Serif" font-size="10.00" fill="#000000">resolve_scope_var</text>
</a>
</g>
</g>
<!-- Node7724&#45;&gt;Node7789 -->
<g id="edge52" class="edge">
<title>Node7724&#45;&gt;Node7789</title>
<path fill="none" stroke="#191970" d="M45.7039,-256.9879C56.7661,-279.8763 78.8557,-317.2278 111,-333 163.2692,-358.6468 184.5752,-342.6032 242,-333 267.43,-328.7473 295.2167,-318.3782 313.7324,-310.5876"/>
<polygon fill="#191970" stroke="#191970" points="48.7552,-255.2453 41.4008,-247.6188 42.394,-258.167 48.7552,-255.2453"/>
</g>
<!-- Node7790 -->
<g id="node26" class="node">
<title>Node7790</title>
<g id="a_node26"><a xlink:href="quickjs_8c.html#aa24039e2f085cb91dcb70fb48db0642b" target="_top" xlink:title="push_short_int">
<polygon fill="none" stroke="#000000" points="136.5,-114.5 136.5,-133.5 216.5,-133.5 216.5,-114.5 136.5,-114.5"/>
<text text-anchor="middle" x="176.5" y="-121.5" font-family="Helvetica,sans-Serif" font-size="10.00" fill="#000000">push_short_int</text>
</a>
</g>
</g>
<!-- Node7724&#45;&gt;Node7790 -->
<g id="edge43" class="edge">
<title>Node7724&#45;&gt;Node7790</title>
<path fill="none" stroke="#191970" d="M47.0786,-219.4481C59.1353,-197.9157 81.8431,-162.8328 111,-143 118.5384,-137.8723 127.4677,-134.1104 136.2692,-131.3564"/>
<polygon fill="#191970" stroke="#191970" points="43.9786,-217.8228 42.3037,-228.2844 50.137,-221.1507 43.9786,-217.8228"/>
</g>
<!-- Node7791 -->
<g id="node27" class="node">
<title>Node7791</title>
<g id="a_node27"><a xlink:href="quickjs_8c.html#ad0d311d4ce409584384f835f1a3e185a" target="_top" xlink:title="resolve_labels">
<polygon fill="none" stroke="#ff0000" points="295.5,-114.5 295.5,-133.5 374.5,-133.5 374.5,-114.5 295.5,-114.5"/>
<text text-anchor="middle" x="335" y="-121.5" font-family="Helvetica,sans-Serif" font-size="10.00" fill="#000000">resolve_labels</text>
</a>
</g>
</g>
<!-- Node7724&#45;&gt;Node7791 -->
<g id="edge50" class="edge">
<title>Node7724&#45;&gt;Node7791</title>
<path fill="none" stroke="#191970" d="M41.7046,-218.3883C49.4352,-187.8078 69.1088,-129.712 111,-105 176.2139,-66.5297 271.2266,-97.2773 313.4233,-114.4271"/>
<polygon fill="#191970" stroke="#191970" points="38.2566,-217.7617 39.3778,-228.297 45.0712,-219.362 38.2566,-217.7617"/>
</g>
<!-- Node7792 -->
<g id="node28" class="node">
<title>Node7792</title>
<g id="a_node28"><a xlink:href="quickjs_8c.html#ae769aca702582187792ef3e0edf03ff2" target="_top" xlink:title="put_short_code">
<polygon fill="none" stroke="#000000" points="135,-152.5 135,-171.5 218,-171.5 218,-152.5 135,-152.5"/>
<text text-anchor="middle" x="176.5" y="-159.5" font-family="Helvetica,sans-Serif" font-size="10.00" fill="#000000">put_short_code</text>
</a>
</g>
</g>
<!-- Node7724&#45;&gt;Node7792 -->
<g id="edge45" class="edge">
<title>Node7724&#45;&gt;Node7792</title>
<path fill="none" stroke="#191970" d="M57.4314,-221.7023C71.7114,-210.5885 91.7458,-196.1091 111,-186 121.7228,-180.3702 134.0629,-175.4765 145.1206,-171.603"/>
<polygon fill="#191970" stroke="#191970" points="55.0021,-219.1618 49.3421,-228.1181 59.352,-224.6462 55.0021,-219.1618"/>
</g>
<!-- Node7793 -->
<g id="node29" class="node">
<title>Node7793</title>
<g id="a_node29"><a xlink:href="libregexp_8c.html#a0b36775d2caea480692fc53522db875b" target="_top" xlink:title="re_emit_op_u16">
<polygon fill="none" stroke="#ff0000" points="133.5,-.5 133.5,-19.5 219.5,-19.5 219.5,-.5 133.5,-.5"/>
<text text-anchor="middle" x="176.5" y="-7.5" font-family="Helvetica,sans-Serif" font-size="10.00" fill="#000000">re_emit_op_u16</text>
</a>
</g>
</g>
<!-- Node7724&#45;&gt;Node7793 -->
<g id="edge47" class="edge">
<title>Node7724&#45;&gt;Node7793</title>
<path fill="none" stroke="#191970" d="M39.1382,-218.3194C43.5091,-178.2005 58.94,-86.3421 111,-34 117.32,-27.6458 125.4592,-22.9597 133.8378,-19.5084"/>
<polygon fill="#191970" stroke="#191970" points="35.6429,-218.1026 38.1599,-228.3941 42.6101,-218.7792 35.6429,-218.1026"/>
</g>
<!-- Node7794 -->
<g id="node30" class="node">
<title>Node7794</title>
<g id="a_node30"><a xlink:href="libregexp_8c.html#a889cced8db78de00f11774dc8210874d" target="_top" xlink:title="re_emit_range">
<polygon fill="none" stroke="#ff0000" points="296,-19.5 296,-38.5 374,-38.5 374,-19.5 296,-19.5"/>
<text text-anchor="middle" x="335" y="-26.5" font-family="Helvetica,sans-Serif" font-size="10.00" fill="#000000">re_emit_range</text>
</a>
</g>
</g>
<!-- Node7724&#45;&gt;Node7794 -->
<g id="edge49" class="edge">
<title>Node7724&#45;&gt;Node7794</title>
<path fill="none" stroke="#191970" d="M41.0751,-218.2105C48.1832,-184.8038 67.337,-117.4107 111,-82 164.3859,-38.704 247.1517,-29.662 295.7189,-28.3896"/>
<polygon fill="#191970" stroke="#191970" points="37.6178,-217.6521 39.1083,-228.1415 44.4844,-219.012 37.6178,-217.6521"/>
</g>
<!-- Node7726 -->
<g id="node3" class="node">
<title>Node7726</title>
<g id="a_node3"><a xlink:href="quickjs_8c.html#a0c946fdd3a6def82765db148f99b8fba" target="_top" xlink:title="JS_WriteString">
<polygon fill="none" stroke="#ff0000" points="293.5,-937.5 293.5,-956.5 376.5,-956.5 376.5,-937.5 293.5,-937.5"/>
<text text-anchor="middle" x="335" y="-944.5" font-family="Helvetica,sans-Serif" font-size="10.00" fill="#000000">JS_WriteString</text>
</a>
</g>
</g>
<!-- Node7725&#45;&gt;Node7726 -->
<g id="edge2" class="edge">
<title>Node7725&#45;&gt;Node7726</title>
<path fill="none" stroke="#191970" d="M219.8452,-919.3919C243.3951,-925.0379 272.3088,-931.9699 295.2722,-937.4754"/>
<polygon fill="#191970" stroke="#191970" points="220.6542,-915.9868 210.1138,-917.0588 219.0222,-922.7939 220.6542,-915.9868"/>
</g>
<!-- Node7735 -->
<g id="node4" class="node">
<title>Node7735</title>
<g id="a_node4"><a xlink:href="quickjs_8c.html#aded409755b8a76b40d57ec5fbe8d9653" target="_top" xlink:title="JS_WriteFunctionTag">
<polygon fill="none" stroke="#ff0000" points="279.5,-899.5 279.5,-918.5 390.5,-918.5 390.5,-899.5 279.5,-899.5"/>
<text text-anchor="middle" x="335" y="-906.5" font-family="Helvetica,sans-Serif" font-size="10.00" fill="#000000">JS_WriteFunctionTag</text>
</a>
</g>
</g>
<!-- Node7725&#45;&gt;Node7735 -->
<g id="edge3" class="edge">
<title>Node7725&#45;&gt;Node7735</title>
<path fill="none" stroke="#191970" d="M220.1828,-909C238.4537,-909 259.9069,-909 279.293,-909"/>
<polygon fill="#191970" stroke="#191970" points="220.1138,-905.5001 210.1138,-909 220.1137,-912.5001 220.1138,-905.5001"/>
</g>
<!-- Node7737 -->
<g id="node6" class="node">
<title>Node7737</title>
<g id="a_node6"><a xlink:href="quickjs_8c.html#a7d087e9b184f7e0369bab54aafb1c36d" target="_top" xlink:title="push_scope">
<polygon fill="none" stroke="#ff0000" points="300.5,-633.5 300.5,-652.5 369.5,-652.5 369.5,-633.5 300.5,-633.5"/>
<text text-anchor="middle" x="335" y="-640.5" font-family="Helvetica,sans-Serif" font-size="10.00" fill="#000000">push_scope</text>
</a>
</g>
</g>
<!-- Node7736&#45;&gt;Node7737 -->
<g id="edge5" class="edge">
<title>Node7736&#45;&gt;Node7737</title>
<path fill="none" stroke="#191970" d="M214.7393,-614.1678C240.7898,-620.4133 275.0009,-628.6154 300.2716,-634.674"/>
<polygon fill="#191970" stroke="#191970" points="215.3771,-610.7216 204.8366,-611.7936 213.745,-617.5287 215.3771,-610.7216"/>
</g>
<!-- Node7738 -->
<g id="node7" class="node">
<title>Node7738</title>
<g id="a_node7"><a xlink:href="quickjs_8c.html#a00eb789430243c24dab4a63ad6a79653" target="_top" xlink:title="js_parse_class">
<polygon fill="none" stroke="#ff0000" points="443.5,-671.5 443.5,-690.5 525.5,-690.5 525.5,-671.5 443.5,-671.5"/>
<text text-anchor="middle" x="484.5" y="-678.5" font-family="Helvetica,sans-Serif" font-size="10.00" fill="#000000">js_parse_class</text>
</a>
</g>
</g>
<!-- Node7736&#45;&gt;Node7738 -->
<g id="edge24" class="edge">
<title>Node7736&#45;&gt;Node7738</title>
<path fill="none" stroke="#191970" d="M184.2604,-624.0318C197.9456,-654.7028 229.5832,-714.0443 278,-738 323.4121,-760.469 343.2527,-751.8134 392,-738 424.6675,-728.7431 457.1269,-704.3238 473.5206,-690.6407"/>
<polygon fill="#191970" stroke="#191970" points="187.4684,-622.6321 180.3093,-614.822 181.0355,-625.3919 187.4684,-622.6321"/>
</g>
<!-- Node7739 -->
<g id="node8" class="node">
<title>Node7739</title>
<g id="a_node8"><a xlink:href="quickjs_8c.html#acdcc62310b4f6f73fa7bc7267b18b1d4" target="_top" xlink:title="js_parse_postfix_expr">
<polygon fill="none" stroke="#ff0000" points="577,-671.5 577,-690.5 689,-690.5 689,-671.5 577,-671.5"/>
<text text-anchor="middle" x="633" y="-678.5" font-family="Helvetica,sans-Serif" font-size="10.00" fill="#000000">js_parse_postfix_expr</text>
</a>
</g>
</g>
<!-- Node7736&#45;&gt;Node7739 -->
<g id="edge34" class="edge">
<title>Node7736&#45;&gt;Node7739</title>
<path fill="none" stroke="#191970" d="M214.6296,-606.6966C257.8595,-609.0054 330.3433,-614.044 392,-624 466.9151,-636.0969 553.0876,-658.608 599.384,-671.4229"/>
<polygon fill="#191970" stroke="#191970" points="214.7217,-603.1968 204.5555,-606.1799 214.3631,-610.1876 214.7217,-603.1968"/>
</g>
<!-- Node7740 -->
<g id="node9" class="node">
<title>Node7740</title>
<g id="a_node9"><a xlink:href="quickjs_8c.html#a26be546cf89c4580ba9020e8fc43a759" target="_top" xlink:title="js_parse_destructuring\l_element">
<polygon fill="none" stroke="#ff0000" points="725,-495 725,-525 840,-525 840,-495 725,-495"/>
<text text-anchor="start" x="733" y="-513" font-family="Helvetica,sans-Serif" font-size="10.00" fill="#000000">js_parse_destructuring</text>
<text text-anchor="middle" x="782.5" y="-502" font-family="Helvetica,sans-Serif" font-size="10.00" fill="#000000">_element</text>
</a>
</g>
</g>
<!-- Node7736&#45;&gt;Node7740 -->
<g id="edge33" class="edge">
<title>Node7736&#45;&gt;Node7740</title>
<path fill="none" stroke="#191970" d="M182.3172,-585.6686C193.992,-550.6775 223.9045,-477.5477 278,-446 356.9305,-399.9689 602.8968,-403.4201 689,-434 722.9053,-446.0416 753.4578,-476.2099 769.8574,-494.7114"/>
<polygon fill="#191970" stroke="#191970" points="178.9766,-584.6246 179.2729,-595.2153 185.6457,-586.7513 178.9766,-584.6246"/>
</g>
<!-- Node7772 -->
<g id="node10" class="node">
<title>Node7772</title>
<g id="a_node10"><a xlink:href="quickjs_8c.html#a3376d6ef6fabfbe6070a4e13cb281974" target="_top" xlink:title="pop_scope">
<polygon fill="none" stroke="#ff0000" points="303,-709.5 303,-728.5 367,-728.5 367,-709.5 303,-709.5"/>
<text text-anchor="middle" x="335" y="-716.5" font-family="Helvetica,sans-Serif" font-size="10.00" fill="#000000">pop_scope</text>
</a>
</g>
</g>
<!-- Node7736&#45;&gt;Node7772 -->
<g id="edge13" class="edge">
<title>Node7736&#45;&gt;Node7772</title>
<path fill="none" stroke="#191970" d="M190.7866,-622.3385C209.0124,-643.4315 242.4576,-678.8375 278,-700 285.6183,-704.536 294.4615,-708.1545 302.8764,-710.9647"/>
<polygon fill="#191970" stroke="#191970" points="193.2888,-619.8774 184.1543,-614.5099 187.9478,-624.4023 193.2888,-619.8774"/>
</g>
<!-- Node7773 -->
<g id="node11" class="node">
<title>Node7773</title>
<g id="a_node11"><a xlink:href="quickjs_8c.html#ae04197c3107208ce7ba5e1dab6caf81d" target="_top" xlink:title="close_scopes">
<polygon fill="none" stroke="#ff0000" points="296.5,-367.5 296.5,-386.5 373.5,-386.5 373.5,-367.5 296.5,-367.5"/>
<text text-anchor="middle" x="335" y="-374.5" font-family="Helvetica,sans-Serif" font-size="10.00" fill="#000000">close_scopes</text>
</a>
</g>
</g>
<!-- Node7736&#45;&gt;Node7773 -->
<g id="edge15" class="edge">
<title>Node7736&#45;&gt;Node7773</title>
<path fill="none" stroke="#191970" d="M181.2121,-585.6985C191.8475,-545.9444 221.3202,-454.2082 278,-401 284.5758,-394.827 292.9732,-390.121 301.2888,-386.584"/>
<polygon fill="#191970" stroke="#191970" points="177.8034,-584.9012 178.7049,-595.4576 184.5832,-586.643 177.8034,-584.9012"/>
</g>
<!-- Node7769 -->
<g id="node12" class="node">
<title>Node7769</title>
<g id="a_node12"><a xlink:href="quickjs_8c.html#a035daca514f14aacc1e0cff81d8e423a" target="_top" xlink:title="js_parse_template">
<polygon fill="none" stroke="#000000" points="436.5,-557.5 436.5,-576.5 532.5,-576.5 532.5,-557.5 436.5,-557.5"/>
<text text-anchor="middle" x="484.5" y="-564.5" font-family="Helvetica,sans-Serif" font-size="10.00" fill="#000000">js_parse_template</text>
</a>
</g>
</g>
<!-- Node7736&#45;&gt;Node7769 -->
<g id="edge16" class="edge">
<title>Node7736&#45;&gt;Node7769</title>
<path fill="none" stroke="#191970" d="M214.9723,-599.4963C233.9362,-596.8337 257.1551,-593.6486 278,-591 332.2433,-584.1077 394.6057,-576.9677 436.4802,-572.2871"/>
<polygon fill="#191970" stroke="#191970" points="214.3296,-596.0522 204.9167,-600.9151 215.3076,-602.9836 214.3296,-596.0522"/>
</g>
<!-- Node7751 -->
<g id="node13" class="node">
<title>Node7751</title>
<g id="a_node13"><a xlink:href="quickjs_8c.html#aee6d0acd87f136d43f157ae1426436e6" target="_top" xlink:title="js_parse_object_literal">
<polygon fill="none" stroke="#000000" points="428,-851.5 428,-870.5 541,-870.5 541,-851.5 428,-851.5"/>
<text text-anchor="middle" x="484.5" y="-858.5" font-family="Helvetica,sans-Serif" font-size="10.00" fill="#000000">js_parse_object_literal</text>
</a>
</g>
</g>
<!-- Node7736&#45;&gt;Node7751 -->
<g id="edge18" class="edge">
<title>Node7736&#45;&gt;Node7751</title>
<path fill="none" stroke="#191970" d="M180.2529,-624.5337C189.2613,-665.8984 216.1206,-762.5774 278,-812 320.4658,-845.9171 382.549,-857.0168 427.5461,-860.333"/>
<polygon fill="#191970" stroke="#191970" points="183.6584,-623.7179 178.212,-614.6301 176.8024,-625.1308 183.6584,-623.7179"/>
</g>
<!-- Node7775 -->
<g id="node14" class="node">
<title>Node7775</title>
<g id="a_node14"><a xlink:href="quickjs_8c.html#a1e86277b96b55991d572603e00fef94d" target="_top" xlink:title="emit_class_field_init">
<polygon fill="none" stroke="#ff0000" points="432,-804.5 432,-823.5 537,-823.5 537,-804.5 432,-804.5"/>
<text text-anchor="middle" x="484.5" y="-811.5" font-family="Helvetica,sans-Serif" font-size="10.00" fill="#000000">emit_class_field_init</text>
</a>
</g>
</g>
<!-- Node7736&#45;&gt;Node7775 -->
<g id="edge20" class="edge">
<title>Node7736&#45;&gt;Node7775</title>
<path fill="none" stroke="#191970" d="M181.7237,-624.6974C192.7049,-661.936 221.9236,-742.3825 278,-781 323.1507,-812.0935 386.8823,-817.9876 431.5665,-817.5918"/>
<polygon fill="#191970" stroke="#191970" points="184.9671,-623.3017 178.8917,-614.6219 178.2282,-625.1959 184.9671,-623.3017"/>
</g>
<!-- Node7776 -->
<g id="node15" class="node">
<title>Node7776</title>
<g id="a_node15"><a xlink:href="quickjs_8c.html#a38e4107378b0d9abd638e4fe13541678" target="_top" xlink:title="emit_class_init_start">
<polygon fill="none" stroke="#ff0000" points="281.5,-671.5 281.5,-690.5 388.5,-690.5 388.5,-671.5 281.5,-671.5"/>
<text text-anchor="middle" x="335" y="-678.5" font-family="Helvetica,sans-Serif" font-size="10.00" fill="#000000">emit_class_init_start</text>
</a>
</g>
</g>
<!-- Node7736&#45;&gt;Node7776 -->
<g id="edge22" class="edge">
<title>Node7736&#45;&gt;Node7776</title>
<path fill="none" stroke="#191970" d="M200.0274,-619.9077C220.1871,-632.2637 250.2749,-649.7277 278,-662 285.9169,-665.5044 294.6919,-668.7336 302.9364,-671.4978"/>
<polygon fill="#191970" stroke="#191970" points="201.8513,-616.9204 191.5076,-614.6271 198.1635,-622.8703 201.8513,-616.9204"/>
</g>
<!-- Node7766 -->
<g id="node16" class="node">
<title>Node7766</title>
<g id="a_node16"><a xlink:href="quickjs_8c.html#a253917187cfb6b3db09d355b31edb3d5" target="_top" xlink:title="js_parse_array_literal">
<polygon fill="none" stroke="#000000" points="430,-747.5 430,-766.5 539,-766.5 539,-747.5 430,-747.5"/>
<text text-anchor="middle" x="484.5" y="-754.5" font-family="Helvetica,sans-Serif" font-size="10.00" fill="#000000">js_parse_array_literal</text>
</a>
</g>
</g>
<!-- Node7736&#45;&gt;Node7766 -->
<g id="edge25" class="edge">
<title>Node7736&#45;&gt;Node7766</title>
<path fill="none" stroke="#191970" d="M182.5452,-624.3405C194.448,-658.6619 224.5234,-729.3022 278,-758 332.4925,-787.2429 407.308,-776.6224 450.3161,-766.5831"/>
<polygon fill="#191970" stroke="#191970" points="185.7772,-622.9665 179.3126,-614.5725 179.1317,-625.1658 185.7772,-622.9665"/>
</g>
<!-- Node7778 -->
<g id="node17" class="node">
<title>Node7778</title>
<g id="a_node17"><a xlink:href="quickjs_8c.html#a069baa06a1214006c4ec473875de010e" target="_top" xlink:title="get_lvalue">
<polygon fill="none" stroke="#ff0000" points="602.5,-519.5 602.5,-538.5 663.5,-538.5 663.5,-519.5 602.5,-519.5"/>
<text text-anchor="middle" x="633" y="-526.5" font-family="Helvetica,sans-Serif" font-size="10.00" fill="#000000">get_lvalue</text>
</a>
</g>
</g>
<!-- Node7736&#45;&gt;Node7778 -->
<g id="edge27" class="edge">
<title>Node7736&#45;&gt;Node7778</title>
<path fill="none" stroke="#191970" d="M212.9051,-592.1592C232.0897,-585.7407 256.1204,-578.2449 278,-573 395.7655,-544.7695 540.0991,-534.0169 602.1966,-530.4955"/>
<polygon fill="#191970" stroke="#191970" points="211.6973,-588.8729 203.3516,-595.3998 213.9459,-595.5019 211.6973,-588.8729"/>
</g>
<!-- Node7779 -->
<g id="node18" class="node">
<title>Node7779</title>
<g id="a_node18"><a xlink:href="quickjs_8c.html#a24d4ada6c0c50e82c89955a9300708a9" target="_top" xlink:title="put_lvalue">
<polygon fill="none" stroke="#ff0000" points="454,-481.5 454,-500.5 515,-500.5 515,-481.5 454,-481.5"/>
<text text-anchor="middle" x="484.5" y="-488.5" font-family="Helvetica,sans-Serif" font-size="10.00" fill="#000000">put_lvalue</text>
</a>
</g>
</g>
<!-- Node7736&#45;&gt;Node7779 -->
<g id="edge29" class="edge">
<title>Node7736&#45;&gt;Node7779</title>
<path fill="none" stroke="#191970" d="M190.3593,-587.4043C208.1505,-566.2318 241.1537,-531.4794 278,-515 336.1514,-488.9921 412.2763,-487.4383 453.949,-488.9815"/>
<polygon fill="#191970" stroke="#191970" points="187.5239,-585.3426 183.9016,-595.2989 192.9422,-589.7746 187.5239,-585.3426"/>
</g>
<!-- Node7780 -->
<g id="node19" class="node">
<title>Node7780</title>
<g id="a_node19"><a xlink:href="quickjs_8c.html#a98ab69061f85c400e0eed2c0eb47f49b" target="_top" xlink:title="js_emit_spread_code">
<polygon fill="none" stroke="#000000" points="578.5,-443.5 578.5,-462.5 687.5,-462.5 687.5,-443.5 578.5,-443.5"/>
<text text-anchor="middle" x="633" y="-450.5" font-family="Helvetica,sans-Serif" font-size="10.00" fill="#000000">js_emit_spread_code</text>
</a>
</g>
</g>
<!-- Node7736&#45;&gt;Node7780 -->
<g id="edge31" class="edge">
<title>Node7736&#45;&gt;Node7780</title>
<path fill="none" stroke="#191970" d="M186.124,-586.4855C201.4534,-559.1369 234.213,-508.7309 278,-486 374.4132,-435.9495 505.4758,-439.0138 578.3685,-445.8899"/>
<polygon fill="#191970" stroke="#191970" points="182.9671,-584.9649 181.2768,-595.4241 189.1205,-588.3018 182.9671,-584.9649"/>
</g>
<!-- Node7737&#45;&gt;Node7738 -->
<g id="edge6" class="edge">
<title>Node7737&#45;&gt;Node7738</title>
<path fill="none" stroke="#191970" d="M379.5272,-654.3179C400.9726,-659.7689 426.4089,-666.2344 446.8714,-671.4355"/>
<polygon fill="#191970" stroke="#191970" points="380.2281,-650.8849 369.6741,-651.8135 378.5037,-657.6692 380.2281,-650.8849"/>
</g>
<!-- Node7738&#45;&gt;Node7739 -->
<g id="edge7" class="edge">
<title>Node7738&#45;&gt;Node7739</title>
<path fill="none" stroke="#191970" d="M536.1542,-674.5358C549.3077,-674.1932 563.5069,-674.1586 576.8717,-674.432"/>
<polygon fill="#191970" stroke="#191970" points="535.7441,-671.0474 525.8655,-674.8766 535.9759,-678.0436 535.7441,-671.0474"/>
</g>
<!-- Node7739&#45;&gt;Node7738 -->
<g id="edge8" class="edge">
<title>Node7739&#45;&gt;Node7738</title>
<path fill="none" stroke="#191970" d="M566.8225,-687.7144C552.8893,-687.8377 538.5723,-687.6407 525.8655,-687.1234"/>
<polygon fill="#191970" stroke="#191970" points="566.9238,-691.2134 576.8717,-687.568 566.8218,-684.2142 566.9238,-691.2134"/>
</g>
<!-- Node7739&#45;&gt;Node7739 -->
<g id="edge12" class="edge">
<title>Node7739&#45;&gt;Node7739</title>
<path fill="none" stroke="#191970" d="M605.3742,-699.6539C606.5289,-704.9368 615.7375,-709 633,-709 659.3047,-709 666.9084,-699.5653 655.8111,-690.7571"/>
<polygon fill="#191970" stroke="#191970" points="608.5076,-701.2176 610.1889,-690.7571 602.3512,-697.886 608.5076,-701.2176"/>
</g>
<!-- Node7739&#45;&gt;Node7740 -->
<g id="edge9" class="edge">
<title>Node7739&#45;&gt;Node7740</title>
<path fill="none" stroke="#191970" d="M645.0088,-663.383C671.4142,-629.5756 734.604,-557.0905 765.2495,-525.2268"/>
<polygon fill="#191970" stroke="#191970" points="642.1307,-661.3855 638.8606,-671.4631 647.7014,-665.6243 642.1307,-661.3855"/>
</g>
<!-- Node7740&#45;&gt;Node7739 -->
<g id="edge11" class="edge">
<title>Node7740&#45;&gt;Node7739</title>
<path fill="none" stroke="#191970" d="M766.1413,-533.1211C735.7407,-571.1927 671.2247,-644.7979 644.731,-671.4249"/>
<polygon fill="#191970" stroke="#191970" points="768.9953,-535.1537 772.4223,-525.1284 763.4914,-530.8285 768.9953,-535.1537"/>
</g>
<!-- Node7740&#45;&gt;Node7740 -->
<g id="edge10" class="edge">
<title>Node7740&#45;&gt;Node7740</title>
<path fill="none" stroke="#191970" d="M756.2022,-535.4579C759.4661,-540.179 768.2321,-543.5 782.5,-543.5 805.9141,-543.5 814.5114,-534.5566 808.2921,-525.159"/>
<polygon fill="#191970" stroke="#191970" points="759.7132,-535.3187 756.7079,-525.159 752.7216,-534.9753 759.7132,-535.3187"/>
</g>
<!-- Node7772&#45;&gt;Node7738 -->
<g id="edge14" class="edge">
<title>Node7772&#45;&gt;Node7738</title>
<path fill="none" stroke="#191970" d="M376.8122,-708.3721C398.8216,-702.7778 425.5931,-695.973 446.9369,-690.5478"/>
<polygon fill="#191970" stroke="#191970" points="375.9011,-704.9924 367.0715,-710.848 377.6256,-711.7766 375.9011,-704.9924"/>
</g>
<!-- Node7769&#45;&gt;Node7739 -->
<g id="edge17" class="edge">
<title>Node7769&#45;&gt;Node7739</title>
<path fill="none" stroke="#191970" d="M522.0456,-580.6103C528.5888,-583.6294 535.1615,-587.1073 541,-591 576.6942,-614.7984 610.5971,-653.5242 625.3177,-671.3997"/>
<polygon fill="#191970" stroke="#191970" points="523.1377,-577.2697 512.5694,-576.5206 520.3639,-583.6967 523.1377,-577.2697"/>
</g>
<!-- Node7751&#45;&gt;Node7739 -->
<g id="edge19" class="edge">
<title>Node7751&#45;&gt;Node7739</title>
<path fill="none" stroke="#191970" d="M520.5734,-846.9522C527.8321,-843.1131 535.0495,-838.4695 541,-833 588.0096,-789.7899 619.1477,-717.0774 629.3454,-690.8252"/>
<polygon fill="#191970" stroke="#191970" points="518.9135,-843.8674 511.4492,-851.3864 521.9732,-850.1633 518.9135,-843.8674"/>
</g>
<!-- Node7775&#45;&gt;Node7739 -->
<g id="edge21" class="edge">
<title>Node7775&#45;&gt;Node7739</title>
<path fill="none" stroke="#191970" d="M509.4206,-798.8493C519.5627,-792.2782 531.1832,-784.2143 541,-776 574.8077,-747.7111 609.6538,-708.418 624.9639,-690.5396"/>
<polygon fill="#191970" stroke="#191970" points="507.5428,-795.8956 500.9709,-804.2059 511.2908,-801.8077 507.5428,-795.8956"/>
</g>
<!-- Node7776&#45;&gt;Node7738 -->
<g id="edge23" class="edge">
<title>Node7776&#45;&gt;Node7738</title>
<path fill="none" stroke="#191970" d="M398.7928,-681C413.7695,-681 429.3459,-681 443.0467,-681"/>
<polygon fill="#191970" stroke="#191970" points="398.5507,-677.5001 388.5507,-681 398.5506,-684.5001 398.5507,-677.5001"/>
</g>
<!-- Node7766&#45;&gt;Node7739 -->
<g id="edge26" class="edge">
<title>Node7766&#45;&gt;Node7739</title>
<path fill="none" stroke="#191970" d="M512.3564,-742.7435C542.1755,-727.4826 588.652,-703.6966 614.3451,-690.5473"/>
<polygon fill="#191970" stroke="#191970" points="510.615,-739.703 503.3076,-747.3745 513.8041,-745.9343 510.615,-739.703"/>
</g>
<!-- Node7778&#45;&gt;Node7740 -->
<g id="edge28" class="edge">
<title>Node7778&#45;&gt;Node7740</title>
<path fill="none" stroke="#191970" d="M673.5529,-523.8461C689.3037,-521.8444 707.6367,-519.5144 724.7211,-517.3431"/>
<polygon fill="#191970" stroke="#191970" points="673.0932,-520.3763 663.6143,-525.1092 673.9758,-527.3204 673.0932,-520.3763"/>
</g>
<!-- Node7779&#45;&gt;Node7740 -->
<g id="edge30" class="edge">
<title>Node7779&#45;&gt;Node7740</title>
<path fill="none" stroke="#191970" d="M525.3952,-493.6074C577.0889,-496.9033 666.3805,-502.5964 724.9433,-506.3303"/>
<polygon fill="#191970" stroke="#191970" points="525.4713,-490.1052 515.2688,-492.9618 525.0258,-497.0911 525.4713,-490.1052"/>
</g>
<!-- Node7780&#45;&gt;Node7740 -->
<g id="edge32" class="edge">
<title>Node7780&#45;&gt;Node7740</title>
<path fill="none" stroke="#191970" d="M667.532,-466.1661C690.0745,-474.7609 719.5659,-486.0051 743.035,-494.9532"/>
<polygon fill="#191970" stroke="#191970" points="668.6137,-462.8328 658.0229,-462.5405 666.1199,-469.3735 668.6137,-462.8328"/>
</g>
<!-- Node7783&#45;&gt;Node7784 -->
<g id="edge36" class="edge">
<title>Node7783&#45;&gt;Node7784</title>
<path fill="none" stroke="#191970" d="M225.6492,-270.1083C242.1348,-268.1321 260.6614,-265.9112 277.7149,-263.867"/>
<polygon fill="#191970" stroke="#191970" points="225.1921,-266.6379 215.6798,-271.3034 226.0253,-273.5882 225.1921,-266.6379"/>
</g>
<!-- Node7784&#45;&gt;Node7785 -->
<g id="edge37" class="edge">
<title>Node7784&#45;&gt;Node7785</title>
<path fill="none" stroke="#191970" d="M402.4327,-266.9232C414.5139,-268.701 426.8526,-270.5168 438.17,-272.1822"/>
<polygon fill="#191970" stroke="#191970" points="402.7761,-263.4361 392.373,-265.4429 401.7569,-270.3615 402.7761,-263.4361"/>
</g>
<!-- Node7787&#45;&gt;Node7785 -->
<g id="edge39" class="edge">
<title>Node7787&#45;&gt;Node7785</title>
<path fill="none" stroke="#191970" d="M225.4292,-377.2703C242.0657,-371.0117 260.7988,-364.0845 278,-358 328.3502,-340.1898 342.1969,-339.2873 392,-320 417.3896,-310.1673 445.9438,-297.2111 464.5228,-288.5184"/>
<polygon fill="#191970" stroke="#191970" points="224.0229,-374.06 215.9036,-380.8665 226.4954,-380.6089 224.0229,-374.06"/>
</g>
<!-- Node7788&#45;&gt;Node7789 -->
<g id="edge41" class="edge">
<title>Node7788&#45;&gt;Node7789</title>
<path fill="none" stroke="#191970" d="M252.5832,-307.7597C263.7895,-306.8406 275.0803,-305.9145 285.5575,-305.0552"/>
<polygon fill="#191970" stroke="#191970" points="252.0217,-304.2939 242.3413,-308.5998 252.594,-311.2705 252.0217,-304.2939"/>
</g>
<!-- Node7789&#45;&gt;Node7785 -->
<g id="edge42" class="edge">
<title>Node7789&#45;&gt;Node7785</title>
<path fill="none" stroke="#191970" d="M394.3647,-292.2641C409.0403,-290.1044 424.543,-287.8231 438.4754,-285.7729"/>
<polygon fill="#191970" stroke="#191970" points="393.7501,-288.8167 384.3662,-293.7354 394.7693,-295.7421 393.7501,-288.8167"/>
</g>
<!-- Node7790&#45;&gt;Node7791 -->
<g id="edge44" class="edge">
<title>Node7790&#45;&gt;Node7791</title>
<path fill="none" stroke="#191970" d="M227.1247,-124C249.2459,-124 274.8046,-124 295.4899,-124"/>
<polygon fill="#191970" stroke="#191970" points="226.9064,-120.5001 216.9063,-124 226.9063,-127.5001 226.9064,-120.5001"/>
</g>
<!-- Node7792&#45;&gt;Node7791 -->
<g id="edge46" class="edge">
<title>Node7792&#45;&gt;Node7791</title>
<path fill="none" stroke="#191970" d="M226.4191,-150.032C248.6304,-144.7069 274.4205,-138.5238 295.2914,-133.5201"/>
<polygon fill="#191970" stroke="#191970" points="225.4047,-146.676 216.4962,-152.411 227.0367,-153.4831 225.4047,-146.676"/>
</g>
<!-- Node7793&#45;&gt;Node7794 -->
<g id="edge48" class="edge">
<title>Node7793&#45;&gt;Node7794</title>
<path fill="none" stroke="#191970" d="M229.8242,-16.3922C251.4193,-18.9809 275.9009,-21.9156 295.8075,-24.3018"/>
<polygon fill="#191970" stroke="#191970" points="230.1563,-12.907 219.8108,-15.1918 229.3231,-19.8573 230.1563,-12.907"/>
</g>
</g>
</svg>
        <g id="navigator" transform="translate(0 0)" fill="#404254">
                <rect fill="#f2f5e9" fill-opacity="0.5" stroke="#606060" stroke-width=".5" x="0" y="0" width="60" height="60"/>
                <use id="zoomplus" xlink:href="#zoomPlus" x="17" y="9" onmousedown="handleZoom(evt,'in')"/>
                <use id="zoomminus" xlink:href="#zoomMin" x="42" y="9" onmousedown="handleZoom(evt,'out')"/>
                <use id="reset" xlink:href="#resetDef" x="30" y="36" onmousedown="handleReset()"/>
                <g id="arrowUp" xlink:href="#dirArrow" transform="translate(30 24)" onmousedown="handlePan(0,-1)">
                  <use xlink:href="#rim" fill="#404040">
                        <set attributeName="fill" to="#808080" begin="arrowUp.mouseover" end="arrowUp.mouseout"/>
                  </use>
                  <path fill="none" stroke="white" stroke-width="1.5" d="M0,-3.0v7 M-2.5,-0.5L0,-3.0L2.5,-0.5"/>
                </g>
                <g id="arrowRight" xlink:href="#dirArrow" transform="rotate(90) translate(36 -43)" onmousedown="handlePan(1,0)">
                  <use xlink:href="#rim" fill="#404040">
                        <set attributeName="fill" to="#808080" begin="arrowRight.mouseover" end="arrowRight.mouseout"/>
                  </use>
                  <path fill="none" stroke="white" stroke-width="1.5" d="M0,-3.0v7 M-2.5,-0.5L0,-3.0L2.5,-0.5"/>
                </g>
                <g id="arrowDown" xlink:href="#dirArrow" transform="rotate(180) translate(-30 -48)" onmousedown="handlePan(0,1)">
                  <use xlink:href="#rim" fill="#404040">
                        <set attributeName="fill" to="#808080" begin="arrowDown.mouseover" end="arrowDown.mouseout"/>
                  </use>
                  <path fill="none" stroke="white" stroke-width="1.5" d="M0,-3.0v7 M-2.5,-0.5L0,-3.0L2.5,-0.5"/>
                </g>
                <g id="arrowLeft" xlink:href="#dirArrow" transform="rotate(270) translate(-36 17)" onmousedown="handlePan(-1,0)">
                  <use xlink:href="#rim" fill="#404040">
                        <set attributeName="fill" to="#808080" begin="arrowLeft.mouseover" end="arrowLeft.mouseout"/>
                  </use>
                  <path fill="none" stroke="white" stroke-width="1.5" d="M0,-3.0v7 M-2.5,-0.5L0,-3.0L2.5,-0.5"/>
                </g>
        </g>
        <svg viewBox="0 0 15 15" width="100%" height="30px" preserveAspectRatio="xMaxYMin meet">
         <g id="arrow_out" transform="scale(0.3 0.3)">
          <a xlink:href="cutils_8h_a31a6b9f8517a73d45e976d8a026e964e_icgraph_org.svg" target="_base">
           <rect id="button" ry="5" rx="5" y="6" x="6" height="38" width="38"
                fill="#f2f5e9" fill-opacity="0.5" stroke="#606060" stroke-width="1.0"/>
           <path id="arrow"
             d="M 11.500037,31.436501 C 11.940474,20.09759 22.043105,11.32322 32.158766,21.979434 L 37.068811,17.246167 C 37.068811,17.246167 37.088388,32 37.088388,32 L 22.160133,31.978069 C 22.160133,31.978069 26.997745,27.140456 26.997745,27.140456 C 18.528582,18.264221 13.291696,25.230495 11.500037,31.436501 z"
             style="fill:#404040;"/>
          </a>
         </g>
        </svg>
</svg>
