<?xml version="1.0" encoding="UTF-8" standalone="no"?>
<!DOCTYPE svg PUBLIC "-//W3C//DTD SVG 1.1//EN"
 "http://www.w3.org/Graphics/SVG/1.1/DTD/svg11.dtd">
<!-- Generated by graphviz version 2.40.1 (20161225.0304)
 -->
<!-- Title: lre_get_flags Pages: 1 -->
<svg width="687pt" height="218pt"
 viewBox="0.00 0.00 687.00 218.00" xmlns="http://www.w3.org/2000/svg" xmlns:xlink="http://www.w3.org/1999/xlink">
<g id="graph0" class="graph" transform="scale(1 1) rotate(0) translate(4 214)">
<title>lre_get_flags</title>
<!-- Node101 -->
<g id="node1" class="node">
<title>Node101</title>
<polygon fill="#bfbfbf" stroke="#000000" points="0,-57.5 0,-76.5 72,-76.5 72,-57.5 0,-57.5"/>
<text text-anchor="middle" x="36" y="-64.5" font-family="Helvetica,sans-Serif" font-size="10.00" fill="#000000">lre_get_flags</text>
</g>
<!-- Node102 -->
<g id="node2" class="node">
<title>Node102</title>
<g id="a_node2"><a xlink:href="quickjs_8c.html#a9eb2d90f27f684820f9de13189502b7c" target="_top" xlink:title="js_regexp_exec">
<polygon fill="none" stroke="#000000" points="254.5,-57.5 254.5,-76.5 339.5,-76.5 339.5,-57.5 254.5,-57.5"/>
<text text-anchor="middle" x="297" y="-64.5" font-family="Helvetica,sans-Serif" font-size="10.00" fill="#000000">js_regexp_exec</text>
</a>
</g>
</g>
<!-- Node101&#45;&gt;Node102 -->
<g id="edge1" class="edge">
<title>Node101&#45;&gt;Node102</title>
<path fill="none" stroke="#191970" d="M57.9386,-82.1847C71.6478,-90.7302 90.0532,-100.5546 108,-105 152.8663,-116.1133 166.7952,-114.6446 212,-105 237.452,-99.5697 264.5096,-85.9398 281.0864,-76.5717"/>
<polygon fill="#191970" stroke="#191970" points="59.5552,-79.0615 49.2612,-76.5548 55.7452,-84.9338 59.5552,-79.0615"/>
</g>
<!-- Node111 -->
<g id="node11" class="node">
<title>Node111</title>
<g id="a_node11"><a xlink:href="quickjs_8c.html#a84549917900dae51c15ad8f1bb92d8ea" target="_top" xlink:title="js_regexp_get_flag">
<polygon fill="none" stroke="#000000" points="111,-76.5 111,-95.5 209,-95.5 209,-76.5 111,-76.5"/>
<text text-anchor="middle" x="160" y="-83.5" font-family="Helvetica,sans-Serif" font-size="10.00" fill="#000000">js_regexp_get_flag</text>
</a>
</g>
</g>
<!-- Node101&#45;&gt;Node111 -->
<g id="edge11" class="edge">
<title>Node101&#45;&gt;Node111</title>
<path fill="none" stroke="#191970" d="M82.3559,-74.1029C91.5798,-75.5163 101.298,-77.0053 110.6189,-78.4335"/>
<polygon fill="#191970" stroke="#191970" points="82.614,-70.6017 72.1993,-72.5467 81.5538,-77.5209 82.614,-70.6017"/>
</g>
<!-- Node112 -->
<g id="node12" class="node">
<title>Node112</title>
<g id="a_node12"><a xlink:href="quickjs_8c.html#a14fa3c10f581e1cd38b349913f47fb43" target="_top" xlink:title="JS_RegExpDelete">
<polygon fill="none" stroke="#000000" points="248,-.5 248,-19.5 346,-19.5 346,-.5 248,-.5"/>
<text text-anchor="middle" x="297" y="-7.5" font-family="Helvetica,sans-Serif" font-size="10.00" fill="#000000">JS_RegExpDelete</text>
</a>
</g>
</g>
<!-- Node101&#45;&gt;Node112 -->
<g id="edge12" class="edge">
<title>Node101&#45;&gt;Node112</title>
<path fill="none" stroke="#191970" d="M58.8891,-51.9898C72.5734,-43.7794 90.6281,-34.239 108,-29 154.097,-15.098 209.0881,-10.8731 247.8351,-9.8091"/>
<polygon fill="#191970" stroke="#191970" points="56.8304,-49.148 50.1757,-57.3922 60.5191,-55.0973 56.8304,-49.148"/>
</g>
<!-- Node113 -->
<g id="node13" class="node">
<title>Node113</title>
<g id="a_node13"><a xlink:href="libregexp_8h.html#a1f0e5c1ad159240b0751415adb4faf47" target="_top" xlink:title="lre_get_groupnames">
<polygon fill="none" stroke="#000000" points="108,-38.5 108,-57.5 212,-57.5 212,-38.5 108,-38.5"/>
<text text-anchor="middle" x="160" y="-45.5" font-family="Helvetica,sans-Serif" font-size="10.00" fill="#000000">lre_get_groupnames</text>
</a>
</g>
</g>
<!-- Node101&#45;&gt;Node113 -->
<g id="edge14" class="edge">
<title>Node101&#45;&gt;Node113</title>
<path fill="none" stroke="#191970" d="M82.1647,-59.9264C90.5393,-58.6432 99.3271,-57.2967 107.8592,-55.9893"/>
<polygon fill="#191970" stroke="#191970" points="81.5538,-56.479 72.1993,-61.4533 82.614,-63.3983 81.5538,-56.479"/>
</g>
<!-- Node103 -->
<g id="node3" class="node">
<title>Node103</title>
<g id="a_node3"><a xlink:href="quickjs_8c.html#ab737681b4f1a426c560df37c1304c9d6" target="_top" xlink:title="JS_RegExpExec">
<polygon fill="none" stroke="#000000" points="393,-76.5 393,-95.5 485,-95.5 485,-76.5 393,-76.5"/>
<text text-anchor="middle" x="439" y="-83.5" font-family="Helvetica,sans-Serif" font-size="10.00" fill="#000000">JS_RegExpExec</text>
</a>
</g>
</g>
<!-- Node102&#45;&gt;Node103 -->
<g id="edge2" class="edge">
<title>Node102&#45;&gt;Node103</title>
<path fill="none" stroke="#191970" d="M349.7214,-74.0543C363.9177,-75.9538 379.1603,-77.9933 392.961,-79.8399"/>
<polygon fill="#191970" stroke="#191970" points="349.9806,-70.5578 339.6047,-72.7006 349.0521,-77.496 349.9806,-70.5578"/>
</g>
<!-- Node110 -->
<g id="node10" class="node">
<title>Node110</title>
<g id="a_node10"><a xlink:href="quickjs_8c.html#a55de0909f8b4c06625f67b2fdb670279" target="_top" xlink:title="js_is_standard_regexp">
<polygon fill="none" stroke="#000000" points="382,-38.5 382,-57.5 496,-57.5 496,-38.5 382,-38.5"/>
<text text-anchor="middle" x="439" y="-45.5" font-family="Helvetica,sans-Serif" font-size="10.00" fill="#000000">js_is_standard_regexp</text>
</a>
</g>
</g>
<!-- Node102&#45;&gt;Node110 -->
<g id="edge9" class="edge">
<title>Node102&#45;&gt;Node110</title>
<path fill="none" stroke="#191970" d="M349.5267,-59.9718C360.0983,-58.5573 371.257,-57.0642 381.9736,-55.6303"/>
<polygon fill="#191970" stroke="#191970" points="349.0521,-56.504 339.6047,-61.2994 349.9806,-63.4422 349.0521,-56.504"/>
</g>
<!-- Node104 -->
<g id="node4" class="node">
<title>Node104</title>
<g id="a_node4"><a xlink:href="quickjs_8c.html#acda1b1a97bfde7e280456c5969b7a2a3" target="_top" xlink:title="js_regexp_test">
<polygon fill="none" stroke="#000000" points="565.5,-190.5 565.5,-209.5 645.5,-209.5 645.5,-190.5 565.5,-190.5"/>
<text text-anchor="middle" x="605.5" y="-197.5" font-family="Helvetica,sans-Serif" font-size="10.00" fill="#000000">js_regexp_test</text>
</a>
</g>
</g>
<!-- Node103&#45;&gt;Node104 -->
<g id="edge3" class="edge">
<title>Node103&#45;&gt;Node104</title>
<path fill="none" stroke="#191970" d="M451.7578,-104.0701C467.9509,-125.6444 497.9128,-161.2787 532,-181 542.1533,-186.8742 554.1304,-190.9604 565.4361,-193.7919"/>
<polygon fill="#191970" stroke="#191970" points="454.4174,-101.7776 445.689,-95.7721 448.7672,-105.9099 454.4174,-101.7776"/>
</g>
<!-- Node105 -->
<g id="node5" class="node">
<title>Node105</title>
<g id="a_node5"><a xlink:href="quickjs_8c.html#a41fc4304b39616e7be3500fe6ec881c2" target="_top" xlink:title="js_regexp_Symbol_match">
<polygon fill="none" stroke="#000000" points="541,-152.5 541,-171.5 670,-171.5 670,-152.5 541,-152.5"/>
<text text-anchor="middle" x="605.5" y="-159.5" font-family="Helvetica,sans-Serif" font-size="10.00" fill="#000000">js_regexp_Symbol_match</text>
</a>
</g>
</g>
<!-- Node103&#45;&gt;Node105 -->
<g id="edge4" class="edge">
<title>Node103&#45;&gt;Node105</title>
<path fill="none" stroke="#191970" d="M460.0385,-101.4169C478.2745,-114.1476 505.7841,-131.8725 532,-143 540.7352,-146.7077 550.3708,-149.8328 559.7094,-152.4096"/>
<polygon fill="#191970" stroke="#191970" points="462.0569,-98.5575 451.8776,-95.6193 458.0029,-104.2641 462.0569,-98.5575"/>
</g>
<!-- Node106 -->
<g id="node6" class="node">
<title>Node106</title>
<g id="a_node6"><a xlink:href="quickjs_8c.html#aeb6df5fcffc6fecfac1e9b0d709e99c5" target="_top" xlink:title="js_regexp_string_iterator_next">
<polygon fill="none" stroke="#000000" points="532,-114.5 532,-133.5 679,-133.5 679,-114.5 532,-114.5"/>
<text text-anchor="middle" x="605.5" y="-121.5" font-family="Helvetica,sans-Serif" font-size="10.00" fill="#000000">js_regexp_string_iterator_next</text>
</a>
</g>
</g>
<!-- Node103&#45;&gt;Node106 -->
<g id="edge5" class="edge">
<title>Node103&#45;&gt;Node106</title>
<path fill="none" stroke="#191970" d="M490.809,-97.8243C514.2825,-103.1816 541.6654,-109.4311 563.7871,-114.4799"/>
<polygon fill="#191970" stroke="#191970" points="491.5431,-94.4019 481.015,-95.589 489.9855,-101.2264 491.5431,-94.4019"/>
</g>
<!-- Node107 -->
<g id="node7" class="node">
<title>Node107</title>
<g id="a_node7"><a xlink:href="quickjs_8c.html#a6a77bcdb9f7f18c13c108c99a198708b" target="_top" xlink:title="js_regexp_Symbol_replace">
<polygon fill="none" stroke="#000000" points="538.5,-.5 538.5,-19.5 672.5,-19.5 672.5,-.5 538.5,-.5"/>
<text text-anchor="middle" x="605.5" y="-7.5" font-family="Helvetica,sans-Serif" font-size="10.00" fill="#000000">js_regexp_Symbol_replace</text>
</a>
</g>
</g>
<!-- Node103&#45;&gt;Node107 -->
<g id="edge6" class="edge">
<title>Node103&#45;&gt;Node107</title>
<path fill="none" stroke="#191970" d="M485.8812,-72.5079C489.4052,-70.8555 492.8216,-69.0242 496,-67 515.6229,-54.5029 511.959,-40.815 532,-29 538.5852,-25.1178 545.9592,-22.0194 553.4267,-19.549"/>
<polygon fill="#191970" stroke="#191970" points="484.2683,-69.3886 476.3915,-76.4743 486.9678,-75.8472 484.2683,-69.3886"/>
</g>
<!-- Node108 -->
<g id="node8" class="node">
<title>Node108</title>
<g id="a_node8"><a xlink:href="quickjs_8c.html#af315d0f35b4b11e5957b904c98bf1c0d" target="_top" xlink:title="js_regexp_Symbol_search">
<polygon fill="none" stroke="#000000" points="540,-76.5 540,-95.5 671,-95.5 671,-76.5 540,-76.5"/>
<text text-anchor="middle" x="605.5" y="-83.5" font-family="Helvetica,sans-Serif" font-size="10.00" fill="#000000">js_regexp_Symbol_search</text>
</a>
</g>
</g>
<!-- Node103&#45;&gt;Node108 -->
<g id="edge7" class="edge">
<title>Node103&#45;&gt;Node108</title>
<path fill="none" stroke="#191970" d="M495.5072,-86C509.7368,-86 525.1326,-86 539.7714,-86"/>
<polygon fill="#191970" stroke="#191970" points="495.3796,-82.5001 485.3795,-86 495.3795,-89.5001 495.3796,-82.5001"/>
</g>
<!-- Node109 -->
<g id="node9" class="node">
<title>Node109</title>
<g id="a_node9"><a xlink:href="quickjs_8c.html#a79872a6d9d139e36d5d1894d16132024" target="_top" xlink:title="js_regexp_Symbol_split">
<polygon fill="none" stroke="#000000" points="545.5,-38.5 545.5,-57.5 665.5,-57.5 665.5,-38.5 545.5,-38.5"/>
<text text-anchor="middle" x="605.5" y="-45.5" font-family="Helvetica,sans-Serif" font-size="10.00" fill="#000000">js_regexp_Symbol_split</text>
</a>
</g>
</g>
<!-- Node103&#45;&gt;Node109 -->
<g id="edge8" class="edge">
<title>Node103&#45;&gt;Node109</title>
<path fill="none" stroke="#191970" d="M490.809,-74.1757C514.2825,-68.8184 541.6654,-62.5689 563.7871,-57.5201"/>
<polygon fill="#191970" stroke="#191970" points="489.9855,-70.7736 481.015,-76.411 491.5431,-77.5981 489.9855,-70.7736"/>
</g>
<!-- Node110&#45;&gt;Node107 -->
<g id="edge10" class="edge">
<title>Node110&#45;&gt;Node107</title>
<path fill="none" stroke="#191970" d="M490.809,-36.1757C514.2825,-30.8184 541.6654,-24.5689 563.7871,-19.5201"/>
<polygon fill="#191970" stroke="#191970" points="489.9855,-32.7736 481.015,-38.411 491.5431,-39.5981 489.9855,-32.7736"/>
</g>
<!-- Node112&#45;&gt;Node107 -->
<g id="edge13" class="edge">
<title>Node112&#45;&gt;Node107</title>
<path fill="none" stroke="#191970" d="M356.3098,-10C408.3808,-10 484.0727,-10 538.3547,-10"/>
<polygon fill="#191970" stroke="#191970" points="356.2239,-6.5001 346.2239,-10 356.2238,-13.5001 356.2239,-6.5001"/>
</g>
<!-- Node113&#45;&gt;Node102 -->
<g id="edge15" class="edge">
<title>Node113&#45;&gt;Node102</title>
<path fill="none" stroke="#191970" d="M222.0928,-56.6114C232.9833,-58.1218 244.0916,-59.6623 254.3038,-61.0786"/>
<polygon fill="#191970" stroke="#191970" points="222.5707,-53.1443 212.1846,-55.2373 221.609,-60.0779 222.5707,-53.1443"/>
</g>
</g>
</svg>
