<?xml version="1.0" encoding="UTF-8" standalone="no"?>
<!DOCTYPE svg PUBLIC "-//W3C//DTD SVG 1.1//EN"
 "http://www.w3.org/Graphics/SVG/1.1/DTD/svg11.dtd">
<!-- Generated by graphviz version 2.40.1 (20161225.0304)
 -->
<!-- Title: lre_get_groupnames Pages: 1 -->
<!--zoomable 218 -->
<svg id="main" version="1.1" xmlns="http://www.w3.org/2000/svg" xmlns:xlink="http://www.w3.org/1999/xlink" xml:space="preserve" onload="init(evt)">
<style type="text/css"><![CDATA[
.edge:hover path { stroke: red; }
.edge:hover polygon { stroke: red; fill: red; }
]]></style>
<script type="text/javascript"><![CDATA[
var edges = document.getElementsByTagName('g');
if (edges && edges.length) {
  for (var i=0;i<edges.length;i++) {
    if (edges[i].id.substr(0,4)=='edge') {
      edges[i].setAttribute('class','edge');
    }
  }
}
]]></script>
        <defs>
                <circle id="rim" cx="0" cy="0" r="7"/>
                <circle id="rim2" cx="0" cy="0" r="3.5"/>
                <g id="zoomPlus">
                        <use xlink:href="#rim" fill="#404040">
                                <set attributeName="fill" to="#808080" begin="zoomplus.mouseover" end="zoomplus.mouseout"/>
                        </use>
                        <path d="M-4,0h8M0,-4v8" fill="none" stroke="white" stroke-width="1.5" pointer-events="none"/>
                </g>
                <g id="zoomMin">
                        <use xlink:href="#rim" fill="#404040">
                                <set attributeName="fill" to="#808080" begin="zoomminus.mouseover" end="zoomminus.mouseout"/>
                        </use>
                        <path d="M-4,0h8" fill="none" stroke="white" stroke-width="1.5" pointer-events="none"/>
                </g>
                <g id="dirArrow">
                        <path fill="none" stroke="white" stroke-width="1.5" d="M0,-3.0v7 M-2.5,-0.5L0,-3.0L2.5,-0.5"/>
                </g>
               <g id="resetDef">
                       <use xlink:href="#rim2" fill="#404040">
                               <set attributeName="fill" to="#808080" begin="reset.mouseover" end="reset.mouseout"/>
                       </use>
               </g>
        </defs>

<script type="text/javascript">
var viewWidth = 566;
var viewHeight = 218;
var sectionId = 'dynsection-71';
</script>
<script xlink:href="svgpan.js"/>
<svg id="graph" class="graph">
<g id="viewport">
<title>lre_get_groupnames</title>
<!-- Node1845 -->
<g id="node1" class="node">
<title>Node1845</title>
<polygon fill="#bfbfbf" stroke="#000000" points="0,-38.5 0,-57.5 104,-57.5 104,-38.5 0,-38.5"/>
<text text-anchor="middle" x="52" y="-45.5" font-family="Helvetica,sans-Serif" font-size="10.00" fill="#000000">lre_get_groupnames</text>
</g>
<!-- Node1846 -->
<g id="node2" class="node">
<title>Node1846</title>
<g id="a_node2"><a xlink:href="quickjs_8c.html#a9eb2d90f27f684820f9de13189502b7c" target="_top" xlink:title="js_regexp_exec">
<polygon fill="none" stroke="#000000" points="140,-38.5 140,-57.5 225,-57.5 225,-38.5 140,-38.5"/>
<text text-anchor="middle" x="182.5" y="-45.5" font-family="Helvetica,sans-Serif" font-size="10.00" fill="#000000">js_regexp_exec</text>
</a>
</g>
</g>
<!-- Node1845&#45;&gt;Node1846 -->
<g id="edge1" class="edge">
<title>Node1845&#45;&gt;Node1846</title>
<path fill="none" stroke="#191970" d="M114.362,-48C122.9669,-48 131.6389,-48 139.7779,-48"/>
<polygon fill="#191970" stroke="#191970" points="114.3274,-44.5001 104.3274,-48 114.3274,-51.5001 114.3274,-44.5001"/>
</g>
<!-- Node1847 -->
<g id="node3" class="node">
<title>Node1847</title>
<g id="a_node3"><a xlink:href="quickjs_8c.html#ab737681b4f1a426c560df37c1304c9d6" target="_top" xlink:title="JS_RegExpExec">
<polygon fill="none" stroke="#000000" points="272,-76.5 272,-95.5 364,-95.5 364,-76.5 272,-76.5"/>
<text text-anchor="middle" x="318" y="-83.5" font-family="Helvetica,sans-Serif" font-size="10.00" fill="#000000">JS_RegExpExec</text>
</a>
</g>
</g>
<!-- Node1846&#45;&gt;Node1847 -->
<g id="edge2" class="edge">
<title>Node1846&#45;&gt;Node1847</title>
<path fill="none" stroke="#191970" d="M226.4246,-60.3183C245.0414,-65.5393 266.4087,-71.5316 283.8186,-76.4141"/>
<polygon fill="#191970" stroke="#191970" points="227.266,-56.9193 216.6924,-57.589 225.3758,-63.6593 227.266,-56.9193"/>
</g>
<!-- Node1854 -->
<g id="node10" class="node">
<title>Node1854</title>
<g id="a_node10"><a xlink:href="quickjs_8c.html#a55de0909f8b4c06625f67b2fdb670279" target="_top" xlink:title="js_is_standard_regexp">
<polygon fill="none" stroke="#000000" points="261,-19.5 261,-38.5 375,-38.5 375,-19.5 261,-19.5"/>
<text text-anchor="middle" x="318" y="-26.5" font-family="Helvetica,sans-Serif" font-size="10.00" fill="#000000">js_is_standard_regexp</text>
</a>
</g>
</g>
<!-- Node1846&#45;&gt;Node1854 -->
<g id="edge9" class="edge">
<title>Node1846&#45;&gt;Node1854</title>
<path fill="none" stroke="#191970" d="M235.066,-40.6291C243.4819,-39.449 252.2274,-38.2227 260.746,-37.0282"/>
<polygon fill="#191970" stroke="#191970" points="234.4183,-37.1856 225.0013,-42.0404 235.3904,-44.1178 234.4183,-37.1856"/>
</g>
<!-- Node1848 -->
<g id="node4" class="node">
<title>Node1848</title>
<g id="a_node4"><a xlink:href="quickjs_8c.html#acda1b1a97bfde7e280456c5969b7a2a3" target="_top" xlink:title="js_regexp_test">
<polygon fill="none" stroke="#000000" points="444.5,-190.5 444.5,-209.5 524.5,-209.5 524.5,-190.5 444.5,-190.5"/>
<text text-anchor="middle" x="484.5" y="-197.5" font-family="Helvetica,sans-Serif" font-size="10.00" fill="#000000">js_regexp_test</text>
</a>
</g>
</g>
<!-- Node1847&#45;&gt;Node1848 -->
<g id="edge3" class="edge">
<title>Node1847&#45;&gt;Node1848</title>
<path fill="none" stroke="#191970" d="M330.7578,-104.0701C346.9509,-125.6444 376.9128,-161.2787 411,-181 421.1533,-186.8742 433.1304,-190.9604 444.4361,-193.7919"/>
<polygon fill="#191970" stroke="#191970" points="333.4174,-101.7776 324.689,-95.7721 327.7672,-105.9099 333.4174,-101.7776"/>
</g>
<!-- Node1849 -->
<g id="node5" class="node">
<title>Node1849</title>
<g id="a_node5"><a xlink:href="quickjs_8c.html#a41fc4304b39616e7be3500fe6ec881c2" target="_top" xlink:title="js_regexp_Symbol_match">
<polygon fill="none" stroke="#000000" points="420,-152.5 420,-171.5 549,-171.5 549,-152.5 420,-152.5"/>
<text text-anchor="middle" x="484.5" y="-159.5" font-family="Helvetica,sans-Serif" font-size="10.00" fill="#000000">js_regexp_Symbol_match</text>
</a>
</g>
</g>
<!-- Node1847&#45;&gt;Node1849 -->
<g id="edge4" class="edge">
<title>Node1847&#45;&gt;Node1849</title>
<path fill="none" stroke="#191970" d="M339.0385,-101.4169C357.2745,-114.1476 384.7841,-131.8725 411,-143 419.7352,-146.7077 429.3708,-149.8328 438.7094,-152.4096"/>
<polygon fill="#191970" stroke="#191970" points="341.0569,-98.5575 330.8776,-95.6193 337.0029,-104.2641 341.0569,-98.5575"/>
</g>
<!-- Node1850 -->
<g id="node6" class="node">
<title>Node1850</title>
<g id="a_node6"><a xlink:href="quickjs_8c.html#aeb6df5fcffc6fecfac1e9b0d709e99c5" target="_top" xlink:title="js_regexp_string_iterator_next">
<polygon fill="none" stroke="#000000" points="411,-114.5 411,-133.5 558,-133.5 558,-114.5 411,-114.5"/>
<text text-anchor="middle" x="484.5" y="-121.5" font-family="Helvetica,sans-Serif" font-size="10.00" fill="#000000">js_regexp_string_iterator_next</text>
</a>
</g>
</g>
<!-- Node1847&#45;&gt;Node1850 -->
<g id="edge5" class="edge">
<title>Node1847&#45;&gt;Node1850</title>
<path fill="none" stroke="#191970" d="M369.809,-97.8243C393.2825,-103.1816 420.6654,-109.4311 442.7871,-114.4799"/>
<polygon fill="#191970" stroke="#191970" points="370.5431,-94.4019 360.015,-95.589 368.9855,-101.2264 370.5431,-94.4019"/>
</g>
<!-- Node1851 -->
<g id="node7" class="node">
<title>Node1851</title>
<g id="a_node7"><a xlink:href="quickjs_8c.html#a6a77bcdb9f7f18c13c108c99a198708b" target="_top" xlink:title="js_regexp_Symbol_replace">
<polygon fill="none" stroke="#000000" points="417.5,-.5 417.5,-19.5 551.5,-19.5 551.5,-.5 417.5,-.5"/>
<text text-anchor="middle" x="484.5" y="-7.5" font-family="Helvetica,sans-Serif" font-size="10.00" fill="#000000">js_regexp_Symbol_replace</text>
</a>
</g>
</g>
<!-- Node1847&#45;&gt;Node1851 -->
<g id="edge6" class="edge">
<title>Node1847&#45;&gt;Node1851</title>
<path fill="none" stroke="#191970" d="M340.8846,-70.8905C363.5727,-56.1104 396.919,-34.9768 411,-29 419.7352,-25.2923 429.3708,-22.1672 438.7094,-19.5904"/>
<polygon fill="#191970" stroke="#191970" points="338.9328,-67.9848 332.4829,-76.3902 342.7667,-73.8416 338.9328,-67.9848"/>
</g>
<!-- Node1852 -->
<g id="node8" class="node">
<title>Node1852</title>
<g id="a_node8"><a xlink:href="quickjs_8c.html#af315d0f35b4b11e5957b904c98bf1c0d" target="_top" xlink:title="js_regexp_Symbol_search">
<polygon fill="none" stroke="#000000" points="419,-76.5 419,-95.5 550,-95.5 550,-76.5 419,-76.5"/>
<text text-anchor="middle" x="484.5" y="-83.5" font-family="Helvetica,sans-Serif" font-size="10.00" fill="#000000">js_regexp_Symbol_search</text>
</a>
</g>
</g>
<!-- Node1847&#45;&gt;Node1852 -->
<g id="edge7" class="edge">
<title>Node1847&#45;&gt;Node1852</title>
<path fill="none" stroke="#191970" d="M374.5072,-86C388.7368,-86 404.1326,-86 418.7714,-86"/>
<polygon fill="#191970" stroke="#191970" points="374.3796,-82.5001 364.3795,-86 374.3795,-89.5001 374.3796,-82.5001"/>
</g>
<!-- Node1853 -->
<g id="node9" class="node">
<title>Node1853</title>
<g id="a_node9"><a xlink:href="quickjs_8c.html#a79872a6d9d139e36d5d1894d16132024" target="_top" xlink:title="js_regexp_Symbol_split">
<polygon fill="none" stroke="#000000" points="424.5,-38.5 424.5,-57.5 544.5,-57.5 544.5,-38.5 424.5,-38.5"/>
<text text-anchor="middle" x="484.5" y="-45.5" font-family="Helvetica,sans-Serif" font-size="10.00" fill="#000000">js_regexp_Symbol_split</text>
</a>
</g>
</g>
<!-- Node1847&#45;&gt;Node1853 -->
<g id="edge8" class="edge">
<title>Node1847&#45;&gt;Node1853</title>
<path fill="none" stroke="#191970" d="M369.809,-74.1757C393.2825,-68.8184 420.6654,-62.5689 442.7871,-57.5201"/>
<polygon fill="#191970" stroke="#191970" points="368.9855,-70.7736 360.015,-76.411 370.5431,-77.5981 368.9855,-70.7736"/>
</g>
<!-- Node1854&#45;&gt;Node1851 -->
<g id="edge10" class="edge">
<title>Node1854&#45;&gt;Node1851</title>
<path fill="none" stroke="#191970" d="M385.2975,-21.3204C395.8634,-20.1147 406.7854,-18.8683 417.3479,-17.663"/>
<polygon fill="#191970" stroke="#191970" points="384.8385,-17.85 375.2999,-22.4613 385.6322,-24.8048 384.8385,-17.85"/>
</g>
</g>
</svg>
        <g id="navigator" transform="translate(0 0)" fill="#404254">
                <rect fill="#f2f5e9" fill-opacity="0.5" stroke="#606060" stroke-width=".5" x="0" y="0" width="60" height="60"/>
                <use id="zoomplus" xlink:href="#zoomPlus" x="17" y="9" onmousedown="handleZoom(evt,'in')"/>
                <use id="zoomminus" xlink:href="#zoomMin" x="42" y="9" onmousedown="handleZoom(evt,'out')"/>
                <use id="reset" xlink:href="#resetDef" x="30" y="36" onmousedown="handleReset()"/>
                <g id="arrowUp" xlink:href="#dirArrow" transform="translate(30 24)" onmousedown="handlePan(0,-1)">
                  <use xlink:href="#rim" fill="#404040">
                        <set attributeName="fill" to="#808080" begin="arrowUp.mouseover" end="arrowUp.mouseout"/>
                  </use>
                  <path fill="none" stroke="white" stroke-width="1.5" d="M0,-3.0v7 M-2.5,-0.5L0,-3.0L2.5,-0.5"/>
                </g>
                <g id="arrowRight" xlink:href="#dirArrow" transform="rotate(90) translate(36 -43)" onmousedown="handlePan(1,0)">
                  <use xlink:href="#rim" fill="#404040">
                        <set attributeName="fill" to="#808080" begin="arrowRight.mouseover" end="arrowRight.mouseout"/>
                  </use>
                  <path fill="none" stroke="white" stroke-width="1.5" d="M0,-3.0v7 M-2.5,-0.5L0,-3.0L2.5,-0.5"/>
                </g>
                <g id="arrowDown" xlink:href="#dirArrow" transform="rotate(180) translate(-30 -48)" onmousedown="handlePan(0,1)">
                  <use xlink:href="#rim" fill="#404040">
                        <set attributeName="fill" to="#808080" begin="arrowDown.mouseover" end="arrowDown.mouseout"/>
                  </use>
                  <path fill="none" stroke="white" stroke-width="1.5" d="M0,-3.0v7 M-2.5,-0.5L0,-3.0L2.5,-0.5"/>
                </g>
                <g id="arrowLeft" xlink:href="#dirArrow" transform="rotate(270) translate(-36 17)" onmousedown="handlePan(-1,0)">
                  <use xlink:href="#rim" fill="#404040">
                        <set attributeName="fill" to="#808080" begin="arrowLeft.mouseover" end="arrowLeft.mouseout"/>
                  </use>
                  <path fill="none" stroke="white" stroke-width="1.5" d="M0,-3.0v7 M-2.5,-0.5L0,-3.0L2.5,-0.5"/>
                </g>
        </g>
        <svg viewBox="0 0 15 15" width="100%" height="30px" preserveAspectRatio="xMaxYMin meet">
         <g id="arrow_out" transform="scale(0.3 0.3)">
          <a xlink:href="libregexp_8c_a1f0e5c1ad159240b0751415adb4faf47_icgraph_org.svg" target="_base">
           <rect id="button" ry="5" rx="5" y="6" x="6" height="38" width="38"
                fill="#f2f5e9" fill-opacity="0.5" stroke="#606060" stroke-width="1.0"/>
           <path id="arrow"
             d="M 11.500037,31.436501 C 11.940474,20.09759 22.043105,11.32322 32.158766,21.979434 L 37.068811,17.246167 C 37.068811,17.246167 37.088388,32 37.088388,32 L 22.160133,31.978069 C 22.160133,31.978069 26.997745,27.140456 26.997745,27.140456 C 18.528582,18.264221 13.291696,25.230495 11.500037,31.436501 z"
             style="fill:#404040;"/>
          </a>
         </g>
        </svg>
</svg>
