<?xml version="1.0" encoding="UTF-8" standalone="no"?>
<!DOCTYPE svg PUBLIC "-//W3C//DTD SVG 1.1//EN"
 "http://www.w3.org/Graphics/SVG/1.1/DTD/svg11.dtd">
<!-- Generated by graphviz version 2.40.1 (20161225.0304)
 -->
<!-- Title: lre_get_groupnames Pages: 1 -->
<svg width="220pt" height="66pt"
 viewBox="0.00 0.00 220.00 66.00" xmlns="http://www.w3.org/2000/svg" xmlns:xlink="http://www.w3.org/1999/xlink">
<g id="graph0" class="graph" transform="scale(1 1) rotate(0) translate(4 62)">
<title>lre_get_groupnames</title>
<!-- Node1842 -->
<g id="node1" class="node">
<title>Node1842</title>
<polygon fill="#bfbfbf" stroke="#000000" points="0,-19.5 0,-38.5 104,-38.5 104,-19.5 0,-19.5"/>
<text text-anchor="middle" x="52" y="-26.5" font-family="Helvetica,sans-Serif" font-size="10.00" fill="#000000">lre_get_groupnames</text>
</g>
<!-- Node1843 -->
<g id="node2" class="node">
<title>Node1843</title>
<g id="a_node2"><a xlink:href="cutils_8h.html#a941262a5f72fda2ec43ae7911e97a0dc" target="_top" xlink:title="get_u32">
<polygon fill="none" stroke="#000000" points="150.5,-38.5 150.5,-57.5 201.5,-57.5 201.5,-38.5 150.5,-38.5"/>
<text text-anchor="middle" x="176" y="-45.5" font-family="Helvetica,sans-Serif" font-size="10.00" fill="#000000">get_u32</text>
</a>
</g>
</g>
<!-- Node1842&#45;&gt;Node1843 -->
<g id="edge1" class="edge">
<title>Node1842&#45;&gt;Node1843</title>
<path fill="none" stroke="#191970" d="M104.2278,-37.0026C116.2657,-38.8472 128.8079,-40.769 139.977,-42.4803"/>
<polygon fill="#191970" stroke="#191970" points="139.7888,-45.9923 150.2036,-44.0473 140.8491,-39.073 139.7888,-45.9923"/>
</g>
<!-- Node1844 -->
<g id="node3" class="node">
<title>Node1844</title>
<g id="a_node3"><a xlink:href="libregexp_8h.html#a3bf39330d9dde9c1c41f1a73504a7386" target="_top" xlink:title="lre_get_flags">
<polygon fill="none" stroke="#000000" points="140,-.5 140,-19.5 212,-19.5 212,-.5 140,-.5"/>
<text text-anchor="middle" x="176" y="-7.5" font-family="Helvetica,sans-Serif" font-size="10.00" fill="#000000">lre_get_flags</text>
</a>
</g>
</g>
<!-- Node1842&#45;&gt;Node1844 -->
<g id="edge2" class="edge">
<title>Node1842&#45;&gt;Node1844</title>
<path fill="none" stroke="#191970" d="M104.2278,-20.9974C112.6978,-19.6995 121.4174,-18.3635 129.7327,-17.0893"/>
<polygon fill="#191970" stroke="#191970" points="130.2766,-20.5469 139.6311,-15.5726 129.2164,-13.6277 130.2766,-20.5469"/>
</g>
</g>
</svg>
