<?xml version="1.0" encoding="UTF-8" standalone="no"?>
<!DOCTYPE svg PUBLIC "-//W3C//DTD SVG 1.1//EN"
 "http://www.w3.org/Graphics/SVG/1.1/DTD/svg11.dtd">
<!-- Generated by graphviz version 2.40.1 (20161225.0304)
 -->
<!-- Title: main Pages: 1 -->
<!--zoomable 702 -->
<svg id="main" version="1.1" xmlns="http://www.w3.org/2000/svg" xmlns:xlink="http://www.w3.org/1999/xlink" xml:space="preserve" onload="init(evt)">
<style type="text/css"><![CDATA[
.edge:hover path { stroke: red; }
.edge:hover polygon { stroke: red; fill: red; }
]]></style>
<script type="text/javascript"><![CDATA[
var edges = document.getElementsByTagName('g');
if (edges && edges.length) {
  for (var i=0;i<edges.length;i++) {
    if (edges[i].id.substr(0,4)=='edge') {
      edges[i].setAttribute('class','edge');
    }
  }
}
]]></script>
        <defs>
                <circle id="rim" cx="0" cy="0" r="7"/>
                <circle id="rim2" cx="0" cy="0" r="3.5"/>
                <g id="zoomPlus">
                        <use xlink:href="#rim" fill="#404040">
                                <set attributeName="fill" to="#808080" begin="zoomplus.mouseover" end="zoomplus.mouseout"/>
                        </use>
                        <path d="M-4,0h8M0,-4v8" fill="none" stroke="white" stroke-width="1.5" pointer-events="none"/>
                </g>
                <g id="zoomMin">
                        <use xlink:href="#rim" fill="#404040">
                                <set attributeName="fill" to="#808080" begin="zoomminus.mouseover" end="zoomminus.mouseout"/>
                        </use>
                        <path d="M-4,0h8" fill="none" stroke="white" stroke-width="1.5" pointer-events="none"/>
                </g>
                <g id="dirArrow">
                        <path fill="none" stroke="white" stroke-width="1.5" d="M0,-3.0v7 M-2.5,-0.5L0,-3.0L2.5,-0.5"/>
                </g>
               <g id="resetDef">
                       <use xlink:href="#rim2" fill="#404040">
                               <set attributeName="fill" to="#808080" begin="reset.mouseover" end="reset.mouseout"/>
                       </use>
               </g>
        </defs>

<script type="text/javascript">
var viewWidth = 647;
var viewHeight = 702;
var sectionId = 'dynsection-1';
</script>
<script xlink:href="svgpan.js"/>
<svg id="graph" class="graph">
<g id="viewport">
<title>main</title>
<!-- Node0 -->
<g id="node1" class="node">
<title>Node0</title>
<polygon fill="#bfbfbf" stroke="#000000" points="0,-247.5 0,-266.5 38,-266.5 38,-247.5 0,-247.5"/>
<text text-anchor="middle" x="19" y="-254.5" font-family="Helvetica,sans-Serif" font-size="10.00" fill="#000000">main</text>
</g>
<!-- Node1 -->
<g id="node2" class="node">
<title>Node1</title>
<g id="a_node2"><a xlink:href="classqjs_1_1Context.html#af725fb8083d8c33a37198d6acaf1a836" target="_top" xlink:title="qjs::Context::Context">
<polygon fill="none" stroke="#000000" points="85.5,-636.5 85.5,-655.5 195.5,-655.5 195.5,-636.5 85.5,-636.5"/>
<text text-anchor="middle" x="140.5" y="-643.5" font-family="Helvetica,sans-Serif" font-size="10.00" fill="#000000">qjs::Context::Context</text>
</a>
</g>
</g>
<!-- Node0&#45;&gt;Node1 -->
<g id="edge1" class="edge">
<title>Node0&#45;&gt;Node1</title>
<path fill="none" stroke="#191970" d="M19.7042,-266.592C23.3793,-314.8697 41.4448,-531.2297 74,-589 83.7059,-606.2234 100.7058,-620.6546 115.0873,-630.6871"/>
<polygon fill="#191970" stroke="#191970" points="113.3484,-633.7338 123.6148,-636.351 117.2213,-627.9027 113.3484,-633.7338"/>
</g>
<!-- Node807 -->
<g id="node4" class="node">
<title>Node807</title>
<g id="a_node4"><a xlink:href="classqjs_1_1Context.html#aeafa4cad50424999587a30d7d3994251" target="_top" xlink:title="qjs::Context::eval">
<polygon fill="none" stroke="#000000" points="259.5,-446.5 259.5,-465.5 353.5,-465.5 353.5,-446.5 259.5,-446.5"/>
<text text-anchor="middle" x="306.5" y="-453.5" font-family="Helvetica,sans-Serif" font-size="10.00" fill="#000000">qjs::Context::eval</text>
</a>
</g>
</g>
<!-- Node0&#45;&gt;Node807 -->
<g id="edge3" class="edge">
<title>Node0&#45;&gt;Node807</title>
<path fill="none" stroke="#191970" d="M19.755,-266.6457C22.3013,-292.3299 32.8875,-362.8803 74,-399 122.4427,-441.5598 197.5699,-453.4683 249.2411,-456.2462"/>
<polygon fill="#191970" stroke="#191970" points="249.1036,-459.7434 259.2478,-456.6864 249.4113,-452.7502 249.1036,-459.7434"/>
</g>
<!-- Node810 -->
<g id="node8" class="node">
<title>Node810</title>
<g id="a_node8"><a xlink:href="classqjs_1_1Context.html#a003bfbb1ead4106d2f1fad18cedbdad1" target="_top" xlink:title="qjs::Context::evalFile">
<polygon fill="none" stroke="#000000" points="85.5,-484.5 85.5,-503.5 195.5,-503.5 195.5,-484.5 85.5,-484.5"/>
<text text-anchor="middle" x="140.5" y="-491.5" font-family="Helvetica,sans-Serif" font-size="10.00" fill="#000000">qjs::Context::evalFile</text>
</a>
</g>
</g>
<!-- Node0&#45;&gt;Node810 -->
<g id="edge7" class="edge">
<title>Node0&#45;&gt;Node810</title>
<path fill="none" stroke="#191970" d="M19.3824,-266.5061C21.035,-296.5543 29.6768,-391.036 74,-451 82.8566,-462.982 96.1324,-472.5254 108.4985,-479.5475"/>
<polygon fill="#191970" stroke="#191970" points="107.2154,-482.8288 117.6894,-484.4246 110.4966,-476.6454 107.2154,-482.8288"/>
</g>
<!-- Node812 -->
<g id="node11" class="node">
<title>Node812</title>
<g id="a_node11"><a xlink:href="classqjs_1_1Context.html#a3d44c8a62385adeb9248cb38ae0168da" target="_top" xlink:title="returns current exception associated with context, and resets it. ">
<polygon fill="none" stroke="#000000" points="74,-370.5 74,-389.5 207,-389.5 207,-370.5 74,-370.5"/>
<text text-anchor="middle" x="140.5" y="-377.5" font-family="Helvetica,sans-Serif" font-size="10.00" fill="#000000">qjs::Context::getException</text>
</a>
</g>
</g>
<!-- Node0&#45;&gt;Node812 -->
<g id="edge12" class="edge">
<title>Node0&#45;&gt;Node812</title>
<path fill="none" stroke="#191970" d="M22.2341,-266.7167C28.9778,-285.6045 46.2595,-327.5584 74,-352 80.6924,-357.8965 88.8064,-362.679 97.0336,-366.5111"/>
<polygon fill="#191970" stroke="#191970" points="95.7278,-369.759 106.3006,-370.4425 98.4617,-363.3149 95.7278,-369.759"/>
</g>
<!-- Node813 -->
<g id="node13" class="node">
<title>Node813</title>
<g id="a_node13"><a xlink:href="classqjs_1_1Value.html#a57d738d3c1035c1cccbec16676fa59db" target="_top" xlink:title="qjs::Value::isError">
<polygon fill="none" stroke="#000000" points="93,-323.5 93,-342.5 188,-342.5 188,-323.5 93,-323.5"/>
<text text-anchor="middle" x="140.5" y="-330.5" font-family="Helvetica,sans-Serif" font-size="10.00" fill="#000000">qjs::Value::isError</text>
</a>
</g>
</g>
<!-- Node0&#45;&gt;Node813 -->
<g id="edge15" class="edge">
<title>Node0&#45;&gt;Node813</title>
<path fill="none" stroke="#191970" d="M32.3458,-266.6969C43.3526,-274.5779 59.4639,-285.8486 74,-295 86.9126,-303.1293 101.6105,-311.6058 113.8988,-318.4849"/>
<polygon fill="#191970" stroke="#191970" points="112.3146,-321.6085 122.7566,-323.4018 115.712,-315.4882 112.3146,-321.6085"/>
</g>
<!-- Node815 -->
<g id="node15" class="node">
<title>Node815</title>
<g id="a_node15"><a xlink:href="quickjs-libc_8c.html#adcca2b4a661355e6ff87a0def2339894" target="_top" xlink:title="js_init_module_os">
<polygon fill="none" stroke="#000000" points="93,-266.5 93,-285.5 188,-285.5 188,-266.5 93,-266.5"/>
<text text-anchor="middle" x="140.5" y="-273.5" font-family="Helvetica,sans-Serif" font-size="10.00" fill="#000000">js_init_module_os</text>
</a>
</g>
</g>
<!-- Node0&#45;&gt;Node815 -->
<g id="edge17" class="edge">
<title>Node0&#45;&gt;Node815</title>
<path fill="none" stroke="#191970" d="M38.252,-260.0106C50.3874,-261.9083 66.7547,-264.4678 82.8333,-266.9822"/>
<polygon fill="#191970" stroke="#191970" points="82.346,-270.4484 92.7668,-268.5355 83.4276,-263.5325 82.346,-270.4484"/>
</g>
<!-- Node872 -->
<g id="node22" class="node">
<title>Node872</title>
<g id="a_node22"><a xlink:href="quickjs-libc_8c.html#a0e65c67dfff872a664f8d29e7eae5a61" target="_top" xlink:title="js_init_module_std">
<polygon fill="none" stroke="#000000" points="91.5,-228.5 91.5,-247.5 189.5,-247.5 189.5,-228.5 91.5,-228.5"/>
<text text-anchor="middle" x="140.5" y="-235.5" font-family="Helvetica,sans-Serif" font-size="10.00" fill="#000000">js_init_module_std</text>
</a>
</g>
</g>
<!-- Node0&#45;&gt;Node872 -->
<g id="edge25" class="edge">
<title>Node0&#45;&gt;Node872</title>
<path fill="none" stroke="#191970" d="M38.252,-253.9894C49.9985,-252.1525 65.71,-249.6956 81.2866,-247.2597"/>
<polygon fill="#191970" stroke="#191970" points="82.1211,-250.6718 91.4602,-245.6688 81.0395,-243.7559 82.1211,-250.6718"/>
</g>
<!-- Node847 -->
<g id="node24" class="node">
<title>Node847</title>
<g id="a_node24"><a xlink:href="quickjs-libc_8c.html#ad61d60681847f324c5ba4ad88c546f1e" target="_top" xlink:title="js_module_loader">
<polygon fill="none" stroke="#ff0000" points="94.5,-560.5 94.5,-579.5 186.5,-579.5 186.5,-560.5 94.5,-560.5"/>
<text text-anchor="middle" x="140.5" y="-567.5" font-family="Helvetica,sans-Serif" font-size="10.00" fill="#000000">js_module_loader</text>
</a>
</g>
</g>
<!-- Node0&#45;&gt;Node847 -->
<g id="edge32" class="edge">
<title>Node0&#45;&gt;Node847</title>
<path fill="none" stroke="#191970" d="M20.2502,-266.7715C25.6829,-308.2427 48.1334,-469.5429 74,-513 84.1762,-530.0965 101.3221,-544.6069 115.6547,-554.7086"/>
<polygon fill="#191970" stroke="#191970" points="113.8777,-557.7315 124.1278,-560.4123 117.7867,-551.9246 113.8777,-557.7315"/>
</g>
<!-- Node846 -->
<g id="node25" class="node">
<title>Node846</title>
<g id="a_node25"><a xlink:href="quickjs_8c.html#ae7580084b7ee2e8ebe03e24b693750e3" target="_top" xlink:title="JS_SetModuleLoaderFunc">
<polygon fill="none" stroke="#000000" points="75,-114.5 75,-133.5 206,-133.5 206,-114.5 75,-114.5"/>
<text text-anchor="middle" x="140.5" y="-121.5" font-family="Helvetica,sans-Serif" font-size="10.00" fill="#000000">JS_SetModuleLoaderFunc</text>
</a>
</g>
</g>
<!-- Node0&#45;&gt;Node846 -->
<g id="edge37" class="edge">
<title>Node0&#45;&gt;Node846</title>
<path fill="none" stroke="#191970" d="M21.2698,-247.3548C26.7051,-226.3196 42.4257,-175.9688 74,-148 78.5321,-143.9854 83.7868,-140.6268 89.3172,-137.8205"/>
<polygon fill="#191970" stroke="#191970" points="91.0909,-140.8623 98.8059,-133.6008 88.2465,-134.4662 91.0909,-140.8623"/>
</g>
<!-- Node854 -->
<g id="node26" class="node">
<title>Node854</title>
<g id="a_node26"><a xlink:href="quickjs-libc_8c.html#ad04466feec6822a3b838baf229f6dfa0" target="_top" xlink:title="js_std_add_helpers">
<polygon fill="none" stroke="#ff0000" points="256,-28.5 256,-47.5 357,-47.5 357,-28.5 256,-28.5"/>
<text text-anchor="middle" x="306.5" y="-35.5" font-family="Helvetica,sans-Serif" font-size="10.00" fill="#000000">js_std_add_helpers</text>
</a>
</g>
</g>
<!-- Node0&#45;&gt;Node854 -->
<g id="edge38" class="edge">
<title>Node0&#45;&gt;Node854</title>
<path fill="none" stroke="#191970" d="M22.7991,-247.3071C30.0425,-230.141 47.5055,-194.4683 74,-176 123.9629,-141.1727 160.7648,-182.6427 207,-143 238.4563,-116.0289 212.1934,-84.7109 243,-57 244.7378,-55.4368 246.5996,-54.0021 248.5548,-52.6853"/>
<polygon fill="#191970" stroke="#191970" points="250.5947,-55.5556 257.6304,-47.6341 247.1905,-49.4391 250.5947,-55.5556"/>
</g>
<!-- Node864 -->
<g id="node27" class="node">
<title>Node864</title>
<g id="a_node27"><a xlink:href="quickjs-libc_8c.html#a090f31285f348ef3b91004b9a9a294d0" target="_top" xlink:title="js_std_free_handlers">
<polygon fill="none" stroke="#ff0000" points="87,-76.5 87,-95.5 194,-95.5 194,-76.5 87,-76.5"/>
<text text-anchor="middle" x="140.5" y="-83.5" font-family="Helvetica,sans-Serif" font-size="10.00" fill="#000000">js_std_free_handlers</text>
</a>
</g>
</g>
<!-- Node0&#45;&gt;Node864 -->
<g id="edge40" class="edge">
<title>Node0&#45;&gt;Node864</title>
<path fill="none" stroke="#191970" d="M19.5751,-247.1734C21.6894,-220.2797 31.3281,-144.8292 74,-105 75.676,-103.4357 77.4719,-101.999 79.3605,-100.6796"/>
<polygon fill="#191970" stroke="#191970" points="81.2338,-103.6397 88.1506,-95.6142 77.7387,-97.5747 81.2338,-103.6397"/>
</g>
<!-- Node840 -->
<g id="node28" class="node">
<title>Node840</title>
<g id="a_node28"><a xlink:href="quickjs-libc_8c.html#ad1f0d0ceb132b9dbe7016053de6c154a" target="_top" xlink:title="js_std_init_handlers">
<polygon fill="none" stroke="#ff0000" points="89,-38.5 89,-57.5 192,-57.5 192,-38.5 89,-38.5"/>
<text text-anchor="middle" x="140.5" y="-45.5" font-family="Helvetica,sans-Serif" font-size="10.00" fill="#000000">js_std_init_handlers</text>
</a>
</g>
</g>
<!-- Node0&#45;&gt;Node840 -->
<g id="edge41" class="edge">
<title>Node0&#45;&gt;Node840</title>
<path fill="none" stroke="#191970" d="M20.5232,-247.4301C26.245,-212.6241 47.4864,-93.4217 74,-67 75.8605,-65.146 77.8886,-63.4701 80.042,-61.9554"/>
<polygon fill="#191970" stroke="#191970" points="81.9536,-64.8936 88.8802,-56.8766 78.4659,-58.8244 81.9536,-64.8936"/>
</g>
<!-- Node862 -->
<g id="node29" class="node">
<title>Node862</title>
<g id="a_node29"><a xlink:href="quickjs-libc_8c.html#af7480dad10e937004e36b2b409b084a4" target="_top" xlink:title="js_std_loop">
<polygon fill="none" stroke="#ff0000" points="273.5,-66.5 273.5,-85.5 339.5,-85.5 339.5,-66.5 273.5,-66.5"/>
<text text-anchor="middle" x="306.5" y="-73.5" font-family="Helvetica,sans-Serif" font-size="10.00" fill="#000000">js_std_loop</text>
</a>
</g>
</g>
<!-- Node0&#45;&gt;Node862 -->
<g id="edge42" class="edge">
<title>Node0&#45;&gt;Node862</title>
<path fill="none" stroke="#191970" d="M30.6038,-247.4781C41.326,-239.0571 57.9739,-226.9132 74,-219 129.7033,-191.4955 160.8164,-217.5503 207,-176 236.2871,-149.6511 213.4253,-121.0257 243,-95 248.9526,-89.7618 256.3012,-85.9669 263.8632,-83.2179"/>
<polygon fill="#191970" stroke="#191970" points="264.9369,-86.5495 273.4667,-80.2652 262.8797,-79.8586 264.9369,-86.5495"/>
</g>
<!-- Node875 -->
<g id="node30" class="node">
<title>Node875</title>
<g id="a_node30"><a xlink:href="classqjs_1_1Value.html#af11fd023b991d7d6adc5c18142ded292" target="_top" xlink:title="Access JS properties. ">
<polygon fill="none" stroke="#000000" points="87,-.5 87,-19.5 194,-19.5 194,-.5 87,-.5"/>
<text text-anchor="middle" x="140.5" y="-7.5" font-family="Helvetica,sans-Serif" font-size="10.00" fill="#000000">qjs::Value::operator[]</text>
</a>
</g>
</g>
<!-- Node0&#45;&gt;Node875 -->
<g id="edge44" class="edge">
<title>Node0&#45;&gt;Node875</title>
<path fill="none" stroke="#191970" d="M20.0266,-247.4666C24.4112,-208.4594 42.7823,-61.5439 74,-29 75.2572,-27.6894 76.5979,-26.4674 78.008,-25.328"/>
<polygon fill="#191970" stroke="#191970" points="80.2557,-28.042 86.7425,-19.6651 76.4476,-22.1684 80.2557,-28.042"/>
</g>
<!-- Node2 -->
<g id="node3" class="node">
<title>Node2</title>
<g id="a_node3"><a xlink:href="classqjs_1_1Context.html#a4392a23648acfc4bf6b445336efb5007" target="_top" xlink:title="qjs::Context::Context">
<polygon fill="none" stroke="#ff0000" points="251.5,-674.5 251.5,-693.5 361.5,-693.5 361.5,-674.5 251.5,-674.5"/>
<text text-anchor="middle" x="306.5" y="-681.5" font-family="Helvetica,sans-Serif" font-size="10.00" fill="#000000">qjs::Context::Context</text>
</a>
</g>
</g>
<!-- Node1&#45;&gt;Node2 -->
<g id="edge2" class="edge">
<title>Node1&#45;&gt;Node2</title>
<path fill="none" stroke="#191970" d="M182.3888,-655.589C204.393,-660.6261 231.5545,-666.8438 254.8524,-672.1771"/>
<polygon fill="#191970" stroke="#191970" points="254.3835,-675.6602 264.9124,-674.4799 255.9456,-668.8367 254.3835,-675.6602"/>
</g>
<!-- Node808 -->
<g id="node5" class="node">
<title>Node808</title>
<g id="a_node5"><a xlink:href="quickjs_8c.html#a8f9200abd5af97fd0411fe053cb021e0" target="_top" xlink:title="JS_Eval">
<polygon fill="none" stroke="#ff0000" points="435,-503.5 435,-522.5 488,-522.5 488,-503.5 435,-503.5"/>
<text text-anchor="middle" x="461.5" y="-510.5" font-family="Helvetica,sans-Serif" font-size="10.00" fill="#000000">JS_Eval</text>
</a>
</g>
</g>
<!-- Node807&#45;&gt;Node808 -->
<g id="edge4" class="edge">
<title>Node807&#45;&gt;Node808</title>
<path fill="none" stroke="#191970" d="M332.4435,-465.5405C358.0379,-474.9527 397.3621,-489.4138 425.8769,-499.8999"/>
<polygon fill="#191970" stroke="#191970" points="424.8783,-503.2618 435.4718,-503.4284 427.2944,-496.6919 424.8783,-503.2618"/>
</g>
<!-- Node809 -->
<g id="node6" class="node">
<title>Node809</title>
<g id="a_node6"><a xlink:href="classqjs_1_1Value.html#a8e2a5be6c89f30cee044b884e30bf819" target="_top" xlink:title="Use context.newValue(val) instead. ">
<polygon fill="none" stroke="#000000" points="416,-446.5 416,-465.5 507,-465.5 507,-446.5 416,-446.5"/>
<text text-anchor="middle" x="461.5" y="-453.5" font-family="Helvetica,sans-Serif" font-size="10.00" fill="#000000">qjs::Value::Value</text>
</a>
</g>
</g>
<!-- Node807&#45;&gt;Node809 -->
<g id="edge5" class="edge">
<title>Node807&#45;&gt;Node809</title>
<path fill="none" stroke="#191970" d="M353.8473,-456C370.141,-456 388.5412,-456 405.4602,-456"/>
<polygon fill="#191970" stroke="#191970" points="405.7712,-459.5001 415.7711,-456 405.7711,-452.5001 405.7712,-459.5001"/>
</g>
<!-- Node90 -->
<g id="node7" class="node">
<title>Node90</title>
<g id="a_node7"><a xlink:href="quickjs_8h.html#ad80a83d73e9b7d872b88fbf2943aebe9" target="_top" xlink:title="JS_IsException">
<polygon fill="none" stroke="#000000" points="553,-541.5 553,-560.5 639,-560.5 639,-541.5 553,-541.5"/>
<text text-anchor="middle" x="596" y="-548.5" font-family="Helvetica,sans-Serif" font-size="10.00" fill="#000000">JS_IsException</text>
</a>
</g>
</g>
<!-- Node809&#45;&gt;Node90 -->
<g id="edge6" class="edge">
<title>Node809&#45;&gt;Node90</title>
<path fill="none" stroke="#191970" d="M475.7094,-465.5879C486.9618,-473.2144 503.0521,-484.1954 517,-494 536.7296,-507.8687 558.9904,-523.9721 574.8414,-535.5179"/>
<polygon fill="#191970" stroke="#191970" points="572.7899,-538.3537 582.9313,-541.4202 576.9157,-532.6987 572.7899,-538.3537"/>
</g>
<!-- Node810&#45;&gt;Node807 -->
<g id="edge11" class="edge">
<title>Node810&#45;&gt;Node807</title>
<path fill="none" stroke="#191970" d="M182.3888,-484.411C204.393,-479.3739 231.5545,-473.1562 254.8524,-467.8229"/>
<polygon fill="#191970" stroke="#191970" points="255.9456,-471.1633 264.9124,-465.5201 254.3835,-464.3398 255.9456,-471.1633"/>
</g>
<!-- Node66 -->
<g id="node9" class="node">
<title>Node66</title>
<g id="a_node9"><a xlink:href="quickjs_8c.html#a80e54dcf9ac687d4ccc2f90273565f30" target="_top" xlink:title="js_free">
<polygon fill="none" stroke="#ff0000" points="438.5,-560.5 438.5,-579.5 484.5,-579.5 484.5,-560.5 438.5,-560.5"/>
<text text-anchor="middle" x="461.5" y="-567.5" font-family="Helvetica,sans-Serif" font-size="10.00" fill="#000000">js_free</text>
</a>
</g>
</g>
<!-- Node810&#45;&gt;Node66 -->
<g id="edge8" class="edge">
<title>Node810&#45;&gt;Node66</title>
<path fill="none" stroke="#191970" d="M180.8298,-503.5485C245.0049,-518.7426 369.1554,-548.1365 428.4351,-562.1716"/>
<polygon fill="#191970" stroke="#191970" points="427.8469,-565.629 438.3842,-564.5271 429.4596,-558.8173 427.8469,-565.629"/>
</g>
<!-- Node811 -->
<g id="node10" class="node">
<title>Node811</title>
<g id="a_node10"><a xlink:href="quickjs-libc_8c.html#a529207225a77f71253f17893e1e6dffb" target="_top" xlink:title="js_load_file">
<polygon fill="none" stroke="#000000" points="274,-560.5 274,-579.5 339,-579.5 339,-560.5 274,-560.5"/>
<text text-anchor="middle" x="306.5" y="-567.5" font-family="Helvetica,sans-Serif" font-size="10.00" fill="#000000">js_load_file</text>
</a>
</g>
</g>
<!-- Node810&#45;&gt;Node811 -->
<g id="edge9" class="edge">
<title>Node810&#45;&gt;Node811</title>
<path fill="none" stroke="#191970" d="M161.524,-503.6255C190.5861,-516.931 243.2006,-541.0196 276.4181,-556.2276"/>
<polygon fill="#191970" stroke="#191970" points="275.0973,-559.4722 285.6467,-560.4527 278.0113,-553.1075 275.0973,-559.4722"/>
</g>
<!-- Node811&#45;&gt;Node66 -->
<g id="edge10" class="edge">
<title>Node811&#45;&gt;Node66</title>
<path fill="none" stroke="#191970" d="M339.3715,-570C365.4582,-570 401.7785,-570 428.0222,-570"/>
<polygon fill="#191970" stroke="#191970" points="428.2426,-573.5001 438.2425,-570 428.2425,-566.5001 428.2426,-573.5001"/>
</g>
<!-- Node812&#45;&gt;Node809 -->
<g id="edge13" class="edge">
<title>Node812&#45;&gt;Node809</title>
<path fill="none" stroke="#191970" d="M207.1856,-377.3282C253.8928,-377.4116 317.1515,-381.4947 370,-399 397.0812,-407.9703 424.3525,-426.4667 441.9863,-439.9648"/>
<polygon fill="#191970" stroke="#191970" points="440.2545,-443.0558 450.2771,-446.4908 444.5842,-437.5554 440.2545,-443.0558"/>
</g>
<!-- Node266 -->
<g id="node12" class="node">
<title>Node266</title>
<g id="a_node12"><a xlink:href="quickjs_8c.html#a8551eaac7ef616910807cebdc515760d" target="_top" xlink:title="JS_GetException">
<polygon fill="none" stroke="#000000" points="260,-408.5 260,-427.5 353,-427.5 353,-408.5 260,-408.5"/>
<text text-anchor="middle" x="306.5" y="-415.5" font-family="Helvetica,sans-Serif" font-size="10.00" fill="#000000">JS_GetException</text>
</a>
</g>
</g>
<!-- Node812&#45;&gt;Node266 -->
<g id="edge14" class="edge">
<title>Node812&#45;&gt;Node266</title>
<path fill="none" stroke="#191970" d="M182.3888,-389.589C204.393,-394.6261 231.5545,-400.8438 254.8524,-406.1771"/>
<polygon fill="#191970" stroke="#191970" points="254.3835,-409.6602 264.9124,-408.4799 255.9456,-402.8367 254.3835,-409.6602"/>
</g>
<!-- Node814 -->
<g id="node14" class="node">
<title>Node814</title>
<g id="a_node14"><a xlink:href="quickjs_8c.html#afc9f16af1ddbee548aa05ae2d28dcd16" target="_top" xlink:title="JS_IsError">
<polygon fill="none" stroke="#000000" points="275,-332.5 275,-351.5 338,-351.5 338,-332.5 275,-332.5"/>
<text text-anchor="middle" x="306.5" y="-339.5" font-family="Helvetica,sans-Serif" font-size="10.00" fill="#000000">JS_IsError</text>
</a>
</g>
</g>
<!-- Node813&#45;&gt;Node814 -->
<g id="edge16" class="edge">
<title>Node813&#45;&gt;Node814</title>
<path fill="none" stroke="#191970" d="M188.0689,-335.579C212.2457,-336.8898 241.3602,-338.4683 264.6718,-339.7322"/>
<polygon fill="#191970" stroke="#191970" points="264.7608,-343.2421 274.9356,-340.2887 265.1398,-336.2523 264.7608,-343.2421"/>
</g>
<!-- Node816 -->
<g id="node16" class="node">
<title>Node816</title>
<g id="a_node16"><a xlink:href="quickjs_8c.html#ac29cc4ec49efa0f0308e494316ce5139" target="_top" xlink:title="JS_NewCModule">
<polygon fill="none" stroke="#ff0000" points="260,-142.5 260,-161.5 353,-161.5 353,-142.5 260,-142.5"/>
<text text-anchor="middle" x="306.5" y="-149.5" font-family="Helvetica,sans-Serif" font-size="10.00" fill="#000000">JS_NewCModule</text>
</a>
</g>
</g>
<!-- Node815&#45;&gt;Node816 -->
<g id="edge18" class="edge">
<title>Node815&#45;&gt;Node816</title>
<path fill="none" stroke="#191970" d="M188.2818,-268.0557C195.0997,-265.3701 201.614,-261.7846 207,-257 237.9783,-229.4812 212.1934,-198.7109 243,-171 245.3621,-168.8753 247.9532,-166.9879 250.6966,-165.3113"/>
<polygon fill="#191970" stroke="#191970" points="252.5541,-168.2934 259.8825,-160.6418 249.3821,-162.0533 252.5541,-168.2934"/>
</g>
<!-- Node817 -->
<g id="node17" class="node">
<title>Node817</title>
<g id="a_node17"><a xlink:href="quickjs-libc_8c.html#a066e7962ce24f22d5df20968a8baa346" target="_top" xlink:title="js_os_init">
<polygon fill="none" stroke="#ff0000" points="277.5,-180.5 277.5,-199.5 335.5,-199.5 335.5,-180.5 277.5,-180.5"/>
<text text-anchor="middle" x="306.5" y="-187.5" font-family="Helvetica,sans-Serif" font-size="10.00" fill="#000000">js_os_init</text>
</a>
</g>
</g>
<!-- Node815&#45;&gt;Node817 -->
<g id="edge19" class="edge">
<title>Node815&#45;&gt;Node817</title>
<path fill="none" stroke="#191970" d="M181.6787,-266.422C190.2306,-263.8311 199.0528,-260.6974 207,-257 236.8011,-243.135 267.6757,-220.8998 286.9729,-205.8852"/>
<polygon fill="#191970" stroke="#191970" points="289.3085,-208.5002 294.9791,-199.5506 284.9651,-203.0107 289.3085,-208.5002"/>
</g>
<!-- Node870 -->
<g id="node20" class="node">
<title>Node870</title>
<g id="a_node20"><a xlink:href="quickjs_8c.html#ac7a9b88dd7ca1a70cd0ecd9a28905e25" target="_top" xlink:title="JS_AddModuleExportList">
<polygon fill="none" stroke="#000000" points="243,-256.5 243,-275.5 370,-275.5 370,-256.5 243,-256.5"/>
<text text-anchor="middle" x="306.5" y="-263.5" font-family="Helvetica,sans-Serif" font-size="10.00" fill="#000000">JS_AddModuleExportList</text>
</a>
</g>
</g>
<!-- Node815&#45;&gt;Node870 -->
<g id="edge22" class="edge">
<title>Node815&#45;&gt;Node870</title>
<path fill="none" stroke="#191970" d="M188.0689,-273.1344C201.9249,-272.2997 217.4026,-271.3673 232.4803,-270.459"/>
<polygon fill="#191970" stroke="#191970" points="233.0586,-273.9306 242.83,-269.8355 232.6376,-266.9433 233.0586,-273.9306"/>
</g>
<!-- Node871 -->
<g id="node21" class="node">
<title>Node871</title>
<g id="a_node21"><a xlink:href="quickjs_8c.html#a369af749a1fb181216fe8a8b55f841b0" target="_top" xlink:title="JS_AddModuleExport">
<polygon fill="none" stroke="#ff0000" points="406,-256.5 406,-275.5 517,-275.5 517,-256.5 406,-256.5"/>
<text text-anchor="middle" x="461.5" y="-263.5" font-family="Helvetica,sans-Serif" font-size="10.00" fill="#000000">JS_AddModuleExport</text>
</a>
</g>
</g>
<!-- Node815&#45;&gt;Node871 -->
<g id="edge24" class="edge">
<title>Node815&#45;&gt;Node871</title>
<path fill="none" stroke="#191970" d="M188.0941,-281.7774C234.5958,-286.501 307.3283,-291.4382 370,-285 384.5456,-283.5057 400.1901,-280.7087 414.357,-277.7114"/>
<polygon fill="#191970" stroke="#191970" points="415.3593,-281.0748 424.3747,-275.5093 413.8564,-274.238 415.3593,-281.0748"/>
</g>
<!-- Node803 -->
<g id="node18" class="node">
<title>Node803</title>
<g id="a_node18"><a xlink:href="quickjs_8c.html#af1866c7f8a91153f11602a2b521d9399" target="_top" xlink:title="JS_GetRuntime">
<polygon fill="none" stroke="#000000" points="418.5,-123.5 418.5,-142.5 504.5,-142.5 504.5,-123.5 418.5,-123.5"/>
<text text-anchor="middle" x="461.5" y="-130.5" font-family="Helvetica,sans-Serif" font-size="10.00" fill="#000000">JS_GetRuntime</text>
</a>
</g>
</g>
<!-- Node817&#45;&gt;Node803 -->
<g id="edge20" class="edge">
<title>Node817&#45;&gt;Node803</title>
<path fill="none" stroke="#191970" d="M335.7871,-181.9209C346.6164,-178.7547 358.9431,-174.9384 370,-171 390.6445,-163.6466 413.4035,-154.2004 431.059,-146.5659"/>
<polygon fill="#191970" stroke="#191970" points="432.5306,-149.7425 440.2967,-142.5356 429.7314,-143.3265 432.5306,-149.7425"/>
</g>
<!-- Node184 -->
<g id="node19" class="node">
<title>Node184</title>
<g id="a_node19"><a xlink:href="quickjs_8c.html#afc0d8ea75588216ec132a6e1655524a7" target="_top" xlink:title="JS_NewObject">
<polygon fill="none" stroke="#ff0000" points="420,-85.5 420,-104.5 503,-104.5 503,-85.5 420,-85.5"/>
<text text-anchor="middle" x="461.5" y="-92.5" font-family="Helvetica,sans-Serif" font-size="10.00" fill="#000000">JS_NewObject</text>
</a>
</g>
</g>
<!-- Node817&#45;&gt;Node184 -->
<g id="edge21" class="edge">
<title>Node817&#45;&gt;Node184</title>
<path fill="none" stroke="#191970" d="M335.704,-185.824C347.2512,-183.0677 360.0997,-178.5123 370,-171 393.8692,-152.8881 382.4895,-132.575 406,-114 408.285,-112.1947 410.7519,-110.5556 413.3317,-109.0682"/>
<polygon fill="#191970" stroke="#191970" points="415.0189,-112.1386 422.4368,-104.574 411.9205,-105.8616 415.0189,-112.1386"/>
</g>
<!-- Node870&#45;&gt;Node871 -->
<g id="edge23" class="edge">
<title>Node870&#45;&gt;Node871</title>
<path fill="none" stroke="#191970" d="M370.4393,-266C378.7394,-266 387.2536,-266 395.5851,-266"/>
<polygon fill="#191970" stroke="#191970" points="395.6305,-269.5001 405.6304,-266 395.6304,-262.5001 395.6305,-269.5001"/>
</g>
<!-- Node872&#45;&gt;Node816 -->
<g id="edge26" class="edge">
<title>Node872&#45;&gt;Node816</title>
<path fill="none" stroke="#191970" d="M177.7365,-228.4302C187.7641,-224.8493 198.2479,-220.1179 207,-214 227.4285,-199.7202 222.1824,-184.7062 243,-171 246.1146,-168.9494 249.4582,-167.1134 252.9229,-165.4707"/>
<polygon fill="#191970" stroke="#191970" points="254.4207,-168.6383 262.303,-161.5588 251.7263,-162.1776 254.4207,-168.6383"/>
</g>
<!-- Node872&#45;&gt;Node870 -->
<g id="edge30" class="edge">
<title>Node872&#45;&gt;Node870</title>
<path fill="none" stroke="#191970" d="M189.856,-246.3251C205.5267,-248.9684 223.1233,-251.9365 239.8052,-254.7503"/>
<polygon fill="#191970" stroke="#191970" points="239.6055,-258.266 250.0484,-256.478 240.7699,-251.3635 239.6055,-258.266"/>
</g>
<!-- Node872&#45;&gt;Node871 -->
<g id="edge31" class="edge">
<title>Node872&#45;&gt;Node871</title>
<path fill="none" stroke="#191970" d="M189.935,-237.5826C236.5421,-237.7454 308.2581,-239.4319 370,-247 383.8593,-248.6988 398.7413,-251.4028 412.3919,-254.244"/>
<polygon fill="#191970" stroke="#191970" points="412.041,-257.7485 422.5534,-256.4291 413.5127,-250.9049 412.041,-257.7485"/>
</g>
<!-- Node873 -->
<g id="node23" class="node">
<title>Node873</title>
<g id="a_node23"><a xlink:href="quickjs-libc_8c.html#a08cea1a0226b7603e6969e2208d99d55" target="_top" xlink:title="js_std_init">
<polygon fill="none" stroke="#ff0000" points="276,-104.5 276,-123.5 337,-123.5 337,-104.5 276,-104.5"/>
<text text-anchor="middle" x="306.5" y="-111.5" font-family="Helvetica,sans-Serif" font-size="10.00" fill="#000000">js_std_init</text>
</a>
</g>
</g>
<!-- Node872&#45;&gt;Node873 -->
<g id="edge27" class="edge">
<title>Node872&#45;&gt;Node873</title>
<path fill="none" stroke="#191970" d="M183.1149,-228.3776C191.763,-224.9278 200.2611,-220.2712 207,-214 235.8396,-187.162 213.4253,-159.0257 243,-133 249.5195,-127.2629 257.7137,-123.2571 266.0286,-120.4605"/>
<polygon fill="#191970" stroke="#191970" points="267.087,-123.7985 275.7519,-117.7017 265.1762,-117.0643 267.087,-123.7985"/>
</g>
<!-- Node873&#45;&gt;Node803 -->
<g id="edge28" class="edge">
<title>Node873&#45;&gt;Node803</title>
<path fill="none" stroke="#191970" d="M337.123,-117.7538C357.426,-120.2425 384.6044,-123.5741 408.3761,-126.488"/>
<polygon fill="#191970" stroke="#191970" points="407.9739,-129.9648 418.3255,-127.7076 408.8256,-123.0169 407.9739,-129.9648"/>
</g>
<!-- Node873&#45;&gt;Node184 -->
<g id="edge29" class="edge">
<title>Node873&#45;&gt;Node184</title>
<path fill="none" stroke="#191970" d="M337.123,-110.2462C357.812,-107.7101 385.6403,-104.2989 409.7282,-101.3462"/>
<polygon fill="#191970" stroke="#191970" points="410.291,-104.8035 419.7908,-100.1127 409.4392,-97.8555 410.291,-104.8035"/>
</g>
<!-- Node847&#45;&gt;Node808 -->
<g id="edge34" class="edge">
<title>Node847&#45;&gt;Node808</title>
<path fill="none" stroke="#191970" d="M186.6573,-561.3315C204.2803,-558.0514 224.5634,-554.3118 243,-551 306.8936,-539.5226 381.3999,-526.6809 424.827,-519.2501"/>
<polygon fill="#191970" stroke="#191970" points="425.6445,-522.6612 434.9118,-517.5262 424.465,-515.7613 425.6445,-522.6612"/>
</g>
<!-- Node847&#45;&gt;Node90 -->
<g id="edge36" class="edge">
<title>Node847&#45;&gt;Node90</title>
<path fill="none" stroke="#191970" d="M161.955,-579.6501C182.33,-588.2497 214.0619,-600.1955 243,-605 363.338,-624.9792 399.711,-622.5213 517,-589 536.1471,-583.5277 556.359,-573.7225 571.5454,-565.4431"/>
<polygon fill="#191970" stroke="#191970" points="573.2855,-568.4801 580.2973,-560.5375 569.8628,-562.3739 573.2855,-568.4801"/>
</g>
<!-- Node847&#45;&gt;Node66 -->
<g id="edge35" class="edge">
<title>Node847&#45;&gt;Node66</title>
<path fill="none" stroke="#191970" d="M182.1493,-579.5112C200.6727,-583.2764 222.815,-587.145 243,-589 299.2076,-594.1655 313.8511,-594.7681 370,-589 389.5135,-586.9954 411.0047,-582.6462 428.2529,-578.6142"/>
<polygon fill="#191970" stroke="#191970" points="429.4884,-581.9166 438.3884,-576.1685 427.8464,-575.1119 429.4884,-581.9166"/>
</g>
<!-- Node847&#45;&gt;Node811 -->
<g id="edge33" class="edge">
<title>Node847&#45;&gt;Node811</title>
<path fill="none" stroke="#191970" d="M186.7403,-570C210.8912,-570 240.2457,-570 263.8479,-570"/>
<polygon fill="#191970" stroke="#191970" points="263.9127,-573.5001 273.9126,-570 263.9126,-566.5001 263.9127,-573.5001"/>
</g>
<!-- Node854&#45;&gt;Node184 -->
<g id="edge39" class="edge">
<title>Node854&#45;&gt;Node184</title>
<path fill="none" stroke="#191970" d="M340.6531,-47.5165C350.2144,-50.3704 360.5691,-53.6408 370,-57 390.6445,-64.3534 413.4035,-73.7996 431.059,-81.4341"/>
<polygon fill="#191970" stroke="#191970" points="429.7314,-84.6735 440.2967,-85.4644 432.5306,-78.2575 429.7314,-84.6735"/>
</g>
<!-- Node862&#45;&gt;Node803 -->
<g id="edge43" class="edge">
<title>Node862&#45;&gt;Node803</title>
<path fill="none" stroke="#191970" d="M339.5538,-84.5648C349.482,-87.49 360.3075,-91.0365 370,-95 386.7457,-101.8477 389.3914,-106.8262 406,-114 410.8428,-116.0918 415.9979,-118.1149 421.1407,-120.0115"/>
<polygon fill="#191970" stroke="#191970" points="420.3355,-123.4396 430.9302,-123.4877 422.6779,-116.8431 420.3355,-123.4396"/>
</g>
</g>
</svg>
        <g id="navigator" transform="translate(0 0)" fill="#404254">
                <rect fill="#f2f5e9" fill-opacity="0.5" stroke="#606060" stroke-width=".5" x="0" y="0" width="60" height="60"/>
                <use id="zoomplus" xlink:href="#zoomPlus" x="17" y="9" onmousedown="handleZoom(evt,'in')"/>
                <use id="zoomminus" xlink:href="#zoomMin" x="42" y="9" onmousedown="handleZoom(evt,'out')"/>
                <use id="reset" xlink:href="#resetDef" x="30" y="36" onmousedown="handleReset()"/>
                <g id="arrowUp" xlink:href="#dirArrow" transform="translate(30 24)" onmousedown="handlePan(0,-1)">
                  <use xlink:href="#rim" fill="#404040">
                        <set attributeName="fill" to="#808080" begin="arrowUp.mouseover" end="arrowUp.mouseout"/>
                  </use>
                  <path fill="none" stroke="white" stroke-width="1.5" d="M0,-3.0v7 M-2.5,-0.5L0,-3.0L2.5,-0.5"/>
                </g>
                <g id="arrowRight" xlink:href="#dirArrow" transform="rotate(90) translate(36 -43)" onmousedown="handlePan(1,0)">
                  <use xlink:href="#rim" fill="#404040">
                        <set attributeName="fill" to="#808080" begin="arrowRight.mouseover" end="arrowRight.mouseout"/>
                  </use>
                  <path fill="none" stroke="white" stroke-width="1.5" d="M0,-3.0v7 M-2.5,-0.5L0,-3.0L2.5,-0.5"/>
                </g>
                <g id="arrowDown" xlink:href="#dirArrow" transform="rotate(180) translate(-30 -48)" onmousedown="handlePan(0,1)">
                  <use xlink:href="#rim" fill="#404040">
                        <set attributeName="fill" to="#808080" begin="arrowDown.mouseover" end="arrowDown.mouseout"/>
                  </use>
                  <path fill="none" stroke="white" stroke-width="1.5" d="M0,-3.0v7 M-2.5,-0.5L0,-3.0L2.5,-0.5"/>
                </g>
                <g id="arrowLeft" xlink:href="#dirArrow" transform="rotate(270) translate(-36 17)" onmousedown="handlePan(-1,0)">
                  <use xlink:href="#rim" fill="#404040">
                        <set attributeName="fill" to="#808080" begin="arrowLeft.mouseover" end="arrowLeft.mouseout"/>
                  </use>
                  <path fill="none" stroke="white" stroke-width="1.5" d="M0,-3.0v7 M-2.5,-0.5L0,-3.0L2.5,-0.5"/>
                </g>
        </g>
        <svg viewBox="0 0 15 15" width="100%" height="30px" preserveAspectRatio="xMaxYMin meet">
         <g id="arrow_out" transform="scale(0.3 0.3)">
          <a xlink:href="qjs_8cpp_a3c04138a5bfe5d72780bb7e82a18e627_cgraph_org.svg" target="_base">
           <rect id="button" ry="5" rx="5" y="6" x="6" height="38" width="38"
                fill="#f2f5e9" fill-opacity="0.5" stroke="#606060" stroke-width="1.0"/>
           <path id="arrow"
             d="M 11.500037,31.436501 C 11.940474,20.09759 22.043105,11.32322 32.158766,21.979434 L 37.068811,17.246167 C 37.068811,17.246167 37.088388,32 37.088388,32 L 22.160133,31.978069 C 22.160133,31.978069 26.997745,27.140456 26.997745,27.140456 C 18.528582,18.264221 13.291696,25.230495 11.500037,31.436501 z"
             style="fill:#404040;"/>
          </a>
         </g>
        </svg>
</svg>
