<?xml version="1.0" encoding="UTF-8" standalone="no"?>
<!DOCTYPE svg PUBLIC "-//W3C//DTD SVG 1.1//EN"
 "http://www.w3.org/Graphics/SVG/1.1/DTD/svg11.dtd">
<!-- Generated by graphviz version 2.40.1 (20161225.0304)
 -->
<!-- Title: js_typed_array_create Pages: 1 -->
<svg width="706pt" height="487pt"
 viewBox="0.00 0.00 706.00 487.00" xmlns="http://www.w3.org/2000/svg" xmlns:xlink="http://www.w3.org/1999/xlink">
<g id="graph0" class="graph" transform="scale(1 1) rotate(0) translate(4 482.9955)">
<title>js_typed_array_create</title>
<!-- Node477152 -->
<g id="node1" class="node">
<title>Node477152</title>
<polygon fill="#bfbfbf" stroke="#000000" points="0,-183.5 0,-202.5 113,-202.5 113,-183.5 0,-183.5"/>
<text text-anchor="middle" x="56.5" y="-190.5" font-family="Helvetica,sans-Serif" font-size="10.00" fill="#000000">js_typed_array_create</text>
</g>
<!-- Node477153 -->
<g id="node2" class="node">
<title>Node477153</title>
<g id="a_node2"><a xlink:href="quickjs_8c.html#a28704096ee67c5b0ab1bd60ce050e36a" target="_top" xlink:title="JS_CallConstructor">
<polygon fill="none" stroke="#000000" points="149,-202.5 149,-221.5 251,-221.5 251,-202.5 149,-202.5"/>
<text text-anchor="middle" x="200" y="-209.5" font-family="Helvetica,sans-Serif" font-size="10.00" fill="#000000">JS_CallConstructor</text>
</a>
</g>
</g>
<!-- Node477152&#45;&gt;Node477153 -->
<g id="edge1" class="edge">
<title>Node477152&#45;&gt;Node477153</title>
<path fill="none" stroke="#191970" d="M113.215,-200.5093C121.5694,-201.6155 130.2085,-202.7593 138.6513,-203.8772"/>
<polygon fill="#191970" stroke="#191970" points="138.447,-207.3806 148.8199,-205.2235 139.3659,-200.4412 138.447,-207.3806"/>
</g>
<!-- Node477187 -->
<g id="node5" class="node">
<title>Node477187</title>
<g id="a_node5"><a xlink:href="quickjs_8h.html#a775522f2d084fc8fa0fcb33f390006b4" target="_top" xlink:title="JS_DupValue">
<polygon fill="none" stroke="#000000" points="614.5,-316.5 614.5,-335.5 691.5,-335.5 691.5,-316.5 614.5,-316.5"/>
<text text-anchor="middle" x="653" y="-323.5" font-family="Helvetica,sans-Serif" font-size="10.00" fill="#000000">JS_DupValue</text>
</a>
</g>
</g>
<!-- Node477152&#45;&gt;Node477187 -->
<g id="edge17" class="edge">
<title>Node477152&#45;&gt;Node477187</title>
<path fill="none" stroke="#191970" d="M113.3368,-184.8753C231.9227,-169.1954 500.6263,-140.6911 572,-193 614.8558,-224.4085 572.2288,-267.7121 608,-307 609.1775,-308.2933 610.4574,-309.5015 611.8155,-310.63"/>
<polygon fill="#191970" stroke="#191970" points="610.0157,-313.6364 620.2811,-316.2581 613.8912,-307.807 610.0157,-313.6364"/>
</g>
<!-- Node477208 -->
<g id="node6" class="node">
<title>Node477208</title>
<g id="a_node6"><a xlink:href="quickjs_8h.html#afaa20c47565bc704c6c85f3d77254e7d" target="_top" xlink:title="JS_FreeValue">
<polygon fill="none" stroke="#ff0000" points="614,-448.5 614,-467.5 692,-467.5 692,-448.5 614,-448.5"/>
<text text-anchor="middle" x="653" y="-455.5" font-family="Helvetica,sans-Serif" font-size="10.00" fill="#000000">JS_FreeValue</text>
</a>
</g>
</g>
<!-- Node477152&#45;&gt;Node477208 -->
<g id="edge18" class="edge">
<title>Node477152&#45;&gt;Node477208</title>
<path fill="none" stroke="#191970" d="M63.0557,-202.951C87.636,-239.4181 178.4866,-366.7972 287,-428 398.5769,-490.9307 444.305,-481.182 572,-471 582.2221,-470.1849 593.1015,-468.8 603.4599,-467.2303"/>
<polygon fill="#191970" stroke="#191970" points="604.2769,-470.6443 613.601,-465.6132 603.1746,-463.7316 604.2769,-470.6443"/>
</g>
<!-- Node477226 -->
<g id="node7" class="node">
<title>Node477226</title>
<g id="a_node7"><a xlink:href="quickjs_8h.html#ad80a83d73e9b7d872b88fbf2943aebe9" target="_top" xlink:title="JS_IsException">
<polygon fill="none" stroke="#000000" points="610,-278.5 610,-297.5 696,-297.5 696,-278.5 610,-278.5"/>
<text text-anchor="middle" x="653" y="-285.5" font-family="Helvetica,sans-Serif" font-size="10.00" fill="#000000">JS_IsException</text>
</a>
</g>
</g>
<!-- Node477152&#45;&gt;Node477226 -->
<g id="edge19" class="edge">
<title>Node477152&#45;&gt;Node477226</title>
<path fill="none" stroke="#191970" d="M79.199,-183.4705C154.8756,-153.2873 403.2944,-67.1117 572,-160 614.2655,-183.2711 637.5532,-238.9303 647.3564,-268.6016"/>
<polygon fill="#191970" stroke="#191970" points="644.0472,-269.7465 650.3682,-278.2491 650.7291,-267.6605 644.0472,-269.7465"/>
</g>
<!-- Node477584 -->
<g id="node10" class="node">
<title>Node477584</title>
<g id="a_node10"><a xlink:href="quickjs_8c.html#a07acd485a57197356906928a788a0644" target="_top" xlink:title="JS_ToLengthFree">
<polygon fill="none" stroke="#000000" points="153,-240.5 153,-259.5 247,-259.5 247,-240.5 153,-240.5"/>
<text text-anchor="middle" x="200" y="-247.5" font-family="Helvetica,sans-Serif" font-size="10.00" fill="#000000">JS_ToLengthFree</text>
</a>
</g>
</g>
<!-- Node477152&#45;&gt;Node477584 -->
<g id="edge20" class="edge">
<title>Node477152&#45;&gt;Node477584</title>
<path fill="none" stroke="#191970" d="M79.2234,-202.581C97.8963,-210.3948 125.074,-221.6316 149,-231 153.8789,-232.9104 159.0371,-234.8846 164.1247,-236.8054"/>
<polygon fill="#191970" stroke="#191970" points="163.137,-240.1729 173.7294,-240.4026 165.5922,-233.6175 163.137,-240.1729"/>
</g>
<!-- Node477587 -->
<g id="node13" class="node">
<title>Node477587</title>
<g id="a_node13"><a xlink:href="quickjs_8c.html#add71c7e0efcb1fd14572d39e2672971d" target="_top" xlink:title="js_typed_array_get\l_length_internal">
<polygon fill="none" stroke="#000000" points="150.5,-58 150.5,-88 249.5,-88 249.5,-58 150.5,-58"/>
<text text-anchor="start" x="158.5" y="-76" font-family="Helvetica,sans-Serif" font-size="10.00" fill="#000000">js_typed_array_get</text>
<text text-anchor="middle" x="200" y="-65" font-family="Helvetica,sans-Serif" font-size="10.00" fill="#000000">_length_internal</text>
</a>
</g>
</g>
<!-- Node477152&#45;&gt;Node477587 -->
<g id="edge26" class="edge">
<title>Node477152&#45;&gt;Node477587</title>
<path fill="none" stroke="#191970" d="M68.2432,-183.1799C91.2242,-163.9623 142.6278,-120.9767 174.0036,-94.7392"/>
<polygon fill="#191970" stroke="#191970" points="176.4746,-97.2353 181.9006,-88.1354 171.9841,-91.8655 176.4746,-97.2353"/>
</g>
<!-- Node477154 -->
<g id="node3" class="node">
<title>Node477154</title>
<g id="a_node3"><a xlink:href="quickjs_8c.html#ad35594576a14c10812efaf958c99af8a" target="_top" xlink:title="JS_CallConstructorInternal">
<polygon fill="none" stroke="#000000" points="293,-354.5 293,-373.5 427,-373.5 427,-354.5 293,-354.5"/>
<text text-anchor="middle" x="360" y="-361.5" font-family="Helvetica,sans-Serif" font-size="10.00" fill="#000000">JS_CallConstructorInternal</text>
</a>
</g>
</g>
<!-- Node477153&#45;&gt;Node477154 -->
<g id="edge2" class="edge">
<title>Node477153&#45;&gt;Node477154</title>
<path fill="none" stroke="#191970" d="M233.391,-221.5357C239.5455,-224.0822 245.6955,-227.2096 251,-231 262.8177,-239.4445 319.6583,-311.9099 346.2402,-346.1797"/>
<polygon fill="#191970" stroke="#191970" points="343.6986,-348.6142 352.5879,-354.379 349.2338,-344.329 343.6986,-348.6142"/>
</g>
<!-- Node477155 -->
<g id="node4" class="node">
<title>Node477155</title>
<g id="a_node4"><a xlink:href="quickjs_8c.html#ac2894ff4edcdb4e6841bcce9c76081e3" target="_top" xlink:title="JS_CallInternal">
<polygon fill="none" stroke="#ff0000" points="479,-354.5 479,-373.5 562,-373.5 562,-354.5 479,-354.5"/>
<text text-anchor="middle" x="520.5" y="-361.5" font-family="Helvetica,sans-Serif" font-size="10.00" fill="#000000">JS_CallInternal</text>
</a>
</g>
</g>
<!-- Node477154&#45;&gt;Node477155 -->
<g id="edge3" class="edge">
<title>Node477154&#45;&gt;Node477155</title>
<path fill="none" stroke="#191970" d="M427.1365,-357.3307C440.9638,-357.1591 455.325,-357.2611 468.5177,-357.6369"/>
<polygon fill="#191970" stroke="#191970" points="468.6986,-361.1452 478.8149,-357.9969 468.9433,-354.1495 468.6986,-361.1452"/>
</g>
<!-- Node477154&#45;&gt;Node477208 -->
<g id="edge14" class="edge">
<title>Node477154&#45;&gt;Node477208</title>
<path fill="none" stroke="#191970" d="M376.0705,-373.5385C396.8638,-385.5054 434.5201,-405.9188 469,-418 513.4154,-433.5624 566.066,-444.2715 603.643,-450.6642"/>
<polygon fill="#191970" stroke="#191970" points="603.3845,-454.1691 613.8226,-452.3533 604.5304,-447.2635 603.3845,-454.1691"/>
</g>
<!-- Node477154&#45;&gt;Node477226 -->
<g id="edge15" class="edge">
<title>Node477154&#45;&gt;Node477226</title>
<path fill="none" stroke="#191970" d="M374.0535,-354.401C394.1225,-341.2332 432.6013,-317.9555 469,-307 511.7254,-294.1402 562.2718,-289.6426 599.5651,-288.2183"/>
<polygon fill="#191970" stroke="#191970" points="599.8318,-291.7117 609.7147,-287.8937 599.6079,-284.7153 599.8318,-291.7117"/>
</g>
<!-- Node477570 -->
<g id="node8" class="node">
<title>Node477570</title>
<g id="a_node8"><a xlink:href="quickjs_8c.html#a246e337d6566552736209730827c0871" target="_top" xlink:title="js_poll_interrupts">
<polygon fill="none" stroke="#ff0000" points="608,-354.5 608,-373.5 698,-373.5 698,-354.5 608,-354.5"/>
<text text-anchor="middle" x="653" y="-361.5" font-family="Helvetica,sans-Serif" font-size="10.00" fill="#000000">js_poll_interrupts</text>
</a>
</g>
</g>
<!-- Node477154&#45;&gt;Node477570 -->
<g id="edge16" class="edge">
<title>Node477154&#45;&gt;Node477570</title>
<path fill="none" stroke="#191970" d="M381.1792,-373.5097C402.7612,-382.6405 437.4524,-395.7915 469,-401 514.1664,-408.4569 527.2688,-410.7327 572,-401 591.8913,-396.672 612.7491,-387.0078 628.3171,-378.6417"/>
<polygon fill="#191970" stroke="#191970" points="630.2342,-381.5804 637.2707,-373.6597 626.8306,-375.4635 630.2342,-381.5804"/>
</g>
<!-- Node477522 -->
<g id="node9" class="node">
<title>Node477522</title>
<g id="a_node9"><a xlink:href="quickjs_8c.html#a93dbf502b17d1328c524401335f60499" target="_top" xlink:title="js_create_from_ctor">
<polygon fill="none" stroke="#ff0000" points="469,-316.5 469,-335.5 572,-335.5 572,-316.5 469,-316.5"/>
<text text-anchor="middle" x="520.5" y="-323.5" font-family="Helvetica,sans-Serif" font-size="10.00" fill="#000000">js_create_from_ctor</text>
</a>
</g>
</g>
<!-- Node477154&#45;&gt;Node477522 -->
<g id="edge10" class="edge">
<title>Node477154&#45;&gt;Node477522</title>
<path fill="none" stroke="#191970" d="M400.5009,-354.411C421.6806,-349.3965 447.8022,-343.2119 470.2604,-337.8947"/>
<polygon fill="#191970" stroke="#191970" points="471.3657,-341.2299 480.2903,-335.5201 469.7529,-334.4182 471.3657,-341.2299"/>
</g>
<!-- Node477155&#45;&gt;Node477154 -->
<g id="edge4" class="edge">
<title>Node477155&#45;&gt;Node477154</title>
<path fill="none" stroke="#191970" d="M478.8149,-370.0031C466.1222,-370.5355 451.7409,-370.7833 437.4766,-370.7464"/>
<polygon fill="#191970" stroke="#191970" points="437.1624,-367.2441 427.1365,-370.6693 437.1101,-374.2439 437.1624,-367.2441"/>
</g>
<!-- Node477155&#45;&gt;Node477155 -->
<g id="edge5" class="edge">
<title>Node477155&#45;&gt;Node477155</title>
<path fill="none" stroke="#191970" d="M500.155,-373.7571C490.2574,-382.5653 497.0391,-392 520.5,-392 535.5297,-392 543.7142,-388.128 545.0535,-383.0292"/>
<polygon fill="#191970" stroke="#191970" points="548.1652,-381.4164 540.845,-373.7571 541.791,-384.3096 548.1652,-381.4164"/>
</g>
<!-- Node477155&#45;&gt;Node477187 -->
<g id="edge6" class="edge">
<title>Node477155&#45;&gt;Node477187</title>
<path fill="none" stroke="#191970" d="M553.9353,-354.411C570.8829,-349.5506 591.6634,-343.5909 609.8075,-338.3873"/>
<polygon fill="#191970" stroke="#191970" points="610.9278,-341.7072 619.5754,-335.5859 608.9979,-334.9784 610.9278,-341.7072"/>
</g>
<!-- Node477155&#45;&gt;Node477208 -->
<g id="edge7" class="edge">
<title>Node477155&#45;&gt;Node477208</title>
<path fill="none" stroke="#191970" d="M534.1808,-373.7056C557.2107,-390.0438 603.8946,-423.163 631.3918,-442.6704"/>
<polygon fill="#191970" stroke="#191970" points="629.4098,-445.5556 639.591,-448.4872 633.4601,-439.8464 629.4098,-445.5556"/>
</g>
<!-- Node477155&#45;&gt;Node477226 -->
<g id="edge8" class="edge">
<title>Node477155&#45;&gt;Node477226</title>
<path fill="none" stroke="#191970" d="M553.4631,-354.4092C559.8742,-351.8448 566.3511,-348.7247 572,-345 591.4224,-332.1936 588.8777,-320.2504 608,-307 610.566,-305.2219 613.3245,-303.5624 616.1672,-302.024"/>
<polygon fill="#191970" stroke="#191970" points="617.9431,-305.0521 625.4004,-297.5262 614.8775,-298.759 617.9431,-305.0521"/>
</g>
<!-- Node477155&#45;&gt;Node477570 -->
<g id="edge9" class="edge">
<title>Node477155&#45;&gt;Node477570</title>
<path fill="none" stroke="#191970" d="M562.0603,-364C573.3306,-364 585.7133,-364 597.6151,-364"/>
<polygon fill="#191970" stroke="#191970" points="597.9104,-367.5001 607.9104,-364 597.9104,-360.5001 597.9104,-367.5001"/>
</g>
<!-- Node477522&#45;&gt;Node477187 -->
<g id="edge11" class="edge">
<title>Node477522&#45;&gt;Node477187</title>
<path fill="none" stroke="#191970" d="M572.1074,-326C582.6799,-326 593.7762,-326 604.2447,-326"/>
<polygon fill="#191970" stroke="#191970" points="604.4614,-329.5001 614.4613,-326 604.4613,-322.5001 604.4614,-329.5001"/>
</g>
<!-- Node477522&#45;&gt;Node477208 -->
<g id="edge12" class="edge">
<title>Node477522&#45;&gt;Node477208</title>
<path fill="none" stroke="#191970" d="M555.2285,-335.5626C561.1509,-338.0782 566.9972,-341.1877 572,-345 589.7662,-358.5384 624.1804,-411.5634 641.8849,-439.9043"/>
<polygon fill="#191970" stroke="#191970" points="638.9559,-441.8222 647.2003,-448.4765 644.905,-438.1333 638.9559,-441.8222"/>
</g>
<!-- Node477522&#45;&gt;Node477226 -->
<g id="edge13" class="edge">
<title>Node477522&#45;&gt;Node477226</title>
<path fill="none" stroke="#191970" d="M553.9353,-316.411C570.8829,-311.5506 591.6634,-305.5909 609.8075,-300.3873"/>
<polygon fill="#191970" stroke="#191970" points="610.9278,-303.7072 619.5754,-297.5859 608.9979,-296.9784 610.9278,-303.7072"/>
</g>
<!-- Node477584&#45;&gt;Node477208 -->
<g id="edge21" class="edge">
<title>Node477584&#45;&gt;Node477208</title>
<path fill="none" stroke="#191970" d="M203.6622,-259.6037C213.4063,-283.8974 242.3132,-348.3238 287,-383 380.8455,-455.8226 527.7265,-462.8363 603.7358,-460.9295"/>
<polygon fill="#191970" stroke="#191970" points="604.0928,-464.42 613.9777,-460.6071 603.8726,-457.4235 604.0928,-464.42"/>
</g>
<!-- Node477585 -->
<g id="node11" class="node">
<title>Node477585</title>
<g id="a_node11"><a xlink:href="quickjs_8c.html#a537e88d38784e3df2a19c72f8bd1d77e" target="_top" xlink:title="JS_ToInt64Clamp">
<polygon fill="none" stroke="#000000" points="312.5,-240.5 312.5,-259.5 407.5,-259.5 407.5,-240.5 312.5,-240.5"/>
<text text-anchor="middle" x="360" y="-247.5" font-family="Helvetica,sans-Serif" font-size="10.00" fill="#000000">JS_ToInt64Clamp</text>
</a>
</g>
</g>
<!-- Node477584&#45;&gt;Node477585 -->
<g id="edge22" class="edge">
<title>Node477584&#45;&gt;Node477585</title>
<path fill="none" stroke="#191970" d="M247.1399,-250C264.4038,-250 284.1388,-250 302.2271,-250"/>
<polygon fill="#191970" stroke="#191970" points="302.3671,-253.5001 312.3671,-250 302.367,-246.5001 302.3671,-253.5001"/>
</g>
<!-- Node477585&#45;&gt;Node477187 -->
<g id="edge23" class="edge">
<title>Node477585&#45;&gt;Node477187</title>
<path fill="none" stroke="#191970" d="M396.812,-259.5485C449.8795,-273.3134 547.8769,-298.7326 606.0742,-313.8281"/>
<polygon fill="#191970" stroke="#191970" points="605.5497,-317.3078 616.1082,-316.4308 607.3073,-310.5321 605.5497,-317.3078"/>
</g>
<!-- Node477586 -->
<g id="node12" class="node">
<title>Node477586</title>
<g id="a_node12"><a xlink:href="quickjs_8c.html#a8c94da482e7e46bf333be67ff97e58c1" target="_top" xlink:title="JS_ToInt64SatFree">
<polygon fill="none" stroke="#ff0000" points="470,-202.5 470,-221.5 571,-221.5 571,-202.5 470,-202.5"/>
<text text-anchor="middle" x="520.5" y="-209.5" font-family="Helvetica,sans-Serif" font-size="10.00" fill="#000000">JS_ToInt64SatFree</text>
</a>
</g>
</g>
<!-- Node477585&#45;&gt;Node477586 -->
<g id="edge24" class="edge">
<title>Node477585&#45;&gt;Node477586</title>
<path fill="none" stroke="#191970" d="M400.5009,-240.411C421.6806,-235.3965 447.8022,-229.2119 470.2604,-223.8947"/>
<polygon fill="#191970" stroke="#191970" points="471.3657,-227.2299 480.2903,-221.5201 469.7529,-220.4182 471.3657,-227.2299"/>
</g>
<!-- Node477586&#45;&gt;Node477226 -->
<g id="edge25" class="edge">
<title>Node477586&#45;&gt;Node477226</title>
<path fill="none" stroke="#191970" d="M542.6251,-221.5215C551.8475,-225.6923 562.5819,-230.8131 572,-236 592.4347,-247.254 614.6697,-261.6973 630.6648,-272.505"/>
<polygon fill="#191970" stroke="#191970" points="629.0675,-275.6521 639.3007,-278.3966 633.0125,-269.8696 629.0675,-275.6521"/>
</g>
<!-- Node477588 -->
<g id="node14" class="node">
<title>Node477588</title>
<g id="a_node14"><a xlink:href="quickjs_8c.html#af894945c3459f86096c1821a0a696934" target="_top" xlink:title="get_typed_array">
<polygon fill="none" stroke="#000000" points="317,-88.5 317,-107.5 403,-107.5 403,-88.5 317,-88.5"/>
<text text-anchor="middle" x="360" y="-95.5" font-family="Helvetica,sans-Serif" font-size="10.00" fill="#000000">get_typed_array</text>
</a>
</g>
</g>
<!-- Node477587&#45;&gt;Node477588 -->
<g id="edge27" class="edge">
<title>Node477587&#45;&gt;Node477588</title>
<path fill="none" stroke="#191970" d="M249.7479,-80.7731C267.8599,-83.6031 288.398,-86.8122 306.7978,-89.6871"/>
<polygon fill="#191970" stroke="#191970" points="306.3504,-93.1596 316.7709,-91.2455 307.4311,-86.2436 306.3504,-93.1596"/>
</g>
<!-- Node477309 -->
<g id="node15" class="node">
<title>Node477309</title>
<g id="a_node15"><a xlink:href="quickjs_8c.html#a033dd3ebd29c4eb9f0baff1dd0fec0b1" target="_top" xlink:title="JS_ThrowTypeErrorDetached\lArrayBuffer">
<polygon fill="none" stroke="#000000" points="287,-39 287,-69 433,-69 433,-39 287,-39"/>
<text text-anchor="start" x="295" y="-57" font-family="Helvetica,sans-Serif" font-size="10.00" fill="#000000">JS_ThrowTypeErrorDetached</text>
<text text-anchor="middle" x="360" y="-46" font-family="Helvetica,sans-Serif" font-size="10.00" fill="#000000">ArrayBuffer</text>
</a>
</g>
</g>
<!-- Node477587&#45;&gt;Node477309 -->
<g id="edge28" class="edge">
<title>Node477587&#45;&gt;Node477309</title>
<path fill="none" stroke="#191970" d="M249.7479,-67.0924C258.371,-66.0684 267.5441,-64.9791 276.7745,-63.883"/>
<polygon fill="#191970" stroke="#191970" points="277.2721,-67.3486 286.7896,-62.6937 276.4466,-60.3975 277.2721,-67.3486"/>
</g>
<!-- Node477310 -->
<g id="node16" class="node">
<title>Node477310</title>
<g id="a_node16"><a xlink:href="quickjs_8c.html#a869fa88a646c0a1914ec2e559b193b5c" target="_top" xlink:title="typed_array_is_detached">
<polygon fill="none" stroke="#000000" points="297.5,-.5 297.5,-19.5 422.5,-19.5 422.5,-.5 297.5,-.5"/>
<text text-anchor="middle" x="360" y="-7.5" font-family="Helvetica,sans-Serif" font-size="10.00" fill="#000000">typed_array_is_detached</text>
</a>
</g>
</g>
<!-- Node477587&#45;&gt;Node477310 -->
<g id="edge29" class="edge">
<title>Node477587&#45;&gt;Node477310</title>
<path fill="none" stroke="#191970" d="M226.3693,-57.8014C243.283,-48.5256 265.9429,-36.9603 287,-29 293.4196,-26.5731 300.2701,-24.3437 307.106,-22.3325"/>
<polygon fill="#191970" stroke="#191970" points="308.3739,-25.6121 317.0592,-19.5444 306.4857,-18.8716 308.3739,-25.6121"/>
</g>
</g>
</svg>
