<?xml version="1.0" encoding="UTF-8" standalone="no"?>
<!DOCTYPE svg PUBLIC "-//W3C//DTD SVG 1.1//EN"
 "http://www.w3.org/Graphics/SVG/1.1/DTD/svg11.dtd">
<!-- Generated by graphviz version 2.40.1 (20161225.0304)
 -->
<!-- Title: js_get_length64 Pages: 1 -->
<svg width="628pt" height="970pt"
 viewBox="0.00 0.00 628.00 969.50" xmlns="http://www.w3.org/2000/svg" xmlns:xlink="http://www.w3.org/1999/xlink">
<g id="graph0" class="graph" transform="scale(1 1) rotate(0) translate(4 965.5)">
<title>js_get_length64</title>
<!-- Node43349 -->
<g id="node1" class="node">
<title>Node43349</title>
<polygon fill="#bfbfbf" stroke="#000000" points="0,-486 0,-505 85,-505 85,-486 0,-486"/>
<text text-anchor="middle" x="42.5" y="-493" font-family="Helvetica,sans-Serif" font-size="10.00" fill="#000000">js_get_length64</text>
</g>
<!-- Node43350 -->
<g id="node2" class="node">
<title>Node43350</title>
<g id="a_node2"><a xlink:href="quickjs_8c.html#aaa85fa359f7aa8985f0299147272adef" target="_top" xlink:title="js_array_concat">
<polygon fill="none" stroke="#000000" points="154,-942 154,-961 240,-961 240,-942 154,-942"/>
<text text-anchor="middle" x="197" y="-949" font-family="Helvetica,sans-Serif" font-size="10.00" fill="#000000">js_array_concat</text>
</a>
</g>
</g>
<!-- Node43349&#45;&gt;Node43350 -->
<g id="edge1" class="edge">
<title>Node43349&#45;&gt;Node43350</title>
<path fill="none" stroke="#191970" d="M43.2983,-515.6148C46.7811,-593.0505 63.1667,-870.6411 121,-932.5 129.5453,-941.6401 141.764,-946.6646 153.9124,-949.3511"/>
<polygon fill="#191970" stroke="#191970" points="46.7826,-515.17 42.8601,-505.328 39.789,-515.468 46.7826,-515.17"/>
</g>
<!-- Node43351 -->
<g id="node3" class="node">
<title>Node43351</title>
<g id="a_node3"><a xlink:href="quickjs_8c.html#a93380da0068e066053740a43c8d8f15a" target="_top" xlink:title="js_array_copyWithin">
<polygon fill="none" stroke="#000000" points="144.5,-904 144.5,-923 249.5,-923 249.5,-904 144.5,-904"/>
<text text-anchor="middle" x="197" y="-911" font-family="Helvetica,sans-Serif" font-size="10.00" fill="#000000">js_array_copyWithin</text>
</a>
</g>
</g>
<!-- Node43349&#45;&gt;Node43351 -->
<g id="edge2" class="edge">
<title>Node43349&#45;&gt;Node43351</title>
<path fill="none" stroke="#191970" d="M43.6505,-515.2568C48.2781,-587.8678 67.9056,-838.6421 121,-894.5 127.278,-901.1047 135.4755,-905.5537 144.1579,-908.523"/>
<polygon fill="#191970" stroke="#191970" points="47.1388,-514.9572 43.0338,-505.19 40.1519,-515.3853 47.1388,-514.9572"/>
</g>
<!-- Node43352 -->
<g id="node4" class="node">
<title>Node43352</title>
<g id="a_node4"><a xlink:href="quickjs_8c.html#aa0bbf08a7e91459c68a312fba7016c6d" target="_top" xlink:title="js_array_every">
<polygon fill="none" stroke="#000000" points="157,-866 157,-885 237,-885 237,-866 157,-866"/>
<text text-anchor="middle" x="197" y="-873" font-family="Helvetica,sans-Serif" font-size="10.00" fill="#000000">js_array_every</text>
</a>
</g>
</g>
<!-- Node43349&#45;&gt;Node43352 -->
<g id="edge3" class="edge">
<title>Node43349&#45;&gt;Node43352</title>
<path fill="none" stroke="#191970" d="M44.1186,-515.5401C50.0454,-583.9501 72.7799,-806.7684 121,-856.5 130.3728,-866.1666 143.8622,-871.1982 156.8826,-873.734"/>
<polygon fill="#191970" stroke="#191970" points="47.5817,-514.953 43.2571,-505.281 40.6063,-515.5389 47.5817,-514.953"/>
</g>
<!-- Node43353 -->
<g id="node5" class="node">
<title>Node43353</title>
<g id="a_node5"><a xlink:href="quickjs_8c.html#ae2647134d809434118ae04182c0169cb" target="_top" xlink:title="js_array_fill">
<polygon fill="none" stroke="#000000" points="164,-828 164,-847 230,-847 230,-828 164,-828"/>
<text text-anchor="middle" x="197" y="-835" font-family="Helvetica,sans-Serif" font-size="10.00" fill="#000000">js_array_fill</text>
</a>
</g>
</g>
<!-- Node43349&#45;&gt;Node43353 -->
<g id="edge4" class="edge">
<title>Node43349&#45;&gt;Node43353</title>
<path fill="none" stroke="#191970" d="M44.662,-515.4594C51.9372,-578.968 77.5421,-774.7558 121,-818.5 132.1191,-829.6923 148.766,-834.6427 163.6481,-836.7099"/>
<polygon fill="#191970" stroke="#191970" points="48.1053,-514.7565 43.5167,-505.2069 41.1486,-515.5336 48.1053,-514.7565"/>
</g>
<!-- Node43354 -->
<g id="node6" class="node">
<title>Node43354</title>
<g id="a_node6"><a xlink:href="quickjs_8c.html#a9dd41b086da4e13b3487cc9c6e2af2b8" target="_top" xlink:title="js_array_find">
<polygon fill="none" stroke="#000000" points="161,-790 161,-809 233,-809 233,-790 161,-790"/>
<text text-anchor="middle" x="197" y="-797" font-family="Helvetica,sans-Serif" font-size="10.00" fill="#000000">js_array_find</text>
</a>
</g>
</g>
<!-- Node43349&#45;&gt;Node43354 -->
<g id="edge5" class="edge">
<title>Node43349&#45;&gt;Node43354</title>
<path fill="none" stroke="#191970" d="M45.4982,-514.9167C54.6661,-571.9295 83.9667,-737.2416 121,-775.5 131.4897,-786.3367 146.8248,-792.2962 160.9774,-795.5672"/>
<polygon fill="#191970" stroke="#191970" points="48.9537,-514.3596 43.9368,-505.0279 42.0394,-515.4514 48.9537,-514.3596"/>
</g>
<!-- Node43355 -->
<g id="node7" class="node">
<title>Node43355</title>
<g id="a_node7"><a xlink:href="quickjs_8c.html#a12e173fe76ae1141ef47318f9d0cbea7" target="_top" xlink:title="js_array_flatten">
<polygon fill="none" stroke="#000000" points="334.5,-306 334.5,-325 417.5,-325 417.5,-306 334.5,-306"/>
<text text-anchor="middle" x="376" y="-313" font-family="Helvetica,sans-Serif" font-size="10.00" fill="#000000">js_array_flatten</text>
</a>
</g>
</g>
<!-- Node43349&#45;&gt;Node43355 -->
<g id="edge6" class="edge">
<title>Node43349&#45;&gt;Node43355</title>
<path fill="none" stroke="#191970" d="M60.4112,-479.3818C75.5499,-466.5605 98.3344,-449.074 121,-438.5 184.1053,-409.06 210.8361,-431.8789 273,-400.5 312.7389,-380.4407 350.807,-342.6579 367.3573,-325.0201"/>
<polygon fill="#191970" stroke="#191970" points="58.098,-476.7551 52.8368,-485.9513 62.6845,-482.0432 58.098,-476.7551"/>
</g>
<!-- Node43356 -->
<g id="node8" class="node">
<title>Node43356</title>
<g id="a_node8"><a xlink:href="quickjs_8c.html#a5e32da9a43002cb96dcbd62a1a340144" target="_top" xlink:title="js_array_from">
<polygon fill="none" stroke="#000000" points="159,-714 159,-733 235,-733 235,-714 159,-714"/>
<text text-anchor="middle" x="197" y="-721" font-family="Helvetica,sans-Serif" font-size="10.00" fill="#000000">js_array_from</text>
</a>
</g>
</g>
<!-- Node43349&#45;&gt;Node43356 -->
<g id="edge7" class="edge">
<title>Node43349&#45;&gt;Node43356</title>
<path fill="none" stroke="#191970" d="M43.9778,-515.3115C48.176,-556.8817 63.8849,-653.5674 121,-704.5 131.3537,-713.733 145.522,-718.6247 158.8214,-721.1689"/>
<polygon fill="#191970" stroke="#191970" points="47.4448,-514.7832 43.0741,-505.1319 40.4722,-515.4023 47.4448,-514.7832"/>
</g>
<!-- Node43357 -->
<g id="node9" class="node">
<title>Node43357</title>
<g id="a_node9"><a xlink:href="quickjs_8c.html#a2ef89587b2e4287d4bd0417788c8e21e" target="_top" xlink:title="js_array_includes">
<polygon fill="none" stroke="#000000" points="151,-676 151,-695 243,-695 243,-676 151,-676"/>
<text text-anchor="middle" x="197" y="-683" font-family="Helvetica,sans-Serif" font-size="10.00" fill="#000000">js_array_includes</text>
</a>
</g>
</g>
<!-- Node43349&#45;&gt;Node43357 -->
<g id="edge8" class="edge">
<title>Node43349&#45;&gt;Node43357</title>
<path fill="none" stroke="#191970" d="M45.8944,-515.6096C53.0487,-551.5568 73.1398,-626.7812 121,-666.5 129.4774,-673.5353 140.1987,-678.0207 150.8954,-680.8656"/>
<polygon fill="#191970" stroke="#191970" points="49.2688,-514.6094 44.0073,-505.4134 42.3857,-515.8833 49.2688,-514.6094"/>
</g>
<!-- Node43358 -->
<g id="node10" class="node">
<title>Node43358</title>
<g id="a_node10"><a xlink:href="quickjs_8c.html#a60d84dd116a9d7d912d08f298a4734dd" target="_top" xlink:title="js_json_to_str">
<polygon fill="none" stroke="#000000" points="337.5,-629 337.5,-648 414.5,-648 414.5,-629 337.5,-629"/>
<text text-anchor="middle" x="376" y="-636" font-family="Helvetica,sans-Serif" font-size="10.00" fill="#000000">js_json_to_str</text>
</a>
</g>
</g>
<!-- Node43349&#45;&gt;Node43358 -->
<g id="edge27" class="edge">
<title>Node43349&#45;&gt;Node43358</title>
<path fill="none" stroke="#191970" d="M52.5269,-514.2138C65.3462,-536.2002 89.6816,-572.0179 121,-590.5 157.0807,-611.7925 275.3443,-627.4832 337.3221,-634.4721"/>
<polygon fill="#191970" stroke="#191970" points="55.4117,-512.2027 47.4635,-505.1971 49.3082,-515.6301 55.4117,-512.2027"/>
</g>
<!-- Node43359 -->
<g id="node11" class="node">
<title>Node43359</title>
<g id="a_node11"><a xlink:href="quickjs_8c.html#a343a343b16bc3c9875050e99ee0d2884" target="_top" xlink:title="JS_JSONStringify">
<polygon fill="none" stroke="#ff0000" points="501,-685 501,-704 598,-704 598,-685 501,-685"/>
<text text-anchor="middle" x="549.5" y="-692" font-family="Helvetica,sans-Serif" font-size="10.00" fill="#000000">JS_JSONStringify</text>
</a>
</g>
</g>
<!-- Node43349&#45;&gt;Node43359 -->
<g id="edge28" class="edge">
<title>Node43349&#45;&gt;Node43359</title>
<path fill="none" stroke="#191970" d="M45.7354,-515.2326C54.9623,-568.8127 83.1958,-714.8472 121,-742.5 183.6093,-788.2971 425.686,-728.4829 515.6127,-704.0413"/>
<polygon fill="#191970" stroke="#191970" points="49.1711,-514.5579 44.0584,-505.2784 42.2684,-515.7209 49.1711,-514.5579"/>
</g>
<!-- Node43361 -->
<g id="node12" class="node">
<title>Node43361</title>
<g id="a_node12"><a xlink:href="quickjs_8c.html#af4bd013e63a5d5d55e4d4700d80de12e" target="_top" xlink:title="js_array_indexOf">
<polygon fill="none" stroke="#000000" points="152,-562 152,-581 242,-581 242,-562 152,-562"/>
<text text-anchor="middle" x="197" y="-569" font-family="Helvetica,sans-Serif" font-size="10.00" fill="#000000">js_array_indexOf</text>
</a>
</g>
</g>
<!-- Node43349&#45;&gt;Node43361 -->
<g id="edge13" class="edge">
<title>Node43349&#45;&gt;Node43361</title>
<path fill="none" stroke="#191970" d="M60.4112,-511.6182C75.5499,-524.4395 98.3344,-541.926 121,-552.5 130.6137,-556.985 141.4245,-560.5008 151.8104,-563.2217"/>
<polygon fill="#191970" stroke="#191970" points="62.6845,-508.9568 52.8368,-505.0487 58.098,-514.2449 62.6845,-508.9568"/>
</g>
<!-- Node43362 -->
<g id="node13" class="node">
<title>Node43362</title>
<g id="a_node13"><a xlink:href="quickjs_8c.html#a4f8035820871c730dd7e98d46e137bc1" target="_top" xlink:title="js_array_join">
<polygon fill="none" stroke="#000000" points="161.5,-524 161.5,-543 232.5,-543 232.5,-524 161.5,-524"/>
<text text-anchor="middle" x="197" y="-531" font-family="Helvetica,sans-Serif" font-size="10.00" fill="#000000">js_array_join</text>
</a>
</g>
</g>
<!-- Node43349&#45;&gt;Node43362 -->
<g id="edge14" class="edge">
<title>Node43349&#45;&gt;Node43362</title>
<path fill="none" stroke="#191970" d="M91.3073,-507.5044C114.0646,-513.1016 140.6496,-519.6403 161.4637,-524.7597"/>
<polygon fill="#191970" stroke="#191970" points="92.0334,-504.0787 81.4869,-505.089 90.3615,-510.8762 92.0334,-504.0787"/>
</g>
<!-- Node43363 -->
<g id="node14" class="node">
<title>Node43363</title>
<g id="a_node14"><a xlink:href="quickjs_8c.html#acb566d2d7d0ce8fed7bb7f73d3baa508" target="_top" xlink:title="js_array_lastIndexOf">
<polygon fill="none" stroke="#000000" points="143.5,-486 143.5,-505 250.5,-505 250.5,-486 143.5,-486"/>
<text text-anchor="middle" x="197" y="-493" font-family="Helvetica,sans-Serif" font-size="10.00" fill="#000000">js_array_lastIndexOf</text>
</a>
</g>
</g>
<!-- Node43349&#45;&gt;Node43363 -->
<g id="edge15" class="edge">
<title>Node43349&#45;&gt;Node43363</title>
<path fill="none" stroke="#191970" d="M95.1296,-495.5C110.7258,-495.5 127.8172,-495.5 143.4698,-495.5"/>
<polygon fill="#191970" stroke="#191970" points="95.1268,-492.0001 85.1268,-495.5 95.1268,-499.0001 95.1268,-492.0001"/>
</g>
<!-- Node43364 -->
<g id="node15" class="node">
<title>Node43364</title>
<g id="a_node15"><a xlink:href="quickjs_8c.html#a01281ea66186a034a0e9021ee8c9f945" target="_top" xlink:title="js_array_pop">
<polygon fill="none" stroke="#000000" points="161,-448 161,-467 233,-467 233,-448 161,-448"/>
<text text-anchor="middle" x="197" y="-455" font-family="Helvetica,sans-Serif" font-size="10.00" fill="#000000">js_array_pop</text>
</a>
</g>
</g>
<!-- Node43349&#45;&gt;Node43364 -->
<g id="edge16" class="edge">
<title>Node43349&#45;&gt;Node43364</title>
<path fill="none" stroke="#191970" d="M91.2339,-483.5137C113.8174,-477.9591 140.1834,-471.4743 160.9412,-466.3688"/>
<polygon fill="#191970" stroke="#191970" points="90.3615,-480.1238 81.4869,-485.911 92.0334,-486.9213 90.3615,-480.1238"/>
</g>
<!-- Node43365 -->
<g id="node16" class="node">
<title>Node43365</title>
<g id="a_node16"><a xlink:href="quickjs_8c.html#a3d640b89712ebda808c0c3eca9849674" target="_top" xlink:title="js_array_push">
<polygon fill="none" stroke="#000000" points="158.5,-638 158.5,-657 235.5,-657 235.5,-638 158.5,-638"/>
<text text-anchor="middle" x="197" y="-645" font-family="Helvetica,sans-Serif" font-size="10.00" fill="#000000">js_array_push</text>
</a>
</g>
</g>
<!-- Node43349&#45;&gt;Node43365 -->
<g id="edge18" class="edge">
<title>Node43349&#45;&gt;Node43365</title>
<path fill="none" stroke="#191970" d="M49.2113,-514.592C60.0021,-542.5543 83.8425,-594.4665 121,-623.5 131.794,-631.9341 145.6055,-637.4341 158.4863,-641.0082"/>
<polygon fill="#191970" stroke="#191970" points="52.4682,-513.3082 45.714,-505.1454 45.9036,-515.7385 52.4682,-513.3082"/>
</g>
<!-- Node43366 -->
<g id="node17" class="node">
<title>Node43366</title>
<g id="a_node17"><a xlink:href="quickjs_8c.html#a36c1692489542a86dd79a7d39ab8ff95" target="_top" xlink:title="js_array_reduce">
<polygon fill="none" stroke="#000000" points="154,-372 154,-391 240,-391 240,-372 154,-372"/>
<text text-anchor="middle" x="197" y="-379" font-family="Helvetica,sans-Serif" font-size="10.00" fill="#000000">js_array_reduce</text>
</a>
</g>
</g>
<!-- Node43349&#45;&gt;Node43366 -->
<g id="edge20" class="edge">
<title>Node43349&#45;&gt;Node43366</title>
<path fill="none" stroke="#191970" d="M53.9576,-477.1659C67.5663,-456.8371 92.0992,-424.4229 121,-405.5 130.8397,-399.0574 142.5238,-394.2473 153.7428,-390.6957"/>
<polygon fill="#191970" stroke="#191970" points="50.8526,-475.5209 48.34,-485.8135 56.7227,-479.3342 50.8526,-475.5209"/>
</g>
<!-- Node43367 -->
<g id="node18" class="node">
<title>Node43367</title>
<g id="a_node18"><a xlink:href="quickjs_8c.html#a8235fb13f196d6ef5002daed858b7eeb" target="_top" xlink:title="js_array_reverse">
<polygon fill="none" stroke="#000000" points="152.5,-334 152.5,-353 241.5,-353 241.5,-334 152.5,-334"/>
<text text-anchor="middle" x="197" y="-341" font-family="Helvetica,sans-Serif" font-size="10.00" fill="#000000">js_array_reverse</text>
</a>
</g>
</g>
<!-- Node43349&#45;&gt;Node43367 -->
<g id="edge21" class="edge">
<title>Node43349&#45;&gt;Node43367</title>
<path fill="none" stroke="#191970" d="M48.4874,-476.1817C58.5698,-446.9484 81.7724,-391.7852 121,-362.5 130.0457,-355.747 141.2148,-351.3756 152.1795,-348.5514"/>
<polygon fill="#191970" stroke="#191970" points="45.1621,-475.0897 45.361,-485.6826 51.8114,-477.2777 45.1621,-475.0897"/>
</g>
<!-- Node43368 -->
<g id="node19" class="node">
<title>Node43368</title>
<g id="a_node19"><a xlink:href="quickjs_8c.html#a70b7ec8358ab99b905686d5bf80950cc" target="_top" xlink:title="js_array_slice">
<polygon fill="none" stroke="#000000" points="158.5,-296 158.5,-315 235.5,-315 235.5,-296 158.5,-296"/>
<text text-anchor="middle" x="197" y="-303" font-family="Helvetica,sans-Serif" font-size="10.00" fill="#000000">js_array_slice</text>
</a>
</g>
</g>
<!-- Node43349&#45;&gt;Node43368 -->
<g id="edge22" class="edge">
<title>Node43349&#45;&gt;Node43368</title>
<path fill="none" stroke="#191970" d="M45.8944,-475.3904C53.0487,-439.4432 73.1398,-364.2188 121,-324.5 131.4659,-315.8144 145.352,-311.0153 158.3893,-308.3916"/>
<polygon fill="#191970" stroke="#191970" points="42.3857,-475.1167 44.0073,-485.5866 49.2688,-476.3906 42.3857,-475.1167"/>
</g>
<!-- Node43369 -->
<g id="node20" class="node">
<title>Node43369</title>
<g id="a_node20"><a xlink:href="quickjs_8c.html#a874518d6b2fb6ff79531c4a9652202f3" target="_top" xlink:title="js_array_sort">
<polygon fill="none" stroke="#000000" points="160.5,-258 160.5,-277 233.5,-277 233.5,-258 160.5,-258"/>
<text text-anchor="middle" x="197" y="-265" font-family="Helvetica,sans-Serif" font-size="10.00" fill="#000000">js_array_sort</text>
</a>
</g>
</g>
<!-- Node43349&#45;&gt;Node43369 -->
<g id="edge23" class="edge">
<title>Node43349&#45;&gt;Node43369</title>
<path fill="none" stroke="#191970" d="M43.9778,-475.6885C48.176,-434.1183 63.8849,-337.4326 121,-286.5 131.7598,-276.905 146.6391,-271.9983 160.3818,-269.5425"/>
<polygon fill="#191970" stroke="#191970" points="40.4722,-475.5977 43.0741,-485.8681 47.4448,-476.2168 40.4722,-475.5977"/>
</g>
<!-- Node43370 -->
<g id="node21" class="node">
<title>Node43370</title>
<g id="a_node21"><a xlink:href="quickjs_8c.html#ad90c33b4aae1181151bda4a98ac2ef23" target="_top" xlink:title="JS_FlattenIntoArray">
<polygon fill="none" stroke="#000000" points="145,-202 145,-221 249,-221 249,-202 145,-202"/>
<text text-anchor="middle" x="197" y="-209" font-family="Helvetica,sans-Serif" font-size="10.00" fill="#000000">JS_FlattenIntoArray</text>
</a>
</g>
</g>
<!-- Node43349&#45;&gt;Node43370 -->
<g id="edge24" class="edge">
<title>Node43349&#45;&gt;Node43370</title>
<path fill="none" stroke="#191970" d="M43.6257,-475.6499C47.2003,-430.1348 61.8701,-316.9155 121,-248.5 132.1313,-235.6207 148.7794,-226.8163 163.6591,-221.0384"/>
<polygon fill="#191970" stroke="#191970" points="40.1294,-475.4779 42.9357,-485.6943 47.1129,-475.9577 40.1294,-475.4779"/>
</g>
<!-- Node43371 -->
<g id="node22" class="node">
<title>Node43371</title>
<g id="a_node22"><a xlink:href="quickjs_8c.html#a79872a6d9d139e36d5d1894d16132024" target="_top" xlink:title="js_regexp_Symbol_split">
<polygon fill="none" stroke="#000000" points="137,-164 137,-183 257,-183 257,-164 137,-164"/>
<text text-anchor="middle" x="197" y="-171" font-family="Helvetica,sans-Serif" font-size="10.00" fill="#000000">js_regexp_Symbol_split</text>
</a>
</g>
</g>
<!-- Node43349&#45;&gt;Node43371 -->
<g id="edge29" class="edge">
<title>Node43349&#45;&gt;Node43371</title>
<path fill="none" stroke="#191970" d="M44.9988,-475.591C53.0243,-414.7771 80.0354,-233.1169 121,-192.5 125.5392,-187.9993 130.9734,-184.5108 136.8209,-181.8145"/>
<polygon fill="#191970" stroke="#191970" points="41.4935,-475.4075 43.685,-485.7732 48.436,-476.3034 41.4935,-475.4075"/>
</g>
<!-- Node43372 -->
<g id="node23" class="node">
<title>Node43372</title>
<g id="a_node23"><a xlink:href="quickjs_8c.html#a80bed67de3ceaf66888093b5fc84972a" target="_top" xlink:title="js_string_raw">
<polygon fill="none" stroke="#000000" points="160,-126 160,-145 234,-145 234,-126 160,-126"/>
<text text-anchor="middle" x="197" y="-133" font-family="Helvetica,sans-Serif" font-size="10.00" fill="#000000">js_string_raw</text>
</a>
</g>
</g>
<!-- Node43349&#45;&gt;Node43372 -->
<g id="edge30" class="edge">
<title>Node43349&#45;&gt;Node43372</title>
<path fill="none" stroke="#191970" d="M44.3677,-475.7269C50.9592,-410.1163 75.2375,-201.1271 121,-154.5 131.0982,-144.211 145.8639,-139.1851 159.7004,-136.8278"/>
<polygon fill="#191970" stroke="#191970" points="40.8601,-475.6352 43.3709,-485.9282 47.8269,-476.316 40.8601,-475.6352"/>
</g>
<!-- Node43373 -->
<g id="node24" class="node">
<title>Node43373</title>
<g id="a_node24"><a xlink:href="quickjs_8c.html#acf0e1803a9586d86d752b002a89fb8ed" target="_top" xlink:title="js_typed_array_constructor_obj">
<polygon fill="none" stroke="#000000" points="121,-88 121,-107 273,-107 273,-88 121,-88"/>
<text text-anchor="middle" x="197" y="-95" font-family="Helvetica,sans-Serif" font-size="10.00" fill="#000000">js_typed_array_constructor_obj</text>
</a>
</g>
</g>
<!-- Node43349&#45;&gt;Node43373 -->
<g id="edge31" class="edge">
<title>Node43349&#45;&gt;Node43373</title>
<path fill="none" stroke="#191970" d="M43.8659,-475.84C49.1339,-405.7079 70.4155,-169.1886 121,-116.5 124.6735,-112.6737 128.9915,-109.5723 133.6725,-107.0637"/>
<polygon fill="#191970" stroke="#191970" points="40.3656,-475.7182 43.1327,-485.9453 47.3473,-476.2249 40.3656,-475.7182"/>
</g>
<!-- Node43394 -->
<g id="node28" class="node">
<title>Node43394</title>
<g id="a_node28"><a xlink:href="quickjs_8c.html#a5f46f50deddd4e3a23da24e8173db28e" target="_top" xlink:title="js_typed_array_from">
<polygon fill="none" stroke="#000000" points="144.5,-50 144.5,-69 249.5,-69 249.5,-50 144.5,-50"/>
<text text-anchor="middle" x="197" y="-57" font-family="Helvetica,sans-Serif" font-size="10.00" fill="#000000">js_typed_array_from</text>
</a>
</g>
</g>
<!-- Node43349&#45;&gt;Node43394 -->
<g id="edge35" class="edge">
<title>Node43349&#45;&gt;Node43394</title>
<path fill="none" stroke="#191970" d="M43.4892,-475.3528C47.5903,-400.1449 65.717,-137.1394 121,-78.5 127.2509,-71.8696 135.4355,-67.4084 144.1136,-64.4351"/>
<polygon fill="#191970" stroke="#191970" points="39.9726,-475.5822 42.9479,-485.7507 46.9631,-475.9462 39.9726,-475.5822"/>
</g>
<!-- Node43395 -->
<g id="node29" class="node">
<title>Node43395</title>
<g id="a_node29"><a xlink:href="quickjs_8c.html#a28f4d08e4321e751cebe37ea7259fe3c" target="_top" xlink:title="js_typed_array_set\l_internal">
<polygon fill="none" stroke="#000000" points="147.5,-.5 147.5,-30.5 246.5,-30.5 246.5,-.5 147.5,-.5"/>
<text text-anchor="start" x="155.5" y="-18.5" font-family="Helvetica,sans-Serif" font-size="10.00" fill="#000000">js_typed_array_set</text>
<text text-anchor="middle" x="197" y="-7.5" font-family="Helvetica,sans-Serif" font-size="10.00" fill="#000000">_internal</text>
</a>
</g>
</g>
<!-- Node43349&#45;&gt;Node43395 -->
<g id="edge36" class="edge">
<title>Node43349&#45;&gt;Node43395</title>
<path fill="none" stroke="#191970" d="M43.2722,-475.697C46.7271,-397.0049 63.2256,-107.4556 121,-40.5 127.8964,-32.5077 137.3963,-27.0574 147.346,-23.3443"/>
<polygon fill="#191970" stroke="#191970" points="39.7738,-475.5885 42.8538,-485.7257 46.7677,-475.8804 39.7738,-475.5885"/>
</g>
<!-- Node43357&#45;&gt;Node43358 -->
<g id="edge9" class="edge">
<title>Node43357&#45;&gt;Node43358</title>
<path fill="none" stroke="#191970" d="M245.4612,-673.5421C254.6171,-671.2383 264.1088,-668.8197 273,-666.5 295.9513,-660.5122 321.7013,-653.5122 341.7135,-648.0091"/>
<polygon fill="#191970" stroke="#191970" points="244.5519,-670.1617 235.7021,-675.9868 246.2529,-676.9519 244.5519,-670.1617"/>
</g>
<!-- Node43357&#45;&gt;Node43359 -->
<g id="edge12" class="edge">
<title>Node43357&#45;&gt;Node43359</title>
<path fill="none" stroke="#191970" d="M253.2454,-686.9361C321.6749,-688.6832 436.065,-691.6038 500.8594,-693.2581"/>
<polygon fill="#191970" stroke="#191970" points="253.1693,-683.4331 243.0832,-686.6766 252.9906,-690.4308 253.1693,-683.4331"/>
</g>
<!-- Node43358&#45;&gt;Node43358 -->
<g id="edge10" class="edge">
<title>Node43358&#45;&gt;Node43358</title>
<path fill="none" stroke="#191970" d="M343.8144,-656.7746C344.732,-662.241 355.4606,-666.5 376,-666.5 406.5703,-666.5 415.407,-657.0653 402.5102,-648.2571"/>
<polygon fill="#191970" stroke="#191970" points="346.8574,-658.5197 349.4898,-648.2571 341.0321,-654.6381 346.8574,-658.5197"/>
</g>
<!-- Node43358&#45;&gt;Node43359 -->
<g id="edge11" class="edge">
<title>Node43358&#45;&gt;Node43359</title>
<path fill="none" stroke="#191970" d="M415.6866,-651.3095C447.4731,-661.5691 491.3492,-675.7309 520.0635,-684.9989"/>
<polygon fill="#191970" stroke="#191970" points="416.4174,-647.8676 405.8257,-648.1267 414.2672,-654.5292 416.4174,-647.8676"/>
</g>
<!-- Node43364&#45;&gt;Node43358 -->
<g id="edge17" class="edge">
<title>Node43364&#45;&gt;Node43358</title>
<path fill="none" stroke="#191970" d="M243.0295,-463.1154C253.5584,-465.9401 264.222,-470.1705 273,-476.5 329.7703,-517.435 362.7118,-600.2228 372.7172,-628.653"/>
<polygon fill="#191970" stroke="#191970" points="243.5723,-459.6489 233.0419,-460.8153 242.0013,-466.4703 243.5723,-459.6489"/>
</g>
<!-- Node43365&#45;&gt;Node43358 -->
<g id="edge19" class="edge">
<title>Node43365&#45;&gt;Node43358</title>
<path fill="none" stroke="#191970" d="M246.0694,-645.0328C274.7775,-643.5894 310.5121,-641.7927 337.2355,-640.4491"/>
<polygon fill="#191970" stroke="#191970" points="245.6519,-641.5493 235.8403,-645.5471 246.0035,-648.5405 245.6519,-641.5493"/>
</g>
<!-- Node43370&#45;&gt;Node43355 -->
<g id="edge26" class="edge">
<title>Node43370&#45;&gt;Node43355</title>
<path fill="none" stroke="#191970" d="M227.5626,-225.3212C241.6114,-231.9421 258.3677,-240.2211 273,-248.5 306.0483,-267.1987 342.9351,-292.2863 362.345,-305.8382"/>
<polygon fill="#191970" stroke="#191970" points="228.8713,-222.0698 218.3283,-221.0227 225.9172,-228.416 228.8713,-222.0698"/>
</g>
<!-- Node43370&#45;&gt;Node43370 -->
<g id="edge25" class="edge">
<title>Node43370&#45;&gt;Node43370</title>
<path fill="none" stroke="#191970" d="M168.2542,-230.1539C169.4558,-235.4368 179.0377,-239.5 197,-239.5 224.3711,-239.5 232.2831,-230.0653 220.7359,-221.2571"/>
<polygon fill="#191970" stroke="#191970" points="171.4072,-231.6879 173.2641,-221.2571 165.3077,-228.2532 171.4072,-231.6879"/>
</g>
<!-- Node43374 -->
<g id="node25" class="node">
<title>Node43374</title>
<g id="a_node25"><a xlink:href="quickjs_8c.html#a3be661c1eaa7a31184410667862635a2" target="_top" xlink:title="js_typed_array_constructor">
<polygon fill="none" stroke="#ff0000" points="309,-88 309,-107 443,-107 443,-88 309,-88"/>
<text text-anchor="middle" x="376" y="-95" font-family="Helvetica,sans-Serif" font-size="10.00" fill="#000000">js_typed_array_constructor</text>
</a>
</g>
</g>
<!-- Node43373&#45;&gt;Node43374 -->
<g id="edge32" class="edge">
<title>Node43373&#45;&gt;Node43374</title>
<path fill="none" stroke="#191970" d="M283.2645,-97.5C291.8942,-97.5 300.5641,-97.5 308.9527,-97.5"/>
<polygon fill="#191970" stroke="#191970" points="283.1717,-94.0001 273.1717,-97.5 283.1716,-101.0001 283.1717,-94.0001"/>
</g>
<!-- Node43375 -->
<g id="node26" class="node">
<title>Node43375</title>
<g id="a_node26"><a xlink:href="quickjs_8c.html#a177d09828596bfe6df4bd90b2e93989d" target="_top" xlink:title="JS_AddIntrinsicTypedArrays">
<polygon fill="none" stroke="#ff0000" points="479,-69 479,-88 620,-88 620,-69 479,-69"/>
<text text-anchor="middle" x="549.5" y="-76" font-family="Helvetica,sans-Serif" font-size="10.00" fill="#000000">JS_AddIntrinsicTypedArrays</text>
</a>
</g>
</g>
<!-- Node43374&#45;&gt;Node43375 -->
<g id="edge33" class="edge">
<title>Node43374&#45;&gt;Node43375</title>
<path fill="none" stroke="#191970" d="M453.0756,-89.0594C461.6582,-88.1196 470.3687,-87.1657 478.8654,-86.2352"/>
<polygon fill="#191970" stroke="#191970" points="452.6392,-85.5862 443.0796,-90.1541 453.4012,-92.5446 452.6392,-85.5862"/>
</g>
<!-- Node43380 -->
<g id="node27" class="node">
<title>Node43380</title>
<g id="a_node27"><a xlink:href="quickjs_8c.html#a00910faacc776e3c2c225aa117aab450" target="_top" xlink:title="JS_ReadTypedArray">
<polygon fill="none" stroke="#ff0000" points="496,-107 496,-126 603,-126 603,-107 496,-107"/>
<text text-anchor="middle" x="549.5" y="-114" font-family="Helvetica,sans-Serif" font-size="10.00" fill="#000000">JS_ReadTypedArray</text>
</a>
</g>
</g>
<!-- Node43374&#45;&gt;Node43380 -->
<g id="edge34" class="edge">
<title>Node43374&#45;&gt;Node43380</title>
<path fill="none" stroke="#191970" d="M453.4102,-105.9772C467.7116,-107.5433 482.3556,-109.147 495.763,-110.6153"/>
<polygon fill="#191970" stroke="#191970" points="453.4012,-102.4554 443.0796,-104.8459 452.6392,-109.4138 453.4012,-102.4554"/>
</g>
<!-- Node43396 -->
<g id="node30" class="node">
<title>Node43396</title>
<g id="a_node30"><a xlink:href="quickjs_8c.html#af7649a967804b86dcc5e5e66df32769e" target="_top" xlink:title="js_typed_array_set">
<polygon fill="none" stroke="#000000" points="326.5,-6 326.5,-25 425.5,-25 425.5,-6 326.5,-6"/>
<text text-anchor="middle" x="376" y="-13" font-family="Helvetica,sans-Serif" font-size="10.00" fill="#000000">js_typed_array_set</text>
</a>
</g>
</g>
<!-- Node43395&#45;&gt;Node43396 -->
<g id="edge37" class="edge">
<title>Node43395&#45;&gt;Node43396</title>
<path fill="none" stroke="#191970" d="M256.9994,-15.5C279.5474,-15.5 304.908,-15.5 326.4059,-15.5"/>
<polygon fill="#191970" stroke="#191970" points="256.8615,-12.0001 246.8615,-15.5 256.8614,-19.0001 256.8615,-12.0001"/>
</g>
</g>
</svg>
