<?xml version="1.0" encoding="UTF-8" standalone="no"?>
<!DOCTYPE svg PUBLIC "-//W3C//DTD SVG 1.1//EN"
 "http://www.w3.org/Graphics/SVG/1.1/DTD/svg11.dtd">
<!-- Generated by graphviz version 2.40.1 (20161225.0304)
 -->
<!-- Title: JS_GetRuntime Pages: 1 -->
<svg width="912pt" height="616pt"
 viewBox="0.00 0.00 912.00 616.00" xmlns="http://www.w3.org/2000/svg" xmlns:xlink="http://www.w3.org/1999/xlink">
<g id="graph0" class="graph" transform="scale(1 1) rotate(0) translate(4 612)">
<title>JS_GetRuntime</title>
<!-- Node71861 -->
<g id="node1" class="node">
<title>Node71861</title>
<polygon fill="#bfbfbf" stroke="#000000" points="0,-322.5 0,-341.5 86,-341.5 86,-322.5 0,-322.5"/>
<text text-anchor="middle" x="43" y="-329.5" font-family="Helvetica,sans-Serif" font-size="10.00" fill="#000000">JS_GetRuntime</text>
</g>
<!-- Node71862 -->
<g id="node2" class="node">
<title>Node71862</title>
<g id="a_node2"><a xlink:href="quickjs-libc_8c.html#a55f6cd4bbd0e676992642d066fd1d9fd" target="_top" xlink:title="js_evalScript">
<polygon fill="none" stroke="#000000" points="152,-588.5 152,-607.5 225,-607.5 225,-588.5 152,-588.5"/>
<text text-anchor="middle" x="188.5" y="-595.5" font-family="Helvetica,sans-Serif" font-size="10.00" fill="#000000">js_evalScript</text>
</a>
</g>
</g>
<!-- Node71861&#45;&gt;Node71862 -->
<g id="edge1" class="edge">
<title>Node71861&#45;&gt;Node71862</title>
<path fill="none" stroke="#191970" d="M43.8108,-351.901C46.7313,-397.4458 60.1699,-510.2347 122,-574 130.0316,-582.283 141.131,-587.719 151.9624,-591.282"/>
<polygon fill="#191970" stroke="#191970" points="47.3019,-351.6397 43.2718,-341.8413 40.3119,-352.0143 47.3019,-351.6397"/>
</g>
<!-- Node71863 -->
<g id="node3" class="node">
<title>Node71863</title>
<g id="a_node3"><a xlink:href="quickjs-libc_8c.html#a066e7962ce24f22d5df20968a8baa346" target="_top" xlink:title="js_os_init">
<polygon fill="none" stroke="#000000" points="621,-398.5 621,-417.5 679,-417.5 679,-398.5 621,-398.5"/>
<text text-anchor="middle" x="650" y="-405.5" font-family="Helvetica,sans-Serif" font-size="10.00" fill="#000000">js_os_init</text>
</a>
</g>
</g>
<!-- Node71861&#45;&gt;Node71863 -->
<g id="edge2" class="edge">
<title>Node71861&#45;&gt;Node71863</title>
<path fill="none" stroke="#191970" d="M44.2684,-351.5488C48.0744,-392.4242 63.1271,-486.7162 122,-530 201.3396,-588.3311 478.9564,-588.8935 565,-541 614.5636,-513.412 639.5486,-443.4804 647.2973,-417.7204"/>
<polygon fill="#191970" stroke="#191970" points="47.7527,-351.212 43.466,-341.5231 40.775,-351.7705 47.7527,-351.212"/>
</g>
<!-- Node71866 -->
<g id="node6" class="node">
<title>Node71866</title>
<g id="a_node6"><a xlink:href="quickjs-libc_8c.html#ac6c5f34cb0df6ab0d7579f0f20908a2c" target="_top" xlink:title="js_os_poll">
<polygon fill="none" stroke="#000000" points="480,-512.5 480,-531.5 540,-531.5 540,-512.5 480,-512.5"/>
<text text-anchor="middle" x="510" y="-519.5" font-family="Helvetica,sans-Serif" font-size="10.00" fill="#000000">js_os_poll</text>
</a>
</g>
</g>
<!-- Node71861&#45;&gt;Node71866 -->
<g id="edge5" class="edge">
<title>Node71861&#45;&gt;Node71866</title>
<path fill="none" stroke="#191970" d="M45.4891,-351.5403C51.3396,-388.4094 69.6683,-467.6971 122,-503 180.0061,-542.1308 398.8895,-530.3097 479.7438,-524.426"/>
<polygon fill="#191970" stroke="#191970" points="48.9409,-350.9541 44.0502,-341.5556 42.0125,-351.9526 48.9409,-350.9541"/>
</g>
<!-- Node71867 -->
<g id="node7" class="node">
<title>Node71867</title>
<g id="a_node7"><a xlink:href="quickjs-libc_8c.html#a786f04aebbd56e14572bc82c0920be2c" target="_top" xlink:title="js_os_setReadHandler">
<polygon fill="none" stroke="#000000" points="130.5,-474.5 130.5,-493.5 246.5,-493.5 246.5,-474.5 130.5,-474.5"/>
<text text-anchor="middle" x="188.5" y="-481.5" font-family="Helvetica,sans-Serif" font-size="10.00" fill="#000000">js_os_setReadHandler</text>
</a>
</g>
</g>
<!-- Node71861&#45;&gt;Node71867 -->
<g id="edge7" class="edge">
<title>Node71861&#45;&gt;Node71867</title>
<path fill="none" stroke="#191970" d="M49.3199,-351.5426C59.7454,-380.6627 83.3305,-435.2013 122,-465 127.0407,-468.8844 132.8446,-471.9748 138.8796,-474.4335"/>
<polygon fill="#191970" stroke="#191970" points="52.5121,-350.0606 45.9645,-341.7312 45.8887,-352.3257 52.5121,-350.0606"/>
</g>
<!-- Node71868 -->
<g id="node8" class="node">
<title>Node71868</title>
<g id="a_node8"><a xlink:href="quickjs-libc_8c.html#acd6d7f2e207ed1d263e55bed721a7288" target="_top" xlink:title="js_os_setTimeout">
<polygon fill="none" stroke="#000000" points="141.5,-436.5 141.5,-455.5 235.5,-455.5 235.5,-436.5 141.5,-436.5"/>
<text text-anchor="middle" x="188.5" y="-443.5" font-family="Helvetica,sans-Serif" font-size="10.00" fill="#000000">js_os_setTimeout</text>
</a>
</g>
</g>
<!-- Node71861&#45;&gt;Node71868 -->
<g id="edge8" class="edge">
<title>Node71861&#45;&gt;Node71868</title>
<path fill="none" stroke="#191970" d="M53.6244,-350.5602C66.9004,-372.1006 91.613,-407.1913 122,-427 127.9346,-430.8687 134.6659,-433.9633 141.5115,-436.4352"/>
<polygon fill="#191970" stroke="#191970" points="56.4796,-348.5146 48.3501,-341.7203 50.4683,-352.1013 56.4796,-348.5146"/>
</g>
<!-- Node71869 -->
<g id="node9" class="node">
<title>Node71869</title>
<g id="a_node9"><a xlink:href="quickjs-libc_8c.html#a87465e0686e72ba005afdf9f31a1cbf7" target="_top" xlink:title="js_os_signal">
<polygon fill="none" stroke="#000000" points="153,-398.5 153,-417.5 224,-417.5 224,-398.5 153,-398.5"/>
<text text-anchor="middle" x="188.5" y="-405.5" font-family="Helvetica,sans-Serif" font-size="10.00" fill="#000000">js_os_signal</text>
</a>
</g>
</g>
<!-- Node71861&#45;&gt;Node71869 -->
<g id="edge9" class="edge">
<title>Node71861&#45;&gt;Node71869</title>
<path fill="none" stroke="#191970" d="M61.3997,-348.13C76.7004,-360.8116 99.5316,-378.1005 122,-389 131.6148,-393.6642 142.5818,-397.3817 152.7987,-400.2471"/>
<polygon fill="#191970" stroke="#191970" points="63.6169,-345.4212 53.7241,-341.6284 59.0925,-350.7625 63.6169,-345.4212"/>
</g>
<!-- Node71870 -->
<g id="node10" class="node">
<title>Node71870</title>
<g id="a_node10"><a xlink:href="quickjs-libc_8c.html#abc010e21334ba999f6ad18a681caf4fb" target="_top" xlink:title="js_std_dbuf_init">
<polygon fill="none" stroke="#000000" points="146,-360.5 146,-379.5 231,-379.5 231,-360.5 146,-360.5"/>
<text text-anchor="middle" x="188.5" y="-367.5" font-family="Helvetica,sans-Serif" font-size="10.00" fill="#000000">js_std_dbuf_init</text>
</a>
</g>
</g>
<!-- Node71861&#45;&gt;Node71870 -->
<g id="edge10" class="edge">
<title>Node71861&#45;&gt;Node71870</title>
<path fill="none" stroke="#191970" d="M89.6532,-344.1843C109.8534,-349.46 133.1481,-355.5438 152.0482,-360.4799"/>
<polygon fill="#191970" stroke="#191970" points="90.2757,-340.7296 79.7158,-341.589 88.5068,-347.5024 90.2757,-340.7296"/>
</g>
<!-- Node71878 -->
<g id="node18" class="node">
<title>Node71878</title>
<g id="a_node18"><a xlink:href="quickjs-libc_8c.html#a9d1d581951398643c2791e45231f87db" target="_top" xlink:title="js_std_gc">
<polygon fill="none" stroke="#000000" points="159,-322.5 159,-341.5 218,-341.5 218,-322.5 159,-322.5"/>
<text text-anchor="middle" x="188.5" y="-329.5" font-family="Helvetica,sans-Serif" font-size="10.00" fill="#000000">js_std_gc</text>
</a>
</g>
</g>
<!-- Node71861&#45;&gt;Node71878 -->
<g id="edge18" class="edge">
<title>Node71861&#45;&gt;Node71878</title>
<path fill="none" stroke="#191970" d="M96.4136,-332C117.5495,-332 141.0333,-332 158.9957,-332"/>
<polygon fill="#191970" stroke="#191970" points="96.2609,-328.5001 86.2609,-332 96.2608,-335.5001 96.2609,-328.5001"/>
</g>
<!-- Node71879 -->
<g id="node19" class="node">
<title>Node71879</title>
<g id="a_node19"><a xlink:href="quickjs-libc_8c.html#a08cea1a0226b7603e6969e2208d99d55" target="_top" xlink:title="js_std_init">
<polygon fill="none" stroke="#000000" points="479.5,-170.5 479.5,-189.5 540.5,-189.5 540.5,-170.5 479.5,-170.5"/>
<text text-anchor="middle" x="510" y="-177.5" font-family="Helvetica,sans-Serif" font-size="10.00" fill="#000000">js_std_init</text>
</a>
</g>
</g>
<!-- Node71861&#45;&gt;Node71879 -->
<g id="edge19" class="edge">
<title>Node71861&#45;&gt;Node71879</title>
<path fill="none" stroke="#191970" d="M52.968,-313.6177C65.8732,-291.6933 90.4932,-255.6712 122,-237 182.6218,-201.075 398.8904,-185.9795 479.4598,-181.5169"/>
<polygon fill="#191970" stroke="#191970" points="49.9192,-311.8989 48.0241,-322.3229 56.006,-315.3558 49.9192,-311.8989"/>
</g>
<!-- Node71881 -->
<g id="node21" class="node">
<title>Node71881</title>
<g id="a_node21"><a xlink:href="quickjs-libc_8c.html#af7480dad10e937004e36b2b409b084a4" target="_top" xlink:title="js_std_loop">
<polygon fill="none" stroke="#000000" points="155.5,-246.5 155.5,-265.5 221.5,-265.5 221.5,-246.5 155.5,-246.5"/>
<text text-anchor="middle" x="188.5" y="-253.5" font-family="Helvetica,sans-Serif" font-size="10.00" fill="#000000">js_std_loop</text>
</a>
</g>
</g>
<!-- Node71861&#45;&gt;Node71881 -->
<g id="edge22" class="edge">
<title>Node71861&#45;&gt;Node71881</title>
<path fill="none" stroke="#191970" d="M63.8807,-316.2877C79.3508,-305.1452 101.2584,-290.3863 122,-280 133.1944,-274.3944 146.0253,-269.4457 157.4115,-265.5204"/>
<polygon fill="#191970" stroke="#191970" points="61.5744,-313.6384 55.5735,-322.3699 65.7097,-319.2864 61.5744,-313.6384"/>
</g>
<!-- Node71883 -->
<g id="node23" class="node">
<title>Node71883</title>
<g id="a_node23"><a xlink:href="quickjs-libc_8c.html#aff1e6131e8bf8b7eb25307623ad669e7" target="_top" xlink:title="js_worker_ctor">
<polygon fill="none" stroke="#000000" points="470,-284.5 470,-303.5 550,-303.5 550,-284.5 470,-284.5"/>
<text text-anchor="middle" x="510" y="-291.5" font-family="Helvetica,sans-Serif" font-size="10.00" fill="#000000">js_worker_ctor</text>
</a>
</g>
</g>
<!-- Node71861&#45;&gt;Node71883 -->
<g id="edge27" class="edge">
<title>Node71861&#45;&gt;Node71883</title>
<path fill="none" stroke="#191970" d="M86.3741,-320.0268C97.8731,-317.2773 110.3362,-314.6732 122,-313 248.0066,-294.9245 399.1265,-293.1746 469.828,-293.5025"/>
<polygon fill="#191970" stroke="#191970" points="85.4248,-316.6561 76.5615,-322.4606 87.11,-323.4503 85.4248,-316.6561"/>
</g>
<!-- Node71884 -->
<g id="node24" class="node">
<title>Node71884</title>
<g id="a_node24"><a xlink:href="quickjs-libc_8c.html#a0a99fb986f4b8862e7e44dcb16a9dc96" target="_top" xlink:title="js_worker_set_onmessage">
<polygon fill="none" stroke="#000000" points="122,-170.5 122,-189.5 255,-189.5 255,-170.5 122,-170.5"/>
<text text-anchor="middle" x="188.5" y="-177.5" font-family="Helvetica,sans-Serif" font-size="10.00" fill="#000000">js_worker_set_onmessage</text>
</a>
</g>
</g>
<!-- Node71861&#45;&gt;Node71884 -->
<g id="edge28" class="edge">
<title>Node71861&#45;&gt;Node71884</title>
<path fill="none" stroke="#191970" d="M49.9414,-313.1007C61.0394,-285.3834 85.3316,-233.7795 122,-204 129.7175,-197.7324 139.2087,-193.0283 148.5787,-189.5258"/>
<polygon fill="#191970" stroke="#191970" points="46.6652,-311.869 46.3358,-322.4588 53.1972,-314.3859 46.6652,-311.869"/>
</g>
<!-- Node71885 -->
<g id="node25" class="node">
<title>Node71885</title>
<g id="a_node25"><a xlink:href="structqjs_1_1js__traits_3_01std_1_1shared__ptr_3_01T_01_4_01_4.html#af3558afeef079826c58411353c8ccce0" target="_top" xlink:title="Register class in QuickJS context. ">
<polygon fill="none" stroke="#000000" points="138,-110.5 138,-151.5 239,-151.5 239,-110.5 138,-110.5"/>
<text text-anchor="start" x="146" y="-139.5" font-family="Helvetica,sans-Serif" font-size="10.00" fill="#000000">qjs::js_traits&lt; std</text>
<text text-anchor="start" x="146" y="-128.5" font-family="Helvetica,sans-Serif" font-size="10.00" fill="#000000">::shared_ptr&lt; T &gt; &gt;</text>
<text text-anchor="middle" x="188.5" y="-117.5" font-family="Helvetica,sans-Serif" font-size="10.00" fill="#000000">::register_class</text>
</a>
</g>
</g>
<!-- Node71861&#45;&gt;Node71885 -->
<g id="edge29" class="edge">
<title>Node71861&#45;&gt;Node71885</title>
<path fill="none" stroke="#191970" d="M47.3134,-312.2049C55.8459,-277.3564 77.985,-204.6212 122,-161 126.588,-156.4531 131.9872,-152.5271 137.6924,-149.1553"/>
<polygon fill="#191970" stroke="#191970" points="43.8676,-311.5702 45.0107,-322.1032 50.6856,-313.1563 43.8676,-311.5702"/>
</g>
<!-- Node71887 -->
<g id="node27" class="node">
<title>Node71887</title>
<g id="a_node27"><a xlink:href="structqjs_1_1js__traits_3_01detail_1_1function_01_4.html#afe383c63f389edaf9f878cd30062d37f" target="_top" xlink:title="qjs::js_traits\&lt; detail\l::function \&gt;::register_class">
<polygon fill="none" stroke="#000000" points="122,-61 122,-91 255,-91 255,-61 122,-61"/>
<text text-anchor="start" x="130" y="-79" font-family="Helvetica,sans-Serif" font-size="10.00" fill="#000000">qjs::js_traits&lt; detail</text>
<text text-anchor="middle" x="188.5" y="-68" font-family="Helvetica,sans-Serif" font-size="10.00" fill="#000000">::function &gt;::register_class</text>
</a>
</g>
</g>
<!-- Node71861&#45;&gt;Node71887 -->
<g id="edge31" class="edge">
<title>Node71861&#45;&gt;Node71887</title>
<path fill="none" stroke="#191970" d="M44.2338,-312.1597C48.0121,-268.2043 63.0784,-161.7207 122,-101 125.7793,-97.1053 130.224,-93.8109 134.9936,-91.0254"/>
<polygon fill="#191970" stroke="#191970" points="40.7427,-311.9112 43.4822,-322.1457 47.723,-312.4366 40.7427,-311.9112"/>
</g>
<!-- Node71891 -->
<g id="node30" class="node">
<title>Node71891</title>
<g id="a_node30"><a xlink:href="structqjs_1_1js__traits_3_01std_1_1function_3_01R_07Args_8_8_8_08_4_01_4.html#a6812a672334111ba5228e64816e55490" target="_top" xlink:title="Convert from function object functor to JSValue. ">
<polygon fill="none" stroke="#000000" points="134,-.5 134,-41.5 243,-41.5 243,-.5 134,-.5"/>
<text text-anchor="start" x="142" y="-29.5" font-family="Helvetica,sans-Serif" font-size="10.00" fill="#000000">qjs::js_traits&lt; std</text>
<text text-anchor="start" x="142" y="-18.5" font-family="Helvetica,sans-Serif" font-size="10.00" fill="#000000">::function&lt; R(Args...)</text>
<text text-anchor="middle" x="188.5" y="-7.5" font-family="Helvetica,sans-Serif" font-size="10.00" fill="#000000">&gt; &gt;::wrap</text>
</a>
</g>
</g>
<!-- Node71861&#45;&gt;Node71891 -->
<g id="edge34" class="edge">
<title>Node71861&#45;&gt;Node71891</title>
<path fill="none" stroke="#191970" d="M46.3072,-312.3315C56.2296,-255.3128 87.217,-91.4238 122,-51 125.387,-47.0637 129.3948,-43.6188 133.7378,-40.6088"/>
<polygon fill="#191970" stroke="#191970" points="42.8483,-311.7945 44.6087,-322.2421 49.7477,-312.977 42.8483,-311.7945"/>
</g>
<!-- Node71864 -->
<g id="node4" class="node">
<title>Node71864</title>
<g id="a_node4"><a xlink:href="quickjs-libc_8c.html#adcca2b4a661355e6ff87a0def2339894" target="_top" xlink:title="js_init_module_os">
<polygon fill="none" stroke="#000000" points="735,-322.5 735,-341.5 830,-341.5 830,-322.5 735,-322.5"/>
<text text-anchor="middle" x="782.5" y="-329.5" font-family="Helvetica,sans-Serif" font-size="10.00" fill="#000000">js_init_module_os</text>
</a>
</g>
</g>
<!-- Node71863&#45;&gt;Node71864 -->
<g id="edge3" class="edge">
<title>Node71863&#45;&gt;Node71864</title>
<path fill="none" stroke="#191970" d="M675.5494,-393.3452C702.178,-378.0715 743.1288,-354.5828 765.855,-341.5473"/>
<polygon fill="#191970" stroke="#191970" points="673.7142,-390.363 666.7812,-398.3745 677.197,-396.435 673.7142,-390.363"/>
</g>
<!-- Node71865 -->
<g id="node5" class="node">
<title>Node71865</title>
<g id="a_node5"><a xlink:href="qjs_8cpp.html#a3c04138a5bfe5d72780bb7e82a18e627" target="_top" xlink:title="main">
<polygon fill="none" stroke="#000000" points="866,-208.5 866,-227.5 904,-227.5 904,-208.5 866,-208.5"/>
<text text-anchor="middle" x="885" y="-215.5" font-family="Helvetica,sans-Serif" font-size="10.00" fill="#000000">main</text>
</a>
</g>
</g>
<!-- Node71864&#45;&gt;Node71865 -->
<g id="edge4" class="edge">
<title>Node71864&#45;&gt;Node71865</title>
<path fill="none" stroke="#191970" d="M798.203,-314.5352C820.0776,-290.2063 858.9787,-246.9408 876.283,-227.695"/>
<polygon fill="#191970" stroke="#191970" points="795.3225,-312.5041 791.2391,-322.2804 800.5278,-317.1843 795.3225,-312.5041"/>
</g>
<!-- Node71866&#45;&gt;Node71863 -->
<g id="edge6" class="edge">
<title>Node71866&#45;&gt;Node71863</title>
<path fill="none" stroke="#191970" d="M549.7377,-511.0196C555.0778,-508.7675 560.3205,-506.1113 565,-503 600.9375,-479.1062 631.4448,-436.4926 643.943,-417.5413"/>
<polygon fill="#191970" stroke="#191970" points="548.2416,-507.8432 540.1208,-514.6478 550.7126,-514.3926 548.2416,-507.8432"/>
</g>
<!-- Node71871 -->
<g id="node11" class="node">
<title>Node71871</title>
<g id="a_node11"><a xlink:href="quickjs-libc_8c.html#a2abec3aeee82a6dd3dd063725bbeecfe" target="_top" xlink:title="js_printf_internal">
<polygon fill="none" stroke="#000000" points="311,-436.5 311,-455.5 399,-455.5 399,-436.5 311,-436.5"/>
<text text-anchor="middle" x="355" y="-443.5" font-family="Helvetica,sans-Serif" font-size="10.00" fill="#000000">js_printf_internal</text>
</a>
</g>
</g>
<!-- Node71870&#45;&gt;Node71871 -->
<g id="edge11" class="edge">
<title>Node71870&#45;&gt;Node71871</title>
<path fill="none" stroke="#191970" d="M240.7427,-381.9727C245.719,-383.9787 250.5586,-386.3052 255,-389 274.8897,-401.0679 271.1726,-414.83 291,-427 297.2232,-430.8198 304.2594,-433.9102 311.3315,-436.3989"/>
<polygon fill="#191970" stroke="#191970" points="241.6676,-378.586 231.0731,-378.4981 239.3003,-385.1736 241.6676,-378.586"/>
</g>
<!-- Node71875 -->
<g id="node15" class="node">
<title>Node71875</title>
<g id="a_node15"><a xlink:href="quickjs-libc_8c.html#af31f002f20b3b7e983dd4efabd18d65e" target="_top" xlink:title="js_std_file_getline">
<polygon fill="none" stroke="#000000" points="307.5,-398.5 307.5,-417.5 402.5,-417.5 402.5,-398.5 307.5,-398.5"/>
<text text-anchor="middle" x="355" y="-405.5" font-family="Helvetica,sans-Serif" font-size="10.00" fill="#000000">js_std_file_getline</text>
</a>
</g>
</g>
<!-- Node71870&#45;&gt;Node71875 -->
<g id="edge15" class="edge">
<title>Node71870&#45;&gt;Node71875</title>
<path fill="none" stroke="#191970" d="M240.309,-381.8243C263.7825,-387.1816 291.1654,-393.4311 313.2871,-398.4799"/>
<polygon fill="#191970" stroke="#191970" points="241.0431,-378.4019 230.515,-379.589 239.4855,-385.2264 241.0431,-378.4019"/>
</g>
<!-- Node71876 -->
<g id="node16" class="node">
<title>Node71876</title>
<g id="a_node16"><a xlink:href="quickjs-libc_8c.html#ae8abf0c32bf9b0acd85adffaf8345dfe" target="_top" xlink:title="js_std_file_readAsString">
<polygon fill="none" stroke="#000000" points="294,-360.5 294,-379.5 416,-379.5 416,-360.5 294,-360.5"/>
<text text-anchor="middle" x="355" y="-367.5" font-family="Helvetica,sans-Serif" font-size="10.00" fill="#000000">js_std_file_readAsString</text>
</a>
</g>
</g>
<!-- Node71870&#45;&gt;Node71876 -->
<g id="edge16" class="edge">
<title>Node71870&#45;&gt;Node71876</title>
<path fill="none" stroke="#191970" d="M241.464,-370C258.0965,-370 276.5965,-370 293.7533,-370"/>
<polygon fill="#191970" stroke="#191970" points="241.3779,-366.5001 231.3779,-370 241.3779,-373.5001 241.3779,-366.5001"/>
</g>
<!-- Node71877 -->
<g id="node17" class="node">
<title>Node71877</title>
<g id="a_node17"><a xlink:href="quickjs-libc_8c.html#a7aebce2172c6aa4a6645aef600a69e6b" target="_top" xlink:title="js_std_urlGet">
<polygon fill="none" stroke="#000000" points="318,-322.5 318,-341.5 392,-341.5 392,-322.5 318,-322.5"/>
<text text-anchor="middle" x="355" y="-329.5" font-family="Helvetica,sans-Serif" font-size="10.00" fill="#000000">js_std_urlGet</text>
</a>
</g>
</g>
<!-- Node71870&#45;&gt;Node71877 -->
<g id="edge17" class="edge">
<title>Node71870&#45;&gt;Node71877</title>
<path fill="none" stroke="#191970" d="M240.5877,-358.1121C265.6332,-352.396 295.0764,-345.6763 317.822,-340.4851"/>
<polygon fill="#191970" stroke="#191970" points="239.4855,-354.7736 230.515,-360.411 241.0431,-361.5981 239.4855,-354.7736"/>
</g>
<!-- Node71872 -->
<g id="node12" class="node">
<title>Node71872</title>
<g id="a_node12"><a xlink:href="quickjs-libc_8c.html#a2770356a19e5d09edcb7da0cecbfe0f8" target="_top" xlink:title="js_std_file_printf">
<polygon fill="none" stroke="#000000" points="466,-474.5 466,-493.5 554,-493.5 554,-474.5 466,-474.5"/>
<text text-anchor="middle" x="510" y="-481.5" font-family="Helvetica,sans-Serif" font-size="10.00" fill="#000000">js_std_file_printf</text>
</a>
</g>
</g>
<!-- Node71871&#45;&gt;Node71872 -->
<g id="edge12" class="edge">
<title>Node71871&#45;&gt;Node71872</title>
<path fill="none" stroke="#191970" d="M404.1105,-458.04C425.7647,-463.3488 450.8502,-469.4988 471.1682,-474.4799"/>
<polygon fill="#191970" stroke="#191970" points="404.6588,-454.5708 394.113,-455.589 402.992,-461.3695 404.6588,-454.5708"/>
</g>
<!-- Node71873 -->
<g id="node13" class="node">
<title>Node71873</title>
<g id="a_node13"><a xlink:href="quickjs-libc_8c.html#a6f5e9fa6d24e8fabd0b97f88179c1b29" target="_top" xlink:title="js_std_printf">
<polygon fill="none" stroke="#000000" points="475,-436.5 475,-455.5 545,-455.5 545,-436.5 475,-436.5"/>
<text text-anchor="middle" x="510" y="-443.5" font-family="Helvetica,sans-Serif" font-size="10.00" fill="#000000">js_std_printf</text>
</a>
</g>
</g>
<!-- Node71871&#45;&gt;Node71873 -->
<g id="edge13" class="edge">
<title>Node71871&#45;&gt;Node71873</title>
<path fill="none" stroke="#191970" d="M409.1452,-446C430.9924,-446 455.5709,-446 474.9945,-446"/>
<polygon fill="#191970" stroke="#191970" points="409.0022,-442.5001 399.0022,-446 409.0021,-449.5001 409.0022,-442.5001"/>
</g>
<!-- Node71874 -->
<g id="node14" class="node">
<title>Node71874</title>
<g id="a_node14"><a xlink:href="quickjs-libc_8c.html#ac49c945b1cbeb056236cfb479ec1ffd5" target="_top" xlink:title="js_std_sprintf">
<polygon fill="none" stroke="#000000" points="472.5,-398.5 472.5,-417.5 547.5,-417.5 547.5,-398.5 472.5,-398.5"/>
<text text-anchor="middle" x="510" y="-405.5" font-family="Helvetica,sans-Serif" font-size="10.00" fill="#000000">js_std_sprintf</text>
</a>
</g>
</g>
<!-- Node71871&#45;&gt;Node71874 -->
<g id="edge14" class="edge">
<title>Node71871&#45;&gt;Node71874</title>
<path fill="none" stroke="#191970" d="M403.9686,-433.9948C426.0363,-428.5846 451.6911,-422.2951 472.2376,-417.2579"/>
<polygon fill="#191970" stroke="#191970" points="402.992,-430.6305 394.113,-436.411 404.6588,-437.4292 402.992,-430.6305"/>
</g>
<!-- Node71880 -->
<g id="node20" class="node">
<title>Node71880</title>
<g id="a_node20"><a xlink:href="quickjs-libc_8c.html#a0e65c67dfff872a664f8d29e7eae5a61" target="_top" xlink:title="js_init_module_std">
<polygon fill="none" stroke="#000000" points="601,-170.5 601,-189.5 699,-189.5 699,-170.5 601,-170.5"/>
<text text-anchor="middle" x="650" y="-177.5" font-family="Helvetica,sans-Serif" font-size="10.00" fill="#000000">js_init_module_std</text>
</a>
</g>
</g>
<!-- Node71879&#45;&gt;Node71880 -->
<g id="edge20" class="edge">
<title>Node71879&#45;&gt;Node71880</title>
<path fill="none" stroke="#191970" d="M551.1083,-180C566.7154,-180 584.6465,-180 600.9173,-180"/>
<polygon fill="#191970" stroke="#191970" points="550.7236,-176.5001 540.7236,-180 550.7236,-183.5001 550.7236,-176.5001"/>
</g>
<!-- Node71880&#45;&gt;Node71865 -->
<g id="edge21" class="edge">
<title>Node71880&#45;&gt;Node71865</title>
<path fill="none" stroke="#191970" d="M709.2654,-186.1389C744.5052,-190.2268 789.9946,-196.2687 830,-204 841.9959,-206.3183 855.2748,-209.6754 865.7794,-212.521"/>
<polygon fill="#191970" stroke="#191970" points="709.4763,-182.6403 699.1443,-184.9857 708.6838,-189.5953 709.4763,-182.6403"/>
</g>
<!-- Node71881&#45;&gt;Node71865 -->
<g id="edge23" class="edge">
<title>Node71881&#45;&gt;Node71865</title>
<path fill="none" stroke="#191970" d="M231.6508,-247.0425C249.8975,-243.5044 271.4199,-239.6578 291,-237 387.8112,-223.8591 412.301,-218 510,-218 510,-218 510,-218 650,-218 730.1693,-218 825.7226,-218 865.8092,-218"/>
<polygon fill="#191970" stroke="#191970" points="230.7399,-243.6546 221.6056,-249.0225 232.0937,-250.5224 230.7399,-243.6546"/>
</g>
<!-- Node71882 -->
<g id="node22" class="node">
<title>Node71882</title>
<g id="a_node22"><a xlink:href="quickjs-libc_8c.html#a1fbb3adc15e7b967479fc1940e99b67a" target="_top" xlink:title="worker_func">
<polygon fill="none" stroke="#000000" points="320,-246.5 320,-265.5 390,-265.5 390,-246.5 320,-246.5"/>
<text text-anchor="middle" x="355" y="-253.5" font-family="Helvetica,sans-Serif" font-size="10.00" fill="#000000">worker_func</text>
</a>
</g>
</g>
<!-- Node71881&#45;&gt;Node71882 -->
<g id="edge24" class="edge">
<title>Node71881&#45;&gt;Node71882</title>
<path fill="none" stroke="#191970" d="M231.8748,-256C259.2307,-256 294.1073,-256 319.7525,-256"/>
<polygon fill="#191970" stroke="#191970" points="231.7936,-252.5001 221.7936,-256 231.7936,-259.5001 231.7936,-252.5001"/>
</g>
<!-- Node71882&#45;&gt;Node71883 -->
<g id="edge25" class="edge">
<title>Node71882&#45;&gt;Node71883</title>
<path fill="none" stroke="#191970" d="M400.1629,-267.0722C422.6634,-272.5884 449.595,-279.191 471.1588,-284.4777"/>
<polygon fill="#191970" stroke="#191970" points="400.7177,-263.6046 390.1719,-264.6228 399.0509,-270.4033 400.7177,-263.6046"/>
</g>
<!-- Node71883&#45;&gt;Node71863 -->
<g id="edge26" class="edge">
<title>Node71883&#45;&gt;Node71863</title>
<path fill="none" stroke="#191970" d="M529.904,-310.2075C559.4604,-334.2749 614.0459,-378.7231 638.0939,-398.305"/>
<polygon fill="#191970" stroke="#191970" points="531.9007,-307.3198 521.9363,-303.7196 527.4807,-312.7479 531.9007,-307.3198"/>
</g>
<!-- Node71886 -->
<g id="node26" class="node">
<title>Node71886</title>
<g id="a_node26"><a xlink:href="structqjs_1_1js__traits_3_01std_1_1shared__ptr_3_01T_01_4_01_4.html#a046f811ae16e0cb24170a8425f3e8780" target="_top" xlink:title="Create a JSValue from std::shared_ptr&lt;T&gt;. ">
<polygon fill="none" stroke="#000000" points="291,-116 291,-146 419,-146 419,-116 291,-116"/>
<text text-anchor="start" x="299" y="-134" font-family="Helvetica,sans-Serif" font-size="10.00" fill="#000000">qjs::js_traits&lt; std</text>
<text text-anchor="middle" x="355" y="-123" font-family="Helvetica,sans-Serif" font-size="10.00" fill="#000000">::shared_ptr&lt; T &gt; &gt;::wrap</text>
</a>
</g>
</g>
<!-- Node71885&#45;&gt;Node71886 -->
<g id="edge30" class="edge">
<title>Node71885&#45;&gt;Node71886</title>
<path fill="none" stroke="#191970" d="M249.4831,-131C262.969,-131 277.2964,-131 290.9021,-131"/>
<polygon fill="#191970" stroke="#191970" points="249.3602,-127.5001 239.3602,-131 249.3602,-134.5001 249.3602,-127.5001"/>
</g>
<!-- Node71888 -->
<g id="node28" class="node">
<title>Node71888</title>
<g id="a_node28"><a xlink:href="classqjs_1_1Context.html#aae629cc551168d549a405db5c762b61e" target="_top" xlink:title="qjs::Context::init">
<polygon fill="none" stroke="#000000" points="310.5,-66.5 310.5,-85.5 399.5,-85.5 399.5,-66.5 310.5,-66.5"/>
<text text-anchor="middle" x="355" y="-73.5" font-family="Helvetica,sans-Serif" font-size="10.00" fill="#000000">qjs::Context::init</text>
</a>
</g>
</g>
<!-- Node71887&#45;&gt;Node71888 -->
<g id="edge32" class="edge">
<title>Node71887&#45;&gt;Node71888</title>
<path fill="none" stroke="#191970" d="M265.2985,-76C280.669,-76 296.3347,-76 310.1826,-76"/>
<polygon fill="#191970" stroke="#191970" points="265.2626,-72.5001 255.2626,-76 265.2625,-79.5001 265.2626,-72.5001"/>
</g>
<!-- Node71889 -->
<g id="node29" class="node">
<title>Node71889</title>
<g id="a_node29"><a xlink:href="classqjs_1_1Context.html#a4392a23648acfc4bf6b445336efb5007" target="_top" xlink:title="qjs::Context::Context">
<polygon fill="none" stroke="#ff0000" points="455,-66.5 455,-85.5 565,-85.5 565,-66.5 455,-66.5"/>
<text text-anchor="middle" x="510" y="-73.5" font-family="Helvetica,sans-Serif" font-size="10.00" fill="#000000">qjs::Context::Context</text>
</a>
</g>
</g>
<!-- Node71888&#45;&gt;Node71889 -->
<g id="edge33" class="edge">
<title>Node71888&#45;&gt;Node71889</title>
<path fill="none" stroke="#191970" d="M410.1579,-76C424.6599,-76 440.3033,-76 454.8072,-76"/>
<polygon fill="#191970" stroke="#191970" points="409.8325,-72.5001 399.8324,-76 409.8324,-79.5001 409.8325,-72.5001"/>
</g>
</g>
</svg>
