<?xml version="1.0" encoding="UTF-8" standalone="no"?>
<!DOCTYPE svg PUBLIC "-//W3C//DTD SVG 1.1//EN"
 "http://www.w3.org/Graphics/SVG/1.1/DTD/svg11.dtd">
<!-- Generated by graphviz version 2.40.1 (20161225.0304)
 -->
<!-- Title: JS_EvalFunctionInternal Pages: 1 -->
<svg width="556pt" height="104pt"
 viewBox="0.00 0.00 556.00 104.00" xmlns="http://www.w3.org/2000/svg" xmlns:xlink="http://www.w3.org/1999/xlink">
<g id="graph0" class="graph" transform="scale(1 1) rotate(0) translate(4 100)">
<title>JS_EvalFunctionInternal</title>
<!-- Node353507 -->
<g id="node1" class="node">
<title>Node353507</title>
<polygon fill="#bfbfbf" stroke="#000000" points="0,-57.5 0,-76.5 123,-76.5 123,-57.5 0,-57.5"/>
<text text-anchor="middle" x="61.5" y="-64.5" font-family="Helvetica,sans-Serif" font-size="10.00" fill="#000000">JS_EvalFunctionInternal</text>
</g>
<!-- Node353508 -->
<g id="node2" class="node">
<title>Node353508</title>
<g id="a_node2"><a xlink:href="quickjs_8c.html#a46a8a7e155cfd0af984f6725f060f0d6" target="_top" xlink:title="__JS_EvalInternal">
<polygon fill="none" stroke="#000000" points="159,-76.5 159,-95.5 255,-95.5 255,-76.5 159,-76.5"/>
<text text-anchor="middle" x="207" y="-83.5" font-family="Helvetica,sans-Serif" font-size="10.00" fill="#000000">__JS_EvalInternal</text>
</a>
</g>
</g>
<!-- Node353507&#45;&gt;Node353508 -->
<g id="edge1" class="edge">
<title>Node353507&#45;&gt;Node353508</title>
<path fill="none" stroke="#191970" d="M133.336,-76.3806C141.9978,-77.5117 150.6769,-78.6451 158.8821,-79.7166"/>
<polygon fill="#191970" stroke="#191970" points="133.5741,-72.8821 123.2051,-75.0577 132.6677,-79.8232 133.5741,-72.8821"/>
</g>
<!-- Node353514 -->
<g id="node5" class="node">
<title>Node353514</title>
<g id="a_node5"><a xlink:href="quickjs_8c.html#af38ab3d672d41db0fa7a75b5c24149e4" target="_top" xlink:title="JS_EvalFunction">
<polygon fill="none" stroke="#000000" points="161.5,-38.5 161.5,-57.5 252.5,-57.5 252.5,-38.5 161.5,-38.5"/>
<text text-anchor="middle" x="207" y="-45.5" font-family="Helvetica,sans-Serif" font-size="10.00" fill="#000000">JS_EvalFunction</text>
</a>
</g>
</g>
<!-- Node353507&#45;&gt;Node353514 -->
<g id="edge4" class="edge">
<title>Node353507&#45;&gt;Node353514</title>
<path fill="none" stroke="#191970" d="M133.3947,-57.6117C142.8196,-56.3809 152.2636,-55.1477 161.094,-53.9946"/>
<polygon fill="#191970" stroke="#191970" points="132.6677,-54.1768 123.2051,-58.9423 133.5741,-61.1179 132.6677,-54.1768"/>
</g>
<!-- Node353509 -->
<g id="node3" class="node">
<title>Node353509</title>
<g id="a_node3"><a xlink:href="quickjs_8c.html#acbcccb7ec58fd4a024ea1d01e5d04561" target="_top" xlink:title="JS_AddIntrinsicEval">
<polygon fill="none" stroke="#000000" points="291,-76.5 291,-95.5 396,-95.5 396,-76.5 291,-76.5"/>
<text text-anchor="middle" x="343.5" y="-83.5" font-family="Helvetica,sans-Serif" font-size="10.00" fill="#000000">JS_AddIntrinsicEval</text>
</a>
</g>
</g>
<!-- Node353508&#45;&gt;Node353509 -->
<g id="edge2" class="edge">
<title>Node353508&#45;&gt;Node353509</title>
<path fill="none" stroke="#191970" d="M265.2837,-86C273.726,-86 282.3763,-86 290.7026,-86"/>
<polygon fill="#191970" stroke="#191970" points="265.1248,-82.5001 255.1248,-86 265.1248,-89.5001 265.1248,-82.5001"/>
</g>
<!-- Node353510 -->
<g id="node4" class="node">
<title>Node353510</title>
<g id="a_node4"><a xlink:href="quickjs_8c.html#ad8aedb643b8753b7a15f6cb2df61945e" target="_top" xlink:title="JS_NewContext">
<polygon fill="none" stroke="#ff0000" points="445.5,-76.5 445.5,-95.5 534.5,-95.5 534.5,-76.5 445.5,-76.5"/>
<text text-anchor="middle" x="490" y="-83.5" font-family="Helvetica,sans-Serif" font-size="10.00" fill="#000000">JS_NewContext</text>
</a>
</g>
</g>
<!-- Node353509&#45;&gt;Node353510 -->
<g id="edge3" class="edge">
<title>Node353509&#45;&gt;Node353510</title>
<path fill="none" stroke="#191970" d="M406.7125,-86C419.7396,-86 433.1985,-86 445.3987,-86"/>
<polygon fill="#191970" stroke="#191970" points="406.3899,-82.5001 396.3899,-86 406.3898,-89.5001 406.3899,-82.5001"/>
</g>
<!-- Node353515 -->
<g id="node6" class="node">
<title>Node353515</title>
<g id="a_node6"><a xlink:href="quickjs-libc_8c.html#ab1b439d304c2125490b47ef262b5df67" target="_top" xlink:title="js_std_eval_binary">
<polygon fill="none" stroke="#000000" points="294.5,-38.5 294.5,-57.5 392.5,-57.5 392.5,-38.5 294.5,-38.5"/>
<text text-anchor="middle" x="343.5" y="-45.5" font-family="Helvetica,sans-Serif" font-size="10.00" fill="#000000">js_std_eval_binary</text>
</a>
</g>
</g>
<!-- Node353514&#45;&gt;Node353515 -->
<g id="edge5" class="edge">
<title>Node353514&#45;&gt;Node353515</title>
<path fill="none" stroke="#191970" d="M263.0268,-48C273.3877,-48 284.1372,-48 294.2776,-48"/>
<polygon fill="#191970" stroke="#191970" points="262.8323,-44.5001 252.8323,-48 262.8322,-51.5001 262.8323,-44.5001"/>
</g>
<!-- Node353516 -->
<g id="node7" class="node">
<title>Node353516</title>
<g id="a_node7"><a xlink:href="quickjs_8c.html#aa75a2b06808d8da661d4eb6698b17cab" target="_top" xlink:title="JS_RunModule">
<polygon fill="none" stroke="#000000" points="302,-.5 302,-19.5 385,-19.5 385,-.5 302,-.5"/>
<text text-anchor="middle" x="343.5" y="-7.5" font-family="Helvetica,sans-Serif" font-size="10.00" fill="#000000">JS_RunModule</text>
</a>
</g>
</g>
<!-- Node353514&#45;&gt;Node353516 -->
<g id="edge6" class="edge">
<title>Node353514&#45;&gt;Node353516</title>
<path fill="none" stroke="#191970" d="M251.2487,-35.6817C270.003,-30.4607 291.528,-24.4684 309.0663,-19.5859"/>
<polygon fill="#191970" stroke="#191970" points="250.1397,-32.3572 241.4447,-38.411 252.0171,-39.1008 250.1397,-32.3572"/>
</g>
<!-- Node353517 -->
<g id="node8" class="node">
<title>Node353517</title>
<g id="a_node8"><a xlink:href="quickjs_8c.html#a6357b7fdae71c70c140e78e6c20cb5c2" target="_top" xlink:title="js_dynamic_import_job">
<polygon fill="none" stroke="#ff0000" points="432,-.5 432,-19.5 548,-19.5 548,-.5 432,-.5"/>
<text text-anchor="middle" x="490" y="-7.5" font-family="Helvetica,sans-Serif" font-size="10.00" fill="#000000">js_dynamic_import_job</text>
</a>
</g>
</g>
<!-- Node353516&#45;&gt;Node353517 -->
<g id="edge7" class="edge">
<title>Node353516&#45;&gt;Node353517</title>
<path fill="none" stroke="#191970" d="M395.2612,-10C407.1178,-10 419.7985,-10 431.9021,-10"/>
<polygon fill="#191970" stroke="#191970" points="395.0892,-6.5001 385.0892,-10 395.0891,-13.5001 395.0892,-6.5001"/>
</g>
</g>
</svg>
