<?xml version="1.0" encoding="UTF-8" standalone="no"?>
<!DOCTYPE svg PUBLIC "-//W3C//DTD SVG 1.1//EN"
 "http://www.w3.org/Graphics/SVG/1.1/DTD/svg11.dtd">
<!-- Generated by graphviz version 2.40.1 (20161225.0304)
 -->
<!-- Title: js_array_push Pages: 1 -->
<svg width="801pt" height="862pt"
 viewBox="0.00 0.00 801.00 862.02" xmlns="http://www.w3.org/2000/svg" xmlns:xlink="http://www.w3.org/1999/xlink">
<g id="graph0" class="graph" transform="scale(1 1) rotate(0) translate(4 858.0221)">
<title>js_array_push</title>
<!-- Node398146 -->
<g id="node1" class="node">
<title>Node398146</title>
<polygon fill="#bfbfbf" stroke="#000000" points="0,-167.7796 0,-186.7796 77,-186.7796 77,-167.7796 0,-167.7796"/>
<text text-anchor="middle" x="38.5" y="-174.7796" font-family="Helvetica,sans-Serif" font-size="10.00" fill="#000000">js_array_push</text>
</g>
<!-- Node398147 -->
<g id="node2" class="node">
<title>Node398147</title>
<g id="a_node2"><a xlink:href="quickjs_8c.html#a6c99d7581e100a5de07c9a24f4c7d34a" target="_top" xlink:title="JS_CopySubArray">
<polygon fill="none" stroke="#000000" points="113,-414.7796 113,-433.7796 211,-433.7796 211,-414.7796 113,-414.7796"/>
<text text-anchor="middle" x="162" y="-421.7796" font-family="Helvetica,sans-Serif" font-size="10.00" fill="#000000">JS_CopySubArray</text>
</a>
</g>
</g>
<!-- Node398146&#45;&gt;Node398147 -->
<g id="edge1" class="edge">
<title>Node398146&#45;&gt;Node398147</title>
<path fill="none" stroke="#191970" d="M43.3413,-186.9622C61.7856,-223.8508 127.8574,-355.9944 152.5769,-405.4334"/>
<polygon fill="#191970" stroke="#191970" points="149.5894,-407.2848 157.1921,-414.6638 155.8504,-404.1543 149.5894,-407.2848"/>
</g>
<!-- Node398204 -->
<g id="node6" class="node">
<title>Node398204</title>
<g id="a_node6"><a xlink:href="quickjs_8h.html#afaa20c47565bc704c6c85f3d77254e7d" target="_top" xlink:title="JS_FreeValue">
<polygon fill="none" stroke="#ff0000" points="572.5,-414.7796 572.5,-433.7796 650.5,-433.7796 650.5,-414.7796 572.5,-414.7796"/>
<text text-anchor="middle" x="611.5" y="-421.7796" font-family="Helvetica,sans-Serif" font-size="10.00" fill="#000000">JS_FreeValue</text>
</a>
</g>
</g>
<!-- Node398146&#45;&gt;Node398204 -->
<g id="edge41" class="edge">
<title>Node398146&#45;&gt;Node398204</title>
<path fill="none" stroke="#191970" d="M62.896,-167.727C139.8182,-139.3654 380.201,-64.4189 516,-177.2796 582.0992,-232.2137 511.0173,-291.733 552,-367.2796 560.9528,-383.7829 576.3654,-398.3467 589.2608,-408.6217"/>
<polygon fill="#191970" stroke="#191970" points="587.203,-411.4541 597.2781,-414.7318 591.4461,-405.8866 587.203,-411.4541"/>
</g>
<!-- Node398219 -->
<g id="node8" class="node">
<title>Node398219</title>
<g id="a_node8"><a xlink:href="quickjs_8c.html#a710289a14c2810467e5b448d3c28bd55" target="_top" xlink:title="JS_ToObject">
<polygon fill="none" stroke="#ff0000" points="574.5,-338.7796 574.5,-357.7796 648.5,-357.7796 648.5,-338.7796 574.5,-338.7796"/>
<text text-anchor="middle" x="611.5" y="-345.7796" font-family="Helvetica,sans-Serif" font-size="10.00" fill="#000000">JS_ToObject</text>
</a>
</g>
</g>
<!-- Node398146&#45;&gt;Node398219 -->
<g id="edge53" class="edge">
<title>Node398146&#45;&gt;Node398219</title>
<path fill="none" stroke="#191970" d="M68.0187,-167.733C147.1446,-144.0289 368.0046,-90.4207 516,-177.2796 572.6081,-210.503 598.1453,-290.8471 607.2833,-328.3618"/>
<polygon fill="#191970" stroke="#191970" points="603.9673,-329.5619 609.609,-338.5297 610.7911,-328.001 603.9673,-329.5619"/>
</g>
<!-- Node398183 -->
<g id="node9" class="node">
<title>Node398183</title>
<g id="a_node9"><a xlink:href="quickjs_8h.html#a775522f2d084fc8fa0fcb33f390006b4" target="_top" xlink:title="JS_DupValue">
<polygon fill="none" stroke="#000000" points="711.5,-528.7796 711.5,-547.7796 788.5,-547.7796 788.5,-528.7796 711.5,-528.7796"/>
<text text-anchor="middle" x="750" y="-535.7796" font-family="Helvetica,sans-Serif" font-size="10.00" fill="#000000">JS_DupValue</text>
</a>
</g>
</g>
<!-- Node398146&#45;&gt;Node398183 -->
<g id="edge40" class="edge">
<title>Node398146&#45;&gt;Node398183</title>
<path fill="none" stroke="#191970" d="M48.7128,-167.6745C62.3039,-155.4417 87.5889,-134.5428 113,-123.2796 193.9648,-87.3927 219.4384,-82.2796 308,-82.2796 308,-82.2796 308,-82.2796 460.5,-82.2796 670.5014,-82.2796 734.6303,-431.2341 747.3974,-518.6218"/>
<polygon fill="#191970" stroke="#191970" points="743.9633,-519.3367 748.815,-528.7553 750.8958,-518.3669 743.9633,-519.3367"/>
</g>
<!-- Node398581 -->
<g id="node13" class="node">
<title>Node398581</title>
<g id="a_node13"><a xlink:href="quickjs_8c.html#a51b06daa618640e531fe808770553b96" target="_top" xlink:title="JS_SetPropertyInt64">
<polygon fill="none" stroke="#000000" points="254.5,-338.7796 254.5,-357.7796 361.5,-357.7796 361.5,-338.7796 254.5,-338.7796"/>
<text text-anchor="middle" x="308" y="-345.7796" font-family="Helvetica,sans-Serif" font-size="10.00" fill="#000000">JS_SetPropertyInt64</text>
</a>
</g>
</g>
<!-- Node398146&#45;&gt;Node398581 -->
<g id="edge52" class="edge">
<title>Node398146&#45;&gt;Node398581</title>
<path fill="none" stroke="#191970" d="M53.7617,-186.9632C98.6025,-215.4151 230.1852,-298.9054 284.3198,-333.2543"/>
<polygon fill="#191970" stroke="#191970" points="282.5868,-336.2998 292.9057,-338.7021 286.3372,-330.3892 282.5868,-336.2998"/>
</g>
<!-- Node398437 -->
<g id="node14" class="node">
<title>Node398437</title>
<g id="a_node14"><a xlink:href="quickjs_8h.html#af763b173e78debf2075670ca2c128a30" target="_top" xlink:title="JS_SetProperty">
<polygon fill="none" stroke="#ff0000" points="417.5,-186.7796 417.5,-205.7796 503.5,-205.7796 503.5,-186.7796 417.5,-186.7796"/>
<text text-anchor="middle" x="460.5" y="-193.7796" font-family="Helvetica,sans-Serif" font-size="10.00" fill="#000000">JS_SetProperty</text>
</a>
</g>
</g>
<!-- Node398146&#45;&gt;Node398437 -->
<g id="edge51" class="edge">
<title>Node398146&#45;&gt;Node398437</title>
<path fill="none" stroke="#191970" d="M77.0684,-179.016C152.8324,-182.4272 321.2007,-190.0078 407.4029,-193.8889"/>
<polygon fill="#191970" stroke="#191970" points="407.3489,-197.3899 417.4963,-194.3434 407.6638,-190.397 407.3489,-197.3899"/>
</g>
<!-- Node398583 -->
<g id="node20" class="node">
<title>Node398583</title>
<g id="a_node20"><a xlink:href="quickjs_8c.html#a5f848f76409193212a44e6221e430919" target="_top" xlink:title="js_get_length64">
<polygon fill="none" stroke="#000000" points="265.5,-775.7796 265.5,-794.7796 350.5,-794.7796 350.5,-775.7796 265.5,-775.7796"/>
<text text-anchor="middle" x="308" y="-782.7796" font-family="Helvetica,sans-Serif" font-size="10.00" fill="#000000">js_get_length64</text>
</a>
</g>
</g>
<!-- Node398146&#45;&gt;Node398583 -->
<g id="edge42" class="edge">
<title>Node398146&#45;&gt;Node398583</title>
<path fill="none" stroke="#191970" d="M40.3678,-187.233C47.2499,-222.8942 72.8923,-347.2508 113,-443.2796 167.6897,-574.2217 261.9308,-717.7199 295.5984,-767.2819"/>
<polygon fill="#191970" stroke="#191970" points="292.795,-769.3831 301.3263,-775.6655 298.5748,-765.4341 292.795,-769.3831"/>
</g>
<!-- Node398376 -->
<g id="node23" class="node">
<title>Node398376</title>
<g id="a_node23"><a xlink:href="quickjs_8h.html#a6acbc709e59969eac6775f9b253b438f" target="_top" xlink:title="JS_NewInt64">
<polygon fill="none" stroke="#ff0000" points="124,-34.7796 124,-53.7796 200,-53.7796 200,-34.7796 124,-34.7796"/>
<text text-anchor="middle" x="162" y="-41.7796" font-family="Helvetica,sans-Serif" font-size="10.00" fill="#000000">JS_NewInt64</text>
</a>
</g>
</g>
<!-- Node398146&#45;&gt;Node398376 -->
<g id="edge49" class="edge">
<title>Node398146&#45;&gt;Node398376</title>
<path fill="none" stroke="#191970" d="M42.9548,-167.603C52.883,-146.9409 78.6813,-97.9776 113,-68.2796 117.253,-64.5992 122.169,-61.335 127.2117,-58.4919"/>
<polygon fill="#191970" stroke="#191970" points="129.006,-61.5053 136.3096,-53.8301 125.8139,-55.2755 129.006,-61.5053"/>
</g>
<!-- Node398148 -->
<g id="node3" class="node">
<title>Node398148</title>
<g id="a_node3"><a xlink:href="quickjs_8c.html#a70e21308fe3760cd95dd1dbb1a8755e6" target="_top" xlink:title="JS_DeletePropertyInt64">
<polygon fill="none" stroke="#000000" points="247.5,-452.7796 247.5,-471.7796 368.5,-471.7796 368.5,-452.7796 247.5,-452.7796"/>
<text text-anchor="middle" x="308" y="-459.7796" font-family="Helvetica,sans-Serif" font-size="10.00" fill="#000000">JS_DeletePropertyInt64</text>
</a>
</g>
</g>
<!-- Node398147&#45;&gt;Node398148 -->
<g id="edge2" class="edge">
<title>Node398147&#45;&gt;Node398148</title>
<path fill="none" stroke="#191970" d="M198.842,-433.8686C217.8479,-438.8153 241.2286,-444.9007 261.4692,-450.1688"/>
<polygon fill="#191970" stroke="#191970" points="260.8638,-453.6278 271.423,-452.7595 262.627,-446.8535 260.8638,-453.6278"/>
</g>
<!-- Node398147&#45;&gt;Node398581 -->
<g id="edge15" class="edge">
<title>Node398147&#45;&gt;Node398581</title>
<path fill="none" stroke="#191970" d="M180.491,-414.6541C205.8322,-401.4628 251.5341,-377.6727 280.7863,-362.4456"/>
<polygon fill="#191970" stroke="#191970" points="282.405,-365.5488 289.6591,-357.8269 279.1729,-359.3397 282.405,-365.5488"/>
</g>
<!-- Node398582 -->
<g id="node16" class="node">
<title>Node398582</title>
<g id="a_node16"><a xlink:href="quickjs_8c.html#a14674e74168715dc5a3a391910982e5d" target="_top" xlink:title="JS_TryGetPropertyInt64">
<polygon fill="none" stroke="#000000" points="247,-566.7796 247,-585.7796 369,-585.7796 369,-566.7796 247,-566.7796"/>
<text text-anchor="middle" x="308" y="-573.7796" font-family="Helvetica,sans-Serif" font-size="10.00" fill="#000000">JS_TryGetPropertyInt64</text>
</a>
</g>
</g>
<!-- Node398147&#45;&gt;Node398582 -->
<g id="edge24" class="edge">
<title>Node398147&#45;&gt;Node398582</title>
<path fill="none" stroke="#191970" d="M171.133,-433.7878C195.3042,-458.9524 261.1887,-527.5445 291.8743,-559.4911"/>
<polygon fill="#191970" stroke="#191970" points="289.419,-561.9874 298.8705,-566.7749 294.4674,-557.1383 289.419,-561.9874"/>
</g>
<!-- Node398149 -->
<g id="node4" class="node">
<title>Node398149</title>
<g id="a_node4"><a xlink:href="quickjs_8c.html#a877fcb7651d95b411ce70e62b7f4a1f0" target="_top" xlink:title="__JS_AtomFromUInt32">
<polygon fill="none" stroke="#000000" points="552,-642.7796 552,-661.7796 671,-661.7796 671,-642.7796 552,-642.7796"/>
<text text-anchor="middle" x="611.5" y="-649.7796" font-family="Helvetica,sans-Serif" font-size="10.00" fill="#000000">__JS_AtomFromUInt32</text>
</a>
</g>
</g>
<!-- Node398148&#45;&gt;Node398149 -->
<g id="edge3" class="edge">
<title>Node398148&#45;&gt;Node398149</title>
<path fill="none" stroke="#191970" d="M314.841,-472.0071C326.6041,-488.9282 351.1211,-525.0589 369,-557.2796 387.1346,-589.961 374.367,-611.8656 405,-633.2796 444.3369,-660.7779 498.7035,-664.7891 541.7788,-662.318"/>
<polygon fill="#191970" stroke="#191970" points="542.1769,-665.7988 551.9074,-661.6075 541.6869,-658.8159 542.1769,-665.7988"/>
</g>
<!-- Node398150 -->
<g id="node5" class="node">
<title>Node398150</title>
<g id="a_node5"><a xlink:href="quickjs_8c.html#a2b88ed25233c441cbed7b0a027c9ee2f" target="_top" xlink:title="JS_DeleteProperty">
<polygon fill="none" stroke="#ff0000" points="411,-338.7796 411,-357.7796 510,-357.7796 510,-338.7796 411,-338.7796"/>
<text text-anchor="middle" x="460.5" y="-345.7796" font-family="Helvetica,sans-Serif" font-size="10.00" fill="#000000">JS_DeleteProperty</text>
</a>
</g>
</g>
<!-- Node398148&#45;&gt;Node398150 -->
<g id="edge4" class="edge">
<title>Node398148&#45;&gt;Node398150</title>
<path fill="none" stroke="#191970" d="M315.2329,-452.7767C330.0723,-433.8944 365.8722,-391.3989 405,-367.2796 408.224,-365.2922 411.6825,-363.4813 415.2393,-361.8375"/>
<polygon fill="#191970" stroke="#191970" points="416.898,-364.9385 424.7905,-357.8703 414.2128,-358.474 416.898,-364.9385"/>
</g>
<!-- Node398203 -->
<g id="node11" class="node">
<title>Node398203</title>
<g id="a_node11"><a xlink:href="quickjs_8c.html#ab7fc45a99935a1c0ba50b0216d9401a9" target="_top" xlink:title="JS_FreeAtom">
<polygon fill="none" stroke="#ff0000" points="573,-452.7796 573,-471.7796 650,-471.7796 650,-452.7796 573,-452.7796"/>
<text text-anchor="middle" x="611.5" y="-459.7796" font-family="Helvetica,sans-Serif" font-size="10.00" fill="#000000">JS_FreeAtom</text>
</a>
</g>
</g>
<!-- Node398148&#45;&gt;Node398203 -->
<g id="edge11" class="edge">
<title>Node398148&#45;&gt;Node398203</title>
<path fill="none" stroke="#191970" d="M368.6883,-462.2796C425.6116,-462.2796 509.6624,-462.2796 562.458,-462.2796"/>
<polygon fill="#191970" stroke="#191970" points="562.5831,-465.7797 572.583,-462.2796 562.583,-458.7797 562.5831,-465.7797"/>
</g>
<!-- Node398580 -->
<g id="node12" class="node">
<title>Node398580</title>
<g id="a_node12"><a xlink:href="quickjs_8c.html#aa641af3a921335927dab07dc83285917" target="_top" xlink:title="JS_NewAtomInt64">
<polygon fill="none" stroke="#ff0000" points="411,-604.7796 411,-623.7796 510,-623.7796 510,-604.7796 411,-604.7796"/>
<text text-anchor="middle" x="460.5" y="-611.7796" font-family="Helvetica,sans-Serif" font-size="10.00" fill="#000000">JS_NewAtomInt64</text>
</a>
</g>
</g>
<!-- Node398148&#45;&gt;Node398580 -->
<g id="edge12" class="edge">
<title>Node398148&#45;&gt;Node398580</title>
<path fill="none" stroke="#191970" d="M313.9305,-471.8943C331.0471,-499.3831 380.8459,-577.4735 405,-595.2796 407.6233,-597.2134 410.4579,-598.9606 413.4101,-600.5377"/>
<polygon fill="#191970" stroke="#191970" points="411.9818,-603.7334 422.5254,-604.775 414.9326,-597.3857 411.9818,-603.7334"/>
</g>
<!-- Node398150&#45;&gt;Node398204 -->
<g id="edge5" class="edge">
<title>Node398150&#45;&gt;Node398204</title>
<path fill="none" stroke="#191970" d="M495.5278,-357.8134C502.5467,-360.3944 509.6952,-363.5354 516,-367.2796 534.6623,-378.3624 533.6411,-388.701 552,-400.2796 558.2829,-404.242 565.33,-407.7687 572.3169,-410.8177"/>
<polygon fill="#191970" stroke="#191970" points="571.1493,-414.1217 581.7296,-414.6755 573.8039,-407.6446 571.1493,-414.1217"/>
</g>
<!-- Node398218 -->
<g id="node7" class="node">
<title>Node398218</title>
<g id="a_node7"><a xlink:href="quickjs_8h.html#ad80a83d73e9b7d872b88fbf2943aebe9" target="_top" xlink:title="JS_IsException">
<polygon fill="none" stroke="#000000" points="707,-604.7796 707,-623.7796 793,-623.7796 793,-604.7796 707,-604.7796"/>
<text text-anchor="middle" x="750" y="-611.7796" font-family="Helvetica,sans-Serif" font-size="10.00" fill="#000000">JS_IsException</text>
</a>
</g>
</g>
<!-- Node398150&#45;&gt;Node398218 -->
<g id="edge6" class="edge">
<title>Node398150&#45;&gt;Node398218</title>
<path fill="none" stroke="#191970" d="M505.4301,-357.8847C563.7206,-370.7318 659.3767,-393.2796 671,-405.2796 719.3017,-455.1464 677.4652,-494.4508 707,-557.2796 713.8242,-571.7966 724.7368,-586.202 733.8606,-596.8991"/>
<polygon fill="#191970" stroke="#191970" points="731.4361,-599.4409 740.682,-604.6142 736.6803,-594.8042 731.4361,-599.4409"/>
</g>
<!-- Node398150&#45;&gt;Node398219 -->
<g id="edge7" class="edge">
<title>Node398150&#45;&gt;Node398219</title>
<path fill="none" stroke="#191970" d="M510.3615,-348.2796C527.5773,-348.2796 546.8112,-348.2796 563.8457,-348.2796"/>
<polygon fill="#191970" stroke="#191970" points="564.1303,-351.7797 574.1302,-348.2796 564.1302,-344.7797 564.1303,-351.7797"/>
</g>
<!-- Node398219&#45;&gt;Node398218 -->
<g id="edge9" class="edge">
<title>Node398219&#45;&gt;Node398218</title>
<path fill="none" stroke="#191970" d="M648.5411,-356.7054C656.994,-360.2397 665.1876,-365.2341 671,-372.2796 724.3059,-436.8936 672.9017,-480.7694 707,-557.2796 713.5299,-571.9314 724.4456,-586.3352 733.6447,-596.9979"/>
<polygon fill="#191970" stroke="#191970" points="731.2541,-599.5745 740.5375,-604.6804 736.4644,-594.8998 731.2541,-599.5745"/>
</g>
<!-- Node398219&#45;&gt;Node398183 -->
<g id="edge8" class="edge">
<title>Node398219&#45;&gt;Node398183</title>
<path fill="none" stroke="#191970" d="M647.3779,-357.795C655.8531,-361.3086 664.3483,-366.0204 671,-372.2796 714.8546,-413.5463 736.9778,-484.1518 745.5813,-518.436"/>
<polygon fill="#191970" stroke="#191970" points="742.2739,-519.6566 747.9926,-528.5756 749.084,-518.0371 742.2739,-519.6566"/>
</g>
<!-- Node398282 -->
<g id="node10" class="node">
<title>Node398282</title>
<g id="a_node10"><a xlink:href="quickjs_8h.html#a2050bc428da1c65ac7eb87c3fa3b0392" target="_top" xlink:title="JS_NewInt32">
<polygon fill="none" stroke="#000000" points="712,-300.7796 712,-319.7796 788,-319.7796 788,-300.7796 712,-300.7796"/>
<text text-anchor="middle" x="750" y="-307.7796" font-family="Helvetica,sans-Serif" font-size="10.00" fill="#000000">JS_NewInt32</text>
</a>
</g>
</g>
<!-- Node398219&#45;&gt;Node398282 -->
<g id="edge10" class="edge">
<title>Node398219&#45;&gt;Node398282</title>
<path fill="none" stroke="#191970" d="M646.4494,-338.6905C664.3284,-333.7851 686.2884,-327.76 705.3778,-322.5225"/>
<polygon fill="#191970" stroke="#191970" points="706.3443,-325.8867 715.0618,-319.8655 704.4921,-319.1362 706.3443,-325.8867"/>
</g>
<!-- Node398580&#45;&gt;Node398149 -->
<g id="edge13" class="edge">
<title>Node398580&#45;&gt;Node398149</title>
<path fill="none" stroke="#191970" d="M498.6037,-623.8686C518.44,-628.8605 542.8839,-635.0119 563.9483,-640.3129"/>
<polygon fill="#191970" stroke="#191970" points="563.1185,-643.7131 573.6703,-642.7595 564.8269,-636.9248 563.1185,-643.7131"/>
</g>
<!-- Node398580&#45;&gt;Node398218 -->
<g id="edge14" class="edge">
<title>Node398580&#45;&gt;Node398218</title>
<path fill="none" stroke="#191970" d="M510.2668,-614.2796C562.1006,-614.2796 643.0275,-614.2796 696.2834,-614.2796"/>
<polygon fill="#191970" stroke="#191970" points="696.5489,-617.7797 706.5488,-614.2796 696.5488,-610.7797 696.5489,-617.7797"/>
</g>
<!-- Node398581&#45;&gt;Node398204 -->
<g id="edge17" class="edge">
<title>Node398581&#45;&gt;Node398204</title>
<path fill="none" stroke="#191970" d="M332.577,-338.7032C372.7543,-324.6168 454.2087,-302.7011 516,-329.2796 537.3713,-338.472 535.5954,-350.7834 552,-367.2796 565.7687,-381.1251 581.7706,-396.4111 593.7096,-407.6651"/>
<polygon fill="#191970" stroke="#191970" points="591.5631,-410.4506 601.2486,-414.7449 596.355,-405.3479 591.5631,-410.4506"/>
</g>
<!-- Node398581&#45;&gt;Node398282 -->
<g id="edge19" class="edge">
<title>Node398581&#45;&gt;Node398282</title>
<path fill="none" stroke="#191970" d="M329.1041,-338.7163C348.4444,-330.3733 378.078,-318.6371 405,-312.2796 520.2656,-285.0601 553.0192,-285.9064 671,-296.2796 680.9903,-297.1579 691.6101,-298.6496 701.715,-300.3402"/>
<polygon fill="#191970" stroke="#191970" points="701.1505,-303.7946 711.606,-302.0817 702.3644,-296.9006 701.1505,-303.7946"/>
</g>
<!-- Node398581&#45;&gt;Node398203 -->
<g id="edge16" class="edge">
<title>Node398581&#45;&gt;Node398203</title>
<path fill="none" stroke="#191970" d="M321.533,-357.7871C339.7511,-370.2141 373.5202,-391.9591 405,-405.2796 457.1615,-427.3514 520.341,-443.3345 562.9701,-452.6621"/>
<polygon fill="#191970" stroke="#191970" points="562.298,-456.0975 572.8102,-454.7768 563.7688,-449.2537 562.298,-456.0975"/>
</g>
<!-- Node398581&#45;&gt;Node398580 -->
<g id="edge18" class="edge">
<title>Node398581&#45;&gt;Node398580</title>
<path fill="none" stroke="#191970" d="M315.7825,-357.9113C328.7266,-374.4036 354.67,-409.5442 369,-443.2796 396.1426,-507.1782 358.3544,-543.8603 405,-595.2796 406.1996,-596.602 407.4952,-597.8323 408.868,-598.9771"/>
<polygon fill="#191970" stroke="#191970" points="407.1709,-602.0507 417.444,-604.6419 411.0291,-596.2099 407.1709,-602.0507"/>
</g>
<!-- Node398581&#45;&gt;Node398437 -->
<g id="edge20" class="edge">
<title>Node398581&#45;&gt;Node398437</title>
<path fill="none" stroke="#191970" d="M313.0251,-338.5846C325.5673,-315.2318 360.4678,-255.2161 405,-220.2796 409.9866,-216.3675 415.708,-212.9658 421.5404,-210.0513"/>
<polygon fill="#191970" stroke="#191970" points="423.062,-213.2042 430.707,-205.8691 420.1564,-206.8357 423.062,-213.2042"/>
</g>
<!-- Node398451 -->
<g id="node15" class="node">
<title>Node398451</title>
<g id="a_node15"><a xlink:href="quickjs_8c.html#aee75cc1546e19479e3ccda58f3b50a96" target="_top" xlink:title="JS_SetPropertyValue">
<polygon fill="none" stroke="#ff0000" points="405.5,-376.7796 405.5,-395.7796 515.5,-395.7796 515.5,-376.7796 405.5,-376.7796"/>
<text text-anchor="middle" x="460.5" y="-383.7796" font-family="Helvetica,sans-Serif" font-size="10.00" fill="#000000">JS_SetPropertyValue</text>
</a>
</g>
</g>
<!-- Node398581&#45;&gt;Node398451 -->
<g id="edge21" class="edge">
<title>Node398581&#45;&gt;Node398451</title>
<path fill="none" stroke="#191970" d="M346.4822,-357.8686C366.5156,-362.8605 391.2023,-369.0119 412.476,-374.3129"/>
<polygon fill="#191970" stroke="#191970" points="411.745,-377.7377 422.2945,-376.7595 413.4375,-370.9454 411.745,-377.7377"/>
</g>
<!-- Node398451&#45;&gt;Node398204 -->
<g id="edge23" class="edge">
<title>Node398451&#45;&gt;Node398204</title>
<path fill="none" stroke="#191970" d="M498.6037,-395.8686C518.44,-400.8605 542.8839,-407.0119 563.9483,-412.3129"/>
<polygon fill="#191970" stroke="#191970" points="563.1185,-415.7131 573.6703,-414.7595 564.8269,-408.9248 563.1185,-415.7131"/>
</g>
<!-- Node398451&#45;&gt;Node398203 -->
<g id="edge22" class="edge">
<title>Node398451&#45;&gt;Node398203</title>
<path fill="none" stroke="#191970" d="M487.3965,-395.7938C496.795,-399.659 507.1907,-404.5701 516,-410.2796 534.2142,-422.0844 533.2237,-432.3909 552,-443.2796 555.6408,-445.3909 559.5453,-447.2988 563.5499,-449.0164"/>
<polygon fill="#191970" stroke="#191970" points="562.4096,-452.3281 572.9984,-452.6849 564.9432,-445.8027 562.4096,-452.3281"/>
</g>
<!-- Node398582&#45;&gt;Node398149 -->
<g id="edge25" class="edge">
<title>Node398582&#45;&gt;Node398149</title>
<path fill="none" stroke="#191970" d="M314.3689,-585.7828C328.1405,-605.3626 362.8724,-649.7461 405,-666.2796 460.2754,-687.9731 530.2351,-675.8259 572.8885,-664.488"/>
<polygon fill="#191970" stroke="#191970" points="573.8981,-667.8402 582.5987,-661.7946 572.027,-661.0948 573.8981,-667.8402"/>
</g>
<!-- Node398582&#45;&gt;Node398218 -->
<g id="edge37" class="edge">
<title>Node398582&#45;&gt;Node398218</title>
<path fill="none" stroke="#191970" d="M309.3207,-585.9405C314.4245,-619.1192 336.1364,-728.9132 405,-775.2796 503.1345,-841.3542 571.3351,-849.0224 671,-785.2796 724.1797,-751.2674 742.0775,-671.3239 747.6648,-634.0541"/>
<polygon fill="#191970" stroke="#191970" points="751.1586,-634.3343 749.029,-623.9557 744.2216,-633.3971 751.1586,-634.3343"/>
</g>
<!-- Node398582&#45;&gt;Node398282 -->
<g id="edge39" class="edge">
<title>Node398582&#45;&gt;Node398282</title>
<path fill="none" stroke="#191970" d="M315.7825,-566.6478C328.7266,-550.1555 354.67,-515.0149 369,-481.2796 396.1426,-417.3809 351.7508,-373.8247 405,-329.2796 448.7264,-292.7006 617.7069,-299.9652 701.8421,-306.1329"/>
<polygon fill="#191970" stroke="#191970" points="701.6758,-309.6303 711.9116,-306.8957 702.2046,-302.6503 701.6758,-309.6303"/>
</g>
<!-- Node398582&#45;&gt;Node398203 -->
<g id="edge26" class="edge">
<title>Node398582&#45;&gt;Node398203</title>
<path fill="none" stroke="#191970" d="M352.2974,-566.7205C404.5859,-554.9917 487.9783,-534.7597 516,-519.2796 534.9988,-508.784 533.6411,-497.8581 552,-486.2796 558.2829,-482.3171 565.33,-478.7904 572.3169,-475.7414"/>
<polygon fill="#191970" stroke="#191970" points="573.8039,-478.9146 581.7296,-471.8836 571.1493,-472.4374 573.8039,-478.9146"/>
</g>
<!-- Node398582&#45;&gt;Node398580 -->
<g id="edge38" class="edge">
<title>Node398582&#45;&gt;Node398580</title>
<path fill="none" stroke="#191970" d="M346.4822,-585.8686C366.5156,-590.8605 391.2023,-597.0119 412.476,-602.3129"/>
<polygon fill="#191970" stroke="#191970" points="411.745,-605.7377 422.2945,-604.7595 413.4375,-598.9454 411.745,-605.7377"/>
</g>
<!-- Node398278 -->
<g id="node17" class="node">
<title>Node398278</title>
<g id="a_node17"><a xlink:href="quickjs_8h.html#a89b7c8686c7eee70b86be722ee4730ad" target="_top" xlink:title="JS_GetProperty">
<polygon fill="none" stroke="#ff0000" points="568.5,-756.7796 568.5,-775.7796 654.5,-775.7796 654.5,-756.7796 568.5,-756.7796"/>
<text text-anchor="middle" x="611.5" y="-763.7796" font-family="Helvetica,sans-Serif" font-size="10.00" fill="#000000">JS_GetProperty</text>
</a>
</g>
</g>
<!-- Node398582&#45;&gt;Node398278 -->
<g id="edge27" class="edge">
<title>Node398582&#45;&gt;Node398278</title>
<path fill="none" stroke="#191970" d="M310.1212,-585.7948C317.3312,-615.6539 343.9231,-707.8481 405,-747.2796 450.4582,-776.6275 513.7144,-778.0648 558.2029,-774.2479"/>
<polygon fill="#191970" stroke="#191970" points="558.6264,-777.7233 568.2403,-773.271 557.9483,-770.7562 558.6264,-777.7233"/>
</g>
<!-- Node398304 -->
<g id="node18" class="node">
<title>Node398304</title>
<g id="a_node18"><a xlink:href="quickjs_8c.html#a90d6e607f6917d817c1e997bd2e6ed07" target="_top" xlink:title="JS_GetPropertyValue">
<polygon fill="none" stroke="#ff0000" points="405,-566.7796 405,-585.7796 516,-585.7796 516,-566.7796 405,-566.7796"/>
<text text-anchor="middle" x="460.5" y="-573.7796" font-family="Helvetica,sans-Serif" font-size="10.00" fill="#000000">JS_GetPropertyValue</text>
</a>
</g>
</g>
<!-- Node398582&#45;&gt;Node398304 -->
<g id="edge28" class="edge">
<title>Node398582&#45;&gt;Node398304</title>
<path fill="none" stroke="#191970" d="M369.1489,-576.2796C377.5143,-576.2796 386.1324,-576.2796 394.5782,-576.2796"/>
<polygon fill="#191970" stroke="#191970" points="394.7663,-579.7797 404.7663,-576.2796 394.7663,-572.7797 394.7663,-579.7797"/>
</g>
<!-- Node398420 -->
<g id="node19" class="node">
<title>Node398420</title>
<g id="a_node19"><a xlink:href="quickjs_8c.html#a9d6d0a9704951d01c128975e0d2213f8" target="_top" xlink:title="JS_HasProperty">
<polygon fill="none" stroke="#ff0000" points="416,-490.7796 416,-509.7796 505,-509.7796 505,-490.7796 416,-490.7796"/>
<text text-anchor="middle" x="460.5" y="-497.7796" font-family="Helvetica,sans-Serif" font-size="10.00" fill="#000000">JS_HasProperty</text>
</a>
</g>
</g>
<!-- Node398582&#45;&gt;Node398420 -->
<g id="edge34" class="edge">
<title>Node398582&#45;&gt;Node398420</title>
<path fill="none" stroke="#191970" d="M324.9475,-566.6344C344.1337,-555.8471 376.4409,-538.0795 405,-524.2796 412.3106,-520.747 420.2698,-517.1583 427.8183,-513.8698"/>
<polygon fill="#191970" stroke="#191970" points="429.2733,-517.0542 437.0804,-509.8918 426.5108,-510.6223 429.2733,-517.0542"/>
</g>
<!-- Node398304&#45;&gt;Node398204 -->
<g id="edge31" class="edge">
<title>Node398304&#45;&gt;Node398204</title>
<path fill="none" stroke="#191970" d="M471.844,-566.6934C483.9332,-556.0428 503.0753,-537.8818 516,-519.2796 537.326,-488.5853 523.8702,-467.8895 552,-443.2796 555.2594,-440.428 558.9499,-438.0037 562.8578,-435.9428"/>
<polygon fill="#191970" stroke="#191970" points="564.5507,-439.0207 572.2697,-431.7635 561.7098,-432.6231 564.5507,-439.0207"/>
</g>
<!-- Node398304&#45;&gt;Node398183 -->
<g id="edge29" class="edge">
<title>Node398304&#45;&gt;Node398183</title>
<path fill="none" stroke="#191970" d="M516.0212,-570.8962C558.534,-566.545 618.5858,-559.9044 671,-552.2796 680.7187,-550.8657 691.0766,-549.1687 700.9844,-547.4518"/>
<polygon fill="#191970" stroke="#191970" points="701.8614,-550.8512 711.1008,-545.6663 700.6447,-543.9577 701.8614,-550.8512"/>
</g>
<!-- Node398304&#45;&gt;Node398282 -->
<g id="edge33" class="edge">
<title>Node398304&#45;&gt;Node398282</title>
<path fill="none" stroke="#191970" d="M487.8702,-566.6585C538.3792,-548.4731 643.5918,-508.4466 671,-481.2796 715.0118,-437.6551 737.1524,-364.9214 745.686,-330.074"/>
<polygon fill="#191970" stroke="#191970" points="749.1316,-330.709 747.989,-320.176 742.3138,-329.1227 749.1316,-330.709"/>
</g>
<!-- Node398304&#45;&gt;Node398203 -->
<g id="edge30" class="edge">
<title>Node398304&#45;&gt;Node398203</title>
<path fill="none" stroke="#191970" d="M492.3076,-566.7608C500.6837,-563.1805 509.2543,-558.4365 516,-552.2796 540.6791,-529.7544 527.044,-508.4976 552,-486.2796 556.4768,-482.2939 561.7006,-478.9234 567.1595,-476.0855"/>
<polygon fill="#191970" stroke="#191970" points="568.8566,-479.1574 576.4781,-471.7979 565.9306,-472.7983 568.8566,-479.1574"/>
</g>
<!-- Node398304&#45;&gt;Node398278 -->
<g id="edge32" class="edge">
<title>Node398304&#45;&gt;Node398278</title>
<path fill="none" stroke="#191970" d="M503.164,-585.8826C507.9405,-588.3352 512.3799,-591.4142 516,-595.2796 557.861,-639.9761 515.7543,-678.92 552,-728.2796 559.182,-738.0601 569.7075,-745.9589 579.9164,-751.9688"/>
<polygon fill="#191970" stroke="#191970" points="578.2588,-755.0514 588.7144,-756.7637 581.6087,-748.9049 578.2588,-755.0514"/>
</g>
<!-- Node398420&#45;&gt;Node398204 -->
<g id="edge36" class="edge">
<title>Node398420&#45;&gt;Node398204</title>
<path fill="none" stroke="#191970" d="M473.5516,-490.6883C490.7935,-478.3678 522.4417,-456.947 552,-443.2796 556.7382,-441.0886 561.7985,-439.0498 566.8921,-437.1834"/>
<polygon fill="#191970" stroke="#191970" points="568.3433,-440.3851 576.6526,-433.812 566.0579,-433.7687 568.3433,-440.3851"/>
</g>
<!-- Node398420&#45;&gt;Node398183 -->
<g id="edge35" class="edge">
<title>Node398420&#45;&gt;Node398183</title>
<path fill="none" stroke="#191970" d="M505.0999,-506.1338C558.1455,-513.0966 646.3868,-524.6792 701.2093,-531.8752"/>
<polygon fill="#191970" stroke="#191970" points="701.0037,-535.3782 711.3742,-533.2095 701.9148,-528.4377 701.0037,-535.3782"/>
</g>
<!-- Node398583&#45;&gt;Node398218 -->
<g id="edge44" class="edge">
<title>Node398583&#45;&gt;Node398218</title>
<path fill="none" stroke="#191970" d="M327.0896,-794.9615C384.8689,-822.7644 560.6558,-896.1432 671,-820.2796 703.143,-798.1807 734.145,-680.8537 745.4761,-633.8122"/>
<polygon fill="#191970" stroke="#191970" points="748.9155,-634.4761 747.8124,-623.9389 742.1037,-632.8641 748.9155,-634.4761"/>
</g>
<!-- Node398583&#45;&gt;Node398278 -->
<g id="edge43" class="edge">
<title>Node398583&#45;&gt;Node398278</title>
<path fill="none" stroke="#191970" d="M350.707,-785.7663C392.8126,-785.8898 458.9531,-785.1286 516,-780.2796 529.7045,-779.1147 544.4381,-777.2576 558.1323,-775.272"/>
<polygon fill="#191970" stroke="#191970" points="558.9967,-778.6816 568.3674,-773.7378 557.959,-771.7589 558.9967,-778.6816"/>
</g>
<!-- Node398584 -->
<g id="node21" class="node">
<title>Node398584</title>
<g id="a_node21"><a xlink:href="quickjs_8c.html#a07acd485a57197356906928a788a0644" target="_top" xlink:title="JS_ToLengthFree">
<polygon fill="none" stroke="#000000" points="413.5,-718.7796 413.5,-737.7796 507.5,-737.7796 507.5,-718.7796 413.5,-718.7796"/>
<text text-anchor="middle" x="460.5" y="-725.7796" font-family="Helvetica,sans-Serif" font-size="10.00" fill="#000000">JS_ToLengthFree</text>
</a>
</g>
</g>
<!-- Node398583&#45;&gt;Node398584 -->
<g id="edge45" class="edge">
<title>Node398583&#45;&gt;Node398584</title>
<path fill="none" stroke="#191970" d="M333.5251,-775.739C358.7067,-766.3269 397.3966,-751.8657 425.4514,-741.3797"/>
<polygon fill="#191970" stroke="#191970" points="426.75,-744.6309 434.8917,-737.8512 424.2992,-738.0739 426.75,-744.6309"/>
</g>
<!-- Node398584&#45;&gt;Node398204 -->
<g id="edge46" class="edge">
<title>Node398584&#45;&gt;Node398204</title>
<path fill="none" stroke="#191970" d="M467.6946,-718.5867C479.6392,-702.0044 503.4841,-666.7346 516,-633.2796 546.1152,-552.7815 495.0391,-507.6404 552,-443.2796 555.1161,-439.7586 558.8835,-436.8854 562.9922,-434.5414"/>
<polygon fill="#191970" stroke="#191970" points="564.7888,-437.5676 572.4117,-430.2094 561.864,-431.2079 564.7888,-437.5676"/>
</g>
<!-- Node398585 -->
<g id="node22" class="node">
<title>Node398585</title>
<g id="a_node22"><a xlink:href="quickjs_8c.html#a537e88d38784e3df2a19c72f8bd1d77e" target="_top" xlink:title="JS_ToInt64Clamp">
<polygon fill="none" stroke="#ff0000" points="564,-699.7796 564,-718.7796 659,-718.7796 659,-699.7796 564,-699.7796"/>
<text text-anchor="middle" x="611.5" y="-706.7796" font-family="Helvetica,sans-Serif" font-size="10.00" fill="#000000">JS_ToInt64Clamp</text>
</a>
</g>
</g>
<!-- Node398584&#45;&gt;Node398585 -->
<g id="edge47" class="edge">
<title>Node398584&#45;&gt;Node398585</title>
<path fill="none" stroke="#191970" d="M507.863,-722.32C522.3395,-720.4984 538.4264,-718.4742 553.5238,-716.5746"/>
<polygon fill="#191970" stroke="#191970" points="554.301,-720.0045 563.7858,-715.2833 553.4271,-713.0592 554.301,-720.0045"/>
</g>
<!-- Node398585&#45;&gt;Node398183 -->
<g id="edge48" class="edge">
<title>Node398585&#45;&gt;Node398183</title>
<path fill="none" stroke="#191970" d="M632.3265,-699.7131C644.8177,-693.141 660.3026,-683.4173 671,-671.2796 695.7125,-643.2397 687.6449,-627.2533 707,-595.2796 715.4082,-581.3896 726.4693,-566.7912 735.2673,-555.8456"/>
<polygon fill="#191970" stroke="#191970" points="738.1178,-557.8889 741.744,-547.934 732.7013,-553.4548 738.1178,-557.8889"/>
</g>
<!-- Node398376&#45;&gt;Node398282 -->
<g id="edge50" class="edge">
<title>Node398376&#45;&gt;Node398282</title>
<path fill="none" stroke="#191970" d="M193.5373,-34.7311C280.0974,-10.6106 524.6451,43.2544 671,-68.2796 707.515,-96.1069 736.7928,-238.1509 746.5309,-290.7"/>
<polygon fill="#191970" stroke="#191970" points="743.1239,-291.5276 748.3541,-300.7415 750.0113,-290.277 743.1239,-291.5276"/>
</g>
</g>
</svg>
