<?xml version="1.0" encoding="UTF-8" standalone="no"?>
<!DOCTYPE svg PUBLIC "-//W3C//DTD SVG 1.1//EN"
 "http://www.w3.org/Graphics/SVG/1.1/DTD/svg11.dtd">
<!-- Generated by graphviz version 2.40.1 (20161225.0304)
 -->
<!-- Title: JS_ToCStringLen2 Pages: 1 -->
<svg width="567pt" height="940pt"
 viewBox="0.00 0.00 567.00 940.00" xmlns="http://www.w3.org/2000/svg" xmlns:xlink="http://www.w3.org/1999/xlink">
<g id="graph0" class="graph" transform="scale(1 1) rotate(0) translate(4 936)">
<title>JS_ToCStringLen2</title>
<!-- Node112259 -->
<g id="node1" class="node">
<title>Node112259</title>
<polygon fill="#bfbfbf" stroke="#000000" points="0,-836.5 0,-855.5 99,-855.5 99,-836.5 0,-836.5"/>
<text text-anchor="middle" x="49.5" y="-843.5" font-family="Helvetica,sans-Serif" font-size="10.00" fill="#000000">JS_ToCStringLen2</text>
</g>
<!-- Node112260 -->
<g id="node2" class="node">
<title>Node112260</title>
<g id="a_node2"><a xlink:href="quickjs_8c.html#ab0bd3fbfe9b7f004c067b103a6d60d03" target="_top" xlink:title="js_compile_regexp">
<polygon fill="none" stroke="#000000" points="265,-874.5 265,-893.5 363,-893.5 363,-874.5 265,-874.5"/>
<text text-anchor="middle" x="314" y="-881.5" font-family="Helvetica,sans-Serif" font-size="10.00" fill="#000000">js_compile_regexp</text>
</a>
</g>
</g>
<!-- Node112259&#45;&gt;Node112260 -->
<g id="edge1" class="edge">
<title>Node112259&#45;&gt;Node112260</title>
<path fill="none" stroke="#191970" d="M97.9362,-857.7612C109.9929,-860.4128 122.9247,-863.0239 135,-865 178.6396,-872.1415 228.7243,-877.1931 264.7966,-880.2832"/>
<polygon fill="#191970" stroke="#191970" points="98.5768,-854.3179 88.0524,-855.5374 97.0402,-861.1472 98.5768,-854.3179"/>
</g>
<!-- Node112269 -->
<g id="node6" class="node">
<title>Node112269</title>
<g id="a_node6"><a xlink:href="quickjs_8h.html#af931f06630ab719b5f82a16eb27effd1" target="_top" xlink:title="JS_ToCString">
<polygon fill="none" stroke="#ff0000" points="143,-437.5 143,-456.5 221,-456.5 221,-437.5 143,-437.5"/>
<text text-anchor="middle" x="182" y="-444.5" font-family="Helvetica,sans-Serif" font-size="10.00" fill="#000000">JS_ToCString</text>
</a>
</g>
</g>
<!-- Node112259&#45;&gt;Node112269 -->
<g id="edge5" class="edge">
<title>Node112259&#45;&gt;Node112269</title>
<path fill="none" stroke="#191970" d="M55.9544,-826.5637C79.6959,-755.0704 161.6882,-508.1653 178.8392,-456.5182"/>
<polygon fill="#191970" stroke="#191970" points="52.6053,-825.5436 52.7753,-836.137 59.2486,-827.7497 52.6053,-825.5436"/>
</g>
<!-- Node112852 -->
<g id="node30" class="node">
<title>Node112852</title>
<g id="a_node30"><a xlink:href="quickjs_8h.html#a1e7f56471f8608df9405987087a56070" target="_top" xlink:title="JS_ToCStringLen">
<polygon fill="none" stroke="#ff0000" points="135,-836.5 135,-855.5 229,-855.5 229,-836.5 135,-836.5"/>
<text text-anchor="middle" x="182" y="-843.5" font-family="Helvetica,sans-Serif" font-size="10.00" fill="#000000">JS_ToCStringLen</text>
</a>
</g>
</g>
<!-- Node112259&#45;&gt;Node112852 -->
<g id="edge30" class="edge">
<title>Node112259&#45;&gt;Node112852</title>
<path fill="none" stroke="#191970" d="M109.4202,-846C117.8737,-846 126.4659,-846 134.6395,-846"/>
<polygon fill="#191970" stroke="#191970" points="109.2151,-842.5001 99.2151,-846 109.2151,-849.5001 109.2151,-842.5001"/>
</g>
<!-- Node112261 -->
<g id="node3" class="node">
<title>Node112261</title>
<g id="a_node3"><a xlink:href="quickjs_8c.html#a233052710c228313122c39c231a23ddf" target="_top" xlink:title="js_regexp_constructor">
<polygon fill="none" stroke="#ff0000" points="422.5,-912.5 422.5,-931.5 535.5,-931.5 535.5,-912.5 422.5,-912.5"/>
<text text-anchor="middle" x="479" y="-919.5" font-family="Helvetica,sans-Serif" font-size="10.00" fill="#000000">js_regexp_constructor</text>
</a>
</g>
</g>
<!-- Node112260&#45;&gt;Node112261 -->
<g id="edge2" class="edge">
<title>Node112260&#45;&gt;Node112261</title>
<path fill="none" stroke="#191970" d="M365.654,-895.8961C388.8465,-901.2374 415.8383,-907.4537 437.6629,-912.4799"/>
<polygon fill="#191970" stroke="#191970" points="366.1669,-892.4226 355.6365,-893.589 364.5959,-899.2441 366.1669,-892.4226"/>
</g>
<!-- Node112267 -->
<g id="node4" class="node">
<title>Node112267</title>
<g id="a_node4"><a xlink:href="quickjs_8c.html#af55de7fe1d3513a7230dfbfc1cbeec62" target="_top" xlink:title="js_regexp_compile">
<polygon fill="none" stroke="#000000" points="430,-874.5 430,-893.5 528,-893.5 528,-874.5 430,-874.5"/>
<text text-anchor="middle" x="479" y="-881.5" font-family="Helvetica,sans-Serif" font-size="10.00" fill="#000000">js_regexp_compile</text>
</a>
</g>
</g>
<!-- Node112260&#45;&gt;Node112267 -->
<g id="edge3" class="edge">
<title>Node112260&#45;&gt;Node112267</title>
<path fill="none" stroke="#191970" d="M373.1744,-884C391.7492,-884 412.0427,-884 429.8454,-884"/>
<polygon fill="#191970" stroke="#191970" points="373.0587,-880.5001 363.0587,-884 373.0587,-887.5001 373.0587,-880.5001"/>
</g>
<!-- Node112268 -->
<g id="node5" class="node">
<title>Node112268</title>
<g id="a_node5"><a xlink:href="quickjs_8c.html#aa24c64e9ce871601a39b40dbfee0deb4" target="_top" xlink:title="JS_AddIntrinsicRegExpCompiler">
<polygon fill="none" stroke="#ff0000" points="399,-836.5 399,-855.5 559,-855.5 559,-836.5 399,-836.5"/>
<text text-anchor="middle" x="479" y="-843.5" font-family="Helvetica,sans-Serif" font-size="10.00" fill="#000000">JS_AddIntrinsicRegExpCompiler</text>
</a>
</g>
</g>
<!-- Node112260&#45;&gt;Node112268 -->
<g id="edge4" class="edge">
<title>Node112260&#45;&gt;Node112268</title>
<path fill="none" stroke="#191970" d="M365.654,-872.1039C388.8465,-866.7626 415.8383,-860.5463 437.6629,-855.5201"/>
<polygon fill="#191970" stroke="#191970" points="364.5959,-868.7559 355.6365,-874.411 366.1669,-875.5774 364.5959,-868.7559"/>
</g>
<!-- Node112270 -->
<g id="node7" class="node">
<title>Node112270</title>
<g id="a_node7"><a xlink:href="quickjs-libc_8c.html#a2abec3aeee82a6dd3dd063725bbeecfe" target="_top" xlink:title="js_printf_internal">
<polygon fill="none" stroke="#ff0000" points="270,-836.5 270,-855.5 358,-855.5 358,-836.5 270,-836.5"/>
<text text-anchor="middle" x="314" y="-843.5" font-family="Helvetica,sans-Serif" font-size="10.00" fill="#000000">js_printf_internal</text>
</a>
</g>
</g>
<!-- Node112269&#45;&gt;Node112270 -->
<g id="edge6" class="edge">
<title>Node112269&#45;&gt;Node112270</title>
<path fill="none" stroke="#191970" d="M183.882,-466.9692C190.8645,-537.1675 217.3716,-771.3593 265,-827 268.3227,-830.8816 272.5364,-833.9742 277.0923,-836.4372"/>
<polygon fill="#191970" stroke="#191970" points="187.3476,-466.444 182.8972,-456.8292 180.3804,-467.1207 187.3476,-466.444"/>
</g>
<!-- Node112274 -->
<g id="node8" class="node">
<title>Node112274</title>
<g id="a_node8"><a xlink:href="quickjs-libc_8c.html#acedf696011fa506afce358928ffa1522" target="_top" xlink:title="js_loadScript">
<polygon fill="none" stroke="#ff0000" points="277.5,-798.5 277.5,-817.5 350.5,-817.5 350.5,-798.5 277.5,-798.5"/>
<text text-anchor="middle" x="314" y="-805.5" font-family="Helvetica,sans-Serif" font-size="10.00" fill="#000000">js_loadScript</text>
</a>
</g>
</g>
<!-- Node112269&#45;&gt;Node112274 -->
<g id="edge7" class="edge">
<title>Node112269&#45;&gt;Node112274</title>
<path fill="none" stroke="#191970" d="M184.4187,-467.0582C192.6972,-532.6953 221.7939,-739.6872 265,-789 268.3672,-792.8431 272.6059,-795.914 277.1738,-798.3666"/>
<polygon fill="#191970" stroke="#191970" points="187.8546,-466.3238 183.1541,-456.8288 180.9075,-467.1827 187.8546,-466.3238"/>
</g>
<!-- Node112280 -->
<g id="node9" class="node">
<title>Node112280</title>
<g id="a_node9"><a xlink:href="quickjs-libc_8c.html#a879319bb5089c26a9e2f19e9fc9c0a73" target="_top" xlink:title="js_std_loadFile">
<polygon fill="none" stroke="#000000" points="273,-760.5 273,-779.5 355,-779.5 355,-760.5 273,-760.5"/>
<text text-anchor="middle" x="314" y="-767.5" font-family="Helvetica,sans-Serif" font-size="10.00" fill="#000000">js_std_loadFile</text>
</a>
</g>
</g>
<!-- Node112269&#45;&gt;Node112280 -->
<g id="edge8" class="edge">
<title>Node112269&#45;&gt;Node112280</title>
<path fill="none" stroke="#191970" d="M185.0282,-466.7665C194.6366,-527.1758 226.1088,-707.8653 265,-751 268.4215,-754.7948 272.6908,-757.8385 277.2733,-760.2782"/>
<polygon fill="#191970" stroke="#191970" points="188.45,-465.9934 183.4468,-456.6543 181.534,-467.075 188.45,-465.9934"/>
</g>
<!-- Node112281 -->
<g id="node10" class="node">
<title>Node112281</title>
<g id="a_node10"><a xlink:href="quickjs-libc_8c.html#a1e9ea68a66c0e646ba3250625a52a3e2" target="_top" xlink:title="js_std_getenv">
<polygon fill="none" stroke="#000000" points="275.5,-722.5 275.5,-741.5 352.5,-741.5 352.5,-722.5 275.5,-722.5"/>
<text text-anchor="middle" x="314" y="-729.5" font-family="Helvetica,sans-Serif" font-size="10.00" fill="#000000">js_std_getenv</text>
</a>
</g>
</g>
<!-- Node112269&#45;&gt;Node112281 -->
<g id="edge9" class="edge">
<title>Node112269&#45;&gt;Node112281</title>
<path fill="none" stroke="#191970" d="M185.7856,-466.4271C196.823,-521.3157 230.3861,-675.9689 265,-713 268.6137,-716.866 273.1051,-719.9556 277.8911,-722.422"/>
<polygon fill="#191970" stroke="#191970" points="189.2102,-465.7026 183.8321,-456.5743 182.3438,-467.064 189.2102,-465.7026"/>
</g>
<!-- Node112282 -->
<g id="node11" class="node">
<title>Node112282</title>
<g id="a_node11"><a xlink:href="quickjs-libc_8c.html#a7af79ae13a636de55a6d58309c0cfa1e" target="_top" xlink:title="js_std_open">
<polygon fill="none" stroke="#000000" points="279.5,-684.5 279.5,-703.5 348.5,-703.5 348.5,-684.5 279.5,-684.5"/>
<text text-anchor="middle" x="314" y="-691.5" font-family="Helvetica,sans-Serif" font-size="10.00" fill="#000000">js_std_open</text>
</a>
</g>
</g>
<!-- Node112269&#45;&gt;Node112282 -->
<g id="edge10" class="edge">
<title>Node112269&#45;&gt;Node112282</title>
<path fill="none" stroke="#191970" d="M183.7734,-466.8386C188.6906,-510.3497 206.2851,-615.052 265,-675 269.0221,-679.1066 274.0321,-682.3426 279.3003,-684.8879"/>
<polygon fill="#191970" stroke="#191970" points="187.2375,-466.3077 182.7386,-456.7155 180.2738,-467.0196 187.2375,-466.3077"/>
</g>
<!-- Node112283 -->
<g id="node12" class="node">
<title>Node112283</title>
<g id="a_node12"><a xlink:href="quickjs-libc_8c.html#af872be4f158af25e3b412e2be297abcf" target="_top" xlink:title="js_std_popen">
<polygon fill="none" stroke="#000000" points="277,-646.5 277,-665.5 351,-665.5 351,-646.5 277,-646.5"/>
<text text-anchor="middle" x="314" y="-653.5" font-family="Helvetica,sans-Serif" font-size="10.00" fill="#000000">js_std_popen</text>
</a>
</g>
</g>
<!-- Node112269&#45;&gt;Node112283 -->
<g id="edge11" class="edge">
<title>Node112269&#45;&gt;Node112283</title>
<path fill="none" stroke="#191970" d="M185.4917,-467.1023C193.1376,-505.3157 214.8478,-588.9088 265,-637 269.0172,-640.8521 273.9021,-643.9473 279.0131,-646.4274"/>
<polygon fill="#191970" stroke="#191970" points="188.8405,-465.9713 183.5545,-456.7893 181.9609,-467.2636 188.8405,-465.9713"/>
</g>
<!-- Node112284 -->
<g id="node13" class="node">
<title>Node112284</title>
<g id="a_node13"><a xlink:href="quickjs-libc_8c.html#a51bfedac363e39a4273635aa7810425a" target="_top" xlink:title="js_std_fdopen">
<polygon fill="none" stroke="#000000" points="275.5,-608.5 275.5,-627.5 352.5,-627.5 352.5,-608.5 275.5,-608.5"/>
<text text-anchor="middle" x="314" y="-615.5" font-family="Helvetica,sans-Serif" font-size="10.00" fill="#000000">js_std_fdopen</text>
</a>
</g>
</g>
<!-- Node112269&#45;&gt;Node112284 -->
<g id="edge12" class="edge">
<title>Node112269&#45;&gt;Node112284</title>
<path fill="none" stroke="#191970" d="M187.786,-466.5713C198.1843,-498.5409 222.9582,-562.0932 265,-599 269.3884,-602.8524 274.6451,-605.9661 280.0616,-608.4696"/>
<polygon fill="#191970" stroke="#191970" points="191.0191,-465.182 184.7028,-456.6759 184.336,-467.2644 191.0191,-465.182"/>
</g>
<!-- Node112285 -->
<g id="node14" class="node">
<title>Node112285</title>
<g id="a_node14"><a xlink:href="quickjs-libc_8c.html#a7aebce2172c6aa4a6645aef600a69e6b" target="_top" xlink:title="js_std_urlGet">
<polygon fill="none" stroke="#000000" points="277,-570.5 277,-589.5 351,-589.5 351,-570.5 277,-570.5"/>
<text text-anchor="middle" x="314" y="-577.5" font-family="Helvetica,sans-Serif" font-size="10.00" fill="#000000">js_std_urlGet</text>
</a>
</g>
</g>
<!-- Node112269&#45;&gt;Node112285 -->
<g id="edge13" class="edge">
<title>Node112269&#45;&gt;Node112285</title>
<path fill="none" stroke="#191970" d="M191.2941,-465.837C204.49,-490.8073 230.89,-534.7617 265,-561 269.9178,-564.7829 275.6802,-567.8967 281.4917,-570.4299"/>
<polygon fill="#191970" stroke="#191970" points="194.2829,-463.9949 186.6061,-456.6931 188.0539,-467.1885 194.2829,-463.9949"/>
</g>
<!-- Node112286 -->
<g id="node15" class="node">
<title>Node112286</title>
<g id="a_node15"><a xlink:href="quickjs-libc_8c.html#a2922177e3824293f14633957b7b30a32" target="_top" xlink:title="js_os_open">
<polygon fill="none" stroke="#000000" points="281,-532.5 281,-551.5 347,-551.5 347,-532.5 281,-532.5"/>
<text text-anchor="middle" x="314" y="-539.5" font-family="Helvetica,sans-Serif" font-size="10.00" fill="#000000">js_os_open</text>
</a>
</g>
</g>
<!-- Node112269&#45;&gt;Node112286 -->
<g id="edge14" class="edge">
<title>Node112269&#45;&gt;Node112286</title>
<path fill="none" stroke="#191970" d="M197.1034,-464.1395C212.7101,-480.9949 238.4681,-506.5261 265,-523 270.8911,-526.6578 277.6029,-529.8184 284.129,-532.4545"/>
<polygon fill="#191970" stroke="#191970" points="199.6102,-461.6937 190.2984,-456.6397 194.4261,-466.3975 199.6102,-461.6937"/>
</g>
<!-- Node112287 -->
<g id="node16" class="node">
<title>Node112287</title>
<g id="a_node16"><a xlink:href="quickjs-libc_8c.html#a035efc25eebcd5ed71b7bec13c987a97" target="_top" xlink:title="js_os_remove">
<polygon fill="none" stroke="#000000" points="275.5,-494.5 275.5,-513.5 352.5,-513.5 352.5,-494.5 275.5,-494.5"/>
<text text-anchor="middle" x="314" y="-501.5" font-family="Helvetica,sans-Serif" font-size="10.00" fill="#000000">js_os_remove</text>
</a>
</g>
</g>
<!-- Node112269&#45;&gt;Node112287 -->
<g id="edge15" class="edge">
<title>Node112269&#45;&gt;Node112287</title>
<path fill="none" stroke="#191970" d="M211.2394,-460.9012C227.0545,-468.2895 246.9857,-477.3916 265,-485 272.5646,-488.195 280.8666,-491.4918 288.4525,-494.424"/>
<polygon fill="#191970" stroke="#191970" points="212.5174,-457.6346 201.9781,-456.5511 209.5413,-463.9705 212.5174,-457.6346"/>
</g>
<!-- Node112288 -->
<g id="node17" class="node">
<title>Node112288</title>
<g id="a_node17"><a xlink:href="quickjs-libc_8c.html#afbac9287534f93e943312dd80d152c71" target="_top" xlink:title="js_os_rename">
<polygon fill="none" stroke="#000000" points="275.5,-456.5 275.5,-475.5 352.5,-475.5 352.5,-456.5 275.5,-456.5"/>
<text text-anchor="middle" x="314" y="-463.5" font-family="Helvetica,sans-Serif" font-size="10.00" fill="#000000">js_os_rename</text>
</a>
</g>
</g>
<!-- Node112269&#45;&gt;Node112288 -->
<g id="edge16" class="edge">
<title>Node112269&#45;&gt;Node112288</title>
<path fill="none" stroke="#191970" d="M231.5056,-454.1258C245.9256,-456.2014 261.468,-458.4386 275.1318,-460.4053"/>
<polygon fill="#191970" stroke="#191970" points="231.6436,-450.6097 221.247,-452.6492 230.6463,-457.5383 231.6436,-450.6097"/>
</g>
<!-- Node112289 -->
<g id="node18" class="node">
<title>Node112289</title>
<g id="a_node18"><a xlink:href="quickjs-libc_8c.html#ac1ad39478b2076e2113aff65595b0686" target="_top" xlink:title="js_os_chdir">
<polygon fill="none" stroke="#000000" points="281,-418.5 281,-437.5 347,-437.5 347,-418.5 281,-418.5"/>
<text text-anchor="middle" x="314" y="-425.5" font-family="Helvetica,sans-Serif" font-size="10.00" fill="#000000">js_os_chdir</text>
</a>
</g>
</g>
<!-- Node112269&#45;&gt;Node112289 -->
<g id="edge17" class="edge">
<title>Node112269&#45;&gt;Node112289</title>
<path fill="none" stroke="#191970" d="M231.3182,-439.9012C247.8694,-437.5188 265.9185,-434.9208 280.9184,-432.7617"/>
<polygon fill="#191970" stroke="#191970" points="230.6463,-436.4617 221.247,-441.3508 231.6436,-443.3903 230.6463,-436.4617"/>
</g>
<!-- Node112290 -->
<g id="node19" class="node">
<title>Node112290</title>
<g id="a_node19"><a xlink:href="quickjs-libc_8c.html#a099dfd009335bf5592dc120829085f7d" target="_top" xlink:title="js_os_mkdir">
<polygon fill="none" stroke="#000000" points="279.5,-380.5 279.5,-399.5 348.5,-399.5 348.5,-380.5 279.5,-380.5"/>
<text text-anchor="middle" x="314" y="-387.5" font-family="Helvetica,sans-Serif" font-size="10.00" fill="#000000">js_os_mkdir</text>
</a>
</g>
</g>
<!-- Node112269&#45;&gt;Node112290 -->
<g id="edge18" class="edge">
<title>Node112269&#45;&gt;Node112290</title>
<path fill="none" stroke="#191970" d="M211.2394,-433.0988C227.0545,-425.7105 246.9857,-416.6084 265,-409 272.5646,-405.805 280.8666,-402.5082 288.4525,-399.576"/>
<polygon fill="#191970" stroke="#191970" points="209.5413,-430.0295 201.9781,-437.4489 212.5174,-436.3654 209.5413,-430.0295"/>
</g>
<!-- Node112291 -->
<g id="node20" class="node">
<title>Node112291</title>
<g id="a_node20"><a xlink:href="quickjs-libc_8c.html#a64270f007df853e9d2f443383d26ec60" target="_top" xlink:title="js_os_readdir">
<polygon fill="none" stroke="#000000" points="277,-342.5 277,-361.5 351,-361.5 351,-342.5 277,-342.5"/>
<text text-anchor="middle" x="314" y="-349.5" font-family="Helvetica,sans-Serif" font-size="10.00" fill="#000000">js_os_readdir</text>
</a>
</g>
</g>
<!-- Node112269&#45;&gt;Node112291 -->
<g id="edge19" class="edge">
<title>Node112269&#45;&gt;Node112291</title>
<path fill="none" stroke="#191970" d="M197.1034,-429.8605C212.7101,-413.0051 238.4681,-387.4739 265,-371 270.8911,-367.3422 277.6029,-364.1816 284.129,-361.5455"/>
<polygon fill="#191970" stroke="#191970" points="194.4261,-427.6025 190.2984,-437.3603 199.6102,-432.3063 194.4261,-427.6025"/>
</g>
<!-- Node112292 -->
<g id="node21" class="node">
<title>Node112292</title>
<g id="a_node21"><a xlink:href="quickjs-libc_8c.html#a0142166ddf6e134f89207c3ee3c7572c" target="_top" xlink:title="js_os_stat">
<polygon fill="none" stroke="#000000" points="283,-304.5 283,-323.5 345,-323.5 345,-304.5 283,-304.5"/>
<text text-anchor="middle" x="314" y="-311.5" font-family="Helvetica,sans-Serif" font-size="10.00" fill="#000000">js_os_stat</text>
</a>
</g>
</g>
<!-- Node112269&#45;&gt;Node112292 -->
<g id="edge20" class="edge">
<title>Node112269&#45;&gt;Node112292</title>
<path fill="none" stroke="#191970" d="M191.2941,-428.163C204.49,-403.1927 230.89,-359.2383 265,-333 270.2794,-328.939 276.5322,-325.6491 282.7741,-323.0207"/>
<polygon fill="#191970" stroke="#191970" points="188.0539,-426.8115 186.6061,-437.3069 194.2829,-430.0051 188.0539,-426.8115"/>
</g>
<!-- Node112293 -->
<g id="node22" class="node">
<title>Node112293</title>
<g id="a_node22"><a xlink:href="quickjs-libc_8c.html#a75a026899e6e503ad72d190af515069e" target="_top" xlink:title="js_os_utimes">
<polygon fill="none" stroke="#000000" points="277,-266.5 277,-285.5 351,-285.5 351,-266.5 277,-266.5"/>
<text text-anchor="middle" x="314" y="-273.5" font-family="Helvetica,sans-Serif" font-size="10.00" fill="#000000">js_os_utimes</text>
</a>
</g>
</g>
<!-- Node112269&#45;&gt;Node112293 -->
<g id="edge21" class="edge">
<title>Node112269&#45;&gt;Node112293</title>
<path fill="none" stroke="#191970" d="M187.786,-427.4287C198.1843,-395.4591 222.9582,-331.9068 265,-295 269.3884,-291.1476 274.6451,-288.0339 280.0616,-285.5304"/>
<polygon fill="#191970" stroke="#191970" points="184.336,-426.7356 184.7028,-437.3241 191.0191,-428.818 184.336,-426.7356"/>
</g>
<!-- Node112294 -->
<g id="node23" class="node">
<title>Node112294</title>
<g id="a_node23"><a xlink:href="quickjs-libc_8c.html#a02dc6b1cce70abfcd4bd5c862584e0a4" target="_top" xlink:title="js_os_realpath">
<polygon fill="none" stroke="#000000" points="274,-228.5 274,-247.5 354,-247.5 354,-228.5 274,-228.5"/>
<text text-anchor="middle" x="314" y="-235.5" font-family="Helvetica,sans-Serif" font-size="10.00" fill="#000000">js_os_realpath</text>
</a>
</g>
</g>
<!-- Node112269&#45;&gt;Node112294 -->
<g id="edge22" class="edge">
<title>Node112269&#45;&gt;Node112294</title>
<path fill="none" stroke="#191970" d="M185.4917,-426.8977C193.1376,-388.6843 214.8478,-305.0912 265,-257 269.0172,-253.1479 273.9021,-250.0527 279.0131,-247.5726"/>
<polygon fill="#191970" stroke="#191970" points="181.9609,-426.7364 183.5545,-437.2107 188.8405,-428.0287 181.9609,-426.7364"/>
</g>
<!-- Node112295 -->
<g id="node24" class="node">
<title>Node112295</title>
<g id="a_node24"><a xlink:href="quickjs-libc_8c.html#a47def20f58a05f6fbdbb3b4cfe92a5b1" target="_top" xlink:title="js_os_symlink">
<polygon fill="none" stroke="#000000" points="274.5,-190.5 274.5,-209.5 353.5,-209.5 353.5,-190.5 274.5,-190.5"/>
<text text-anchor="middle" x="314" y="-197.5" font-family="Helvetica,sans-Serif" font-size="10.00" fill="#000000">js_os_symlink</text>
</a>
</g>
</g>
<!-- Node112269&#45;&gt;Node112295 -->
<g id="edge23" class="edge">
<title>Node112269&#45;&gt;Node112295</title>
<path fill="none" stroke="#191970" d="M183.7734,-427.1614C188.6906,-383.6503 206.2851,-278.948 265,-219 268.7029,-215.2193 273.2431,-212.1765 278.0512,-209.7312"/>
<polygon fill="#191970" stroke="#191970" points="180.2738,-426.9804 182.7386,-437.2845 187.2375,-427.6923 180.2738,-426.9804"/>
</g>
<!-- Node112296 -->
<g id="node25" class="node">
<title>Node112296</title>
<g id="a_node25"><a xlink:href="quickjs-libc_8c.html#a2173b95ca89b7de47e5bf9d5866877b9" target="_top" xlink:title="js_os_readlink">
<polygon fill="none" stroke="#000000" points="274.5,-152.5 274.5,-171.5 353.5,-171.5 353.5,-152.5 274.5,-152.5"/>
<text text-anchor="middle" x="314" y="-159.5" font-family="Helvetica,sans-Serif" font-size="10.00" fill="#000000">js_os_readlink</text>
</a>
</g>
</g>
<!-- Node112269&#45;&gt;Node112296 -->
<g id="edge24" class="edge">
<title>Node112269&#45;&gt;Node112296</title>
<path fill="none" stroke="#191970" d="M185.7856,-427.5729C196.823,-372.6843 230.3861,-218.0311 265,-181 268.6137,-177.134 273.1051,-174.0444 277.8911,-171.578"/>
<polygon fill="#191970" stroke="#191970" points="182.3438,-426.936 183.8321,-437.4257 189.2102,-428.2974 182.3438,-426.936"/>
</g>
<!-- Node112297 -->
<g id="node26" class="node">
<title>Node112297</title>
<g id="a_node26"><a xlink:href="quickjs-libc_8c.html#afc77720d4d1c0b90749ce275a4a16f74" target="_top" xlink:title="build_envp">
<polygon fill="none" stroke="#000000" points="282.5,-114.5 282.5,-133.5 345.5,-133.5 345.5,-114.5 282.5,-114.5"/>
<text text-anchor="middle" x="314" y="-121.5" font-family="Helvetica,sans-Serif" font-size="10.00" fill="#000000">build_envp</text>
</a>
</g>
</g>
<!-- Node112269&#45;&gt;Node112297 -->
<g id="edge25" class="edge">
<title>Node112269&#45;&gt;Node112297</title>
<path fill="none" stroke="#191970" d="M185.0282,-427.2335C194.6366,-366.8242 226.1088,-186.1347 265,-143 269.6434,-137.8499 275.8484,-134.0831 282.2785,-131.3322"/>
<polygon fill="#191970" stroke="#191970" points="181.534,-426.925 183.4468,-437.3457 188.45,-428.0066 181.534,-426.925"/>
</g>
<!-- Node112298 -->
<g id="node27" class="node">
<title>Node112298</title>
<g id="a_node27"><a xlink:href="quickjs-libc_8c.html#a0b92fee4bb5dda499a0b6d86da0e8be8" target="_top" xlink:title="js_os_exec">
<polygon fill="none" stroke="#000000" points="446,-95.5 446,-114.5 512,-114.5 512,-95.5 446,-95.5"/>
<text text-anchor="middle" x="479" y="-102.5" font-family="Helvetica,sans-Serif" font-size="10.00" fill="#000000">js_os_exec</text>
</a>
</g>
</g>
<!-- Node112269&#45;&gt;Node112298 -->
<g id="edge27" class="edge">
<title>Node112269&#45;&gt;Node112298</title>
<path fill="none" stroke="#191970" d="M183.6864,-427.1139C189.8034,-360.2866 213.242,-145.6993 265,-105 319.3214,-62.285 407.6761,-81.6402 451.9336,-95.4188"/>
<polygon fill="#191970" stroke="#191970" points="180.1921,-426.8965 182.7966,-437.1662 187.1648,-427.5138 180.1921,-426.8965"/>
</g>
<!-- Node112277 -->
<g id="node28" class="node">
<title>Node112277</title>
<g id="a_node28"><a xlink:href="quickjs-libc_8c.html#aff1e6131e8bf8b7eb25307623ad669e7" target="_top" xlink:title="js_worker_ctor">
<polygon fill="none" stroke="#ff0000" points="274,-38.5 274,-57.5 354,-57.5 354,-38.5 274,-38.5"/>
<text text-anchor="middle" x="314" y="-45.5" font-family="Helvetica,sans-Serif" font-size="10.00" fill="#000000">js_worker_ctor</text>
</a>
</g>
</g>
<!-- Node112269&#45;&gt;Node112277 -->
<g id="edge28" class="edge">
<title>Node112269&#45;&gt;Node112277</title>
<path fill="none" stroke="#191970" d="M184.1332,-427.0009C191.871,-357.662 220.3751,-128.7236 265,-72 269.8612,-65.8208 276.721,-61.1256 283.7725,-57.6016"/>
<polygon fill="#191970" stroke="#191970" points="180.6074,-427.047 182.9997,-437.3682 187.5659,-427.8079 180.6074,-427.047"/>
</g>
<!-- Node112299 -->
<g id="node29" class="node">
<title>Node112299</title>
<g id="a_node29"><a xlink:href="quickjs-libc_8c.html#a2e5a713d49edeef87d8ed87471679f39" target="_top" xlink:title="js_dump_obj">
<polygon fill="none" stroke="#ff0000" points="278.5,-.5 278.5,-19.5 349.5,-19.5 349.5,-.5 278.5,-.5"/>
<text text-anchor="middle" x="314" y="-7.5" font-family="Helvetica,sans-Serif" font-size="10.00" fill="#000000">js_dump_obj</text>
</a>
</g>
</g>
<!-- Node112269&#45;&gt;Node112299 -->
<g id="edge29" class="edge">
<title>Node112269&#45;&gt;Node112299</title>
<path fill="none" stroke="#191970" d="M183.4518,-427.0076C189.244,-352.3482 212.9535,-90.9862 265,-29 268.6376,-24.6677 273.3873,-21.3194 278.4971,-18.7326"/>
<polygon fill="#191970" stroke="#191970" points="179.9355,-427.0931 182.6744,-437.3278 186.9157,-427.619 179.9355,-427.0931"/>
</g>
<!-- Node112297&#45;&gt;Node112298 -->
<g id="edge26" class="edge">
<title>Node112297&#45;&gt;Node112298</title>
<path fill="none" stroke="#191970" d="M356.0618,-119.1565C383.9475,-115.9454 420.0225,-111.7913 445.8702,-108.8149"/>
<polygon fill="#191970" stroke="#191970" points="355.3476,-115.7155 345.8137,-120.3366 356.1484,-122.6696 355.3476,-115.7155"/>
</g>
<!-- Node112852&#45;&gt;Node112260 -->
<g id="edge32" class="edge">
<title>Node112852&#45;&gt;Node112260</title>
<path fill="none" stroke="#191970" d="M225.0409,-858.3906C243.1177,-863.5945 263.8195,-869.5541 280.7015,-874.4141"/>
<polygon fill="#191970" stroke="#191970" points="225.8872,-854.9921 215.3092,-855.589 223.9506,-861.7189 225.8872,-854.9921"/>
</g>
<!-- Node112852&#45;&gt;Node112270 -->
<g id="edge31" class="edge">
<title>Node112852&#45;&gt;Node112270</title>
<path fill="none" stroke="#191970" d="M239.3246,-846C249.4969,-846 259.949,-846 269.6916,-846"/>
<polygon fill="#191970" stroke="#191970" points="239.2822,-842.5001 229.2822,-846 239.2822,-849.5001 239.2822,-842.5001"/>
</g>
</g>
</svg>
