<?xml version="1.0" encoding="UTF-8" standalone="no"?>
<!DOCTYPE svg PUBLIC "-//W3C//DTD SVG 1.1//EN"
 "http://www.w3.org/Graphics/SVG/1.1/DTD/svg11.dtd">
<!-- Generated by graphviz version 2.40.1 (20161225.0304)
 -->
<!-- Title: emit_u32 Pages: 1 -->
<svg width="1368pt" height="1996pt"
 viewBox="0.00 0.00 1368.00 1995.59" xmlns="http://www.w3.org/2000/svg" xmlns:xlink="http://www.w3.org/1999/xlink">
<g id="graph0" class="graph" transform="scale(1 1) rotate(0) translate(4 1991.5855)">
<title>emit_u32</title>
<!-- Node309145 -->
<g id="node1" class="node">
<title>Node309145</title>
<polygon fill="#bfbfbf" stroke="#000000" points="0,-1034.7745 0,-1053.7745 56,-1053.7745 56,-1034.7745 0,-1034.7745"/>
<text text-anchor="middle" x="28" y="-1041.7745" font-family="Helvetica,sans-Serif" font-size="10.00" fill="#000000">emit_u32</text>
</g>
<!-- Node309146 -->
<g id="node2" class="node">
<title>Node309146</title>
<g id="a_node2"><a xlink:href="quickjs_8c.html#aa57b449a878287663249bb7ab23ed8e9" target="_top" xlink:title="emit_atom">
<polygon fill="none" stroke="#000000" points="106.5,-1376.7745 106.5,-1395.7745 168.5,-1395.7745 168.5,-1376.7745 106.5,-1376.7745"/>
<text text-anchor="middle" x="137.5" y="-1383.7745" font-family="Helvetica,sans-Serif" font-size="10.00" fill="#000000">emit_atom</text>
</a>
</g>
</g>
<!-- Node309145&#45;&gt;Node309146 -->
<g id="edge1" class="edge">
<title>Node309145&#45;&gt;Node309146</title>
<path fill="none" stroke="#191970" d="M32.2823,-1063.905C41.4395,-1104.8681 64.3579,-1202.2096 92,-1281.2745 104.5887,-1317.2822 123.8881,-1358.3408 132.751,-1376.6197"/>
<polygon fill="#191970" stroke="#191970" points="35.6485,-1062.9169 30.0719,-1053.9084 28.8135,-1064.4282 35.6485,-1062.9169"/>
</g>
<!-- Node309148 -->
<g id="node4" class="node">
<title>Node309148</title>
<g id="a_node4"><a xlink:href="quickjs_8c.html#acdcc62310b4f6f73fa7bc7267b18b1d4" target="_top" xlink:title="js_parse_postfix_expr">
<polygon fill="none" stroke="#ff0000" points="683,-1168.7745 683,-1187.7745 795,-1187.7745 795,-1168.7745 683,-1168.7745"/>
<text text-anchor="middle" x="739" y="-1175.7745" font-family="Helvetica,sans-Serif" font-size="10.00" fill="#000000">js_parse_postfix_expr</text>
</a>
</g>
</g>
<!-- Node309145&#45;&gt;Node309148 -->
<g id="edge121" class="edge">
<title>Node309145&#45;&gt;Node309148</title>
<path fill="none" stroke="#191970" d="M65.9994,-1052.8883C150.056,-1071.7654 358.2391,-1117.5442 534,-1148.2745 584.1361,-1157.0404 641.4789,-1165.2813 682.7443,-1170.8995"/>
<polygon fill="#191970" stroke="#191970" points="66.6653,-1049.4507 56.1408,-1050.6697 65.1284,-1056.2799 66.6653,-1049.4507"/>
</g>
<!-- Node309149 -->
<g id="node5" class="node">
<title>Node309149</title>
<g id="a_node5"><a xlink:href="quickjs_8c.html#a00eb789430243c24dab4a63ad6a79653" target="_top" xlink:title="js_parse_class">
<polygon fill="none" stroke="#000000" points="1140,-1530.7745 1140,-1549.7745 1222,-1549.7745 1222,-1530.7745 1140,-1530.7745"/>
<text text-anchor="middle" x="1181" y="-1537.7745" font-family="Helvetica,sans-Serif" font-size="10.00" fill="#000000">js_parse_class</text>
</a>
</g>
</g>
<!-- Node309145&#45;&gt;Node309149 -->
<g id="edge118" class="edge">
<title>Node309145&#45;&gt;Node309149</title>
<path fill="none" stroke="#191970" d="M28.4377,-1024.6163C30.9575,-919.5994 45.1797,-424.1214 92,-279.2745 133.7405,-150.1429 143.7899,-38.2745 279.5,-38.2745 279.5,-38.2745 279.5,-38.2745 590.5,-38.2745 751.7079,-38.2745 820.7557,-8.7764 946,-110.2745 1083.3337,-221.5699 1061.9217,-303.5869 1104,-475.2745 1156.8982,-691.1091 1178.2505,-1436.7615 1180.748,-1530.5547"/>
<polygon fill="#191970" stroke="#191970" points="24.9358,-1024.6629 28.2026,-1034.7415 31.9339,-1024.8255 24.9358,-1024.6629"/>
</g>
<!-- Node309150 -->
<g id="node6" class="node">
<title>Node309150</title>
<g id="a_node6"><a xlink:href="quickjs_8c.html#a9d844c16dcc71701436848074337d32c" target="_top" xlink:title="js_parse_statement\l_or_decl">
<polygon fill="none" stroke="#ff0000" points="1258,-422.2745 1258,-452.2745 1360,-452.2745 1360,-422.2745 1258,-422.2745"/>
<text text-anchor="start" x="1266" y="-440.2745" font-family="Helvetica,sans-Serif" font-size="10.00" fill="#000000">js_parse_statement</text>
<text text-anchor="middle" x="1309" y="-429.2745" font-family="Helvetica,sans-Serif" font-size="10.00" fill="#000000">_or_decl</text>
</a>
</g>
</g>
<!-- Node309145&#45;&gt;Node309150 -->
<g id="edge122" class="edge">
<title>Node309145&#45;&gt;Node309150</title>
<path fill="none" stroke="#191970" d="M28.6745,-1024.6086C33.3749,-889.7629 61.9343,-105.9191 92,-66.2745 145.384,4.1175 191.1547,-.2745 279.5,-.2745 279.5,-.2745 279.5,-.2745 1043,-.2745 1129.9591,-.2745 1166.1938,-12.5846 1222,-79.2745 1267.3576,-133.4781 1299.2396,-360.8969 1307.1095,-422.0686"/>
<polygon fill="#191970" stroke="#191970" points="25.173,-1024.5956 28.3249,-1034.7107 32.1688,-1024.8378 25.173,-1024.5956"/>
</g>
<!-- Node309167 -->
<g id="node8" class="node">
<title>Node309167</title>
<g id="a_node8"><a xlink:href="quickjs_8c.html#a26be546cf89c4580ba9020e8fc43a759" target="_top" xlink:title="js_parse_destructuring\l_element">
<polygon fill="none" stroke="#000000" points="831,-859.2745 831,-889.2745 946,-889.2745 946,-859.2745 831,-859.2745"/>
<text text-anchor="start" x="839" y="-877.2745" font-family="Helvetica,sans-Serif" font-size="10.00" fill="#000000">js_parse_destructuring</text>
<text text-anchor="middle" x="888.5" y="-866.2745" font-family="Helvetica,sans-Serif" font-size="10.00" fill="#000000">_element</text>
</a>
</g>
</g>
<!-- Node309145&#45;&gt;Node309167 -->
<g id="edge119" class="edge">
<title>Node309145&#45;&gt;Node309167</title>
<path fill="none" stroke="#191970" d="M66.1978,-1044.5431C125.307,-1044.377 242.3168,-1041.727 340,-1025.2745 496.104,-998.9823 530.315,-971.0723 683,-929.2745 733.2272,-915.5247 790.4665,-900.2364 831.7567,-889.2754"/>
<polygon fill="#191970" stroke="#191970" points="66.1917,-1041.043 56.1937,-1044.5486 66.1956,-1048.043 66.1917,-1041.043"/>
</g>
<!-- Node309155 -->
<g id="node11" class="node">
<title>Node309155</title>
<g id="a_node11"><a xlink:href="quickjs_8c.html#acc9eb677cab8dfcf45f59381f8a19601" target="_top" xlink:title="js_parse_function_decl2">
<polygon fill="none" stroke="#ff0000" points="982,-1016.7745 982,-1035.7745 1104,-1035.7745 1104,-1016.7745 982,-1016.7745"/>
<text text-anchor="middle" x="1043" y="-1023.7745" font-family="Helvetica,sans-Serif" font-size="10.00" fill="#000000">js_parse_function_decl2</text>
</a>
</g>
</g>
<!-- Node309145&#45;&gt;Node309155 -->
<g id="edge120" class="edge">
<title>Node309145&#45;&gt;Node309155</title>
<path fill="none" stroke="#191970" d="M29.4861,-1064.1869C34.0491,-1119.5544 50.1717,-1279.5335 92,-1405.2745 131.5883,-1524.2818 120.2816,-1579.9139 219,-1657.2745 317.4105,-1734.3938 373.8967,-1708.4528 498,-1693.2745 706.2827,-1667.8007 817.5016,-1710.1624 946,-1544.2745 986.983,-1491.3665 968.9838,-1310.9208 982,-1245.2745 998.2736,-1163.1997 1029.4273,-1066.8731 1039.6556,-1036.1853"/>
<polygon fill="#191970" stroke="#191970" points="32.9589,-1063.7034 28.6828,-1054.0099 25.9806,-1064.2543 32.9589,-1063.7034"/>
</g>
<!-- Node309175 -->
<g id="node14" class="node">
<title>Node309175</title>
<g id="a_node14"><a xlink:href="quickjs_8c.html#a4fa2fc1719feb03edf64eaf034103fd2" target="_top" xlink:title="js_parse_assign_expr">
<polygon fill="none" stroke="#ff0000" points="381.5,-816.7745 381.5,-835.7745 492.5,-835.7745 492.5,-816.7745 381.5,-816.7745"/>
<text text-anchor="middle" x="437" y="-823.7745" font-family="Helvetica,sans-Serif" font-size="10.00" fill="#000000">js_parse_assign_expr</text>
</a>
</g>
</g>
<!-- Node309145&#45;&gt;Node309175 -->
<g id="edge117" class="edge">
<title>Node309145&#45;&gt;Node309175</title>
<path fill="none" stroke="#191970" d="M54.9632,-1029.9029C132.448,-988.6029 354.3356,-870.3352 419.0689,-835.8319"/>
<polygon fill="#191970" stroke="#191970" points="53.0157,-1026.9748 45.8372,-1034.7671 56.3082,-1033.1521 53.0157,-1026.9748"/>
</g>
<!-- Node309176 -->
<g id="node15" class="node">
<title>Node309176</title>
<g id="a_node15"><a xlink:href="quickjs_8c.html#a253917187cfb6b3db09d355b31edb3d5" target="_top" xlink:title="js_parse_array_literal">
<polygon fill="none" stroke="#000000" points="536,-1206.7745 536,-1225.7745 645,-1225.7745 645,-1206.7745 536,-1206.7745"/>
<text text-anchor="middle" x="590.5" y="-1213.7745" font-family="Helvetica,sans-Serif" font-size="10.00" fill="#000000">js_parse_array_literal</text>
</a>
</g>
</g>
<!-- Node309145&#45;&gt;Node309176 -->
<g id="edge116" class="edge">
<title>Node309145&#45;&gt;Node309176</title>
<path fill="none" stroke="#191970" d="M35.8754,-1062.9812C45.7456,-1083.9601 64.7414,-1117.2665 92,-1134.2745 129.2988,-1157.547 413.956,-1194.6647 535.6285,-1209.6649"/>
<polygon fill="#191970" stroke="#191970" points="39.0456,-1061.4969 31.7668,-1053.7982 32.656,-1064.3557 39.0456,-1061.4969"/>
</g>
<!-- Node309185 -->
<g id="node19" class="node">
<title>Node309185</title>
<g id="a_node19"><a xlink:href="quickjs_8c.html#a069baa06a1214006c4ec473875de010e" target="_top" xlink:title="get_lvalue">
<polygon fill="none" stroke="#ff0000" points="249,-1224.7745 249,-1243.7745 310,-1243.7745 310,-1224.7745 249,-1224.7745"/>
<text text-anchor="middle" x="279.5" y="-1231.7745" font-family="Helvetica,sans-Serif" font-size="10.00" fill="#000000">get_lvalue</text>
</a>
</g>
</g>
<!-- Node309145&#45;&gt;Node309185 -->
<g id="edge114" class="edge">
<title>Node309145&#45;&gt;Node309185</title>
<path fill="none" stroke="#191970" d="M32.6186,-1063.6397C40.2601,-1091.566 58.1623,-1142.9983 92,-1172.2745 137.3742,-1211.532 208.3322,-1226.0897 248.6928,-1231.3719"/>
<polygon fill="#191970" stroke="#191970" points="35.9859,-1062.6805 30.1047,-1053.8679 29.2067,-1064.4246 35.9859,-1062.6805"/>
</g>
<!-- Node309187 -->
<g id="node22" class="node">
<title>Node309187</title>
<g id="a_node22"><a xlink:href="quickjs_8c.html#a521694c7cb5b3e8b8f6393ac0cf9cc4f" target="_top" xlink:title="emit_class_init_end">
<polygon fill="none" stroke="#000000" points="687.5,-1947.7745 687.5,-1966.7745 790.5,-1966.7745 790.5,-1947.7745 687.5,-1947.7745"/>
<text text-anchor="middle" x="739" y="-1954.7745" font-family="Helvetica,sans-Serif" font-size="10.00" fill="#000000">emit_class_init_end</text>
</a>
</g>
</g>
<!-- Node309145&#45;&gt;Node309187 -->
<g id="edge69" class="edge">
<title>Node309145&#45;&gt;Node309187</title>
<path fill="none" stroke="#191970" d="M28.6935,-1064.1875C33.3115,-1194.2837 60.3984,-1918.8203 92,-1952.2745 149.6912,-2013.3478 195.4868,-1976.2745 279.5,-1976.2745 279.5,-1976.2745 279.5,-1976.2745 437,-1976.2745 525.1261,-1976.2745 627.4326,-1968.1162 687.4955,-1962.4915"/>
<polygon fill="#191970" stroke="#191970" points="32.187,-1063.9385 28.3372,-1054.0679 25.1913,-1064.1849 32.187,-1063.9385"/>
</g>
<!-- Node309188 -->
<g id="node23" class="node">
<title>Node309188</title>
<g id="a_node23"><a xlink:href="quickjs_8c.html#a6b3c67655a0facc68b271ce3d401deb3" target="_top" xlink:title="emit_goto">
<polygon fill="none" stroke="#ff0000" points="108,-749.7745 108,-768.7745 167,-768.7745 167,-749.7745 108,-749.7745"/>
<text text-anchor="middle" x="137.5" y="-756.7745" font-family="Helvetica,sans-Serif" font-size="10.00" fill="#000000">emit_goto</text>
</a>
</g>
</g>
<!-- Node309145&#45;&gt;Node309188 -->
<g id="edge71" class="edge">
<title>Node309145&#45;&gt;Node309188</title>
<path fill="none" stroke="#191970" d="M29.5809,-1024.2138C33.759,-980.857 47.9863,-876.3556 92,-802.2745 99.9942,-788.8192 113.3914,-776.8956 123.5838,-769.0379"/>
<polygon fill="#191970" stroke="#191970" points="26.0829,-1024.0372 28.6875,-1034.3069 33.0557,-1024.6545 26.0829,-1024.0372"/>
</g>
<!-- Node309189 -->
<g id="node24" class="node">
<title>Node309189</title>
<g id="a_node24"><a xlink:href="quickjs_8c.html#a98ab69061f85c400e0eed2c0eb47f49b" target="_top" xlink:title="js_emit_spread_code">
<polygon fill="none" stroke="#000000" points="225,-768.7745 225,-787.7745 334,-787.7745 334,-768.7745 225,-768.7745"/>
<text text-anchor="middle" x="279.5" y="-775.7745" font-family="Helvetica,sans-Serif" font-size="10.00" fill="#000000">js_emit_spread_code</text>
</a>
</g>
</g>
<!-- Node309145&#45;&gt;Node309189 -->
<g id="edge115" class="edge">
<title>Node309145&#45;&gt;Node309189</title>
<path fill="none" stroke="#191970" d="M31.3906,-1024.7539C37.9967,-991.5141 55.2832,-923.1703 92,-878.2745 131.9379,-829.4401 202.1804,-801.2272 244.4229,-787.8758"/>
<polygon fill="#191970" stroke="#191970" points="27.948,-1024.1227 29.5471,-1034.5962 34.8284,-1025.4115 27.948,-1024.1227"/>
</g>
<!-- Node309192 -->
<g id="node28" class="node">
<title>Node309192</title>
<g id="a_node28"><a xlink:href="quickjs_8c.html#a555f0d4061c655933eb187026d0796af" target="_top" xlink:title="emit_label">
<polygon fill="none" stroke="#000000" points="107,-427.7745 107,-446.7745 168,-446.7745 168,-427.7745 107,-427.7745"/>
<text text-anchor="middle" x="137.5" y="-434.7745" font-family="Helvetica,sans-Serif" font-size="10.00" fill="#000000">emit_label</text>
</a>
</g>
</g>
<!-- Node309145&#45;&gt;Node309192 -->
<g id="edge90" class="edge">
<title>Node309145&#45;&gt;Node309192</title>
<path fill="none" stroke="#191970" d="M31.5233,-1024.7435C48.7169,-929.433 123.482,-514.9816 135.7838,-446.788"/>
<polygon fill="#191970" stroke="#191970" points="28.051,-1024.2774 29.72,-1034.74 34.9398,-1025.5202 28.051,-1024.2774"/>
</g>
<!-- Node309193 -->
<g id="node29" class="node">
<title>Node309193</title>
<g id="a_node29"><a xlink:href="quickjs_8c.html#a24d4ada6c0c50e82c89955a9300708a9" target="_top" xlink:title="put_lvalue">
<polygon fill="none" stroke="#ff0000" points="249,-218.7745 249,-237.7745 310,-237.7745 310,-218.7745 249,-218.7745"/>
<text text-anchor="middle" x="279.5" y="-225.7745" font-family="Helvetica,sans-Serif" font-size="10.00" fill="#000000">put_lvalue</text>
</a>
</g>
</g>
<!-- Node309145&#45;&gt;Node309193 -->
<g id="edge123" class="edge">
<title>Node309145&#45;&gt;Node309193</title>
<path fill="none" stroke="#191970" d="M28.572,-1024.7232C31.5115,-931.6014 46.582,-532.8248 92,-418.2745 126.2381,-331.9212 144.9196,-308.3212 219,-252.2745 227.8311,-245.5932 238.7669,-240.5102 248.9018,-236.7809"/>
<polygon fill="#191970" stroke="#191970" points="25.0732,-1024.635 28.2662,-1034.7372 32.0699,-1024.8488 25.0732,-1024.635"/>
</g>
<!-- Node309194 -->
<g id="node30" class="node">
<title>Node309194</title>
<g id="a_node30"><a xlink:href="quickjs_8c.html#a22324bb35cdaa36ce844506a073bb7f4" target="_top" xlink:title="emit_push_const">
<polygon fill="none" stroke="#000000" points="92,-1252.7745 92,-1271.7745 183,-1271.7745 183,-1252.7745 92,-1252.7745"/>
<text text-anchor="middle" x="137.5" y="-1259.7745" font-family="Helvetica,sans-Serif" font-size="10.00" fill="#000000">emit_push_const</text>
</a>
</g>
</g>
<!-- Node309145&#45;&gt;Node309194 -->
<g id="edge110" class="edge">
<title>Node309145&#45;&gt;Node309194</title>
<path fill="none" stroke="#191970" d="M32.0979,-1064.1269C39.7661,-1098.0778 58.6027,-1168.5347 92,-1219.2745 100.7244,-1232.5293 114.2967,-1244.6514 124.3496,-1252.6215"/>
<polygon fill="#191970" stroke="#191970" points="35.4619,-1063.124 29.9207,-1054.0938 28.6211,-1064.6086 35.4619,-1063.124"/>
</g>
<!-- Node309147 -->
<g id="node3" class="node">
<title>Node309147</title>
<g id="a_node3"><a xlink:href="quickjs_8c.html#a035daca514f14aacc1e0cff81d8e423a" target="_top" xlink:title="js_parse_template">
<polygon fill="none" stroke="#000000" points="231.5,-1262.7745 231.5,-1281.7745 327.5,-1281.7745 327.5,-1262.7745 231.5,-1262.7745"/>
<text text-anchor="middle" x="279.5" y="-1269.7745" font-family="Helvetica,sans-Serif" font-size="10.00" fill="#000000">js_parse_template</text>
</a>
</g>
</g>
<!-- Node309146&#45;&gt;Node309147 -->
<g id="edge2" class="edge">
<title>Node309146&#45;&gt;Node309147</title>
<path fill="none" stroke="#191970" d="M148.5055,-1368.1486C162.3814,-1346.7757 188.1852,-1311.5965 219,-1291.2745 224.7901,-1287.456 231.3944,-1284.3663 238.0614,-1281.8778"/>
<polygon fill="#191970" stroke="#191970" points="145.5261,-1366.3118 143.1514,-1376.6371 151.4467,-1370.0462 145.5261,-1366.3118"/>
</g>
<!-- Node309146&#45;&gt;Node309148 -->
<g id="edge59" class="edge">
<title>Node309146&#45;&gt;Node309148</title>
<path fill="none" stroke="#191970" d="M178.9758,-1388.8136C270.7814,-1392.4397 495.0501,-1390.1388 647,-1295.2745 691.2766,-1267.632 722.9602,-1210.7663 734.3566,-1188.0061"/>
<polygon fill="#191970" stroke="#191970" points="178.8513,-1385.3048 168.7067,-1388.3603 178.5426,-1392.2979 178.8513,-1385.3048"/>
</g>
<!-- Node309146&#45;&gt;Node309149 -->
<g id="edge51" class="edge">
<title>Node309146&#45;&gt;Node309149</title>
<path fill="none" stroke="#191970" d="M177.8453,-1396.4576C179.7424,-1397.8624 181.4834,-1399.4594 183,-1401.2745 256.6692,-1489.4461 166.1554,-1555.2508 219,-1657.2745 280.17,-1775.3716 304.0012,-1862.2745 437,-1862.2745 437,-1862.2745 437,-1862.2745 590.5,-1862.2745 830.7646,-1862.2745 933.5473,-1862.6053 1104,-1693.2745 1139.596,-1657.9128 1114.7965,-1629.6601 1140,-1586.2745 1148.168,-1572.214 1161.0906,-1558.6336 1170.2422,-1549.92"/>
<polygon fill="#191970" stroke="#191970" points="179.191,-1393.2031 168.7426,-1391.4474 175.8156,-1399.3356 179.191,-1393.2031"/>
</g>
<!-- Node309157 -->
<g id="node7" class="node">
<title>Node309157</title>
<g id="a_node7"><a xlink:href="quickjs_8c.html#a498e1d5c7de1b59c1630e9847cde1e41" target="_top" xlink:title="js_parse_export">
<polygon fill="none" stroke="#ff0000" points="1266,-1451.7745 1266,-1470.7745 1352,-1470.7745 1352,-1451.7745 1266,-1451.7745"/>
<text text-anchor="middle" x="1309" y="-1458.7745" font-family="Helvetica,sans-Serif" font-size="10.00" fill="#000000">js_parse_export</text>
</a>
</g>
</g>
<!-- Node309146&#45;&gt;Node309157 -->
<g id="edge67" class="edge">
<title>Node309146&#45;&gt;Node309157</title>
<path fill="none" stroke="#191970" d="M177.9322,-1396.3865C179.8075,-1397.8091 181.5201,-1399.4294 183,-1401.2745 233.3043,-1463.9919 178.5274,-1691.8053 219,-1761.2745 276.8446,-1860.5617 322.0916,-1900.2745 437,-1900.2745 437,-1900.2745 437,-1900.2745 590.5,-1900.2745 893.519,-1900.2745 1028.3116,-1876.3094 1222,-1643.2745 1269.2339,-1586.4454 1297.7079,-1499.6563 1306.2589,-1470.9004"/>
<polygon fill="#191970" stroke="#191970" points="179.3222,-1393.1538 168.8854,-1391.3305 175.9072,-1399.2643 179.3222,-1393.1538"/>
</g>
<!-- Node309146&#45;&gt;Node309167 -->
<g id="edge58" class="edge">
<title>Node309146&#45;&gt;Node309167</title>
<path fill="none" stroke="#191970" d="M164.3408,-1400.1955C179.8587,-1407.4556 200.0153,-1415.5768 219,-1419.2745 406.2347,-1455.7429 482.9891,-1484.6767 647,-1387.2745 837.8577,-1273.9286 879.8608,-962.2228 887.1603,-889.558"/>
<polygon fill="#191970" stroke="#191970" points="165.8559,-1397.0405 155.33,-1395.8335 162.8058,-1403.341 165.8559,-1397.0405"/>
</g>
<!-- Node309168 -->
<g id="node9" class="node">
<title>Node309168</title>
<g id="a_node9"><a xlink:href="quickjs_8c.html#a42924858317b848c3aea0a0a978fab3a" target="_top" xlink:title="js_parse_var">
<polygon fill="none" stroke="#000000" points="1007,-1254.7745 1007,-1273.7745 1079,-1273.7745 1079,-1254.7745 1007,-1254.7745"/>
<text text-anchor="middle" x="1043" y="-1261.7745" font-family="Helvetica,sans-Serif" font-size="10.00" fill="#000000">js_parse_var</text>
</a>
</g>
</g>
<!-- Node309146&#45;&gt;Node309168 -->
<g id="edge65" class="edge">
<title>Node309146&#45;&gt;Node309168</title>
<path fill="none" stroke="#191970" d="M139.4226,-1405.8295C144.6141,-1448.7721 162.573,-1552.4063 219,-1614.2745 352.5399,-1760.6917 450.176,-1762.3228 647,-1739.2745 782.6571,-1723.3889 849.2999,-1764.7333 946,-1668.2745 1004.7292,-1609.6919 1036.2268,-1330.2702 1042.019,-1274.1169"/>
<polygon fill="#191970" stroke="#191970" points="142.8964,-1405.399 138.3183,-1395.8444 135.9388,-1406.1685 142.8964,-1405.399"/>
</g>
<!-- Node309152 -->
<g id="node10" class="node">
<title>Node309152</title>
<g id="a_node10"><a xlink:href="quickjs_8c.html#ac188b916dd086803591a67de7e7a85f6" target="_top" xlink:title="js_parse_for_in_of">
<polygon fill="none" stroke="#000000" points="995,-484.7745 995,-503.7745 1091,-503.7745 1091,-484.7745 995,-484.7745"/>
<text text-anchor="middle" x="1043" y="-491.7745" font-family="Helvetica,sans-Serif" font-size="10.00" fill="#000000">js_parse_for_in_of</text>
</a>
</g>
</g>
<!-- Node309146&#45;&gt;Node309152 -->
<g id="edge66" class="edge">
<title>Node309146&#45;&gt;Node309152</title>
<path fill="none" stroke="#191970" d="M155.3101,-1402.9432C170.8674,-1416.4627 194.7074,-1434.7794 219,-1444.2745 284.5149,-1469.882 305.7994,-1459.8211 376,-1464.2745 569.9427,-1476.5778 643.3555,-1460.8026 795,-1339.2745 880.2609,-1270.9463 902.9832,-1245.7122 946,-1145.2745 998.8608,-1021.8525 1036.4111,-576.4496 1042.216,-504.2062"/>
<polygon fill="#191970" stroke="#191970" points="157.3539,-1400.0753 147.569,-1396.0124 152.6846,-1405.2904 157.3539,-1400.0753"/>
</g>
<!-- Node309146&#45;&gt;Node309155 -->
<g id="edge68" class="edge">
<title>Node309146&#45;&gt;Node309155</title>
<path fill="none" stroke="#191970" d="M141.5004,-1405.8278C152.2823,-1456.396 183.5375,-1589.2908 219,-1614.2745 428.8612,-1762.1241 548.4977,-1642.9534 795,-1571.2745 866.3928,-1550.5146 901.9974,-1559.2051 946,-1499.2745 1013.4789,-1407.3697 958.6533,-1356.8757 982,-1245.2745 999.1332,-1163.3749 1029.7228,-1066.9333 1039.7318,-1036.2009"/>
<polygon fill="#191970" stroke="#191970" points="144.8864,-1404.9205 139.4124,-1395.8494 138.0348,-1406.3542 144.8864,-1404.9205"/>
</g>
<!-- Node309181 -->
<g id="node12" class="node">
<title>Node309181</title>
<g id="a_node12"><a xlink:href="quickjs_8c.html#ab87db7e4e299e811a54acab5fe3620a7" target="_top" xlink:title="set_object_name">
<polygon fill="none" stroke="#000000" points="234,-1585.7745 234,-1604.7745 325,-1604.7745 325,-1585.7745 234,-1585.7745"/>
<text text-anchor="middle" x="279.5" y="-1592.7745" font-family="Helvetica,sans-Serif" font-size="10.00" fill="#000000">set_object_name</text>
</a>
</g>
</g>
<!-- Node309146&#45;&gt;Node309181 -->
<g id="edge23" class="edge">
<title>Node309146&#45;&gt;Node309181</title>
<path fill="none" stroke="#191970" d="M143.4597,-1405.5751C154.3375,-1438.4846 179.9492,-1506.3464 219,-1552.2745 230.9365,-1566.3131 248.4153,-1578.0851 261.5201,-1585.7423"/>
<polygon fill="#191970" stroke="#191970" points="146.7234,-1404.2906 140.3374,-1395.8366 140.0576,-1406.4278 146.7234,-1404.2906"/>
</g>
<!-- Node309159 -->
<g id="node13" class="node">
<title>Node309159</title>
<g id="a_node13"><a xlink:href="quickjs_8c.html#aee6d0acd87f136d43f157ae1426436e6" target="_top" xlink:title="js_parse_object_literal">
<polygon fill="none" stroke="#000000" points="534,-1358.7745 534,-1377.7745 647,-1377.7745 647,-1358.7745 534,-1358.7745"/>
<text text-anchor="middle" x="590.5" y="-1365.7745" font-family="Helvetica,sans-Serif" font-size="10.00" fill="#000000">js_parse_object_literal</text>
</a>
</g>
</g>
<!-- Node309146&#45;&gt;Node309159 -->
<g id="edge45" class="edge">
<title>Node309146&#45;&gt;Node309159</title>
<path fill="none" stroke="#191970" d="M178.6512,-1394.7446C191.5136,-1397.0139 205.7939,-1399.1485 219,-1400.2745 342.5517,-1410.8092 375.7154,-1420.8288 498,-1400.2745 523.3042,-1396.0212 550.9396,-1385.6522 569.3523,-1377.8618"/>
<polygon fill="#191970" stroke="#191970" points="179.1556,-1391.2787 168.6875,-1392.9125 177.8897,-1398.1633 179.1556,-1391.2787"/>
</g>
<!-- Node309146&#45;&gt;Node309176 -->
<g id="edge52" class="edge">
<title>Node309146&#45;&gt;Node309176</title>
<path fill="none" stroke="#191970" d="M178.8065,-1376.573C220.136,-1366.4188 285.2653,-1349.1968 340,-1329.2745 428.9921,-1296.8832 530.5852,-1246.7847 571.7331,-1225.9136"/>
<polygon fill="#191970" stroke="#191970" points="177.7218,-1373.2347 168.8326,-1378.9996 179.3766,-1380.0363 177.7218,-1373.2347"/>
</g>
<!-- Node309182 -->
<g id="node17" class="node">
<title>Node309182</title>
<g id="a_node17"><a xlink:href="quickjs_8c.html#a1e86277b96b55991d572603e00fef94d" target="_top" xlink:title="emit_class_field_init">
<polygon fill="none" stroke="#000000" points="227,-996.7745 227,-1015.7745 332,-1015.7745 332,-996.7745 227,-996.7745"/>
<text text-anchor="middle" x="279.5" y="-1003.7745" font-family="Helvetica,sans-Serif" font-size="10.00" fill="#000000">emit_class_field_init</text>
</a>
</g>
</g>
<!-- Node309146&#45;&gt;Node309182 -->
<g id="edge46" class="edge">
<title>Node309146&#45;&gt;Node309182</title>
<path fill="none" stroke="#191970" d="M146.2595,-1367.1895C155.7419,-1346.2783 171.1027,-1311.6601 183,-1281.2745 223.2154,-1178.565 264.9167,-1051.364 276.4108,-1015.8642"/>
<polygon fill="#191970" stroke="#191970" points="142.9656,-1365.9772 142.0017,-1376.5281 149.3349,-1368.8811 142.9656,-1365.9772"/>
</g>
<!-- Node309183 -->
<g id="node18" class="node">
<title>Node309183</title>
<g id="a_node18"><a xlink:href="quickjs_8c.html#a38e4107378b0d9abd638e4fe13541678" target="_top" xlink:title="emit_class_init_start">
<polygon fill="none" stroke="#ff0000" points="226,-958.7745 226,-977.7745 333,-977.7745 333,-958.7745 226,-958.7745"/>
<text text-anchor="middle" x="279.5" y="-965.7745" font-family="Helvetica,sans-Serif" font-size="10.00" fill="#000000">emit_class_init_start</text>
</a>
</g>
</g>
<!-- Node309146&#45;&gt;Node309183 -->
<g id="edge49" class="edge">
<title>Node309146&#45;&gt;Node309183</title>
<path fill="none" stroke="#191970" d="M147.4014,-1367.8955C157.9861,-1347.3829 174.4026,-1312.9077 183,-1281.2745 200.263,-1217.7573 176.8909,-1037.8637 219,-987.2745 222.2399,-983.3822 226.2688,-980.2752 230.6986,-977.797"/>
<polygon fill="#191970" stroke="#191970" points="144.2911,-1366.2903 142.7336,-1376.77 150.4864,-1369.5489 144.2911,-1366.2903"/>
</g>
<!-- Node309146&#45;&gt;Node309185 -->
<g id="edge53" class="edge">
<title>Node309146&#45;&gt;Node309185</title>
<path fill="none" stroke="#191970" d="M144.2935,-1366.8546C155.4046,-1337.8939 180.1919,-1283.5596 219,-1253.2745 227.5924,-1246.5691 238.587,-1242.2085 248.8408,-1239.3818"/>
<polygon fill="#191970" stroke="#191970" points="140.873,-1366.0152 140.704,-1376.6086 147.4423,-1368.4327 140.873,-1366.0152"/>
</g>
<!-- Node309170 -->
<g id="node20" class="node">
<title>Node309170</title>
<g id="a_node20"><a xlink:href="quickjs_8c.html#a2ecfb6abb190101748202a8aa5821fba" target="_top" xlink:title="js_parse_delete">
<polygon fill="none" stroke="#ff0000" points="237,-1300.7745 237,-1319.7745 322,-1319.7745 322,-1300.7745 237,-1300.7745"/>
<text text-anchor="middle" x="279.5" y="-1307.7745" font-family="Helvetica,sans-Serif" font-size="10.00" fill="#000000">js_parse_delete</text>
</a>
</g>
</g>
<!-- Node309146&#45;&gt;Node309170 -->
<g id="edge60" class="edge">
<title>Node309146&#45;&gt;Node309170</title>
<path fill="none" stroke="#191970" d="M159.5003,-1370.6138C175.5267,-1359.6142 198.0146,-1345.008 219,-1334.2745 229.5632,-1328.8717 241.6391,-1323.8634 252.2097,-1319.8349"/>
<polygon fill="#191970" stroke="#191970" points="157.0813,-1368.033 150.8711,-1376.617 161.0788,-1373.7793 157.0813,-1368.033"/>
</g>
<!-- Node309186 -->
<g id="node21" class="node">
<title>Node309186</title>
<g id="a_node21"><a xlink:href="quickjs_8c.html#acea69d5aa6481a035d0833b8bce455f5" target="_top" xlink:title="emit_return">
<polygon fill="none" stroke="#000000" points="247,-806.7745 247,-825.7745 312,-825.7745 312,-806.7745 247,-806.7745"/>
<text text-anchor="middle" x="279.5" y="-813.7745" font-family="Helvetica,sans-Serif" font-size="10.00" fill="#000000">emit_return</text>
</a>
</g>
</g>
<!-- Node309146&#45;&gt;Node309186 -->
<g id="edge61" class="edge">
<title>Node309146&#45;&gt;Node309186</title>
<path fill="none" stroke="#191970" d="M147.6514,-1367.5964C158.3132,-1347.0657 174.6652,-1312.8013 183,-1281.2745 220.9351,-1137.7838 179.7749,-1092.4179 219,-949.2745 232.3411,-900.589 261.4989,-847.2272 273.8218,-825.8782"/>
<polygon fill="#191970" stroke="#191970" points="144.5233,-1366.0246 142.9346,-1376.4997 150.7089,-1369.3017 144.5233,-1366.0246"/>
</g>
<!-- Node309147&#45;&gt;Node309148 -->
<g id="edge3" class="edge">
<title>Node309147&#45;&gt;Node309148</title>
<path fill="none" stroke="#191970" d="M332.5751,-1283.6221C406.2983,-1296.7901 542.4189,-1311.587 647,-1268.2745 687.4614,-1251.5173 719.895,-1207.6632 732.8756,-1188.0271"/>
<polygon fill="#191970" stroke="#191970" points="333.0655,-1280.1536 322.5964,-1281.7811 331.7954,-1287.0374 333.0655,-1280.1536"/>
</g>
<!-- Node309148&#45;&gt;Node309148 -->
<g id="edge21" class="edge">
<title>Node309148&#45;&gt;Node309148</title>
<path fill="none" stroke="#191970" d="M711.3742,-1196.9284C712.5289,-1202.2113 721.7375,-1206.2745 739,-1206.2745 765.3047,-1206.2745 772.9084,-1196.8398 761.8111,-1188.0316"/>
<polygon fill="#191970" stroke="#191970" points="714.5076,-1198.4921 716.1889,-1188.0316 708.3512,-1195.1605 714.5076,-1198.4921"/>
</g>
<!-- Node309148&#45;&gt;Node309149 -->
<g id="edge4" class="edge">
<title>Node309148&#45;&gt;Node309149</title>
<path fill="none" stroke="#191970" d="M741.0405,-1197.9076C748.13,-1267.7833 774.4114,-1500.8627 831,-1545.2745 924.166,-1618.3929 1078.1364,-1572.1606 1146.4805,-1549.8145"/>
<polygon fill="#191970" stroke="#191970" points="744.5092,-1197.4185 740.033,-1187.8157 737.5438,-1198.1139 744.5092,-1197.4185"/>
</g>
<!-- Node309148&#45;&gt;Node309167 -->
<g id="edge9" class="edge">
<title>Node309148&#45;&gt;Node309167</title>
<path fill="none" stroke="#191970" d="M746.7592,-1159.2841C772.0716,-1103.177 852.1743,-940.2131 879.3662,-889.3966"/>
<polygon fill="#191970" stroke="#191970" points="743.5422,-1157.9049 742.6955,-1168.4659 749.9433,-1160.738 743.5422,-1157.9049"/>
</g>
<!-- Node309148&#45;&gt;Node309152 -->
<g id="edge22" class="edge">
<title>Node309148&#45;&gt;Node309152</title>
<path fill="none" stroke="#191970" d="M756.8051,-1161.5204C797.104,-1122.5518 895.696,-1021.1345 946,-916.2745 1019.4843,-763.0946 1038.8206,-551.4839 1042.3434,-503.9913"/>
<polygon fill="#191970" stroke="#191970" points="754.3559,-1159.0198 749.5541,-1168.464 759.1974,-1164.0755 754.3559,-1159.0198"/>
</g>
<!-- Node309149&#45;&gt;Node309148 -->
<g id="edge5" class="edge">
<title>Node309149&#45;&gt;Node309148</title>
<path fill="none" stroke="#191970" d="M1157.887,-1554.613C1096.9433,-1584.1453 929.789,-1640.8059 831,-1563.2745 769.4108,-1514.9381 743.7218,-1243.1165 739.603,-1187.8781"/>
<polygon fill="#191970" stroke="#191970" points="1159.7163,-1557.6096 1167.0476,-1549.9609 1156.5467,-1551.3683 1159.7163,-1557.6096"/>
</g>
<!-- Node309149&#45;&gt;Node309150 -->
<g id="edge6" class="edge">
<title>Node309149&#45;&gt;Node309150</title>
<path fill="none" stroke="#191970" d="M1183.2982,-1520.4701C1199.2455,-1383.0493 1293.2005,-573.4217 1307.2442,-452.4048"/>
<polygon fill="#191970" stroke="#191970" points="1179.7827,-1520.4022 1182.1066,-1530.739 1186.7361,-1521.2092 1179.7827,-1520.4022"/>
</g>
<!-- Node309149&#45;&gt;Node309157 -->
<g id="edge8" class="edge">
<title>Node309149&#45;&gt;Node309157</title>
<path fill="none" stroke="#191970" d="M1205.2852,-1525.286C1231.2267,-1509.2752 1271.5635,-1484.3798 1293.5055,-1470.8375"/>
<polygon fill="#191970" stroke="#191970" points="1203.1113,-1522.5147 1196.4398,-1530.7453 1206.7878,-1528.4715 1203.1113,-1522.5147"/>
</g>
<!-- Node309150&#45;&gt;Node309150 -->
<g id="edge7" class="edge">
<title>Node309150&#45;&gt;Node309150</title>
<path fill="none" stroke="#191970" d="M1286.2559,-462.7324C1289.0788,-467.4535 1296.6602,-470.7745 1309,-470.7745 1329.25,-470.7745 1336.6855,-461.8311 1331.3066,-452.4335"/>
<polygon fill="#191970" stroke="#191970" points="1289.7658,-462.573 1286.6934,-452.4335 1282.7721,-462.2759 1289.7658,-462.573"/>
</g>
<!-- Node309167&#45;&gt;Node309148 -->
<g id="edge11" class="edge">
<title>Node309167&#45;&gt;Node309148</title>
<path fill="none" stroke="#191970" d="M878.2472,-898.7512C849.4396,-961.7183 768.3664,-1126.338 745.2335,-1168.5125"/>
<polygon fill="#191970" stroke="#191970" points="881.4755,-900.1065 882.405,-889.5525 875.0968,-897.2233 881.4755,-900.1065"/>
</g>
<!-- Node309167&#45;&gt;Node309150 -->
<g id="edge17" class="edge">
<title>Node309167&#45;&gt;Node309150</title>
<path fill="none" stroke="#191970" d="M910.0411,-851.8882C984.6651,-774.336 1231.0106,-518.3241 1294.151,-452.7062"/>
<polygon fill="#191970" stroke="#191970" points="907.3863,-849.5993 902.9746,-859.232 912.4304,-854.453 907.3863,-849.5993"/>
</g>
<!-- Node309167&#45;&gt;Node309167 -->
<g id="edge10" class="edge">
<title>Node309167&#45;&gt;Node309167</title>
<path fill="none" stroke="#191970" d="M862.2022,-899.7324C865.4661,-904.4535 874.2321,-907.7745 888.5,-907.7745 911.9141,-907.7745 920.5114,-898.8311 914.2921,-889.4335"/>
<polygon fill="#191970" stroke="#191970" points="865.7132,-899.5932 862.7079,-889.4335 858.7216,-899.2498 865.7132,-899.5932"/>
</g>
<!-- Node309167&#45;&gt;Node309168 -->
<g id="edge12" class="edge">
<title>Node309167&#45;&gt;Node309168</title>
<path fill="none" stroke="#191970" d="M913.9026,-896.5222C925.1129,-907.5111 937.6187,-921.556 946,-936.2745 954.4113,-951.0457 1025.3923,-1201.8514 1040.2713,-1254.5914"/>
<polygon fill="#191970" stroke="#191970" points="916.0829,-893.7666 906.4152,-889.432 911.2697,-898.8493 916.0829,-893.7666"/>
</g>
<!-- Node309167&#45;&gt;Node309152 -->
<g id="edge15" class="edge">
<title>Node309167&#45;&gt;Node309152</title>
<path fill="none" stroke="#191970" d="M891.6819,-848.8659C899.5972,-792.6895 923.8853,-655.0937 982,-556.2745 994.7068,-534.6677 1016.5832,-515.013 1030.3946,-503.8638"/>
<polygon fill="#191970" stroke="#191970" points="888.186,-848.6007 890.312,-858.98 895.1226,-849.5403 888.186,-848.6007"/>
</g>
<!-- Node309167&#45;&gt;Node309155 -->
<g id="edge18" class="edge">
<title>Node309167&#45;&gt;Node309155</title>
<path fill="none" stroke="#191970" d="M911.1059,-896.5146C945.3029,-930.1583 1008.7781,-992.6063 1033.1335,-1016.5677"/>
<polygon fill="#191970" stroke="#191970" points="913.462,-893.9227 903.8789,-889.4045 908.5528,-898.9127 913.462,-893.9227"/>
</g>
<!-- Node309168&#45;&gt;Node309150 -->
<g id="edge13" class="edge">
<title>Node309168&#45;&gt;Node309150</title>
<path fill="none" stroke="#191970" d="M1049.2158,-1244.9495C1085.6961,-1131.5313 1271.4916,-553.8891 1304.1084,-452.4827"/>
<polygon fill="#191970" stroke="#191970" points="1045.8094,-1244.1095 1046.0793,-1254.7009 1052.4732,-1246.2529 1045.8094,-1244.1095"/>
</g>
<!-- Node309168&#45;&gt;Node309157 -->
<g id="edge14" class="edge">
<title>Node309168&#45;&gt;Node309157</title>
<path fill="none" stroke="#191970" d="M1064.1104,-1279.9089C1116.8588,-1318.9745 1253.2405,-1419.979 1295.9874,-1451.6373"/>
<polygon fill="#191970" stroke="#191970" points="1065.9489,-1276.9152 1055.8297,-1273.7762 1061.7828,-1282.5405 1065.9489,-1276.9152"/>
</g>
<!-- Node309152&#45;&gt;Node309150 -->
<g id="edge16" class="edge">
<title>Node309152&#45;&gt;Node309150</title>
<path fill="none" stroke="#191970" d="M1097.5298,-482.5896C1144.5621,-472.5112 1211.9744,-458.0657 1257.9609,-448.2114"/>
<polygon fill="#191970" stroke="#191970" points="1096.5671,-479.2163 1087.5224,-484.734 1098.0338,-486.0609 1096.5671,-479.2163"/>
</g>
<!-- Node309155&#45;&gt;Node309149 -->
<g id="edge19" class="edge">
<title>Node309155&#45;&gt;Node309149</title>
<path fill="none" stroke="#191970" d="M1048.5146,-1045.6611C1059.3444,-1083.823 1084.072,-1171.4009 1104,-1245.2745 1134.191,-1357.1931 1169.0778,-1493.5149 1178.5315,-1530.5825"/>
<polygon fill="#191970" stroke="#191970" points="1051.8313,-1044.5281 1045.7317,-1035.8652 1045.0977,-1046.441 1051.8313,-1044.5281"/>
</g>
<!-- Node309155&#45;&gt;Node309157 -->
<g id="edge20" class="edge">
<title>Node309155&#45;&gt;Node309157</title>
<path fill="none" stroke="#191970" d="M1054.4529,-1045.0039C1100.229,-1119.8633 1269.207,-1396.1995 1303.0693,-1451.5758"/>
<polygon fill="#191970" stroke="#191970" points="1057.2585,-1042.8829 1049.0556,-1036.1774 1051.2865,-1046.5347 1057.2585,-1042.8829"/>
</g>
<!-- Node309181&#45;&gt;Node309149 -->
<g id="edge26" class="edge">
<title>Node309181&#45;&gt;Node309149</title>
<path fill="none" stroke="#191970" d="M304.5979,-1610.0403C372.2613,-1648.4055 565.0982,-1748.2745 739,-1748.2745 739,-1748.2745 739,-1748.2745 888.5,-1748.2745 1027.1435,-1748.2745 1145.7417,-1591.1502 1174.4069,-1550.0278"/>
<polygon fill="#191970" stroke="#191970" points="305.9561,-1606.7845 295.5402,-1604.8453 302.4734,-1612.8567 305.9561,-1606.7845"/>
</g>
<!-- Node309181&#45;&gt;Node309157 -->
<g id="edge43" class="edge">
<title>Node309181&#45;&gt;Node309157</title>
<path fill="none" stroke="#191970" d="M293.5022,-1612.6904C310.8581,-1633.2172 342.2934,-1667.0817 376,-1687.2745 537.4888,-1784.0184 607.506,-1766.127 795,-1749.2745 934.01,-1736.7799 982.4089,-1761.7983 1104,-1693.2745 1206.5472,-1635.483 1283.667,-1506.7853 1303.8174,-1470.7909"/>
<polygon fill="#191970" stroke="#191970" points="296.0335,-1610.2595 286.9604,-1604.7886 290.6415,-1614.7234 296.0335,-1610.2595"/>
</g>
<!-- Node309181&#45;&gt;Node309167 -->
<g id="edge27" class="edge">
<title>Node309181&#45;&gt;Node309167</title>
<path fill="none" stroke="#191970" d="M335.2356,-1590.9492C444.5687,-1579.1603 685.9841,-1536.1223 795,-1382.2745 853.7167,-1299.411 881.7251,-965.5095 887.4005,-889.6559"/>
<polygon fill="#191970" stroke="#191970" points="334.6651,-1587.4894 325.0762,-1591.9952 335.3821,-1594.4526 334.6651,-1587.4894"/>
</g>
<!-- Node309181&#45;&gt;Node309168 -->
<g id="edge42" class="edge">
<title>Node309181&#45;&gt;Node309168</title>
<path fill="none" stroke="#191970" d="M310.2506,-1608.697C328.8803,-1616.0887 353.3478,-1624.5084 376,-1628.2745 429.488,-1637.1673 443.8757,-1631.5319 498,-1628.2745 702.8683,-1615.9447 799.9841,-1660.505 946,-1516.2745 1019.0406,-1444.127 1038.1005,-1310.999 1042.0842,-1274.0238"/>
<polygon fill="#191970" stroke="#191970" points="311.3971,-1605.3847 300.816,-1604.8443 308.7506,-1611.8652 311.3971,-1605.3847"/>
</g>
<!-- Node309181&#45;&gt;Node309155 -->
<g id="edge44" class="edge">
<title>Node309181&#45;&gt;Node309155</title>
<path fill="none" stroke="#191970" d="M335.1082,-1597.5036C379.5413,-1598.2642 443.2259,-1597.0622 498,-1587.2745 704.2883,-1550.4123 808.1137,-1598.0752 946,-1440.2745 1003.9897,-1373.9096 962.1564,-1331.1427 982,-1245.2745 1000.9285,-1163.3659 1030.5876,-1066.1499 1040.0172,-1035.8023"/>
<polygon fill="#191970" stroke="#191970" points="335.1599,-1594.004 325.0886,-1597.2932 335.0129,-1601.0024 335.1599,-1594.004"/>
</g>
<!-- Node309181&#45;&gt;Node309159 -->
<g id="edge24" class="edge">
<title>Node309181&#45;&gt;Node309159</title>
<path fill="none" stroke="#191970" d="M301.8026,-1579.524C341.4806,-1551.4418 426.8508,-1490.745 498,-1438.2745 526.8506,-1416.998 560.3008,-1391.467 578.0062,-1377.8842"/>
<polygon fill="#191970" stroke="#191970" points="299.534,-1576.8416 293.3905,-1585.4734 303.576,-1582.5567 299.534,-1576.8416"/>
</g>
<!-- Node309181&#45;&gt;Node309175 -->
<g id="edge28" class="edge">
<title>Node309181&#45;&gt;Node309175</title>
<path fill="none" stroke="#191970" d="M284.1821,-1575.7164C294.6518,-1531.7673 320.5628,-1421.7962 340,-1329.2745 381.689,-1130.8337 426.0611,-886.8795 435.2688,-835.8884"/>
<polygon fill="#191970" stroke="#191970" points="280.7313,-1575.0982 281.8134,-1585.6377 287.54,-1576.7238 280.7313,-1575.0982"/>
</g>
<!-- Node309159&#45;&gt;Node309148 -->
<g id="edge25" class="edge">
<title>Node309159&#45;&gt;Node309148</title>
<path fill="none" stroke="#191970" d="M632.2149,-1354.3913C637.5355,-1351.5538 642.6373,-1348.204 647,-1344.2745 698.4136,-1297.9662 727.3847,-1215.929 736.1362,-1187.942"/>
<polygon fill="#191970" stroke="#191970" points="630.6797,-1351.2456 623.1459,-1358.695 633.6808,-1357.5697 630.6797,-1351.2456"/>
</g>
<!-- Node309175&#45;&gt;Node309148 -->
<g id="edge34" class="edge">
<title>Node309175&#45;&gt;Node309148</title>
<path fill="none" stroke="#191970" d="M452.1599,-843.9443C506.393,-907.1564 689.72,-1120.8356 730.7902,-1168.7054"/>
<polygon fill="#191970" stroke="#191970" points="454.5602,-841.3669 445.3924,-836.0564 449.2476,-845.9249 454.5602,-841.3669"/>
</g>
<!-- Node309175&#45;&gt;Node309149 -->
<g id="edge30" class="edge">
<title>Node309175&#45;&gt;Node309149</title>
<path fill="none" stroke="#191970" d="M465.0064,-812.2024C545.4636,-773.9144 782.0009,-676.4899 946,-765.2745 1058.9588,-826.4273 1058.6375,-887.1013 1104,-1007.2745 1142.4662,-1109.1782 1174.6975,-1467.1142 1180.1786,-1530.6083"/>
<polygon fill="#191970" stroke="#191970" points="463.0365,-809.2672 455.5574,-816.7714 466.0838,-815.5691 463.0365,-809.2672"/>
</g>
<!-- Node309175&#45;&gt;Node309157 -->
<g id="edge40" class="edge">
<title>Node309175&#45;&gt;Node309157</title>
<path fill="none" stroke="#191970" d="M464.1937,-812.184C483.1905,-803.1388 509.4494,-792.1963 534,-787.2745 713.6282,-751.2635 786.0156,-711.0105 946,-800.2745 1214.6767,-950.1839 1295.9677,-1381.8716 1307.4966,-1451.6867"/>
<polygon fill="#191970" stroke="#191970" points="462.4122,-809.1591 454.9691,-816.6991 465.4896,-815.4464 462.4122,-809.1591"/>
</g>
<!-- Node309175&#45;&gt;Node309167 -->
<g id="edge33" class="edge">
<title>Node309175&#45;&gt;Node309167</title>
<path fill="none" stroke="#191970" d="M502.8668,-831.4583C574.7747,-837.3674 693.2586,-847.8354 795,-860.2745 806.5675,-861.6888 818.9107,-863.3954 830.7094,-865.1235"/>
<polygon fill="#191970" stroke="#191970" points="502.8547,-827.9458 492.6029,-830.6199 502.2847,-834.9225 502.8547,-827.9458"/>
</g>
<!-- Node309175&#45;&gt;Node309168 -->
<g id="edge38" class="edge">
<title>Node309175&#45;&gt;Node309168</title>
<path fill="none" stroke="#191970" d="M459.2052,-841.7262C497.625,-868.5051 578.9242,-925.3653 647,-974.2745 798.5584,-1083.162 980.6132,-1217.9796 1030.0725,-1254.6757"/>
<polygon fill="#191970" stroke="#191970" points="461.0266,-838.7296 450.8207,-835.8854 457.0254,-844.4733 461.0266,-838.7296"/>
</g>
<!-- Node309175&#45;&gt;Node309152 -->
<g id="edge39" class="edge">
<title>Node309175&#45;&gt;Node309152</title>
<path fill="none" stroke="#191970" d="M446.7613,-807.4984C459.407,-782.8094 481.7535,-737.913 498,-698.2745 516.5502,-653.0154 500.6168,-630.0244 534,-594.2745 571.2409,-554.3935 599.9582,-573.9233 647,-546.2745 664.4749,-536.0036 664.0569,-525.4872 683,-518.2745 788.5165,-478.0987 923.9176,-482.6003 994.8089,-488.7821"/>
<polygon fill="#191970" stroke="#191970" points="443.5994,-805.9935 442.1282,-816.4857 449.8213,-809.201 443.5994,-805.9935"/>
</g>
<!-- Node309175&#45;&gt;Node309155 -->
<g id="edge41" class="edge">
<title>Node309175&#45;&gt;Node309155</title>
<path fill="none" stroke="#191970" d="M482.7866,-814.3758C577.6627,-792.5079 799.1097,-756.1965 946,-849.2745 1009.0459,-889.224 1034.3303,-985.2279 1041.0455,-1016.3521"/>
<polygon fill="#191970" stroke="#191970" points="481.8583,-810.9986 472.9294,-816.7017 483.466,-817.8116 481.8583,-810.9986"/>
</g>
<!-- Node309175&#45;&gt;Node309159 -->
<g id="edge29" class="edge">
<title>Node309175&#45;&gt;Node309159</title>
<path fill="none" stroke="#191970" d="M440.4274,-845.8642C451.0911,-905.3402 485.8738,-1088.7184 534,-1235.2745 549.5758,-1282.7065 575.077,-1336.7636 585.6608,-1358.4844"/>
<polygon fill="#191970" stroke="#191970" points="443.862,-845.1866 438.6691,-835.9517 436.9696,-846.4093 443.862,-845.1866"/>
</g>
<!-- Node309175&#45;&gt;Node309175 -->
<g id="edge37" class="edge">
<title>Node309175&#45;&gt;Node309175</title>
<path fill="none" stroke="#191970" d="M408.6275,-844.9284C409.8135,-850.2113 419.271,-854.2745 437,-854.2745 464.0156,-854.2745 471.8248,-844.8398 460.4276,-836.0316"/>
<polygon fill="#191970" stroke="#191970" points="411.7735,-846.4726 413.5724,-836.0316 405.6551,-843.0719 411.7735,-846.4726"/>
</g>
<!-- Node309175&#45;&gt;Node309176 -->
<g id="edge31" class="edge">
<title>Node309175&#45;&gt;Node309176</title>
<path fill="none" stroke="#191970" d="M444.2355,-845.4842C460.1716,-887.701 499.6199,-991.7008 534,-1078.2745 553.2055,-1126.6367 577.083,-1184.128 586.4563,-1206.5991"/>
<polygon fill="#191970" stroke="#191970" points="447.4307,-844.0378 440.6272,-835.9161 440.881,-846.5079 447.4307,-844.0378"/>
</g>
<!-- Node309174 -->
<g id="node16" class="node">
<title>Node309174</title>
<g id="a_node16"><a xlink:href="quickjs_8c.html#abd2cbff624ea609dbf883fb1a2f048cd" target="_top" xlink:title="js_parse_cond_expr">
<polygon fill="none" stroke="#000000" points="538.5,-446.7745 538.5,-465.7745 642.5,-465.7745 642.5,-446.7745 538.5,-446.7745"/>
<text text-anchor="middle" x="590.5" y="-453.7745" font-family="Helvetica,sans-Serif" font-size="10.00" fill="#000000">js_parse_cond_expr</text>
</a>
</g>
</g>
<!-- Node309175&#45;&gt;Node309174 -->
<g id="edge35" class="edge">
<title>Node309175&#45;&gt;Node309174</title>
<path fill="none" stroke="#191970" d="M441.513,-806.6996C454.0064,-760.1198 490.9797,-641.1789 534,-547.2745 548.0359,-516.6371 568.1631,-482.87 580.2222,-466.0467"/>
<polygon fill="#191970" stroke="#191970" points="438.1049,-805.8991 438.9897,-816.4569 444.882,-807.6517 438.1049,-805.8991"/>
</g>
<!-- Node309176&#45;&gt;Node309148 -->
<g id="edge32" class="edge">
<title>Node309176&#45;&gt;Node309148</title>
<path fill="none" stroke="#191970" d="M637.8329,-1204.1624C658.5146,-1198.8701 682.4188,-1192.7532 701.7966,-1187.7946"/>
<polygon fill="#191970" stroke="#191970" points="636.793,-1200.8156 627.9728,-1206.6855 638.5284,-1207.5971 636.793,-1200.8156"/>
</g>
<!-- Node309174&#45;&gt;Node309175 -->
<g id="edge36" class="edge">
<title>Node309174&#45;&gt;Node309175</title>
<path fill="none" stroke="#191970" d="M582.3746,-474.9041C570.6895,-496.6589 548.9086,-532.7322 534,-565.2745 490.4351,-660.3676 453.0714,-781.135 441.0504,-816.4974"/>
<polygon fill="#191970" stroke="#191970" points="585.5035,-476.4729 586.9721,-465.9803 579.2808,-473.267 585.5035,-476.4729"/>
</g>
<!-- Node309182&#45;&gt;Node309148 -->
<g id="edge47" class="edge">
<title>Node309182&#45;&gt;Node309148</title>
<path fill="none" stroke="#191970" d="M308.8957,-1020.2899C355.8251,-1042.3653 450.8645,-1085.8493 534,-1116.2745 592.3122,-1137.6151 661.7835,-1157.4971 703.0398,-1168.742"/>
<polygon fill="#191970" stroke="#191970" points="310.1704,-1017.0212 299.6333,-1015.9166 307.1816,-1023.3512 310.1704,-1017.0212"/>
</g>
<!-- Node309182&#45;&gt;Node309155 -->
<g id="edge48" class="edge">
<title>Node309182&#45;&gt;Node309155</title>
<path fill="none" stroke="#191970" d="M342.633,-1004.0259C461.1152,-1000.4309 724.7987,-995.3927 946,-1012.2745 958.9786,-1013.265 972.8623,-1014.9137 985.9513,-1016.7388"/>
<polygon fill="#191970" stroke="#191970" points="342.1936,-1000.5377 332.3072,-1004.3468 342.4111,-1007.5343 342.1936,-1000.5377"/>
</g>
<!-- Node309183&#45;&gt;Node309149 -->
<g id="edge50" class="edge">
<title>Node309183&#45;&gt;Node309149</title>
<path fill="none" stroke="#191970" d="M333.3996,-980.1108C431.2041,-1003.2857 641.936,-1061.1332 795,-1159.2745 974.1411,-1274.1358 1137.8183,-1483.1305 1173.7201,-1530.5362"/>
<polygon fill="#191970" stroke="#191970" points="333.9824,-976.6526 323.4478,-977.7803 332.3863,-983.4682 333.9824,-976.6526"/>
</g>
<!-- Node309185&#45;&gt;Node309167 -->
<g id="edge54" class="edge">
<title>Node309185&#45;&gt;Node309167</title>
<path fill="none" stroke="#191970" d="M304.4811,-1219.5074C402.9355,-1161.3077 763.5775,-948.1203 862.9809,-889.3597"/>
<polygon fill="#191970" stroke="#191970" points="302.6166,-1216.5436 295.7893,-1224.6454 306.1788,-1222.5696 302.6166,-1216.5436"/>
</g>
<!-- Node309185&#45;&gt;Node309168 -->
<g id="edge56" class="edge">
<title>Node309185&#45;&gt;Node309168</title>
<path fill="none" stroke="#191970" d="M319.9848,-1242.0464C327.1888,-1244.7465 334.2252,-1248.3817 340,-1253.2745 366.9937,-1276.1457 354.0756,-1296.5063 376,-1324.2745 433.0578,-1396.5409 447.5598,-1426.5552 534,-1458.2745 616.6361,-1488.5979 861.5616,-1493.6381 946,-1440.2745 1008.8197,-1400.5735 1034.2543,-1305.0969 1041.0263,-1274.1428"/>
<polygon fill="#191970" stroke="#191970" points="320.7508,-1238.6171 310.1601,-1238.9137 318.6242,-1245.2862 320.7508,-1238.6171"/>
</g>
<!-- Node309185&#45;&gt;Node309152 -->
<g id="edge57" class="edge">
<title>Node309185&#45;&gt;Node309152</title>
<path fill="none" stroke="#191970" d="M319.924,-1246.2406C326.6745,-1248.4467 333.57,-1250.8299 340,-1253.2745 411.9612,-1280.6333 440.9919,-1272.5349 498,-1324.2745 521.8803,-1345.9478 506.1075,-1371.0878 534,-1387.2745 577.4377,-1412.4824 601.3524,-1408.2166 647,-1387.2745 1014.6395,-1218.6099 1040.9731,-589.1317 1042.8554,-503.8584"/>
<polygon fill="#191970" stroke="#191970" points="320.7988,-1242.8461 310.2083,-1243.1486 318.6759,-1249.5165 320.7988,-1242.8461"/>
</g>
<!-- Node309185&#45;&gt;Node309175 -->
<g id="edge55" class="edge">
<title>Node309185&#45;&gt;Node309175</title>
<path fill="none" stroke="#191970" d="M286.9693,-1214.9255C314.9156,-1142.5312 412.7566,-889.0763 433.2271,-836.048"/>
<polygon fill="#191970" stroke="#191970" points="283.5741,-1214.002 283.2379,-1224.5915 290.1044,-1216.5229 283.5741,-1214.002"/>
</g>
<!-- Node309186&#45;&gt;Node309150 -->
<g id="edge63" class="edge">
<title>Node309186&#45;&gt;Node309150</title>
<path fill="none" stroke="#191970" d="M322.108,-806.075C328.3589,-803.6875 334.5269,-800.7853 340,-797.2745 428.2014,-740.6966 439.8409,-709.4414 498,-622.2745 518.7441,-591.184 506.0594,-571.0991 534,-546.2745 573.6102,-511.0817 598.5278,-529.6743 647,-508.2745 663.7441,-500.8822 665.483,-493.5819 683,-488.2745 888.8419,-425.9072 1149.1233,-429.3711 1257.7474,-434.2456"/>
<polygon fill="#191970" stroke="#191970" points="320.6407,-802.8773 312.3048,-809.4166 322.8993,-809.5029 320.6407,-802.8773"/>
</g>
<!-- Node309186&#45;&gt;Node309155 -->
<g id="edge64" class="edge">
<title>Node309186&#45;&gt;Node309155</title>
<path fill="none" stroke="#191970" d="M322.1073,-808.7494C453.0625,-786.5999 846.7906,-727.6059 946,-800.2745 1021.0911,-855.277 1038.6331,-980.4892 1042.1863,-1016.4497"/>
<polygon fill="#191970" stroke="#191970" points="321.3259,-805.3321 312.0572,-810.4645 322.5035,-812.2323 321.3259,-805.3321"/>
</g>
<!-- Node309186&#45;&gt;Node309175 -->
<g id="edge62" class="edge">
<title>Node309186&#45;&gt;Node309175</title>
<path fill="none" stroke="#191970" d="M322.1792,-818.9843C340.4317,-820.1432 361.9821,-821.5115 381.4541,-822.7478"/>
<polygon fill="#191970" stroke="#191970" points="322.3358,-815.4873 312.1341,-818.3465 321.8922,-822.4732 322.3358,-815.4873"/>
</g>
<!-- Node309187&#45;&gt;Node309149 -->
<g id="edge70" class="edge">
<title>Node309187&#45;&gt;Node309149</title>
<path fill="none" stroke="#191970" d="M800.8247,-1954.6617C882.0962,-1947.8128 1023.9071,-1923.5195 1104,-1838.2745 1145.3459,-1794.269 1173.701,-1595.712 1179.7789,-1549.7796"/>
<polygon fill="#191970" stroke="#191970" points="800.4362,-1951.1813 790.7386,-1955.4482 800.9804,-1958.1601 800.4362,-1951.1813"/>
</g>
<!-- Node309188&#45;&gt;Node309150 -->
<g id="edge88" class="edge">
<title>Node309188&#45;&gt;Node309150</title>
<path fill="none" stroke="#191970" d="M169.7683,-745.7304C210.2268,-728.4241 281.3897,-696.9055 340,-665.2745 412.719,-626.0292 439.7836,-625.9183 498,-567.2745 519.6414,-545.4742 509.6116,-526.951 534,-508.2745 575.539,-476.4642 598.083,-493.8355 647,-475.2745 663.5434,-468.9973 666.05,-463.3523 683,-458.2745 877.9868,-399.8617 936.4527,-428.9186 1140,-428.2745 1176.4443,-428.1592 1185.604,-426.397 1222,-428.2745 1233.5251,-428.869 1245.8749,-429.9038 1257.544,-431.065"/>
<polygon fill="#191970" stroke="#191970" points="168.2414,-742.5764 160.4111,-749.7134 170.9831,-749.0171 168.2414,-742.5764"/>
</g>
<!-- Node309188&#45;&gt;Node309167 -->
<g id="edge76" class="edge">
<title>Node309188&#45;&gt;Node309167</title>
<path fill="none" stroke="#191970" d="M177.1378,-757.7604C217.9969,-756.5548 283.522,-755.6106 340,-759.2745 543.6629,-772.4866 602.0291,-754.8264 795,-821.2745 821.4637,-830.3871 849.016,-847.017 867.2955,-859.2263"/>
<polygon fill="#191970" stroke="#191970" points="176.9353,-754.265 167.0506,-758.0783 177.1559,-761.2615 176.9353,-754.265"/>
</g>
<!-- Node309188&#45;&gt;Node309152 -->
<g id="edge87" class="edge">
<title>Node309188&#45;&gt;Node309152</title>
<path fill="none" stroke="#191970" d="M140.0013,-739.4933C146.0531,-700.0887 165.1834,-611.5308 219,-564.2745 260.8857,-527.4947 295.053,-564.243 340,-531.2745 363.8581,-513.7746 354.7028,-495.8143 376,-475.2745 490.1727,-365.1623 530.0248,-335.2112 683,-293.2745 731.0065,-280.114 748.0809,-276.6484 795,-293.2745 908.3572,-333.4433 1007.7318,-449.9362 1035.3791,-484.4978"/>
<polygon fill="#191970" stroke="#191970" points="136.5303,-739.0429 138.5969,-749.4342 143.4614,-740.0222 136.5303,-739.0429"/>
</g>
<!-- Node309188&#45;&gt;Node309155 -->
<g id="edge89" class="edge">
<title>Node309188&#45;&gt;Node309155</title>
<path fill="none" stroke="#191970" d="M148.4852,-777.6835C162.3411,-799.4096 188.1253,-835.2346 219,-856.2745 398.7884,-978.7933 469.0123,-972.981 683,-1012.2745 786.659,-1031.3089 909.8239,-1031.3515 981.9087,-1029.157"/>
<polygon fill="#191970" stroke="#191970" points="151.3825,-775.7144 143.1397,-769.0581 145.4325,-779.4019 151.3825,-775.7144"/>
</g>
<!-- Node309188&#45;&gt;Node309175 -->
<g id="edge85" class="edge">
<title>Node309188&#45;&gt;Node309175</title>
<path fill="none" stroke="#191970" d="M150.0373,-777.1127C164.2911,-795.6781 189.4538,-823.6359 219,-835.2745 280.5003,-859.5001 359.4486,-846.5177 403.4832,-835.7962"/>
<polygon fill="#191970" stroke="#191970" points="152.7021,-774.8294 143.9449,-768.8659 147.0718,-778.9888 152.7021,-774.8294"/>
</g>
<!-- Node309188&#45;&gt;Node309174 -->
<g id="edge84" class="edge">
<title>Node309188&#45;&gt;Node309174</title>
<path fill="none" stroke="#191970" d="M155.1779,-742.4344C171.2454,-727.4844 195.9016,-705.416 219,-688.2745 336.543,-601.0448 381.5695,-601.9837 498,-513.2745 515.2649,-500.1203 515.7478,-492.0204 534,-480.2745 542.8723,-474.5649 553.3321,-469.6821 562.8247,-465.8404"/>
<polygon fill="#191970" stroke="#191970" points="152.5056,-740.1425 147.6122,-749.5395 157.2977,-745.2451 152.5056,-740.1425"/>
</g>
<!-- Node309188&#45;&gt;Node309182 -->
<g id="edge72" class="edge">
<title>Node309188&#45;&gt;Node309182</title>
<path fill="none" stroke="#191970" d="M138.8171,-779.1138C142.8047,-823.0188 158.518,-929.1068 219,-987.2745 223.0469,-991.1665 227.8825,-994.2619 233.0319,-996.7236"/>
<polygon fill="#191970" stroke="#191970" points="142.3052,-778.8242 138.0205,-769.1344 135.3274,-779.3812 142.3052,-778.8242"/>
</g>
<!-- Node309188&#45;&gt;Node309183 -->
<g id="edge73" class="edge">
<title>Node309188&#45;&gt;Node309183</title>
<path fill="none" stroke="#191970" d="M141.0114,-778.8156C148.6606,-815.9684 170.2101,-897.2717 219,-944.2745 225.5102,-950.5463 233.8597,-955.2419 242.2633,-958.7341"/>
<polygon fill="#191970" stroke="#191970" points="144.4072,-777.9414 139.0689,-768.7897 137.5349,-779.2729 144.4072,-777.9414"/>
</g>
<!-- Node309188&#45;&gt;Node309186 -->
<g id="edge86" class="edge">
<title>Node309188&#45;&gt;Node309186</title>
<path fill="none" stroke="#191970" d="M165.3738,-773.386C180.9356,-780.98 200.8012,-790.2097 219,-797.2745 227.9289,-800.7407 237.7763,-804.0453 246.8867,-806.8979"/>
<polygon fill="#191970" stroke="#191970" points="166.8101,-770.1918 156.2939,-768.903 163.7111,-776.4685 166.8101,-770.1918"/>
</g>
<!-- Node309188&#45;&gt;Node309189 -->
<g id="edge74" class="edge">
<title>Node309188&#45;&gt;Node309189</title>
<path fill="none" stroke="#191970" d="M177.5201,-764.6293C192.1986,-766.5933 209.0747,-768.8514 224.8189,-770.958"/>
<polygon fill="#191970" stroke="#191970" points="177.6437,-761.1147 167.2679,-763.2575 176.7153,-768.0529 177.6437,-761.1147"/>
</g>
<!-- Node309190 -->
<g id="node25" class="node">
<title>Node309190</title>
<g id="a_node25"><a xlink:href="quickjs_8c.html#a964237617fb99ed93ebe4abda62d6c84" target="_top" xlink:title="optional_chain_test">
<polygon fill="none" stroke="#000000" points="229,-446.7745 229,-465.7745 330,-465.7745 330,-446.7745 229,-446.7745"/>
<text text-anchor="middle" x="279.5" y="-453.7745" font-family="Helvetica,sans-Serif" font-size="10.00" fill="#000000">optional_chain_test</text>
</a>
</g>
</g>
<!-- Node309188&#45;&gt;Node309190 -->
<g id="edge77" class="edge">
<title>Node309188&#45;&gt;Node309190</title>
<path fill="none" stroke="#191970" d="M140.6752,-739.5732C150.3674,-681.7257 181.2229,-514.0016 219,-475.2745 222.7669,-471.4129 227.3082,-468.3335 232.1896,-465.8783"/>
<polygon fill="#191970" stroke="#191970" points="137.1944,-739.1711 139.0232,-749.6068 144.1014,-740.3083 137.1944,-739.1711"/>
</g>
<!-- Node309172 -->
<g id="node26" class="node">
<title>Node309172</title>
<g id="a_node26"><a xlink:href="quickjs_8c.html#a2af8c0e05d949d0ae23d94c8e73e5494" target="_top" xlink:title="js_parse_logical_and_or">
<polygon fill="none" stroke="#000000" points="219,-484.7745 219,-503.7745 340,-503.7745 340,-484.7745 219,-484.7745"/>
<text text-anchor="middle" x="279.5" y="-491.7745" font-family="Helvetica,sans-Serif" font-size="10.00" fill="#000000">js_parse_logical_and_or</text>
</a>
</g>
</g>
<!-- Node309188&#45;&gt;Node309172 -->
<g id="edge79" class="edge">
<title>Node309188&#45;&gt;Node309172</title>
<path fill="none" stroke="#191970" d="M140.5932,-739.4084C147.8847,-697.908 169.4086,-600.5461 219,-536.2745 229.7792,-522.3044 246.5176,-511.1911 259.6582,-503.9142"/>
<polygon fill="#191970" stroke="#191970" points="137.1287,-738.9064 138.9359,-749.346 144.0333,-740.058 137.1287,-738.9064"/>
</g>
<!-- Node309173 -->
<g id="node27" class="node">
<title>Node309173</title>
<g id="a_node27"><a xlink:href="quickjs_8c.html#a2a6a8f6738ae03f046617522b9781245" target="_top" xlink:title="js_parse_coalesce_expr">
<polygon fill="none" stroke="#000000" points="376,-484.7745 376,-503.7745 498,-503.7745 498,-484.7745 376,-484.7745"/>
<text text-anchor="middle" x="437" y="-491.7745" font-family="Helvetica,sans-Serif" font-size="10.00" fill="#000000">js_parse_coalesce_expr</text>
</a>
</g>
</g>
<!-- Node309188&#45;&gt;Node309173 -->
<g id="edge83" class="edge">
<title>Node309188&#45;&gt;Node309173</title>
<path fill="none" stroke="#191970" d="M143.4446,-739.934C153.9031,-708.9231 178.4169,-647.9483 219,-612.2745 262.4531,-574.0778 289.2661,-592.0816 340,-564.2745 373.1446,-546.108 408.1887,-518.3918 425.679,-503.8862"/>
<polygon fill="#191970" stroke="#191970" points="140.0777,-738.9708 140.3282,-749.5627 146.7375,-741.1264 140.0777,-738.9708"/>
</g>
<!-- Node309189&#45;&gt;Node309167 -->
<g id="edge75" class="edge">
<title>Node309189&#45;&gt;Node309167</title>
<path fill="none" stroke="#191970" d="M344.2833,-783.1057C442.579,-791.2407 634.9034,-810.3135 795,-845.2745 811.6042,-848.9004 829.5033,-854.1187 845.1521,-859.1319"/>
<polygon fill="#191970" stroke="#191970" points="344.4581,-779.6084 334.2064,-782.2829 343.8883,-786.5852 344.4581,-779.6084"/>
</g>
<!-- Node309190&#45;&gt;Node309148 -->
<g id="edge78" class="edge">
<title>Node309190&#45;&gt;Node309148</title>
<path fill="none" stroke="#191970" d="M333.0087,-444.7441C423.6189,-426.6064 601.8332,-397.3687 647,-437.2745 654.2481,-443.6784 727.9961,-1082.6407 737.9019,-1168.7217"/>
<polygon fill="#191970" stroke="#191970" points="332.3046,-441.3155 323.1995,-446.7328 333.6956,-448.176 332.3046,-441.3155"/>
</g>
<!-- Node309172&#45;&gt;Node309172 -->
<g id="edge80" class="edge">
<title>Node309172&#45;&gt;Node309172</title>
<path fill="none" stroke="#191970" d="M252.9941,-512.9284C254.1021,-518.2113 262.9374,-522.2745 279.5,-522.2745 304.7383,-522.2745 312.0337,-512.8398 301.3863,-504.0316"/>
<polygon fill="#191970" stroke="#191970" points="256.1117,-514.5194 257.6137,-504.0316 249.8992,-511.2937 256.1117,-514.5194"/>
</g>
<!-- Node309172&#45;&gt;Node309173 -->
<g id="edge81" class="edge">
<title>Node309172&#45;&gt;Node309173</title>
<path fill="none" stroke="#191970" d="M350.5632,-494.2745C358.9698,-494.2745 367.4944,-494.2745 375.7488,-494.2745"/>
<polygon fill="#191970" stroke="#191970" points="350.3936,-490.7746 340.3936,-494.2745 350.3936,-497.7746 350.3936,-490.7746"/>
</g>
<!-- Node309173&#45;&gt;Node309174 -->
<g id="edge82" class="edge">
<title>Node309173&#45;&gt;Node309174</title>
<path fill="none" stroke="#191970" d="M485.6352,-482.2345C507.0799,-476.9257 531.9226,-470.7757 552.044,-465.7946"/>
<polygon fill="#191970" stroke="#191970" points="484.6004,-478.8849 475.7345,-484.6855 486.2826,-485.6798 484.6004,-478.8849"/>
</g>
<!-- Node309192&#45;&gt;Node309148 -->
<g id="edge101" class="edge">
<title>Node309192&#45;&gt;Node309148</title>
<path fill="none" stroke="#191970" d="M171.5251,-424.3612C185.9424,-419.5425 203.0646,-414.6636 219,-412.2745 318.822,-397.3085 607.8405,-379.3192 647,-414.2745 650.7219,-417.5968 727.6813,-1080.6161 737.886,-1168.6587"/>
<polygon fill="#191970" stroke="#191970" points="170.3251,-421.0728 162.0239,-427.6562 172.6187,-427.6863 170.3251,-421.0728"/>
</g>
<!-- Node309192&#45;&gt;Node309150 -->
<g id="edge108" class="edge">
<title>Node309192&#45;&gt;Node309150</title>
<path fill="none" stroke="#191970" d="M139.8326,-417.5925C147.6527,-354.9803 174.9549,-162.0663 219,-120.2745 290.7023,-52.2403 338.1573,-76.2745 437,-76.2745 437,-76.2745 437,-76.2745 590.5,-76.2745 872.5161,-76.2745 1005.2835,42.1889 1222,-138.2745 1267.2836,-175.9829 1298.5324,-366.2916 1306.8116,-421.9587"/>
<polygon fill="#191970" stroke="#191970" points="136.3361,-417.3511 138.5994,-427.7013 143.2846,-418.1987 136.3361,-417.3511"/>
</g>
<!-- Node309192&#45;&gt;Node309167 -->
<g id="edge99" class="edge">
<title>Node309192&#45;&gt;Node309167</title>
<path fill="none" stroke="#191970" d="M161.3905,-422.2771C177.1176,-413.2473 198.5143,-402.5143 219,-397.2745 403.3076,-350.133 499.5311,-271.0891 647,-391.2745 706.5302,-439.7909 653.47,-489.3826 683,-560.2745 735.3587,-685.9705 839.1951,-815.7155 875.5578,-859.1195"/>
<polygon fill="#191970" stroke="#191970" points="159.2056,-419.5037 152.3897,-427.6151 162.7763,-425.5245 159.2056,-419.5037"/>
</g>
<!-- Node309192&#45;&gt;Node309152 -->
<g id="edge107" class="edge">
<title>Node309192&#45;&gt;Node309152</title>
<path fill="none" stroke="#191970" d="M139.3123,-417.6177C144.2828,-374.4711 161.8265,-270.4536 219,-209.2745 291.1628,-132.0559 331.311,-114.2745 437,-114.2745 437,-114.2745 437,-114.2745 739,-114.2745 833.9677,-114.2745 877.5934,-101.4003 946,-167.2745 994.519,-213.9973 1033.4076,-435.9219 1041.4651,-484.7557"/>
<polygon fill="#191970" stroke="#191970" points="135.8221,-417.3423 138.2617,-427.6524 142.7841,-418.0712 135.8221,-417.3423"/>
</g>
<!-- Node309192&#45;&gt;Node309155 -->
<g id="edge109" class="edge">
<title>Node309192&#45;&gt;Node309155</title>
<path fill="none" stroke="#191970" d="M150.6656,-419.6686C165.2974,-401.4132 190.6338,-373.461 219,-358.2745 387.0853,-268.2859 479.829,-237.5985 647,-329.2745 934.3771,-486.8711 1028.1427,-944.3552 1041.3171,-1016.6135"/>
<polygon fill="#191970" stroke="#191970" points="147.7541,-417.711 144.3762,-427.753 153.2791,-422.0093 147.7541,-417.711"/>
</g>
<!-- Node309192&#45;&gt;Node309175 -->
<g id="edge105" class="edge">
<title>Node309192&#45;&gt;Node309175</title>
<path fill="none" stroke="#191970" d="M151.0974,-454.9352C203.3098,-522.7503 389.9945,-765.2222 429.5873,-816.6466"/>
<polygon fill="#191970" stroke="#191970" points="153.7773,-452.6787 144.9034,-446.8903 148.2307,-456.9491 153.7773,-452.6787"/>
</g>
<!-- Node309192&#45;&gt;Node309174 -->
<g id="edge104" class="edge">
<title>Node309192&#45;&gt;Node309174</title>
<path fill="none" stroke="#191970" d="M178.2085,-426.4633C191.1507,-423.518 205.5878,-420.738 219,-419.2745 339.329,-406.1448 481.7969,-431.861 550.0692,-446.7346"/>
<polygon fill="#191970" stroke="#191970" points="177.1194,-423.1245 168.1977,-428.8388 178.7356,-429.9353 177.1194,-423.1245"/>
</g>
<!-- Node309192&#45;&gt;Node309182 -->
<g id="edge91" class="edge">
<title>Node309192&#45;&gt;Node309182</title>
<path fill="none" stroke="#191970" d="M140.4883,-456.9736C147.8056,-505.2543 167.1789,-633.3437 183,-740.2745 191.1186,-795.146 183.0283,-945.0509 219,-987.2745 222.2842,-991.1295 226.3415,-994.2125 230.7881,-996.6766"/>
<polygon fill="#191970" stroke="#191970" points="143.9285,-456.315 138.9689,-446.9527 137.0076,-457.3644 143.9285,-456.315"/>
</g>
<!-- Node309192&#45;&gt;Node309183 -->
<g id="edge92" class="edge">
<title>Node309192&#45;&gt;Node309183</title>
<path fill="none" stroke="#191970" d="M139.9601,-457.1692C147.5808,-516.0433 173.0872,-694.1073 219,-835.2745 234.613,-883.2796 262.5106,-937.0188 274.1597,-958.5696"/>
<polygon fill="#191970" stroke="#191970" points="143.4046,-456.5098 138.6737,-447.0298 136.4603,-457.3909 143.4046,-456.5098"/>
</g>
<!-- Node309192&#45;&gt;Node309186 -->
<g id="edge106" class="edge">
<title>Node309192&#45;&gt;Node309186</title>
<path fill="none" stroke="#191970" d="M139.4121,-457.1638C146.3221,-525.073 172.1,-746.3793 219,-797.2745 226.2367,-805.1276 236.6753,-809.7574 246.8504,-812.479"/>
<polygon fill="#191970" stroke="#191970" points="142.8721,-456.5864 138.4018,-446.9808 135.9062,-457.2775 142.8721,-456.5864"/>
</g>
<!-- Node309192&#45;&gt;Node309189 -->
<g id="edge98" class="edge">
<title>Node309192&#45;&gt;Node309189</title>
<path fill="none" stroke="#191970" d="M142.5857,-456.972C153.7276,-498.8201 182.2576,-599.2248 219,-678.2745 235.25,-713.2357 260.7049,-751.3856 272.7499,-768.7329"/>
<polygon fill="#191970" stroke="#191970" points="145.948,-455.9954 140.0218,-447.213 139.1777,-457.7741 145.948,-455.9954"/>
</g>
<!-- Node309192&#45;&gt;Node309190 -->
<g id="edge100" class="edge">
<title>Node309192&#45;&gt;Node309190</title>
<path fill="none" stroke="#191970" d="M178.292,-442.7326C194.0809,-444.8452 212.3198,-447.2856 228.9284,-449.5079"/>
<polygon fill="#191970" stroke="#191970" points="178.6878,-439.2544 168.3119,-441.3972 177.7594,-446.1926 178.6878,-439.2544"/>
</g>
<!-- Node309192&#45;&gt;Node309172 -->
<g id="edge102" class="edge">
<title>Node309192&#45;&gt;Node309172</title>
<path fill="none" stroke="#191970" d="M165.3738,-451.386C180.9356,-458.98 200.8012,-468.2097 219,-475.2745 227.7236,-478.661 237.324,-481.8933 246.2572,-484.7005"/>
<polygon fill="#191970" stroke="#191970" points="166.8101,-448.1918 156.2939,-446.903 163.7111,-454.4685 166.8101,-448.1918"/>
</g>
<!-- Node309192&#45;&gt;Node309173 -->
<g id="edge103" class="edge">
<title>Node309192&#45;&gt;Node309173</title>
<path fill="none" stroke="#191970" d="M178.1449,-428.8817C220.2017,-422.0898 287.0293,-416.6698 340,-437.2745 360.2286,-445.1431 357.5918,-458.7746 376,-470.2745 385.3623,-476.1233 396.3875,-480.9854 406.4713,-484.769"/>
<polygon fill="#191970" stroke="#191970" points="177.533,-425.4354 168.2688,-430.5758 178.7166,-432.3346 177.533,-425.4354"/>
</g>
<!-- Node309192&#45;&gt;Node309193 -->
<g id="edge93" class="edge">
<title>Node309192&#45;&gt;Node309193</title>
<path fill="none" stroke="#191970" d="M146.262,-418.4116C155.5355,-398.3566 170.5255,-365.6791 183,-337.2745 199.4969,-299.711 189.6587,-280.9494 219,-252.2745 227.1622,-244.2977 238.301,-238.8794 248.7972,-235.2424"/>
<polygon fill="#191970" stroke="#191970" points="143.0057,-417.1142 141.9772,-427.659 149.357,-420.0571 143.0057,-417.1142"/>
</g>
<!-- Node309193&#45;&gt;Node309167 -->
<g id="edge94" class="edge">
<title>Node309193&#45;&gt;Node309167</title>
<path fill="none" stroke="#191970" d="M320.3977,-227.859C394.9236,-229.3242 553.7337,-243.0203 647,-328.2745 680.9411,-359.2998 665.4194,-382.7834 683,-425.2745 685.3301,-430.9062 845.8099,-781.1207 881.5129,-859.0283"/>
<polygon fill="#191970" stroke="#191970" points="320.0761,-224.3547 310.0315,-227.7246 319.9853,-231.3541 320.0761,-224.3547"/>
</g>
<!-- Node309193&#45;&gt;Node309168 -->
<g id="edge96" class="edge">
<title>Node309193&#45;&gt;Node309168</title>
<path fill="none" stroke="#191970" d="M320.144,-221.1862C391.6757,-210.8924 542.3831,-199.145 647,-260.2745 732.0556,-309.9739 744.6365,-340.6104 795,-425.2745 897.2684,-597.1942 894.2092,-656.0572 946,-849.2745 968.9307,-934.8229 962.0973,-958.9714 982,-1045.2745 1000.8912,-1127.1917 1030.5751,-1224.402 1040.014,-1254.7474"/>
<polygon fill="#191970" stroke="#191970" points="319.5474,-217.7365 310.1796,-222.6856 320.5891,-224.6586 319.5474,-217.7365"/>
</g>
<!-- Node309193&#45;&gt;Node309152 -->
<g id="edge97" class="edge">
<title>Node309193&#45;&gt;Node309152</title>
<path fill="none" stroke="#191970" d="M300.7296,-212.8172C319.4745,-200.1883 348.0901,-183.3157 376,-176.2745 499.0911,-145.2208 847.4374,-134.2672 946,-214.2745 990.9352,-250.7502 1031.8129,-439.4018 1041.0541,-484.556"/>
<polygon fill="#191970" stroke="#191970" points="298.5913,-210.0408 292.3668,-218.6144 302.5793,-215.7937 298.5913,-210.0408"/>
</g>
<!-- Node309193&#45;&gt;Node309175 -->
<g id="edge95" class="edge">
<title>Node309193&#45;&gt;Node309175</title>
<path fill="none" stroke="#191970" d="M285.3951,-247.7278C296.5065,-284.5887 321.1272,-367.1973 340,-437.2745 380.5442,-587.8205 424.4017,-772.7391 434.7325,-816.6165"/>
<polygon fill="#191970" stroke="#191970" points="288.6447,-246.3816 282.4017,-237.8215 281.9439,-248.4064 288.6447,-246.3816"/>
</g>
<!-- Node309194&#45;&gt;Node309147 -->
<g id="edge111" class="edge">
<title>Node309194&#45;&gt;Node309147</title>
<path fill="none" stroke="#191970" d="M193.5464,-1266.2214C206.0756,-1267.1038 219.2556,-1268.0319 231.4284,-1268.8892"/>
<polygon fill="#191970" stroke="#191970" points="193.4325,-1262.7048 183.2113,-1265.4936 192.9407,-1269.6875 193.4325,-1262.7048"/>
</g>
<!-- Node309194&#45;&gt;Node309148 -->
<g id="edge112" class="edge">
<title>Node309194&#45;&gt;Node309148</title>
<path fill="none" stroke="#191970" d="M157.6745,-1246.5991C173.4023,-1235.4244 196.3142,-1221.3471 219,-1215.2745 402.9533,-1166.0334 463.8471,-1287.414 647,-1235.2745 679.5284,-1226.0144 711.7971,-1201.5964 728.0898,-1187.9143"/>
<polygon fill="#191970" stroke="#191970" points="155.2806,-1244.0151 149.3003,-1252.7608 159.4292,-1249.6533 155.2806,-1244.0151"/>
</g>
<!-- Node309194&#45;&gt;Node309170 -->
<g id="edge113" class="edge">
<title>Node309194&#45;&gt;Node309170</title>
<path fill="none" stroke="#191970" d="M172.9281,-1275.2071C187.1998,-1280.3314 203.8419,-1286.1994 219,-1291.2745 228.5001,-1294.4552 238.8909,-1297.7754 248.3387,-1300.7341"/>
<polygon fill="#191970" stroke="#191970" points="174.0681,-1271.8976 163.4737,-1271.7972 171.6931,-1278.4824 174.0681,-1271.8976"/>
</g>
</g>
</svg>
