<?xml version="1.0" encoding="UTF-8" standalone="no"?>
<!DOCTYPE svg PUBLIC "-//W3C//DTD SVG 1.1//EN"
 "http://www.w3.org/Graphics/SVG/1.1/DTD/svg11.dtd">
<!-- Generated by graphviz version 2.40.1 (20161225.0304)
 -->
<!-- Title: js_reflect_deleteProperty Pages: 1 -->
<!--zoomable 686 -->
<svg id="main" version="1.1" xmlns="http://www.w3.org/2000/svg" xmlns:xlink="http://www.w3.org/1999/xlink" xml:space="preserve" onload="init(evt)">
<style type="text/css"><![CDATA[
.edge:hover path { stroke: red; }
.edge:hover polygon { stroke: red; fill: red; }
]]></style>
<script type="text/javascript"><![CDATA[
var edges = document.getElementsByTagName('g');
if (edges && edges.length) {
  for (var i=0;i<edges.length;i++) {
    if (edges[i].id.substr(0,4)=='edge') {
      edges[i].setAttribute('class','edge');
    }
  }
}
]]></script>
        <defs>
                <circle id="rim" cx="0" cy="0" r="7"/>
                <circle id="rim2" cx="0" cy="0" r="3.5"/>
                <g id="zoomPlus">
                        <use xlink:href="#rim" fill="#404040">
                                <set attributeName="fill" to="#808080" begin="zoomplus.mouseover" end="zoomplus.mouseout"/>
                        </use>
                        <path d="M-4,0h8M0,-4v8" fill="none" stroke="white" stroke-width="1.5" pointer-events="none"/>
                </g>
                <g id="zoomMin">
                        <use xlink:href="#rim" fill="#404040">
                                <set attributeName="fill" to="#808080" begin="zoomminus.mouseover" end="zoomminus.mouseout"/>
                        </use>
                        <path d="M-4,0h8" fill="none" stroke="white" stroke-width="1.5" pointer-events="none"/>
                </g>
                <g id="dirArrow">
                        <path fill="none" stroke="white" stroke-width="1.5" d="M0,-3.0v7 M-2.5,-0.5L0,-3.0L2.5,-0.5"/>
                </g>
               <g id="resetDef">
                       <use xlink:href="#rim2" fill="#404040">
                               <set attributeName="fill" to="#808080" begin="reset.mouseover" end="reset.mouseout"/>
                       </use>
               </g>
        </defs>

<script type="text/javascript">
var viewWidth = 904;
var viewHeight = 686;
var sectionId = 'dynsection-1647';
</script>
<script xlink:href="svgpan.js"/>
<svg id="graph" class="graph">
<g id="viewport">
<title>js_reflect_deleteProperty</title>
<!-- Node438471 -->
<g id="node1" class="node">
<title>Node438471</title>
<polygon fill="#bfbfbf" stroke="#000000" points="0,-316.5 0,-335.5 125,-335.5 125,-316.5 0,-316.5"/>
<text text-anchor="middle" x="62.5" y="-323.5" font-family="Helvetica,sans-Serif" font-size="10.00" fill="#000000">js_reflect_deleteProperty</text>
</g>
<!-- Node438472 -->
<g id="node2" class="node">
<title>Node438472</title>
<g id="a_node2"><a xlink:href="quickjs_8c.html#a2b88ed25233c441cbed7b0a027c9ee2f" target="_top" xlink:title="JS_DeleteProperty">
<polygon fill="none" stroke="#000000" points="191.5,-354.5 191.5,-373.5 290.5,-373.5 290.5,-354.5 191.5,-354.5"/>
<text text-anchor="middle" x="241" y="-361.5" font-family="Helvetica,sans-Serif" font-size="10.00" fill="#000000">JS_DeleteProperty</text>
</a>
</g>
</g>
<!-- Node438471&#45;&gt;Node438472 -->
<g id="edge1" class="edge">
<title>Node438471&#45;&gt;Node438472</title>
<path fill="none" stroke="#191970" d="M107.5431,-335.589C131.5225,-340.6939 161.1979,-347.0113 186.4721,-352.3918"/>
<polygon fill="#191970" stroke="#191970" points="185.7712,-355.821 196.2808,-354.4799 187.2288,-348.9744 185.7712,-355.821"/>
</g>
<!-- Node438526 -->
<g id="node11" class="node">
<title>Node438526</title>
<g id="a_node11"><a xlink:href="quickjs_8c.html#ab7fc45a99935a1c0ba50b0216d9401a9" target="_top" xlink:title="JS_FreeAtom">
<polygon fill="none" stroke="#ff0000" points="509.5,-.5 509.5,-19.5 586.5,-19.5 586.5,-.5 509.5,-.5"/>
<text text-anchor="middle" x="548" y="-7.5" font-family="Helvetica,sans-Serif" font-size="10.00" fill="#000000">JS_FreeAtom</text>
</a>
</g>
</g>
<!-- Node438471&#45;&gt;Node438526 -->
<g id="edge28" class="edge">
<title>Node438471&#45;&gt;Node438526</title>
<path fill="none" stroke="#191970" d="M73.4475,-316.3064C119.9421,-275.5955 306.8756,-116.5191 486,-29 490.6229,-26.7413 495.5713,-24.6834 500.5816,-22.8268"/>
<polygon fill="#191970" stroke="#191970" points="501.9094,-26.0713 510.2236,-19.5044 499.6289,-19.4532 501.9094,-26.0713"/>
</g>
<!-- Node438840 -->
<g id="node21" class="node">
<title>Node438840</title>
<g id="a_node21"><a xlink:href="quickjs_8h.html#a93abffa925714e249a6aa2f4ae7900f6" target="_top" xlink:title="JS_NewBool">
<polygon fill="none" stroke="#000000" points="204,-316.5 204,-335.5 278,-335.5 278,-316.5 204,-316.5"/>
<text text-anchor="middle" x="241" y="-323.5" font-family="Helvetica,sans-Serif" font-size="10.00" fill="#000000">JS_NewBool</text>
</a>
</g>
</g>
<!-- Node438471&#45;&gt;Node438840 -->
<g id="edge29" class="edge">
<title>Node438471&#45;&gt;Node438840</title>
<path fill="none" stroke="#191970" d="M125.1814,-326C147.6967,-326 172.6941,-326 193.6859,-326"/>
<polygon fill="#191970" stroke="#191970" points="193.9512,-329.5001 203.9512,-326 193.9512,-322.5001 193.9512,-329.5001"/>
</g>
<!-- Node438677 -->
<g id="node22" class="node">
<title>Node438677</title>
<g id="a_node22"><a xlink:href="quickjs_8c.html#a726b00d108e0a0f4d958c36c2e426a64" target="_top" xlink:title="JS_ThrowTypeErrorNotAnObject">
<polygon fill="none" stroke="#000000" points="161,-278.5 161,-297.5 321,-297.5 321,-278.5 161,-278.5"/>
<text text-anchor="middle" x="241" y="-285.5" font-family="Helvetica,sans-Serif" font-size="10.00" fill="#000000">JS_ThrowTypeErrorNotAnObject</text>
</a>
</g>
</g>
<!-- Node438471&#45;&gt;Node438677 -->
<g id="edge30" class="edge">
<title>Node438471&#45;&gt;Node438677</title>
<path fill="none" stroke="#191970" d="M107.5431,-316.411C131.5225,-311.3061 161.1979,-304.9887 186.4721,-299.6082"/>
<polygon fill="#191970" stroke="#191970" points="187.2288,-303.0256 196.2808,-297.5201 185.7712,-296.179 187.2288,-303.0256"/>
</g>
<!-- Node438629 -->
<g id="node23" class="node">
<title>Node438629</title>
<g id="a_node23"><a xlink:href="quickjs_8c.html#a859d5c989a2aaecef1653b3ac279e108" target="_top" xlink:title="JS_ValueToAtom">
<polygon fill="none" stroke="#ff0000" points="357,-658.5 357,-677.5 450,-677.5 450,-658.5 357,-658.5"/>
<text text-anchor="middle" x="403.5" y="-665.5" font-family="Helvetica,sans-Serif" font-size="10.00" fill="#000000">JS_ValueToAtom</text>
</a>
</g>
</g>
<!-- Node438471&#45;&gt;Node438629 -->
<g id="edge31" class="edge">
<title>Node438471&#45;&gt;Node438629</title>
<path fill="none" stroke="#191970" d="M69.4628,-335.7053C99.6531,-377.2593 223.7272,-542.6629 357,-644 361.6102,-647.5055 366.8079,-650.7533 372.0146,-653.6545"/>
<polygon fill="#191970" stroke="#191970" points="370.7864,-656.9614 381.2714,-658.4831 374.0238,-650.755 370.7864,-656.9614"/>
</g>
<!-- Node438473 -->
<g id="node3" class="node">
<title>Node438473</title>
<g id="a_node3"><a xlink:href="quickjs_8c.html#a2b9a2014cb970af5b5b7dde00afbdffa" target="_top" xlink:title="delete_property">
<polygon fill="none" stroke="#000000" points="362,-183.5 362,-202.5 445,-202.5 445,-183.5 362,-183.5"/>
<text text-anchor="middle" x="403.5" y="-190.5" font-family="Helvetica,sans-Serif" font-size="10.00" fill="#000000">delete_property</text>
</a>
</g>
</g>
<!-- Node438472&#45;&gt;Node438473 -->
<g id="edge2" class="edge">
<title>Node438472&#45;&gt;Node438473</title>
<path fill="none" stroke="#191970" d="M290.8395,-358.9226C301.5567,-356.0625 312.2719,-351.6815 321,-345 365.7682,-310.7296 389.248,-244.956 398.5834,-212.3316"/>
<polygon fill="#191970" stroke="#191970" points="401.9744,-213.1996 401.2174,-202.6318 395.219,-211.3651 401.9744,-213.1996"/>
</g>
<!-- Node438527 -->
<g id="node12" class="node">
<title>Node438527</title>
<g id="a_node12"><a xlink:href="quickjs_8h.html#afaa20c47565bc704c6c85f3d77254e7d" target="_top" xlink:title="JS_FreeValue">
<polygon fill="none" stroke="#ff0000" points="671,-373.5 671,-392.5 749,-392.5 749,-373.5 671,-373.5"/>
<text text-anchor="middle" x="710" y="-380.5" font-family="Helvetica,sans-Serif" font-size="10.00" fill="#000000">JS_FreeValue</text>
</a>
</g>
</g>
<!-- Node438472&#45;&gt;Node438527 -->
<g id="edge16" class="edge">
<title>Node438472&#45;&gt;Node438527</title>
<path fill="none" stroke="#191970" d="M290.7472,-366.0153C381.0013,-369.6717 570.6918,-377.3564 660.6519,-381.0008"/>
<polygon fill="#191970" stroke="#191970" points="660.7226,-384.5065 670.8561,-381.4142 661.006,-377.5122 660.7226,-384.5065"/>
</g>
<!-- Node438540 -->
<g id="node13" class="node">
<title>Node438540</title>
<g id="a_node13"><a xlink:href="quickjs_8c.html#a686cf78f8b0361621ee2ba6182195c31" target="_top" xlink:title="is_strict_mode">
<polygon fill="none" stroke="#000000" points="363.5,-316.5 363.5,-335.5 443.5,-335.5 443.5,-316.5 363.5,-316.5"/>
<text text-anchor="middle" x="403.5" y="-323.5" font-family="Helvetica,sans-Serif" font-size="10.00" fill="#000000">is_strict_mode</text>
</a>
</g>
</g>
<!-- Node438472&#45;&gt;Node438540 -->
<g id="edge15" class="edge">
<title>Node438472&#45;&gt;Node438540</title>
<path fill="none" stroke="#191970" d="M282.0056,-354.411C303.7096,-349.3356 330.5394,-343.0616 353.461,-337.7014"/>
<polygon fill="#191970" stroke="#191970" points="354.4107,-341.0739 363.351,-335.3887 352.8167,-334.2577 354.4107,-341.0739"/>
</g>
<!-- Node438541 -->
<g id="node14" class="node">
<title>Node438541</title>
<g id="a_node14"><a xlink:href="quickjs_8h.html#ad80a83d73e9b7d872b88fbf2943aebe9" target="_top" xlink:title="JS_IsException">
<polygon fill="none" stroke="#000000" points="667,-601.5 667,-620.5 753,-620.5 753,-601.5 667,-601.5"/>
<text text-anchor="middle" x="710" y="-608.5" font-family="Helvetica,sans-Serif" font-size="10.00" fill="#000000">JS_IsException</text>
</a>
</g>
</g>
<!-- Node438472&#45;&gt;Node438541 -->
<g id="edge17" class="edge">
<title>Node438472&#45;&gt;Node438541</title>
<path fill="none" stroke="#191970" d="M249.7369,-373.6391C264.5474,-390.021 295.4634,-424.3998 321,-454 385.9346,-529.2674 393.0324,-569.8049 486,-605 541.3035,-625.9365 609.9052,-624.1256 656.5155,-619.1992"/>
<polygon fill="#191970" stroke="#191970" points="657.1599,-622.6485 666.6983,-618.0365 656.3657,-615.6937 657.1599,-622.6485"/>
</g>
<!-- Node438542 -->
<g id="node15" class="node">
<title>Node438542</title>
<g id="a_node15"><a xlink:href="quickjs_8c.html#a710289a14c2810467e5b448d3c28bd55" target="_top" xlink:title="JS_ToObject">
<polygon fill="none" stroke="#000000" points="366.5,-468.5 366.5,-487.5 440.5,-487.5 440.5,-468.5 366.5,-468.5"/>
<text text-anchor="middle" x="403.5" y="-475.5" font-family="Helvetica,sans-Serif" font-size="10.00" fill="#000000">JS_ToObject</text>
</a>
</g>
</g>
<!-- Node438472&#45;&gt;Node438542 -->
<g id="edge18" class="edge">
<title>Node438472&#45;&gt;Node438542</title>
<path fill="none" stroke="#191970" d="M254.5752,-373.5235C282.5841,-393.1729 347.0145,-438.3733 381.2205,-462.3701"/>
<polygon fill="#191970" stroke="#191970" points="379.4225,-465.3841 389.619,-468.262 383.4427,-459.6536 379.4225,-465.3841"/>
</g>
<!-- Node438474 -->
<g id="node4" class="node">
<title>Node438474</title>
<g id="a_node4"><a xlink:href="quickjs_8c.html#ab638a184d14e8b02ab3ea38b393c7cad" target="_top" xlink:title="compact_properties">
<polygon fill="none" stroke="#ff0000" points="497,-202.5 497,-221.5 599,-221.5 599,-202.5 497,-202.5"/>
<text text-anchor="middle" x="548" y="-209.5" font-family="Helvetica,sans-Serif" font-size="10.00" fill="#000000">compact_properties</text>
</a>
</g>
</g>
<!-- Node438473&#45;&gt;Node438474 -->
<g id="edge3" class="edge">
<title>Node438473&#45;&gt;Node438474</title>
<path fill="none" stroke="#191970" d="M445.2954,-198.4956C458.2404,-200.1977 472.7819,-202.1097 486.7604,-203.9477"/>
<polygon fill="#191970" stroke="#191970" points="486.4375,-207.4353 496.8084,-205.2689 487.3501,-200.4951 486.4375,-207.4353"/>
</g>
<!-- Node438476 -->
<g id="node5" class="node">
<title>Node438476</title>
<g id="a_node5"><a xlink:href="quickjs_8c.html#acab22c2945c4d609e57a2484feb68a96" target="_top" xlink:title="prop_hash_end">
<polygon fill="none" stroke="#000000" points="668.5,-183.5 668.5,-202.5 751.5,-202.5 751.5,-183.5 668.5,-183.5"/>
<text text-anchor="middle" x="710" y="-190.5" font-family="Helvetica,sans-Serif" font-size="10.00" fill="#000000">prop_hash_end</text>
</a>
</g>
</g>
<!-- Node438473&#45;&gt;Node438476 -->
<g id="edge14" class="edge">
<title>Node438473&#45;&gt;Node438476</title>
<path fill="none" stroke="#191970" d="M445.1549,-193C500.5469,-193 598.4223,-193 658.4193,-193"/>
<polygon fill="#191970" stroke="#191970" points="658.4362,-196.5001 668.4361,-193 658.4361,-189.5001 658.4362,-196.5001"/>
</g>
<!-- Node438489 -->
<g id="node6" class="node">
<title>Node438489</title>
<g id="a_node6"><a xlink:href="quickjs_8c.html#ac93c982cb636a5430b191d104083af3e" target="_top" xlink:title="convert_fast_array\l_to_array">
<polygon fill="none" stroke="#ff0000" points="499,-39 499,-69 597,-69 597,-39 499,-39"/>
<text text-anchor="start" x="507" y="-57" font-family="Helvetica,sans-Serif" font-size="10.00" fill="#000000">convert_fast_array</text>
<text text-anchor="middle" x="548" y="-46" font-family="Helvetica,sans-Serif" font-size="10.00" fill="#000000">_to_array</text>
</a>
</g>
</g>
<!-- Node438473&#45;&gt;Node438489 -->
<g id="edge5" class="edge">
<title>Node438473&#45;&gt;Node438489</title>
<path fill="none" stroke="#191970" d="M408.6897,-183.3383C420.1825,-162.7052 449.6623,-113.7948 486,-84 490.502,-80.3086 495.5342,-76.9362 500.732,-73.8949"/>
<polygon fill="#191970" stroke="#191970" points="502.4561,-76.9414 509.5716,-69.0915 499.1139,-70.7909 502.4561,-76.9414"/>
</g>
<!-- Node438535 -->
<g id="node7" class="node">
<title>Node438535</title>
<g id="a_node7"><a xlink:href="quickjs_8c.html#a3dd8e78607dbc729614deacf55901b95" target="_top" xlink:title="js_shape_prepare_update">
<polygon fill="none" stroke="#ff0000" points="646,-88.5 646,-107.5 774,-107.5 774,-88.5 646,-88.5"/>
<text text-anchor="middle" x="710" y="-95.5" font-family="Helvetica,sans-Serif" font-size="10.00" fill="#000000">js_shape_prepare_update</text>
</a>
</g>
</g>
<!-- Node438473&#45;&gt;Node438535 -->
<g id="edge13" class="edge">
<title>Node438473&#45;&gt;Node438535</title>
<path fill="none" stroke="#191970" d="M411.1822,-183.3671C424.4992,-167.4544 453.5732,-136.0427 486,-122 532.9486,-101.6685 590.404,-95.8485 635.3704,-95.0185"/>
<polygon fill="#191970" stroke="#191970" points="635.6774,-98.5155 645.6401,-94.9108 635.6039,-91.5159 635.6774,-98.5155"/>
</g>
<!-- Node438494 -->
<g id="node8" class="node">
<title>Node438494</title>
<g id="a_node8"><a xlink:href="quickjs_8c.html#a643df594b75933007bcdbb071b5ea8c5" target="_top" xlink:title="get_shape_prop">
<polygon fill="none" stroke="#000000" points="810,-107.5 810,-126.5 896,-126.5 896,-107.5 810,-107.5"/>
<text text-anchor="middle" x="853" y="-114.5" font-family="Helvetica,sans-Serif" font-size="10.00" fill="#000000">get_shape_prop</text>
</a>
</g>
</g>
<!-- Node438473&#45;&gt;Node438494 -->
<g id="edge9" class="edge">
<title>Node438473&#45;&gt;Node438494</title>
<path fill="none" stroke="#191970" d="M445.3842,-185.9184C527.4388,-172.0448 709.2221,-141.3095 799.6985,-126.012"/>
<polygon fill="#191970" stroke="#191970" points="800.465,-129.4322 809.7415,-124.314 799.2979,-122.5302 800.465,-129.4322"/>
</g>
<!-- Node438531 -->
<g id="node9" class="node">
<title>Node438531</title>
<g id="a_node9"><a xlink:href="quickjs_8c.html#af4274494e2e45f9018154ffcbb7e89e4" target="_top" xlink:title="free_property">
<polygon fill="none" stroke="#ff0000" points="511,-316.5 511,-335.5 585,-335.5 585,-316.5 511,-316.5"/>
<text text-anchor="middle" x="548" y="-323.5" font-family="Helvetica,sans-Serif" font-size="10.00" fill="#000000">free_property</text>
</a>
</g>
</g>
<!-- Node438473&#45;&gt;Node438531 -->
<g id="edge8" class="edge">
<title>Node438473&#45;&gt;Node438531</title>
<path fill="none" stroke="#191970" d="M407.757,-202.5693C417.9788,-224.4478 446.0585,-278.4336 486,-307 490.5785,-310.2746 495.7336,-312.9948 501.0655,-315.2523"/>
<polygon fill="#191970" stroke="#191970" points="500.1741,-318.6541 510.7674,-318.8359 502.5996,-312.0878 500.1741,-318.6541"/>
</g>
<!-- Node438536 -->
<g id="node10" class="node">
<title>Node438536</title>
<g id="a_node10"><a xlink:href="quickjs_8c.html#aae16c5cdefab4e9dd9866993a7f0150e" target="_top" xlink:title="JS_AtomIsArrayIndex">
<polygon fill="none" stroke="#ff0000" points="491.5,-278.5 491.5,-297.5 604.5,-297.5 604.5,-278.5 491.5,-278.5"/>
<text text-anchor="middle" x="548" y="-285.5" font-family="Helvetica,sans-Serif" font-size="10.00" fill="#000000">JS_AtomIsArrayIndex</text>
</a>
</g>
</g>
<!-- Node438473&#45;&gt;Node438536 -->
<g id="edge10" class="edge">
<title>Node438473&#45;&gt;Node438536</title>
<path fill="none" stroke="#191970" d="M412.8006,-202.9357C427.2479,-217.8922 456.5013,-246.3185 486,-264 492.7521,-268.0472 500.3071,-271.6414 507.758,-274.7367"/>
<polygon fill="#191970" stroke="#191970" points="506.4841,-277.9966 517.0717,-278.3871 509.0385,-271.4793 506.4841,-277.9966"/>
</g>
<!-- Node438473&#45;&gt;Node438526 -->
<g id="edge11" class="edge">
<title>Node438473&#45;&gt;Node438526</title>
<path fill="none" stroke="#191970" d="M407.9498,-183.0526C423.1571,-149.223 472.848,-40.1012 486,-29 490.194,-25.46 495.039,-22.5792 500.135,-20.235"/>
<polygon fill="#191970" stroke="#191970" points="501.4586,-23.4755 509.4924,-16.5683 498.9047,-16.958 501.4586,-23.4755"/>
</g>
<!-- Node438473&#45;&gt;Node438527 -->
<g id="edge12" class="edge">
<title>Node438473&#45;&gt;Node438527</title>
<path fill="none" stroke="#191970" d="M422.5237,-202.65C439.0473,-210.816 463.7528,-222.5116 486,-231 539.8539,-251.548 561.5983,-237.6991 610,-269 649.4017,-294.4807 682.4107,-339.7386 698.8299,-364.8847"/>
<polygon fill="#191970" stroke="#191970" points="695.9643,-366.9007 704.2891,-373.4542 701.8681,-363.1397 695.9643,-366.9007"/>
</g>
<!-- Node438474&#45;&gt;Node438476 -->
<g id="edge4" class="edge">
<title>Node438474&#45;&gt;Node438476</title>
<path fill="none" stroke="#191970" d="M599.2578,-205.9883C618.029,-203.7867 639.2749,-201.2949 658.1016,-199.0868"/>
<polygon fill="#191970" stroke="#191970" points="658.7568,-202.5341 668.281,-197.893 657.9413,-195.5817 658.7568,-202.5341"/>
</g>
<!-- Node438489&#45;&gt;Node438535 -->
<g id="edge6" class="edge">
<title>Node438489&#45;&gt;Node438535</title>
<path fill="none" stroke="#191970" d="M597.045,-67.3209C618.7515,-73.2164 644.1042,-80.1024 665.2846,-85.8551"/>
<polygon fill="#191970" stroke="#191970" points="664.4349,-89.251 675.0027,-88.4946 666.2697,-82.4958 664.4349,-89.251"/>
</g>
<!-- Node438535&#45;&gt;Node438494 -->
<g id="edge7" class="edge">
<title>Node438535&#45;&gt;Node438494</title>
<path fill="none" stroke="#191970" d="M774.3884,-106.5551C782.9264,-107.6895 791.601,-108.8421 799.9187,-109.9472"/>
<polygon fill="#191970" stroke="#191970" points="799.4805,-113.4197 809.8544,-111.2674 800.4025,-106.4807 799.4805,-113.4197"/>
</g>
<!-- Node438542&#45;&gt;Node438541 -->
<g id="edge22" class="edge">
<title>Node438542&#45;&gt;Node438541</title>
<path fill="none" stroke="#191970" d="M408.82,-487.7534C420.143,-507.4826 448.6731,-552.0289 486,-573 538.8628,-602.6994 609.0071,-610.433 656.6184,-611.8719"/>
<polygon fill="#191970" stroke="#191970" points="656.6449,-615.3733 666.7192,-612.0932 656.7983,-608.3749 656.6449,-615.3733"/>
</g>
<!-- Node438543 -->
<g id="node16" class="node">
<title>Node438543</title>
<g id="a_node16"><a xlink:href="quickjs_8c.html#a0a8765bd4012467d9139bc24aabcb3ca" target="_top" xlink:title="JS_DefinePropertyValue">
<polygon fill="none" stroke="#ff0000" points="486,-392.5 486,-411.5 610,-411.5 610,-392.5 486,-392.5"/>
<text text-anchor="middle" x="548" y="-399.5" font-family="Helvetica,sans-Serif" font-size="10.00" fill="#000000">JS_DefinePropertyValue</text>
</a>
</g>
</g>
<!-- Node438542&#45;&gt;Node438543 -->
<g id="edge19" class="edge">
<title>Node438542&#45;&gt;Node438543</title>
<path fill="none" stroke="#191970" d="M414.8161,-468.4798C430.0961,-456.0389 458.5802,-434.2785 486,-421 490.6308,-418.7574 495.5843,-416.71 500.5975,-414.8596"/>
<polygon fill="#191970" stroke="#191970" points="501.9237,-418.1048 510.243,-411.5442 499.6483,-411.4849 501.9237,-418.1048"/>
</g>
<!-- Node438506 -->
<g id="node17" class="node">
<title>Node438506</title>
<g id="a_node17"><a xlink:href="quickjs_8h.html#a775522f2d084fc8fa0fcb33f390006b4" target="_top" xlink:title="JS_DupValue">
<polygon fill="none" stroke="#000000" points="509.5,-544.5 509.5,-563.5 586.5,-563.5 586.5,-544.5 509.5,-544.5"/>
<text text-anchor="middle" x="548" y="-551.5" font-family="Helvetica,sans-Serif" font-size="10.00" fill="#000000">JS_DupValue</text>
</a>
</g>
</g>
<!-- Node438542&#45;&gt;Node438506 -->
<g id="edge21" class="edge">
<title>Node438542&#45;&gt;Node438506</title>
<path fill="none" stroke="#191970" d="M414.8161,-487.5202C430.0961,-499.9611 458.5802,-521.7215 486,-535 490.6308,-537.2426 495.5843,-539.29 500.5975,-541.1404"/>
<polygon fill="#191970" stroke="#191970" points="499.6483,-544.5151 510.243,-544.4558 501.9237,-537.8952 499.6483,-544.5151"/>
</g>
<!-- Node438605 -->
<g id="node18" class="node">
<title>Node438605</title>
<g id="a_node18"><a xlink:href="quickjs_8h.html#a2050bc428da1c65ac7eb87c3fa3b0392" target="_top" xlink:title="JS_NewInt32">
<polygon fill="none" stroke="#000000" points="510,-506.5 510,-525.5 586,-525.5 586,-506.5 510,-506.5"/>
<text text-anchor="middle" x="548" y="-513.5" font-family="Helvetica,sans-Serif" font-size="10.00" fill="#000000">JS_NewInt32</text>
</a>
</g>
</g>
<!-- Node438542&#45;&gt;Node438605 -->
<g id="edge23" class="edge">
<title>Node438542&#45;&gt;Node438605</title>
<path fill="none" stroke="#191970" d="M439.9635,-487.589C458.7741,-492.5358 481.9146,-498.6211 501.9472,-503.8892"/>
<polygon fill="#191970" stroke="#191970" points="501.2374,-507.3215 511.7988,-506.4799 503.0177,-500.5517 501.2374,-507.3215"/>
</g>
<!-- Node438701 -->
<g id="node19" class="node">
<title>Node438701</title>
<g id="a_node19"><a xlink:href="quickjs_8c.html#a659dc0db7e440fd6eb012d613627faa3" target="_top" xlink:title="JS_NewObjectClass">
<polygon fill="none" stroke="#ff0000" points="494,-468.5 494,-487.5 602,-487.5 602,-468.5 494,-468.5"/>
<text text-anchor="middle" x="548" y="-475.5" font-family="Helvetica,sans-Serif" font-size="10.00" fill="#000000">JS_NewObjectClass</text>
</a>
</g>
</g>
<!-- Node438542&#45;&gt;Node438701 -->
<g id="edge24" class="edge">
<title>Node438542&#45;&gt;Node438701</title>
<path fill="none" stroke="#191970" d="M440.7123,-478C453.8253,-478 468.9699,-478 483.6717,-478"/>
<polygon fill="#191970" stroke="#191970" points="483.7487,-481.5001 493.7487,-478 483.7486,-474.5001 483.7487,-481.5001"/>
</g>
<!-- Node438902 -->
<g id="node20" class="node">
<title>Node438902</title>
<g id="a_node20"><a xlink:href="quickjs_8c.html#a5cfd8b63940fcb5151b4df41e32dc68c" target="_top" xlink:title="JS_SetObjectData">
<polygon fill="none" stroke="#000000" points="499,-430.5 499,-449.5 597,-449.5 597,-430.5 499,-430.5"/>
<text text-anchor="middle" x="548" y="-437.5" font-family="Helvetica,sans-Serif" font-size="10.00" fill="#000000">JS_SetObjectData</text>
</a>
</g>
</g>
<!-- Node438542&#45;&gt;Node438902 -->
<g id="edge25" class="edge">
<title>Node438542&#45;&gt;Node438902</title>
<path fill="none" stroke="#191970" d="M439.9635,-468.411C458.7741,-463.4642 481.9146,-457.3789 501.9472,-452.1108"/>
<polygon fill="#191970" stroke="#191970" points="503.0177,-455.4483 511.7988,-449.5201 501.2374,-448.6785 503.0177,-455.4483"/>
</g>
<!-- Node438543&#45;&gt;Node438527 -->
<g id="edge20" class="edge">
<title>Node438543&#45;&gt;Node438527</title>
<path fill="none" stroke="#191970" d="M610.1701,-394.7084C626.8586,-392.7512 644.676,-390.6615 660.5706,-388.7973"/>
<polygon fill="#191970" stroke="#191970" points="661.1826,-392.2496 670.7068,-387.6085 660.3671,-385.2972 661.1826,-392.2496"/>
</g>
<!-- Node438902&#45;&gt;Node438527 -->
<g id="edge26" class="edge">
<title>Node438902&#45;&gt;Node438527</title>
<path fill="none" stroke="#191970" d="M580.6292,-430.4407C590.1404,-427.5356 600.5219,-424.2492 610,-421 632.5442,-413.2716 657.613,-403.7433 677.0113,-396.1614"/>
<polygon fill="#191970" stroke="#191970" points="678.2917,-399.4188 686.3182,-392.5032 675.7309,-392.904 678.2917,-399.4188"/>
</g>
<!-- Node438902&#45;&gt;Node438541 -->
<g id="edge27" class="edge">
<title>Node438902&#45;&gt;Node438541</title>
<path fill="none" stroke="#191970" d="M592.8388,-449.6175C598.9429,-452.0751 604.8649,-455.1517 610,-459 657.2368,-494.4001 688.7969,-559.1139 702.3965,-591.4808"/>
<polygon fill="#191970" stroke="#191970" points="699.3096,-593.1816 706.3167,-601.1283 705.7946,-590.5463 699.3096,-593.1816"/>
</g>
<!-- Node438629&#45;&gt;Node438541 -->
<g id="edge32" class="edge">
<title>Node438629&#45;&gt;Node438541</title>
<path fill="none" stroke="#191970" d="M450.2858,-665.281C492.4351,-662.1902 555.9007,-655.9401 610,-644 632.4995,-639.0342 657.0825,-630.9596 676.2443,-624.0408"/>
<polygon fill="#191970" stroke="#191970" points="677.5543,-627.2883 685.7308,-620.5507 675.1372,-620.7188 677.5543,-627.2883"/>
</g>
</g>
</svg>
        <g id="navigator" transform="translate(0 0)" fill="#404254">
                <rect fill="#f2f5e9" fill-opacity="0.5" stroke="#606060" stroke-width=".5" x="0" y="0" width="60" height="60"/>
                <use id="zoomplus" xlink:href="#zoomPlus" x="17" y="9" onmousedown="handleZoom(evt,'in')"/>
                <use id="zoomminus" xlink:href="#zoomMin" x="42" y="9" onmousedown="handleZoom(evt,'out')"/>
                <use id="reset" xlink:href="#resetDef" x="30" y="36" onmousedown="handleReset()"/>
                <g id="arrowUp" xlink:href="#dirArrow" transform="translate(30 24)" onmousedown="handlePan(0,-1)">
                  <use xlink:href="#rim" fill="#404040">
                        <set attributeName="fill" to="#808080" begin="arrowUp.mouseover" end="arrowUp.mouseout"/>
                  </use>
                  <path fill="none" stroke="white" stroke-width="1.5" d="M0,-3.0v7 M-2.5,-0.5L0,-3.0L2.5,-0.5"/>
                </g>
                <g id="arrowRight" xlink:href="#dirArrow" transform="rotate(90) translate(36 -43)" onmousedown="handlePan(1,0)">
                  <use xlink:href="#rim" fill="#404040">
                        <set attributeName="fill" to="#808080" begin="arrowRight.mouseover" end="arrowRight.mouseout"/>
                  </use>
                  <path fill="none" stroke="white" stroke-width="1.5" d="M0,-3.0v7 M-2.5,-0.5L0,-3.0L2.5,-0.5"/>
                </g>
                <g id="arrowDown" xlink:href="#dirArrow" transform="rotate(180) translate(-30 -48)" onmousedown="handlePan(0,1)">
                  <use xlink:href="#rim" fill="#404040">
                        <set attributeName="fill" to="#808080" begin="arrowDown.mouseover" end="arrowDown.mouseout"/>
                  </use>
                  <path fill="none" stroke="white" stroke-width="1.5" d="M0,-3.0v7 M-2.5,-0.5L0,-3.0L2.5,-0.5"/>
                </g>
                <g id="arrowLeft" xlink:href="#dirArrow" transform="rotate(270) translate(-36 17)" onmousedown="handlePan(-1,0)">
                  <use xlink:href="#rim" fill="#404040">
                        <set attributeName="fill" to="#808080" begin="arrowLeft.mouseover" end="arrowLeft.mouseout"/>
                  </use>
                  <path fill="none" stroke="white" stroke-width="1.5" d="M0,-3.0v7 M-2.5,-0.5L0,-3.0L2.5,-0.5"/>
                </g>
        </g>
        <svg viewBox="0 0 15 15" width="100%" height="30px" preserveAspectRatio="xMaxYMin meet">
         <g id="arrow_out" transform="scale(0.3 0.3)">
          <a xlink:href="quickjs_8c_ae9c76f2d0eacc35d9df11d9f81039cde_cgraph_org.svg" target="_base">
           <rect id="button" ry="5" rx="5" y="6" x="6" height="38" width="38"
                fill="#f2f5e9" fill-opacity="0.5" stroke="#606060" stroke-width="1.0"/>
           <path id="arrow"
             d="M 11.500037,31.436501 C 11.940474,20.09759 22.043105,11.32322 32.158766,21.979434 L 37.068811,17.246167 C 37.068811,17.246167 37.088388,32 37.088388,32 L 22.160133,31.978069 C 22.160133,31.978069 26.997745,27.140456 26.997745,27.140456 C 18.528582,18.264221 13.291696,25.230495 11.500037,31.436501 z"
             style="fill:#404040;"/>
          </a>
         </g>
        </svg>
</svg>
