<?xml version="1.0" encoding="UTF-8" standalone="no"?>
<!DOCTYPE svg PUBLIC "-//W3C//DTD SVG 1.1//EN"
 "http://www.w3.org/Graphics/SVG/1.1/DTD/svg11.dtd">
<!-- Generated by graphviz version 2.40.1 (20161225.0304)
 -->
<!-- Title: JS_AddIntrinsicTypedArrays Pages: 1 -->
<svg width="566pt" height="28pt"
 viewBox="0.00 0.00 566.00 28.00" xmlns="http://www.w3.org/2000/svg" xmlns:xlink="http://www.w3.org/1999/xlink">
<g id="graph0" class="graph" transform="scale(1 1) rotate(0) translate(4 24)">
<title>JS_AddIntrinsicTypedArrays</title>
<!-- Node488897 -->
<g id="node1" class="node">
<title>Node488897</title>
<polygon fill="#bfbfbf" stroke="#000000" points="0,-.5 0,-19.5 141,-19.5 141,-.5 0,-.5"/>
<text text-anchor="middle" x="70.5" y="-7.5" font-family="Helvetica,sans-Serif" font-size="10.00" fill="#000000">JS_AddIntrinsicTypedArrays</text>
</g>
<!-- Node488898 -->
<g id="node2" class="node">
<title>Node488898</title>
<g id="a_node2"><a xlink:href="quickjs_8c.html#ad8aedb643b8753b7a15f6cb2df61945e" target="_top" xlink:title="JS_NewContext">
<polygon fill="none" stroke="#000000" points="177,-.5 177,-19.5 266,-19.5 266,-.5 177,-.5"/>
<text text-anchor="middle" x="221.5" y="-7.5" font-family="Helvetica,sans-Serif" font-size="10.00" fill="#000000">JS_NewContext</text>
</a>
</g>
</g>
<!-- Node488897&#45;&gt;Node488898 -->
<g id="edge1" class="edge">
<title>Node488897&#45;&gt;Node488898</title>
<path fill="none" stroke="#191970" d="M151.3813,-10C160.0943,-10 168.7113,-10 176.7649,-10"/>
<polygon fill="#191970" stroke="#191970" points="151.1368,-6.5001 141.1368,-10 151.1367,-13.5001 151.1368,-6.5001"/>
</g>
<!-- Node488899 -->
<g id="node3" class="node">
<title>Node488899</title>
<g id="a_node3"><a xlink:href="classqjs_1_1Context.html#a4392a23648acfc4bf6b445336efb5007" target="_top" xlink:title="qjs::Context::Context">
<polygon fill="none" stroke="#000000" points="302,-.5 302,-19.5 412,-19.5 412,-.5 302,-.5"/>
<text text-anchor="middle" x="357" y="-7.5" font-family="Helvetica,sans-Serif" font-size="10.00" fill="#000000">qjs::Context::Context</text>
</a>
</g>
</g>
<!-- Node488898&#45;&gt;Node488899 -->
<g id="edge2" class="edge">
<title>Node488898&#45;&gt;Node488899</title>
<path fill="none" stroke="#191970" d="M276.3476,-10C284.7739,-10 293.4767,-10 301.9083,-10"/>
<polygon fill="#191970" stroke="#191970" points="276.2433,-6.5001 266.2433,-10 276.2433,-13.5001 276.2433,-6.5001"/>
</g>
<!-- Node488900 -->
<g id="node4" class="node">
<title>Node488900</title>
<g id="a_node4"><a xlink:href="classqjs_1_1Context.html#af725fb8083d8c33a37198d6acaf1a836" target="_top" xlink:title="qjs::Context::Context">
<polygon fill="none" stroke="#ff0000" points="448,-.5 448,-19.5 558,-19.5 558,-.5 448,-.5"/>
<text text-anchor="middle" x="503" y="-7.5" font-family="Helvetica,sans-Serif" font-size="10.00" fill="#000000">qjs::Context::Context</text>
</a>
</g>
</g>
<!-- Node488899&#45;&gt;Node488900 -->
<g id="edge3" class="edge">
<title>Node488899&#45;&gt;Node488900</title>
<path fill="none" stroke="#191970" d="M422.4101,-10C430.8647,-10 439.4567,-10 447.7256,-10"/>
<polygon fill="#191970" stroke="#191970" points="422.1964,-6.5001 412.1963,-10 422.1963,-13.5001 422.1964,-6.5001"/>
</g>
</g>
</svg>
