<?xml version="1.0" encoding="UTF-8" standalone="no"?>
<!DOCTYPE svg PUBLIC "-//W3C//DTD SVG 1.1//EN"
 "http://www.w3.org/Graphics/SVG/1.1/DTD/svg11.dtd">
<!-- Generated by graphviz version 2.40.1 (20161225.0304)
 -->
<!-- Title: js_operator_delete Pages: 1 -->
<svg width="804pt" height="720pt"
 viewBox="0.00 0.00 804.00 720.24" xmlns="http://www.w3.org/2000/svg" xmlns:xlink="http://www.w3.org/1999/xlink">
<g id="graph0" class="graph" transform="scale(1 1) rotate(0) translate(4 716.2417)">
<title>js_operator_delete</title>
<!-- Node269021 -->
<g id="node1" class="node">
<title>Node269021</title>
<polygon fill="#bfbfbf" stroke="#000000" points="0,-354.5 0,-373.5 96,-373.5 96,-354.5 0,-354.5"/>
<text text-anchor="middle" x="48" y="-361.5" font-family="Helvetica,sans-Serif" font-size="10.00" fill="#000000">js_operator_delete</text>
</g>
<!-- Node269022 -->
<g id="node2" class="node">
<title>Node269022</title>
<g id="a_node2"><a xlink:href="quickjs_8c.html#a2b88ed25233c441cbed7b0a027c9ee2f" target="_top" xlink:title="JS_DeleteProperty">
<polygon fill="none" stroke="#000000" points="132,-449.5 132,-468.5 231,-468.5 231,-449.5 132,-449.5"/>
<text text-anchor="middle" x="181.5" y="-456.5" font-family="Helvetica,sans-Serif" font-size="10.00" fill="#000000">JS_DeleteProperty</text>
</a>
</g>
</g>
<!-- Node269021&#45;&gt;Node269022 -->
<g id="edge1" class="edge">
<title>Node269021&#45;&gt;Node269022</title>
<path fill="none" stroke="#191970" d="M61.784,-373.8089C84.9878,-390.3209 132.024,-423.7924 159.7287,-443.5073"/>
<polygon fill="#191970" stroke="#191970" points="157.8128,-446.4397 167.9898,-449.386 161.8714,-440.7363 157.8128,-446.4397"/>
</g>
<!-- Node269076 -->
<g id="node11" class="node">
<title>Node269076</title>
<g id="a_node11"><a xlink:href="quickjs_8c.html#ab7fc45a99935a1c0ba50b0216d9401a9" target="_top" xlink:title="JS_FreeAtom">
<polygon fill="none" stroke="#ff0000" points="409.5,-.5 409.5,-19.5 486.5,-19.5 486.5,-.5 409.5,-.5"/>
<text text-anchor="middle" x="448" y="-7.5" font-family="Helvetica,sans-Serif" font-size="10.00" fill="#000000">JS_FreeAtom</text>
</a>
</g>
</g>
<!-- Node269021&#45;&gt;Node269076 -->
<g id="edge28" class="edge">
<title>Node269021&#45;&gt;Node269076</title>
<path fill="none" stroke="#191970" d="M56.344,-354.3556C92.4383,-313.0339 239.9092,-148.2609 386,-43 395.771,-35.9598 407.231,-29.44 417.6223,-24.087"/>
<polygon fill="#191970" stroke="#191970" points="419.3987,-27.1123 426.7859,-19.5175 416.2749,-20.8479 419.3987,-27.1123"/>
</g>
<!-- Node269077 -->
<g id="node12" class="node">
<title>Node269077</title>
<g id="a_node12"><a xlink:href="quickjs_8h.html#afaa20c47565bc704c6c85f3d77254e7d" target="_top" xlink:title="JS_FreeValue">
<polygon fill="none" stroke="#ff0000" points="571,-392.5 571,-411.5 649,-411.5 649,-392.5 571,-392.5"/>
<text text-anchor="middle" x="610" y="-399.5" font-family="Helvetica,sans-Serif" font-size="10.00" fill="#000000">JS_FreeValue</text>
</a>
</g>
</g>
<!-- Node269021&#45;&gt;Node269077 -->
<g id="edge29" class="edge">
<title>Node269021&#45;&gt;Node269077</title>
<path fill="none" stroke="#191970" d="M96.4022,-367.2727C202.3051,-374.4334 453.6296,-391.4269 560.5154,-398.6541"/>
<polygon fill="#191970" stroke="#191970" points="560.4886,-402.1602 570.702,-399.3428 560.9609,-395.1761 560.4886,-402.1602"/>
</g>
<!-- Node269390 -->
<g id="node21" class="node">
<title>Node269390</title>
<g id="a_node21"><a xlink:href="quickjs_8h.html#a93abffa925714e249a6aa2f4ae7900f6" target="_top" xlink:title="JS_NewBool">
<polygon fill="none" stroke="#000000" points="144.5,-126.5 144.5,-145.5 218.5,-145.5 218.5,-126.5 144.5,-126.5"/>
<text text-anchor="middle" x="181.5" y="-133.5" font-family="Helvetica,sans-Serif" font-size="10.00" fill="#000000">JS_NewBool</text>
</a>
</g>
</g>
<!-- Node269021&#45;&gt;Node269390 -->
<g id="edge30" class="edge">
<title>Node269021&#45;&gt;Node269390</title>
<path fill="none" stroke="#191970" d="M49.5055,-354.1491C54.8712,-322.1407 75.8315,-219.6945 132,-160 135.4196,-156.3657 139.5054,-153.2152 143.8429,-150.5023"/>
<polygon fill="#191970" stroke="#191970" points="145.8587,-153.39 152.9671,-145.5337 142.511,-147.2424 145.8587,-153.39"/>
</g>
<!-- Node269179 -->
<g id="node22" class="node">
<title>Node269179</title>
<g id="a_node22"><a xlink:href="quickjs_8c.html#a859d5c989a2aaecef1653b3ac279e108" target="_top" xlink:title="JS_ValueToAtom">
<polygon fill="none" stroke="#ff0000" points="135,-629.5 135,-648.5 228,-648.5 228,-629.5 135,-629.5"/>
<text text-anchor="middle" x="181.5" y="-636.5" font-family="Helvetica,sans-Serif" font-size="10.00" fill="#000000">JS_ValueToAtom</text>
</a>
</g>
</g>
<!-- Node269021&#45;&gt;Node269179 -->
<g id="edge31" class="edge">
<title>Node269021&#45;&gt;Node269179</title>
<path fill="none" stroke="#191970" d="M52.7513,-373.7874C72.2567,-413.967 146.376,-566.6472 172.4006,-620.2559"/>
<polygon fill="#191970" stroke="#191970" points="169.2898,-621.8624 176.8056,-629.3299 175.587,-618.8053 169.2898,-621.8624"/>
</g>
<!-- Node269023 -->
<g id="node3" class="node">
<title>Node269023</title>
<g id="a_node3"><a xlink:href="quickjs_8c.html#a2b9a2014cb970af5b5b7dde00afbdffa" target="_top" xlink:title="delete_property">
<polygon fill="none" stroke="#000000" points="267,-202.5 267,-221.5 350,-221.5 350,-202.5 267,-202.5"/>
<text text-anchor="middle" x="308.5" y="-209.5" font-family="Helvetica,sans-Serif" font-size="10.00" fill="#000000">delete_property</text>
</a>
</g>
</g>
<!-- Node269022&#45;&gt;Node269023 -->
<g id="edge2" class="edge">
<title>Node269022&#45;&gt;Node269023</title>
<path fill="none" stroke="#191970" d="M186.4786,-449.3173C205.4852,-412.3516 273.6743,-279.7318 298.9689,-230.5369"/>
<polygon fill="#191970" stroke="#191970" points="302.0958,-232.1095 303.5559,-221.6158 295.8705,-228.9086 302.0958,-232.1095"/>
</g>
<!-- Node269022&#45;&gt;Node269077 -->
<g id="edge16" class="edge">
<title>Node269022&#45;&gt;Node269077</title>
<path fill="none" stroke="#191970" d="M225.9751,-449.4189C267.2631,-440.8385 330.5307,-428.4874 386,-421 445.7447,-412.9355 514.9444,-407.6856 560.4373,-404.7898"/>
<polygon fill="#191970" stroke="#191970" points="560.8579,-408.2705 570.6211,-404.1557 560.4228,-401.284 560.8579,-408.2705"/>
</g>
<!-- Node269090 -->
<g id="node13" class="node">
<title>Node269090</title>
<g id="a_node13"><a xlink:href="quickjs_8c.html#a686cf78f8b0361621ee2ba6182195c31" target="_top" xlink:title="is_strict_mode">
<polygon fill="none" stroke="#000000" points="268.5,-677.5 268.5,-696.5 348.5,-696.5 348.5,-677.5 268.5,-677.5"/>
<text text-anchor="middle" x="308.5" y="-684.5" font-family="Helvetica,sans-Serif" font-size="10.00" fill="#000000">is_strict_mode</text>
</a>
</g>
</g>
<!-- Node269022&#45;&gt;Node269090 -->
<g id="edge15" class="edge">
<title>Node269022&#45;&gt;Node269090</title>
<path fill="none" stroke="#191970" d="M183.265,-468.6896C189.439,-500.2039 212.7087,-601.3081 267,-663 269.9881,-666.3954 273.5777,-669.4308 277.3787,-672.1059"/>
<polygon fill="#191970" stroke="#191970" points="275.5441,-675.0866 285.8862,-677.3869 279.2359,-669.1392 275.5441,-675.0866"/>
</g>
<!-- Node269091 -->
<g id="node14" class="node">
<title>Node269091</title>
<g id="a_node14"><a xlink:href="quickjs_8h.html#ad80a83d73e9b7d872b88fbf2943aebe9" target="_top" xlink:title="JS_IsException">
<polygon fill="none" stroke="#000000" points="567,-582.5 567,-601.5 653,-601.5 653,-582.5 567,-582.5"/>
<text text-anchor="middle" x="610" y="-589.5" font-family="Helvetica,sans-Serif" font-size="10.00" fill="#000000">JS_IsException</text>
</a>
</g>
</g>
<!-- Node269022&#45;&gt;Node269091 -->
<g id="edge17" class="edge">
<title>Node269022&#45;&gt;Node269091</title>
<path fill="none" stroke="#191970" d="M187.7819,-468.6631C209.9668,-501.7752 288.5704,-610.7245 386,-649 437.2948,-669.1513 456.7275,-663.1166 510,-649 540.0163,-641.046 570.4374,-621.7469 589.7126,-607.806"/>
<polygon fill="#191970" stroke="#191970" points="592.0511,-610.4287 597.9859,-601.6521 587.8733,-604.8121 592.0511,-610.4287"/>
</g>
<!-- Node269092 -->
<g id="node15" class="node">
<title>Node269092</title>
<g id="a_node15"><a xlink:href="quickjs_8c.html#a710289a14c2810467e5b448d3c28bd55" target="_top" xlink:title="JS_ToObject">
<polygon fill="none" stroke="#000000" points="271.5,-506.5 271.5,-525.5 345.5,-525.5 345.5,-506.5 271.5,-506.5"/>
<text text-anchor="middle" x="308.5" y="-513.5" font-family="Helvetica,sans-Serif" font-size="10.00" fill="#000000">JS_ToObject</text>
</a>
</g>
</g>
<!-- Node269022&#45;&gt;Node269092 -->
<g id="edge18" class="edge">
<title>Node269022&#45;&gt;Node269092</title>
<path fill="none" stroke="#191970" d="M202.7569,-468.5405C223.27,-477.7472 254.5467,-491.7847 277.7692,-502.2074"/>
<polygon fill="#191970" stroke="#191970" points="276.6173,-505.5268 287.1737,-506.4284 279.4836,-499.1405 276.6173,-505.5268"/>
</g>
<!-- Node269024 -->
<g id="node4" class="node">
<title>Node269024</title>
<g id="a_node4"><a xlink:href="quickjs_8c.html#ab638a184d14e8b02ab3ea38b393c7cad" target="_top" xlink:title="compact_properties">
<polygon fill="none" stroke="#ff0000" points="397,-164.5 397,-183.5 499,-183.5 499,-164.5 397,-164.5"/>
<text text-anchor="middle" x="448" y="-171.5" font-family="Helvetica,sans-Serif" font-size="10.00" fill="#000000">compact_properties</text>
</a>
</g>
</g>
<!-- Node269023&#45;&gt;Node269024 -->
<g id="edge3" class="edge">
<title>Node269023&#45;&gt;Node269024</title>
<path fill="none" stroke="#191970" d="M343.7017,-202.411C361.7099,-197.5056 383.8284,-191.4804 403.0556,-186.2429"/>
<polygon fill="#191970" stroke="#191970" points="404.081,-189.5912 412.8095,-183.5859 402.2412,-182.8373 404.081,-189.5912"/>
</g>
<!-- Node269026 -->
<g id="node5" class="node">
<title>Node269026</title>
<g id="a_node5"><a xlink:href="quickjs_8c.html#acab22c2945c4d609e57a2484feb68a96" target="_top" xlink:title="prop_hash_end">
<polygon fill="none" stroke="#000000" points="568.5,-183.5 568.5,-202.5 651.5,-202.5 651.5,-183.5 568.5,-183.5"/>
<text text-anchor="middle" x="610" y="-190.5" font-family="Helvetica,sans-Serif" font-size="10.00" fill="#000000">prop_hash_end</text>
</a>
</g>
</g>
<!-- Node269023&#45;&gt;Node269026 -->
<g id="edge14" class="edge">
<title>Node269023&#45;&gt;Node269026</title>
<path fill="none" stroke="#191970" d="M350.1057,-209.3781C404.3573,-205.9592 499.2563,-199.9789 558.1376,-196.2683"/>
<polygon fill="#191970" stroke="#191970" points="558.5774,-199.7476 568.3375,-195.6255 558.1371,-192.7615 558.5774,-199.7476"/>
</g>
<!-- Node269039 -->
<g id="node6" class="node">
<title>Node269039</title>
<g id="a_node6"><a xlink:href="quickjs_8c.html#ac93c982cb636a5430b191d104083af3e" target="_top" xlink:title="convert_fast_array\l_to_array">
<polygon fill="none" stroke="#ff0000" points="399,-77 399,-107 497,-107 497,-77 399,-77"/>
<text text-anchor="start" x="407" y="-95" font-family="Helvetica,sans-Serif" font-size="10.00" fill="#000000">convert_fast_array</text>
<text text-anchor="middle" x="448" y="-84" font-family="Helvetica,sans-Serif" font-size="10.00" fill="#000000">_to_array</text>
</a>
</g>
</g>
<!-- Node269023&#45;&gt;Node269039 -->
<g id="edge5" class="edge">
<title>Node269023&#45;&gt;Node269039</title>
<path fill="none" stroke="#191970" d="M330.3315,-202.2968C337.1906,-198.5249 344.4212,-193.7199 350,-188 373.3299,-164.0801 361.8052,-145.0446 386,-122 389.799,-118.3816 394.117,-115.1223 398.6644,-112.2052"/>
<polygon fill="#191970" stroke="#191970" points="400.7219,-115.058 407.6161,-107.0131 397.2098,-109.0028 400.7219,-115.058"/>
</g>
<!-- Node269085 -->
<g id="node7" class="node">
<title>Node269085</title>
<g id="a_node7"><a xlink:href="quickjs_8c.html#a3dd8e78607dbc729614deacf55901b95" target="_top" xlink:title="js_shape_prepare_update">
<polygon fill="none" stroke="#ff0000" points="546,-82.5 546,-101.5 674,-101.5 674,-82.5 546,-82.5"/>
<text text-anchor="middle" x="610" y="-89.5" font-family="Helvetica,sans-Serif" font-size="10.00" fill="#000000">js_shape_prepare_update</text>
</a>
</g>
</g>
<!-- Node269023&#45;&gt;Node269085 -->
<g id="edge13" class="edge">
<title>Node269023&#45;&gt;Node269085</title>
<path fill="none" stroke="#191970" d="M327.2214,-202.3131C334.5501,-198.2319 342.8877,-193.2199 350,-188 367.4982,-175.1577 367.0364,-165.5591 386,-155 401.5467,-146.3434 501.7989,-119.7604 562.7956,-104.0271"/>
<polygon fill="#191970" stroke="#191970" points="563.7839,-107.3869 572.5963,-101.5054 562.0395,-100.6077 563.7839,-107.3869"/>
</g>
<!-- Node269044 -->
<g id="node8" class="node">
<title>Node269044</title>
<g id="a_node8"><a xlink:href="quickjs_8c.html#a643df594b75933007bcdbb071b5ea8c5" target="_top" xlink:title="get_shape_prop">
<polygon fill="none" stroke="#000000" points="710,-60.5 710,-79.5 796,-79.5 796,-60.5 710,-60.5"/>
<text text-anchor="middle" x="753" y="-67.5" font-family="Helvetica,sans-Serif" font-size="10.00" fill="#000000">get_shape_prop</text>
</a>
</g>
</g>
<!-- Node269023&#45;&gt;Node269044 -->
<g id="edge9" class="edge">
<title>Node269023&#45;&gt;Node269044</title>
<path fill="none" stroke="#191970" d="M331.9349,-202.4731C338.5647,-198.8026 345.2581,-194.0121 350,-188 384.7464,-143.9462 341.0235,-100.5435 386,-67 434.1362,-31.1 610.3395,-49.6907 699.9307,-61.9933"/>
<polygon fill="#191970" stroke="#191970" points="699.5029,-65.4675 709.8909,-63.3843 700.4711,-58.5348 699.5029,-65.4675"/>
</g>
<!-- Node269081 -->
<g id="node9" class="node">
<title>Node269081</title>
<g id="a_node9"><a xlink:href="quickjs_8c.html#af4274494e2e45f9018154ffcbb7e89e4" target="_top" xlink:title="free_property">
<polygon fill="none" stroke="#ff0000" points="411,-278.5 411,-297.5 485,-297.5 485,-278.5 411,-278.5"/>
<text text-anchor="middle" x="448" y="-285.5" font-family="Helvetica,sans-Serif" font-size="10.00" fill="#000000">free_property</text>
</a>
</g>
</g>
<!-- Node269023&#45;&gt;Node269081 -->
<g id="edge8" class="edge">
<title>Node269023&#45;&gt;Node269081</title>
<path fill="none" stroke="#191970" d="M319.2682,-221.7808C333.5624,-234.3063 360.0339,-255.9485 386,-269 390.8408,-271.4332 396.0526,-273.623 401.3249,-275.5749"/>
<polygon fill="#191970" stroke="#191970" points="400.2186,-278.8956 410.8132,-278.8328 402.4918,-272.275 400.2186,-278.8956"/>
</g>
<!-- Node269086 -->
<g id="node10" class="node">
<title>Node269086</title>
<g id="a_node10"><a xlink:href="quickjs_8c.html#aae16c5cdefab4e9dd9866993a7f0150e" target="_top" xlink:title="JS_AtomIsArrayIndex">
<polygon fill="none" stroke="#ff0000" points="391.5,-240.5 391.5,-259.5 504.5,-259.5 504.5,-240.5 391.5,-240.5"/>
<text text-anchor="middle" x="448" y="-247.5" font-family="Helvetica,sans-Serif" font-size="10.00" fill="#000000">JS_AtomIsArrayIndex</text>
</a>
</g>
</g>
<!-- Node269023&#45;&gt;Node269086 -->
<g id="edge10" class="edge">
<title>Node269023&#45;&gt;Node269086</title>
<path fill="none" stroke="#191970" d="M343.7017,-221.589C361.7099,-226.4944 383.8284,-232.5196 403.0556,-237.7571"/>
<polygon fill="#191970" stroke="#191970" points="402.2412,-241.1627 412.8095,-240.4141 404.081,-234.4088 402.2412,-241.1627"/>
</g>
<!-- Node269023&#45;&gt;Node269076 -->
<g id="edge11" class="edge">
<title>Node269023&#45;&gt;Node269076</title>
<path fill="none" stroke="#191970" d="M332.5907,-202.403C339.0845,-198.7694 345.5383,-194.0169 350,-188 391.8672,-131.5396 339.8875,-87.0498 386,-34 389.9292,-29.4797 394.8129,-25.8058 400.1027,-22.8209"/>
<polygon fill="#191970" stroke="#191970" points="401.7842,-25.8964 409.2915,-18.4204 398.7607,-19.583 401.7842,-25.8964"/>
</g>
<!-- Node269023&#45;&gt;Node269077 -->
<g id="edge12" class="edge">
<title>Node269023&#45;&gt;Node269077</title>
<path fill="none" stroke="#191970" d="M313.8097,-221.5602C324.8222,-240.5457 351.9833,-283.2175 386,-307 433.8056,-340.4229 456.4263,-326.9277 510,-350 536.0654,-361.2254 564.6926,-376.4214 584.6132,-387.4863"/>
<polygon fill="#191970" stroke="#191970" points="582.9436,-390.5627 593.3779,-392.4003 586.3669,-384.4569 582.9436,-390.5627"/>
</g>
<!-- Node269024&#45;&gt;Node269026 -->
<g id="edge4" class="edge">
<title>Node269024&#45;&gt;Node269026</title>
<path fill="none" stroke="#191970" d="M499.2578,-180.0117C518.029,-182.2133 539.2749,-184.7051 558.1016,-186.9132"/>
<polygon fill="#191970" stroke="#191970" points="557.9413,-190.4183 568.281,-188.107 558.7568,-183.4659 557.9413,-190.4183"/>
</g>
<!-- Node269039&#45;&gt;Node269085 -->
<g id="edge6" class="edge">
<title>Node269039&#45;&gt;Node269085</title>
<path fill="none" stroke="#191970" d="M497.045,-92C509.1696,-92 522.4319,-92 535.4692,-92"/>
<polygon fill="#191970" stroke="#191970" points="535.8507,-95.5001 545.8506,-92 535.8506,-88.5001 535.8507,-95.5001"/>
</g>
<!-- Node269085&#45;&gt;Node269044 -->
<g id="edge7" class="edge">
<title>Node269085&#45;&gt;Node269044</title>
<path fill="none" stroke="#191970" d="M671.8902,-82.4784C681.2135,-81.0441 690.7589,-79.5756 699.8766,-78.1728"/>
<polygon fill="#191970" stroke="#191970" points="700.6029,-81.6024 709.9544,-76.6224 699.5385,-74.6838 700.6029,-81.6024"/>
</g>
<!-- Node269092&#45;&gt;Node269091 -->
<g id="edge22" class="edge">
<title>Node269092&#45;&gt;Node269091</title>
<path fill="none" stroke="#191970" d="M345.8256,-514.874C386.9897,-514.6885 454.7166,-517.5322 510,-535 539.2804,-544.2517 569.4397,-562.9338 588.8731,-576.3918"/>
<polygon fill="#191970" stroke="#191970" points="587.0712,-579.4048 597.2529,-582.3345 591.1205,-573.6948 587.0712,-579.4048"/>
</g>
<!-- Node269093 -->
<g id="node16" class="node">
<title>Node269093</title>
<g id="a_node16"><a xlink:href="quickjs_8c.html#a0a8765bd4012467d9139bc24aabcb3ca" target="_top" xlink:title="JS_DefinePropertyValue">
<polygon fill="none" stroke="#ff0000" points="386,-430.5 386,-449.5 510,-449.5 510,-430.5 386,-430.5"/>
<text text-anchor="middle" x="448" y="-437.5" font-family="Helvetica,sans-Serif" font-size="10.00" fill="#000000">JS_DefinePropertyValue</text>
</a>
</g>
</g>
<!-- Node269092&#45;&gt;Node269093 -->
<g id="edge19" class="edge">
<title>Node269092&#45;&gt;Node269093</title>
<path fill="none" stroke="#191970" d="M319.2682,-506.2192C333.5624,-493.6937 360.0339,-472.0515 386,-459 390.3599,-456.8086 395.0207,-454.8145 399.7556,-453.0139"/>
<polygon fill="#191970" stroke="#191970" points="401.2315,-456.2051 409.506,-449.5881 398.9111,-449.6009 401.2315,-456.2051"/>
</g>
<!-- Node269056 -->
<g id="node17" class="node">
<title>Node269056</title>
<g id="a_node17"><a xlink:href="quickjs_8h.html#a775522f2d084fc8fa0fcb33f390006b4" target="_top" xlink:title="JS_DupValue">
<polygon fill="none" stroke="#000000" points="409.5,-582.5 409.5,-601.5 486.5,-601.5 486.5,-582.5 409.5,-582.5"/>
<text text-anchor="middle" x="448" y="-589.5" font-family="Helvetica,sans-Serif" font-size="10.00" fill="#000000">JS_DupValue</text>
</a>
</g>
</g>
<!-- Node269092&#45;&gt;Node269056 -->
<g id="edge21" class="edge">
<title>Node269092&#45;&gt;Node269056</title>
<path fill="none" stroke="#191970" d="M319.2682,-525.7808C333.5624,-538.3063 360.0339,-559.9485 386,-573 390.3599,-575.1914 395.0207,-577.1855 399.7556,-578.9861"/>
<polygon fill="#191970" stroke="#191970" points="398.9111,-582.3991 409.506,-582.4119 401.2315,-575.7949 398.9111,-582.3991"/>
</g>
<!-- Node269155 -->
<g id="node18" class="node">
<title>Node269155</title>
<g id="a_node18"><a xlink:href="quickjs_8h.html#a2050bc428da1c65ac7eb87c3fa3b0392" target="_top" xlink:title="JS_NewInt32">
<polygon fill="none" stroke="#000000" points="410,-544.5 410,-563.5 486,-563.5 486,-544.5 410,-544.5"/>
<text text-anchor="middle" x="448" y="-551.5" font-family="Helvetica,sans-Serif" font-size="10.00" fill="#000000">JS_NewInt32</text>
</a>
</g>
</g>
<!-- Node269092&#45;&gt;Node269155 -->
<g id="edge23" class="edge">
<title>Node269092&#45;&gt;Node269155</title>
<path fill="none" stroke="#191970" d="M343.7017,-525.589C361.7099,-530.4944 383.8284,-536.5196 403.0556,-541.7571"/>
<polygon fill="#191970" stroke="#191970" points="402.2412,-545.1627 412.8095,-544.4141 404.081,-538.4088 402.2412,-545.1627"/>
</g>
<!-- Node269232 -->
<g id="node19" class="node">
<title>Node269232</title>
<g id="a_node19"><a xlink:href="quickjs_8c.html#a659dc0db7e440fd6eb012d613627faa3" target="_top" xlink:title="JS_NewObjectClass">
<polygon fill="none" stroke="#ff0000" points="394,-620.5 394,-639.5 502,-639.5 502,-620.5 394,-620.5"/>
<text text-anchor="middle" x="448" y="-627.5" font-family="Helvetica,sans-Serif" font-size="10.00" fill="#000000">JS_NewObjectClass</text>
</a>
</g>
</g>
<!-- Node269092&#45;&gt;Node269232 -->
<g id="edge24" class="edge">
<title>Node269092&#45;&gt;Node269232</title>
<path fill="none" stroke="#191970" d="M313.7368,-525.6664C324.6185,-544.8429 351.5558,-587.8411 386,-611 388.9385,-612.9758 392.0909,-614.7528 395.3602,-616.3502"/>
<polygon fill="#191970" stroke="#191970" points="394.2325,-619.6746 404.803,-620.392 396.987,-613.2393 394.2325,-619.6746"/>
</g>
<!-- Node269451 -->
<g id="node20" class="node">
<title>Node269451</title>
<g id="a_node20"><a xlink:href="quickjs_8c.html#a5cfd8b63940fcb5151b4df41e32dc68c" target="_top" xlink:title="JS_SetObjectData">
<polygon fill="none" stroke="#000000" points="399,-468.5 399,-487.5 497,-487.5 497,-468.5 399,-468.5"/>
<text text-anchor="middle" x="448" y="-475.5" font-family="Helvetica,sans-Serif" font-size="10.00" fill="#000000">JS_SetObjectData</text>
</a>
</g>
</g>
<!-- Node269092&#45;&gt;Node269451 -->
<g id="edge25" class="edge">
<title>Node269092&#45;&gt;Node269451</title>
<path fill="none" stroke="#191970" d="M343.7017,-506.411C361.7099,-501.5056 383.8284,-495.4804 403.0556,-490.2429"/>
<polygon fill="#191970" stroke="#191970" points="404.081,-493.5912 412.8095,-487.5859 402.2412,-486.8373 404.081,-493.5912"/>
</g>
<!-- Node269093&#45;&gt;Node269077 -->
<g id="edge20" class="edge">
<title>Node269093&#45;&gt;Node269077</title>
<path fill="none" stroke="#191970" d="M488.8794,-430.411C510.7616,-425.2781 537.8701,-418.9193 560.8896,-413.5197"/>
<polygon fill="#191970" stroke="#191970" points="561.8737,-416.884 570.8101,-411.1927 560.2751,-410.0689 561.8737,-416.884"/>
</g>
<!-- Node269451&#45;&gt;Node269077 -->
<g id="edge26" class="edge">
<title>Node269451&#45;&gt;Node269077</title>
<path fill="none" stroke="#191970" d="M483.8962,-468.4705C492.5766,-465.7658 501.7319,-462.5712 510,-459 537.5567,-447.0977 567.2039,-429.5386 587.0008,-417.0588"/>
<polygon fill="#191970" stroke="#191970" points="589.0748,-419.8872 595.618,-411.5544 585.3065,-413.988 589.0748,-419.8872"/>
</g>
<!-- Node269451&#45;&gt;Node269091 -->
<g id="edge27" class="edge">
<title>Node269451&#45;&gt;Node269091</title>
<path fill="none" stroke="#191970" d="M479.3201,-487.6073C489.481,-491.3728 500.5598,-496.1982 510,-502 543.58,-522.6378 576.3413,-555.1741 594.7721,-574.955"/>
<polygon fill="#191970" stroke="#191970" points="592.2026,-577.3315 601.5387,-582.3402 597.3638,-572.6026 592.2026,-577.3315"/>
</g>
<!-- Node269179&#45;&gt;Node269091 -->
<g id="edge32" class="edge">
<title>Node269179&#45;&gt;Node269091</title>
<path fill="none" stroke="#191970" d="M189.7447,-648.7219C203.7322,-664.3728 233.8427,-694.5561 267,-706 301.8704,-718.0352 313.2133,-708.7437 350,-706 421.7075,-700.6519 444.9685,-712.6833 510,-682 546.2034,-664.9184 578.7522,-630.3702 596.3133,-609.3984"/>
<polygon fill="#191970" stroke="#191970" points="599.0788,-611.5453 602.6887,-601.5844 593.655,-607.12 599.0788,-611.5453"/>
</g>
</g>
</svg>
