<?xml version="1.0" encoding="UTF-8" standalone="no"?>
<!DOCTYPE svg PUBLIC "-//W3C//DTD SVG 1.1//EN"
 "http://www.w3.org/Graphics/SVG/1.1/DTD/svg11.dtd">
<!-- Generated by graphviz version 2.40.1 (20161225.0304)
 -->
<!-- Title: js_get_length32 Pages: 1 -->
<svg width="1062pt" height="417pt"
 viewBox="0.00 0.00 1062.00 417.00" xmlns="http://www.w3.org/2000/svg" xmlns:xlink="http://www.w3.org/1999/xlink">
<g id="graph0" class="graph" transform="scale(1 1) rotate(0) translate(4 413)">
<title>js_get_length32</title>
<!-- Node42307 -->
<g id="node1" class="node">
<title>Node42307</title>
<polygon fill="#bfbfbf" stroke="#000000" points="0,-133.5 0,-152.5 85,-152.5 85,-133.5 0,-133.5"/>
<text text-anchor="middle" x="42.5" y="-140.5" font-family="Helvetica,sans-Serif" font-size="10.00" fill="#000000">js_get_length32</text>
</g>
<!-- Node42308 -->
<g id="node2" class="node">
<title>Node42308</title>
<g id="a_node2"><a xlink:href="quickjs_8c.html#a4956f45ffd2849b96dc051277264f87a" target="_top" xlink:title="build_arg_list">
<polygon fill="none" stroke="#000000" points="298.5,-285.5 298.5,-304.5 372.5,-304.5 372.5,-285.5 298.5,-285.5"/>
<text text-anchor="middle" x="335.5" y="-292.5" font-family="Helvetica,sans-Serif" font-size="10.00" fill="#000000">build_arg_list</text>
</a>
</g>
</g>
<!-- Node42307&#45;&gt;Node42308 -->
<g id="edge1" class="edge">
<title>Node42307&#45;&gt;Node42308</title>
<path fill="none" stroke="#191970" d="M61.0297,-159.2767C76.3753,-172.2219 99.1325,-190.22 121,-203 184.3209,-240.0066 265.3292,-270.6737 307.3601,-285.4664"/>
<polygon fill="#191970" stroke="#191970" points="63.1905,-156.5191 53.3195,-152.67 58.6357,-161.8346 63.1905,-156.5191"/>
</g>
<!-- Node42378 -->
<g id="node7" class="node">
<title>Node42378</title>
<g id="a_node7"><a xlink:href="quickjs_8c.html#a6a77bcdb9f7f18c13c108c99a198708b" target="_top" xlink:title="js_regexp_Symbol_replace">
<polygon fill="none" stroke="#000000" points="920,-76.5 920,-95.5 1054,-95.5 1054,-76.5 920,-76.5"/>
<text text-anchor="middle" x="987" y="-83.5" font-family="Helvetica,sans-Serif" font-size="10.00" fill="#000000">js_regexp_Symbol_replace</text>
</a>
</g>
</g>
<!-- Node42307&#45;&gt;Node42378 -->
<g id="edge25" class="edge">
<title>Node42307&#45;&gt;Node42378</title>
<path fill="none" stroke="#191970" d="M61.3524,-126.6763C76.4844,-114.4423 98.799,-98.2744 121,-89 210.5588,-51.5871 238.4408,-48 335.5,-48 335.5,-48 335.5,-48 645,-48 747.9028,-48 867.1624,-65.2037 934.1803,-76.46"/>
<polygon fill="#191970" stroke="#191970" points="58.7832,-124.2605 53.328,-133.343 63.2564,-129.6447 58.7832,-124.2605"/>
</g>
<!-- Node42386 -->
<g id="node8" class="node">
<title>Node42386</title>
<g id="a_node8"><a xlink:href="quickjs_8c.html#a624282391413d4c5a030adbd8b77aa80" target="_top" xlink:title="internalize_json_property">
<polygon fill="none" stroke="#ff0000" points="753.5,-370.5 753.5,-389.5 878.5,-389.5 878.5,-370.5 753.5,-370.5"/>
<text text-anchor="middle" x="816" y="-377.5" font-family="Helvetica,sans-Serif" font-size="10.00" fill="#000000">internalize_json_property</text>
</a>
</g>
</g>
<!-- Node42307&#45;&gt;Node42386 -->
<g id="edge19" class="edge">
<title>Node42307&#45;&gt;Node42386</title>
<path fill="none" stroke="#191970" d="M51.6507,-162.0333C82.399,-222.9246 188.3962,-409 335.5,-409 335.5,-409 335.5,-409 491,-409 582.4862,-409 687.8872,-397.4585 753.2364,-388.9376"/>
<polygon fill="#191970" stroke="#191970" points="54.6463,-160.1951 47.0763,-152.7825 48.3715,-163.2979 54.6463,-160.1951"/>
</g>
<!-- Node42649 -->
<g id="node11" class="node">
<title>Node42649</title>
<g id="a_node11"><a xlink:href="quickjs_8c.html#a438b354d69a8f0674195b0cdc19dd686" target="_top" xlink:title="js_proxy_get_own_property\l_names">
<polygon fill="none" stroke="#000000" points="748,-131 748,-161 884,-161 884,-131 748,-131"/>
<text text-anchor="start" x="756" y="-149" font-family="Helvetica,sans-Serif" font-size="10.00" fill="#000000">js_proxy_get_own_property</text>
<text text-anchor="middle" x="816" y="-138" font-family="Helvetica,sans-Serif" font-size="10.00" fill="#000000">_names</text>
</a>
</g>
</g>
<!-- Node42307&#45;&gt;Node42649 -->
<g id="edge24" class="edge">
<title>Node42307&#45;&gt;Node42649</title>
<path fill="none" stroke="#191970" d="M95.2707,-137.5134C153.8821,-131.9014 251.3466,-124 335.5,-124 335.5,-124 335.5,-124 491,-124 579.9292,-124 682.2341,-132.3009 747.9283,-138.7049"/>
<polygon fill="#191970" stroke="#191970" points="94.7595,-134.0465 85.1449,-138.4973 95.4365,-141.0137 94.7595,-134.0465"/>
</g>
<!-- Node42338 -->
<g id="node13" class="node">
<title>Node42338</title>
<g id="a_node13"><a xlink:href="quickjs_8c.html#a43208b0746998d2b6b9b8bd1ef8b5f99" target="_top" xlink:title="js_append_enumerate">
<polygon fill="none" stroke="#000000" points="279.5,-190.5 279.5,-209.5 391.5,-209.5 391.5,-190.5 279.5,-190.5"/>
<text text-anchor="middle" x="335.5" y="-197.5" font-family="Helvetica,sans-Serif" font-size="10.00" fill="#000000">js_append_enumerate</text>
</a>
</g>
</g>
<!-- Node42307&#45;&gt;Node42338 -->
<g id="edge20" class="edge">
<title>Node42307&#45;&gt;Node42338</title>
<path fill="none" stroke="#191970" d="M67.1775,-157.8196C82.2005,-166.0986 102.0843,-175.7733 121,-181 173.431,-195.4874 235.5532,-199.6443 279.4134,-200.5337"/>
<polygon fill="#191970" stroke="#191970" points="68.4896,-154.5396 58.0662,-152.6414 65.0309,-160.6254 68.4896,-154.5396"/>
</g>
<!-- Node42542 -->
<g id="node14" class="node">
<title>Node42542</title>
<g id="a_node14"><a xlink:href="quickjs_8c.html#a4398c126700f887a947501bf25910f75" target="_top" xlink:title="js_array_iterator_next">
<polygon fill="none" stroke="#000000" points="121,-152.5 121,-171.5 231,-171.5 231,-152.5 121,-152.5"/>
<text text-anchor="middle" x="176" y="-159.5" font-family="Helvetica,sans-Serif" font-size="10.00" fill="#000000">js_array_iterator_next</text>
</a>
</g>
</g>
<!-- Node42307&#45;&gt;Node42542 -->
<g id="edge22" class="edge">
<title>Node42307&#45;&gt;Node42542</title>
<path fill="none" stroke="#191970" d="M95.1304,-150.4905C103.5048,-151.6823 112.1898,-152.9184 120.6252,-154.1189"/>
<polygon fill="#191970" stroke="#191970" points="95.5007,-147.008 85.1073,-149.064 94.5143,-153.9381 95.5007,-147.008"/>
</g>
<!-- Node42670 -->
<g id="node15" class="node">
<title>Node42670</title>
<g id="a_node15"><a xlink:href="quickjs_8c.html#adb4d2990e6bf3f99633512ad2054b47a" target="_top" xlink:title="js_string___GetSubstitution">
<polygon fill="none" stroke="#ff0000" points="267,-76.5 267,-95.5 404,-95.5 404,-76.5 267,-76.5"/>
<text text-anchor="middle" x="335.5" y="-83.5" font-family="Helvetica,sans-Serif" font-size="10.00" fill="#000000">js_string___GetSubstitution</text>
</a>
</g>
</g>
<!-- Node42307&#45;&gt;Node42670 -->
<g id="edge26" class="edge">
<title>Node42307&#45;&gt;Node42670</title>
<path fill="none" stroke="#191970" d="M70.0789,-129.1138C84.83,-122.2804 103.5133,-114.5525 121,-110 168.8674,-97.5381 224.4005,-91.5467 266.9675,-88.6663"/>
<polygon fill="#191970" stroke="#191970" points="68.5303,-125.9745 61.0053,-133.4327 71.5389,-132.2951 68.5303,-125.9745"/>
</g>
<!-- Node42661 -->
<g id="node16" class="node">
<title>Node42661</title>
<g id="a_node16"><a xlink:href="quickjs_8c.html#aba35628e2e963dca8fa201e6708046d6" target="_top" xlink:title="JS_WriteArray">
<polygon fill="none" stroke="#ff0000" points="136,-.5 136,-19.5 216,-19.5 216,-.5 136,-.5"/>
<text text-anchor="middle" x="176" y="-7.5" font-family="Helvetica,sans-Serif" font-size="10.00" fill="#000000">JS_WriteArray</text>
</a>
</g>
</g>
<!-- Node42307&#45;&gt;Node42661 -->
<g id="edge28" class="edge">
<title>Node42307&#45;&gt;Node42661</title>
<path fill="none" stroke="#191970" d="M51.9488,-124.15C64.7215,-100.3267 89.5601,-59.3751 121,-34 128.4585,-27.9803 137.6594,-23.1876 146.3872,-19.5175"/>
<polygon fill="#191970" stroke="#191970" points="48.7423,-122.7297 47.2294,-133.2159 54.9514,-125.9619 48.7423,-122.7297"/>
</g>
<!-- Node42309 -->
<g id="node3" class="node">
<title>Node42309</title>
<g id="a_node3"><a xlink:href="quickjs_8c.html#ac2894ff4edcdb4e6841bcce9c76081e3" target="_top" xlink:title="JS_CallInternal">
<polygon fill="none" stroke="#000000" points="449.5,-209.5 449.5,-228.5 532.5,-228.5 532.5,-209.5 449.5,-209.5"/>
<text text-anchor="middle" x="491" y="-216.5" font-family="Helvetica,sans-Serif" font-size="10.00" fill="#000000">JS_CallInternal</text>
</a>
</g>
</g>
<!-- Node42308&#45;&gt;Node42309 -->
<g id="edge2" class="edge">
<title>Node42308&#45;&gt;Node42309</title>
<path fill="none" stroke="#191970" d="M364.265,-280.9412C395.4725,-265.6887 444.4451,-241.7535 471.4657,-228.5473"/>
<polygon fill="#191970" stroke="#191970" points="362.6417,-277.8389 355.1942,-285.3745 365.7154,-284.128 362.6417,-277.8389"/>
</g>
<!-- Node42377 -->
<g id="node6" class="node">
<title>Node42377</title>
<g id="a_node6"><a xlink:href="quickjs_8c.html#a8d4b24969540aff427939eeda47f451d" target="_top" xlink:title="js_function_apply">
<polygon fill="none" stroke="#ff0000" points="770,-285.5 770,-304.5 862,-304.5 862,-285.5 770,-285.5"/>
<text text-anchor="middle" x="816" y="-292.5" font-family="Helvetica,sans-Serif" font-size="10.00" fill="#000000">js_function_apply</text>
</a>
</g>
</g>
<!-- Node42308&#45;&gt;Node42377 -->
<g id="edge17" class="edge">
<title>Node42308&#45;&gt;Node42377</title>
<path fill="none" stroke="#191970" d="M378.8067,-307.0621C449.1403,-324.933 592.3815,-354.169 712,-333 742.4756,-327.6067 775.753,-313.9673 796.2543,-304.587"/>
<polygon fill="#191970" stroke="#191970" points="379.5282,-303.6335 368.9701,-304.5152 377.7736,-310.4101 379.5282,-303.6335"/>
</g>
<!-- Node42423 -->
<g id="node12" class="node">
<title>Node42423</title>
<g id="a_node12"><a xlink:href="quickjs_8c.html#a392bb9e4d465d6a061eb3f6c830e0efa" target="_top" xlink:title="js_reflect_construct">
<polygon fill="none" stroke="#000000" points="440,-361.5 440,-380.5 542,-380.5 542,-361.5 440,-361.5"/>
<text text-anchor="middle" x="491" y="-368.5" font-family="Helvetica,sans-Serif" font-size="10.00" fill="#000000">js_reflect_construct</text>
</a>
</g>
</g>
<!-- Node42308&#45;&gt;Node42423 -->
<g id="edge18" class="edge">
<title>Node42308&#45;&gt;Node42423</title>
<path fill="none" stroke="#191970" d="M363.3234,-309.052C384.331,-319.6114 413.901,-334.3674 440,-347 449.865,-351.7749 460.8598,-356.9655 470.1077,-361.2942"/>
<polygon fill="#191970" stroke="#191970" points="364.823,-305.8885 354.3171,-304.5185 361.6756,-312.141 364.823,-305.8885"/>
</g>
<!-- Node42309&#45;&gt;Node42309 -->
<g id="edge16" class="edge">
<title>Node42309&#45;&gt;Node42309</title>
<path fill="none" stroke="#191970" d="M462.2542,-237.6539C463.4558,-242.9368 473.0377,-247 491,-247 518.3711,-247 526.2831,-237.5653 514.7359,-228.7571"/>
<polygon fill="#191970" stroke="#191970" points="465.4072,-239.1879 467.2641,-228.7571 459.3077,-235.7532 465.4072,-239.1879"/>
</g>
<!-- Node42310 -->
<g id="node4" class="node">
<title>Node42310</title>
<g id="a_node4"><a xlink:href="quickjs_8c.html#ade71a22dc56e7371392393df663b28b3" target="_top" xlink:title="async_func_resume">
<polygon fill="none" stroke="#ff0000" points="593,-228.5 593,-247.5 697,-247.5 697,-228.5 593,-228.5"/>
<text text-anchor="middle" x="645" y="-235.5" font-family="Helvetica,sans-Serif" font-size="10.00" fill="#000000">async_func_resume</text>
</a>
</g>
</g>
<!-- Node42309&#45;&gt;Node42310 -->
<g id="edge3" class="edge">
<title>Node42309&#45;&gt;Node42310</title>
<path fill="none" stroke="#191970" d="M542.9658,-225.4114C559.0357,-227.394 576.7381,-229.5781 592.8223,-231.5625"/>
<polygon fill="#191970" stroke="#191970" points="543.028,-221.8926 532.6746,-224.1417 542.1708,-228.8399 543.028,-221.8926"/>
</g>
<!-- Node42329 -->
<g id="node5" class="node">
<title>Node42329</title>
<g id="a_node5"><a xlink:href="quickjs_8c.html#a1a4c02a29525d5cb2085dd8bca3af350" target="_top" xlink:title="JS_Call">
<polygon fill="none" stroke="#ff0000" points="619.5,-304.5 619.5,-323.5 670.5,-323.5 670.5,-304.5 619.5,-304.5"/>
<text text-anchor="middle" x="645" y="-311.5" font-family="Helvetica,sans-Serif" font-size="10.00" fill="#000000">JS_Call</text>
</a>
</g>
</g>
<!-- Node42309&#45;&gt;Node42329 -->
<g id="edge4" class="edge">
<title>Node42309&#45;&gt;Node42329</title>
<path fill="none" stroke="#191970" d="M515.7441,-235.3736C532.298,-249.146 555.1616,-268.0982 578,-281 595.9655,-291.149 619.0037,-298.27 632.851,-304.4931"/>
<polygon fill="#191970" stroke="#191970" points="517.629,-232.3899 507.6963,-228.7032 513.162,-237.7793 517.629,-232.3899"/>
</g>
<!-- Node42410 -->
<g id="node9" class="node">
<title>Node42410</title>
<g id="a_node9"><a xlink:href="quickjs_8c.html#ad35594576a14c10812efaf958c99af8a" target="_top" xlink:title="JS_CallConstructorInternal">
<polygon fill="none" stroke="#ff0000" points="578,-190.5 578,-209.5 712,-209.5 712,-190.5 578,-190.5"/>
<text text-anchor="middle" x="645" y="-197.5" font-family="Helvetica,sans-Serif" font-size="10.00" fill="#000000">JS_CallConstructorInternal</text>
</a>
</g>
</g>
<!-- Node42309&#45;&gt;Node42410 -->
<g id="edge11" class="edge">
<title>Node42309&#45;&gt;Node42410</title>
<path fill="none" stroke="#191970" d="M533.0789,-207.7177C546.9176,-205.4501 562.6655,-203.304 577.8891,-201.5796"/>
<polygon fill="#191970" stroke="#191970" points="532.1691,-204.3228 522.9089,-209.4705 533.3581,-211.2211 532.1691,-204.3228"/>
</g>
<!-- Node42424 -->
<g id="node10" class="node">
<title>Node42424</title>
<g id="a_node10"><a xlink:href="quickjs_8c.html#a75f6ee5e4235a7dc99889f3d2eb2c147" target="_top" xlink:title="JS_CallFree">
<polygon fill="none" stroke="#ff0000" points="609.5,-152.5 609.5,-171.5 680.5,-171.5 680.5,-152.5 609.5,-152.5"/>
<text text-anchor="middle" x="645" y="-159.5" font-family="Helvetica,sans-Serif" font-size="10.00" fill="#000000">JS_CallFree</text>
</a>
</g>
</g>
<!-- Node42309&#45;&gt;Node42424 -->
<g id="edge13" class="edge">
<title>Node42309&#45;&gt;Node42424</title>
<path fill="none" stroke="#191970" d="M508.5034,-203.6577C525.8735,-193.2988 553.3876,-180.8191 578,-172 588.0162,-168.411 599.0632,-165.0443 609.2488,-162.5368"/>
<polygon fill="#191970" stroke="#191970" points="506.4846,-200.7949 499.9798,-209.1578 510.28,-206.6767 506.4846,-200.7949"/>
</g>
<!-- Node42329&#45;&gt;Node42309 -->
<g id="edge5" class="edge">
<title>Node42329&#45;&gt;Node42309</title>
<path fill="none" stroke="#191970" d="M609.558,-312.423C599.0699,-309.1551 587.7829,-304.5265 578,-299 543.3725,-279.4384 508.6867,-245.9674 496.0244,-228.6227"/>
<polygon fill="#191970" stroke="#191970" points="608.7218,-315.8232 619.2936,-315.1241 610.5933,-309.078 608.7218,-315.8232"/>
</g>
<!-- Node42329&#45;&gt;Node42377 -->
<g id="edge6" class="edge">
<title>Node42329&#45;&gt;Node42377</title>
<path fill="none" stroke="#191970" d="M680.7305,-310.0299C706.6318,-307.152 741.8816,-303.2354 769.9036,-300.1218"/>
<polygon fill="#191970" stroke="#191970" points="680.1527,-306.5725 670.6004,-311.1555 680.9258,-313.5297 680.1527,-306.5725"/>
</g>
<!-- Node42329&#45;&gt;Node42386 -->
<g id="edge9" class="edge">
<title>Node42329&#45;&gt;Node42386</title>
<path fill="none" stroke="#191970" d="M679.6048,-327.3562C712.7802,-340.1608 762.0289,-359.169 791.3825,-370.4985"/>
<polygon fill="#191970" stroke="#191970" points="680.4544,-323.9326 669.8649,-323.597 677.9338,-330.463 680.4544,-323.9326"/>
</g>
<!-- Node42377&#45;&gt;Node42309 -->
<g id="edge7" class="edge">
<title>Node42377&#45;&gt;Node42309</title>
<path fill="none" stroke="#191970" d="M759.564,-290.0586C710.7724,-284.8285 638.73,-274.7969 578,-257 553.3256,-249.7692 526.4167,-237.2401 509.1592,-228.5551"/>
<polygon fill="#191970" stroke="#191970" points="759.3019,-293.5501 769.6102,-291.1028 760.0257,-286.5876 759.3019,-293.5501"/>
</g>
<!-- Node42377&#45;&gt;Node42378 -->
<g id="edge8" class="edge">
<title>Node42377&#45;&gt;Node42378</title>
<path fill="none" stroke="#191970" d="M830.133,-277.7263C864.6633,-235.5226 952.4416,-128.238 979.1624,-95.5793"/>
<polygon fill="#191970" stroke="#191970" points="827.4154,-275.5207 823.7919,-285.4766 832.8331,-279.9534 827.4154,-275.5207"/>
</g>
<!-- Node42386&#45;&gt;Node42386 -->
<g id="edge10" class="edge">
<title>Node42386&#45;&gt;Node42386</title>
<path fill="none" stroke="#191970" d="M784.1886,-398.2746C785.0956,-403.741 795.6994,-408 816,-408 846.2148,-408 854.9488,-398.5653 842.2019,-389.7571"/>
<polygon fill="#191970" stroke="#191970" points="787.2209,-400.0337 789.7981,-389.7571 781.3748,-396.1836 787.2209,-400.0337"/>
</g>
<!-- Node42410&#45;&gt;Node42309 -->
<g id="edge12" class="edge">
<title>Node42410&#45;&gt;Node42309</title>
<path fill="none" stroke="#191970" d="M603.0706,-211.2578C581.1937,-214.8474 554.514,-218.1356 532.6746,-219.9326"/>
<polygon fill="#191970" stroke="#191970" points="603.8051,-214.6829 613.0648,-209.5343 602.6155,-207.7847 603.8051,-214.6829"/>
</g>
<!-- Node42424&#45;&gt;Node42309 -->
<g id="edge14" class="edge">
<title>Node42424&#45;&gt;Node42309</title>
<path fill="none" stroke="#191970" d="M622.8574,-175.3092C609.6873,-179.9253 592.729,-184.7223 578,-190 561.7081,-195.8377 544.1448,-203.2793 529.0938,-209.4061"/>
<polygon fill="#191970" stroke="#191970" points="624.3927,-178.4698 632.4925,-171.6402 621.9016,-171.928 624.3927,-178.4698"/>
</g>
<!-- Node42424&#45;&gt;Node42649 -->
<g id="edge15" class="edge">
<title>Node42424&#45;&gt;Node42649</title>
<path fill="none" stroke="#191970" d="M691.2727,-157.6704C708.6457,-156.0448 728.7776,-154.1612 747.7309,-152.3877"/>
<polygon fill="#191970" stroke="#191970" points="690.4776,-154.2294 680.8472,-158.6459 691.1298,-161.199 690.4776,-154.2294"/>
</g>
<!-- Node42338&#45;&gt;Node42309 -->
<g id="edge21" class="edge">
<title>Node42338&#45;&gt;Node42309</title>
<path fill="none" stroke="#191970" d="M402.0136,-208.1271C417.9869,-210.0788 434.6065,-212.1095 449.0987,-213.8802"/>
<polygon fill="#191970" stroke="#191970" points="401.9898,-204.5982 391.6391,-206.8594 401.1407,-211.5465 401.9898,-204.5982"/>
</g>
<!-- Node42542&#45;&gt;Node42338 -->
<g id="edge23" class="edge">
<title>Node42542&#45;&gt;Node42338</title>
<path fill="none" stroke="#191970" d="M226.234,-173.968C248.5855,-179.2931 274.5383,-185.4762 295.5408,-190.4799"/>
<polygon fill="#191970" stroke="#191970" points="226.7875,-170.502 216.2486,-171.589 225.1651,-177.3114 226.7875,-170.502"/>
</g>
<!-- Node42670&#45;&gt;Node42378 -->
<g id="edge27" class="edge">
<title>Node42670&#45;&gt;Node42378</title>
<path fill="none" stroke="#191970" d="M414.5322,-86C543.9671,-86 798.8405,-86 919.9895,-86"/>
<polygon fill="#191970" stroke="#191970" points="414.2976,-82.5001 404.2976,-86 414.2975,-89.5001 414.2976,-82.5001"/>
</g>
</g>
</svg>
