<?xml version="1.0" encoding="UTF-8" standalone="no"?>
<!DOCTYPE svg PUBLIC "-//W3C//DTD SVG 1.1//EN"
 "http://www.w3.org/Graphics/SVG/1.1/DTD/svg11.dtd">
<!-- Generated by graphviz version 2.40.1 (20161225.0304)
 -->
<!-- Title: js_global_eval Pages: 1 -->
<svg width="535pt" height="28pt"
 viewBox="0.00 0.00 535.00 28.00" xmlns="http://www.w3.org/2000/svg" xmlns:xlink="http://www.w3.org/1999/xlink">
<g id="graph0" class="graph" transform="scale(1 1) rotate(0) translate(4 24)">
<title>js_global_eval</title>
<!-- Node370287 -->
<g id="node1" class="node">
<title>Node370287</title>
<polygon fill="#bfbfbf" stroke="#000000" points="0,-.5 0,-19.5 78,-19.5 78,-.5 0,-.5"/>
<text text-anchor="middle" x="39" y="-7.5" font-family="Helvetica,sans-Serif" font-size="10.00" fill="#000000">js_global_eval</text>
</g>
<!-- Node370288 -->
<g id="node2" class="node">
<title>Node370288</title>
<g id="a_node2"><a xlink:href="quickjs_8c.html#a4c9489297c684663f30e517204a9ec14" target="_top" xlink:title="JS_AddIntrinsicBaseObjects">
<polygon fill="none" stroke="#000000" points="114,-.5 114,-19.5 256,-19.5 256,-.5 114,-.5"/>
<text text-anchor="middle" x="185" y="-7.5" font-family="Helvetica,sans-Serif" font-size="10.00" fill="#000000">JS_AddIntrinsicBaseObjects</text>
</a>
</g>
</g>
<!-- Node370287&#45;&gt;Node370288 -->
<g id="edge1" class="edge">
<title>Node370287&#45;&gt;Node370288</title>
<path fill="none" stroke="#191970" d="M88.2962,-10C96.5461,-10 105.2492,-10 113.9163,-10"/>
<polygon fill="#191970" stroke="#191970" points="88.1254,-6.5001 78.1253,-10 88.1253,-13.5001 88.1254,-6.5001"/>
</g>
<!-- Node370289 -->
<g id="node3" class="node">
<title>Node370289</title>
<g id="a_node3"><a xlink:href="quickjs_8c.html#ad8aedb643b8753b7a15f6cb2df61945e" target="_top" xlink:title="JS_NewContext">
<polygon fill="none" stroke="#000000" points="292,-.5 292,-19.5 381,-19.5 381,-.5 292,-.5"/>
<text text-anchor="middle" x="336.5" y="-7.5" font-family="Helvetica,sans-Serif" font-size="10.00" fill="#000000">JS_NewContext</text>
</a>
</g>
</g>
<!-- Node370288&#45;&gt;Node370289 -->
<g id="edge2" class="edge">
<title>Node370288&#45;&gt;Node370289</title>
<path fill="none" stroke="#191970" d="M266.5534,-10C275.2595,-10 283.8628,-10 291.8995,-10"/>
<polygon fill="#191970" stroke="#191970" points="266.3138,-6.5001 256.3138,-10 266.3137,-13.5001 266.3138,-6.5001"/>
</g>
<!-- Node370290 -->
<g id="node4" class="node">
<title>Node370290</title>
<g id="a_node4"><a xlink:href="classqjs_1_1Context.html#a4392a23648acfc4bf6b445336efb5007" target="_top" xlink:title="qjs::Context::Context">
<polygon fill="none" stroke="#ff0000" points="417,-.5 417,-19.5 527,-19.5 527,-.5 417,-.5"/>
<text text-anchor="middle" x="472" y="-7.5" font-family="Helvetica,sans-Serif" font-size="10.00" fill="#000000">qjs::Context::Context</text>
</a>
</g>
</g>
<!-- Node370289&#45;&gt;Node370290 -->
<g id="edge3" class="edge">
<title>Node370289&#45;&gt;Node370290</title>
<path fill="none" stroke="#191970" d="M391.3476,-10C399.7739,-10 408.4767,-10 416.9083,-10"/>
<polygon fill="#191970" stroke="#191970" points="391.2433,-6.5001 381.2433,-10 391.2433,-13.5001 391.2433,-6.5001"/>
</g>
</g>
</svg>
