<?xml version="1.0" encoding="UTF-8" standalone="no"?>
<!DOCTYPE svg PUBLIC "-//W3C//DTD SVG 1.1//EN"
 "http://www.w3.org/Graphics/SVG/1.1/DTD/svg11.dtd">
<!-- Generated by graphviz version 2.40.1 (20161225.0304)
 -->
<!-- Title: JS_RegExpExec Pages: 1 -->
<svg width="799pt" height="1196pt"
 viewBox="0.00 0.00 799.00 1196.00" xmlns="http://www.w3.org/2000/svg" xmlns:xlink="http://www.w3.org/1999/xlink">
<g id="graph0" class="graph" transform="scale(1 1) rotate(0) translate(4 1192)">
<title>JS_RegExpExec</title>
<!-- Node427299 -->
<g id="node1" class="node">
<title>Node427299</title>
<polygon fill="#bfbfbf" stroke="#000000" points="0,-855.5 0,-874.5 92,-874.5 92,-855.5 0,-855.5"/>
<text text-anchor="middle" x="46" y="-862.5" font-family="Helvetica,sans-Serif" font-size="10.00" fill="#000000">JS_RegExpExec</text>
</g>
<!-- Node427300 -->
<g id="node2" class="node">
<title>Node427300</title>
<g id="a_node2"><a xlink:href="quickjs_8c.html#a75f6ee5e4235a7dc99889f3d2eb2c147" target="_top" xlink:title="JS_CallFree">
<polygon fill="none" stroke="#000000" points="132.5,-874.5 132.5,-893.5 203.5,-893.5 203.5,-874.5 132.5,-874.5"/>
<text text-anchor="middle" x="168" y="-881.5" font-family="Helvetica,sans-Serif" font-size="10.00" fill="#000000">JS_CallFree</text>
</a>
</g>
</g>
<!-- Node427299&#45;&gt;Node427300 -->
<g id="edge1" class="edge">
<title>Node427299&#45;&gt;Node427300</title>
<path fill="none" stroke="#191970" d="M92.123,-872.1831C102.0389,-873.7274 112.5135,-875.3587 122.4091,-876.8998"/>
<polygon fill="#191970" stroke="#191970" points="122.0446,-880.3851 132.4641,-878.4657 123.1218,-873.4685 122.0446,-880.3851"/>
</g>
<!-- Node427354 -->
<g id="node7" class="node">
<title>Node427354</title>
<g id="a_node7"><a xlink:href="quickjs_8h.html#afaa20c47565bc704c6c85f3d77254e7d" target="_top" xlink:title="JS_FreeValue">
<polygon fill="none" stroke="#ff0000" points="713,-779.5 713,-798.5 791,-798.5 791,-779.5 713,-779.5"/>
<text text-anchor="middle" x="752" y="-786.5" font-family="Helvetica,sans-Serif" font-size="10.00" fill="#000000">JS_FreeValue</text>
</a>
</g>
</g>
<!-- Node427299&#45;&gt;Node427354 -->
<g id="edge25" class="edge">
<title>Node427299&#45;&gt;Node427354</title>
<path fill="none" stroke="#191970" d="M48.0397,-874.6667C59.9954,-928.41 126.0482,-1188 286.5,-1188 286.5,-1188 286.5,-1188 441,-1188 503.2897,-1188 658.803,-1080.1733 677,-1056 735.7194,-977.9959 748.4722,-856.0413 751.2368,-808.7063"/>
<polygon fill="#191970" stroke="#191970" points="754.739,-808.7467 751.7371,-798.586 747.7476,-808.401 754.739,-808.7467"/>
</g>
<!-- Node427365 -->
<g id="node9" class="node">
<title>Node427365</title>
<g id="a_node9"><a xlink:href="quickjs_8h.html#a89b7c8686c7eee70b86be722ee4730ad" target="_top" xlink:title="JS_GetProperty">
<polygon fill="none" stroke="#000000" points="398,-646.5 398,-665.5 484,-665.5 484,-646.5 398,-646.5"/>
<text text-anchor="middle" x="441" y="-653.5" font-family="Helvetica,sans-Serif" font-size="10.00" fill="#000000">JS_GetProperty</text>
</a>
</g>
</g>
<!-- Node427299&#45;&gt;Node427365 -->
<g id="edge26" class="edge">
<title>Node427299&#45;&gt;Node427365</title>
<path fill="none" stroke="#191970" d="M70.0548,-855.4042C102.3377,-842.151 161.0512,-816.7195 208,-789 282.2558,-745.1579 286.8532,-711.4572 365,-675 372.1929,-671.6443 380.056,-668.8312 387.9098,-666.4877"/>
<polygon fill="#191970" stroke="#191970" points="389.0894,-669.7933 397.802,-663.7648 387.2317,-663.0442 389.0894,-669.7933"/>
</g>
<!-- Node427372 -->
<g id="node12" class="node">
<title>Node427372</title>
<g id="a_node12"><a xlink:href="quickjs_8h.html#ad80a83d73e9b7d872b88fbf2943aebe9" target="_top" xlink:title="JS_IsException">
<polygon fill="none" stroke="#000000" points="398,-760.5 398,-779.5 484,-779.5 484,-760.5 398,-760.5"/>
<text text-anchor="middle" x="441" y="-767.5" font-family="Helvetica,sans-Serif" font-size="10.00" fill="#000000">JS_IsException</text>
</a>
</g>
</g>
<!-- Node427299&#45;&gt;Node427372 -->
<g id="edge27" class="edge">
<title>Node427299&#45;&gt;Node427372</title>
<path fill="none" stroke="#191970" d="M92.0475,-865.051C149.7132,-863.5603 250.4689,-855.7515 329,-822 347.6227,-813.9963 347.0533,-803.4223 365,-794 373.456,-789.5605 382.8771,-785.7702 392.1281,-782.6018"/>
<polygon fill="#191970" stroke="#191970" points="393.2188,-785.9277 401.6595,-779.5241 391.0678,-779.2663 393.2188,-785.9277"/>
</g>
<!-- Node427422 -->
<g id="node13" class="node">
<title>Node427422</title>
<g id="a_node13"><a xlink:href="quickjs_8h.html#a149f24b67e745bad93573b3b4c80db4c" target="_top" xlink:title="JS_IsNull">
<polygon fill="none" stroke="#000000" points="411.5,-1102.5 411.5,-1121.5 470.5,-1121.5 470.5,-1102.5 411.5,-1102.5"/>
<text text-anchor="middle" x="441" y="-1109.5" font-family="Helvetica,sans-Serif" font-size="10.00" fill="#000000">JS_IsNull</text>
</a>
</g>
</g>
<!-- Node427299&#45;&gt;Node427422 -->
<g id="edge29" class="edge">
<title>Node427299&#45;&gt;Node427422</title>
<path fill="none" stroke="#191970" d="M55.0128,-874.9126C69.5259,-890.5795 99.3551,-921.584 128,-944 225.9848,-1020.6778 250.5525,-1044.1917 365,-1093 376.533,-1097.9185 389.6152,-1101.7584 401.6353,-1104.6589"/>
<polygon fill="#191970" stroke="#191970" points="400.8989,-1108.0806 411.4251,-1106.8773 402.4459,-1101.2537 400.8989,-1108.0806"/>
</g>
<!-- Node427584 -->
<g id="node14" class="node">
<title>Node427584</title>
<g id="a_node14"><a xlink:href="quickjs_8h.html#a3d68fe446df2d9c7d1900b16371bff5b" target="_top" xlink:title="JS_IsObject">
<polygon fill="none" stroke="#000000" points="405.5,-1064.5 405.5,-1083.5 476.5,-1083.5 476.5,-1064.5 405.5,-1064.5"/>
<text text-anchor="middle" x="441" y="-1071.5" font-family="Helvetica,sans-Serif" font-size="10.00" fill="#000000">JS_IsObject</text>
</a>
</g>
</g>
<!-- Node427299&#45;&gt;Node427584 -->
<g id="edge30" class="edge">
<title>Node427299&#45;&gt;Node427584</title>
<path fill="none" stroke="#191970" d="M63.4253,-874.5508C97.8377,-893.3824 176.9964,-936.5529 244,-972 304.1,-1003.7948 374.9939,-1040.2446 413.2138,-1059.8089"/>
<polygon fill="#191970" stroke="#191970" points="411.7035,-1062.9677 422.2002,-1064.406 414.8915,-1056.7357 411.7035,-1062.9677"/>
</g>
<!-- Node427421 -->
<g id="node17" class="node">
<title>Node427421</title>
<g id="a_node17"><a xlink:href="quickjs_8c.html#a1ca9cdb1fa2ffc3e6506e92b200e490f" target="_top" xlink:title="JS_IsFunction">
<polygon fill="none" stroke="#000000" points="128,-760.5 128,-779.5 208,-779.5 208,-760.5 128,-760.5"/>
<text text-anchor="middle" x="168" y="-767.5" font-family="Helvetica,sans-Serif" font-size="10.00" fill="#000000">JS_IsFunction</text>
</a>
</g>
</g>
<!-- Node427299&#45;&gt;Node427421 -->
<g id="edge28" class="edge">
<title>Node427299&#45;&gt;Node427421</title>
<path fill="none" stroke="#191970" d="M56.1327,-855.2012C71.1632,-840.9098 100.5519,-813.8879 128,-794 132.316,-790.8728 137.0565,-787.7673 141.718,-784.879"/>
<polygon fill="#191970" stroke="#191970" points="143.6743,-787.787 150.4523,-779.644 140.0756,-781.7829 143.6743,-787.787"/>
</g>
<!-- Node427731 -->
<g id="node18" class="node">
<title>Node427731</title>
<g id="a_node18"><a xlink:href="quickjs_8c.html#a9eb2d90f27f684820f9de13189502b7c" target="_top" xlink:title="js_regexp_exec">
<polygon fill="none" stroke="#000000" points="244,-399.5 244,-418.5 329,-418.5 329,-399.5 244,-399.5"/>
<text text-anchor="middle" x="286.5" y="-406.5" font-family="Helvetica,sans-Serif" font-size="10.00" fill="#000000">js_regexp_exec</text>
</a>
</g>
</g>
<!-- Node427299&#45;&gt;Node427731 -->
<g id="edge31" class="edge">
<title>Node427299&#45;&gt;Node427731</title>
<path fill="none" stroke="#191970" d="M51.0232,-855.4758C80.9126,-798.8041 235.4361,-505.8198 276.4801,-427.9982"/>
<polygon fill="#191970" stroke="#191970" points="279.7314,-429.3361 281.3007,-418.8581 273.5398,-426.0705 279.7314,-429.3361"/>
</g>
<!-- Node427301 -->
<g id="node3" class="node">
<title>Node427301</title>
<g id="a_node3"><a xlink:href="quickjs_8c.html#ac2894ff4edcdb4e6841bcce9c76081e3" target="_top" xlink:title="JS_CallInternal">
<polygon fill="none" stroke="#ff0000" points="245,-874.5 245,-893.5 328,-893.5 328,-874.5 245,-874.5"/>
<text text-anchor="middle" x="286.5" y="-881.5" font-family="Helvetica,sans-Serif" font-size="10.00" fill="#000000">JS_CallInternal</text>
</a>
</g>
</g>
<!-- Node427300&#45;&gt;Node427301 -->
<g id="edge2" class="edge">
<title>Node427300&#45;&gt;Node427301</title>
<path fill="none" stroke="#191970" d="M203.5539,-877.7547C213.2687,-877.3186 224.001,-877.1651 234.4319,-877.2943"/>
<polygon fill="#191970" stroke="#191970" points="234.6398,-880.7995 244.7135,-877.5176 234.7919,-873.8012 234.6398,-880.7995"/>
</g>
<!-- Node427300&#45;&gt;Node427354 -->
<g id="edge24" class="edge">
<title>Node427300&#45;&gt;Node427354</title>
<path fill="none" stroke="#191970" d="M171.9156,-893.6392C188.3208,-932.5415 255.783,-1078.4079 365,-1131 425.8663,-1160.3094 454.6674,-1157.0461 517,-1131 659.3434,-1071.5208 727.9828,-872.2444 746.6232,-808.6689"/>
<polygon fill="#191970" stroke="#191970" points="750.0766,-809.3207 749.4452,-798.7447 743.3435,-807.406 750.0766,-809.3207"/>
</g>
<!-- Node427301&#45;&gt;Node427300 -->
<g id="edge5" class="edge">
<title>Node427301&#45;&gt;Node427300</title>
<path fill="none" stroke="#191970" d="M244.7135,-890.4824C234.6301,-890.7999 223.8056,-890.8349 213.559,-890.5872"/>
<polygon fill="#191970" stroke="#191970" points="213.6676,-887.089 203.5539,-890.2453 213.4285,-894.0849 213.6676,-887.089"/>
</g>
<!-- Node427301&#45;&gt;Node427301 -->
<g id="edge6" class="edge">
<title>Node427301&#45;&gt;Node427301</title>
<path fill="none" stroke="#191970" d="M268.3128,-893.7571C259.4649,-902.5653 265.5273,-912 286.5,-912 299.9356,-912 307.252,-908.128 308.4493,-903.0292"/>
<polygon fill="#191970" stroke="#191970" points="311.6902,-901.7074 304.6872,-893.7571 305.2038,-904.3393 311.6902,-901.7074"/>
</g>
<!-- Node427302 -->
<g id="node4" class="node">
<title>Node427302</title>
<g id="a_node4"><a xlink:href="quickjs_8c.html#a853f0924d441ea4225488f37c8b69f9a" target="_top" xlink:title="__attribute__">
<polygon fill="none" stroke="#000000" points="404.5,-608.5 404.5,-627.5 477.5,-627.5 477.5,-608.5 404.5,-608.5"/>
<text text-anchor="middle" x="441" y="-615.5" font-family="Helvetica,sans-Serif" font-size="10.00" fill="#000000">__attribute__</text>
</a>
</g>
</g>
<!-- Node427301&#45;&gt;Node427302 -->
<g id="edge3" class="edge">
<title>Node427301&#45;&gt;Node427302</title>
<path fill="none" stroke="#191970" d="M288.2539,-874.4572C296.0055,-833.2793 328.4292,-671.3454 365,-637 373.0458,-629.4438 383.6282,-624.769 394.3304,-621.9081"/>
<polygon fill="#191970" stroke="#191970" points="395.1054,-625.3214 404.1233,-619.76 393.6056,-618.484 395.1054,-625.3214"/>
</g>
<!-- Node427303 -->
<g id="node5" class="node">
<title>Node427303</title>
<g id="a_node5"><a xlink:href="quickjs_8c.html#a877fcb7651d95b411ce70e62b7f4a1f0" target="_top" xlink:title="__JS_AtomFromUInt32">
<polygon fill="none" stroke="#000000" points="381.5,-950.5 381.5,-969.5 500.5,-969.5 500.5,-950.5 381.5,-950.5"/>
<text text-anchor="middle" x="441" y="-957.5" font-family="Helvetica,sans-Serif" font-size="10.00" fill="#000000">__JS_AtomFromUInt32</text>
</a>
</g>
</g>
<!-- Node427301&#45;&gt;Node427303 -->
<g id="edge4" class="edge">
<title>Node427301&#45;&gt;Node427303</title>
<path fill="none" stroke="#191970" d="M298.6344,-893.6083C313.5336,-905.0238 339.9216,-924.0256 365,-936 374.0838,-940.3373 384.1424,-944.1477 393.8881,-947.3803"/>
<polygon fill="#191970" stroke="#191970" points="392.8918,-950.736 403.4818,-950.4185 395.0052,-944.0627 392.8918,-950.736"/>
</g>
<!-- Node427476 -->
<g id="node6" class="node">
<title>Node427476</title>
<g id="a_node6"><a xlink:href="quickjs_8c.html#a0a8765bd4012467d9139bc24aabcb3ca" target="_top" xlink:title="JS_DefinePropertyValue">
<polygon fill="none" stroke="#ff0000" points="553,-656.5 553,-675.5 677,-675.5 677,-656.5 553,-656.5"/>
<text text-anchor="middle" x="615" y="-663.5" font-family="Helvetica,sans-Serif" font-size="10.00" fill="#000000">JS_DefinePropertyValue</text>
</a>
</g>
</g>
<!-- Node427301&#45;&gt;Node427476 -->
<g id="edge7" class="edge">
<title>Node427301&#45;&gt;Node427476</title>
<path fill="none" stroke="#191970" d="M316.5876,-874.4024C331.1564,-869.8574 348.9339,-864.461 365,-860 432.0962,-841.3697 467.0475,-870.5153 517,-822 559.3926,-780.8271 514.4619,-738.8014 553,-694 557.8715,-688.3367 564.1206,-683.7627 570.769,-680.0853"/>
<polygon fill="#191970" stroke="#191970" points="572.5234,-683.1244 579.9908,-675.6085 569.4663,-676.8272 572.5234,-683.1244"/>
</g>
<!-- Node427301&#45;&gt;Node427354 -->
<g id="edge10" class="edge">
<title>Node427301&#45;&gt;Node427354</title>
<path fill="none" stroke="#191970" d="M290.8607,-893.6404C300.6745,-913.9925 326.6743,-960.952 365,-979 426.1179,-1007.7811 450.0257,-987.8428 517,-979 590.0009,-969.3615 619.7802,-982.3456 677,-936 718.4246,-902.4479 739.2524,-840.0151 747.5408,-808.4069"/>
<polygon fill="#191970" stroke="#191970" points="750.9605,-809.1577 749.9627,-798.61 744.165,-807.4777 750.9605,-809.1577"/>
</g>
<!-- Node427333 -->
<g id="node8" class="node">
<title>Node427333</title>
<g id="a_node8"><a xlink:href="quickjs_8h.html#a775522f2d084fc8fa0fcb33f390006b4" target="_top" xlink:title="JS_DupValue">
<polygon fill="none" stroke="#000000" points="713.5,-399.5 713.5,-418.5 790.5,-418.5 790.5,-399.5 713.5,-399.5"/>
<text text-anchor="middle" x="752" y="-406.5" font-family="Helvetica,sans-Serif" font-size="10.00" fill="#000000">JS_DupValue</text>
</a>
</g>
</g>
<!-- Node427301&#45;&gt;Node427333 -->
<g id="edge9" class="edge">
<title>Node427301&#45;&gt;Node427333</title>
<path fill="none" stroke="#191970" d="M297.9753,-874.4643C317.9126,-857.9683 357.5406,-825.5221 365,-822 427.5112,-792.4837 467.2822,-837.0313 517,-789 563.8254,-743.7629 523.3779,-704.9788 553,-647 601.5003,-552.0713 693.9553,-461.6669 733.4091,-425.5331"/>
<polygon fill="#191970" stroke="#191970" points="735.9291,-427.9728 740.9888,-418.6642 731.2285,-422.7858 735.9291,-427.9728"/>
</g>
<!-- Node427301&#45;&gt;Node427365 -->
<g id="edge11" class="edge">
<title>Node427301&#45;&gt;Node427365</title>
<path fill="none" stroke="#191970" d="M294.9404,-874.1529C304.5432,-862.4606 320.0494,-842.0137 329,-822 356.461,-760.5969 317.5516,-722.677 365,-675 371.3432,-668.6262 379.4793,-664.2774 388.0592,-661.3327"/>
<polygon fill="#191970" stroke="#191970" points="389.1861,-664.6516 397.8627,-658.5716 387.2884,-657.9137 389.1861,-664.6516"/>
</g>
<!-- Node427366 -->
<g id="node10" class="node">
<title>Node427366</title>
<g id="a_node10"><a xlink:href="quickjs_8c.html#a5762c57ae0c9937e986040c01222833a" target="_top" xlink:title="JS_GetPropertyInternal">
<polygon fill="none" stroke="#ff0000" points="555.5,-760.5 555.5,-779.5 674.5,-779.5 674.5,-760.5 555.5,-760.5"/>
<text text-anchor="middle" x="615" y="-767.5" font-family="Helvetica,sans-Serif" font-size="10.00" fill="#000000">JS_GetPropertyInternal</text>
</a>
</g>
</g>
<!-- Node427301&#45;&gt;Node427366 -->
<g id="edge17" class="edge">
<title>Node427301&#45;&gt;Node427366</title>
<path fill="none" stroke="#191970" d="M328.066,-887.3036C375.8398,-889.4147 455.5569,-887.683 517,-860 553.096,-843.737 584.7848,-808.9113 601.7891,-787.6666"/>
<polygon fill="#191970" stroke="#191970" points="604.5758,-789.7847 607.9545,-779.743 599.0511,-785.486 604.5758,-789.7847"/>
</g>
<!-- Node427373 -->
<g id="node11" class="node">
<title>Node427373</title>
<g id="a_node11"><a xlink:href="quickjs_8h.html#a2050bc428da1c65ac7eb87c3fa3b0392" target="_top" xlink:title="JS_NewInt32">
<polygon fill="none" stroke="#000000" points="714,-741.5 714,-760.5 790,-760.5 790,-741.5 714,-741.5"/>
<text text-anchor="middle" x="752" y="-748.5" font-family="Helvetica,sans-Serif" font-size="10.00" fill="#000000">JS_NewInt32</text>
</a>
</g>
</g>
<!-- Node427301&#45;&gt;Node427373 -->
<g id="edge22" class="edge">
<title>Node427301&#45;&gt;Node427373</title>
<path fill="none" stroke="#191970" d="M328.1995,-891.7292C375.071,-898.8216 452.9852,-905.7827 517,-888 614.9699,-860.7848 623.6523,-818.5361 713,-770 716.0712,-768.3316 719.3106,-766.6438 722.5561,-764.9983"/>
<polygon fill="#191970" stroke="#191970" points="724.1784,-768.1006 731.5849,-760.5247 721.0706,-761.8283 724.1784,-768.1006"/>
</g>
<!-- Node427301&#45;&gt;Node427372 -->
<g id="edge18" class="edge">
<title>Node427301&#45;&gt;Node427372</title>
<path fill="none" stroke="#191970" d="M308.8618,-874.3839C315.8864,-870.6179 323.2904,-865.7943 329,-860 352.4522,-836.2001 339.2018,-815.2343 365,-794 371.8306,-788.3778 379.99,-784.0668 388.3883,-780.7629"/>
<polygon fill="#191970" stroke="#191970" points="389.6219,-784.0395 397.9137,-777.4443 387.3189,-777.4292 389.6219,-784.0395"/>
</g>
<!-- Node427301&#45;&gt;Node427422 -->
<g id="edge19" class="edge">
<title>Node427301&#45;&gt;Node427422</title>
<path fill="none" stroke="#191970" d="M287.0741,-893.6319C289.5882,-926.7971 302.5151,-1037.2789 365,-1093 374.9318,-1101.8567 388.3737,-1106.7188 401.1917,-1109.346"/>
<polygon fill="#191970" stroke="#191970" points="400.8222,-1112.8323 411.2587,-1111.0075 401.9621,-1105.9258 400.8222,-1112.8323"/>
</g>
<!-- Node427301&#45;&gt;Node427584 -->
<g id="edge20" class="edge">
<title>Node427301&#45;&gt;Node427584</title>
<path fill="none" stroke="#191970" d="M288.3069,-893.8895C294.0487,-922.4781 314.5577,-1005.9836 365,-1050 373.6206,-1057.5224 384.6012,-1062.6893 395.518,-1066.2374"/>
<polygon fill="#191970" stroke="#191970" points="394.8801,-1069.6947 405.456,-1069.062 396.7939,-1062.9613 394.8801,-1069.6947"/>
</g>
<!-- Node427571 -->
<g id="node15" class="node">
<title>Node427571</title>
<g id="a_node15"><a xlink:href="quickjs_8c.html#ad4ba09e4c7ab9f28c144182e1aacf1f6" target="_top" xlink:title="JS_NewArray">
<polygon fill="none" stroke="#ff0000" points="402.5,-722.5 402.5,-741.5 479.5,-741.5 479.5,-722.5 402.5,-722.5"/>
<text text-anchor="middle" x="441" y="-729.5" font-family="Helvetica,sans-Serif" font-size="10.00" fill="#000000">JS_NewArray</text>
</a>
</g>
</g>
<!-- Node427301&#45;&gt;Node427571 -->
<g id="edge21" class="edge">
<title>Node427301&#45;&gt;Node427571</title>
<path fill="none" stroke="#191970" d="M293.8364,-874.1714C302.6577,-862.1628 317.6874,-841.0841 329,-822 347.041,-791.5652 337.3399,-773.0607 365,-751 372.8949,-744.7033 382.6034,-740.4609 392.4095,-737.6107"/>
<polygon fill="#191970" stroke="#191970" points="393.3133,-740.9928 402.1844,-735.2002 391.6372,-734.1964 393.3133,-740.9928"/>
</g>
<!-- Node427610 -->
<g id="node16" class="node">
<title>Node427610</title>
<g id="a_node16"><a xlink:href="quickjs_8c.html#a884d294acbf5be675ffc760e38bd0521" target="_top" xlink:title="JS_NewObjectProto">
<polygon fill="none" stroke="#ff0000" points="388,-684.5 388,-703.5 494,-703.5 494,-684.5 388,-684.5"/>
<text text-anchor="middle" x="441" y="-691.5" font-family="Helvetica,sans-Serif" font-size="10.00" fill="#000000">JS_NewObjectProto</text>
</a>
</g>
</g>
<!-- Node427301&#45;&gt;Node427610 -->
<g id="edge23" class="edge">
<title>Node427301&#45;&gt;Node427610</title>
<path fill="none" stroke="#191970" d="M294.3322,-874.4406C303.6417,-862.6972 319.1519,-841.8794 329,-822 351.6475,-776.284 327.6145,-747.7159 365,-713 368.8868,-709.3907 373.3533,-706.4402 378.1325,-704.0314"/>
<polygon fill="#191970" stroke="#191970" points="379.7757,-707.1374 387.6386,-700.0363 377.0636,-700.6841 379.7757,-707.1374"/>
</g>
<!-- Node427476&#45;&gt;Node427354 -->
<g id="edge8" class="edge">
<title>Node427476&#45;&gt;Node427354</title>
<path fill="none" stroke="#191970" d="M647.2615,-675.5644C657.7202,-679.8864 668.7416,-685.8904 677,-694 703.6677,-720.1872 686.7167,-743.4269 713,-770 714.3903,-771.4056 715.9055,-772.7228 717.5055,-773.9548"/>
<polygon fill="#191970" stroke="#191970" points="715.718,-776.9664 726.0246,-779.4211 719.4983,-771.0749 715.718,-776.9664"/>
</g>
<!-- Node427365&#45;&gt;Node427366 -->
<g id="edge12" class="edge">
<title>Node427365&#45;&gt;Node427366</title>
<path fill="none" stroke="#191970" d="M484.099,-660.8415C495.5644,-663.6493 507.4128,-668.0651 517,-675 541.2773,-692.5611 531.6709,-710.9561 553,-732 562.4082,-741.2824 574.4899,-749.3277 585.4851,-755.5953"/>
<polygon fill="#191970" stroke="#191970" points="583.9254,-758.7311 594.3831,-760.4302 587.2675,-752.5804 583.9254,-758.7311"/>
</g>
<!-- Node427366&#45;&gt;Node427300 -->
<g id="edge13" class="edge">
<title>Node427366&#45;&gt;Node427300</title>
<path fill="none" stroke="#191970" d="M613.9798,-779.826C609.7774,-814.6161 590.3944,-932.3523 517,-979 406.3283,-1049.3403 243.9814,-941.7073 187.9093,-899.653"/>
<polygon fill="#191970" stroke="#191970" points="189.9207,-896.7852 179.8468,-893.5039 185.6756,-902.3512 189.9207,-896.7852"/>
</g>
<!-- Node427366&#45;&gt;Node427354 -->
<g id="edge15" class="edge">
<title>Node427366&#45;&gt;Node427354</title>
<path fill="none" stroke="#191970" d="M674.6917,-778.2784C684.0171,-779.5717 693.564,-780.8957 702.6255,-782.1524"/>
<polygon fill="#191970" stroke="#191970" points="702.2262,-785.6305 712.6122,-783.5375 703.1879,-778.6968 702.2262,-785.6305"/>
</g>
<!-- Node427366&#45;&gt;Node427333 -->
<g id="edge14" class="edge">
<title>Node427366&#45;&gt;Node427333</title>
<path fill="none" stroke="#191970" d="M639.8407,-760.3889C652.7742,-754.1619 667.7724,-744.8019 677,-732 712.8885,-682.2102 741.0244,-491.2774 749.4242,-428.8667"/>
<polygon fill="#191970" stroke="#191970" points="752.9179,-429.1447 750.7604,-418.7719 745.9784,-428.2261 752.9179,-429.1447"/>
</g>
<!-- Node427366&#45;&gt;Node427373 -->
<g id="edge16" class="edge">
<title>Node427366&#45;&gt;Node427373</title>
<path fill="none" stroke="#191970" d="M674.6917,-761.7216C684.4351,-760.3703 694.4203,-758.9855 703.841,-757.679"/>
<polygon fill="#191970" stroke="#191970" points="704.3794,-761.1379 713.8037,-756.2973 703.4177,-754.2043 704.3794,-761.1379"/>
</g>
<!-- Node427731&#45;&gt;Node427302 -->
<g id="edge32" class="edge">
<title>Node427731&#45;&gt;Node427302</title>
<path fill="none" stroke="#191970" d="M287.7454,-418.6745C292.1813,-449.1378 310.0047,-544.017 365,-594 373.31,-601.5526 383.9892,-606.7286 394.7002,-610.2758"/>
<polygon fill="#191970" stroke="#191970" points="393.9004,-613.6878 404.4787,-613.097 395.8408,-606.9621 393.9004,-613.6878"/>
</g>
<!-- Node427731&#45;&gt;Node427476 -->
<g id="edge33" class="edge">
<title>Node427731&#45;&gt;Node427476</title>
<path fill="none" stroke="#191970" d="M294.6153,-418.8042C307.8062,-434.1117 335.4167,-463.6274 365,-480 426.4268,-513.9962 459.9764,-482.0451 517,-523 562.4627,-555.6517 593.5912,-616.3321 607.2189,-647.0848"/>
<polygon fill="#191970" stroke="#191970" points="604.0058,-648.4729 611.165,-656.283 610.4388,-645.713 604.0058,-648.4729"/>
</g>
<!-- Node427731&#45;&gt;Node427354 -->
<g id="edge39" class="edge">
<title>Node427731&#45;&gt;Node427354</title>
<path fill="none" stroke="#191970" d="M308.5749,-418.532C324.1661,-425.0626 345.6458,-433.6567 365,-440 431.3812,-461.7563 456.8011,-444.5614 517,-480 605.5803,-532.1465 625.5372,-558.0208 677,-647 705.5177,-696.3071 676.2577,-726.4747 713,-770 714.002,-771.187 715.0957,-772.3061 716.2599,-773.3604"/>
<polygon fill="#191970" stroke="#191970" points="714.5666,-776.452 724.7388,-779.4144 718.6342,-770.7551 714.5666,-776.452"/>
</g>
<!-- Node427731&#45;&gt;Node427333 -->
<g id="edge37" class="edge">
<title>Node427731&#45;&gt;Node427333</title>
<path fill="none" stroke="#191970" d="M329.044,-409C415.5972,-409 611.7133,-409 703.2447,-409"/>
<polygon fill="#191970" stroke="#191970" points="703.3492,-412.5001 713.3492,-409 703.3491,-405.5001 703.3492,-412.5001"/>
</g>
<!-- Node427731&#45;&gt;Node427365 -->
<g id="edge41" class="edge">
<title>Node427731&#45;&gt;Node427365</title>
<path fill="none" stroke="#191970" d="M288.5309,-418.5993C297.0218,-457.8666 330.8271,-605.6656 365,-637 371.555,-643.0105 379.7199,-647.1901 388.2446,-650.082"/>
<polygon fill="#191970" stroke="#191970" points="387.3805,-653.4748 397.9556,-652.8289 389.2858,-646.7391 387.3805,-653.4748"/>
</g>
<!-- Node427731&#45;&gt;Node427373 -->
<g id="edge44" class="edge">
<title>Node427731&#45;&gt;Node427373</title>
<path fill="none" stroke="#191970" d="M329.2279,-412.2427C419.8881,-419.9869 627.2886,-442.5546 677,-490 712.6617,-524.0362 740.1085,-676.6341 748.9641,-731.3759"/>
<polygon fill="#191970" stroke="#191970" points="745.5455,-732.1653 750.5679,-741.4941 752.4591,-731.0694 745.5455,-732.1653"/>
</g>
<!-- Node427731&#45;&gt;Node427372 -->
<g id="edge42" class="edge">
<title>Node427731&#45;&gt;Node427372</title>
<path fill="none" stroke="#191970" d="M287.3666,-418.5996C292.0951,-468.8756 316.3706,-701.4202 365,-751 371.2967,-757.4197 379.4103,-761.7908 387.9824,-764.7432"/>
<polygon fill="#191970" stroke="#191970" points="387.2083,-768.1613 397.7829,-767.5073 389.1085,-761.4241 387.2083,-768.1613"/>
</g>
<!-- Node427731&#45;&gt;Node427571 -->
<g id="edge43" class="edge">
<title>Node427731&#45;&gt;Node427571</title>
<path fill="none" stroke="#191970" d="M287.6801,-418.7585C293.573,-465.9066 321.2778,-669.6142 365,-713 372.4623,-720.4049 382.3471,-725.0703 392.5111,-727.9755"/>
<polygon fill="#191970" stroke="#191970" points="391.7377,-731.389 402.2715,-730.2534 393.3287,-724.5722 391.7377,-731.389"/>
</g>
<!-- Node427731&#45;&gt;Node427610 -->
<g id="edge45" class="edge">
<title>Node427731&#45;&gt;Node427610</title>
<path fill="none" stroke="#191970" d="M288.0485,-418.6801C295.1673,-462.0129 326.0754,-637.6764 365,-675 368.9881,-678.824 373.6243,-681.9129 378.6025,-684.4035"/>
<polygon fill="#191970" stroke="#191970" points="377.2901,-687.6483 387.8666,-688.2703 379.9864,-681.1884 377.2901,-687.6483"/>
</g>
<!-- Node427732 -->
<g id="node19" class="node">
<title>Node427732</title>
<g id="a_node19"><a xlink:href="quickjs_8c.html#a841f4cb887e4d9e03e94a0697255e578" target="_top" xlink:title="JS_DefinePropertyValueStr">
<polygon fill="none" stroke="#ff0000" points="372.5,-532.5 372.5,-551.5 509.5,-551.5 509.5,-532.5 372.5,-532.5"/>
<text text-anchor="middle" x="441" y="-539.5" font-family="Helvetica,sans-Serif" font-size="10.00" fill="#000000">JS_DefinePropertyValueStr</text>
</a>
</g>
</g>
<!-- Node427731&#45;&gt;Node427732 -->
<g id="edge34" class="edge">
<title>Node427731&#45;&gt;Node427732</title>
<path fill="none" stroke="#191970" d="M290.8499,-418.7595C300.8214,-440.0226 327.3996,-490.7995 365,-518 370.9347,-522.2932 377.6648,-525.8372 384.6076,-528.7581"/>
<polygon fill="#191970" stroke="#191970" points="383.5605,-532.104 394.1521,-532.3669 386.0362,-525.5564 383.5605,-532.104"/>
</g>
<!-- Node427578 -->
<g id="node20" class="node">
<title>Node427578</title>
<g id="a_node20"><a xlink:href="quickjs_8c.html#a12aed667595f49667e0095f0a028e0d4" target="_top" xlink:title="JS_DefinePropertyValueUint32">
<polygon fill="none" stroke="#ff0000" points="365,-342.5 365,-361.5 517,-361.5 517,-342.5 365,-342.5"/>
<text text-anchor="middle" x="441" y="-349.5" font-family="Helvetica,sans-Serif" font-size="10.00" fill="#000000">JS_DefinePropertyValueUint32</text>
</a>
</g>
</g>
<!-- Node427731&#45;&gt;Node427578 -->
<g id="edge36" class="edge">
<title>Node427731&#45;&gt;Node427578</title>
<path fill="none" stroke="#191970" d="M307.945,-399.3549C323.606,-392.4664 345.4325,-383.1852 365,-376 375.8395,-372.0197 387.6883,-368.0841 398.7365,-364.5869"/>
<polygon fill="#191970" stroke="#191970" points="400.1008,-367.8277 408.6057,-361.5098 398.0172,-361.145 400.1008,-367.8277"/>
</g>
<!-- Node427319 -->
<g id="node21" class="node">
<title>Node427319</title>
<g id="a_node21"><a xlink:href="quickjs_8c.html#a80e54dcf9ac687d4ccc2f90273565f30" target="_top" xlink:title="js_free">
<polygon fill="none" stroke="#ff0000" points="418,-304.5 418,-323.5 464,-323.5 464,-304.5 418,-304.5"/>
<text text-anchor="middle" x="441" y="-311.5" font-family="Helvetica,sans-Serif" font-size="10.00" fill="#000000">js_free</text>
</a>
</g>
</g>
<!-- Node427731&#45;&gt;Node427319 -->
<g id="edge38" class="edge">
<title>Node427731&#45;&gt;Node427319</title>
<path fill="none" stroke="#191970" d="M293.575,-399.4277C306.1031,-383.188 333.8258,-350.319 365,-333 378.0742,-325.7366 393.9399,-321.2074 407.7864,-318.4036"/>
<polygon fill="#191970" stroke="#191970" points="408.6817,-321.7987 417.9016,-316.5792 407.4391,-314.9099 408.6817,-321.7987"/>
</g>
<!-- Node427733 -->
<g id="node22" class="node">
<title>Node427733</title>
<g id="a_node22"><a xlink:href="quickjs_8c.html#a82de8d310598980dd9ab473ce2c8dd1c" target="_top" xlink:title="js_get_regexp">
<polygon fill="none" stroke="#ff0000" points="402.5,-266.5 402.5,-285.5 479.5,-285.5 479.5,-266.5 402.5,-266.5"/>
<text text-anchor="middle" x="441" y="-273.5" font-family="Helvetica,sans-Serif" font-size="10.00" fill="#000000">js_get_regexp</text>
</a>
</g>
</g>
<!-- Node427731&#45;&gt;Node427733 -->
<g id="edge40" class="edge">
<title>Node427731&#45;&gt;Node427733</title>
<path fill="none" stroke="#191970" d="M290.3173,-399.2866C299.553,-377.1052 325.3105,-322.526 365,-295 373.1287,-289.3625 382.7733,-285.3947 392.4163,-282.6029"/>
<polygon fill="#191970" stroke="#191970" points="393.5531,-285.9263 402.4011,-280.0985 391.8501,-279.1366 393.5531,-285.9263"/>
</g>
<!-- Node427619 -->
<g id="node23" class="node">
<title>Node427619</title>
<g id="a_node23"><a xlink:href="quickjs_8h.html#af763b173e78debf2075670ca2c128a30" target="_top" xlink:title="JS_SetProperty">
<polygon fill="none" stroke="#ff0000" points="398,-228.5 398,-247.5 484,-247.5 484,-228.5 398,-228.5"/>
<text text-anchor="middle" x="441" y="-235.5" font-family="Helvetica,sans-Serif" font-size="10.00" fill="#000000">JS_SetProperty</text>
</a>
</g>
</g>
<!-- Node427731&#45;&gt;Node427619 -->
<g id="edge46" class="edge">
<title>Node427731&#45;&gt;Node427619</title>
<path fill="none" stroke="#191970" d="M288.5446,-399.4066C294.8062,-372.4564 316.3271,-295.5239 365,-257 371.7452,-251.6613 379.7967,-247.8008 388.0971,-245.014"/>
<polygon fill="#191970" stroke="#191970" points="389.2408,-248.3273 397.8922,-242.2115 387.3152,-241.5973 389.2408,-248.3273"/>
</g>
<!-- Node427735 -->
<g id="node24" class="node">
<title>Node427735</title>
<g id="a_node24"><a xlink:href="quickjs_8c.html#a011157b8ff30c8418be989eadf509c92" target="_top" xlink:title="js_sub_string">
<polygon fill="none" stroke="#ff0000" points="578,-266.5 578,-285.5 652,-285.5 652,-266.5 578,-266.5"/>
<text text-anchor="middle" x="615" y="-273.5" font-family="Helvetica,sans-Serif" font-size="10.00" fill="#000000">js_sub_string</text>
</a>
</g>
</g>
<!-- Node427731&#45;&gt;Node427735 -->
<g id="edge47" class="edge">
<title>Node427731&#45;&gt;Node427735</title>
<path fill="none" stroke="#191970" d="M286.9875,-399.2232C289.2004,-366.6788 301.2166,-261.6603 365,-219 421.1535,-181.4428 451.7745,-201.4108 517,-219 546.5298,-226.9633 576.3181,-246.2604 595.1711,-260.1983"/>
<polygon fill="#191970" stroke="#191970" points="593.1827,-263.0832 603.2611,-266.3507 597.4201,-257.5114 593.1827,-263.0832"/>
</g>
<!-- Node427736 -->
<g id="node25" class="node">
<title>Node427736</title>
<g id="a_node25"><a xlink:href="quickjs_8c.html#a07acd485a57197356906928a788a0644" target="_top" xlink:title="JS_ToLengthFree">
<polygon fill="none" stroke="#ff0000" points="568,-703.5 568,-722.5 662,-722.5 662,-703.5 568,-703.5"/>
<text text-anchor="middle" x="615" y="-710.5" font-family="Helvetica,sans-Serif" font-size="10.00" fill="#000000">JS_ToLengthFree</text>
</a>
</g>
</g>
<!-- Node427731&#45;&gt;Node427736 -->
<g id="edge49" class="edge">
<title>Node427731&#45;&gt;Node427736</title>
<path fill="none" stroke="#191970" d="M288.5446,-418.5934C294.8062,-445.5436 316.3271,-522.4761 365,-561 419.6016,-604.2164 464.1766,-553.6274 517,-599 548.4324,-625.9989 524.1097,-655.2966 553,-685 558.5584,-690.7149 565.4961,-695.3627 572.6992,-699.1088"/>
<polygon fill="#191970" stroke="#191970" points="571.3384,-702.336 581.8812,-703.3842 574.2931,-695.9901 571.3384,-702.336"/>
</g>
<!-- Node427393 -->
<g id="node26" class="node">
<title>Node427393</title>
<g id="a_node26"><a xlink:href="quickjs_8c.html#a7bcb8e1a20cbc8374a5f9ba4a2088cec" target="_top" xlink:title="JS_ToString">
<polygon fill="none" stroke="#ff0000" points="405.5,-152.5 405.5,-171.5 476.5,-171.5 476.5,-152.5 405.5,-152.5"/>
<text text-anchor="middle" x="441" y="-159.5" font-family="Helvetica,sans-Serif" font-size="10.00" fill="#000000">JS_ToString</text>
</a>
</g>
</g>
<!-- Node427731&#45;&gt;Node427393 -->
<g id="edge51" class="edge">
<title>Node427731&#45;&gt;Node427393</title>
<path fill="none" stroke="#191970" d="M286.9547,-399.3633C289.0971,-365.1038 301.0033,-247.9441 365,-186 373.3817,-177.8871 384.4851,-172.5149 395.6085,-168.958"/>
<polygon fill="#191970" stroke="#191970" points="396.6131,-172.3117 405.3209,-166.2763 394.7501,-165.5641 396.6131,-172.3117"/>
</g>
<!-- Node427739 -->
<g id="node27" class="node">
<title>Node427739</title>
<g id="a_node27"><a xlink:href="libregexp_8h.html#a55d8c60c9c812ae3e3e23e608b830ce3" target="_top" xlink:title="lre_exec">
<polygon fill="none" stroke="#ff0000" points="414.5,-114.5 414.5,-133.5 467.5,-133.5 467.5,-114.5 414.5,-114.5"/>
<text text-anchor="middle" x="441" y="-121.5" font-family="Helvetica,sans-Serif" font-size="10.00" fill="#000000">lre_exec</text>
</a>
</g>
</g>
<!-- Node427731&#45;&gt;Node427739 -->
<g id="edge52" class="edge">
<title>Node427731&#45;&gt;Node427739</title>
<path fill="none" stroke="#191970" d="M288.0485,-399.3199C295.1673,-355.9871 326.0754,-180.3236 365,-143 375.4043,-133.0237 390.22,-128.0512 404.0111,-125.6494"/>
<polygon fill="#191970" stroke="#191970" points="404.8218,-129.072 414.2676,-124.2734 403.891,-122.1342 404.8218,-129.072"/>
</g>
<!-- Node427747 -->
<g id="node28" class="node">
<title>Node427747</title>
<g id="a_node28"><a xlink:href="libregexp_8h.html#a901e8c0ab6941f09e79fc9d8a9494717" target="_top" xlink:title="lre_get_capture_count">
<polygon fill="none" stroke="#000000" points="384.5,-76.5 384.5,-95.5 497.5,-95.5 497.5,-76.5 384.5,-76.5"/>
<text text-anchor="middle" x="441" y="-83.5" font-family="Helvetica,sans-Serif" font-size="10.00" fill="#000000">lre_get_capture_count</text>
</a>
</g>
</g>
<!-- Node427731&#45;&gt;Node427747 -->
<g id="edge53" class="edge">
<title>Node427731&#45;&gt;Node427747</title>
<path fill="none" stroke="#191970" d="M287.6801,-399.2415C293.573,-352.0934 321.2778,-148.3858 365,-105 368.041,-101.9824 371.4844,-99.4197 375.185,-97.2457"/>
<polygon fill="#191970" stroke="#191970" points="376.7597,-100.3718 384.2183,-92.8472 373.6952,-94.0782 376.7597,-100.3718"/>
</g>
<!-- Node427748 -->
<g id="node29" class="node">
<title>Node427748</title>
<g id="a_node29"><a xlink:href="libregexp_8h.html#a3bf39330d9dde9c1c41f1a73504a7386" target="_top" xlink:title="lre_get_flags">
<polygon fill="none" stroke="#000000" points="579,-19.5 579,-38.5 651,-38.5 651,-19.5 579,-19.5"/>
<text text-anchor="middle" x="615" y="-26.5" font-family="Helvetica,sans-Serif" font-size="10.00" fill="#000000">lre_get_flags</text>
</a>
</g>
</g>
<!-- Node427731&#45;&gt;Node427748 -->
<g id="edge54" class="edge">
<title>Node427731&#45;&gt;Node427748</title>
<path fill="none" stroke="#191970" d="M287.2848,-399.3163C291.5966,-348.6119 314.0918,-114.237 365,-67 393.8079,-40.2696 504.5943,-32.3416 568.6066,-29.9906"/>
<polygon fill="#191970" stroke="#191970" points="568.9631,-33.4807 578.8402,-29.6476 568.7285,-26.4847 568.9631,-33.4807"/>
</g>
<!-- Node427749 -->
<g id="node30" class="node">
<title>Node427749</title>
<g id="a_node30"><a xlink:href="libregexp_8h.html#a1f0e5c1ad159240b0751415adb4faf47" target="_top" xlink:title="lre_get_groupnames">
<polygon fill="none" stroke="#ff0000" points="389,-.5 389,-19.5 493,-19.5 493,-.5 389,-.5"/>
<text text-anchor="middle" x="441" y="-7.5" font-family="Helvetica,sans-Serif" font-size="10.00" fill="#000000">lre_get_groupnames</text>
</a>
</g>
</g>
<!-- Node427731&#45;&gt;Node427749 -->
<g id="edge55" class="edge">
<title>Node427731&#45;&gt;Node427749</title>
<path fill="none" stroke="#191970" d="M287.2299,-399.2501C291.4048,-345.9805 313.8922,-90.4654 365,-34 369.1044,-29.4654 374.0572,-25.7812 379.4432,-22.7889"/>
<polygon fill="#191970" stroke="#191970" points="381.2767,-25.7948 388.843,-18.3785 378.3033,-19.4577 381.2767,-25.7948"/>
</g>
<!-- Node427732&#45;&gt;Node427476 -->
<g id="edge35" class="edge">
<title>Node427732&#45;&gt;Node427476</title>
<path fill="none" stroke="#191970" d="M484.0126,-551.5815C495.232,-555.1323 506.9775,-559.8457 517,-566 552.6839,-587.9118 584.719,-625.6153 601.8579,-647.9357"/>
<polygon fill="#191970" stroke="#191970" points="599.2618,-650.3074 608.0642,-656.2039 604.8601,-646.1051 599.2618,-650.3074"/>
</g>
<!-- Node427735&#45;&gt;Node427333 -->
<g id="edge48" class="edge">
<title>Node427735&#45;&gt;Node427333</title>
<path fill="none" stroke="#191970" d="M624.8527,-285.565C647.8458,-307.8868 705.3005,-363.664 734.4485,-391.961"/>
<polygon fill="#191970" stroke="#191970" points="732.2539,-394.7085 741.8669,-399.1628 737.1298,-389.686 732.2539,-394.7085"/>
</g>
<!-- Node427736&#45;&gt;Node427354 -->
<g id="edge50" class="edge">
<title>Node427736&#45;&gt;Node427354</title>
<path fill="none" stroke="#191970" d="M630.7533,-722.6439C649.949,-734.2826 683.4781,-754.2506 713,-770 716.0838,-771.6451 719.3311,-773.3182 722.5813,-774.9549"/>
<polygon fill="#191970" stroke="#191970" points="721.0997,-778.1268 731.6155,-779.4184 724.2004,-771.8509 721.0997,-778.1268"/>
</g>
<!-- Node427749&#45;&gt;Node427748 -->
<g id="edge56" class="edge">
<title>Node427749&#45;&gt;Node427748</title>
<path fill="none" stroke="#191970" d="M493.2057,-15.7006C517.2727,-18.3286 545.5928,-21.4211 568.865,-23.9623"/>
<polygon fill="#191970" stroke="#191970" points="568.514,-27.4447 578.8348,-25.0509 569.2739,-20.486 568.514,-27.4447"/>
</g>
</g>
</svg>
