<?xml version="1.0" encoding="UTF-8" standalone="no"?>
<!DOCTYPE svg PUBLIC "-//W3C//DTD SVG 1.1//EN"
 "http://www.w3.org/Graphics/SVG/1.1/DTD/svg11.dtd">
<!-- Generated by graphviz version 2.40.1 (20161225.0304)
 -->
<!-- Title: JS_NewCFunction Pages: 1 -->
<svg width="556pt" height="123pt"
 viewBox="0.00 0.00 556.00 123.00" xmlns="http://www.w3.org/2000/svg" xmlns:xlink="http://www.w3.org/1999/xlink">
<g id="graph0" class="graph" transform="scale(1 1) rotate(0) translate(4 119)">
<title>JS_NewCFunction</title>
<!-- Node87653 -->
<g id="node1" class="node">
<title>Node87653</title>
<polygon fill="#bfbfbf" stroke="#000000" points="0,-57.5 0,-76.5 99,-76.5 99,-57.5 0,-57.5"/>
<text text-anchor="middle" x="49.5" y="-64.5" font-family="Helvetica,sans-Serif" font-size="10.00" fill="#000000">JS_NewCFunction</text>
</g>
<!-- Node87654 -->
<g id="node2" class="node">
<title>Node87654</title>
<g id="a_node2"><a xlink:href="quickjs_8c.html#a4c9489297c684663f30e517204a9ec14" target="_top" xlink:title="JS_AddIntrinsicBaseObjects">
<polygon fill="none" stroke="#000000" points="135,-95.5 135,-114.5 277,-114.5 277,-95.5 135,-95.5"/>
<text text-anchor="middle" x="206" y="-102.5" font-family="Helvetica,sans-Serif" font-size="10.00" fill="#000000">JS_AddIntrinsicBaseObjects</text>
</a>
</g>
</g>
<!-- Node87653&#45;&gt;Node87654 -->
<g id="edge1" class="edge">
<title>Node87653&#45;&gt;Node87654</title>
<path fill="none" stroke="#191970" d="M98.7892,-78.968C120.7203,-84.2931 146.1849,-90.4762 166.7924,-95.4799"/>
<polygon fill="#191970" stroke="#191970" points="99.5351,-75.5475 88.9916,-76.589 97.8833,-82.3498 99.5351,-75.5475"/>
</g>
<!-- Node87659 -->
<g id="node5" class="node">
<title>Node87659</title>
<g id="a_node5"><a xlink:href="quickjs_8c.html#a177d09828596bfe6df4bd90b2e93989d" target="_top" xlink:title="JS_AddIntrinsicTypedArrays">
<polygon fill="none" stroke="#000000" points="135.5,-57.5 135.5,-76.5 276.5,-76.5 276.5,-57.5 135.5,-57.5"/>
<text text-anchor="middle" x="206" y="-64.5" font-family="Helvetica,sans-Serif" font-size="10.00" fill="#000000">JS_AddIntrinsicTypedArrays</text>
</a>
</g>
</g>
<!-- Node87653&#45;&gt;Node87659 -->
<g id="edge4" class="edge">
<title>Node87653&#45;&gt;Node87659</title>
<path fill="none" stroke="#191970" d="M109.249,-67C117.7878,-67 126.6385,-67 135.3618,-67"/>
<polygon fill="#191970" stroke="#191970" points="109.0176,-63.5001 99.0176,-67 109.0175,-70.5001 109.0176,-63.5001"/>
</g>
<!-- Node87660 -->
<g id="node6" class="node">
<title>Node87660</title>
<g id="a_node6"><a xlink:href="quickjs-libc_8c.html#ad04466feec6822a3b838baf229f6dfa0" target="_top" xlink:title="js_std_add_helpers">
<polygon fill="none" stroke="#000000" points="155.5,-19.5 155.5,-38.5 256.5,-38.5 256.5,-19.5 155.5,-19.5"/>
<text text-anchor="middle" x="206" y="-26.5" font-family="Helvetica,sans-Serif" font-size="10.00" fill="#000000">js_std_add_helpers</text>
</a>
</g>
</g>
<!-- Node87653&#45;&gt;Node87660 -->
<g id="edge6" class="edge">
<title>Node87653&#45;&gt;Node87660</title>
<path fill="none" stroke="#191970" d="M98.7892,-55.032C120.7203,-49.7069 146.1849,-43.5238 166.7924,-38.5201"/>
<polygon fill="#191970" stroke="#191970" points="97.8833,-51.6502 88.9916,-57.411 99.5351,-58.4525 97.8833,-51.6502"/>
</g>
<!-- Node87655 -->
<g id="node3" class="node">
<title>Node87655</title>
<g id="a_node3"><a xlink:href="quickjs_8c.html#ad8aedb643b8753b7a15f6cb2df61945e" target="_top" xlink:title="JS_NewContext">
<polygon fill="none" stroke="#000000" points="313,-85.5 313,-104.5 402,-104.5 402,-85.5 313,-85.5"/>
<text text-anchor="middle" x="357.5" y="-92.5" font-family="Helvetica,sans-Serif" font-size="10.00" fill="#000000">JS_NewContext</text>
</a>
</g>
</g>
<!-- Node87654&#45;&gt;Node87655 -->
<g id="edge2" class="edge">
<title>Node87654&#45;&gt;Node87655</title>
<path fill="none" stroke="#191970" d="M287.5534,-99.6169C296.2595,-99.0423 304.8628,-98.4744 312.8995,-97.9439"/>
<polygon fill="#191970" stroke="#191970" points="287.0615,-96.1417 277.3138,-100.2928 287.5226,-103.1265 287.0615,-96.1417"/>
</g>
<!-- Node87656 -->
<g id="node4" class="node">
<title>Node87656</title>
<g id="a_node4"><a xlink:href="classqjs_1_1Context.html#a4392a23648acfc4bf6b445336efb5007" target="_top" xlink:title="qjs::Context::Context">
<polygon fill="none" stroke="#ff0000" points="438,-85.5 438,-104.5 548,-104.5 548,-85.5 438,-85.5"/>
<text text-anchor="middle" x="493" y="-92.5" font-family="Helvetica,sans-Serif" font-size="10.00" fill="#000000">qjs::Context::Context</text>
</a>
</g>
</g>
<!-- Node87655&#45;&gt;Node87656 -->
<g id="edge3" class="edge">
<title>Node87655&#45;&gt;Node87656</title>
<path fill="none" stroke="#191970" d="M412.3476,-95C420.7739,-95 429.4767,-95 437.9083,-95"/>
<polygon fill="#191970" stroke="#191970" points="412.2433,-91.5001 402.2433,-95 412.2433,-98.5001 412.2433,-91.5001"/>
</g>
<!-- Node87659&#45;&gt;Node87655 -->
<g id="edge5" class="edge">
<title>Node87659&#45;&gt;Node87655</title>
<path fill="none" stroke="#191970" d="M267.9222,-78.4444C282.8826,-81.2093 298.5879,-84.112 312.596,-86.7009"/>
<polygon fill="#191970" stroke="#191970" points="268.1836,-74.9335 257.714,-76.5577 266.9113,-81.8169 268.1836,-74.9335"/>
</g>
<!-- Node87658 -->
<g id="node7" class="node">
<title>Node87658</title>
<g id="a_node7"><a xlink:href="qjs_8cpp.html#a3c04138a5bfe5d72780bb7e82a18e627" target="_top" xlink:title="main">
<polygon fill="none" stroke="#000000" points="338.5,-38.5 338.5,-57.5 376.5,-57.5 376.5,-38.5 338.5,-38.5"/>
<text text-anchor="middle" x="357.5" y="-45.5" font-family="Helvetica,sans-Serif" font-size="10.00" fill="#000000">main</text>
</a>
</g>
</g>
<!-- Node87660&#45;&gt;Node87658 -->
<g id="edge7" class="edge">
<title>Node87660&#45;&gt;Node87658</title>
<path fill="none" stroke="#191970" d="M266.9026,-36.6379C292.4829,-39.846 320.4144,-43.349 338.4024,-45.6049"/>
<polygon fill="#191970" stroke="#191970" points="267.2266,-33.1512 256.8688,-35.3796 266.3555,-40.0968 267.2266,-33.1512"/>
</g>
<!-- Node87661 -->
<g id="node8" class="node">
<title>Node87661</title>
<g id="a_node8"><a xlink:href="quickjs-libc_8c.html#a1fbb3adc15e7b967479fc1940e99b67a" target="_top" xlink:title="worker_func">
<polygon fill="none" stroke="#000000" points="322.5,-.5 322.5,-19.5 392.5,-19.5 392.5,-.5 322.5,-.5"/>
<text text-anchor="middle" x="357.5" y="-7.5" font-family="Helvetica,sans-Serif" font-size="10.00" fill="#000000">worker_func</text>
</a>
</g>
</g>
<!-- Node87660&#45;&gt;Node87661 -->
<g id="edge8" class="edge">
<title>Node87660&#45;&gt;Node87661</title>
<path fill="none" stroke="#191970" d="M266.8713,-21.366C285.7055,-19.0039 305.8172,-16.4817 322.298,-14.4148"/>
<polygon fill="#191970" stroke="#191970" points="266.3555,-17.9032 256.8688,-22.6204 267.2266,-24.8488 266.3555,-17.9032"/>
</g>
<!-- Node87662 -->
<g id="node9" class="node">
<title>Node87662</title>
<g id="a_node9"><a xlink:href="quickjs-libc_8c.html#aff1e6131e8bf8b7eb25307623ad669e7" target="_top" xlink:title="js_worker_ctor">
<polygon fill="none" stroke="#ff0000" points="453,-.5 453,-19.5 533,-19.5 533,-.5 453,-.5"/>
<text text-anchor="middle" x="493" y="-7.5" font-family="Helvetica,sans-Serif" font-size="10.00" fill="#000000">js_worker_ctor</text>
</a>
</g>
</g>
<!-- Node87661&#45;&gt;Node87662 -->
<g id="edge9" class="edge">
<title>Node87661&#45;&gt;Node87662</title>
<path fill="none" stroke="#191970" d="M402.9979,-10C419.0762,-10 437.0354,-10 452.6566,-10"/>
<polygon fill="#191970" stroke="#191970" points="402.7473,-6.5001 392.7473,-10 402.7473,-13.5001 402.7473,-6.5001"/>
</g>
</g>
</svg>
