<?xml version="1.0" encoding="UTF-8" standalone="no"?>
<!DOCTYPE svg PUBLIC "-//W3C//DTD SVG 1.1//EN"
 "http://www.w3.org/Graphics/SVG/1.1/DTD/svg11.dtd">
<!-- Generated by graphviz version 2.40.1 (20161225.0304)
 -->
<!-- Title: js_append_enumerate Pages: 1 -->
<!--zoomable 1028 -->
<svg id="main" version="1.1" xmlns="http://www.w3.org/2000/svg" xmlns:xlink="http://www.w3.org/1999/xlink" xml:space="preserve" onload="init(evt)">
<style type="text/css"><![CDATA[
.edge:hover path { stroke: red; }
.edge:hover polygon { stroke: red; fill: red; }
]]></style>
<script type="text/javascript"><![CDATA[
var edges = document.getElementsByTagName('g');
if (edges && edges.length) {
  for (var i=0;i<edges.length;i++) {
    if (edges[i].id.substr(0,4)=='edge') {
      edges[i].setAttribute('class','edge');
    }
  }
}
]]></script>
        <defs>
                <circle id="rim" cx="0" cy="0" r="7"/>
                <circle id="rim2" cx="0" cy="0" r="3.5"/>
                <g id="zoomPlus">
                        <use xlink:href="#rim" fill="#404040">
                                <set attributeName="fill" to="#808080" begin="zoomplus.mouseover" end="zoomplus.mouseout"/>
                        </use>
                        <path d="M-4,0h8M0,-4v8" fill="none" stroke="white" stroke-width="1.5" pointer-events="none"/>
                </g>
                <g id="zoomMin">
                        <use xlink:href="#rim" fill="#404040">
                                <set attributeName="fill" to="#808080" begin="zoomminus.mouseover" end="zoomminus.mouseout"/>
                        </use>
                        <path d="M-4,0h8" fill="none" stroke="white" stroke-width="1.5" pointer-events="none"/>
                </g>
                <g id="dirArrow">
                        <path fill="none" stroke="white" stroke-width="1.5" d="M0,-3.0v7 M-2.5,-0.5L0,-3.0L2.5,-0.5"/>
                </g>
               <g id="resetDef">
                       <use xlink:href="#rim2" fill="#404040">
                               <set attributeName="fill" to="#808080" begin="reset.mouseover" end="reset.mouseout"/>
                       </use>
               </g>
        </defs>

<script type="text/javascript">
var viewWidth = 787;
var viewHeight = 1028;
var sectionId = 'dynsection-832';
</script>
<script xlink:href="svgpan.js"/>
<svg id="graph" class="graph">
<g id="viewport">
<title>js_append_enumerate</title>
<!-- Node289681 -->
<g id="node1" class="node">
<title>Node289681</title>
<polygon fill="#bfbfbf" stroke="#000000" points="0,-608.5 0,-627.5 112,-627.5 112,-608.5 0,-608.5"/>
<text text-anchor="middle" x="56" y="-615.5" font-family="Helvetica,sans-Serif" font-size="10.00" fill="#000000">js_append_enumerate</text>
</g>
<!-- Node289682 -->
<g id="node2" class="node">
<title>Node289682</title>
<g id="a_node2"><a xlink:href="quickjs_8c.html#a853f0924d441ea4225488f37c8b69f9a" target="_top" xlink:title="__attribute__">
<polygon fill="none" stroke="#000000" points="187.5,-1000.5 187.5,-1019.5 260.5,-1019.5 260.5,-1000.5 187.5,-1000.5"/>
<text text-anchor="middle" x="224" y="-1007.5" font-family="Helvetica,sans-Serif" font-size="10.00" fill="#000000">__attribute__</text>
</a>
</g>
</g>
<!-- Node289681&#45;&gt;Node289682 -->
<g id="edge1" class="edge">
<title>Node289681&#45;&gt;Node289682</title>
<path fill="none" stroke="#191970" d="M57.13,-627.5844C63.4836,-679.9474 96.3292,-931.0826 148,-986 155.9201,-994.4178 166.7632,-999.8974 177.7785,-1003.4601"/>
<polygon fill="#191970" stroke="#191970" points="176.8632,-1006.8383 187.4339,-1006.1232 178.7244,-1000.0902 176.8632,-1006.8383"/>
</g>
<!-- Node289683 -->
<g id="node3" class="node">
<title>Node289683</title>
<g id="a_node3"><a xlink:href="quickjs_8c.html#a4398c126700f887a947501bf25910f75" target="_top" xlink:title="js_array_iterator_next">
<polygon fill="none" stroke="#000000" points="169,-684.5 169,-703.5 279,-703.5 279,-684.5 169,-684.5"/>
<text text-anchor="middle" x="224" y="-691.5" font-family="Helvetica,sans-Serif" font-size="10.00" fill="#000000">js_array_iterator_next</text>
</a>
</g>
</g>
<!-- Node289681&#45;&gt;Node289683 -->
<g id="edge2" class="edge">
<title>Node289681&#45;&gt;Node289683</title>
<path fill="none" stroke="#191970" d="M70.8022,-627.6511C88.5792,-638.9343 119.5654,-657.6358 148,-670 157.7121,-674.2231 168.4103,-678.0663 178.6368,-681.3792"/>
<polygon fill="#191970" stroke="#191970" points="177.6606,-684.741 188.2495,-684.3882 179.7517,-678.0607 177.6606,-684.741"/>
</g>
<!-- Node289760 -->
<g id="node6" class="node">
<title>Node289760</title>
<g id="a_node6"><a xlink:href="quickjs_8h.html#ad80a83d73e9b7d872b88fbf2943aebe9" target="_top" xlink:title="JS_IsException">
<polygon fill="none" stroke="#000000" points="549.5,-646.5 549.5,-665.5 635.5,-665.5 635.5,-646.5 549.5,-646.5"/>
<text text-anchor="middle" x="592.5" y="-653.5" font-family="Helvetica,sans-Serif" font-size="10.00" fill="#000000">JS_IsException</text>
</a>
</g>
</g>
<!-- Node289681&#45;&gt;Node289760 -->
<g id="edge46" class="edge">
<title>Node289681&#45;&gt;Node289760</title>
<path fill="none" stroke="#191970" d="M112.3281,-627.4564C124.0888,-629.182 136.4286,-630.81 148,-632 288.9561,-646.4957 456.017,-652.5385 539.4825,-654.8008"/>
<polygon fill="#191970" stroke="#191970" points="539.3933,-658.2995 549.4821,-655.0645 539.5778,-651.302 539.3933,-658.2995"/>
</g>
<!-- Node289716 -->
<g id="node8" class="node">
<title>Node289716</title>
<g id="a_node8"><a xlink:href="quickjs_8h.html#a775522f2d084fc8fa0fcb33f390006b4" target="_top" xlink:title="JS_DupValue">
<polygon fill="none" stroke="#000000" points="554,-266.5 554,-285.5 631,-285.5 631,-266.5 554,-266.5"/>
<text text-anchor="middle" x="592.5" y="-273.5" font-family="Helvetica,sans-Serif" font-size="10.00" fill="#000000">JS_DupValue</text>
</a>
</g>
</g>
<!-- Node289681&#45;&gt;Node289716 -->
<g id="edge35" class="edge">
<title>Node289681&#45;&gt;Node289716</title>
<path fill="none" stroke="#191970" d="M56.5913,-608.2681C59.3682,-571.3905 74.3007,-438.9067 148,-371 259.2286,-268.5137 453.0586,-266.2365 543.4609,-271.5653"/>
<polygon fill="#191970" stroke="#191970" points="543.4958,-275.0748 553.7011,-272.2283 543.9481,-268.0894 543.4958,-275.0748"/>
</g>
<!-- Node289736 -->
<g id="node9" class="node">
<title>Node289736</title>
<g id="a_node9"><a xlink:href="quickjs_8h.html#afaa20c47565bc704c6c85f3d77254e7d" target="_top" xlink:title="JS_FreeValue">
<polygon fill="none" stroke="#ff0000" points="553.5,-570.5 553.5,-589.5 631.5,-589.5 631.5,-570.5 553.5,-570.5"/>
<text text-anchor="middle" x="592.5" y="-577.5" font-family="Helvetica,sans-Serif" font-size="10.00" fill="#000000">JS_FreeValue</text>
</a>
</g>
</g>
<!-- Node289681&#45;&gt;Node289736 -->
<g id="edge36" class="edge">
<title>Node289681&#45;&gt;Node289736</title>
<path fill="none" stroke="#191970" d="M98.4032,-608.4162C153.0015,-596.6117 250.9833,-577.2344 336,-570 400.6552,-564.4983 417.1772,-567.0728 482,-570 502.1444,-570.9097 524.2917,-572.7476 543.4351,-574.6024"/>
<polygon fill="#191970" stroke="#191970" points="543.1388,-578.0902 553.4365,-575.5989 543.8328,-571.1246 543.1388,-578.0902"/>
</g>
<!-- Node289823 -->
<g id="node10" class="node">
<title>Node289823</title>
<g id="a_node10"><a xlink:href="quickjs_8c.html#a718e904644ebc55548a5bdbd44f3adb9" target="_top" xlink:title="js_get_length32">
<polygon fill="none" stroke="#ff0000" points="366.5,-924.5 366.5,-943.5 451.5,-943.5 451.5,-924.5 366.5,-924.5"/>
<text text-anchor="middle" x="409" y="-931.5" font-family="Helvetica,sans-Serif" font-size="10.00" fill="#000000">js_get_length32</text>
</a>
</g>
</g>
<!-- Node289681&#45;&gt;Node289823 -->
<g id="edge38" class="edge">
<title>Node289681&#45;&gt;Node289823</title>
<path fill="none" stroke="#191970" d="M57.8124,-627.5071C64.3311,-659.3356 89.3763,-763.5438 148,-824 204.8342,-882.6108 297.732,-911.4656 356.0084,-924.5081"/>
<polygon fill="#191970" stroke="#191970" points="355.6024,-928.001 366.1157,-926.6894 357.0791,-921.1585 355.6024,-928.001"/>
</g>
<!-- Node289824 -->
<g id="node11" class="node">
<title>Node289824</title>
<g id="a_node11"><a xlink:href="quickjs_8h.html#a89b7c8686c7eee70b86be722ee4730ad" target="_top" xlink:title="JS_GetProperty">
<polygon fill="none" stroke="#ff0000" points="549.5,-886.5 549.5,-905.5 635.5,-905.5 635.5,-886.5 549.5,-886.5"/>
<text text-anchor="middle" x="592.5" y="-893.5" font-family="Helvetica,sans-Serif" font-size="10.00" fill="#000000">JS_GetProperty</text>
</a>
</g>
</g>
<!-- Node289681&#45;&gt;Node289824 -->
<g id="edge44" class="edge">
<title>Node289681&#45;&gt;Node289824</title>
<path fill="none" stroke="#191970" d="M56.5704,-627.565C59.3107,-665.072 74.2401,-803.7891 148,-880 253.6738,-989.1853 334.3388,-988.8408 482,-953 515.0386,-944.9808 549.25,-925.2537 570.6855,-911.2603"/>
<polygon fill="#191970" stroke="#191970" points="572.6838,-914.1345 579.0493,-905.665 568.7915,-908.3163 572.6838,-914.1345"/>
</g>
<!-- Node289744 -->
<g id="node14" class="node">
<title>Node289744</title>
<g id="a_node14"><a xlink:href="quickjs_8h.html#a2050bc428da1c65ac7eb87c3fa3b0392" target="_top" xlink:title="JS_NewInt32">
<polygon fill="none" stroke="#000000" points="703,-228.5 703,-247.5 779,-247.5 779,-228.5 703,-228.5"/>
<text text-anchor="middle" x="741" y="-235.5" font-family="Helvetica,sans-Serif" font-size="10.00" fill="#000000">JS_NewInt32</text>
</a>
</g>
</g>
<!-- Node289681&#45;&gt;Node289744 -->
<g id="edge56" class="edge">
<title>Node289681&#45;&gt;Node289744</title>
<path fill="none" stroke="#191970" d="M57.2166,-608.1835C64.1639,-553.3544 100.1949,-285.0982 148,-219 205.2656,-139.8212 241.8898,-131.3043 336,-105 478.6115,-65.1393 541.2119,-64.8702 667,-143 697.1854,-161.7488 719.9086,-197.479 731.7723,-219.3766"/>
<polygon fill="#191970" stroke="#191970" points="728.7239,-221.1005 736.4469,-228.3536 734.9326,-217.8675 728.7239,-221.1005"/>
</g>
<!-- Node290108 -->
<g id="node18" class="node">
<title>Node290108</title>
<g id="a_node18"><a xlink:href="quickjs_8c.html#a4e9176ba046f72bfa8c511cbe58242e8" target="_top" xlink:title="js_create_array_iterator">
<polygon fill="none" stroke="#000000" points="164.5,-228.5 164.5,-247.5 283.5,-247.5 283.5,-228.5 164.5,-228.5"/>
<text text-anchor="middle" x="224" y="-235.5" font-family="Helvetica,sans-Serif" font-size="10.00" fill="#000000">js_create_array_iterator</text>
</a>
</g>
</g>
<!-- Node289681&#45;&gt;Node290108 -->
<g id="edge21" class="edge">
<title>Node289681&#45;&gt;Node290108</title>
<path fill="none" stroke="#191970" d="M57.2194,-608.3904C63.9216,-556.993 97.813,-314.9192 148,-262 151.6553,-258.1457 155.9235,-254.9076 160.5385,-252.1877"/>
<polygon fill="#191970" stroke="#191970" points="162.393,-255.1736 169.7709,-247.5699 159.2616,-248.913 162.393,-255.1736"/>
</g>
<!-- Node289911 -->
<g id="node24" class="node">
<title>Node289911</title>
<g id="a_node24"><a xlink:href="quickjs_8c.html#a12aed667595f49667e0095f0a028e0d4" target="_top" xlink:title="JS_DefinePropertyValueUint32">
<polygon fill="none" stroke="#ff0000" points="148,-380.5 148,-399.5 300,-399.5 300,-380.5 148,-380.5"/>
<text text-anchor="middle" x="224" y="-387.5" font-family="Helvetica,sans-Serif" font-size="10.00" fill="#000000">JS_DefinePropertyValueUint32</text>
</a>
</g>
</g>
<!-- Node289681&#45;&gt;Node289911 -->
<g id="edge33" class="edge">
<title>Node289681&#45;&gt;Node289911</title>
<path fill="none" stroke="#191970" d="M62.8373,-608.3021C77.9923,-586.8479 115.6284,-533.7944 148,-490 169.4689,-460.9554 194.9715,-427.6334 210.301,-407.7274"/>
<polygon fill="#191970" stroke="#191970" points="213.242,-409.6452 216.5774,-399.589 207.6989,-405.3703 213.242,-409.6452"/>
</g>
<!-- Node290110 -->
<g id="node25" class="node">
<title>Node290110</title>
<g id="a_node25"><a xlink:href="quickjs_8c.html#a4e7bf9ce9c03f0cac9529a14161183e0" target="_top" xlink:title="js_get_fast_array">
<polygon fill="none" stroke="#000000" points="178,-38.5 178,-57.5 270,-57.5 270,-38.5 178,-38.5"/>
<text text-anchor="middle" x="224" y="-45.5" font-family="Helvetica,sans-Serif" font-size="10.00" fill="#000000">js_get_fast_array</text>
</a>
</g>
</g>
<!-- Node289681&#45;&gt;Node290110 -->
<g id="edge37" class="edge">
<title>Node289681&#45;&gt;Node290110</title>
<path fill="none" stroke="#191970" d="M56.2861,-608.4761C58.446,-542.7734 74.1845,-156.8569 148,-72 153.4878,-65.6914 160.6195,-61.0238 168.3134,-57.574"/>
<polygon fill="#191970" stroke="#191970" points="169.7921,-60.7566 177.9042,-53.9416 167.3128,-54.2104 169.7921,-60.7566"/>
</g>
<!-- Node290053 -->
<g id="node26" class="node">
<title>Node290053</title>
<g id="a_node26"><a xlink:href="quickjs_8c.html#a5ec5d4521881c24fd8de4e8a4f602fba" target="_top" xlink:title="JS_GetIterator">
<polygon fill="none" stroke="#ff0000" points="369,-810.5 369,-829.5 449,-829.5 449,-810.5 369,-810.5"/>
<text text-anchor="middle" x="409" y="-817.5" font-family="Helvetica,sans-Serif" font-size="10.00" fill="#000000">JS_GetIterator</text>
</a>
</g>
</g>
<!-- Node289681&#45;&gt;Node290053 -->
<g id="edge39" class="edge">
<title>Node289681&#45;&gt;Node290053</title>
<path fill="none" stroke="#191970" d="M63.4084,-627.7675C77.9266,-646.3779 111.8697,-687.3462 148,-713 223.07,-766.3023 249.5263,-768.394 336,-800 343.6338,-802.7901 351.8401,-805.3995 359.8967,-807.7526"/>
<polygon fill="#191970" stroke="#191970" points="359.0265,-811.1437 369.6012,-810.4907 360.9274,-804.4067 359.0265,-811.1437"/>
</g>
<!-- Node290111 -->
<g id="node27" class="node">
<title>Node290111</title>
<g id="a_node27"><a xlink:href="quickjs_8c.html#ac9b42f78cab1ed108c007cb019a33692" target="_top" xlink:title="JS_IsCFunction">
<polygon fill="none" stroke="#000000" points="180.5,-.5 180.5,-19.5 267.5,-19.5 267.5,-.5 180.5,-.5"/>
<text text-anchor="middle" x="224" y="-7.5" font-family="Helvetica,sans-Serif" font-size="10.00" fill="#000000">JS_IsCFunction</text>
</a>
</g>
</g>
<!-- Node289681&#45;&gt;Node290111 -->
<g id="edge45" class="edge">
<title>Node289681&#45;&gt;Node290111</title>
<path fill="none" stroke="#191970" d="M56.1056,-608.1301C57.0545,-538.2678 66.141,-118.582 148,-29 154.0659,-22.3618 162.068,-17.8851 170.6016,-14.8963"/>
<polygon fill="#191970" stroke="#191970" points="171.7233,-18.2162 180.3871,-12.118 169.8114,-11.4823 171.7233,-18.2162"/>
</g>
<!-- Node290070 -->
<g id="node28" class="node">
<title>Node290070</title>
<g id="a_node28"><a xlink:href="quickjs_8c.html#abb88b24dc63d82fcc312bba0cf93c3d7" target="_top" xlink:title="JS_IteratorClose">
<polygon fill="none" stroke="#ff0000" points="364,-886.5 364,-905.5 454,-905.5 454,-886.5 364,-886.5"/>
<text text-anchor="middle" x="409" y="-893.5" font-family="Helvetica,sans-Serif" font-size="10.00" fill="#000000">JS_IteratorClose</text>
</a>
</g>
</g>
<!-- Node289681&#45;&gt;Node290070 -->
<g id="edge47" class="edge">
<title>Node289681&#45;&gt;Node290070</title>
<path fill="none" stroke="#191970" d="M60.0231,-627.6829C70.902,-652.9073 103.1335,-721.6205 148,-764 212.945,-825.3451 311.8972,-864.7168 367.439,-883.3433"/>
<polygon fill="#191970" stroke="#191970" points="366.3642,-886.6742 376.9571,-886.4743 368.5516,-880.0247 366.3642,-886.6742"/>
</g>
<!-- Node290050 -->
<g id="node29" class="node">
<title>Node290050</title>
<g id="a_node29"><a xlink:href="quickjs_8c.html#a44f6eee98516c994a594533cfa8618ed" target="_top" xlink:title="JS_IteratorNext">
<polygon fill="none" stroke="#ff0000" points="366,-608.5 366,-627.5 452,-627.5 452,-608.5 366,-608.5"/>
<text text-anchor="middle" x="409" y="-615.5" font-family="Helvetica,sans-Serif" font-size="10.00" fill="#000000">JS_IteratorNext</text>
</a>
</g>
</g>
<!-- Node289681&#45;&gt;Node290050 -->
<g id="edge52" class="edge">
<title>Node289681&#45;&gt;Node290050</title>
<path fill="none" stroke="#191970" d="M112.3242,-618C179.3022,-618 290.2502,-618 355.8166,-618"/>
<polygon fill="#191970" stroke="#191970" points="355.9364,-621.5001 365.9363,-618 355.9363,-614.5001 355.9364,-621.5001"/>
</g>
<!-- Node289684 -->
<g id="node4" class="node">
<title>Node289684</title>
<g id="a_node4"><a xlink:href="quickjs_8c.html#a339d687d765143d3f8ea0ea89fa47b0f" target="_top" xlink:title="js_create_array">
<polygon fill="none" stroke="#000000" points="367.5,-418.5 367.5,-437.5 450.5,-437.5 450.5,-418.5 367.5,-418.5"/>
<text text-anchor="middle" x="409" y="-425.5" font-family="Helvetica,sans-Serif" font-size="10.00" fill="#000000">js_create_array</text>
</a>
</g>
</g>
<!-- Node289683&#45;&gt;Node289684 -->
<g id="edge3" class="edge">
<title>Node289683&#45;&gt;Node289684</title>
<path fill="none" stroke="#191970" d="M230.8037,-684.2175C258.1741,-644.8632 360.4889,-497.7512 396.425,-446.0808"/>
<polygon fill="#191970" stroke="#191970" points="399.4932,-447.7991 402.3296,-437.591 393.7464,-443.8023 399.4932,-447.7991"/>
</g>
<!-- Node289683&#45;&gt;Node289760 -->
<g id="edge16" class="edge">
<title>Node289683&#45;&gt;Node289760</title>
<path fill="none" stroke="#191970" d="M279.1636,-689.4033C331.4388,-684.9208 412.131,-677.6737 482,-670 500.6455,-667.9522 521.0261,-665.4462 539.1497,-663.1233"/>
<polygon fill="#191970" stroke="#191970" points="539.7753,-666.5716 549.2443,-661.8188 538.8781,-659.6293 539.7753,-666.5716"/>
</g>
<!-- Node289683&#45;&gt;Node289736 -->
<g id="edge9" class="edge">
<title>Node289683&#45;&gt;Node289736</title>
<path fill="none" stroke="#191970" d="M231.6979,-684.2212C248.2505,-664.0314 289.5175,-618.0362 336,-599 403.7944,-571.2359 490.042,-571.2546 543.2467,-574.8489"/>
<polygon fill="#191970" stroke="#191970" points="543.1992,-578.3549 553.4318,-575.6082 543.7197,-571.3743 543.1992,-578.3549"/>
</g>
<!-- Node289683&#45;&gt;Node289823 -->
<g id="edge10" class="edge">
<title>Node289683&#45;&gt;Node289823</title>
<path fill="none" stroke="#191970" d="M225.9453,-703.7473C233.3793,-738.3645 263.3145,-856.4406 336,-915 342.0949,-919.9104 349.3227,-923.5635 356.8222,-926.2789"/>
<polygon fill="#191970" stroke="#191970" points="355.8145,-929.6308 366.4022,-929.2409 357.8823,-922.9431 355.8145,-929.6308"/>
</g>
<!-- Node289849 -->
<g id="node12" class="node">
<title>Node289849</title>
<g id="a_node12"><a xlink:href="quickjs_8c.html#aeb97957655d979e9fe56c955da2b2d4b" target="_top" xlink:title="JS_GetPropertyUint32">
<polygon fill="none" stroke="#ff0000" points="351.5,-342.5 351.5,-361.5 466.5,-361.5 466.5,-342.5 351.5,-342.5"/>
<text text-anchor="middle" x="409" y="-349.5" font-family="Helvetica,sans-Serif" font-size="10.00" fill="#000000">JS_GetPropertyUint32</text>
</a>
</g>
</g>
<!-- Node289683&#45;&gt;Node289849 -->
<g id="edge13" class="edge">
<title>Node289683&#45;&gt;Node289849</title>
<path fill="none" stroke="#191970" d="M224.4376,-684.3511C226.8998,-641.6224 242.5302,-467.5274 336,-376 340.0511,-372.0331 344.7691,-368.7218 349.8209,-365.9579"/>
<polygon fill="#191970" stroke="#191970" points="351.6399,-368.9704 359.2026,-361.5505 348.6634,-362.6347 351.6399,-368.9704"/>
</g>
<!-- Node289851 -->
<g id="node13" class="node">
<title>Node289851</title>
<g id="a_node13"><a xlink:href="quickjs_8h.html#a88259aa0da61ac754402c64ccecee116" target="_top" xlink:title="JS_NewUint32">
<polygon fill="none" stroke="#ff0000" points="551,-323.5 551,-342.5 634,-342.5 634,-323.5 551,-323.5"/>
<text text-anchor="middle" x="592.5" y="-330.5" font-family="Helvetica,sans-Serif" font-size="10.00" fill="#000000">JS_NewUint32</text>
</a>
</g>
</g>
<!-- Node289683&#45;&gt;Node289851 -->
<g id="edge18" class="edge">
<title>Node289683&#45;&gt;Node289851</title>
<path fill="none" stroke="#191970" d="M224.7294,-684.3977C228.3196,-644.1244 247.6995,-487.3073 336,-409 386.1657,-364.5117 417.8054,-390.3611 482,-371 507.1507,-363.4146 535.1303,-353.7802 556.6419,-346.1106"/>
<polygon fill="#191970" stroke="#191970" points="558.1088,-349.3027 566.3387,-342.6304 555.7442,-342.7142 558.1088,-349.3027"/>
</g>
<!-- Node289846 -->
<g id="node15" class="node">
<title>Node289846</title>
<g id="a_node15"><a xlink:href="quickjs_8h.html#a4e407128a9605afb77523e49e9a627fd" target="_top" xlink:title="JS_IsUndefined">
<polygon fill="none" stroke="#000000" points="549.5,-848.5 549.5,-867.5 635.5,-867.5 635.5,-848.5 549.5,-848.5"/>
<text text-anchor="middle" x="592.5" y="-855.5" font-family="Helvetica,sans-Serif" font-size="10.00" fill="#000000">JS_IsUndefined</text>
</a>
</g>
</g>
<!-- Node289683&#45;&gt;Node289846 -->
<g id="edge17" class="edge">
<title>Node289683&#45;&gt;Node289846</title>
<path fill="none" stroke="#191970" d="M228.019,-703.6831C239.852,-730.7906 277.4528,-807.5063 336,-839 399.3586,-873.0819 484.5646,-871.79 539.0223,-866.1504"/>
<polygon fill="#191970" stroke="#191970" points="539.6067,-869.6069 549.1543,-865.0141 538.8265,-862.6505 539.6067,-869.6069"/>
</g>
<!-- Node289875 -->
<g id="node16" class="node">
<title>Node289875</title>
<g id="a_node16"><a xlink:href="quickjs_8c.html#a033dd3ebd29c4eb9f0baff1dd0fec0b1" target="_top" xlink:title="JS_ThrowTypeErrorDetached\lArrayBuffer">
<polygon fill="none" stroke="#000000" points="336,-761 336,-791 482,-791 482,-761 336,-761"/>
<text text-anchor="start" x="344" y="-779" font-family="Helvetica,sans-Serif" font-size="10.00" fill="#000000">JS_ThrowTypeErrorDetached</text>
<text text-anchor="middle" x="409" y="-768" font-family="Helvetica,sans-Serif" font-size="10.00" fill="#000000">ArrayBuffer</text>
</a>
</g>
</g>
<!-- Node289683&#45;&gt;Node289875 -->
<g id="edge19" class="edge">
<title>Node289683&#45;&gt;Node289875</title>
<path fill="none" stroke="#191970" d="M241.0998,-703.6594C262.7621,-715.6711 301.441,-736.3742 336,-751 341.2952,-753.241 346.8669,-755.4333 352.4735,-757.5303"/>
<polygon fill="#191970" stroke="#191970" points="351.3053,-760.8296 361.8993,-760.961 353.6995,-754.2518 351.3053,-760.8296"/>
</g>
<!-- Node289876 -->
<g id="node17" class="node">
<title>Node289876</title>
<g id="a_node17"><a xlink:href="quickjs_8c.html#a869fa88a646c0a1914ec2e559b193b5c" target="_top" xlink:title="typed_array_is_detached">
<polygon fill="none" stroke="#000000" points="346.5,-722.5 346.5,-741.5 471.5,-741.5 471.5,-722.5 346.5,-722.5"/>
<text text-anchor="middle" x="409" y="-729.5" font-family="Helvetica,sans-Serif" font-size="10.00" fill="#000000">typed_array_is_detached</text>
</a>
</g>
</g>
<!-- Node289683&#45;&gt;Node289876 -->
<g id="edge20" class="edge">
<title>Node289683&#45;&gt;Node289876</title>
<path fill="none" stroke="#191970" d="M270.6833,-703.589C295.6459,-708.7165 326.5642,-715.0672 352.834,-720.4632"/>
<polygon fill="#191970" stroke="#191970" points="352.1526,-723.8962 362.6524,-722.4799 353.5611,-717.0394 352.1526,-723.8962"/>
</g>
<!-- Node289685 -->
<g id="node5" class="node">
<title>Node289685</title>
<g id="a_node5"><a xlink:href="quickjs_8c.html#ad4ba09e4c7ab9f28c144182e1aacf1f6" target="_top" xlink:title="JS_NewArray">
<polygon fill="none" stroke="#ff0000" points="554,-437.5 554,-456.5 631,-456.5 631,-437.5 554,-437.5"/>
<text text-anchor="middle" x="592.5" y="-444.5" font-family="Helvetica,sans-Serif" font-size="10.00" fill="#000000">JS_NewArray</text>
</a>
</g>
</g>
<!-- Node289684&#45;&gt;Node289685 -->
<g id="edge4" class="edge">
<title>Node289684&#45;&gt;Node289685</title>
<path fill="none" stroke="#191970" d="M450.639,-432.3114C478.2328,-435.1685 514.5499,-438.9289 543.5301,-441.9295"/>
<polygon fill="#191970" stroke="#191970" points="543.538,-445.449 553.8453,-442.9976 544.259,-438.4862 543.538,-445.449"/>
</g>
<!-- Node289684&#45;&gt;Node289760 -->
<g id="edge5" class="edge">
<title>Node289684&#45;&gt;Node289760</title>
<path fill="none" stroke="#191970" d="M416.7984,-437.57C430.783,-454.9622 460.6561,-493.181 482,-528 500.4904,-558.1639 495.3843,-571.7918 518,-599 531.9234,-615.7507 551.6338,-630.5573 567.2837,-640.8788"/>
<polygon fill="#191970" stroke="#191970" points="565.6431,-643.984 575.9545,-646.4185 569.4119,-638.0851 565.6431,-643.984"/>
</g>
<!-- Node289761 -->
<g id="node7" class="node">
<title>Node289761</title>
<g id="a_node7"><a xlink:href="quickjs_8c.html#aa44ddb5f94a842c9c5152a17032de580" target="_top" xlink:title="JS_CreateDataPropertyUint32">
<polygon fill="none" stroke="#ff0000" points="518,-399.5 518,-418.5 667,-418.5 667,-399.5 518,-399.5"/>
<text text-anchor="middle" x="592.5" y="-406.5" font-family="Helvetica,sans-Serif" font-size="10.00" fill="#000000">JS_CreateDataPropertyUint32</text>
</a>
</g>
</g>
<!-- Node289684&#45;&gt;Node289761 -->
<g id="edge6" class="edge">
<title>Node289684&#45;&gt;Node289761</title>
<path fill="none" stroke="#191970" d="M450.639,-423.6886C467.6454,-421.9277 487.9651,-419.8238 507.8387,-417.766"/>
<polygon fill="#191970" stroke="#191970" points="508.2689,-421.2403 517.8553,-416.7289 507.5479,-414.2775 508.2689,-421.2403"/>
</g>
<!-- Node289684&#45;&gt;Node289716 -->
<g id="edge7" class="edge">
<title>Node289684&#45;&gt;Node289716</title>
<path fill="none" stroke="#191970" d="M424.2291,-418.4003C439.9307,-408.009 464.5207,-390.3134 482,-371 502.1058,-348.7844 495.8647,-334.1942 518,-314 529.0481,-303.9208 543.266,-295.8007 556.3145,-289.6949"/>
<polygon fill="#191970" stroke="#191970" points="557.8213,-292.8556 565.5472,-285.6057 554.9865,-286.4552 557.8213,-292.8556"/>
</g>
<!-- Node289684&#45;&gt;Node289736 -->
<g id="edge8" class="edge">
<title>Node289684&#45;&gt;Node289736</title>
<path fill="none" stroke="#191970" d="M450.5722,-437.398C461.3483,-440.9491 472.5656,-445.7085 482,-452 526.571,-481.7228 563.7469,-534.1111 581.4229,-561.7488"/>
<polygon fill="#191970" stroke="#191970" points="578.5723,-563.7917 586.842,-570.4146 584.5074,-560.0802 578.5723,-563.7917"/>
</g>
<!-- Node289823&#45;&gt;Node289760 -->
<g id="edge12" class="edge">
<title>Node289823&#45;&gt;Node289760</title>
<path fill="none" stroke="#191970" d="M451.5314,-929.7162C462.4287,-926.9066 473.4669,-922.3505 482,-915 491.8287,-906.5335 561.3419,-734.0073 584.7945,-675.3353"/>
<polygon fill="#191970" stroke="#191970" points="588.1559,-676.3551 588.6129,-665.7701 581.6548,-673.7599 588.1559,-676.3551"/>
</g>
<!-- Node289823&#45;&gt;Node289824 -->
<g id="edge11" class="edge">
<title>Node289823&#45;&gt;Node289824</title>
<path fill="none" stroke="#191970" d="M451.5598,-925.1865C477.6794,-919.7776 511.3503,-912.8048 539.2312,-907.0311"/>
<polygon fill="#191970" stroke="#191970" points="540.1339,-910.4185 549.2164,-904.9634 538.7144,-903.564 540.1339,-910.4185"/>
</g>
<!-- Node289849&#45;&gt;Node289851 -->
<g id="edge14" class="edge">
<title>Node289849&#45;&gt;Node289851</title>
<path fill="none" stroke="#191970" d="M466.5571,-346.0404C490.3621,-343.5756 517.7506,-340.7397 540.8943,-338.3434"/>
<polygon fill="#191970" stroke="#191970" points="541.2783,-341.8224 550.8646,-337.311 540.5573,-334.8596 541.2783,-341.8224"/>
</g>
<!-- Node289851&#45;&gt;Node289744 -->
<g id="edge15" class="edge">
<title>Node289851&#45;&gt;Node289744</title>
<path fill="none" stroke="#191970" d="M613.9455,-323.3574C629.1508,-316.2125 649.8212,-305.8664 667,-295 686.7052,-282.5355 707.6187,-266.0919 722.1673,-254.0707"/>
<polygon fill="#191970" stroke="#191970" points="724.5167,-256.6686 729.9406,-247.5674 720.0249,-251.2997 724.5167,-256.6686"/>
</g>
<!-- Node290108&#45;&gt;Node289760 -->
<g id="edge23" class="edge">
<title>Node290108&#45;&gt;Node289760</title>
<path fill="none" stroke="#191970" d="M230.4514,-247.6419C244.5724,-269.067 278.6587,-322.5712 300,-371 321.0846,-418.8463 304.5989,-441.1933 336,-483 368.3906,-526.124 507.8054,-608.0492 566.401,-641.3628"/>
<polygon fill="#191970" stroke="#191970" points="564.9767,-644.5785 575.4032,-646.4595 568.4255,-638.487 564.9767,-644.5785"/>
</g>
<!-- Node290108&#45;&gt;Node289736 -->
<g id="edge22" class="edge">
<title>Node290108&#45;&gt;Node289736</title>
<path fill="none" stroke="#191970" d="M229.788,-247.5385C242.852,-269.1911 275.4028,-323.8407 300,-371 317.2845,-404.1389 307.593,-422.7104 336,-447 387.4126,-490.9607 422.1553,-458.4656 482,-490 519.2952,-509.6522 555.894,-543.0121 576.2029,-563.1279"/>
<polygon fill="#191970" stroke="#191970" points="573.8653,-565.7412 583.3929,-570.3754 578.8348,-560.8112 573.8653,-565.7412"/>
</g>
<!-- Node289931 -->
<g id="node19" class="node">
<title>Node289931</title>
<g id="a_node19"><a xlink:href="quickjs_8c.html#a659dc0db7e440fd6eb012d613627faa3" target="_top" xlink:title="JS_NewObjectClass">
<polygon fill="none" stroke="#ff0000" points="538.5,-190.5 538.5,-209.5 646.5,-209.5 646.5,-190.5 538.5,-190.5"/>
<text text-anchor="middle" x="592.5" y="-197.5" font-family="Helvetica,sans-Serif" font-size="10.00" fill="#000000">JS_NewObjectClass</text>
</a>
</g>
</g>
<!-- Node290108&#45;&gt;Node289931 -->
<g id="edge24" class="edge">
<title>Node290108&#45;&gt;Node289931</title>
<path fill="none" stroke="#191970" d="M274.0311,-228.4777C293.3367,-225.0755 315.6388,-221.4756 336,-219 401.2435,-211.0674 476.2543,-205.9757 528.2334,-203.0804"/>
<polygon fill="#191970" stroke="#191970" points="528.518,-206.5702 538.3124,-202.5305 528.1366,-199.5806 528.518,-206.5702"/>
</g>
<!-- Node290031 -->
<g id="node20" class="node">
<title>Node290031</title>
<g id="a_node20"><a xlink:href="quickjs_8c.html#a0ddf716409e51648f0d59e7521150d19" target="_top" xlink:title="JS_SetOpaque">
<polygon fill="none" stroke="#000000" points="367.5,-114.5 367.5,-133.5 450.5,-133.5 450.5,-114.5 367.5,-114.5"/>
<text text-anchor="middle" x="409" y="-121.5" font-family="Helvetica,sans-Serif" font-size="10.00" fill="#000000">JS_SetOpaque</text>
</a>
</g>
</g>
<!-- Node290108&#45;&gt;Node290031 -->
<g id="edge25" class="edge">
<title>Node290108&#45;&gt;Node290031</title>
<path fill="none" stroke="#191970" d="M232.5312,-228.2924C249.9885,-209.0419 291.877,-165.9171 336,-143 342.707,-139.5164 350.0999,-136.6379 357.5287,-134.2687"/>
<polygon fill="#191970" stroke="#191970" points="358.6351,-137.592 367.2604,-131.4394 356.6809,-130.8703 358.6351,-137.592"/>
</g>
<!-- Node289986 -->
<g id="node21" class="node">
<title>Node289986</title>
<g id="a_node21"><a xlink:href="quickjs_8c.html#a710289a14c2810467e5b448d3c28bd55" target="_top" xlink:title="JS_ToObject">
<polygon fill="none" stroke="#ff0000" points="372,-228.5 372,-247.5 446,-247.5 446,-228.5 372,-228.5"/>
<text text-anchor="middle" x="409" y="-235.5" font-family="Helvetica,sans-Serif" font-size="10.00" fill="#000000">JS_ToObject</text>
</a>
</g>
</g>
<!-- Node290108&#45;&gt;Node289986 -->
<g id="edge26" class="edge">
<title>Node290108&#45;&gt;Node289986</title>
<path fill="none" stroke="#191970" d="M283.5535,-238C308.8567,-238 337.9434,-238 361.7342,-238"/>
<polygon fill="#191970" stroke="#191970" points="361.9187,-241.5001 371.9187,-238 361.9187,-234.5001 361.9187,-241.5001"/>
</g>
<!-- Node290109 -->
<g id="node22" class="node">
<title>Node290109</title>
<g id="a_node22"><a xlink:href="quickjs_8c.html#a4d1d0760c9f9efcb8c0a8db414e46c8a" target="_top" xlink:title="JS_ToStringCheckObject">
<polygon fill="none" stroke="#000000" points="345,-152.5 345,-171.5 473,-171.5 473,-152.5 345,-152.5"/>
<text text-anchor="middle" x="409" y="-159.5" font-family="Helvetica,sans-Serif" font-size="10.00" fill="#000000">JS_ToStringCheckObject</text>
</a>
</g>
</g>
<!-- Node290108&#45;&gt;Node290109 -->
<g id="edge31" class="edge">
<title>Node290108&#45;&gt;Node290109</title>
<path fill="none" stroke="#191970" d="M242.7298,-228.4808C264.7359,-217.4903 302.5022,-199.2302 336,-186 346.0613,-182.0262 357.0727,-178.1619 367.4229,-174.7365"/>
<polygon fill="#191970" stroke="#191970" points="368.6607,-178.0145 377.0911,-171.5975 366.499,-171.3566 368.6607,-178.0145"/>
</g>
<!-- Node289986&#45;&gt;Node289760 -->
<g id="edge28" class="edge">
<title>Node289986&#45;&gt;Node289760</title>
<path fill="none" stroke="#191970" d="M419.315,-247.6724C435.6664,-263.6859 467.1977,-297.4809 482,-333 527.8915,-443.1202 458.0906,-495.8333 518,-599 528.5281,-617.1298 547.307,-631.4398 563.3763,-641.1871"/>
<polygon fill="#191970" stroke="#191970" points="562.0269,-644.4482 572.4417,-646.3932 565.513,-638.378 562.0269,-644.4482"/>
</g>
<!-- Node289986&#45;&gt;Node289716 -->
<g id="edge27" class="edge">
<title>Node289986&#45;&gt;Node289716</title>
<path fill="none" stroke="#191970" d="M446.134,-245.6899C474.2666,-251.5157 513.1703,-259.572 543.7981,-265.9146"/>
<polygon fill="#191970" stroke="#191970" points="543.3381,-269.3935 553.8401,-267.9941 544.7576,-262.539 543.3381,-269.3935"/>
</g>
<!-- Node289986&#45;&gt;Node289744 -->
<g id="edge29" class="edge">
<title>Node289986&#45;&gt;Node289744</title>
<path fill="none" stroke="#191970" d="M446.1182,-238C506.4291,-238 625.6778,-238 692.5759,-238"/>
<polygon fill="#191970" stroke="#191970" points="692.8461,-241.5001 702.8461,-238 692.8461,-234.5001 692.8461,-241.5001"/>
</g>
<!-- Node289986&#45;&gt;Node289931 -->
<g id="edge30" class="edge">
<title>Node289986&#45;&gt;Node289931</title>
<path fill="none" stroke="#191970" d="M446.134,-230.3101C471.9896,-224.9558 506.9434,-217.7174 536.2088,-211.657"/>
<polygon fill="#191970" stroke="#191970" points="537.2164,-215.0227 546.2989,-209.5675 535.7969,-208.1681 537.2164,-215.0227"/>
</g>
<!-- Node289787 -->
<g id="node23" class="node">
<title>Node289787</title>
<g id="a_node23"><a xlink:href="quickjs_8c.html#a7bcb8e1a20cbc8374a5f9ba4a2088cec" target="_top" xlink:title="JS_ToString">
<polygon fill="none" stroke="#ff0000" points="557,-152.5 557,-171.5 628,-171.5 628,-152.5 557,-152.5"/>
<text text-anchor="middle" x="592.5" y="-159.5" font-family="Helvetica,sans-Serif" font-size="10.00" fill="#000000">JS_ToString</text>
</a>
</g>
</g>
<!-- Node290109&#45;&gt;Node289787 -->
<g id="edge32" class="edge">
<title>Node290109&#45;&gt;Node289787</title>
<path fill="none" stroke="#191970" d="M473.1794,-162C497.4477,-162 524.553,-162 546.7887,-162"/>
<polygon fill="#191970" stroke="#191970" points="546.9562,-165.5001 556.9562,-162 546.9562,-158.5001 546.9562,-165.5001"/>
</g>
<!-- Node289911&#45;&gt;Node289851 -->
<g id="edge34" class="edge">
<title>Node289911&#45;&gt;Node289851</title>
<path fill="none" stroke="#191970" d="M237.655,-380.3334C257.9542,-366.618 297.811,-342.1588 336,-333 405.4206,-316.351 488.4831,-320.5539 540.8783,-326.0218"/>
<polygon fill="#191970" stroke="#191970" points="540.6129,-329.5137 550.9353,-327.1265 541.3773,-322.5555 540.6129,-329.5137"/>
</g>
<!-- Node290053&#45;&gt;Node289760 -->
<g id="edge42" class="edge">
<title>Node290053&#45;&gt;Node289760</title>
<path fill="none" stroke="#191970" d="M449.2742,-813.9009C460.5136,-810.9299 472.294,-806.5246 482,-800 530.6375,-767.3044 566.925,-706.1162 583.1374,-675.0889"/>
<polygon fill="#191970" stroke="#191970" points="586.4439,-676.308 587.8548,-665.8076 580.2037,-673.1363 586.4439,-676.308"/>
</g>
<!-- Node290053&#45;&gt;Node289736 -->
<g id="edge40" class="edge">
<title>Node290053&#45;&gt;Node289736</title>
<path fill="none" stroke="#191970" d="M449.0937,-816.9514C461.1254,-814.1315 473.3964,-809.0453 482,-800 533.1316,-746.2435 478.1186,-699.5594 518,-637 529.343,-619.2069 548.2887,-604.8234 564.2353,-594.9562"/>
<polygon fill="#191970" stroke="#191970" points="566.3579,-597.768 573.1977,-589.6767 562.805,-591.7366 566.3579,-597.768"/>
</g>
<!-- Node290053&#45;&gt;Node289824 -->
<g id="edge41" class="edge">
<title>Node290053&#45;&gt;Node289824</title>
<path fill="none" stroke="#191970" d="M424.7054,-829.7074C445.4154,-842.1535 483.3005,-863.71 518,-877 524.8558,-879.6258 532.2045,-882.0003 539.5178,-884.1103"/>
<polygon fill="#191970" stroke="#191970" points="538.8497,-887.5562 549.4191,-886.8224 540.699,-880.8049 538.8497,-887.5562"/>
</g>
<!-- Node290053&#45;&gt;Node289846 -->
<g id="edge43" class="edge">
<title>Node290053&#45;&gt;Node289846</title>
<path fill="none" stroke="#191970" d="M449.2699,-828.3393C475.7888,-833.8309 510.7913,-841.0794 539.5557,-847.0361"/>
<polygon fill="#191970" stroke="#191970" points="538.9437,-850.4835 549.4457,-849.0841 540.3632,-843.6289 538.9437,-850.4835"/>
</g>
<!-- Node290070&#45;&gt;Node289760 -->
<g id="edge50" class="edge">
<title>Node290070&#45;&gt;Node289760</title>
<path fill="none" stroke="#191970" d="M424.3079,-886.4709C440.0738,-876.1373 464.7156,-858.488 482,-839 529.0902,-785.9061 567.484,-710.0275 583.8998,-675.0249"/>
<polygon fill="#191970" stroke="#191970" points="587.2623,-676.0913 588.274,-665.5449 580.9063,-673.1585 587.2623,-676.0913"/>
</g>
<!-- Node290070&#45;&gt;Node289736 -->
<g id="edge48" class="edge">
<title>Node290070&#45;&gt;Node289736</title>
<path fill="none" stroke="#191970" d="M428.1178,-886.3534C445.0922,-876.742 469.141,-860.3496 482,-839 529.0504,-760.8827 470.5658,-714.8848 518,-637 528.9759,-618.9781 547.926,-604.5974 563.9666,-594.7888"/>
<polygon fill="#191970" stroke="#191970" points="566.1015,-597.5965 572.9926,-589.5489 562.587,-591.5427 566.1015,-597.5965"/>
</g>
<!-- Node290070&#45;&gt;Node289824 -->
<g id="edge49" class="edge">
<title>Node290070&#45;&gt;Node289824</title>
<path fill="none" stroke="#191970" d="M454.3596,-896C480.0514,-896 512.329,-896 539.2217,-896"/>
<polygon fill="#191970" stroke="#191970" points="539.24,-899.5001 549.24,-896 539.2399,-892.5001 539.24,-899.5001"/>
</g>
<!-- Node290070&#45;&gt;Node289846 -->
<g id="edge51" class="edge">
<title>Node290070&#45;&gt;Node289846</title>
<path fill="none" stroke="#191970" d="M454.3596,-886.6067C480.0514,-881.2864 512.329,-874.6022 539.2217,-869.0331"/>
<polygon fill="#191970" stroke="#191970" points="540.1575,-872.4137 549.24,-866.9585 538.738,-865.5591 540.1575,-872.4137"/>
</g>
<!-- Node290050&#45;&gt;Node289760 -->
<g id="edge55" class="edge">
<title>Node290050&#45;&gt;Node289760</title>
<path fill="none" stroke="#191970" d="M452.0226,-626.9093C478.1563,-632.3212 511.7203,-639.2718 539.4865,-645.0217"/>
<polygon fill="#191970" stroke="#191970" points="538.9274,-648.4801 549.4294,-647.0807 540.3469,-641.6256 538.9274,-648.4801"/>
</g>
<!-- Node290050&#45;&gt;Node289736 -->
<g id="edge53" class="edge">
<title>Node290050&#45;&gt;Node289736</title>
<path fill="none" stroke="#191970" d="M452.0226,-609.0907C479.3828,-603.4248 514.887,-596.0724 543.3562,-590.1769"/>
<polygon fill="#191970" stroke="#191970" points="544.4159,-593.5318 553.4984,-588.0766 542.9964,-586.6772 544.4159,-593.5318"/>
</g>
<!-- Node290050&#45;&gt;Node289824 -->
<g id="edge54" class="edge">
<title>Node290050&#45;&gt;Node289824</title>
<path fill="none" stroke="#191970" d="M418.7274,-627.5571C434.5356,-643.6687 465.6741,-677.9253 482,-713 513.4905,-780.6546 466.1272,-823.353 518,-877 523.9353,-883.1383 531.5561,-887.3953 539.6495,-890.3279"/>
<polygon fill="#191970" stroke="#191970" points="538.712,-893.7006 549.2948,-893.1956 540.7069,-886.9908 538.712,-893.7006"/>
</g>
</g>
</svg>
        <g id="navigator" transform="translate(0 0)" fill="#404254">
                <rect fill="#f2f5e9" fill-opacity="0.5" stroke="#606060" stroke-width=".5" x="0" y="0" width="60" height="60"/>
                <use id="zoomplus" xlink:href="#zoomPlus" x="17" y="9" onmousedown="handleZoom(evt,'in')"/>
                <use id="zoomminus" xlink:href="#zoomMin" x="42" y="9" onmousedown="handleZoom(evt,'out')"/>
                <use id="reset" xlink:href="#resetDef" x="30" y="36" onmousedown="handleReset()"/>
                <g id="arrowUp" xlink:href="#dirArrow" transform="translate(30 24)" onmousedown="handlePan(0,-1)">
                  <use xlink:href="#rim" fill="#404040">
                        <set attributeName="fill" to="#808080" begin="arrowUp.mouseover" end="arrowUp.mouseout"/>
                  </use>
                  <path fill="none" stroke="white" stroke-width="1.5" d="M0,-3.0v7 M-2.5,-0.5L0,-3.0L2.5,-0.5"/>
                </g>
                <g id="arrowRight" xlink:href="#dirArrow" transform="rotate(90) translate(36 -43)" onmousedown="handlePan(1,0)">
                  <use xlink:href="#rim" fill="#404040">
                        <set attributeName="fill" to="#808080" begin="arrowRight.mouseover" end="arrowRight.mouseout"/>
                  </use>
                  <path fill="none" stroke="white" stroke-width="1.5" d="M0,-3.0v7 M-2.5,-0.5L0,-3.0L2.5,-0.5"/>
                </g>
                <g id="arrowDown" xlink:href="#dirArrow" transform="rotate(180) translate(-30 -48)" onmousedown="handlePan(0,1)">
                  <use xlink:href="#rim" fill="#404040">
                        <set attributeName="fill" to="#808080" begin="arrowDown.mouseover" end="arrowDown.mouseout"/>
                  </use>
                  <path fill="none" stroke="white" stroke-width="1.5" d="M0,-3.0v7 M-2.5,-0.5L0,-3.0L2.5,-0.5"/>
                </g>
                <g id="arrowLeft" xlink:href="#dirArrow" transform="rotate(270) translate(-36 17)" onmousedown="handlePan(-1,0)">
                  <use xlink:href="#rim" fill="#404040">
                        <set attributeName="fill" to="#808080" begin="arrowLeft.mouseover" end="arrowLeft.mouseout"/>
                  </use>
                  <path fill="none" stroke="white" stroke-width="1.5" d="M0,-3.0v7 M-2.5,-0.5L0,-3.0L2.5,-0.5"/>
                </g>
        </g>
        <svg viewBox="0 0 15 15" width="100%" height="30px" preserveAspectRatio="xMaxYMin meet">
         <g id="arrow_out" transform="scale(0.3 0.3)">
          <a xlink:href="quickjs_8c_a43208b0746998d2b6b9b8bd1ef8b5f99_cgraph_org.svg" target="_base">
           <rect id="button" ry="5" rx="5" y="6" x="6" height="38" width="38"
                fill="#f2f5e9" fill-opacity="0.5" stroke="#606060" stroke-width="1.0"/>
           <path id="arrow"
             d="M 11.500037,31.436501 C 11.940474,20.09759 22.043105,11.32322 32.158766,21.979434 L 37.068811,17.246167 C 37.068811,17.246167 37.088388,32 37.088388,32 L 22.160133,31.978069 C 22.160133,31.978069 26.997745,27.140456 26.997745,27.140456 C 18.528582,18.264221 13.291696,25.230495 11.500037,31.436501 z"
             style="fill:#404040;"/>
          </a>
         </g>
        </svg>
</svg>
