<?xml version="1.0" encoding="UTF-8" standalone="no"?>
<!DOCTYPE svg PUBLIC "-//W3C//DTD SVG 1.1//EN"
 "http://www.w3.org/Graphics/SVG/1.1/DTD/svg11.dtd">
<!-- Generated by graphviz version 2.40.1 (20161225.0304)
 -->
<!-- Title: js_module_ns_has Pages: 1 -->
<svg width="365pt" height="66pt"
 viewBox="0.00 0.00 365.00 66.00" xmlns="http://www.w3.org/2000/svg" xmlns:xlink="http://www.w3.org/1999/xlink">
<g id="graph0" class="graph" transform="scale(1 1) rotate(0) translate(4 62)">
<title>js_module_ns_has</title>
<!-- Node336013 -->
<g id="node1" class="node">
<title>Node336013</title>
<polygon fill="#bfbfbf" stroke="#000000" points="0,-19.5 0,-38.5 98,-38.5 98,-19.5 0,-19.5"/>
<text text-anchor="middle" x="49" y="-26.5" font-family="Helvetica,sans-Serif" font-size="10.00" fill="#000000">js_module_ns_has</text>
</g>
<!-- Node336014 -->
<g id="node2" class="node">
<title>Node336014</title>
<g id="a_node2"><a xlink:href="quickjs_8c.html#afdc6d90129958f6258bae1505495869f" target="_top" xlink:title="find_own_property1">
<polygon fill="none" stroke="#000000" points="134,-19.5 134,-38.5 235,-38.5 235,-19.5 134,-19.5"/>
<text text-anchor="middle" x="184.5" y="-26.5" font-family="Helvetica,sans-Serif" font-size="10.00" fill="#000000">find_own_property1</text>
</a>
</g>
</g>
<!-- Node336013&#45;&gt;Node336014 -->
<g id="edge1" class="edge">
<title>Node336013&#45;&gt;Node336014</title>
<path fill="none" stroke="#191970" d="M98.3019,-29C106.479,-29 115.0441,-29 123.4693,-29"/>
<polygon fill="#191970" stroke="#191970" points="123.6412,-32.5001 133.6412,-29 123.6412,-25.5001 123.6412,-32.5001"/>
</g>
<!-- Node336015 -->
<g id="node3" class="node">
<title>Node336015</title>
<g id="a_node3"><a xlink:href="quickjs_8c.html#a643df594b75933007bcdbb071b5ea8c5" target="_top" xlink:title="get_shape_prop">
<polygon fill="none" stroke="#000000" points="271,-38.5 271,-57.5 357,-57.5 357,-38.5 271,-38.5"/>
<text text-anchor="middle" x="314" y="-45.5" font-family="Helvetica,sans-Serif" font-size="10.00" fill="#000000">get_shape_prop</text>
</a>
</g>
</g>
<!-- Node336014&#45;&gt;Node336015 -->
<g id="edge2" class="edge">
<title>Node336014&#45;&gt;Node336015</title>
<path fill="none" stroke="#191970" d="M235.3101,-36.4548C243.6727,-37.6817 252.3609,-38.9564 260.7804,-40.1917"/>
<polygon fill="#191970" stroke="#191970" points="260.4748,-43.6843 270.877,-41.6731 261.491,-36.7584 260.4748,-43.6843"/>
</g>
<!-- Node336016 -->
<g id="node4" class="node">
<title>Node336016</title>
<g id="a_node4"><a xlink:href="quickjs_8c.html#acab22c2945c4d609e57a2484feb68a96" target="_top" xlink:title="prop_hash_end">
<polygon fill="none" stroke="#000000" points="272.5,-.5 272.5,-19.5 355.5,-19.5 355.5,-.5 272.5,-.5"/>
<text text-anchor="middle" x="314" y="-7.5" font-family="Helvetica,sans-Serif" font-size="10.00" fill="#000000">prop_hash_end</text>
</a>
</g>
</g>
<!-- Node336014&#45;&gt;Node336016 -->
<g id="edge3" class="edge">
<title>Node336014&#45;&gt;Node336016</title>
<path fill="none" stroke="#191970" d="M235.3101,-21.5452C244.0702,-20.26 253.1876,-18.9223 261.979,-17.6324"/>
<polygon fill="#191970" stroke="#191970" points="262.7228,-21.0609 272.1088,-16.1462 261.7066,-14.135 262.7228,-21.0609"/>
</g>
</g>
</svg>
