<?xml version="1.0" encoding="UTF-8" standalone="no"?>
<!DOCTYPE svg PUBLIC "-//W3C//DTD SVG 1.1//EN"
 "http://www.w3.org/Graphics/SVG/1.1/DTD/svg11.dtd">
<!-- Generated by graphviz version 2.40.1 (20161225.0304)
 -->
<!-- Title: js_new_shape Pages: 1 -->
<svg width="513pt" height="332pt"
 viewBox="0.00 0.00 513.00 332.00" xmlns="http://www.w3.org/2000/svg" xmlns:xlink="http://www.w3.org/1999/xlink">
<g id="graph0" class="graph" transform="scale(1 1) rotate(0) translate(4 328)">
<title>js_new_shape</title>
<!-- Node125359 -->
<g id="node1" class="node">
<title>Node125359</title>
<polygon fill="#bfbfbf" stroke="#000000" points="0,-152.5 0,-171.5 79,-171.5 79,-152.5 0,-152.5"/>
<text text-anchor="middle" x="39.5" y="-159.5" font-family="Helvetica,sans-Serif" font-size="10.00" fill="#000000">js_new_shape</text>
</g>
<!-- Node125360 -->
<g id="node2" class="node">
<title>Node125360</title>
<g id="a_node2"><a xlink:href="quickjs_8c.html#a1030d2020be7d911eb62869f21cc3b70" target="_top" xlink:title="js_new_shape2">
<polygon fill="none" stroke="#000000" points="115,-152.5 115,-171.5 199,-171.5 199,-152.5 115,-152.5"/>
<text text-anchor="middle" x="157" y="-159.5" font-family="Helvetica,sans-Serif" font-size="10.00" fill="#000000">js_new_shape2</text>
</a>
</g>
</g>
<!-- Node125359&#45;&gt;Node125360 -->
<g id="edge1" class="edge">
<title>Node125359&#45;&gt;Node125360</title>
<path fill="none" stroke="#191970" d="M79.2801,-162C87.4213,-162 96.1069,-162 104.6125,-162"/>
<polygon fill="#191970" stroke="#191970" points="104.8495,-165.5001 114.8495,-162 104.8495,-158.5001 104.8495,-165.5001"/>
</g>
<!-- Node125361 -->
<g id="node3" class="node">
<title>Node125361</title>
<g id="a_node3"><a xlink:href="quickjs_8c.html#a9780456a71703c53244b88831bc8fb7a" target="_top" xlink:title="add_gc_object">
<polygon fill="none" stroke="#000000" points="251,-304.5 251,-323.5 331,-323.5 331,-304.5 251,-304.5"/>
<text text-anchor="middle" x="291" y="-311.5" font-family="Helvetica,sans-Serif" font-size="10.00" fill="#000000">add_gc_object</text>
</a>
</g>
</g>
<!-- Node125360&#45;&gt;Node125361 -->
<g id="edge2" class="edge">
<title>Node125360&#45;&gt;Node125361</title>
<path fill="none" stroke="#191970" d="M159.9886,-171.6051C168.033,-195.9021 192.4603,-260.3356 235,-295 237.2384,-296.824 239.6609,-298.4766 242.2,-299.9733"/>
<polygon fill="#191970" stroke="#191970" points="240.6769,-303.1249 251.1841,-304.4848 243.8182,-296.8694 240.6769,-303.1249"/>
</g>
<!-- Node125364 -->
<g id="node5" class="node">
<title>Node125364</title>
<g id="a_node5"><a xlink:href="quickjs_8c.html#a8b6c89e0f589df709eb31a92b7fac32a" target="_top" xlink:title="get_shape_from_alloc">
<polygon fill="none" stroke="#000000" points="235,-266.5 235,-285.5 347,-285.5 347,-266.5 235,-266.5"/>
<text text-anchor="middle" x="291" y="-273.5" font-family="Helvetica,sans-Serif" font-size="10.00" fill="#000000">get_shape_from_alloc</text>
</a>
</g>
</g>
<!-- Node125360&#45;&gt;Node125364 -->
<g id="edge4" class="edge">
<title>Node125360&#45;&gt;Node125364</title>
<path fill="none" stroke="#191970" d="M162.3464,-171.5784C173.4345,-190.5966 200.7784,-233.3244 235,-257 237.744,-258.8984 240.6938,-260.6209 243.7529,-262.1818"/>
<polygon fill="#191970" stroke="#191970" points="242.6047,-265.5024 253.162,-266.3931 245.4644,-259.1132 242.6047,-265.5024"/>
</g>
<!-- Node125365 -->
<g id="node6" class="node">
<title>Node125365</title>
<g id="a_node6"><a xlink:href="quickjs_8c.html#ab54e821a9b1b55dc16c4494bd410b698" target="_top" xlink:title="get_shape_size">
<polygon fill="none" stroke="#000000" points="248.5,-228.5 248.5,-247.5 333.5,-247.5 333.5,-228.5 248.5,-228.5"/>
<text text-anchor="middle" x="291" y="-235.5" font-family="Helvetica,sans-Serif" font-size="10.00" fill="#000000">get_shape_size</text>
</a>
</g>
</g>
<!-- Node125360&#45;&gt;Node125365 -->
<g id="edge5" class="edge">
<title>Node125360&#45;&gt;Node125365</title>
<path fill="none" stroke="#191970" d="M167.9102,-171.6574C182.3751,-184.0493 209.1021,-205.5473 235,-219 239.0557,-221.1067 243.3942,-223.0553 247.7945,-224.837"/>
<polygon fill="#191970" stroke="#191970" points="246.8486,-228.2207 257.4406,-228.4676 249.3144,-221.6693 246.8486,-228.2207"/>
</g>
<!-- Node125366 -->
<g id="node7" class="node">
<title>Node125366</title>
<g id="a_node7"><a xlink:href="quickjs_8h.html#a775522f2d084fc8fa0fcb33f390006b4" target="_top" xlink:title="JS_DupValue">
<polygon fill="none" stroke="#000000" points="252.5,-190.5 252.5,-209.5 329.5,-209.5 329.5,-190.5 252.5,-190.5"/>
<text text-anchor="middle" x="291" y="-197.5" font-family="Helvetica,sans-Serif" font-size="10.00" fill="#000000">JS_DupValue</text>
</a>
</g>
</g>
<!-- Node125360&#45;&gt;Node125366 -->
<g id="edge6" class="edge">
<title>Node125360&#45;&gt;Node125366</title>
<path fill="none" stroke="#191970" d="M190.8139,-171.589C208.0326,-176.4719 229.1637,-182.4643 247.5733,-187.685"/>
<polygon fill="#191970" stroke="#191970" points="246.6214,-191.053 257.197,-190.4141 248.5312,-184.3185 246.6214,-191.053"/>
</g>
<!-- Node125367 -->
<g id="node8" class="node">
<title>Node125367</title>
<g id="a_node8"><a xlink:href="quickjs_8c.html#a78b7f6b85f2739b551ff54f16156128b" target="_top" xlink:title="js_malloc">
<polygon fill="none" stroke="#000000" points="262,-152.5 262,-171.5 320,-171.5 320,-152.5 262,-152.5"/>
<text text-anchor="middle" x="291" y="-159.5" font-family="Helvetica,sans-Serif" font-size="10.00" fill="#000000">js_malloc</text>
</a>
</g>
</g>
<!-- Node125360&#45;&gt;Node125367 -->
<g id="edge7" class="edge">
<title>Node125360&#45;&gt;Node125367</title>
<path fill="none" stroke="#191970" d="M199.0308,-162C215.7786,-162 234.9555,-162 251.4492,-162"/>
<polygon fill="#191970" stroke="#191970" points="251.8479,-165.5001 261.8478,-162 251.8478,-158.5001 251.8479,-165.5001"/>
</g>
<!-- Node125371 -->
<g id="node11" class="node">
<title>Node125371</title>
<g id="a_node11"><a xlink:href="quickjs_8c.html#a82dbe63adeac7849406fd48d96f39f7b" target="_top" xlink:title="js_shape_hash_link">
<polygon fill="none" stroke="#000000" points="240,-114.5 240,-133.5 342,-133.5 342,-114.5 240,-114.5"/>
<text text-anchor="middle" x="291" y="-121.5" font-family="Helvetica,sans-Serif" font-size="10.00" fill="#000000">js_shape_hash_link</text>
</a>
</g>
</g>
<!-- Node125360&#45;&gt;Node125371 -->
<g id="edge10" class="edge">
<title>Node125360&#45;&gt;Node125371</title>
<path fill="none" stroke="#191970" d="M190.8139,-152.411C208.0326,-147.5281 229.1637,-141.5357 247.5733,-136.315"/>
<polygon fill="#191970" stroke="#191970" points="248.5312,-139.6815 257.197,-133.5859 246.6214,-132.947 248.5312,-139.6815"/>
</g>
<!-- Node125373 -->
<g id="node13" class="node">
<title>Node125373</title>
<g id="a_node13"><a xlink:href="quickjs_8c.html#acab22c2945c4d609e57a2484feb68a96" target="_top" xlink:title="prop_hash_end">
<polygon fill="none" stroke="#000000" points="249.5,-76.5 249.5,-95.5 332.5,-95.5 332.5,-76.5 249.5,-76.5"/>
<text text-anchor="middle" x="291" y="-83.5" font-family="Helvetica,sans-Serif" font-size="10.00" fill="#000000">prop_hash_end</text>
</a>
</g>
</g>
<!-- Node125360&#45;&gt;Node125373 -->
<g id="edge12" class="edge">
<title>Node125360&#45;&gt;Node125373</title>
<path fill="none" stroke="#191970" d="M167.9102,-152.3426C182.3751,-139.9507 209.1021,-118.4527 235,-105 239.0557,-102.8933 243.3942,-100.9447 247.7945,-99.163"/>
<polygon fill="#191970" stroke="#191970" points="249.3144,-102.3307 257.4406,-95.5324 246.8486,-95.7793 249.3144,-102.3307"/>
</g>
<!-- Node125374 -->
<g id="node14" class="node">
<title>Node125374</title>
<g id="a_node14"><a xlink:href="quickjs_8c.html#ac05a95a74726df4e854747a64d7d0407" target="_top" xlink:title="resize_shape_hash">
<polygon fill="none" stroke="#000000" points="240.5,-38.5 240.5,-57.5 341.5,-57.5 341.5,-38.5 240.5,-38.5"/>
<text text-anchor="middle" x="291" y="-45.5" font-family="Helvetica,sans-Serif" font-size="10.00" fill="#000000">resize_shape_hash</text>
</a>
</g>
</g>
<!-- Node125360&#45;&gt;Node125374 -->
<g id="edge13" class="edge">
<title>Node125360&#45;&gt;Node125374</title>
<path fill="none" stroke="#191970" d="M162.3464,-152.4216C173.4345,-133.4034 200.7784,-90.6756 235,-67 237.744,-65.1016 240.6938,-63.3791 243.7529,-61.8182"/>
<polygon fill="#191970" stroke="#191970" points="245.4644,-64.8868 253.162,-57.6069 242.6047,-58.4976 245.4644,-64.8868"/>
</g>
<!-- Node125376 -->
<g id="node16" class="node">
<title>Node125376</title>
<g id="a_node16"><a xlink:href="quickjs_8c.html#afeaafcef811076df11d1552bcc7f6a2a" target="_top" xlink:title="shape_initial_hash">
<polygon fill="none" stroke="#000000" points="242.5,-.5 242.5,-19.5 339.5,-19.5 339.5,-.5 242.5,-.5"/>
<text text-anchor="middle" x="291" y="-7.5" font-family="Helvetica,sans-Serif" font-size="10.00" fill="#000000">shape_initial_hash</text>
</a>
</g>
</g>
<!-- Node125360&#45;&gt;Node125376 -->
<g id="edge16" class="edge">
<title>Node125360&#45;&gt;Node125376</title>
<path fill="none" stroke="#191970" d="M159.9886,-152.3949C168.033,-128.0979 192.4603,-63.6644 235,-29 237.2384,-27.176 239.6609,-25.5234 242.2,-24.0267"/>
<polygon fill="#191970" stroke="#191970" points="243.8182,-27.1306 251.1841,-19.5152 240.6769,-20.8751 243.8182,-27.1306"/>
</g>
<!-- Node125362 -->
<g id="node4" class="node">
<title>Node125362</title>
<g id="a_node4"><a xlink:href="list_8h.html#a3a5d0733570b2fafc18f4c71a2968ea5" target="_top" xlink:title="list_add_tail">
<polygon fill="none" stroke="#ff0000" points="410,-304.5 410,-323.5 478,-323.5 478,-304.5 410,-304.5"/>
<text text-anchor="middle" x="444" y="-311.5" font-family="Helvetica,sans-Serif" font-size="10.00" fill="#000000">list_add_tail</text>
</a>
</g>
</g>
<!-- Node125361&#45;&gt;Node125362 -->
<g id="edge3" class="edge">
<title>Node125361&#45;&gt;Node125362</title>
<path fill="none" stroke="#191970" d="M331.1989,-314C352.199,-314 377.9501,-314 399.5436,-314"/>
<polygon fill="#191970" stroke="#191970" points="399.771,-317.5001 409.771,-314 399.7709,-310.5001 399.771,-317.5001"/>
</g>
<!-- Node125368 -->
<g id="node9" class="node">
<title>Node125368</title>
<g id="a_node9"><a xlink:href="quickjs_8c.html#a4b710876403548c1ad3edc7a7719c559" target="_top" xlink:title="js_malloc_rt">
<polygon fill="none" stroke="#000000" points="409.5,-171.5 409.5,-190.5 478.5,-190.5 478.5,-171.5 409.5,-171.5"/>
<text text-anchor="middle" x="444" y="-178.5" font-family="Helvetica,sans-Serif" font-size="10.00" fill="#000000">js_malloc_rt</text>
</a>
</g>
</g>
<!-- Node125367&#45;&gt;Node125368 -->
<g id="edge8" class="edge">
<title>Node125367&#45;&gt;Node125368</title>
<path fill="none" stroke="#191970" d="M320.1383,-165.6185C342.4658,-168.3912 373.6674,-172.2659 399.168,-175.4326"/>
<polygon fill="#191970" stroke="#191970" points="398.9903,-178.9374 409.3454,-176.6965 399.853,-171.9907 398.9903,-178.9374"/>
</g>
<!-- Node125369 -->
<g id="node10" class="node">
<title>Node125369</title>
<g id="a_node10"><a xlink:href="quickjs_8c.html#a344d6c0e45d9bf3861fd9269724045a2" target="_top" xlink:title="JS_ThrowOutOfMemory">
<polygon fill="none" stroke="#ff0000" points="383,-133.5 383,-152.5 505,-152.5 505,-133.5 383,-133.5"/>
<text text-anchor="middle" x="444" y="-140.5" font-family="Helvetica,sans-Serif" font-size="10.00" fill="#000000">JS_ThrowOutOfMemory</text>
</a>
</g>
</g>
<!-- Node125367&#45;&gt;Node125369 -->
<g id="edge9" class="edge">
<title>Node125367&#45;&gt;Node125369</title>
<path fill="none" stroke="#191970" d="M320.1383,-158.3815C335.2045,-156.5106 354.3113,-154.1378 372.9806,-151.8194"/>
<polygon fill="#191970" stroke="#191970" points="373.4858,-155.2836 382.9782,-150.5779 372.623,-148.337 373.4858,-155.2836"/>
</g>
<!-- Node125372 -->
<g id="node12" class="node">
<title>Node125372</title>
<g id="a_node12"><a xlink:href="quickjs_8c.html#a8291bf195606b5d1b0faed795b6dc3ff" target="_top" xlink:title="get_shape_hash">
<polygon fill="none" stroke="#000000" points="400,-86.5 400,-105.5 488,-105.5 488,-86.5 400,-86.5"/>
<text text-anchor="middle" x="444" y="-93.5" font-family="Helvetica,sans-Serif" font-size="10.00" fill="#000000">get_shape_hash</text>
</a>
</g>
</g>
<!-- Node125371&#45;&gt;Node125372 -->
<g id="edge11" class="edge">
<title>Node125371&#45;&gt;Node125372</title>
<path fill="none" stroke="#191970" d="M342.3724,-114.5985C357.6833,-111.7965 374.5049,-108.7181 389.9797,-105.8861"/>
<polygon fill="#191970" stroke="#191970" points="390.7183,-109.3091 399.9249,-104.066 389.4582,-102.4235 390.7183,-109.3091"/>
</g>
<!-- Node125374&#45;&gt;Node125372 -->
<g id="edge14" class="edge">
<title>Node125374&#45;&gt;Node125372</title>
<path fill="none" stroke="#191970" d="M321.5941,-57.5982C345.1519,-64.9888 377.9261,-75.2709 403.6332,-83.3359"/>
<polygon fill="#191970" stroke="#191970" points="402.8697,-86.7645 413.4589,-86.4185 404.9652,-80.0855 402.8697,-86.7645"/>
</g>
<!-- Node125375 -->
<g id="node15" class="node">
<title>Node125375</title>
<g id="a_node15"><a xlink:href="quickjs_8c.html#a69e19dda8a93d613203e0baa06f0ed8d" target="_top" xlink:title="js_free_rt">
<polygon fill="none" stroke="#000000" points="415.5,-38.5 415.5,-57.5 472.5,-57.5 472.5,-38.5 415.5,-38.5"/>
<text text-anchor="middle" x="444" y="-45.5" font-family="Helvetica,sans-Serif" font-size="10.00" fill="#000000">js_free_rt</text>
</a>
</g>
</g>
<!-- Node125374&#45;&gt;Node125375 -->
<g id="edge15" class="edge">
<title>Node125374&#45;&gt;Node125375</title>
<path fill="none" stroke="#191970" d="M341.5219,-48C362.2325,-48 385.8256,-48 405.1492,-48"/>
<polygon fill="#191970" stroke="#191970" points="405.4,-51.5001 415.4,-48 405.3999,-44.5001 405.4,-51.5001"/>
</g>
<!-- Node125377 -->
<g id="node17" class="node">
<title>Node125377</title>
<g id="a_node17"><a xlink:href="quickjs_8c.html#a11f047846c1027dc6066a5f1b2ef292a" target="_top" xlink:title="shape_hash">
<polygon fill="none" stroke="#000000" points="409.5,-.5 409.5,-19.5 478.5,-19.5 478.5,-.5 409.5,-.5"/>
<text text-anchor="middle" x="444" y="-7.5" font-family="Helvetica,sans-Serif" font-size="10.00" fill="#000000">shape_hash</text>
</a>
</g>
</g>
<!-- Node125376&#45;&gt;Node125377 -->
<g id="edge17" class="edge">
<title>Node125376&#45;&gt;Node125377</title>
<path fill="none" stroke="#191970" d="M339.8308,-10C358.8685,-10 380.5483,-10 399.1821,-10"/>
<polygon fill="#191970" stroke="#191970" points="399.1848,-13.5001 409.1848,-10 399.1847,-6.5001 399.1848,-13.5001"/>
</g>
</g>
</svg>
