<?xml version="1.0" encoding="UTF-8" standalone="no"?>
<!DOCTYPE svg PUBLIC "-//W3C//DTD SVG 1.1//EN"
 "http://www.w3.org/Graphics/SVG/1.1/DTD/svg11.dtd">
<!-- Generated by graphviz version 2.40.1 (20161225.0304)
 -->
<!-- Title: JS_NewAtomLen Pages: 1 -->
<!--zoomable 698 -->
<svg id="main" version="1.1" xmlns="http://www.w3.org/2000/svg" xmlns:xlink="http://www.w3.org/1999/xlink" xml:space="preserve" onload="init(evt)">
<style type="text/css"><![CDATA[
.edge:hover path { stroke: red; }
.edge:hover polygon { stroke: red; fill: red; }
]]></style>
<script type="text/javascript"><![CDATA[
var edges = document.getElementsByTagName('g');
if (edges && edges.length) {
  for (var i=0;i<edges.length;i++) {
    if (edges[i].id.substr(0,4)=='edge') {
      edges[i].setAttribute('class','edge');
    }
  }
}
]]></script>
        <defs>
                <circle id="rim" cx="0" cy="0" r="7"/>
                <circle id="rim2" cx="0" cy="0" r="3.5"/>
                <g id="zoomPlus">
                        <use xlink:href="#rim" fill="#404040">
                                <set attributeName="fill" to="#808080" begin="zoomplus.mouseover" end="zoomplus.mouseout"/>
                        </use>
                        <path d="M-4,0h8M0,-4v8" fill="none" stroke="white" stroke-width="1.5" pointer-events="none"/>
                </g>
                <g id="zoomMin">
                        <use xlink:href="#rim" fill="#404040">
                                <set attributeName="fill" to="#808080" begin="zoomminus.mouseover" end="zoomminus.mouseout"/>
                        </use>
                        <path d="M-4,0h8" fill="none" stroke="white" stroke-width="1.5" pointer-events="none"/>
                </g>
                <g id="dirArrow">
                        <path fill="none" stroke="white" stroke-width="1.5" d="M0,-3.0v7 M-2.5,-0.5L0,-3.0L2.5,-0.5"/>
                </g>
               <g id="resetDef">
                       <use xlink:href="#rim2" fill="#404040">
                               <set attributeName="fill" to="#808080" begin="reset.mouseover" end="reset.mouseout"/>
                       </use>
               </g>
        </defs>

<script type="text/javascript">
var viewWidth = 750;
var viewHeight = 698;
var sectionId = 'dynsection-249';
</script>
<script xlink:href="svgpan.js"/>
<svg id="graph" class="graph">
<g id="viewport">
<title>JS_NewAtomLen</title>
<!-- Node84110 -->
<g id="node1" class="node">
<title>Node84110</title>
<polygon fill="#bfbfbf" stroke="#000000" points="0,-449.5 0,-468.5 93,-468.5 93,-449.5 0,-449.5"/>
<text text-anchor="middle" x="46.5" y="-456.5" font-family="Helvetica,sans-Serif" font-size="10.00" fill="#000000">JS_NewAtomLen</text>
</g>
<!-- Node84111 -->
<g id="node2" class="node">
<title>Node84111</title>
<g id="a_node2"><a xlink:href="quickjs_8c.html#aadfd9c31a6f69160c12e99b8d5eb5b3c" target="_top" xlink:title="js_atom_concat_str">
<polygon fill="none" stroke="#000000" points="129,-594.5 129,-613.5 231,-613.5 231,-594.5 129,-594.5"/>
<text text-anchor="middle" x="180" y="-601.5" font-family="Helvetica,sans-Serif" font-size="10.00" fill="#000000">js_atom_concat_str</text>
</a>
</g>
</g>
<!-- Node84110&#45;&gt;Node84111 -->
<g id="edge1" class="edge">
<title>Node84110&#45;&gt;Node84111</title>
<path fill="none" stroke="#191970" d="M62.3818,-476.2499C90.6353,-506.9372 148.7518,-570.06 171.0334,-594.261"/>
<polygon fill="#191970" stroke="#191970" points="64.6075,-473.5 55.2593,-468.5139 59.4578,-478.2413 64.6075,-473.5"/>
</g>
<!-- Node84151 -->
<g id="node7" class="node">
<title>Node84151</title>
<g id="a_node7"><a xlink:href="quickjs_8c.html#aa2ef5af1544a3012f91a80c98c326b8f" target="_top" xlink:title="JS_NewAtom">
<polygon fill="none" stroke="#000000" points="141.5,-304.5 141.5,-323.5 218.5,-323.5 218.5,-304.5 141.5,-304.5"/>
<text text-anchor="middle" x="180" y="-311.5" font-family="Helvetica,sans-Serif" font-size="10.00" fill="#000000">JS_NewAtom</text>
</a>
</g>
</g>
<!-- Node84110&#45;&gt;Node84151 -->
<g id="edge7" class="edge">
<title>Node84110&#45;&gt;Node84151</title>
<path fill="none" stroke="#191970" d="M62.3818,-441.7501C90.6353,-411.0628 148.7518,-347.94 171.0334,-323.739"/>
<polygon fill="#191970" stroke="#191970" points="59.4578,-439.7587 55.2593,-449.4861 64.6075,-444.5 59.4578,-439.7587"/>
</g>
<!-- Node84734 -->
<g id="node27" class="node">
<title>Node84734</title>
<g id="a_node27"><a xlink:href="quickjs_8c.html#adab89942b11c3b3cbf3ecb9e763b0ab6" target="_top" xlink:title="json_parse_ident">
<polygon fill="none" stroke="#000000" points="135,-133.5 135,-152.5 225,-152.5 225,-133.5 135,-133.5"/>
<text text-anchor="middle" x="180" y="-140.5" font-family="Helvetica,sans-Serif" font-size="10.00" fill="#000000">json_parse_ident</text>
</a>
</g>
</g>
<!-- Node84110&#45;&gt;Node84734 -->
<g id="edge31" class="edge">
<title>Node84110&#45;&gt;Node84734</title>
<path fill="none" stroke="#191970" d="M54.6304,-439.7551C80.0187,-379.6598 157.2412,-196.8711 175.9065,-152.6894"/>
<polygon fill="#191970" stroke="#191970" points="51.3094,-438.6224 50.6418,-449.1962 57.7576,-441.3466 51.3094,-438.6224"/>
</g>
<!-- Node84737 -->
<g id="node29" class="node">
<title>Node84737</title>
<g id="a_node29"><a xlink:href="quickjs_8c.html#ad91865d0889d1420e3e70d5d497a9bdb" target="_top" xlink:title="parse_ident">
<polygon fill="none" stroke="#000000" points="146.5,-651.5 146.5,-670.5 213.5,-670.5 213.5,-651.5 146.5,-651.5"/>
<text text-anchor="middle" x="180" y="-658.5" font-family="Helvetica,sans-Serif" font-size="10.00" fill="#000000">parse_ident</text>
</a>
</g>
</g>
<!-- Node84110&#45;&gt;Node84737 -->
<g id="edge33" class="edge">
<title>Node84110&#45;&gt;Node84737</title>
<path fill="none" stroke="#191970" d="M52.9216,-478.4358C64.3596,-510.972 90.7093,-577.379 129,-623 138.6541,-634.5022 152.4442,-644.508 163.2513,-651.361"/>
<polygon fill="#191970" stroke="#191970" points="56.1667,-477.1083 49.6185,-468.7793 49.5434,-479.3738 56.1667,-477.1083"/>
</g>
<!-- Node84112 -->
<g id="node3" class="node">
<title>Node84112</title>
<g id="a_node3"><a xlink:href="quickjs_8c.html#aa38698096df1fd806b60ab8b209fa4a8" target="_top" xlink:title="js_atom_concat_num">
<polygon fill="none" stroke="#000000" points="280.5,-632.5 280.5,-651.5 390.5,-651.5 390.5,-632.5 280.5,-632.5"/>
<text text-anchor="middle" x="335.5" y="-639.5" font-family="Helvetica,sans-Serif" font-size="10.00" fill="#000000">js_atom_concat_num</text>
</a>
</g>
</g>
<!-- Node84111&#45;&gt;Node84112 -->
<g id="edge2" class="edge">
<title>Node84111&#45;&gt;Node84112</title>
<path fill="none" stroke="#191970" d="M228.9742,-615.968C250.7652,-621.2931 276.0672,-627.4762 296.543,-632.4799"/>
<polygon fill="#191970" stroke="#191970" points="229.7843,-612.563 219.2392,-613.589 228.1225,-619.3629 229.7843,-612.563"/>
</g>
<!-- Node84147 -->
<g id="node5" class="node">
<title>Node84147</title>
<g id="a_node5"><a xlink:href="quickjs_8c.html#a6bb36fa120270db7f4e19891b8a0bfe1" target="_top" xlink:title="get_private_setter_name">
<polygon fill="none" stroke="#000000" points="273.5,-594.5 273.5,-613.5 397.5,-613.5 397.5,-594.5 273.5,-594.5"/>
<text text-anchor="middle" x="335.5" y="-601.5" font-family="Helvetica,sans-Serif" font-size="10.00" fill="#000000">get_private_setter_name</text>
</a>
</g>
</g>
<!-- Node84111&#45;&gt;Node84147 -->
<g id="edge4" class="edge">
<title>Node84111&#45;&gt;Node84147</title>
<path fill="none" stroke="#191970" d="M241.627,-604C252.0714,-604 262.9218,-604 273.3789,-604"/>
<polygon fill="#191970" stroke="#191970" points="241.3475,-600.5001 231.3475,-604 241.3474,-607.5001 241.3475,-600.5001"/>
</g>
<!-- Node84113 -->
<g id="node4" class="node">
<title>Node84113</title>
<g id="a_node4"><a xlink:href="quickjs_8c.html#a00eb789430243c24dab4a63ad6a79653" target="_top" xlink:title="js_parse_class">
<polygon fill="none" stroke="#ff0000" points="471,-635.5 471,-654.5 553,-654.5 553,-635.5 471,-635.5"/>
<text text-anchor="middle" x="512" y="-642.5" font-family="Helvetica,sans-Serif" font-size="10.00" fill="#000000">js_parse_class</text>
</a>
</g>
</g>
<!-- Node84112&#45;&gt;Node84113 -->
<g id="edge3" class="edge">
<title>Node84112&#45;&gt;Node84113</title>
<path fill="none" stroke="#191970" d="M401.0663,-643.1144C424.4425,-643.5118 450.0967,-643.9478 470.8413,-644.3004"/>
<polygon fill="#191970" stroke="#191970" points="400.9195,-639.6115 390.8614,-642.941 400.8005,-646.6105 400.9195,-639.6115"/>
</g>
<!-- Node84147&#45;&gt;Node84113 -->
<g id="edge5" class="edge">
<title>Node84147&#45;&gt;Node84113</title>
<path fill="none" stroke="#191970" d="M386.4226,-615.8291C413.2712,-622.0658 445.7707,-629.6153 470.9804,-635.4714"/>
<polygon fill="#191970" stroke="#191970" points="386.9689,-612.3628 376.4363,-613.5093 385.385,-619.1813 386.9689,-612.3628"/>
</g>
<!-- Node84148 -->
<g id="node6" class="node">
<title>Node84148</title>
<g id="a_node6"><a xlink:href="quickjs_8c.html#a7d2ad72913c8768cc7bceeb2693d53c4" target="_top" xlink:title="resolve_scope_private\l_field">
<polygon fill="none" stroke="#ff0000" points="455,-586 455,-616 569,-616 569,-586 455,-586"/>
<text text-anchor="start" x="463" y="-604" font-family="Helvetica,sans-Serif" font-size="10.00" fill="#000000">resolve_scope_private</text>
<text text-anchor="middle" x="512" y="-593" font-family="Helvetica,sans-Serif" font-size="10.00" fill="#000000">_field</text>
</a>
</g>
</g>
<!-- Node84147&#45;&gt;Node84148 -->
<g id="edge6" class="edge">
<title>Node84147&#45;&gt;Node84148</title>
<path fill="none" stroke="#191970" d="M407.8739,-602.7698C423.4974,-602.5043 439.8075,-602.2271 454.7574,-601.973"/>
<polygon fill="#191970" stroke="#191970" points="407.6663,-599.2728 397.7273,-602.9423 407.7854,-606.2718 407.6663,-599.2728"/>
</g>
<!-- Node84152 -->
<g id="node8" class="node">
<title>Node84152</title>
<g id="a_node8"><a xlink:href="classqjs_1_1Value.html#ac6bbb5f2ab1ed265b2b508325807e2fb" target="_top" xlink:title="qjs::Value::add_getter\l_setter">
<polygon fill="none" stroke="#000000" points="279.5,-419 279.5,-449 391.5,-449 391.5,-419 279.5,-419"/>
<text text-anchor="start" x="287.5" y="-437" font-family="Helvetica,sans-Serif" font-size="10.00" fill="#000000">qjs::Value::add_getter</text>
<text text-anchor="middle" x="335.5" y="-426" font-family="Helvetica,sans-Serif" font-size="10.00" fill="#000000">_setter</text>
</a>
</g>
</g>
<!-- Node84151&#45;&gt;Node84152 -->
<g id="edge8" class="edge">
<title>Node84151&#45;&gt;Node84152</title>
<path fill="none" stroke="#191970" d="M192.4323,-332.1794C207.7361,-353.317 235.588,-387.9845 267,-409 272.6819,-412.8013 279.0146,-416.1113 285.4707,-418.9681"/>
<polygon fill="#191970" stroke="#191970" points="195.1211,-329.9194 186.4918,-323.7724 189.4043,-333.959 195.1211,-329.9194"/>
</g>
<!-- Node84153 -->
<g id="node9" class="node">
<title>Node84153</title>
<g id="a_node9"><a xlink:href="classqjs_1_1Value.html#a7816587475ecf667433f9ea681df925b" target="_top" xlink:title="qjs::Value::add_getter">
<polygon fill="none" stroke="#000000" points="279.5,-380.5 279.5,-399.5 391.5,-399.5 391.5,-380.5 279.5,-380.5"/>
<text text-anchor="middle" x="335.5" y="-387.5" font-family="Helvetica,sans-Serif" font-size="10.00" fill="#000000">qjs::Value::add_getter</text>
</a>
</g>
</g>
<!-- Node84151&#45;&gt;Node84153 -->
<g id="edge9" class="edge">
<title>Node84151&#45;&gt;Node84153</title>
<path fill="none" stroke="#191970" d="M200.0382,-329.7255C217.0322,-342.4057 242.4876,-359.8976 267,-371 275.2067,-374.717 284.303,-377.8592 293.1142,-380.452"/>
<polygon fill="#191970" stroke="#191970" points="202.0511,-326.8592 191.9725,-323.5925 197.8142,-332.4314 202.0511,-326.8592"/>
</g>
<!-- Node84154 -->
<g id="node10" class="node">
<title>Node84154</title>
<g id="a_node10"><a xlink:href="quickjs_8c.html#a27c3a725d4014a35b5bedcdf6e70dec7" target="_top" xlink:title="JS_NewAtomString">
<polygon fill="none" stroke="#000000" points="284,-304.5 284,-323.5 387,-323.5 387,-304.5 284,-304.5"/>
<text text-anchor="middle" x="335.5" y="-311.5" font-family="Helvetica,sans-Serif" font-size="10.00" fill="#000000">JS_NewAtomString</text>
</a>
</g>
</g>
<!-- Node84151&#45;&gt;Node84154 -->
<g id="edge10" class="edge">
<title>Node84151&#45;&gt;Node84154</title>
<path fill="none" stroke="#191970" d="M228.8642,-314C246.397,-314 266.2142,-314 283.9663,-314"/>
<polygon fill="#191970" stroke="#191970" points="228.8381,-310.5001 218.8381,-314 228.8381,-317.5001 228.8381,-310.5001"/>
</g>
<!-- Node84157 -->
<g id="node12" class="node">
<title>Node84157</title>
<g id="a_node12"><a xlink:href="quickjs_8c.html#a21cfe4c4fc9372dc0b95b37667cff0c9" target="_top" xlink:title="JS_NewCFunction3">
<polygon fill="none" stroke="#000000" points="283.5,-190.5 283.5,-209.5 387.5,-209.5 387.5,-190.5 283.5,-190.5"/>
<text text-anchor="middle" x="335.5" y="-197.5" font-family="Helvetica,sans-Serif" font-size="10.00" fill="#000000">JS_NewCFunction3</text>
</a>
</g>
</g>
<!-- Node84151&#45;&gt;Node84157 -->
<g id="edge12" class="edge">
<title>Node84151&#45;&gt;Node84157</title>
<path fill="none" stroke="#191970" d="M191.9205,-295.7153C206.9018,-274.1866 234.6128,-238.8544 267,-219 273.313,-215.1299 280.4296,-212.0302 287.6263,-209.5524"/>
<polygon fill="#191970" stroke="#191970" points="188.8367,-294.0274 186.132,-304.2712 194.6345,-297.9499 188.8367,-294.0274"/>
</g>
<!-- Node84175 -->
<g id="node17" class="node">
<title>Node84175</title>
<g id="a_node17"><a xlink:href="quickjs_8c.html#a04f589361a4fbc30d997402e92a50de2" target="_top" xlink:title="JS_GetPropertyStr">
<polygon fill="none" stroke="#ff0000" points="286,-266.5 286,-285.5 385,-285.5 385,-266.5 286,-266.5"/>
<text text-anchor="middle" x="335.5" y="-273.5" font-family="Helvetica,sans-Serif" font-size="10.00" fill="#000000">JS_GetPropertyStr</text>
</a>
</g>
</g>
<!-- Node84151&#45;&gt;Node84175 -->
<g id="edge19" class="edge">
<title>Node84151&#45;&gt;Node84175</title>
<path fill="none" stroke="#191970" d="M228.6152,-302.1198C250.5135,-296.7684 276.0166,-290.5361 296.6181,-285.5017"/>
<polygon fill="#191970" stroke="#191970" points="227.7214,-298.7351 218.8381,-304.509 229.3831,-305.535 227.7214,-298.7351"/>
</g>
<!-- Node84192 -->
<g id="node18" class="node">
<title>Node84192</title>
<g id="a_node18"><a xlink:href="quickjs_8c.html#a62617fe11025d2e5a545db069fc28e64" target="_top" xlink:title="JS_SetPropertyStr">
<polygon fill="none" stroke="#ff0000" points="286.5,-228.5 286.5,-247.5 384.5,-247.5 384.5,-228.5 286.5,-228.5"/>
<text text-anchor="middle" x="335.5" y="-235.5" font-family="Helvetica,sans-Serif" font-size="10.00" fill="#000000">JS_SetPropertyStr</text>
</a>
</g>
</g>
<!-- Node84151&#45;&gt;Node84192 -->
<g id="edge20" class="edge">
<title>Node84151&#45;&gt;Node84192</title>
<path fill="none" stroke="#191970" d="M200.0382,-298.2745C217.0322,-285.5943 242.4876,-268.1024 267,-257 275.2067,-253.283 284.303,-250.1408 293.1142,-247.548"/>
<polygon fill="#191970" stroke="#191970" points="197.8142,-295.5686 191.9725,-304.4075 202.0511,-301.1408 197.8142,-295.5686"/>
</g>
<!-- Node84199 -->
<g id="node19" class="node">
<title>Node84199</title>
<g id="a_node19"><a xlink:href="quickjs_8c.html#a841f4cb887e4d9e03e94a0697255e578" target="_top" xlink:title="JS_DefinePropertyValueStr">
<polygon fill="none" stroke="#ff0000" points="267,-38.5 267,-57.5 404,-57.5 404,-38.5 267,-38.5"/>
<text text-anchor="middle" x="335.5" y="-45.5" font-family="Helvetica,sans-Serif" font-size="10.00" fill="#000000">JS_DefinePropertyValueStr</text>
</a>
</g>
</g>
<!-- Node84151&#45;&gt;Node84199 -->
<g id="edge21" class="edge">
<title>Node84151&#45;&gt;Node84199</title>
<path fill="none" stroke="#191970" d="M186.6085,-294.4758C206.1562,-236.8256 262.6108,-71.1001 267,-67 271.1486,-63.1247 276.0179,-60.0286 281.2151,-57.5568"/>
<polygon fill="#191970" stroke="#191970" points="183.2068,-293.6091 183.3127,-304.2034 189.8366,-295.8553 183.2068,-293.6091"/>
</g>
<!-- Node84213 -->
<g id="node20" class="node">
<title>Node84213</title>
<g id="a_node20"><a xlink:href="quickjs_8c.html#ac29cc4ec49efa0f0308e494316ce5139" target="_top" xlink:title="JS_NewCModule">
<polygon fill="none" stroke="#ff0000" points="289,-152.5 289,-171.5 382,-171.5 382,-152.5 289,-152.5"/>
<text text-anchor="middle" x="335.5" y="-159.5" font-family="Helvetica,sans-Serif" font-size="10.00" fill="#000000">JS_NewCModule</text>
</a>
</g>
</g>
<!-- Node84151&#45;&gt;Node84213 -->
<g id="edge23" class="edge">
<title>Node84151&#45;&gt;Node84213</title>
<path fill="none" stroke="#191970" d="M187.3268,-294.7893C199.4165,-265.6987 226.3256,-210.7214 267,-181 273.477,-176.2672 281.0809,-172.7128 288.822,-170.0437"/>
<polygon fill="#191970" stroke="#191970" points="184.0105,-293.6563 183.5452,-304.2409 190.5096,-296.2567 184.0105,-293.6563"/>
</g>
<!-- Node84216 -->
<g id="node21" class="node">
<title>Node84216</title>
<g id="a_node21"><a xlink:href="quickjs_8c.html#a369af749a1fb181216fe8a8b55f841b0" target="_top" xlink:title="JS_AddModuleExport">
<polygon fill="none" stroke="#ff0000" points="280,-114.5 280,-133.5 391,-133.5 391,-114.5 280,-114.5"/>
<text text-anchor="middle" x="335.5" y="-121.5" font-family="Helvetica,sans-Serif" font-size="10.00" fill="#000000">JS_AddModuleExport</text>
</a>
</g>
</g>
<!-- Node84151&#45;&gt;Node84216 -->
<g id="edge24" class="edge">
<title>Node84151&#45;&gt;Node84216</title>
<path fill="none" stroke="#191970" d="M184.5392,-293.9736C193.7128,-258.1595 217.9022,-183.1409 267,-143 271.7773,-139.0942 277.3015,-135.9894 283.0986,-133.5216"/>
<polygon fill="#191970" stroke="#191970" points="181.0316,-293.5868 182.0758,-304.13 187.8343,-295.2368 181.0316,-293.5868"/>
</g>
<!-- Node84219 -->
<g id="node22" class="node">
<title>Node84219</title>
<g id="a_node22"><a xlink:href="quickjs_8c.html#acc3990661d2851b858601061a62cc7d6" target="_top" xlink:title="JS_SetModuleExport">
<polygon fill="none" stroke="#ff0000" points="281,-76.5 281,-95.5 390,-95.5 390,-76.5 281,-76.5"/>
<text text-anchor="middle" x="335.5" y="-83.5" font-family="Helvetica,sans-Serif" font-size="10.00" fill="#000000">JS_SetModuleExport</text>
</a>
</g>
</g>
<!-- Node84151&#45;&gt;Node84219 -->
<g id="edge25" class="edge">
<title>Node84151&#45;&gt;Node84219</title>
<path fill="none" stroke="#191970" d="M185.6588,-294.6937C199.6677,-248.1221 237.0008,-131.4954 267,-105 271.3476,-101.1602 276.4076,-98.0899 281.7721,-95.636"/>
<polygon fill="#191970" stroke="#191970" points="182.2498,-293.8784 182.7551,-304.4611 188.9596,-295.8731 182.2498,-293.8784"/>
</g>
<!-- Node84222 -->
<g id="node23" class="node">
<title>Node84222</title>
<g id="a_node23"><a xlink:href="quickjs_8c.html#a90dd988b99a5bc7b2a4aaffd2de405a9" target="_top" xlink:title="js_host_resolve_imported\l_module">
<polygon fill="none" stroke="#ff0000" points="271.5,-545 271.5,-575 399.5,-575 399.5,-545 271.5,-545"/>
<text text-anchor="start" x="279.5" y="-563" font-family="Helvetica,sans-Serif" font-size="10.00" fill="#000000">js_host_resolve_imported</text>
<text text-anchor="middle" x="335.5" y="-552" font-family="Helvetica,sans-Serif" font-size="10.00" fill="#000000">_module</text>
</a>
</g>
</g>
<!-- Node84151&#45;&gt;Node84222 -->
<g id="edge26" class="edge">
<title>Node84151&#45;&gt;Node84222</title>
<path fill="none" stroke="#191970" d="M182.8036,-333.481C189.7254,-374.8985 211.2905,-472.5997 267,-530 272.8773,-536.0557 280.1862,-540.9703 287.8207,-544.9328"/>
<polygon fill="#191970" stroke="#191970" points="186.2586,-332.9211 181.2539,-323.5828 179.3429,-334.0038 186.2586,-332.9211"/>
</g>
<!-- Node84729 -->
<g id="node24" class="node">
<title>Node84729</title>
<g id="a_node24"><a xlink:href="quickjs_8c.html#a8020fd59ed57f7f299216ec1ebfcda01" target="_top" xlink:title="js_new_function_def">
<polygon fill="none" stroke="#ff0000" points="282.5,-342.5 282.5,-361.5 388.5,-361.5 388.5,-342.5 282.5,-342.5"/>
<text text-anchor="middle" x="335.5" y="-349.5" font-family="Helvetica,sans-Serif" font-size="10.00" fill="#000000">js_new_function_def</text>
</a>
</g>
</g>
<!-- Node84151&#45;&gt;Node84729 -->
<g id="edge27" class="edge">
<title>Node84151&#45;&gt;Node84729</title>
<path fill="none" stroke="#191970" d="M228.6152,-325.8802C250.5135,-331.2316 276.0166,-337.4639 296.6181,-342.4983"/>
<polygon fill="#191970" stroke="#191970" points="229.3831,-322.465 218.8381,-323.491 227.7214,-329.2649 229.3831,-322.465"/>
</g>
<!-- Node84128 -->
<g id="node25" class="node">
<title>Node84128</title>
<g id="a_node25"><a xlink:href="quickjs_8c.html#a46a8a7e155cfd0af984f6725f060f0d6" target="_top" xlink:title="__JS_EvalInternal">
<polygon fill="none" stroke="#ff0000" points="464,-351.5 464,-370.5 560,-370.5 560,-351.5 464,-351.5"/>
<text text-anchor="middle" x="512" y="-358.5" font-family="Helvetica,sans-Serif" font-size="10.00" fill="#000000">__JS_EvalInternal</text>
</a>
</g>
</g>
<!-- Node84151&#45;&gt;Node84128 -->
<g id="edge29" class="edge">
<title>Node84151&#45;&gt;Node84128</title>
<path fill="none" stroke="#191970" d="M182.5685,-333.8623C188.8451,-373.1876 208.9513,-460.3222 267,-497 318.4747,-529.524 349.1682,-523.475 404,-497 460.4743,-469.7319 496.4748,-396.9932 507.9895,-370.6748"/>
<polygon fill="#191970" stroke="#191970" points="186.0242,-333.3041 181.1177,-323.9138 179.0975,-334.3142 186.0242,-333.3041"/>
</g>
<!-- Node84733 -->
<g id="node26" class="node">
<title>Node84733</title>
<g id="a_node26"><a xlink:href="quickjs_8c.html#ae8e62d181b34d2e7bdda0b099c0880f5" target="_top" xlink:title="find_atom">
<polygon fill="none" stroke="#ff0000" points="306,-468.5 306,-487.5 365,-487.5 365,-468.5 306,-468.5"/>
<text text-anchor="middle" x="335.5" y="-475.5" font-family="Helvetica,sans-Serif" font-size="10.00" fill="#000000">find_atom</text>
</a>
</g>
</g>
<!-- Node84151&#45;&gt;Node84733 -->
<g id="edge30" class="edge">
<title>Node84151&#45;&gt;Node84733</title>
<path fill="none" stroke="#191970" d="M186.3601,-333.5987C197.5444,-364.9225 223.7403,-426.0815 267,-459 278.1962,-467.5198 293.0045,-472.2194 305.9877,-474.8117"/>
<polygon fill="#191970" stroke="#191970" points="189.5762,-332.1866 183.0267,-323.8586 182.9533,-334.4532 189.5762,-332.1866"/>
</g>
<!-- Node84155 -->
<g id="node11" class="node">
<title>Node84155</title>
<g id="a_node11"><a xlink:href="quickjs_8c.html#a7efb53c2f76fd5cc0e584449437ec09c" target="_top" xlink:title="JS_AddIntrinsicBasicObjects">
<polygon fill="none" stroke="#ff0000" points="440,-294.5 440,-313.5 584,-313.5 584,-294.5 440,-294.5"/>
<text text-anchor="middle" x="512" y="-301.5" font-family="Helvetica,sans-Serif" font-size="10.00" fill="#000000">JS_AddIntrinsicBasicObjects</text>
</a>
</g>
</g>
<!-- Node84154&#45;&gt;Node84155 -->
<g id="edge11" class="edge">
<title>Node84154&#45;&gt;Node84155</title>
<path fill="none" stroke="#191970" d="M397.3029,-310.4984C411.0143,-309.7216 425.6642,-308.8915 439.7512,-308.0934"/>
<polygon fill="#191970" stroke="#191970" points="396.8116,-307.0206 387.0256,-311.0807 397.2076,-314.0093 396.8116,-307.0206"/>
</g>
<!-- Node84157&#45;&gt;Node84155 -->
<g id="edge16" class="edge">
<title>Node84157&#45;&gt;Node84155</title>
<path fill="none" stroke="#191970" d="M392.4744,-213.1573C396.4845,-214.8785 400.3712,-216.8174 404,-219 423.9362,-230.9909 422.1372,-242.0951 440,-257 457.5362,-271.6324 479.8291,-285.5626 494.9291,-294.4033"/>
<polygon fill="#191970" stroke="#191970" points="393.547,-209.8205 382.9563,-209.5237 391.0504,-216.3601 393.547,-209.8205"/>
</g>
<!-- Node84158 -->
<g id="node13" class="node">
<title>Node84158</title>
<g id="a_node13"><a xlink:href="quickjs_8c.html#a76d4772691a319f48dc636a0e7f6c1ed" target="_top" xlink:title="JS_NewCFunction2">
<polygon fill="none" stroke="#ff0000" points="460,-190.5 460,-209.5 564,-209.5 564,-190.5 460,-190.5"/>
<text text-anchor="middle" x="512" y="-197.5" font-family="Helvetica,sans-Serif" font-size="10.00" fill="#000000">JS_NewCFunction2</text>
</a>
</g>
</g>
<!-- Node84157&#45;&gt;Node84158 -->
<g id="edge13" class="edge">
<title>Node84157&#45;&gt;Node84158</title>
<path fill="none" stroke="#191970" d="M397.5983,-200C417.9093,-200 440.2519,-200 459.7606,-200"/>
<polygon fill="#191970" stroke="#191970" points="397.5012,-196.5001 387.5012,-200 397.5012,-203.5001 397.5012,-196.5001"/>
</g>
<!-- Node84174 -->
<g id="node14" class="node">
<title>Node84174</title>
<g id="a_node14"><a xlink:href="quickjs_8c.html#a2e66fcf1bc1d19f346317f10ee590621" target="_top" xlink:title="JS_AddIntrinsicPromise">
<polygon fill="none" stroke="#ff0000" points="620,-171.5 620,-190.5 742,-190.5 742,-171.5 620,-171.5"/>
<text text-anchor="middle" x="681" y="-178.5" font-family="Helvetica,sans-Serif" font-size="10.00" fill="#000000">JS_AddIntrinsicPromise</text>
</a>
</g>
</g>
<!-- Node84157&#45;&gt;Node84174 -->
<g id="edge15" class="edge">
<title>Node84157&#45;&gt;Node84174</title>
<path fill="none" stroke="#191970" d="M388.0074,-188.5487C404.5581,-185.4529 422.9662,-182.5359 440,-181 501.0483,-175.4953 571.1495,-176.2909 619.9497,-177.9786"/>
<polygon fill="#191970" stroke="#191970" points="387.1253,-185.1543 377.9713,-190.4886 388.4538,-192.0271 387.1253,-185.1543"/>
</g>
<!-- Node84165 -->
<g id="node15" class="node">
<title>Node84165</title>
<g id="a_node15"><a xlink:href="quickjs_8c.html#a4c9489297c684663f30e517204a9ec14" target="_top" xlink:title="JS_AddIntrinsicBaseObjects">
<polygon fill="none" stroke="#ff0000" points="441,-76.5 441,-95.5 583,-95.5 583,-76.5 441,-76.5"/>
<text text-anchor="middle" x="512" y="-83.5" font-family="Helvetica,sans-Serif" font-size="10.00" fill="#000000">JS_AddIntrinsicBaseObjects</text>
</a>
</g>
</g>
<!-- Node84157&#45;&gt;Node84165 -->
<g id="edge17" class="edge">
<title>Node84157&#45;&gt;Node84165</title>
<path fill="none" stroke="#191970" d="M391.3532,-186.9373C395.7364,-185.1853 400.0065,-183.2142 404,-181 422.9825,-170.475 423.7743,-162.4166 440,-148 461.2101,-129.1547 486.4211,-107.645 500.6822,-95.5582"/>
<polygon fill="#191970" stroke="#191970" points="389.8647,-183.7531 381.6401,-190.4319 392.2345,-190.3398 389.8647,-183.7531"/>
</g>
<!-- Node84166 -->
<g id="node16" class="node">
<title>Node84166</title>
<g id="a_node16"><a xlink:href="quickjs_8c.html#a177d09828596bfe6df4bd90b2e93989d" target="_top" xlink:title="JS_AddIntrinsicTypedArrays">
<polygon fill="none" stroke="#ff0000" points="441.5,-228.5 441.5,-247.5 582.5,-247.5 582.5,-228.5 441.5,-228.5"/>
<text text-anchor="middle" x="512" y="-235.5" font-family="Helvetica,sans-Serif" font-size="10.00" fill="#000000">JS_AddIntrinsicTypedArrays</text>
</a>
</g>
</g>
<!-- Node84157&#45;&gt;Node84166 -->
<g id="edge18" class="edge">
<title>Node84157&#45;&gt;Node84166</title>
<path fill="none" stroke="#191970" d="M390.0876,-211.7526C415.0447,-217.1258 444.2268,-223.4086 467.7819,-228.4799"/>
<polygon fill="#191970" stroke="#191970" points="390.5511,-208.2722 380.0384,-209.589 389.0777,-215.1154 390.5511,-208.2722"/>
</g>
<!-- Node84158&#45;&gt;Node84174 -->
<g id="edge14" class="edge">
<title>Node84158&#45;&gt;Node84174</title>
<path fill="none" stroke="#191970" d="M574.2228,-193.0045C589.1333,-191.3282 605.0403,-189.5398 619.8994,-187.8693"/>
<polygon fill="#191970" stroke="#191970" points="573.6309,-189.5489 564.0846,-194.1443 574.413,-196.5051 573.6309,-189.5489"/>
</g>
<!-- Node84199&#45;&gt;Node84165 -->
<g id="edge22" class="edge">
<title>Node84199&#45;&gt;Node84165</title>
<path fill="none" stroke="#191970" d="M390.0876,-59.7526C415.0447,-65.1258 444.2268,-71.4086 467.7819,-76.4799"/>
<polygon fill="#191970" stroke="#191970" points="390.5511,-56.2722 380.0384,-57.589 389.0777,-63.1154 390.5511,-56.2722"/>
</g>
<!-- Node84729&#45;&gt;Node84128 -->
<g id="edge28" class="edge">
<title>Node84729&#45;&gt;Node84128</title>
<path fill="none" stroke="#191970" d="M399.2091,-355.2486C420.5273,-356.3357 443.9211,-357.5286 463.8499,-358.5448"/>
<polygon fill="#191970" stroke="#191970" points="399.1001,-351.7386 388.9348,-354.7247 398.7436,-358.7295 399.1001,-351.7386"/>
</g>
<!-- Node84735 -->
<g id="node28" class="node">
<title>Node84735</title>
<g id="a_node28"><a xlink:href="quickjs_8c.html#a7fbd31397bde22dfa2b876b945f9afb4" target="_top" xlink:title="json_next_token">
<polygon fill="none" stroke="#ff0000" points="291.5,-.5 291.5,-19.5 379.5,-19.5 379.5,-.5 291.5,-.5"/>
<text text-anchor="middle" x="335.5" y="-7.5" font-family="Helvetica,sans-Serif" font-size="10.00" fill="#000000">json_next_token</text>
</a>
</g>
</g>
<!-- Node84734&#45;&gt;Node84735 -->
<g id="edge32" class="edge">
<title>Node84734&#45;&gt;Node84735</title>
<path fill="none" stroke="#191970" d="M189.2117,-124.3773C202.7438,-98.9625 230.4078,-53.753 267,-29 274.2578,-24.0904 282.7587,-20.4427 291.255,-17.7345"/>
<polygon fill="#191970" stroke="#191970" points="186.0534,-122.8655 184.582,-133.3577 192.2753,-126.0731 186.0534,-122.8655"/>
</g>
<!-- Node84738 -->
<g id="node30" class="node">
<title>Node84738</title>
<g id="a_node30"><a xlink:href="quickjs_8c.html#a75a3798e2045f6e403c1ef467126d1fb" target="_top" xlink:title="next_token">
<polygon fill="none" stroke="#ff0000" points="303,-670.5 303,-689.5 368,-689.5 368,-670.5 303,-670.5"/>
<text text-anchor="middle" x="335.5" y="-677.5" font-family="Helvetica,sans-Serif" font-size="10.00" fill="#000000">next_token</text>
</a>
</g>
</g>
<!-- Node84737&#45;&gt;Node84738 -->
<g id="edge34" class="edge">
<title>Node84737&#45;&gt;Node84738</title>
<path fill="none" stroke="#191970" d="M223.7552,-666.3463C248.8836,-669.4166 279.9111,-673.2078 302.8903,-676.0155"/>
<polygon fill="#191970" stroke="#191970" points="224.0919,-662.8615 213.7412,-665.1227 223.2428,-669.8098 224.0919,-662.8615"/>
</g>
<!-- Node84738&#45;&gt;Node84113 -->
<g id="edge35" class="edge">
<title>Node84738&#45;&gt;Node84113</title>
<path fill="none" stroke="#191970" d="M378.2184,-671.5289C406.309,-665.9585 442.8763,-658.7072 470.6795,-653.1939"/>
<polygon fill="#191970" stroke="#191970" points="377.4128,-668.1204 368.2847,-673.4988 378.7745,-674.9867 377.4128,-668.1204"/>
</g>
</g>
</svg>
        <g id="navigator" transform="translate(0 0)" fill="#404254">
                <rect fill="#f2f5e9" fill-opacity="0.5" stroke="#606060" stroke-width=".5" x="0" y="0" width="60" height="60"/>
                <use id="zoomplus" xlink:href="#zoomPlus" x="17" y="9" onmousedown="handleZoom(evt,'in')"/>
                <use id="zoomminus" xlink:href="#zoomMin" x="42" y="9" onmousedown="handleZoom(evt,'out')"/>
                <use id="reset" xlink:href="#resetDef" x="30" y="36" onmousedown="handleReset()"/>
                <g id="arrowUp" xlink:href="#dirArrow" transform="translate(30 24)" onmousedown="handlePan(0,-1)">
                  <use xlink:href="#rim" fill="#404040">
                        <set attributeName="fill" to="#808080" begin="arrowUp.mouseover" end="arrowUp.mouseout"/>
                  </use>
                  <path fill="none" stroke="white" stroke-width="1.5" d="M0,-3.0v7 M-2.5,-0.5L0,-3.0L2.5,-0.5"/>
                </g>
                <g id="arrowRight" xlink:href="#dirArrow" transform="rotate(90) translate(36 -43)" onmousedown="handlePan(1,0)">
                  <use xlink:href="#rim" fill="#404040">
                        <set attributeName="fill" to="#808080" begin="arrowRight.mouseover" end="arrowRight.mouseout"/>
                  </use>
                  <path fill="none" stroke="white" stroke-width="1.5" d="M0,-3.0v7 M-2.5,-0.5L0,-3.0L2.5,-0.5"/>
                </g>
                <g id="arrowDown" xlink:href="#dirArrow" transform="rotate(180) translate(-30 -48)" onmousedown="handlePan(0,1)">
                  <use xlink:href="#rim" fill="#404040">
                        <set attributeName="fill" to="#808080" begin="arrowDown.mouseover" end="arrowDown.mouseout"/>
                  </use>
                  <path fill="none" stroke="white" stroke-width="1.5" d="M0,-3.0v7 M-2.5,-0.5L0,-3.0L2.5,-0.5"/>
                </g>
                <g id="arrowLeft" xlink:href="#dirArrow" transform="rotate(270) translate(-36 17)" onmousedown="handlePan(-1,0)">
                  <use xlink:href="#rim" fill="#404040">
                        <set attributeName="fill" to="#808080" begin="arrowLeft.mouseover" end="arrowLeft.mouseout"/>
                  </use>
                  <path fill="none" stroke="white" stroke-width="1.5" d="M0,-3.0v7 M-2.5,-0.5L0,-3.0L2.5,-0.5"/>
                </g>
        </g>
        <svg viewBox="0 0 15 15" width="100%" height="30px" preserveAspectRatio="xMaxYMin meet">
         <g id="arrow_out" transform="scale(0.3 0.3)">
          <a xlink:href="quickjs_8c_a522741f41afb1d0da0aa55968cd8579e_icgraph_org.svg" target="_base">
           <rect id="button" ry="5" rx="5" y="6" x="6" height="38" width="38"
                fill="#f2f5e9" fill-opacity="0.5" stroke="#606060" stroke-width="1.0"/>
           <path id="arrow"
             d="M 11.500037,31.436501 C 11.940474,20.09759 22.043105,11.32322 32.158766,21.979434 L 37.068811,17.246167 C 37.068811,17.246167 37.088388,32 37.088388,32 L 22.160133,31.978069 C 22.160133,31.978069 26.997745,27.140456 26.997745,27.140456 C 18.528582,18.264221 13.291696,25.230495 11.500037,31.436501 z"
             style="fill:#404040;"/>
          </a>
         </g>
        </svg>
</svg>
