<?xml version="1.0" encoding="UTF-8" standalone="no"?>
<!DOCTYPE svg PUBLIC "-//W3C//DTD SVG 1.1//EN"
 "http://www.w3.org/Graphics/SVG/1.1/DTD/svg11.dtd">
<!-- Generated by graphviz version 2.40.1 (20161225.0304)
 -->
<!-- Title: JS_NewCFunction2 Pages: 1 -->
<svg width="758pt" height="313pt"
 viewBox="0.00 0.00 758.00 313.00" xmlns="http://www.w3.org/2000/svg" xmlns:xlink="http://www.w3.org/1999/xlink">
<g id="graph0" class="graph" transform="scale(1 1) rotate(0) translate(4 309)">
<title>JS_NewCFunction2</title>
<!-- Node142627 -->
<g id="node1" class="node">
<title>Node142627</title>
<polygon fill="#bfbfbf" stroke="#000000" points="0,-133.5 0,-152.5 104,-152.5 104,-133.5 0,-133.5"/>
<text text-anchor="middle" x="52" y="-140.5" font-family="Helvetica,sans-Serif" font-size="10.00" fill="#000000">JS_NewCFunction2</text>
</g>
<!-- Node142628 -->
<g id="node2" class="node">
<title>Node142628</title>
<g id="a_node2"><a xlink:href="quickjs_8c.html#a2e66fcf1bc1d19f346317f10ee590621" target="_top" xlink:title="JS_AddIntrinsicPromise">
<polygon fill="none" stroke="#000000" points="347,-285.5 347,-304.5 469,-304.5 469,-285.5 347,-285.5"/>
<text text-anchor="middle" x="408" y="-292.5" font-family="Helvetica,sans-Serif" font-size="10.00" fill="#000000">JS_AddIntrinsicPromise</text>
</a>
</g>
</g>
<!-- Node142627&#45;&gt;Node142628 -->
<g id="edge1" class="edge">
<title>Node142627&#45;&gt;Node142628</title>
<path fill="none" stroke="#191970" d="M60.7451,-161.9206C73.9157,-188.0718 101.4661,-234.5706 140,-257 203.561,-293.9968 289.5663,-299.9607 346.82,-299.0077"/>
<polygon fill="#191970" stroke="#191970" points="63.78,-160.1574 56.2683,-152.6859 57.4812,-163.2111 63.78,-160.1574"/>
</g>
<!-- Node142633 -->
<g id="node5" class="node">
<title>Node142633</title>
<g id="a_node5"><a xlink:href="quickjs_8c.html#a3afdbdd7b58ef7e1dcc178c362071b3d" target="_top" xlink:title="JS_AddIntrinsicProxy">
<polygon fill="none" stroke="#000000" points="165,-228.5 165,-247.5 276,-247.5 276,-228.5 165,-228.5"/>
<text text-anchor="middle" x="220.5" y="-235.5" font-family="Helvetica,sans-Serif" font-size="10.00" fill="#000000">JS_AddIntrinsicProxy</text>
</a>
</g>
</g>
<!-- Node142627&#45;&gt;Node142633 -->
<g id="edge4" class="edge">
<title>Node142627&#45;&gt;Node142633</title>
<path fill="none" stroke="#191970" d="M74.0557,-158.4631C91.5548,-170.4405 116.8398,-187.1087 140,-200 159.1752,-210.6732 181.846,-221.1976 198.2347,-228.4543"/>
<polygon fill="#191970" stroke="#191970" points="75.885,-155.4729 65.6671,-152.6721 71.9082,-161.2336 75.885,-155.4729"/>
</g>
<!-- Node142634 -->
<g id="node6" class="node">
<title>Node142634</title>
<g id="a_node6"><a xlink:href="quickjs_8h.html#aa68c88001ca8a8662d8f9f321a72f421" target="_top" xlink:title="JS_NewCFunction">
<polygon fill="none" stroke="#000000" points="171,-95.5 171,-114.5 270,-114.5 270,-95.5 171,-95.5"/>
<text text-anchor="middle" x="220.5" y="-102.5" font-family="Helvetica,sans-Serif" font-size="10.00" fill="#000000">JS_NewCFunction</text>
</a>
</g>
</g>
<!-- Node142627&#45;&gt;Node142634 -->
<g id="edge6" class="edge">
<title>Node142627&#45;&gt;Node142634</title>
<path fill="none" stroke="#191970" d="M104.4313,-131.1757C128.1868,-125.8184 155.8986,-119.5689 178.2861,-114.5201"/>
<polygon fill="#191970" stroke="#191970" points="103.5047,-127.7967 94.5197,-133.411 105.0447,-134.6252 103.5047,-127.7967"/>
</g>
<!-- Node142642 -->
<g id="node12" class="node">
<title>Node142642</title>
<g id="a_node12"><a xlink:href="quickjs_8h.html#ae75598e7954a062f9890bc2ecf435fa1" target="_top" xlink:title="JS_NewCFunctionMagic">
<polygon fill="none" stroke="#000000" points="158,-171.5 158,-190.5 283,-190.5 283,-171.5 158,-171.5"/>
<text text-anchor="middle" x="220.5" y="-178.5" font-family="Helvetica,sans-Serif" font-size="10.00" fill="#000000">JS_NewCFunctionMagic</text>
</a>
</g>
</g>
<!-- Node142627&#45;&gt;Node142642 -->
<g id="edge14" class="edge">
<title>Node142627&#45;&gt;Node142642</title>
<path fill="none" stroke="#191970" d="M104.4313,-154.8243C128.1868,-160.1816 155.8986,-166.4311 178.2861,-171.4799"/>
<polygon fill="#191970" stroke="#191970" points="105.0447,-151.3748 94.5197,-152.589 103.5047,-158.2033 105.0447,-151.3748"/>
</g>
<!-- Node142644 -->
<g id="node14" class="node">
<title>Node142644</title>
<g id="a_node14"><a xlink:href="quickjs_8c.html#a293feb2179c9a722b2bd410bc2c5c173" target="_top" xlink:title="JS_NewGlobalCConstructor">
<polygon fill="none" stroke="#000000" points="150.5,-133.5 150.5,-152.5 290.5,-152.5 290.5,-133.5 150.5,-133.5"/>
<text text-anchor="middle" x="220.5" y="-140.5" font-family="Helvetica,sans-Serif" font-size="10.00" fill="#000000">JS_NewGlobalCConstructor</text>
</a>
</g>
</g>
<!-- Node142627&#45;&gt;Node142644 -->
<g id="edge18" class="edge">
<title>Node142627&#45;&gt;Node142644</title>
<path fill="none" stroke="#191970" d="M114.5111,-143C126.2323,-143 138.5561,-143 150.4875,-143"/>
<polygon fill="#191970" stroke="#191970" points="114.3908,-139.5001 104.3908,-143 114.3908,-146.5001 114.3908,-139.5001"/>
</g>
<!-- Node142647 -->
<g id="node17" class="node">
<title>Node142647</title>
<g id="a_node17"><a xlink:href="quickjs_8c.html#abc33a664e231090ec89f9d9975e21229" target="_top" xlink:title="JS_NewGlobalCConstructorOnly">
<polygon fill="none" stroke="#000000" points="140,-57.5 140,-76.5 301,-76.5 301,-57.5 140,-57.5"/>
<text text-anchor="middle" x="220.5" y="-64.5" font-family="Helvetica,sans-Serif" font-size="10.00" fill="#000000">JS_NewGlobalCConstructorOnly</text>
</a>
</g>
</g>
<!-- Node142627&#45;&gt;Node142647 -->
<g id="edge24" class="edge">
<title>Node142627&#45;&gt;Node142647</title>
<path fill="none" stroke="#191970" d="M71.8938,-127.2544C89.0335,-114.4133 114.9072,-96.7062 140,-86 148.8492,-82.2244 158.5804,-79.1236 168.1257,-76.6031"/>
<polygon fill="#191970" stroke="#191970" points="69.5935,-124.6074 63.7773,-133.4631 73.8465,-130.1673 69.5935,-124.6074"/>
</g>
<!-- Node142638 -->
<g id="node18" class="node">
<title>Node142638</title>
<g id="a_node18"><a xlink:href="quickjs-libc_8c.html#a066e7962ce24f22d5df20968a8baa346" target="_top" xlink:title="js_os_init">
<polygon fill="none" stroke="#ff0000" points="191.5,-19.5 191.5,-38.5 249.5,-38.5 249.5,-19.5 191.5,-19.5"/>
<text text-anchor="middle" x="220.5" y="-26.5" font-family="Helvetica,sans-Serif" font-size="10.00" fill="#000000">js_os_init</text>
</a>
</g>
</g>
<!-- Node142627&#45;&gt;Node142638 -->
<g id="edge26" class="edge">
<title>Node142627&#45;&gt;Node142638</title>
<path fill="none" stroke="#191970" d="M63.5459,-125.1276C78.5154,-103.4526 106.6888,-67.4152 140,-48 155.6319,-38.8891 175.3771,-34.144 191.3999,-31.6743"/>
<polygon fill="#191970" stroke="#191970" points="60.6288,-123.1934 57.9623,-133.4473 66.4412,-127.0943 60.6288,-123.1934"/>
</g>
<!-- Node142629 -->
<g id="node3" class="node">
<title>Node142629</title>
<g id="a_node3"><a xlink:href="quickjs_8c.html#ad8aedb643b8753b7a15f6cb2df61945e" target="_top" xlink:title="JS_NewContext">
<polygon fill="none" stroke="#000000" points="515,-171.5 515,-190.5 604,-190.5 604,-171.5 515,-171.5"/>
<text text-anchor="middle" x="559.5" y="-178.5" font-family="Helvetica,sans-Serif" font-size="10.00" fill="#000000">JS_NewContext</text>
</a>
</g>
</g>
<!-- Node142628&#45;&gt;Node142629 -->
<g id="edge2" class="edge">
<title>Node142628&#45;&gt;Node142629</title>
<path fill="none" stroke="#191970" d="M457.4959,-281.9713C465.0085,-278.961 472.434,-275.3349 479,-271 512.7645,-248.7086 541.3726,-208.8747 553.4083,-190.619"/>
<polygon fill="#191970" stroke="#191970" points="456.1718,-278.7289 447.9915,-285.4619 458.5851,-285.2998 456.1718,-278.7289"/>
</g>
<!-- Node142630 -->
<g id="node4" class="node">
<title>Node142630</title>
<g id="a_node4"><a xlink:href="classqjs_1_1Context.html#a4392a23648acfc4bf6b445336efb5007" target="_top" xlink:title="qjs::Context::Context">
<polygon fill="none" stroke="#ff0000" points="640,-171.5 640,-190.5 750,-190.5 750,-171.5 640,-171.5"/>
<text text-anchor="middle" x="695" y="-178.5" font-family="Helvetica,sans-Serif" font-size="10.00" fill="#000000">qjs::Context::Context</text>
</a>
</g>
</g>
<!-- Node142629&#45;&gt;Node142630 -->
<g id="edge3" class="edge">
<title>Node142629&#45;&gt;Node142630</title>
<path fill="none" stroke="#191970" d="M614.3476,-181C622.7739,-181 631.4767,-181 639.9083,-181"/>
<polygon fill="#191970" stroke="#191970" points="614.2433,-177.5001 604.2433,-181 614.2433,-184.5001 614.2433,-177.5001"/>
</g>
<!-- Node142633&#45;&gt;Node142629 -->
<g id="edge5" class="edge">
<title>Node142633&#45;&gt;Node142629</title>
<path fill="none" stroke="#191970" d="M285.9481,-248.7577C339.2356,-254.9942 415.7222,-258.1345 479,-238 508.3729,-228.6538 536.2382,-204.2707 550.1944,-190.617"/>
<polygon fill="#191970" stroke="#191970" points="286.2983,-245.2744 275.9439,-247.5187 285.4379,-252.2214 286.2983,-245.2744"/>
</g>
<!-- Node142635 -->
<g id="node7" class="node">
<title>Node142635</title>
<g id="a_node7"><a xlink:href="quickjs-libc_8c.html#ad04466feec6822a3b838baf229f6dfa0" target="_top" xlink:title="js_std_add_helpers">
<polygon fill="none" stroke="#000000" points="357.5,-19.5 357.5,-38.5 458.5,-38.5 458.5,-19.5 357.5,-19.5"/>
<text text-anchor="middle" x="408" y="-26.5" font-family="Helvetica,sans-Serif" font-size="10.00" fill="#000000">js_std_add_helpers</text>
</a>
</g>
</g>
<!-- Node142634&#45;&gt;Node142635 -->
<g id="edge7" class="edge">
<title>Node142634&#45;&gt;Node142635</title>
<path fill="none" stroke="#191970" d="M280.2397,-95.0664C287.484,-92.6683 294.5822,-89.6925 301,-86 321.165,-74.398 317.0095,-59.9001 337,-48 343.469,-44.1491 350.7274,-41.064 358.0678,-38.5963"/>
<polygon fill="#191970" stroke="#191970" points="278.9225,-91.8058 270.3209,-97.9915 280.9026,-98.5199 278.9225,-91.8058"/>
</g>
<!-- Node142640 -->
<g id="node10" class="node">
<title>Node142640</title>
<g id="a_node10"><a xlink:href="quickjs_8c.html#a4c9489297c684663f30e517204a9ec14" target="_top" xlink:title="JS_AddIntrinsicBaseObjects">
<polygon fill="none" stroke="#000000" points="337,-171.5 337,-190.5 479,-190.5 479,-171.5 337,-171.5"/>
<text text-anchor="middle" x="408" y="-178.5" font-family="Helvetica,sans-Serif" font-size="10.00" fill="#000000">JS_AddIntrinsicBaseObjects</text>
</a>
</g>
</g>
<!-- Node142634&#45;&gt;Node142640 -->
<g id="edge10" class="edge">
<title>Node142634&#45;&gt;Node142640</title>
<path fill="none" stroke="#191970" d="M280.2397,-114.9336C287.484,-117.3317 294.5822,-120.3075 301,-124 321.165,-135.602 317.0095,-150.0999 337,-162 343.469,-165.8509 350.7274,-168.936 358.0678,-171.4037"/>
<polygon fill="#191970" stroke="#191970" points="280.9026,-111.4801 270.3209,-112.0085 278.9225,-118.1942 280.9026,-111.4801"/>
</g>
<!-- Node142641 -->
<g id="node11" class="node">
<title>Node142641</title>
<g id="a_node11"><a xlink:href="quickjs_8c.html#a177d09828596bfe6df4bd90b2e93989d" target="_top" xlink:title="JS_AddIntrinsicTypedArrays">
<polygon fill="none" stroke="#000000" points="337.5,-57.5 337.5,-76.5 478.5,-76.5 478.5,-57.5 337.5,-57.5"/>
<text text-anchor="middle" x="408" y="-64.5" font-family="Helvetica,sans-Serif" font-size="10.00" fill="#000000">JS_AddIntrinsicTypedArrays</text>
</a>
</g>
</g>
<!-- Node142634&#45;&gt;Node142641 -->
<g id="edge12" class="edge">
<title>Node142634&#45;&gt;Node142641</title>
<path fill="none" stroke="#191970" d="M277.7838,-93.3905C304.4506,-87.986 335.7805,-81.6365 361.0261,-76.5201"/>
<polygon fill="#191970" stroke="#191970" points="276.9197,-89.9944 267.8142,-95.411 278.3101,-96.8549 276.9197,-89.9944"/>
</g>
<!-- Node142632 -->
<g id="node8" class="node">
<title>Node142632</title>
<g id="a_node8"><a xlink:href="qjs_8cpp.html#a3c04138a5bfe5d72780bb7e82a18e627" target="_top" xlink:title="main">
<polygon fill="none" stroke="#000000" points="540.5,-38.5 540.5,-57.5 578.5,-57.5 578.5,-38.5 540.5,-38.5"/>
<text text-anchor="middle" x="559.5" y="-45.5" font-family="Helvetica,sans-Serif" font-size="10.00" fill="#000000">main</text>
</a>
</g>
</g>
<!-- Node142635&#45;&gt;Node142632 -->
<g id="edge8" class="edge">
<title>Node142635&#45;&gt;Node142632</title>
<path fill="none" stroke="#191970" d="M468.9026,-36.6379C494.4829,-39.846 522.4144,-43.349 540.4024,-45.6049"/>
<polygon fill="#191970" stroke="#191970" points="469.2266,-33.1512 458.8688,-35.3796 468.3555,-40.0968 469.2266,-33.1512"/>
</g>
<!-- Node142636 -->
<g id="node9" class="node">
<title>Node142636</title>
<g id="a_node9"><a xlink:href="quickjs-libc_8c.html#a1fbb3adc15e7b967479fc1940e99b67a" target="_top" xlink:title="worker_func">
<polygon fill="none" stroke="#ff0000" points="524.5,-.5 524.5,-19.5 594.5,-19.5 594.5,-.5 524.5,-.5"/>
<text text-anchor="middle" x="559.5" y="-7.5" font-family="Helvetica,sans-Serif" font-size="10.00" fill="#000000">worker_func</text>
</a>
</g>
</g>
<!-- Node142635&#45;&gt;Node142636 -->
<g id="edge9" class="edge">
<title>Node142635&#45;&gt;Node142636</title>
<path fill="none" stroke="#191970" d="M468.8713,-21.366C487.7055,-19.0039 507.8172,-16.4817 524.298,-14.4148"/>
<polygon fill="#191970" stroke="#191970" points="468.3555,-17.9032 458.8688,-22.6204 469.2266,-24.8488 468.3555,-17.9032"/>
</g>
<!-- Node142640&#45;&gt;Node142629 -->
<g id="edge11" class="edge">
<title>Node142640&#45;&gt;Node142629</title>
<path fill="none" stroke="#191970" d="M489.5534,-181C498.2595,-181 506.8628,-181 514.8995,-181"/>
<polygon fill="#191970" stroke="#191970" points="489.3138,-177.5001 479.3138,-181 489.3137,-184.5001 489.3138,-177.5001"/>
</g>
<!-- Node142641&#45;&gt;Node142629 -->
<g id="edge13" class="edge">
<title>Node142641&#45;&gt;Node142629</title>
<path fill="none" stroke="#191970" d="M468.3233,-80.2984C472.0453,-81.9797 475.6399,-83.8715 479,-86 514.6116,-108.5583 542.6785,-151.8709 554.0322,-171.2313"/>
<polygon fill="#191970" stroke="#191970" points="469.4551,-76.9819 458.8695,-76.5381 466.8679,-83.4863 469.4551,-76.9819"/>
</g>
<!-- Node142642&#45;&gt;Node142640 -->
<g id="edge17" class="edge">
<title>Node142642&#45;&gt;Node142640</title>
<path fill="none" stroke="#191970" d="M293.4614,-181C307.7527,-181 322.7226,-181 336.9503,-181"/>
<polygon fill="#191970" stroke="#191970" points="293.1955,-177.5001 283.1955,-181 293.1954,-184.5001 293.1955,-177.5001"/>
</g>
<!-- Node142643 -->
<g id="node13" class="node">
<title>Node142643</title>
<g id="a_node13"><a xlink:href="quickjs_8c.html#a4497f8c7cf2ec38da989910ae8b1f042" target="_top" xlink:title="JS_AddIntrinsicMapSet">
<polygon fill="none" stroke="#000000" points="348.5,-209.5 348.5,-228.5 467.5,-228.5 467.5,-209.5 348.5,-209.5"/>
<text text-anchor="middle" x="408" y="-216.5" font-family="Helvetica,sans-Serif" font-size="10.00" fill="#000000">JS_AddIntrinsicMapSet</text>
</a>
</g>
</g>
<!-- Node142642&#45;&gt;Node142643 -->
<g id="edge15" class="edge">
<title>Node142642&#45;&gt;Node142643</title>
<path fill="none" stroke="#191970" d="M277.7838,-192.6095C304.4506,-198.014 335.7805,-204.3635 361.0261,-209.4799"/>
<polygon fill="#191970" stroke="#191970" points="278.3101,-189.1451 267.8142,-190.589 276.9197,-196.0056 278.3101,-189.1451"/>
</g>
<!-- Node142643&#45;&gt;Node142629 -->
<g id="edge16" class="edge">
<title>Node142643&#45;&gt;Node142629</title>
<path fill="none" stroke="#191970" d="M456.0016,-206.96C477.1668,-201.6512 501.6858,-195.5012 521.5451,-190.5201"/>
<polygon fill="#191970" stroke="#191970" points="455.0779,-203.5832 446.2298,-209.411 456.7809,-210.3729 455.0779,-203.5832"/>
</g>
<!-- Node142644&#45;&gt;Node142640 -->
<g id="edge23" class="edge">
<title>Node142644&#45;&gt;Node142640</title>
<path fill="none" stroke="#191970" d="M277.7838,-154.6095C304.4506,-160.014 335.7805,-166.3635 361.0261,-171.4799"/>
<polygon fill="#191970" stroke="#191970" points="278.3101,-151.1451 267.8142,-152.589 276.9197,-158.0056 278.3101,-151.1451"/>
</g>
<!-- Node142645 -->
<g id="node15" class="node">
<title>Node142645</title>
<g id="a_node15"><a xlink:href="quickjs_8c.html#aafc8241682ce24b6d72e0f237ee85a51" target="_top" xlink:title="JS_AddIntrinsicRegExp">
<polygon fill="none" stroke="#000000" points="347.5,-95.5 347.5,-114.5 468.5,-114.5 468.5,-95.5 347.5,-95.5"/>
<text text-anchor="middle" x="408" y="-102.5" font-family="Helvetica,sans-Serif" font-size="10.00" fill="#000000">JS_AddIntrinsicRegExp</text>
</a>
</g>
</g>
<!-- Node142644&#45;&gt;Node142645 -->
<g id="edge19" class="edge">
<title>Node142644&#45;&gt;Node142645</title>
<path fill="none" stroke="#191970" d="M277.7838,-131.3905C304.4506,-125.986 335.7805,-119.6365 361.0261,-114.5201"/>
<polygon fill="#191970" stroke="#191970" points="276.9197,-127.9944 267.8142,-133.411 278.3101,-134.8549 276.9197,-127.9944"/>
</g>
<!-- Node142646 -->
<g id="node16" class="node">
<title>Node142646</title>
<g id="a_node16"><a xlink:href="quickjs_8c.html#a8ecbf5799518b7bfc3fefd47c7a0dd4e" target="_top" xlink:title="JS_AddIntrinsicDate">
<polygon fill="none" stroke="#000000" points="354.5,-133.5 354.5,-152.5 461.5,-152.5 461.5,-133.5 354.5,-133.5"/>
<text text-anchor="middle" x="408" y="-140.5" font-family="Helvetica,sans-Serif" font-size="10.00" fill="#000000">JS_AddIntrinsicDate</text>
</a>
</g>
</g>
<!-- Node142644&#45;&gt;Node142646 -->
<g id="edge21" class="edge">
<title>Node142644&#45;&gt;Node142646</title>
<path fill="none" stroke="#191970" d="M300.5903,-143C318.7619,-143 337.6332,-143 354.3941,-143"/>
<polygon fill="#191970" stroke="#191970" points="300.5848,-139.5001 290.5847,-143 300.5847,-146.5001 300.5848,-139.5001"/>
</g>
<!-- Node142645&#45;&gt;Node142629 -->
<g id="edge20" class="edge">
<title>Node142645&#45;&gt;Node142629</title>
<path fill="none" stroke="#191970" d="M463.066,-117.6338C468.5463,-119.5122 473.9463,-121.6282 479,-124 506.1287,-136.732 533.7851,-158.6931 548.5704,-171.3157"/>
<polygon fill="#191970" stroke="#191970" points="463.762,-114.1831 453.1721,-114.5053 461.6515,-120.8574 463.762,-114.1831"/>
</g>
<!-- Node142646&#45;&gt;Node142629 -->
<g id="edge22" class="edge">
<title>Node142646&#45;&gt;Node142629</title>
<path fill="none" stroke="#191970" d="M456.0016,-155.04C477.1668,-160.3488 501.6858,-166.4988 521.5451,-171.4799"/>
<polygon fill="#191970" stroke="#191970" points="456.7809,-151.6271 446.2298,-152.589 455.0779,-158.4168 456.7809,-151.6271"/>
</g>
<!-- Node142647&#45;&gt;Node142641 -->
<g id="edge25" class="edge">
<title>Node142647&#45;&gt;Node142641</title>
<path fill="none" stroke="#191970" d="M311.3745,-67C320.1515,-67 328.9621,-67 337.4983,-67"/>
<polygon fill="#191970" stroke="#191970" points="311.1051,-63.5001 301.105,-67 311.105,-70.5001 311.1051,-63.5001"/>
</g>
</g>
</svg>
