<?xml version="1.0" encoding="UTF-8" standalone="no"?>
<!DOCTYPE svg PUBLIC "-//W3C//DTD SVG 1.1//EN"
 "http://www.w3.org/Graphics/SVG/1.1/DTD/svg11.dtd">
<!-- Generated by graphviz version 2.40.1 (20161225.0304)
 -->
<!-- Title: js_module_set_import_meta Pages: 1 -->
<svg width="503pt" height="85pt"
 viewBox="0.00 0.00 503.00 85.00" xmlns="http://www.w3.org/2000/svg" xmlns:xlink="http://www.w3.org/1999/xlink">
<g id="graph0" class="graph" transform="scale(1 1) rotate(0) translate(4 81)">
<title>js_module_set_import_meta</title>
<!-- Node1799 -->
<g id="node1" class="node">
<title>Node1799</title>
<polygon fill="#bfbfbf" stroke="#000000" points="0,-19.5 0,-38.5 139,-38.5 139,-19.5 0,-19.5"/>
<text text-anchor="middle" x="69.5" y="-26.5" font-family="Helvetica,sans-Serif" font-size="10.00" fill="#000000">js_module_set_import_meta</text>
</g>
<!-- Node1800 -->
<g id="node2" class="node">
<title>Node1800</title>
<g id="a_node2"><a xlink:href="quickjs-libc_8c.html#ad61d60681847f324c5ba4ad88c546f1e" target="_top" xlink:title="js_module_loader">
<polygon fill="none" stroke="#000000" points="178,-38.5 178,-57.5 270,-57.5 270,-38.5 178,-38.5"/>
<text text-anchor="middle" x="224" y="-45.5" font-family="Helvetica,sans-Serif" font-size="10.00" fill="#000000">js_module_loader</text>
</a>
</g>
</g>
<!-- Node1799&#45;&gt;Node1800 -->
<g id="edge1" class="edge">
<title>Node1799&#45;&gt;Node1800</title>
<path fill="none" stroke="#191970" d="M149.2592,-38.8086C159.0468,-40.0122 168.7806,-41.2093 177.8313,-42.3223"/>
<polygon fill="#191970" stroke="#191970" points="149.4189,-35.3019 139.0665,-37.5551 148.5645,-42.2496 149.4189,-35.3019"/>
</g>
<!-- Node1806 -->
<g id="node6" class="node">
<title>Node1806</title>
<g id="a_node6"><a xlink:href="quickjs-libc_8c.html#ab1b439d304c2125490b47ef262b5df67" target="_top" xlink:title="js_std_eval_binary">
<polygon fill="none" stroke="#000000" points="175,-.5 175,-19.5 273,-19.5 273,-.5 175,-.5"/>
<text text-anchor="middle" x="224" y="-7.5" font-family="Helvetica,sans-Serif" font-size="10.00" fill="#000000">js_std_eval_binary</text>
</a>
</g>
</g>
<!-- Node1799&#45;&gt;Node1806 -->
<g id="edge5" class="edge">
<title>Node1799&#45;&gt;Node1806</title>
<path fill="none" stroke="#191970" d="M149.2366,-19.1942C157.9061,-18.1281 166.5337,-17.0671 174.6821,-16.065"/>
<polygon fill="#191970" stroke="#191970" points="148.5645,-15.7504 139.0665,-20.4449 149.4189,-22.6981 148.5645,-15.7504"/>
</g>
<!-- Node1801 -->
<g id="node3" class="node">
<title>Node1801</title>
<g id="a_node3"><a xlink:href="qjs_8cpp.html#a3c04138a5bfe5d72780bb7e82a18e627" target="_top" xlink:title="main">
<polygon fill="none" stroke="#000000" points="325,-57.5 325,-76.5 363,-76.5 363,-57.5 325,-57.5"/>
<text text-anchor="middle" x="344" y="-64.5" font-family="Helvetica,sans-Serif" font-size="10.00" fill="#000000">main</text>
</a>
</g>
</g>
<!-- Node1800&#45;&gt;Node1801 -->
<g id="edge2" class="edge">
<title>Node1800&#45;&gt;Node1801</title>
<path fill="none" stroke="#191970" d="M280.0009,-56.8668C296.1271,-59.4201 312.6402,-62.0347 324.853,-63.9684"/>
<polygon fill="#191970" stroke="#191970" points="280.4763,-53.3986 270.0519,-55.2916 279.3815,-60.3124 280.4763,-53.3986"/>
</g>
<!-- Node1802 -->
<g id="node4" class="node">
<title>Node1802</title>
<g id="a_node4"><a xlink:href="quickjs-libc_8c.html#a1fbb3adc15e7b967479fc1940e99b67a" target="_top" xlink:title="worker_func">
<polygon fill="none" stroke="#000000" points="309,-19.5 309,-38.5 379,-38.5 379,-19.5 309,-19.5"/>
<text text-anchor="middle" x="344" y="-26.5" font-family="Helvetica,sans-Serif" font-size="10.00" fill="#000000">worker_func</text>
</a>
</g>
</g>
<!-- Node1800&#45;&gt;Node1802 -->
<g id="edge3" class="edge">
<title>Node1800&#45;&gt;Node1802</title>
<path fill="none" stroke="#191970" d="M280.1055,-39.1166C289.842,-37.575 299.7158,-36.0117 308.6957,-34.5899"/>
<polygon fill="#191970" stroke="#191970" points="279.3815,-35.6876 270.0519,-40.7084 280.4763,-42.6014 279.3815,-35.6876"/>
</g>
<!-- Node1803 -->
<g id="node5" class="node">
<title>Node1803</title>
<g id="a_node5"><a xlink:href="quickjs-libc_8c.html#aff1e6131e8bf8b7eb25307623ad669e7" target="_top" xlink:title="js_worker_ctor">
<polygon fill="none" stroke="#ff0000" points="415,-19.5 415,-38.5 495,-38.5 495,-19.5 415,-19.5"/>
<text text-anchor="middle" x="455" y="-26.5" font-family="Helvetica,sans-Serif" font-size="10.00" fill="#000000">js_worker_ctor</text>
</a>
</g>
</g>
<!-- Node1802&#45;&gt;Node1803 -->
<g id="edge4" class="edge">
<title>Node1802&#45;&gt;Node1803</title>
<path fill="none" stroke="#191970" d="M389.1986,-29C397.6394,-29 406.4096,-29 414.691,-29"/>
<polygon fill="#191970" stroke="#191970" points="389.1211,-25.5001 379.1211,-29 389.1211,-32.5001 389.1211,-25.5001"/>
</g>
</g>
</svg>
