<?xml version="1.0" encoding="UTF-8" standalone="no"?>
<!DOCTYPE svg PUBLIC "-//W3C//DTD SVG 1.1//EN"
 "http://www.w3.org/Graphics/SVG/1.1/DTD/svg11.dtd">
<!-- Generated by graphviz version 2.40.1 (20161225.0304)
 -->
<!-- Title: js_class_has_bytecode Pages: 1 -->
<svg width="791pt" height="628pt"
 viewBox="0.00 0.00 791.00 627.90" xmlns="http://www.w3.org/2000/svg" xmlns:xlink="http://www.w3.org/1999/xlink">
<g id="graph0" class="graph" transform="scale(1 1) rotate(0) translate(4 623.8998)">
<title>js_class_has_bytecode</title>
<!-- Node137782 -->
<g id="node1" class="node">
<title>Node137782</title>
<polygon fill="#bfbfbf" stroke="#000000" points="0,-198.5 0,-217.5 119,-217.5 119,-198.5 0,-198.5"/>
<text text-anchor="middle" x="59.5" y="-205.5" font-family="Helvetica,sans-Serif" font-size="10.00" fill="#000000">js_class_has_bytecode</text>
</g>
<!-- Node137783 -->
<g id="node2" class="node">
<title>Node137783</title>
<g id="a_node2"><a xlink:href="quickjs_8c.html#a46a8a7e155cfd0af984f6725f060f0d6" target="_top" xlink:title="__JS_EvalInternal">
<polygon fill="none" stroke="#000000" points="178.5,-588.5 178.5,-607.5 274.5,-607.5 274.5,-588.5 178.5,-588.5"/>
<text text-anchor="middle" x="226.5" y="-595.5" font-family="Helvetica,sans-Serif" font-size="10.00" fill="#000000">__JS_EvalInternal</text>
</a>
</g>
</g>
<!-- Node137782&#45;&gt;Node137783 -->
<g id="edge1" class="edge">
<title>Node137782&#45;&gt;Node137783</title>
<path fill="none" stroke="#191970" d="M60.9753,-227.6069C65.8767,-281.8639 85.49,-436.8534 155,-541 168.8361,-561.7305 192.5935,-578.4723 208.8991,-588.3207"/>
<polygon fill="#191970" stroke="#191970" points="64.4608,-227.2863 60.14,-217.6126 57.4851,-227.8694 64.4608,-227.2863"/>
</g>
<!-- Node137789 -->
<g id="node5" class="node">
<title>Node137789</title>
<g id="a_node5"><a xlink:href="quickjs_8c.html#a61c8dfb5e807af1b6ff7d8ca61576dda" target="_top" xlink:title="build_backtrace">
<polygon fill="none" stroke="#000000" points="184,-342.5 184,-361.5 269,-361.5 269,-342.5 184,-342.5"/>
<text text-anchor="middle" x="226.5" y="-349.5" font-family="Helvetica,sans-Serif" font-size="10.00" fill="#000000">build_backtrace</text>
</a>
</g>
</g>
<!-- Node137782&#45;&gt;Node137789 -->
<g id="edge4" class="edge">
<title>Node137782&#45;&gt;Node137789</title>
<path fill="none" stroke="#191970" d="M78.3293,-224.2361C113.2881,-254.3801 187.2203,-318.13 215.3322,-342.3703"/>
<polygon fill="#191970" stroke="#191970" points="80.5756,-221.5515 70.7167,-217.6718 76.0044,-226.8528 80.5756,-221.5515"/>
</g>
<!-- Node138390 -->
<g id="node12" class="node">
<title>Node138390</title>
<g id="a_node12"><a xlink:href="quickjs_8c.html#aa71518153e2e2604f0f9caad36af8476" target="_top" xlink:title="JS_CheckBrand">
<polygon fill="none" stroke="#000000" points="182.5,-160.5 182.5,-179.5 270.5,-179.5 270.5,-160.5 182.5,-160.5"/>
<text text-anchor="middle" x="226.5" y="-167.5" font-family="Helvetica,sans-Serif" font-size="10.00" fill="#000000">JS_CheckBrand</text>
</a>
</g>
</g>
<!-- Node137782&#45;&gt;Node138390 -->
<g id="edge14" class="edge">
<title>Node137782&#45;&gt;Node138390</title>
<path fill="none" stroke="#191970" d="M111.4646,-196.1757C135.0086,-190.8184 162.4737,-184.5689 184.6619,-179.5201"/>
<polygon fill="#191970" stroke="#191970" points="110.6153,-192.7794 101.6412,-198.411 112.1685,-199.6049 110.6153,-192.7794"/>
</g>
<!-- Node138391 -->
<g id="node13" class="node">
<title>Node138391</title>
<g id="a_node13"><a xlink:href="quickjs_8c.html#a315f18f552c506d05a36ab22649c8e3f" target="_top" xlink:title="JS_DumpObject">
<polygon fill="none" stroke="#000000" points="182,-76.5 182,-95.5 271,-95.5 271,-76.5 182,-76.5"/>
<text text-anchor="middle" x="226.5" y="-83.5" font-family="Helvetica,sans-Serif" font-size="10.00" fill="#000000">JS_DumpObject</text>
</a>
</g>
</g>
<!-- Node137782&#45;&gt;Node138391 -->
<g id="edge16" class="edge">
<title>Node137782&#45;&gt;Node138391</title>
<path fill="none" stroke="#191970" d="M71.4192,-189.8069C87.5788,-166.6033 118.6334,-126.8709 155,-105 163.1451,-100.1016 172.5556,-96.4475 181.8194,-93.7276"/>
<polygon fill="#191970" stroke="#191970" points="68.3302,-188.126 65.6132,-198.3665 74.1233,-192.0554 68.3302,-188.126"/>
</g>
<!-- Node138320 -->
<g id="node15" class="node">
<title>Node138320</title>
<g id="a_node15"><a xlink:href="quickjs_8c.html#a9876c37aa1b715e05e0e5fe1b46bcf3d" target="_top" xlink:title="js_function_toString">
<polygon fill="none" stroke="#000000" points="175,-38.5 175,-57.5 278,-57.5 278,-38.5 175,-38.5"/>
<text text-anchor="middle" x="226.5" y="-45.5" font-family="Helvetica,sans-Serif" font-size="10.00" fill="#000000">js_function_toString</text>
</a>
</g>
</g>
<!-- Node137782&#45;&gt;Node138320 -->
<g id="edge18" class="edge">
<title>Node137782&#45;&gt;Node138320</title>
<path fill="none" stroke="#191970" d="M67.1368,-188.8711C80.3376,-158.3117 110.3672,-98.7022 155,-67 160.9687,-62.7605 167.8241,-59.467 174.8755,-56.9083"/>
<polygon fill="#191970" stroke="#191970" points="63.7919,-187.7988 63.173,-198.3755 70.2526,-190.4932 63.7919,-187.7988"/>
</g>
<!-- Node138393 -->
<g id="node16" class="node">
<title>Node138393</title>
<g id="a_node16"><a xlink:href="quickjs_8c.html#a7a7b507694cc1ecc4e3b5129fed3f5f6" target="_top" xlink:title="JS_GetFunctionBytecode">
<polygon fill="none" stroke="#000000" points="162.5,-512.5 162.5,-531.5 290.5,-531.5 290.5,-512.5 162.5,-512.5"/>
<text text-anchor="middle" x="226.5" y="-519.5" font-family="Helvetica,sans-Serif" font-size="10.00" fill="#000000">JS_GetFunctionBytecode</text>
</a>
</g>
</g>
<!-- Node137782&#45;&gt;Node138393 -->
<g id="edge19" class="edge">
<title>Node137782&#45;&gt;Node138393</title>
<path fill="none" stroke="#191970" d="M69.4741,-226.7538C101.0295,-286.0853 197.9818,-468.379 221.3793,-512.3719"/>
<polygon fill="#191970" stroke="#191970" points="72.467,-224.9272 64.6811,-217.7417 66.2867,-228.2142 72.467,-224.9272"/>
</g>
<!-- Node138397 -->
<g id="node20" class="node">
<title>Node138397</title>
<g id="a_node20"><a xlink:href="quickjs_8c.html#a3d9d43172bb33e53a4843dd3a770e889" target="_top" xlink:title="JS_GetScriptOrModuleName">
<polygon fill="none" stroke="#000000" points="155,-114.5 155,-133.5 298,-133.5 298,-114.5 155,-114.5"/>
<text text-anchor="middle" x="226.5" y="-121.5" font-family="Helvetica,sans-Serif" font-size="10.00" fill="#000000">JS_GetScriptOrModuleName</text>
</a>
</g>
</g>
<!-- Node137782&#45;&gt;Node138397 -->
<g id="edge25" class="edge">
<title>Node137782&#45;&gt;Node138397</title>
<path fill="none" stroke="#191970" d="M82.1502,-192.9226C101.1124,-180.6852 129.1463,-163.4756 155,-151 168.7427,-144.3685 184.567,-138.2465 197.8294,-133.5144"/>
<polygon fill="#191970" stroke="#191970" points="80.0823,-190.0927 73.6196,-198.4881 83.9072,-195.9553 80.0823,-190.0927"/>
</g>
<!-- Node138399 -->
<g id="node24" class="node">
<title>Node138399</title>
<g id="a_node24"><a xlink:href="quickjs_8c.html#a2d5c3143055af5f45dab61f1006dc5c4" target="_top" xlink:title="js_method_set_home\l_object">
<polygon fill="none" stroke="#000000" points="171.5,-207 171.5,-237 281.5,-237 281.5,-207 171.5,-207"/>
<text text-anchor="start" x="179.5" y="-225" font-family="Helvetica,sans-Serif" font-size="10.00" fill="#000000">js_method_set_home</text>
<text text-anchor="middle" x="226.5" y="-214" font-family="Helvetica,sans-Serif" font-size="10.00" fill="#000000">_object</text>
</a>
</g>
</g>
<!-- Node137782&#45;&gt;Node138399 -->
<g id="edge31" class="edge">
<title>Node137782&#45;&gt;Node138399</title>
<path fill="none" stroke="#191970" d="M129.3839,-213.8585C143.3653,-215.0306 157.87,-216.2466 171.2728,-217.3702"/>
<polygon fill="#191970" stroke="#191970" points="129.5766,-210.3625 119.3191,-213.0148 128.9918,-217.338 129.5766,-210.3625"/>
</g>
<!-- Node137784 -->
<g id="node3" class="node">
<title>Node137784</title>
<g id="a_node3"><a xlink:href="quickjs_8c.html#acbcccb7ec58fd4a024ea1d01e5d04561" target="_top" xlink:title="JS_AddIntrinsicEval">
<polygon fill="none" stroke="#000000" points="534.5,-597.5 534.5,-616.5 639.5,-616.5 639.5,-597.5 534.5,-597.5"/>
<text text-anchor="middle" x="587" y="-604.5" font-family="Helvetica,sans-Serif" font-size="10.00" fill="#000000">JS_AddIntrinsicEval</text>
</a>
</g>
</g>
<!-- Node137783&#45;&gt;Node137784 -->
<g id="edge2" class="edge">
<title>Node137783&#45;&gt;Node137784</title>
<path fill="none" stroke="#191970" d="M280.0476,-609.3641C297.1981,-612.4923 316.3236,-615.4499 334,-617 402.969,-623.0481 482.8377,-617.869 534.0886,-612.9882"/>
<polygon fill="#191970" stroke="#191970" points="280.6786,-605.9214 270.2038,-607.5118 279.3841,-612.8007 280.6786,-605.9214"/>
</g>
<!-- Node137785 -->
<g id="node4" class="node">
<title>Node137785</title>
<g id="a_node4"><a xlink:href="quickjs_8c.html#ad8aedb643b8753b7a15f6cb2df61945e" target="_top" xlink:title="JS_NewContext">
<polygon fill="none" stroke="#ff0000" points="694,-535.5 694,-554.5 783,-554.5 783,-535.5 694,-535.5"/>
<text text-anchor="middle" x="738.5" y="-542.5" font-family="Helvetica,sans-Serif" font-size="10.00" fill="#000000">JS_NewContext</text>
</a>
</g>
</g>
<!-- Node137784&#45;&gt;Node137785 -->
<g id="edge3" class="edge">
<title>Node137784&#45;&gt;Node137785</title>
<path fill="none" stroke="#191970" d="M619.9489,-593.516C648.6859,-581.7556 689.6559,-564.989 715.1336,-554.5625"/>
<polygon fill="#191970" stroke="#191970" points="618.2692,-590.4216 610.3399,-597.4484 620.9205,-596.9 618.2692,-590.4216"/>
</g>
<!-- Node137790 -->
<g id="node6" class="node">
<title>Node137790</title>
<g id="a_node6"><a xlink:href="quickjs_8c.html#aeafb37b03b5560171754f8c4505b0f6b" target="_top" xlink:title="JS_ThrowError2">
<polygon fill="none" stroke="#000000" points="363.5,-436.5 363.5,-455.5 450.5,-455.5 450.5,-436.5 363.5,-436.5"/>
<text text-anchor="middle" x="407" y="-443.5" font-family="Helvetica,sans-Serif" font-size="10.00" fill="#000000">JS_ThrowError2</text>
</a>
</g>
</g>
<!-- Node137789&#45;&gt;Node137790 -->
<g id="edge5" class="edge">
<title>Node137789&#45;&gt;Node137790</title>
<path fill="none" stroke="#191970" d="M245.1807,-368.1604C265.6791,-385.1122 300.1839,-411.4136 334,-427 343.1579,-431.221 353.4109,-434.6217 363.2719,-437.3137"/>
<polygon fill="#191970" stroke="#191970" points="247.2012,-365.2864 237.2961,-361.5263 242.6945,-370.6427 247.2012,-365.2864"/>
</g>
<!-- Node137813 -->
<g id="node8" class="node">
<title>Node137813</title>
<g id="a_node8"><a xlink:href="quickjs_8c.html#ac2894ff4edcdb4e6841bcce9c76081e3" target="_top" xlink:title="JS_CallInternal">
<polygon fill="none" stroke="#ff0000" points="545.5,-190.5 545.5,-209.5 628.5,-209.5 628.5,-190.5 545.5,-190.5"/>
<text text-anchor="middle" x="587" y="-197.5" font-family="Helvetica,sans-Serif" font-size="10.00" fill="#000000">JS_CallInternal</text>
</a>
</g>
</g>
<!-- Node137789&#45;&gt;Node137813 -->
<g id="edge7" class="edge">
<title>Node137789&#45;&gt;Node137813</title>
<path fill="none" stroke="#191970" d="M279.0839,-341.1625C331.6535,-329.1604 413.9544,-307.1583 480,-275 517.9366,-256.5282 557.2312,-225.3063 575.8839,-209.6129"/>
<polygon fill="#191970" stroke="#191970" points="278.2929,-337.7528 269.3025,-343.3584 279.8264,-344.5828 278.2929,-337.7528"/>
</g>
<!-- Node138056 -->
<g id="node9" class="node">
<title>Node138056</title>
<g id="a_node9"><a xlink:href="quickjs_8c.html#acdcc62310b4f6f73fa7bc7267b18b1d4" target="_top" xlink:title="js_parse_postfix_expr">
<polygon fill="none" stroke="#ff0000" points="351,-342.5 351,-361.5 463,-361.5 463,-342.5 351,-342.5"/>
<text text-anchor="middle" x="407" y="-349.5" font-family="Helvetica,sans-Serif" font-size="10.00" fill="#000000">js_parse_postfix_expr</text>
</a>
</g>
</g>
<!-- Node137789&#45;&gt;Node138056 -->
<g id="edge9" class="edge">
<title>Node137789&#45;&gt;Node138056</title>
<path fill="none" stroke="#191970" d="M279.3123,-352C301.7888,-352 328.0307,-352 350.8588,-352"/>
<polygon fill="#191970" stroke="#191970" points="279.276,-348.5001 269.276,-352 279.2759,-355.5001 279.276,-348.5001"/>
</g>
<!-- Node137840 -->
<g id="node10" class="node">
<title>Node137840</title>
<g id="a_node10"><a xlink:href="quickjs_8c.html#ad25358fc5ae69ab218abde24d52b7767" target="_top" xlink:title="js_error_constructor">
<polygon fill="none" stroke="#000000" points="355.5,-398.5 355.5,-417.5 458.5,-417.5 458.5,-398.5 355.5,-398.5"/>
<text text-anchor="middle" x="407" y="-405.5" font-family="Helvetica,sans-Serif" font-size="10.00" fill="#000000">js_error_constructor</text>
</a>
</g>
</g>
<!-- Node137789&#45;&gt;Node137840 -->
<g id="edge11" class="edge">
<title>Node137789&#45;&gt;Node137840</title>
<path fill="none" stroke="#191970" d="M261.8031,-364.9169C282.6737,-372.3607 309.694,-381.6658 334,-389 345.033,-392.3291 357.1068,-395.6146 368.2021,-398.4931"/>
<polygon fill="#191970" stroke="#191970" points="262.9796,-361.6207 252.3851,-361.5356 260.6141,-368.2089 262.9796,-361.6207"/>
</g>
<!-- Node137791 -->
<g id="node7" class="node">
<title>Node137791</title>
<g id="a_node7"><a xlink:href="quickjs_8c.html#a1b110b017211230b8b6310e853cd2b54" target="_top" xlink:title="JS_ThrowError">
<polygon fill="none" stroke="#ff0000" points="546,-531.5 546,-550.5 628,-550.5 628,-531.5 546,-531.5"/>
<text text-anchor="middle" x="587" y="-538.5" font-family="Helvetica,sans-Serif" font-size="10.00" fill="#000000">JS_ThrowError</text>
</a>
</g>
</g>
<!-- Node137790&#45;&gt;Node137791 -->
<g id="edge6" class="edge">
<title>Node137790&#45;&gt;Node137791</title>
<path fill="none" stroke="#191970" d="M460.6055,-456.2249C467.3737,-458.579 474.015,-461.4649 480,-465 500.0312,-476.8316 497.5066,-488.8852 516,-503 531.1146,-514.536 550.208,-524.5396 564.787,-531.3832"/>
<polygon fill="#191970" stroke="#191970" points="461.248,-452.7599 450.6601,-453.1429 459.1759,-459.4462 461.248,-452.7599"/>
</g>
<!-- Node137813&#45;&gt;Node137813 -->
<g id="edge8" class="edge">
<title>Node137813&#45;&gt;Node137813</title>
<path fill="none" stroke="#191970" d="M559.0009,-218.6539C560.1712,-223.9368 569.5043,-228 587,-228 613.6602,-228 621.3666,-218.5653 610.1194,-209.7571"/>
<polygon fill="#191970" stroke="#191970" points="562.1403,-220.208 563.8806,-209.7571 556.0029,-216.8417 562.1403,-220.208"/>
</g>
<!-- Node138056&#45;&gt;Node138056 -->
<g id="edge10" class="edge">
<title>Node138056&#45;&gt;Node138056</title>
<path fill="none" stroke="#191970" d="M373.267,-369.8913C373.761,-375.5406 385.0054,-380 407,-380 438.9922,-380 448.2399,-370.5653 434.7432,-361.7571"/>
<polygon fill="#191970" stroke="#191970" points="376.1456,-371.8848 379.2568,-361.7571 370.5089,-367.7341 376.1456,-371.8848"/>
</g>
<!-- Node137841 -->
<g id="node11" class="node">
<title>Node137841</title>
<g id="a_node11"><a xlink:href="quickjs_8c.html#a4c9489297c684663f30e517204a9ec14" target="_top" xlink:title="JS_AddIntrinsicBaseObjects">
<polygon fill="none" stroke="#000000" points="516,-474.5 516,-493.5 658,-493.5 658,-474.5 516,-474.5"/>
<text text-anchor="middle" x="587" y="-481.5" font-family="Helvetica,sans-Serif" font-size="10.00" fill="#000000">JS_AddIntrinsicBaseObjects</text>
</a>
</g>
</g>
<!-- Node137840&#45;&gt;Node137841 -->
<g id="edge12" class="edge">
<title>Node137840&#45;&gt;Node137841</title>
<path fill="none" stroke="#191970" d="M460.2061,-420.2817C466.9466,-422.2937 473.6885,-424.5371 480,-427 514.1176,-440.3134 551.2879,-461.8615 571.5997,-474.2998"/>
<polygon fill="#191970" stroke="#191970" points="460.9571,-416.8568 450.3818,-417.5007 459.0505,-423.5921 460.9571,-416.8568"/>
</g>
<!-- Node137841&#45;&gt;Node137785 -->
<g id="edge13" class="edge">
<title>Node137841&#45;&gt;Node137785</title>
<path fill="none" stroke="#191970" d="M620.2078,-497.3708C648.6918,-508.8396 689.052,-525.0903 714.4944,-535.3344"/>
<polygon fill="#191970" stroke="#191970" points="621.2555,-494.0196 610.6719,-493.5313 618.6409,-500.513 621.2555,-494.0196"/>
</g>
<!-- Node138390&#45;&gt;Node137813 -->
<g id="edge15" class="edge">
<title>Node138390&#45;&gt;Node137813</title>
<path fill="none" stroke="#191970" d="M280.8206,-170.2813C332.2596,-171.038 411.5876,-173.4752 480,-181 501.6607,-183.3825 525.5565,-187.4827 545.2614,-191.2657"/>
<polygon fill="#191970" stroke="#191970" points="280.6439,-166.7788 270.599,-170.1477 280.5523,-173.7782 280.6439,-166.7788"/>
</g>
<!-- Node138392 -->
<g id="node14" class="node">
<title>Node138392</title>
<g id="a_node14"><a xlink:href="quickjs_8c.html#a9ca2f6b32f0e892e8031147aa8edf270" target="_top" xlink:title="JS_DumpGCObject">
<polygon fill="none" stroke="#000000" points="355,-.5 355,-19.5 459,-19.5 459,-.5 355,-.5"/>
<text text-anchor="middle" x="407" y="-7.5" font-family="Helvetica,sans-Serif" font-size="10.00" fill="#000000">JS_DumpGCObject</text>
</a>
</g>
</g>
<!-- Node138391&#45;&gt;Node138392 -->
<g id="edge17" class="edge">
<title>Node138391&#45;&gt;Node138392</title>
<path fill="none" stroke="#191970" d="M280.6947,-75.0671C286.7368,-72.8467 292.6376,-70.1858 298,-67 318.0009,-55.1173 313.9688,-40.8316 334,-29 340.54,-25.1371 347.8636,-22.0493 355.2802,-19.5837"/>
<polygon fill="#191970" stroke="#191970" points="279.5488,-71.7595 271.1409,-78.2059 281.7337,-78.4097 279.5488,-71.7595"/>
</g>
<!-- Node138393&#45;&gt;Node137791 -->
<g id="edge20" class="edge">
<title>Node138393&#45;&gt;Node137791</title>
<path fill="none" stroke="#191970" d="M280.0476,-533.3641C297.1981,-536.4923 316.3236,-539.4499 334,-541 408.3847,-547.523 495.5449,-545.3826 545.7111,-543.2084"/>
<polygon fill="#191970" stroke="#191970" points="280.6786,-529.9214 270.2038,-531.5118 279.3841,-536.8007 280.6786,-529.9214"/>
</g>
<!-- Node138394 -->
<g id="node17" class="node">
<title>Node138394</title>
<g id="a_node17"><a xlink:href="quickjs_8c.html#adaeef1b86e37da5560f25b630c2d090c" target="_top" xlink:title="js_function_proto_caller">
<polygon fill="none" stroke="#000000" points="347.5,-474.5 347.5,-493.5 466.5,-493.5 466.5,-474.5 347.5,-474.5"/>
<text text-anchor="middle" x="407" y="-481.5" font-family="Helvetica,sans-Serif" font-size="10.00" fill="#000000">js_function_proto_caller</text>
</a>
</g>
</g>
<!-- Node138393&#45;&gt;Node138394 -->
<g id="edge21" class="edge">
<title>Node138393&#45;&gt;Node138394</title>
<path fill="none" stroke="#191970" d="M281.9847,-510.319C307.582,-504.9301 337.5838,-498.6139 361.7798,-493.5201"/>
<polygon fill="#191970" stroke="#191970" points="281.1122,-506.9259 272.0478,-512.411 282.5543,-513.7757 281.1122,-506.9259"/>
</g>
<!-- Node138395 -->
<g id="node18" class="node">
<title>Node138395</title>
<g id="a_node18"><a xlink:href="quickjs_8c.html#a9605bd425a349d4b00391cb6f5d5cfd8" target="_top" xlink:title="js_function_proto_fileName">
<polygon fill="none" stroke="#000000" points="339.5,-512.5 339.5,-531.5 474.5,-531.5 474.5,-512.5 339.5,-512.5"/>
<text text-anchor="middle" x="407" y="-519.5" font-family="Helvetica,sans-Serif" font-size="10.00" fill="#000000">js_function_proto_fileName</text>
</a>
</g>
</g>
<!-- Node138393&#45;&gt;Node138395 -->
<g id="edge23" class="edge">
<title>Node138393&#45;&gt;Node138395</title>
<path fill="none" stroke="#191970" d="M300.7845,-522C313.5702,-522 326.7975,-522 339.3953,-522"/>
<polygon fill="#191970" stroke="#191970" points="300.6458,-518.5001 290.6458,-522 300.6457,-525.5001 300.6458,-518.5001"/>
</g>
<!-- Node138396 -->
<g id="node19" class="node">
<title>Node138396</title>
<g id="a_node19"><a xlink:href="quickjs_8c.html#acd4bb9514182c7152570ca80a1a0650d" target="_top" xlink:title="js_function_proto_lineNumber">
<polygon fill="none" stroke="#000000" points="334,-588.5 334,-607.5 480,-607.5 480,-588.5 334,-588.5"/>
<text text-anchor="middle" x="407" y="-595.5" font-family="Helvetica,sans-Serif" font-size="10.00" fill="#000000">js_function_proto_lineNumber</text>
</a>
</g>
</g>
<!-- Node138393&#45;&gt;Node138396 -->
<g id="edge24" class="edge">
<title>Node138393&#45;&gt;Node138396</title>
<path fill="none" stroke="#191970" d="M253.5807,-536.3406C275.0508,-547.4051 305.9967,-562.6822 334,-574 347.1111,-579.299 361.8803,-584.3245 374.6865,-588.3945"/>
<polygon fill="#191970" stroke="#191970" points="254.9147,-533.0894 244.4276,-531.5827 251.6861,-539.3004 254.9147,-533.0894"/>
</g>
<!-- Node138394&#45;&gt;Node137841 -->
<g id="edge22" class="edge">
<title>Node138394&#45;&gt;Node137841</title>
<path fill="none" stroke="#191970" d="M477.0012,-484C489.726,-484 503.0126,-484 515.7724,-484"/>
<polygon fill="#191970" stroke="#191970" points="476.9374,-480.5001 466.9374,-484 476.9374,-487.5001 476.9374,-480.5001"/>
</g>
<!-- Node137820 -->
<g id="node21" class="node">
<title>Node137820</title>
<g id="a_node21"><a xlink:href="quickjs-libc_8c.html#aff1e6131e8bf8b7eb25307623ad669e7" target="_top" xlink:title="js_worker_ctor">
<polygon fill="none" stroke="#ff0000" points="367,-114.5 367,-133.5 447,-133.5 447,-114.5 367,-114.5"/>
<text text-anchor="middle" x="407" y="-121.5" font-family="Helvetica,sans-Serif" font-size="10.00" fill="#000000">js_worker_ctor</text>
</a>
</g>
</g>
<!-- Node138397&#45;&gt;Node137820 -->
<g id="edge26" class="edge">
<title>Node138397&#45;&gt;Node137820</title>
<path fill="none" stroke="#191970" d="M308.3445,-124C328.6982,-124 349.6272,-124 366.9421,-124"/>
<polygon fill="#191970" stroke="#191970" points="308.0977,-120.5001 298.0976,-124 308.0976,-127.5001 308.0977,-120.5001"/>
</g>
<!-- Node138398 -->
<g id="node22" class="node">
<title>Node138398</title>
<g id="a_node22"><a xlink:href="quickjs_8c.html#a2c15f4e9fa1344bb2d7caca8e21b34f4" target="_top" xlink:title="js_import_meta">
<polygon fill="none" stroke="#000000" points="365.5,-76.5 365.5,-95.5 448.5,-95.5 448.5,-76.5 365.5,-76.5"/>
<text text-anchor="middle" x="407" y="-83.5" font-family="Helvetica,sans-Serif" font-size="10.00" fill="#000000">js_import_meta</text>
</a>
</g>
</g>
<!-- Node138397&#45;&gt;Node138398 -->
<g id="edge27" class="edge">
<title>Node138397&#45;&gt;Node138398</title>
<path fill="none" stroke="#191970" d="M282.0945,-112.2959C308.9914,-106.6334 340.7305,-99.9515 365.4835,-94.7403"/>
<polygon fill="#191970" stroke="#191970" points="281.1122,-108.9259 272.0478,-114.411 282.5543,-115.7757 281.1122,-108.9259"/>
</g>
<!-- Node137875 -->
<g id="node23" class="node">
<title>Node137875</title>
<g id="a_node23"><a xlink:href="quickjs_8c.html#a50e94675d1c4cf67c88e72169ea3c21a" target="_top" xlink:title="js_dynamic_import">
<polygon fill="none" stroke="#000000" points="358,-38.5 358,-57.5 456,-57.5 456,-38.5 358,-38.5"/>
<text text-anchor="middle" x="407" y="-45.5" font-family="Helvetica,sans-Serif" font-size="10.00" fill="#000000">js_dynamic_import</text>
</a>
</g>
</g>
<!-- Node138397&#45;&gt;Node137875 -->
<g id="edge29" class="edge">
<title>Node138397&#45;&gt;Node137875</title>
<path fill="none" stroke="#191970" d="M286.3784,-110.823C290.4192,-109.1092 294.3354,-107.1772 298,-105 318.0009,-93.1173 313.9688,-78.8316 334,-67 341.3293,-62.6709 349.6428,-59.3153 357.9684,-56.7179"/>
<polygon fill="#191970" stroke="#191970" points="284.9068,-107.6372 276.7832,-114.4386 287.3751,-114.1876 284.9068,-107.6372"/>
</g>
<!-- Node138398&#45;&gt;Node137813 -->
<g id="edge28" class="edge">
<title>Node138398&#45;&gt;Node137813</title>
<path fill="none" stroke="#191970" d="M458.543,-96.1326C465.9617,-98.5208 473.3328,-101.4408 480,-105 522.7333,-127.8123 562.4481,-170.9919 578.9484,-190.2745"/>
<polygon fill="#191970" stroke="#191970" points="459.3983,-92.7362 448.818,-93.2904 457.4346,-99.4552 459.3983,-92.7362"/>
</g>
<!-- Node137875&#45;&gt;Node137813 -->
<g id="edge30" class="edge">
<title>Node137875&#45;&gt;Node137813</title>
<path fill="none" stroke="#191970" d="M465.9612,-59.7392C470.8884,-61.7838 475.644,-64.1835 480,-67 531.0168,-99.9865 568.9408,-165.4294 582.0264,-190.1951"/>
<polygon fill="#191970" stroke="#191970" points="466.9279,-56.3663 456.334,-56.2289 464.53,-62.9428 466.9279,-56.3663"/>
</g>
<!-- Node138399&#45;&gt;Node137813 -->
<g id="edge36" class="edge">
<title>Node138399&#45;&gt;Node137813</title>
<path fill="none" stroke="#191970" d="M272.5719,-240.526C291.3051,-247.1229 313.3657,-253.7255 334,-257 398.087,-267.17 417.0447,-272.7226 480,-257 516.7571,-247.8202 554.7237,-223.3696 574.0268,-209.6611"/>
<polygon fill="#191970" stroke="#191970" points="273.6983,-237.2115 263.1041,-237.0944 271.313,-243.7926 273.6983,-237.2115"/>
</g>
<!-- Node138040 -->
<g id="node25" class="node">
<title>Node138040</title>
<g id="a_node25"><a xlink:href="quickjs_8c.html#a44d4e574b5bd12a89f8389ca79e587a0" target="_top" xlink:title="js_method_set_properties">
<polygon fill="none" stroke="#000000" points="343,-228.5 343,-247.5 471,-247.5 471,-228.5 343,-228.5"/>
<text text-anchor="middle" x="407" y="-235.5" font-family="Helvetica,sans-Serif" font-size="10.00" fill="#000000">js_method_set_properties</text>
</a>
</g>
</g>
<!-- Node138399&#45;&gt;Node138040 -->
<g id="edge32" class="edge">
<title>Node138399&#45;&gt;Node138040</title>
<path fill="none" stroke="#191970" d="M291.7821,-227.7868C308.3654,-229.2568 326.1693,-230.835 342.7032,-232.3006"/>
<polygon fill="#191970" stroke="#191970" points="291.9067,-224.2842 281.6367,-226.8875 291.2886,-231.2569 291.9067,-224.2842"/>
</g>
<!-- Node138103 -->
<g id="node26" class="node">
<title>Node138103</title>
<g id="a_node26"><a xlink:href="quickjs_8c.html#a36322a209de4ef17f939e6d128578d7f" target="_top" xlink:title="js_op_define_class">
<polygon fill="none" stroke="#000000" points="357,-190.5 357,-209.5 457,-209.5 457,-190.5 357,-190.5"/>
<text text-anchor="middle" x="407" y="-197.5" font-family="Helvetica,sans-Serif" font-size="10.00" fill="#000000">js_op_define_class</text>
</a>
</g>
</g>
<!-- Node138399&#45;&gt;Node138103 -->
<g id="edge34" class="edge">
<title>Node138399&#45;&gt;Node138103</title>
<path fill="none" stroke="#191970" d="M291.6572,-214.0584C313.1189,-211.4426 336.6372,-208.5761 356.8069,-206.1177"/>
<polygon fill="#191970" stroke="#191970" points="291.1398,-210.5955 281.6367,-215.2797 291.9868,-217.5441 291.1398,-210.5955"/>
</g>
<!-- Node138040&#45;&gt;Node137813 -->
<g id="edge33" class="edge">
<title>Node138040&#45;&gt;Node137813</title>
<path fill="none" stroke="#191970" d="M462.4032,-226.3038C489.1235,-220.6628 520.643,-214.0087 545.2944,-208.8045"/>
<polygon fill="#191970" stroke="#191970" points="461.483,-222.9208 452.4216,-228.411 462.9289,-229.7699 461.483,-222.9208"/>
</g>
<!-- Node138103&#45;&gt;Node137813 -->
<g id="edge35" class="edge">
<title>Node138103&#45;&gt;Node137813</title>
<path fill="none" stroke="#191970" d="M467.1432,-200C492.8043,-200 522.1175,-200 545.3316,-200"/>
<polygon fill="#191970" stroke="#191970" points="467.1401,-196.5001 457.14,-200 467.14,-203.5001 467.1401,-196.5001"/>
</g>
</g>
</svg>
