<?xml version="1.0" encoding="UTF-8" standalone="no"?>
<!DOCTYPE svg PUBLIC "-//W3C//DTD SVG 1.1//EN"
 "http://www.w3.org/Graphics/SVG/1.1/DTD/svg11.dtd">
<!-- Generated by graphviz version 2.40.1 (20161225.0304)
 -->
<!-- Title: compact_properties Pages: 1 -->
<!--zoomable 332 -->
<svg id="main" version="1.1" xmlns="http://www.w3.org/2000/svg" xmlns:xlink="http://www.w3.org/1999/xlink" xml:space="preserve" onload="init(evt)">
<style type="text/css"><![CDATA[
.edge:hover path { stroke: red; }
.edge:hover polygon { stroke: red; fill: red; }
]]></style>
<script type="text/javascript"><![CDATA[
var edges = document.getElementsByTagName('g');
if (edges && edges.length) {
  for (var i=0;i<edges.length;i++) {
    if (edges[i].id.substr(0,4)=='edge') {
      edges[i].setAttribute('class','edge');
    }
  }
}
]]></script>
        <defs>
                <circle id="rim" cx="0" cy="0" r="7"/>
                <circle id="rim2" cx="0" cy="0" r="3.5"/>
                <g id="zoomPlus">
                        <use xlink:href="#rim" fill="#404040">
                                <set attributeName="fill" to="#808080" begin="zoomplus.mouseover" end="zoomplus.mouseout"/>
                        </use>
                        <path d="M-4,0h8M0,-4v8" fill="none" stroke="white" stroke-width="1.5" pointer-events="none"/>
                </g>
                <g id="zoomMin">
                        <use xlink:href="#rim" fill="#404040">
                                <set attributeName="fill" to="#808080" begin="zoomminus.mouseover" end="zoomminus.mouseout"/>
                        </use>
                        <path d="M-4,0h8" fill="none" stroke="white" stroke-width="1.5" pointer-events="none"/>
                </g>
                <g id="dirArrow">
                        <path fill="none" stroke="white" stroke-width="1.5" d="M0,-3.0v7 M-2.5,-0.5L0,-3.0L2.5,-0.5"/>
                </g>
               <g id="resetDef">
                       <use xlink:href="#rim2" fill="#404040">
                               <set attributeName="fill" to="#808080" begin="reset.mouseover" end="reset.mouseout"/>
                       </use>
               </g>
        </defs>

<script type="text/javascript">
var viewWidth = 525;
var viewHeight = 332;
var sectionId = 'dynsection-386';
</script>
<script xlink:href="svgpan.js"/>
<svg id="graph" class="graph">
<g id="viewport">
<title>compact_properties</title>
<!-- Node128727 -->
<g id="node1" class="node">
<title>Node128727</title>
<polygon fill="#bfbfbf" stroke="#000000" points="0,-152.5 0,-171.5 102,-171.5 102,-152.5 0,-152.5"/>
<text text-anchor="middle" x="51" y="-159.5" font-family="Helvetica,sans-Serif" font-size="10.00" fill="#000000">compact_properties</text>
</g>
<!-- Node128728 -->
<g id="node2" class="node">
<title>Node128728</title>
<g id="a_node2"><a xlink:href="quickjs_8c.html#a7da0cfa6f27af0e1b9599d7f359edbe2" target="_top" xlink:title="get_alloc_from_shape">
<polygon fill="none" stroke="#000000" points="138,-304.5 138,-323.5 250,-323.5 250,-304.5 138,-304.5"/>
<text text-anchor="middle" x="194" y="-311.5" font-family="Helvetica,sans-Serif" font-size="10.00" fill="#000000">get_alloc_from_shape</text>
</a>
</g>
</g>
<!-- Node128727&#45;&gt;Node128728 -->
<g id="edge1" class="edge">
<title>Node128727&#45;&gt;Node128728</title>
<path fill="none" stroke="#191970" d="M55.2308,-171.7263C65.8667,-195.1486 95.9104,-255.307 138,-290 142.706,-293.879 148.1327,-297.2281 153.7169,-300.0892"/>
<polygon fill="#191970" stroke="#191970" points="152.6176,-303.4367 163.1638,-304.4511 155.552,-297.0814 152.6176,-303.4367"/>
</g>
<!-- Node128729 -->
<g id="node3" class="node">
<title>Node128729</title>
<g id="a_node3"><a xlink:href="quickjs_8c.html#acab22c2945c4d609e57a2484feb68a96" target="_top" xlink:title="prop_hash_end">
<polygon fill="none" stroke="#000000" points="305.5,-285.5 305.5,-304.5 388.5,-304.5 388.5,-285.5 305.5,-285.5"/>
<text text-anchor="middle" x="347" y="-292.5" font-family="Helvetica,sans-Serif" font-size="10.00" fill="#000000">prop_hash_end</text>
</a>
</g>
</g>
<!-- Node128727&#45;&gt;Node128729 -->
<g id="edge15" class="edge">
<title>Node128727&#45;&gt;Node128729</title>
<path fill="none" stroke="#191970" d="M56.7736,-171.7171C69.0158,-191.3793 99.6291,-235.8086 138,-257 186.7164,-283.9049 250.6202,-292.2947 294.8793,-294.6487"/>
<polygon fill="#191970" stroke="#191970" points="294.9814,-298.1566 305.1272,-295.1049 295.2928,-291.1636 294.9814,-298.1566"/>
</g>
<!-- Node128730 -->
<g id="node4" class="node">
<title>Node128730</title>
<g id="a_node4"><a xlink:href="quickjs_8c.html#a8b6c89e0f589df709eb31a92b7fac32a" target="_top" xlink:title="get_shape_from_alloc">
<polygon fill="none" stroke="#000000" points="138,-228.5 138,-247.5 250,-247.5 250,-228.5 138,-228.5"/>
<text text-anchor="middle" x="194" y="-235.5" font-family="Helvetica,sans-Serif" font-size="10.00" fill="#000000">get_shape_from_alloc</text>
</a>
</g>
</g>
<!-- Node128727&#45;&gt;Node128730 -->
<g id="edge3" class="edge">
<title>Node128727&#45;&gt;Node128730</title>
<path fill="none" stroke="#191970" d="M63.3671,-171.5607C79.715,-183.8481 109.757,-205.2332 138,-219 142.3288,-221.11 146.9513,-223.0847 151.6146,-224.9028"/>
<polygon fill="#191970" stroke="#191970" points="150.5693,-228.2474 161.1629,-228.4079 152.9816,-221.6761 150.5693,-228.2474"/>
</g>
<!-- Node128731 -->
<g id="node5" class="node">
<title>Node128731</title>
<g id="a_node5"><a xlink:href="quickjs_8c.html#ab54e821a9b1b55dc16c4494bd410b698" target="_top" xlink:title="get_shape_size">
<polygon fill="none" stroke="#000000" points="151.5,-190.5 151.5,-209.5 236.5,-209.5 236.5,-190.5 151.5,-190.5"/>
<text text-anchor="middle" x="194" y="-197.5" font-family="Helvetica,sans-Serif" font-size="10.00" fill="#000000">get_shape_size</text>
</a>
</g>
</g>
<!-- Node128727&#45;&gt;Node128731 -->
<g id="edge4" class="edge">
<title>Node128727&#45;&gt;Node128731</title>
<path fill="none" stroke="#191970" d="M87.0849,-171.589C105.6296,-176.5169 128.4265,-182.5749 148.199,-187.8291"/>
<polygon fill="#191970" stroke="#191970" points="147.3631,-191.2284 157.9266,-190.4141 149.1609,-184.4632 147.3631,-191.2284"/>
</g>
<!-- Node128732 -->
<g id="node6" class="node">
<title>Node128732</title>
<g id="a_node6"><a xlink:href="quickjs_8c.html#a80e54dcf9ac687d4ccc2f90273565f30" target="_top" xlink:title="js_free">
<polygon fill="none" stroke="#000000" points="171,-152.5 171,-171.5 217,-171.5 217,-152.5 171,-152.5"/>
<text text-anchor="middle" x="194" y="-159.5" font-family="Helvetica,sans-Serif" font-size="10.00" fill="#000000">js_free</text>
</a>
</g>
</g>
<!-- Node128727&#45;&gt;Node128732 -->
<g id="edge5" class="edge">
<title>Node128727&#45;&gt;Node128732</title>
<path fill="none" stroke="#191970" d="M102.2224,-162C121.6015,-162 143.1472,-162 160.4904,-162"/>
<polygon fill="#191970" stroke="#191970" points="160.6889,-165.5001 170.6889,-162 160.6888,-158.5001 160.6889,-165.5001"/>
</g>
<!-- Node128734 -->
<g id="node8" class="node">
<title>Node128734</title>
<g id="a_node8"><a xlink:href="quickjs_8c.html#a78b7f6b85f2739b551ff54f16156128b" target="_top" xlink:title="js_malloc">
<polygon fill="none" stroke="#000000" points="165,-114.5 165,-133.5 223,-133.5 223,-114.5 165,-114.5"/>
<text text-anchor="middle" x="194" y="-121.5" font-family="Helvetica,sans-Serif" font-size="10.00" fill="#000000">js_malloc</text>
</a>
</g>
</g>
<!-- Node128727&#45;&gt;Node128734 -->
<g id="edge7" class="edge">
<title>Node128727&#45;&gt;Node128734</title>
<path fill="none" stroke="#191970" d="M87.0849,-152.411C107.7051,-146.9315 133.5828,-140.0549 154.7142,-134.4396"/>
<polygon fill="#191970" stroke="#191970" points="155.897,-137.7468 164.6627,-131.7959 154.0992,-130.9816 155.897,-137.7468"/>
</g>
<!-- Node128738 -->
<g id="node12" class="node">
<title>Node128738</title>
<g id="a_node12"><a xlink:href="list_8h.html#a3a5d0733570b2fafc18f4c71a2968ea5" target="_top" xlink:title="list_add_tail">
<polygon fill="none" stroke="#000000" points="160,-76.5 160,-95.5 228,-95.5 228,-76.5 160,-76.5"/>
<text text-anchor="middle" x="194" y="-83.5" font-family="Helvetica,sans-Serif" font-size="10.00" fill="#000000">list_add_tail</text>
</a>
</g>
</g>
<!-- Node128727&#45;&gt;Node128738 -->
<g id="edge11" class="edge">
<title>Node128727&#45;&gt;Node128738</title>
<path fill="none" stroke="#191970" d="M63.3671,-152.4393C79.715,-140.1519 109.757,-118.7668 138,-105 142.3288,-102.89 146.9513,-100.9153 151.6146,-99.0972"/>
<polygon fill="#191970" stroke="#191970" points="152.9816,-102.3239 161.1629,-95.5921 150.5693,-95.7526 152.9816,-102.3239"/>
</g>
<!-- Node128740 -->
<g id="node14" class="node">
<title>Node128740</title>
<g id="a_node14"><a xlink:href="list_8h.html#ab60d5d18869ebeb5d6ab694289576fa7" target="_top" xlink:title="list_del">
<polygon fill="none" stroke="#000000" points="170.5,-38.5 170.5,-57.5 217.5,-57.5 217.5,-38.5 170.5,-38.5"/>
<text text-anchor="middle" x="194" y="-45.5" font-family="Helvetica,sans-Serif" font-size="10.00" fill="#000000">list_del</text>
</a>
</g>
</g>
<!-- Node128727&#45;&gt;Node128740 -->
<g id="edge13" class="edge">
<title>Node128727&#45;&gt;Node128740</title>
<path fill="none" stroke="#191970" d="M57.2442,-152.4486C70.1167,-133.4789 101.4791,-90.8342 138,-67 144.8916,-62.5025 152.9576,-58.9587 160.787,-56.2123"/>
<polygon fill="#191970" stroke="#191970" points="161.9931,-59.5017 170.4715,-53.1482 159.8815,-52.8278 161.9931,-59.5017"/>
</g>
<!-- Node128741 -->
<g id="node15" class="node">
<title>Node128741</title>
<g id="a_node15"><a xlink:href="cutils_8h.html#a94f155fcce337a2b9d4719ed8042cbbe" target="_top" xlink:title="max_int">
<polygon fill="none" stroke="#000000" points="168.5,-.5 168.5,-19.5 219.5,-19.5 219.5,-.5 168.5,-.5"/>
<text text-anchor="middle" x="194" y="-7.5" font-family="Helvetica,sans-Serif" font-size="10.00" fill="#000000">max_int</text>
</a>
</g>
</g>
<!-- Node128727&#45;&gt;Node128741 -->
<g id="edge14" class="edge">
<title>Node128727&#45;&gt;Node128741</title>
<path fill="none" stroke="#191970" d="M54.6597,-152.393C64.3978,-128.0917 93.2919,-63.6487 138,-29 144.0253,-24.3304 151.2663,-20.7712 158.511,-18.0711"/>
<polygon fill="#191970" stroke="#191970" points="159.8491,-21.3165 168.2785,-14.8981 157.6863,-14.659 159.8491,-21.3165"/>
</g>
<!-- Node128728&#45;&gt;Node128729 -->
<g id="edge2" class="edge">
<title>Node128728&#45;&gt;Node128729</title>
<path fill="none" stroke="#191970" d="M250.1028,-307.033C264.7892,-305.2092 280.5576,-303.251 295.0188,-301.4552"/>
<polygon fill="#191970" stroke="#191970" points="295.7913,-304.8862 305.2837,-300.1805 294.9286,-297.9396 295.7913,-304.8862"/>
</g>
<!-- Node128733 -->
<g id="node7" class="node">
<title>Node128733</title>
<g id="a_node7"><a xlink:href="quickjs_8c.html#a69e19dda8a93d613203e0baa06f0ed8d" target="_top" xlink:title="js_free_rt">
<polygon fill="none" stroke="#000000" points="318.5,-171.5 318.5,-190.5 375.5,-190.5 375.5,-171.5 318.5,-171.5"/>
<text text-anchor="middle" x="347" y="-178.5" font-family="Helvetica,sans-Serif" font-size="10.00" fill="#000000">js_free_rt</text>
</a>
</g>
</g>
<!-- Node128732&#45;&gt;Node128733 -->
<g id="edge6" class="edge">
<title>Node128732&#45;&gt;Node128733</title>
<path fill="none" stroke="#191970" d="M217.2374,-164.8857C241.3601,-167.8813 279.51,-172.6189 308.2133,-176.1833"/>
<polygon fill="#191970" stroke="#191970" points="307.9621,-179.679 318.3173,-177.4381 308.8249,-172.7323 307.9621,-179.679"/>
</g>
<!-- Node128735 -->
<g id="node9" class="node">
<title>Node128735</title>
<g id="a_node9"><a xlink:href="quickjs_8c.html#a4b710876403548c1ad3edc7a7719c559" target="_top" xlink:title="js_malloc_rt">
<polygon fill="none" stroke="#000000" points="312.5,-133.5 312.5,-152.5 381.5,-152.5 381.5,-133.5 312.5,-133.5"/>
<text text-anchor="middle" x="347" y="-140.5" font-family="Helvetica,sans-Serif" font-size="10.00" fill="#000000">js_malloc_rt</text>
</a>
</g>
</g>
<!-- Node128734&#45;&gt;Node128735 -->
<g id="edge8" class="edge">
<title>Node128734&#45;&gt;Node128735</title>
<path fill="none" stroke="#191970" d="M223.1383,-127.6185C245.4658,-130.3912 276.6674,-134.2659 302.168,-137.4326"/>
<polygon fill="#191970" stroke="#191970" points="301.9903,-140.9374 312.3454,-138.6965 302.853,-133.9907 301.9903,-140.9374"/>
</g>
<!-- Node128736 -->
<g id="node10" class="node">
<title>Node128736</title>
<g id="a_node10"><a xlink:href="quickjs_8c.html#a344d6c0e45d9bf3861fd9269724045a2" target="_top" xlink:title="JS_ThrowOutOfMemory">
<polygon fill="none" stroke="#000000" points="286,-95.5 286,-114.5 408,-114.5 408,-95.5 286,-95.5"/>
<text text-anchor="middle" x="347" y="-102.5" font-family="Helvetica,sans-Serif" font-size="10.00" fill="#000000">JS_ThrowOutOfMemory</text>
</a>
</g>
</g>
<!-- Node128734&#45;&gt;Node128736 -->
<g id="edge9" class="edge">
<title>Node128734&#45;&gt;Node128736</title>
<path fill="none" stroke="#191970" d="M223.1383,-120.3815C238.2045,-118.5106 257.3113,-116.1378 275.9806,-113.8194"/>
<polygon fill="#191970" stroke="#191970" points="276.4858,-117.2836 285.9782,-112.5779 275.623,-110.337 276.4858,-117.2836"/>
</g>
<!-- Node128737 -->
<g id="node11" class="node">
<title>Node128737</title>
<g id="a_node11"><a xlink:href="quickjs_8c.html#a853f0924d441ea4225488f37c8b69f9a" target="_top" xlink:title="__attribute__">
<polygon fill="none" stroke="#000000" points="444,-95.5 444,-114.5 517,-114.5 517,-95.5 444,-95.5"/>
<text text-anchor="middle" x="480.5" y="-102.5" font-family="Helvetica,sans-Serif" font-size="10.00" fill="#000000">__attribute__</text>
</a>
</g>
</g>
<!-- Node128736&#45;&gt;Node128737 -->
<g id="edge10" class="edge">
<title>Node128736&#45;&gt;Node128737</title>
<path fill="none" stroke="#191970" d="M408.2799,-105C416.8587,-105 425.5588,-105 433.8083,-105"/>
<polygon fill="#191970" stroke="#191970" points="433.9737,-108.5001 443.9737,-105 433.9736,-101.5001 433.9737,-108.5001"/>
</g>
<!-- Node128739 -->
<g id="node13" class="node">
<title>Node128739</title>
<g id="a_node13"><a xlink:href="list_8h.html#a16286d5bff74a27aec51a3134ffc7b43" target="_top" xlink:title="__list_add">
<polygon fill="none" stroke="#000000" points="316.5,-57.5 316.5,-76.5 377.5,-76.5 377.5,-57.5 316.5,-57.5"/>
<text text-anchor="middle" x="347" y="-64.5" font-family="Helvetica,sans-Serif" font-size="10.00" fill="#000000">__list_add</text>
</a>
</g>
</g>
<!-- Node128738&#45;&gt;Node128739 -->
<g id="edge12" class="edge">
<title>Node128738&#45;&gt;Node128739</title>
<path fill="none" stroke="#191970" d="M228.3362,-81.736C251.4636,-78.864 282.0679,-75.0635 306.4032,-72.0414"/>
<polygon fill="#191970" stroke="#191970" points="306.9163,-75.5047 316.4088,-70.7989 306.0536,-68.558 306.9163,-75.5047"/>
</g>
</g>
</svg>
        <g id="navigator" transform="translate(0 0)" fill="#404254">
                <rect fill="#f2f5e9" fill-opacity="0.5" stroke="#606060" stroke-width=".5" x="0" y="0" width="60" height="60"/>
                <use id="zoomplus" xlink:href="#zoomPlus" x="17" y="9" onmousedown="handleZoom(evt,'in')"/>
                <use id="zoomminus" xlink:href="#zoomMin" x="42" y="9" onmousedown="handleZoom(evt,'out')"/>
                <use id="reset" xlink:href="#resetDef" x="30" y="36" onmousedown="handleReset()"/>
                <g id="arrowUp" xlink:href="#dirArrow" transform="translate(30 24)" onmousedown="handlePan(0,-1)">
                  <use xlink:href="#rim" fill="#404040">
                        <set attributeName="fill" to="#808080" begin="arrowUp.mouseover" end="arrowUp.mouseout"/>
                  </use>
                  <path fill="none" stroke="white" stroke-width="1.5" d="M0,-3.0v7 M-2.5,-0.5L0,-3.0L2.5,-0.5"/>
                </g>
                <g id="arrowRight" xlink:href="#dirArrow" transform="rotate(90) translate(36 -43)" onmousedown="handlePan(1,0)">
                  <use xlink:href="#rim" fill="#404040">
                        <set attributeName="fill" to="#808080" begin="arrowRight.mouseover" end="arrowRight.mouseout"/>
                  </use>
                  <path fill="none" stroke="white" stroke-width="1.5" d="M0,-3.0v7 M-2.5,-0.5L0,-3.0L2.5,-0.5"/>
                </g>
                <g id="arrowDown" xlink:href="#dirArrow" transform="rotate(180) translate(-30 -48)" onmousedown="handlePan(0,1)">
                  <use xlink:href="#rim" fill="#404040">
                        <set attributeName="fill" to="#808080" begin="arrowDown.mouseover" end="arrowDown.mouseout"/>
                  </use>
                  <path fill="none" stroke="white" stroke-width="1.5" d="M0,-3.0v7 M-2.5,-0.5L0,-3.0L2.5,-0.5"/>
                </g>
                <g id="arrowLeft" xlink:href="#dirArrow" transform="rotate(270) translate(-36 17)" onmousedown="handlePan(-1,0)">
                  <use xlink:href="#rim" fill="#404040">
                        <set attributeName="fill" to="#808080" begin="arrowLeft.mouseover" end="arrowLeft.mouseout"/>
                  </use>
                  <path fill="none" stroke="white" stroke-width="1.5" d="M0,-3.0v7 M-2.5,-0.5L0,-3.0L2.5,-0.5"/>
                </g>
        </g>
        <svg viewBox="0 0 15 15" width="100%" height="30px" preserveAspectRatio="xMaxYMin meet">
         <g id="arrow_out" transform="scale(0.3 0.3)">
          <a xlink:href="quickjs_8c_ab638a184d14e8b02ab3ea38b393c7cad_cgraph_org.svg" target="_base">
           <rect id="button" ry="5" rx="5" y="6" x="6" height="38" width="38"
                fill="#f2f5e9" fill-opacity="0.5" stroke="#606060" stroke-width="1.0"/>
           <path id="arrow"
             d="M 11.500037,31.436501 C 11.940474,20.09759 22.043105,11.32322 32.158766,21.979434 L 37.068811,17.246167 C 37.068811,17.246167 37.088388,32 37.088388,32 L 22.160133,31.978069 C 22.160133,31.978069 26.997745,27.140456 26.997745,27.140456 C 18.528582,18.264221 13.291696,25.230495 11.500037,31.436501 z"
             style="fill:#404040;"/>
          </a>
         </g>
        </svg>
</svg>
