<?xml version="1.0" encoding="UTF-8" standalone="no"?>
<!DOCTYPE svg PUBLIC "-//W3C//DTD SVG 1.1//EN"
 "http://www.w3.org/Graphics/SVG/1.1/DTD/svg11.dtd">
<!-- Generated by graphviz version 2.40.1 (20161225.0304)
 -->
<!-- Title: add_export_entry2 Pages: 1 -->
<svg width="699pt" height="268pt"
 viewBox="0.00 0.00 699.00 268.00" xmlns="http://www.w3.org/2000/svg" xmlns:xlink="http://www.w3.org/1999/xlink">
<g id="graph0" class="graph" transform="scale(1 1) rotate(0) translate(4 263.996)">
<title>add_export_entry2</title>
<!-- Node328477 -->
<g id="node1" class="node">
<title>Node328477</title>
<polygon fill="#bfbfbf" stroke="#000000" points="0,-116.3012 0,-135.3012 97,-135.3012 97,-116.3012 0,-116.3012"/>
<text text-anchor="middle" x="48.5" y="-123.3012" font-family="Helvetica,sans-Serif" font-size="10.00" fill="#000000">add_export_entry2</text>
</g>
<!-- Node328478 -->
<g id="node2" class="node">
<title>Node328478</title>
<g id="a_node2"><a xlink:href="quickjs_8c.html#ac4a40e2d5f6c48850ba11ed6ce953925" target="_top" xlink:title="add_export_entry">
<polygon fill="none" stroke="#000000" points="142.5,-173.3012 142.5,-192.3012 234.5,-192.3012 234.5,-173.3012 142.5,-173.3012"/>
<text text-anchor="middle" x="188.5" y="-180.3012" font-family="Helvetica,sans-Serif" font-size="10.00" fill="#000000">add_export_entry</text>
</a>
</g>
</g>
<!-- Node328477&#45;&gt;Node328478 -->
<g id="edge1" class="edge">
<title>Node328477&#45;&gt;Node328478</title>
<path fill="none" stroke="#191970" d="M81.2671,-139.1421C106.9439,-149.5963 142.048,-163.8886 164.9907,-173.2296"/>
<polygon fill="#191970" stroke="#191970" points="82.5145,-135.8711 71.9329,-135.3418 79.8748,-142.3543 82.5145,-135.8711"/>
</g>
<!-- Node328513 -->
<g id="node9" class="node">
<title>Node328513</title>
<g id="a_node9"><a xlink:href="quickjs_8c.html#a369af749a1fb181216fe8a8b55f841b0" target="_top" xlink:title="JS_AddModuleExport">
<polygon fill="none" stroke="#000000" points="133,-59.3012 133,-78.3012 244,-78.3012 244,-59.3012 133,-59.3012"/>
<text text-anchor="middle" x="188.5" y="-66.3012" font-family="Helvetica,sans-Serif" font-size="10.00" fill="#000000">JS_AddModuleExport</text>
</a>
</g>
</g>
<!-- Node328477&#45;&gt;Node328513 -->
<g id="edge16" class="edge">
<title>Node328477&#45;&gt;Node328513</title>
<path fill="none" stroke="#191970" d="M81.2671,-112.4604C106.9439,-102.0062 142.048,-87.7139 164.9907,-78.3729"/>
<polygon fill="#191970" stroke="#191970" points="79.8748,-109.2482 71.9329,-116.2607 82.5145,-115.7314 79.8748,-109.2482"/>
</g>
<!-- Node328479 -->
<g id="node3" class="node">
<title>Node328479</title>
<g id="a_node3"><a xlink:href="quickjs_8c.html#a00eb789430243c24dab4a63ad6a79653" target="_top" xlink:title="js_parse_class">
<polygon fill="none" stroke="#000000" points="453,-173.3012 453,-192.3012 535,-192.3012 535,-173.3012 453,-173.3012"/>
<text text-anchor="middle" x="494" y="-180.3012" font-family="Helvetica,sans-Serif" font-size="10.00" fill="#000000">js_parse_class</text>
</a>
</g>
</g>
<!-- Node328478&#45;&gt;Node328479 -->
<g id="edge2" class="edge">
<title>Node328478&#45;&gt;Node328479</title>
<path fill="none" stroke="#191970" d="M244.6733,-182.8012C304.9552,-182.8012 399.2594,-182.8012 452.9501,-182.8012"/>
<polygon fill="#191970" stroke="#191970" points="244.5672,-179.3013 234.5672,-182.8012 244.5672,-186.3013 244.5672,-179.3013"/>
</g>
<!-- Node328480 -->
<g id="node4" class="node">
<title>Node328480</title>
<g id="a_node4"><a xlink:href="quickjs_8c.html#a498e1d5c7de1b59c1630e9847cde1e41" target="_top" xlink:title="js_parse_export">
<polygon fill="none" stroke="#ff0000" points="592,-229.3012 592,-248.3012 678,-248.3012 678,-229.3012 592,-229.3012"/>
<text text-anchor="middle" x="635" y="-236.3012" font-family="Helvetica,sans-Serif" font-size="10.00" fill="#000000">js_parse_export</text>
</a>
</g>
</g>
<!-- Node328478&#45;&gt;Node328480 -->
<g id="edge9" class="edge">
<title>Node328478&#45;&gt;Node328480</title>
<path fill="none" stroke="#191970" d="M207.5975,-198.9963C225.1409,-212.7683 252.516,-231.5793 280,-239.8012 388.3506,-272.2148 523.7687,-257.6467 591.7801,-246.7955"/>
<polygon fill="#191970" stroke="#191970" points="209.3458,-195.9085 199.3712,-192.3366 204.9413,-201.3491 209.3458,-195.9085"/>
</g>
<!-- Node328482 -->
<g id="node7" class="node">
<title>Node328482</title>
<g id="a_node7"><a xlink:href="quickjs_8c.html#acc9eb677cab8dfcf45f59381f8a19601" target="_top" xlink:title="js_parse_function_decl2">
<polygon fill="none" stroke="#ff0000" points="283.5,-211.3012 283.5,-230.3012 405.5,-230.3012 405.5,-211.3012 283.5,-211.3012"/>
<text text-anchor="middle" x="344.5" y="-218.3012" font-family="Helvetica,sans-Serif" font-size="10.00" fill="#000000">js_parse_function_decl2</text>
</a>
</g>
</g>
<!-- Node328478&#45;&gt;Node328482 -->
<g id="edge10" class="edge">
<title>Node328478&#45;&gt;Node328482</title>
<path fill="none" stroke="#191970" d="M237.6317,-194.7692C259.4927,-200.0943 284.8761,-206.2775 305.4177,-211.2812"/>
<polygon fill="#191970" stroke="#191970" points="238.4097,-191.3565 227.8654,-192.3903 236.7529,-198.1576 238.4097,-191.3565"/>
</g>
<!-- Node328492 -->
<g id="node8" class="node">
<title>Node328492</title>
<g id="a_node8"><a xlink:href="quickjs_8c.html#a42924858317b848c3aea0a0a978fab3a" target="_top" xlink:title="js_parse_var">
<polygon fill="none" stroke="#000000" points="458,-135.3012 458,-154.3012 530,-154.3012 530,-135.3012 458,-135.3012"/>
<text text-anchor="middle" x="494" y="-142.3012" font-family="Helvetica,sans-Serif" font-size="10.00" fill="#000000">js_parse_var</text>
</a>
</g>
</g>
<!-- Node328478&#45;&gt;Node328492 -->
<g id="edge13" class="edge">
<title>Node328478&#45;&gt;Node328492</title>
<path fill="none" stroke="#191970" d="M244.5831,-175.8253C306.6514,-168.1048 404.8683,-155.888 457.6268,-149.3256"/>
<polygon fill="#191970" stroke="#191970" points="244.0587,-172.3634 234.5672,-177.0711 244.9228,-179.3099 244.0587,-172.3634"/>
</g>
<!-- Node328479&#45;&gt;Node328480 -->
<g id="edge3" class="edge">
<title>Node328479&#45;&gt;Node328480</title>
<path fill="none" stroke="#191970" d="M524.2098,-196.6829C540.3363,-203.9068 560.6008,-212.6897 579,-219.8012 587.5228,-223.0954 596.888,-226.3956 605.4798,-229.2993"/>
<polygon fill="#191970" stroke="#191970" points="525.3116,-193.3402 514.7572,-192.4154 522.4312,-199.7202 525.3116,-193.3402"/>
</g>
<!-- Node328486 -->
<g id="node5" class="node">
<title>Node328486</title>
<g id="a_node5"><a xlink:href="quickjs_8c.html#acdcc62310b4f6f73fa7bc7267b18b1d4" target="_top" xlink:title="js_parse_postfix_expr">
<polygon fill="none" stroke="#ff0000" points="579,-173.3012 579,-192.3012 691,-192.3012 691,-173.3012 579,-173.3012"/>
<text text-anchor="middle" x="635" y="-180.3012" font-family="Helvetica,sans-Serif" font-size="10.00" fill="#000000">js_parse_postfix_expr</text>
</a>
</g>
</g>
<!-- Node328479&#45;&gt;Node328486 -->
<g id="edge4" class="edge">
<title>Node328479&#45;&gt;Node328486</title>
<path fill="none" stroke="#191970" d="M545.3609,-176.2774C556.2482,-176.0142 567.7943,-175.9807 578.8489,-176.1771"/>
<polygon fill="#191970" stroke="#191970" points="545.0463,-172.7855 535.1621,-176.6001 545.2678,-179.782 545.0463,-172.7855"/>
</g>
<!-- Node328489 -->
<g id="node6" class="node">
<title>Node328489</title>
<g id="a_node6"><a xlink:href="quickjs_8c.html#a9d844c16dcc71701436848074337d32c" target="_top" xlink:title="js_parse_statement\l_or_decl">
<polygon fill="none" stroke="#ff0000" points="584,-105.8012 584,-135.8012 686,-135.8012 686,-105.8012 584,-105.8012"/>
<text text-anchor="start" x="592" y="-123.8012" font-family="Helvetica,sans-Serif" font-size="10.00" fill="#000000">js_parse_statement</text>
<text text-anchor="middle" x="635" y="-112.8012" font-family="Helvetica,sans-Serif" font-size="10.00" fill="#000000">_or_decl</text>
</a>
</g>
</g>
<!-- Node328479&#45;&gt;Node328489 -->
<g id="edge7" class="edge">
<title>Node328479&#45;&gt;Node328489</title>
<path fill="none" stroke="#191970" d="M529.064,-169.5355C533.7689,-167.6591 538.516,-165.7159 543,-163.8012 563.5923,-155.0083 586.3952,-144.3569 604.1474,-135.8551"/>
<polygon fill="#191970" stroke="#191970" points="527.5944,-166.3523 519.5634,-173.2628 530.1509,-172.8688 527.5944,-166.3523"/>
</g>
<!-- Node328486&#45;&gt;Node328479 -->
<g id="edge5" class="edge">
<title>Node328486&#45;&gt;Node328479</title>
<path fill="none" stroke="#191970" d="M568.8329,-189.5399C557.3554,-189.6001 545.7241,-189.4209 535.1621,-189.0024"/>
<polygon fill="#191970" stroke="#191970" points="568.8896,-193.0396 578.8489,-189.4254 568.8095,-186.04 568.8896,-193.0396"/>
</g>
<!-- Node328486&#45;&gt;Node328486 -->
<g id="edge6" class="edge">
<title>Node328486&#45;&gt;Node328486</title>
<path fill="none" stroke="#191970" d="M608.9584,-201.8304C610.3789,-206.9292 619.0594,-210.8012 635,-210.8012 659.8828,-210.8012 667.0755,-201.3665 656.5781,-192.5583"/>
<polygon fill="#191970" stroke="#191970" points="612.238,-203.0868 613.4219,-192.5583 605.9308,-200.0505 612.238,-203.0868"/>
</g>
<!-- Node328489&#45;&gt;Node328489 -->
<g id="edge8" class="edge">
<title>Node328489&#45;&gt;Node328489</title>
<path fill="none" stroke="#191970" d="M610.1237,-146.2591C613.2112,-150.9802 621.5033,-154.3012 635,-154.3012 657.1484,-154.3012 665.2811,-145.3578 659.3979,-135.9603"/>
<polygon fill="#191970" stroke="#191970" points="613.6342,-146.1119 610.6021,-135.9603 606.6418,-145.787 613.6342,-146.1119"/>
</g>
<!-- Node328482&#45;&gt;Node328479 -->
<g id="edge11" class="edge">
<title>Node328482&#45;&gt;Node328479</title>
<path fill="none" stroke="#191970" d="M392.1516,-208.6891C412.9726,-203.3968 437.0377,-197.28 456.5461,-192.3213"/>
<polygon fill="#191970" stroke="#191970" points="391.0547,-205.3566 382.2252,-211.2122 392.7792,-212.1408 391.0547,-205.3566"/>
</g>
<!-- Node328482&#45;&gt;Node328480 -->
<g id="edge12" class="edge">
<title>Node328482&#45;&gt;Node328480</title>
<path fill="none" stroke="#191970" d="M415.8029,-225.2193C470.8936,-228.6329 545.3392,-233.2457 591.7439,-236.121"/>
<polygon fill="#191970" stroke="#191970" points="415.95,-221.7218 405.7526,-224.5966 415.517,-228.7084 415.95,-221.7218"/>
</g>
<!-- Node328492&#45;&gt;Node328480 -->
<g id="edge14" class="edge">
<title>Node328492&#45;&gt;Node328480</title>
<path fill="none" stroke="#191970" d="M536.4513,-159.1961C538.7554,-160.603 540.9592,-162.1351 543,-163.8012 565.9195,-182.5136 555.6852,-201.5837 579,-219.8012 583.9348,-223.6572 589.6974,-226.7543 595.6132,-229.2353"/>
<polygon fill="#191970" stroke="#191970" points="537.6851,-155.8921 527.2001,-154.3703 534.4476,-162.0985 537.6851,-155.8921"/>
</g>
<!-- Node328492&#45;&gt;Node328489 -->
<g id="edge15" class="edge">
<title>Node328492&#45;&gt;Node328489</title>
<path fill="none" stroke="#191970" d="M540.2048,-136.9366C554.1966,-134.555 569.643,-131.9258 583.9338,-129.4934"/>
<polygon fill="#191970" stroke="#191970" points="539.5819,-133.4922 530.311,-138.6207 540.7565,-140.393 539.5819,-133.4922"/>
</g>
<!-- Node328514 -->
<g id="node10" class="node">
<title>Node328514</title>
<g id="a_node10"><a xlink:href="classqjs_1_1Context_1_1Module.html#aa51896e065a04689c9dbe80a282805bb" target="_top" xlink:title="qjs::Context::Module::add">
<polygon fill="none" stroke="#000000" points="280,-97.3012 280,-116.3012 409,-116.3012 409,-97.3012 280,-97.3012"/>
<text text-anchor="middle" x="344.5" y="-104.3012" font-family="Helvetica,sans-Serif" font-size="10.00" fill="#000000">qjs::Context::Module::add</text>
</a>
</g>
</g>
<!-- Node328513&#45;&gt;Node328514 -->
<g id="edge17" class="edge">
<title>Node328513&#45;&gt;Node328514</title>
<path fill="none" stroke="#191970" d="M237.6317,-80.7692C259.4927,-86.0943 284.8761,-92.2775 305.4177,-97.2812"/>
<polygon fill="#191970" stroke="#191970" points="238.4097,-77.3565 227.8654,-78.3903 236.7529,-84.1576 238.4097,-77.3565"/>
</g>
<!-- Node328515 -->
<g id="node11" class="node">
<title>Node328515</title>
<g id="a_node11"><a xlink:href="quickjs-libc_8c.html#a0e65c67dfff872a664f8d29e7eae5a61" target="_top" xlink:title="js_init_module_std">
<polygon fill="none" stroke="#000000" points="445,-40.3012 445,-59.3012 543,-59.3012 543,-40.3012 445,-40.3012"/>
<text text-anchor="middle" x="494" y="-47.3012" font-family="Helvetica,sans-Serif" font-size="10.00" fill="#000000">js_init_module_std</text>
</a>
</g>
</g>
<!-- Node328513&#45;&gt;Node328515 -->
<g id="edge18" class="edge">
<title>Node328513&#45;&gt;Node328515</title>
<path fill="none" stroke="#191970" d="M254.2043,-64.7149C311.3991,-61.1578 393.033,-56.0807 444.7604,-52.8636"/>
<polygon fill="#191970" stroke="#191970" points="253.9416,-61.2244 244.1782,-65.3384 254.3762,-68.2109 253.9416,-61.2244"/>
</g>
<!-- Node328516 -->
<g id="node13" class="node">
<title>Node328516</title>
<g id="a_node13"><a xlink:href="quickjs-libc_8c.html#adcca2b4a661355e6ff87a0def2339894" target="_top" xlink:title="js_init_module_os">
<polygon fill="none" stroke="#000000" points="446.5,-2.3012 446.5,-21.3012 541.5,-21.3012 541.5,-2.3012 446.5,-2.3012"/>
<text text-anchor="middle" x="494" y="-9.3012" font-family="Helvetica,sans-Serif" font-size="10.00" fill="#000000">js_init_module_os</text>
</a>
</g>
</g>
<!-- Node328513&#45;&gt;Node328516 -->
<g id="edge20" class="edge">
<title>Node328513&#45;&gt;Node328516</title>
<path fill="none" stroke="#191970" d="M207.5504,-52.445C225.0626,-38.5665 252.4183,-19.6896 280,-11.8012 335.3669,4.0336 402.1387,.6934 446.2077,-4.4069"/>
<polygon fill="#191970" stroke="#191970" points="204.8639,-50.1208 199.3409,-59.1623 209.2967,-55.5384 204.8639,-50.1208"/>
</g>
<!-- Node328517 -->
<g id="node14" class="node">
<title>Node328517</title>
<g id="a_node14"><a xlink:href="quickjs_8c.html#ac7a9b88dd7ca1a70cd0ecd9a28905e25" target="_top" xlink:title="JS_AddModuleExportList">
<polygon fill="none" stroke="#000000" points="281,-21.3012 281,-40.3012 408,-40.3012 408,-21.3012 281,-21.3012"/>
<text text-anchor="middle" x="344.5" y="-28.3012" font-family="Helvetica,sans-Serif" font-size="10.00" fill="#000000">JS_AddModuleExportList</text>
</a>
</g>
</g>
<!-- Node328513&#45;&gt;Node328517 -->
<g id="edge22" class="edge">
<title>Node328513&#45;&gt;Node328517</title>
<path fill="none" stroke="#191970" d="M237.6317,-56.8333C259.4927,-51.5082 284.8761,-45.325 305.4177,-40.3213"/>
<polygon fill="#191970" stroke="#191970" points="236.7529,-53.4449 227.8654,-59.2122 238.4097,-60.246 236.7529,-53.4449"/>
</g>
<!-- Node328512 -->
<g id="node12" class="node">
<title>Node328512</title>
<g id="a_node12"><a xlink:href="qjs_8cpp.html#a3c04138a5bfe5d72780bb7e82a18e627" target="_top" xlink:title="main">
<polygon fill="none" stroke="#000000" points="616,-21.3012 616,-40.3012 654,-40.3012 654,-21.3012 616,-21.3012"/>
<text text-anchor="middle" x="635" y="-28.3012" font-family="Helvetica,sans-Serif" font-size="10.00" fill="#000000">main</text>
</a>
</g>
</g>
<!-- Node328515&#45;&gt;Node328512 -->
<g id="edge19" class="edge">
<title>Node328515&#45;&gt;Node328512</title>
<path fill="none" stroke="#191970" d="M553.4236,-41.7938C575.7293,-38.7881 599.5522,-35.5779 615.6579,-33.4076"/>
<polygon fill="#191970" stroke="#191970" points="552.7579,-38.3518 543.315,-43.156 553.6928,-45.2891 552.7579,-38.3518"/>
</g>
<!-- Node328516&#45;&gt;Node328512 -->
<g id="edge21" class="edge">
<title>Node328516&#45;&gt;Node328512</title>
<path fill="none" stroke="#191970" d="M551.7486,-19.583C574.6505,-22.6691 599.4096,-26.0054 615.92,-28.2302"/>
<polygon fill="#191970" stroke="#191970" points="552.114,-16.1007 541.7362,-18.2338 551.1792,-23.038 552.114,-16.1007"/>
</g>
<!-- Node328517&#45;&gt;Node328515 -->
<g id="edge23" class="edge">
<title>Node328517&#45;&gt;Node328515</title>
<path fill="none" stroke="#191970" d="M418.4226,-40.1961C427.3875,-41.3354 436.3683,-42.4768 444.8491,-43.5547"/>
<polygon fill="#191970" stroke="#191970" points="418.6966,-36.7028 408.3351,-38.9141 417.814,-43.647 418.6966,-36.7028"/>
</g>
<!-- Node328517&#45;&gt;Node328516 -->
<g id="edge24" class="edge">
<title>Node328517&#45;&gt;Node328516</title>
<path fill="none" stroke="#191970" d="M418.5165,-21.3945C427.931,-20.198 437.361,-18.9995 446.2091,-17.875"/>
<polygon fill="#191970" stroke="#191970" points="417.814,-17.9555 408.3351,-22.6884 418.6966,-24.8997 417.814,-17.9555"/>
</g>
</g>
</svg>
