<?xml version="1.0" encoding="UTF-8" standalone="no"?>
<!DOCTYPE svg PUBLIC "-//W3C//DTD SVG 1.1//EN"
 "http://www.w3.org/Graphics/SVG/1.1/DTD/svg11.dtd">
<!-- Generated by graphviz version 2.40.1 (20161225.0304)
 -->
<!-- Title: js_array_from Pages: 1 -->
<!--zoomable 1168 -->
<svg id="main" version="1.1" xmlns="http://www.w3.org/2000/svg" xmlns:xlink="http://www.w3.org/1999/xlink" xml:space="preserve" onload="init(evt)">
<style type="text/css"><![CDATA[
.edge:hover path { stroke: red; }
.edge:hover polygon { stroke: red; fill: red; }
]]></style>
<script type="text/javascript"><![CDATA[
var edges = document.getElementsByTagName('g');
if (edges && edges.length) {
  for (var i=0;i<edges.length;i++) {
    if (edges[i].id.substr(0,4)=='edge') {
      edges[i].setAttribute('class','edge');
    }
  }
}
]]></script>
        <defs>
                <circle id="rim" cx="0" cy="0" r="7"/>
                <circle id="rim2" cx="0" cy="0" r="3.5"/>
                <g id="zoomPlus">
                        <use xlink:href="#rim" fill="#404040">
                                <set attributeName="fill" to="#808080" begin="zoomplus.mouseover" end="zoomplus.mouseout"/>
                        </use>
                        <path d="M-4,0h8M0,-4v8" fill="none" stroke="white" stroke-width="1.5" pointer-events="none"/>
                </g>
                <g id="zoomMin">
                        <use xlink:href="#rim" fill="#404040">
                                <set attributeName="fill" to="#808080" begin="zoomminus.mouseover" end="zoomminus.mouseout"/>
                        </use>
                        <path d="M-4,0h8" fill="none" stroke="white" stroke-width="1.5" pointer-events="none"/>
                </g>
                <g id="dirArrow">
                        <path fill="none" stroke="white" stroke-width="1.5" d="M0,-3.0v7 M-2.5,-0.5L0,-3.0L2.5,-0.5"/>
                </g>
               <g id="resetDef">
                       <use xlink:href="#rim2" fill="#404040">
                               <set attributeName="fill" to="#808080" begin="reset.mouseover" end="reset.mouseout"/>
                       </use>
               </g>
        </defs>

<script type="text/javascript">
var viewWidth = 685;
var viewHeight = 1168;
var sectionId = 'dynsection-1457';
</script>
<script xlink:href="svgpan.js"/>
<svg id="graph" class="graph">
<g id="viewport">
<title>js_array_from</title>
<!-- Node391040 -->
<g id="node1" class="node">
<title>Node391040</title>
<polygon fill="#bfbfbf" stroke="#000000" points="0,-437.5 0,-456.5 76,-456.5 76,-437.5 0,-437.5"/>
<text text-anchor="middle" x="38" y="-444.5" font-family="Helvetica,sans-Serif" font-size="10.00" fill="#000000">js_array_from</text>
</g>
<!-- Node391041 -->
<g id="node2" class="node">
<title>Node391041</title>
<g id="a_node2"><a xlink:href="quickjs_8c.html#a59a7e992f228759bf0a56f0aae4f3cc3" target="_top" xlink:title="check_function">
<polygon fill="none" stroke="#000000" points="143.5,-1140.5 143.5,-1159.5 226.5,-1159.5 226.5,-1140.5 143.5,-1140.5"/>
<text text-anchor="middle" x="185" y="-1147.5" font-family="Helvetica,sans-Serif" font-size="10.00" fill="#000000">check_function</text>
</a>
</g>
</g>
<!-- Node391040&#45;&gt;Node391041 -->
<g id="edge1" class="edge">
<title>Node391040&#45;&gt;Node391041</title>
<path fill="none" stroke="#191970" d="M38.4315,-456.7633C42.0121,-535.9452 67.775,-1071.4067 112,-1126 117.6743,-1133.0046 125.4389,-1137.9835 133.7951,-1141.5182"/>
<polygon fill="#191970" stroke="#191970" points="132.8062,-1144.881 143.4009,-1144.9262 135.1468,-1138.2839 132.8062,-1144.881"/>
</g>
<!-- Node391043 -->
<g id="node4" class="node">
<title>Node391043</title>
<g id="a_node4"><a xlink:href="quickjs_8c.html#a68c7842d6b1ef577bc4625aec4ede310" target="_top" xlink:title="js_array_constructor">
<polygon fill="none" stroke="#000000" points="132.5,-779.5 132.5,-798.5 237.5,-798.5 237.5,-779.5 132.5,-779.5"/>
<text text-anchor="middle" x="185" y="-786.5" font-family="Helvetica,sans-Serif" font-size="10.00" fill="#000000">js_array_constructor</text>
</a>
</g>
</g>
<!-- Node391040&#45;&gt;Node391043 -->
<g id="edge3" class="edge">
<title>Node391040&#45;&gt;Node391043</title>
<path fill="none" stroke="#191970" d="M40.3493,-456.6462C48.2105,-488.1979 75.1879,-590.8484 112,-670 129.5174,-707.6652 156.2985,-748.2343 172.0883,-770.9376"/>
<polygon fill="#191970" stroke="#191970" points="169.3194,-773.0847 177.9358,-779.2498 175.0447,-769.057 169.3194,-773.0847"/>
</g>
<!-- Node391045 -->
<g id="node6" class="node">
<title>Node391045</title>
<g id="a_node6"><a xlink:href="quickjs_8h.html#a775522f2d084fc8fa0fcb33f390006b4" target="_top" xlink:title="JS_DupValue">
<polygon fill="none" stroke="#000000" points="483.5,-959.5 483.5,-978.5 560.5,-978.5 560.5,-959.5 483.5,-959.5"/>
<text text-anchor="middle" x="522" y="-966.5" font-family="Helvetica,sans-Serif" font-size="10.00" fill="#000000">JS_DupValue</text>
</a>
</g>
</g>
<!-- Node391040&#45;&gt;Node391045 -->
<g id="edge28" class="edge">
<title>Node391040&#45;&gt;Node391045</title>
<path fill="none" stroke="#191970" d="M38.3827,-456.7595C41.4926,-533.6501 63.7443,-1040.0788 112,-1085 165.8542,-1135.1328 378.4927,-1128.3891 443,-1093 483.6801,-1070.6827 506.4204,-1017.5386 516.1872,-988.5983"/>
<polygon fill="#191970" stroke="#191970" points="519.6059,-989.397 519.3055,-978.8065 512.936,-987.2729 519.6059,-989.397"/>
</g>
<!-- Node391046 -->
<g id="node7" class="node">
<title>Node391046</title>
<g id="a_node7"><a xlink:href="quickjs_8h.html#afaa20c47565bc704c6c85f3d77254e7d" target="_top" xlink:title="JS_FreeValue">
<polygon fill="none" stroke="#ff0000" points="483,-494.5 483,-513.5 561,-513.5 561,-494.5 483,-494.5"/>
<text text-anchor="middle" x="522" y="-501.5" font-family="Helvetica,sans-Serif" font-size="10.00" fill="#000000">JS_FreeValue</text>
</a>
</g>
</g>
<!-- Node391040&#45;&gt;Node391046 -->
<g id="edge33" class="edge">
<title>Node391040&#45;&gt;Node391046</title>
<path fill="none" stroke="#191970" d="M51.6713,-437.4421C65.9573,-428.085 89.3993,-414.4638 112,-409 254.992,-374.4316 318.6895,-330.3324 443,-409 474.5828,-428.9866 452.2261,-458.9214 479,-485 480.447,-486.4094 482.0162,-487.7239 483.6703,-488.9487"/>
<polygon fill="#191970" stroke="#191970" points="482.1225,-492.1052 492.4772,-494.3485 485.7815,-486.1376 482.1225,-492.1052"/>
</g>
<!-- Node391086 -->
<g id="node8" class="node">
<title>Node391086</title>
<g id="a_node8"><a xlink:href="quickjs_8h.html#a89b7c8686c7eee70b86be722ee4730ad" target="_top" xlink:title="JS_GetProperty">
<polygon fill="none" stroke="#ff0000" points="479,-456.5 479,-475.5 565,-475.5 565,-456.5 479,-456.5"/>
<text text-anchor="middle" x="522" y="-463.5" font-family="Helvetica,sans-Serif" font-size="10.00" fill="#000000">JS_GetProperty</text>
</a>
</g>
</g>
<!-- Node391040&#45;&gt;Node391086 -->
<g id="edge39" class="edge">
<title>Node391040&#45;&gt;Node391086</title>
<path fill="none" stroke="#191970" d="M41.039,-437.3835C48.7022,-414.9904 71.1729,-359.6293 112,-338 176.9976,-303.5656 378.766,-302.1614 443,-338 484.8392,-361.3437 507.2844,-416.9714 516.6444,-446.619"/>
<polygon fill="#191970" stroke="#191970" points="513.306,-447.6719 519.5125,-456.2585 520.0153,-445.6756 513.306,-447.6719"/>
</g>
<!-- Node391095 -->
<g id="node9" class="node">
<title>Node391095</title>
<g id="a_node9"><a xlink:href="quickjs_8h.html#ad80a83d73e9b7d872b88fbf2943aebe9" target="_top" xlink:title="JS_IsException">
<polygon fill="none" stroke="#000000" points="479,-608.5 479,-627.5 565,-627.5 565,-608.5 479,-608.5"/>
<text text-anchor="middle" x="522" y="-615.5" font-family="Helvetica,sans-Serif" font-size="10.00" fill="#000000">JS_IsException</text>
</a>
</g>
</g>
<!-- Node391040&#45;&gt;Node391095 -->
<g id="edge44" class="edge">
<title>Node391040&#45;&gt;Node391095</title>
<path fill="none" stroke="#191970" d="M43.6514,-456.6635C54.612,-474.6028 80.4739,-513.2056 112,-535 221.8197,-610.92 385.3385,-620.6042 468.8044,-620.0309"/>
<polygon fill="#191970" stroke="#191970" points="468.8639,-623.5306 478.8208,-619.9097 468.7791,-616.5311 468.8639,-623.5306"/>
</g>
<!-- Node391250 -->
<g id="node10" class="node">
<title>Node391250</title>
<g id="a_node10"><a xlink:href="quickjs_8h.html#a4e407128a9605afb77523e49e9a627fd" target="_top" xlink:title="JS_IsUndefined">
<polygon fill="none" stroke="#000000" points="479,-836.5 479,-855.5 565,-855.5 565,-836.5 479,-836.5"/>
<text text-anchor="middle" x="522" y="-843.5" font-family="Helvetica,sans-Serif" font-size="10.00" fill="#000000">JS_IsUndefined</text>
</a>
</g>
</g>
<!-- Node391040&#45;&gt;Node391250 -->
<g id="edge45" class="edge">
<title>Node391040&#45;&gt;Node391250</title>
<path fill="none" stroke="#191970" d="M39.0475,-456.8088C44.6801,-508.2265 72.5843,-746.6346 112,-808 166.1435,-892.2948 198.7607,-909.9095 294,-941 356.9528,-961.5507 383.769,-970.6155 443,-941 466.8514,-929.0743 461.9796,-913.5285 479,-893 487.4309,-882.8314 497.3548,-871.9206 505.5433,-863.1736"/>
<polygon fill="#191970" stroke="#191970" points="508.157,-865.5037 512.483,-855.8323 503.07,-860.6951 508.157,-865.5037"/>
</g>
<!-- Node391172 -->
<g id="node12" class="node">
<title>Node391172</title>
<g id="a_node12"><a xlink:href="quickjs_8h.html#a88259aa0da61ac754402c64ccecee116" target="_top" xlink:title="JS_NewUint32">
<polygon fill="none" stroke="#ff0000" points="480.5,-902.5 480.5,-921.5 563.5,-921.5 563.5,-902.5 480.5,-902.5"/>
<text text-anchor="middle" x="522" y="-909.5" font-family="Helvetica,sans-Serif" font-size="10.00" fill="#000000">JS_NewUint32</text>
</a>
</g>
</g>
<!-- Node391040&#45;&gt;Node391172 -->
<g id="edge58" class="edge">
<title>Node391040&#45;&gt;Node391172</title>
<path fill="none" stroke="#191970" d="M38.4313,-456.6323C41.1794,-514.1392 57.892,-811.993 112,-882 204.6825,-1001.916 297.8167,-1007.4936 443,-964 466.1415,-957.0673 488.7766,-940.9282 503.844,-928.4544"/>
<polygon fill="#191970" stroke="#191970" points="506.4826,-930.8019 511.7876,-921.6309 501.9213,-925.492 506.4826,-930.8019"/>
</g>
<!-- Node391096 -->
<g id="node13" class="node">
<title>Node391096</title>
<g id="a_node13"><a xlink:href="quickjs_8h.html#a2050bc428da1c65ac7eb87c3fa3b0392" target="_top" xlink:title="JS_NewInt32">
<polygon fill="none" stroke="#000000" points="601,-266.5 601,-285.5 677,-285.5 677,-266.5 601,-266.5"/>
<text text-anchor="middle" x="639" y="-273.5" font-family="Helvetica,sans-Serif" font-size="10.00" fill="#000000">JS_NewInt32</text>
</a>
</g>
</g>
<!-- Node391040&#45;&gt;Node391096 -->
<g id="edge56" class="edge">
<title>Node391040&#45;&gt;Node391096</title>
<path fill="none" stroke="#191970" d="M39.7835,-437.4144C45.2085,-411.2889 64.1601,-338.7393 112,-308 190.2388,-257.7281 475.5483,-267.0462 590.5089,-273.0723"/>
<polygon fill="#191970" stroke="#191970" points="590.5922,-276.5818 600.7661,-273.6252 590.969,-269.5919 590.5922,-276.5818"/>
</g>
<!-- Node391358 -->
<g id="node14" class="node">
<title>Node391358</title>
<g id="a_node14"><a xlink:href="quickjs_8h.html#af763b173e78debf2075670ca2c128a30" target="_top" xlink:title="JS_SetProperty">
<polygon fill="none" stroke="#ff0000" points="325.5,-646.5 325.5,-665.5 411.5,-665.5 411.5,-646.5 325.5,-646.5"/>
<text text-anchor="middle" x="368.5" y="-653.5" font-family="Helvetica,sans-Serif" font-size="10.00" fill="#000000">JS_SetProperty</text>
</a>
</g>
</g>
<!-- Node391040&#45;&gt;Node391358 -->
<g id="edge59" class="edge">
<title>Node391040&#45;&gt;Node391358</title>
<path fill="none" stroke="#191970" d="M38.5336,-456.7263C40.8324,-488.1827 52.7024,-587.6848 112,-632 170.5167,-675.7315 258.7778,-673.4293 315.0074,-666.0327"/>
<polygon fill="#191970" stroke="#191970" points="315.7084,-669.4684 325.1196,-664.6022 314.7279,-662.5374 315.7084,-669.4684"/>
</g>
<!-- Node391322 -->
<g id="node17" class="node">
<title>Node391322</title>
<g id="a_node17"><a xlink:href="quickjs_8c.html#a1a4c02a29525d5cb2085dd8bca3af350" target="_top" xlink:title="JS_Call">
<polygon fill="none" stroke="#ff0000" points="159.5,-114.5 159.5,-133.5 210.5,-133.5 210.5,-114.5 159.5,-114.5"/>
<text text-anchor="middle" x="185" y="-121.5" font-family="Helvetica,sans-Serif" font-size="10.00" fill="#000000">JS_Call</text>
</a>
</g>
</g>
<!-- Node391040&#45;&gt;Node391322 -->
<g id="edge21" class="edge">
<title>Node391040&#45;&gt;Node391322</title>
<path fill="none" stroke="#191970" d="M39.1174,-437.4691C44.6955,-391.4111 70.9035,-192.3012 112,-148 121.6884,-137.5561 135.9953,-131.6492 149.3822,-128.3115"/>
<polygon fill="#191970" stroke="#191970" points="150.2764,-131.7003 159.3482,-126.2273 148.8434,-124.8485 150.2764,-131.7003"/>
</g>
<!-- Node391410 -->
<g id="node18" class="node">
<title>Node391410</title>
<g id="a_node18"><a xlink:href="quickjs_8c.html#a28704096ee67c5b0ab1bd60ce050e36a" target="_top" xlink:title="JS_CallConstructor">
<polygon fill="none" stroke="#ff0000" points="134,-76.5 134,-95.5 236,-95.5 236,-76.5 134,-76.5"/>
<text text-anchor="middle" x="185" y="-83.5" font-family="Helvetica,sans-Serif" font-size="10.00" fill="#000000">JS_CallConstructor</text>
</a>
</g>
</g>
<!-- Node391040&#45;&gt;Node391410 -->
<g id="edge22" class="edge">
<title>Node391040&#45;&gt;Node391410</title>
<path fill="none" stroke="#191970" d="M38.7415,-437.4146C42.8148,-387.2111 64.0576,-154.9762 112,-105 115.6462,-101.1991 119.9485,-98.1236 124.6107,-95.6393"/>
<polygon fill="#191970" stroke="#191970" points="126.1846,-98.771 133.9423,-91.5552 123.378,-92.3583 126.1846,-98.771"/>
</g>
<!-- Node391474 -->
<g id="node19" class="node">
<title>Node391474</title>
<g id="a_node19"><a xlink:href="quickjs_8c.html#a57a83f0615206965524d78bf89bbf777" target="_top" xlink:title="JS_DefinePropertyValueInt64">
<polygon fill="none" stroke="#000000" points="112,-228.5 112,-247.5 258,-247.5 258,-228.5 112,-228.5"/>
<text text-anchor="middle" x="185" y="-235.5" font-family="Helvetica,sans-Serif" font-size="10.00" fill="#000000">JS_DefinePropertyValueInt64</text>
</a>
</g>
</g>
<!-- Node391040&#45;&gt;Node391474 -->
<g id="edge23" class="edge">
<title>Node391040&#45;&gt;Node391474</title>
<path fill="none" stroke="#191970" d="M39.0158,-437.364C42.7276,-407.0149 58.2876,-312.4373 112,-262 116.2989,-257.9632 121.2897,-254.6049 126.6052,-251.8112"/>
<polygon fill="#191970" stroke="#191970" points="128.1458,-254.9555 135.7928,-247.6224 125.2418,-248.5863 128.1458,-254.9555"/>
</g>
<!-- Node391310 -->
<g id="node21" class="node">
<title>Node391310</title>
<g id="a_node21"><a xlink:href="quickjs_8h.html#a6acbc709e59969eac6775f9b253b438f" target="_top" xlink:title="JS_NewInt64">
<polygon fill="none" stroke="#ff0000" points="330.5,-190.5 330.5,-209.5 406.5,-209.5 406.5,-190.5 330.5,-190.5"/>
<text text-anchor="middle" x="368.5" y="-197.5" font-family="Helvetica,sans-Serif" font-size="10.00" fill="#000000">JS_NewInt64</text>
</a>
</g>
</g>
<!-- Node391040&#45;&gt;Node391310 -->
<g id="edge57" class="edge">
<title>Node391040&#45;&gt;Node391310</title>
<path fill="none" stroke="#191970" d="M39.6943,-437.2439C46.8292,-397.3576 75.744,-247.4564 112,-219 171.3567,-172.4124 264.1132,-179.05 320.3133,-188.9451"/>
<polygon fill="#191970" stroke="#191970" points="319.8934,-192.4271 330.3654,-190.8186 321.176,-185.5456 319.8934,-192.4271"/>
</g>
<!-- Node391429 -->
<g id="node22" class="node">
<title>Node391429</title>
<g id="a_node22"><a xlink:href="quickjs_8c.html#ac71df7cd121a3af9abf57897c58e75c2" target="_top" xlink:title="js_for_of_start">
<polygon fill="none" stroke="#ff0000" points="329,-494.5 329,-513.5 408,-513.5 408,-494.5 329,-494.5"/>
<text text-anchor="middle" x="368.5" y="-501.5" font-family="Helvetica,sans-Serif" font-size="10.00" fill="#000000">js_for_of_start</text>
</a>
</g>
</g>
<!-- Node391040&#45;&gt;Node391429 -->
<g id="edge29" class="edge">
<title>Node391040&#45;&gt;Node391429</title>
<path fill="none" stroke="#191970" d="M66.5516,-456.6031C80.1829,-460.8999 96.8016,-465.7241 112,-469 183.051,-484.3145 266.6937,-494.2474 318.6656,-499.4866"/>
<polygon fill="#191970" stroke="#191970" points="318.3285,-502.9702 328.6246,-500.472 319.0179,-496.0042 318.3285,-502.9702"/>
</g>
<!-- Node391475 -->
<g id="node23" class="node">
<title>Node391475</title>
<g id="a_node23"><a xlink:href="quickjs_8c.html#a5f848f76409193212a44e6221e430919" target="_top" xlink:title="js_get_length64">
<polygon fill="none" stroke="#000000" points="142.5,-418.5 142.5,-437.5 227.5,-437.5 227.5,-418.5 142.5,-418.5"/>
<text text-anchor="middle" x="185" y="-425.5" font-family="Helvetica,sans-Serif" font-size="10.00" fill="#000000">js_get_length64</text>
</a>
</g>
</g>
<!-- Node391040&#45;&gt;Node391475 -->
<g id="edge34" class="edge">
<title>Node391040&#45;&gt;Node391475</title>
<path fill="none" stroke="#191970" d="M76.2388,-442.0576C93.3217,-439.8496 113.7352,-437.2111 132.2387,-434.8195"/>
<polygon fill="#191970" stroke="#191970" points="132.8199,-438.2736 142.2887,-433.5205 131.9225,-431.3313 132.8199,-438.2736"/>
</g>
<!-- Node391479 -->
<g id="node25" class="node">
<title>Node391479</title>
<g id="a_node25"><a xlink:href="quickjs_8c.html#a7bb763b31e1c40a04aa0c1d5db0f1191" target="_top" xlink:title="JS_GetPropertyInt64">
<polygon fill="none" stroke="#ff0000" points="314.5,-152.5 314.5,-171.5 422.5,-171.5 422.5,-152.5 314.5,-152.5"/>
<text text-anchor="middle" x="368.5" y="-159.5" font-family="Helvetica,sans-Serif" font-size="10.00" fill="#000000">JS_GetPropertyInt64</text>
</a>
</g>
</g>
<!-- Node391040&#45;&gt;Node391479 -->
<g id="edge40" class="edge">
<title>Node391040&#45;&gt;Node391479</title>
<path fill="none" stroke="#191970" d="M39.1599,-437.302C44.6578,-393.0939 69.6067,-211.3416 112,-177 140.4186,-153.9789 237.6697,-154.2952 303.914,-157.4973"/>
<polygon fill="#191970" stroke="#191970" points="304.0967,-161.0113 314.2642,-158.0328 304.4585,-154.0207 304.0967,-161.0113"/>
</g>
<!-- Node391450 -->
<g id="node26" class="node">
<title>Node391450</title>
<g id="a_node26"><a xlink:href="quickjs_8c.html#afa39b15865cb50fc2383e76e33b2de1a" target="_top" xlink:title="JS_IsConstructor">
<polygon fill="none" stroke="#000000" points="138.5,-38.5 138.5,-57.5 231.5,-57.5 231.5,-38.5 138.5,-38.5"/>
<text text-anchor="middle" x="185" y="-45.5" font-family="Helvetica,sans-Serif" font-size="10.00" fill="#000000">JS_IsConstructor</text>
</a>
</g>
</g>
<!-- Node391040&#45;&gt;Node391450 -->
<g id="edge43" class="edge">
<title>Node391040&#45;&gt;Node391450</title>
<path fill="none" stroke="#191970" d="M38.517,-437.4342C41.5939,-384.0368 59.1891,-123.2077 112,-67 116.6994,-61.9983 122.534,-58.2482 128.842,-55.4469"/>
<polygon fill="#191970" stroke="#191970" points="130.1469,-58.6966 138.3457,-51.9861 127.7517,-52.1191 130.1469,-58.6966"/>
</g>
<!-- Node391325 -->
<g id="node27" class="node">
<title>Node391325</title>
<g id="a_node27"><a xlink:href="quickjs_8c.html#abb88b24dc63d82fcc312bba0cf93c3d7" target="_top" xlink:title="JS_IteratorClose">
<polygon fill="none" stroke="#ff0000" points="323.5,-570.5 323.5,-589.5 413.5,-589.5 413.5,-570.5 323.5,-570.5"/>
<text text-anchor="middle" x="368.5" y="-577.5" font-family="Helvetica,sans-Serif" font-size="10.00" fill="#000000">JS_IteratorClose</text>
</a>
</g>
</g>
<!-- Node391040&#45;&gt;Node391325 -->
<g id="edge46" class="edge">
<title>Node391040&#45;&gt;Node391325</title>
<path fill="none" stroke="#191970" d="M51.082,-456.6662C65.4538,-466.9549 89.4934,-483.2087 112,-494 181.8259,-527.4797 268.1033,-553.5065 320.6785,-567.7935"/>
<polygon fill="#191970" stroke="#191970" points="319.8447,-571.1935 330.4104,-570.4084 321.6612,-564.4333 319.8447,-571.1935"/>
</g>
<!-- Node391326 -->
<g id="node28" class="node">
<title>Node391326</title>
<g id="a_node28"><a xlink:href="quickjs_8c.html#a44f6eee98516c994a594533cfa8618ed" target="_top" xlink:title="JS_IteratorNext">
<polygon fill="none" stroke="#ff0000" points="325.5,-456.5 325.5,-475.5 411.5,-475.5 411.5,-456.5 325.5,-456.5"/>
<text text-anchor="middle" x="368.5" y="-463.5" font-family="Helvetica,sans-Serif" font-size="10.00" fill="#000000">JS_IteratorNext</text>
</a>
</g>
</g>
<!-- Node391040&#45;&gt;Node391326 -->
<g id="edge51" class="edge">
<title>Node391040&#45;&gt;Node391326</title>
<path fill="none" stroke="#191970" d="M76.2354,-449.1981C135.1059,-452.5825 248.1327,-459.0802 315.0646,-462.9281"/>
<polygon fill="#191970" stroke="#191970" points="315.2112,-466.4422 325.3956,-463.522 315.613,-459.4537 315.2112,-466.4422"/>
</g>
<!-- Node391307 -->
<g id="node29" class="node">
<title>Node391307</title>
<g id="a_node29"><a xlink:href="quickjs_8c.html#ad4ba09e4c7ab9f28c144182e1aacf1f6" target="_top" xlink:title="JS_NewArray">
<polygon fill="none" stroke="#ff0000" points="146.5,-.5 146.5,-19.5 223.5,-19.5 223.5,-.5 146.5,-.5"/>
<text text-anchor="middle" x="185" y="-7.5" font-family="Helvetica,sans-Serif" font-size="10.00" fill="#000000">JS_NewArray</text>
</a>
</g>
</g>
<!-- Node391040&#45;&gt;Node391307 -->
<g id="edge55" class="edge">
<title>Node391040&#45;&gt;Node391307</title>
<path fill="none" stroke="#191970" d="M38.3411,-437.2413C40.5274,-380.3044 54.3719,-91.396 112,-29 118.5286,-21.9312 127.3233,-17.355 136.5453,-14.4228"/>
<polygon fill="#191970" stroke="#191970" points="137.4229,-17.8111 146.2333,-11.9267 135.6763,-11.0325 137.4229,-17.8111"/>
</g>
<!-- Node391314 -->
<g id="node30" class="node">
<title>Node391314</title>
<g id="a_node30"><a xlink:href="quickjs_8c.html#a710289a14c2810467e5b448d3c28bd55" target="_top" xlink:title="JS_ToObject">
<polygon fill="none" stroke="#ff0000" points="331.5,-1064.5 331.5,-1083.5 405.5,-1083.5 405.5,-1064.5 331.5,-1064.5"/>
<text text-anchor="middle" x="368.5" y="-1071.5" font-family="Helvetica,sans-Serif" font-size="10.00" fill="#000000">JS_ToObject</text>
</a>
</g>
</g>
<!-- Node391040&#45;&gt;Node391314 -->
<g id="edge60" class="edge">
<title>Node391040&#45;&gt;Node391314</title>
<path fill="none" stroke="#191970" d="M38.4672,-456.6722C42.1371,-530.7627 67.3681,-1006.6359 112,-1050 167.0755,-1103.511 263.6492,-1096.0408 321.2851,-1085.3167"/>
<polygon fill="#191970" stroke="#191970" points="322.091,-1088.7253 331.2282,-1083.3623 320.7409,-1081.8567 322.091,-1088.7253"/>
</g>
<!-- Node391042 -->
<g id="node3" class="node">
<title>Node391042</title>
<g id="a_node3"><a xlink:href="quickjs_8c.html#a1ca9cdb1fa2ffc3e6506e92b200e490f" target="_top" xlink:title="JS_IsFunction">
<polygon fill="none" stroke="#000000" points="328.5,-1140.5 328.5,-1159.5 408.5,-1159.5 408.5,-1140.5 328.5,-1140.5"/>
<text text-anchor="middle" x="368.5" y="-1147.5" font-family="Helvetica,sans-Serif" font-size="10.00" fill="#000000">JS_IsFunction</text>
</a>
</g>
</g>
<!-- Node391041&#45;&gt;Node391042 -->
<g id="edge2" class="edge">
<title>Node391041&#45;&gt;Node391042</title>
<path fill="none" stroke="#191970" d="M226.639,-1150C253.762,-1150 289.3129,-1150 318.0401,-1150"/>
<polygon fill="#191970" stroke="#191970" points="318.2869,-1153.5001 328.2869,-1150 318.2868,-1146.5001 318.2869,-1153.5001"/>
</g>
<!-- Node391044 -->
<g id="node5" class="node">
<title>Node391044</title>
<g id="a_node5"><a xlink:href="quickjs_8c.html#a93dbf502b17d1328c524401335f60499" target="_top" xlink:title="js_create_from_ctor">
<polygon fill="none" stroke="#ff0000" points="317,-836.5 317,-855.5 420,-855.5 420,-836.5 317,-836.5"/>
<text text-anchor="middle" x="368.5" y="-843.5" font-family="Helvetica,sans-Serif" font-size="10.00" fill="#000000">js_create_from_ctor</text>
</a>
</g>
</g>
<!-- Node391043&#45;&gt;Node391044 -->
<g id="edge4" class="edge">
<title>Node391043&#45;&gt;Node391044</title>
<path fill="none" stroke="#191970" d="M215.7138,-798.5405C246.5435,-808.1171 294.2004,-822.9205 328.0839,-833.4457"/>
<polygon fill="#191970" stroke="#191970" points="327.0979,-836.8043 337.686,-836.4284 329.1744,-830.1194 327.0979,-836.8043"/>
</g>
<!-- Node391043&#45;&gt;Node391045 -->
<g id="edge10" class="edge">
<title>Node391043&#45;&gt;Node391045</title>
<path fill="none" stroke="#191970" d="M188.6124,-798.5893C199.5756,-826.2135 235.3512,-906.2068 294,-941 348.9169,-973.5792 424.3264,-976.3588 473.1131,-973.8703"/>
<polygon fill="#191970" stroke="#191970" points="473.3314,-977.3635 483.1027,-973.2681 472.9101,-970.3762 473.3314,-977.3635"/>
</g>
<!-- Node391043&#45;&gt;Node391046 -->
<g id="edge11" class="edge">
<title>Node391043&#45;&gt;Node391046</title>
<path fill="none" stroke="#191970" d="M210.3452,-779.4709C232.3084,-771.3805 265.0247,-759.7281 294,-751 359.4376,-731.2886 393.337,-759.949 443,-713 481.6109,-676.4991 460.0114,-648.624 479,-599 489.3653,-571.9117 503.5976,-541.5221 512.7974,-522.572"/>
<polygon fill="#191970" stroke="#191970" points="515.9616,-524.0687 517.2184,-513.5487 509.6755,-520.9888 515.9616,-524.0687"/>
</g>
<!-- Node391043&#45;&gt;Node391095 -->
<g id="edge12" class="edge">
<title>Node391043&#45;&gt;Node391095</title>
<path fill="none" stroke="#191970" d="M214.9243,-798.6037C266.172,-813.1035 372.0599,-834.3712 443,-789 496.1797,-754.9878 514.0775,-675.0444 519.6648,-637.7746"/>
<polygon fill="#191970" stroke="#191970" points="523.1586,-638.0547 521.029,-627.6762 516.2216,-637.1176 523.1586,-638.0547"/>
</g>
<!-- Node391256 -->
<g id="node11" class="node">
<title>Node391256</title>
<g id="a_node11"><a xlink:href="quickjs_8h.html#ab995df176086f2a2a06ab777d4c4ef28" target="_top" xlink:title="JS_IsNumber">
<polygon fill="none" stroke="#000000" points="330,-684.5 330,-703.5 407,-703.5 407,-684.5 330,-684.5"/>
<text text-anchor="middle" x="368.5" y="-691.5" font-family="Helvetica,sans-Serif" font-size="10.00" fill="#000000">JS_IsNumber</text>
</a>
</g>
</g>
<!-- Node391043&#45;&gt;Node391256 -->
<g id="edge13" class="edge">
<title>Node391043&#45;&gt;Node391256</title>
<path fill="none" stroke="#191970" d="M197.4327,-779.3079C217.0208,-764.4165 256.6871,-735.7716 294,-718 302.9232,-713.75 312.7898,-709.9777 322.3434,-706.7546"/>
<polygon fill="#191970" stroke="#191970" points="323.6901,-709.9979 332.1333,-703.5977 321.5417,-703.3357 323.6901,-709.9979"/>
</g>
<!-- Node391043&#45;&gt;Node391172 -->
<g id="edge14" class="edge">
<title>Node391043&#45;&gt;Node391172</title>
<path fill="none" stroke="#191970" d="M195.5527,-798.6119C214.0488,-814.9113 254.1567,-847.868 294,-865 325.0854,-878.3662 413.0509,-894.3551 470.1882,-903.8173"/>
<polygon fill="#191970" stroke="#191970" points="469.6926,-907.2827 480.1276,-905.4491 470.8267,-900.3752 469.6926,-907.2827"/>
</g>
<!-- Node391043&#45;&gt;Node391358 -->
<g id="edge16" class="edge">
<title>Node391043&#45;&gt;Node391358</title>
<path fill="none" stroke="#191970" d="M191.3511,-779.3198C206.3848,-757.2081 246.4774,-702.7654 294,-675 300.5711,-671.1608 307.9107,-668.0892 315.3504,-665.6338"/>
<polygon fill="#191970" stroke="#191970" points="316.5312,-668.9347 325.1322,-662.7481 314.5505,-662.2207 316.5312,-668.9347"/>
</g>
<!-- Node391473 -->
<g id="node15" class="node">
<title>Node391473</title>
<g id="a_node15"><a xlink:href="quickjs_8c.html#aae909eaec829081b270012adfcd717a4" target="_top" xlink:title="JS_SetPropertyUint32">
<polygon fill="none" stroke="#ff0000" points="311.5,-912.5 311.5,-931.5 425.5,-931.5 425.5,-912.5 311.5,-912.5"/>
<text text-anchor="middle" x="368.5" y="-919.5" font-family="Helvetica,sans-Serif" font-size="10.00" fill="#000000">JS_SetPropertyUint32</text>
</a>
</g>
</g>
<!-- Node391043&#45;&gt;Node391473 -->
<g id="edge17" class="edge">
<title>Node391043&#45;&gt;Node391473</title>
<path fill="none" stroke="#191970" d="M192.0462,-798.6749C207.8988,-819.7692 248.5565,-870.2306 294,-898 301.2506,-902.4306 309.404,-906.1287 317.5867,-909.1878"/>
<polygon fill="#191970" stroke="#191970" points="316.5588,-912.5356 327.1535,-912.491 318.8434,-905.9189 316.5588,-912.5356"/>
</g>
<!-- Node391279 -->
<g id="node16" class="node">
<title>Node391279</title>
<g id="a_node16"><a xlink:href="quickjs_8c.html#a2ffb9d0277fd9e41a6604834f9c12b6f" target="_top" xlink:title="JS_ToArrayLengthFree">
<polygon fill="none" stroke="#ff0000" points="310,-760.5 310,-779.5 427,-779.5 427,-760.5 310,-760.5"/>
<text text-anchor="middle" x="368.5" y="-767.5" font-family="Helvetica,sans-Serif" font-size="10.00" fill="#000000">JS_ToArrayLengthFree</text>
</a>
</g>
</g>
<!-- Node391043&#45;&gt;Node391279 -->
<g id="edge19" class="edge">
<title>Node391043&#45;&gt;Node391279</title>
<path fill="none" stroke="#191970" d="M237.5837,-783.5554C256.9695,-781.5481 279.2271,-779.2435 299.8253,-777.1107"/>
<polygon fill="#191970" stroke="#191970" points="300.1976,-780.591 309.784,-776.0796 299.4766,-773.6282 300.1976,-780.591"/>
</g>
<!-- Node391044&#45;&gt;Node391045 -->
<g id="edge5" class="edge">
<title>Node391044&#45;&gt;Node391045</title>
<path fill="none" stroke="#191970" d="M381.2828,-855.5183C396.2252,-866.7048 421.6323,-885.9129 443,-903 463.7273,-919.575 486.9905,-939.1288 502.873,-952.6282"/>
<polygon fill="#191970" stroke="#191970" points="500.9931,-955.6248 510.8742,-959.4476 505.5337,-950.2972 500.9931,-955.6248"/>
</g>
<!-- Node391044&#45;&gt;Node391046 -->
<g id="edge6" class="edge">
<title>Node391044&#45;&gt;Node391046</title>
<path fill="none" stroke="#191970" d="M387.9527,-836.4175C405.236,-826.8504 429.7528,-810.4871 443,-789 488.1047,-715.8397 453.0967,-680.9505 479,-599 487.6951,-571.4912 502.2275,-541.4179 511.9604,-522.6327"/>
<polygon fill="#191970" stroke="#191970" points="515.1135,-524.1567 516.6812,-513.6785 508.9214,-520.892 515.1135,-524.1567"/>
</g>
<!-- Node391044&#45;&gt;Node391086 -->
<g id="edge7" class="edge">
<title>Node391044&#45;&gt;Node391086</title>
<path fill="none" stroke="#191970" d="M388.6445,-836.4428C406.1482,-826.9926 430.5866,-810.7921 443,-789 510.3416,-670.7793 398.1526,-594.429 479,-485 479.7911,-483.9292 480.656,-482.9177 481.5821,-481.9623"/>
<polygon fill="#191970" stroke="#191970" points="483.917,-484.5806 489.6696,-475.6834 479.6243,-479.0513 483.917,-484.5806"/>
</g>
<!-- Node391044&#45;&gt;Node391095 -->
<g id="edge8" class="edge">
<title>Node391044&#45;&gt;Node391095</title>
<path fill="none" stroke="#191970" d="M419.1507,-836.4417C427.8736,-833.0085 436.28,-828.3422 443,-822 497.1652,-770.8795 514.7034,-678.3712 519.9451,-637.8812"/>
<polygon fill="#191970" stroke="#191970" points="523.4494,-638.049 521.1397,-627.709 516.4972,-637.2325 523.4494,-638.049"/>
</g>
<!-- Node391044&#45;&gt;Node391250 -->
<g id="edge9" class="edge">
<title>Node391044&#45;&gt;Node391250</title>
<path fill="none" stroke="#191970" d="M420.0403,-846C435.687,-846 452.9063,-846 468.6682,-846"/>
<polygon fill="#191970" stroke="#191970" points="468.7845,-849.5001 478.7845,-846 468.7844,-842.5001 468.7845,-849.5001"/>
</g>
<!-- Node391172&#45;&gt;Node391096 -->
<g id="edge15" class="edge">
<title>Node391172&#45;&gt;Node391096</title>
<path fill="none" stroke="#191970" d="M534.4315,-902.2441C544.473,-893.6063 558.0395,-880.0583 565,-865 613.5183,-760.0356 633.837,-386.5143 638.1137,-295.9071"/>
<polygon fill="#191970" stroke="#191970" points="641.6118,-296.0275 638.5753,-285.8771 634.6192,-295.7055 641.6118,-296.0275"/>
</g>
<!-- Node391473&#45;&gt;Node391172 -->
<g id="edge18" class="edge">
<title>Node391473&#45;&gt;Node391172</title>
<path fill="none" stroke="#191970" d="M425.6577,-918.2764C440.1989,-917.3291 455.7457,-916.3162 470.0136,-915.3867"/>
<polygon fill="#191970" stroke="#191970" points="470.3929,-918.8695 480.1442,-914.7268 469.9378,-911.8843 470.3929,-918.8695"/>
</g>
<!-- Node391279&#45;&gt;Node391095 -->
<g id="edge20" class="edge">
<title>Node391279&#45;&gt;Node391095</title>
<path fill="none" stroke="#191970" d="M415.534,-760.4008C425.2628,-756.9497 434.9786,-752.2867 443,-746 480.1796,-716.8612 504.2605,-664.9926 515.1906,-637.0648"/>
<polygon fill="#191970" stroke="#191970" points="518.4943,-638.2228 518.7356,-627.6307 511.9417,-635.7604 518.4943,-638.2228"/>
</g>
<!-- Node391309 -->
<g id="node20" class="node">
<title>Node391309</title>
<g id="a_node20"><a xlink:href="quickjs_8c.html#a0c61bd5a64c743e81188bb528b78e715" target="_top" xlink:title="JS_DefinePropertyValueValue">
<polygon fill="none" stroke="#ff0000" points="294,-228.5 294,-247.5 443,-247.5 443,-228.5 294,-228.5"/>
<text text-anchor="middle" x="368.5" y="-235.5" font-family="Helvetica,sans-Serif" font-size="10.00" fill="#000000">JS_DefinePropertyValueValue</text>
</a>
</g>
</g>
<!-- Node391474&#45;&gt;Node391309 -->
<g id="edge24" class="edge">
<title>Node391474&#45;&gt;Node391309</title>
<path fill="none" stroke="#191970" d="M258.0513,-238C266.528,-238 275.227,-238 283.8421,-238"/>
<polygon fill="#191970" stroke="#191970" points="283.8987,-241.5001 293.8987,-238 283.8986,-234.5001 283.8987,-241.5001"/>
</g>
<!-- Node391474&#45;&gt;Node391310 -->
<g id="edge26" class="edge">
<title>Node391474&#45;&gt;Node391310</title>
<path fill="none" stroke="#191970" d="M231.3048,-228.411C258.5381,-222.7714 292.9178,-215.6519 320.4486,-209.9507"/>
<polygon fill="#191970" stroke="#191970" points="321.1733,-213.375 330.2558,-207.9198 319.7537,-206.5204 321.1733,-213.375"/>
</g>
<!-- Node391309&#45;&gt;Node391046 -->
<g id="edge25" class="edge">
<title>Node391309&#45;&gt;Node391046</title>
<path fill="none" stroke="#191970" d="M377.8056,-247.6249C393.6073,-264.5086 425.6553,-301.1798 443,-338 471.6645,-398.8506 435.7986,-433.4434 479,-485 480.1172,-486.3332 481.3464,-487.5762 482.6612,-488.7346"/>
<polygon fill="#191970" stroke="#191970" points="480.7336,-491.6572 490.944,-494.4856 484.726,-485.9073 480.7336,-491.6572"/>
</g>
<!-- Node391310&#45;&gt;Node391096 -->
<g id="edge27" class="edge">
<title>Node391310&#45;&gt;Node391096</title>
<path fill="none" stroke="#191970" d="M406.8474,-209.5198C418.4806,-212.4777 431.2816,-215.8027 443,-219 496.6225,-233.6305 558.1123,-251.73 597.7003,-263.5556"/>
<polygon fill="#191970" stroke="#191970" points="596.9373,-266.9806 607.521,-266.4948 598.9444,-260.2745 596.9373,-266.9806"/>
</g>
<!-- Node391429&#45;&gt;Node391046 -->
<g id="edge30" class="edge">
<title>Node391429&#45;&gt;Node391046</title>
<path fill="none" stroke="#191970" d="M408.0301,-504C427.7118,-504 451.7023,-504 472.5865,-504"/>
<polygon fill="#191970" stroke="#191970" points="472.8699,-507.5001 482.8699,-504 472.8698,-500.5001 472.8699,-507.5001"/>
</g>
<!-- Node391429&#45;&gt;Node391086 -->
<g id="edge31" class="edge">
<title>Node391429&#45;&gt;Node391086</title>
<path fill="none" stroke="#191970" d="M407.2345,-494.411C427.3993,-489.4191 452.2479,-483.2676 473.6611,-477.9666"/>
<polygon fill="#191970" stroke="#191970" points="474.6781,-481.3206 483.544,-475.5201 472.9959,-474.5257 474.6781,-481.3206"/>
</g>
<!-- Node391429&#45;&gt;Node391095 -->
<g id="edge32" class="edge">
<title>Node391429&#45;&gt;Node391095</title>
<path fill="none" stroke="#191970" d="M408.1844,-512.4807C419.9892,-516.1087 432.55,-521.1382 443,-528 471.9556,-547.0131 496.6838,-579.4 510.4221,-599.6989"/>
<polygon fill="#191970" stroke="#191970" points="507.6788,-601.8975 516.0956,-608.3324 513.5287,-598.0532 507.6788,-601.8975"/>
</g>
<!-- Node391475&#45;&gt;Node391086 -->
<g id="edge35" class="edge">
<title>Node391475&#45;&gt;Node391086</title>
<path fill="none" stroke="#191970" d="M215.6824,-418.4195C264.9459,-404.6378 364.1492,-383.5234 443,-409 467.4419,-416.8972 490.6877,-435.4858 505.5541,-449.3008"/>
<polygon fill="#191970" stroke="#191970" points="503.2765,-451.9667 512.9054,-456.3865 508.1343,-446.9267 503.2765,-451.9667"/>
</g>
<!-- Node391475&#45;&gt;Node391095 -->
<g id="edge36" class="edge">
<title>Node391475&#45;&gt;Node391095</title>
<path fill="none" stroke="#191970" d="M196.4945,-437.5331C210.9738,-449.5939 236.5557,-471.0769 258,-490 274.2747,-504.3613 274.9087,-512.6736 294,-523 354.1118,-555.5144 381.0911,-532.0534 443,-561 465.7511,-571.6377 488.6902,-589.114 503.9435,-601.9155"/>
<polygon fill="#191970" stroke="#191970" points="501.7109,-604.6117 511.5769,-608.4734 506.2725,-599.3021 501.7109,-604.6117"/>
</g>
<!-- Node391476 -->
<g id="node24" class="node">
<title>Node391476</title>
<g id="a_node24"><a xlink:href="quickjs_8c.html#a07acd485a57197356906928a788a0644" target="_top" xlink:title="JS_ToLengthFree">
<polygon fill="none" stroke="#ff0000" points="321.5,-418.5 321.5,-437.5 415.5,-437.5 415.5,-418.5 321.5,-418.5"/>
<text text-anchor="middle" x="368.5" y="-425.5" font-family="Helvetica,sans-Serif" font-size="10.00" fill="#000000">JS_ToLengthFree</text>
</a>
</g>
</g>
<!-- Node391475&#45;&gt;Node391476 -->
<g id="edge37" class="edge">
<title>Node391475&#45;&gt;Node391476</title>
<path fill="none" stroke="#191970" d="M227.5598,-428C252.4383,-428 284.1674,-428 311.2189,-428"/>
<polygon fill="#191970" stroke="#191970" points="311.3336,-431.5001 321.3336,-428 311.3336,-424.5001 311.3336,-431.5001"/>
</g>
<!-- Node391476&#45;&gt;Node391046 -->
<g id="edge38" class="edge">
<title>Node391476&#45;&gt;Node391046</title>
<path fill="none" stroke="#191970" d="M415.7926,-435.7933C425.1945,-438.5003 434.7131,-442.1327 443,-447 463.0602,-458.7823 459.988,-471.5918 479,-485 481.3761,-486.6757 483.9236,-488.253 486.5488,-489.7268"/>
<polygon fill="#191970" stroke="#191970" points="485.135,-492.9341 495.6373,-494.3316 488.2987,-486.6898 485.135,-492.9341"/>
</g>
<!-- Node391479&#45;&gt;Node391086 -->
<g id="edge41" class="edge">
<title>Node391479&#45;&gt;Node391086</title>
<path fill="none" stroke="#191970" d="M422.5798,-168.5029C430.1467,-171.3749 437.2786,-175.3958 443,-181 481.686,-218.8936 510.2552,-387.8367 519.1144,-446.1391"/>
<polygon fill="#191970" stroke="#191970" points="515.6856,-446.8775 520.6206,-456.2528 522.6093,-445.8463 515.6856,-446.8775"/>
</g>
<!-- Node391479&#45;&gt;Node391096 -->
<g id="edge42" class="edge">
<title>Node391479&#45;&gt;Node391096</title>
<path fill="none" stroke="#191970" d="M411.8797,-171.5377C452.8015,-181.5318 515.1352,-199.3695 565,-225 584.3064,-234.9235 604.4839,-249.1236 618.8837,-260.0212"/>
<polygon fill="#191970" stroke="#191970" points="616.9869,-262.9782 627.0436,-266.3119 621.2608,-257.4344 616.9869,-262.9782"/>
</g>
<!-- Node391325&#45;&gt;Node391046 -->
<g id="edge47" class="edge">
<title>Node391325&#45;&gt;Node391046</title>
<path fill="none" stroke="#191970" d="M387.9409,-570.3745C414.5839,-557.1832 462.6335,-533.3932 493.3884,-518.166"/>
<polygon fill="#191970" stroke="#191970" points="495.3082,-521.121 502.717,-513.5473 492.2022,-514.8478 495.3082,-521.121"/>
</g>
<!-- Node391325&#45;&gt;Node391086 -->
<g id="edge48" class="edge">
<title>Node391325&#45;&gt;Node391086</title>
<path fill="none" stroke="#191970" d="M382.4768,-570.3269C397.8508,-559.4578 423.0259,-540.9746 443,-523 460.2932,-507.4379 459.988,-498.4082 479,-485 481.3761,-483.3243 483.9236,-481.747 486.5488,-480.2732"/>
<polygon fill="#191970" stroke="#191970" points="488.2987,-483.3102 495.6373,-475.6684 485.135,-477.0659 488.2987,-483.3102"/>
</g>
<!-- Node391325&#45;&gt;Node391095 -->
<g id="edge49" class="edge">
<title>Node391325&#45;&gt;Node391095</title>
<path fill="none" stroke="#191970" d="M407.2345,-589.589C427.3993,-594.5809 452.2479,-600.7324 473.6611,-606.0334"/>
<polygon fill="#191970" stroke="#191970" points="472.9959,-609.4743 483.544,-608.4799 474.6781,-602.6794 472.9959,-609.4743"/>
</g>
<!-- Node391325&#45;&gt;Node391250 -->
<g id="edge50" class="edge">
<title>Node391325&#45;&gt;Node391250</title>
<path fill="none" stroke="#191970" d="M386.1426,-589.5873C402.8637,-599.4806 427.6429,-616.3543 443,-637 488.1893,-697.7516 510.395,-787.3643 518.3945,-826.5086"/>
<polygon fill="#191970" stroke="#191970" points="514.9644,-827.2055 520.3191,-836.3476 521.8342,-825.8617 514.9644,-827.2055"/>
</g>
<!-- Node391326&#45;&gt;Node391046 -->
<g id="edge52" class="edge">
<title>Node391326&#45;&gt;Node391046</title>
<path fill="none" stroke="#191970" d="M407.2345,-475.589C427.3993,-480.5809 452.2479,-486.7324 473.6611,-492.0334"/>
<polygon fill="#191970" stroke="#191970" points="472.9959,-495.4743 483.544,-494.4799 474.6781,-488.6794 472.9959,-495.4743"/>
</g>
<!-- Node391326&#45;&gt;Node391086 -->
<g id="edge53" class="edge">
<title>Node391326&#45;&gt;Node391086</title>
<path fill="none" stroke="#191970" d="M411.6668,-466C429.399,-466 450.1103,-466 468.7688,-466"/>
<polygon fill="#191970" stroke="#191970" points="468.8915,-469.5001 478.8915,-466 468.8915,-462.5001 468.8915,-469.5001"/>
</g>
<!-- Node391326&#45;&gt;Node391095 -->
<g id="edge54" class="edge">
<title>Node391326&#45;&gt;Node391095</title>
<path fill="none" stroke="#191970" d="M411.6536,-471.01C422.6496,-473.826 433.9149,-478.2038 443,-485 482.2637,-514.3717 505.7052,-569.4981 515.9217,-598.703"/>
<polygon fill="#191970" stroke="#191970" points="512.6041,-599.8183 519.0922,-608.1942 519.2435,-597.6004 512.6041,-599.8183"/>
</g>
<!-- Node391314&#45;&gt;Node391045 -->
<g id="edge61" class="edge">
<title>Node391314&#45;&gt;Node391045</title>
<path fill="none" stroke="#191970" d="M405.6703,-1065.8746C418.1098,-1062.1758 431.6804,-1057.0147 443,-1050 470.12,-1033.1939 494.6275,-1005.1077 508.9207,-986.82"/>
<polygon fill="#191970" stroke="#191970" points="511.8127,-988.7993 515.0835,-978.7219 506.2423,-984.5601 511.8127,-988.7993"/>
</g>
<!-- Node391314&#45;&gt;Node391095 -->
<g id="edge62" class="edge">
<title>Node391314&#45;&gt;Node391095</title>
<path fill="none" stroke="#191970" d="M375.0647,-1064.4435C389.3868,-1043.1886 423.6977,-990.0028 443,-941 465.507,-883.8612 505.1691,-698.5999 517.9259,-637.6434"/>
<polygon fill="#191970" stroke="#191970" points="521.3703,-638.2708 519.9845,-627.767 514.5175,-636.8424 521.3703,-638.2708"/>
</g>
<!-- Node391314&#45;&gt;Node391096 -->
<g id="edge63" class="edge">
<title>Node391314&#45;&gt;Node391096</title>
<path fill="none" stroke="#191970" d="M405.5668,-1069.4851C451.6029,-1061.7031 528.5131,-1041.0946 565,-988 605.3224,-929.324 632.7497,-405.2109 638.0594,-295.917"/>
<polygon fill="#191970" stroke="#191970" points="641.5679,-295.821 638.5512,-285.6647 634.576,-295.4855 641.5679,-295.821"/>
</g>
</g>
</svg>
        <g id="navigator" transform="translate(0 0)" fill="#404254">
                <rect fill="#f2f5e9" fill-opacity="0.5" stroke="#606060" stroke-width=".5" x="0" y="0" width="60" height="60"/>
                <use id="zoomplus" xlink:href="#zoomPlus" x="17" y="9" onmousedown="handleZoom(evt,'in')"/>
                <use id="zoomminus" xlink:href="#zoomMin" x="42" y="9" onmousedown="handleZoom(evt,'out')"/>
                <use id="reset" xlink:href="#resetDef" x="30" y="36" onmousedown="handleReset()"/>
                <g id="arrowUp" xlink:href="#dirArrow" transform="translate(30 24)" onmousedown="handlePan(0,-1)">
                  <use xlink:href="#rim" fill="#404040">
                        <set attributeName="fill" to="#808080" begin="arrowUp.mouseover" end="arrowUp.mouseout"/>
                  </use>
                  <path fill="none" stroke="white" stroke-width="1.5" d="M0,-3.0v7 M-2.5,-0.5L0,-3.0L2.5,-0.5"/>
                </g>
                <g id="arrowRight" xlink:href="#dirArrow" transform="rotate(90) translate(36 -43)" onmousedown="handlePan(1,0)">
                  <use xlink:href="#rim" fill="#404040">
                        <set attributeName="fill" to="#808080" begin="arrowRight.mouseover" end="arrowRight.mouseout"/>
                  </use>
                  <path fill="none" stroke="white" stroke-width="1.5" d="M0,-3.0v7 M-2.5,-0.5L0,-3.0L2.5,-0.5"/>
                </g>
                <g id="arrowDown" xlink:href="#dirArrow" transform="rotate(180) translate(-30 -48)" onmousedown="handlePan(0,1)">
                  <use xlink:href="#rim" fill="#404040">
                        <set attributeName="fill" to="#808080" begin="arrowDown.mouseover" end="arrowDown.mouseout"/>
                  </use>
                  <path fill="none" stroke="white" stroke-width="1.5" d="M0,-3.0v7 M-2.5,-0.5L0,-3.0L2.5,-0.5"/>
                </g>
                <g id="arrowLeft" xlink:href="#dirArrow" transform="rotate(270) translate(-36 17)" onmousedown="handlePan(-1,0)">
                  <use xlink:href="#rim" fill="#404040">
                        <set attributeName="fill" to="#808080" begin="arrowLeft.mouseover" end="arrowLeft.mouseout"/>
                  </use>
                  <path fill="none" stroke="white" stroke-width="1.5" d="M0,-3.0v7 M-2.5,-0.5L0,-3.0L2.5,-0.5"/>
                </g>
        </g>
        <svg viewBox="0 0 15 15" width="100%" height="30px" preserveAspectRatio="xMaxYMin meet">
         <g id="arrow_out" transform="scale(0.3 0.3)">
          <a xlink:href="quickjs_8c_a5e32da9a43002cb96dcbd62a1a340144_cgraph_org.svg" target="_base">
           <rect id="button" ry="5" rx="5" y="6" x="6" height="38" width="38"
                fill="#f2f5e9" fill-opacity="0.5" stroke="#606060" stroke-width="1.0"/>
           <path id="arrow"
             d="M 11.500037,31.436501 C 11.940474,20.09759 22.043105,11.32322 32.158766,21.979434 L 37.068811,17.246167 C 37.068811,17.246167 37.088388,32 37.088388,32 L 22.160133,31.978069 C 22.160133,31.978069 26.997745,27.140456 26.997745,27.140456 C 18.528582,18.264221 13.291696,25.230495 11.500037,31.436501 z"
             style="fill:#404040;"/>
          </a>
         </g>
        </svg>
</svg>
