<?xml version="1.0" encoding="UTF-8" standalone="no"?>
<!DOCTYPE svg PUBLIC "-//W3C//DTD SVG 1.1//EN"
 "http://www.w3.org/Graphics/SVG/1.1/DTD/svg11.dtd">
<!-- Generated by graphviz version 2.40.1 (20161225.0304)
 -->
<!-- Title: JS_ToUint32Free Pages: 1 -->
<!--zoomable 353 -->
<svg id="main" version="1.1" xmlns="http://www.w3.org/2000/svg" xmlns:xlink="http://www.w3.org/1999/xlink" xml:space="preserve" onload="init(evt)">
<style type="text/css"><![CDATA[
.edge:hover path { stroke: red; }
.edge:hover polygon { stroke: red; fill: red; }
]]></style>
<script type="text/javascript"><![CDATA[
var edges = document.getElementsByTagName('g');
if (edges && edges.length) {
  for (var i=0;i<edges.length;i++) {
    if (edges[i].id.substr(0,4)=='edge') {
      edges[i].setAttribute('class','edge');
    }
  }
}
]]></script>
        <defs>
                <circle id="rim" cx="0" cy="0" r="7"/>
                <circle id="rim2" cx="0" cy="0" r="3.5"/>
                <g id="zoomPlus">
                        <use xlink:href="#rim" fill="#404040">
                                <set attributeName="fill" to="#808080" begin="zoomplus.mouseover" end="zoomplus.mouseout"/>
                        </use>
                        <path d="M-4,0h8M0,-4v8" fill="none" stroke="white" stroke-width="1.5" pointer-events="none"/>
                </g>
                <g id="zoomMin">
                        <use xlink:href="#rim" fill="#404040">
                                <set attributeName="fill" to="#808080" begin="zoomminus.mouseover" end="zoomminus.mouseout"/>
                        </use>
                        <path d="M-4,0h8" fill="none" stroke="white" stroke-width="1.5" pointer-events="none"/>
                </g>
                <g id="dirArrow">
                        <path fill="none" stroke="white" stroke-width="1.5" d="M0,-3.0v7 M-2.5,-0.5L0,-3.0L2.5,-0.5"/>
                </g>
               <g id="resetDef">
                       <use xlink:href="#rim2" fill="#404040">
                               <set attributeName="fill" to="#808080" begin="reset.mouseover" end="reset.mouseout"/>
                       </use>
               </g>
        </defs>

<script type="text/javascript">
var viewWidth = 737;
var viewHeight = 353;
var sectionId = 'dynsection-713';
</script>
<script xlink:href="svgpan.js"/>
<svg id="graph" class="graph">
<g id="viewport">
<title>JS_ToUint32Free</title>
<!-- Node244608 -->
<g id="node1" class="node">
<title>Node244608</title>
<polygon fill="#bfbfbf" stroke="#000000" points="0,-201 0,-220 93,-220 93,-201 0,-201"/>
<text text-anchor="middle" x="46.5" y="-208" font-family="Helvetica,sans-Serif" font-size="10.00" fill="#000000">JS_ToUint32Free</text>
</g>
<!-- Node244609 -->
<g id="node2" class="node">
<title>Node244609</title>
<g id="a_node2"><a xlink:href="quickjs_8c.html#a718e904644ebc55548a5bdbd44f3adb9" target="_top" xlink:title="js_get_length32">
<polygon fill="none" stroke="#000000" points="129,-182 129,-201 214,-201 214,-182 129,-182"/>
<text text-anchor="middle" x="171.5" y="-189" font-family="Helvetica,sans-Serif" font-size="10.00" fill="#000000">js_get_length32</text>
</a>
</g>
</g>
<!-- Node244608&#45;&gt;Node244609 -->
<g id="edge1" class="edge">
<title>Node244608&#45;&gt;Node244609</title>
<path fill="none" stroke="#191970" d="M103.0336,-201.9069C111.6352,-200.5995 120.3889,-199.2689 128.6351,-198.0155"/>
<polygon fill="#191970" stroke="#191970" points="102.4058,-198.462 93.0454,-203.4251 103.4578,-205.3825 102.4058,-198.462"/>
</g>
<!-- Node245214 -->
<g id="node14" class="node">
<title>Node245214</title>
<g id="a_node14"><a xlink:href="quickjs_8c.html#a612a61744ff6b38d2ef45c1fc9f2a805" target="_top" xlink:title="js_shr_slow">
<polygon fill="none" stroke="#000000" points="137.5,-277 137.5,-296 205.5,-296 205.5,-277 137.5,-277"/>
<text text-anchor="middle" x="171.5" y="-284" font-family="Helvetica,sans-Serif" font-size="10.00" fill="#000000">js_shr_slow</text>
</a>
</g>
</g>
<!-- Node244608&#45;&gt;Node245214 -->
<g id="edge20" class="edge">
<title>Node244608&#45;&gt;Node245214</title>
<path fill="none" stroke="#191970" d="M70.9331,-225.3553C96.0616,-240.6335 134.4509,-263.9742 155.7972,-276.9527"/>
<polygon fill="#191970" stroke="#191970" points="72.6943,-222.33 62.3313,-220.1255 69.0577,-228.3113 72.6943,-222.33"/>
</g>
<!-- Node244610 -->
<g id="node3" class="node">
<title>Node244610</title>
<g id="a_node3"><a xlink:href="quickjs_8c.html#a4956f45ffd2849b96dc051277264f87a" target="_top" xlink:title="build_arg_list">
<polygon fill="none" stroke="#000000" points="281,-220 281,-239 355,-239 355,-220 281,-220"/>
<text text-anchor="middle" x="318" y="-227" font-family="Helvetica,sans-Serif" font-size="10.00" fill="#000000">build_arg_list</text>
</a>
</g>
</g>
<!-- Node244609&#45;&gt;Node244610 -->
<g id="edge2" class="edge">
<title>Node244609&#45;&gt;Node244610</title>
<path fill="none" stroke="#191970" d="M218.1954,-203.6121C238.5986,-208.9044 262.1808,-215.0213 281.2977,-219.9799"/>
<polygon fill="#191970" stroke="#191970" points="219.0266,-200.212 208.4681,-201.089 217.269,-206.9877 219.0266,-200.212"/>
</g>
<!-- Node244680 -->
<g id="node6" class="node">
<title>Node244680</title>
<g id="a_node6"><a xlink:href="quickjs_8c.html#a6a77bcdb9f7f18c13c108c99a198708b" target="_top" xlink:title="js_regexp_Symbol_replace">
<polygon fill="none" stroke="#000000" points="595,-144 595,-163 729,-163 729,-144 595,-144"/>
<text text-anchor="middle" x="662" y="-151" font-family="Helvetica,sans-Serif" font-size="10.00" fill="#000000">js_regexp_Symbol_replace</text>
</a>
</g>
</g>
<!-- Node244609&#45;&gt;Node244680 -->
<g id="edge16" class="edge">
<title>Node244609&#45;&gt;Node244680</title>
<path fill="none" stroke="#191970" d="M197.4906,-177.1166C212.4211,-169.4905 231.7748,-160.6567 250,-155.5 382.4504,-118.024 421.922,-121.9626 559,-134.5 579.281,-136.3549 601.531,-140.2235 620.1452,-143.9888"/>
<polygon fill="#191970" stroke="#191970" points="195.6012,-174.1554 188.3743,-181.9028 198.8552,-180.3532 195.6012,-174.1554"/>
</g>
<!-- Node244688 -->
<g id="node8" class="node">
<title>Node244688</title>
<g id="a_node8"><a xlink:href="quickjs_8c.html#a624282391413d4c5a030adbd8b77aa80" target="_top" xlink:title="internalize_json_property">
<polygon fill="none" stroke="#ff0000" points="255.5,-50 255.5,-69 380.5,-69 380.5,-50 255.5,-50"/>
<text text-anchor="middle" x="318" y="-57" font-family="Helvetica,sans-Serif" font-size="10.00" fill="#000000">internalize_json_property</text>
</a>
</g>
</g>
<!-- Node244609&#45;&gt;Node244688 -->
<g id="edge9" class="edge">
<title>Node244609&#45;&gt;Node244688</title>
<path fill="none" stroke="#191970" d="M184.3454,-173.8168C198.8756,-154.577 223.928,-123.6129 250,-101.5 265.3442,-88.4858 285.1218,-76.74 299.3879,-69.0009"/>
<polygon fill="#191970" stroke="#191970" points="181.4247,-171.8793 178.2713,-181.994 187.044,-176.0534 181.4247,-171.8793"/>
</g>
<!-- Node244640 -->
<g id="node9" class="node">
<title>Node244640</title>
<g id="a_node9"><a xlink:href="quickjs_8c.html#a43208b0746998d2b6b9b8bd1ef8b5f99" target="_top" xlink:title="js_append_enumerate">
<polygon fill="none" stroke="#000000" points="434.5,-296 434.5,-315 546.5,-315 546.5,-296 434.5,-296"/>
<text text-anchor="middle" x="490.5" y="-303" font-family="Helvetica,sans-Serif" font-size="10.00" fill="#000000">js_append_enumerate</text>
</a>
</g>
</g>
<!-- Node244609&#45;&gt;Node244640 -->
<g id="edge11" class="edge">
<title>Node244609&#45;&gt;Node244640</title>
<path fill="none" stroke="#191970" d="M189.3772,-207.6918C204.4958,-220.5564 227.27,-238.0652 250,-248.5 283.44,-263.8515 380.0109,-284.2157 440.1195,-295.9867"/>
<polygon fill="#191970" stroke="#191970" points="191.6517,-205.0314 181.8144,-201.097 187.051,-210.3073 191.6517,-205.0314"/>
</g>
<!-- Node244846 -->
<g id="node10" class="node">
<title>Node244846</title>
<g id="a_node10"><a xlink:href="quickjs_8c.html#a4398c126700f887a947501bf25910f75" target="_top" xlink:title="js_array_iterator_next">
<polygon fill="none" stroke="#000000" points="263,-296 263,-315 373,-315 373,-296 263,-296"/>
<text text-anchor="middle" x="318" y="-303" font-family="Helvetica,sans-Serif" font-size="10.00" fill="#000000">js_array_iterator_next</text>
</a>
</g>
</g>
<!-- Node244609&#45;&gt;Node244846 -->
<g id="edge13" class="edge">
<title>Node244609&#45;&gt;Node244846</title>
<path fill="none" stroke="#191970" d="M183.0747,-209.6585C196.7898,-229.8276 221.4193,-262.0969 250,-281.5 259.0113,-287.6177 269.7514,-292.3491 280.0043,-295.93"/>
<polygon fill="#191970" stroke="#191970" points="185.8417,-207.4973 177.4074,-201.0855 180.0023,-211.3576 185.8417,-207.4973"/>
</g>
<!-- Node244954 -->
<g id="node11" class="node">
<title>Node244954</title>
<g id="a_node11"><a xlink:href="quickjs_8c.html#a438b354d69a8f0674195b0cdc19dd686" target="_top" xlink:title="js_proxy_get_own_property\l_names">
<polygon fill="none" stroke="#000000" points="250,-.5 250,-30.5 386,-30.5 386,-.5 250,-.5"/>
<text text-anchor="start" x="258" y="-18.5" font-family="Helvetica,sans-Serif" font-size="10.00" fill="#000000">js_proxy_get_own_property</text>
<text text-anchor="middle" x="318" y="-7.5" font-family="Helvetica,sans-Serif" font-size="10.00" fill="#000000">_names</text>
</a>
</g>
</g>
<!-- Node244609&#45;&gt;Node244954 -->
<g id="edge15" class="edge">
<title>Node244609&#45;&gt;Node244954</title>
<path fill="none" stroke="#191970" d="M176.6363,-171.9816C185.9869,-140.1132 208.7369,-76.8254 250,-40.5 254.3429,-36.6768 259.3206,-33.4204 264.5647,-30.6505"/>
<polygon fill="#191970" stroke="#191970" points="173.1998,-171.2748 173.8793,-181.8479 179.9415,-173.1588 173.1998,-171.2748"/>
</g>
<!-- Node244946 -->
<g id="node12" class="node">
<title>Node244946</title>
<g id="a_node12"><a xlink:href="quickjs_8c.html#adb4d2990e6bf3f99633512ad2054b47a" target="_top" xlink:title="js_string___GetSubstitution">
<polygon fill="none" stroke="#ff0000" points="422,-144 422,-163 559,-163 559,-144 422,-144"/>
<text text-anchor="middle" x="490.5" y="-151" font-family="Helvetica,sans-Serif" font-size="10.00" fill="#000000">js_string___GetSubstitution</text>
</a>
</g>
</g>
<!-- Node244609&#45;&gt;Node244946 -->
<g id="edge17" class="edge">
<title>Node244609&#45;&gt;Node244946</title>
<path fill="none" stroke="#191970" d="M215.6084,-179.5259C226.7605,-176.8577 238.7623,-174.2923 250,-172.5 307.595,-163.3144 373.6912,-158.5 421.9993,-156.0193"/>
<polygon fill="#191970" stroke="#191970" points="214.5203,-176.1894 205.6518,-181.986 216.1994,-182.985 214.5203,-176.1894"/>
</g>
<!-- Node244967 -->
<g id="node13" class="node">
<title>Node244967</title>
<g id="a_node13"><a xlink:href="quickjs_8c.html#aba35628e2e963dca8fa201e6708046d6" target="_top" xlink:title="JS_WriteArray">
<polygon fill="none" stroke="#ff0000" points="278,-182 278,-201 358,-201 358,-182 278,-182"/>
<text text-anchor="middle" x="318" y="-189" font-family="Helvetica,sans-Serif" font-size="10.00" fill="#000000">JS_WriteArray</text>
</a>
</g>
</g>
<!-- Node244609&#45;&gt;Node244967 -->
<g id="edge19" class="edge">
<title>Node244609&#45;&gt;Node244967</title>
<path fill="none" stroke="#191970" d="M224.4274,-191.5C242.0769,-191.5 261.4357,-191.5 277.9425,-191.5"/>
<polygon fill="#191970" stroke="#191970" points="224.2677,-188.0001 214.2677,-191.5 224.2677,-195.0001 224.2677,-188.0001"/>
</g>
<!-- Node244611 -->
<g id="node4" class="node">
<title>Node244611</title>
<g id="a_node4"><a xlink:href="quickjs_8c.html#ac2894ff4edcdb4e6841bcce9c76081e3" target="_top" xlink:title="JS_CallInternal">
<polygon fill="none" stroke="#ff0000" points="620.5,-277 620.5,-296 703.5,-296 703.5,-277 620.5,-277"/>
<text text-anchor="middle" x="662" y="-284" font-family="Helvetica,sans-Serif" font-size="10.00" fill="#000000">JS_CallInternal</text>
</a>
</g>
</g>
<!-- Node244610&#45;&gt;Node244611 -->
<g id="edge3" class="edge">
<title>Node244610&#45;&gt;Node244611</title>
<path fill="none" stroke="#191970" d="M365.1639,-238.3603C382.9599,-241.6394 403.3964,-245.3283 422,-248.5 491.4481,-260.3401 572.4207,-272.9035 620.3281,-280.208"/>
<polygon fill="#191970" stroke="#191970" points="365.4947,-234.8622 355.0248,-236.4841 364.2209,-241.7454 365.4947,-234.8622"/>
</g>
<!-- Node244679 -->
<g id="node5" class="node">
<title>Node244679</title>
<g id="a_node5"><a xlink:href="quickjs_8c.html#a8d4b24969540aff427939eeda47f451d" target="_top" xlink:title="js_function_apply">
<polygon fill="none" stroke="#ff0000" points="444.5,-182 444.5,-201 536.5,-201 536.5,-182 444.5,-182"/>
<text text-anchor="middle" x="490.5" y="-189" font-family="Helvetica,sans-Serif" font-size="10.00" fill="#000000">js_function_apply</text>
</a>
</g>
</g>
<!-- Node244610&#45;&gt;Node244679 -->
<g id="edge5" class="edge">
<title>Node244610&#45;&gt;Node244679</title>
<path fill="none" stroke="#191970" d="M364.8776,-219.1733C390.5252,-213.5234 422.0868,-206.5707 447.158,-201.0478"/>
<polygon fill="#191970" stroke="#191970" points="364.0184,-215.7786 355.0056,-221.348 365.5244,-222.6147 364.0184,-215.7786"/>
</g>
<!-- Node244725 -->
<g id="node7" class="node">
<title>Node244725</title>
<g id="a_node7"><a xlink:href="quickjs_8c.html#a392bb9e4d465d6a061eb3f6c830e0efa" target="_top" xlink:title="js_reflect_construct">
<polygon fill="none" stroke="#000000" points="439.5,-220 439.5,-239 541.5,-239 541.5,-220 439.5,-220"/>
<text text-anchor="middle" x="490.5" y="-227" font-family="Helvetica,sans-Serif" font-size="10.00" fill="#000000">js_reflect_construct</text>
</a>
</g>
</g>
<!-- Node244610&#45;&gt;Node244725 -->
<g id="edge8" class="edge">
<title>Node244610&#45;&gt;Node244725</title>
<path fill="none" stroke="#191970" d="M365.2221,-229.5C388.2481,-229.5 415.9769,-229.5 439.4872,-229.5"/>
<polygon fill="#191970" stroke="#191970" points="365.0056,-226.0001 355.0056,-229.5 365.0055,-233.0001 365.0056,-226.0001"/>
</g>
<!-- Node244611&#45;&gt;Node244611 -->
<g id="edge4" class="edge">
<title>Node244611&#45;&gt;Node244611</title>
<path fill="none" stroke="#191970" d="M630.1886,-304.7746C631.0956,-310.241 641.6994,-314.5 662,-314.5 692.2148,-314.5 700.9488,-305.0653 688.2019,-296.2571"/>
<polygon fill="#191970" stroke="#191970" points="633.2209,-306.5337 635.7981,-296.2571 627.3748,-302.6836 633.2209,-306.5337"/>
</g>
<!-- Node244679&#45;&gt;Node244611 -->
<g id="edge6" class="edge">
<title>Node244679&#45;&gt;Node244611</title>
<path fill="none" stroke="#191970" d="M543.6709,-204.1504C548.9497,-206.0255 554.1456,-208.1363 559,-210.5 596.363,-228.6928 634.1002,-260.8595 651.7286,-276.8777"/>
<polygon fill="#191970" stroke="#191970" points="544.7281,-200.8137 534.1354,-201.0257 542.5483,-207.4657 544.7281,-200.8137"/>
</g>
<!-- Node244679&#45;&gt;Node244680 -->
<g id="edge7" class="edge">
<title>Node244679&#45;&gt;Node244680</title>
<path fill="none" stroke="#191970" d="M543.5412,-179.7474C567.7913,-174.3742 596.1467,-168.0914 619.0345,-163.0201"/>
<polygon fill="#191970" stroke="#191970" points="542.7827,-176.3305 533.7767,-181.911 544.2971,-183.1648 542.7827,-176.3305"/>
</g>
<!-- Node244688&#45;&gt;Node244688 -->
<g id="edge10" class="edge">
<title>Node244688&#45;&gt;Node244688</title>
<path fill="none" stroke="#191970" d="M290.7475,-78.1539C291.8867,-83.4368 300.9708,-87.5 318,-87.5 343.9492,-87.5 351.4502,-78.0653 340.5028,-69.2571"/>
<polygon fill="#191970" stroke="#191970" points="293.8752,-79.727 295.4972,-69.2571 287.7001,-76.4303 293.8752,-79.727"/>
</g>
<!-- Node244640&#45;&gt;Node244611 -->
<g id="edge12" class="edge">
<title>Node244640&#45;&gt;Node244611</title>
<path fill="none" stroke="#191970" d="M556.6875,-298.1673C578.1234,-295.7924 601.2822,-293.2268 620.4094,-291.1077"/>
<polygon fill="#191970" stroke="#191970" points="556.2093,-294.6987 546.6555,-299.2787 556.9801,-301.6562 556.2093,-294.6987"/>
</g>
<!-- Node244846&#45;&gt;Node244640 -->
<g id="edge14" class="edge">
<title>Node244846&#45;&gt;Node244640</title>
<path fill="none" stroke="#191970" d="M383.3674,-305.5C400.2052,-305.5 418.1728,-305.5 434.4877,-305.5"/>
<polygon fill="#191970" stroke="#191970" points="383.0544,-302.0001 373.0544,-305.5 383.0543,-309.0001 383.0544,-302.0001"/>
</g>
<!-- Node244946&#45;&gt;Node244680 -->
<g id="edge18" class="edge">
<title>Node244946&#45;&gt;Node244680</title>
<path fill="none" stroke="#191970" d="M569.5383,-153.5C578.0126,-153.5 586.575,-153.5 594.8915,-153.5"/>
<polygon fill="#191970" stroke="#191970" points="569.2675,-150.0001 559.2674,-153.5 569.2674,-157.0001 569.2675,-150.0001"/>
</g>
<!-- Node245214&#45;&gt;Node244611 -->
<g id="edge21" class="edge">
<title>Node245214&#45;&gt;Node244611</title>
<path fill="none" stroke="#191970" d="M194.7461,-301.2061C209.8494,-309.8683 230.3231,-319.9879 250,-324.5 383.859,-355.1953 423.8056,-348.6434 559,-324.5 589.2088,-319.1052 622.1595,-305.4662 642.455,-296.0864"/>
<polygon fill="#191970" stroke="#191970" points="196.4762,-298.1629 186.0913,-296.0641 192.9007,-304.1809 196.4762,-298.1629"/>
</g>
</g>
</svg>
        <g id="navigator" transform="translate(0 0)" fill="#404254">
                <rect fill="#f2f5e9" fill-opacity="0.5" stroke="#606060" stroke-width=".5" x="0" y="0" width="60" height="60"/>
                <use id="zoomplus" xlink:href="#zoomPlus" x="17" y="9" onmousedown="handleZoom(evt,'in')"/>
                <use id="zoomminus" xlink:href="#zoomMin" x="42" y="9" onmousedown="handleZoom(evt,'out')"/>
                <use id="reset" xlink:href="#resetDef" x="30" y="36" onmousedown="handleReset()"/>
                <g id="arrowUp" xlink:href="#dirArrow" transform="translate(30 24)" onmousedown="handlePan(0,-1)">
                  <use xlink:href="#rim" fill="#404040">
                        <set attributeName="fill" to="#808080" begin="arrowUp.mouseover" end="arrowUp.mouseout"/>
                  </use>
                  <path fill="none" stroke="white" stroke-width="1.5" d="M0,-3.0v7 M-2.5,-0.5L0,-3.0L2.5,-0.5"/>
                </g>
                <g id="arrowRight" xlink:href="#dirArrow" transform="rotate(90) translate(36 -43)" onmousedown="handlePan(1,0)">
                  <use xlink:href="#rim" fill="#404040">
                        <set attributeName="fill" to="#808080" begin="arrowRight.mouseover" end="arrowRight.mouseout"/>
                  </use>
                  <path fill="none" stroke="white" stroke-width="1.5" d="M0,-3.0v7 M-2.5,-0.5L0,-3.0L2.5,-0.5"/>
                </g>
                <g id="arrowDown" xlink:href="#dirArrow" transform="rotate(180) translate(-30 -48)" onmousedown="handlePan(0,1)">
                  <use xlink:href="#rim" fill="#404040">
                        <set attributeName="fill" to="#808080" begin="arrowDown.mouseover" end="arrowDown.mouseout"/>
                  </use>
                  <path fill="none" stroke="white" stroke-width="1.5" d="M0,-3.0v7 M-2.5,-0.5L0,-3.0L2.5,-0.5"/>
                </g>
                <g id="arrowLeft" xlink:href="#dirArrow" transform="rotate(270) translate(-36 17)" onmousedown="handlePan(-1,0)">
                  <use xlink:href="#rim" fill="#404040">
                        <set attributeName="fill" to="#808080" begin="arrowLeft.mouseover" end="arrowLeft.mouseout"/>
                  </use>
                  <path fill="none" stroke="white" stroke-width="1.5" d="M0,-3.0v7 M-2.5,-0.5L0,-3.0L2.5,-0.5"/>
                </g>
        </g>
        <svg viewBox="0 0 15 15" width="100%" height="30px" preserveAspectRatio="xMaxYMin meet">
         <g id="arrow_out" transform="scale(0.3 0.3)">
          <a xlink:href="quickjs_8c_abb4af1ff2252e70ad0e5a9c25550f548_icgraph_org.svg" target="_base">
           <rect id="button" ry="5" rx="5" y="6" x="6" height="38" width="38"
                fill="#f2f5e9" fill-opacity="0.5" stroke="#606060" stroke-width="1.0"/>
           <path id="arrow"
             d="M 11.500037,31.436501 C 11.940474,20.09759 22.043105,11.32322 32.158766,21.979434 L 37.068811,17.246167 C 37.068811,17.246167 37.088388,32 37.088388,32 L 22.160133,31.978069 C 22.160133,31.978069 26.997745,27.140456 26.997745,27.140456 C 18.528582,18.264221 13.291696,25.230495 11.500037,31.436501 z"
             style="fill:#404040;"/>
          </a>
         </g>
        </svg>
</svg>
