<?xml version="1.0" encoding="UTF-8" standalone="no"?>
<!DOCTYPE svg PUBLIC "-//W3C//DTD SVG 1.1//EN"
 "http://www.w3.org/Graphics/SVG/1.1/DTD/svg11.dtd">
<!-- Generated by graphviz version 2.40.1 (20161225.0304)
 -->
<!-- Title: js_worker_ctor Pages: 1 -->
<svg width="691pt" height="855pt"
 viewBox="0.00 0.00 691.00 855.00" xmlns="http://www.w3.org/2000/svg" xmlns:xlink="http://www.w3.org/1999/xlink">
<g id="graph0" class="graph" transform="scale(1 1) rotate(0) translate(4 851)">
<title>js_worker_ctor</title>
<!-- Node27850 -->
<g id="node1" class="node">
<title>Node27850</title>
<polygon fill="#bfbfbf" stroke="#000000" points="0,-314.5 0,-333.5 80,-333.5 80,-314.5 0,-314.5"/>
<text text-anchor="middle" x="40" y="-321.5" font-family="Helvetica,sans-Serif" font-size="10.00" fill="#000000">js_worker_ctor</text>
</g>
<!-- Node27851 -->
<g id="node2" class="node">
<title>Node27851</title>
<g id="a_node2"><a xlink:href="quickjs-libc_8c.html#ae718f3538904348259f621249512c8e5" target="_top" xlink:title="is_main_thread">
<polygon fill="none" stroke="#000000" points="146,-827.5 146,-846.5 229,-846.5 229,-827.5 146,-827.5"/>
<text text-anchor="middle" x="187.5" y="-834.5" font-family="Helvetica,sans-Serif" font-size="10.00" fill="#000000">is_main_thread</text>
</a>
</g>
</g>
<!-- Node27850&#45;&gt;Node27851 -->
<g id="edge1" class="edge">
<title>Node27850&#45;&gt;Node27851</title>
<path fill="none" stroke="#191970" d="M40.176,-333.6752C41.4919,-395.6388 51.6146,-736.647 116,-813 121.4009,-819.4048 128.5686,-824.1072 136.2825,-827.5582"/>
<polygon fill="#191970" stroke="#191970" points="135.2888,-830.924 145.8806,-831.1772 137.7585,-824.3741 135.2888,-830.924"/>
</g>
<!-- Node27852 -->
<g id="node3" class="node">
<title>Node27852</title>
<g id="a_node3"><a xlink:href="quickjs_8c.html#a4b66ebf3abee5d29490343fbe360ec5a" target="_top" xlink:title="JS_AtomToCString">
<polygon fill="none" stroke="#000000" points="137,-675.5 137,-694.5 238,-694.5 238,-675.5 137,-675.5"/>
<text text-anchor="middle" x="187.5" y="-682.5" font-family="Helvetica,sans-Serif" font-size="10.00" fill="#000000">JS_AtomToCString</text>
</a>
</g>
</g>
<!-- Node27850&#45;&gt;Node27852 -->
<g id="edge2" class="edge">
<title>Node27850&#45;&gt;Node27852</title>
<path fill="none" stroke="#191970" d="M40.9162,-333.7175C45.8005,-383.5835 70.2819,-610.3617 116,-661 119.4755,-664.8496 123.5872,-668.0825 128.0551,-670.7973"/>
<polygon fill="#191970" stroke="#191970" points="126.5189,-673.943 137.0123,-675.4056 129.7213,-667.7185 126.5189,-673.943"/>
</g>
<!-- Node27881 -->
<g id="node5" class="node">
<title>Node27881</title>
<g id="a_node5"><a xlink:href="quickjs_8h.html#ad80a83d73e9b7d872b88fbf2943aebe9" target="_top" xlink:title="JS_IsException">
<polygon fill="none" stroke="#000000" points="597,-675.5 597,-694.5 683,-694.5 683,-675.5 597,-675.5"/>
<text text-anchor="middle" x="640" y="-682.5" font-family="Helvetica,sans-Serif" font-size="10.00" fill="#000000">JS_IsException</text>
</a>
</g>
</g>
<!-- Node27850&#45;&gt;Node27881 -->
<g id="edge19" class="edge">
<title>Node27850&#45;&gt;Node27881</title>
<path fill="none" stroke="#191970" d="M40.6149,-333.5274C44.2315,-386.7163 64.3728,-646.5994 116,-704 248.7662,-851.6131 376.5739,-816.5086 561,-743 584.738,-733.5385 607.8136,-715.216 622.8338,-701.686"/>
<polygon fill="#191970" stroke="#191970" points="625.3574,-704.1189 630.3027,-694.7491 620.5936,-698.9899 625.3574,-704.1189"/>
</g>
<!-- Node27882 -->
<g id="node6" class="node">
<title>Node27882</title>
<g id="a_node6"><a xlink:href="quickjs_8h.html#af931f06630ab719b5f82a16eb27effd1" target="_top" xlink:title="JS_ToCString">
<polygon fill="none" stroke="#000000" points="321.5,-675.5 321.5,-694.5 399.5,-694.5 399.5,-675.5 321.5,-675.5"/>
<text text-anchor="middle" x="360.5" y="-682.5" font-family="Helvetica,sans-Serif" font-size="10.00" fill="#000000">JS_ToCString</text>
</a>
</g>
</g>
<!-- Node27850&#45;&gt;Node27882 -->
<g id="edge23" class="edge">
<title>Node27850&#45;&gt;Node27882</title>
<path fill="none" stroke="#191970" d="M41.1228,-333.5934C46.7356,-379.9444 73.1915,-580.2157 116,-623 129.8653,-636.8575 243.9499,-661.6618 311.2746,-675.32"/>
<polygon fill="#191970" stroke="#191970" points="310.7588,-678.7864 321.2534,-677.3324 312.1426,-671.9245 310.7588,-678.7864"/>
</g>
<!-- Node27963 -->
<g id="node8" class="node">
<title>Node27963</title>
<g id="a_node8"><a xlink:href="quickjs_8h.html#afaa20c47565bc704c6c85f3d77254e7d" target="_top" xlink:title="JS_FreeValue">
<polygon fill="none" stroke="#ff0000" points="601,-219.5 601,-238.5 679,-238.5 679,-219.5 601,-219.5"/>
<text text-anchor="middle" x="640" y="-226.5" font-family="Helvetica,sans-Serif" font-size="10.00" fill="#000000">JS_FreeValue</text>
</a>
</g>
</g>
<!-- Node27850&#45;&gt;Node27963 -->
<g id="edge16" class="edge">
<title>Node27850&#45;&gt;Node27963</title>
<path fill="none" stroke="#191970" d="M80.0084,-317.4926C124.8902,-309.3117 199.2288,-293.0904 259,-267 276.4011,-259.4043 277.4009,-251.1251 295,-244 365.2091,-215.5754 386.6368,-217.5938 462,-210 505.7783,-205.5888 517.306,-204.8195 561,-210 573.2572,-211.4533 586.3647,-214.1327 598.3092,-217.0305"/>
<polygon fill="#191970" stroke="#191970" points="597.4714,-220.4287 608.0249,-219.4937 599.1917,-213.6434 597.4714,-220.4287"/>
</g>
<!-- Node28283 -->
<g id="node9" class="node">
<title>Node28283</title>
<g id="a_node9"><a xlink:href="quickjs-libc_8c.html#a2c8234980adfda2a29db3b01cbdc8362" target="_top" xlink:title="js_free_message_pipe">
<polygon fill="none" stroke="#000000" points="130.5,-523.5 130.5,-542.5 244.5,-542.5 244.5,-523.5 130.5,-523.5"/>
<text text-anchor="middle" x="187.5" y="-530.5" font-family="Helvetica,sans-Serif" font-size="10.00" fill="#000000">js_free_message_pipe</text>
</a>
</g>
</g>
<!-- Node27850&#45;&gt;Node28283 -->
<g id="edge10" class="edge">
<title>Node27850&#45;&gt;Node28283</title>
<path fill="none" stroke="#191970" d="M46.721,-333.5234C69.6134,-365.9607 144.7894,-472.4812 174.882,-515.1209"/>
<polygon fill="#191970" stroke="#191970" points="172.1138,-517.2686 180.7395,-523.4207 177.833,-513.2323 172.1138,-517.2686"/>
</g>
<!-- Node27960 -->
<g id="node12" class="node">
<title>Node27960</title>
<g id="a_node12"><a xlink:href="quickjs_8c.html#ab7fc45a99935a1c0ba50b0216d9401a9" target="_top" xlink:title="JS_FreeAtom">
<polygon fill="none" stroke="#ff0000" points="473,-542.5 473,-561.5 550,-561.5 550,-542.5 473,-542.5"/>
<text text-anchor="middle" x="511.5" y="-549.5" font-family="Helvetica,sans-Serif" font-size="10.00" fill="#000000">JS_FreeAtom</text>
</a>
</g>
</g>
<!-- Node27850&#45;&gt;Node27960 -->
<g id="edge13" class="edge">
<title>Node27850&#45;&gt;Node27960</title>
<path fill="none" stroke="#191970" d="M41.8912,-333.6292C49.8156,-373.0146 81.5383,-521.2145 116,-552 219.5188,-644.476 290.2148,-618.8156 426,-590 447.3856,-585.4617 469.9164,-575.1924 486.4776,-566.4724"/>
<polygon fill="#191970" stroke="#191970" points="488.3733,-569.4256 495.485,-561.5722 485.0281,-563.2766 488.3733,-569.4256"/>
</g>
<!-- Node28004 -->
<g id="node13" class="node">
<title>Node28004</title>
<g id="a_node13"><a xlink:href="quickjs_8c.html#ae0bc4f65da64810facb2cb9e476eda2e" target="_top" xlink:title="JS_FreeCString">
<polygon fill="none" stroke="#000000" points="468.5,-29.5 468.5,-48.5 554.5,-48.5 554.5,-29.5 468.5,-29.5"/>
<text text-anchor="middle" x="511.5" y="-36.5" font-family="Helvetica,sans-Serif" font-size="10.00" fill="#000000">JS_FreeCString</text>
</a>
</g>
</g>
<!-- Node27850&#45;&gt;Node28004 -->
<g id="edge14" class="edge">
<title>Node27850&#45;&gt;Node28004</title>
<path fill="none" stroke="#191970" d="M40.3383,-314.2495C42.0618,-280.6972 52.5353,-169.1029 116,-115 213.8154,-31.6136 375.0933,-28.7957 458.2497,-33.8338"/>
<polygon fill="#191970" stroke="#191970" points="458.0261,-37.3265 468.2369,-34.4999 458.492,-30.342 458.0261,-37.3265"/>
</g>
<!-- Node28287 -->
<g id="node14" class="node">
<title>Node28287</title>
<g id="a_node14"><a xlink:href="quickjs_8c.html#af1866c7f8a91153f11602a2b521d9399" target="_top" xlink:title="JS_GetRuntime">
<polygon fill="none" stroke="#000000" points="144.5,-238.5 144.5,-257.5 230.5,-257.5 230.5,-238.5 144.5,-238.5"/>
<text text-anchor="middle" x="187.5" y="-245.5" font-family="Helvetica,sans-Serif" font-size="10.00" fill="#000000">JS_GetRuntime</text>
</a>
</g>
</g>
<!-- Node27850&#45;&gt;Node28287 -->
<g id="edge17" class="edge">
<title>Node27850&#45;&gt;Node28287</title>
<path fill="none" stroke="#191970" d="M51.731,-314.4387C66.1391,-303.0695 91.6703,-284.1132 116,-272 124.4358,-267.8 133.7793,-264.0647 142.8535,-260.8648"/>
<polygon fill="#191970" stroke="#191970" points="144.177,-264.1123 152.5387,-257.6059 141.9446,-257.4778 144.177,-264.1123"/>
</g>
<!-- Node28106 -->
<g id="node15" class="node">
<title>Node28106</title>
<g id="a_node15"><a xlink:href="quickjs_8c.html#a3d9d43172bb33e53a4843dd3a770e889" target="_top" xlink:title="JS_GetScriptOrModuleName">
<polygon fill="none" stroke="#ff0000" points="116,-200.5 116,-219.5 259,-219.5 259,-200.5 116,-200.5"/>
<text text-anchor="middle" x="187.5" y="-207.5" font-family="Helvetica,sans-Serif" font-size="10.00" fill="#000000">JS_GetScriptOrModuleName</text>
</a>
</g>
</g>
<!-- Node27850&#45;&gt;Node28106 -->
<g id="edge18" class="edge">
<title>Node27850&#45;&gt;Node28106</title>
<path fill="none" stroke="#191970" d="M45.0127,-314.2211C55.4629,-294.8425 81.5013,-251.4987 116,-229 119.1434,-226.95 122.5008,-225.1204 125.9822,-223.4876"/>
<polygon fill="#191970" stroke="#191970" points="127.5053,-226.6458 135.4259,-219.6092 124.8459,-220.1707 127.5053,-226.6458"/>
</g>
<!-- Node28288 -->
<g id="node16" class="node">
<title>Node28288</title>
<g id="a_node16"><a xlink:href="quickjs-libc_8c.html#af5b54bf809f84a3bac14031e5a3edd33" target="_top" xlink:title="js_new_message_pipe">
<polygon fill="none" stroke="#000000" points="129.5,-.5 129.5,-19.5 245.5,-19.5 245.5,-.5 129.5,-.5"/>
<text text-anchor="middle" x="187.5" y="-7.5" font-family="Helvetica,sans-Serif" font-size="10.00" fill="#000000">js_new_message_pipe</text>
</a>
</g>
</g>
<!-- Node27850&#45;&gt;Node28288 -->
<g id="edge20" class="edge">
<title>Node27850&#45;&gt;Node28288</title>
<path fill="none" stroke="#191970" d="M40.2286,-314.2456C41.5838,-276.554 50.9721,-138.2948 116,-53 125.3989,-40.6718 139.4356,-31.1361 152.5896,-24.2128"/>
<polygon fill="#191970" stroke="#191970" points="154.4956,-27.1764 161.9328,-19.6306 151.4133,-20.8915 154.4956,-27.1764"/>
</g>
<!-- Node27863 -->
<g id="node18" class="node">
<title>Node27863</title>
<g id="a_node18"><a xlink:href="quickjs_8c.html#a344d6c0e45d9bf3861fd9269724045a2" target="_top" xlink:title="JS_ThrowOutOfMemory">
<polygon fill="none" stroke="#ff0000" points="126.5,-124.5 126.5,-143.5 248.5,-143.5 248.5,-124.5 126.5,-124.5"/>
<text text-anchor="middle" x="187.5" y="-131.5" font-family="Helvetica,sans-Serif" font-size="10.00" fill="#000000">JS_ThrowOutOfMemory</text>
</a>
</g>
</g>
<!-- Node27850&#45;&gt;Node27863 -->
<g id="edge22" class="edge">
<title>Node27850&#45;&gt;Node27863</title>
<path fill="none" stroke="#191970" d="M41.6867,-314.1592C47.0758,-285.7027 66.5173,-202.5195 116,-158 120.4898,-153.9605 125.6829,-150.5975 131.1799,-147.7984"/>
<polygon fill="#191970" stroke="#191970" points="132.9249,-150.8534 140.6477,-143.6002 130.0874,-144.4543 132.9249,-150.8534"/>
</g>
<!-- Node28289 -->
<g id="node19" class="node">
<title>Node28289</title>
<g id="a_node19"><a xlink:href="quickjs-libc_8c.html#a8129754877bdfb4d22f64dae5ba8e778" target="_top" xlink:title="js_worker_ctor_internal">
<polygon fill="none" stroke="#000000" points="129,-333.5 129,-352.5 246,-352.5 246,-333.5 129,-333.5"/>
<text text-anchor="middle" x="187.5" y="-340.5" font-family="Helvetica,sans-Serif" font-size="10.00" fill="#000000">js_worker_ctor_internal</text>
</a>
</g>
</g>
<!-- Node27850&#45;&gt;Node28289 -->
<g id="edge24" class="edge">
<title>Node27850&#45;&gt;Node28289</title>
<path fill="none" stroke="#191970" d="M80.305,-329.1918C92.2679,-330.7328 105.7203,-332.4657 118.9486,-334.1696"/>
<polygon fill="#191970" stroke="#191970" points="118.627,-337.6571 128.9922,-335.4634 119.5214,-330.7144 118.627,-337.6571"/>
</g>
<!-- Node28293 -->
<g id="node26" class="node">
<title>Node28293</title>
<g id="a_node26"><a xlink:href="quickjs-libc_8c.html#a1fbb3adc15e7b967479fc1940e99b67a" target="_top" xlink:title="worker_func">
<polygon fill="none" stroke="#ff0000" points="325.5,-143.5 325.5,-162.5 395.5,-162.5 395.5,-143.5 325.5,-143.5"/>
<text text-anchor="middle" x="360.5" y="-150.5" font-family="Helvetica,sans-Serif" font-size="10.00" fill="#000000">worker_func</text>
</a>
</g>
</g>
<!-- Node27850&#45;&gt;Node28293 -->
<g id="edge35" class="edge">
<title>Node27850&#45;&gt;Node28293</title>
<path fill="none" stroke="#191970" d="M42.4009,-314.3164C49.1614,-289.2553 70.8751,-222.0653 116,-191 147.5251,-169.2972 253.6237,-159.3963 315.2066,-155.3827"/>
<polygon fill="#191970" stroke="#191970" points="315.6623,-158.8611 325.4245,-154.744 315.2256,-151.8747 315.6623,-158.8611"/>
</g>
<!-- Node27853 -->
<g id="node4" class="node">
<title>Node27853</title>
<g id="a_node4"><a xlink:href="quickjs_8c.html#a260bfa297ff6cb5bd18e229afaa54663" target="_top" xlink:title="JS_AtomToString">
<polygon fill="none" stroke="#ff0000" points="313.5,-713.5 313.5,-732.5 407.5,-732.5 407.5,-713.5 313.5,-713.5"/>
<text text-anchor="middle" x="360.5" y="-720.5" font-family="Helvetica,sans-Serif" font-size="10.00" fill="#000000">JS_AtomToString</text>
</a>
</g>
</g>
<!-- Node27852&#45;&gt;Node27853 -->
<g id="edge3" class="edge">
<title>Node27852&#45;&gt;Node27853</title>
<path fill="none" stroke="#191970" d="M231.1552,-694.589C254.2929,-699.6713 282.9024,-705.9554 307.3268,-711.3203"/>
<polygon fill="#191970" stroke="#191970" points="306.6406,-714.753 317.1587,-713.4799 308.1425,-707.916 306.6406,-714.753"/>
</g>
<!-- Node27852&#45;&gt;Node27881 -->
<g id="edge4" class="edge">
<title>Node27852&#45;&gt;Node27881</title>
<path fill="none" stroke="#191970" d="M200.5415,-694.6616C219.9444,-708.3709 258.1002,-732.8224 295,-742 409.1238,-770.3844 548.0786,-723.1736 608.9379,-698.5209"/>
<polygon fill="#191970" stroke="#191970" points="610.4515,-701.6826 618.3582,-694.6303 607.7794,-695.2126 610.4515,-701.6826"/>
</g>
<!-- Node27852&#45;&gt;Node27882 -->
<g id="edge5" class="edge">
<title>Node27852&#45;&gt;Node27882</title>
<path fill="none" stroke="#191970" d="M238.0038,-685C261.0959,-685 288.3537,-685 311.2871,-685"/>
<polygon fill="#191970" stroke="#191970" points="311.4893,-688.5001 321.4892,-685 311.4892,-681.5001 311.4893,-688.5001"/>
</g>
<!-- Node27852&#45;&gt;Node27963 -->
<g id="edge9" class="edge">
<title>Node27852&#45;&gt;Node27963</title>
<path fill="none" stroke="#191970" d="M238.0059,-676.149C329.5005,-659.0955 517.2658,-619.087 561,-571 605.094,-522.5174 630.8605,-314.0847 637.9702,-248.6994"/>
<polygon fill="#191970" stroke="#191970" points="641.474,-248.8481 639.049,-238.5345 634.5131,-248.1092 641.474,-248.8481"/>
</g>
<!-- Node27883 -->
<g id="node7" class="node">
<title>Node27883</title>
<g id="a_node7"><a xlink:href="quickjs_8c.html#af49e67b73f845dc1f9c3ee648dd9f95c" target="_top" xlink:title="JS_ToCStringLen2">
<polygon fill="none" stroke="#ff0000" points="462,-675.5 462,-694.5 561,-694.5 561,-675.5 462,-675.5"/>
<text text-anchor="middle" x="511.5" y="-682.5" font-family="Helvetica,sans-Serif" font-size="10.00" fill="#000000">JS_ToCStringLen2</text>
</a>
</g>
</g>
<!-- Node27882&#45;&gt;Node27883 -->
<g id="edge6" class="edge">
<title>Node27882&#45;&gt;Node27883</title>
<path fill="none" stroke="#191970" d="M399.7793,-685C415.6306,-685 434.2735,-685 451.7402,-685"/>
<polygon fill="#191970" stroke="#191970" points="451.8585,-688.5001 461.8584,-685 451.8584,-681.5001 451.8585,-688.5001"/>
</g>
<!-- Node27883&#45;&gt;Node27881 -->
<g id="edge7" class="edge">
<title>Node27883&#45;&gt;Node27881</title>
<path fill="none" stroke="#191970" d="M561.1815,-685C569.5163,-685 578.1964,-685 586.6198,-685"/>
<polygon fill="#191970" stroke="#191970" points="586.7267,-688.5001 596.7267,-685 586.7266,-681.5001 586.7267,-688.5001"/>
</g>
<!-- Node27883&#45;&gt;Node27963 -->
<g id="edge8" class="edge">
<title>Node27883&#45;&gt;Node27963</title>
<path fill="none" stroke="#191970" d="M542.4479,-675.4496C549.4776,-671.9368 556.2598,-667.234 561,-661 611.6986,-594.3242 633.5651,-323.8685 638.7445,-248.5518"/>
<polygon fill="#191970" stroke="#191970" points="642.2383,-248.7603 639.4119,-238.5494 635.2538,-248.2942 642.2383,-248.7603"/>
</g>
<!-- Node28284 -->
<g id="node10" class="node">
<title>Node28284</title>
<g id="a_node10"><a xlink:href="quickjs-libc_8c.html#aa790fd732a5386c363726ddb72bb20e2" target="_top" xlink:title="atomic_add_int">
<polygon fill="none" stroke="#000000" points="470,-390.5 470,-409.5 553,-409.5 553,-390.5 470,-390.5"/>
<text text-anchor="middle" x="511.5" y="-397.5" font-family="Helvetica,sans-Serif" font-size="10.00" fill="#000000">atomic_add_int</text>
</a>
</g>
</g>
<!-- Node28283&#45;&gt;Node28284 -->
<g id="edge11" class="edge">
<title>Node28283&#45;&gt;Node28284</title>
<path fill="none" stroke="#191970" d="M244.7256,-541.094C295.5277,-545.4615 370.1495,-544.758 426,-514 464.8361,-492.6122 491.1985,-445.3023 503.5194,-418.8448"/>
<polygon fill="#191970" stroke="#191970" points="506.8014,-420.0787 507.68,-409.5203 500.4089,-417.2263 506.8014,-420.0787"/>
</g>
<!-- Node28285 -->
<g id="node11" class="node">
<title>Node28285</title>
<g id="a_node11"><a xlink:href="quickjs-libc_8c.html#a787c84066ba712c7487df7459615276f" target="_top" xlink:title="js_free_message">
<polygon fill="none" stroke="#ff0000" points="315,-561.5 315,-580.5 406,-580.5 406,-561.5 315,-561.5"/>
<text text-anchor="middle" x="360.5" y="-568.5" font-family="Helvetica,sans-Serif" font-size="10.00" fill="#000000">js_free_message</text>
</a>
</g>
</g>
<!-- Node28283&#45;&gt;Node28285 -->
<g id="edge12" class="edge">
<title>Node28283&#45;&gt;Node28285</title>
<path fill="none" stroke="#191970" d="M231.1552,-542.589C254.2929,-547.6713 282.9024,-553.9554 307.3268,-559.3203"/>
<polygon fill="#191970" stroke="#191970" points="306.6406,-562.753 317.1587,-561.4799 308.1425,-555.916 306.6406,-562.753"/>
</g>
<!-- Node28004&#45;&gt;Node27963 -->
<g id="edge15" class="edge">
<title>Node28004&#45;&gt;Node27963</title>
<path fill="none" stroke="#191970" d="M546.7715,-48.5994C551.9436,-51.0762 556.9001,-54.1633 561,-58 606.4619,-100.5442 627.9986,-174.3913 636.0514,-209.4471"/>
<polygon fill="#191970" stroke="#191970" points="632.6649,-210.3462 638.2054,-219.3769 639.5058,-208.8622 632.6649,-210.3462"/>
</g>
<!-- Node27905 -->
<g id="node17" class="node">
<title>Node27905</title>
<g id="a_node17"><a xlink:href="list_8h.html#a663527a4d757540b2177bef0db1ce5c0" target="_top" xlink:title="init_list_head">
<polygon fill="none" stroke="#000000" points="603,-29.5 603,-48.5 677,-48.5 677,-29.5 603,-29.5"/>
<text text-anchor="middle" x="640" y="-36.5" font-family="Helvetica,sans-Serif" font-size="10.00" fill="#000000">init_list_head</text>
</a>
</g>
</g>
<!-- Node28288&#45;&gt;Node27905 -->
<g id="edge21" class="edge">
<title>Node28288&#45;&gt;Node27905</title>
<path fill="none" stroke="#191970" d="M245.7018,-7.8102C319.429,-5.8944 450.2298,-5.3609 561,-20 572.898,-21.5724 585.6131,-24.1982 597.288,-27.0035"/>
<polygon fill="#191970" stroke="#191970" points="596.6828,-30.4599 607.2334,-29.493 598.3826,-23.6694 596.6828,-30.4599"/>
</g>
<!-- Node28289&#45;&gt;Node27881 -->
<g id="edge31" class="edge">
<title>Node28289&#45;&gt;Node27881</title>
<path fill="none" stroke="#191970" d="M195.6542,-352.623C212.3485,-371.7213 252.4487,-414.586 295,-438 404.9846,-498.5194 468.7628,-447.8442 561,-533 601.6577,-570.5362 624.9464,-633.803 634.6366,-665.5696"/>
<polygon fill="#191970" stroke="#191970" points="631.3432,-666.7783 637.5032,-675.3983 638.0632,-664.8183 631.3432,-666.7783"/>
</g>
<!-- Node28289&#45;&gt;Node27963 -->
<g id="edge27" class="edge">
<title>Node28289&#45;&gt;Node27963</title>
<path fill="none" stroke="#191970" d="M208.4828,-333.3842C223.639,-325.762 243.9971,-314.0708 259,-300 279.5028,-280.7709 270.1015,-261.0456 295,-248 295,-248 561,-248 561,-248 573.2572,-246.5467 586.3647,-243.8673 598.3092,-240.9695"/>
<polygon fill="#191970" stroke="#191970" points="599.1917,-244.3566 608.0249,-238.5063 597.4714,-237.5713 599.1917,-244.3566"/>
</g>
<!-- Node28290 -->
<g id="node20" class="node">
<title>Node28290</title>
<g id="a_node20"><a xlink:href="quickjs-libc_8c.html#ac1cc0fd3553ada828be687d09505cb4f" target="_top" xlink:title="js_dup_message_pipe">
<polygon fill="none" stroke="#000000" points="304,-371.5 304,-390.5 417,-390.5 417,-371.5 304,-371.5"/>
<text text-anchor="middle" x="360.5" y="-378.5" font-family="Helvetica,sans-Serif" font-size="10.00" fill="#000000">js_dup_message_pipe</text>
</a>
</g>
</g>
<!-- Node28289&#45;&gt;Node28290 -->
<g id="edge25" class="edge">
<title>Node28289&#45;&gt;Node28290</title>
<path fill="none" stroke="#191970" d="M231.1552,-352.589C254.2929,-357.6713 282.9024,-363.9554 307.3268,-369.3203"/>
<polygon fill="#191970" stroke="#191970" points="306.6406,-372.753 317.1587,-371.4799 308.1425,-365.916 306.6406,-372.753"/>
</g>
<!-- Node28291 -->
<g id="node21" class="node">
<title>Node28291</title>
<g id="a_node21"><a xlink:href="quickjs_8c.html#a3938cae1c86a528a74d6710290d706e5" target="_top" xlink:title="JS_GetClassProto">
<polygon fill="none" stroke="#ff0000" points="311.5,-333.5 311.5,-352.5 409.5,-352.5 409.5,-333.5 311.5,-333.5"/>
<text text-anchor="middle" x="360.5" y="-340.5" font-family="Helvetica,sans-Serif" font-size="10.00" fill="#000000">JS_GetClassProto</text>
</a>
</g>
</g>
<!-- Node28289&#45;&gt;Node28291 -->
<g id="edge28" class="edge">
<title>Node28289&#45;&gt;Node28291</title>
<path fill="none" stroke="#191970" d="M246.0699,-343C263.9345,-343 283.5796,-343 301.4743,-343"/>
<polygon fill="#191970" stroke="#191970" points="301.4962,-346.5001 311.4962,-343 301.4961,-339.5001 301.4962,-346.5001"/>
</g>
<!-- Node28292 -->
<g id="node22" class="node">
<title>Node28292</title>
<g id="a_node22"><a xlink:href="quickjs_8c.html#a04f589361a4fbc30d997402e92a50de2" target="_top" xlink:title="JS_GetPropertyStr">
<polygon fill="none" stroke="#ff0000" points="311,-485.5 311,-504.5 410,-504.5 410,-485.5 311,-485.5"/>
<text text-anchor="middle" x="360.5" y="-492.5" font-family="Helvetica,sans-Serif" font-size="10.00" fill="#000000">JS_GetPropertyStr</text>
</a>
</g>
</g>
<!-- Node28289&#45;&gt;Node28292 -->
<g id="edge29" class="edge">
<title>Node28289&#45;&gt;Node28292</title>
<path fill="none" stroke="#191970" d="M193.2138,-352.8371C207.435,-376.5056 246.7728,-437.1692 295,-471 300.9984,-475.2078 307.8198,-478.7672 314.7403,-481.7496"/>
<polygon fill="#191970" stroke="#191970" points="313.5838,-485.0557 324.1707,-485.4656 316.1501,-478.5431 313.5838,-485.0557"/>
</g>
<!-- Node28058 -->
<g id="node23" class="node">
<title>Node28058</title>
<g id="a_node23"><a xlink:href="quickjs_8h.html#a4e407128a9605afb77523e49e9a627fd" target="_top" xlink:title="JS_IsUndefined">
<polygon fill="none" stroke="#000000" points="317.5,-295.5 317.5,-314.5 403.5,-314.5 403.5,-295.5 317.5,-295.5"/>
<text text-anchor="middle" x="360.5" y="-302.5" font-family="Helvetica,sans-Serif" font-size="10.00" fill="#000000">JS_IsUndefined</text>
</a>
</g>
</g>
<!-- Node28289&#45;&gt;Node28058 -->
<g id="edge32" class="edge">
<title>Node28289&#45;&gt;Node28058</title>
<path fill="none" stroke="#191970" d="M231.1552,-333.411C254.3809,-328.3094 283.12,-321.9968 307.6053,-316.6185"/>
<polygon fill="#191970" stroke="#191970" points="308.4418,-320.0183 317.4581,-314.4543 306.94,-313.1813 308.4418,-320.0183"/>
</g>
<!-- Node27911 -->
<g id="node24" class="node">
<title>Node27911</title>
<g id="a_node24"><a xlink:href="quickjs_8c.html#a73738c650f11459db0d7af3dcdf8316b" target="_top" xlink:title="JS_NewObjectProtoClass">
<polygon fill="none" stroke="#ff0000" points="295,-257.5 295,-276.5 426,-276.5 426,-257.5 295,-257.5"/>
<text text-anchor="middle" x="360.5" y="-264.5" font-family="Helvetica,sans-Serif" font-size="10.00" fill="#000000">JS_NewObjectProtoClass</text>
</a>
</g>
</g>
<!-- Node28289&#45;&gt;Node27911 -->
<g id="edge33" class="edge">
<title>Node28289&#45;&gt;Node27911</title>
<path fill="none" stroke="#191970" d="M203.037,-333.4502C223.5136,-321.1745 260.9332,-299.802 295,-286 300.7613,-283.6658 306.9143,-281.49 313.056,-279.5056"/>
<polygon fill="#191970" stroke="#191970" points="314.1158,-282.8416 322.6401,-276.5498 312.0527,-276.1524 314.1158,-282.8416"/>
</g>
<!-- Node28143 -->
<g id="node25" class="node">
<title>Node28143</title>
<g id="a_node25"><a xlink:href="quickjs_8c.html#a0ddf716409e51648f0d59e7521150d19" target="_top" xlink:title="JS_SetOpaque">
<polygon fill="none" stroke="#000000" points="319,-409.5 319,-428.5 402,-428.5 402,-409.5 319,-409.5"/>
<text text-anchor="middle" x="360.5" y="-416.5" font-family="Helvetica,sans-Serif" font-size="10.00" fill="#000000">JS_SetOpaque</text>
</a>
</g>
</g>
<!-- Node28289&#45;&gt;Node28143 -->
<g id="edge34" class="edge">
<title>Node28289&#45;&gt;Node28143</title>
<path fill="none" stroke="#191970" d="M203.037,-352.5498C223.5136,-364.8255 260.9332,-386.198 295,-400 300.7613,-402.3342 306.9143,-404.51 313.056,-406.4944"/>
<polygon fill="#191970" stroke="#191970" points="312.0527,-409.8476 322.6401,-409.4502 314.1158,-403.1584 312.0527,-409.8476"/>
</g>
<!-- Node28290&#45;&gt;Node28284 -->
<g id="edge26" class="edge">
<title>Node28290&#45;&gt;Node28284</title>
<path fill="none" stroke="#191970" d="M417.1564,-388.129C431.0273,-389.8743 445.8046,-391.7337 459.4479,-393.4504"/>
<polygon fill="#191970" stroke="#191970" points="459.2673,-396.9552 469.6261,-394.7311 460.1413,-390.01 459.2673,-396.9552"/>
</g>
<!-- Node28292&#45;&gt;Node27960 -->
<g id="edge30" class="edge">
<title>Node28292&#45;&gt;Node27960</title>
<path fill="none" stroke="#191970" d="M385.774,-504.5405C410.5991,-513.9116 448.683,-528.2876 476.4317,-538.7623"/>
<polygon fill="#191970" stroke="#191970" points="475.5518,-542.1712 486.1435,-542.4284 478.024,-535.6222 475.5518,-542.1712"/>
</g>
<!-- Node27957 -->
<g id="node27" class="node">
<title>Node27957</title>
<g id="a_node27"><a xlink:href="quickjs_8c.html#a1b4fe6eb1b7bcaec6713bd5ac2921f1b" target="_top" xlink:title="JS_FreeContext">
<polygon fill="none" stroke="#ff0000" points="467.5,-143.5 467.5,-162.5 555.5,-162.5 555.5,-143.5 467.5,-143.5"/>
<text text-anchor="middle" x="511.5" y="-150.5" font-family="Helvetica,sans-Serif" font-size="10.00" fill="#000000">JS_FreeContext</text>
</a>
</g>
</g>
<!-- Node28293&#45;&gt;Node27957 -->
<g id="edge36" class="edge">
<title>Node28293&#45;&gt;Node27957</title>
<path fill="none" stroke="#191970" d="M395.522,-153C413.8566,-153 436.7128,-153 457.2761,-153"/>
<polygon fill="#191970" stroke="#191970" points="457.4695,-156.5001 467.4694,-153 457.4694,-149.5001 457.4695,-156.5001"/>
</g>
<!-- Node28294 -->
<g id="node28" class="node">
<title>Node28294</title>
<g id="a_node28"><a xlink:href="quickjs_8c.html#ad80a65b72c3a346d8a0047858a5f0b13" target="_top" xlink:title="JS_FreeRuntime">
<polygon fill="none" stroke="#ff0000" points="466.5,-67.5 466.5,-86.5 556.5,-86.5 556.5,-67.5 466.5,-67.5"/>
<text text-anchor="middle" x="511.5" y="-74.5" font-family="Helvetica,sans-Serif" font-size="10.00" fill="#000000">JS_FreeRuntime</text>
</a>
</g>
</g>
<!-- Node28293&#45;&gt;Node28294 -->
<g id="edge38" class="edge">
<title>Node28293&#45;&gt;Node28294</title>
<path fill="none" stroke="#191970" d="M375.95,-143.3896C395.5332,-131.4285 430.5363,-110.7776 462,-96 466.1425,-94.0544 470.543,-92.1478 474.9451,-90.3386"/>
<polygon fill="#191970" stroke="#191970" points="476.4792,-93.4955 484.4849,-86.5558 473.8989,-86.9883 476.4792,-93.4955"/>
</g>
<!-- Node28295 -->
<g id="node29" class="node">
<title>Node28295</title>
<g id="a_node29"><a xlink:href="quickjs-libc_8c.html#ad61d60681847f324c5ba4ad88c546f1e" target="_top" xlink:title="js_module_loader">
<polygon fill="none" stroke="#ff0000" points="465.5,-219.5 465.5,-238.5 557.5,-238.5 557.5,-219.5 465.5,-219.5"/>
<text text-anchor="middle" x="511.5" y="-226.5" font-family="Helvetica,sans-Serif" font-size="10.00" fill="#000000">js_module_loader</text>
</a>
</g>
</g>
<!-- Node28293&#45;&gt;Node28295 -->
<g id="edge40" class="edge">
<title>Node28293&#45;&gt;Node28295</title>
<path fill="none" stroke="#191970" d="M379.6243,-162.6255C405.8333,-175.8168 453.1004,-199.6068 483.3544,-214.834"/>
<polygon fill="#191970" stroke="#191970" points="482.0251,-218.0832 492.531,-219.4527 485.1721,-211.8305 482.0251,-218.0832"/>
</g>
<!-- Node28305 -->
<g id="node30" class="node">
<title>Node28305</title>
<g id="a_node30"><a xlink:href="quickjs_8c.html#afc1ca27a266094085ebb43e2eea0dda2" target="_top" xlink:title="JS_NewRuntime">
<polygon fill="none" stroke="#ff0000" points="466,-105.5 466,-124.5 557,-124.5 557,-105.5 466,-105.5"/>
<text text-anchor="middle" x="511.5" y="-112.5" font-family="Helvetica,sans-Serif" font-size="10.00" fill="#000000">JS_NewRuntime</text>
</a>
</g>
</g>
<!-- Node28293&#45;&gt;Node28305 -->
<g id="edge43" class="edge">
<title>Node28293&#45;&gt;Node28305</title>
<path fill="none" stroke="#191970" d="M395.522,-144.1865C415.7699,-139.091 441.5323,-132.6078 463.6311,-127.0465"/>
<polygon fill="#191970" stroke="#191970" points="464.6504,-130.3992 473.4938,-124.5645 462.942,-123.6108 464.6504,-130.3992"/>
</g>
<!-- Node27957&#45;&gt;Node27963 -->
<g id="edge37" class="edge">
<title>Node27957&#45;&gt;Node27963</title>
<path fill="none" stroke="#191970" d="M533.0119,-162.6795C541.8213,-166.8358 552.0324,-171.9036 561,-177 580.9288,-188.3258 602.6149,-202.7626 618.2155,-213.5495"/>
<polygon fill="#191970" stroke="#191970" points="616.4349,-216.5749 626.6384,-219.4278 620.441,-210.8346 616.4349,-216.5749"/>
</g>
<!-- Node28294&#45;&gt;Node27905 -->
<g id="edge39" class="edge">
<title>Node28294&#45;&gt;Node27905</title>
<path fill="none" stroke="#191970" d="M543.926,-67.411C560.2097,-62.5956 580.1421,-56.7012 597.622,-51.532"/>
<polygon fill="#191970" stroke="#191970" points="598.9875,-54.7781 607.5844,-48.5859 597.0024,-48.0655 598.9875,-54.7781"/>
</g>
<!-- Node28295&#45;&gt;Node27881 -->
<g id="edge42" class="edge">
<title>Node28295&#45;&gt;Node27881</title>
<path fill="none" stroke="#191970" d="M514.8302,-238.5405C523.1106,-262.4031 545.1072,-326.6604 561,-381 592.2427,-487.823 623.8833,-617.5473 635.4281,-665.7546"/>
<polygon fill="#191970" stroke="#191970" points="632.0249,-666.5722 637.7505,-675.4867 638.8337,-664.9474 632.0249,-666.5722"/>
</g>
<!-- Node28295&#45;&gt;Node27963 -->
<g id="edge41" class="edge">
<title>Node28295&#45;&gt;Node27963</title>
<path fill="none" stroke="#191970" d="M557.5285,-229C568.225,-229 579.656,-229 590.4952,-229"/>
<polygon fill="#191970" stroke="#191970" points="590.6628,-232.5001 600.6628,-229 590.6627,-225.5001 590.6628,-232.5001"/>
</g>
</g>
</svg>
