<?xml version="1.0" encoding="UTF-8" standalone="no"?>
<!DOCTYPE svg PUBLIC "-//W3C//DTD SVG 1.1//EN"
 "http://www.w3.org/Graphics/SVG/1.1/DTD/svg11.dtd">
<!-- Generated by graphviz version 2.40.1 (20161225.0304)
 -->
<!-- Title: JS_SetClassProto Pages: 1 -->
<svg width="481pt" height="126pt"
 viewBox="0.00 0.00 481.00 126.00" xmlns="http://www.w3.org/2000/svg" xmlns:xlink="http://www.w3.org/1999/xlink">
<g id="graph0" class="graph" transform="scale(1 1) rotate(0) translate(4 122)">
<title>JS_SetClassProto</title>
<!-- Node5293 -->
<g id="node1" class="node">
<title>Node5293</title>
<polygon fill="#bfbfbf" stroke="#000000" points="0,-60.5 0,-79.5 98,-79.5 98,-60.5 0,-60.5"/>
<text text-anchor="middle" x="49" y="-67.5" font-family="Helvetica,sans-Serif" font-size="10.00" fill="#000000">JS_SetClassProto</text>
</g>
<!-- Node5294 -->
<g id="node2" class="node">
<title>Node5294</title>
<g id="a_node2"><a xlink:href="quickjs-libc_8c.html#a066e7962ce24f22d5df20968a8baa346" target="_top" xlink:title="js_os_init">
<polygon fill="none" stroke="#000000" points="155.5,-98.5 155.5,-117.5 213.5,-117.5 213.5,-98.5 155.5,-98.5"/>
<text text-anchor="middle" x="184.5" y="-105.5" font-family="Helvetica,sans-Serif" font-size="10.00" fill="#000000">js_os_init</text>
</a>
</g>
</g>
<!-- Node5293&#45;&gt;Node5294 -->
<g id="edge1" class="edge">
<title>Node5293&#45;&gt;Node5294</title>
<path fill="none" stroke="#191970" d="M92.9304,-82.32C113.3902,-88.0578 137.1708,-94.7269 155.3694,-99.8305"/>
<polygon fill="#191970" stroke="#191970" points="93.766,-78.9193 83.1924,-79.589 91.8758,-85.6593 93.766,-78.9193"/>
</g>
<!-- Node5297 -->
<g id="node5" class="node">
<title>Node5297</title>
<g id="a_node5"><a xlink:href="quickjs-libc_8c.html#a08cea1a0226b7603e6969e2208d99d55" target="_top" xlink:title="js_std_init">
<polygon fill="none" stroke="#000000" points="154,-60.5 154,-79.5 215,-79.5 215,-60.5 154,-60.5"/>
<text text-anchor="middle" x="184.5" y="-67.5" font-family="Helvetica,sans-Serif" font-size="10.00" fill="#000000">js_std_init</text>
</a>
</g>
</g>
<!-- Node5293&#45;&gt;Node5297 -->
<g id="edge4" class="edge">
<title>Node5293&#45;&gt;Node5297</title>
<path fill="none" stroke="#191970" d="M108.4951,-70C124.1929,-70 140.4908,-70 153.9499,-70"/>
<polygon fill="#191970" stroke="#191970" points="108.3019,-66.5001 98.3019,-70 108.3019,-73.5001 108.3019,-66.5001"/>
</g>
<!-- Node5299 -->
<g id="node7" class="node">
<title>Node5299</title>
<g id="a_node7"><a xlink:href="structqjs_1_1js__traits_3_01std_1_1shared__ptr_3_01T_01_4_01_4.html#af3558afeef079826c58411353c8ccce0" target="_top" xlink:title="Register class in QuickJS context. ">
<polygon fill="none" stroke="#000000" points="134,-.5 134,-41.5 235,-41.5 235,-.5 134,-.5"/>
<text text-anchor="start" x="142" y="-29.5" font-family="Helvetica,sans-Serif" font-size="10.00" fill="#000000">qjs::js_traits&lt; std</text>
<text text-anchor="start" x="142" y="-18.5" font-family="Helvetica,sans-Serif" font-size="10.00" fill="#000000">::shared_ptr&lt; T &gt; &gt;</text>
<text text-anchor="middle" x="184.5" y="-7.5" font-family="Helvetica,sans-Serif" font-size="10.00" fill="#000000">::register_class</text>
</a>
</g>
</g>
<!-- Node5293&#45;&gt;Node5299 -->
<g id="edge7" class="edge">
<title>Node5293&#45;&gt;Node5299</title>
<path fill="none" stroke="#191970" d="M84.8921,-57.0206C99.924,-51.5847 117.665,-45.1691 133.9786,-39.2697"/>
<polygon fill="#191970" stroke="#191970" points="83.6612,-53.7438 75.4474,-60.436 86.0417,-60.3266 83.6612,-53.7438"/>
</g>
<!-- Node5295 -->
<g id="node3" class="node">
<title>Node5295</title>
<g id="a_node3"><a xlink:href="quickjs-libc_8c.html#adcca2b4a661355e6ff87a0def2339894" target="_top" xlink:title="js_init_module_os">
<polygon fill="none" stroke="#000000" points="287.5,-98.5 287.5,-117.5 382.5,-117.5 382.5,-98.5 287.5,-98.5"/>
<text text-anchor="middle" x="335" y="-105.5" font-family="Helvetica,sans-Serif" font-size="10.00" fill="#000000">js_init_module_os</text>
</a>
</g>
</g>
<!-- Node5294&#45;&gt;Node5295 -->
<g id="edge2" class="edge">
<title>Node5294&#45;&gt;Node5295</title>
<path fill="none" stroke="#191970" d="M223.5813,-108C243.091,-108 266.8566,-108 287.4196,-108"/>
<polygon fill="#191970" stroke="#191970" points="223.5179,-104.5001 213.5179,-108 223.5179,-111.5001 223.5179,-104.5001"/>
</g>
<!-- Node5296 -->
<g id="node4" class="node">
<title>Node5296</title>
<g id="a_node4"><a xlink:href="qjs_8cpp.html#a3c04138a5bfe5d72780bb7e82a18e627" target="_top" xlink:title="main">
<polygon fill="none" stroke="#000000" points="435,-79.5 435,-98.5 473,-98.5 473,-79.5 435,-79.5"/>
<text text-anchor="middle" x="454" y="-86.5" font-family="Helvetica,sans-Serif" font-size="10.00" fill="#000000">main</text>
</a>
</g>
</g>
<!-- Node5295&#45;&gt;Node5296 -->
<g id="edge3" class="edge">
<title>Node5295&#45;&gt;Node5296</title>
<path fill="none" stroke="#191970" d="M392.6528,-98.7949C407.8729,-96.3648 423.2543,-93.909 434.8083,-92.0642"/>
<polygon fill="#191970" stroke="#191970" points="392.0392,-95.3485 382.7162,-100.3815 393.143,-102.2609 392.0392,-95.3485"/>
</g>
<!-- Node5298 -->
<g id="node6" class="node">
<title>Node5298</title>
<g id="a_node6"><a xlink:href="quickjs-libc_8c.html#a0e65c67dfff872a664f8d29e7eae5a61" target="_top" xlink:title="js_init_module_std">
<polygon fill="none" stroke="#000000" points="286,-60.5 286,-79.5 384,-79.5 384,-60.5 286,-60.5"/>
<text text-anchor="middle" x="335" y="-67.5" font-family="Helvetica,sans-Serif" font-size="10.00" fill="#000000">js_init_module_std</text>
</a>
</g>
</g>
<!-- Node5297&#45;&gt;Node5298 -->
<g id="edge5" class="edge">
<title>Node5297&#45;&gt;Node5298</title>
<path fill="none" stroke="#191970" d="M225.5442,-70C244.1701,-70 266.3477,-70 285.8541,-70"/>
<polygon fill="#191970" stroke="#191970" points="225.3191,-66.5001 215.3191,-70 225.3191,-73.5001 225.3191,-66.5001"/>
</g>
<!-- Node5298&#45;&gt;Node5296 -->
<g id="edge6" class="edge">
<title>Node5298&#45;&gt;Node5296</title>
<path fill="none" stroke="#191970" d="M394.2651,-79.4625C409.0331,-81.8204 423.8204,-84.1814 434.9878,-85.9644"/>
<polygon fill="#191970" stroke="#191970" points="394.5157,-75.9582 384.0889,-77.8377 393.412,-82.8707 394.5157,-75.9582"/>
</g>
<!-- Node5300 -->
<g id="node8" class="node">
<title>Node5300</title>
<g id="a_node8"><a xlink:href="structqjs_1_1js__traits_3_01std_1_1shared__ptr_3_01T_01_4_01_4.html#a046f811ae16e0cb24170a8425f3e8780" target="_top" xlink:title="Create a JSValue from std::shared_ptr&lt;T&gt;. ">
<polygon fill="none" stroke="#000000" points="271,-6 271,-36 399,-36 399,-6 271,-6"/>
<text text-anchor="start" x="279" y="-24" font-family="Helvetica,sans-Serif" font-size="10.00" fill="#000000">qjs::js_traits&lt; std</text>
<text text-anchor="middle" x="335" y="-13" font-family="Helvetica,sans-Serif" font-size="10.00" fill="#000000">::shared_ptr&lt; T &gt; &gt;::wrap</text>
</a>
</g>
</g>
<!-- Node5299&#45;&gt;Node5300 -->
<g id="edge8" class="edge">
<title>Node5299&#45;&gt;Node5300</title>
<path fill="none" stroke="#191970" d="M245.2179,-21C253.6967,-21 262.4314,-21 270.969,-21"/>
<polygon fill="#191970" stroke="#191970" points="245.033,-17.5001 235.033,-21 245.033,-24.5001 245.033,-17.5001"/>
</g>
</g>
</svg>
