<?xml version="1.0" encoding="UTF-8" standalone="no"?>
<!DOCTYPE svg PUBLIC "-//W3C//DTD SVG 1.1//EN"
 "http://www.w3.org/Graphics/SVG/1.1/DTD/svg11.dtd">
<!-- Generated by graphviz version 2.40.1 (20161225.0304)
 -->
<!-- Title: js_reflect_get Pages: 1 -->
<svg width="817pt" height="774pt"
 viewBox="0.00 0.00 817.00 773.50" xmlns="http://www.w3.org/2000/svg" xmlns:xlink="http://www.w3.org/1999/xlink">
<g id="graph0" class="graph" transform="scale(1 1) rotate(0) translate(4 769.5)">
<title>js_reflect_get</title>
<!-- Node438904 -->
<g id="node1" class="node">
<title>Node438904</title>
<polygon fill="#bfbfbf" stroke="#000000" points="0,-512 0,-531 75,-531 75,-512 0,-512"/>
<text text-anchor="middle" x="37.5" y="-519" font-family="Helvetica,sans-Serif" font-size="10.00" fill="#000000">js_reflect_get</text>
</g>
<!-- Node438905 -->
<g id="node2" class="node">
<title>Node438905</title>
<g id="a_node2"><a xlink:href="quickjs_8c.html#ab7fc45a99935a1c0ba50b0216d9401a9" target="_top" xlink:title="JS_FreeAtom">
<polygon fill="none" stroke="#000000" points="152.5,-708 152.5,-727 229.5,-727 229.5,-708 152.5,-708"/>
<text text-anchor="middle" x="191" y="-715" font-family="Helvetica,sans-Serif" font-size="10.00" fill="#000000">JS_FreeAtom</text>
</a>
</g>
</g>
<!-- Node438904&#45;&gt;Node438905 -->
<g id="edge1" class="edge">
<title>Node438904&#45;&gt;Node438905</title>
<path fill="none" stroke="#191970" d="M44.4671,-531.0586C57.3726,-548.7035 85.9647,-587.5114 111,-619.5 133.4035,-648.1259 160.2771,-680.6998 176.4766,-700.1518"/>
<polygon fill="#191970" stroke="#191970" points="173.8234,-702.4351 182.918,-707.87 179.1977,-697.9499 173.8234,-702.4351"/>
</g>
<!-- Node438911 -->
<g id="node6" class="node">
<title>Node438911</title>
<g id="a_node6"><a xlink:href="quickjs_8c.html#a5762c57ae0c9937e986040c01222833a" target="_top" xlink:title="JS_GetPropertyInternal">
<polygon fill="none" stroke="#000000" points="131.5,-354 131.5,-373 250.5,-373 250.5,-354 131.5,-354"/>
<text text-anchor="middle" x="191" y="-361" font-family="Helvetica,sans-Serif" font-size="10.00" fill="#000000">JS_GetPropertyInternal</text>
</a>
</g>
</g>
<!-- Node438904&#45;&gt;Node438911 -->
<g id="edge5" class="edge">
<title>Node438904&#45;&gt;Node438911</title>
<path fill="none" stroke="#191970" d="M47.1021,-511.6164C72.515,-485.4585 141.784,-414.1588 174.0459,-380.9511"/>
<polygon fill="#191970" stroke="#191970" points="176.9437,-382.9912 181.4015,-373.3799 171.9229,-378.1135 176.9437,-382.9912"/>
</g>
<!-- Node439142 -->
<g id="node29" class="node">
<title>Node439142</title>
<g id="a_node29"><a xlink:href="quickjs_8c.html#a726b00d108e0a0f4d958c36c2e426a64" target="_top" xlink:title="JS_ThrowTypeErrorNotAnObject">
<polygon fill="none" stroke="#000000" points="111,-316 111,-335 271,-335 271,-316 111,-316"/>
<text text-anchor="middle" x="191" y="-323" font-family="Helvetica,sans-Serif" font-size="10.00" fill="#000000">JS_ThrowTypeErrorNotAnObject</text>
</a>
</g>
</g>
<!-- Node438904&#45;&gt;Node439142 -->
<g id="edge35" class="edge">
<title>Node438904&#45;&gt;Node439142</title>
<path fill="none" stroke="#191970" d="M38.5071,-511.6632C42.1299,-481.6021 57.2853,-390.2223 111,-344.5 112.8106,-342.9588 114.7242,-341.5377 116.7199,-340.2277"/>
<polygon fill="#191970" stroke="#191970" points="118.8513,-343.0501 125.9295,-335.1665 115.48,-336.9154 118.8513,-343.0501"/>
</g>
<!-- Node439031 -->
<g id="node30" class="node">
<title>Node439031</title>
<g id="a_node30"><a xlink:href="quickjs_8c.html#a859d5c989a2aaecef1653b3ac279e108" target="_top" xlink:title="JS_ValueToAtom">
<polygon fill="none" stroke="#ff0000" points="144.5,-591 144.5,-610 237.5,-610 237.5,-591 144.5,-591"/>
<text text-anchor="middle" x="191" y="-598" font-family="Helvetica,sans-Serif" font-size="10.00" fill="#000000">JS_ValueToAtom</text>
</a>
</g>
</g>
<!-- Node438904&#45;&gt;Node439031 -->
<g id="edge36" class="edge">
<title>Node438904&#45;&gt;Node439031</title>
<path fill="none" stroke="#191970" d="M56.0157,-531.0292C82.7531,-544.7899 132.3647,-570.3229 163.4218,-586.3067"/>
<polygon fill="#191970" stroke="#191970" points="161.9255,-589.4728 172.4186,-590.937 165.1288,-583.2488 161.9255,-589.4728"/>
</g>
<!-- Node438906 -->
<g id="node3" class="node">
<title>Node438906</title>
<g id="a_node3"><a xlink:href="quickjs_8c.html#a7f6796ee7a195631366f57c713a33f65" target="_top" xlink:title="__JS_AtomIsConst">
<polygon fill="none" stroke="#000000" points="346,-746 346,-765 448,-765 448,-746 346,-746"/>
<text text-anchor="middle" x="397" y="-753" font-family="Helvetica,sans-Serif" font-size="10.00" fill="#000000">__JS_AtomIsConst</text>
</a>
</g>
</g>
<!-- Node438905&#45;&gt;Node438906 -->
<g id="edge2" class="edge">
<title>Node438905&#45;&gt;Node438906</title>
<path fill="none" stroke="#191970" d="M229.747,-724.6475C259.661,-730.1656 301.6139,-737.9045 336.0181,-744.2509"/>
<polygon fill="#191970" stroke="#191970" points="335.498,-747.7139 345.967,-746.0862 336.7679,-740.8301 335.498,-747.7139"/>
</g>
<!-- Node438907 -->
<g id="node4" class="node">
<title>Node438907</title>
<g id="a_node4"><a xlink:href="quickjs_8c.html#a0bbd9e3ecd55e3ea6c9d44bfda382095" target="_top" xlink:title="__JS_FreeAtom">
<polygon fill="none" stroke="#000000" points="353.5,-708 353.5,-727 440.5,-727 440.5,-708 353.5,-708"/>
<text text-anchor="middle" x="397" y="-715" font-family="Helvetica,sans-Serif" font-size="10.00" fill="#000000">__JS_FreeAtom</text>
</a>
</g>
</g>
<!-- Node438905&#45;&gt;Node438907 -->
<g id="edge3" class="edge">
<title>Node438905&#45;&gt;Node438907</title>
<path fill="none" stroke="#191970" d="M229.747,-717.5C261.7826,-717.5 307.6252,-717.5 343.2173,-717.5"/>
<polygon fill="#191970" stroke="#191970" points="343.4347,-721.0001 353.4347,-717.5 343.4346,-714.0001 343.4347,-721.0001"/>
</g>
<!-- Node438908 -->
<g id="node5" class="node">
<title>Node438908</title>
<g id="a_node5"><a xlink:href="quickjs_8c.html#a58c8965dad50b15b75918a09f3d9dc7c" target="_top" xlink:title="JS_FreeAtomStruct">
<polygon fill="none" stroke="#ff0000" points="537,-708 537,-727 640,-727 640,-708 537,-708"/>
<text text-anchor="middle" x="588.5" y="-715" font-family="Helvetica,sans-Serif" font-size="10.00" fill="#000000">JS_FreeAtomStruct</text>
</a>
</g>
</g>
<!-- Node438907&#45;&gt;Node438908 -->
<g id="edge4" class="edge">
<title>Node438907&#45;&gt;Node438908</title>
<path fill="none" stroke="#191970" d="M440.934,-717.5C466.4058,-717.5 498.8786,-717.5 526.8739,-717.5"/>
<polygon fill="#191970" stroke="#191970" points="526.9641,-721.0001 536.9641,-717.5 526.964,-714.0001 526.9641,-721.0001"/>
</g>
<!-- Node438912 -->
<g id="node7" class="node">
<title>Node438912</title>
<g id="a_node7"><a xlink:href="quickjs_8c.html#a288254c06a39c9fca740a7abdad2834e" target="_top" xlink:title="__JS_AtomIsTaggedInt">
<polygon fill="none" stroke="#000000" points="690,-569 690,-588 809,-588 809,-569 690,-569"/>
<text text-anchor="middle" x="749.5" y="-576" font-family="Helvetica,sans-Serif" font-size="10.00" fill="#000000">__JS_AtomIsTaggedInt</text>
</a>
</g>
</g>
<!-- Node438911&#45;&gt;Node438912 -->
<g id="edge6" class="edge">
<title>Node438911&#45;&gt;Node438912</title>
<path fill="none" stroke="#191970" d="M193.8135,-373.2225C206.6094,-416.7024 260.6878,-592.4971 307,-622.5 371.2862,-664.1472 601.7817,-614.793 702.191,-590.4913"/>
<polygon fill="#191970" stroke="#191970" points="703.1794,-593.8529 712.0639,-588.0808 701.5191,-587.0526 703.1794,-593.8529"/>
</g>
<!-- Node438913 -->
<g id="node8" class="node">
<title>Node438913</title>
<g id="a_node8"><a xlink:href="quickjs_8c.html#a89f38938cee8077ce1fbba07946ed185" target="_top" xlink:title="__JS_AtomToUInt32">
<polygon fill="none" stroke="#000000" points="695.5,-518 695.5,-537 803.5,-537 803.5,-518 695.5,-518"/>
<text text-anchor="middle" x="749.5" y="-525" font-family="Helvetica,sans-Serif" font-size="10.00" fill="#000000">__JS_AtomToUInt32</text>
</a>
</g>
</g>
<!-- Node438911&#45;&gt;Node438913 -->
<g id="edge7" class="edge">
<title>Node438911&#45;&gt;Node438913</title>
<path fill="none" stroke="#191970" d="M196.2564,-373.1884C210.4168,-398.2609 252.0351,-465.4761 307,-496.5 391.8861,-544.4123 425.895,-526.0234 523,-534.5 581.0017,-539.5631 595.8167,-536.6295 654,-534.5 664.1977,-534.1268 674.9956,-533.5301 685.5196,-532.8385"/>
<polygon fill="#191970" stroke="#191970" points="685.7616,-536.3302 695.4971,-532.1506 685.2801,-529.3468 685.7616,-536.3302"/>
</g>
<!-- Node438914 -->
<g id="node9" class="node">
<title>Node438914</title>
<g id="a_node9"><a xlink:href="quickjs_8c.html#a06b76f5124fd985e35f4c652fd018d6d" target="_top" xlink:title="find_own_property">
<polygon fill="none" stroke="#000000" points="349,-278 349,-297 445,-297 445,-278 349,-278"/>
<text text-anchor="middle" x="397" y="-285" font-family="Helvetica,sans-Serif" font-size="10.00" fill="#000000">find_own_property</text>
</a>
</g>
</g>
<!-- Node438911&#45;&gt;Node438914 -->
<g id="edge8" class="edge">
<title>Node438911&#45;&gt;Node438914</title>
<path fill="none" stroke="#191970" d="M247.414,-353.9449C255.5784,-351.4753 263.6851,-348.3788 271,-344.5 290.1759,-334.3317 287.9653,-321.9303 307,-311.5 316.7719,-306.1454 327.8038,-301.9345 338.7094,-298.6396"/>
<polygon fill="#191970" stroke="#191970" points="339.9589,-301.9247 348.6495,-295.8647 338.0767,-295.1825 339.9589,-301.9247"/>
</g>
<!-- Node438917 -->
<g id="node12" class="node">
<title>Node438917</title>
<g id="a_node12"><a xlink:href="quickjs_8c.html#add3eea1f6d626963ade3c28a1fd563d1" target="_top" xlink:title="JS_AtomIsNumericIndex">
<polygon fill="none" stroke="#000000" points="334,-468 334,-487 460,-487 460,-468 334,-468"/>
<text text-anchor="middle" x="397" y="-475" font-family="Helvetica,sans-Serif" font-size="10.00" fill="#000000">JS_AtomIsNumericIndex</text>
</a>
</g>
</g>
<!-- Node438911&#45;&gt;Node438917 -->
<g id="edge11" class="edge">
<title>Node438911&#45;&gt;Node438917</title>
<path fill="none" stroke="#191970" d="M200.6099,-373.1992C219.3748,-391.5921 262.9238,-431.6501 307,-453.5 316.4424,-458.1809 326.91,-462.0339 337.2689,-465.1772"/>
<polygon fill="#191970" stroke="#191970" points="336.5546,-468.6127 347.1303,-467.9773 338.4666,-461.8788 336.5546,-468.6127"/>
</g>
<!-- Node438921 -->
<g id="node14" class="node">
<title>Node438921</title>
<g id="a_node14"><a xlink:href="quickjs_8h.html#afaa20c47565bc704c6c85f3d77254e7d" target="_top" xlink:title="JS_FreeValue">
<polygon fill="none" stroke="#ff0000" points="710.5,-373 710.5,-392 788.5,-392 788.5,-373 710.5,-373"/>
<text text-anchor="middle" x="749.5" y="-380" font-family="Helvetica,sans-Serif" font-size="10.00" fill="#000000">JS_FreeValue</text>
</a>
</g>
</g>
<!-- Node438911&#45;&gt;Node438921 -->
<g id="edge25" class="edge">
<title>Node438911&#45;&gt;Node438921</title>
<path fill="none" stroke="#191970" d="M241.2306,-353.9903C326.8243,-339.4361 506.0506,-316.1461 654,-344.5 678.0274,-349.1047 703.7099,-359.6764 722.3833,-368.503"/>
<polygon fill="#191970" stroke="#191970" points="720.9398,-371.6929 731.4635,-372.9188 724.0012,-365.3978 720.9398,-371.6929"/>
</g>
<!-- Node438952 -->
<g id="node16" class="node">
<title>Node438952</title>
<g id="a_node16"><a xlink:href="quickjs_8h.html#a2050bc428da1c65ac7eb87c3fa3b0392" target="_top" xlink:title="JS_NewInt32">
<polygon fill="none" stroke="#000000" points="711.5,-455 711.5,-474 787.5,-474 787.5,-455 711.5,-455"/>
<text text-anchor="middle" x="749.5" y="-462" font-family="Helvetica,sans-Serif" font-size="10.00" fill="#000000">JS_NewInt32</text>
</a>
</g>
</g>
<!-- Node438911&#45;&gt;Node438952 -->
<g id="edge30" class="edge">
<title>Node438911&#45;&gt;Node438952</title>
<path fill="none" stroke="#191970" d="M218.8258,-373.1384C242.1376,-380.9115 276.4161,-391.6432 307,-398.5 448.7312,-430.2756 619.5159,-450.8459 701.2812,-459.6259"/>
<polygon fill="#191970" stroke="#191970" points="700.9608,-463.1115 711.2747,-460.6878 701.7005,-456.1507 700.9608,-463.1115"/>
</g>
<!-- Node439126 -->
<g id="node18" class="node">
<title>Node439126</title>
<g id="a_node18"><a xlink:href="quickjs_8c.html#a23b7fe57d08a1b3b39ba556f9cbb6c76" target="_top" xlink:title="JS_AutoInitProperty">
<polygon fill="none" stroke="#ff0000" points="345,-240 345,-259 449,-259 449,-240 345,-240"/>
<text text-anchor="middle" x="397" y="-247" font-family="Helvetica,sans-Serif" font-size="10.00" fill="#000000">JS_AutoInitProperty</text>
</a>
</g>
</g>
<!-- Node438911&#45;&gt;Node439126 -->
<g id="edge21" class="edge">
<title>Node438911&#45;&gt;Node439126</title>
<path fill="none" stroke="#191970" d="M250.6343,-355.7423C257.9873,-353.0023 265.0099,-349.3519 271,-344.5 300.0434,-320.9752 277.6633,-291.6581 307,-268.5 315.169,-262.0514 325.0116,-257.6548 335.1463,-254.6833"/>
<polygon fill="#191970" stroke="#191970" points="336.0506,-258.065 344.9074,-252.2505 334.3578,-251.2728 336.0506,-258.065"/>
</g>
<!-- Node439004 -->
<g id="node19" class="node">
<title>Node439004</title>
<g id="a_node19"><a xlink:href="quickjs_8c.html#a75f6ee5e4235a7dc99889f3d2eb2c147" target="_top" xlink:title="JS_CallFree">
<polygon fill="none" stroke="#ff0000" points="553,-354 553,-373 624,-373 624,-354 553,-354"/>
<text text-anchor="middle" x="588.5" y="-361" font-family="Helvetica,sans-Serif" font-size="10.00" fill="#000000">JS_CallFree</text>
</a>
</g>
</g>
<!-- Node438911&#45;&gt;Node439004 -->
<g id="edge22" class="edge">
<title>Node438911&#45;&gt;Node439004</title>
<path fill="none" stroke="#191970" d="M238.1943,-373.0128C259.1684,-376.7783 284.2191,-380.6467 307,-382.5 386.7366,-388.9869 407.3422,-389.8915 487,-382.5 505.3544,-380.7969 525.3386,-377.3969 542.6825,-373.9377"/>
<polygon fill="#191970" stroke="#191970" points="543.4673,-377.3497 552.557,-371.9066 542.0569,-370.4932 543.4673,-377.3497"/>
</g>
<!-- Node438959 -->
<g id="node20" class="node">
<title>Node438959</title>
<g id="a_node20"><a xlink:href="quickjs_8h.html#a775522f2d084fc8fa0fcb33f390006b4" target="_top" xlink:title="JS_DupValue">
<polygon fill="none" stroke="#000000" points="358.5,-202 358.5,-221 435.5,-221 435.5,-202 358.5,-202"/>
<text text-anchor="middle" x="397" y="-209" font-family="Helvetica,sans-Serif" font-size="10.00" fill="#000000">JS_DupValue</text>
</a>
</g>
</g>
<!-- Node438911&#45;&gt;Node438959 -->
<g id="edge24" class="edge">
<title>Node438911&#45;&gt;Node438959</title>
<path fill="none" stroke="#191970" d="M250.875,-356.6417C258.2783,-353.7724 265.2501,-349.8463 271,-344.5 309.9112,-308.3195 267.6374,-266.1888 307,-230.5 318.2465,-220.3031 333.5508,-215.0593 348.3484,-212.4961"/>
<polygon fill="#191970" stroke="#191970" points="349.0186,-215.9372 358.4559,-211.1218 348.0755,-209.001 349.0186,-215.9372"/>
</g>
<!-- Node439028 -->
<g id="node21" class="node">
<title>Node439028</title>
<g id="a_node21"><a xlink:href="quickjs_8c.html#aeb97957655d979e9fe56c955da2b2d4b" target="_top" xlink:title="JS_GetPropertyUint32">
<polygon fill="none" stroke="#ff0000" points="339.5,-164 339.5,-183 454.5,-183 454.5,-164 339.5,-164"/>
<text text-anchor="middle" x="397" y="-171" font-family="Helvetica,sans-Serif" font-size="10.00" fill="#000000">JS_GetPropertyUint32</text>
</a>
</g>
</g>
<!-- Node438911&#45;&gt;Node439028 -->
<g id="edge26" class="edge">
<title>Node438911&#45;&gt;Node439028</title>
<path fill="none" stroke="#191970" d="M250.8432,-357.1834C258.3423,-354.2443 265.3491,-350.1545 271,-344.5 320.0752,-295.3942 257.3118,-240.9854 307,-192.5 313.3943,-186.2605 321.2921,-181.8407 329.7308,-178.7432"/>
<polygon fill="#191970" stroke="#191970" points="330.8938,-182.0477 339.4369,-175.7815 328.8508,-175.3525 330.8938,-182.0477"/>
</g>
<!-- Node439128 -->
<g id="node22" class="node">
<title>Node439128</title>
<g id="a_node22"><a xlink:href="quickjs_8c.html#a93550bf785e919d0881399712c54cb34" target="_top" xlink:title="JS_GetPrototypePrimitive">
<polygon fill="none" stroke="#000000" points="332,-126 332,-145 462,-145 462,-126 332,-126"/>
<text text-anchor="middle" x="397" y="-133" font-family="Helvetica,sans-Serif" font-size="10.00" fill="#000000">JS_GetPrototypePrimitive</text>
</a>
</g>
</g>
<!-- Node438911&#45;&gt;Node439128 -->
<g id="edge27" class="edge">
<title>Node438911&#45;&gt;Node439128</title>
<path fill="none" stroke="#191970" d="M250.68,-357.5732C258.2966,-354.5901 265.38,-350.3842 271,-344.5 330.3622,-282.347 246.8618,-215.9024 307,-154.5 311.4731,-149.9329 316.748,-146.3295 322.4645,-143.5001"/>
<polygon fill="#191970" stroke="#191970" points="323.851,-146.7143 331.7593,-139.6639 321.1803,-140.2438 323.851,-146.7143"/>
</g>
<!-- Node439204 -->
<g id="node23" class="node">
<title>Node439204</title>
<g id="a_node23"><a xlink:href="quickjs_8h.html#aaab426b47c95d00479b7355b1cf7f56c" target="_top" xlink:title="JS_IsUninitialized">
<polygon fill="none" stroke="#000000" points="349.5,-88 349.5,-107 444.5,-107 444.5,-88 349.5,-88"/>
<text text-anchor="middle" x="397" y="-95" font-family="Helvetica,sans-Serif" font-size="10.00" fill="#000000">JS_IsUninitialized</text>
</a>
</g>
</g>
<!-- Node438911&#45;&gt;Node439204 -->
<g id="edge28" class="edge">
<title>Node438911&#45;&gt;Node439204</title>
<path fill="none" stroke="#191970" d="M250.8447,-357.7281C258.4378,-354.7229 265.4708,-350.4697 271,-344.5 340.7112,-269.2351 236.3489,-190.8832 307,-116.5 315.5061,-107.5445 327.0876,-102.2661 339.1096,-99.2603"/>
<polygon fill="#191970" stroke="#191970" points="340.1306,-102.6257 349.2539,-97.2391 338.7628,-95.7606 340.1306,-102.6257"/>
</g>
<!-- Node439334 -->
<g id="node24" class="node">
<title>Node439334</title>
<g id="a_node24"><a xlink:href="quickjs_8c.html#a077ffa6455c0d7831bd4547542b5f2f7" target="_top" xlink:title="js_new_string_char">
<polygon fill="none" stroke="#ff0000" points="346.5,-50 346.5,-69 447.5,-69 447.5,-50 346.5,-50"/>
<text text-anchor="middle" x="397" y="-57" font-family="Helvetica,sans-Serif" font-size="10.00" fill="#000000">js_new_string_char</text>
</a>
</g>
</g>
<!-- Node438911&#45;&gt;Node439334 -->
<g id="edge29" class="edge">
<title>Node438911&#45;&gt;Node439334</title>
<path fill="none" stroke="#191970" d="M250.5655,-357.996C258.2948,-354.9671 265.4412,-350.6361 271,-344.5 351.0956,-256.0851 225.8001,-165.9018 307,-78.5 314.8183,-70.0846 325.3483,-64.8982 336.449,-61.7907"/>
<polygon fill="#191970" stroke="#191970" points="337.3142,-65.1835 346.2972,-59.5661 335.7718,-58.3556 337.3142,-65.1835"/>
</g>
<!-- Node439129 -->
<g id="node25" class="node">
<title>Node439129</title>
<g id="a_node25"><a xlink:href="quickjs_8c.html#ab8d0b87c9eed4eb6c054b6f4e1731554" target="_top" xlink:title="JS_ThrowReferenceErrorNot\lDefined">
<polygon fill="none" stroke="#ff0000" points="325.5,-.5 325.5,-30.5 468.5,-30.5 468.5,-.5 325.5,-.5"/>
<text text-anchor="start" x="333.5" y="-18.5" font-family="Helvetica,sans-Serif" font-size="10.00" fill="#000000">JS_ThrowReferenceErrorNot</text>
<text text-anchor="middle" x="397" y="-7.5" font-family="Helvetica,sans-Serif" font-size="10.00" fill="#000000">Defined</text>
</a>
</g>
</g>
<!-- Node438911&#45;&gt;Node439129 -->
<g id="edge31" class="edge">
<title>Node438911&#45;&gt;Node439129</title>
<path fill="none" stroke="#191970" d="M250.6575,-358.0786C258.3741,-355.0384 265.4925,-350.6822 271,-344.5 361.5021,-242.9108 218.4322,-143.78 307,-40.5 309.8503,-37.1763 313.1004,-34.2756 316.6344,-31.7456"/>
<polygon fill="#191970" stroke="#191970" points="318.5881,-34.6545 325.341,-26.4906 314.9709,-28.6615 318.5881,-34.6545"/>
</g>
<!-- Node439205 -->
<g id="node26" class="node">
<title>Node439205</title>
<g id="a_node26"><a xlink:href="quickjs_8c.html#a75ac132a3af4de01e1fadeb0bede6ee7" target="_top" xlink:title="JS_ThrowReferenceErrorUninitialized">
<polygon fill="none" stroke="#ff0000" points="307,-594 307,-613 487,-613 487,-594 307,-594"/>
<text text-anchor="middle" x="397" y="-601" font-family="Helvetica,sans-Serif" font-size="10.00" fill="#000000">JS_ThrowReferenceErrorUninitialized</text>
</a>
</g>
</g>
<!-- Node438911&#45;&gt;Node439205 -->
<g id="edge32" class="edge">
<title>Node438911&#45;&gt;Node439205</title>
<path fill="none" stroke="#191970" d="M193.0355,-373.3741C200.8047,-408.4196 232.0155,-527.7625 307,-584.5 309.4674,-586.3669 312.0767,-588.0601 314.7926,-589.5951"/>
<polygon fill="#191970" stroke="#191970" points="313.2619,-592.7426 323.7844,-593.9785 316.3292,-586.4504 313.2619,-592.7426"/>
</g>
<!-- Node439134 -->
<g id="node27" class="node">
<title>Node439134</title>
<g id="a_node27"><a xlink:href="quickjs_8c.html#a033dd3ebd29c4eb9f0baff1dd0fec0b1" target="_top" xlink:title="JS_ThrowTypeErrorDetached\lArrayBuffer">
<polygon fill="none" stroke="#000000" points="324,-544.5 324,-574.5 470,-574.5 470,-544.5 324,-544.5"/>
<text text-anchor="start" x="332" y="-562.5" font-family="Helvetica,sans-Serif" font-size="10.00" fill="#000000">JS_ThrowTypeErrorDetached</text>
<text text-anchor="middle" x="397" y="-551.5" font-family="Helvetica,sans-Serif" font-size="10.00" fill="#000000">ArrayBuffer</text>
</a>
</g>
</g>
<!-- Node438911&#45;&gt;Node439134 -->
<g id="edge33" class="edge">
<title>Node438911&#45;&gt;Node439134</title>
<path fill="none" stroke="#191970" d="M195.1594,-373.3746C207.6803,-401.9226 247.8367,-485.3293 307,-529.5 312.4977,-533.6045 318.5892,-537.1676 324.9357,-540.2567"/>
<polygon fill="#191970" stroke="#191970" points="323.8174,-543.5897 334.3771,-544.4515 326.6596,-537.1927 323.8174,-543.5897"/>
</g>
<!-- Node439140 -->
<g id="node28" class="node">
<title>Node439140</title>
<g id="a_node28"><a xlink:href="quickjs_8c.html#a869fa88a646c0a1914ec2e559b193b5c" target="_top" xlink:title="typed_array_is_detached">
<polygon fill="none" stroke="#000000" points="334.5,-354 334.5,-373 459.5,-373 459.5,-354 334.5,-354"/>
<text text-anchor="middle" x="397" y="-361" font-family="Helvetica,sans-Serif" font-size="10.00" fill="#000000">typed_array_is_detached</text>
</a>
</g>
</g>
<!-- Node438911&#45;&gt;Node439140 -->
<g id="edge34" class="edge">
<title>Node438911&#45;&gt;Node439140</title>
<path fill="none" stroke="#191970" d="M250.5837,-363.5C273.562,-363.5 300.0689,-363.5 324.1612,-363.5"/>
<polygon fill="#191970" stroke="#191970" points="324.3214,-367.0001 334.3213,-363.5 324.3213,-360.0001 324.3214,-367.0001"/>
</g>
<!-- Node438915 -->
<g id="node10" class="node">
<title>Node438915</title>
<g id="a_node10"><a xlink:href="quickjs_8c.html#a643df594b75933007bcdbb071b5ea8c5" target="_top" xlink:title="get_shape_prop">
<polygon fill="none" stroke="#000000" points="545.5,-240 545.5,-259 631.5,-259 631.5,-240 545.5,-240"/>
<text text-anchor="middle" x="588.5" y="-247" font-family="Helvetica,sans-Serif" font-size="10.00" fill="#000000">get_shape_prop</text>
</a>
</g>
</g>
<!-- Node438914&#45;&gt;Node438915 -->
<g id="edge9" class="edge">
<title>Node438914&#45;&gt;Node438915</title>
<path fill="none" stroke="#191970" d="M445.3235,-277.911C472.7573,-272.4672 507.1401,-265.6445 535.3357,-260.0496"/>
<polygon fill="#191970" stroke="#191970" points="536.2918,-263.4282 545.4192,-258.0487 534.9292,-256.5621 536.2918,-263.4282"/>
</g>
<!-- Node438916 -->
<g id="node11" class="node">
<title>Node438916</title>
<g id="a_node11"><a xlink:href="quickjs_8c.html#acab22c2945c4d609e57a2484feb68a96" target="_top" xlink:title="prop_hash_end">
<polygon fill="none" stroke="#000000" points="547,-278 547,-297 630,-297 630,-278 547,-278"/>
<text text-anchor="middle" x="588.5" y="-285" font-family="Helvetica,sans-Serif" font-size="10.00" fill="#000000">prop_hash_end</text>
</a>
</g>
</g>
<!-- Node438914&#45;&gt;Node438916 -->
<g id="edge10" class="edge">
<title>Node438914&#45;&gt;Node438916</title>
<path fill="none" stroke="#191970" d="M445.3235,-287.5C473.152,-287.5 508.1309,-287.5 536.5489,-287.5"/>
<polygon fill="#191970" stroke="#191970" points="536.6964,-291.0001 546.6964,-287.5 536.6963,-284.0001 536.6964,-291.0001"/>
</g>
<!-- Node438918 -->
<g id="node13" class="node">
<title>Node438918</title>
<g id="a_node13"><a xlink:href="quickjs_8c.html#ab4e100a9cde5f7ec87c92f5e766dbbab" target="_top" xlink:title="JS_AtomIsNumericIndex1">
<polygon fill="none" stroke="#ff0000" points="523,-506 523,-525 654,-525 654,-506 523,-506"/>
<text text-anchor="middle" x="588.5" y="-513" font-family="Helvetica,sans-Serif" font-size="10.00" fill="#000000">JS_AtomIsNumericIndex1</text>
</a>
</g>
</g>
<!-- Node438917&#45;&gt;Node438918 -->
<g id="edge12" class="edge">
<title>Node438917&#45;&gt;Node438918</title>
<path fill="none" stroke="#191970" d="M445.3235,-487.089C471.1632,-492.2165 503.1678,-498.5672 530.3606,-503.9632"/>
<polygon fill="#191970" stroke="#191970" points="530.0339,-507.4666 540.524,-505.9799 531.3965,-500.6004 530.0339,-507.4666"/>
</g>
<!-- Node438917&#45;&gt;Node438921 -->
<g id="edge18" class="edge">
<title>Node438917&#45;&gt;Node438921</title>
<path fill="none" stroke="#191970" d="M432.413,-467.9561C496.8115,-450.6004 632.9946,-413.8986 704.107,-394.7336"/>
<polygon fill="#191970" stroke="#191970" points="705.3658,-398.0193 714.1106,-392.0376 703.5443,-391.2604 705.3658,-398.0193"/>
</g>
<!-- Node438951 -->
<g id="node15" class="node">
<title>Node438951</title>
<g id="a_node15"><a xlink:href="quickjs_8h.html#ad80a83d73e9b7d872b88fbf2943aebe9" target="_top" xlink:title="JS_IsException">
<polygon fill="none" stroke="#000000" points="706.5,-632 706.5,-651 792.5,-651 792.5,-632 706.5,-632"/>
<text text-anchor="middle" x="749.5" y="-639" font-family="Helvetica,sans-Serif" font-size="10.00" fill="#000000">JS_IsException</text>
</a>
</g>
</g>
<!-- Node438917&#45;&gt;Node438951 -->
<g id="edge19" class="edge">
<title>Node438917&#45;&gt;Node438951</title>
<path fill="none" stroke="#191970" d="M417.4755,-487.0262C476.9784,-514.7098 650.0583,-595.2349 719.8309,-627.6965"/>
<polygon fill="#191970" stroke="#191970" points="718.4248,-630.9025 728.968,-631.9475 721.3776,-624.5558 718.4248,-630.9025"/>
</g>
<!-- Node439109 -->
<g id="node17" class="node">
<title>Node439109</title>
<g id="a_node17"><a xlink:href="quickjs_8h.html#a4e407128a9605afb77523e49e9a627fd" target="_top" xlink:title="JS_IsUndefined">
<polygon fill="none" stroke="#000000" points="545.5,-468 545.5,-487 631.5,-487 631.5,-468 545.5,-468"/>
<text text-anchor="middle" x="588.5" y="-475" font-family="Helvetica,sans-Serif" font-size="10.00" fill="#000000">JS_IsUndefined</text>
</a>
</g>
</g>
<!-- Node438917&#45;&gt;Node439109 -->
<g id="edge20" class="edge">
<title>Node438917&#45;&gt;Node439109</title>
<path fill="none" stroke="#191970" d="M460.235,-477.5C484.5297,-477.5 511.9934,-477.5 535.2569,-477.5"/>
<polygon fill="#191970" stroke="#191970" points="535.2849,-481.0001 545.2849,-477.5 535.2848,-474.0001 535.2849,-481.0001"/>
</g>
<!-- Node438918&#45;&gt;Node438912 -->
<g id="edge13" class="edge">
<title>Node438918&#45;&gt;Node438912</title>
<path fill="none" stroke="#191970" d="M612.9524,-525.0683C640.3374,-535.7842 684.9017,-553.2224 715.6304,-565.2467"/>
<polygon fill="#191970" stroke="#191970" points="714.4939,-568.5603 725.0817,-568.945 717.0447,-562.0416 714.4939,-568.5603"/>
</g>
<!-- Node438918&#45;&gt;Node438913 -->
<g id="edge14" class="edge">
<title>Node438918&#45;&gt;Node438913</title>
<path fill="none" stroke="#191970" d="M654.4494,-520.4155C664.6749,-521.1776 675.2243,-521.9639 685.408,-522.723"/>
<polygon fill="#191970" stroke="#191970" points="685.2116,-526.2179 695.4441,-523.471 685.7319,-519.2373 685.2116,-526.2179"/>
</g>
<!-- Node438918&#45;&gt;Node438921 -->
<g id="edge15" class="edge">
<title>Node438918&#45;&gt;Node438921</title>
<path fill="none" stroke="#191970" d="M636.0818,-505.8765C642.4291,-503.4224 648.6006,-500.3484 654,-496.5 676.5933,-480.3966 672.4305,-466.973 690,-445.5 703.2856,-429.2627 719.7529,-412.0209 731.9931,-399.6873"/>
<polygon fill="#191970" stroke="#191970" points="734.7405,-401.8904 739.3503,-392.351 729.7978,-396.9336 734.7405,-401.8904"/>
</g>
<!-- Node438918&#45;&gt;Node438951 -->
<g id="edge16" class="edge">
<title>Node438918&#45;&gt;Node438951</title>
<path fill="none" stroke="#191970" d="M599.9404,-525.0084C618.6024,-540.4584 656.8443,-571.8665 690,-597.5 702.4733,-607.1434 716.6607,-617.6523 728.0527,-625.9809"/>
<polygon fill="#191970" stroke="#191970" points="726.0006,-628.8162 736.1445,-631.8744 730.1217,-623.1579 726.0006,-628.8162"/>
</g>
<!-- Node438918&#45;&gt;Node438952 -->
<g id="edge17" class="edge">
<title>Node438918&#45;&gt;Node438952</title>
<path fill="none" stroke="#191970" d="M622.5752,-505.9024C632.7134,-502.9696 643.8286,-499.6779 654,-496.5 673.2538,-490.4845 694.5475,-483.3925 712.1329,-477.4157"/>
<polygon fill="#191970" stroke="#191970" points="713.6821,-480.5852 722.015,-474.0421 711.4205,-473.9606 713.6821,-480.5852"/>
</g>
<!-- Node439004&#45;&gt;Node438921 -->
<g id="edge23" class="edge">
<title>Node439004&#45;&gt;Node438921</title>
<path fill="none" stroke="#191970" d="M624.2311,-367.7167C646.6038,-370.357 675.741,-373.7955 700.2839,-376.6919"/>
<polygon fill="#191970" stroke="#191970" points="700.1466,-380.1999 710.4879,-377.8961 700.967,-373.2481 700.1466,-380.1999"/>
</g>
<!-- Node439031&#45;&gt;Node438951 -->
<g id="edge37" class="edge">
<title>Node439031&#45;&gt;Node438951</title>
<path fill="none" stroke="#191970" d="M205.6066,-610.0567C226.8729,-623.3406 268.0782,-646.7402 307,-655.5 444.6682,-686.4837 612.4614,-665.8265 696.3659,-651.6625"/>
<polygon fill="#191970" stroke="#191970" points="697.1592,-655.0774 706.4186,-649.9282 695.9691,-648.1793 697.1592,-655.0774"/>
</g>
</g>
</svg>
