<?xml version="1.0" encoding="UTF-8" standalone="no"?>
<!DOCTYPE svg PUBLIC "-//W3C//DTD SVG 1.1//EN"
 "http://www.w3.org/Graphics/SVG/1.1/DTD/svg11.dtd">
<!-- Generated by graphviz version 2.40.1 (20161225.0304)
 -->
<!-- Title: js_number_constructor Pages: 1 -->
<svg width="573pt" height="28pt"
 viewBox="0.00 0.00 573.00 28.00" xmlns="http://www.w3.org/2000/svg" xmlns:xlink="http://www.w3.org/1999/xlink">
<g id="graph0" class="graph" transform="scale(1 1) rotate(0) translate(4 24)">
<title>js_number_constructor</title>
<!-- Node365914 -->
<g id="node1" class="node">
<title>Node365914</title>
<polygon fill="#bfbfbf" stroke="#000000" points="0,-.5 0,-19.5 116,-19.5 116,-.5 0,-.5"/>
<text text-anchor="middle" x="58" y="-7.5" font-family="Helvetica,sans-Serif" font-size="10.00" fill="#000000">js_number_constructor</text>
</g>
<!-- Node365915 -->
<g id="node2" class="node">
<title>Node365915</title>
<g id="a_node2"><a xlink:href="quickjs_8c.html#a4c9489297c684663f30e517204a9ec14" target="_top" xlink:title="JS_AddIntrinsicBaseObjects">
<polygon fill="none" stroke="#000000" points="152,-.5 152,-19.5 294,-19.5 294,-.5 152,-.5"/>
<text text-anchor="middle" x="223" y="-7.5" font-family="Helvetica,sans-Serif" font-size="10.00" fill="#000000">JS_AddIntrinsicBaseObjects</text>
</a>
</g>
</g>
<!-- Node365914&#45;&gt;Node365915 -->
<g id="edge1" class="edge">
<title>Node365914&#45;&gt;Node365915</title>
<path fill="none" stroke="#191970" d="M126.2992,-10C134.7034,-10 143.3103,-10 151.7568,-10"/>
<polygon fill="#191970" stroke="#191970" points="126.1729,-6.5001 116.1728,-10 126.1728,-13.5001 126.1729,-6.5001"/>
</g>
<!-- Node365916 -->
<g id="node3" class="node">
<title>Node365916</title>
<g id="a_node3"><a xlink:href="quickjs_8c.html#ad8aedb643b8753b7a15f6cb2df61945e" target="_top" xlink:title="JS_NewContext">
<polygon fill="none" stroke="#000000" points="330,-.5 330,-19.5 419,-19.5 419,-.5 330,-.5"/>
<text text-anchor="middle" x="374.5" y="-7.5" font-family="Helvetica,sans-Serif" font-size="10.00" fill="#000000">JS_NewContext</text>
</a>
</g>
</g>
<!-- Node365915&#45;&gt;Node365916 -->
<g id="edge2" class="edge">
<title>Node365915&#45;&gt;Node365916</title>
<path fill="none" stroke="#191970" d="M304.5534,-10C313.2595,-10 321.8628,-10 329.8995,-10"/>
<polygon fill="#191970" stroke="#191970" points="304.3138,-6.5001 294.3138,-10 304.3137,-13.5001 304.3138,-6.5001"/>
</g>
<!-- Node365917 -->
<g id="node4" class="node">
<title>Node365917</title>
<g id="a_node4"><a xlink:href="classqjs_1_1Context.html#a4392a23648acfc4bf6b445336efb5007" target="_top" xlink:title="qjs::Context::Context">
<polygon fill="none" stroke="#ff0000" points="455,-.5 455,-19.5 565,-19.5 565,-.5 455,-.5"/>
<text text-anchor="middle" x="510" y="-7.5" font-family="Helvetica,sans-Serif" font-size="10.00" fill="#000000">qjs::Context::Context</text>
</a>
</g>
</g>
<!-- Node365916&#45;&gt;Node365917 -->
<g id="edge3" class="edge">
<title>Node365916&#45;&gt;Node365917</title>
<path fill="none" stroke="#191970" d="M429.3476,-10C437.7739,-10 446.4767,-10 454.9083,-10"/>
<polygon fill="#191970" stroke="#191970" points="429.2433,-6.5001 419.2433,-10 429.2433,-13.5001 429.2433,-6.5001"/>
</g>
</g>
</svg>
