<?xml version="1.0" encoding="UTF-8" standalone="no"?>
<!DOCTYPE svg PUBLIC "-//W3C//DTD SVG 1.1//EN"
 "http://www.w3.org/Graphics/SVG/1.1/DTD/svg11.dtd">
<!-- Generated by graphviz version 2.40.1 (20161225.0304)
 -->
<!-- Title: js_array_copyWithin Pages: 1 -->
<svg width="829pt" height="888pt"
 viewBox="0.00 0.00 829.00 887.66" xmlns="http://www.w3.org/2000/svg" xmlns:xlink="http://www.w3.org/1999/xlink">
<g id="graph0" class="graph" transform="scale(1 1) rotate(0) translate(4 883.6644)">
<title>js_array_copyWithin</title>
<!-- Node399481 -->
<g id="node1" class="node">
<title>Node399481</title>
<polygon fill="#bfbfbf" stroke="#000000" points="0,-190.5 0,-209.5 105,-209.5 105,-190.5 0,-190.5"/>
<text text-anchor="middle" x="52.5" y="-197.5" font-family="Helvetica,sans-Serif" font-size="10.00" fill="#000000">js_array_copyWithin</text>
</g>
<!-- Node399482 -->
<g id="node2" class="node">
<title>Node399482</title>
<g id="a_node2"><a xlink:href="quickjs_8c.html#a6c99d7581e100a5de07c9a24f4c7d34a" target="_top" xlink:title="JS_CopySubArray">
<polygon fill="none" stroke="#000000" points="141,-513.5 141,-532.5 239,-532.5 239,-513.5 141,-513.5"/>
<text text-anchor="middle" x="190" y="-520.5" font-family="Helvetica,sans-Serif" font-size="10.00" fill="#000000">JS_CopySubArray</text>
</a>
</g>
</g>
<!-- Node399481&#45;&gt;Node399482 -->
<g id="edge1" class="edge">
<title>Node399481&#45;&gt;Node399482</title>
<path fill="none" stroke="#191970" d="M56.6151,-209.6667C75.7105,-254.5237 155.8517,-442.7824 181.8319,-503.8125"/>
<polygon fill="#191970" stroke="#191970" points="178.7637,-505.5409 185.9009,-513.371 185.2044,-502.799 178.7637,-505.5409"/>
</g>
<!-- Node399539 -->
<g id="node6" class="node">
<title>Node399539</title>
<g id="a_node6"><a xlink:href="quickjs_8h.html#afaa20c47565bc704c6c85f3d77254e7d" target="_top" xlink:title="JS_FreeValue">
<polygon fill="none" stroke="#ff0000" points="600.5,-380.5 600.5,-399.5 678.5,-399.5 678.5,-380.5 600.5,-380.5"/>
<text text-anchor="middle" x="639.5" y="-387.5" font-family="Helvetica,sans-Serif" font-size="10.00" fill="#000000">JS_FreeValue</text>
</a>
</g>
</g>
<!-- Node399481&#45;&gt;Node399539 -->
<g id="edge37" class="edge">
<title>Node399481&#45;&gt;Node399539</title>
<path fill="none" stroke="#191970" d="M105.3624,-209.3605C197.1385,-226.6847 390.8027,-268.0144 544,-333 570.7325,-344.3398 599.0146,-362.0276 617.7999,-374.6915"/>
<polygon fill="#191970" stroke="#191970" points="615.9829,-377.6893 626.2104,-380.4549 619.9398,-371.915 615.9829,-377.6893"/>
</g>
<!-- Node399554 -->
<g id="node8" class="node">
<title>Node399554</title>
<g id="a_node8"><a xlink:href="quickjs_8c.html#a710289a14c2810467e5b448d3c28bd55" target="_top" xlink:title="JS_ToObject">
<polygon fill="none" stroke="#ff0000" points="602.5,-798.5 602.5,-817.5 676.5,-817.5 676.5,-798.5 602.5,-798.5"/>
<text text-anchor="middle" x="639.5" y="-805.5" font-family="Helvetica,sans-Serif" font-size="10.00" fill="#000000">JS_ToObject</text>
</a>
</g>
</g>
<!-- Node399481&#45;&gt;Node399554 -->
<g id="edge46" class="edge">
<title>Node399481&#45;&gt;Node399554</title>
<path fill="none" stroke="#191970" d="M53.1282,-209.5477C57.6874,-270.9938 90.9671,-613.7237 275,-789 364.962,-874.6814 424.2341,-898.0241 544,-865 572.7933,-857.0606 601.6586,-837.9043 619.9959,-823.9855"/>
<polygon fill="#191970" stroke="#191970" points="622.3832,-826.5619 628.1058,-817.6455 618.0718,-821.0471 622.3832,-826.5619"/>
</g>
<!-- Node399918 -->
<g id="node19" class="node">
<title>Node399918</title>
<g id="a_node19"><a xlink:href="quickjs_8c.html#a5f848f76409193212a44e6221e430919" target="_top" xlink:title="js_get_length64">
<polygon fill="none" stroke="#000000" points="293.5,-190.5 293.5,-209.5 378.5,-209.5 378.5,-190.5 293.5,-190.5"/>
<text text-anchor="middle" x="336" y="-197.5" font-family="Helvetica,sans-Serif" font-size="10.00" fill="#000000">js_get_length64</text>
</a>
</g>
</g>
<!-- Node399481&#45;&gt;Node399918 -->
<g id="edge38" class="edge">
<title>Node399481&#45;&gt;Node399918</title>
<path fill="none" stroke="#191970" d="M105.1598,-200C155.9448,-200 232.387,-200 283.2143,-200"/>
<polygon fill="#191970" stroke="#191970" points="283.3379,-203.5001 293.3378,-200 283.3378,-196.5001 283.3379,-203.5001"/>
</g>
<!-- Node399920 -->
<g id="node21" class="node">
<title>Node399920</title>
<g id="a_node21"><a xlink:href="quickjs_8c.html#a537e88d38784e3df2a19c72f8bd1d77e" target="_top" xlink:title="JS_ToInt64Clamp">
<polygon fill="none" stroke="#ff0000" points="592,-95.5 592,-114.5 687,-114.5 687,-95.5 592,-95.5"/>
<text text-anchor="middle" x="639.5" y="-102.5" font-family="Helvetica,sans-Serif" font-size="10.00" fill="#000000">JS_ToInt64Clamp</text>
</a>
</g>
</g>
<!-- Node399481&#45;&gt;Node399920 -->
<g id="edge45" class="edge">
<title>Node399481&#45;&gt;Node399920</title>
<path fill="none" stroke="#191970" d="M80.6897,-190.4273C143.1921,-169.7679 298.5198,-121.5342 433,-105 482.8603,-98.8697 540.006,-99.4504 581.5231,-101.2321"/>
<polygon fill="#191970" stroke="#191970" points="581.5755,-104.7382 591.7276,-101.7076 581.9013,-97.7458 581.5755,-104.7382"/>
</g>
<!-- Node399635 -->
<g id="node22" class="node">
<title>Node399635</title>
<g id="a_node22"><a xlink:href="quickjs_8h.html#a4e407128a9605afb77523e49e9a627fd" target="_top" xlink:title="JS_IsUndefined">
<polygon fill="none" stroke="#000000" points="147,-38.5 147,-57.5 233,-57.5 233,-38.5 147,-38.5"/>
<text text-anchor="middle" x="190" y="-45.5" font-family="Helvetica,sans-Serif" font-size="10.00" fill="#000000">JS_IsUndefined</text>
</a>
</g>
</g>
<!-- Node399481&#45;&gt;Node399635 -->
<g id="edge44" class="edge">
<title>Node399481&#45;&gt;Node399635</title>
<path fill="none" stroke="#191970" d="M56.9641,-190.413C68.1395,-167.2999 99.4321,-107.7763 141,-72 145.2629,-68.3311 150.1842,-65.073 155.2292,-62.2326"/>
<polygon fill="#191970" stroke="#191970" points="157.0234,-65.2461 164.3284,-57.5723 153.8323,-59.0157 157.0234,-65.2461"/>
</g>
<!-- Node399922 -->
<g id="node23" class="node">
<title>Node399922</title>
<g id="a_node23"><a xlink:href="cutils_8h.html#af5b214fa09b0daf7361c90b1831cecf2" target="_top" xlink:title="min_int64">
<polygon fill="none" stroke="#000000" points="160.5,-.5 160.5,-19.5 219.5,-19.5 219.5,-.5 160.5,-.5"/>
<text text-anchor="middle" x="190" y="-7.5" font-family="Helvetica,sans-Serif" font-size="10.00" fill="#000000">min_int64</text>
</a>
</g>
</g>
<!-- Node399481&#45;&gt;Node399922 -->
<g id="edge47" class="edge">
<title>Node399481&#45;&gt;Node399922</title>
<path fill="none" stroke="#191970" d="M54.877,-190.3741C62.4267,-161.7315 88.5143,-76.118 141,-29 144.0076,-26.3 147.4414,-23.9656 151.0639,-21.9509"/>
<polygon fill="#191970" stroke="#191970" points="152.7762,-25.013 160.3221,-17.576 149.7854,-18.6841 152.7762,-25.013"/>
</g>
<!-- Node399483 -->
<g id="node3" class="node">
<title>Node399483</title>
<g id="a_node3"><a xlink:href="quickjs_8c.html#a70e21308fe3760cd95dd1dbb1a8755e6" target="_top" xlink:title="JS_DeletePropertyInt64">
<polygon fill="none" stroke="#000000" points="275.5,-760.5 275.5,-779.5 396.5,-779.5 396.5,-760.5 275.5,-760.5"/>
<text text-anchor="middle" x="336" y="-767.5" font-family="Helvetica,sans-Serif" font-size="10.00" fill="#000000">JS_DeletePropertyInt64</text>
</a>
</g>
</g>
<!-- Node399482&#45;&gt;Node399483 -->
<g id="edge2" class="edge">
<title>Node399482&#45;&gt;Node399483</title>
<path fill="none" stroke="#191970" d="M195.7234,-532.6827C217.6192,-569.7256 296.2918,-702.8224 325.2244,-751.7701"/>
<polygon fill="#191970" stroke="#191970" points="322.2147,-753.5566 330.3162,-760.3842 328.2407,-749.9947 322.2147,-753.5566"/>
</g>
<!-- Node399916 -->
<g id="node12" class="node">
<title>Node399916</title>
<g id="a_node12"><a xlink:href="quickjs_8c.html#a51b06daa618640e531fe808770553b96" target="_top" xlink:title="JS_SetPropertyInt64">
<polygon fill="none" stroke="#000000" points="282.5,-608.5 282.5,-627.5 389.5,-627.5 389.5,-608.5 282.5,-608.5"/>
<text text-anchor="middle" x="336" y="-615.5" font-family="Helvetica,sans-Serif" font-size="10.00" fill="#000000">JS_SetPropertyInt64</text>
</a>
</g>
</g>
<!-- Node399482&#45;&gt;Node399916 -->
<g id="edge14" class="edge">
<title>Node399482&#45;&gt;Node399916</title>
<path fill="none" stroke="#191970" d="M204.8027,-532.6319C230.1624,-549.1331 282.1121,-582.9359 312.4798,-602.6958"/>
<polygon fill="#191970" stroke="#191970" points="310.8674,-605.8223 321.1581,-608.3426 314.6852,-599.955 310.8674,-605.8223"/>
</g>
<!-- Node399917 -->
<g id="node15" class="node">
<title>Node399917</title>
<g id="a_node15"><a xlink:href="quickjs_8c.html#a14674e74168715dc5a3a391910982e5d" target="_top" xlink:title="JS_TryGetPropertyInt64">
<polygon fill="none" stroke="#000000" points="275,-418.5 275,-437.5 397,-437.5 397,-418.5 275,-418.5"/>
<text text-anchor="middle" x="336" y="-425.5" font-family="Helvetica,sans-Serif" font-size="10.00" fill="#000000">JS_TryGetPropertyInt64</text>
</a>
</g>
</g>
<!-- Node399482&#45;&gt;Node399917 -->
<g id="edge23" class="edge">
<title>Node399482&#45;&gt;Node399917</title>
<path fill="none" stroke="#191970" d="M204.8027,-513.3681C230.1624,-496.8669 282.1121,-463.0641 312.4798,-443.3042"/>
<polygon fill="#191970" stroke="#191970" points="314.6852,-446.045 321.1581,-437.6574 310.8674,-440.1777 314.6852,-446.045"/>
</g>
<!-- Node399484 -->
<g id="node4" class="node">
<title>Node399484</title>
<g id="a_node4"><a xlink:href="quickjs_8c.html#a877fcb7651d95b411ce70e62b7f4a1f0" target="_top" xlink:title="__JS_AtomFromUInt32">
<polygon fill="none" stroke="#000000" points="580,-760.5 580,-779.5 699,-779.5 699,-760.5 580,-760.5"/>
<text text-anchor="middle" x="639.5" y="-767.5" font-family="Helvetica,sans-Serif" font-size="10.00" fill="#000000">__JS_AtomFromUInt32</text>
</a>
</g>
</g>
<!-- Node399483&#45;&gt;Node399484 -->
<g id="edge3" class="edge">
<title>Node399483&#45;&gt;Node399484</title>
<path fill="none" stroke="#191970" d="M375.3881,-779.5103C392.9127,-783.2754 413.8703,-787.1441 433,-789 482.1028,-793.7638 494.9043,-793.8365 544,-789 559.3093,-787.4919 575.8018,-784.6551 590.7019,-781.6249"/>
<polygon fill="#191970" stroke="#191970" points="591.6665,-784.9985 600.7289,-779.5101 590.2218,-778.1492 591.6665,-784.9985"/>
</g>
<!-- Node399485 -->
<g id="node5" class="node">
<title>Node399485</title>
<g id="a_node5"><a xlink:href="quickjs_8c.html#a2b88ed25233c441cbed7b0a027c9ee2f" target="_top" xlink:title="JS_DeleteProperty">
<polygon fill="none" stroke="#ff0000" points="439,-836.5 439,-855.5 538,-855.5 538,-836.5 439,-836.5"/>
<text text-anchor="middle" x="488.5" y="-843.5" font-family="Helvetica,sans-Serif" font-size="10.00" fill="#000000">JS_DeleteProperty</text>
</a>
</g>
</g>
<!-- Node399483&#45;&gt;Node399485 -->
<g id="edge4" class="edge">
<title>Node399483&#45;&gt;Node399485</title>
<path fill="none" stroke="#191970" d="M352.9475,-779.6452C372.1337,-790.4324 404.4409,-808.2001 433,-822 440.3106,-825.5325 448.2698,-829.1212 455.8183,-832.4097"/>
<polygon fill="#191970" stroke="#191970" points="454.5108,-835.6573 465.0804,-836.3877 457.2733,-829.2254 454.5108,-835.6573"/>
</g>
<!-- Node399538 -->
<g id="node10" class="node">
<title>Node399538</title>
<g id="a_node10"><a xlink:href="quickjs_8c.html#ab7fc45a99935a1c0ba50b0216d9401a9" target="_top" xlink:title="JS_FreeAtom">
<polygon fill="none" stroke="#ff0000" points="601,-646.5 601,-665.5 678,-665.5 678,-646.5 601,-646.5"/>
<text text-anchor="middle" x="639.5" y="-653.5" font-family="Helvetica,sans-Serif" font-size="10.00" fill="#000000">JS_FreeAtom</text>
</a>
</g>
</g>
<!-- Node399483&#45;&gt;Node399538 -->
<g id="edge10" class="edge">
<title>Node399483&#45;&gt;Node399538</title>
<path fill="none" stroke="#191970" d="M361.6225,-760.4077C400.8867,-745.7048 478.299,-716.7024 544,-692 564.0111,-684.4762 586.3732,-676.0476 604.4251,-669.2384"/>
<polygon fill="#191970" stroke="#191970" points="605.8472,-672.4428 613.9681,-665.6382 603.3763,-665.8934 605.8472,-672.4428"/>
</g>
<!-- Node399915 -->
<g id="node11" class="node">
<title>Node399915</title>
<g id="a_node11"><a xlink:href="quickjs_8c.html#aa641af3a921335927dab07dc83285917" target="_top" xlink:title="JS_NewAtomInt64">
<polygon fill="none" stroke="#ff0000" points="439,-760.5 439,-779.5 538,-779.5 538,-760.5 439,-760.5"/>
<text text-anchor="middle" x="488.5" y="-767.5" font-family="Helvetica,sans-Serif" font-size="10.00" fill="#000000">JS_NewAtomInt64</text>
</a>
</g>
</g>
<!-- Node399483&#45;&gt;Node399915 -->
<g id="edge11" class="edge">
<title>Node399483&#45;&gt;Node399915</title>
<path fill="none" stroke="#191970" d="M396.7102,-770C407.1759,-770 418.0495,-770 428.4965,-770"/>
<polygon fill="#191970" stroke="#191970" points="428.7703,-773.5001 438.7702,-770 428.7702,-766.5001 428.7703,-773.5001"/>
</g>
<!-- Node399485&#45;&gt;Node399539 -->
<g id="edge5" class="edge">
<title>Node399485&#45;&gt;Node399539</title>
<path fill="none" stroke="#191970" d="M501.5719,-836.1362C514.3406,-825.7925 533.3604,-808.3692 544,-789 577.4246,-728.1514 563.8707,-704.5248 580,-637 600.2252,-552.3279 624.6299,-451.4038 634.7485,-409.6127"/>
<polygon fill="#191970" stroke="#191970" points="638.1535,-410.4224 637.1057,-399.8795 631.3502,-408.7747 638.1535,-410.4224"/>
</g>
<!-- Node399553 -->
<g id="node7" class="node">
<title>Node399553</title>
<g id="a_node7"><a xlink:href="quickjs_8h.html#ad80a83d73e9b7d872b88fbf2943aebe9" target="_top" xlink:title="JS_IsException">
<polygon fill="none" stroke="#000000" points="735,-722.5 735,-741.5 821,-741.5 821,-722.5 735,-722.5"/>
<text text-anchor="middle" x="778" y="-729.5" font-family="Helvetica,sans-Serif" font-size="10.00" fill="#000000">JS_IsException</text>
</a>
</g>
</g>
<!-- Node399485&#45;&gt;Node399553 -->
<g id="edge6" class="edge">
<title>Node399485&#45;&gt;Node399553</title>
<path fill="none" stroke="#191970" d="M538.2958,-851.8672C582.9576,-854.8115 648.9705,-853.2724 699,-827 731.59,-809.8857 755.9861,-773.028 768.5294,-750.5865"/>
<polygon fill="#191970" stroke="#191970" points="771.6635,-752.148 773.3073,-741.6814 765.4953,-748.8384 771.6635,-752.148"/>
</g>
<!-- Node399485&#45;&gt;Node399554 -->
<g id="edge7" class="edge">
<title>Node399485&#45;&gt;Node399554</title>
<path fill="none" stroke="#191970" d="M526.6037,-836.411C546.6663,-831.3621 571.4422,-825.1271 592.6679,-819.7856"/>
<polygon fill="#191970" stroke="#191970" points="593.609,-823.1579 602.4525,-817.3232 591.9007,-816.3696 593.609,-823.1579"/>
</g>
<!-- Node399554&#45;&gt;Node399553 -->
<g id="edge8" class="edge">
<title>Node399554&#45;&gt;Node399553</title>
<path fill="none" stroke="#191970" d="M675.7812,-798.4285C683.6245,-795.8089 691.7382,-792.6619 699,-789 721.2979,-777.7558 744.1553,-760.5199 759.5087,-747.9448"/>
<polygon fill="#191970" stroke="#191970" points="761.7854,-750.6035 767.2152,-741.5058 757.2971,-745.2317 761.7854,-750.6035"/>
</g>
<!-- Node399617 -->
<g id="node9" class="node">
<title>Node399617</title>
<g id="a_node9"><a xlink:href="quickjs_8h.html#a2050bc428da1c65ac7eb87c3fa3b0392" target="_top" xlink:title="JS_NewInt32">
<polygon fill="none" stroke="#000000" points="740,-408.5 740,-427.5 816,-427.5 816,-408.5 740,-408.5"/>
<text text-anchor="middle" x="778" y="-415.5" font-family="Helvetica,sans-Serif" font-size="10.00" fill="#000000">JS_NewInt32</text>
</a>
</g>
</g>
<!-- Node399554&#45;&gt;Node399617 -->
<g id="edge9" class="edge">
<title>Node399554&#45;&gt;Node399617</title>
<path fill="none" stroke="#191970" d="M676.6352,-802.631C684.9838,-799.8044 693.105,-795.5114 699,-789 746.8386,-736.1591 770.2611,-507.3971 776.3532,-438.0202"/>
<polygon fill="#191970" stroke="#191970" points="779.8755,-437.906 777.2378,-427.6448 772.9008,-437.3112 779.8755,-437.906"/>
</g>
<!-- Node399915&#45;&gt;Node399484 -->
<g id="edge12" class="edge">
<title>Node399915&#45;&gt;Node399484</title>
<path fill="none" stroke="#191970" d="M538.3615,-770C548.4519,-770 559.2356,-770 569.8634,-770"/>
<polygon fill="#191970" stroke="#191970" points="569.9775,-773.5001 579.9775,-770 569.9774,-766.5001 569.9775,-773.5001"/>
</g>
<!-- Node399915&#45;&gt;Node399553 -->
<g id="edge13" class="edge">
<title>Node399915&#45;&gt;Node399553</title>
<path fill="none" stroke="#191970" d="M529.7773,-760.4318C545.438,-757.0648 563.4771,-753.5006 580,-751 628.8424,-743.608 684.9231,-738.5446 724.9025,-735.5154"/>
<polygon fill="#191970" stroke="#191970" points="725.2475,-738.9995 734.9616,-734.7704 724.7304,-732.0186 725.2475,-738.9995"/>
</g>
<!-- Node399916&#45;&gt;Node399539 -->
<g id="edge16" class="edge">
<title>Node399916&#45;&gt;Node399539</title>
<path fill="none" stroke="#191970" d="M389.726,-627.0136C434.9899,-631.5852 499.3296,-630.6646 544,-599 608.8313,-553.0444 630.592,-452.0629 637.0568,-409.5141"/>
<polygon fill="#191970" stroke="#191970" points="640.5262,-409.9763 638.4434,-399.5883 633.5935,-409.0079 640.5262,-409.9763"/>
</g>
<!-- Node399916&#45;&gt;Node399617 -->
<g id="edge18" class="edge">
<title>Node399916&#45;&gt;Node399617</title>
<path fill="none" stroke="#191970" d="M350.7639,-608.4544C369.4776,-596.5602 402.9276,-575.9783 433,-561 542.6283,-506.397 678.3095,-454.5173 741.9091,-431.0706"/>
<polygon fill="#191970" stroke="#191970" points="743.3016,-434.2879 751.4825,-427.5556 740.8889,-427.7168 743.3016,-434.2879"/>
</g>
<!-- Node399916&#45;&gt;Node399538 -->
<g id="edge15" class="edge">
<title>Node399916&#45;&gt;Node399538</title>
<path fill="none" stroke="#191970" d="M347.6012,-627.6478C364.9014,-641.3398 399.0745,-665.77 433,-675 489.0026,-690.2364 556.3602,-678.7492 598.5642,-668.1531"/>
<polygon fill="#191970" stroke="#191970" points="599.6793,-671.4793 608.4702,-665.5657 597.9102,-664.7065 599.6793,-671.4793"/>
</g>
<!-- Node399916&#45;&gt;Node399915 -->
<g id="edge17" class="edge">
<title>Node399916&#45;&gt;Node399915</title>
<path fill="none" stroke="#191970" d="M345.5396,-627.5083C370.7869,-652.6728 439.6047,-721.265 471.6564,-753.2116"/>
<polygon fill="#191970" stroke="#191970" points="469.4105,-755.9148 478.964,-760.4953 474.3522,-750.9569 469.4105,-755.9148"/>
</g>
<!-- Node399772 -->
<g id="node13" class="node">
<title>Node399772</title>
<g id="a_node13"><a xlink:href="quickjs_8h.html#af763b173e78debf2075670ca2c128a30" target="_top" xlink:title="JS_SetProperty">
<polygon fill="none" stroke="#ff0000" points="445.5,-570.5 445.5,-589.5 531.5,-589.5 531.5,-570.5 445.5,-570.5"/>
<text text-anchor="middle" x="488.5" y="-577.5" font-family="Helvetica,sans-Serif" font-size="10.00" fill="#000000">JS_SetProperty</text>
</a>
</g>
</g>
<!-- Node399916&#45;&gt;Node399772 -->
<g id="edge19" class="edge">
<title>Node399916&#45;&gt;Node399772</title>
<path fill="none" stroke="#191970" d="M374.4822,-608.411C394.5156,-603.4191 419.2023,-597.2676 440.476,-591.9666"/>
<polygon fill="#191970" stroke="#191970" points="441.4375,-595.3341 450.2945,-589.5201 439.745,-588.5418 441.4375,-595.3341"/>
</g>
<!-- Node399786 -->
<g id="node14" class="node">
<title>Node399786</title>
<g id="a_node14"><a xlink:href="quickjs_8c.html#aee75cc1546e19479e3ccda58f3b50a96" target="_top" xlink:title="JS_SetPropertyValue">
<polygon fill="none" stroke="#ff0000" points="433.5,-646.5 433.5,-665.5 543.5,-665.5 543.5,-646.5 433.5,-646.5"/>
<text text-anchor="middle" x="488.5" y="-653.5" font-family="Helvetica,sans-Serif" font-size="10.00" fill="#000000">JS_SetPropertyValue</text>
</a>
</g>
</g>
<!-- Node399916&#45;&gt;Node399786 -->
<g id="edge20" class="edge">
<title>Node399916&#45;&gt;Node399786</title>
<path fill="none" stroke="#191970" d="M374.4822,-627.589C394.5156,-632.5809 419.2023,-638.7324 440.476,-644.0334"/>
<polygon fill="#191970" stroke="#191970" points="439.745,-647.4582 450.2945,-646.4799 441.4375,-640.6659 439.745,-647.4582"/>
</g>
<!-- Node399786&#45;&gt;Node399539 -->
<g id="edge22" class="edge">
<title>Node399786&#45;&gt;Node399539</title>
<path fill="none" stroke="#191970" d="M522.2663,-646.3807C530.166,-642.8692 538.0122,-638.1843 544,-632 607.1409,-566.7872 630.0009,-454.8235 636.9113,-409.7003"/>
<polygon fill="#191970" stroke="#191970" points="640.385,-410.133 638.3394,-399.7375 633.4558,-409.1397 640.385,-410.133"/>
</g>
<!-- Node399786&#45;&gt;Node399538 -->
<g id="edge21" class="edge">
<title>Node399786&#45;&gt;Node399538</title>
<path fill="none" stroke="#191970" d="M543.8694,-656C559.1884,-656 575.7003,-656 590.6213,-656"/>
<polygon fill="#191970" stroke="#191970" points="590.6628,-659.5001 600.6628,-656 590.6628,-652.5001 590.6628,-659.5001"/>
</g>
<!-- Node399917&#45;&gt;Node399484 -->
<g id="edge24" class="edge">
<title>Node399917&#45;&gt;Node399484</title>
<path fill="none" stroke="#191970" d="M352.4081,-437.6094C399.1151,-465.0838 530.3122,-543.139 544,-561 576.3195,-603.173 557.7195,-626.7642 580,-675 593.1246,-703.4139 613.2419,-733.6211 626.3858,-752.154"/>
<polygon fill="#191970" stroke="#191970" points="623.6995,-754.413 632.3833,-760.4828 629.38,-750.3225 623.6995,-754.413"/>
</g>
<!-- Node399917&#45;&gt;Node399553 -->
<g id="edge34" class="edge">
<title>Node399917&#45;&gt;Node399553</title>
<path fill="none" stroke="#191970" d="M397.3119,-421.1682C440.7097,-419.1265 498.9638,-422.2267 544,-446 662.6116,-508.6116 743.5536,-659.6981 769.2475,-712.9966"/>
<polygon fill="#191970" stroke="#191970" points="766.2062,-714.7526 773.6445,-722.2973 772.5346,-711.7607 766.2062,-714.7526"/>
</g>
<!-- Node399917&#45;&gt;Node399617 -->
<g id="edge36" class="edge">
<title>Node399917&#45;&gt;Node399617</title>
<path fill="none" stroke="#191970" d="M340.1444,-418.3976C351.1522,-394.2392 383.6911,-331.0151 433,-305 490.9177,-274.4429 514.5534,-297.2235 580,-295 632.8584,-293.2042 652.584,-269.6467 699,-295 739.4877,-317.1151 762.3089,-369.8399 772.1386,-398.5541"/>
<polygon fill="#191970" stroke="#191970" points="768.8731,-399.8312 775.2797,-408.2696 775.5337,-397.6778 768.8731,-399.8312"/>
</g>
<!-- Node399917&#45;&gt;Node399538 -->
<g id="edge25" class="edge">
<title>Node399917&#45;&gt;Node399538</title>
<path fill="none" stroke="#191970" d="M382.1446,-437.5626C435.3984,-449.3093 518.8793,-470.1302 544,-490 569.7332,-510.3543 612.5502,-597.9888 630.8145,-637.0662"/>
<polygon fill="#191970" stroke="#191970" points="627.712,-638.6956 635.093,-646.2964 634.0629,-635.7517 627.712,-638.6956"/>
</g>
<!-- Node399917&#45;&gt;Node399915 -->
<g id="edge35" class="edge">
<title>Node399917&#45;&gt;Node399915</title>
<path fill="none" stroke="#191970" d="M339.1846,-437.6482C350.377,-471.1756 389.5844,-585.4589 433,-675 446.4029,-702.6424 464.8702,-733.0475 476.7487,-751.8341"/>
<polygon fill="#191970" stroke="#191970" points="473.8174,-753.7469 482.1489,-760.2919 479.7173,-749.9798 473.8174,-753.7469"/>
</g>
<!-- Node399613 -->
<g id="node16" class="node">
<title>Node399613</title>
<g id="a_node16"><a xlink:href="quickjs_8h.html#a89b7c8686c7eee70b86be722ee4730ad" target="_top" xlink:title="JS_GetProperty">
<polygon fill="none" stroke="#ff0000" points="596.5,-304.5 596.5,-323.5 682.5,-323.5 682.5,-304.5 596.5,-304.5"/>
<text text-anchor="middle" x="639.5" y="-311.5" font-family="Helvetica,sans-Serif" font-size="10.00" fill="#000000">JS_GetProperty</text>
</a>
</g>
</g>
<!-- Node399917&#45;&gt;Node399613 -->
<g id="edge26" class="edge">
<title>Node399917&#45;&gt;Node399613</title>
<path fill="none" stroke="#191970" d="M342.3664,-418.2951C356.1333,-398.2451 390.8568,-352.4997 433,-333 481.3983,-310.606 542.9237,-307.7658 586.1816,-309.3487"/>
<polygon fill="#191970" stroke="#191970" points="586.0678,-312.847 596.2171,-309.8069 586.3871,-305.8543 586.0678,-312.847"/>
</g>
<!-- Node399639 -->
<g id="node17" class="node">
<title>Node399639</title>
<g id="a_node17"><a xlink:href="quickjs_8c.html#a90d6e607f6917d817c1e997bd2e6ed07" target="_top" xlink:title="JS_GetPropertyValue">
<polygon fill="none" stroke="#ff0000" points="433,-342.5 433,-361.5 544,-361.5 544,-342.5 433,-342.5"/>
<text text-anchor="middle" x="488.5" y="-349.5" font-family="Helvetica,sans-Serif" font-size="10.00" fill="#000000">JS_GetPropertyValue</text>
</a>
</g>
</g>
<!-- Node399917&#45;&gt;Node399639 -->
<g id="edge27" class="edge">
<title>Node399917&#45;&gt;Node399639</title>
<path fill="none" stroke="#191970" d="M350.2939,-418.3578C368.7902,-406.1761 402.2926,-385.1037 433,-371 437.6246,-368.876 442.5583,-366.8572 447.5043,-364.9836"/>
<polygon fill="#191970" stroke="#191970" points="448.7372,-368.2597 456.9528,-361.5699 446.3585,-361.6762 448.7372,-368.2597"/>
</g>
<!-- Node399755 -->
<g id="node18" class="node">
<title>Node399755</title>
<g id="a_node18"><a xlink:href="quickjs_8c.html#a9d6d0a9704951d01c128975e0d2213f8" target="_top" xlink:title="JS_HasProperty">
<polygon fill="none" stroke="#ff0000" points="444,-380.5 444,-399.5 533,-399.5 533,-380.5 444,-380.5"/>
<text text-anchor="middle" x="488.5" y="-387.5" font-family="Helvetica,sans-Serif" font-size="10.00" fill="#000000">JS_HasProperty</text>
</a>
</g>
</g>
<!-- Node399917&#45;&gt;Node399755 -->
<g id="edge32" class="edge">
<title>Node399917&#45;&gt;Node399755</title>
<path fill="none" stroke="#191970" d="M374.4822,-418.411C394.5156,-413.4191 419.2023,-407.2676 440.476,-401.9666"/>
<polygon fill="#191970" stroke="#191970" points="441.4375,-405.3341 450.2945,-399.5201 439.745,-398.5418 441.4375,-405.3341"/>
</g>
<!-- Node399639&#45;&gt;Node399539 -->
<g id="edge29" class="edge">
<title>Node399639&#45;&gt;Node399539</title>
<path fill="none" stroke="#191970" d="M526.6037,-361.589C546.44,-366.5809 570.8839,-372.7324 591.9483,-378.0334"/>
<polygon fill="#191970" stroke="#191970" points="591.1185,-381.4336 601.6703,-380.4799 592.8269,-374.6452 591.1185,-381.4336"/>
</g>
<!-- Node399639&#45;&gt;Node399617 -->
<g id="edge31" class="edge">
<title>Node399639&#45;&gt;Node399617</title>
<path fill="none" stroke="#191970" d="M544.3581,-350.3684C587.5755,-350.682 648.385,-354.5993 699,-371 720.5749,-377.9909 742.5407,-391.7034 757.8151,-402.5208"/>
<polygon fill="#191970" stroke="#191970" points="755.8412,-405.4132 765.9817,-408.4827 759.9686,-399.7595 755.8412,-405.4132"/>
</g>
<!-- Node399639&#45;&gt;Node399538 -->
<g id="edge28" class="edge">
<title>Node399639&#45;&gt;Node399538</title>
<path fill="none" stroke="#191970" d="M530.3934,-361.5332C535.4136,-363.9977 540.1239,-367.0986 544,-371 619.737,-447.2315 635.4225,-585.2329 638.661,-636.3031"/>
<polygon fill="#191970" stroke="#191970" points="635.1685,-636.5378 639.2028,-646.3344 642.1583,-636.1602 635.1685,-636.5378"/>
</g>
<!-- Node399639&#45;&gt;Node399613 -->
<g id="edge30" class="edge">
<title>Node399639&#45;&gt;Node399613</title>
<path fill="none" stroke="#191970" d="M526.6037,-342.411C546.44,-337.4191 570.8839,-331.2676 591.9483,-325.9666"/>
<polygon fill="#191970" stroke="#191970" points="592.8269,-329.3548 601.6703,-323.5201 591.1185,-322.5664 592.8269,-329.3548"/>
</g>
<!-- Node399755&#45;&gt;Node399539 -->
<g id="edge33" class="edge">
<title>Node399755&#45;&gt;Node399539</title>
<path fill="none" stroke="#191970" d="M533.3961,-390C551.284,-390 571.9308,-390 590.2301,-390"/>
<polygon fill="#191970" stroke="#191970" points="590.4074,-393.5001 600.4074,-390 590.4074,-386.5001 590.4074,-393.5001"/>
</g>
<!-- Node399918&#45;&gt;Node399553 -->
<g id="edge40" class="edge">
<title>Node399918&#45;&gt;Node399553</title>
<path fill="none" stroke="#191970" d="M378.744,-196.2252C457.1622,-191.9677 622.9338,-195.9192 699,-295 724.9541,-328.8068 765.0132,-630.2558 775.4461,-711.7614"/>
<polygon fill="#191970" stroke="#191970" points="772.0314,-712.6545 776.7652,-722.1329 778.9754,-711.7712 772.0314,-712.6545"/>
</g>
<!-- Node399918&#45;&gt;Node399613 -->
<g id="edge39" class="edge">
<title>Node399918&#45;&gt;Node399613</title>
<path fill="none" stroke="#191970" d="M377.1344,-209.5544C419.7362,-220.0714 487.8111,-238.6301 544,-262 569.3155,-272.5292 596.644,-287.8479 615.5536,-299.1329"/>
<polygon fill="#191970" stroke="#191970" points="613.7463,-302.1301 624.1144,-304.3101 617.3687,-296.1403 613.7463,-302.1301"/>
</g>
<!-- Node399919 -->
<g id="node20" class="node">
<title>Node399919</title>
<g id="a_node20"><a xlink:href="quickjs_8c.html#a07acd485a57197356906928a788a0644" target="_top" xlink:title="JS_ToLengthFree">
<polygon fill="none" stroke="#000000" points="441.5,-114.5 441.5,-133.5 535.5,-133.5 535.5,-114.5 441.5,-114.5"/>
<text text-anchor="middle" x="488.5" y="-121.5" font-family="Helvetica,sans-Serif" font-size="10.00" fill="#000000">JS_ToLengthFree</text>
</a>
</g>
</g>
<!-- Node399918&#45;&gt;Node399919 -->
<g id="edge41" class="edge">
<title>Node399918&#45;&gt;Node399919</title>
<path fill="none" stroke="#191970" d="M352.9475,-190.3548C372.1337,-179.5676 404.4409,-161.7999 433,-148 440.3106,-144.4675 448.2698,-140.8788 455.8183,-137.5903"/>
<polygon fill="#191970" stroke="#191970" points="457.2733,-140.7746 465.0804,-133.6123 454.5108,-134.3427 457.2733,-140.7746"/>
</g>
<!-- Node399919&#45;&gt;Node399539 -->
<g id="edge42" class="edge">
<title>Node399919&#45;&gt;Node399539</title>
<path fill="none" stroke="#191970" d="M492.125,-133.6073C505.8581,-169.7702 555.1619,-297.4437 580,-333 590.7828,-348.4357 606.2069,-363.0672 618.649,-373.6407"/>
<polygon fill="#191970" stroke="#191970" points="616.7504,-376.6116 626.6926,-380.2726 621.2035,-371.2106 616.7504,-376.6116"/>
</g>
<!-- Node399919&#45;&gt;Node399920 -->
<g id="edge43" class="edge">
<title>Node399919&#45;&gt;Node399920</title>
<path fill="none" stroke="#191970" d="M535.863,-118.0404C550.3395,-116.2189 566.4264,-114.1947 581.5238,-112.295"/>
<polygon fill="#191970" stroke="#191970" points="582.301,-115.7249 591.7858,-111.0038 581.4271,-108.7797 582.301,-115.7249"/>
</g>
</g>
</svg>
