<?xml version="1.0" encoding="UTF-8" standalone="no"?>
<!DOCTYPE svg PUBLIC "-//W3C//DTD SVG 1.1//EN"
 "http://www.w3.org/Graphics/SVG/1.1/DTD/svg11.dtd">
<!-- Generated by graphviz version 2.40.1 (20161225.0304)
 -->
<!-- Title: JS_RunModule Pages: 1 -->
<svg width="819pt" height="512pt"
 viewBox="0.00 0.00 819.00 511.86" xmlns="http://www.w3.org/2000/svg" xmlns:xlink="http://www.w3.org/1999/xlink">
<g id="graph0" class="graph" transform="scale(1 1) rotate(0) translate(4 507.8585)">
<title>JS_RunModule</title>
<!-- Node84685 -->
<g id="node1" class="node">
<title>Node84685</title>
<polygon fill="#bfbfbf" stroke="#000000" points="0,-144.5 0,-163.5 83,-163.5 83,-144.5 0,-144.5"/>
<text text-anchor="middle" x="41.5" y="-151.5" font-family="Helvetica,sans-Serif" font-size="10.00" fill="#000000">JS_RunModule</text>
</g>
<!-- Node84686 -->
<g id="node2" class="node">
<title>Node84686</title>
<g id="a_node2"><a xlink:href="quickjs_8h.html#a775522f2d084fc8fa0fcb33f390006b4" target="_top" xlink:title="JS_DupValue">
<polygon fill="none" stroke="#000000" points="615.5,-465.5 615.5,-484.5 692.5,-484.5 692.5,-465.5 615.5,-465.5"/>
<text text-anchor="middle" x="654" y="-472.5" font-family="Helvetica,sans-Serif" font-size="10.00" fill="#000000">JS_DupValue</text>
</a>
</g>
</g>
<!-- Node84685&#45;&gt;Node84686 -->
<g id="edge1" class="edge">
<title>Node84685&#45;&gt;Node84686</title>
<path fill="none" stroke="#191970" d="M44.6818,-163.7873C53.1729,-188.6309 78.5164,-255.0613 119,-296 234.7083,-413.0089 282.7788,-435.4295 442,-477 496.5657,-491.2464 561.7556,-487.7233 605.3067,-482.5978"/>
<polygon fill="#191970" stroke="#191970" points="605.8586,-486.0562 615.3471,-481.3426 604.9902,-479.1103 605.8586,-486.0562"/>
</g>
<!-- Node84687 -->
<g id="node3" class="node">
<title>Node84687</title>
<g id="a_node3"><a xlink:href="quickjs_8c.html#af38ab3d672d41db0fa7a75b5c24149e4" target="_top" xlink:title="JS_EvalFunction">
<polygon fill="none" stroke="#000000" points="137.5,-267.5 137.5,-286.5 228.5,-286.5 228.5,-267.5 137.5,-267.5"/>
<text text-anchor="middle" x="183" y="-274.5" font-family="Helvetica,sans-Serif" font-size="10.00" fill="#000000">JS_EvalFunction</text>
</a>
</g>
</g>
<!-- Node84685&#45;&gt;Node84687 -->
<g id="edge2" class="edge">
<title>Node84685&#45;&gt;Node84687</title>
<path fill="none" stroke="#191970" d="M52.6033,-163.6516C76.7814,-184.6686 134.4161,-234.7681 164.3048,-260.749"/>
<polygon fill="#191970" stroke="#191970" points="162.1049,-263.4743 171.9483,-267.3932 166.6973,-258.1912 162.1049,-263.4743"/>
</g>
<!-- Node84742 -->
<g id="node6" class="node">
<title>Node84742</title>
<g id="a_node6"><a xlink:href="quickjs_8h.html#afaa20c47565bc704c6c85f3d77254e7d" target="_top" xlink:title="JS_FreeValue">
<polygon fill="none" stroke="#ff0000" points="733,-333.5 733,-352.5 811,-352.5 811,-333.5 733,-333.5"/>
<text text-anchor="middle" x="772" y="-340.5" font-family="Helvetica,sans-Serif" font-size="10.00" fill="#000000">JS_FreeValue</text>
</a>
</g>
</g>
<!-- Node84685&#45;&gt;Node84742 -->
<g id="edge25" class="edge">
<title>Node84685&#45;&gt;Node84742</title>
<path fill="none" stroke="#191970" d="M83.4466,-145.3772C141.737,-134.1656 250.6613,-116 344.5,-116 344.5,-116 344.5,-116 508.5,-116 635.8285,-116 732.1814,-270.0267 762.1934,-324.3272"/>
<polygon fill="#191970" stroke="#191970" points="759.1815,-326.1156 767.0177,-333.2461 765.3385,-322.7852 759.1815,-326.1156"/>
</g>
<!-- Node84760 -->
<g id="node8" class="node">
<title>Node84760</title>
<g id="a_node8"><a xlink:href="quickjs_8h.html#ad80a83d73e9b7d872b88fbf2943aebe9" target="_top" xlink:title="JS_IsException">
<polygon fill="none" stroke="#000000" points="611,-276.5 611,-295.5 697,-295.5 697,-276.5 611,-276.5"/>
<text text-anchor="middle" x="654" y="-283.5" font-family="Helvetica,sans-Serif" font-size="10.00" fill="#000000">JS_IsException</text>
</a>
</g>
</g>
<!-- Node84685&#45;&gt;Node84760 -->
<g id="edge27" class="edge">
<title>Node84685&#45;&gt;Node84760</title>
<path fill="none" stroke="#191970" d="M83.3925,-150.7845C193.9265,-143.0326 490.7329,-127.1689 575,-173 612.6846,-193.4958 636.3222,-240.6725 647.1122,-267.1304"/>
<polygon fill="#191970" stroke="#191970" points="643.8521,-268.4041 650.7327,-276.4606 650.378,-265.8717 643.8521,-268.4041"/>
</g>
<!-- Node84737 -->
<g id="node11" class="node">
<title>Node84737</title>
<g id="a_node11"><a xlink:href="quickjs_8c.html#adcabee55726eddca24893a78515c7ba2" target="_top" xlink:title="js_free_modules">
<polygon fill="none" stroke="#ff0000" points="464.5,-182.5 464.5,-201.5 552.5,-201.5 552.5,-182.5 464.5,-182.5"/>
<text text-anchor="middle" x="508.5" y="-189.5" font-family="Helvetica,sans-Serif" font-size="10.00" fill="#000000">js_free_modules</text>
</a>
</g>
</g>
<!-- Node84685&#45;&gt;Node84737 -->
<g id="edge24" class="edge">
<title>Node84685&#45;&gt;Node84737</title>
<path fill="none" stroke="#191970" d="M83.1942,-162.4575C94.7497,-164.5485 107.3263,-166.5909 119,-168 238.0046,-182.365 378.5615,-188.3377 454.0369,-190.6568"/>
<polygon fill="#191970" stroke="#191970" points="454.1462,-194.1615 464.2458,-190.9603 454.3542,-187.1646 454.1462,-194.1615"/>
</g>
<!-- Node85038 -->
<g id="node13" class="node">
<title>Node85038</title>
<g id="a_node13"><a xlink:href="quickjs_8c.html#a90dd988b99a5bc7b2a4aaffd2de405a9" target="_top" xlink:title="js_host_resolve_imported\l_module">
<polygon fill="none" stroke="#ff0000" points="119,-57 119,-87 247,-87 247,-57 119,-57"/>
<text text-anchor="start" x="127" y="-75" font-family="Helvetica,sans-Serif" font-size="10.00" fill="#000000">js_host_resolve_imported</text>
<text text-anchor="middle" x="183" y="-64" font-family="Helvetica,sans-Serif" font-size="10.00" fill="#000000">_module</text>
</a>
</g>
</g>
<!-- Node84685&#45;&gt;Node85038 -->
<g id="edge26" class="edge">
<title>Node84685&#45;&gt;Node85038</title>
<path fill="none" stroke="#191970" d="M54.5476,-144.3446C69.6425,-133.3898 95.4463,-115.3193 119,-102 125.389,-98.3871 132.2862,-94.8248 139.1053,-91.4867"/>
<polygon fill="#191970" stroke="#191970" points="140.7888,-94.5613 148.3007,-87.0899 137.7692,-88.2461 140.7888,-94.5613"/>
</g>
<!-- Node85046 -->
<g id="node14" class="node">
<title>Node85046</title>
<g id="a_node14"><a xlink:href="quickjs_8c.html#a041f16b68daf31525cd76aa4794073ef" target="_top" xlink:title="js_resolve_module">
<polygon fill="none" stroke="#ff0000" points="134,-.5 134,-19.5 232,-19.5 232,-.5 134,-.5"/>
<text text-anchor="middle" x="183" y="-7.5" font-family="Helvetica,sans-Serif" font-size="10.00" fill="#000000">js_resolve_module</text>
</a>
</g>
</g>
<!-- Node84685&#45;&gt;Node85046 -->
<g id="edge28" class="edge">
<title>Node84685&#45;&gt;Node85046</title>
<path fill="none" stroke="#191970" d="M46.6061,-144.3929C57.6422,-124.3156 85.4511,-77.27 119,-47 128.8267,-38.1337 141.1219,-30.4066 152.3022,-24.3395"/>
<polygon fill="#191970" stroke="#191970" points="154.0874,-27.3565 161.3528,-19.6451 150.8643,-21.1426 154.0874,-27.3565"/>
</g>
<!-- Node84688 -->
<g id="node4" class="node">
<title>Node84688</title>
<g id="a_node4"><a xlink:href="quickjs_8c.html#a5d217acce00892ab2b50a1dcc1eb4cc8" target="_top" xlink:title="JS_EvalFunctionInternal">
<polygon fill="none" stroke="#000000" points="283,-314.5 283,-333.5 406,-333.5 406,-314.5 283,-314.5"/>
<text text-anchor="middle" x="344.5" y="-321.5" font-family="Helvetica,sans-Serif" font-size="10.00" fill="#000000">JS_EvalFunctionInternal</text>
</a>
</g>
</g>
<!-- Node84687&#45;&gt;Node84688 -->
<g id="edge3" class="edge">
<title>Node84687&#45;&gt;Node84688</title>
<path fill="none" stroke="#191970" d="M215.6819,-286.5112C240.4456,-293.7179 274.6921,-303.6844 301.6499,-311.5297"/>
<polygon fill="#191970" stroke="#191970" points="301.0102,-314.9887 311.5899,-314.4224 302.9663,-308.2675 301.0102,-314.9887"/>
</g>
<!-- Node84689 -->
<g id="node5" class="node">
<title>Node84689</title>
<g id="a_node5"><a xlink:href="quickjs_8c.html#a75f6ee5e4235a7dc99889f3d2eb2c147" target="_top" xlink:title="JS_CallFree">
<polygon fill="none" stroke="#ff0000" points="618.5,-390.5 618.5,-409.5 689.5,-409.5 689.5,-390.5 618.5,-390.5"/>
<text text-anchor="middle" x="654" y="-397.5" font-family="Helvetica,sans-Serif" font-size="10.00" fill="#000000">JS_CallFree</text>
</a>
</g>
</g>
<!-- Node84688&#45;&gt;Node84689 -->
<g id="edge4" class="edge">
<title>Node84688&#45;&gt;Node84689</title>
<path fill="none" stroke="#191970" d="M348.0848,-333.6656C358.1766,-359.2651 389.5577,-428.6583 442,-455 494.8219,-481.5324 518.6009,-472.6991 575,-455 598.9475,-447.4848 621.9868,-429.8575 636.9412,-416.5696"/>
<polygon fill="#191970" stroke="#191970" points="639.3875,-419.0749 644.3719,-409.7257 634.6452,-413.926 639.3875,-419.0749"/>
</g>
<!-- Node84688&#45;&gt;Node84742 -->
<g id="edge18" class="edge">
<title>Node84688&#45;&gt;Node84742</title>
<path fill="none" stroke="#191970" d="M347.3569,-333.6858C356.1488,-361.5824 385.6738,-442.3231 442,-477 506.2844,-516.5763 535.6047,-490.2175 611,-494 649.1742,-495.9152 664.5129,-514.1377 697,-494 743.9394,-464.9038 762.4278,-396.6769 768.9059,-362.8021"/>
<polygon fill="#191970" stroke="#191970" points="772.391,-363.1907 770.6662,-352.7372 765.4957,-361.9847 772.391,-363.1907"/>
</g>
<!-- Node84993 -->
<g id="node7" class="node">
<title>Node84993</title>
<g id="a_node7"><a xlink:href="quickjs_8c.html#aab4130a4c3108a127681be821818528a" target="_top" xlink:title="js_closure">
<polygon fill="none" stroke="#ff0000" points="478,-314.5 478,-333.5 539,-333.5 539,-314.5 478,-314.5"/>
<text text-anchor="middle" x="508.5" y="-321.5" font-family="Helvetica,sans-Serif" font-size="10.00" fill="#000000">js_closure</text>
</a>
</g>
</g>
<!-- Node84688&#45;&gt;Node84993 -->
<g id="edge6" class="edge">
<title>Node84688&#45;&gt;Node84993</title>
<path fill="none" stroke="#191970" d="M406.0341,-324C426.6442,-324 449.0969,-324 467.7175,-324"/>
<polygon fill="#191970" stroke="#191970" points="467.9128,-327.5001 477.9128,-324 467.9127,-320.5001 467.9128,-327.5001"/>
</g>
<!-- Node84688&#45;&gt;Node84760 -->
<g id="edge23" class="edge">
<title>Node84688&#45;&gt;Node84760</title>
<path fill="none" stroke="#191970" d="M388.505,-314.4257C405.195,-311.0579 424.4132,-307.4949 442,-305 495.7418,-297.3761 557.6076,-292.2458 600.5812,-289.2575"/>
<polygon fill="#191970" stroke="#191970" points="601.0711,-292.7324 610.8106,-288.5619 600.5961,-285.7485 601.0711,-292.7324"/>
</g>
<!-- Node85112 -->
<g id="node9" class="node">
<title>Node85112</title>
<g id="a_node9"><a xlink:href="quickjs_8c.html#a2d91a9da16cf07ff3b9ec053b870c335" target="_top" xlink:title="js_create_module_function">
<polygon fill="none" stroke="#ff0000" points="442,-408.5 442,-427.5 575,-427.5 575,-408.5 442,-408.5"/>
<text text-anchor="middle" x="508.5" y="-415.5" font-family="Helvetica,sans-Serif" font-size="10.00" fill="#000000">js_create_module_function</text>
</a>
</g>
</g>
<!-- Node84688&#45;&gt;Node85112 -->
<g id="edge9" class="edge">
<title>Node84688&#45;&gt;Node85112</title>
<path fill="none" stroke="#191970" d="M354.4273,-333.7449C371.1336,-349.6283 406.5315,-381.117 442,-399 446.5734,-401.3059 451.469,-403.3708 456.4525,-405.2111"/>
<polygon fill="#191970" stroke="#191970" points="455.4883,-408.5799 466.0827,-408.4775 457.7368,-401.9508 455.4883,-408.5799"/>
</g>
<!-- Node85115 -->
<g id="node10" class="node">
<title>Node85115</title>
<g id="a_node10"><a xlink:href="quickjs_8c.html#a8caed40cacf996391536c97ef916af21" target="_top" xlink:title="js_evaluate_module">
<polygon fill="none" stroke="#ff0000" points="457,-352.5 457,-371.5 560,-371.5 560,-352.5 457,-352.5"/>
<text text-anchor="middle" x="508.5" y="-359.5" font-family="Helvetica,sans-Serif" font-size="10.00" fill="#000000">js_evaluate_module</text>
</a>
</g>
</g>
<!-- Node84688&#45;&gt;Node85115 -->
<g id="edge11" class="edge">
<title>Node84688&#45;&gt;Node85115</title>
<path fill="none" stroke="#191970" d="M385.8841,-333.589C407.6232,-338.6261 434.4575,-344.8438 457.4747,-350.1771"/>
<polygon fill="#191970" stroke="#191970" points="456.8815,-353.6323 467.4135,-352.4799 458.4616,-346.8129 456.8815,-353.6323"/>
</g>
<!-- Node84688&#45;&gt;Node84737 -->
<g id="edge17" class="edge">
<title>Node84688&#45;&gt;Node84737</title>
<path fill="none" stroke="#191970" d="M349.9902,-314.477C363.0365,-292.7111 398.1131,-239.0435 442,-211 446.025,-208.428 450.4049,-206.1966 454.9322,-204.262"/>
<polygon fill="#191970" stroke="#191970" points="456.2507,-207.5054 464.3656,-200.6938 453.7741,-200.9581 456.2507,-207.5054"/>
</g>
<!-- Node85116 -->
<g id="node12" class="node">
<title>Node85116</title>
<g id="a_node12"><a xlink:href="quickjs_8c.html#a89e4f0ec49cdd0029ab50c0509ccc445" target="_top" xlink:title="js_instantiate_module">
<polygon fill="none" stroke="#ff0000" points="453,-220.5 453,-239.5 564,-239.5 564,-220.5 453,-220.5"/>
<text text-anchor="middle" x="508.5" y="-227.5" font-family="Helvetica,sans-Serif" font-size="10.00" fill="#000000">js_instantiate_module</text>
</a>
</g>
</g>
<!-- Node84688&#45;&gt;Node85116 -->
<g id="edge19" class="edge">
<title>Node84688&#45;&gt;Node85116</title>
<path fill="none" stroke="#191970" d="M361.1277,-314.4695C389.8595,-298.0013 448.9767,-264.117 482.9568,-244.6406"/>
<polygon fill="#191970" stroke="#191970" points="484.8928,-247.5651 491.8283,-239.5557 481.4119,-241.492 484.8928,-247.5651"/>
</g>
<!-- Node84689&#45;&gt;Node84742 -->
<g id="edge5" class="edge">
<title>Node84689&#45;&gt;Node84742</title>
<path fill="none" stroke="#191970" d="M673.7505,-390.4595C692.7248,-381.2939 721.6109,-367.3405 743.1575,-356.9324"/>
<polygon fill="#191970" stroke="#191970" points="744.7029,-360.0729 752.185,-352.5716 741.6581,-353.7698 744.7029,-360.0729"/>
</g>
<!-- Node84993&#45;&gt;Node84742 -->
<g id="edge7" class="edge">
<title>Node84993&#45;&gt;Node84742</title>
<path fill="none" stroke="#191970" d="M539.2425,-326.2167C584.3912,-329.4722 669.0899,-335.5795 722.911,-339.4604"/>
<polygon fill="#191970" stroke="#191970" points="722.6877,-342.9533 732.9136,-340.1816 723.1912,-335.9714 722.6877,-342.9533"/>
</g>
<!-- Node84993&#45;&gt;Node84760 -->
<g id="edge8" class="edge">
<title>Node84993&#45;&gt;Node84760</title>
<path fill="none" stroke="#191970" d="M539.0016,-316.034C558.9635,-310.8205 585.4198,-303.911 607.9237,-298.0337"/>
<polygon fill="#191970" stroke="#191970" points="608.8297,-301.4145 617.6207,-295.5011 607.0608,-294.6417 608.8297,-301.4145"/>
</g>
<!-- Node85112&#45;&gt;Node85112 -->
<g id="edge10" class="edge">
<title>Node85112&#45;&gt;Node85112</title>
<path fill="none" stroke="#191970" d="M486.3054,-427.7571C475.5081,-436.5653 482.9063,-446 508.5,-446 525.2959,-446 534.2556,-441.9368 535.3792,-436.6539"/>
<polygon fill="#191970" stroke="#191970" points="538.4506,-434.9747 530.6946,-427.7571 532.2567,-438.2361 538.4506,-434.9747"/>
</g>
<!-- Node85115&#45;&gt;Node84686 -->
<g id="edge13" class="edge">
<title>Node85115&#45;&gt;Node84686</title>
<path fill="none" stroke="#191970" d="M528.816,-371.5743C542.4264,-378.3962 560.4483,-388.2358 575,-399 598.9739,-416.734 623.1956,-441.2304 638.3808,-457.5678"/>
<polygon fill="#191970" stroke="#191970" points="636.1147,-460.2758 645.4488,-465.2884 641.2779,-455.549 636.1147,-460.2758"/>
</g>
<!-- Node85115&#45;&gt;Node84689 -->
<g id="edge12" class="edge">
<title>Node85115&#45;&gt;Node84689</title>
<path fill="none" stroke="#191970" d="M545.2158,-371.589C564.4602,-376.615 588.2051,-382.8165 608.5958,-388.1419"/>
<polygon fill="#191970" stroke="#191970" points="607.742,-391.5362 618.3019,-390.6768 609.5109,-384.7634 607.742,-391.5362"/>
</g>
<!-- Node85115&#45;&gt;Node84742 -->
<g id="edge15" class="edge">
<title>Node85115&#45;&gt;Node84742</title>
<path fill="none" stroke="#191970" d="M560.2447,-358.2689C607.342,-354.8729 676.3914,-349.894 722.7068,-346.5543"/>
<polygon fill="#191970" stroke="#191970" points="723.0836,-350.0364 732.8059,-345.8261 722.5801,-343.0545 723.0836,-350.0364"/>
</g>
<!-- Node85115&#45;&gt;Node84760 -->
<g id="edge16" class="edge">
<title>Node85115&#45;&gt;Node84760</title>
<path fill="none" stroke="#191970" d="M550.475,-352.4032C558.799,-349.8393 567.3298,-346.7209 575,-343 597.4684,-332.1005 620.2996,-314.8116 635.6003,-302.13"/>
<polygon fill="#191970" stroke="#191970" points="637.9075,-304.7625 643.2759,-295.6284 633.3831,-299.4212 637.9075,-304.7625"/>
</g>
<!-- Node85115&#45;&gt;Node85115 -->
<g id="edge14" class="edge">
<title>Node85115&#45;&gt;Node85115</title>
<path fill="none" stroke="#191970" d="M486.3054,-371.7571C475.5081,-380.5653 482.9063,-390 508.5,-390 525.2959,-390 534.2556,-385.9368 535.3792,-380.6539"/>
<polygon fill="#191970" stroke="#191970" points="538.4506,-378.9747 530.6946,-371.7571 532.2567,-382.2361 538.4506,-378.9747"/>
</g>
<!-- Node85116&#45;&gt;Node84742 -->
<g id="edge20" class="edge">
<title>Node85116&#45;&gt;Node84742</title>
<path fill="none" stroke="#191970" d="M564.199,-232.297C603.349,-235.9117 655.868,-244.9061 697,-267 723.1443,-281.0433 745.9203,-307.2445 759.3162,-324.9052"/>
<polygon fill="#191970" stroke="#191970" points="756.6999,-327.2562 765.4346,-333.2525 762.3457,-323.1179 756.6999,-327.2562"/>
</g>
<!-- Node85116&#45;&gt;Node84760 -->
<g id="edge22" class="edge">
<title>Node85116&#45;&gt;Node84760</title>
<path fill="none" stroke="#191970" d="M533.5123,-239.6267C557.2878,-248.7774 593.2423,-262.6156 619.6889,-272.7943"/>
<polygon fill="#191970" stroke="#191970" points="618.7242,-276.1733 629.314,-276.4989 621.2386,-269.6405 618.7242,-276.1733"/>
</g>
<!-- Node85116&#45;&gt;Node85116 -->
<g id="edge21" class="edge">
<title>Node85116&#45;&gt;Node85116</title>
<path fill="none" stroke="#191970" d="M486.3054,-239.7571C475.5081,-248.5653 482.9063,-258 508.5,-258 525.2959,-258 534.2556,-253.9368 535.3792,-248.6539"/>
<polygon fill="#191970" stroke="#191970" points="538.4506,-246.9747 530.6946,-239.7571 532.2567,-250.2361 538.4506,-246.9747"/>
</g>
<!-- Node85046&#45;&gt;Node85046 -->
<g id="edge29" class="edge">
<title>Node85046&#45;&gt;Node85046</title>
<path fill="none" stroke="#191970" d="M161.4219,-19.7571C150.9245,-28.5653 158.1172,-38 183,-38 198.9406,-38 207.6211,-34.128 209.0416,-29.0292"/>
<polygon fill="#191970" stroke="#191970" points="212.0692,-27.2493 204.5781,-19.7571 205.762,-30.2855 212.0692,-27.2493"/>
</g>
</g>
</svg>
