<?xml version="1.0" encoding="UTF-8" standalone="no"?>
<!DOCTYPE svg PUBLIC "-//W3C//DTD SVG 1.1//EN"
 "http://www.w3.org/Graphics/SVG/1.1/DTD/svg11.dtd">
<!-- Generated by graphviz version 2.40.1 (20161225.0304)
 -->
<!-- Title: JS_AutoInitProperty Pages: 1 -->
<svg width="797pt" height="814pt"
 viewBox="0.00 0.00 797.00 814.12" xmlns="http://www.w3.org/2000/svg" xmlns:xlink="http://www.w3.org/1999/xlink">
<g id="graph0" class="graph" transform="scale(1 1) rotate(0) translate(4 810.1195)">
<title>JS_AutoInitProperty</title>
<!-- Node179398 -->
<g id="node1" class="node">
<title>Node179398</title>
<polygon fill="#bfbfbf" stroke="#000000" points="0,-376.1476 0,-395.1476 104,-395.1476 104,-376.1476 0,-376.1476"/>
<text text-anchor="middle" x="52" y="-383.1476" font-family="Helvetica,sans-Serif" font-size="10.00" fill="#000000">JS_AutoInitProperty</text>
</g>
<!-- Node179399 -->
<g id="node2" class="node">
<title>Node179399</title>
<g id="a_node2"><a xlink:href="quickjs_8c.html#ad13892c0a0f11781b566808876658099" target="_top" xlink:title="JS_GetOwnPropertyInternal">
<polygon fill="none" stroke="#000000" points="140,-376.1476 140,-395.1476 279,-395.1476 279,-376.1476 140,-376.1476"/>
<text text-anchor="middle" x="209.5" y="-383.1476" font-family="Helvetica,sans-Serif" font-size="10.00" fill="#000000">JS_GetOwnPropertyInternal</text>
</a>
</g>
</g>
<!-- Node179398&#45;&gt;Node179399 -->
<g id="edge1" class="edge">
<title>Node179398&#45;&gt;Node179399</title>
<path fill="none" stroke="#191970" d="M114.1413,-385.6476C122.5799,-385.6476 131.2852,-385.6476 139.8451,-385.6476"/>
<polygon fill="#191970" stroke="#191970" points="114.0079,-382.1477 104.0079,-385.6476 114.0079,-389.1477 114.0079,-382.1477"/>
</g>
<!-- Node179724 -->
<g id="node29" class="node">
<title>Node179724</title>
<g id="a_node29"><a xlink:href="quickjs_8c.html#a5762c57ae0c9937e986040c01222833a" target="_top" xlink:title="JS_GetPropertyInternal">
<polygon fill="none" stroke="#ff0000" points="150,-22.1476 150,-41.1476 269,-41.1476 269,-22.1476 150,-22.1476"/>
<text text-anchor="middle" x="209.5" y="-29.1476" font-family="Helvetica,sans-Serif" font-size="10.00" fill="#000000">JS_GetPropertyInternal</text>
</a>
</g>
</g>
<!-- Node179398&#45;&gt;Node179724 -->
<g id="edge39" class="edge">
<title>Node179398&#45;&gt;Node179724</title>
<path fill="none" stroke="#191970" d="M60.6138,-366.2871C89.7493,-300.8016 183.9746,-89.019 205.2184,-41.271"/>
<polygon fill="#191970" stroke="#191970" points="57.2441,-365.2508 56.3768,-375.8101 63.6397,-368.0964 57.2441,-365.2508"/>
</g>
<!-- Node179521 -->
<g id="node30" class="node">
<title>Node179521</title>
<g id="a_node30"><a xlink:href="quickjs_8c.html#ad7f03358a8088ca920ab308225c6b2e6" target="_top" xlink:title="JS_SetPropertyInternal">
<polygon fill="none" stroke="#ff0000" points="341,-768.1476 341,-787.1476 459,-787.1476 459,-768.1476 341,-768.1476"/>
<text text-anchor="middle" x="400" y="-775.1476" font-family="Helvetica,sans-Serif" font-size="10.00" fill="#000000">JS_SetPropertyInternal</text>
</a>
</g>
</g>
<!-- Node179398&#45;&gt;Node179521 -->
<g id="edge42" class="edge">
<title>Node179398&#45;&gt;Node179521</title>
<path fill="none" stroke="#191970" d="M59.4836,-404.7758C84.8386,-466.9136 173.8663,-664.5004 315,-758.6476 322.7991,-763.8502 331.8061,-767.6472 340.9786,-770.4143"/>
<polygon fill="#191970" stroke="#191970" points="62.6939,-403.3777 55.7246,-395.3977 56.1964,-405.9821 62.6939,-403.3777"/>
</g>
<!-- Node179400 -->
<g id="node3" class="node">
<title>Node179400</title>
<g id="a_node3"><a xlink:href="quickjs_8c.html#a3b754d750c7f3123e85f4a2e748de023" target="_top" xlink:title="JS_CopyDataProperties">
<polygon fill="none" stroke="#000000" points="531.5,-665.1476 531.5,-684.1476 653.5,-684.1476 653.5,-665.1476 531.5,-665.1476"/>
<text text-anchor="middle" x="592.5" y="-672.1476" font-family="Helvetica,sans-Serif" font-size="10.00" fill="#000000">JS_CopyDataProperties</text>
</a>
</g>
</g>
<!-- Node179399&#45;&gt;Node179400 -->
<g id="edge2" class="edge">
<title>Node179399&#45;&gt;Node179400</title>
<path fill="none" stroke="#191970" d="M214.8455,-404.9736C230.1304,-458.7972 275.4634,-608.4438 315,-638.6476 347.9105,-663.7894 460.0757,-671.4103 531.3276,-673.6964"/>
<polygon fill="#191970" stroke="#191970" points="218.1981,-403.9663 212.126,-395.2841 211.4585,-405.8579 218.1981,-403.9663"/>
</g>
<!-- Node180003 -->
<g id="node6" class="node">
<title>Node180003</title>
<g id="a_node6"><a xlink:href="quickjs_8c.html#ac3d351dbdf57be84bab3d5c40009df53" target="_top" xlink:title="JS_GetOwnProperty">
<polygon fill="none" stroke="#000000" points="346.5,-692.1476 346.5,-711.1476 453.5,-711.1476 453.5,-692.1476 346.5,-692.1476"/>
<text text-anchor="middle" x="400" y="-699.1476" font-family="Helvetica,sans-Serif" font-size="10.00" fill="#000000">JS_GetOwnProperty</text>
</a>
</g>
</g>
<!-- Node179399&#45;&gt;Node180003 -->
<g id="edge6" class="edge">
<title>Node179399&#45;&gt;Node180003</title>
<path fill="none" stroke="#191970" d="M216.1773,-404.8606C238.5384,-469.1058 309.6855,-672.7002 315,-677.6476 323.642,-685.6927 334.7752,-691.0694 346.1192,-694.6551"/>
<polygon fill="#191970" stroke="#191970" points="219.3994,-403.4703 212.8084,-395.1751 212.7879,-405.7699 219.3994,-403.4703"/>
</g>
<!-- Node179626 -->
<g id="node8" class="node">
<title>Node179626</title>
<g id="a_node8"><a xlink:href="quickjs_8c.html#a79c9d633e8f9d5fd70546406b9e6f176" target="_top" xlink:title="JS_GetOwnPropertyNames2">
<polygon fill="none" stroke="#ff0000" points="521,-627.1476 521,-646.1476 664,-646.1476 664,-627.1476 521,-627.1476"/>
<text text-anchor="middle" x="592.5" y="-634.1476" font-family="Helvetica,sans-Serif" font-size="10.00" fill="#000000">JS_GetOwnPropertyNames2</text>
</a>
</g>
</g>
<!-- Node179399&#45;&gt;Node179626 -->
<g id="edge8" class="edge">
<title>Node179399&#45;&gt;Node179626</title>
<path fill="none" stroke="#191970" d="M212.6946,-405.5144C220.8765,-449.2972 246.9462,-554.0539 315,-602.6476 374.6464,-645.238 460.4752,-649.4141 520.8476,-645.675"/>
<polygon fill="#191970" stroke="#191970" points="216.1212,-404.7904 210.9487,-395.544 209.2261,-405.9979 216.1212,-404.7904"/>
</g>
<!-- Node180004 -->
<g id="node9" class="node">
<title>Node180004</title>
<g id="a_node9"><a xlink:href="quickjs_8c.html#a176ac5ff56a118a0b1b2566798d28823" target="_top" xlink:title="JS_GetOwnPropertyNamesInternal">
<polygon fill="none" stroke="#ff0000" points="315,-540.1476 315,-559.1476 485,-559.1476 485,-540.1476 315,-540.1476"/>
<text text-anchor="middle" x="400" y="-547.1476" font-family="Helvetica,sans-Serif" font-size="10.00" fill="#000000">JS_GetOwnPropertyNamesInternal</text>
</a>
</g>
</g>
<!-- Node179399&#45;&gt;Node180004 -->
<g id="edge9" class="edge">
<title>Node179399&#45;&gt;Node180004</title>
<path fill="none" stroke="#191970" d="M218.3773,-404.1666C233.7677,-434.2752 268.289,-493.6839 315,-525.6476 324.238,-531.969 335.1191,-536.6368 345.9551,-540.08"/>
<polygon fill="#191970" stroke="#191970" points="221.4865,-402.5583 213.9015,-395.1612 215.218,-405.6739 221.4865,-402.5583"/>
</g>
<!-- Node179710 -->
<g id="node14" class="node">
<title>Node179710</title>
<g id="a_node14"><a xlink:href="quickjs_8c.html#a3b1f61e0c2e39eb52d8b1c5c8713873e" target="_top" xlink:title="js_object_seal">
<polygon fill="none" stroke="#ff0000" points="553,-589.1476 553,-608.1476 632,-608.1476 632,-589.1476 553,-589.1476"/>
<text text-anchor="middle" x="592.5" y="-596.1476" font-family="Helvetica,sans-Serif" font-size="10.00" fill="#000000">js_object_seal</text>
</a>
</g>
</g>
<!-- Node179399&#45;&gt;Node179710 -->
<g id="edge28" class="edge">
<title>Node179399&#45;&gt;Node179710</title>
<path fill="none" stroke="#191970" d="M214.4497,-405.3494C225.3087,-444.0548 255.1657,-529.6372 315,-568.6476 388.0665,-616.285 495.575,-611.7639 552.9685,-604.8809"/>
<polygon fill="#191970" stroke="#191970" points="217.7404,-404.1059 211.7788,-395.3475 210.9774,-405.912 217.7404,-404.1059"/>
</g>
<!-- Node179999 -->
<g id="node15" class="node">
<title>Node179999</title>
<g id="a_node15"><a xlink:href="quickjs_8c.html#a43a4ecde0329def8ff22e9341c7b109d" target="_top" xlink:title="js_object_isSealed">
<polygon fill="none" stroke="#000000" points="543.5,-475.1476 543.5,-494.1476 641.5,-494.1476 641.5,-475.1476 543.5,-475.1476"/>
<text text-anchor="middle" x="592.5" y="-482.1476" font-family="Helvetica,sans-Serif" font-size="10.00" fill="#000000">js_object_isSealed</text>
</a>
</g>
</g>
<!-- Node179399&#45;&gt;Node179999 -->
<g id="edge26" class="edge">
<title>Node179399&#45;&gt;Node179999</title>
<path fill="none" stroke="#191970" d="M223.3726,-402.9281C241.7298,-424.3098 276.3186,-459.7159 315,-474.6476 390.5562,-503.8135 486.4541,-499.0058 543.456,-492.2542"/>
<polygon fill="#191970" stroke="#191970" points="226.0449,-400.6677 216.9487,-395.2354 220.6719,-405.1545 226.0449,-400.6677"/>
</g>
<!-- Node179743 -->
<g id="node16" class="node">
<title>Node179743</title>
<g id="a_node16"><a xlink:href="quickjs_8c.html#a438b354d69a8f0674195b0cdc19dd686" target="_top" xlink:title="js_proxy_get_own_property\l_names">
<polygon fill="none" stroke="#000000" points="524.5,-425.6476 524.5,-455.6476 660.5,-455.6476 660.5,-425.6476 524.5,-425.6476"/>
<text text-anchor="start" x="532.5" y="-443.6476" font-family="Helvetica,sans-Serif" font-size="10.00" fill="#000000">js_proxy_get_own_property</text>
<text text-anchor="middle" x="592.5" y="-432.6476" font-family="Helvetica,sans-Serif" font-size="10.00" fill="#000000">_names</text>
</a>
</g>
</g>
<!-- Node179399&#45;&gt;Node179743 -->
<g id="edge33" class="edge">
<title>Node179399&#45;&gt;Node179743</title>
<path fill="none" stroke="#191970" d="M227.0755,-401.8505C246.7745,-418.8077 280.4975,-444.3666 315,-454.6476 386.078,-475.8273 471.8743,-466.5167 529.0717,-455.7003"/>
<polygon fill="#191970" stroke="#191970" points="229.3403,-399.1812 219.5303,-395.1794 224.7036,-404.4253 229.3403,-399.1812"/>
</g>
<!-- Node179765 -->
<g id="node17" class="node">
<title>Node179765</title>
<g id="a_node17"><a xlink:href="quickjs_8c.html#a9d6d0a9704951d01c128975e0d2213f8" target="_top" xlink:title="JS_HasProperty">
<polygon fill="none" stroke="#ff0000" points="355.5,-262.1476 355.5,-281.1476 444.5,-281.1476 444.5,-262.1476 355.5,-262.1476"/>
<text text-anchor="middle" x="400" y="-269.1476" font-family="Helvetica,sans-Serif" font-size="10.00" fill="#000000">JS_HasProperty</text>
</a>
</g>
</g>
<!-- Node179399&#45;&gt;Node179765 -->
<g id="edge19" class="edge">
<title>Node179399&#45;&gt;Node179765</title>
<path fill="none" stroke="#191970" d="M223.6197,-368.3437C242.2382,-346.7273 277.1029,-310.2088 315,-290.6476 327.3618,-284.2669 341.8163,-280.0184 355.2629,-277.1938"/>
<polygon fill="#191970" stroke="#191970" points="220.8605,-366.1866 217.0951,-376.0897 226.2143,-370.6963 220.8605,-366.1866"/>
</g>
<!-- Node179773 -->
<g id="node18" class="node">
<title>Node179773</title>
<g id="a_node18"><a xlink:href="quickjs_8c.html#a1bddfeab11a7cfee6bd88781073b5972" target="_top" xlink:title="js_proxy_has">
<polygon fill="none" stroke="#000000" points="555.5,-142.1476 555.5,-161.1476 629.5,-161.1476 629.5,-142.1476 555.5,-142.1476"/>
<text text-anchor="middle" x="592.5" y="-149.1476" font-family="Helvetica,sans-Serif" font-size="10.00" fill="#000000">js_proxy_has</text>
</a>
</g>
</g>
<!-- Node179399&#45;&gt;Node179773 -->
<g id="edge34" class="edge">
<title>Node179399&#45;&gt;Node179773</title>
<path fill="none" stroke="#191970" d="M213.4432,-365.9618C226.0662,-305.1279 267.4473,-122.2197 315,-88.6476 376.7231,-45.0712 412.0829,-68.8554 485,-88.6476 523.413,-99.0742 562.142,-127.0585 580.8885,-141.9748"/>
<polygon fill="#191970" stroke="#191970" points="209.9983,-365.3385 211.4259,-375.8367 216.8567,-366.7396 209.9983,-365.3385"/>
</g>
<!-- Node179679 -->
<g id="node19" class="node">
<title>Node179679</title>
<g id="a_node19"><a xlink:href="quickjs_8c.html#a26abea9136a3d8e9a861aefb51626b4e" target="_top" xlink:title="js_object___lookupGetter__">
<polygon fill="none" stroke="#000000" points="331.5,-300.1476 331.5,-319.1476 468.5,-319.1476 468.5,-300.1476 331.5,-300.1476"/>
<text text-anchor="middle" x="400" y="-307.1476" font-family="Helvetica,sans-Serif" font-size="10.00" fill="#000000">js_object___lookupGetter__</text>
</a>
</g>
</g>
<!-- Node179399&#45;&gt;Node179679 -->
<g id="edge22" class="edge">
<title>Node179399&#45;&gt;Node179679</title>
<path fill="none" stroke="#191970" d="M232.7308,-370.6653C253.5395,-357.8473 285.2723,-339.757 315,-328.6476 325.0567,-324.8894 336.0732,-321.7543 346.7436,-319.1858"/>
<polygon fill="#191970" stroke="#191970" points="230.8736,-367.6986 224.2524,-375.9697 234.5863,-373.6329 230.8736,-367.6986"/>
</g>
<!-- Node179683 -->
<g id="node20" class="node">
<title>Node179683</title>
<g id="a_node20"><a xlink:href="quickjs_8c.html#a5f75fb513884286c86db6863663f262a" target="_top" xlink:title="js_object_getOwnProperty\lDescriptor">
<polygon fill="none" stroke="#000000" points="334.5,-414.6476 334.5,-444.6476 465.5,-444.6476 465.5,-414.6476 334.5,-414.6476"/>
<text text-anchor="start" x="342.5" y="-432.6476" font-family="Helvetica,sans-Serif" font-size="10.00" fill="#000000">js_object_getOwnProperty</text>
<text text-anchor="middle" x="400" y="-421.6476" font-family="Helvetica,sans-Serif" font-size="10.00" fill="#000000">Descriptor</text>
</a>
</g>
</g>
<!-- Node179399&#45;&gt;Node179683 -->
<g id="edge23" class="edge">
<title>Node179399&#45;&gt;Node179683</title>
<path fill="none" stroke="#191970" d="M260.6457,-397.4608C283.4353,-402.7245 310.5477,-408.9867 334.7738,-414.5822"/>
<polygon fill="#191970" stroke="#191970" points="261.3668,-394.0353 250.8357,-395.1949 259.7915,-400.8557 261.3668,-394.0353"/>
</g>
<!-- Node179685 -->
<g id="node21" class="node">
<title>Node179685</title>
<g id="a_node21"><a xlink:href="quickjs_8c.html#ad61ef444b51b69a8a4cb9e3cac990c8d" target="_top" xlink:title="js_object_hasOwnProperty">
<polygon fill="none" stroke="#000000" points="333,-224.1476 333,-243.1476 467,-243.1476 467,-224.1476 333,-224.1476"/>
<text text-anchor="middle" x="400" y="-231.1476" font-family="Helvetica,sans-Serif" font-size="10.00" fill="#000000">js_object_hasOwnProperty</text>
</a>
</g>
</g>
<!-- Node179399&#45;&gt;Node179685 -->
<g id="edge25" class="edge">
<title>Node179399&#45;&gt;Node179685</title>
<path fill="none" stroke="#191970" d="M218.8686,-366.9706C234.5524,-337.7272 268.987,-281.499 315,-252.6476 321.1493,-248.7918 327.9809,-245.714 335.0227,-243.258"/>
<polygon fill="#191970" stroke="#191970" points="215.6291,-365.6138 214.1148,-376.0999 221.8378,-368.8468 215.6291,-365.6138"/>
</g>
<!-- Node179687 -->
<g id="node22" class="node">
<title>Node179687</title>
<g id="a_node22"><a xlink:href="quickjs_8c.html#acc70b8dea6a26f839c651835b7104c92" target="_top" xlink:title="js_object_propertyIsEnumerable">
<polygon fill="none" stroke="#000000" points="322,-186.1476 322,-205.1476 478,-205.1476 478,-186.1476 322,-186.1476"/>
<text text-anchor="middle" x="400" y="-193.1476" font-family="Helvetica,sans-Serif" font-size="10.00" fill="#000000">js_object_propertyIsEnumerable</text>
</a>
</g>
</g>
<!-- Node179399&#45;&gt;Node179687 -->
<g id="edge27" class="edge">
<title>Node179399&#45;&gt;Node179687</title>
<path fill="none" stroke="#191970" d="M215.7316,-366.2849C228.3393,-330.3641 260.4142,-253.531 315,-214.6476 320.419,-210.7874 326.4862,-207.6929 332.8187,-205.2149"/>
<polygon fill="#191970" stroke="#191970" points="212.3235,-365.4378 212.4404,-376.032 218.9557,-367.6772 212.3235,-365.4378"/>
</g>
<!-- Node179704 -->
<g id="node23" class="node">
<title>Node179704</title>
<g id="a_node23"><a xlink:href="quickjs_8c.html#a7e5b77a4851eee6f666581d051979392" target="_top" xlink:title="js_proxy_define_own\l_property">
<polygon fill="none" stroke="#000000" points="346,-136.6476 346,-166.6476 454,-166.6476 454,-136.6476 346,-136.6476"/>
<text text-anchor="start" x="354" y="-154.6476" font-family="Helvetica,sans-Serif" font-size="10.00" fill="#000000">js_proxy_define_own</text>
<text text-anchor="middle" x="400" y="-143.6476" font-family="Helvetica,sans-Serif" font-size="10.00" fill="#000000">_property</text>
</a>
</g>
</g>
<!-- Node179399&#45;&gt;Node179704 -->
<g id="edge29" class="edge">
<title>Node179399&#45;&gt;Node179704</title>
<path fill="none" stroke="#191970" d="M213.7929,-366.1699C223.9154,-324.879 253.2165,-228.1288 315,-176.6476 323.8629,-169.2625 334.8283,-164.0589 345.9036,-160.3924"/>
<polygon fill="#191970" stroke="#191970" points="210.3513,-365.5165 211.4821,-376.0508 217.1674,-367.1106 210.3513,-365.5165"/>
</g>
<!-- Node179677 -->
<g id="node24" class="node">
<title>Node179677</title>
<g id="a_node24"><a xlink:href="quickjs_8c.html#acffb121a8a0ee2b735f60c1db01e79e7" target="_top" xlink:title="js_proxy_delete_property">
<polygon fill="none" stroke="#000000" points="337.5,-98.1476 337.5,-117.1476 462.5,-117.1476 462.5,-98.1476 337.5,-98.1476"/>
<text text-anchor="middle" x="400" y="-105.1476" font-family="Helvetica,sans-Serif" font-size="10.00" fill="#000000">js_proxy_delete_property</text>
</a>
</g>
</g>
<!-- Node179399&#45;&gt;Node179677 -->
<g id="edge30" class="edge">
<title>Node179399&#45;&gt;Node179677</title>
<path fill="none" stroke="#191970" d="M211.4172,-365.9429C217.2522,-317.2642 239.319,-190.6453 315,-126.6476 321.4659,-121.1799 329.1704,-117.1951 337.2621,-114.3061"/>
<polygon fill="#191970" stroke="#191970" points="207.9171,-365.7537 210.3076,-376.0753 214.8755,-366.5158 207.9171,-365.7537"/>
</g>
<!-- Node179985 -->
<g id="node25" class="node">
<title>Node179985</title>
<g id="a_node25"><a xlink:href="quickjs_8c.html#a45df491949e8e055e732eb13c446d47b" target="_top" xlink:title="js_proxy_get">
<polygon fill="none" stroke="#000000" points="364,-22.1476 364,-41.1476 436,-41.1476 436,-22.1476 364,-22.1476"/>
<text text-anchor="middle" x="400" y="-29.1476" font-family="Helvetica,sans-Serif" font-size="10.00" fill="#000000">js_proxy_get</text>
</a>
</g>
</g>
<!-- Node179399&#45;&gt;Node179985 -->
<g id="edge31" class="edge">
<title>Node179399&#45;&gt;Node179985</title>
<path fill="none" stroke="#191970" d="M213.2412,-366.0791C225.8469,-302.076 268.5864,-100.4987 315,-55.6476 328.0115,-43.0741 347.0875,-36.9927 363.8727,-34.0898"/>
<polygon fill="#191970" stroke="#191970" points="209.7743,-365.5719 211.3022,-376.056 216.6458,-366.9074 209.7743,-365.5719"/>
</g>
<!-- Node179771 -->
<g id="node26" class="node">
<title>Node179771</title>
<g id="a_node26"><a xlink:href="quickjs_8c.html#ab9c2e9c8dab72f3c057efe4ffcced332" target="_top" xlink:title="js_proxy_get_own_property">
<polygon fill="none" stroke="#000000" points="332,-730.1476 332,-749.1476 468,-749.1476 468,-730.1476 332,-730.1476"/>
<text text-anchor="middle" x="400" y="-737.1476" font-family="Helvetica,sans-Serif" font-size="10.00" fill="#000000">js_proxy_get_own_property</text>
</a>
</g>
</g>
<!-- Node179399&#45;&gt;Node179771 -->
<g id="edge32" class="edge">
<title>Node179399&#45;&gt;Node179771</title>
<path fill="none" stroke="#191970" d="M216.6208,-404.7799C229.7432,-440.3421 258.2917,-519.1491 279,-586.6476 297.0873,-645.6028 270.4769,-677.9796 315,-720.6476 319.9128,-725.3557 325.7248,-728.9956 331.9682,-731.7975"/>
<polygon fill="#191970" stroke="#191970" points="219.8249,-403.3537 213.0693,-395.1921 213.2608,-405.7852 219.8249,-403.3537"/>
</g>
<!-- Node179520 -->
<g id="node27" class="node">
<title>Node179520</title>
<g id="a_node27"><a xlink:href="quickjs_8c.html#ad38b16d301e8f3661cf4c115c86511b3" target="_top" xlink:title="js_proxy_set">
<polygon fill="none" stroke="#000000" points="556.5,-338.1476 556.5,-357.1476 628.5,-357.1476 628.5,-338.1476 556.5,-338.1476"/>
<text text-anchor="middle" x="592.5" y="-345.1476" font-family="Helvetica,sans-Serif" font-size="10.00" fill="#000000">js_proxy_set</text>
</a>
</g>
</g>
<!-- Node179399&#45;&gt;Node179520 -->
<g id="edge35" class="edge">
<title>Node179399&#45;&gt;Node179520</title>
<path fill="none" stroke="#191970" d="M289.1009,-382.3956C344.238,-379.596 419.2569,-374.7014 485,-366.6476 508.891,-363.7208 535.5344,-359.0219 556.3195,-355.0294"/>
<polygon fill="#191970" stroke="#191970" points="288.858,-378.9033 279.0436,-382.8943 289.2047,-385.8947 288.858,-378.9033"/>
</g>
<!-- Node179518 -->
<g id="node28" class="node">
<title>Node179518</title>
<g id="a_node28"><a xlink:href="quickjs_8c.html#a638e637d492ee889691691baba33c4bd" target="_top" xlink:title="JS_SetPropertyGeneric">
<polygon fill="none" stroke="#ff0000" points="340.5,-338.1476 340.5,-357.1476 459.5,-357.1476 459.5,-338.1476 340.5,-338.1476"/>
<text text-anchor="middle" x="400" y="-345.1476" font-family="Helvetica,sans-Serif" font-size="10.00" fill="#000000">JS_SetPropertyGeneric</text>
</a>
</g>
</g>
<!-- Node179399&#45;&gt;Node179518 -->
<g id="edge36" class="edge">
<title>Node179399&#45;&gt;Node179518</title>
<path fill="none" stroke="#191970" d="M267.7003,-374.0381C294.7938,-368.6336 326.625,-362.2841 352.2745,-357.1676"/>
<polygon fill="#191970" stroke="#191970" points="266.6933,-370.6699 257.5712,-376.0586 268.0627,-377.5347 266.6933,-370.6699"/>
</g>
<!-- Node179401 -->
<g id="node4" class="node">
<title>Node179401</title>
<g id="a_node4"><a xlink:href="quickjs_8c.html#ac2894ff4edcdb4e6841bcce9c76081e3" target="_top" xlink:title="JS_CallInternal">
<polygon fill="none" stroke="#ff0000" points="703,-300.1476 703,-319.1476 786,-319.1476 786,-300.1476 703,-300.1476"/>
<text text-anchor="middle" x="744.5" y="-307.1476" font-family="Helvetica,sans-Serif" font-size="10.00" fill="#000000">JS_CallInternal</text>
</a>
</g>
</g>
<!-- Node179400&#45;&gt;Node179401 -->
<g id="edge3" class="edge">
<title>Node179400&#45;&gt;Node179401</title>
<path fill="none" stroke="#191970" d="M659.5012,-659.6924C661.0866,-658.4458 662.592,-657.1001 664,-655.6476 712.9353,-605.1642 738.5582,-370.1527 743.5778,-319.3479"/>
<polygon fill="#191970" stroke="#191970" points="657.528,-656.7997 650.9868,-665.1341 661.2978,-662.6979 657.528,-656.7997"/>
</g>
<!-- Node179680 -->
<g id="node5" class="node">
<title>Node179680</title>
<g id="a_node5"><a xlink:href="quickjs_8c.html#ae69502aeeec991fb0bf5a9657aaa7453" target="_top" xlink:title="js_object_assign">
<polygon fill="none" stroke="#000000" points="700,-665.1476 700,-684.1476 789,-684.1476 789,-665.1476 700,-665.1476"/>
<text text-anchor="middle" x="744.5" y="-672.1476" font-family="Helvetica,sans-Serif" font-size="10.00" fill="#000000">js_object_assign</text>
</a>
</g>
</g>
<!-- Node179400&#45;&gt;Node179680 -->
<g id="edge5" class="edge">
<title>Node179400&#45;&gt;Node179680</title>
<path fill="none" stroke="#191970" d="M664.0341,-674.6476C676.1906,-674.6476 688.4999,-674.6476 699.7123,-674.6476"/>
<polygon fill="#191970" stroke="#191970" points="663.8861,-671.1477 653.8861,-674.6476 663.886,-678.1477 663.8861,-671.1477"/>
</g>
<!-- Node179401&#45;&gt;Node179401 -->
<g id="edge4" class="edge">
<title>Node179401&#45;&gt;Node179401</title>
<path fill="none" stroke="#191970" d="M716.1275,-328.3015C717.3135,-333.5844 726.771,-337.6476 744.5,-337.6476 771.5156,-337.6476 779.3248,-328.2129 767.9276,-319.4047"/>
<polygon fill="#191970" stroke="#191970" points="719.2735,-329.8457 721.0724,-319.4047 713.1551,-326.445 719.2735,-329.8457"/>
</g>
<!-- Node179697 -->
<g id="node7" class="node">
<title>Node179697</title>
<g id="a_node7"><a xlink:href="quickjs_8c.html#ac6d5606ba25525b3a03981eefbe98e13" target="_top" xlink:title="js_function_bind">
<polygon fill="none" stroke="#000000" points="549,-703.1476 549,-722.1476 636,-722.1476 636,-703.1476 549,-703.1476"/>
<text text-anchor="middle" x="592.5" y="-710.1476" font-family="Helvetica,sans-Serif" font-size="10.00" fill="#000000">js_function_bind</text>
</a>
</g>
</g>
<!-- Node180003&#45;&gt;Node179697 -->
<g id="edge7" class="edge">
<title>Node180003&#45;&gt;Node179697</title>
<path fill="none" stroke="#191970" d="M463.7065,-705.288C491.6436,-706.8844 523.7265,-708.7177 548.8827,-710.1552"/>
<polygon fill="#191970" stroke="#191970" points="463.8054,-701.788 453.622,-704.7117 463.406,-708.7766 463.8054,-701.788"/>
</g>
<!-- Node180004&#45;&gt;Node179400 -->
<g id="edge12" class="edge">
<title>Node180004&#45;&gt;Node179400</title>
<path fill="none" stroke="#191970" d="M414.9092,-566.9661C436.1229,-590.5177 477.3169,-632.3715 521,-655.6476 528.2546,-659.5131 536.3506,-662.6334 544.414,-665.1394"/>
<polygon fill="#191970" stroke="#191970" points="417.2759,-564.359 408.03,-559.1856 412.0317,-568.9957 417.2759,-564.359"/>
</g>
<!-- Node180004&#45;&gt;Node179626 -->
<g id="edge15" class="edge">
<title>Node180004&#45;&gt;Node179626</title>
<path fill="none" stroke="#191970" d="M422.9175,-564.851C446.6222,-580.0094 485.1297,-603.0761 521,-617.6476 530.0437,-621.3214 540.0194,-624.4885 549.5765,-627.1258"/>
<polygon fill="#191970" stroke="#191970" points="424.5971,-561.7689 414.3009,-559.2709 420.792,-567.6444 424.5971,-561.7689"/>
</g>
<!-- Node180005 -->
<g id="node10" class="node">
<title>Node180005</title>
<g id="a_node10"><a xlink:href="quickjs_8c.html#a160229a9daaaf70e287d6dadb69bc609" target="_top" xlink:title="JS_GetOwnPropertyNames">
<polygon fill="none" stroke="#ff0000" points="523.5,-551.1476 523.5,-570.1476 661.5,-570.1476 661.5,-551.1476 523.5,-551.1476"/>
<text text-anchor="middle" x="592.5" y="-558.1476" font-family="Helvetica,sans-Serif" font-size="10.00" fill="#000000">JS_GetOwnPropertyNames</text>
</a>
</g>
</g>
<!-- Node180004&#45;&gt;Node180005 -->
<g id="edge10" class="edge">
<title>Node180004&#45;&gt;Node180005</title>
<path fill="none" stroke="#191970" d="M495.4898,-555.1042C504.9237,-555.6432 514.3673,-556.1829 523.4582,-556.7023"/>
<polygon fill="#191970" stroke="#191970" points="495.4574,-551.5967 485.274,-554.5204 495.058,-558.5853 495.4574,-551.5967"/>
</g>
<!-- Node179644 -->
<g id="node11" class="node">
<title>Node179644</title>
<g id="a_node11"><a xlink:href="quickjs_8c.html#aa40a5354bee3b56e05a71244910bcc78" target="_top" xlink:title="build_for_in_iterator">
<polygon fill="none" stroke="#ff0000" points="542,-741.1476 542,-760.1476 643,-760.1476 643,-741.1476 542,-741.1476"/>
<text text-anchor="middle" x="592.5" y="-748.1476" font-family="Helvetica,sans-Serif" font-size="10.00" fill="#000000">build_for_in_iterator</text>
</a>
</g>
</g>
<!-- Node180004&#45;&gt;Node179644 -->
<g id="edge11" class="edge">
<title>Node180004&#45;&gt;Node179644</title>
<path fill="none" stroke="#191970" d="M411.5845,-567.815C440.3141,-612.7673 513.1004,-725.9853 521,-731.6476 527.2636,-736.1372 534.5187,-739.566 541.9565,-742.1846"/>
<polygon fill="#191970" stroke="#191970" points="414.4934,-565.867 406.1618,-559.3221 408.5934,-569.6341 414.4934,-565.867"/>
</g>
<!-- Node179690 -->
<g id="node12" class="node">
<title>Node179690</title>
<g id="a_node12"><a xlink:href="quickjs_8c.html#ab2de4cc7a9e58c7a6220acf9e4769d62" target="_top" xlink:title="JS_ObjectDefineProperties">
<polygon fill="none" stroke="#ff0000" points="525,-513.1476 525,-532.1476 660,-532.1476 660,-513.1476 525,-513.1476"/>
<text text-anchor="middle" x="592.5" y="-520.1476" font-family="Helvetica,sans-Serif" font-size="10.00" fill="#000000">JS_ObjectDefineProperties</text>
</a>
</g>
</g>
<!-- Node180004&#45;&gt;Node179690 -->
<g id="edge13" class="edge">
<title>Node180004&#45;&gt;Node179690</title>
<path fill="none" stroke="#191970" d="M477.9774,-538.7105C493.5329,-536.5287 509.7495,-534.2542 524.9203,-532.1263"/>
<polygon fill="#191970" stroke="#191970" points="477.2852,-535.2732 467.8683,-540.1284 478.2575,-542.2054 477.2852,-535.2732"/>
</g>
<!-- Node179684 -->
<g id="node13" class="node">
<title>Node179684</title>
<g id="a_node13"><a xlink:href="quickjs_8c.html#ad4eec5e88dc04d884c28e0f09d9a81f5" target="_top" xlink:title="js_object_getOwnProperty\lDescriptors">
<polygon fill="none" stroke="#000000" points="527,-376.6476 527,-406.6476 658,-406.6476 658,-376.6476 527,-376.6476"/>
<text text-anchor="start" x="535" y="-394.6476" font-family="Helvetica,sans-Serif" font-size="10.00" fill="#000000">js_object_getOwnProperty</text>
<text text-anchor="middle" x="592.5" y="-383.6476" font-family="Helvetica,sans-Serif" font-size="10.00" fill="#000000">Descriptors</text>
</a>
</g>
</g>
<!-- Node180004&#45;&gt;Node179684 -->
<g id="edge14" class="edge">
<title>Node180004&#45;&gt;Node179684</title>
<path fill="none" stroke="#191970" d="M415.7145,-532.1524C447.733,-496.5357 517.7914,-418.7704 521,-416.6476 526.7029,-412.8746 533.0391,-409.6028 539.516,-406.7844"/>
<polygon fill="#191970" stroke="#191970" points="412.8823,-530.0677 408.8013,-539.8451 418.0888,-534.7466 412.8823,-530.0677"/>
</g>
<!-- Node180004&#45;&gt;Node179710 -->
<g id="edge16" class="edge">
<title>Node180004&#45;&gt;Node179710</title>
<path fill="none" stroke="#191970" d="M447.5012,-561.7388C480.661,-570.1795 524.3094,-581.29 555.0219,-589.1077"/>
<polygon fill="#191970" stroke="#191970" points="448.1273,-558.2866 437.5729,-559.2116 446.4005,-565.0703 448.1273,-558.2866"/>
</g>
<!-- Node180004&#45;&gt;Node179999 -->
<g id="edge17" class="edge">
<title>Node180004&#45;&gt;Node179999</title>
<path fill="none" stroke="#191970" d="M451.92,-537.4254C463.0351,-534.1383 474.5667,-530.2054 485,-525.6476 502.1831,-518.1411 503.7594,-511.0211 521,-503.6476 529.6208,-499.9606 539.139,-496.8314 548.3418,-494.2417"/>
<polygon fill="#191970" stroke="#191970" points="450.9672,-534.0574 442.2974,-540.1472 452.8726,-540.7932 450.9672,-534.0574"/>
</g>
<!-- Node180004&#45;&gt;Node179743 -->
<g id="edge18" class="edge">
<title>Node180004&#45;&gt;Node179743</title>
<path fill="none" stroke="#191970" d="M420.9485,-534.0755C449.8439,-512.7777 500.6641,-476.0184 521,-465.6476 528.146,-462.0033 535.946,-458.6763 543.6828,-455.7223"/>
<polygon fill="#191970" stroke="#191970" points="418.703,-531.383 412.7429,-540.1425 422.8646,-537.0116 418.703,-531.383"/>
</g>
<!-- Node179765&#45;&gt;Node179401 -->
<g id="edge20" class="edge">
<title>Node179765&#45;&gt;Node179401</title>
<path fill="none" stroke="#191970" d="M455.2596,-275.3538C508.7739,-279.2535 592.1399,-286.1486 664,-295.6476 676.6568,-297.3207 690.3638,-299.5477 702.8182,-301.7324"/>
<polygon fill="#191970" stroke="#191970" points="455.1923,-271.84 444.9671,-274.6139 454.6903,-278.822 455.1923,-271.84"/>
</g>
<!-- Node179765&#45;&gt;Node179773 -->
<g id="edge21" class="edge">
<title>Node179765&#45;&gt;Node179773</title>
<path fill="none" stroke="#191970" d="M454.7223,-263.9455C465.1375,-261.2377 475.6837,-257.5818 485,-252.6476 529.8077,-228.9159 569.6106,-181.4754 585.3463,-161.1971"/>
<polygon fill="#191970" stroke="#191970" points="453.7607,-260.5759 444.821,-266.262 455.3554,-267.3918 453.7607,-260.5759"/>
</g>
<!-- Node179683&#45;&gt;Node179684 -->
<g id="edge24" class="edge">
<title>Node179683&#45;&gt;Node179684</title>
<path fill="none" stroke="#191970" d="M475.5494,-414.734C492.4664,-411.3945 510.279,-407.8782 526.7604,-404.6248"/>
<polygon fill="#191970" stroke="#191970" points="474.842,-411.306 465.7092,-416.6764 476.1977,-418.1734 474.842,-411.306"/>
</g>
<!-- Node179518&#45;&gt;Node179401 -->
<g id="edge37" class="edge">
<title>Node179518&#45;&gt;Node179401</title>
<path fill="none" stroke="#191970" d="M465.402,-336.5093C483.3855,-333.6838 502.9157,-330.8333 521,-328.6476 584.2102,-321.0078 657.8453,-315.3765 702.8056,-312.3045"/>
<polygon fill="#191970" stroke="#191970" points="464.628,-333.0884 455.3032,-338.1183 465.7294,-340.0012 464.628,-333.0884"/>
</g>
<!-- Node179518&#45;&gt;Node179520 -->
<g id="edge38" class="edge">
<title>Node179518&#45;&gt;Node179520</title>
<path fill="none" stroke="#191970" d="M469.8052,-347.6476C499.1611,-347.6476 532.0751,-347.6476 556.4171,-347.6476"/>
<polygon fill="#191970" stroke="#191970" points="469.5899,-344.1477 459.5899,-347.6476 469.5899,-351.1477 469.5899,-344.1477"/>
</g>
<!-- Node179724&#45;&gt;Node179401 -->
<g id="edge40" class="edge">
<title>Node179724&#45;&gt;Node179401</title>
<path fill="none" stroke="#191970" d="M251.4733,-19.6136C306.4154,-5.9049 405.1155,11.6518 485,-12.6476 576.6331,-40.5207 602.0396,-59.6104 664,-132.6476 709.8609,-186.7071 734.6507,-271.1807 742.0788,-299.793"/>
<polygon fill="#191970" stroke="#191970" points="250.551,-16.2368 241.7381,-22.1176 252.2947,-23.0162 250.551,-16.2368"/>
</g>
<!-- Node179724&#45;&gt;Node179985 -->
<g id="edge41" class="edge">
<title>Node179724&#45;&gt;Node179985</title>
<path fill="none" stroke="#191970" d="M279.6099,-31.6476C308.1784,-31.6476 339.9967,-31.6476 363.7446,-31.6476"/>
<polygon fill="#191970" stroke="#191970" points="279.2527,-28.1477 269.2527,-31.6476 279.2527,-35.1477 279.2527,-28.1477"/>
</g>
<!-- Node179521&#45;&gt;Node179401 -->
<g id="edge44" class="edge">
<title>Node179521&#45;&gt;Node179401</title>
<path fill="none" stroke="#191970" d="M438.4314,-789.9516C495.1267,-805.4647 601.228,-824.0314 664,-769.6476 699.6934,-738.7238 737.0986,-383.0342 743.5317,-319.3708"/>
<polygon fill="#191970" stroke="#191970" points="439.3495,-786.574 428.7736,-787.2068 437.4358,-793.3073 439.3495,-786.574"/>
</g>
<!-- Node179521&#45;&gt;Node179644 -->
<g id="edge43" class="edge">
<title>Node179521&#45;&gt;Node179644</title>
<path fill="none" stroke="#191970" d="M469.2005,-767.9415C493.2469,-764.5688 519.7449,-760.8522 541.9936,-757.7316"/>
<polygon fill="#191970" stroke="#191970" points="468.4814,-764.5081 459.0646,-769.3632 469.4538,-771.4402 468.4814,-764.5081"/>
</g>
</g>
</svg>
