<?xml version="1.0" encoding="UTF-8" standalone="no"?>
<!DOCTYPE svg PUBLIC "-//W3C//DTD SVG 1.1//EN"
 "http://www.w3.org/Graphics/SVG/1.1/DTD/svg11.dtd">
<!-- Generated by graphviz version 2.40.1 (20161225.0304)
 -->
<!-- Title: js_module_set_import_meta Pages: 1 -->
<!--zoomable 85 -->
<svg id="main" version="1.1" xmlns="http://www.w3.org/2000/svg" xmlns:xlink="http://www.w3.org/1999/xlink" xml:space="preserve" onload="init(evt)">
<style type="text/css"><![CDATA[
.edge:hover path { stroke: red; }
.edge:hover polygon { stroke: red; fill: red; }
]]></style>
<script type="text/javascript"><![CDATA[
var edges = document.getElementsByTagName('g');
if (edges && edges.length) {
  for (var i=0;i<edges.length;i++) {
    if (edges[i].id.substr(0,4)=='edge') {
      edges[i].setAttribute('class','edge');
    }
  }
}
]]></script>
        <defs>
                <circle id="rim" cx="0" cy="0" r="7"/>
                <circle id="rim2" cx="0" cy="0" r="3.5"/>
                <g id="zoomPlus">
                        <use xlink:href="#rim" fill="#404040">
                                <set attributeName="fill" to="#808080" begin="zoomplus.mouseover" end="zoomplus.mouseout"/>
                        </use>
                        <path d="M-4,0h8M0,-4v8" fill="none" stroke="white" stroke-width="1.5" pointer-events="none"/>
                </g>
                <g id="zoomMin">
                        <use xlink:href="#rim" fill="#404040">
                                <set attributeName="fill" to="#808080" begin="zoomminus.mouseover" end="zoomminus.mouseout"/>
                        </use>
                        <path d="M-4,0h8" fill="none" stroke="white" stroke-width="1.5" pointer-events="none"/>
                </g>
                <g id="dirArrow">
                        <path fill="none" stroke="white" stroke-width="1.5" d="M0,-3.0v7 M-2.5,-0.5L0,-3.0L2.5,-0.5"/>
                </g>
               <g id="resetDef">
                       <use xlink:href="#rim2" fill="#404040">
                               <set attributeName="fill" to="#808080" begin="reset.mouseover" end="reset.mouseout"/>
                       </use>
               </g>
        </defs>

<script type="text/javascript">
var viewWidth = 503;
var viewHeight = 85;
var sectionId = 'dynsection-19';
</script>
<script xlink:href="svgpan.js"/>
<svg id="graph" class="graph">
<g id="viewport">
<title>js_module_set_import_meta</title>
<!-- Node2780 -->
<g id="node1" class="node">
<title>Node2780</title>
<polygon fill="#bfbfbf" stroke="#000000" points="0,-19.5 0,-38.5 139,-38.5 139,-19.5 0,-19.5"/>
<text text-anchor="middle" x="69.5" y="-26.5" font-family="Helvetica,sans-Serif" font-size="10.00" fill="#000000">js_module_set_import_meta</text>
</g>
<!-- Node2781 -->
<g id="node2" class="node">
<title>Node2781</title>
<g id="a_node2"><a xlink:href="quickjs-libc_8c.html#ad61d60681847f324c5ba4ad88c546f1e" target="_top" xlink:title="js_module_loader">
<polygon fill="none" stroke="#000000" points="178,-38.5 178,-57.5 270,-57.5 270,-38.5 178,-38.5"/>
<text text-anchor="middle" x="224" y="-45.5" font-family="Helvetica,sans-Serif" font-size="10.00" fill="#000000">js_module_loader</text>
</a>
</g>
</g>
<!-- Node2780&#45;&gt;Node2781 -->
<g id="edge1" class="edge">
<title>Node2780&#45;&gt;Node2781</title>
<path fill="none" stroke="#191970" d="M149.2592,-38.8086C159.0468,-40.0122 168.7806,-41.2093 177.8313,-42.3223"/>
<polygon fill="#191970" stroke="#191970" points="149.4189,-35.3019 139.0665,-37.5551 148.5645,-42.2496 149.4189,-35.3019"/>
</g>
<!-- Node2787 -->
<g id="node6" class="node">
<title>Node2787</title>
<g id="a_node6"><a xlink:href="quickjs-libc_8c.html#ab1b439d304c2125490b47ef262b5df67" target="_top" xlink:title="js_std_eval_binary">
<polygon fill="none" stroke="#000000" points="175,-.5 175,-19.5 273,-19.5 273,-.5 175,-.5"/>
<text text-anchor="middle" x="224" y="-7.5" font-family="Helvetica,sans-Serif" font-size="10.00" fill="#000000">js_std_eval_binary</text>
</a>
</g>
</g>
<!-- Node2780&#45;&gt;Node2787 -->
<g id="edge5" class="edge">
<title>Node2780&#45;&gt;Node2787</title>
<path fill="none" stroke="#191970" d="M149.2366,-19.1942C157.9061,-18.1281 166.5337,-17.0671 174.6821,-16.065"/>
<polygon fill="#191970" stroke="#191970" points="148.5645,-15.7504 139.0665,-20.4449 149.4189,-22.6981 148.5645,-15.7504"/>
</g>
<!-- Node2782 -->
<g id="node3" class="node">
<title>Node2782</title>
<g id="a_node3"><a xlink:href="qjs_8cpp.html#a3c04138a5bfe5d72780bb7e82a18e627" target="_top" xlink:title="main">
<polygon fill="none" stroke="#000000" points="325,-57.5 325,-76.5 363,-76.5 363,-57.5 325,-57.5"/>
<text text-anchor="middle" x="344" y="-64.5" font-family="Helvetica,sans-Serif" font-size="10.00" fill="#000000">main</text>
</a>
</g>
</g>
<!-- Node2781&#45;&gt;Node2782 -->
<g id="edge2" class="edge">
<title>Node2781&#45;&gt;Node2782</title>
<path fill="none" stroke="#191970" d="M280.0009,-56.8668C296.1271,-59.4201 312.6402,-62.0347 324.853,-63.9684"/>
<polygon fill="#191970" stroke="#191970" points="280.4763,-53.3986 270.0519,-55.2916 279.3815,-60.3124 280.4763,-53.3986"/>
</g>
<!-- Node2783 -->
<g id="node4" class="node">
<title>Node2783</title>
<g id="a_node4"><a xlink:href="quickjs-libc_8c.html#a1fbb3adc15e7b967479fc1940e99b67a" target="_top" xlink:title="worker_func">
<polygon fill="none" stroke="#000000" points="309,-19.5 309,-38.5 379,-38.5 379,-19.5 309,-19.5"/>
<text text-anchor="middle" x="344" y="-26.5" font-family="Helvetica,sans-Serif" font-size="10.00" fill="#000000">worker_func</text>
</a>
</g>
</g>
<!-- Node2781&#45;&gt;Node2783 -->
<g id="edge3" class="edge">
<title>Node2781&#45;&gt;Node2783</title>
<path fill="none" stroke="#191970" d="M280.1055,-39.1166C289.842,-37.575 299.7158,-36.0117 308.6957,-34.5899"/>
<polygon fill="#191970" stroke="#191970" points="279.3815,-35.6876 270.0519,-40.7084 280.4763,-42.6014 279.3815,-35.6876"/>
</g>
<!-- Node2784 -->
<g id="node5" class="node">
<title>Node2784</title>
<g id="a_node5"><a xlink:href="quickjs-libc_8c.html#aff1e6131e8bf8b7eb25307623ad669e7" target="_top" xlink:title="js_worker_ctor">
<polygon fill="none" stroke="#ff0000" points="415,-19.5 415,-38.5 495,-38.5 495,-19.5 415,-19.5"/>
<text text-anchor="middle" x="455" y="-26.5" font-family="Helvetica,sans-Serif" font-size="10.00" fill="#000000">js_worker_ctor</text>
</a>
</g>
</g>
<!-- Node2783&#45;&gt;Node2784 -->
<g id="edge4" class="edge">
<title>Node2783&#45;&gt;Node2784</title>
<path fill="none" stroke="#191970" d="M389.1986,-29C397.6394,-29 406.4096,-29 414.691,-29"/>
<polygon fill="#191970" stroke="#191970" points="389.1211,-25.5001 379.1211,-29 389.1211,-32.5001 389.1211,-25.5001"/>
</g>
</g>
</svg>
        <g id="navigator" transform="translate(0 0)" fill="#404254">
                <rect fill="#f2f5e9" fill-opacity="0.5" stroke="#606060" stroke-width=".5" x="0" y="0" width="60" height="60"/>
                <use id="zoomplus" xlink:href="#zoomPlus" x="17" y="9" onmousedown="handleZoom(evt,'in')"/>
                <use id="zoomminus" xlink:href="#zoomMin" x="42" y="9" onmousedown="handleZoom(evt,'out')"/>
                <use id="reset" xlink:href="#resetDef" x="30" y="36" onmousedown="handleReset()"/>
                <g id="arrowUp" xlink:href="#dirArrow" transform="translate(30 24)" onmousedown="handlePan(0,-1)">
                  <use xlink:href="#rim" fill="#404040">
                        <set attributeName="fill" to="#808080" begin="arrowUp.mouseover" end="arrowUp.mouseout"/>
                  </use>
                  <path fill="none" stroke="white" stroke-width="1.5" d="M0,-3.0v7 M-2.5,-0.5L0,-3.0L2.5,-0.5"/>
                </g>
                <g id="arrowRight" xlink:href="#dirArrow" transform="rotate(90) translate(36 -43)" onmousedown="handlePan(1,0)">
                  <use xlink:href="#rim" fill="#404040">
                        <set attributeName="fill" to="#808080" begin="arrowRight.mouseover" end="arrowRight.mouseout"/>
                  </use>
                  <path fill="none" stroke="white" stroke-width="1.5" d="M0,-3.0v7 M-2.5,-0.5L0,-3.0L2.5,-0.5"/>
                </g>
                <g id="arrowDown" xlink:href="#dirArrow" transform="rotate(180) translate(-30 -48)" onmousedown="handlePan(0,1)">
                  <use xlink:href="#rim" fill="#404040">
                        <set attributeName="fill" to="#808080" begin="arrowDown.mouseover" end="arrowDown.mouseout"/>
                  </use>
                  <path fill="none" stroke="white" stroke-width="1.5" d="M0,-3.0v7 M-2.5,-0.5L0,-3.0L2.5,-0.5"/>
                </g>
                <g id="arrowLeft" xlink:href="#dirArrow" transform="rotate(270) translate(-36 17)" onmousedown="handlePan(-1,0)">
                  <use xlink:href="#rim" fill="#404040">
                        <set attributeName="fill" to="#808080" begin="arrowLeft.mouseover" end="arrowLeft.mouseout"/>
                  </use>
                  <path fill="none" stroke="white" stroke-width="1.5" d="M0,-3.0v7 M-2.5,-0.5L0,-3.0L2.5,-0.5"/>
                </g>
        </g>
        <svg viewBox="0 0 15 15" width="100%" height="30px" preserveAspectRatio="xMaxYMin meet">
         <g id="arrow_out" transform="scale(0.3 0.3)">
          <a xlink:href="quickjs-libc_8h_a5cc3e22713f1916d49867f60a7375505_icgraph_org.svg" target="_base">
           <rect id="button" ry="5" rx="5" y="6" x="6" height="38" width="38"
                fill="#f2f5e9" fill-opacity="0.5" stroke="#606060" stroke-width="1.0"/>
           <path id="arrow"
             d="M 11.500037,31.436501 C 11.940474,20.09759 22.043105,11.32322 32.158766,21.979434 L 37.068811,17.246167 C 37.068811,17.246167 37.088388,32 37.088388,32 L 22.160133,31.978069 C 22.160133,31.978069 26.997745,27.140456 26.997745,27.140456 C 18.528582,18.264221 13.291696,25.230495 11.500037,31.436501 z"
             style="fill:#404040;"/>
          </a>
         </g>
        </svg>
</svg>
