<?xml version="1.0" encoding="UTF-8" standalone="no"?>
<!DOCTYPE svg PUBLIC "-//W3C//DTD SVG 1.1//EN"
 "http://www.w3.org/Graphics/SVG/1.1/DTD/svg11.dtd">
<!-- Generated by graphviz version 2.40.1 (20161225.0304)
 -->
<!-- Title: js_module_loader Pages: 1 -->
<svg width="416pt" height="66pt"
 viewBox="0.00 0.00 416.00 66.00" xmlns="http://www.w3.org/2000/svg" xmlns:xlink="http://www.w3.org/1999/xlink">
<g id="graph0" class="graph" transform="scale(1 1) rotate(0) translate(4 62)">
<title>js_module_loader</title>
<!-- Node3229 -->
<g id="node1" class="node">
<title>Node3229</title>
<polygon fill="#bfbfbf" stroke="#000000" points="0,-19.5 0,-38.5 92,-38.5 92,-19.5 0,-19.5"/>
<text text-anchor="middle" x="46" y="-26.5" font-family="Helvetica,sans-Serif" font-size="10.00" fill="#000000">js_module_loader</text>
</g>
<!-- Node3230 -->
<g id="node2" class="node">
<title>Node3230</title>
<g id="a_node2"><a xlink:href="qjs_8cpp.html#a3c04138a5bfe5d72780bb7e82a18e627" target="_top" xlink:title="main">
<polygon fill="none" stroke="#000000" points="144,-38.5 144,-57.5 182,-57.5 182,-38.5 144,-38.5"/>
<text text-anchor="middle" x="163" y="-45.5" font-family="Helvetica,sans-Serif" font-size="10.00" fill="#000000">main</text>
</a>
</g>
</g>
<!-- Node3229&#45;&gt;Node3230 -->
<g id="edge1" class="edge">
<title>Node3229&#45;&gt;Node3230</title>
<path fill="none" stroke="#191970" d="M102.4969,-38.1747C117.4195,-40.598 132.5162,-43.0496 143.8966,-44.8977"/>
<polygon fill="#191970" stroke="#191970" points="102.6732,-34.6576 92.2415,-36.5093 101.5511,-41.5671 102.6732,-34.6576"/>
</g>
<!-- Node3231 -->
<g id="node3" class="node">
<title>Node3231</title>
<g id="a_node3"><a xlink:href="quickjs-libc_8c.html#a1fbb3adc15e7b967479fc1940e99b67a" target="_top" xlink:title="worker_func">
<polygon fill="none" stroke="#000000" points="128,-.5 128,-19.5 198,-19.5 198,-.5 128,-.5"/>
<text text-anchor="middle" x="163" y="-7.5" font-family="Helvetica,sans-Serif" font-size="10.00" fill="#000000">worker_func</text>
</a>
</g>
</g>
<!-- Node3229&#45;&gt;Node3231 -->
<g id="edge2" class="edge">
<title>Node3229&#45;&gt;Node3231</title>
<path fill="none" stroke="#191970" d="M102.387,-19.8431C111.0934,-18.4293 119.8623,-17.0053 127.9209,-15.6966"/>
<polygon fill="#191970" stroke="#191970" points="101.5511,-16.4329 92.2415,-21.4907 102.6732,-23.3424 101.5511,-16.4329"/>
</g>
<!-- Node3232 -->
<g id="node4" class="node">
<title>Node3232</title>
<g id="a_node4"><a xlink:href="quickjs-libc_8c.html#aff1e6131e8bf8b7eb25307623ad669e7" target="_top" xlink:title="js_worker_ctor">
<polygon fill="none" stroke="#000000" points="234,-.5 234,-19.5 314,-19.5 314,-.5 234,-.5"/>
<text text-anchor="middle" x="274" y="-7.5" font-family="Helvetica,sans-Serif" font-size="10.00" fill="#000000">js_worker_ctor</text>
</a>
</g>
</g>
<!-- Node3231&#45;&gt;Node3232 -->
<g id="edge3" class="edge">
<title>Node3231&#45;&gt;Node3232</title>
<path fill="none" stroke="#191970" d="M208.1986,-10C216.6394,-10 225.4096,-10 233.691,-10"/>
<polygon fill="#191970" stroke="#191970" points="208.1211,-6.5001 198.1211,-10 208.1211,-13.5001 208.1211,-6.5001"/>
</g>
<!-- Node3233 -->
<g id="node5" class="node">
<title>Node3233</title>
<g id="a_node5"><a xlink:href="quickjs-libc_8c.html#a066e7962ce24f22d5df20968a8baa346" target="_top" xlink:title="js_os_init">
<polygon fill="none" stroke="#ff0000" points="350,-.5 350,-19.5 408,-19.5 408,-.5 350,-.5"/>
<text text-anchor="middle" x="379" y="-7.5" font-family="Helvetica,sans-Serif" font-size="10.00" fill="#000000">js_os_init</text>
</a>
</g>
</g>
<!-- Node3232&#45;&gt;Node3233 -->
<g id="edge4" class="edge">
<title>Node3232&#45;&gt;Node3233</title>
<path fill="none" stroke="#191970" d="M324.3994,-10C333.0852,-10 341.8478,-10 349.7342,-10"/>
<polygon fill="#191970" stroke="#191970" points="324.2955,-6.5001 314.2954,-10 324.2954,-13.5001 324.2955,-6.5001"/>
</g>
</g>
</svg>
