<?xml version="1.0" encoding="UTF-8" standalone="no"?>
<!DOCTYPE svg PUBLIC "-//W3C//DTD SVG 1.1//EN"
 "http://www.w3.org/Graphics/SVG/1.1/DTD/svg11.dtd">
<!-- Generated by graphviz version 2.40.1 (20161225.0304)
 -->
<!-- Title: JS_DefineGlobalVar Pages: 1 -->
<svg width="811pt" height="541pt"
 viewBox="0.00 0.00 811.00 541.13" xmlns="http://www.w3.org/2000/svg" xmlns:xlink="http://www.w3.org/1999/xlink">
<g id="graph0" class="graph" transform="scale(1 1) rotate(0) translate(4 537.1301)">
<title>JS_DefineGlobalVar</title>
<!-- Node215532 -->
<g id="node1" class="node">
<title>Node215532</title>
<polygon fill="#bfbfbf" stroke="#000000" points="0,-418.5 0,-437.5 105,-437.5 105,-418.5 0,-418.5"/>
<text text-anchor="middle" x="52.5" y="-425.5" font-family="Helvetica,sans-Serif" font-size="10.00" fill="#000000">JS_DefineGlobalVar</text>
</g>
<!-- Node215533 -->
<g id="node2" class="node">
<title>Node215533</title>
<g id="a_node2"><a xlink:href="quickjs_8c.html#a74547db03bf739a52c83a326b32db997" target="_top" xlink:title="add_property">
<polygon fill="none" stroke="#000000" points="141,-342.5 141,-361.5 214,-361.5 214,-342.5 141,-342.5"/>
<text text-anchor="middle" x="177.5" y="-349.5" font-family="Helvetica,sans-Serif" font-size="10.00" fill="#000000">add_property</text>
</a>
</g>
</g>
<!-- Node215532&#45;&gt;Node215533 -->
<g id="edge1" class="edge">
<title>Node215532&#45;&gt;Node215533</title>
<path fill="none" stroke="#191970" d="M68.3313,-418.3745C89.7458,-405.3546 128.1426,-382.0093 153.2178,-366.7636"/>
<polygon fill="#191970" stroke="#191970" points="155.0709,-369.7331 161.7972,-361.5473 151.4343,-363.7519 155.0709,-369.7331"/>
</g>
<!-- Node215591 -->
<g id="node24" class="node">
<title>Node215591</title>
<g id="a_node24"><a xlink:href="quickjs_8c.html#afdc6d90129958f6258bae1505495869f" target="_top" xlink:title="find_own_property1">
<polygon fill="none" stroke="#000000" points="420,-494.5 420,-513.5 521,-513.5 521,-494.5 420,-494.5"/>
<text text-anchor="middle" x="470.5" y="-501.5" font-family="Helvetica,sans-Serif" font-size="10.00" fill="#000000">find_own_property1</text>
</a>
</g>
</g>
<!-- Node215532&#45;&gt;Node215591 -->
<g id="edge38" class="edge">
<title>Node215532&#45;&gt;Node215591</title>
<path fill="none" stroke="#191970" d="M79.2539,-437.532C116.8557,-450.51 187.7175,-473.4435 250,-485 303.4485,-494.9174 365.1665,-499.6761 409.6891,-501.9491"/>
<polygon fill="#191970" stroke="#191970" points="409.6109,-505.4493 419.7683,-502.4362 409.9489,-498.4574 409.6109,-505.4493"/>
</g>
<!-- Node215534 -->
<g id="node3" class="node">
<title>Node215534</title>
<g id="a_node3"><a xlink:href="quickjs_8c.html#a3cadcaa2bd1e3f9359f1c006f396cfa0" target="_top" xlink:title="add_shape_property">
<polygon fill="none" stroke="#000000" points="260.5,-342.5 260.5,-361.5 364.5,-361.5 364.5,-342.5 260.5,-342.5"/>
<text text-anchor="middle" x="312.5" y="-349.5" font-family="Helvetica,sans-Serif" font-size="10.00" fill="#000000">add_shape_property</text>
</a>
</g>
</g>
<!-- Node215533&#45;&gt;Node215534 -->
<g id="edge2" class="edge">
<title>Node215533&#45;&gt;Node215534</title>
<path fill="none" stroke="#191970" d="M214.0329,-352C225.197,-352 237.804,-352 250.1776,-352"/>
<polygon fill="#191970" stroke="#191970" points="250.4798,-355.5001 260.4797,-352 250.4797,-348.5001 250.4798,-355.5001"/>
</g>
<!-- Node215539 -->
<g id="node7" class="node">
<title>Node215539</title>
<g id="a_node7"><a xlink:href="quickjs_8c.html#a82dbe63adeac7849406fd48d96f39f7b" target="_top" xlink:title="js_shape_hash_link">
<polygon fill="none" stroke="#000000" points="419.5,-418.5 419.5,-437.5 521.5,-437.5 521.5,-418.5 419.5,-418.5"/>
<text text-anchor="middle" x="470.5" y="-425.5" font-family="Helvetica,sans-Serif" font-size="10.00" fill="#000000">js_shape_hash_link</text>
</a>
</g>
</g>
<!-- Node215533&#45;&gt;Node215539 -->
<g id="edge37" class="edge">
<title>Node215533&#45;&gt;Node215539</title>
<path fill="none" stroke="#191970" d="M214.0045,-361.5921C225.5189,-364.6109 238.2892,-367.9518 250,-371 309.9425,-386.6022 379.0908,-404.4533 423.733,-415.9588"/>
<polygon fill="#191970" stroke="#191970" points="422.8697,-419.3506 433.4268,-418.4567 424.6165,-412.5721 422.8697,-419.3506"/>
</g>
<!-- Node215559 -->
<g id="node17" class="node">
<title>Node215559</title>
<g id="a_node17"><a xlink:href="quickjs_8c.html#ac0c5dbb01d6082796c44b1c7f7c170f1" target="_top" xlink:title="find_hashed_shape_prop">
<polygon fill="none" stroke="#000000" points="250,-456.5 250,-475.5 375,-475.5 375,-456.5 250,-456.5"/>
<text text-anchor="middle" x="312.5" y="-463.5" font-family="Helvetica,sans-Serif" font-size="10.00" fill="#000000">find_hashed_shape_prop</text>
</a>
</g>
</g>
<!-- Node215533&#45;&gt;Node215559 -->
<g id="edge19" class="edge">
<title>Node215533&#45;&gt;Node215559</title>
<path fill="none" stroke="#191970" d="M186.4024,-361.7281C199.6212,-375.9313 225.5185,-402.8444 250,-423 262.154,-433.0063 276.5839,-443.043 288.5148,-450.9001"/>
<polygon fill="#191970" stroke="#191970" points="286.777,-453.9446 297.0721,-456.447 290.5846,-448.0707 286.777,-453.9446"/>
</g>
<!-- Node215560 -->
<g id="node18" class="node">
<title>Node215560</title>
<g id="a_node18"><a xlink:href="quickjs_8c.html#a8e34657169da77ae6a386311351ed3de" target="_top" xlink:title="js_clone_shape">
<polygon fill="none" stroke="#000000" points="428.5,-152.5 428.5,-171.5 512.5,-171.5 512.5,-152.5 428.5,-152.5"/>
<text text-anchor="middle" x="470.5" y="-159.5" font-family="Helvetica,sans-Serif" font-size="10.00" fill="#000000">js_clone_shape</text>
</a>
</g>
</g>
<!-- Node215533&#45;&gt;Node215560 -->
<g id="edge22" class="edge">
<title>Node215533&#45;&gt;Node215560</title>
<path fill="none" stroke="#191970" d="M182.6904,-342.4358C193.205,-323.8152 218.7025,-282.3082 250,-257 301.8953,-215.0357 375.1291,-188.4023 422.7098,-174.3379"/>
<polygon fill="#191970" stroke="#191970" points="423.8185,-177.6608 432.4568,-171.5265 421.8785,-170.935 423.8185,-177.6608"/>
</g>
<!-- Node215563 -->
<g id="node21" class="node">
<title>Node215563</title>
<g id="a_node21"><a xlink:href="quickjs_8c.html#aed229eb80b3b03a2275471dee93c69d6" target="_top" xlink:title="js_dup_shape">
<polygon fill="none" stroke="#000000" points="274,-266.5 274,-285.5 351,-285.5 351,-266.5 274,-266.5"/>
<text text-anchor="middle" x="312.5" y="-273.5" font-family="Helvetica,sans-Serif" font-size="10.00" fill="#000000">js_dup_shape</text>
</a>
</g>
</g>
<!-- Node215533&#45;&gt;Node215563 -->
<g id="edge31" class="edge">
<title>Node215533&#45;&gt;Node215563</title>
<path fill="none" stroke="#191970" d="M187.4469,-342.167C200.682,-329.5852 225.2979,-307.8821 250,-295 254.5345,-292.6353 259.4108,-290.5141 264.3677,-288.624"/>
<polygon fill="#191970" stroke="#191970" points="265.6523,-291.8826 273.931,-285.2709 263.3361,-285.2769 265.6523,-291.8826"/>
</g>
<!-- Node215564 -->
<g id="node22" class="node">
<title>Node215564</title>
<g id="a_node22"><a xlink:href="quickjs_8c.html#a3a9f27520d96cf58aa5bd7359e9cddee" target="_top" xlink:title="js_free_shape">
<polygon fill="none" stroke="#000000" points="274,-304.5 274,-323.5 351,-323.5 351,-304.5 274,-304.5"/>
<text text-anchor="middle" x="312.5" y="-311.5" font-family="Helvetica,sans-Serif" font-size="10.00" fill="#000000">js_free_shape</text>
</a>
</g>
</g>
<!-- Node215533&#45;&gt;Node215564 -->
<g id="edge32" class="edge">
<title>Node215533&#45;&gt;Node215564</title>
<path fill="none" stroke="#191970" d="M211.5662,-342.411C228.9135,-337.5281 250.2022,-331.5357 268.7492,-326.315"/>
<polygon fill="#191970" stroke="#191970" points="269.7671,-329.6646 278.4447,-323.5859 267.8704,-322.9265 269.7671,-329.6646"/>
</g>
<!-- Node215535 -->
<g id="node4" class="node">
<title>Node215535</title>
<g id="a_node4"><a xlink:href="quickjs_8c.html#a288254c06a39c9fca740a7abdad2834e" target="_top" xlink:title="__JS_AtomIsTaggedInt">
<polygon fill="none" stroke="#000000" points="411,-266.5 411,-285.5 530,-285.5 530,-266.5 411,-266.5"/>
<text text-anchor="middle" x="470.5" y="-273.5" font-family="Helvetica,sans-Serif" font-size="10.00" fill="#000000">__JS_AtomIsTaggedInt</text>
</a>
</g>
</g>
<!-- Node215534&#45;&gt;Node215535 -->
<g id="edge3" class="edge">
<title>Node215534&#45;&gt;Node215535</title>
<path fill="none" stroke="#191970" d="M353.2763,-342.4934C360.7523,-339.9542 368.3019,-336.8221 375,-333 393.8519,-322.2428 392.6411,-311.5786 411,-300 417.2829,-296.0375 424.33,-292.5109 431.3169,-289.4618"/>
<polygon fill="#191970" stroke="#191970" points="432.8039,-292.635 440.7296,-285.6041 430.1493,-286.1579 432.8039,-292.635"/>
</g>
<!-- Node215536 -->
<g id="node5" class="node">
<title>Node215536</title>
<g id="a_node5"><a xlink:href="quickjs_8c.html#a643df594b75933007bcdbb071b5ea8c5" target="_top" xlink:title="get_shape_prop">
<polygon fill="none" stroke="#000000" points="579.5,-304.5 579.5,-323.5 665.5,-323.5 665.5,-304.5 579.5,-304.5"/>
<text text-anchor="middle" x="622.5" y="-311.5" font-family="Helvetica,sans-Serif" font-size="10.00" fill="#000000">get_shape_prop</text>
</a>
</g>
</g>
<!-- Node215534&#45;&gt;Node215536 -->
<g id="edge4" class="edge">
<title>Node215534&#45;&gt;Node215536</title>
<path fill="none" stroke="#191970" d="M364.7367,-345.5968C421.5471,-338.6329 511.8783,-327.5601 569.1298,-320.5421"/>
<polygon fill="#191970" stroke="#191970" points="569.5702,-324.0145 579.0701,-319.3237 568.7185,-317.0665 569.5702,-324.0145"/>
</g>
<!-- Node215537 -->
<g id="node6" class="node">
<title>Node215537</title>
<g id="a_node6"><a xlink:href="quickjs_8c.html#abbf44eaeace1104a6bef718fbf5700fe" target="_top" xlink:title="JS_DupAtom">
<polygon fill="none" stroke="#ff0000" points="585,-.5 585,-19.5 660,-19.5 660,-.5 585,-.5"/>
<text text-anchor="middle" x="622.5" y="-7.5" font-family="Helvetica,sans-Serif" font-size="10.00" fill="#000000">JS_DupAtom</text>
</a>
</g>
</g>
<!-- Node215534&#45;&gt;Node215537 -->
<g id="edge5" class="edge">
<title>Node215534&#45;&gt;Node215537</title>
<path fill="none" stroke="#191970" d="M362.6367,-342.4574C367.265,-339.983 371.5153,-336.8824 375,-333 432.4091,-269.0386 365.2041,-215.7297 411,-143 456.5657,-70.6359 490.1201,-68.4339 566,-29 570.0347,-26.9032 574.3488,-24.9665 578.7275,-23.1966"/>
<polygon fill="#191970" stroke="#191970" points="580.2007,-26.3822 588.333,-19.5914 577.7408,-19.8286 580.2007,-26.3822"/>
</g>
<!-- Node215534&#45;&gt;Node215539 -->
<g id="edge6" class="edge">
<title>Node215534&#45;&gt;Node215539</title>
<path fill="none" stroke="#191970" d="M329.3167,-361.555C348.7161,-372.4177 381.7082,-390.4039 411,-404 418.9153,-407.6739 427.5583,-411.3469 435.7425,-414.6754"/>
<polygon fill="#191970" stroke="#191970" points="434.4833,-417.9413 445.068,-418.404 437.0821,-411.4416 434.4833,-417.9413"/>
</g>
<!-- Node215541 -->
<g id="node9" class="node">
<title>Node215541</title>
<g id="a_node9"><a xlink:href="quickjs_8c.html#ae5e76f4be6214208cc91f10a192fc810" target="_top" xlink:title="js_shape_hash_unlink">
<polygon fill="none" stroke="#000000" points="566,-342.5 566,-361.5 679,-361.5 679,-342.5 566,-342.5"/>
<text text-anchor="middle" x="622.5" y="-349.5" font-family="Helvetica,sans-Serif" font-size="10.00" fill="#000000">js_shape_hash_unlink</text>
</a>
</g>
</g>
<!-- Node215534&#45;&gt;Node215541 -->
<g id="edge8" class="edge">
<title>Node215534&#45;&gt;Node215541</title>
<path fill="none" stroke="#191970" d="M364.7367,-352C417.3148,-352 498.6052,-352 555.8111,-352"/>
<polygon fill="#191970" stroke="#191970" points="555.8434,-355.5001 565.8434,-352 555.8433,-348.5001 555.8434,-355.5001"/>
</g>
<!-- Node215542 -->
<g id="node10" class="node">
<title>Node215542</title>
<g id="a_node10"><a xlink:href="quickjs_8c.html#acab22c2945c4d609e57a2484feb68a96" target="_top" xlink:title="prop_hash_end">
<polygon fill="none" stroke="#000000" points="717.5,-323.5 717.5,-342.5 800.5,-342.5 800.5,-323.5 717.5,-323.5"/>
<text text-anchor="middle" x="759" y="-330.5" font-family="Helvetica,sans-Serif" font-size="10.00" fill="#000000">prop_hash_end</text>
</a>
</g>
</g>
<!-- Node215534&#45;&gt;Node215542 -->
<g id="edge10" class="edge">
<title>Node215534&#45;&gt;Node215542</title>
<path fill="none" stroke="#191970" d="M354.902,-361.5553C423.8211,-375.4557 564.0148,-396.9212 679,-371 698.9988,-366.4917 719.866,-356.372 735.2725,-347.7087"/>
<polygon fill="#191970" stroke="#191970" points="737.223,-350.6231 744.103,-342.566 733.7002,-344.5742 737.223,-350.6231"/>
</g>
<!-- Node215543 -->
<g id="node11" class="node">
<title>Node215543</title>
<g id="a_node11"><a xlink:href="quickjs_8c.html#aa80740ff93b724ea7e0c280826f4a25a" target="_top" xlink:title="resize_properties">
<polygon fill="none" stroke="#ff0000" points="425,-190.5 425,-209.5 516,-209.5 516,-190.5 425,-190.5"/>
<text text-anchor="middle" x="470.5" y="-197.5" font-family="Helvetica,sans-Serif" font-size="10.00" fill="#000000">resize_properties</text>
</a>
</g>
</g>
<!-- Node215534&#45;&gt;Node215543 -->
<g id="edge11" class="edge">
<title>Node215534&#45;&gt;Node215543</title>
<path fill="none" stroke="#191970" d="M361.2584,-342.4878C366.3215,-340.0165 371.0495,-336.9083 375,-333 412.7722,-295.6319 373.4898,-256.631 411,-219 412.6172,-217.3776 414.3727,-215.8936 416.2325,-214.5361"/>
<polygon fill="#191970" stroke="#191970" points="418.1399,-217.4741 424.9511,-209.3587 414.5657,-211.4554 418.1399,-217.4741"/>
</g>
<!-- Node215558 -->
<g id="node16" class="node">
<title>Node215558</title>
<g id="a_node16"><a xlink:href="quickjs_8c.html#a11f047846c1027dc6066a5f1b2ef292a" target="_top" xlink:title="shape_hash">
<polygon fill="none" stroke="#000000" points="436,-456.5 436,-475.5 505,-475.5 505,-456.5 436,-456.5"/>
<text text-anchor="middle" x="470.5" y="-463.5" font-family="Helvetica,sans-Serif" font-size="10.00" fill="#000000">shape_hash</text>
</a>
</g>
</g>
<!-- Node215534&#45;&gt;Node215558 -->
<g id="edge18" class="edge">
<title>Node215534&#45;&gt;Node215558</title>
<path fill="none" stroke="#191970" d="M319.8369,-361.5661C334.8915,-380.5622 371.2208,-423.2523 411,-447 415.7718,-449.8487 421.0176,-452.3183 426.3565,-454.4464"/>
<polygon fill="#191970" stroke="#191970" points="425.3902,-457.8185 435.9846,-457.9163 427.7636,-451.2331 425.3902,-457.8185"/>
</g>
<!-- Node215540 -->
<g id="node8" class="node">
<title>Node215540</title>
<g id="a_node8"><a xlink:href="quickjs_8c.html#a8291bf195606b5d1b0faed795b6dc3ff" target="_top" xlink:title="get_shape_hash">
<polygon fill="none" stroke="#000000" points="715,-456.5 715,-475.5 803,-475.5 803,-456.5 715,-456.5"/>
<text text-anchor="middle" x="759" y="-463.5" font-family="Helvetica,sans-Serif" font-size="10.00" fill="#000000">get_shape_hash</text>
</a>
</g>
</g>
<!-- Node215539&#45;&gt;Node215540 -->
<g id="edge7" class="edge">
<title>Node215539&#45;&gt;Node215540</title>
<path fill="none" stroke="#191970" d="M521.7456,-434.7499C573.206,-441.528 652.1954,-451.9321 704.7099,-458.8491"/>
<polygon fill="#191970" stroke="#191970" points="704.4724,-462.348 714.8438,-460.1839 705.3865,-455.4079 704.4724,-462.348"/>
</g>
<!-- Node215541&#45;&gt;Node215540 -->
<g id="edge9" class="edge">
<title>Node215541&#45;&gt;Node215540</title>
<path fill="none" stroke="#191970" d="M634.1379,-361.7196C657.6096,-381.3223 710.8328,-425.7724 739.6298,-449.8227"/>
<polygon fill="#191970" stroke="#191970" points="737.4727,-452.5812 747.3915,-456.305 741.9598,-447.2085 737.4727,-452.5812"/>
</g>
<!-- Node215543&#45;&gt;Node215542 -->
<g id="edge17" class="edge">
<title>Node215543&#45;&gt;Node215542</title>
<path fill="none" stroke="#191970" d="M515.4109,-209.5702C567.8992,-221.2225 651.1318,-241.2903 679,-257 705.5746,-271.9805 730.043,-297.731 744.7428,-315.0563"/>
<polygon fill="#191970" stroke="#191970" points="742.4356,-317.7596 751.4989,-323.2467 747.8356,-313.3053 742.4356,-317.7596"/>
</g>
<!-- Node215544 -->
<g id="node12" class="node">
<title>Node215544</title>
<g id="a_node12"><a xlink:href="quickjs_8c.html#a7da0cfa6f27af0e1b9599d7f359edbe2" target="_top" xlink:title="get_alloc_from_shape">
<polygon fill="none" stroke="#000000" points="566.5,-266.5 566.5,-285.5 678.5,-285.5 678.5,-266.5 566.5,-266.5"/>
<text text-anchor="middle" x="622.5" y="-273.5" font-family="Helvetica,sans-Serif" font-size="10.00" fill="#000000">get_alloc_from_shape</text>
</a>
</g>
</g>
<!-- Node215543&#45;&gt;Node215544 -->
<g id="edge12" class="edge">
<title>Node215543&#45;&gt;Node215544</title>
<path fill="none" stroke="#191970" d="M509.0016,-209.5947C516.2215,-212.136 523.5274,-215.2465 530,-219 548.7763,-229.8886 547.7478,-240.2541 566,-252 571.9611,-255.8362 578.6388,-259.2991 585.2583,-262.3237"/>
<polygon fill="#191970" stroke="#191970" points="584.2552,-265.7021 594.8247,-266.4341 587.0186,-259.2706 584.2552,-265.7021"/>
</g>
<!-- Node215545 -->
<g id="node13" class="node">
<title>Node215545</title>
<g id="a_node13"><a xlink:href="quickjs_8c.html#a8b6c89e0f589df709eb31a92b7fac32a" target="_top" xlink:title="get_shape_from_alloc">
<polygon fill="none" stroke="#000000" points="566.5,-152.5 566.5,-171.5 678.5,-171.5 678.5,-152.5 566.5,-152.5"/>
<text text-anchor="middle" x="622.5" y="-159.5" font-family="Helvetica,sans-Serif" font-size="10.00" fill="#000000">get_shape_from_alloc</text>
</a>
</g>
</g>
<!-- Node215543&#45;&gt;Node215545 -->
<g id="edge14" class="edge">
<title>Node215543&#45;&gt;Node215545</title>
<path fill="none" stroke="#191970" d="M508.856,-190.411C528.8237,-185.4191 553.4295,-179.2676 574.6334,-173.9666"/>
<polygon fill="#191970" stroke="#191970" points="575.5673,-177.341 584.4198,-171.5201 573.8695,-170.55 575.5673,-177.341"/>
</g>
<!-- Node215546 -->
<g id="node14" class="node">
<title>Node215546</title>
<g id="a_node14"><a xlink:href="quickjs_8c.html#ab54e821a9b1b55dc16c4494bd410b698" target="_top" xlink:title="get_shape_size">
<polygon fill="none" stroke="#000000" points="580,-114.5 580,-133.5 665,-133.5 665,-114.5 580,-114.5"/>
<text text-anchor="middle" x="622.5" y="-121.5" font-family="Helvetica,sans-Serif" font-size="10.00" fill="#000000">get_shape_size</text>
</a>
</g>
</g>
<!-- Node215543&#45;&gt;Node215546 -->
<g id="edge15" class="edge">
<title>Node215543&#45;&gt;Node215546</title>
<path fill="none" stroke="#191970" d="M510.1591,-190.4273C517.0487,-187.9127 523.9392,-184.8062 530,-181 549.7016,-168.6274 546.3937,-155.5231 566,-143 569.1507,-140.9876 572.5372,-139.1648 576.0303,-137.5181"/>
<polygon fill="#191970" stroke="#191970" points="577.576,-140.6651 585.4369,-133.5617 574.862,-134.2126 577.576,-140.6651"/>
</g>
<!-- Node215549 -->
<g id="node15" class="node">
<title>Node215549</title>
<g id="a_node15"><a xlink:href="quickjs_8c.html#a78b7f6b85f2739b551ff54f16156128b" target="_top" xlink:title="js_malloc">
<polygon fill="none" stroke="#ff0000" points="593.5,-190.5 593.5,-209.5 651.5,-209.5 651.5,-190.5 593.5,-190.5"/>
<text text-anchor="middle" x="622.5" y="-197.5" font-family="Helvetica,sans-Serif" font-size="10.00" fill="#000000">js_malloc</text>
</a>
</g>
</g>
<!-- Node215543&#45;&gt;Node215549 -->
<g id="edge16" class="edge">
<title>Node215543&#45;&gt;Node215549</title>
<path fill="none" stroke="#191970" d="M516.105,-200C537.4023,-200 562.5122,-200 582.9887,-200"/>
<polygon fill="#191970" stroke="#191970" points="583.2295,-203.5001 593.2294,-200 583.2294,-196.5001 583.2295,-203.5001"/>
</g>
<!-- Node215544&#45;&gt;Node215542 -->
<g id="edge13" class="edge">
<title>Node215544&#45;&gt;Node215542</title>
<path fill="none" stroke="#191970" d="M653.2383,-285.5978C661.664,-288.4283 670.7479,-291.6664 679,-295 696.6594,-302.1339 715.959,-311.2607 731.1771,-318.7816"/>
<polygon fill="#191970" stroke="#191970" points="730.02,-322.1161 740.5299,-323.455 733.1489,-315.8542 730.02,-322.1161"/>
</g>
<!-- Node215559&#45;&gt;Node215540 -->
<g id="edge20" class="edge">
<title>Node215559&#45;&gt;Node215540</title>
<path fill="none" stroke="#191970" d="M324.3078,-475.65C341.9094,-489.3447 376.6528,-513.7783 411,-523 526.0999,-553.9024 667.3731,-504.8502 728.463,-479.5706"/>
<polygon fill="#191970" stroke="#191970" points="730.0492,-482.7001 737.9017,-475.5876 727.3277,-476.2508 730.0492,-482.7001"/>
</g>
<!-- Node215559&#45;&gt;Node215558 -->
<g id="edge21" class="edge">
<title>Node215559&#45;&gt;Node215558</title>
<path fill="none" stroke="#191970" d="M375.3998,-466C392.1809,-466 409.9741,-466 425.5744,-466"/>
<polygon fill="#191970" stroke="#191970" points="425.9849,-469.5001 435.9849,-466 425.9849,-462.5001 425.9849,-469.5001"/>
</g>
<!-- Node215560&#45;&gt;Node215536 -->
<g id="edge26" class="edge">
<title>Node215560&#45;&gt;Node215536</title>
<path fill="none" stroke="#191970" d="M512.7396,-169.8642C519.1246,-172.5539 525.1771,-176.1616 530,-181 567.5102,-218.631 528.7789,-257.083 566,-295 567.4409,-296.4678 568.9985,-297.8222 570.6462,-299.072"/>
<polygon fill="#191970" stroke="#191970" points="569.1526,-302.2611 579.5105,-304.4896 572.8031,-296.2882 569.1526,-302.2611"/>
</g>
<!-- Node215560&#45;&gt;Node215537 -->
<g id="edge28" class="edge">
<title>Node215560&#45;&gt;Node215537</title>
<path fill="none" stroke="#191970" d="M477.7322,-152.3387C489.021,-137.2173 511.4586,-106.9966 530,-81 546.3221,-58.1152 543.5351,-45.8953 566,-29 568.9878,-26.7529 572.2575,-24.7617 575.67,-22.9988"/>
<polygon fill="#191970" stroke="#191970" points="577.2449,-26.1286 584.941,-18.847 574.3838,-19.7399 577.2449,-26.1286"/>
</g>
<!-- Node215560&#45;&gt;Node215544 -->
<g id="edge24" class="edge">
<title>Node215560&#45;&gt;Node215544</title>
<path fill="none" stroke="#191970" d="M510.1591,-171.5727C517.0487,-174.0873 523.9392,-177.1938 530,-181 549.7016,-193.3726 549.8101,-202.2931 566,-219 579.2357,-232.6583 594.4201,-247.9568 605.712,-259.2631"/>
<polygon fill="#191970" stroke="#191970" points="603.2888,-261.7897 612.8358,-266.3836 608.2374,-256.8387 603.2888,-261.7897"/>
</g>
<!-- Node215560&#45;&gt;Node215545 -->
<g id="edge25" class="edge">
<title>Node215560&#45;&gt;Node215545</title>
<path fill="none" stroke="#191970" d="M512.8405,-162C526.3298,-162 541.5921,-162 556.3503,-162"/>
<polygon fill="#191970" stroke="#191970" points="556.4591,-165.5001 566.4591,-162 556.459,-158.5001 556.4591,-165.5001"/>
</g>
<!-- Node215560&#45;&gt;Node215546 -->
<g id="edge27" class="edge">
<title>Node215560&#45;&gt;Node215546</title>
<path fill="none" stroke="#191970" d="M508.856,-152.411C528.8237,-147.4191 553.4295,-141.2676 574.6334,-135.9666"/>
<polygon fill="#191970" stroke="#191970" points="575.5673,-139.341 584.4198,-133.5201 573.8695,-132.55 575.5673,-139.341"/>
</g>
<!-- Node215560&#45;&gt;Node215549 -->
<g id="edge30" class="edge">
<title>Node215560&#45;&gt;Node215549</title>
<path fill="none" stroke="#191970" d="M508.856,-171.589C531.6858,-177.2964 560.5785,-184.5196 583.5178,-190.2545"/>
<polygon fill="#191970" stroke="#191970" points="582.7213,-193.663 593.2716,-192.6929 584.4191,-186.872 582.7213,-193.663"/>
</g>
<!-- Node215561 -->
<g id="node19" class="node">
<title>Node215561</title>
<g id="a_node19"><a xlink:href="quickjs_8c.html#a9780456a71703c53244b88831bc8fb7a" target="_top" xlink:title="add_gc_object">
<polygon fill="none" stroke="#ff0000" points="582.5,-38.5 582.5,-57.5 662.5,-57.5 662.5,-38.5 582.5,-38.5"/>
<text text-anchor="middle" x="622.5" y="-45.5" font-family="Helvetica,sans-Serif" font-size="10.00" fill="#000000">add_gc_object</text>
</a>
</g>
</g>
<!-- Node215560&#45;&gt;Node215561 -->
<g id="edge23" class="edge">
<title>Node215560&#45;&gt;Node215561</title>
<path fill="none" stroke="#191970" d="M477.5752,-152.4727C492.1027,-133.5463 527.2081,-90.9755 566,-67 569.3218,-64.9469 572.8919,-63.0863 576.5649,-61.406"/>
<polygon fill="#191970" stroke="#191970" points="577.9099,-64.6374 585.8243,-57.5937 575.2449,-58.1645 577.9099,-64.6374"/>
</g>
<!-- Node215562 -->
<g id="node20" class="node">
<title>Node215562</title>
<g id="a_node20"><a xlink:href="quickjs_8h.html#a775522f2d084fc8fa0fcb33f390006b4" target="_top" xlink:title="JS_DupValue">
<polygon fill="none" stroke="#000000" points="584,-76.5 584,-95.5 661,-95.5 661,-76.5 584,-76.5"/>
<text text-anchor="middle" x="622.5" y="-83.5" font-family="Helvetica,sans-Serif" font-size="10.00" fill="#000000">JS_DupValue</text>
</a>
</g>
</g>
<!-- Node215560&#45;&gt;Node215562 -->
<g id="edge29" class="edge">
<title>Node215560&#45;&gt;Node215562</title>
<path fill="none" stroke="#191970" d="M484.5372,-152.3134C502.71,-140.085 535.6546,-118.9631 566,-105 570.6404,-102.8648 575.5918,-100.8466 580.5618,-98.9797"/>
<polygon fill="#191970" stroke="#191970" points="581.8254,-102.245 590.0653,-95.585 579.4706,-95.6529 581.8254,-102.245"/>
</g>
<!-- Node215565 -->
<g id="node23" class="node">
<title>Node215565</title>
<g id="a_node23"><a xlink:href="quickjs_8c.html#a6f921a6312ada5c7da7b485e24d37f54" target="_top" xlink:title="js_free_shape0">
<polygon fill="none" stroke="#ff0000" points="429,-228.5 429,-247.5 512,-247.5 512,-228.5 429,-228.5"/>
<text text-anchor="middle" x="470.5" y="-235.5" font-family="Helvetica,sans-Serif" font-size="10.00" fill="#000000">js_free_shape0</text>
</a>
</g>
</g>
<!-- Node215564&#45;&gt;Node215565 -->
<g id="edge33" class="edge">
<title>Node215564&#45;&gt;Node215565</title>
<path fill="none" stroke="#191970" d="M351.2005,-305.6451C359.4055,-302.9561 367.7655,-299.4732 375,-295 394.7875,-282.7653 391.2984,-269.3726 411,-257 414.3145,-254.9185 417.8772,-253.0462 421.5521,-251.3656"/>
<polygon fill="#191970" stroke="#191970" points="422.9061,-254.5933 430.8409,-247.5727 420.2598,-248.1128 422.9061,-254.5933"/>
</g>
<!-- Node215565&#45;&gt;Node215536 -->
<g id="edge35" class="edge">
<title>Node215565&#45;&gt;Node215536</title>
<path fill="none" stroke="#191970" d="M510.1591,-247.5727C517.0487,-250.0873 523.9392,-253.1938 530,-257 549.7016,-269.3726 546.3937,-282.4769 566,-295 569.1507,-297.0124 572.5372,-298.8352 576.0303,-300.4819"/>
<polygon fill="#191970" stroke="#191970" points="574.862,-303.7874 585.4369,-304.4383 577.576,-297.3349 574.862,-303.7874"/>
</g>
<!-- Node215565&#45;&gt;Node215541 -->
<g id="edge36" class="edge">
<title>Node215565&#45;&gt;Node215541</title>
<path fill="none" stroke="#191970" d="M512.1962,-246.4442C518.644,-249.0668 524.8584,-252.5018 530,-257 558.1298,-281.61 538.0594,-308.1754 566,-333 567.76,-334.5637 569.6534,-335.9996 571.6426,-337.318"/>
<polygon fill="#191970" stroke="#191970" points="570.4104,-340.6342 580.8608,-342.3779 573.7788,-334.4978 570.4104,-340.6342"/>
</g>
<!-- Node215565&#45;&gt;Node215544 -->
<g id="edge34" class="edge">
<title>Node215565&#45;&gt;Node215544</title>
<path fill="none" stroke="#191970" d="M508.856,-247.589C528.8237,-252.5809 553.4295,-258.7324 574.6334,-264.0334"/>
<polygon fill="#191970" stroke="#191970" points="573.8695,-267.45 584.4198,-266.4799 575.5673,-260.659 573.8695,-267.45"/>
</g>
<!-- Node215591&#45;&gt;Node215536 -->
<g id="edge39" class="edge">
<title>Node215591&#45;&gt;Node215536</title>
<path fill="none" stroke="#191970" d="M517.2127,-494.4679C521.981,-492.0001 526.3893,-488.8982 530,-485 577.1764,-434.0673 519.2149,-384.2923 566,-333 567.3861,-331.4804 568.8975,-330.0822 570.5065,-328.7957"/>
<polygon fill="#191970" stroke="#191970" points="572.6716,-331.5668 579.235,-323.2497 568.9176,-325.6585 572.6716,-331.5668"/>
</g>
<!-- Node215591&#45;&gt;Node215542 -->
<g id="edge40" class="edge">
<title>Node215591&#45;&gt;Node215542</title>
<path fill="none" stroke="#191970" d="M504.263,-494.4382C512.7787,-491.6955 521.8223,-488.4914 530,-485 599.3214,-455.4038 617.3012,-447.2972 679,-404 702.5585,-387.4678 726.9134,-364.9302 742.4659,-349.7181"/>
<polygon fill="#191970" stroke="#191970" points="745.1079,-352.0273 749.7456,-342.5014 740.1797,-347.056 745.1079,-352.0273"/>
</g>
</g>
</svg>
