<?xml version="1.0" encoding="UTF-8" standalone="no"?>
<!DOCTYPE svg PUBLIC "-//W3C//DTD SVG 1.1//EN"
 "http://www.w3.org/Graphics/SVG/1.1/DTD/svg11.dtd">
<!-- Generated by graphviz version 2.40.1 (20161225.0304)
 -->
<!-- Title: js_regexp_exec Pages: 1 -->
<svg width="706pt" height="943pt"
 viewBox="0.00 0.00 706.00 942.65" xmlns="http://www.w3.org/2000/svg" xmlns:xlink="http://www.w3.org/1999/xlink">
<g id="graph0" class="graph" transform="scale(1 1) rotate(0) translate(4 938.6496)">
<title>js_regexp_exec</title>
<!-- Node426390 -->
<g id="node1" class="node">
<title>Node426390</title>
<polygon fill="#bfbfbf" stroke="#000000" points="0,-383.1496 0,-402.1496 85,-402.1496 85,-383.1496 0,-383.1496"/>
<text text-anchor="middle" x="42.5" y="-390.1496" font-family="Helvetica,sans-Serif" font-size="10.00" fill="#000000">js_regexp_exec</text>
</g>
<!-- Node426391 -->
<g id="node2" class="node">
<title>Node426391</title>
<g id="a_node2"><a xlink:href="quickjs_8c.html#a853f0924d441ea4225488f37c8b69f9a" target="_top" xlink:title="__attribute__">
<polygon fill="none" stroke="#000000" points="160.5,-915.1496 160.5,-934.1496 233.5,-934.1496 233.5,-915.1496 160.5,-915.1496"/>
<text text-anchor="middle" x="197" y="-922.1496" font-family="Helvetica,sans-Serif" font-size="10.00" fill="#000000">__attribute__</text>
</a>
</g>
</g>
<!-- Node426390&#45;&gt;Node426391 -->
<g id="edge1" class="edge">
<title>Node426390&#45;&gt;Node426391</title>
<path fill="none" stroke="#191970" d="M42.6477,-402.3037C43.8072,-465.6523 53.3011,-821.7459 121,-900.6496 128.5958,-909.5026 139.4309,-915.1275 150.548,-918.6904"/>
<polygon fill="#191970" stroke="#191970" points="149.7497,-922.1 160.3158,-921.3199 151.5694,-915.3407 149.7497,-922.1"/>
</g>
<!-- Node426392 -->
<g id="node3" class="node">
<title>Node426392</title>
<g id="a_node3"><a xlink:href="quickjs_8c.html#a0a8765bd4012467d9139bc24aabcb3ca" target="_top" xlink:title="JS_DefinePropertyValue">
<polygon fill="none" stroke="#000000" points="313,-725.1496 313,-744.1496 437,-744.1496 437,-725.1496 313,-725.1496"/>
<text text-anchor="middle" x="375" y="-732.1496" font-family="Helvetica,sans-Serif" font-size="10.00" fill="#000000">JS_DefinePropertyValue</text>
</a>
</g>
</g>
<!-- Node426390&#45;&gt;Node426392 -->
<g id="edge2" class="edge">
<title>Node426390&#45;&gt;Node426392</title>
<path fill="none" stroke="#191970" d="M43.4119,-402.345C48.2026,-451.0675 72.1164,-668.5056 121,-710.6496 176.2681,-758.2979 265.5941,-754.5585 322.2539,-745.8383"/>
<polygon fill="#191970" stroke="#191970" points="323.1385,-749.2399 332.4378,-744.1633 322.0024,-742.3327 323.1385,-749.2399"/>
</g>
<!-- Node426419 -->
<g id="node5" class="node">
<title>Node426419</title>
<g id="a_node5"><a xlink:href="quickjs_8h.html#a775522f2d084fc8fa0fcb33f390006b4" target="_top" xlink:title="JS_DupValue">
<polygon fill="none" stroke="#000000" points="616.5,-706.1496 616.5,-725.1496 693.5,-725.1496 693.5,-706.1496 616.5,-706.1496"/>
<text text-anchor="middle" x="655" y="-713.1496" font-family="Helvetica,sans-Serif" font-size="10.00" fill="#000000">JS_DupValue</text>
</a>
</g>
</g>
<!-- Node426390&#45;&gt;Node426419 -->
<g id="edge14" class="edge">
<title>Node426390&#45;&gt;Node426419</title>
<path fill="none" stroke="#191970" d="M43.0434,-402.3162C45.4575,-435.5944 58.0969,-546.4011 121,-601.6496 193.5091,-665.3353 488.4638,-699.8295 606.1621,-711.2815"/>
<polygon fill="#191970" stroke="#191970" points="606.0352,-714.7853 616.3235,-712.2556 606.7032,-707.8172 606.0352,-714.7853"/>
</g>
<!-- Node426420 -->
<g id="node6" class="node">
<title>Node426420</title>
<g id="a_node6"><a xlink:href="quickjs_8h.html#afaa20c47565bc704c6c85f3d77254e7d" target="_top" xlink:title="JS_FreeValue">
<polygon fill="none" stroke="#ff0000" points="616,-801.1496 616,-820.1496 694,-820.1496 694,-801.1496 616,-801.1496"/>
<text text-anchor="middle" x="655" y="-808.1496" font-family="Helvetica,sans-Serif" font-size="10.00" fill="#000000">JS_FreeValue</text>
</a>
</g>
</g>
<!-- Node426390&#45;&gt;Node426420 -->
<g id="edge16" class="edge">
<title>Node426390&#45;&gt;Node426420</title>
<path fill="none" stroke="#191970" d="M42.7648,-402.2687C44.5844,-461.0054 57.1465,-770.9242 121,-834.6496 192.607,-906.113 479.2206,-879.117 576,-849.6496 595.2666,-843.7833 615.6133,-833.6342 630.832,-825.1599"/>
<polygon fill="#191970" stroke="#191970" points="632.6454,-828.1548 639.5897,-820.1531 629.1711,-822.0778 632.6454,-828.1548"/>
</g>
<!-- Node426456 -->
<g id="node7" class="node">
<title>Node426456</title>
<g id="a_node7"><a xlink:href="quickjs_8h.html#ad80a83d73e9b7d872b88fbf2943aebe9" target="_top" xlink:title="JS_IsException">
<polygon fill="none" stroke="#000000" points="612,-630.1496 612,-649.1496 698,-649.1496 698,-630.1496 612,-630.1496"/>
<text text-anchor="middle" x="655" y="-637.1496" font-family="Helvetica,sans-Serif" font-size="10.00" fill="#000000">JS_IsException</text>
</a>
</g>
</g>
<!-- Node426390&#45;&gt;Node426456 -->
<g id="edge20" class="edge">
<title>Node426390&#45;&gt;Node426456</title>
<path fill="none" stroke="#191970" d="M48.1626,-402.3852C59.4248,-420.7592 86.546,-460.3432 121,-478.6496 302.6692,-575.1758 397.4935,-461.393 576,-563.6496 602.2972,-578.7139 626.4463,-604.444 640.9445,-621.7419"/>
<polygon fill="#191970" stroke="#191970" points="638.5764,-624.3765 647.6067,-629.9178 644.003,-619.9546 638.5764,-624.3765"/>
</g>
<!-- Node426516 -->
<g id="node8" class="node">
<title>Node426516</title>
<g id="a_node8"><a xlink:href="quickjs_8h.html#a2050bc428da1c65ac7eb87c3fa3b0392" target="_top" xlink:title="JS_NewInt32">
<polygon fill="none" stroke="#000000" points="617,-516.1496 617,-535.1496 693,-535.1496 693,-516.1496 617,-516.1496"/>
<text text-anchor="middle" x="655" y="-523.1496" font-family="Helvetica,sans-Serif" font-size="10.00" fill="#000000">JS_NewInt32</text>
</a>
</g>
</g>
<!-- Node426390&#45;&gt;Node426516 -->
<g id="edge22" class="edge">
<title>Node426390&#45;&gt;Node426516</title>
<path fill="none" stroke="#191970" d="M52.1109,-402.3497C65.9582,-415.6375 92.9545,-439.057 121,-449.6496 311.0213,-521.4199 378.9404,-443.3892 576,-492.6496 593.7434,-497.0851 612.6811,-504.8806 627.5658,-511.7814"/>
<polygon fill="#191970" stroke="#191970" points="626.176,-514.9962 636.7086,-516.1427 629.1898,-508.6782 626.176,-514.9962"/>
</g>
<!-- Node426822 -->
<g id="node9" class="node">
<title>Node426822</title>
<g id="a_node9"><a xlink:href="quickjs_8c.html#a841f4cb887e4d9e03e94a0697255e578" target="_top" xlink:title="JS_DefinePropertyValueStr">
<polygon fill="none" stroke="#000000" points="128.5,-763.1496 128.5,-782.1496 265.5,-782.1496 265.5,-763.1496 128.5,-763.1496"/>
<text text-anchor="middle" x="197" y="-770.1496" font-family="Helvetica,sans-Serif" font-size="10.00" fill="#000000">JS_DefinePropertyValueStr</text>
</a>
</g>
</g>
<!-- Node426390&#45;&gt;Node426822 -->
<g id="edge9" class="edge">
<title>Node426390&#45;&gt;Node426822</title>
<path fill="none" stroke="#191970" d="M43.3332,-402.2443C47.973,-453.5639 72.1908,-695.2992 121,-748.6496 124.5287,-752.5067 128.6712,-755.748 133.1695,-758.4713"/>
<polygon fill="#191970" stroke="#191970" points="131.695,-761.6485 142.1906,-763.0956 134.8882,-755.4192 131.695,-761.6485"/>
</g>
<!-- Node426625 -->
<g id="node12" class="node">
<title>Node426625</title>
<g id="a_node12"><a xlink:href="quickjs_8c.html#a12aed667595f49667e0095f0a028e0d4" target="_top" xlink:title="JS_DefinePropertyValueUint32">
<polygon fill="none" stroke="#ff0000" points="121,-421.1496 121,-440.1496 273,-440.1496 273,-421.1496 121,-421.1496"/>
<text text-anchor="middle" x="197" y="-428.1496" font-family="Helvetica,sans-Serif" font-size="10.00" fill="#000000">JS_DefinePropertyValueUint32</text>
</a>
</g>
</g>
<!-- Node426390&#45;&gt;Node426625 -->
<g id="edge13" class="edge">
<title>Node426390&#45;&gt;Node426625</title>
<path fill="none" stroke="#191970" d="M81.4869,-402.2386C101.783,-407.2306 126.7935,-413.382 148.3462,-418.683"/>
<polygon fill="#191970" stroke="#191970" points="147.7469,-422.1399 158.2935,-421.1296 149.4188,-415.3424 147.7469,-422.1399"/>
</g>
<!-- Node426441 -->
<g id="node13" class="node">
<title>Node426441</title>
<g id="a_node13"><a xlink:href="quickjs_8c.html#a80e54dcf9ac687d4ccc2f90273565f30" target="_top" xlink:title="js_free">
<polygon fill="none" stroke="#ff0000" points="174,-383.1496 174,-402.1496 220,-402.1496 220,-383.1496 174,-383.1496"/>
<text text-anchor="middle" x="197" y="-390.1496" font-family="Helvetica,sans-Serif" font-size="10.00" fill="#000000">js_free</text>
</a>
</g>
</g>
<!-- Node426390&#45;&gt;Node426441 -->
<g id="edge15" class="edge">
<title>Node426390&#45;&gt;Node426441</title>
<path fill="none" stroke="#191970" d="M85.1268,-392.6496C109.801,-392.6496 140.4172,-392.6496 163.3804,-392.6496"/>
<polygon fill="#191970" stroke="#191970" points="163.6607,-396.1497 173.6606,-392.6496 163.6606,-389.1497 163.6607,-396.1497"/>
</g>
<!-- Node426823 -->
<g id="node14" class="node">
<title>Node426823</title>
<g id="a_node14"><a xlink:href="quickjs_8c.html#a82de8d310598980dd9ab473ce2c8dd1c" target="_top" xlink:title="js_get_regexp">
<polygon fill="none" stroke="#000000" points="158.5,-345.1496 158.5,-364.1496 235.5,-364.1496 235.5,-345.1496 158.5,-345.1496"/>
<text text-anchor="middle" x="197" y="-352.1496" font-family="Helvetica,sans-Serif" font-size="10.00" fill="#000000">js_get_regexp</text>
</a>
</g>
</g>
<!-- Node426390&#45;&gt;Node426823 -->
<g id="edge17" class="edge">
<title>Node426390&#45;&gt;Node426823</title>
<path fill="none" stroke="#191970" d="M81.4869,-383.0606C101.783,-378.0687 126.7935,-371.9173 148.3462,-366.6163"/>
<polygon fill="#191970" stroke="#191970" points="149.4188,-369.9568 158.2935,-364.1697 147.7469,-363.1594 149.4188,-369.9568"/>
</g>
<!-- Node426511 -->
<g id="node16" class="node">
<title>Node426511</title>
<g id="a_node16"><a xlink:href="quickjs_8h.html#a89b7c8686c7eee70b86be722ee4730ad" target="_top" xlink:title="JS_GetProperty">
<polygon fill="none" stroke="#ff0000" points="154,-307.1496 154,-326.1496 240,-326.1496 240,-307.1496 154,-307.1496"/>
<text text-anchor="middle" x="197" y="-314.1496" font-family="Helvetica,sans-Serif" font-size="10.00" fill="#000000">JS_GetProperty</text>
</a>
</g>
</g>
<!-- Node426390&#45;&gt;Node426511 -->
<g id="edge19" class="edge">
<title>Node426390&#45;&gt;Node426511</title>
<path fill="none" stroke="#191970" d="M52.8368,-383.101C67.1071,-370.4236 94.137,-348.1818 121,-335.6496 128.1929,-332.294 136.056,-329.4809 143.9098,-327.1373"/>
<polygon fill="#191970" stroke="#191970" points="145.0894,-330.4429 153.802,-324.4145 143.2317,-323.6939 145.0894,-330.4429"/>
</g>
<!-- Node426596 -->
<g id="node17" class="node">
<title>Node426596</title>
<g id="a_node17"><a xlink:href="quickjs_8c.html#ad4ba09e4c7ab9f28c144182e1aacf1f6" target="_top" xlink:title="JS_NewArray">
<polygon fill="none" stroke="#ff0000" points="158.5,-269.1496 158.5,-288.1496 235.5,-288.1496 235.5,-269.1496 158.5,-269.1496"/>
<text text-anchor="middle" x="197" y="-276.1496" font-family="Helvetica,sans-Serif" font-size="10.00" fill="#000000">JS_NewArray</text>
</a>
</g>
</g>
<!-- Node426390&#45;&gt;Node426596 -->
<g id="edge21" class="edge">
<title>Node426390&#45;&gt;Node426596</title>
<path fill="none" stroke="#191970" d="M47.5696,-383.1263C58.3575,-363.8216 85.5286,-320.0169 121,-297.6496 129.2822,-292.4271 138.9166,-288.6393 148.4876,-285.8924"/>
<polygon fill="#191970" stroke="#191970" points="149.5432,-289.2357 158.3794,-283.39 147.8264,-282.4494 149.5432,-289.2357"/>
</g>
<!-- Node426664 -->
<g id="node18" class="node">
<title>Node426664</title>
<g id="a_node18"><a xlink:href="quickjs_8c.html#a884d294acbf5be675ffc760e38bd0521" target="_top" xlink:title="JS_NewObjectProto">
<polygon fill="none" stroke="#ff0000" points="144,-231.1496 144,-250.1496 250,-250.1496 250,-231.1496 144,-231.1496"/>
<text text-anchor="middle" x="197" y="-238.1496" font-family="Helvetica,sans-Serif" font-size="10.00" fill="#000000">JS_NewObjectProto</text>
</a>
</g>
</g>
<!-- Node426390&#45;&gt;Node426664 -->
<g id="edge23" class="edge">
<title>Node426390&#45;&gt;Node426664</title>
<path fill="none" stroke="#191970" d="M45.361,-382.8323C53.1127,-358.0372 76.955,-292.5312 121,-259.6496 125.1176,-256.5757 129.6751,-253.9952 134.4531,-251.8295"/>
<polygon fill="#191970" stroke="#191970" points="135.8152,-255.0551 143.8554,-248.1554 133.2673,-248.5352 135.8152,-255.0551"/>
</g>
<!-- Node426675 -->
<g id="node19" class="node">
<title>Node426675</title>
<g id="a_node19"><a xlink:href="quickjs_8h.html#af763b173e78debf2075670ca2c128a30" target="_top" xlink:title="JS_SetProperty">
<polygon fill="none" stroke="#ff0000" points="154,-193.1496 154,-212.1496 240,-212.1496 240,-193.1496 154,-193.1496"/>
<text text-anchor="middle" x="197" y="-200.1496" font-family="Helvetica,sans-Serif" font-size="10.00" fill="#000000">JS_SetProperty</text>
</a>
</g>
</g>
<!-- Node426390&#45;&gt;Node426675 -->
<g id="edge24" class="edge">
<title>Node426390&#45;&gt;Node426675</title>
<path fill="none" stroke="#191970" d="M44.0073,-382.7363C49.0253,-353.2911 67.9601,-265.667 121,-221.6496 127.6197,-216.156 135.6076,-212.2172 143.8836,-209.4002"/>
<polygon fill="#191970" stroke="#191970" points="145.0258,-212.7136 153.6666,-206.5827 143.0885,-205.987 145.0258,-212.7136"/>
</g>
<!-- Node426825 -->
<g id="node20" class="node">
<title>Node426825</title>
<g id="a_node20"><a xlink:href="quickjs_8c.html#a011157b8ff30c8418be989eadf509c92" target="_top" xlink:title="js_sub_string">
<polygon fill="none" stroke="#000000" points="160,-573.1496 160,-592.1496 234,-592.1496 234,-573.1496 160,-573.1496"/>
<text text-anchor="middle" x="197" y="-580.1496" font-family="Helvetica,sans-Serif" font-size="10.00" fill="#000000">js_sub_string</text>
</a>
</g>
</g>
<!-- Node426390&#45;&gt;Node426825 -->
<g id="edge25" class="edge">
<title>Node426390&#45;&gt;Node426825</title>
<path fill="none" stroke="#191970" d="M47.0382,-402.3727C57.7899,-424.7899 86.5163,-481.1987 121,-520.6496 136.7906,-538.7148 158.2231,-555.6766 174.3029,-567.2767"/>
<polygon fill="#191970" stroke="#191970" points="172.4271,-570.2366 182.6156,-573.1425 176.463,-564.5172 172.4271,-570.2366"/>
</g>
<!-- Node426826 -->
<g id="node24" class="node">
<title>Node426826</title>
<g id="a_node24"><a xlink:href="quickjs_8c.html#a07acd485a57197356906928a788a0644" target="_top" xlink:title="JS_ToLengthFree">
<polygon fill="none" stroke="#000000" points="328,-839.1496 328,-858.1496 422,-858.1496 422,-839.1496 328,-839.1496"/>
<text text-anchor="middle" x="375" y="-846.1496" font-family="Helvetica,sans-Serif" font-size="10.00" fill="#000000">JS_ToLengthFree</text>
</a>
</g>
</g>
<!-- Node426390&#45;&gt;Node426826 -->
<g id="edge32" class="edge">
<title>Node426390&#45;&gt;Node426826</title>
<path fill="none" stroke="#191970" d="M43.0119,-402.3607C46.1299,-457.7662 64.3565,-733.4853 121,-791.6496 172.0126,-844.0318 259.9939,-852.9708 317.843,-852.4557"/>
<polygon fill="#191970" stroke="#191970" points="317.9896,-855.9537 327.9227,-852.268 317.8592,-848.9549 317.9896,-855.9537"/>
</g>
<!-- Node426457 -->
<g id="node26" class="node">
<title>Node426457</title>
<g id="a_node26"><a xlink:href="quickjs_8c.html#a7bcb8e1a20cbc8374a5f9ba4a2088cec" target="_top" xlink:title="JS_ToString">
<polygon fill="none" stroke="#ff0000" points="161.5,-155.1496 161.5,-174.1496 232.5,-174.1496 232.5,-155.1496 161.5,-155.1496"/>
<text text-anchor="middle" x="197" y="-162.1496" font-family="Helvetica,sans-Serif" font-size="10.00" fill="#000000">JS_ToString</text>
</a>
</g>
</g>
<!-- Node426390&#45;&gt;Node426457 -->
<g id="edge36" class="edge">
<title>Node426390&#45;&gt;Node426457</title>
<path fill="none" stroke="#191970" d="M43.0741,-383.0177C45.5882,-349.8525 58.5151,-239.3707 121,-183.6496 129.3934,-176.1648 140.2936,-171.5329 151.2055,-168.6919"/>
<polygon fill="#191970" stroke="#191970" points="152.1156,-172.0764 161.1584,-166.5557 150.6466,-165.2322 152.1156,-172.0764"/>
</g>
<!-- Node426829 -->
<g id="node27" class="node">
<title>Node426829</title>
<g id="a_node27"><a xlink:href="libregexp_8h.html#a55d8c60c9c812ae3e3e23e608b830ce3" target="_top" xlink:title="lre_exec">
<polygon fill="none" stroke="#ff0000" points="170.5,-117.1496 170.5,-136.1496 223.5,-136.1496 223.5,-117.1496 170.5,-117.1496"/>
<text text-anchor="middle" x="197" y="-124.1496" font-family="Helvetica,sans-Serif" font-size="10.00" fill="#000000">lre_exec</text>
</a>
</g>
</g>
<!-- Node426390&#45;&gt;Node426829 -->
<g id="edge37" class="edge">
<title>Node426390&#45;&gt;Node426829</title>
<path fill="none" stroke="#191970" d="M44.2539,-383.1069C52.0055,-341.929 84.4292,-179.995 121,-145.6496 131.5072,-135.7818 146.3406,-130.828 160.1172,-128.4107"/>
<polygon fill="#191970" stroke="#191970" points="160.9204,-131.8338 170.3571,-127.0173 159.9764,-124.8977 160.9204,-131.8338"/>
</g>
<!-- Node426837 -->
<g id="node28" class="node">
<title>Node426837</title>
<g id="a_node28"><a xlink:href="libregexp_8h.html#a901e8c0ab6941f09e79fc9d8a9494717" target="_top" xlink:title="lre_get_capture_count">
<polygon fill="none" stroke="#000000" points="140.5,-79.1496 140.5,-98.1496 253.5,-98.1496 253.5,-79.1496 140.5,-79.1496"/>
<text text-anchor="middle" x="197" y="-86.1496" font-family="Helvetica,sans-Serif" font-size="10.00" fill="#000000">lre_get_capture_count</text>
</a>
</g>
</g>
<!-- Node426390&#45;&gt;Node426837 -->
<g id="edge38" class="edge">
<title>Node426390&#45;&gt;Node426837</title>
<path fill="none" stroke="#191970" d="M43.8573,-382.8988C50.3561,-337.5746 79.691,-147.9872 121,-107.6496 124.0652,-104.6565 127.5267,-102.1123 131.2407,-99.9519"/>
<polygon fill="#191970" stroke="#191970" points="132.8152,-103.0783 140.2969,-95.5767 129.7701,-96.7754 132.8152,-103.0783"/>
</g>
<!-- Node426838 -->
<g id="node29" class="node">
<title>Node426838</title>
<g id="a_node29"><a xlink:href="libregexp_8h.html#a3bf39330d9dde9c1c41f1a73504a7386" target="_top" xlink:title="lre_get_flags">
<polygon fill="none" stroke="#000000" points="339,-22.1496 339,-41.1496 411,-41.1496 411,-22.1496 339,-22.1496"/>
<text text-anchor="middle" x="375" y="-29.1496" font-family="Helvetica,sans-Serif" font-size="10.00" fill="#000000">lre_get_flags</text>
</a>
</g>
</g>
<!-- Node426390&#45;&gt;Node426838 -->
<g id="edge39" class="edge">
<title>Node426390&#45;&gt;Node426838</title>
<path fill="none" stroke="#191970" d="M43.0273,-382.9876C46.1239,-330.2374 63.8198,-77.7322 121,-31.6496 183.4152,18.6519 285.2645,-2.4842 339.0722,-18.9668"/>
<polygon fill="#191970" stroke="#191970" points="338.2633,-22.3822 348.8536,-22.0753 340.3834,-15.711 338.2633,-22.3822"/>
</g>
<!-- Node426839 -->
<g id="node30" class="node">
<title>Node426839</title>
<g id="a_node30"><a xlink:href="libregexp_8h.html#a1f0e5c1ad159240b0751415adb4faf47" target="_top" xlink:title="lre_get_groupnames">
<polygon fill="none" stroke="#ff0000" points="145,-41.1496 145,-60.1496 249,-60.1496 249,-41.1496 145,-41.1496"/>
<text text-anchor="middle" x="197" y="-48.1496" font-family="Helvetica,sans-Serif" font-size="10.00" fill="#000000">lre_get_groupnames</text>
</a>
</g>
</g>
<!-- Node426390&#45;&gt;Node426839 -->
<g id="edge40" class="edge">
<title>Node426390&#45;&gt;Node426839</title>
<path fill="none" stroke="#191970" d="M43.5167,-382.9428C48.819,-334.1425 74.8373,-116.1165 121,-69.6496 125.1756,-65.4465 130.1309,-62.1236 135.4794,-59.5032"/>
<polygon fill="#191970" stroke="#191970" points="136.8355,-62.7302 144.7839,-55.7249 134.2018,-56.2445 136.8355,-62.7302"/>
</g>
<!-- Node426393 -->
<g id="node4" class="node">
<title>Node426393</title>
<g id="a_node4"><a xlink:href="quickjs_8c.html#ab50618f1bf78e444caa6da0e3e2785d7" target="_top" xlink:title="JS_DefineProperty">
<polygon fill="none" stroke="#ff0000" points="477,-725.1496 477,-744.1496 576,-744.1496 576,-725.1496 477,-725.1496"/>
<text text-anchor="middle" x="526.5" y="-732.1496" font-family="Helvetica,sans-Serif" font-size="10.00" fill="#000000">JS_DefineProperty</text>
</a>
</g>
</g>
<!-- Node426392&#45;&gt;Node426393 -->
<g id="edge3" class="edge">
<title>Node426392&#45;&gt;Node426393</title>
<path fill="none" stroke="#191970" d="M437.058,-734.6496C446.8831,-734.6496 457.0261,-734.6496 466.7959,-734.6496"/>
<polygon fill="#191970" stroke="#191970" points="466.813,-738.1497 476.8129,-734.6496 466.8129,-731.1497 466.813,-738.1497"/>
</g>
<!-- Node426392&#45;&gt;Node426420 -->
<g id="edge8" class="edge">
<title>Node426392&#45;&gt;Node426420</title>
<path fill="none" stroke="#191970" d="M410.1787,-744.1981C460.7866,-757.9346 554.1535,-783.277 609.8103,-798.3839"/>
<polygon fill="#191970" stroke="#191970" points="609.1773,-801.8386 619.745,-801.0804 611.011,-795.0831 609.1773,-801.8386"/>
</g>
<!-- Node426393&#45;&gt;Node426419 -->
<g id="edge4" class="edge">
<title>Node426393&#45;&gt;Node426419</title>
<path fill="none" stroke="#191970" d="M576.1815,-727.3037C586.0358,-725.8467 596.3728,-724.3182 606.1976,-722.8656"/>
<polygon fill="#191970" stroke="#191970" points="606.8284,-726.3104 616.2088,-721.3853 605.8044,-719.3857 606.8284,-726.3104"/>
</g>
<!-- Node426393&#45;&gt;Node426420 -->
<g id="edge5" class="edge">
<title>Node426393&#45;&gt;Node426420</title>
<path fill="none" stroke="#191970" d="M548.0119,-744.3291C556.8213,-748.4854 567.0324,-753.5532 576,-758.6496 595.9288,-769.9755 617.6149,-784.4123 633.2155,-795.1991"/>
<polygon fill="#191970" stroke="#191970" points="631.4349,-798.2245 641.6384,-801.0774 635.441,-792.4842 631.4349,-798.2245"/>
</g>
<!-- Node426393&#45;&gt;Node426456 -->
<g id="edge6" class="edge">
<title>Node426393&#45;&gt;Node426456</title>
<path fill="none" stroke="#191970" d="M539.7678,-724.8408C562.0058,-708.4002 606.9855,-675.1467 633.6968,-655.3991"/>
<polygon fill="#191970" stroke="#191970" points="636.0353,-658.0229 641.9958,-649.2636 631.874,-652.3941 636.0353,-658.0229"/>
</g>
<!-- Node426393&#45;&gt;Node426516 -->
<g id="edge7" class="edge">
<title>Node426393&#45;&gt;Node426516</title>
<path fill="none" stroke="#191970" d="M532.3553,-725.1262C552.257,-692.7569 617.5167,-586.6147 643.8419,-543.7978"/>
<polygon fill="#191970" stroke="#191970" points="646.8543,-545.5808 649.1103,-535.229 640.8912,-541.9145 646.8543,-545.5808"/>
</g>
<!-- Node426822&#45;&gt;Node426392 -->
<g id="edge10" class="edge">
<title>Node426822&#45;&gt;Node426392</title>
<path fill="none" stroke="#191970" d="M241.9169,-763.0606C265.8292,-757.9558 295.4214,-751.6383 320.6249,-746.2578"/>
<polygon fill="#191970" stroke="#191970" points="321.3572,-749.6804 330.4061,-744.1697 319.8957,-742.8347 321.3572,-749.6804"/>
</g>
<!-- Node426442 -->
<g id="node10" class="node">
<title>Node426442</title>
<g id="a_node10"><a xlink:href="quickjs_8c.html#ab7fc45a99935a1c0ba50b0216d9401a9" target="_top" xlink:title="JS_FreeAtom">
<polygon fill="none" stroke="#ff0000" points="336.5,-801.1496 336.5,-820.1496 413.5,-820.1496 413.5,-801.1496 336.5,-801.1496"/>
<text text-anchor="middle" x="375" y="-808.1496" font-family="Helvetica,sans-Serif" font-size="10.00" fill="#000000">JS_FreeAtom</text>
</a>
</g>
</g>
<!-- Node426822&#45;&gt;Node426442 -->
<g id="edge11" class="edge">
<title>Node426822&#45;&gt;Node426442</title>
<path fill="none" stroke="#191970" d="M241.9169,-782.2386C267.7614,-787.756 300.241,-794.6899 326.6434,-800.3263"/>
<polygon fill="#191970" stroke="#191970" points="325.9279,-803.7524 336.4383,-802.4174 327.3894,-796.9066 325.9279,-803.7524"/>
</g>
<!-- Node426740 -->
<g id="node11" class="node">
<title>Node426740</title>
<g id="a_node11"><a xlink:href="quickjs_8c.html#aa2ef5af1544a3012f91a80c98c326b8f" target="_top" xlink:title="JS_NewAtom">
<polygon fill="none" stroke="#ff0000" points="336.5,-763.1496 336.5,-782.1496 413.5,-782.1496 413.5,-763.1496 336.5,-763.1496"/>
<text text-anchor="middle" x="375" y="-770.1496" font-family="Helvetica,sans-Serif" font-size="10.00" fill="#000000">JS_NewAtom</text>
</a>
</g>
</g>
<!-- Node426822&#45;&gt;Node426740 -->
<g id="edge12" class="edge">
<title>Node426822&#45;&gt;Node426740</title>
<path fill="none" stroke="#191970" d="M265.5648,-772.6496C285.8101,-772.6496 307.5466,-772.6496 326.2701,-772.6496"/>
<polygon fill="#191970" stroke="#191970" points="326.3334,-776.1497 336.3334,-772.6496 326.3333,-769.1497 326.3334,-776.1497"/>
</g>
<!-- Node426824 -->
<g id="node15" class="node">
<title>Node426824</title>
<g id="a_node15"><a xlink:href="quickjs_8c.html#ab0f713d7a2440dbb2673810323a9a78d" target="_top" xlink:title="JS_ThrowTypeErrorInvalid\lClass">
<polygon fill="none" stroke="#000000" points="309,-339.6496 309,-369.6496 441,-369.6496 441,-339.6496 309,-339.6496"/>
<text text-anchor="start" x="317" y="-357.6496" font-family="Helvetica,sans-Serif" font-size="10.00" fill="#000000">JS_ThrowTypeErrorInvalid</text>
<text text-anchor="middle" x="375" y="-346.6496" font-family="Helvetica,sans-Serif" font-size="10.00" fill="#000000">Class</text>
</a>
</g>
</g>
<!-- Node426823&#45;&gt;Node426824 -->
<g id="edge18" class="edge">
<title>Node426823&#45;&gt;Node426824</title>
<path fill="none" stroke="#191970" d="M235.6233,-354.6496C254.0716,-354.6496 276.8258,-354.6496 298.5602,-354.6496"/>
<polygon fill="#191970" stroke="#191970" points="298.7886,-358.1497 308.7886,-354.6496 298.7885,-351.1497 298.7886,-358.1497"/>
</g>
<!-- Node426825&#45;&gt;Node426419 -->
<g id="edge27" class="edge">
<title>Node426825&#45;&gt;Node426419</title>
<path fill="none" stroke="#191970" d="M225.8563,-592.2264C248.3865,-599.5677 280.5378,-609.7467 309,-617.6496 426.6802,-650.3254 459.9621,-644.5504 576,-682.6496 592.5228,-688.0746 610.4441,-695.4338 625.0343,-701.826"/>
<polygon fill="#191970" stroke="#191970" points="623.9859,-705.1905 634.5449,-706.0613 626.8335,-698.7959 623.9859,-705.1905"/>
</g>
<!-- Node426416 -->
<g id="node21" class="node">
<title>Node426416</title>
<g id="a_node21"><a xlink:href="quickjs_8c.html#ad303a9bc56766627b5fca41574933930" target="_top" xlink:title="js_alloc_string">
<polygon fill="none" stroke="#ff0000" points="487,-573.1496 487,-592.1496 566,-592.1496 566,-573.1496 487,-573.1496"/>
<text text-anchor="middle" x="526.5" y="-580.1496" font-family="Helvetica,sans-Serif" font-size="10.00" fill="#000000">js_alloc_string</text>
</a>
</g>
</g>
<!-- Node426825&#45;&gt;Node426416 -->
<g id="edge26" class="edge">
<title>Node426825&#45;&gt;Node426416</title>
<path fill="none" stroke="#191970" d="M234.1334,-590.5607C255.8446,-594.781 283.8446,-599.531 309,-601.6496 367.4597,-606.5731 382.6836,-608.0512 441,-601.6496 454.4902,-600.1688 468.9662,-597.4111 482.101,-594.4469"/>
<polygon fill="#191970" stroke="#191970" points="482.9109,-597.852 491.8453,-592.1577 481.3099,-591.0376 482.9109,-597.852"/>
</g>
<!-- Node426556 -->
<g id="node22" class="node">
<title>Node426556</title>
<g id="a_node22"><a xlink:href="quickjs_8c.html#a960b48be1175b0982ecc03505711fc56" target="_top" xlink:title="js_new_string16">
<polygon fill="none" stroke="#000000" points="331.5,-573.1496 331.5,-592.1496 418.5,-592.1496 418.5,-573.1496 331.5,-573.1496"/>
<text text-anchor="middle" x="375" y="-580.1496" font-family="Helvetica,sans-Serif" font-size="10.00" fill="#000000">js_new_string16</text>
</a>
</g>
</g>
<!-- Node426825&#45;&gt;Node426556 -->
<g id="edge28" class="edge">
<title>Node426825&#45;&gt;Node426556</title>
<path fill="none" stroke="#191970" d="M234.3146,-582.6496C259.5553,-582.6496 293.2836,-582.6496 321.388,-582.6496"/>
<polygon fill="#191970" stroke="#191970" points="321.4617,-586.1497 331.4616,-582.6496 321.4616,-579.1497 321.4617,-586.1497"/>
</g>
<!-- Node426465 -->
<g id="node23" class="node">
<title>Node426465</title>
<g id="a_node23"><a xlink:href="quickjs_8c.html#aa923510185fe24e3083baf7405b09f51" target="_top" xlink:title="js_new_string8">
<polygon fill="none" stroke="#ff0000" points="334,-535.1496 334,-554.1496 416,-554.1496 416,-535.1496 334,-535.1496"/>
<text text-anchor="middle" x="375" y="-542.1496" font-family="Helvetica,sans-Serif" font-size="10.00" fill="#000000">js_new_string8</text>
</a>
</g>
</g>
<!-- Node426825&#45;&gt;Node426465 -->
<g id="edge30" class="edge">
<title>Node426825&#45;&gt;Node426465</title>
<path fill="none" stroke="#191970" d="M234.3146,-574.6836C260.3044,-569.1352 295.2929,-561.6658 323.8748,-555.564"/>
<polygon fill="#191970" stroke="#191970" points="324.6433,-558.9789 333.6922,-553.4682 323.1818,-552.1332 324.6433,-558.9789"/>
</g>
<!-- Node426556&#45;&gt;Node426416 -->
<g id="edge29" class="edge">
<title>Node426556&#45;&gt;Node426416</title>
<path fill="none" stroke="#191970" d="M418.8201,-582.6496C436.959,-582.6496 458.0877,-582.6496 476.8011,-582.6496"/>
<polygon fill="#191970" stroke="#191970" points="476.9147,-586.1497 486.9147,-582.6496 476.9146,-579.1497 476.9147,-586.1497"/>
</g>
<!-- Node426465&#45;&gt;Node426416 -->
<g id="edge31" class="edge">
<title>Node426465&#45;&gt;Node426416</title>
<path fill="none" stroke="#191970" d="M413.2298,-554.2386C433.1319,-559.2306 457.6567,-565.382 478.7909,-570.683"/>
<polygon fill="#191970" stroke="#191970" points="477.994,-574.0915 488.5451,-573.1296 479.6971,-567.3018 477.994,-574.0915"/>
</g>
<!-- Node426826&#45;&gt;Node426420 -->
<g id="edge33" class="edge">
<title>Node426826&#45;&gt;Node426420</title>
<path fill="none" stroke="#191970" d="M422.3553,-846.0737C463.2424,-843.3972 523.7924,-838.3502 576,-829.6496 587.0794,-827.8032 598.9093,-825.2673 609.951,-822.6494"/>
<polygon fill="#191970" stroke="#191970" points="610.9406,-826.0107 619.8256,-820.2396 609.2809,-819.2103 610.9406,-826.0107"/>
</g>
<!-- Node426827 -->
<g id="node25" class="node">
<title>Node426827</title>
<g id="a_node25"><a xlink:href="quickjs_8c.html#a537e88d38784e3df2a19c72f8bd1d77e" target="_top" xlink:title="JS_ToInt64Clamp">
<polygon fill="none" stroke="#ff0000" points="479,-801.1496 479,-820.1496 574,-820.1496 574,-801.1496 479,-801.1496"/>
<text text-anchor="middle" x="526.5" y="-808.1496" font-family="Helvetica,sans-Serif" font-size="10.00" fill="#000000">JS_ToInt64Clamp</text>
</a>
</g>
</g>
<!-- Node426826&#45;&gt;Node426827 -->
<g id="edge34" class="edge">
<title>Node426826&#45;&gt;Node426827</title>
<path fill="none" stroke="#191970" d="M413.2298,-839.0606C433.1319,-834.0687 457.6567,-827.9173 478.7909,-822.6163"/>
<polygon fill="#191970" stroke="#191970" points="479.6971,-825.9975 488.5451,-820.1697 477.994,-819.2078 479.6971,-825.9975"/>
</g>
<!-- Node426827&#45;&gt;Node426419 -->
<g id="edge35" class="edge">
<title>Node426827&#45;&gt;Node426419</title>
<path fill="none" stroke="#191970" d="M539.7678,-800.8408C562.0058,-784.4002 606.9855,-751.1467 633.6968,-731.3991"/>
<polygon fill="#191970" stroke="#191970" points="636.0353,-734.0229 641.9958,-725.2636 631.874,-728.3941 636.0353,-734.0229"/>
</g>
<!-- Node426839&#45;&gt;Node426838 -->
<g id="edge41" class="edge">
<title>Node426839&#45;&gt;Node426838</title>
<path fill="none" stroke="#191970" d="M249.4431,-45.0518C274.6576,-42.3603 304.6102,-39.1631 328.9354,-36.5666"/>
<polygon fill="#191970" stroke="#191970" points="329.4137,-40.0356 338.9857,-35.4939 328.6707,-33.0751 329.4137,-40.0356"/>
</g>
</g>
</svg>
