<?xml version="1.0" encoding="UTF-8" standalone="no"?>
<!DOCTYPE svg PUBLIC "-//W3C//DTD SVG 1.1//EN"
 "http://www.w3.org/Graphics/SVG/1.1/DTD/svg11.dtd">
<!-- Generated by graphviz version 2.40.1 (20161225.0304)
 -->
<!-- Title: JS_AddIntrinsicBasicObjects Pages: 1 -->
<!--zoomable 788 -->
<svg id="main" version="1.1" xmlns="http://www.w3.org/2000/svg" xmlns:xlink="http://www.w3.org/1999/xlink" xml:space="preserve" onload="init(evt)">
<style type="text/css"><![CDATA[
.edge:hover path { stroke: red; }
.edge:hover polygon { stroke: red; fill: red; }
]]></style>
<script type="text/javascript"><![CDATA[
var edges = document.getElementsByTagName('g');
if (edges && edges.length) {
  for (var i=0;i<edges.length;i++) {
    if (edges[i].id.substr(0,4)=='edge') {
      edges[i].setAttribute('class','edge');
    }
  }
}
]]></script>
        <defs>
                <circle id="rim" cx="0" cy="0" r="7"/>
                <circle id="rim2" cx="0" cy="0" r="3.5"/>
                <g id="zoomPlus">
                        <use xlink:href="#rim" fill="#404040">
                                <set attributeName="fill" to="#808080" begin="zoomplus.mouseover" end="zoomplus.mouseout"/>
                        </use>
                        <path d="M-4,0h8M0,-4v8" fill="none" stroke="white" stroke-width="1.5" pointer-events="none"/>
                </g>
                <g id="zoomMin">
                        <use xlink:href="#rim" fill="#404040">
                                <set attributeName="fill" to="#808080" begin="zoomminus.mouseover" end="zoomminus.mouseout"/>
                        </use>
                        <path d="M-4,0h8" fill="none" stroke="white" stroke-width="1.5" pointer-events="none"/>
                </g>
                <g id="dirArrow">
                        <path fill="none" stroke="white" stroke-width="1.5" d="M0,-3.0v7 M-2.5,-0.5L0,-3.0L2.5,-0.5"/>
                </g>
               <g id="resetDef">
                       <use xlink:href="#rim2" fill="#404040">
                               <set attributeName="fill" to="#808080" begin="reset.mouseover" end="reset.mouseout"/>
                       </use>
               </g>
        </defs>

<script type="text/javascript">
var viewWidth = 798;
var viewHeight = 788;
var sectionId = 'dynsection-105';
</script>
<script xlink:href="svgpan.js"/>
<svg id="graph" class="graph">
<g id="viewport">
<title>JS_AddIntrinsicBasicObjects</title>
<!-- Node39197 -->
<g id="node1" class="node">
<title>Node39197</title>
<polygon fill="#bfbfbf" stroke="#000000" points="0,-228.5 0,-247.5 144,-247.5 144,-228.5 0,-228.5"/>
<text text-anchor="middle" x="72" y="-235.5" font-family="Helvetica,sans-Serif" font-size="10.00" fill="#000000">JS_AddIntrinsicBasicObjects</text>
</g>
<!-- Node39198 -->
<g id="node2" class="node">
<title>Node39198</title>
<g id="a_node2"><a xlink:href="quickjs_8c.html#a3cadcaa2bd1e3f9359f1c006f396cfa0" target="_top" xlink:title="add_shape_property">
<polygon fill="none" stroke="#000000" points="368.5,-532.5 368.5,-551.5 472.5,-551.5 472.5,-532.5 368.5,-532.5"/>
<text text-anchor="middle" x="420.5" y="-539.5" font-family="Helvetica,sans-Serif" font-size="10.00" fill="#000000">add_shape_property</text>
</a>
</g>
</g>
<!-- Node39197&#45;&gt;Node39198 -->
<g id="edge1" class="edge">
<title>Node39197&#45;&gt;Node39198</title>
<path fill="none" stroke="#191970" d="M74.5227,-247.5563C83.4245,-279.5233 116.3151,-383.9696 180,-442 232.2816,-489.6396 310.4609,-516.396 363.3719,-530.0034"/>
<polygon fill="#191970" stroke="#191970" points="362.7237,-533.4489 373.2735,-532.4726 364.4175,-526.6569 362.7237,-533.4489"/>
</g>
<!-- Node39223 -->
<g id="node14" class="node">
<title>Node39223</title>
<g id="a_node14"><a xlink:href="quickjs_8c.html#aab0be018b8f7bdcff45226f502c3f820" target="_top" xlink:title="get_proto_obj">
<polygon fill="none" stroke="#000000" points="541,-133.5 541,-152.5 616,-152.5 616,-133.5 541,-133.5"/>
<text text-anchor="middle" x="578.5" y="-140.5" font-family="Helvetica,sans-Serif" font-size="10.00" fill="#000000">get_proto_obj</text>
</a>
</g>
</g>
<!-- Node39197&#45;&gt;Node39223 -->
<g id="edge14" class="edge">
<title>Node39197&#45;&gt;Node39223</title>
<path fill="none" stroke="#191970" d="M85.8984,-228.3588C105.7523,-215.1408 143.8414,-191.8038 180,-181 244.5187,-161.7225 439.6971,-149.856 530.7584,-145.2267"/>
<polygon fill="#191970" stroke="#191970" points="530.9969,-148.7192 540.8094,-144.7237 530.647,-141.728 530.9969,-148.7192"/>
</g>
<!-- Node39224 -->
<g id="node15" class="node">
<title>Node39224</title>
<g id="a_node15"><a xlink:href="quickjs_8c.html#a260bfa297ff6cb5bd18e229afaa54663" target="_top" xlink:title="JS_AtomToString">
<polygon fill="none" stroke="#000000" points="373.5,-266.5 373.5,-285.5 467.5,-285.5 467.5,-266.5 373.5,-266.5"/>
<text text-anchor="middle" x="420.5" y="-273.5" font-family="Helvetica,sans-Serif" font-size="10.00" fill="#000000">JS_AtomToString</text>
</a>
</g>
</g>
<!-- Node39197&#45;&gt;Node39224 -->
<g id="edge15" class="edge">
<title>Node39197&#45;&gt;Node39224</title>
<path fill="none" stroke="#191970" d="M85.1098,-247.6622C104.6124,-261.3722 142.9573,-285.8246 180,-295 246.9909,-311.5935 327.3834,-298.9537 376.1701,-287.8388"/>
<polygon fill="#191970" stroke="#191970" points="377.1548,-291.2027 386.0847,-285.5013 375.5484,-284.3895 377.1548,-291.2027"/>
</g>
<!-- Node39245 -->
<g id="node17" class="node">
<title>Node39245</title>
<g id="a_node17"><a xlink:href="quickjs_8h.html#a775522f2d084fc8fa0fcb33f390006b4" target="_top" xlink:title="JS_DupValue">
<polygon fill="none" stroke="#000000" points="692,-380.5 692,-399.5 769,-399.5 769,-380.5 692,-380.5"/>
<text text-anchor="middle" x="730.5" y="-387.5" font-family="Helvetica,sans-Serif" font-size="10.00" fill="#000000">JS_DupValue</text>
</a>
</g>
</g>
<!-- Node39197&#45;&gt;Node39245 -->
<g id="edge26" class="edge">
<title>Node39197&#45;&gt;Node39245</title>
<path fill="none" stroke="#191970" d="M76.4158,-247.51C88.6991,-272.7473 125.9581,-341.4971 180,-371 345.5448,-461.3752 582.7572,-423.7746 682.9518,-401.7461"/>
<polygon fill="#191970" stroke="#191970" points="683.7922,-405.1446 692.7816,-399.5374 682.2575,-398.3149 683.7922,-405.1446"/>
</g>
<!-- Node39246 -->
<g id="node18" class="node">
<title>Node39246</title>
<g id="a_node18"><a xlink:href="quickjs_8c.html#a0a8765bd4012467d9139bc24aabcb3ca" target="_top" xlink:title="JS_DefinePropertyValue">
<polygon fill="none" stroke="#000000" points="187.5,-342.5 187.5,-361.5 311.5,-361.5 311.5,-342.5 187.5,-342.5"/>
<text text-anchor="middle" x="249.5" y="-349.5" font-family="Helvetica,sans-Serif" font-size="10.00" fill="#000000">JS_DefinePropertyValue</text>
</a>
</g>
</g>
<!-- Node39197&#45;&gt;Node39246 -->
<g id="edge19" class="edge">
<title>Node39197&#45;&gt;Node39246</title>
<path fill="none" stroke="#191970" d="M81.2222,-247.7454C98.8425,-265.8627 139.185,-304.9754 180,-328 187.5116,-332.2375 195.8992,-335.9099 204.1771,-339.0204"/>
<polygon fill="#191970" stroke="#191970" points="203.1905,-342.3838 213.7853,-342.4139 205.5217,-335.7834 203.1905,-342.3838"/>
</g>
<!-- Node39629 -->
<g id="node21" class="node">
<title>Node39629</title>
<g id="a_node21"><a xlink:href="quickjs_8c.html#ae11c9bc0861d37234b3118d9d4cde05d" target="_top" xlink:title="js_function_proto">
<polygon fill="none" stroke="#000000" points="204,-.5 204,-19.5 295,-19.5 295,-.5 204,-.5"/>
<text text-anchor="middle" x="249.5" y="-7.5" font-family="Helvetica,sans-Serif" font-size="10.00" fill="#000000">js_function_proto</text>
</a>
</g>
</g>
<!-- Node39197&#45;&gt;Node39629 -->
<g id="edge27" class="edge">
<title>Node39197&#45;&gt;Node39629</title>
<path fill="none" stroke="#191970" d="M74.0633,-228.3516C81.6825,-195.1327 111.4215,-84.4966 180,-29 184.3149,-25.5082 189.2221,-22.6561 194.3867,-20.3267"/>
<polygon fill="#191970" stroke="#191970" points="195.8109,-23.529 203.8886,-16.6733 193.2987,-16.9953 195.8109,-23.529"/>
</g>
<!-- Node39262 -->
<g id="node22" class="node">
<title>Node39262</title>
<g id="a_node22"><a xlink:href="quickjs_8c.html#a1030d2020be7d911eb62869f21cc3b70" target="_top" xlink:title="js_new_shape2">
<polygon fill="none" stroke="#ff0000" points="536.5,-684.5 536.5,-703.5 620.5,-703.5 620.5,-684.5 536.5,-684.5"/>
<text text-anchor="middle" x="578.5" y="-691.5" font-family="Helvetica,sans-Serif" font-size="10.00" fill="#000000">js_new_shape2</text>
</a>
</g>
</g>
<!-- Node39197&#45;&gt;Node39262 -->
<g id="edge28" class="edge">
<title>Node39197&#45;&gt;Node39262</title>
<path fill="none" stroke="#191970" d="M73.6244,-247.5803C80.2449,-283.9588 108.3275,-415.3482 180,-492 280.0561,-599.0073 449.3856,-658.0716 531.3083,-681.6894"/>
<polygon fill="#191970" stroke="#191970" points="530.5162,-685.1027 541.0915,-684.4605 532.4239,-678.3676 530.5162,-685.1027"/>
</g>
<!-- Node39630 -->
<g id="node23" class="node">
<title>Node39630</title>
<g id="a_node23"><a xlink:href="quickjs_8c.html#a27c3a725d4014a35b5bedcdf6e70dec7" target="_top" xlink:title="JS_NewAtomString">
<polygon fill="none" stroke="#000000" points="198,-266.5 198,-285.5 301,-285.5 301,-266.5 198,-266.5"/>
<text text-anchor="middle" x="249.5" y="-273.5" font-family="Helvetica,sans-Serif" font-size="10.00" fill="#000000">JS_NewAtomString</text>
</a>
</g>
</g>
<!-- Node39197&#45;&gt;Node39630 -->
<g id="edge35" class="edge">
<title>Node39197&#45;&gt;Node39630</title>
<path fill="none" stroke="#191970" d="M116.7907,-247.589C140.5303,-252.6713 169.8839,-258.9554 194.9437,-264.3203"/>
<polygon fill="#191970" stroke="#191970" points="194.5202,-267.8089 205.0313,-266.4799 195.9856,-260.964 194.5202,-267.8089"/>
</g>
<!-- Node39631 -->
<g id="node26" class="node">
<title>Node39631</title>
<g id="a_node26"><a xlink:href="quickjs_8c.html#a21cfe4c4fc9372dc0b95b37667cff0c9" target="_top" xlink:title="JS_NewCFunction3">
<polygon fill="none" stroke="#ff0000" points="197.5,-190.5 197.5,-209.5 301.5,-209.5 301.5,-190.5 197.5,-190.5"/>
<text text-anchor="middle" x="249.5" y="-197.5" font-family="Helvetica,sans-Serif" font-size="10.00" fill="#000000">JS_NewCFunction3</text>
</a>
</g>
</g>
<!-- Node39197&#45;&gt;Node39631 -->
<g id="edge39" class="edge">
<title>Node39197&#45;&gt;Node39631</title>
<path fill="none" stroke="#191970" d="M116.7907,-228.411C140.5303,-223.3287 169.8839,-217.0446 194.9437,-211.6797"/>
<polygon fill="#191970" stroke="#191970" points="195.9856,-215.036 205.0313,-209.5201 194.5202,-208.1911 195.9856,-215.036"/>
</g>
<!-- Node39257 -->
<g id="node27" class="node">
<title>Node39257</title>
<g id="a_node27"><a xlink:href="quickjs_8c.html#a73738c650f11459db0d7af3dcdf8316b" target="_top" xlink:title="JS_NewObjectProtoClass">
<polygon fill="none" stroke="#ff0000" points="355,-114.5 355,-133.5 486,-133.5 486,-114.5 355,-114.5"/>
<text text-anchor="middle" x="420.5" y="-121.5" font-family="Helvetica,sans-Serif" font-size="10.00" fill="#000000">JS_NewObjectProtoClass</text>
</a>
</g>
</g>
<!-- Node39197&#45;&gt;Node39257 -->
<g id="edge48" class="edge">
<title>Node39197&#45;&gt;Node39257</title>
<path fill="none" stroke="#191970" d="M79.9978,-228.2405C96.4203,-208.9913 136.1097,-166.4067 180,-148 232.1119,-126.1453 295.9513,-120.6426 344.7582,-120.3357"/>
<polygon fill="#191970" stroke="#191970" points="344.932,-123.8358 354.9353,-120.3451 344.9386,-116.8358 344.932,-123.8358"/>
</g>
<!-- Node39589 -->
<g id="node28" class="node">
<title>Node39589</title>
<g id="a_node28"><a xlink:href="quickjs_8c.html#afc0d8ea75588216ec132a6e1655524a7" target="_top" xlink:title="JS_NewObject">
<polygon fill="none" stroke="#000000" points="208,-76.5 208,-95.5 291,-95.5 291,-76.5 208,-76.5"/>
<text text-anchor="middle" x="249.5" y="-83.5" font-family="Helvetica,sans-Serif" font-size="10.00" fill="#000000">JS_NewObject</text>
</a>
</g>
</g>
<!-- Node39197&#45;&gt;Node39589 -->
<g id="edge44" class="edge">
<title>Node39197&#45;&gt;Node39589</title>
<path fill="none" stroke="#191970" d="M77.5035,-228.4547C91.548,-204.9114 131.0869,-143.5511 180,-110 186.1515,-105.7805 193.1161,-102.2367 200.2021,-99.2801"/>
<polygon fill="#191970" stroke="#191970" points="201.7706,-102.4283 209.8749,-95.604 199.2838,-95.8849 201.7706,-102.4283"/>
</g>
<!-- Node39461 -->
<g id="node29" class="node">
<title>Node39461</title>
<g id="a_node29"><a xlink:href="quickjs_8c.html#a884d294acbf5be675ffc760e38bd0521" target="_top" xlink:title="JS_NewObjectProto">
<polygon fill="none" stroke="#000000" points="196.5,-38.5 196.5,-57.5 302.5,-57.5 302.5,-38.5 196.5,-38.5"/>
<text text-anchor="middle" x="249.5" y="-45.5" font-family="Helvetica,sans-Serif" font-size="10.00" fill="#000000">JS_NewObjectProto</text>
</a>
</g>
</g>
<!-- Node39197&#45;&gt;Node39461 -->
<g id="edge46" class="edge">
<title>Node39197&#45;&gt;Node39461</title>
<path fill="none" stroke="#191970" d="M75.3179,-228.0921C85.6959,-198.6623 120.4493,-111.0767 180,-67 182.5324,-65.1256 185.2393,-63.4361 188.0618,-61.9133"/>
<polygon fill="#191970" stroke="#191970" points="189.7911,-64.9698 197.3977,-57.5948 186.8522,-58.6166 189.7911,-64.9698"/>
</g>
<!-- Node39632 -->
<g id="node30" class="node">
<title>Node39632</title>
<g id="a_node30"><a xlink:href="quickjs_8c.html#ac00854b7f1f0f8567af964a2f8f2adb0" target="_top" xlink:title="JS_SetPropertyFunctionList">
<polygon fill="none" stroke="#ff0000" points="180,-228.5 180,-247.5 319,-247.5 319,-228.5 180,-228.5"/>
<text text-anchor="middle" x="249.5" y="-235.5" font-family="Helvetica,sans-Serif" font-size="10.00" fill="#000000">JS_SetPropertyFunctionList</text>
</a>
</g>
</g>
<!-- Node39197&#45;&gt;Node39632 -->
<g id="edge49" class="edge">
<title>Node39197&#45;&gt;Node39632</title>
<path fill="none" stroke="#191970" d="M144.196,-238C152.5891,-238 161.1869,-238 169.6747,-238"/>
<polygon fill="#191970" stroke="#191970" points="169.9522,-241.5001 179.9522,-238 169.9522,-234.5001 169.9522,-241.5001"/>
</g>
<!-- Node39199 -->
<g id="node3" class="node">
<title>Node39199</title>
<g id="a_node3"><a xlink:href="quickjs_8c.html#ae5e76f4be6214208cc91f10a192fc810" target="_top" xlink:title="js_shape_hash_unlink">
<polygon fill="none" stroke="#ff0000" points="522,-570.5 522,-589.5 635,-589.5 635,-570.5 522,-570.5"/>
<text text-anchor="middle" x="578.5" y="-577.5" font-family="Helvetica,sans-Serif" font-size="10.00" fill="#000000">js_shape_hash_unlink</text>
</a>
</g>
</g>
<!-- Node39198&#45;&gt;Node39199 -->
<g id="edge2" class="edge">
<title>Node39198&#45;&gt;Node39199</title>
<path fill="none" stroke="#191970" d="M460.3701,-551.589C481.2199,-556.6035 506.9346,-562.7881 529.0429,-568.1053"/>
<polygon fill="#191970" stroke="#191970" points="528.3754,-571.5445 538.9166,-570.4799 530.0123,-564.7385 528.3754,-571.5445"/>
</g>
<!-- Node39201 -->
<g id="node4" class="node">
<title>Node39201</title>
<g id="a_node4"><a xlink:href="quickjs_8c.html#a11f047846c1027dc6066a5f1b2ef292a" target="_top" xlink:title="shape_hash">
<polygon fill="none" stroke="#000000" points="544,-532.5 544,-551.5 613,-551.5 613,-532.5 544,-532.5"/>
<text text-anchor="middle" x="578.5" y="-539.5" font-family="Helvetica,sans-Serif" font-size="10.00" fill="#000000">shape_hash</text>
</a>
</g>
</g>
<!-- Node39198&#45;&gt;Node39201 -->
<g id="edge3" class="edge">
<title>Node39198&#45;&gt;Node39201</title>
<path fill="none" stroke="#191970" d="M472.673,-542C492.3918,-542 514.6411,-542 533.6323,-542"/>
<polygon fill="#191970" stroke="#191970" points="533.811,-545.5001 543.811,-542 533.8109,-538.5001 533.811,-545.5001"/>
</g>
<!-- Node39202 -->
<g id="node5" class="node">
<title>Node39202</title>
<g id="a_node5"><a xlink:href="quickjs_8c.html#aa80740ff93b724ea7e0c280826f4a25a" target="_top" xlink:title="resize_properties">
<polygon fill="none" stroke="#ff0000" points="533,-722.5 533,-741.5 624,-741.5 624,-722.5 533,-722.5"/>
<text text-anchor="middle" x="578.5" y="-729.5" font-family="Helvetica,sans-Serif" font-size="10.00" fill="#000000">resize_properties</text>
</a>
</g>
</g>
<!-- Node39198&#45;&gt;Node39202 -->
<g id="edge4" class="edge">
<title>Node39198&#45;&gt;Node39202</title>
<path fill="none" stroke="#191970" d="M423.5546,-551.749C433.1304,-580.7352 465.3473,-667.2095 522,-713 524.1517,-714.7392 526.4702,-716.3223 528.8972,-717.763"/>
<polygon fill="#191970" stroke="#191970" points="527.551,-721.0039 538.0559,-722.381 530.7026,-714.7535 527.551,-721.0039"/>
</g>
<!-- Node39213 -->
<g id="node9" class="node">
<title>Node39213</title>
<g id="a_node9"><a xlink:href="quickjs_8c.html#acab22c2945c4d609e57a2484feb68a96" target="_top" xlink:title="prop_hash_end">
<polygon fill="none" stroke="#000000" points="689,-646.5 689,-665.5 772,-665.5 772,-646.5 689,-646.5"/>
<text text-anchor="middle" x="730.5" y="-653.5" font-family="Helvetica,sans-Serif" font-size="10.00" fill="#000000">prop_hash_end</text>
</a>
</g>
</g>
<!-- Node39198&#45;&gt;Node39213 -->
<g id="edge13" class="edge">
<title>Node39198&#45;&gt;Node39213</title>
<path fill="none" stroke="#191970" d="M459.4705,-551.501C468.8103,-555.0148 478.2984,-559.7304 486,-566 509.5289,-585.1542 496.6853,-607.2769 522,-624 568.6327,-654.8059 633.7638,-660.2548 678.7654,-659.6314"/>
<polygon fill="#191970" stroke="#191970" points="678.9852,-663.1272 688.8969,-659.3843 678.8145,-656.1293 678.9852,-663.1272"/>
</g>
<!-- Node39218 -->
<g id="node10" class="node">
<title>Node39218</title>
<g id="a_node10"><a xlink:href="quickjs_8c.html#a82dbe63adeac7849406fd48d96f39f7b" target="_top" xlink:title="js_shape_hash_link">
<polygon fill="none" stroke="#ff0000" points="679.5,-608.5 679.5,-627.5 781.5,-627.5 781.5,-608.5 679.5,-608.5"/>
<text text-anchor="middle" x="730.5" y="-615.5" font-family="Helvetica,sans-Serif" font-size="10.00" fill="#000000">js_shape_hash_link</text>
</a>
</g>
</g>
<!-- Node39198&#45;&gt;Node39218 -->
<g id="edge9" class="edge">
<title>Node39198&#45;&gt;Node39218</title>
<path fill="none" stroke="#191970" d="M454.3081,-551.5602C464.8599,-555.2752 476.2744,-560.0828 486,-566 504.5428,-577.2817 502.1497,-590.2207 522,-599 568.4698,-619.5524 626.3607,-623.3245 669.3426,-622.514"/>
<polygon fill="#191970" stroke="#191970" points="669.4793,-626.0117 679.3789,-622.237 669.2862,-619.0143 669.4793,-626.0117"/>
</g>
<!-- Node39219 -->
<g id="node11" class="node">
<title>Node39219</title>
<g id="a_node11"><a xlink:href="quickjs_8c.html#a643df594b75933007bcdbb071b5ea8c5" target="_top" xlink:title="get_shape_prop">
<polygon fill="none" stroke="#000000" points="535.5,-380.5 535.5,-399.5 621.5,-399.5 621.5,-380.5 535.5,-380.5"/>
<text text-anchor="middle" x="578.5" y="-387.5" font-family="Helvetica,sans-Serif" font-size="10.00" fill="#000000">get_shape_prop</text>
</a>
</g>
</g>
<!-- Node39198&#45;&gt;Node39219 -->
<g id="edge10" class="edge">
<title>Node39198&#45;&gt;Node39219</title>
<path fill="none" stroke="#191970" d="M430.3836,-532.4917C456.5415,-507.3272 527.8412,-438.735 561.0489,-406.7884"/>
<polygon fill="#191970" stroke="#191970" points="563.8401,-408.9599 568.6201,-399.5047 558.987,-403.9153 563.8401,-408.9599"/>
</g>
<!-- Node39220 -->
<g id="node12" class="node">
<title>Node39220</title>
<g id="a_node12"><a xlink:href="quickjs_8c.html#abbf44eaeace1104a6bef718fbf5700fe" target="_top" xlink:title="JS_DupAtom">
<polygon fill="none" stroke="#ff0000" points="541,-494.5 541,-513.5 616,-513.5 616,-494.5 541,-494.5"/>
<text text-anchor="middle" x="578.5" y="-501.5" font-family="Helvetica,sans-Serif" font-size="10.00" fill="#000000">JS_DupAtom</text>
</a>
</g>
</g>
<!-- Node39198&#45;&gt;Node39220 -->
<g id="edge11" class="edge">
<title>Node39198&#45;&gt;Node39220</title>
<path fill="none" stroke="#191970" d="M460.3701,-532.411C481.7748,-527.263 508.3069,-520.8819 530.8004,-515.472"/>
<polygon fill="#191970" stroke="#191970" points="531.9139,-518.8041 540.8182,-513.0627 530.277,-511.9982 531.9139,-518.8041"/>
</g>
<!-- Node39222 -->
<g id="node13" class="node">
<title>Node39222</title>
<g id="a_node13"><a xlink:href="quickjs_8c.html#a288254c06a39c9fca740a7abdad2834e" target="_top" xlink:title="__JS_AtomIsTaggedInt">
<polygon fill="none" stroke="#000000" points="671,-304.5 671,-323.5 790,-323.5 790,-304.5 671,-304.5"/>
<text text-anchor="middle" x="730.5" y="-311.5" font-family="Helvetica,sans-Serif" font-size="10.00" fill="#000000">__JS_AtomIsTaggedInt</text>
</a>
</g>
</g>
<!-- Node39198&#45;&gt;Node39222 -->
<g id="edge12" class="edge">
<title>Node39198&#45;&gt;Node39222</title>
<path fill="none" stroke="#191970" d="M437.2031,-532.396C481.2962,-506.9252 599.8429,-437.6474 635,-409 653.0352,-394.3042 654.5954,-387.4962 671,-371 684.7687,-357.1544 700.7706,-341.8684 712.7096,-330.6145"/>
<polygon fill="#191970" stroke="#191970" points="715.355,-332.9317 720.2486,-323.5347 710.5631,-327.8289 715.355,-332.9317"/>
</g>
<!-- Node39204 -->
<g id="node6" class="node">
<title>Node39204</title>
<g id="a_node6"><a xlink:href="quickjs_8c.html#a78b7f6b85f2739b551ff54f16156128b" target="_top" xlink:title="js_malloc">
<polygon fill="none" stroke="#ff0000" points="701.5,-760.5 701.5,-779.5 759.5,-779.5 759.5,-760.5 701.5,-760.5"/>
<text text-anchor="middle" x="730.5" y="-767.5" font-family="Helvetica,sans-Serif" font-size="10.00" fill="#000000">js_malloc</text>
</a>
</g>
</g>
<!-- Node39202&#45;&gt;Node39204 -->
<g id="edge5" class="edge">
<title>Node39202&#45;&gt;Node39204</title>
<path fill="none" stroke="#191970" d="M616.856,-741.589C639.6858,-747.2964 668.5785,-754.5196 691.5178,-760.2545"/>
<polygon fill="#191970" stroke="#191970" points="690.7213,-763.663 701.2716,-762.6929 692.4191,-756.872 690.7213,-763.663"/>
</g>
<!-- Node39208 -->
<g id="node7" class="node">
<title>Node39208</title>
<g id="a_node7"><a xlink:href="quickjs_8c.html#ab54e821a9b1b55dc16c4494bd410b698" target="_top" xlink:title="get_shape_size">
<polygon fill="none" stroke="#000000" points="688,-722.5 688,-741.5 773,-741.5 773,-722.5 688,-722.5"/>
<text text-anchor="middle" x="730.5" y="-729.5" font-family="Helvetica,sans-Serif" font-size="10.00" fill="#000000">get_shape_size</text>
</a>
</g>
</g>
<!-- Node39202&#45;&gt;Node39208 -->
<g id="edge6" class="edge">
<title>Node39202&#45;&gt;Node39208</title>
<path fill="none" stroke="#191970" d="M624.105,-732C640.991,-732 660.2739,-732 677.7436,-732"/>
<polygon fill="#191970" stroke="#191970" points="677.7883,-735.5001 687.7882,-732 677.7882,-728.5001 677.7883,-735.5001"/>
</g>
<!-- Node39209 -->
<g id="node8" class="node">
<title>Node39209</title>
<g id="a_node8"><a xlink:href="quickjs_8c.html#a8b6c89e0f589df709eb31a92b7fac32a" target="_top" xlink:title="get_shape_from_alloc">
<polygon fill="none" stroke="#000000" points="674.5,-684.5 674.5,-703.5 786.5,-703.5 786.5,-684.5 674.5,-684.5"/>
<text text-anchor="middle" x="730.5" y="-691.5" font-family="Helvetica,sans-Serif" font-size="10.00" fill="#000000">get_shape_from_alloc</text>
</a>
</g>
</g>
<!-- Node39202&#45;&gt;Node39209 -->
<g id="edge7" class="edge">
<title>Node39202&#45;&gt;Node39209</title>
<path fill="none" stroke="#191970" d="M616.856,-722.411C636.8237,-717.4191 661.4295,-711.2676 682.6334,-705.9666"/>
<polygon fill="#191970" stroke="#191970" points="683.5673,-709.341 692.4198,-703.5201 681.8695,-702.55 683.5673,-709.341"/>
</g>
<!-- Node39202&#45;&gt;Node39213 -->
<g id="edge8" class="edge">
<title>Node39202&#45;&gt;Node39213</title>
<path fill="none" stroke="#191970" d="M615.5631,-722.4383C622.3029,-719.9043 629.0694,-716.7881 635,-713 654.6063,-700.4769 651.2984,-687.3726 671,-675 674.3145,-672.9185 677.8772,-671.0462 681.5521,-669.3656"/>
<polygon fill="#191970" stroke="#191970" points="682.9061,-672.5933 690.8409,-665.5727 680.2598,-666.1128 682.9061,-672.5933"/>
</g>
<!-- Node39225 -->
<g id="node16" class="node">
<title>Node39225</title>
<g id="a_node16"><a xlink:href="quickjs_8c.html#a06ff303a11e6641cbf1f6634e6a61811" target="_top" xlink:title="__JS_AtomToValue">
<polygon fill="none" stroke="#ff0000" points="526.5,-228.5 526.5,-247.5 630.5,-247.5 630.5,-228.5 526.5,-228.5"/>
<text text-anchor="middle" x="578.5" y="-235.5" font-family="Helvetica,sans-Serif" font-size="10.00" fill="#000000">__JS_AtomToValue</text>
</a>
</g>
</g>
<!-- Node39224&#45;&gt;Node39225 -->
<g id="edge16" class="edge">
<title>Node39224&#45;&gt;Node39225</title>
<path fill="none" stroke="#191970" d="M460.3701,-266.411C481.2199,-261.3965 506.9346,-255.2119 529.0429,-249.8947"/>
<polygon fill="#191970" stroke="#191970" points="530.0123,-253.2615 538.9166,-247.5201 528.3754,-246.4555 530.0123,-253.2615"/>
</g>
<!-- Node39225&#45;&gt;Node39222 -->
<g id="edge17" class="edge">
<title>Node39225&#45;&gt;Node39222</title>
<path fill="none" stroke="#191970" d="M610.9347,-247.585C618.9324,-250.3072 627.385,-253.496 635,-257 661.0781,-268.9996 689.0758,-286.286 707.9681,-298.6716"/>
<polygon fill="#191970" stroke="#191970" points="706.1962,-301.6964 716.4628,-304.3134 710.069,-295.8653 706.1962,-301.6964"/>
</g>
<!-- Node39225&#45;&gt;Node39245 -->
<g id="edge18" class="edge">
<title>Node39225&#45;&gt;Node39245</title>
<path fill="none" stroke="#191970" d="M620.1392,-247.6221C625.5271,-250.0764 630.6676,-253.1508 635,-257 662.9406,-281.8246 649.1433,-302.6813 671,-333 682.0109,-348.2739 697.4285,-362.9099 709.8105,-373.5261"/>
<polygon fill="#191970" stroke="#191970" points="707.8841,-376.4769 717.8062,-380.1921 712.3665,-371.1002 707.8841,-376.4769"/>
</g>
<!-- Node39247 -->
<g id="node19" class="node">
<title>Node39247</title>
<g id="a_node19"><a xlink:href="quickjs_8c.html#ab50618f1bf78e444caa6da0e3e2785d7" target="_top" xlink:title="JS_DefineProperty">
<polygon fill="none" stroke="#ff0000" points="371,-342.5 371,-361.5 470,-361.5 470,-342.5 371,-342.5"/>
<text text-anchor="middle" x="420.5" y="-349.5" font-family="Helvetica,sans-Serif" font-size="10.00" fill="#000000">JS_DefineProperty</text>
</a>
</g>
</g>
<!-- Node39246&#45;&gt;Node39247 -->
<g id="edge20" class="edge">
<title>Node39246&#45;&gt;Node39247</title>
<path fill="none" stroke="#191970" d="M311.7187,-352C327.699,-352 344.854,-352 360.7086,-352"/>
<polygon fill="#191970" stroke="#191970" points="360.9142,-355.5001 370.9141,-352 360.9141,-348.5001 360.9142,-355.5001"/>
</g>
<!-- Node39298 -->
<g id="node20" class="node">
<title>Node39298</title>
<g id="a_node20"><a xlink:href="quickjs_8h.html#afaa20c47565bc704c6c85f3d77254e7d" target="_top" xlink:title="JS_FreeValue">
<polygon fill="none" stroke="#ff0000" points="539.5,-266.5 539.5,-285.5 617.5,-285.5 617.5,-266.5 539.5,-266.5"/>
<text text-anchor="middle" x="578.5" y="-273.5" font-family="Helvetica,sans-Serif" font-size="10.00" fill="#000000">JS_FreeValue</text>
</a>
</g>
</g>
<!-- Node39246&#45;&gt;Node39298 -->
<g id="edge25" class="edge">
<title>Node39246&#45;&gt;Node39298</title>
<path fill="none" stroke="#191970" d="M290.8349,-342.4515C351.53,-328.4308 464.5678,-302.3187 529.4047,-287.3412"/>
<polygon fill="#191970" stroke="#191970" points="530.4257,-290.6976 539.3813,-285.0365 528.8501,-283.8772 530.4257,-290.6976"/>
</g>
<!-- Node39247&#45;&gt;Node39219 -->
<g id="edge23" class="edge">
<title>Node39247&#45;&gt;Node39219</title>
<path fill="none" stroke="#191970" d="M460.3701,-361.589C481.2199,-366.6035 506.9346,-372.7881 529.0429,-378.1053"/>
<polygon fill="#191970" stroke="#191970" points="528.3754,-381.5445 538.9166,-380.4799 530.0123,-374.7385 528.3754,-381.5445"/>
</g>
<!-- Node39247&#45;&gt;Node39222 -->
<g id="edge24" class="edge">
<title>Node39247&#45;&gt;Node39222</title>
<path fill="none" stroke="#191970" d="M470.3069,-345.8946C521.8119,-339.5811 602.658,-329.671 660.5614,-322.5731"/>
<polygon fill="#191970" stroke="#191970" points="661.2319,-326.0172 670.7318,-321.3264 660.3802,-319.0692 661.2319,-326.0172"/>
</g>
<!-- Node39247&#45;&gt;Node39245 -->
<g id="edge22" class="edge">
<title>Node39247&#45;&gt;Node39245</title>
<path fill="none" stroke="#191970" d="M470.0886,-354.8674C513.6765,-357.7507 578.7491,-362.9371 635,-371 650.2277,-373.1827 666.6967,-376.2145 681.6003,-379.2158"/>
<polygon fill="#191970" stroke="#191970" points="681.1337,-382.693 691.6336,-381.278 682.543,-375.8363 681.1337,-382.693"/>
</g>
<!-- Node39247&#45;&gt;Node39298 -->
<g id="edge21" class="edge">
<title>Node39247&#45;&gt;Node39298</title>
<path fill="none" stroke="#191970" d="M452.6903,-342.4338C463.5877,-338.6195 475.6194,-333.7539 486,-328 503.7285,-318.1733 504.5251,-310.2709 522,-300 528.5061,-296.176 535.736,-292.6312 542.7913,-289.5037"/>
<polygon fill="#191970" stroke="#191970" points="544.3765,-292.6334 552.2197,-285.5106 541.6465,-286.1877 544.3765,-292.6334"/>
</g>
<!-- Node39262&#45;&gt;Node39204 -->
<g id="edge29" class="edge">
<title>Node39262&#45;&gt;Node39204</title>
<path fill="none" stroke="#191970" d="M615.5631,-703.5617C622.3029,-706.0957 629.0694,-709.2119 635,-713 654.6063,-725.5231 651.2984,-738.6274 671,-751 677.3134,-754.9648 684.527,-758.1704 691.702,-760.7386"/>
<polygon fill="#191970" stroke="#191970" points="690.7825,-764.1195 701.374,-763.857 692.9306,-757.4572 690.7825,-764.1195"/>
</g>
<!-- Node39262&#45;&gt;Node39208 -->
<g id="edge30" class="edge">
<title>Node39262&#45;&gt;Node39208</title>
<path fill="none" stroke="#191970" d="M616.856,-703.589C636.8237,-708.5809 661.4295,-714.7324 682.6334,-720.0334"/>
<polygon fill="#191970" stroke="#191970" points="681.8695,-723.45 692.4198,-722.4799 683.5673,-716.659 681.8695,-723.45"/>
</g>
<!-- Node39262&#45;&gt;Node39209 -->
<g id="edge31" class="edge">
<title>Node39262&#45;&gt;Node39209</title>
<path fill="none" stroke="#191970" d="M620.8405,-694C634.3298,-694 649.5921,-694 664.3503,-694"/>
<polygon fill="#191970" stroke="#191970" points="664.4591,-697.5001 674.4591,-694 664.459,-690.5001 664.4591,-697.5001"/>
</g>
<!-- Node39262&#45;&gt;Node39213 -->
<g id="edge33" class="edge">
<title>Node39262&#45;&gt;Node39213</title>
<path fill="none" stroke="#191970" d="M616.856,-684.411C636.8237,-679.4191 661.4295,-673.2676 682.6334,-667.9666"/>
<polygon fill="#191970" stroke="#191970" points="683.5673,-671.341 692.4198,-665.5201 681.8695,-664.55 683.5673,-671.341"/>
</g>
<!-- Node39262&#45;&gt;Node39218 -->
<g id="edge34" class="edge">
<title>Node39262&#45;&gt;Node39218</title>
<path fill="none" stroke="#191970" d="M591.7116,-684.4196C609.1608,-672.1108 641.1752,-650.7027 671,-637 675.7436,-634.8206 680.8071,-632.789 685.9026,-630.9267"/>
<polygon fill="#191970" stroke="#191970" points="687.3528,-634.1289 695.6651,-627.5596 685.0704,-627.5114 687.3528,-634.1289"/>
</g>
<!-- Node39262&#45;&gt;Node39245 -->
<g id="edge32" class="edge">
<title>Node39262&#45;&gt;Node39245</title>
<path fill="none" stroke="#191970" d="M584.6259,-684.4862C595.3944,-667.5968 618.1693,-631.1265 635,-599 670.7213,-530.815 706.848,-446.6826 722.4759,-409.3785"/>
<polygon fill="#191970" stroke="#191970" points="725.8679,-410.3375 726.4845,-399.7606 719.4067,-407.6445 725.8679,-410.3375"/>
</g>
<!-- Node39630&#45;&gt;Node39224 -->
<g id="edge37" class="edge">
<title>Node39630&#45;&gt;Node39224</title>
<path fill="none" stroke="#191970" d="M301.2697,-276C320.7738,-276 343.0669,-276 363.0583,-276"/>
<polygon fill="#191970" stroke="#191970" points="363.2757,-279.5001 373.2757,-276 363.2756,-272.5001 363.2757,-279.5001"/>
</g>
<!-- Node39519 -->
<g id="node24" class="node">
<title>Node39519</title>
<g id="a_node24"><a xlink:href="quickjs_8c.html#aa2ef5af1544a3012f91a80c98c326b8f" target="_top" xlink:title="JS_NewAtom">
<polygon fill="none" stroke="#ff0000" points="382,-190.5 382,-209.5 459,-209.5 459,-190.5 382,-190.5"/>
<text text-anchor="middle" x="420.5" y="-197.5" font-family="Helvetica,sans-Serif" font-size="10.00" fill="#000000">JS_NewAtom</text>
</a>
</g>
</g>
<!-- Node39630&#45;&gt;Node39519 -->
<g id="edge36" class="edge">
<title>Node39630&#45;&gt;Node39519</title>
<path fill="none" stroke="#191970" d="M298.0136,-266.4235C305.323,-263.9488 312.5613,-260.8564 319,-257 338.9584,-245.0461 335.1346,-231.1079 355,-219 360.1816,-215.8419 365.9136,-213.1867 371.768,-210.9598"/>
<polygon fill="#191970" stroke="#191970" points="373.3156,-214.1307 381.6606,-207.603 371.0662,-207.5019 373.3156,-214.1307"/>
</g>
<!-- Node39296 -->
<g id="node25" class="node">
<title>Node39296</title>
<g id="a_node25"><a xlink:href="quickjs_8c.html#ab7fc45a99935a1c0ba50b0216d9401a9" target="_top" xlink:title="JS_FreeAtom">
<polygon fill="none" stroke="#ff0000" points="382,-228.5 382,-247.5 459,-247.5 459,-228.5 382,-228.5"/>
<text text-anchor="middle" x="420.5" y="-235.5" font-family="Helvetica,sans-Serif" font-size="10.00" fill="#000000">JS_FreeAtom</text>
</a>
</g>
</g>
<!-- Node39630&#45;&gt;Node39296 -->
<g id="edge38" class="edge">
<title>Node39630&#45;&gt;Node39296</title>
<path fill="none" stroke="#191970" d="M292.6505,-266.411C316.7382,-261.0582 346.8254,-254.3721 371.7604,-248.831"/>
<polygon fill="#191970" stroke="#191970" points="372.7416,-252.1984 381.7442,-246.6124 371.2231,-245.3651 372.7416,-252.1984"/>
</g>
<!-- Node39631&#45;&gt;Node39519 -->
<g id="edge42" class="edge">
<title>Node39631&#45;&gt;Node39519</title>
<path fill="none" stroke="#191970" d="M301.7348,-200C324.0347,-200 349.9113,-200 371.8074,-200"/>
<polygon fill="#191970" stroke="#191970" points="371.8811,-203.5001 381.881,-200 371.881,-196.5001 371.8811,-203.5001"/>
</g>
<!-- Node39631&#45;&gt;Node39296 -->
<g id="edge43" class="edge">
<title>Node39631&#45;&gt;Node39296</title>
<path fill="none" stroke="#191970" d="M292.6505,-209.589C316.7382,-214.9418 346.8254,-221.6279 371.7604,-227.169"/>
<polygon fill="#191970" stroke="#191970" points="371.2231,-230.6349 381.7442,-229.3876 372.7416,-223.8016 371.2231,-230.6349"/>
</g>
<!-- Node39631&#45;&gt;Node39257 -->
<g id="edge40" class="edge">
<title>Node39631&#45;&gt;Node39257</title>
<path fill="none" stroke="#191970" d="M271.1573,-190.3745C301.0947,-177.069 355.294,-152.9804 389.512,-137.7724"/>
<polygon fill="#191970" stroke="#191970" points="391.302,-140.8071 399.0186,-133.5473 388.459,-134.4104 391.302,-140.8071"/>
</g>
<!-- Node39257&#45;&gt;Node39223 -->
<g id="edge41" class="edge">
<title>Node39257&#45;&gt;Node39223</title>
<path fill="none" stroke="#191970" d="M486.1336,-131.8926C501.1433,-133.6976 516.8161,-135.5823 530.8989,-137.2758"/>
<polygon fill="#191970" stroke="#191970" points="530.4938,-140.7522 540.8401,-138.4713 531.3296,-133.8023 530.4938,-140.7522"/>
</g>
<!-- Node39589&#45;&gt;Node39257 -->
<g id="edge45" class="edge">
<title>Node39589&#45;&gt;Node39257</title>
<path fill="none" stroke="#191970" d="M291.3313,-95.2958C314.3604,-100.4134 343.1673,-106.8149 367.7296,-112.2732"/>
<polygon fill="#191970" stroke="#191970" points="367.093,-115.7171 377.6141,-114.4698 368.6115,-108.8838 367.093,-115.7171"/>
</g>
<!-- Node39461&#45;&gt;Node39257 -->
<g id="edge47" class="edge">
<title>Node39461&#45;&gt;Node39257</title>
<path fill="none" stroke="#191970" d="M290.8494,-57.5158C300.2507,-60.1692 310.0889,-63.3446 319,-67 347.2136,-78.5734 377.4303,-96.3062 397.4872,-108.9167"/>
<polygon fill="#191970" stroke="#191970" points="395.6305,-111.8838 405.9438,-114.3098 399.3944,-105.9818 395.6305,-111.8838"/>
</g>
<!-- Node39632&#45;&gt;Node39296 -->
<g id="edge50" class="edge">
<title>Node39632&#45;&gt;Node39296</title>
<path fill="none" stroke="#191970" d="M319.0522,-238C336.6496,-238 355.1813,-238 371.5215,-238"/>
<polygon fill="#191970" stroke="#191970" points="371.9111,-241.5001 381.911,-238 371.911,-234.5001 371.9111,-241.5001"/>
</g>
</g>
</svg>
        <g id="navigator" transform="translate(0 0)" fill="#404254">
                <rect fill="#f2f5e9" fill-opacity="0.5" stroke="#606060" stroke-width=".5" x="0" y="0" width="60" height="60"/>
                <use id="zoomplus" xlink:href="#zoomPlus" x="17" y="9" onmousedown="handleZoom(evt,'in')"/>
                <use id="zoomminus" xlink:href="#zoomMin" x="42" y="9" onmousedown="handleZoom(evt,'out')"/>
                <use id="reset" xlink:href="#resetDef" x="30" y="36" onmousedown="handleReset()"/>
                <g id="arrowUp" xlink:href="#dirArrow" transform="translate(30 24)" onmousedown="handlePan(0,-1)">
                  <use xlink:href="#rim" fill="#404040">
                        <set attributeName="fill" to="#808080" begin="arrowUp.mouseover" end="arrowUp.mouseout"/>
                  </use>
                  <path fill="none" stroke="white" stroke-width="1.5" d="M0,-3.0v7 M-2.5,-0.5L0,-3.0L2.5,-0.5"/>
                </g>
                <g id="arrowRight" xlink:href="#dirArrow" transform="rotate(90) translate(36 -43)" onmousedown="handlePan(1,0)">
                  <use xlink:href="#rim" fill="#404040">
                        <set attributeName="fill" to="#808080" begin="arrowRight.mouseover" end="arrowRight.mouseout"/>
                  </use>
                  <path fill="none" stroke="white" stroke-width="1.5" d="M0,-3.0v7 M-2.5,-0.5L0,-3.0L2.5,-0.5"/>
                </g>
                <g id="arrowDown" xlink:href="#dirArrow" transform="rotate(180) translate(-30 -48)" onmousedown="handlePan(0,1)">
                  <use xlink:href="#rim" fill="#404040">
                        <set attributeName="fill" to="#808080" begin="arrowDown.mouseover" end="arrowDown.mouseout"/>
                  </use>
                  <path fill="none" stroke="white" stroke-width="1.5" d="M0,-3.0v7 M-2.5,-0.5L0,-3.0L2.5,-0.5"/>
                </g>
                <g id="arrowLeft" xlink:href="#dirArrow" transform="rotate(270) translate(-36 17)" onmousedown="handlePan(-1,0)">
                  <use xlink:href="#rim" fill="#404040">
                        <set attributeName="fill" to="#808080" begin="arrowLeft.mouseover" end="arrowLeft.mouseout"/>
                  </use>
                  <path fill="none" stroke="white" stroke-width="1.5" d="M0,-3.0v7 M-2.5,-0.5L0,-3.0L2.5,-0.5"/>
                </g>
        </g>
        <svg viewBox="0 0 15 15" width="100%" height="30px" preserveAspectRatio="xMaxYMin meet">
         <g id="arrow_out" transform="scale(0.3 0.3)">
          <a xlink:href="quickjs_8c_a7efb53c2f76fd5cc0e584449437ec09c_cgraph_org.svg" target="_base">
           <rect id="button" ry="5" rx="5" y="6" x="6" height="38" width="38"
                fill="#f2f5e9" fill-opacity="0.5" stroke="#606060" stroke-width="1.0"/>
           <path id="arrow"
             d="M 11.500037,31.436501 C 11.940474,20.09759 22.043105,11.32322 32.158766,21.979434 L 37.068811,17.246167 C 37.068811,17.246167 37.088388,32 37.088388,32 L 22.160133,31.978069 C 22.160133,31.978069 26.997745,27.140456 26.997745,27.140456 C 18.528582,18.264221 13.291696,25.230495 11.500037,31.436501 z"
             style="fill:#404040;"/>
          </a>
         </g>
        </svg>
</svg>
