<?xml version="1.0" encoding="UTF-8" standalone="no"?>
<!DOCTYPE svg PUBLIC "-//W3C//DTD SVG 1.1//EN"
 "http://www.w3.org/Graphics/SVG/1.1/DTD/svg11.dtd">
<!-- Generated by graphviz version 2.40.1 (20161225.0304)
 -->
<!-- Title: js_regexp_test Pages: 1 -->
<!--zoomable 1101 -->
<svg id="main" version="1.1" xmlns="http://www.w3.org/2000/svg" xmlns:xlink="http://www.w3.org/1999/xlink" xml:space="preserve" onload="init(evt)">
<style type="text/css"><![CDATA[
.edge:hover path { stroke: red; }
.edge:hover polygon { stroke: red; fill: red; }
]]></style>
<script type="text/javascript"><![CDATA[
var edges = document.getElementsByTagName('g');
if (edges && edges.length) {
  for (var i=0;i<edges.length;i++) {
    if (edges[i].id.substr(0,4)=='edge') {
      edges[i].setAttribute('class','edge');
    }
  }
}
]]></script>
        <defs>
                <circle id="rim" cx="0" cy="0" r="7"/>
                <circle id="rim2" cx="0" cy="0" r="3.5"/>
                <g id="zoomPlus">
                        <use xlink:href="#rim" fill="#404040">
                                <set attributeName="fill" to="#808080" begin="zoomplus.mouseover" end="zoomplus.mouseout"/>
                        </use>
                        <path d="M-4,0h8M0,-4v8" fill="none" stroke="white" stroke-width="1.5" pointer-events="none"/>
                </g>
                <g id="zoomMin">
                        <use xlink:href="#rim" fill="#404040">
                                <set attributeName="fill" to="#808080" begin="zoomminus.mouseover" end="zoomminus.mouseout"/>
                        </use>
                        <path d="M-4,0h8" fill="none" stroke="white" stroke-width="1.5" pointer-events="none"/>
                </g>
                <g id="dirArrow">
                        <path fill="none" stroke="white" stroke-width="1.5" d="M0,-3.0v7 M-2.5,-0.5L0,-3.0L2.5,-0.5"/>
                </g>
               <g id="resetDef">
                       <use xlink:href="#rim2" fill="#404040">
                               <set attributeName="fill" to="#808080" begin="reset.mouseover" end="reset.mouseout"/>
                       </use>
               </g>
        </defs>

<script type="text/javascript">
var viewWidth = 1062;
var viewHeight = 1101;
var sectionId = 'dynsection-1604';
</script>
<script xlink:href="svgpan.js"/>
<svg id="graph" class="graph">
<g id="viewport">
<title>js_regexp_test</title>
<!-- Node427757 -->
<g id="node1" class="node">
<title>Node427757</title>
<polygon fill="#bfbfbf" stroke="#000000" points="0,-703.6735 0,-722.6735 80,-722.6735 80,-703.6735 0,-703.6735"/>
<text text-anchor="middle" x="40" y="-710.6735" font-family="Helvetica,sans-Serif" font-size="10.00" fill="#000000">js_regexp_test</text>
</g>
<!-- Node427758 -->
<g id="node2" class="node">
<title>Node427758</title>
<g id="a_node2"><a xlink:href="quickjs_8h.html#afaa20c47565bc704c6c85f3d77254e7d" target="_top" xlink:title="JS_FreeValue">
<polygon fill="none" stroke="#000000" points="713,-722.6735 713,-741.6735 791,-741.6735 791,-722.6735 713,-722.6735"/>
<text text-anchor="middle" x="752" y="-729.6735" font-family="Helvetica,sans-Serif" font-size="10.00" fill="#000000">JS_FreeValue</text>
</a>
</g>
</g>
<!-- Node427757&#45;&gt;Node427758 -->
<g id="edge1" class="edge">
<title>Node427757&#45;&gt;Node427758</title>
<path fill="none" stroke="#191970" d="M41.3482,-722.9229C50.144,-782.2451 104.7927,-1092.1735 286.5,-1092.1735 286.5,-1092.1735 286.5,-1092.1735 441,-1092.1735 550.7922,-1092.1735 601.1069,-1098.5117 677,-1019.1735 714.5456,-979.9235 741.138,-810.5014 749.3366,-752.0724"/>
<polygon fill="#191970" stroke="#191970" points="752.8352,-752.3212 750.7288,-741.9379 745.9003,-751.3685 752.8352,-752.3212"/>
</g>
<!-- Node427796 -->
<g id="node5" class="node">
<title>Node427796</title>
<g id="a_node5"><a xlink:href="quickjs_8h.html#ad80a83d73e9b7d872b88fbf2943aebe9" target="_top" xlink:title="JS_IsException">
<polygon fill="none" stroke="#000000" points="572,-95.6735 572,-114.6735 658,-114.6735 658,-95.6735 572,-95.6735"/>
<text text-anchor="middle" x="615" y="-102.6735" font-family="Helvetica,sans-Serif" font-size="10.00" fill="#000000">JS_IsException</text>
</a>
</g>
</g>
<!-- Node427757&#45;&gt;Node427796 -->
<g id="edge4" class="edge">
<title>Node427757&#45;&gt;Node427796</title>
<path fill="none" stroke="#191970" d="M41.1267,-703.4494C48.3403,-645.0011 92.6631,-336.6405 244,-150.1735 323.2938,-52.473 392.5566,-56.5525 517,-75.1735 538.9272,-78.4545 562.7265,-85.649 581.3805,-92.17"/>
<polygon fill="#191970" stroke="#191970" points="580.3044,-95.5024 590.8989,-95.594 582.6739,-88.9156 580.3044,-95.5024"/>
</g>
<!-- Node427797 -->
<g id="node6" class="node">
<title>Node427797</title>
<g id="a_node6"><a xlink:href="quickjs_8h.html#a149f24b67e745bad93573b3b4c80db4c" target="_top" xlink:title="JS_IsNull">
<polygon fill="none" stroke="#000000" points="585.5,-.6735 585.5,-19.6735 644.5,-19.6735 644.5,-.6735 585.5,-.6735"/>
<text text-anchor="middle" x="615" y="-7.6735" font-family="Helvetica,sans-Serif" font-size="10.00" fill="#000000">JS_IsNull</text>
</a>
</g>
</g>
<!-- Node427757&#45;&gt;Node427797 -->
<g id="edge5" class="edge">
<title>Node427757&#45;&gt;Node427797</title>
<path fill="none" stroke="#191970" d="M40.5703,-703.2853C44.3552,-639.9118 67.2101,-290.4477 116,-197.1735 179.7791,-75.2434 231.6491,-47.1184 365,-13.1735 437.2589,5.2203 525.1105,.2796 575.0929,-4.9618"/>
<polygon fill="#191970" stroke="#191970" points="574.8402,-8.4551 585.1645,-6.0765 575.6103,-1.4976 574.8402,-8.4551"/>
</g>
<!-- Node427798 -->
<g id="node7" class="node">
<title>Node427798</title>
<g id="a_node7"><a xlink:href="quickjs_8h.html#a93abffa925714e249a6aa2f4ae7900f6" target="_top" xlink:title="JS_NewBool">
<polygon fill="none" stroke="#000000" points="578,-968.6735 578,-987.6735 652,-987.6735 652,-968.6735 578,-968.6735"/>
<text text-anchor="middle" x="615" y="-975.6735" font-family="Helvetica,sans-Serif" font-size="10.00" fill="#000000">JS_NewBool</text>
</a>
</g>
</g>
<!-- Node427757&#45;&gt;Node427798 -->
<g id="edge6" class="edge">
<title>Node427757&#45;&gt;Node427798</title>
<path fill="none" stroke="#191970" d="M49.427,-722.8043C77.1712,-750.7563 161.7611,-833.2048 244,-885.1735 293.9375,-916.7301 308.3727,-923.3531 365,-940.1735 433.9002,-960.6394 516.9233,-970.4702 567.8247,-974.8982"/>
<polygon fill="#191970" stroke="#191970" points="567.6157,-978.3929 577.8725,-975.7382 568.1989,-971.4172 567.6157,-978.3929"/>
</g>
<!-- Node427799 -->
<g id="node8" class="node">
<title>Node427799</title>
<g id="a_node8"><a xlink:href="quickjs_8c.html#ab737681b4f1a426c560df37c1304c9d6" target="_top" xlink:title="JS_RegExpExec">
<polygon fill="none" stroke="#000000" points="116,-703.6735 116,-722.6735 208,-722.6735 208,-703.6735 116,-703.6735"/>
<text text-anchor="middle" x="162" y="-710.6735" font-family="Helvetica,sans-Serif" font-size="10.00" fill="#000000">JS_RegExpExec</text>
</a>
</g>
</g>
<!-- Node427757&#45;&gt;Node427799 -->
<g id="edge7" class="edge">
<title>Node427757&#45;&gt;Node427799</title>
<path fill="none" stroke="#191970" d="M80.2855,-713.1735C88.4667,-713.1735 97.2121,-713.1735 105.8281,-713.1735"/>
<polygon fill="#191970" stroke="#191970" points="105.8417,-716.6736 115.8417,-713.1735 105.8417,-709.6736 105.8417,-716.6736"/>
</g>
<!-- Node427759 -->
<g id="node3" class="node">
<title>Node427759</title>
<g id="a_node3"><a xlink:href="quickjs_8c.html#aa059f309c30fd5166d16c82a97973146" target="_top" xlink:title="__JS_FreeValue">
<polygon fill="none" stroke="#000000" points="827,-722.6735 827,-741.6735 916,-741.6735 916,-722.6735 827,-722.6735"/>
<text text-anchor="middle" x="871.5" y="-729.6735" font-family="Helvetica,sans-Serif" font-size="10.00" fill="#000000">__JS_FreeValue</text>
</a>
</g>
</g>
<!-- Node427758&#45;&gt;Node427759 -->
<g id="edge2" class="edge">
<title>Node427758&#45;&gt;Node427759</title>
<path fill="none" stroke="#191970" d="M791.1288,-732.1735C799.3481,-732.1735 808.1608,-732.1735 816.8298,-732.1735"/>
<polygon fill="#191970" stroke="#191970" points="816.8964,-735.6736 826.8964,-732.1735 816.8964,-728.6736 816.8964,-735.6736"/>
</g>
<!-- Node427760 -->
<g id="node4" class="node">
<title>Node427760</title>
<g id="a_node4"><a xlink:href="quickjs_8c.html#ab1ea3fad7d138be12144a38be4d36423" target="_top" xlink:title="__JS_FreeValueRT">
<polygon fill="none" stroke="#ff0000" points="952,-722.6735 952,-741.6735 1054,-741.6735 1054,-722.6735 952,-722.6735"/>
<text text-anchor="middle" x="1003" y="-729.6735" font-family="Helvetica,sans-Serif" font-size="10.00" fill="#000000">__JS_FreeValueRT</text>
</a>
</g>
</g>
<!-- Node427759&#45;&gt;Node427760 -->
<g id="edge3" class="edge">
<title>Node427759&#45;&gt;Node427760</title>
<path fill="none" stroke="#191970" d="M916.0199,-732.1735C924.2672,-732.1735 933.0138,-732.1735 941.6583,-732.1735"/>
<polygon fill="#191970" stroke="#191970" points="941.7233,-735.6736 951.7233,-732.1735 941.7232,-728.6736 941.7233,-735.6736"/>
</g>
<!-- Node427799&#45;&gt;Node427758 -->
<g id="edge26" class="edge">
<title>Node427799&#45;&gt;Node427758</title>
<path fill="none" stroke="#191970" d="M164.0936,-722.7157C170.7849,-751.1346 194.1952,-836.269 244,-885.1735 348.2294,-987.5185 408.5033,-975.7499 553,-997.1735 607.5152,-1005.2561 633.0435,-1030.416 677,-997.1735 717.0489,-966.8861 741.8661,-807.9229 749.4875,-751.8097"/>
<polygon fill="#191970" stroke="#191970" points="752.9762,-752.1248 750.8172,-741.7523 746.0366,-751.2073 752.9762,-752.1248"/>
</g>
<!-- Node427799&#45;&gt;Node427796 -->
<g id="edge28" class="edge">
<title>Node427799&#45;&gt;Node427796</title>
<path fill="none" stroke="#191970" d="M163.6719,-703.6507C176.3529,-632.6032 259.7458,-185.9167 365,-109.1735 426.7837,-64.1256 521.9058,-79.1766 575.2362,-92.9492"/>
<polygon fill="#191970" stroke="#191970" points="574.4405,-96.3596 585.0066,-95.5797 576.2604,-89.6002 574.4405,-96.3596"/>
</g>
<!-- Node427799&#45;&gt;Node427797 -->
<g id="edge30" class="edge">
<title>Node427799&#45;&gt;Node427797</title>
<path fill="none" stroke="#191970" d="M162.3089,-703.5558C164.5982,-637.1773 180.6404,-246.8226 244,-150.1735 317.869,-37.4932 495.6285,-15.2767 575.2553,-11.0619"/>
<polygon fill="#191970" stroke="#191970" points="575.5403,-14.5526 585.3688,-10.5965 575.2185,-7.56 575.5403,-14.5526"/>
</g>
<!-- Node427800 -->
<g id="node9" class="node">
<title>Node427800</title>
<g id="a_node9"><a xlink:href="quickjs_8c.html#a75f6ee5e4235a7dc99889f3d2eb2c147" target="_top" xlink:title="JS_CallFree">
<polygon fill="none" stroke="#000000" points="251,-722.6735 251,-741.6735 322,-741.6735 322,-722.6735 251,-722.6735"/>
<text text-anchor="middle" x="286.5" y="-729.6735" font-family="Helvetica,sans-Serif" font-size="10.00" fill="#000000">JS_CallFree</text>
</a>
</g>
</g>
<!-- Node427799&#45;&gt;Node427800 -->
<g id="edge8" class="edge">
<title>Node427799&#45;&gt;Node427800</title>
<path fill="none" stroke="#191970" d="M208.0055,-720.1944C218.7139,-721.8286 230.112,-723.5681 240.8069,-725.2002"/>
<polygon fill="#191970" stroke="#191970" points="240.3863,-728.6765 250.7998,-726.7253 241.4424,-721.7566 240.3863,-728.6765"/>
</g>
<!-- Node427827 -->
<g id="node14" class="node">
<title>Node427827</title>
<g id="a_node14"><a xlink:href="quickjs_8h.html#a89b7c8686c7eee70b86be722ee4730ad" target="_top" xlink:title="JS_GetProperty">
<polygon fill="none" stroke="#ff0000" points="572,-854.6735 572,-873.6735 658,-873.6735 658,-854.6735 572,-854.6735"/>
<text text-anchor="middle" x="615" y="-861.6735" font-family="Helvetica,sans-Serif" font-size="10.00" fill="#000000">JS_GetProperty</text>
</a>
</g>
</g>
<!-- Node427799&#45;&gt;Node427827 -->
<g id="edge27" class="edge">
<title>Node427799&#45;&gt;Node427827</title>
<path fill="none" stroke="#191970" d="M169.5423,-722.8351C193.8443,-753.0721 273.8411,-845.7988 365,-878.1735 434.5578,-902.8766 521.8296,-888.6498 572.7145,-876.2685"/>
<polygon fill="#191970" stroke="#191970" points="573.8563,-879.5901 582.6956,-873.7491 572.1431,-872.803 573.8563,-879.5901"/>
</g>
<!-- Node428044 -->
<g id="node15" class="node">
<title>Node428044</title>
<g id="a_node15"><a xlink:href="quickjs_8h.html#a3d68fe446df2d9c7d1900b16371bff5b" target="_top" xlink:title="JS_IsObject">
<polygon fill="none" stroke="#000000" points="579.5,-930.6735 579.5,-949.6735 650.5,-949.6735 650.5,-930.6735 579.5,-930.6735"/>
<text text-anchor="middle" x="615" y="-937.6735" font-family="Helvetica,sans-Serif" font-size="10.00" fill="#000000">JS_IsObject</text>
</a>
</g>
</g>
<!-- Node427799&#45;&gt;Node428044 -->
<g id="edge31" class="edge">
<title>Node427799&#45;&gt;Node428044</title>
<path fill="none" stroke="#191970" d="M165.7141,-722.7916C175.3175,-746.5699 203.1097,-808.888 244,-846.1735 335.9092,-929.9802 491.7782,-941.4844 568.9243,-941.6145"/>
<polygon fill="#191970" stroke="#191970" points="569.2899,-945.1128 579.2726,-941.5637 569.2555,-938.1129 569.2899,-945.1128"/>
</g>
<!-- Node427882 -->
<g id="node19" class="node">
<title>Node427882</title>
<g id="a_node19"><a xlink:href="quickjs_8c.html#a1ca9cdb1fa2ffc3e6506e92b200e490f" target="_top" xlink:title="JS_IsFunction">
<polygon fill="none" stroke="#000000" points="246.5,-684.6735 246.5,-703.6735 326.5,-703.6735 326.5,-684.6735 246.5,-684.6735"/>
<text text-anchor="middle" x="286.5" y="-691.6735" font-family="Helvetica,sans-Serif" font-size="10.00" fill="#000000">JS_IsFunction</text>
</a>
</g>
</g>
<!-- Node427799&#45;&gt;Node427882 -->
<g id="edge29" class="edge">
<title>Node427799&#45;&gt;Node427882</title>
<path fill="none" stroke="#191970" d="M208.0055,-706.1526C217.2636,-704.7397 227.0372,-703.2481 236.4262,-701.8153"/>
<polygon fill="#191970" stroke="#191970" points="237.0633,-705.2586 246.4208,-700.29 236.0072,-698.3388 237.0633,-705.2586"/>
</g>
<!-- Node428190 -->
<g id="node20" class="node">
<title>Node428190</title>
<g id="a_node20"><a xlink:href="quickjs_8c.html#a9eb2d90f27f684820f9de13189502b7c" target="_top" xlink:title="js_regexp_exec">
<polygon fill="none" stroke="#ff0000" points="244,-475.6735 244,-494.6735 329,-494.6735 329,-475.6735 244,-475.6735"/>
<text text-anchor="middle" x="286.5" y="-482.6735" font-family="Helvetica,sans-Serif" font-size="10.00" fill="#000000">js_regexp_exec</text>
</a>
</g>
</g>
<!-- Node427799&#45;&gt;Node428190 -->
<g id="edge32" class="edge">
<title>Node427799&#45;&gt;Node428190</title>
<path fill="none" stroke="#191970" d="M167.1911,-703.6669C186.056,-669.1192 251.1911,-549.8356 276.4134,-503.6454"/>
<polygon fill="#191970" stroke="#191970" points="279.566,-505.1748 281.2867,-494.7207 273.4223,-501.82 279.566,-505.1748"/>
</g>
<!-- Node427800&#45;&gt;Node427758 -->
<g id="edge25" class="edge">
<title>Node427800&#45;&gt;Node427758</title>
<path fill="none" stroke="#191970" d="M288.2877,-741.9404C293.8733,-769.2797 313.7866,-846.6311 365,-878.1735 424.0423,-914.5376 618.0624,-919.707 677,-883.1735 723.9394,-854.0772 742.4278,-785.8504 748.9059,-751.9756"/>
<polygon fill="#191970" stroke="#191970" points="752.391,-752.3642 750.6662,-741.9107 745.4957,-751.1582 752.391,-752.3642"/>
</g>
<!-- Node427801 -->
<g id="node10" class="node">
<title>Node427801</title>
<g id="a_node10"><a xlink:href="quickjs_8c.html#ac2894ff4edcdb4e6841bcce9c76081e3" target="_top" xlink:title="JS_CallInternal">
<polygon fill="none" stroke="#ff0000" points="399.5,-722.6735 399.5,-741.6735 482.5,-741.6735 482.5,-722.6735 399.5,-722.6735"/>
<text text-anchor="middle" x="441" y="-729.6735" font-family="Helvetica,sans-Serif" font-size="10.00" fill="#000000">JS_CallInternal</text>
</a>
</g>
</g>
<!-- Node427800&#45;&gt;Node427801 -->
<g id="edge9" class="edge">
<title>Node427800&#45;&gt;Node427801</title>
<path fill="none" stroke="#191970" d="M322.3337,-726.3727C342.1881,-725.3633 367.2246,-725.159 389.1775,-725.7596"/>
<polygon fill="#191970" stroke="#191970" points="389.2295,-729.2633 399.3427,-726.1055 389.4676,-722.2673 389.2295,-729.2633"/>
</g>
<!-- Node427801&#45;&gt;Node427758 -->
<g id="edge16" class="edge">
<title>Node427801&#45;&gt;Node427758</title>
<path fill="none" stroke="#191970" d="M482.6201,-732.1735C539.5735,-732.1735 641.6436,-732.1735 702.4646,-732.1735"/>
<polygon fill="#191970" stroke="#191970" points="702.5895,-735.6736 712.5895,-732.1735 702.5894,-728.6736 702.5895,-735.6736"/>
</g>
<!-- Node427801&#45;&gt;Node427796 -->
<g id="edge18" class="edge">
<title>Node427801&#45;&gt;Node427796</title>
<path fill="none" stroke="#191970" d="M462.1332,-722.6714C480.1179,-713.3533 504.9015,-697.3185 517,-675.1735 569.7718,-578.58 512.3245,-283.4509 553,-181.1735 562.2915,-157.8103 581.4907,-136.1145 596.0773,-121.9351"/>
<polygon fill="#191970" stroke="#191970" points="598.7134,-124.2614 603.6142,-114.8681 593.9254,-119.155 598.7134,-124.2614"/>
</g>
<!-- Node427801&#45;&gt;Node427797 -->
<g id="edge19" class="edge">
<title>Node427801&#45;&gt;Node427797</title>
<path fill="none" stroke="#191970" d="M462.5506,-722.5225C480.546,-713.2002 505.1095,-697.2437 517,-675.1735 579.1966,-559.7287 505.254,-208.3055 553,-86.1735 562.1546,-62.7563 581.3748,-41.0689 596.0038,-26.9061"/>
<polygon fill="#191970" stroke="#191970" points="598.6428,-29.2307 603.5655,-19.8489 593.8667,-24.1131 598.6428,-29.2307"/>
</g>
<!-- Node427801&#45;&gt;Node427798 -->
<g id="edge22" class="edge">
<title>Node427801&#45;&gt;Node427798</title>
<path fill="none" stroke="#191970" d="M454.531,-741.6753C471.7612,-754.5146 501.1894,-779.0591 517,-807.1735 551.03,-867.6855 505.5257,-908.5183 553,-959.1735 557.1921,-963.6464 562.4059,-967.0762 568.0172,-969.7041"/>
<polygon fill="#191970" stroke="#191970" points="567.135,-973.1137 577.7256,-973.4124 569.6328,-966.5745 567.135,-973.1137"/>
</g>
<!-- Node427801&#45;&gt;Node427800 -->
<g id="edge11" class="edge">
<title>Node427801&#45;&gt;Node427800</title>
<path fill="none" stroke="#191970" d="M399.3427,-738.2414C378.6679,-739.0932 353.64,-739.1472 332.4131,-738.4034"/>
<polygon fill="#191970" stroke="#191970" points="332.4736,-734.9029 322.3337,-737.9743 332.1758,-741.8966 332.4736,-734.9029"/>
</g>
<!-- Node427801&#45;&gt;Node427801 -->
<g id="edge12" class="edge">
<title>Node427801&#45;&gt;Node427801</title>
<path fill="none" stroke="#191970" d="M417.2641,-741.9305C405.7169,-750.7387 413.6289,-760.1735 441,-760.1735 458.9623,-760.1735 468.5442,-756.1103 469.7458,-750.8274"/>
<polygon fill="#191970" stroke="#191970" points="472.6923,-748.9267 464.7359,-741.9305 466.5928,-752.3614 472.6923,-748.9267"/>
</g>
<!-- Node427802 -->
<g id="node11" class="node">
<title>Node427802</title>
<g id="a_node11"><a xlink:href="quickjs_8c.html#a853f0924d441ea4225488f37c8b69f9a" target="_top" xlink:title="__attribute__">
<polygon fill="none" stroke="#000000" points="578.5,-684.6735 578.5,-703.6735 651.5,-703.6735 651.5,-684.6735 578.5,-684.6735"/>
<text text-anchor="middle" x="615" y="-691.6735" font-family="Helvetica,sans-Serif" font-size="10.00" fill="#000000">__attribute__</text>
</a>
</g>
</g>
<!-- Node427801&#45;&gt;Node427802 -->
<g id="edge10" class="edge">
<title>Node427801&#45;&gt;Node427802</title>
<path fill="none" stroke="#191970" d="M482.6773,-723.0715C508.531,-717.4253 541.7931,-710.1612 568.5005,-704.3285"/>
<polygon fill="#191970" stroke="#191970" points="569.3634,-707.7227 578.3863,-702.1696 567.8698,-700.8839 569.3634,-707.7227"/>
</g>
<!-- Node427936 -->
<g id="node12" class="node">
<title>Node427936</title>
<g id="a_node12"><a xlink:href="quickjs_8c.html#a0a8765bd4012467d9139bc24aabcb3ca" target="_top" xlink:title="JS_DefinePropertyValue">
<polygon fill="none" stroke="#ff0000" points="553,-190.6735 553,-209.6735 677,-209.6735 677,-190.6735 553,-190.6735"/>
<text text-anchor="middle" x="615" y="-197.6735" font-family="Helvetica,sans-Serif" font-size="10.00" fill="#000000">JS_DefinePropertyValue</text>
</a>
</g>
</g>
<!-- Node427801&#45;&gt;Node427936 -->
<g id="edge13" class="edge">
<title>Node427801&#45;&gt;Node427936</title>
<path fill="none" stroke="#191970" d="M462.0168,-722.607C479.925,-713.2466 504.6619,-697.1858 517,-675.1735 599.9464,-527.1892 497.0115,-455.3132 553,-295.1735 563.3897,-265.4566 584.9764,-235.8126 599.727,-217.736"/>
<polygon fill="#191970" stroke="#191970" points="602.6015,-219.7549 606.34,-209.8416 597.2355,-215.2598 602.6015,-219.7549"/>
</g>
<!-- Node427822 -->
<g id="node13" class="node">
<title>Node427822</title>
<g id="a_node13"><a xlink:href="quickjs_8h.html#a775522f2d084fc8fa0fcb33f390006b4" target="_top" xlink:title="JS_DupValue">
<polygon fill="none" stroke="#000000" points="576.5,-778.6735 576.5,-797.6735 653.5,-797.6735 653.5,-778.6735 576.5,-778.6735"/>
<text text-anchor="middle" x="615" y="-785.6735" font-family="Helvetica,sans-Serif" font-size="10.00" fill="#000000">JS_DupValue</text>
</a>
</g>
</g>
<!-- Node427801&#45;&gt;Node427822 -->
<g id="edge15" class="edge">
<title>Node427801&#45;&gt;Node427822</title>
<path fill="none" stroke="#191970" d="M470.9117,-741.8002C499.8452,-751.1122 543.8611,-765.2782 575.6293,-775.5024"/>
<polygon fill="#191970" stroke="#191970" points="574.8872,-778.9404 585.4787,-778.6724 577.0318,-772.2769 574.8872,-778.9404"/>
</g>
<!-- Node427801&#45;&gt;Node427827 -->
<g id="edge17" class="edge">
<title>Node427801&#45;&gt;Node427827</title>
<path fill="none" stroke="#191970" d="M453.7946,-741.8797C483.5843,-764.4788 557.803,-820.7826 594.2036,-848.3969"/>
<polygon fill="#191970" stroke="#191970" points="592.1043,-851.1975 602.1866,-854.453 596.335,-845.6206 592.1043,-851.1975"/>
</g>
<!-- Node427801&#45;&gt;Node428044 -->
<g id="edge20" class="edge">
<title>Node427801&#45;&gt;Node428044</title>
<path fill="none" stroke="#191970" d="M453.095,-741.7736C469.2767,-755.0952 498.1177,-780.567 517,-807.1735 538.6312,-837.6534 530.8332,-853.0808 553,-883.1735 564.5951,-898.9144 580.9917,-913.7621 594.0109,-924.3553"/>
<polygon fill="#191970" stroke="#191970" points="591.9796,-927.2111 601.9943,-930.6689 596.3217,-921.7205 591.9796,-927.2111"/>
</g>
<!-- Node428031 -->
<g id="node16" class="node">
<title>Node428031</title>
<g id="a_node16"><a xlink:href="quickjs_8c.html#ad4ba09e4c7ab9f28c144182e1aacf1f6" target="_top" xlink:title="JS_NewArray">
<polygon fill="none" stroke="#ff0000" points="576.5,-579.6735 576.5,-598.6735 653.5,-598.6735 653.5,-579.6735 576.5,-579.6735"/>
<text text-anchor="middle" x="615" y="-586.6735" font-family="Helvetica,sans-Serif" font-size="10.00" fill="#000000">JS_NewArray</text>
</a>
</g>
</g>
<!-- Node427801&#45;&gt;Node428031 -->
<g id="edge21" class="edge">
<title>Node427801&#45;&gt;Node428031</title>
<path fill="none" stroke="#191970" d="M454.4164,-722.5903C469.7893,-711.5002 495.6157,-692.533 517,-675.1735 545.756,-651.8297 577.7881,-623.1935 597.1609,-605.5669"/>
<polygon fill="#191970" stroke="#191970" points="599.6185,-608.0624 604.642,-598.7342 594.8978,-602.8937 599.6185,-608.0624"/>
</g>
<!-- Node427834 -->
<g id="node17" class="node">
<title>Node427834</title>
<g id="a_node17"><a xlink:href="quickjs_8h.html#a2050bc428da1c65ac7eb87c3fa3b0392" target="_top" xlink:title="JS_NewInt32">
<polygon fill="none" stroke="#000000" points="577,-408.6735 577,-427.6735 653,-427.6735 653,-408.6735 577,-408.6735"/>
<text text-anchor="middle" x="615" y="-415.6735" font-family="Helvetica,sans-Serif" font-size="10.00" fill="#000000">JS_NewInt32</text>
</a>
</g>
</g>
<!-- Node427801&#45;&gt;Node427834 -->
<g id="edge23" class="edge">
<title>Node427801&#45;&gt;Node427834</title>
<path fill="none" stroke="#191970" d="M459.4738,-722.5888C476.6358,-712.8089 501.7698,-696.115 517,-675.1735 546.0165,-635.2758 535.6768,-616.3653 553,-570.1735 571.1825,-521.6904 594.7854,-465.4637 606.9564,-436.9058"/>
<polygon fill="#191970" stroke="#191970" points="610.1784,-438.2727 610.8919,-427.7019 603.7421,-435.5205 610.1784,-438.2727"/>
</g>
<!-- Node428070 -->
<g id="node18" class="node">
<title>Node428070</title>
<g id="a_node18"><a xlink:href="quickjs_8c.html#a884d294acbf5be675ffc760e38bd0521" target="_top" xlink:title="JS_NewObjectProto">
<polygon fill="none" stroke="#ff0000" points="562,-304.6735 562,-323.6735 668,-323.6735 668,-304.6735 562,-304.6735"/>
<text text-anchor="middle" x="615" y="-311.6735" font-family="Helvetica,sans-Serif" font-size="10.00" fill="#000000">JS_NewObjectProto</text>
</a>
</g>
</g>
<!-- Node427801&#45;&gt;Node428070 -->
<g id="edge24" class="edge">
<title>Node427801&#45;&gt;Node428070</title>
<path fill="none" stroke="#191970" d="M461.8294,-722.4998C479.6144,-713.0688 504.2759,-696.965 517,-675.1735 579.3771,-568.3455 507.121,-514.057 553,-399.1735 563.3835,-373.1726 583.5601,-347.8349 598.08,-331.6877"/>
<polygon fill="#191970" stroke="#191970" points="600.8533,-333.8439 605.0754,-324.1267 595.7151,-329.09 600.8533,-333.8439"/>
</g>
<!-- Node427936&#45;&gt;Node427758 -->
<g id="edge14" class="edge">
<title>Node427936&#45;&gt;Node427758</title>
<path fill="none" stroke="#191970" d="M657.6422,-209.7742C665.0367,-213.2059 671.9573,-217.8608 677,-224.1735 738.9106,-301.6761 749.8594,-628.2978 751.664,-712.3715"/>
<polygon fill="#191970" stroke="#191970" points="748.1686,-712.6437 751.8623,-722.5738 755.1672,-712.5076 748.1686,-712.6437"/>
</g>
<!-- Node428190&#45;&gt;Node427758 -->
<g id="edge40" class="edge">
<title>Node428190&#45;&gt;Node427758</title>
<path fill="none" stroke="#191970" d="M287.466,-475.4141C291.0722,-444.7833 306.7032,-350.1611 365,-309.1735 421.7749,-269.256 623.9361,-250.4408 677,-295.1735 709.6059,-322.6601 741.9612,-630.0118 750.0676,-712.1125"/>
<polygon fill="#191970" stroke="#191970" points="746.6296,-712.9187 751.0848,-722.5312 753.5965,-712.2384 746.6296,-712.9187"/>
</g>
<!-- Node428190&#45;&gt;Node427796 -->
<g id="edge43" class="edge">
<title>Node428190&#45;&gt;Node427796</title>
<path fill="none" stroke="#191970" d="M287.3777,-475.4138C292.0804,-425.3497 315.9325,-197.8995 365,-151.1735 392.6436,-124.849 497.0898,-113.0966 561.9145,-108.2429"/>
<polygon fill="#191970" stroke="#191970" points="562.2366,-111.7289 571.9604,-107.522 561.7355,-104.7469 562.2366,-111.7289"/>
</g>
<!-- Node428190&#45;&gt;Node427802 -->
<g id="edge33" class="edge">
<title>Node428190&#45;&gt;Node427802</title>
<path fill="none" stroke="#191970" d="M287.1155,-494.7665C289.7332,-526.7298 302.88,-630.1253 365,-675.1735 424.4219,-718.2651 514.0366,-712.8305 568.2833,-704.1021"/>
<polygon fill="#191970" stroke="#191970" points="569.0472,-707.5223 578.3135,-702.3855 567.8664,-700.6226 569.0472,-707.5223"/>
</g>
<!-- Node428190&#45;&gt;Node427936 -->
<g id="edge34" class="edge">
<title>Node428190&#45;&gt;Node427936</title>
<path fill="none" stroke="#191970" d="M287.4428,-475.4993C292.3017,-427.86 316.1966,-218.9755 365,-181.1735 430.0067,-130.8207 535.2042,-165.1259 585.8804,-186.5663"/>
<polygon fill="#191970" stroke="#191970" points="584.695,-189.8676 595.2606,-190.654 587.4914,-183.4504 584.695,-189.8676"/>
</g>
<!-- Node428190&#45;&gt;Node427822 -->
<g id="edge38" class="edge">
<title>Node428190&#45;&gt;Node427822</title>
<path fill="none" stroke="#191970" d="M288.4959,-494.8848C298.3943,-542.6138 342.6321,-750.7692 365,-769.1735 421.3248,-815.5173 511.0283,-809.3312 566.2799,-799.5278"/>
<polygon fill="#191970" stroke="#191970" points="566.9985,-802.9541 576.1799,-797.667 565.7054,-796.0746 566.9985,-802.9541"/>
</g>
<!-- Node428190&#45;&gt;Node427827 -->
<g id="edge42" class="edge">
<title>Node428190&#45;&gt;Node427827</title>
<path fill="none" stroke="#191970" d="M288.7519,-495.0546C295.1547,-523.1888 313.9715,-606.1459 329,-675.1735 345.4296,-750.6368 306.8855,-794.3075 365,-845.1735 420.6563,-893.8879 512.5732,-886.3036 568.0924,-875.696"/>
<polygon fill="#191970" stroke="#191970" points="568.9084,-879.1019 578.0185,-873.693 567.5237,-872.2402 568.9084,-879.1019"/>
</g>
<!-- Node428190&#45;&gt;Node428031 -->
<g id="edge44" class="edge">
<title>Node428190&#45;&gt;Node428031</title>
<path fill="none" stroke="#191970" d="M292.617,-475.5919C304.248,-458.3824 331.4158,-422.7673 365,-409.1735 427.6203,-383.8268 458.9225,-374.6661 517,-409.1735 576.5799,-444.5734 602.228,-530.3027 611.0884,-569.2848"/>
<polygon fill="#191970" stroke="#191970" points="607.73,-570.3185 613.238,-579.369 614.5762,-568.859 607.73,-570.3185"/>
</g>
<!-- Node428190&#45;&gt;Node427834 -->
<g id="edge45" class="edge">
<title>Node428190&#45;&gt;Node427834</title>
<path fill="none" stroke="#191970" d="M289.9082,-475.5362C298.436,-453.0982 323.072,-397.6472 365,-376.1735 439.761,-337.8841 541.999,-380.0285 589.1936,-403.9585"/>
<polygon fill="#191970" stroke="#191970" points="587.6506,-407.1011 598.137,-408.6128 590.8821,-400.8916 587.6506,-407.1011"/>
</g>
<!-- Node428190&#45;&gt;Node428070 -->
<g id="edge46" class="edge">
<title>Node428190&#45;&gt;Node428070</title>
<path fill="none" stroke="#191970" d="M289.3376,-475.5264C297.0344,-451.1971 320.7585,-387.1494 365,-357.1735 420.2312,-319.7515 497.6374,-311.5611 551.6348,-311.1107"/>
<polygon fill="#191970" stroke="#191970" points="551.7699,-314.6107 561.7712,-311.1144 551.7725,-307.6107 551.7699,-314.6107"/>
</g>
<!-- Node428191 -->
<g id="node21" class="node">
<title>Node428191</title>
<g id="a_node21"><a xlink:href="quickjs_8c.html#a841f4cb887e4d9e03e94a0697255e578" target="_top" xlink:title="JS_DefinePropertyValueStr">
<polygon fill="none" stroke="#ff0000" points="372.5,-190.6735 372.5,-209.6735 509.5,-209.6735 509.5,-190.6735 372.5,-190.6735"/>
<text text-anchor="middle" x="441" y="-197.6735" font-family="Helvetica,sans-Serif" font-size="10.00" fill="#000000">JS_DefinePropertyValueStr</text>
</a>
</g>
</g>
<!-- Node428190&#45;&gt;Node428191 -->
<g id="edge35" class="edge">
<title>Node428190&#45;&gt;Node428191</title>
<path fill="none" stroke="#191970" d="M288.0485,-475.4933C295.1673,-432.1606 326.0754,-256.4971 365,-219.1735 366.5093,-217.7262 368.1115,-216.3843 369.7899,-215.1402"/>
<polygon fill="#191970" stroke="#191970" points="372.0123,-217.8854 378.7405,-209.7011 368.377,-211.9033 372.0123,-217.8854"/>
</g>
<!-- Node428038 -->
<g id="node22" class="node">
<title>Node428038</title>
<g id="a_node22"><a xlink:href="quickjs_8c.html#a12aed667595f49667e0095f0a028e0d4" target="_top" xlink:title="JS_DefinePropertyValueUint32">
<polygon fill="none" stroke="#ff0000" points="365,-646.6735 365,-665.6735 517,-665.6735 517,-646.6735 365,-646.6735"/>
<text text-anchor="middle" x="441" y="-653.6735" font-family="Helvetica,sans-Serif" font-size="10.00" fill="#000000">JS_DefinePropertyValueUint32</text>
</a>
</g>
</g>
<!-- Node428190&#45;&gt;Node428038 -->
<g id="edge37" class="edge">
<title>Node428190&#45;&gt;Node428038</title>
<path fill="none" stroke="#191970" d="M288.5446,-494.7669C294.8062,-521.7171 316.3271,-598.6496 365,-637.1735 367.2995,-638.9935 369.7508,-640.6417 372.3121,-642.1342"/>
<polygon fill="#191970" stroke="#191970" points="370.8689,-645.3252 381.3829,-646.6316 373.9784,-639.0537 370.8689,-645.3252"/>
</g>
<!-- Node427779 -->
<g id="node23" class="node">
<title>Node427779</title>
<g id="a_node23"><a xlink:href="quickjs_8c.html#a80e54dcf9ac687d4ccc2f90273565f30" target="_top" xlink:title="js_free">
<polygon fill="none" stroke="#ff0000" points="418,-608.6735 418,-627.6735 464,-627.6735 464,-608.6735 418,-608.6735"/>
<text text-anchor="middle" x="441" y="-615.6735" font-family="Helvetica,sans-Serif" font-size="10.00" fill="#000000">js_free</text>
</a>
</g>
</g>
<!-- Node428190&#45;&gt;Node427779 -->
<g id="edge39" class="edge">
<title>Node428190&#45;&gt;Node427779</title>
<path fill="none" stroke="#191970" d="M290.3173,-494.8868C299.553,-517.0683 325.3105,-571.6475 365,-599.1735 377.5903,-607.9052 393.8174,-612.6314 408.0422,-615.1864"/>
<polygon fill="#191970" stroke="#191970" points="407.5542,-618.6524 417.9656,-616.6894 408.6025,-611.7313 407.5542,-618.6524"/>
</g>
<!-- Node428192 -->
<g id="node24" class="node">
<title>Node428192</title>
<g id="a_node24"><a xlink:href="quickjs_8c.html#a82de8d310598980dd9ab473ce2c8dd1c" target="_top" xlink:title="js_get_regexp">
<polygon fill="none" stroke="#ff0000" points="402.5,-570.6735 402.5,-589.6735 479.5,-589.6735 479.5,-570.6735 402.5,-570.6735"/>
<text text-anchor="middle" x="441" y="-577.6735" font-family="Helvetica,sans-Serif" font-size="10.00" fill="#000000">js_get_regexp</text>
</a>
</g>
</g>
<!-- Node428190&#45;&gt;Node428192 -->
<g id="edge41" class="edge">
<title>Node428190&#45;&gt;Node428192</title>
<path fill="none" stroke="#191970" d="M293.575,-494.7458C306.1031,-510.9855 333.8258,-543.8545 365,-561.1735 373.4709,-565.8795 383.1137,-569.4378 392.6199,-572.1226"/>
<polygon fill="#191970" stroke="#191970" points="391.8678,-575.5427 402.422,-574.6158 393.5934,-568.7587 391.8678,-575.5427"/>
</g>
<!-- Node428079 -->
<g id="node25" class="node">
<title>Node428079</title>
<g id="a_node25"><a xlink:href="quickjs_8h.html#af763b173e78debf2075670ca2c128a30" target="_top" xlink:title="JS_SetProperty">
<polygon fill="none" stroke="#ff0000" points="398,-532.6735 398,-551.6735 484,-551.6735 484,-532.6735 398,-532.6735"/>
<text text-anchor="middle" x="441" y="-539.6735" font-family="Helvetica,sans-Serif" font-size="10.00" fill="#000000">JS_SetProperty</text>
</a>
</g>
</g>
<!-- Node428190&#45;&gt;Node428079 -->
<g id="edge47" class="edge">
<title>Node428190&#45;&gt;Node428079</title>
<path fill="none" stroke="#191970" d="M303.5156,-494.678C319.1246,-503.0873 343.0794,-515.2239 365,-523.1735 372.3718,-525.8469 380.278,-528.2798 388.1041,-530.445"/>
<polygon fill="#191970" stroke="#191970" points="387.3654,-533.8699 397.9279,-533.0424 389.1548,-527.1025 387.3654,-533.8699"/>
</g>
<!-- Node428194 -->
<g id="node26" class="node">
<title>Node428194</title>
<g id="a_node26"><a xlink:href="quickjs_8c.html#a011157b8ff30c8418be989eadf509c92" target="_top" xlink:title="js_sub_string">
<polygon fill="none" stroke="#ff0000" points="404,-816.6735 404,-835.6735 478,-835.6735 478,-816.6735 404,-816.6735"/>
<text text-anchor="middle" x="441" y="-823.6735" font-family="Helvetica,sans-Serif" font-size="10.00" fill="#000000">js_sub_string</text>
</a>
</g>
</g>
<!-- Node428190&#45;&gt;Node428194 -->
<g id="edge48" class="edge">
<title>Node428190&#45;&gt;Node428194</title>
<path fill="none" stroke="#191970" d="M288.6392,-494.9529C300.0781,-547.0844 353.9161,-790.3668 365,-802.1735 372.6858,-810.3605 383.1365,-815.7686 393.8267,-819.337"/>
<polygon fill="#191970" stroke="#191970" points="393.0632,-822.7585 403.639,-822.1238 394.9757,-816.0249 393.0632,-822.7585"/>
</g>
<!-- Node428195 -->
<g id="node27" class="node">
<title>Node428195</title>
<g id="a_node27"><a xlink:href="quickjs_8c.html#a07acd485a57197356906928a788a0644" target="_top" xlink:title="JS_ToLengthFree">
<polygon fill="none" stroke="#ff0000" points="394,-228.6735 394,-247.6735 488,-247.6735 488,-228.6735 394,-228.6735"/>
<text text-anchor="middle" x="441" y="-235.6735" font-family="Helvetica,sans-Serif" font-size="10.00" fill="#000000">JS_ToLengthFree</text>
</a>
</g>
</g>
<!-- Node428190&#45;&gt;Node428195 -->
<g id="edge50" class="edge">
<title>Node428190&#45;&gt;Node428195</title>
<path fill="none" stroke="#191970" d="M286.9547,-475.5367C289.0971,-441.2773 301.0033,-324.1176 365,-262.1735 370.4682,-256.8807 377.0948,-252.7543 384.1296,-249.5375"/>
<polygon fill="#191970" stroke="#191970" points="385.8814,-252.6095 393.9051,-245.6906 383.318,-246.0957 385.8814,-252.6095"/>
</g>
<!-- Node427854 -->
<g id="node28" class="node">
<title>Node427854</title>
<g id="a_node28"><a xlink:href="quickjs_8c.html#a7bcb8e1a20cbc8374a5f9ba4a2088cec" target="_top" xlink:title="JS_ToString">
<polygon fill="none" stroke="#ff0000" points="405.5,-494.6735 405.5,-513.6735 476.5,-513.6735 476.5,-494.6735 405.5,-494.6735"/>
<text text-anchor="middle" x="441" y="-501.6735" font-family="Helvetica,sans-Serif" font-size="10.00" fill="#000000">JS_ToString</text>
</a>
</g>
</g>
<!-- Node428190&#45;&gt;Node427854 -->
<g id="edge52" class="edge">
<title>Node428190&#45;&gt;Node427854</title>
<path fill="none" stroke="#191970" d="M329.1268,-490.4156C349.698,-492.9454 374.3992,-495.9831 395.3524,-498.5599"/>
<polygon fill="#191970" stroke="#191970" points="394.9505,-502.0367 405.3029,-499.7835 395.8049,-495.089 394.9505,-502.0367"/>
</g>
<!-- Node428198 -->
<g id="node29" class="node">
<title>Node428198</title>
<g id="a_node29"><a xlink:href="libregexp_8h.html#a55d8c60c9c812ae3e3e23e608b830ce3" target="_top" xlink:title="lre_exec">
<polygon fill="none" stroke="#ff0000" points="414.5,-456.6735 414.5,-475.6735 467.5,-475.6735 467.5,-456.6735 414.5,-456.6735"/>
<text text-anchor="middle" x="441" y="-463.6735" font-family="Helvetica,sans-Serif" font-size="10.00" fill="#000000">lre_exec</text>
</a>
</g>
</g>
<!-- Node428190&#45;&gt;Node428198 -->
<g id="edge53" class="edge">
<title>Node428190&#45;&gt;Node428198</title>
<path fill="none" stroke="#191970" d="M329.1268,-479.9313C352.5673,-477.0487 381.3705,-473.5066 403.8802,-470.7384"/>
<polygon fill="#191970" stroke="#191970" points="404.557,-474.1816 414.055,-469.4871 403.7026,-467.2339 404.557,-474.1816"/>
</g>
<!-- Node428206 -->
<g id="node30" class="node">
<title>Node428206</title>
<g id="a_node30"><a xlink:href="libregexp_8h.html#a901e8c0ab6941f09e79fc9d8a9494717" target="_top" xlink:title="lre_get_capture_count">
<polygon fill="none" stroke="#000000" points="384.5,-418.6735 384.5,-437.6735 497.5,-437.6735 497.5,-418.6735 384.5,-418.6735"/>
<text text-anchor="middle" x="441" y="-425.6735" font-family="Helvetica,sans-Serif" font-size="10.00" fill="#000000">lre_get_capture_count</text>
</a>
</g>
</g>
<!-- Node428190&#45;&gt;Node428206 -->
<g id="edge54" class="edge">
<title>Node428190&#45;&gt;Node428206</title>
<path fill="none" stroke="#191970" d="M303.5156,-475.669C319.1246,-467.2597 343.0794,-455.1231 365,-447.1735 371.8563,-444.687 379.175,-442.4085 386.4615,-440.36"/>
<polygon fill="#191970" stroke="#191970" points="387.5803,-443.6837 396.3313,-437.7112 385.7658,-436.9229 387.5803,-443.6837"/>
</g>
<!-- Node428191&#45;&gt;Node427936 -->
<g id="edge36" class="edge">
<title>Node428191&#45;&gt;Node427936</title>
<path fill="none" stroke="#191970" d="M509.7694,-200.1735C520.5673,-200.1735 531.7576,-200.1735 542.6337,-200.1735"/>
<polygon fill="#191970" stroke="#191970" points="542.942,-203.6736 552.9419,-200.1735 542.9419,-196.6736 542.942,-203.6736"/>
</g>
<!-- Node428194&#45;&gt;Node427822 -->
<g id="edge49" class="edge">
<title>Node428194&#45;&gt;Node427822</title>
<path fill="none" stroke="#191970" d="M478.3274,-818.0215C504.0297,-812.4084 538.4305,-804.8956 566.2884,-798.8116"/>
<polygon fill="#191970" stroke="#191970" points="567.2046,-802.1941 576.2276,-796.641 565.711,-795.3553 567.2046,-802.1941"/>
</g>
<!-- Node428195&#45;&gt;Node427758 -->
<g id="edge51" class="edge">
<title>Node428195&#45;&gt;Node427758</title>
<path fill="none" stroke="#191970" d="M483.4616,-228.5974C536.1569,-219.4519 625.3575,-213.3886 677,-262.1735 710.451,-293.7734 742.4749,-626.2526 750.227,-712.0586"/>
<polygon fill="#191970" stroke="#191970" points="746.7636,-712.6254 751.1399,-722.2742 753.7358,-712.0023 746.7636,-712.6254"/>
</g>
</g>
</svg>
        <g id="navigator" transform="translate(0 0)" fill="#404254">
                <rect fill="#f2f5e9" fill-opacity="0.5" stroke="#606060" stroke-width=".5" x="0" y="0" width="60" height="60"/>
                <use id="zoomplus" xlink:href="#zoomPlus" x="17" y="9" onmousedown="handleZoom(evt,'in')"/>
                <use id="zoomminus" xlink:href="#zoomMin" x="42" y="9" onmousedown="handleZoom(evt,'out')"/>
                <use id="reset" xlink:href="#resetDef" x="30" y="36" onmousedown="handleReset()"/>
                <g id="arrowUp" xlink:href="#dirArrow" transform="translate(30 24)" onmousedown="handlePan(0,-1)">
                  <use xlink:href="#rim" fill="#404040">
                        <set attributeName="fill" to="#808080" begin="arrowUp.mouseover" end="arrowUp.mouseout"/>
                  </use>
                  <path fill="none" stroke="white" stroke-width="1.5" d="M0,-3.0v7 M-2.5,-0.5L0,-3.0L2.5,-0.5"/>
                </g>
                <g id="arrowRight" xlink:href="#dirArrow" transform="rotate(90) translate(36 -43)" onmousedown="handlePan(1,0)">
                  <use xlink:href="#rim" fill="#404040">
                        <set attributeName="fill" to="#808080" begin="arrowRight.mouseover" end="arrowRight.mouseout"/>
                  </use>
                  <path fill="none" stroke="white" stroke-width="1.5" d="M0,-3.0v7 M-2.5,-0.5L0,-3.0L2.5,-0.5"/>
                </g>
                <g id="arrowDown" xlink:href="#dirArrow" transform="rotate(180) translate(-30 -48)" onmousedown="handlePan(0,1)">
                  <use xlink:href="#rim" fill="#404040">
                        <set attributeName="fill" to="#808080" begin="arrowDown.mouseover" end="arrowDown.mouseout"/>
                  </use>
                  <path fill="none" stroke="white" stroke-width="1.5" d="M0,-3.0v7 M-2.5,-0.5L0,-3.0L2.5,-0.5"/>
                </g>
                <g id="arrowLeft" xlink:href="#dirArrow" transform="rotate(270) translate(-36 17)" onmousedown="handlePan(-1,0)">
                  <use xlink:href="#rim" fill="#404040">
                        <set attributeName="fill" to="#808080" begin="arrowLeft.mouseover" end="arrowLeft.mouseout"/>
                  </use>
                  <path fill="none" stroke="white" stroke-width="1.5" d="M0,-3.0v7 M-2.5,-0.5L0,-3.0L2.5,-0.5"/>
                </g>
        </g>
        <svg viewBox="0 0 15 15" width="100%" height="30px" preserveAspectRatio="xMaxYMin meet">
         <g id="arrow_out" transform="scale(0.3 0.3)">
          <a xlink:href="quickjs_8c_acda1b1a97bfde7e280456c5969b7a2a3_cgraph_org.svg" target="_base">
           <rect id="button" ry="5" rx="5" y="6" x="6" height="38" width="38"
                fill="#f2f5e9" fill-opacity="0.5" stroke="#606060" stroke-width="1.0"/>
           <path id="arrow"
             d="M 11.500037,31.436501 C 11.940474,20.09759 22.043105,11.32322 32.158766,21.979434 L 37.068811,17.246167 C 37.068811,17.246167 37.088388,32 37.088388,32 L 22.160133,31.978069 C 22.160133,31.978069 26.997745,27.140456 26.997745,27.140456 C 18.528582,18.264221 13.291696,25.230495 11.500037,31.436501 z"
             style="fill:#404040;"/>
          </a>
         </g>
        </svg>
</svg>
