<?xml version="1.0" encoding="UTF-8" standalone="no"?>
<!DOCTYPE svg PUBLIC "-//W3C//DTD SVG 1.1//EN"
 "http://www.w3.org/Graphics/SVG/1.1/DTD/svg11.dtd">
<!-- Generated by graphviz version 2.40.1 (20161225.0304)
 -->
<!-- Title: JS_ValueToAtom Pages: 1 -->
<!--zoomable 894 -->
<svg id="main" version="1.1" xmlns="http://www.w3.org/2000/svg" xmlns:xlink="http://www.w3.org/1999/xlink" xml:space="preserve" onload="init(evt)">
<style type="text/css"><![CDATA[
.edge:hover path { stroke: red; }
.edge:hover polygon { stroke: red; fill: red; }
]]></style>
<script type="text/javascript"><![CDATA[
var edges = document.getElementsByTagName('g');
if (edges && edges.length) {
  for (var i=0;i<edges.length;i++) {
    if (edges[i].id.substr(0,4)=='edge') {
      edges[i].setAttribute('class','edge');
    }
  }
}
]]></script>
        <defs>
                <circle id="rim" cx="0" cy="0" r="7"/>
                <circle id="rim2" cx="0" cy="0" r="3.5"/>
                <g id="zoomPlus">
                        <use xlink:href="#rim" fill="#404040">
                                <set attributeName="fill" to="#808080" begin="zoomplus.mouseover" end="zoomplus.mouseout"/>
                        </use>
                        <path d="M-4,0h8M0,-4v8" fill="none" stroke="white" stroke-width="1.5" pointer-events="none"/>
                </g>
                <g id="zoomMin">
                        <use xlink:href="#rim" fill="#404040">
                                <set attributeName="fill" to="#808080" begin="zoomminus.mouseover" end="zoomminus.mouseout"/>
                        </use>
                        <path d="M-4,0h8" fill="none" stroke="white" stroke-width="1.5" pointer-events="none"/>
                </g>
                <g id="dirArrow">
                        <path fill="none" stroke="white" stroke-width="1.5" d="M0,-3.0v7 M-2.5,-0.5L0,-3.0L2.5,-0.5"/>
                </g>
               <g id="resetDef">
                       <use xlink:href="#rim2" fill="#404040">
                               <set attributeName="fill" to="#808080" begin="reset.mouseover" end="reset.mouseout"/>
                       </use>
               </g>
        </defs>

<script type="text/javascript">
var viewWidth = 763;
var viewHeight = 894;
var sectionId = 'dynsection-88';
</script>
<script xlink:href="svgpan.js"/>
<svg id="graph" class="graph">
<g id="viewport">
<title>JS_ValueToAtom</title>
<!-- Node25245 -->
<g id="node1" class="node">
<title>Node25245</title>
<polygon fill="#bfbfbf" stroke="#000000" points="0,-448.5 0,-467.5 93,-467.5 93,-448.5 0,-448.5"/>
<text text-anchor="middle" x="46.5" y="-455.5" font-family="Helvetica,sans-Serif" font-size="10.00" fill="#000000">JS_ValueToAtom</text>
</g>
<!-- Node25246 -->
<g id="node2" class="node">
<title>Node25246</title>
<g id="a_node2"><a xlink:href="quickjs_8c.html#ac2894ff4edcdb4e6841bcce9c76081e3" target="_top" xlink:title="JS_CallInternal">
<polygon fill="none" stroke="#000000" points="328.5,-752.5 328.5,-771.5 411.5,-771.5 411.5,-752.5 328.5,-752.5"/>
<text text-anchor="middle" x="370" y="-759.5" font-family="Helvetica,sans-Serif" font-size="10.00" fill="#000000">JS_CallInternal</text>
</a>
</g>
</g>
<!-- Node25245&#45;&gt;Node25246 -->
<g id="edge1" class="edge">
<title>Node25245&#45;&gt;Node25246</title>
<path fill="none" stroke="#191970" d="M50.6246,-477.4851C59.0359,-512.3228 81.5295,-585.2574 129,-624 186.7122,-671.1013 228.2147,-626.9095 291,-667 326.2546,-689.5112 353.638,-732.8485 364.6863,-752.2232"/>
<polygon fill="#191970" stroke="#191970" points="54.0077,-476.5778 48.3747,-467.6045 47.1824,-478.132 54.0077,-476.5778"/>
</g>
<!-- Node25590 -->
<g id="node9" class="node">
<title>Node25590</title>
<g id="a_node9"><a xlink:href="quickjs_8c.html#a438b354d69a8f0674195b0cdc19dd686" target="_top" xlink:title="js_proxy_get_own_property\l_names">
<polygon fill="none" stroke="#000000" points="619,-633 619,-663 755,-663 755,-633 619,-633"/>
<text text-anchor="start" x="627" y="-651" font-family="Helvetica,sans-Serif" font-size="10.00" fill="#000000">js_proxy_get_own_property</text>
<text text-anchor="middle" x="687" y="-640" font-family="Helvetica,sans-Serif" font-size="10.00" fill="#000000">_names</text>
</a>
</g>
</g>
<!-- Node25245&#45;&gt;Node25590 -->
<g id="edge36" class="edge">
<title>Node25245&#45;&gt;Node25590</title>
<path fill="none" stroke="#191970" d="M52.4351,-477.6155C62.6728,-507.7143 86.7282,-564.5748 129,-591 169.7186,-616.4543 478.9639,-636.523 618.7582,-644.3937"/>
<polygon fill="#191970" stroke="#191970" points="55.6833,-476.2844 49.2803,-467.8433 49.0218,-478.435 55.6833,-476.2844"/>
</g>
<!-- Node25747 -->
<g id="node10" class="node">
<title>Node25747</title>
<g id="a_node10"><a xlink:href="quickjs_8c.html#a4da0393f32562bb05dff7ef63fff68f9" target="_top" xlink:title="js_date_Symbol_toPrimitive">
<polygon fill="none" stroke="#000000" points="141,-562.5 141,-581.5 279,-581.5 279,-562.5 141,-562.5"/>
<text text-anchor="middle" x="210" y="-569.5" font-family="Helvetica,sans-Serif" font-size="10.00" fill="#000000">js_date_Symbol_toPrimitive</text>
</a>
</g>
</g>
<!-- Node25245&#45;&gt;Node25747 -->
<g id="edge13" class="edge">
<title>Node25245&#45;&gt;Node25747</title>
<path fill="none" stroke="#191970" d="M57.2334,-476.1821C71.0345,-497.9061 97.0701,-533.7275 129,-553 135.4304,-556.8813 142.5905,-559.9698 149.9185,-562.4274"/>
<polygon fill="#191970" stroke="#191970" points="60.1519,-474.2464 51.9307,-467.5633 54.1899,-477.9145 60.1519,-474.2464"/>
</g>
<!-- Node25467 -->
<g id="node11" class="node">
<title>Node25467</title>
<g id="a_node11"><a xlink:href="quickjs_8c.html#a116b8bb41915b573650c477a55d8e46d" target="_top" xlink:title="JS_DefineObjectNameComputed">
<polygon fill="none" stroke="#ff0000" points="129,-828.5 129,-847.5 291,-847.5 291,-828.5 129,-828.5"/>
<text text-anchor="middle" x="210" y="-835.5" font-family="Helvetica,sans-Serif" font-size="10.00" fill="#000000">JS_DefineObjectNameComputed</text>
</a>
</g>
</g>
<!-- Node25245&#45;&gt;Node25467 -->
<g id="edge14" class="edge">
<title>Node25245&#45;&gt;Node25467</title>
<path fill="none" stroke="#191970" d="M48.3271,-478.0763C54.9676,-546.6045 80.0437,-769.7624 129,-819 132.7682,-822.7898 137.1392,-825.8811 141.86,-828.3965"/>
<polygon fill="#191970" stroke="#191970" points="51.7815,-477.4266 47.3587,-467.7991 44.8123,-478.0834 51.7815,-477.4266"/>
</g>
<!-- Node25478 -->
<g id="node12" class="node">
<title>Node25478</title>
<g id="a_node12"><a xlink:href="quickjs_8c.html#a0c61bd5a64c743e81188bb528b78e715" target="_top" xlink:title="JS_DefinePropertyValueValue">
<polygon fill="none" stroke="#ff0000" points="135.5,-790.5 135.5,-809.5 284.5,-809.5 284.5,-790.5 135.5,-790.5"/>
<text text-anchor="middle" x="210" y="-797.5" font-family="Helvetica,sans-Serif" font-size="10.00" fill="#000000">JS_DefinePropertyValueValue</text>
</a>
</g>
</g>
<!-- Node25245&#45;&gt;Node25478 -->
<g id="edge16" class="edge">
<title>Node25245&#45;&gt;Node25478</title>
<path fill="none" stroke="#191970" d="M48.8964,-477.9962C56.9192,-541.6161 84.8439,-737.704 129,-781 132.9191,-784.8428 137.4595,-787.9634 142.3503,-790.4916"/>
<polygon fill="#191970" stroke="#191970" points="52.3275,-477.2219 47.6305,-467.7252 45.3801,-478.0782 52.3275,-477.2219"/>
</g>
<!-- Node25579 -->
<g id="node13" class="node">
<title>Node25579</title>
<g id="a_node13"><a xlink:href="quickjs_8c.html#a90d6e607f6917d817c1e997bd2e6ed07" target="_top" xlink:title="JS_GetPropertyValue">
<polygon fill="none" stroke="#ff0000" points="154.5,-866.5 154.5,-885.5 265.5,-885.5 265.5,-866.5 154.5,-866.5"/>
<text text-anchor="middle" x="210" y="-873.5" font-family="Helvetica,sans-Serif" font-size="10.00" fill="#000000">JS_GetPropertyValue</text>
</a>
</g>
</g>
<!-- Node25245&#45;&gt;Node25579 -->
<g id="edge18" class="edge">
<title>Node25245&#45;&gt;Node25579</title>
<path fill="none" stroke="#191970" d="M47.8345,-477.7918C53.1403,-550.5265 75.1288,-801.6814 129,-857 135.8526,-864.0367 144.7798,-868.6757 154.196,-871.6943"/>
<polygon fill="#191970" stroke="#191970" points="51.3183,-477.4368 47.1239,-467.7076 44.3356,-477.9289 51.3183,-477.4368"/>
</g>
<!-- Node25551 -->
<g id="node14" class="node">
<title>Node25551</title>
<g id="a_node14"><a xlink:href="quickjs_8c.html#ad47910027b4f50d5ff3239df19de556d" target="_top" xlink:title="js_object___defineGetter__">
<polygon fill="none" stroke="#000000" points="142.5,-524.5 142.5,-543.5 277.5,-543.5 277.5,-524.5 142.5,-524.5"/>
<text text-anchor="middle" x="210" y="-531.5" font-family="Helvetica,sans-Serif" font-size="10.00" fill="#000000">js_object___defineGetter__</text>
</a>
</g>
</g>
<!-- Node25245&#45;&gt;Node25551 -->
<g id="edge22" class="edge">
<title>Node25245&#45;&gt;Node25551</title>
<path fill="none" stroke="#191970" d="M65.4238,-474.1666C81.3925,-487.0163 105.3682,-504.5175 129,-515 137.5823,-518.8069 147.0283,-521.9055 156.3462,-524.4101"/>
<polygon fill="#191970" stroke="#191970" points="67.3727,-471.2374 57.429,-467.5804 62.9219,-476.6402 67.3727,-471.2374"/>
</g>
<!-- Node25552 -->
<g id="node15" class="node">
<title>Node25552</title>
<g id="a_node15"><a xlink:href="quickjs_8c.html#a26abea9136a3d8e9a861aefb51626b4e" target="_top" xlink:title="js_object___lookupGetter__">
<polygon fill="none" stroke="#000000" points="141.5,-486.5 141.5,-505.5 278.5,-505.5 278.5,-486.5 141.5,-486.5"/>
<text text-anchor="middle" x="210" y="-493.5" font-family="Helvetica,sans-Serif" font-size="10.00" fill="#000000">js_object___lookupGetter__</text>
</a>
</g>
</g>
<!-- Node25245&#45;&gt;Node25552 -->
<g id="edge23" class="edge">
<title>Node25245&#45;&gt;Node25552</title>
<path fill="none" stroke="#191970" d="M97.6844,-469.8961C120.6661,-475.2374 147.4125,-481.4537 169.0387,-486.4799"/>
<polygon fill="#191970" stroke="#191970" points="98.2907,-466.4438 87.758,-467.589 96.706,-473.262 98.2907,-466.4438"/>
</g>
<!-- Node25405 -->
<g id="node16" class="node">
<title>Node25405</title>
<g id="a_node16"><a xlink:href="quickjs_8c.html#aca3b864ab833c3c9034cee730e49cedb" target="_top" xlink:title="js_object_defineProperty">
<polygon fill="none" stroke="#000000" points="148,-448.5 148,-467.5 272,-467.5 272,-448.5 148,-448.5"/>
<text text-anchor="middle" x="210" y="-455.5" font-family="Helvetica,sans-Serif" font-size="10.00" fill="#000000">js_object_defineProperty</text>
</a>
</g>
</g>
<!-- Node25245&#45;&gt;Node25405 -->
<g id="edge24" class="edge">
<title>Node25245&#45;&gt;Node25405</title>
<path fill="none" stroke="#191970" d="M103.5595,-458C117.8873,-458 133.3318,-458 147.8926,-458"/>
<polygon fill="#191970" stroke="#191970" points="103.3526,-454.5001 93.3525,-458 103.3525,-461.5001 103.3526,-454.5001"/>
</g>
<!-- Node25529 -->
<g id="node17" class="node">
<title>Node25529</title>
<g id="a_node17"><a xlink:href="quickjs_8c.html#a5f75fb513884286c86db6863663f262a" target="_top" xlink:title="js_object_getOwnProperty\lDescriptor">
<polygon fill="none" stroke="#ff0000" points="144.5,-399 144.5,-429 275.5,-429 275.5,-399 144.5,-399"/>
<text text-anchor="start" x="152.5" y="-417" font-family="Helvetica,sans-Serif" font-size="10.00" fill="#000000">js_object_getOwnProperty</text>
<text text-anchor="middle" x="210" y="-406" font-family="Helvetica,sans-Serif" font-size="10.00" fill="#000000">Descriptor</text>
</a>
</g>
</g>
<!-- Node25245&#45;&gt;Node25529 -->
<g id="edge25" class="edge">
<title>Node25245&#45;&gt;Node25529</title>
<path fill="none" stroke="#191970" d="M91.7179,-445.8313C110.9985,-440.6426 133.6922,-434.5354 154.0185,-429.0654"/>
<polygon fill="#191970" stroke="#191970" points="90.7239,-442.4742 81.9771,-448.4527 92.5431,-449.2337 90.7239,-442.4742"/>
</g>
<!-- Node25555 -->
<g id="node18" class="node">
<title>Node25555</title>
<g id="a_node18"><a xlink:href="quickjs_8c.html#ad61ef444b51b69a8a4cb9e3cac990c8d" target="_top" xlink:title="js_object_hasOwnProperty">
<polygon fill="none" stroke="#000000" points="143,-360.5 143,-379.5 277,-379.5 277,-360.5 143,-360.5"/>
<text text-anchor="middle" x="210" y="-367.5" font-family="Helvetica,sans-Serif" font-size="10.00" fill="#000000">js_object_hasOwnProperty</text>
</a>
</g>
</g>
<!-- Node25245&#45;&gt;Node25555 -->
<g id="edge26" class="edge">
<title>Node25245&#45;&gt;Node25555</title>
<path fill="none" stroke="#191970" d="M62.8928,-440.6264C78.4776,-425.1179 103.2967,-402.918 129,-390 137.5419,-385.707 147.0632,-382.2983 156.4912,-379.6031"/>
<polygon fill="#191970" stroke="#191970" points="60.1264,-438.4489 55.6289,-448.0418 65.1269,-443.3473 60.1264,-438.4489"/>
</g>
<!-- Node25557 -->
<g id="node19" class="node">
<title>Node25557</title>
<g id="a_node19"><a xlink:href="quickjs_8c.html#acc70b8dea6a26f839c651835b7104c92" target="_top" xlink:title="js_object_propertyIsEnumerable">
<polygon fill="none" stroke="#000000" points="132,-322.5 132,-341.5 288,-341.5 288,-322.5 132,-322.5"/>
<text text-anchor="middle" x="210" y="-329.5" font-family="Helvetica,sans-Serif" font-size="10.00" fill="#000000">js_object_propertyIsEnumerable</text>
</a>
</g>
</g>
<!-- Node25245&#45;&gt;Node25557 -->
<g id="edge27" class="edge">
<title>Node25245&#45;&gt;Node25557</title>
<path fill="none" stroke="#191970" d="M55.7079,-439.2776C68.6375,-415.0201 94.5081,-373.2148 129,-351 135.0718,-347.0894 141.8616,-343.9816 148.8575,-341.5122"/>
<polygon fill="#191970" stroke="#191970" points="52.5762,-437.7144 51.112,-448.2075 58.8002,-440.9177 52.5762,-437.7144"/>
</g>
<!-- Node25548 -->
<g id="node20" class="node">
<title>Node25548</title>
<g id="a_node20"><a xlink:href="quickjs_8c.html#a9b6302f1a5bc5d5d8f1951777433e516" target="_top" xlink:title="js_operator_delete">
<polygon fill="none" stroke="#000000" points="162,-752.5 162,-771.5 258,-771.5 258,-752.5 162,-752.5"/>
<text text-anchor="middle" x="210" y="-759.5" font-family="Helvetica,sans-Serif" font-size="10.00" fill="#000000">js_operator_delete</text>
</a>
</g>
</g>
<!-- Node25245&#45;&gt;Node25548 -->
<g id="edge28" class="edge">
<title>Node25245&#45;&gt;Node25548</title>
<path fill="none" stroke="#191970" d="M49.6074,-477.9053C59.1209,-536.3314 89.6107,-705.5839 129,-743 137.9016,-751.4557 149.8219,-756.391 161.7748,-759.2114"/>
<polygon fill="#191970" stroke="#191970" points="53.022,-477.0921 47.988,-467.7696 46.1097,-478.1966 53.022,-477.0921"/>
</g>
<!-- Node25597 -->
<g id="node21" class="node">
<title>Node25597</title>
<g id="a_node21"><a xlink:href="quickjs_8c.html#a3756e0f1dc63bd8e463e6d4febc6e503" target="_top" xlink:title="js_operator_in">
<polygon fill="none" stroke="#000000" points="171.5,-714.5 171.5,-733.5 248.5,-733.5 248.5,-714.5 171.5,-714.5"/>
<text text-anchor="middle" x="210" y="-721.5" font-family="Helvetica,sans-Serif" font-size="10.00" fill="#000000">js_operator_in</text>
</a>
</g>
</g>
<!-- Node25245&#45;&gt;Node25597 -->
<g id="edge30" class="edge">
<title>Node25245&#45;&gt;Node25597</title>
<path fill="none" stroke="#191970" d="M50.4885,-477.6383C61.5863,-530.3959 94.3003,-673.3529 129,-705 140.4193,-715.4147 156.4433,-720.4426 171.2278,-722.7673"/>
<polygon fill="#191970" stroke="#191970" points="53.8571,-476.6444 48.4025,-467.5615 47.0024,-478.0634 53.8571,-476.6444"/>
</g>
<!-- Node25751 -->
<g id="node22" class="node">
<title>Node25751</title>
<g id="a_node22"><a xlink:href="quickjs_8c.html#a736435f0774c85e09f2817c97ec47bbf" target="_top" xlink:title="js_parse_from_clause">
<polygon fill="none" stroke="#ff0000" points="154,-284.5 154,-303.5 266,-303.5 266,-284.5 154,-284.5"/>
<text text-anchor="middle" x="210" y="-291.5" font-family="Helvetica,sans-Serif" font-size="10.00" fill="#000000">js_parse_from_clause</text>
</a>
</g>
</g>
<!-- Node25245&#45;&gt;Node25751 -->
<g id="edge32" class="edge">
<title>Node25245&#45;&gt;Node25751</title>
<path fill="none" stroke="#191970" d="M51.9438,-438.6716C61.8367,-407.2262 85.8386,-345.2669 129,-313 136.2883,-307.5514 144.8949,-303.6338 153.7296,-300.8237"/>
<polygon fill="#191970" stroke="#191970" points="48.5395,-437.8393 49.0246,-448.4231 55.2455,-439.8468 48.5395,-437.8393"/>
</g>
<!-- Node25752 -->
<g id="node23" class="node">
<title>Node25752</title>
<g id="a_node23"><a xlink:href="quickjs_8c.html#aa24f7964f6d938a05c3c3c03af5a01e9" target="_top" xlink:title="js_parse_import">
<polygon fill="none" stroke="#ff0000" points="327,-265.5 327,-284.5 413,-284.5 413,-265.5 327,-265.5"/>
<text text-anchor="middle" x="370" y="-272.5" font-family="Helvetica,sans-Serif" font-size="10.00" fill="#000000">js_parse_import</text>
</a>
</g>
</g>
<!-- Node25245&#45;&gt;Node25752 -->
<g id="edge34" class="edge">
<title>Node25245&#45;&gt;Node25752</title>
<path fill="none" stroke="#191970" d="M48.5819,-438.178C53.8947,-398.9255 71.8638,-311.9159 129,-275 194.1906,-232.8802 291.4449,-251.8012 340.0667,-265.4169"/>
<polygon fill="#191970" stroke="#191970" points="45.1073,-437.758 47.3749,-448.1073 52.0561,-438.6027 45.1073,-437.758"/>
</g>
<!-- Node25439 -->
<g id="node24" class="node">
<title>Node25439</title>
<g id="a_node24"><a xlink:href="quickjs_8c.html#a42234753f3193f37ce45b3c0ca4c25cd" target="_top" xlink:title="js_parse_property_name">
<polygon fill="none" stroke="#ff0000" points="148.5,-208.5 148.5,-227.5 271.5,-227.5 271.5,-208.5 148.5,-208.5"/>
<text text-anchor="middle" x="210" y="-215.5" font-family="Helvetica,sans-Serif" font-size="10.00" fill="#000000">js_parse_property_name</text>
</a>
</g>
</g>
<!-- Node25245&#45;&gt;Node25439 -->
<g id="edge35" class="edge">
<title>Node25245&#45;&gt;Node25439</title>
<path fill="none" stroke="#191970" d="M48.3155,-437.9874C53.2476,-395.541 70.7236,-295.9648 129,-242 135.7797,-235.7219 144.1281,-231.0803 152.8624,-227.65"/>
<polygon fill="#191970" stroke="#191970" points="44.8126,-437.8327 47.2534,-448.1425 51.7747,-438.5608 44.8126,-437.8327"/>
</g>
<!-- Node25550 -->
<g id="node25" class="node">
<title>Node25550</title>
<g id="a_node25"><a xlink:href="quickjs_8c.html#ae9c76f2d0eacc35d9df11d9f81039cde" target="_top" xlink:title="js_reflect_deleteProperty">
<polygon fill="none" stroke="#000000" points="147.5,-170.5 147.5,-189.5 272.5,-189.5 272.5,-170.5 147.5,-170.5"/>
<text text-anchor="middle" x="210" y="-177.5" font-family="Helvetica,sans-Serif" font-size="10.00" fill="#000000">js_reflect_deleteProperty</text>
</a>
</g>
</g>
<!-- Node25245&#45;&gt;Node25550 -->
<g id="edge37" class="edge">
<title>Node25245&#45;&gt;Node25550</title>
<path fill="none" stroke="#191970" d="M50.2124,-438.1335C60.8236,-383.4289 92.8557,-232.4306 129,-199 134.3019,-194.0961 140.6227,-190.383 147.3621,-187.5826"/>
<polygon fill="#191970" stroke="#191970" points="46.715,-437.7896 48.2794,-448.2683 53.591,-439.1011 46.715,-437.7896"/>
</g>
<!-- Node25753 -->
<g id="node26" class="node">
<title>Node25753</title>
<g id="a_node26"><a xlink:href="quickjs_8c.html#a6730c3163c357445c0182c52d5a53ca4" target="_top" xlink:title="js_reflect_get">
<polygon fill="none" stroke="#000000" points="172.5,-132.5 172.5,-151.5 247.5,-151.5 247.5,-132.5 172.5,-132.5"/>
<text text-anchor="middle" x="210" y="-139.5" font-family="Helvetica,sans-Serif" font-size="10.00" fill="#000000">js_reflect_get</text>
</a>
</g>
</g>
<!-- Node25245&#45;&gt;Node25753 -->
<g id="edge38" class="edge">
<title>Node25245&#45;&gt;Node25753</title>
<path fill="none" stroke="#191970" d="M49.3073,-438.4447C58.2687,-378.7171 88.0229,-200.3485 129,-161 140.4604,-149.9951 157.0271,-144.9395 172.196,-142.7525"/>
<polygon fill="#191970" stroke="#191970" points="45.8289,-438.0426 47.8364,-448.4455 52.7544,-439.0613 45.8289,-438.0426"/>
</g>
<!-- Node25599 -->
<g id="node27" class="node">
<title>Node25599</title>
<g id="a_node27"><a xlink:href="quickjs_8c.html#ab34237416a7483c22a564155a240224b" target="_top" xlink:title="js_reflect_has">
<polygon fill="none" stroke="#000000" points="171.5,-94.5 171.5,-113.5 248.5,-113.5 248.5,-94.5 171.5,-94.5"/>
<text text-anchor="middle" x="210" y="-101.5" font-family="Helvetica,sans-Serif" font-size="10.00" fill="#000000">js_reflect_has</text>
</a>
</g>
</g>
<!-- Node25245&#45;&gt;Node25599 -->
<g id="edge39" class="edge">
<title>Node25245&#45;&gt;Node25599</title>
<path fill="none" stroke="#191970" d="M48.6882,-438.1088C56.2425,-373.0542 83.3006,-168.1967 129,-123 140.0915,-112.0305 156.2408,-106.9349 171.2064,-104.7095"/>
<polygon fill="#191970" stroke="#191970" points="45.1874,-437.9193 47.5386,-448.2499 52.1428,-438.7078 45.1874,-437.9193"/>
</g>
<!-- Node25365 -->
<g id="node28" class="node">
<title>Node25365</title>
<g id="a_node28"><a xlink:href="quickjs_8c.html#af047bcc4352c7d76f5e85bb5985bcd97" target="_top" xlink:title="js_reflect_set">
<polygon fill="none" stroke="#000000" points="172.5,-56.5 172.5,-75.5 247.5,-75.5 247.5,-56.5 172.5,-56.5"/>
<text text-anchor="middle" x="210" y="-63.5" font-family="Helvetica,sans-Serif" font-size="10.00" fill="#000000">js_reflect_set</text>
</a>
</g>
</g>
<!-- Node25245&#45;&gt;Node25365 -->
<g id="edge40" class="edge">
<title>Node25245&#45;&gt;Node25365</title>
<path fill="none" stroke="#191970" d="M48.1471,-438.159C54.3345,-368.447 78.4596,-136.1878 129,-85 140.2647,-73.591 156.9891,-68.5037 172.3208,-66.4009"/>
<polygon fill="#191970" stroke="#191970" points="44.6507,-437.9675 47.2791,-448.2311 51.6249,-438.5686 44.6507,-437.9675"/>
</g>
<!-- Node25399 -->
<g id="node29" class="node">
<title>Node25399</title>
<g id="a_node29"><a xlink:href="quickjs_8c.html#aee75cc1546e19479e3ccda58f3b50a96" target="_top" xlink:title="JS_SetPropertyValue">
<polygon fill="none" stroke="#ff0000" points="155,-676.5 155,-695.5 265,-695.5 265,-676.5 155,-676.5"/>
<text text-anchor="middle" x="210" y="-683.5" font-family="Helvetica,sans-Serif" font-size="10.00" fill="#000000">JS_SetPropertyValue</text>
</a>
</g>
</g>
<!-- Node25245&#45;&gt;Node25399 -->
<g id="edge41" class="edge">
<title>Node25245&#45;&gt;Node25399</title>
<path fill="none" stroke="#191970" d="M48.7899,-477.7444C54.5552,-518.3265 73.4192,-611.5269 129,-662 136.2748,-668.6063 145.2899,-673.3985 154.6361,-676.8737"/>
<polygon fill="#191970" stroke="#191970" points="52.2535,-477.237 47.4915,-467.7727 45.3121,-478.1409 52.2535,-477.237"/>
</g>
<!-- Node25496 -->
<g id="node30" class="node">
<title>Node25496</title>
<g id="a_node30"><a xlink:href="quickjs_8c.html#a756c1ab5dee9a6dd07723d7a075e2a53" target="_top" xlink:title="json_parse_value">
<polygon fill="none" stroke="#ff0000" points="164,-.5 164,-19.5 256,-19.5 256,-.5 164,-.5"/>
<text text-anchor="middle" x="210" y="-7.5" font-family="Helvetica,sans-Serif" font-size="10.00" fill="#000000">json_parse_value</text>
</a>
</g>
</g>
<!-- Node25245&#45;&gt;Node25496 -->
<g id="edge43" class="edge">
<title>Node25245&#45;&gt;Node25496</title>
<path fill="none" stroke="#191970" d="M48.1286,-437.9559C54.4723,-364.2443 79.6537,-109.2599 129,-47 139.4673,-33.7935 155.7055,-25.1254 170.9027,-19.5253"/>
<polygon fill="#191970" stroke="#191970" points="44.6198,-437.9149 47.2714,-448.1725 51.5953,-438.5002 44.6198,-437.9149"/>
</g>
<!-- Node25246&#45;&gt;Node25246 -->
<g id="edge12" class="edge">
<title>Node25246&#45;&gt;Node25246</title>
<path fill="none" stroke="#191970" d="M342.7475,-780.6539C343.8867,-785.9368 352.9708,-790 370,-790 395.9492,-790 403.4502,-780.5653 392.5028,-771.7571"/>
<polygon fill="#191970" stroke="#191970" points="345.8752,-782.227 347.4972,-771.7571 339.7001,-778.9303 345.8752,-782.227"/>
</g>
<!-- Node25247 -->
<g id="node3" class="node">
<title>Node25247</title>
<g id="a_node3"><a xlink:href="quickjs_8c.html#ade71a22dc56e7371392393df663b28b3" target="_top" xlink:title="async_func_resume">
<polygon fill="none" stroke="#ff0000" points="464,-714.5 464,-733.5 568,-733.5 568,-714.5 464,-714.5"/>
<text text-anchor="middle" x="516" y="-721.5" font-family="Helvetica,sans-Serif" font-size="10.00" fill="#000000">async_func_resume</text>
</a>
</g>
</g>
<!-- Node25246&#45;&gt;Node25247 -->
<g id="edge2" class="edge">
<title>Node25246&#45;&gt;Node25247</title>
<path fill="none" stroke="#191970" d="M416.536,-749.8879C436.8696,-744.5956 460.3713,-738.4787 479.423,-733.5201"/>
<polygon fill="#191970" stroke="#191970" points="415.6379,-746.5049 406.842,-752.411 417.4012,-753.2793 415.6379,-746.5049"/>
</g>
<!-- Node25266 -->
<g id="node4" class="node">
<title>Node25266</title>
<g id="a_node4"><a xlink:href="quickjs_8c.html#a1a4c02a29525d5cb2085dd8bca3af350" target="_top" xlink:title="JS_Call">
<polygon fill="none" stroke="#ff0000" points="490.5,-790.5 490.5,-809.5 541.5,-809.5 541.5,-790.5 490.5,-790.5"/>
<text text-anchor="middle" x="516" y="-797.5" font-family="Helvetica,sans-Serif" font-size="10.00" fill="#000000">JS_Call</text>
</a>
</g>
</g>
<!-- Node25246&#45;&gt;Node25266 -->
<g id="edge3" class="edge">
<title>Node25246&#45;&gt;Node25266</title>
<path fill="none" stroke="#191970" d="M421.6633,-768.9597C447.8981,-775.1235 478.1637,-783.595 497.1898,-790.3997"/>
<polygon fill="#191970" stroke="#191970" points="422.3657,-765.5301 411.8377,-766.7186 420.809,-772.3548 422.3657,-765.5301"/>
</g>
<!-- Node25347 -->
<g id="node7" class="node">
<title>Node25347</title>
<g id="a_node7"><a xlink:href="quickjs_8c.html#ad35594576a14c10812efaf958c99af8a" target="_top" xlink:title="JS_CallConstructorInternal">
<polygon fill="none" stroke="#ff0000" points="449,-752.5 449,-771.5 583,-771.5 583,-752.5 449,-752.5"/>
<text text-anchor="middle" x="516" y="-759.5" font-family="Helvetica,sans-Serif" font-size="10.00" fill="#000000">JS_CallConstructorInternal</text>
</a>
</g>
</g>
<!-- Node25246&#45;&gt;Node25347 -->
<g id="edge7" class="edge">
<title>Node25246&#45;&gt;Node25347</title>
<path fill="none" stroke="#191970" d="M421.8481,-755.5084C430.577,-755.2895 439.7474,-755.2097 448.7982,-755.269"/>
<polygon fill="#191970" stroke="#191970" points="421.7204,-752.0106 411.8377,-755.8294 421.9448,-759.007 421.7204,-752.0106"/>
</g>
<!-- Node25361 -->
<g id="node8" class="node">
<title>Node25361</title>
<g id="a_node8"><a xlink:href="quickjs_8c.html#a75f6ee5e4235a7dc99889f3d2eb2c147" target="_top" xlink:title="JS_CallFree">
<polygon fill="none" stroke="#ff0000" points="480.5,-676.5 480.5,-695.5 551.5,-695.5 551.5,-676.5 480.5,-676.5"/>
<text text-anchor="middle" x="516" y="-683.5" font-family="Helvetica,sans-Serif" font-size="10.00" fill="#000000">JS_CallFree</text>
</a>
</g>
</g>
<!-- Node25246&#45;&gt;Node25361 -->
<g id="edge9" class="edge">
<title>Node25246&#45;&gt;Node25361</title>
<path fill="none" stroke="#191970" d="M382.322,-744.5599C397.1615,-729.2412 423.3096,-708.4313 449,-696 458.7951,-691.2603 469.9839,-687.5049 480.3759,-685.0185"/>
<polygon fill="#191970" stroke="#191970" points="379.3588,-742.6241 375.316,-752.4173 384.5835,-747.2827 379.3588,-742.6241"/>
</g>
<!-- Node25266&#45;&gt;Node25246 -->
<g id="edge5" class="edge">
<title>Node25266&#45;&gt;Node25246</title>
<path fill="none" stroke="#191970" d="M480.2977,-796.604C451.3981,-790.5327 411.8351,-779.8374 388.7881,-771.5924"/>
<polygon fill="#191970" stroke="#191970" points="479.9211,-800.0977 490.4121,-798.6186 481.2885,-793.2325 479.9211,-800.0977"/>
</g>
<!-- Node25272 -->
<g id="node5" class="node">
<title>Node25272</title>
<g id="a_node5"><a xlink:href="quickjs_8c.html#a9dd41b086da4e13b3487cc9c6e2af2b8" target="_top" xlink:title="js_array_find">
<polygon fill="none" stroke="#000000" points="651,-799.5 651,-818.5 723,-818.5 723,-799.5 651,-799.5"/>
<text text-anchor="middle" x="687" y="-806.5" font-family="Helvetica,sans-Serif" font-size="10.00" fill="#000000">js_array_find</text>
</a>
</g>
</g>
<!-- Node25266&#45;&gt;Node25272 -->
<g id="edge4" class="edge">
<title>Node25266&#45;&gt;Node25272</title>
<path fill="none" stroke="#191970" d="M551.7269,-801.8804C580.7746,-803.4092 621.5819,-805.5569 650.7655,-807.0929"/>
<polygon fill="#191970" stroke="#191970" points="551.7706,-798.3779 541.6004,-801.3474 551.4026,-805.3682 551.7706,-798.3779"/>
</g>
<!-- Node25343 -->
<g id="node6" class="node">
<title>Node25343</title>
<g id="a_node6"><a xlink:href="quickjs_8c.html#a0b8ae7efe63abc1be33d9e828d43ce8d" target="_top" xlink:title="js_typed_array_find">
<polygon fill="none" stroke="#000000" points="636.5,-856.5 636.5,-875.5 737.5,-875.5 737.5,-856.5 636.5,-856.5"/>
<text text-anchor="middle" x="687" y="-863.5" font-family="Helvetica,sans-Serif" font-size="10.00" fill="#000000">js_typed_array_find</text>
</a>
</g>
</g>
<!-- Node25266&#45;&gt;Node25343 -->
<g id="edge6" class="edge">
<title>Node25266&#45;&gt;Node25343</title>
<path fill="none" stroke="#191970" d="M550.6048,-813.3562C583.7802,-826.1608 633.0289,-845.169 662.3825,-856.4985"/>
<polygon fill="#191970" stroke="#191970" points="551.4544,-809.9326 540.8649,-809.597 548.9338,-816.463 551.4544,-809.9326"/>
</g>
<!-- Node25347&#45;&gt;Node25246 -->
<g id="edge8" class="edge">
<title>Node25347&#45;&gt;Node25246</title>
<path fill="none" stroke="#191970" d="M438.7429,-768.7398C429.4833,-768.6953 420.3154,-768.5056 411.8377,-768.1706"/>
<polygon fill="#191970" stroke="#191970" points="438.8013,-772.2398 448.7982,-768.731 438.7951,-765.2398 438.8013,-772.2398"/>
</g>
<!-- Node25361&#45;&gt;Node25246 -->
<g id="edge10" class="edge">
<title>Node25361&#45;&gt;Node25246</title>
<path fill="none" stroke="#191970" d="M491.6572,-698.7254C478.6061,-702.8167 462.4827,-707.4759 449,-714 427.0775,-724.608 404.8217,-741.3172 389.544,-752.3054"/>
<polygon fill="#191970" stroke="#191970" points="492.9468,-701.9859 501.3561,-695.5412 490.7633,-695.3351 492.9468,-701.9859"/>
</g>
<!-- Node25361&#45;&gt;Node25590 -->
<g id="edge11" class="edge">
<title>Node25361&#45;&gt;Node25590</title>
<path fill="none" stroke="#191970" d="M561.8857,-675.8032C579.5578,-671.876 600.1285,-667.3048 619.4239,-663.0169"/>
<polygon fill="#191970" stroke="#191970" points="560.8498,-672.4479 551.8472,-678.034 562.3684,-679.2812 560.8498,-672.4479"/>
</g>
<!-- Node25467&#45;&gt;Node25246 -->
<g id="edge15" class="edge">
<title>Node25467&#45;&gt;Node25246</title>
<path fill="none" stroke="#191970" d="M274.0301,-825.5038C279.8711,-823.6134 285.6114,-821.4564 291,-819 318.0848,-806.6533 345.2678,-784.3419 359.6122,-771.603"/>
<polygon fill="#191970" stroke="#191970" points="272.7384,-822.2363 264.1493,-828.4394 274.732,-828.9464 272.7384,-822.2363"/>
</g>
<!-- Node25478&#45;&gt;Node25246 -->
<g id="edge17" class="edge">
<title>Node25478&#45;&gt;Node25246</title>
<path fill="none" stroke="#191970" d="M260.6724,-788.1601C270.7242,-785.7984 281.1979,-783.3283 291,-781 303.901,-777.9356 317.9792,-774.5599 330.6306,-771.5146"/>
<polygon fill="#191970" stroke="#191970" points="259.7377,-784.7842 250.8018,-790.4764 261.337,-791.5991 259.7377,-784.7842"/>
</g>
<!-- Node25579&#45;&gt;Node25246 -->
<g id="edge20" class="edge">
<title>Node25579&#45;&gt;Node25246</title>
<path fill="none" stroke="#191970" d="M275.0404,-864.7935C280.6334,-862.6369 286.0416,-860.0657 291,-857 309.3363,-845.6632 347.58,-793.564 363.1665,-771.701"/>
<polygon fill="#191970" stroke="#191970" points="273.8362,-861.5061 265.5003,-868.0454 276.0947,-868.1318 273.8362,-861.5061"/>
</g>
<!-- Node25579&#45;&gt;Node25272 -->
<g id="edge19" class="edge">
<title>Node25579&#45;&gt;Node25272</title>
<path fill="none" stroke="#191970" d="M275.8301,-866.7534C377.8201,-852.4278 570.6015,-825.3495 650.6916,-814.0999"/>
<polygon fill="#191970" stroke="#191970" points="275.0674,-863.3261 265.6515,-868.1831 276.0412,-870.2581 275.0674,-863.3261"/>
</g>
<!-- Node25579&#45;&gt;Node25343 -->
<g id="edge21" class="edge">
<title>Node25579&#45;&gt;Node25343</title>
<path fill="none" stroke="#191970" d="M275.8531,-874.6194C372.2064,-872.5994 549.5572,-868.8814 636.3998,-867.0608"/>
<polygon fill="#191970" stroke="#191970" points="275.5759,-871.1244 265.6515,-874.8333 275.7227,-878.1228 275.5759,-871.1244"/>
</g>
<!-- Node25548&#45;&gt;Node25246 -->
<g id="edge29" class="edge">
<title>Node25548&#45;&gt;Node25246</title>
<path fill="none" stroke="#191970" d="M268.2012,-762C288.0932,-762 309.9318,-762 328.2638,-762"/>
<polygon fill="#191970" stroke="#191970" points="268.0053,-758.5001 258.0053,-762 268.0052,-765.5001 268.0053,-758.5001"/>
</g>
<!-- Node25597&#45;&gt;Node25246 -->
<g id="edge31" class="edge">
<title>Node25597&#45;&gt;Node25246</title>
<path fill="none" stroke="#191970" d="M258.7258,-735.3827C269.3652,-737.8812 280.5633,-740.5209 291,-743 303.901,-746.0644 317.9792,-749.4401 330.6306,-752.4854"/>
<polygon fill="#191970" stroke="#191970" points="259.2744,-731.9164 248.7393,-733.0403 257.6758,-738.7315 259.2744,-731.9164"/>
</g>
<!-- Node25751&#45;&gt;Node25752 -->
<g id="edge33" class="edge">
<title>Node25751&#45;&gt;Node25752</title>
<path fill="none" stroke="#191970" d="M276.3443,-286.1216C293.4265,-284.0931 311.3647,-281.9629 326.9182,-280.116"/>
<polygon fill="#191970" stroke="#191970" points="275.9275,-282.6464 266.41,-287.3013 276.753,-289.5976 275.9275,-282.6464"/>
</g>
<!-- Node25399&#45;&gt;Node25246 -->
<g id="edge42" class="edge">
<title>Node25399&#45;&gt;Node25246</title>
<path fill="none" stroke="#191970" d="M274.0301,-698.4962C279.8711,-700.3866 285.6114,-702.5436 291,-705 318.0848,-717.3467 345.2678,-739.6581 359.6122,-752.397"/>
<polygon fill="#191970" stroke="#191970" points="274.732,-695.0536 264.1493,-695.5606 272.7384,-701.7637 274.732,-695.0536"/>
</g>
<!-- Node25496&#45;&gt;Node25496 -->
<g id="edge44" class="edge">
<title>Node25496&#45;&gt;Node25496</title>
<path fill="none" stroke="#191970" d="M180.0599,-28.2746C180.9135,-33.741 190.8936,-38 210,-38 238.4375,-38 246.6577,-28.5653 234.6606,-19.7571"/>
<polygon fill="#191970" stroke="#191970" points="183.0458,-30.1007 185.3394,-19.7571 177.096,-26.4128 183.0458,-30.1007"/>
</g>
</g>
</svg>
        <g id="navigator" transform="translate(0 0)" fill="#404254">
                <rect fill="#f2f5e9" fill-opacity="0.5" stroke="#606060" stroke-width=".5" x="0" y="0" width="60" height="60"/>
                <use id="zoomplus" xlink:href="#zoomPlus" x="17" y="9" onmousedown="handleZoom(evt,'in')"/>
                <use id="zoomminus" xlink:href="#zoomMin" x="42" y="9" onmousedown="handleZoom(evt,'out')"/>
                <use id="reset" xlink:href="#resetDef" x="30" y="36" onmousedown="handleReset()"/>
                <g id="arrowUp" xlink:href="#dirArrow" transform="translate(30 24)" onmousedown="handlePan(0,-1)">
                  <use xlink:href="#rim" fill="#404040">
                        <set attributeName="fill" to="#808080" begin="arrowUp.mouseover" end="arrowUp.mouseout"/>
                  </use>
                  <path fill="none" stroke="white" stroke-width="1.5" d="M0,-3.0v7 M-2.5,-0.5L0,-3.0L2.5,-0.5"/>
                </g>
                <g id="arrowRight" xlink:href="#dirArrow" transform="rotate(90) translate(36 -43)" onmousedown="handlePan(1,0)">
                  <use xlink:href="#rim" fill="#404040">
                        <set attributeName="fill" to="#808080" begin="arrowRight.mouseover" end="arrowRight.mouseout"/>
                  </use>
                  <path fill="none" stroke="white" stroke-width="1.5" d="M0,-3.0v7 M-2.5,-0.5L0,-3.0L2.5,-0.5"/>
                </g>
                <g id="arrowDown" xlink:href="#dirArrow" transform="rotate(180) translate(-30 -48)" onmousedown="handlePan(0,1)">
                  <use xlink:href="#rim" fill="#404040">
                        <set attributeName="fill" to="#808080" begin="arrowDown.mouseover" end="arrowDown.mouseout"/>
                  </use>
                  <path fill="none" stroke="white" stroke-width="1.5" d="M0,-3.0v7 M-2.5,-0.5L0,-3.0L2.5,-0.5"/>
                </g>
                <g id="arrowLeft" xlink:href="#dirArrow" transform="rotate(270) translate(-36 17)" onmousedown="handlePan(-1,0)">
                  <use xlink:href="#rim" fill="#404040">
                        <set attributeName="fill" to="#808080" begin="arrowLeft.mouseover" end="arrowLeft.mouseout"/>
                  </use>
                  <path fill="none" stroke="white" stroke-width="1.5" d="M0,-3.0v7 M-2.5,-0.5L0,-3.0L2.5,-0.5"/>
                </g>
        </g>
        <svg viewBox="0 0 15 15" width="100%" height="30px" preserveAspectRatio="xMaxYMin meet">
         <g id="arrow_out" transform="scale(0.3 0.3)">
          <a xlink:href="quickjs_8h_a859d5c989a2aaecef1653b3ac279e108_icgraph_org.svg" target="_base">
           <rect id="button" ry="5" rx="5" y="6" x="6" height="38" width="38"
                fill="#f2f5e9" fill-opacity="0.5" stroke="#606060" stroke-width="1.0"/>
           <path id="arrow"
             d="M 11.500037,31.436501 C 11.940474,20.09759 22.043105,11.32322 32.158766,21.979434 L 37.068811,17.246167 C 37.068811,17.246167 37.088388,32 37.088388,32 L 22.160133,31.978069 C 22.160133,31.978069 26.997745,27.140456 26.997745,27.140456 C 18.528582,18.264221 13.291696,25.230495 11.500037,31.436501 z"
             style="fill:#404040;"/>
          </a>
         </g>
        </svg>
</svg>
