<?xml version="1.0" encoding="UTF-8" standalone="no"?>
<!DOCTYPE svg PUBLIC "-//W3C//DTD SVG 1.1//EN"
 "http://www.w3.org/Graphics/SVG/1.1/DTD/svg11.dtd">
<!-- Generated by graphviz version 2.40.1 (20161225.0304)
 -->
<!-- Title: JS_ToStringInternal Pages: 1 -->
<!--zoomable 1027 -->
<svg id="main" version="1.1" xmlns="http://www.w3.org/2000/svg" xmlns:xlink="http://www.w3.org/1999/xlink" xml:space="preserve" onload="init(evt)">
<style type="text/css"><![CDATA[
.edge:hover path { stroke: red; }
.edge:hover polygon { stroke: red; fill: red; }
]]></style>
<script type="text/javascript"><![CDATA[
var edges = document.getElementsByTagName('g');
if (edges && edges.length) {
  for (var i=0;i<edges.length;i++) {
    if (edges[i].id.substr(0,4)=='edge') {
      edges[i].setAttribute('class','edge');
    }
  }
}
]]></script>
        <defs>
                <circle id="rim" cx="0" cy="0" r="7"/>
                <circle id="rim2" cx="0" cy="0" r="3.5"/>
                <g id="zoomPlus">
                        <use xlink:href="#rim" fill="#404040">
                                <set attributeName="fill" to="#808080" begin="zoomplus.mouseover" end="zoomplus.mouseout"/>
                        </use>
                        <path d="M-4,0h8M0,-4v8" fill="none" stroke="white" stroke-width="1.5" pointer-events="none"/>
                </g>
                <g id="zoomMin">
                        <use xlink:href="#rim" fill="#404040">
                                <set attributeName="fill" to="#808080" begin="zoomminus.mouseover" end="zoomminus.mouseout"/>
                        </use>
                        <path d="M-4,0h8" fill="none" stroke="white" stroke-width="1.5" pointer-events="none"/>
                </g>
                <g id="dirArrow">
                        <path fill="none" stroke="white" stroke-width="1.5" d="M0,-3.0v7 M-2.5,-0.5L0,-3.0L2.5,-0.5"/>
                </g>
               <g id="resetDef">
                       <use xlink:href="#rim2" fill="#404040">
                               <set attributeName="fill" to="#808080" begin="reset.mouseover" end="reset.mouseout"/>
                       </use>
               </g>
        </defs>

<script type="text/javascript">
var viewWidth = 589;
var viewHeight = 1027;
var sectionId = 'dynsection-733';
</script>
<script xlink:href="svgpan.js"/>
<svg id="graph" class="graph">
<g id="viewport">
<title>JS_ToStringInternal</title>
<!-- Node251968 -->
<g id="node1" class="node">
<title>Node251968</title>
<polygon fill="#bfbfbf" stroke="#000000" points="0,-709.5 0,-728.5 103,-728.5 103,-709.5 0,-709.5"/>
<text text-anchor="middle" x="51.5" y="-716.5" font-family="Helvetica,sans-Serif" font-size="10.00" fill="#000000">JS_ToStringInternal</text>
</g>
<!-- Node251968&#45;&gt;Node251968 -->
<g id="edge42" class="edge">
<title>Node251968&#45;&gt;Node251968</title>
<path fill="none" stroke="#191970" d="M26.2025,-738.0292C27.5824,-743.128 36.0149,-747 51.5,-747 75.6719,-747 82.6591,-737.5653 72.4615,-728.7571"/>
<polygon fill="#191970" stroke="#191970" points="29.4728,-739.2982 30.5385,-728.7571 23.1319,-736.3329 29.4728,-739.2982"/>
</g>
<!-- Node251969 -->
<g id="node2" class="node">
<title>Node251969</title>
<g id="a_node2"><a xlink:href="quickjs_8c.html#a35fd5681625c6d902357336edb6801e5" target="_top" xlink:title="JS_ToPropertyKey">
<polygon fill="none" stroke="#000000" points="139,-962.5 139,-981.5 238,-981.5 238,-962.5 139,-962.5"/>
<text text-anchor="middle" x="188.5" y="-969.5" font-family="Helvetica,sans-Serif" font-size="10.00" fill="#000000">JS_ToPropertyKey</text>
</a>
</g>
</g>
<!-- Node251968&#45;&gt;Node251969 -->
<g id="edge1" class="edge">
<title>Node251968&#45;&gt;Node251969</title>
<path fill="none" stroke="#191970" d="M61.6326,-737.712C88.871,-788.0136 162.98,-924.8718 183.2915,-962.3815"/>
<polygon fill="#191970" stroke="#191970" points="64.5428,-735.7359 56.7033,-728.609 58.3873,-739.0691 64.5428,-735.7359"/>
</g>
<!-- Node252519 -->
<g id="node5" class="node">
<title>Node252519</title>
<g id="a_node5"><a xlink:href="quickjs_8c.html#a7bcb8e1a20cbc8374a5f9ba4a2088cec" target="_top" xlink:title="JS_ToString">
<polygon fill="none" stroke="#ff0000" points="153,-475.5 153,-494.5 224,-494.5 224,-475.5 153,-475.5"/>
<text text-anchor="middle" x="188.5" y="-482.5" font-family="Helvetica,sans-Serif" font-size="10.00" fill="#000000">JS_ToString</text>
</a>
</g>
</g>
<!-- Node251968&#45;&gt;Node252519 -->
<g id="edge6" class="edge">
<title>Node251968&#45;&gt;Node252519</title>
<path fill="none" stroke="#191970" d="M62.4064,-700.3715C90.0768,-653.1098 162.2748,-529.7934 182.9146,-494.54"/>
<polygon fill="#191970" stroke="#191970" points="59.2444,-698.8451 57.2123,-709.2432 65.2852,-702.3818 59.2444,-698.8451"/>
</g>
<!-- Node251970 -->
<g id="node3" class="node">
<title>Node251970</title>
<g id="a_node3"><a xlink:href="quickjs_8c.html#a859d5c989a2aaecef1653b3ac279e108" target="_top" xlink:title="JS_ValueToAtom">
<polygon fill="none" stroke="#ff0000" points="293,-962.5 293,-981.5 386,-981.5 386,-962.5 293,-962.5"/>
<text text-anchor="middle" x="339.5" y="-969.5" font-family="Helvetica,sans-Serif" font-size="10.00" fill="#000000">JS_ValueToAtom</text>
</a>
</g>
</g>
<!-- Node251969&#45;&gt;Node251970 -->
<g id="edge2" class="edge">
<title>Node251969&#45;&gt;Node251970</title>
<path fill="none" stroke="#191970" d="M248.4103,-972C263.159,-972 278.7376,-972 292.76,-972"/>
<polygon fill="#191970" stroke="#191970" points="248.3616,-968.5001 238.3615,-972 248.3615,-975.5001 248.3616,-968.5001"/>
</g>
<!-- Node251971 -->
<g id="node4" class="node">
<title>Node251971</title>
<g id="a_node4"><a xlink:href="quickjs_8c.html#ac2894ff4edcdb4e6841bcce9c76081e3" target="_top" xlink:title="JS_CallInternal">
<polygon fill="none" stroke="#ff0000" points="469.5,-981.5 469.5,-1000.5 552.5,-1000.5 552.5,-981.5 469.5,-981.5"/>
<text text-anchor="middle" x="511" y="-988.5" font-family="Helvetica,sans-Serif" font-size="10.00" fill="#000000">JS_CallInternal</text>
</a>
</g>
</g>
<!-- Node251969&#45;&gt;Node251971 -->
<g id="edge5" class="edge">
<title>Node251969&#45;&gt;Node251971</title>
<path fill="none" stroke="#191970" d="M232.899,-983.7973C246.0338,-986.7615 260.5098,-989.5192 274,-991 342.0987,-998.4754 421.8688,-996.2269 469.322,-993.7411"/>
<polygon fill="#191970" stroke="#191970" points="233.6901,-980.3879 223.1547,-981.508 232.0891,-987.2024 233.6901,-980.3879"/>
</g>
<!-- Node251970&#45;&gt;Node251971 -->
<g id="edge3" class="edge">
<title>Node251970&#45;&gt;Node251971</title>
<path fill="none" stroke="#191970" d="M396.3651,-978.2999C420.2456,-980.9456 447.5104,-983.9662 469.4573,-986.3976"/>
<polygon fill="#191970" stroke="#191970" points="396.6877,-974.8143 386.3631,-977.1918 395.9169,-981.7718 396.6877,-974.8143"/>
</g>
<!-- Node251971&#45;&gt;Node251971 -->
<g id="edge4" class="edge">
<title>Node251971&#45;&gt;Node251971</title>
<path fill="none" stroke="#191970" d="M479.1886,-1009.2746C480.0956,-1014.741 490.6994,-1019 511,-1019 541.2148,-1019 549.9488,-1009.5653 537.2019,-1000.7571"/>
<polygon fill="#191970" stroke="#191970" points="482.2209,-1011.0337 484.7981,-1000.7571 476.3748,-1007.1836 482.2209,-1011.0337"/>
</g>
<!-- Node252465 -->
<g id="node6" class="node">
<title>Node252465</title>
<g id="a_node6"><a xlink:href="quickjs_8c.html#ab4e100a9cde5f7ec87c92f5e766dbbab" target="_top" xlink:title="JS_AtomIsNumericIndex1">
<polygon fill="none" stroke="#ff0000" points="274,-696.5 274,-715.5 405,-715.5 405,-696.5 274,-696.5"/>
<text text-anchor="middle" x="339.5" y="-703.5" font-family="Helvetica,sans-Serif" font-size="10.00" fill="#000000">JS_AtomIsNumericIndex1</text>
</a>
</g>
</g>
<!-- Node252519&#45;&gt;Node252465 -->
<g id="edge7" class="edge">
<title>Node252519&#45;&gt;Node252465</title>
<path fill="none" stroke="#191970" d="M191.7202,-504.6121C199.1459,-543.7488 221.0638,-632.0612 274,-682 280.6952,-688.3161 289.1879,-692.9972 297.8208,-696.4575"/>
<polygon fill="#191970" stroke="#191970" points="195.1624,-503.9777 189.9625,-494.7466 188.2709,-505.2056 195.1624,-503.9777"/>
</g>
<!-- Node252520 -->
<g id="node7" class="node">
<title>Node252520</title>
<g id="a_node7"><a xlink:href="quickjs_8c.html#af3ad59b9801a4ec68f41a50ab5762ccb" target="_top" xlink:title="string_buffer_concat\l_value">
<polygon fill="none" stroke="#ff0000" points="287,-609 287,-639 392,-639 392,-609 287,-609"/>
<text text-anchor="start" x="295" y="-627" font-family="Helvetica,sans-Serif" font-size="10.00" fill="#000000">string_buffer_concat</text>
<text text-anchor="middle" x="339.5" y="-616" font-family="Helvetica,sans-Serif" font-size="10.00" fill="#000000">_value</text>
</a>
</g>
</g>
<!-- Node252519&#45;&gt;Node252520 -->
<g id="edge8" class="edge">
<title>Node252519&#45;&gt;Node252520</title>
<path fill="none" stroke="#191970" d="M198.1952,-503.8548C211.9252,-528.8452 239.2741,-572.8222 274,-599 279.0541,-602.81 284.7575,-606.1036 290.6378,-608.9335"/>
<polygon fill="#191970" stroke="#191970" points="201.1076,-501.878 193.3121,-494.7029 194.9317,-505.1732 201.1076,-501.878"/>
</g>
<!-- Node252040 -->
<g id="node8" class="node">
<title>Node252040</title>
<g id="a_node8"><a xlink:href="quickjs_8c.html#a6a77bcdb9f7f18c13c108c99a198708b" target="_top" xlink:title="js_regexp_Symbol_replace">
<polygon fill="none" stroke="#000000" points="444,-579.5 444,-598.5 578,-598.5 578,-579.5 444,-579.5"/>
<text text-anchor="middle" x="511" y="-586.5" font-family="Helvetica,sans-Serif" font-size="10.00" fill="#000000">js_regexp_Symbol_replace</text>
</a>
</g>
</g>
<!-- Node252519&#45;&gt;Node252040 -->
<g id="edge40" class="edge">
<title>Node252519&#45;&gt;Node252040</title>
<path fill="none" stroke="#191970" d="M191.9606,-504.5608C199.5205,-540.6676 221.2508,-617.013 274,-649 350.2143,-695.2162 460.8698,-625.2342 498.1758,-598.5922"/>
<polygon fill="#191970" stroke="#191970" points="195.3955,-503.8886 190.0506,-494.7408 188.5242,-505.2251 195.3955,-503.8886"/>
</g>
<!-- Node252521 -->
<g id="node9" class="node">
<title>Node252521</title>
<g id="a_node9"><a xlink:href="quickjs_8c.html#af49e67b73f845dc1f9c3ee648dd9f95c" target="_top" xlink:title="JS_ToCStringLen2">
<polygon fill="none" stroke="#ff0000" points="290,-380.5 290,-399.5 389,-399.5 389,-380.5 290,-380.5"/>
<text text-anchor="middle" x="339.5" y="-387.5" font-family="Helvetica,sans-Serif" font-size="10.00" fill="#000000">JS_ToCStringLen2</text>
</a>
</g>
</g>
<!-- Node252519&#45;&gt;Node252521 -->
<g id="edge10" class="edge">
<title>Node252519&#45;&gt;Node252521</title>
<path fill="none" stroke="#191970" d="M205.1074,-468.2158C221.4459,-452.4674 247.6992,-429.1328 274,-414 284.0774,-408.2017 295.8077,-403.3772 306.534,-399.6114"/>
<polygon fill="#191970" stroke="#191970" points="202.6086,-465.7642 197.9263,-475.2683 207.5134,-470.7585 202.6086,-465.7642"/>
</g>
<!-- Node252553 -->
<g id="node10" class="node">
<title>Node252553</title>
<g id="a_node10"><a xlink:href="quickjs_8c.html#a38cad713b74c445668210ea8614bfb65" target="_top" xlink:title="JS_ToStringFree">
<polygon fill="none" stroke="#ff0000" points="294.5,-494.5 294.5,-513.5 384.5,-513.5 384.5,-494.5 294.5,-494.5"/>
<text text-anchor="middle" x="339.5" y="-501.5" font-family="Helvetica,sans-Serif" font-size="10.00" fill="#000000">JS_ToStringFree</text>
</a>
</g>
</g>
<!-- Node252519&#45;&gt;Node252553 -->
<g id="edge11" class="edge">
<title>Node252519&#45;&gt;Node252553</title>
<path fill="none" stroke="#191970" d="M234.2123,-490.7519C253.2294,-493.1448 275.2494,-495.9155 294.2206,-498.3026"/>
<polygon fill="#191970" stroke="#191970" points="234.6436,-487.2786 224.2849,-489.5027 233.7697,-494.2239 234.6436,-487.2786"/>
</g>
<!-- Node252047 -->
<g id="node11" class="node">
<title>Node252047</title>
<g id="a_node11"><a xlink:href="quickjs_8c.html#aed1bf9ce4b9e3a82388679dd6ec7635b" target="_top" xlink:title="js_string_replace">
<polygon fill="none" stroke="#000000" points="466,-522.5 466,-541.5 556,-541.5 556,-522.5 466,-522.5"/>
<text text-anchor="middle" x="511" y="-529.5" font-family="Helvetica,sans-Serif" font-size="10.00" fill="#000000">js_string_replace</text>
</a>
</g>
</g>
<!-- Node252519&#45;&gt;Node252047 -->
<g id="edge28" class="edge">
<title>Node252519&#45;&gt;Node252047</title>
<path fill="none" stroke="#191970" d="M213.8928,-499.3597C230.4488,-507.9354 252.8367,-518.0874 274,-523 339.3777,-538.1761 417.5834,-537.6751 465.7765,-535.3082"/>
<polygon fill="#191970" stroke="#191970" points="215.3422,-496.1659 204.8722,-494.5442 212.0456,-502.3411 215.3422,-496.1659"/>
</g>
<!-- Node252104 -->
<g id="node12" class="node">
<title>Node252104</title>
<g id="a_node12"><a xlink:href="quickjs_8c.html#a41fc4304b39616e7be3500fe6ec881c2" target="_top" xlink:title="js_regexp_Symbol_match">
<polygon fill="none" stroke="#000000" points="446.5,-465.5 446.5,-484.5 575.5,-484.5 575.5,-465.5 446.5,-465.5"/>
<text text-anchor="middle" x="511" y="-472.5" font-family="Helvetica,sans-Serif" font-size="10.00" fill="#000000">js_regexp_Symbol_match</text>
</a>
</g>
</g>
<!-- Node252519&#45;&gt;Node252104 -->
<g id="edge38" class="edge">
<title>Node252519&#45;&gt;Node252104</title>
<path fill="none" stroke="#191970" d="M234.4842,-483.5741C289.9971,-481.8528 383.6986,-478.9473 446.4384,-477.0019"/>
<polygon fill="#191970" stroke="#191970" points="234.132,-480.0833 224.2453,-483.8916 234.3491,-487.0799 234.132,-480.0833"/>
</g>
<!-- Node252079 -->
<g id="node13" class="node">
<title>Node252079</title>
<g id="a_node13"><a xlink:href="quickjs_8c.html#ace9b3fda4db2506ca054f0c7aaf41880" target="_top" xlink:title="js_regexp_Symbol_matchAll">
<polygon fill="none" stroke="#000000" points="441,-422.5 441,-441.5 581,-441.5 581,-422.5 441,-422.5"/>
<text text-anchor="middle" x="511" y="-429.5" font-family="Helvetica,sans-Serif" font-size="10.00" fill="#000000">js_regexp_Symbol_matchAll</text>
</a>
</g>
</g>
<!-- Node252519&#45;&gt;Node252079 -->
<g id="edge39" class="edge">
<title>Node252519&#45;&gt;Node252079</title>
<path fill="none" stroke="#191970" d="M234.1306,-477.501C291.5834,-468.0592 390.3398,-451.8294 453.0656,-441.521"/>
<polygon fill="#191970" stroke="#191970" points="233.5454,-474.0502 224.2453,-479.1256 234.6806,-480.9575 233.5454,-474.0502"/>
</g>
<!-- Node252560 -->
<g id="node14" class="node">
<title>Node252560</title>
<g id="a_node14"><a xlink:href="quickjs_8c.html#a4d1d0760c9f9efcb8c0a8db414e46c8a" target="_top" xlink:title="JS_ToStringCheckObject">
<polygon fill="none" stroke="#ff0000" points="275.5,-266.5 275.5,-285.5 403.5,-285.5 403.5,-266.5 275.5,-266.5"/>
<text text-anchor="middle" x="339.5" y="-273.5" font-family="Helvetica,sans-Serif" font-size="10.00" fill="#000000">JS_ToStringCheckObject</text>
</a>
</g>
</g>
<!-- Node252519&#45;&gt;Node252560 -->
<g id="edge16" class="edge">
<title>Node252519&#45;&gt;Node252560</title>
<path fill="none" stroke="#191970" d="M192.3575,-465.3281C200.6796,-427.9515 223.7734,-346.282 274,-300 280.8578,-293.6808 289.516,-288.9917 298.271,-285.5238"/>
<polygon fill="#191970" stroke="#191970" points="188.8687,-464.9112 190.2354,-475.4175 195.7188,-466.3521 188.8687,-464.9112"/>
</g>
<!-- Node252385 -->
<g id="node15" class="node">
<title>Node252385</title>
<g id="a_node15"><a xlink:href="quickjs_8c.html#a7e93a76184ec9bc88adb834f83f679d8" target="_top" xlink:title="js_string_indexOf">
<polygon fill="none" stroke="#000000" points="465,-342.5 465,-361.5 557,-361.5 557,-342.5 465,-342.5"/>
<text text-anchor="middle" x="511" y="-349.5" font-family="Helvetica,sans-Serif" font-size="10.00" fill="#000000">js_string_indexOf</text>
</a>
</g>
</g>
<!-- Node252519&#45;&gt;Node252385 -->
<g id="edge25" class="edge">
<title>Node252519&#45;&gt;Node252385</title>
<path fill="none" stroke="#191970" d="M196.4821,-466.1578C208.8047,-439.7035 235.1692,-392.3976 274,-371 333.4706,-338.2289 414.371,-339.7286 464.6048,-344.9871"/>
<polygon fill="#191970" stroke="#191970" points="193.2005,-464.9228 192.3208,-475.4811 199.5927,-467.7759 193.2005,-464.9228"/>
</g>
<!-- Node252431 -->
<g id="node16" class="node">
<title>Node252431</title>
<g id="a_node16"><a xlink:href="quickjs_8c.html#a507292e60d4d33781303b635d3f42fd1" target="_top" xlink:title="js_string_includes">
<polygon fill="none" stroke="#000000" points="463.5,-304.5 463.5,-323.5 558.5,-323.5 558.5,-304.5 463.5,-304.5"/>
<text text-anchor="middle" x="511" y="-311.5" font-family="Helvetica,sans-Serif" font-size="10.00" fill="#000000">js_string_includes</text>
</a>
</g>
</g>
<!-- Node252519&#45;&gt;Node252431 -->
<g id="edge26" class="edge">
<title>Node252519&#45;&gt;Node252431</title>
<path fill="none" stroke="#191970" d="M193.5521,-465.6411C203.1619,-433.094 227.4006,-368.0305 274,-338 331.0112,-301.2597 412.2417,-301.7433 463.2631,-306.8359"/>
<polygon fill="#191970" stroke="#191970" points="190.1638,-464.7616 190.8427,-475.3347 196.9055,-466.646 190.1638,-464.7616"/>
</g>
<!-- Node252442 -->
<g id="node17" class="node">
<title>Node252442</title>
<g id="a_node17"><a xlink:href="quickjs_8c.html#afe038ef522a8c7c8862cfe18a0c0a785" target="_top" xlink:title="js_string_pad">
<polygon fill="none" stroke="#000000" points="474,-257.5 474,-276.5 548,-276.5 548,-257.5 474,-257.5"/>
<text text-anchor="middle" x="511" y="-264.5" font-family="Helvetica,sans-Serif" font-size="10.00" fill="#000000">js_string_pad</text>
</a>
</g>
</g>
<!-- Node252519&#45;&gt;Node252442 -->
<g id="edge30" class="edge">
<title>Node252519&#45;&gt;Node252442</title>
<path fill="none" stroke="#191970" d="M192.8483,-465.4315C204.5294,-414.8263 238.1428,-281.8491 274,-257 339.4976,-211.6101 441.3849,-240.5502 487.2306,-257.3866"/>
<polygon fill="#191970" stroke="#191970" points="189.3821,-464.8909 190.5829,-475.4175 196.2086,-466.4397 189.3821,-464.8909"/>
</g>
<!-- Node252565 -->
<g id="node18" class="node">
<title>Node252565</title>
<g id="a_node18"><a xlink:href="quickjs_8c.html#a96177f318d170980abe8c9c41cdb52d5" target="_top" xlink:title="js_string_localeCompare">
<polygon fill="none" stroke="#000000" points="449,-200.5 449,-219.5 573,-219.5 573,-200.5 449,-200.5"/>
<text text-anchor="middle" x="511" y="-207.5" font-family="Helvetica,sans-Serif" font-size="10.00" fill="#000000">js_string_localeCompare</text>
</a>
</g>
</g>
<!-- Node252519&#45;&gt;Node252565 -->
<g id="edge31" class="edge">
<title>Node252519&#45;&gt;Node252565</title>
<path fill="none" stroke="#191970" d="M192.1743,-465.4083C202.8259,-410.85 235.4268,-259.1991 274,-229 329.4157,-185.6149 416.1436,-191.5921 467.8938,-200.4242"/>
<polygon fill="#191970" stroke="#191970" points="188.7368,-464.7502 190.2906,-475.2304 195.6115,-466.0687 188.7368,-464.7502"/>
</g>
<!-- Node252003 -->
<g id="node19" class="node">
<title>Node252003</title>
<g id="a_node19"><a xlink:href="quickjs_8c.html#ad25358fc5ae69ab218abde24d52b7767" target="_top" xlink:title="js_error_constructor">
<polygon fill="none" stroke="#ff0000" points="288,-152.5 288,-171.5 391,-171.5 391,-152.5 288,-152.5"/>
<text text-anchor="middle" x="339.5" y="-159.5" font-family="Helvetica,sans-Serif" font-size="10.00" fill="#000000">js_error_constructor</text>
</a>
</g>
</g>
<!-- Node252519&#45;&gt;Node252003 -->
<g id="edge21" class="edge">
<title>Node252519&#45;&gt;Node252003</title>
<path fill="none" stroke="#191970" d="M191.7098,-465.5192C201.8702,-405.9889 234.9717,-227.974 274,-186 279.8552,-179.7028 287.5009,-175.0526 295.4934,-171.6201"/>
<polygon fill="#191970" stroke="#191970" points="188.2408,-465.043 190.0358,-475.4847 195.1441,-466.2027 188.2408,-465.043"/>
</g>
<!-- Node252265 -->
<g id="node20" class="node">
<title>Node252265</title>
<g id="a_node20"><a xlink:href="quickjs_8c.html#a4f8035820871c730dd7e98d46e137bc1" target="_top" xlink:title="js_array_join">
<polygon fill="none" stroke="#000000" points="304,-114.5 304,-133.5 375,-133.5 375,-114.5 304,-114.5"/>
<text text-anchor="middle" x="339.5" y="-121.5" font-family="Helvetica,sans-Serif" font-size="10.00" fill="#000000">js_array_join</text>
</a>
</g>
</g>
<!-- Node252519&#45;&gt;Node252265 -->
<g id="edge22" class="edge">
<title>Node252519&#45;&gt;Node252265</title>
<path fill="none" stroke="#191970" d="M190.8545,-465.2178C199.0494,-399.5699 228.3363,-190.4019 274,-143 281.886,-134.8139 293.0684,-130.0954 303.966,-127.3951"/>
<polygon fill="#191970" stroke="#191970" points="187.3462,-465.0737 189.6075,-475.4244 194.2945,-465.9227 187.3462,-465.0737"/>
</g>
<!-- Node252354 -->
<g id="node21" class="node">
<title>Node252354</title>
<g id="a_node21"><a xlink:href="quickjs_8c.html#a341f4d5925a607eeaad8d3cbb03e9de1" target="_top" xlink:title="js_array_cmp_generic">
<polygon fill="none" stroke="#ff0000" points="283.5,-76.5 283.5,-95.5 395.5,-95.5 395.5,-76.5 283.5,-76.5"/>
<text text-anchor="middle" x="339.5" y="-83.5" font-family="Helvetica,sans-Serif" font-size="10.00" fill="#000000">js_array_cmp_generic</text>
</a>
</g>
</g>
<!-- Node252519&#45;&gt;Node252354 -->
<g id="edge23" class="edge">
<title>Node252519&#45;&gt;Node252354</title>
<path fill="none" stroke="#191970" d="M190.3104,-465.3364C197.1519,-395.1847 223.6345,-158.5362 274,-105 277.6509,-101.1193 282.0421,-98.0158 286.8007,-95.5362"/>
<polygon fill="#191970" stroke="#191970" points="186.8116,-465.1578 189.3496,-475.4442 193.7802,-465.8202 186.8116,-465.1578"/>
</g>
<!-- Node252260 -->
<g id="node22" class="node">
<title>Node252260</title>
<g id="a_node22"><a xlink:href="quickjs_8c.html#ab834bcc157945cd4dd8873c0d9d70c6a" target="_top" xlink:title="js_string_constructor">
<polygon fill="none" stroke="#ff0000" points="286,-38.5 286,-57.5 393,-57.5 393,-38.5 286,-38.5"/>
<text text-anchor="middle" x="339.5" y="-45.5" font-family="Helvetica,sans-Serif" font-size="10.00" fill="#000000">js_string_constructor</text>
</a>
</g>
</g>
<!-- Node252519&#45;&gt;Node252260 -->
<g id="edge24" class="edge">
<title>Node252519&#45;&gt;Node252260</title>
<path fill="none" stroke="#191970" d="M189.9112,-464.8539C195.5754,-389.6429 219.0551,-126.56 274,-67 277.5325,-63.1708 281.7856,-60.0966 286.4073,-57.631"/>
<polygon fill="#191970" stroke="#191970" points="186.3896,-465.0236 189.153,-475.2517 193.3711,-465.5328 186.3896,-465.0236"/>
</g>
<!-- Node252078 -->
<g id="node23" class="node">
<title>Node252078</title>
<g id="a_node23"><a xlink:href="quickjs_8c.html#a48c74f10715547bf679361ae42e2a97f" target="_top" xlink:title="js_string_match">
<polygon fill="none" stroke="#000000" points="296.5,-.5 296.5,-19.5 382.5,-19.5 382.5,-.5 296.5,-.5"/>
<text text-anchor="middle" x="339.5" y="-7.5" font-family="Helvetica,sans-Serif" font-size="10.00" fill="#000000">js_string_match</text>
</a>
</g>
</g>
<!-- Node252519&#45;&gt;Node252078 -->
<g id="edge27" class="edge">
<title>Node252519&#45;&gt;Node252078</title>
<path fill="none" stroke="#191970" d="M189.5248,-465.0793C193.9909,-385.9305 214.2846,-94.8067 274,-29 279.888,-22.5114 287.8449,-18.1865 296.1828,-15.3165"/>
<polygon fill="#191970" stroke="#191970" points="186.0245,-464.9921 188.9779,-475.1669 193.0142,-465.3711 186.0245,-464.9921"/>
</g>
<!-- Node252213 -->
<g id="node24" class="node">
<title>Node252213</title>
<g id="a_node24"><a xlink:href="quickjs_8c.html#a99f359a90bf2aa7902ec554d726d4fda" target="_top" xlink:title="js_string_split">
<polygon fill="none" stroke="#000000" points="301,-924.5 301,-943.5 378,-943.5 378,-924.5 301,-924.5"/>
<text text-anchor="middle" x="339.5" y="-931.5" font-family="Helvetica,sans-Serif" font-size="10.00" fill="#000000">js_string_split</text>
</a>
</g>
</g>
<!-- Node252519&#45;&gt;Node252213 -->
<g id="edge29" class="edge">
<title>Node252519&#45;&gt;Node252213</title>
<path fill="none" stroke="#191970" d="M189.7588,-504.7475C194.9939,-580.7759 217.4701,-853.3837 274,-915 281.044,-922.6777 290.9849,-927.3222 300.9989,-930.1114"/>
<polygon fill="#191970" stroke="#191970" points="193.243,-504.3936 189.0866,-494.6481 186.2585,-504.8585 193.243,-504.3936"/>
</g>
<!-- Node252567 -->
<g id="node25" class="node">
<title>Node252567</title>
<g id="a_node25"><a xlink:href="quickjs_8c.html#a79e4344ecf9b38111a8100787d977fb2" target="_top" xlink:title="JS_ToUTF32String">
<polygon fill="none" stroke="#ff0000" points="289,-886.5 289,-905.5 390,-905.5 390,-886.5 289,-886.5"/>
<text text-anchor="middle" x="339.5" y="-893.5" font-family="Helvetica,sans-Serif" font-size="10.00" fill="#000000">JS_ToUTF32String</text>
</a>
</g>
</g>
<!-- Node252519&#45;&gt;Node252567 -->
<g id="edge32" class="edge">
<title>Node252519&#45;&gt;Node252567</title>
<path fill="none" stroke="#191970" d="M190.1792,-504.8331C196.6444,-576.6173 222.1943,-821.5694 274,-877 278.1232,-881.4117 283.2032,-884.8197 288.695,-887.4488"/>
<polygon fill="#191970" stroke="#191970" points="193.6645,-504.5106 189.3044,-494.8546 186.6912,-505.1221 193.6645,-504.5106"/>
</g>
<!-- Node252257 -->
<g id="node26" class="node">
<title>Node252257</title>
<g id="a_node26"><a xlink:href="quickjs_8c.html#a233052710c228313122c39c231a23ddf" target="_top" xlink:title="js_regexp_constructor">
<polygon fill="none" stroke="#ff0000" points="283,-848.5 283,-867.5 396,-867.5 396,-848.5 283,-848.5"/>
<text text-anchor="middle" x="339.5" y="-855.5" font-family="Helvetica,sans-Serif" font-size="10.00" fill="#000000">js_regexp_constructor</text>
</a>
</g>
</g>
<!-- Node252519&#45;&gt;Node252257 -->
<g id="edge33" class="edge">
<title>Node252519&#45;&gt;Node252257</title>
<path fill="none" stroke="#191970" d="M190.6541,-504.6076C198.3876,-571.5477 226.8223,-789.6332 274,-839 277.6812,-842.852 282.0921,-845.9369 286.8624,-848.4053"/>
<polygon fill="#191970" stroke="#191970" points="194.1207,-504.1133 189.5202,-494.5694 187.1649,-504.8991 194.1207,-504.1133"/>
</g>
<!-- Node252108 -->
<g id="node27" class="node">
<title>Node252108</title>
<g id="a_node27"><a xlink:href="quickjs_8c.html#af55de7fe1d3513a7230dfbfc1cbeec62" target="_top" xlink:title="js_regexp_compile">
<polygon fill="none" stroke="#000000" points="290.5,-810.5 290.5,-829.5 388.5,-829.5 388.5,-810.5 290.5,-810.5"/>
<text text-anchor="middle" x="339.5" y="-817.5" font-family="Helvetica,sans-Serif" font-size="10.00" fill="#000000">js_regexp_compile</text>
</a>
</g>
</g>
<!-- Node252519&#45;&gt;Node252108 -->
<g id="edge34" class="edge">
<title>Node252519&#45;&gt;Node252108</title>
<path fill="none" stroke="#191970" d="M191.3071,-504.895C200.4964,-567.3253 231.5435,-757.7687 274,-801 278.563,-805.6462 284.1886,-809.1731 290.2097,-811.847"/>
<polygon fill="#191970" stroke="#191970" points="194.7415,-504.1889 189.8478,-494.792 187.8134,-505.1897 194.7415,-504.1889"/>
</g>
<!-- Node252109 -->
<g id="node28" class="node">
<title>Node252109</title>
<g id="a_node28"><a xlink:href="quickjs_8c.html#a9eb2d90f27f684820f9de13189502b7c" target="_top" xlink:title="js_regexp_exec">
<polygon fill="none" stroke="#ff0000" points="297,-772.5 297,-791.5 382,-791.5 382,-772.5 297,-772.5"/>
<text text-anchor="middle" x="339.5" y="-779.5" font-family="Helvetica,sans-Serif" font-size="10.00" fill="#000000">js_regexp_exec</text>
</a>
</g>
</g>
<!-- Node252519&#45;&gt;Node252109 -->
<g id="edge35" class="edge">
<title>Node252519&#45;&gt;Node252109</title>
<path fill="none" stroke="#191970" d="M192.0575,-504.7167C202.7364,-561.8362 236.1255,-725.7284 274,-763 280.245,-769.1456 288.3527,-773.3259 296.7242,-776.1635"/>
<polygon fill="#191970" stroke="#191970" points="195.4821,-503.987 190.23,-494.7856 188.5977,-505.2539 195.4821,-503.987"/>
</g>
<!-- Node252115 -->
<g id="node29" class="node">
<title>Node252115</title>
<g id="a_node29"><a xlink:href="quickjs_8c.html#a14fa3c10f581e1cd38b349913f47fb43" target="_top" xlink:title="JS_RegExpDelete">
<polygon fill="none" stroke="#000000" points="290.5,-570.5 290.5,-589.5 388.5,-589.5 388.5,-570.5 290.5,-570.5"/>
<text text-anchor="middle" x="339.5" y="-577.5" font-family="Helvetica,sans-Serif" font-size="10.00" fill="#000000">JS_RegExpDelete</text>
</a>
</g>
</g>
<!-- Node252519&#45;&gt;Node252115 -->
<g id="edge36" class="edge">
<title>Node252519&#45;&gt;Node252115</title>
<path fill="none" stroke="#191970" d="M205.1074,-501.7842C221.4459,-517.5326 247.6992,-540.8672 274,-556 284.0774,-561.7983 295.8077,-566.6228 306.534,-570.3886"/>
<polygon fill="#191970" stroke="#191970" points="207.5134,-499.2415 197.9263,-494.7317 202.6086,-504.2358 207.5134,-499.2415"/>
</g>
<!-- Node252113 -->
<g id="node30" class="node">
<title>Node252113</title>
<g id="a_node30"><a xlink:href="quickjs_8c.html#af315d0f35b4b11e5957b904c98bf1c0d" target="_top" xlink:title="js_regexp_Symbol_search">
<polygon fill="none" stroke="#000000" points="274,-734.5 274,-753.5 405,-753.5 405,-734.5 274,-734.5"/>
<text text-anchor="middle" x="339.5" y="-741.5" font-family="Helvetica,sans-Serif" font-size="10.00" fill="#000000">js_regexp_Symbol_search</text>
</a>
</g>
</g>
<!-- Node252519&#45;&gt;Node252113 -->
<g id="edge41" class="edge">
<title>Node252519&#45;&gt;Node252113</title>
<path fill="none" stroke="#191970" d="M189.6834,-505.0543C193.4872,-550.8907 209.2897,-664.0544 274,-725 278.1373,-728.8966 283.0258,-731.9999 288.2384,-734.4705"/>
<polygon fill="#191970" stroke="#191970" points="193.1632,-504.6465 188.9524,-494.9244 186.1814,-505.1504 193.1632,-504.6465"/>
</g>
<!-- Node252520&#45;&gt;Node252040 -->
<g id="edge9" class="edge">
<title>Node252520&#45;&gt;Node252040</title>
<path fill="none" stroke="#191970" d="M402.2694,-611.1899C422.8231,-606.9953 445.2786,-602.4125 464.4182,-598.5065"/>
<polygon fill="#191970" stroke="#191970" points="401.4532,-607.7843 392.355,-613.2133 402.853,-614.6429 401.4532,-607.7843"/>
</g>
<!-- Node252553&#45;&gt;Node252040 -->
<g id="edge15" class="edge">
<title>Node252553&#45;&gt;Node252040</title>
<path fill="none" stroke="#191970" d="M368.0615,-518.1558C403.1114,-535.5275 461.5877,-564.5099 491.7308,-579.4497"/>
<polygon fill="#191970" stroke="#191970" points="369.354,-514.8902 358.8399,-513.5854 366.2455,-521.1621 369.354,-514.8902"/>
</g>
<!-- Node252553&#45;&gt;Node252047 -->
<g id="edge12" class="edge">
<title>Node252553&#45;&gt;Node252047</title>
<path fill="none" stroke="#191970" d="M394.5456,-512.987C417.6029,-516.7515 444.0725,-521.0731 465.9439,-524.6439"/>
<polygon fill="#191970" stroke="#191970" points="394.9929,-509.5138 384.5596,-511.3567 393.8649,-516.4223 394.9929,-509.5138"/>
</g>
<!-- Node252553&#45;&gt;Node252104 -->
<g id="edge13" class="edge">
<title>Node252553&#45;&gt;Node252104</title>
<path fill="none" stroke="#191970" d="M394.6376,-494.6764C413.8007,-491.436 435.3117,-487.7986 454.5772,-484.5409"/>
<polygon fill="#191970" stroke="#191970" points="393.8361,-491.2622 384.5596,-496.3806 395.0032,-498.1642 393.8361,-491.2622"/>
</g>
<!-- Node252553&#45;&gt;Node252079 -->
<g id="edge14" class="edge">
<title>Node252553&#45;&gt;Node252079</title>
<path fill="none" stroke="#191970" d="M367.2532,-489.8473C387.4469,-479.8037 415.5893,-466.3271 441,-456 453.854,-450.776 468.321,-445.6883 480.7522,-441.5516"/>
<polygon fill="#191970" stroke="#191970" points="365.6713,-486.725 358.2995,-494.3347 368.8077,-492.9831 365.6713,-486.725"/>
</g>
<!-- Node252560&#45;&gt;Node252385 -->
<g id="edge17" class="edge">
<title>Node252560&#45;&gt;Node252385</title>
<path fill="none" stroke="#191970" d="M362.5075,-291.0963C382.561,-303.7149 412.7759,-321.4523 441,-333 449.8576,-336.624 459.6254,-339.7709 468.9824,-342.4044"/>
<polygon fill="#191970" stroke="#191970" points="364.3648,-288.1296 354.0524,-285.6993 360.5985,-294.03 364.3648,-288.1296"/>
</g>
<!-- Node252560&#45;&gt;Node252431 -->
<g id="edge18" class="edge">
<title>Node252560&#45;&gt;Node252431</title>
<path fill="none" stroke="#191970" d="M392.5412,-287.7526C416.7913,-293.1258 445.1467,-299.4086 468.0345,-304.4799"/>
<polygon fill="#191970" stroke="#191970" points="393.2971,-284.3352 382.7767,-285.589 391.7827,-291.1695 393.2971,-284.3352"/>
</g>
<!-- Node252560&#45;&gt;Node252442 -->
<g id="edge19" class="edge">
<title>Node252560&#45;&gt;Node252442</title>
<path fill="none" stroke="#191970" d="M413.9076,-272.0952C434.5896,-271.0099 456.1675,-269.8775 473.7144,-268.9567"/>
<polygon fill="#191970" stroke="#191970" points="413.651,-268.6038 403.8482,-272.6231 414.0179,-275.5942 413.651,-268.6038"/>
</g>
<!-- Node252560&#45;&gt;Node252565 -->
<g id="edge20" class="edge">
<title>Node252560&#45;&gt;Node252565</title>
<path fill="none" stroke="#191970" d="M373.7767,-262.809C407.0522,-250.0032 456.7442,-230.8798 486.3106,-219.5015"/>
<polygon fill="#191970" stroke="#191970" points="372.5132,-259.5449 364.4376,-266.403 375.0274,-266.0778 372.5132,-259.5449"/>
</g>
<!-- Node252115&#45;&gt;Node252040 -->
<g id="edge37" class="edge">
<title>Node252115&#45;&gt;Node252040</title>
<path fill="none" stroke="#191970" d="M398.9868,-583.1218C413.4963,-583.8832 429.1161,-584.7029 443.951,-585.4814"/>
<polygon fill="#191970" stroke="#191970" points="398.8147,-579.608 388.645,-582.579 398.4478,-586.5984 398.8147,-579.608"/>
</g>
</g>
</svg>
        <g id="navigator" transform="translate(0 0)" fill="#404254">
                <rect fill="#f2f5e9" fill-opacity="0.5" stroke="#606060" stroke-width=".5" x="0" y="0" width="60" height="60"/>
                <use id="zoomplus" xlink:href="#zoomPlus" x="17" y="9" onmousedown="handleZoom(evt,'in')"/>
                <use id="zoomminus" xlink:href="#zoomMin" x="42" y="9" onmousedown="handleZoom(evt,'out')"/>
                <use id="reset" xlink:href="#resetDef" x="30" y="36" onmousedown="handleReset()"/>
                <g id="arrowUp" xlink:href="#dirArrow" transform="translate(30 24)" onmousedown="handlePan(0,-1)">
                  <use xlink:href="#rim" fill="#404040">
                        <set attributeName="fill" to="#808080" begin="arrowUp.mouseover" end="arrowUp.mouseout"/>
                  </use>
                  <path fill="none" stroke="white" stroke-width="1.5" d="M0,-3.0v7 M-2.5,-0.5L0,-3.0L2.5,-0.5"/>
                </g>
                <g id="arrowRight" xlink:href="#dirArrow" transform="rotate(90) translate(36 -43)" onmousedown="handlePan(1,0)">
                  <use xlink:href="#rim" fill="#404040">
                        <set attributeName="fill" to="#808080" begin="arrowRight.mouseover" end="arrowRight.mouseout"/>
                  </use>
                  <path fill="none" stroke="white" stroke-width="1.5" d="M0,-3.0v7 M-2.5,-0.5L0,-3.0L2.5,-0.5"/>
                </g>
                <g id="arrowDown" xlink:href="#dirArrow" transform="rotate(180) translate(-30 -48)" onmousedown="handlePan(0,1)">
                  <use xlink:href="#rim" fill="#404040">
                        <set attributeName="fill" to="#808080" begin="arrowDown.mouseover" end="arrowDown.mouseout"/>
                  </use>
                  <path fill="none" stroke="white" stroke-width="1.5" d="M0,-3.0v7 M-2.5,-0.5L0,-3.0L2.5,-0.5"/>
                </g>
                <g id="arrowLeft" xlink:href="#dirArrow" transform="rotate(270) translate(-36 17)" onmousedown="handlePan(-1,0)">
                  <use xlink:href="#rim" fill="#404040">
                        <set attributeName="fill" to="#808080" begin="arrowLeft.mouseover" end="arrowLeft.mouseout"/>
                  </use>
                  <path fill="none" stroke="white" stroke-width="1.5" d="M0,-3.0v7 M-2.5,-0.5L0,-3.0L2.5,-0.5"/>
                </g>
        </g>
        <svg viewBox="0 0 15 15" width="100%" height="30px" preserveAspectRatio="xMaxYMin meet">
         <g id="arrow_out" transform="scale(0.3 0.3)">
          <a xlink:href="quickjs_8c_a46d6ebdd8c73102fd9e02a89b1f1d09a_icgraph_org.svg" target="_base">
           <rect id="button" ry="5" rx="5" y="6" x="6" height="38" width="38"
                fill="#f2f5e9" fill-opacity="0.5" stroke="#606060" stroke-width="1.0"/>
           <path id="arrow"
             d="M 11.500037,31.436501 C 11.940474,20.09759 22.043105,11.32322 32.158766,21.979434 L 37.068811,17.246167 C 37.068811,17.246167 37.088388,32 37.088388,32 L 22.160133,31.978069 C 22.160133,31.978069 26.997745,27.140456 26.997745,27.140456 C 18.528582,18.264221 13.291696,25.230495 11.500037,31.436501 z"
             style="fill:#404040;"/>
          </a>
         </g>
        </svg>
</svg>
