<?xml version="1.0" encoding="UTF-8" standalone="no"?>
<!DOCTYPE svg PUBLIC "-//W3C//DTD SVG 1.1//EN"
 "http://www.w3.org/Graphics/SVG/1.1/DTD/svg11.dtd">
<!-- Generated by graphviz version 2.40.1 (20161225.0304)
 -->
<!-- Title: JS_NewContext Pages: 1 -->
<svg width="463pt" height="28pt"
 viewBox="0.00 0.00 463.00 28.00" xmlns="http://www.w3.org/2000/svg" xmlns:xlink="http://www.w3.org/1999/xlink">
<g id="graph0" class="graph" transform="scale(1 1) rotate(0) translate(4 24)">
<title>JS_NewContext</title>
<!-- Node3812 -->
<g id="node1" class="node">
<title>Node3812</title>
<polygon fill="#bfbfbf" stroke="#000000" points="0,-.5 0,-19.5 89,-19.5 89,-.5 0,-.5"/>
<text text-anchor="middle" x="44.5" y="-7.5" font-family="Helvetica,sans-Serif" font-size="10.00" fill="#000000">JS_NewContext</text>
</g>
<!-- Node3813 -->
<g id="node2" class="node">
<title>Node3813</title>
<g id="a_node2"><a xlink:href="classqjs_1_1Context.html#a4392a23648acfc4bf6b445336efb5007" target="_top" xlink:title="qjs::Context::Context">
<polygon fill="none" stroke="#000000" points="125,-.5 125,-19.5 235,-19.5 235,-.5 125,-.5"/>
<text text-anchor="middle" x="180" y="-7.5" font-family="Helvetica,sans-Serif" font-size="10.00" fill="#000000">qjs::Context::Context</text>
</a>
</g>
</g>
<!-- Node3812&#45;&gt;Node3813 -->
<g id="edge1" class="edge">
<title>Node3812&#45;&gt;Node3813</title>
<path fill="none" stroke="#191970" d="M99.3476,-10C107.7739,-10 116.4767,-10 124.9083,-10"/>
<polygon fill="#191970" stroke="#191970" points="99.2433,-6.5001 89.2433,-10 99.2433,-13.5001 99.2433,-6.5001"/>
</g>
<!-- Node3814 -->
<g id="node3" class="node">
<title>Node3814</title>
<g id="a_node3"><a xlink:href="classqjs_1_1Context.html#af725fb8083d8c33a37198d6acaf1a836" target="_top" xlink:title="qjs::Context::Context">
<polygon fill="none" stroke="#000000" points="271,-.5 271,-19.5 381,-19.5 381,-.5 271,-.5"/>
<text text-anchor="middle" x="326" y="-7.5" font-family="Helvetica,sans-Serif" font-size="10.00" fill="#000000">qjs::Context::Context</text>
</a>
</g>
</g>
<!-- Node3813&#45;&gt;Node3814 -->
<g id="edge2" class="edge">
<title>Node3813&#45;&gt;Node3814</title>
<path fill="none" stroke="#191970" d="M245.4101,-10C253.8647,-10 262.4567,-10 270.7256,-10"/>
<polygon fill="#191970" stroke="#191970" points="245.1964,-6.5001 235.1963,-10 245.1963,-13.5001 245.1964,-6.5001"/>
</g>
<!-- Node3815 -->
<g id="node4" class="node">
<title>Node3815</title>
<g id="a_node4"><a xlink:href="qjs_8cpp.html#a3c04138a5bfe5d72780bb7e82a18e627" target="_top" xlink:title="main">
<polygon fill="none" stroke="#000000" points="417,-.5 417,-19.5 455,-19.5 455,-.5 417,-.5"/>
<text text-anchor="middle" x="436" y="-7.5" font-family="Helvetica,sans-Serif" font-size="10.00" fill="#000000">main</text>
</a>
</g>
</g>
<!-- Node3814&#45;&gt;Node3815 -->
<g id="edge3" class="edge">
<title>Node3814&#45;&gt;Node3815</title>
<path fill="none" stroke="#191970" d="M391.4968,-10C400.772,-10 409.6336,-10 416.9729,-10"/>
<polygon fill="#191970" stroke="#191970" points="391.3223,-6.5001 381.3223,-10 391.3222,-13.5001 391.3223,-6.5001"/>
</g>
</g>
</svg>
