<?xml version="1.0" encoding="UTF-8" standalone="no"?>
<!DOCTYPE svg PUBLIC "-//W3C//DTD SVG 1.1//EN"
 "http://www.w3.org/Graphics/SVG/1.1/DTD/svg11.dtd">
<!-- Generated by graphviz version 2.40.1 (20161225.0304)
 -->
<!-- Title: JS_GetPrivateField Pages: 1 -->
<svg width="427pt" height="249pt"
 viewBox="0.00 0.00 427.00 248.50" xmlns="http://www.w3.org/2000/svg" xmlns:xlink="http://www.w3.org/1999/xlink">
<g id="graph0" class="graph" transform="scale(1 1) rotate(0) translate(4 244.5)">
<title>JS_GetPrivateField</title>
<!-- Node182326 -->
<g id="node1" class="node">
<title>Node182326</title>
<polygon fill="#bfbfbf" stroke="#000000" points="0,-107 0,-126 101,-126 101,-107 0,-107"/>
<text text-anchor="middle" x="50.5" y="-114" font-family="Helvetica,sans-Serif" font-size="10.00" fill="#000000">JS_GetPrivateField</text>
</g>
<!-- Node182327 -->
<g id="node2" class="node">
<title>Node182327</title>
<g id="a_node2"><a xlink:href="quickjs_8c.html#a06b76f5124fd985e35f4c652fd018d6d" target="_top" xlink:title="find_own_property">
<polygon fill="none" stroke="#000000" points="169,-202 169,-221 265,-221 265,-202 169,-202"/>
<text text-anchor="middle" x="217" y="-209" font-family="Helvetica,sans-Serif" font-size="10.00" fill="#000000">find_own_property</text>
</a>
</g>
</g>
<!-- Node182326&#45;&gt;Node182327 -->
<g id="edge1" class="edge">
<title>Node182326&#45;&gt;Node182327</title>
<path fill="none" stroke="#191970" d="M58.5003,-126.0858C72.6135,-142.3458 103.6136,-175.2447 137,-192.5 143.8659,-196.0485 151.4058,-198.946 159.0276,-201.3089"/>
<polygon fill="#191970" stroke="#191970" points="158.1069,-204.6857 168.6811,-204.025 160.0028,-197.9473 158.1069,-204.6857"/>
</g>
<!-- Node182330 -->
<g id="node5" class="node">
<title>Node182330</title>
<g id="a_node5"><a xlink:href="quickjs_8h.html#a775522f2d084fc8fa0fcb33f390006b4" target="_top" xlink:title="JS_DupValue">
<polygon fill="none" stroke="#000000" points="178.5,-164 178.5,-183 255.5,-183 255.5,-164 178.5,-164"/>
<text text-anchor="middle" x="217" y="-171" font-family="Helvetica,sans-Serif" font-size="10.00" fill="#000000">JS_DupValue</text>
</a>
</g>
</g>
<!-- Node182326&#45;&gt;Node182330 -->
<g id="edge4" class="edge">
<title>Node182326&#45;&gt;Node182330</title>
<path fill="none" stroke="#191970" d="M69.685,-126.1295C86.9563,-134.5061 113.2062,-146.5211 137,-154.5 147.0515,-157.8706 158.0037,-160.8846 168.4882,-163.4652"/>
<polygon fill="#191970" stroke="#191970" points="167.8146,-166.9025 178.3524,-165.8041 169.4297,-160.0913 167.8146,-166.9025"/>
</g>
<!-- Node182331 -->
<g id="node6" class="node">
<title>Node182331</title>
<g id="a_node6"><a xlink:href="quickjs_8c.html#a11498940707b6928b86da6844ef8f2a1" target="_top" xlink:title="js_symbol_to_atom">
<polygon fill="none" stroke="#000000" points="166.5,-126 166.5,-145 267.5,-145 267.5,-126 166.5,-126"/>
<text text-anchor="middle" x="217" y="-133" font-family="Helvetica,sans-Serif" font-size="10.00" fill="#000000">js_symbol_to_atom</text>
</a>
</g>
</g>
<!-- Node182326&#45;&gt;Node182331 -->
<g id="edge5" class="edge">
<title>Node182326&#45;&gt;Node182331</title>
<path fill="none" stroke="#191970" d="M101.3602,-122.3039C118.7088,-124.2836 138.2807,-126.517 156.3226,-128.5758"/>
<polygon fill="#191970" stroke="#191970" points="156.1189,-132.0752 166.4513,-129.7317 156.9126,-125.1204 156.1189,-132.0752"/>
</g>
<!-- Node182332 -->
<g id="node7" class="node">
<title>Node182332</title>
<g id="a_node7"><a xlink:href="quickjs_8c.html#a726b00d108e0a0f4d958c36c2e426a64" target="_top" xlink:title="JS_ThrowTypeErrorNotAnObject">
<polygon fill="none" stroke="#000000" points="137,-88 137,-107 297,-107 297,-88 137,-88"/>
<text text-anchor="middle" x="217" y="-95" font-family="Helvetica,sans-Serif" font-size="10.00" fill="#000000">JS_ThrowTypeErrorNotAnObject</text>
</a>
</g>
</g>
<!-- Node182326&#45;&gt;Node182332 -->
<g id="edge6" class="edge">
<title>Node182326&#45;&gt;Node182332</title>
<path fill="none" stroke="#191970" d="M101.3602,-110.6961C109.4024,-109.7784 117.9224,-108.8062 126.5463,-107.822"/>
<polygon fill="#191970" stroke="#191970" points="127.1566,-111.2752 136.6953,-106.6639 126.3629,-104.3203 127.1566,-111.2752"/>
</g>
<!-- Node182333 -->
<g id="node8" class="node">
<title>Node182333</title>
<g id="a_node8"><a xlink:href="quickjs_8c.html#abda92b710bb8f585930b1072d9d69917" target="_top" xlink:title="JS_ThrowTypeErrorNotASymbol">
<polygon fill="none" stroke="#000000" points="137.5,-50 137.5,-69 296.5,-69 296.5,-50 137.5,-50"/>
<text text-anchor="middle" x="217" y="-57" font-family="Helvetica,sans-Serif" font-size="10.00" fill="#000000">JS_ThrowTypeErrorNotASymbol</text>
</a>
</g>
</g>
<!-- Node182326&#45;&gt;Node182333 -->
<g id="edge7" class="edge">
<title>Node182326&#45;&gt;Node182333</title>
<path fill="none" stroke="#191970" d="M69.685,-106.8705C86.9563,-98.4939 113.2062,-86.4789 137,-78.5 144.6015,-75.9509 152.7182,-73.6058 160.7582,-71.4979"/>
<polygon fill="#191970" stroke="#191970" points="161.6455,-74.8838 170.4873,-69.0465 159.9352,-68.0959 161.6455,-74.8838"/>
</g>
<!-- Node182334 -->
<g id="node9" class="node">
<title>Node182334</title>
<g id="a_node9"><a xlink:href="quickjs_8c.html#a26cfb2f387fcd9d8046c1f7200607ea5" target="_top" xlink:title="JS_ThrowTypeErrorPrivate\lNotFound">
<polygon fill="none" stroke="#000000" points="150,-.5 150,-30.5 284,-30.5 284,-.5 150,-.5"/>
<text text-anchor="start" x="158" y="-18.5" font-family="Helvetica,sans-Serif" font-size="10.00" fill="#000000">JS_ThrowTypeErrorPrivate</text>
<text text-anchor="middle" x="217" y="-7.5" font-family="Helvetica,sans-Serif" font-size="10.00" fill="#000000">NotFound</text>
</a>
</g>
</g>
<!-- Node182326&#45;&gt;Node182334 -->
<g id="edge8" class="edge">
<title>Node182326&#45;&gt;Node182334</title>
<path fill="none" stroke="#191970" d="M58.8616,-106.9033C73.2766,-90.9228 104.4094,-58.8103 137,-40.5 140.8871,-38.3161 144.9898,-36.2969 149.2007,-34.4341"/>
<polygon fill="#191970" stroke="#191970" points="150.6243,-37.6333 158.5506,-30.6031 147.9702,-31.156 150.6243,-37.6333"/>
</g>
<!-- Node182328 -->
<g id="node3" class="node">
<title>Node182328</title>
<g id="a_node3"><a xlink:href="quickjs_8c.html#a643df594b75933007bcdbb071b5ea8c5" target="_top" xlink:title="get_shape_prop">
<polygon fill="none" stroke="#000000" points="333,-221 333,-240 419,-240 419,-221 333,-221"/>
<text text-anchor="middle" x="376" y="-228" font-family="Helvetica,sans-Serif" font-size="10.00" fill="#000000">get_shape_prop</text>
</a>
</g>
</g>
<!-- Node182327&#45;&gt;Node182328 -->
<g id="edge2" class="edge">
<title>Node182327&#45;&gt;Node182328</title>
<path fill="none" stroke="#191970" d="M265.1367,-217.2522C283.3371,-219.4271 304.1494,-221.9141 322.789,-224.1415"/>
<polygon fill="#191970" stroke="#191970" points="322.5457,-227.6372 332.8904,-225.3485 323.3764,-220.6867 322.5457,-227.6372"/>
</g>
<!-- Node182329 -->
<g id="node4" class="node">
<title>Node182329</title>
<g id="a_node4"><a xlink:href="quickjs_8c.html#acab22c2945c4d609e57a2484feb68a96" target="_top" xlink:title="prop_hash_end">
<polygon fill="none" stroke="#000000" points="334.5,-183 334.5,-202 417.5,-202 417.5,-183 334.5,-183"/>
<text text-anchor="middle" x="376" y="-190" font-family="Helvetica,sans-Serif" font-size="10.00" fill="#000000">prop_hash_end</text>
</a>
</g>
</g>
<!-- Node182327&#45;&gt;Node182329 -->
<g id="edge3" class="edge">
<title>Node182327&#45;&gt;Node182329</title>
<path fill="none" stroke="#191970" d="M265.1367,-205.7478C283.8863,-203.5073 305.4076,-200.9356 324.4701,-198.6577"/>
<polygon fill="#191970" stroke="#191970" points="324.9653,-202.1235 334.4793,-197.4616 324.1346,-195.1729 324.9653,-202.1235"/>
</g>
</g>
</svg>
