<?xml version="1.0" encoding="UTF-8" standalone="no"?>
<!DOCTYPE svg PUBLIC "-//W3C//DTD SVG 1.1//EN"
 "http://www.w3.org/Graphics/SVG/1.1/DTD/svg11.dtd">
<!-- Generated by graphviz version 2.40.1 (20161225.0304)
 -->
<!-- Title: JS_WriteString Pages: 1 -->
<svg width="542pt" height="161pt"
 viewBox="0.00 0.00 542.00 161.00" xmlns="http://www.w3.org/2000/svg" xmlns:xlink="http://www.w3.org/1999/xlink">
<g id="graph0" class="graph" transform="scale(1 1) rotate(0) translate(4 157)">
<title>JS_WriteString</title>
<!-- Node356045 -->
<g id="node1" class="node">
<title>Node356045</title>
<polygon fill="#bfbfbf" stroke="#000000" points="0,-76.5 0,-95.5 83,-95.5 83,-76.5 0,-76.5"/>
<text text-anchor="middle" x="41.5" y="-83.5" font-family="Helvetica,sans-Serif" font-size="10.00" fill="#000000">JS_WriteString</text>
</g>
<!-- Node356046 -->
<g id="node2" class="node">
<title>Node356046</title>
<g id="a_node2"><a xlink:href="quickjs_8c.html#a91942742587df191fbf0f17a2ede99ef" target="_top" xlink:title="JS_WriteObjectAtoms">
<polygon fill="none" stroke="#000000" points="119,-109.5 119,-128.5 233,-128.5 233,-109.5 119,-109.5"/>
<text text-anchor="middle" x="176" y="-116.5" font-family="Helvetica,sans-Serif" font-size="10.00" fill="#000000">JS_WriteObjectAtoms</text>
</a>
</g>
</g>
<!-- Node356045&#45;&gt;Node356046 -->
<g id="edge1" class="edge">
<title>Node356045&#45;&gt;Node356046</title>
<path fill="none" stroke="#191970" d="M90.3,-97.9732C105.7258,-101.758 122.5553,-105.8872 137.1845,-109.4765"/>
<polygon fill="#191970" stroke="#191970" points="90.949,-94.5287 80.403,-95.545 89.2809,-101.3271 90.949,-94.5287"/>
</g>
<!-- Node356050 -->
<g id="node6" class="node">
<title>Node356050</title>
<g id="a_node6"><a xlink:href="quickjs_8c.html#aa9342f7444c1c9f8743d43aa4d7f89e3" target="_top" xlink:title="JS_WriteObjectRec">
<polygon fill="none" stroke="#000000" points="124,-48.5 124,-67.5 228,-67.5 228,-48.5 124,-48.5"/>
<text text-anchor="middle" x="176" y="-55.5" font-family="Helvetica,sans-Serif" font-size="10.00" fill="#000000">JS_WriteObjectRec</text>
</a>
</g>
</g>
<!-- Node356045&#45;&gt;Node356050 -->
<g id="edge5" class="edge">
<title>Node356045&#45;&gt;Node356050</title>
<path fill="none" stroke="#191970" d="M93.2758,-75.2214C105.3703,-72.7036 118.1709,-70.0388 129.9949,-67.5773"/>
<polygon fill="#191970" stroke="#191970" points="92.3961,-71.8294 83.3194,-77.2941 93.8228,-78.6825 92.3961,-71.8294"/>
</g>
<!-- Node356047 -->
<g id="node3" class="node">
<title>Node356047</title>
<g id="a_node3"><a xlink:href="quickjs_8c.html#a431ceb41084feaa6af4e466b8b772ab1" target="_top" xlink:title="JS_WriteObject2">
<polygon fill="none" stroke="#000000" points="277,-114.5 277,-133.5 368,-133.5 368,-114.5 277,-114.5"/>
<text text-anchor="middle" x="322.5" y="-121.5" font-family="Helvetica,sans-Serif" font-size="10.00" fill="#000000">JS_WriteObject2</text>
</a>
</g>
</g>
<!-- Node356046&#45;&gt;Node356047 -->
<g id="edge2" class="edge">
<title>Node356046&#45;&gt;Node356047</title>
<path fill="none" stroke="#191970" d="M243.3434,-121.2984C254.6321,-121.6837 266.1092,-122.0754 276.6927,-122.4366"/>
<polygon fill="#191970" stroke="#191970" points="243.1738,-117.7907 233.0602,-120.9474 242.935,-124.7866 243.1738,-117.7907"/>
</g>
<!-- Node356048 -->
<g id="node4" class="node">
<title>Node356048</title>
<g id="a_node4"><a xlink:href="quickjs-libc_8c.html#ab995f33d3c307ae55a13a18b88023d15" target="_top" xlink:title="js_worker_postMessage">
<polygon fill="none" stroke="#000000" points="412,-133.5 412,-152.5 534,-152.5 534,-133.5 412,-133.5"/>
<text text-anchor="middle" x="473" y="-140.5" font-family="Helvetica,sans-Serif" font-size="10.00" fill="#000000">js_worker_postMessage</text>
</a>
</g>
</g>
<!-- Node356047&#45;&gt;Node356048 -->
<g id="edge3" class="edge">
<title>Node356047&#45;&gt;Node356048</title>
<path fill="none" stroke="#191970" d="M378.3026,-131.0448C389.2032,-132.421 400.6883,-133.8709 411.7545,-135.268"/>
<polygon fill="#191970" stroke="#191970" points="378.423,-127.5324 368.0634,-129.7522 377.5462,-134.4772 378.423,-127.5324"/>
</g>
<!-- Node356049 -->
<g id="node5" class="node">
<title>Node356049</title>
<g id="a_node5"><a xlink:href="quickjs_8c.html#a8c807d481615ed55818787ae89621a37" target="_top" xlink:title="JS_WriteObject">
<polygon fill="none" stroke="#000000" points="430,-95.5 430,-114.5 516,-114.5 516,-95.5 430,-95.5"/>
<text text-anchor="middle" x="473" y="-102.5" font-family="Helvetica,sans-Serif" font-size="10.00" fill="#000000">JS_WriteObject</text>
</a>
</g>
</g>
<!-- Node356047&#45;&gt;Node356049 -->
<g id="edge4" class="edge">
<title>Node356047&#45;&gt;Node356049</title>
<path fill="none" stroke="#191970" d="M378.4404,-116.9378C395.4545,-114.7898 413.881,-112.4635 429.9097,-110.44"/>
<polygon fill="#191970" stroke="#191970" points="377.5462,-113.5228 368.0634,-118.2478 378.423,-120.4676 377.5462,-113.5228"/>
</g>
<!-- Node356050&#45;&gt;Node356047 -->
<g id="edge13" class="edge">
<title>Node356050&#45;&gt;Node356047</title>
<path fill="none" stroke="#191970" d="M202.1132,-72.3168C220.5245,-82.1323 245.9168,-95.1154 269,-105 276.7922,-108.3368 285.3868,-111.5759 293.3651,-114.4064"/>
<polygon fill="#191970" stroke="#191970" points="203.6356,-69.1615 193.1709,-67.5058 200.3191,-75.326 203.6356,-69.1615"/>
</g>
<!-- Node356050&#45;&gt;Node356050 -->
<g id="edge12" class="edge">
<title>Node356050&#45;&gt;Node356050</title>
<path fill="none" stroke="#191970" d="M151.0745,-77.0292C152.4341,-82.128 160.7426,-86 176,-86 199.8164,-86 206.7008,-76.5653 196.6533,-67.7571"/>
<polygon fill="#191970" stroke="#191970" points="154.3407,-78.304 155.3467,-67.7571 147.9831,-75.3747 154.3407,-78.304"/>
</g>
<!-- Node356051 -->
<g id="node7" class="node">
<title>Node356051</title>
<g id="a_node7"><a xlink:href="quickjs_8c.html#aba35628e2e963dca8fa201e6708046d6" target="_top" xlink:title="JS_WriteArray">
<polygon fill="none" stroke="#000000" points="282.5,-76.5 282.5,-95.5 362.5,-95.5 362.5,-76.5 282.5,-76.5"/>
<text text-anchor="middle" x="322.5" y="-83.5" font-family="Helvetica,sans-Serif" font-size="10.00" fill="#000000">JS_WriteArray</text>
</a>
</g>
</g>
<!-- Node356050&#45;&gt;Node356051 -->
<g id="edge6" class="edge">
<title>Node356050&#45;&gt;Node356051</title>
<path fill="none" stroke="#191970" d="M238.2084,-63.2083C259.8353,-67.0711 282.7765,-71.9858 299.2563,-76.4663"/>
<polygon fill="#191970" stroke="#191970" points="238.5124,-59.7091 228.0629,-61.4581 237.3223,-66.6072 238.5124,-59.7091"/>
</g>
<!-- Node356052 -->
<g id="node8" class="node">
<title>Node356052</title>
<g id="a_node8"><a xlink:href="quickjs_8c.html#a3da261d6aeb1d35f3fb47a0076752a57" target="_top" xlink:title="JS_WriteObjectTag">
<polygon fill="none" stroke="#000000" points="271.5,-38.5 271.5,-57.5 373.5,-57.5 373.5,-38.5 271.5,-38.5"/>
<text text-anchor="middle" x="322.5" y="-45.5" font-family="Helvetica,sans-Serif" font-size="10.00" fill="#000000">JS_WriteObjectTag</text>
</a>
</g>
</g>
<!-- Node356050&#45;&gt;Node356052 -->
<g id="edge8" class="edge">
<title>Node356050&#45;&gt;Node356052</title>
<path fill="none" stroke="#191970" d="M232.7722,-47.5289C245.4869,-46.4194 258.9003,-45.5462 271.3699,-45.0214"/>
<polygon fill="#191970" stroke="#191970" points="232.3862,-44.0497 222.7563,-48.4672 233.0392,-51.0191 232.3862,-44.0497"/>
</g>
<!-- Node356053 -->
<g id="node9" class="node">
<title>Node356053</title>
<g id="a_node9"><a xlink:href="quickjs_8c.html#ab24f0a3286c69433ab7e48dcc39c36cb" target="_top" xlink:title="JS_WriteTypedArray">
<polygon fill="none" stroke="#000000" points="269,-.5 269,-19.5 376,-19.5 376,-.5 269,-.5"/>
<text text-anchor="middle" x="322.5" y="-7.5" font-family="Helvetica,sans-Serif" font-size="10.00" fill="#000000">JS_WriteTypedArray</text>
</a>
</g>
</g>
<!-- Node356050&#45;&gt;Node356053 -->
<g id="edge10" class="edge">
<title>Node356050&#45;&gt;Node356053</title>
<path fill="none" stroke="#191970" d="M200.9865,-44.5861C220.9253,-36.5507 249.4615,-26.8103 273.8703,-19.5343"/>
<polygon fill="#191970" stroke="#191970" points="199.5444,-41.3955 191.6781,-48.4928 202.2534,-47.8501 199.5444,-41.3955"/>
</g>
<!-- Node356051&#45;&gt;Node356050 -->
<g id="edge7" class="edge">
<title>Node356051&#45;&gt;Node356050</title>
<path fill="none" stroke="#191970" d="M272.2715,-82.8445C247.4856,-78.7859 218.785,-72.8485 199.2134,-67.5254"/>
<polygon fill="#191970" stroke="#191970" points="271.8382,-86.3193 282.2593,-84.4086 272.9212,-79.4035 271.8382,-86.3193"/>
</g>
<!-- Node356052&#45;&gt;Node356050 -->
<g id="edge9" class="edge">
<title>Node356052&#45;&gt;Node356050</title>
<path fill="none" stroke="#191970" d="M265.7396,-58.4701C253.3378,-59.5524 240.2708,-60.41 228.0629,-60.9387"/>
<polygon fill="#191970" stroke="#191970" points="266.338,-61.9294 275.9672,-57.5103 265.6839,-54.96 266.338,-61.9294"/>
</g>
<!-- Node356053&#45;&gt;Node356050 -->
<g id="edge11" class="edge">
<title>Node356053&#45;&gt;Node356050</title>
<path fill="none" stroke="#191970" d="M297.4582,-23.4362C277.5636,-31.4506 249.1348,-41.1558 224.7824,-48.4202"/>
<polygon fill="#191970" stroke="#191970" points="298.8823,-26.6343 306.7502,-19.5388 296.1748,-20.1791 298.8823,-26.6343"/>
</g>
</g>
</svg>
