<?xml version="1.0" encoding="UTF-8" standalone="no"?>
<!DOCTYPE svg PUBLIC "-//W3C//DTD SVG 1.1//EN"
 "http://www.w3.org/Graphics/SVG/1.1/DTD/svg11.dtd">
<!-- Generated by graphviz version 2.40.1 (20161225.0304)
 -->
<!-- Title: convert_fast_array_to_array Pages: 1 -->
<!--zoomable 501 -->
<svg id="main" version="1.1" xmlns="http://www.w3.org/2000/svg" xmlns:xlink="http://www.w3.org/1999/xlink" xml:space="preserve" onload="init(evt)">
<style type="text/css"><![CDATA[
.edge:hover path { stroke: red; }
.edge:hover polygon { stroke: red; fill: red; }
]]></style>
<script type="text/javascript"><![CDATA[
var edges = document.getElementsByTagName('g');
if (edges && edges.length) {
  for (var i=0;i<edges.length;i++) {
    if (edges[i].id.substr(0,4)=='edge') {
      edges[i].setAttribute('class','edge');
    }
  }
}
]]></script>
        <defs>
                <circle id="rim" cx="0" cy="0" r="7"/>
                <circle id="rim2" cx="0" cy="0" r="3.5"/>
                <g id="zoomPlus">
                        <use xlink:href="#rim" fill="#404040">
                                <set attributeName="fill" to="#808080" begin="zoomplus.mouseover" end="zoomplus.mouseout"/>
                        </use>
                        <path d="M-4,0h8M0,-4v8" fill="none" stroke="white" stroke-width="1.5" pointer-events="none"/>
                </g>
                <g id="zoomMin">
                        <use xlink:href="#rim" fill="#404040">
                                <set attributeName="fill" to="#808080" begin="zoomminus.mouseover" end="zoomminus.mouseout"/>
                        </use>
                        <path d="M-4,0h8" fill="none" stroke="white" stroke-width="1.5" pointer-events="none"/>
                </g>
                <g id="dirArrow">
                        <path fill="none" stroke="white" stroke-width="1.5" d="M0,-3.0v7 M-2.5,-0.5L0,-3.0L2.5,-0.5"/>
                </g>
               <g id="resetDef">
                       <use xlink:href="#rim2" fill="#404040">
                               <set attributeName="fill" to="#808080" begin="reset.mouseover" end="reset.mouseout"/>
                       </use>
               </g>
        </defs>

<script type="text/javascript">
var viewWidth = 859;
var viewHeight = 501;
var sectionId = 'dynsection-583';
</script>
<script xlink:href="svgpan.js"/>
<svg id="graph" class="graph">
<g id="viewport">
<title>convert_fast_array_to_array</title>
<!-- Node195023 -->
<g id="node1" class="node">
<title>Node195023</title>
<polygon fill="#bfbfbf" stroke="#000000" points="0,-300.6314 0,-330.6314 98,-330.6314 98,-300.6314 0,-300.6314"/>
<text text-anchor="start" x="8" y="-318.6314" font-family="Helvetica,sans-Serif" font-size="10.00" fill="#000000">convert_fast_array</text>
<text text-anchor="middle" x="49" y="-307.6314" font-family="Helvetica,sans-Serif" font-size="10.00" fill="#000000">_to_array</text>
</g>
<!-- Node195024 -->
<g id="node2" class="node">
<title>Node195024</title>
<g id="a_node2"><a xlink:href="quickjs_8c.html#a877fcb7651d95b411ce70e62b7f4a1f0" target="_top" xlink:title="__JS_AtomFromUInt32">
<polygon fill="none" stroke="#000000" points="138.5,-410.1314 138.5,-429.1314 257.5,-429.1314 257.5,-410.1314 138.5,-410.1314"/>
<text text-anchor="middle" x="198" y="-417.1314" font-family="Helvetica,sans-Serif" font-size="10.00" fill="#000000">__JS_AtomFromUInt32</text>
</a>
</g>
</g>
<!-- Node195023&#45;&gt;Node195024 -->
<g id="edge1" class="edge">
<title>Node195023&#45;&gt;Node195024</title>
<path fill="none" stroke="#191970" d="M60.2282,-330.8183C75.066,-349.8374 102.9774,-382.1621 134,-400.6314 137.6413,-402.7992 141.5479,-404.7354 145.5699,-406.4619"/>
<polygon fill="#191970" stroke="#191970" points="144.503,-409.8013 155.0931,-410.12 147.0132,-403.2669 144.503,-409.8013"/>
</g>
<!-- Node195025 -->
<g id="node3" class="node">
<title>Node195025</title>
<g id="a_node3"><a xlink:href="quickjs_8c.html#a74547db03bf739a52c83a326b32db997" target="_top" xlink:title="add_property">
<polygon fill="none" stroke="#000000" points="161.5,-306.1314 161.5,-325.1314 234.5,-325.1314 234.5,-306.1314 161.5,-306.1314"/>
<text text-anchor="middle" x="198" y="-313.1314" font-family="Helvetica,sans-Serif" font-size="10.00" fill="#000000">add_property</text>
</a>
</g>
</g>
<!-- Node195023&#45;&gt;Node195025 -->
<g id="edge2" class="edge">
<title>Node195023&#45;&gt;Node195025</title>
<path fill="none" stroke="#191970" d="M98.2011,-315.6314C115.1888,-315.6314 134.168,-315.6314 150.9769,-315.6314"/>
<polygon fill="#191970" stroke="#191970" points="151.1252,-319.1315 161.1252,-315.6314 151.1252,-312.1315 151.1252,-319.1315"/>
</g>
<!-- Node195035 -->
<g id="node12" class="node">
<title>Node195035</title>
<g id="a_node12"><a xlink:href="quickjs_8c.html#aa80740ff93b724ea7e0c280826f4a25a" target="_top" xlink:title="resize_properties">
<polygon fill="none" stroke="#ff0000" points="473,-135.1314 473,-154.1314 564,-154.1314 564,-135.1314 473,-135.1314"/>
<text text-anchor="middle" x="518.5" y="-142.1314" font-family="Helvetica,sans-Serif" font-size="10.00" fill="#000000">resize_properties</text>
</a>
</g>
</g>
<!-- Node195023&#45;&gt;Node195035 -->
<g id="edge46" class="edge">
<title>Node195023&#45;&gt;Node195035</title>
<path fill="none" stroke="#191970" d="M68.2967,-300.5885C108.4478,-270.1877 205.0016,-201.6926 298,-170.6314 352.1008,-152.5619 417.3298,-146.6947 462.7468,-144.9606"/>
<polygon fill="#191970" stroke="#191970" points="463.1041,-148.4509 472.9847,-144.6267 462.8759,-141.4546 463.1041,-148.4509"/>
</g>
<!-- Node195039 -->
<g id="node16" class="node">
<title>Node195039</title>
<g id="a_node16"><a xlink:href="quickjs_8c.html#a80e54dcf9ac687d4ccc2f90273565f30" target="_top" xlink:title="js_free">
<polygon fill="none" stroke="#ff0000" points="647.5,-21.1314 647.5,-40.1314 693.5,-40.1314 693.5,-21.1314 647.5,-21.1314"/>
<text text-anchor="middle" x="670.5" y="-28.1314" font-family="Helvetica,sans-Serif" font-size="10.00" fill="#000000">js_free</text>
</a>
</g>
</g>
<!-- Node195023&#45;&gt;Node195039 -->
<g id="edge40" class="edge">
<title>Node195023&#45;&gt;Node195039</title>
<path fill="none" stroke="#191970" d="M54.2506,-300.3799C64.7725,-272.1274 91.1701,-211.6233 134,-179.6314 294.5656,-59.6965 546.9318,-36.2975 637.1,-31.7353"/>
<polygon fill="#191970" stroke="#191970" points="637.4464,-35.2231 647.2749,-31.2671 637.1246,-28.2305 637.4464,-35.2231"/>
</g>
<!-- Node195083 -->
<g id="node26" class="node">
<title>Node195083</title>
<g id="a_node26"><a xlink:href="quickjs_8c.html#a3dd8e78607dbc729614deacf55901b95" target="_top" xlink:title="js_shape_prepare_update">
<polygon fill="none" stroke="#000000" points="134,-372.1314 134,-391.1314 262,-391.1314 262,-372.1314 134,-372.1314"/>
<text text-anchor="middle" x="198" y="-379.1314" font-family="Helvetica,sans-Serif" font-size="10.00" fill="#000000">js_shape_prepare_update</text>
</a>
</g>
</g>
<!-- Node195023&#45;&gt;Node195083 -->
<g id="edge41" class="edge">
<title>Node195023&#45;&gt;Node195083</title>
<path fill="none" stroke="#191970" d="M83.1836,-330.7731C108.5173,-341.9947 142.7515,-357.1589 167.2326,-368.0029"/>
<polygon fill="#191970" stroke="#191970" points="165.8617,-371.2236 176.4224,-372.0735 168.6968,-364.8234 165.8617,-371.2236"/>
</g>
<!-- Node195026 -->
<g id="node4" class="node">
<title>Node195026</title>
<g id="a_node4"><a xlink:href="quickjs_8c.html#a3cadcaa2bd1e3f9359f1c006f396cfa0" target="_top" xlink:title="add_shape_property">
<polygon fill="none" stroke="#000000" points="308.5,-287.1314 308.5,-306.1314 412.5,-306.1314 412.5,-287.1314 308.5,-287.1314"/>
<text text-anchor="middle" x="360.5" y="-294.1314" font-family="Helvetica,sans-Serif" font-size="10.00" fill="#000000">add_shape_property</text>
</a>
</g>
</g>
<!-- Node195025&#45;&gt;Node195026 -->
<g id="edge3" class="edge">
<title>Node195025&#45;&gt;Node195026</title>
<path fill="none" stroke="#191970" d="M234.8738,-311.32C253.6283,-309.1272 276.9333,-306.4023 298.3589,-303.8971"/>
<polygon fill="#191970" stroke="#191970" points="298.8456,-307.3641 308.3715,-302.7264 298.0327,-300.4115 298.8456,-307.3641"/>
</g>
<!-- Node195031 -->
<g id="node8" class="node">
<title>Node195031</title>
<g id="a_node8"><a xlink:href="quickjs_8c.html#a82dbe63adeac7849406fd48d96f39f7b" target="_top" xlink:title="js_shape_hash_link">
<polygon fill="none" stroke="#000000" points="467.5,-287.1314 467.5,-306.1314 569.5,-306.1314 569.5,-287.1314 467.5,-287.1314"/>
<text text-anchor="middle" x="518.5" y="-294.1314" font-family="Helvetica,sans-Serif" font-size="10.00" fill="#000000">js_shape_hash_link</text>
</a>
</g>
</g>
<!-- Node195025&#45;&gt;Node195031 -->
<g id="edge39" class="edge">
<title>Node195025&#45;&gt;Node195031</title>
<path fill="none" stroke="#191970" d="M234.7418,-317.8355C279.378,-320.0055 356.9136,-322.1416 423,-315.6314 438.3093,-314.1233 454.8018,-311.2865 469.7019,-308.2563"/>
<polygon fill="#191970" stroke="#191970" points="470.6665,-311.6299 479.7289,-306.1415 469.2218,-304.7806 470.6665,-311.6299"/>
</g>
<!-- Node195051 -->
<g id="node19" class="node">
<title>Node195051</title>
<g id="a_node19"><a xlink:href="quickjs_8c.html#ac0c5dbb01d6082796c44b1c7f7c170f1" target="_top" xlink:title="find_hashed_shape_prop">
<polygon fill="none" stroke="#000000" points="298,-363.1314 298,-382.1314 423,-382.1314 423,-363.1314 298,-363.1314"/>
<text text-anchor="middle" x="360.5" y="-370.1314" font-family="Helvetica,sans-Serif" font-size="10.00" fill="#000000">find_hashed_shape_prop</text>
</a>
</g>
</g>
<!-- Node195025&#45;&gt;Node195051 -->
<g id="edge21" class="edge">
<title>Node195025&#45;&gt;Node195051</title>
<path fill="none" stroke="#191970" d="M225.1988,-325.1719C252.1489,-334.6252 293.619,-349.1716 323.5441,-359.6684"/>
<polygon fill="#191970" stroke="#191970" points="322.6176,-363.0524 333.2124,-363.0597 324.9346,-356.447 322.6176,-363.0524"/>
</g>
<!-- Node195052 -->
<g id="node20" class="node">
<title>Node195052</title>
<g id="a_node20"><a xlink:href="quickjs_8c.html#a8e34657169da77ae6a386311351ed3de" target="_top" xlink:title="js_clone_shape">
<polygon fill="none" stroke="#000000" points="476.5,-173.1314 476.5,-192.1314 560.5,-192.1314 560.5,-173.1314 476.5,-173.1314"/>
<text text-anchor="middle" x="518.5" y="-180.1314" font-family="Helvetica,sans-Serif" font-size="10.00" fill="#000000">js_clone_shape</text>
</a>
</g>
</g>
<!-- Node195025&#45;&gt;Node195052 -->
<g id="edge24" class="edge">
<title>Node195025&#45;&gt;Node195052</title>
<path fill="none" stroke="#191970" d="M202.9517,-306.098C215.3738,-283.3038 250.3108,-225.7564 298,-201.6314 350.5937,-175.0253 419.3295,-173.4826 465.9784,-176.5197"/>
<polygon fill="#191970" stroke="#191970" points="465.9346,-180.026 476.167,-177.2785 466.4546,-173.0454 465.9346,-180.026"/>
</g>
<!-- Node195055 -->
<g id="node23" class="node">
<title>Node195055</title>
<g id="a_node23"><a xlink:href="quickjs_8c.html#aed229eb80b3b03a2275471dee93c69d6" target="_top" xlink:title="js_dup_shape">
<polygon fill="none" stroke="#000000" points="322,-211.1314 322,-230.1314 399,-230.1314 399,-211.1314 322,-211.1314"/>
<text text-anchor="middle" x="360.5" y="-218.1314" font-family="Helvetica,sans-Serif" font-size="10.00" fill="#000000">js_dup_shape</text>
</a>
</g>
</g>
<!-- Node195025&#45;&gt;Node195055 -->
<g id="edge33" class="edge">
<title>Node195025&#45;&gt;Node195055</title>
<path fill="none" stroke="#191970" d="M209.3792,-306.0943C227.314,-291.4103 263.6577,-263.0385 298,-244.6314 305.4288,-240.6496 313.6639,-236.9979 321.6524,-233.8088"/>
<polygon fill="#191970" stroke="#191970" points="323.113,-236.9975 331.2036,-230.157 320.6131,-230.4591 323.113,-236.9975"/>
</g>
<!-- Node195056 -->
<g id="node24" class="node">
<title>Node195056</title>
<g id="a_node24"><a xlink:href="quickjs_8c.html#a3a9f27520d96cf58aa5bd7359e9cddee" target="_top" xlink:title="js_free_shape">
<polygon fill="none" stroke="#000000" points="322,-401.1314 322,-420.1314 399,-420.1314 399,-401.1314 322,-401.1314"/>
<text text-anchor="middle" x="360.5" y="-408.1314" font-family="Helvetica,sans-Serif" font-size="10.00" fill="#000000">js_free_shape</text>
</a>
</g>
</g>
<!-- Node195025&#45;&gt;Node195056 -->
<g id="edge34" class="edge">
<title>Node195025&#45;&gt;Node195056</title>
<path fill="none" stroke="#191970" d="M211.3665,-325.182C224.404,-334.5595 244.7369,-349.35 262,-362.6314 278.284,-375.1595 279.8393,-382.0234 298,-391.6314 302.5204,-394.023 307.3876,-396.1615 312.339,-398.062"/>
<polygon fill="#191970" stroke="#191970" points="311.3011,-401.4071 321.8959,-401.4272 313.6261,-394.8045 311.3011,-401.4071"/>
</g>
<!-- Node195027 -->
<g id="node5" class="node">
<title>Node195027</title>
<g id="a_node5"><a xlink:href="quickjs_8c.html#a288254c06a39c9fca740a7abdad2834e" target="_top" xlink:title="__JS_AtomIsTaggedInt">
<polygon fill="none" stroke="#000000" points="459,-211.1314 459,-230.1314 578,-230.1314 578,-211.1314 459,-211.1314"/>
<text text-anchor="middle" x="518.5" y="-218.1314" font-family="Helvetica,sans-Serif" font-size="10.00" fill="#000000">__JS_AtomIsTaggedInt</text>
</a>
</g>
</g>
<!-- Node195026&#45;&gt;Node195027 -->
<g id="edge4" class="edge">
<title>Node195026&#45;&gt;Node195027</title>
<path fill="none" stroke="#191970" d="M390.5641,-287.1212C401.1268,-283.2563 412.8778,-278.3445 423,-272.6314 440.6522,-262.6683 441.4319,-254.7421 459,-244.6314 465.7034,-240.7735 473.1479,-237.2427 480.4382,-234.1454"/>
<polygon fill="#191970" stroke="#191970" points="482.2397,-237.1924 490.1999,-230.2005 479.6169,-230.7023 482.2397,-237.1924"/>
</g>
<!-- Node195028 -->
<g id="node6" class="node">
<title>Node195028</title>
<g id="a_node6"><a xlink:href="quickjs_8c.html#a643df594b75933007bcdbb071b5ea8c5" target="_top" xlink:title="get_shape_prop">
<polygon fill="none" stroke="#000000" points="627.5,-401.1314 627.5,-420.1314 713.5,-420.1314 713.5,-401.1314 627.5,-401.1314"/>
<text text-anchor="middle" x="670.5" y="-408.1314" font-family="Helvetica,sans-Serif" font-size="10.00" fill="#000000">get_shape_prop</text>
</a>
</g>
</g>
<!-- Node195026&#45;&gt;Node195028 -->
<g id="edge5" class="edge">
<title>Node195026&#45;&gt;Node195028</title>
<path fill="none" stroke="#191970" d="M407.7825,-306.2304C462.5138,-317.8249 548.8677,-337.7494 578,-353.6314 597.0571,-364.0207 595.7478,-374.8855 614,-386.6314 619.9611,-390.4675 626.6388,-393.9305 633.2583,-396.9551"/>
<polygon fill="#191970" stroke="#191970" points="632.2552,-400.3335 642.8247,-401.0655 635.0186,-393.902 632.2552,-400.3335"/>
</g>
<!-- Node195029 -->
<g id="node7" class="node">
<title>Node195029</title>
<g id="a_node7"><a xlink:href="quickjs_8c.html#abbf44eaeace1104a6bef718fbf5700fe" target="_top" xlink:title="JS_DupAtom">
<polygon fill="none" stroke="#ff0000" points="633,-325.1314 633,-344.1314 708,-344.1314 708,-325.1314 633,-325.1314"/>
<text text-anchor="middle" x="670.5" y="-332.1314" font-family="Helvetica,sans-Serif" font-size="10.00" fill="#000000">JS_DupAtom</text>
</a>
</g>
</g>
<!-- Node195026&#45;&gt;Node195029 -->
<g id="edge6" class="edge">
<title>Node195026&#45;&gt;Node195029</title>
<path fill="none" stroke="#191970" d="M385.1938,-287.1307C426.8454,-272.6719 512.887,-249.6242 578,-277.6314 599.3713,-286.8239 594.3937,-303.1083 614,-315.6314 617.1507,-317.6438 620.5372,-319.4666 624.0303,-321.1132"/>
<polygon fill="#191970" stroke="#191970" points="622.862,-324.4188 633.4369,-325.0697 625.576,-317.9663 622.862,-324.4188"/>
</g>
<!-- Node195026&#45;&gt;Node195031 -->
<g id="edge7" class="edge">
<title>Node195026&#45;&gt;Node195031</title>
<path fill="none" stroke="#191970" d="M412.673,-296.6314C426.9874,-296.6314 442.6353,-296.6314 457.4023,-296.6314"/>
<polygon fill="#191970" stroke="#191970" points="457.4576,-300.1315 467.4576,-296.6314 457.4576,-293.1315 457.4576,-300.1315"/>
</g>
<!-- Node195033 -->
<g id="node10" class="node">
<title>Node195033</title>
<g id="a_node10"><a xlink:href="quickjs_8c.html#ae5e76f4be6214208cc91f10a192fc810" target="_top" xlink:title="js_shape_hash_unlink">
<polygon fill="none" stroke="#000000" points="614,-439.1314 614,-458.1314 727,-458.1314 727,-439.1314 614,-439.1314"/>
<text text-anchor="middle" x="670.5" y="-446.1314" font-family="Helvetica,sans-Serif" font-size="10.00" fill="#000000">js_shape_hash_unlink</text>
</a>
</g>
</g>
<!-- Node195026&#45;&gt;Node195033 -->
<g id="edge9" class="edge">
<title>Node195026&#45;&gt;Node195033</title>
<path fill="none" stroke="#191970" d="M373.8691,-306.3067C387.5818,-316.7596 408.8519,-334.5049 423,-353.6314 445.227,-383.6797 428.3439,-408.2505 459,-429.6314 500.6593,-458.6864 558.7334,-461.9717 603.4897,-458.8089"/>
<polygon fill="#191970" stroke="#191970" points="604.0161,-462.2773 613.6921,-457.9615 603.4367,-455.3013 604.0161,-462.2773"/>
</g>
<!-- Node195034 -->
<g id="node11" class="node">
<title>Node195034</title>
<g id="a_node11"><a xlink:href="quickjs_8c.html#acab22c2945c4d609e57a2484feb68a96" target="_top" xlink:title="prop_hash_end">
<polygon fill="none" stroke="#000000" points="765.5,-59.1314 765.5,-78.1314 848.5,-78.1314 848.5,-59.1314 765.5,-59.1314"/>
<text text-anchor="middle" x="807" y="-66.1314" font-family="Helvetica,sans-Serif" font-size="10.00" fill="#000000">prop_hash_end</text>
</a>
</g>
</g>
<!-- Node195026&#45;&gt;Node195034 -->
<g id="edge11" class="edge">
<title>Node195026&#45;&gt;Node195034</title>
<path fill="none" stroke="#191970" d="M374.9376,-286.9491C389.0965,-276.7465 410.3474,-259.4307 423,-239.6314 451.6112,-194.8596 428.0732,-168.8361 459,-125.6314 508.7751,-56.0956 532.7479,-38.2938 614,-11.6314 661.7188,4.0272 679.1645,3.667 727,-11.6314 751.6694,-19.521 775.2248,-38.1111 790.3053,-51.9285"/>
<polygon fill="#191970" stroke="#191970" points="788.1042,-54.6651 797.7647,-59.0155 792.9257,-49.5903 788.1042,-54.6651"/>
</g>
<!-- Node195026&#45;&gt;Node195035 -->
<g id="edge12" class="edge">
<title>Node195026&#45;&gt;Node195035</title>
<path fill="none" stroke="#191970" d="M373.8691,-286.9561C387.5818,-276.5032 408.8519,-258.7579 423,-239.6314 445.227,-209.5831 430.8702,-188.2414 459,-163.6314 460.9281,-161.9446 463.0071,-160.4072 465.1926,-159.0062"/>
<polygon fill="#191970" stroke="#191970" points="466.9002,-162.0621 474.0572,-154.2501 463.5907,-155.8938 466.9002,-162.0621"/>
</g>
<!-- Node195050 -->
<g id="node18" class="node">
<title>Node195050</title>
<g id="a_node18"><a xlink:href="quickjs_8c.html#a11f047846c1027dc6066a5f1b2ef292a" target="_top" xlink:title="shape_hash">
<polygon fill="none" stroke="#000000" points="484,-363.1314 484,-382.1314 553,-382.1314 553,-363.1314 484,-363.1314"/>
<text text-anchor="middle" x="518.5" y="-370.1314" font-family="Helvetica,sans-Serif" font-size="10.00" fill="#000000">shape_hash</text>
</a>
</g>
</g>
<!-- Node195026&#45;&gt;Node195050 -->
<g id="edge20" class="edge">
<title>Node195026&#45;&gt;Node195050</title>
<path fill="none" stroke="#191970" d="M377.3167,-306.1864C396.7161,-317.0491 429.7082,-335.0353 459,-348.6314 466.9153,-352.3053 475.5583,-355.9783 483.7425,-359.3068"/>
<polygon fill="#191970" stroke="#191970" points="482.4833,-362.5727 493.068,-363.0354 485.0821,-356.073 482.4833,-362.5727"/>
</g>
<!-- Node195032 -->
<g id="node9" class="node">
<title>Node195032</title>
<g id="a_node9"><a xlink:href="quickjs_8c.html#a8291bf195606b5d1b0faed795b6dc3ff" target="_top" xlink:title="get_shape_hash">
<polygon fill="none" stroke="#000000" points="763,-439.1314 763,-458.1314 851,-458.1314 851,-439.1314 763,-439.1314"/>
<text text-anchor="middle" x="807" y="-446.1314" font-family="Helvetica,sans-Serif" font-size="10.00" fill="#000000">get_shape_hash</text>
</a>
</g>
</g>
<!-- Node195031&#45;&gt;Node195032 -->
<g id="edge8" class="edge">
<title>Node195031&#45;&gt;Node195032</title>
<path fill="none" stroke="#191970" d="M560.3889,-306.1992C566.5344,-308.4733 572.6037,-311.2514 578,-314.6314 597.9913,-327.153 594.2028,-340.805 614,-353.6314 658.4685,-382.4421 679.8011,-367.5529 727,-391.6314 749.3025,-403.009 772.3355,-420.0833 787.9262,-432.5785"/>
<polygon fill="#191970" stroke="#191970" points="785.8108,-435.3697 795.7702,-438.9838 790.2384,-429.9478 785.8108,-435.3697"/>
</g>
<!-- Node195033&#45;&gt;Node195032 -->
<g id="edge10" class="edge">
<title>Node195033&#45;&gt;Node195032</title>
<path fill="none" stroke="#191970" d="M727.2024,-448.6314C735.6386,-448.6314 744.3172,-448.6314 752.7023,-448.6314"/>
<polygon fill="#191970" stroke="#191970" points="752.7487,-452.1315 762.7487,-448.6314 752.7486,-445.1315 752.7487,-452.1315"/>
</g>
<!-- Node195035&#45;&gt;Node195034 -->
<g id="edge19" class="edge">
<title>Node195035&#45;&gt;Node195034</title>
<path fill="none" stroke="#191970" d="M530.6029,-134.9752C547.9367,-121.7393 581.3553,-98.3814 614,-87.6314 660.0894,-72.4541 715.4537,-68.3438 755.0425,-67.6499"/>
<polygon fill="#191970" stroke="#191970" points="755.298,-71.1474 765.2598,-67.5403 755.2228,-64.1478 755.298,-71.1474"/>
</g>
<!-- Node195036 -->
<g id="node13" class="node">
<title>Node195036</title>
<g id="a_node13"><a xlink:href="quickjs_8c.html#a7da0cfa6f27af0e1b9599d7f359edbe2" target="_top" xlink:title="get_alloc_from_shape">
<polygon fill="none" stroke="#000000" points="614.5,-287.1314 614.5,-306.1314 726.5,-306.1314 726.5,-287.1314 614.5,-287.1314"/>
<text text-anchor="middle" x="670.5" y="-294.1314" font-family="Helvetica,sans-Serif" font-size="10.00" fill="#000000">get_alloc_from_shape</text>
</a>
</g>
</g>
<!-- Node195035&#45;&gt;Node195036 -->
<g id="edge13" class="edge">
<title>Node195035&#45;&gt;Node195036</title>
<path fill="none" stroke="#191970" d="M564.0489,-153.9901C569.2007,-156.4827 574.0192,-159.6378 578,-163.6314 615.5102,-201.2624 576.7789,-239.7144 614,-277.6314 615.4409,-279.0992 616.9985,-280.4536 618.6462,-281.7034"/>
<polygon fill="#191970" stroke="#191970" points="617.1526,-284.8925 627.5105,-287.121 620.8031,-278.9196 617.1526,-284.8925"/>
</g>
<!-- Node195037 -->
<g id="node14" class="node">
<title>Node195037</title>
<g id="a_node14"><a xlink:href="quickjs_8c.html#a8b6c89e0f589df709eb31a92b7fac32a" target="_top" xlink:title="get_shape_from_alloc">
<polygon fill="none" stroke="#000000" points="614.5,-173.1314 614.5,-192.1314 726.5,-192.1314 726.5,-173.1314 614.5,-173.1314"/>
<text text-anchor="middle" x="670.5" y="-180.1314" font-family="Helvetica,sans-Serif" font-size="10.00" fill="#000000">get_shape_from_alloc</text>
</a>
</g>
</g>
<!-- Node195035&#45;&gt;Node195037 -->
<g id="edge15" class="edge">
<title>Node195035&#45;&gt;Node195037</title>
<path fill="none" stroke="#191970" d="M556.856,-154.2204C576.8237,-159.2123 601.4295,-165.3638 622.6334,-170.6648"/>
<polygon fill="#191970" stroke="#191970" points="621.8695,-174.0814 632.4198,-173.1113 623.5673,-167.2904 621.8695,-174.0814"/>
</g>
<!-- Node195038 -->
<g id="node15" class="node">
<title>Node195038</title>
<g id="a_node15"><a xlink:href="quickjs_8c.html#ab54e821a9b1b55dc16c4494bd410b698" target="_top" xlink:title="get_shape_size">
<polygon fill="none" stroke="#000000" points="628,-135.1314 628,-154.1314 713,-154.1314 713,-135.1314 628,-135.1314"/>
<text text-anchor="middle" x="670.5" y="-142.1314" font-family="Helvetica,sans-Serif" font-size="10.00" fill="#000000">get_shape_size</text>
</a>
</g>
</g>
<!-- Node195035&#45;&gt;Node195038 -->
<g id="edge16" class="edge">
<title>Node195035&#45;&gt;Node195038</title>
<path fill="none" stroke="#191970" d="M564.105,-144.6314C580.991,-144.6314 600.2739,-144.6314 617.7436,-144.6314"/>
<polygon fill="#191970" stroke="#191970" points="617.7883,-148.1315 627.7882,-144.6314 617.7882,-141.1315 617.7883,-148.1315"/>
</g>
<!-- Node195035&#45;&gt;Node195039 -->
<g id="edge17" class="edge">
<title>Node195035&#45;&gt;Node195039</title>
<path fill="none" stroke="#191970" d="M527.7727,-135.0768C547.8421,-114.5363 595.0229,-67.0299 614,-54.6314 621.3745,-49.8133 629.877,-45.6046 638.0102,-42.1139"/>
<polygon fill="#191970" stroke="#191970" points="639.3435,-45.3502 647.2987,-38.3526 636.7161,-38.8619 639.3435,-45.3502"/>
</g>
<!-- Node195041 -->
<g id="node17" class="node">
<title>Node195041</title>
<g id="a_node17"><a xlink:href="quickjs_8c.html#a78b7f6b85f2739b551ff54f16156128b" target="_top" xlink:title="js_malloc">
<polygon fill="none" stroke="#ff0000" points="641.5,-97.1314 641.5,-116.1314 699.5,-116.1314 699.5,-97.1314 641.5,-97.1314"/>
<text text-anchor="middle" x="670.5" y="-104.1314" font-family="Helvetica,sans-Serif" font-size="10.00" fill="#000000">js_malloc</text>
</a>
</g>
</g>
<!-- Node195035&#45;&gt;Node195041 -->
<g id="edge18" class="edge">
<title>Node195035&#45;&gt;Node195041</title>
<path fill="none" stroke="#191970" d="M556.856,-135.0424C579.6858,-129.335 608.5785,-122.1118 631.5178,-116.3769"/>
<polygon fill="#191970" stroke="#191970" points="632.4191,-119.7594 641.2716,-113.9385 630.7213,-112.9684 632.4191,-119.7594"/>
</g>
<!-- Node195036&#45;&gt;Node195034 -->
<g id="edge14" class="edge">
<title>Node195036&#45;&gt;Node195034</title>
<path fill="none" stroke="#191970" d="M712.9874,-287.0384C718.123,-284.5832 722.9679,-281.5008 727,-277.6314 782.0898,-224.764 799.7434,-129.8988 804.9727,-88.6723"/>
<polygon fill="#191970" stroke="#191970" points="808.4717,-88.881 806.139,-78.5462 801.5177,-88.08 808.4717,-88.881"/>
</g>
<!-- Node195051&#45;&gt;Node195032 -->
<g id="edge22" class="edge">
<title>Node195051&#45;&gt;Node195032</title>
<path fill="none" stroke="#191970" d="M406.9822,-382.202C412.7434,-384.6607 418.2629,-387.75 423,-391.6314 449.1478,-413.0558 430.5016,-440.4502 459,-458.6314 557.3882,-521.4002 705.3324,-483.7934 772.1052,-461.5188"/>
<polygon fill="#191970" stroke="#191970" points="773.401,-464.7747 781.729,-458.2253 771.1345,-458.1518 773.401,-464.7747"/>
</g>
<!-- Node195051&#45;&gt;Node195050 -->
<g id="edge23" class="edge">
<title>Node195051&#45;&gt;Node195050</title>
<path fill="none" stroke="#191970" d="M423.3998,-372.6314C440.1809,-372.6314 457.9741,-372.6314 473.5744,-372.6314"/>
<polygon fill="#191970" stroke="#191970" points="473.9849,-376.1315 483.9849,-372.6314 473.9849,-369.1315 473.9849,-376.1315"/>
</g>
<!-- Node195052&#45;&gt;Node195028 -->
<g id="edge28" class="edge">
<title>Node195052&#45;&gt;Node195028</title>
<path fill="none" stroke="#191970" d="M560.7449,-190.0708C567.2073,-192.8067 573.284,-196.5399 578,-201.6314 625.1764,-252.5641 580.3041,-292.9326 614,-353.6314 622.7916,-369.4684 637.2241,-383.9198 649.3013,-394.3088"/>
<polygon fill="#191970" stroke="#191970" points="647.248,-397.1522 657.1879,-400.8193 651.7043,-391.7539 647.248,-397.1522"/>
</g>
<!-- Node195052&#45;&gt;Node195029 -->
<g id="edge30" class="edge">
<title>Node195052&#45;&gt;Node195029</title>
<path fill="none" stroke="#191970" d="M560.7396,-190.4956C567.1246,-193.1853 573.1771,-196.793 578,-201.6314 615.5102,-239.2624 576.7789,-277.7144 614,-315.6314 616.8545,-318.5393 620.1676,-321.0022 623.7306,-323.0881"/>
<polygon fill="#191970" stroke="#191970" points="622.4541,-326.3579 632.9833,-327.5356 625.4867,-320.0488 622.4541,-326.3579"/>
</g>
<!-- Node195052&#45;&gt;Node195036 -->
<g id="edge26" class="edge">
<title>Node195052&#45;&gt;Node195036</title>
<path fill="none" stroke="#191970" d="M560.503,-191.2011C566.841,-193.8075 572.94,-197.2046 578,-201.6314 606.1298,-226.2414 586.0594,-252.8068 614,-277.6314 615.76,-279.1951 617.6534,-280.631 619.6426,-281.9494"/>
<polygon fill="#191970" stroke="#191970" points="618.4104,-285.2656 628.8608,-287.0093 621.7788,-279.1292 618.4104,-285.2656"/>
</g>
<!-- Node195052&#45;&gt;Node195037 -->
<g id="edge27" class="edge">
<title>Node195052&#45;&gt;Node195037</title>
<path fill="none" stroke="#191970" d="M560.8405,-182.6314C574.3298,-182.6314 589.5921,-182.6314 604.3503,-182.6314"/>
<polygon fill="#191970" stroke="#191970" points="604.4591,-186.1315 614.4591,-182.6314 604.459,-179.1315 604.4591,-186.1315"/>
</g>
<!-- Node195052&#45;&gt;Node195038 -->
<g id="edge29" class="edge">
<title>Node195052&#45;&gt;Node195038</title>
<path fill="none" stroke="#191970" d="M556.856,-173.0424C576.8237,-168.0505 601.4295,-161.899 622.6334,-156.598"/>
<polygon fill="#191970" stroke="#191970" points="623.5673,-159.9724 632.4198,-154.1514 621.8695,-153.1814 623.5673,-159.9724"/>
</g>
<!-- Node195052&#45;&gt;Node195041 -->
<g id="edge32" class="edge">
<title>Node195052&#45;&gt;Node195041</title>
<path fill="none" stroke="#191970" d="M558.1591,-173.0587C565.0487,-170.5441 571.9392,-167.4376 578,-163.6314 597.7016,-151.2587 594.3937,-138.1545 614,-125.6314 619.4373,-122.1584 625.5772,-119.2502 631.755,-116.8375"/>
<polygon fill="#191970" stroke="#191970" points="633.1271,-120.0651 641.3985,-113.4443 630.8037,-113.462 633.1271,-120.0651"/>
</g>
<!-- Node195053 -->
<g id="node21" class="node">
<title>Node195053</title>
<g id="a_node21"><a xlink:href="quickjs_8c.html#a9780456a71703c53244b88831bc8fb7a" target="_top" xlink:title="add_gc_object">
<polygon fill="none" stroke="#ff0000" points="630.5,-249.1314 630.5,-268.1314 710.5,-268.1314 710.5,-249.1314 630.5,-249.1314"/>
<text text-anchor="middle" x="670.5" y="-256.1314" font-family="Helvetica,sans-Serif" font-size="10.00" fill="#000000">add_gc_object</text>
</a>
</g>
</g>
<!-- Node195052&#45;&gt;Node195053 -->
<g id="edge25" class="edge">
<title>Node195052&#45;&gt;Node195053</title>
<path fill="none" stroke="#191970" d="M558.1591,-192.2041C565.0487,-194.7187 571.9392,-197.8252 578,-201.6314 597.7016,-214.004 594.3937,-227.1083 614,-239.6314 617.1507,-241.6438 620.5372,-243.4666 624.0303,-245.1132"/>
<polygon fill="#191970" stroke="#191970" points="622.862,-248.4188 633.4369,-249.0697 625.576,-241.9663 622.862,-248.4188"/>
</g>
<!-- Node195054 -->
<g id="node22" class="node">
<title>Node195054</title>
<g id="a_node22"><a xlink:href="quickjs_8h.html#a775522f2d084fc8fa0fcb33f390006b4" target="_top" xlink:title="JS_DupValue">
<polygon fill="none" stroke="#000000" points="632,-211.1314 632,-230.1314 709,-230.1314 709,-211.1314 632,-211.1314"/>
<text text-anchor="middle" x="670.5" y="-218.1314" font-family="Helvetica,sans-Serif" font-size="10.00" fill="#000000">JS_DupValue</text>
</a>
</g>
</g>
<!-- Node195052&#45;&gt;Node195054 -->
<g id="edge31" class="edge">
<title>Node195052&#45;&gt;Node195054</title>
<path fill="none" stroke="#191970" d="M556.856,-192.2204C576.8237,-197.2123 601.4295,-203.3638 622.6334,-208.6648"/>
<polygon fill="#191970" stroke="#191970" points="621.8695,-212.0814 632.4198,-211.1113 623.5673,-205.2904 621.8695,-212.0814"/>
</g>
<!-- Node195057 -->
<g id="node25" class="node">
<title>Node195057</title>
<g id="a_node25"><a xlink:href="quickjs_8c.html#a6f921a6312ada5c7da7b485e24d37f54" target="_top" xlink:title="js_free_shape0">
<polygon fill="none" stroke="#ff0000" points="477,-401.1314 477,-420.1314 560,-420.1314 560,-401.1314 477,-401.1314"/>
<text text-anchor="middle" x="518.5" y="-408.1314" font-family="Helvetica,sans-Serif" font-size="10.00" fill="#000000">js_free_shape0</text>
</a>
</g>
</g>
<!-- Node195056&#45;&gt;Node195057 -->
<g id="edge35" class="edge">
<title>Node195056&#45;&gt;Node195057</title>
<path fill="none" stroke="#191970" d="M399.1511,-410.6314C419.4992,-410.6314 444.729,-410.6314 466.7428,-410.6314"/>
<polygon fill="#191970" stroke="#191970" points="466.9277,-414.1315 476.9276,-410.6314 466.9276,-407.1315 466.9277,-414.1315"/>
</g>
<!-- Node195057&#45;&gt;Node195028 -->
<g id="edge37" class="edge">
<title>Node195057&#45;&gt;Node195028</title>
<path fill="none" stroke="#191970" d="M560.0347,-410.6314C577.6859,-410.6314 598.484,-410.6314 617.2452,-410.6314"/>
<polygon fill="#191970" stroke="#191970" points="617.4256,-414.1315 627.4256,-410.6314 617.4256,-407.1315 617.4256,-414.1315"/>
</g>
<!-- Node195057&#45;&gt;Node195033 -->
<g id="edge38" class="edge">
<title>Node195057&#45;&gt;Node195033</title>
<path fill="none" stroke="#191970" d="M556.856,-420.2204C576.8237,-425.2123 601.4295,-431.3638 622.6334,-436.6648"/>
<polygon fill="#191970" stroke="#191970" points="621.8695,-440.0814 632.4198,-439.1113 623.5673,-433.2904 621.8695,-440.0814"/>
</g>
<!-- Node195057&#45;&gt;Node195036 -->
<g id="edge36" class="edge">
<title>Node195057&#45;&gt;Node195036</title>
<path fill="none" stroke="#191970" d="M560.1962,-402.1871C566.644,-399.5646 572.8584,-396.1296 578,-391.6314 606.1298,-367.0214 586.0594,-340.456 614,-315.6314 615.76,-314.0676 617.6534,-312.6318 619.6426,-311.3134"/>
<polygon fill="#191970" stroke="#191970" points="621.7788,-314.1336 628.8608,-306.2535 618.4104,-307.9972 621.7788,-314.1336"/>
</g>
<!-- Node195083&#45;&gt;Node195028 -->
<g id="edge42" class="edge">
<title>Node195083&#45;&gt;Node195028</title>
<path fill="none" stroke="#191970" d="M238.8845,-391.175C246.7758,-393.7316 254.8162,-396.8607 262,-400.6314 280.192,-410.18 278.6241,-422.7979 298,-429.6314 412.0819,-469.8657 558.0263,-441.2614 628.5804,-422.8611"/>
<polygon fill="#191970" stroke="#191970" points="629.6724,-426.1922 638.4302,-420.2298 627.8656,-419.4294 629.6724,-426.1922"/>
</g>
<!-- Node195083&#45;&gt;Node195033 -->
<g id="edge45" class="edge">
<title>Node195083&#45;&gt;Node195033</title>
<path fill="none" stroke="#191970" d="M244.2268,-391.1561C250.5361,-393.627 256.667,-396.7319 262,-400.6314 284.9863,-417.439 272.9191,-440.1477 298,-453.6314 406.3192,-511.8646 559.236,-480.8318 630.739,-461.0134"/>
<polygon fill="#191970" stroke="#191970" points="632.0233,-464.2869 640.6829,-458.1826 630.1067,-457.5544 632.0233,-464.2869"/>
</g>
<!-- Node195083&#45;&gt;Node195052 -->
<g id="edge43" class="edge">
<title>Node195083&#45;&gt;Node195052</title>
<path fill="none" stroke="#191970" d="M214.3042,-372.0815C228.0897,-363.4735 247.8058,-349.8573 262,-334.6314 282.4314,-312.7149 274.1706,-295.7956 298,-277.6314 344.1796,-242.4305 373.6121,-270.1682 423,-239.6314 442.7875,-227.3967 439.2984,-214.004 459,-201.6314 462.3145,-199.5499 465.8772,-197.6776 469.5521,-195.997"/>
<polygon fill="#191970" stroke="#191970" points="470.9061,-199.2247 478.8409,-192.2041 468.2598,-192.7442 470.9061,-199.2247"/>
</g>
<!-- Node195083&#45;&gt;Node195056 -->
<g id="edge44" class="edge">
<title>Node195083&#45;&gt;Node195056</title>
<path fill="none" stroke="#191970" d="M251.6589,-391.2074C271.0929,-394.6757 292.9167,-398.5704 311.8916,-401.9567"/>
<polygon fill="#191970" stroke="#191970" points="311.3565,-405.4164 321.8159,-403.7278 312.5863,-398.5253 311.3565,-405.4164"/>
</g>
</g>
</svg>
        <g id="navigator" transform="translate(0 0)" fill="#404254">
                <rect fill="#f2f5e9" fill-opacity="0.5" stroke="#606060" stroke-width=".5" x="0" y="0" width="60" height="60"/>
                <use id="zoomplus" xlink:href="#zoomPlus" x="17" y="9" onmousedown="handleZoom(evt,'in')"/>
                <use id="zoomminus" xlink:href="#zoomMin" x="42" y="9" onmousedown="handleZoom(evt,'out')"/>
                <use id="reset" xlink:href="#resetDef" x="30" y="36" onmousedown="handleReset()"/>
                <g id="arrowUp" xlink:href="#dirArrow" transform="translate(30 24)" onmousedown="handlePan(0,-1)">
                  <use xlink:href="#rim" fill="#404040">
                        <set attributeName="fill" to="#808080" begin="arrowUp.mouseover" end="arrowUp.mouseout"/>
                  </use>
                  <path fill="none" stroke="white" stroke-width="1.5" d="M0,-3.0v7 M-2.5,-0.5L0,-3.0L2.5,-0.5"/>
                </g>
                <g id="arrowRight" xlink:href="#dirArrow" transform="rotate(90) translate(36 -43)" onmousedown="handlePan(1,0)">
                  <use xlink:href="#rim" fill="#404040">
                        <set attributeName="fill" to="#808080" begin="arrowRight.mouseover" end="arrowRight.mouseout"/>
                  </use>
                  <path fill="none" stroke="white" stroke-width="1.5" d="M0,-3.0v7 M-2.5,-0.5L0,-3.0L2.5,-0.5"/>
                </g>
                <g id="arrowDown" xlink:href="#dirArrow" transform="rotate(180) translate(-30 -48)" onmousedown="handlePan(0,1)">
                  <use xlink:href="#rim" fill="#404040">
                        <set attributeName="fill" to="#808080" begin="arrowDown.mouseover" end="arrowDown.mouseout"/>
                  </use>
                  <path fill="none" stroke="white" stroke-width="1.5" d="M0,-3.0v7 M-2.5,-0.5L0,-3.0L2.5,-0.5"/>
                </g>
                <g id="arrowLeft" xlink:href="#dirArrow" transform="rotate(270) translate(-36 17)" onmousedown="handlePan(-1,0)">
                  <use xlink:href="#rim" fill="#404040">
                        <set attributeName="fill" to="#808080" begin="arrowLeft.mouseover" end="arrowLeft.mouseout"/>
                  </use>
                  <path fill="none" stroke="white" stroke-width="1.5" d="M0,-3.0v7 M-2.5,-0.5L0,-3.0L2.5,-0.5"/>
                </g>
        </g>
        <svg viewBox="0 0 15 15" width="100%" height="30px" preserveAspectRatio="xMaxYMin meet">
         <g id="arrow_out" transform="scale(0.3 0.3)">
          <a xlink:href="quickjs_8c_ac93c982cb636a5430b191d104083af3e_cgraph_org.svg" target="_base">
           <rect id="button" ry="5" rx="5" y="6" x="6" height="38" width="38"
                fill="#f2f5e9" fill-opacity="0.5" stroke="#606060" stroke-width="1.0"/>
           <path id="arrow"
             d="M 11.500037,31.436501 C 11.940474,20.09759 22.043105,11.32322 32.158766,21.979434 L 37.068811,17.246167 C 37.068811,17.246167 37.088388,32 37.088388,32 L 22.160133,31.978069 C 22.160133,31.978069 26.997745,27.140456 26.997745,27.140456 C 18.528582,18.264221 13.291696,25.230495 11.500037,31.436501 z"
             style="fill:#404040;"/>
          </a>
         </g>
        </svg>
</svg>
