<?xml version="1.0" encoding="UTF-8" standalone="no"?>
<!DOCTYPE svg PUBLIC "-//W3C//DTD SVG 1.1//EN"
 "http://www.w3.org/Graphics/SVG/1.1/DTD/svg11.dtd">
<!-- Generated by graphviz version 2.40.1 (20161225.0304)
 -->
<!-- Title: js_shared_array_buffer_constructor Pages: 1 -->
<svg width="572pt" height="39pt"
 viewBox="0.00 0.00 572.00 39.00" xmlns="http://www.w3.org/2000/svg" xmlns:xlink="http://www.w3.org/1999/xlink">
<g id="graph0" class="graph" transform="scale(1 1) rotate(0) translate(4 35)">
<title>js_shared_array_buffer_constructor</title>
<!-- Node475278 -->
<g id="node1" class="node">
<title>Node475278</title>
<polygon fill="#bfbfbf" stroke="#000000" points="0,-.5 0,-30.5 116,-30.5 116,-.5 0,-.5"/>
<text text-anchor="start" x="8" y="-18.5" font-family="Helvetica,sans-Serif" font-size="10.00" fill="#000000">js_shared_array_buffer</text>
<text text-anchor="middle" x="58" y="-7.5" font-family="Helvetica,sans-Serif" font-size="10.00" fill="#000000">_constructor</text>
</g>
<!-- Node475279 -->
<g id="node2" class="node">
<title>Node475279</title>
<g id="a_node2"><a xlink:href="quickjs_8c.html#a177d09828596bfe6df4bd90b2e93989d" target="_top" xlink:title="JS_AddIntrinsicTypedArrays">
<polygon fill="none" stroke="#000000" points="152,-6 152,-25 293,-25 293,-6 152,-6"/>
<text text-anchor="middle" x="222.5" y="-13" font-family="Helvetica,sans-Serif" font-size="10.00" fill="#000000">JS_AddIntrinsicTypedArrays</text>
</a>
</g>
</g>
<!-- Node475278&#45;&gt;Node475279 -->
<g id="edge1" class="edge">
<title>Node475278&#45;&gt;Node475279</title>
<path fill="none" stroke="#191970" d="M126.5346,-15.5C134.8931,-15.5 143.4459,-15.5 151.8348,-15.5"/>
<polygon fill="#191970" stroke="#191970" points="126.4598,-12.0001 116.4597,-15.5 126.4597,-19.0001 126.4598,-12.0001"/>
</g>
<!-- Node475280 -->
<g id="node3" class="node">
<title>Node475280</title>
<g id="a_node3"><a xlink:href="quickjs_8c.html#ad8aedb643b8753b7a15f6cb2df61945e" target="_top" xlink:title="JS_NewContext">
<polygon fill="none" stroke="#000000" points="329,-6 329,-25 418,-25 418,-6 329,-6"/>
<text text-anchor="middle" x="373.5" y="-13" font-family="Helvetica,sans-Serif" font-size="10.00" fill="#000000">JS_NewContext</text>
</a>
</g>
</g>
<!-- Node475279&#45;&gt;Node475280 -->
<g id="edge2" class="edge">
<title>Node475279&#45;&gt;Node475280</title>
<path fill="none" stroke="#191970" d="M303.3813,-15.5C312.0943,-15.5 320.7113,-15.5 328.7649,-15.5"/>
<polygon fill="#191970" stroke="#191970" points="303.1368,-12.0001 293.1368,-15.5 303.1367,-19.0001 303.1368,-12.0001"/>
</g>
<!-- Node475281 -->
<g id="node4" class="node">
<title>Node475281</title>
<g id="a_node4"><a xlink:href="classqjs_1_1Context.html#a4392a23648acfc4bf6b445336efb5007" target="_top" xlink:title="qjs::Context::Context">
<polygon fill="none" stroke="#ff0000" points="454,-6 454,-25 564,-25 564,-6 454,-6"/>
<text text-anchor="middle" x="509" y="-13" font-family="Helvetica,sans-Serif" font-size="10.00" fill="#000000">qjs::Context::Context</text>
</a>
</g>
</g>
<!-- Node475280&#45;&gt;Node475281 -->
<g id="edge3" class="edge">
<title>Node475280&#45;&gt;Node475281</title>
<path fill="none" stroke="#191970" d="M428.3476,-15.5C436.7739,-15.5 445.4767,-15.5 453.9083,-15.5"/>
<polygon fill="#191970" stroke="#191970" points="428.2433,-12.0001 418.2433,-15.5 428.2433,-19.0001 428.2433,-12.0001"/>
</g>
</g>
</svg>
