<?xml version="1.0" encoding="UTF-8" standalone="no"?>
<!DOCTYPE svg PUBLIC "-//W3C//DTD SVG 1.1//EN"
 "http://www.w3.org/Graphics/SVG/1.1/DTD/svg11.dtd">
<!-- Generated by graphviz version 2.40.1 (20161225.0304)
 -->
<!-- Title: js_object_has_name Pages: 1 -->
<svg width="368pt" height="66pt"
 viewBox="0.00 0.00 368.00 66.00" xmlns="http://www.w3.org/2000/svg" xmlns:xlink="http://www.w3.org/1999/xlink">
<g id="graph0" class="graph" transform="scale(1 1) rotate(0) translate(4 62)">
<title>js_object_has_name</title>
<!-- Node211621 -->
<g id="node1" class="node">
<title>Node211621</title>
<polygon fill="#bfbfbf" stroke="#000000" points="0,-19.5 0,-38.5 106,-38.5 106,-19.5 0,-19.5"/>
<text text-anchor="middle" x="53" y="-26.5" font-family="Helvetica,sans-Serif" font-size="10.00" fill="#000000">js_object_has_name</text>
</g>
<!-- Node211622 -->
<g id="node2" class="node">
<title>Node211622</title>
<g id="a_node2"><a xlink:href="quickjs_8c.html#a06b76f5124fd985e35f4c652fd018d6d" target="_top" xlink:title="find_own_property">
<polygon fill="none" stroke="#000000" points="142,-19.5 142,-38.5 238,-38.5 238,-19.5 142,-19.5"/>
<text text-anchor="middle" x="190" y="-26.5" font-family="Helvetica,sans-Serif" font-size="10.00" fill="#000000">find_own_property</text>
</a>
</g>
</g>
<!-- Node211621&#45;&gt;Node211622 -->
<g id="edge1" class="edge">
<title>Node211621&#45;&gt;Node211622</title>
<path fill="none" stroke="#191970" d="M106.3601,-29C114.6926,-29 123.3398,-29 131.7743,-29"/>
<polygon fill="#191970" stroke="#191970" points="131.9217,-32.5001 141.9217,-29 131.9216,-25.5001 131.9217,-32.5001"/>
</g>
<!-- Node211623 -->
<g id="node3" class="node">
<title>Node211623</title>
<g id="a_node3"><a xlink:href="quickjs_8c.html#a643df594b75933007bcdbb071b5ea8c5" target="_top" xlink:title="get_shape_prop">
<polygon fill="none" stroke="#000000" points="274,-38.5 274,-57.5 360,-57.5 360,-38.5 274,-38.5"/>
<text text-anchor="middle" x="317" y="-45.5" font-family="Helvetica,sans-Serif" font-size="10.00" fill="#000000">get_shape_prop</text>
</a>
</g>
</g>
<!-- Node211622&#45;&gt;Node211623 -->
<g id="edge2" class="edge">
<title>Node211622&#45;&gt;Node211623</title>
<path fill="none" stroke="#191970" d="M238.0133,-36.1831C246.495,-37.452 255.3694,-38.7797 263.9794,-40.0678"/>
<polygon fill="#191970" stroke="#191970" points="263.5183,-43.5377 273.9261,-41.5559 264.554,-36.6147 263.5183,-43.5377"/>
</g>
<!-- Node211624 -->
<g id="node4" class="node">
<title>Node211624</title>
<g id="a_node4"><a xlink:href="quickjs_8c.html#acab22c2945c4d609e57a2484feb68a96" target="_top" xlink:title="prop_hash_end">
<polygon fill="none" stroke="#000000" points="275.5,-.5 275.5,-19.5 358.5,-19.5 358.5,-.5 275.5,-.5"/>
<text text-anchor="middle" x="317" y="-7.5" font-family="Helvetica,sans-Serif" font-size="10.00" fill="#000000">prop_hash_end</text>
</a>
</g>
</g>
<!-- Node211622&#45;&gt;Node211624 -->
<g id="edge3" class="edge">
<title>Node211622&#45;&gt;Node211624</title>
<path fill="none" stroke="#191970" d="M238.0133,-21.8169C246.8934,-20.4884 256.204,-19.0955 265.1909,-17.751"/>
<polygon fill="#191970" stroke="#191970" points="265.7877,-21.2007 275.1598,-16.2596 264.752,-14.2778 265.7877,-21.2007"/>
</g>
</g>
</svg>
