<?xml version="1.0" encoding="UTF-8" standalone="no"?>
<!DOCTYPE svg PUBLIC "-//W3C//DTD SVG 1.1//EN"
 "http://www.w3.org/Graphics/SVG/1.1/DTD/svg11.dtd">
<!-- Generated by graphviz version 2.40.1 (20161225.0304)
 -->
<!-- Title: JS_GetOwnPropertyInternal Pages: 1 -->
<!--zoomable 861 -->
<svg id="main" version="1.1" xmlns="http://www.w3.org/2000/svg" xmlns:xlink="http://www.w3.org/1999/xlink" xml:space="preserve" onload="init(evt)">
<style type="text/css"><![CDATA[
.edge:hover path { stroke: red; }
.edge:hover polygon { stroke: red; fill: red; }
]]></style>
<script type="text/javascript"><![CDATA[
var edges = document.getElementsByTagName('g');
if (edges && edges.length) {
  for (var i=0;i<edges.length;i++) {
    if (edges[i].id.substr(0,4)=='edge') {
      edges[i].setAttribute('class','edge');
    }
  }
}
]]></script>
        <defs>
                <circle id="rim" cx="0" cy="0" r="7"/>
                <circle id="rim2" cx="0" cy="0" r="3.5"/>
                <g id="zoomPlus">
                        <use xlink:href="#rim" fill="#404040">
                                <set attributeName="fill" to="#808080" begin="zoomplus.mouseover" end="zoomplus.mouseout"/>
                        </use>
                        <path d="M-4,0h8M0,-4v8" fill="none" stroke="white" stroke-width="1.5" pointer-events="none"/>
                </g>
                <g id="zoomMin">
                        <use xlink:href="#rim" fill="#404040">
                                <set attributeName="fill" to="#808080" begin="zoomminus.mouseover" end="zoomminus.mouseout"/>
                        </use>
                        <path d="M-4,0h8" fill="none" stroke="white" stroke-width="1.5" pointer-events="none"/>
                </g>
                <g id="dirArrow">
                        <path fill="none" stroke="white" stroke-width="1.5" d="M0,-3.0v7 M-2.5,-0.5L0,-3.0L2.5,-0.5"/>
                </g>
               <g id="resetDef">
                       <use xlink:href="#rim2" fill="#404040">
                               <set attributeName="fill" to="#808080" begin="reset.mouseover" end="reset.mouseout"/>
                       </use>
               </g>
        </defs>

<script type="text/javascript">
var viewWidth = 958;
var viewHeight = 861;
var sectionId = 'dynsection-100';
</script>
<script xlink:href="svgpan.js"/>
<svg id="graph" class="graph">
<g id="viewport">
<title>JS_GetOwnPropertyInternal</title>
<!-- Node37304 -->
<g id="node1" class="node">
<title>Node37304</title>
<polygon fill="#bfbfbf" stroke="#000000" points="0,-354.5 0,-373.5 139,-373.5 139,-354.5 0,-354.5"/>
<text text-anchor="middle" x="69.5" y="-361.5" font-family="Helvetica,sans-Serif" font-size="10.00" fill="#000000">JS_GetOwnPropertyInternal</text>
</g>
<!-- Node37305 -->
<g id="node2" class="node">
<title>Node37305</title>
<g id="a_node2"><a xlink:href="quickjs_8c.html#a3b754d750c7f3123e85f4a2e748de023" target="_top" xlink:title="JS_CopyDataProperties">
<polygon fill="none" stroke="#000000" points="391.5,-833.5 391.5,-852.5 513.5,-852.5 513.5,-833.5 391.5,-833.5"/>
<text text-anchor="middle" x="452.5" y="-840.5" font-family="Helvetica,sans-Serif" font-size="10.00" fill="#000000">JS_CopyDataProperties</text>
</a>
</g>
</g>
<!-- Node37304&#45;&gt;Node37305 -->
<g id="edge1" class="edge">
<title>Node37304&#45;&gt;Node37305</title>
<path fill="none" stroke="#191970" d="M72.7466,-383.5947C84.4989,-452.4774 126.683,-682.2889 175,-737 230.6452,-800.0091 327.9312,-825.7536 391.2719,-836.1431"/>
<polygon fill="#191970" stroke="#191970" points="76.1831,-382.9246 71.0709,-373.6448 69.2803,-384.0872 76.1831,-382.9246"/>
</g>
<!-- Node37908 -->
<g id="node8" class="node">
<title>Node37908</title>
<g id="a_node8"><a xlink:href="quickjs_8c.html#ac3d351dbdf57be84bab3d5c40009df53" target="_top" xlink:title="JS_GetOwnProperty">
<polygon fill="none" stroke="#000000" points="206.5,-278.5 206.5,-297.5 313.5,-297.5 313.5,-278.5 206.5,-278.5"/>
<text text-anchor="middle" x="260" y="-285.5" font-family="Helvetica,sans-Serif" font-size="10.00" fill="#000000">JS_GetOwnProperty</text>
</a>
</g>
</g>
<!-- Node37304&#45;&gt;Node37908 -->
<g id="edge10" class="edge">
<title>Node37304&#45;&gt;Node37908</title>
<path fill="none" stroke="#191970" d="M95.5414,-349.4951C116.5359,-338.2133 147.0618,-322.726 175,-312 189.6015,-306.3942 206.0614,-301.4455 220.5807,-297.5202"/>
<polygon fill="#191970" stroke="#191970" points="93.7236,-346.4994 86.6095,-354.3505 97.0669,-352.6495 93.7236,-346.4994"/>
</g>
<!-- Node37531 -->
<g id="node10" class="node">
<title>Node37531</title>
<g id="a_node10"><a xlink:href="quickjs_8c.html#a79c9d633e8f9d5fd70546406b9e6f176" target="_top" xlink:title="JS_GetOwnPropertyNames2">
<polygon fill="none" stroke="#ff0000" points="381,-795.5 381,-814.5 524,-814.5 524,-795.5 381,-795.5"/>
<text text-anchor="middle" x="452.5" y="-802.5" font-family="Helvetica,sans-Serif" font-size="10.00" fill="#000000">JS_GetOwnPropertyNames2</text>
</a>
</g>
</g>
<!-- Node37304&#45;&gt;Node37531 -->
<g id="edge12" class="edge">
<title>Node37304&#45;&gt;Node37531</title>
<path fill="none" stroke="#191970" d="M71.3694,-383.8119C77.2855,-436.5465 99.8979,-582.4141 175,-672 235.6643,-744.3637 344.8421,-780.2035 406.6248,-795.4585"/>
<polygon fill="#191970" stroke="#191970" points="74.8404,-383.3503 70.3227,-373.767 67.8781,-384.0759 74.8404,-383.3503"/>
</g>
<!-- Node37909 -->
<g id="node11" class="node">
<title>Node37909</title>
<g id="a_node11"><a xlink:href="quickjs_8c.html#a176ac5ff56a118a0b1b2566798d28823" target="_top" xlink:title="JS_GetOwnPropertyNamesInternal">
<polygon fill="none" stroke="#000000" points="175,-643.5 175,-662.5 345,-662.5 345,-643.5 175,-643.5"/>
<text text-anchor="middle" x="260" y="-650.5" font-family="Helvetica,sans-Serif" font-size="10.00" fill="#000000">JS_GetOwnPropertyNamesInternal</text>
</a>
</g>
</g>
<!-- Node37304&#45;&gt;Node37909 -->
<g id="edge13" class="edge">
<title>Node37304&#45;&gt;Node37909</title>
<path fill="none" stroke="#191970" d="M71.1377,-383.7342C76.3775,-433.6313 97.2739,-565.641 175,-633 179.9263,-637.2692 185.5958,-640.6685 191.6198,-643.3697"/>
<polygon fill="#191970" stroke="#191970" points="74.6087,-383.2623 70.1787,-373.6381 67.64,-383.9243 74.6087,-383.2623"/>
</g>
<!-- Node37615 -->
<g id="node16" class="node">
<title>Node37615</title>
<g id="a_node16"><a xlink:href="quickjs_8c.html#a3b1f61e0c2e39eb52d8b1c5c8713873e" target="_top" xlink:title="js_object_seal">
<polygon fill="none" stroke="#ff0000" points="413,-555.5 413,-574.5 492,-574.5 492,-555.5 413,-555.5"/>
<text text-anchor="middle" x="452.5" y="-562.5" font-family="Helvetica,sans-Serif" font-size="10.00" fill="#000000">js_object_seal</text>
</a>
</g>
</g>
<!-- Node37304&#45;&gt;Node37615 -->
<g id="edge33" class="edge">
<title>Node37304&#45;&gt;Node37615</title>
<path fill="none" stroke="#191970" d="M76.4932,-383.6444C89.8188,-417.9644 122.3095,-488.3831 175,-522 248.7738,-569.0682 355.522,-571.2712 412.7329,-568.3847"/>
<polygon fill="#191970" stroke="#191970" points="79.6171,-382.0051 72.8388,-373.8624 73.0597,-384.4549 79.6171,-382.0051"/>
</g>
<!-- Node37904 -->
<g id="node17" class="node">
<title>Node37904</title>
<g id="a_node17"><a xlink:href="quickjs_8c.html#a43a4ecde0329def8ff22e9341c7b109d" target="_top" xlink:title="js_object_isSealed">
<polygon fill="none" stroke="#000000" points="403.5,-517.5 403.5,-536.5 501.5,-536.5 501.5,-517.5 403.5,-517.5"/>
<text text-anchor="middle" x="452.5" y="-524.5" font-family="Helvetica,sans-Serif" font-size="10.00" fill="#000000">js_object_isSealed</text>
</a>
</g>
</g>
<!-- Node37304&#45;&gt;Node37904 -->
<g id="edge31" class="edge">
<title>Node37304&#45;&gt;Node37904</title>
<path fill="none" stroke="#191970" d="M79.4219,-382.6561C95.4339,-410.7188 129.8024,-463.148 175,-488 247.153,-527.6735 345.1949,-531.9349 403.3558,-530.2672"/>
<polygon fill="#191970" stroke="#191970" points="82.4419,-380.8847 74.5362,-373.8313 76.3178,-384.2753 82.4419,-380.8847"/>
</g>
<!-- Node37648 -->
<g id="node18" class="node">
<title>Node37648</title>
<g id="a_node18"><a xlink:href="quickjs_8c.html#a438b354d69a8f0674195b0cdc19dd686" target="_top" xlink:title="js_proxy_get_own_property\l_names">
<polygon fill="none" stroke="#000000" points="384.5,-468 384.5,-498 520.5,-498 520.5,-468 384.5,-468"/>
<text text-anchor="start" x="392.5" y="-486" font-family="Helvetica,sans-Serif" font-size="10.00" fill="#000000">js_proxy_get_own_property</text>
<text text-anchor="middle" x="452.5" y="-475" font-family="Helvetica,sans-Serif" font-size="10.00" fill="#000000">_names</text>
</a>
</g>
</g>
<!-- Node37304&#45;&gt;Node37648 -->
<g id="edge38" class="edge">
<title>Node37304&#45;&gt;Node37648</title>
<path fill="none" stroke="#191970" d="M82.9573,-381.7722C101.0951,-404.2064 135.6817,-441.9263 175,-459 241.8658,-488.0361 326.2086,-491.1977 384.2585,-488.8895"/>
<polygon fill="#191970" stroke="#191970" points="85.5649,-379.426 76.6313,-373.7303 80.0631,-383.7539 85.5649,-379.426"/>
</g>
<!-- Node37670 -->
<g id="node19" class="node">
<title>Node37670</title>
<g id="a_node19"><a xlink:href="quickjs_8c.html#a9d6d0a9704951d01c128975e0d2213f8" target="_top" xlink:title="JS_HasProperty">
<polygon fill="none" stroke="#ff0000" points="215.5,-354.5 215.5,-373.5 304.5,-373.5 304.5,-354.5 215.5,-354.5"/>
<text text-anchor="middle" x="260" y="-361.5" font-family="Helvetica,sans-Serif" font-size="10.00" fill="#000000">JS_HasProperty</text>
</a>
</g>
</g>
<!-- Node37304&#45;&gt;Node37670 -->
<g id="edge24" class="edge">
<title>Node37304&#45;&gt;Node37670</title>
<path fill="none" stroke="#191970" d="M149.3687,-364C171.9772,-364 195.7732,-364 215.479,-364"/>
<polygon fill="#191970" stroke="#191970" points="149.0835,-360.5001 139.0835,-364 149.0835,-367.5001 149.0835,-360.5001"/>
</g>
<!-- Node37678 -->
<g id="node20" class="node">
<title>Node37678</title>
<g id="a_node20"><a xlink:href="quickjs_8c.html#a1bddfeab11a7cfee6bd88781073b5972" target="_top" xlink:title="js_proxy_has">
<polygon fill="none" stroke="#000000" points="415.5,-315.5 415.5,-334.5 489.5,-334.5 489.5,-315.5 415.5,-315.5"/>
<text text-anchor="middle" x="452.5" y="-322.5" font-family="Helvetica,sans-Serif" font-size="10.00" fill="#000000">js_proxy_has</text>
</a>
</g>
</g>
<!-- Node37304&#45;&gt;Node37678 -->
<g id="edge39" class="edge">
<title>Node37304&#45;&gt;Node37678</title>
<path fill="none" stroke="#191970" d="M126.4249,-352.6058C142.1135,-349.7778 159.1711,-346.9901 175,-345 260.5457,-334.245 361.71,-328.7646 415.1218,-326.4321"/>
<polygon fill="#191970" stroke="#191970" points="125.5409,-349.2096 116.3397,-354.4621 126.8081,-356.094 125.5409,-349.2096"/>
</g>
<!-- Node37584 -->
<g id="node21" class="node">
<title>Node37584</title>
<g id="a_node21"><a xlink:href="quickjs_8c.html#a26abea9136a3d8e9a861aefb51626b4e" target="_top" xlink:title="js_object___lookupGetter__">
<polygon fill="none" stroke="#000000" points="191.5,-240.5 191.5,-259.5 328.5,-259.5 328.5,-240.5 191.5,-240.5"/>
<text text-anchor="middle" x="260" y="-247.5" font-family="Helvetica,sans-Serif" font-size="10.00" fill="#000000">js_object___lookupGetter__</text>
</a>
</g>
</g>
<!-- Node37304&#45;&gt;Node37584 -->
<g id="edge27" class="edge">
<title>Node37304&#45;&gt;Node37584</title>
<path fill="none" stroke="#191970" d="M83.6197,-346.6961C102.2382,-325.0797 137.1029,-288.5612 175,-269 182.5246,-265.1161 190.8245,-262.0222 199.2006,-259.5586"/>
<polygon fill="#191970" stroke="#191970" points="80.8605,-344.539 77.0951,-354.4421 86.2143,-349.0487 80.8605,-344.539"/>
</g>
<!-- Node37588 -->
<g id="node22" class="node">
<title>Node37588</title>
<g id="a_node22"><a xlink:href="quickjs_8c.html#a5f75fb513884286c86db6863663f262a" target="_top" xlink:title="js_object_getOwnProperty\lDescriptor">
<polygon fill="none" stroke="#000000" points="194.5,-593 194.5,-623 325.5,-623 325.5,-593 194.5,-593"/>
<text text-anchor="start" x="202.5" y="-611" font-family="Helvetica,sans-Serif" font-size="10.00" fill="#000000">js_object_getOwnProperty</text>
<text text-anchor="middle" x="260" y="-600" font-family="Helvetica,sans-Serif" font-size="10.00" fill="#000000">Descriptor</text>
</a>
</g>
</g>
<!-- Node37304&#45;&gt;Node37588 -->
<g id="edge28" class="edge">
<title>Node37304&#45;&gt;Node37588</title>
<path fill="none" stroke="#191970" d="M74.0122,-383.4015C84.5589,-424.5963 114.6332,-521.4802 175,-576 182.7233,-582.9753 192.114,-588.4809 201.799,-592.8109"/>
<polygon fill="#191970" stroke="#191970" points="77.3774,-382.4287 71.5954,-373.5507 70.579,-384.0966 77.3774,-382.4287"/>
</g>
<!-- Node37590 -->
<g id="node23" class="node">
<title>Node37590</title>
<g id="a_node23"><a xlink:href="quickjs_8c.html#ad61ef444b51b69a8a4cb9e3cac990c8d" target="_top" xlink:title="js_object_hasOwnProperty">
<polygon fill="none" stroke="#000000" points="193,-202.5 193,-221.5 327,-221.5 327,-202.5 193,-202.5"/>
<text text-anchor="middle" x="260" y="-209.5" font-family="Helvetica,sans-Serif" font-size="10.00" fill="#000000">js_object_hasOwnProperty</text>
</a>
</g>
</g>
<!-- Node37304&#45;&gt;Node37590 -->
<g id="edge30" class="edge">
<title>Node37304&#45;&gt;Node37590</title>
<path fill="none" stroke="#191970" d="M78.8686,-345.323C94.5524,-316.0796 128.987,-259.8514 175,-231 181.1493,-227.1442 187.9809,-224.0664 195.0227,-221.6104"/>
<polygon fill="#191970" stroke="#191970" points="75.6291,-343.9662 74.1148,-354.4523 81.8378,-347.1992 75.6291,-343.9662"/>
</g>
<!-- Node37592 -->
<g id="node24" class="node">
<title>Node37592</title>
<g id="a_node24"><a xlink:href="quickjs_8c.html#acc70b8dea6a26f839c651835b7104c92" target="_top" xlink:title="js_object_propertyIsEnumerable">
<polygon fill="none" stroke="#000000" points="182,-164.5 182,-183.5 338,-183.5 338,-164.5 182,-164.5"/>
<text text-anchor="middle" x="260" y="-171.5" font-family="Helvetica,sans-Serif" font-size="10.00" fill="#000000">js_object_propertyIsEnumerable</text>
</a>
</g>
</g>
<!-- Node37304&#45;&gt;Node37592 -->
<g id="edge32" class="edge">
<title>Node37304&#45;&gt;Node37592</title>
<path fill="none" stroke="#191970" d="M75.7316,-344.6373C88.3393,-308.7165 120.4142,-231.8835 175,-193 180.419,-189.1399 186.4862,-186.0454 192.8187,-183.5673"/>
<polygon fill="#191970" stroke="#191970" points="72.3235,-343.7902 72.4404,-354.3844 78.9557,-346.0296 72.3235,-343.7902"/>
</g>
<!-- Node37609 -->
<g id="node25" class="node">
<title>Node37609</title>
<g id="a_node25"><a xlink:href="quickjs_8c.html#a7e5b77a4851eee6f666581d051979392" target="_top" xlink:title="js_proxy_define_own\l_property">
<polygon fill="none" stroke="#000000" points="206,-115 206,-145 314,-145 314,-115 206,-115"/>
<text text-anchor="start" x="214" y="-133" font-family="Helvetica,sans-Serif" font-size="10.00" fill="#000000">js_proxy_define_own</text>
<text text-anchor="middle" x="260" y="-122" font-family="Helvetica,sans-Serif" font-size="10.00" fill="#000000">_property</text>
</a>
</g>
</g>
<!-- Node37304&#45;&gt;Node37609 -->
<g id="edge34" class="edge">
<title>Node37304&#45;&gt;Node37609</title>
<path fill="none" stroke="#191970" d="M73.7929,-344.5223C83.9154,-303.2314 113.2165,-206.4812 175,-155 183.8629,-147.6149 194.8283,-142.4113 205.9036,-138.7448"/>
<polygon fill="#191970" stroke="#191970" points="70.3513,-343.8689 71.4821,-354.4032 77.1674,-345.463 70.3513,-343.8689"/>
</g>
<!-- Node37582 -->
<g id="node26" class="node">
<title>Node37582</title>
<g id="a_node26"><a xlink:href="quickjs_8c.html#acffb121a8a0ee2b735f60c1db01e79e7" target="_top" xlink:title="js_proxy_delete_property">
<polygon fill="none" stroke="#000000" points="197.5,-76.5 197.5,-95.5 322.5,-95.5 322.5,-76.5 197.5,-76.5"/>
<text text-anchor="middle" x="260" y="-83.5" font-family="Helvetica,sans-Serif" font-size="10.00" fill="#000000">js_proxy_delete_property</text>
</a>
</g>
</g>
<!-- Node37304&#45;&gt;Node37582 -->
<g id="edge35" class="edge">
<title>Node37304&#45;&gt;Node37582</title>
<path fill="none" stroke="#191970" d="M71.4172,-344.2953C77.2522,-295.6166 99.319,-168.9977 175,-105 181.4659,-99.5323 189.1704,-95.5475 197.2621,-92.6585"/>
<polygon fill="#191970" stroke="#191970" points="67.9171,-344.1061 70.3076,-354.4277 74.8755,-344.8682 67.9171,-344.1061"/>
</g>
<!-- Node37890 -->
<g id="node27" class="node">
<title>Node37890</title>
<g id="a_node27"><a xlink:href="quickjs_8c.html#a45df491949e8e055e732eb13c446d47b" target="_top" xlink:title="js_proxy_get">
<polygon fill="none" stroke="#000000" points="224,-38.5 224,-57.5 296,-57.5 296,-38.5 224,-38.5"/>
<text text-anchor="middle" x="260" y="-45.5" font-family="Helvetica,sans-Serif" font-size="10.00" fill="#000000">js_proxy_get</text>
</a>
</g>
</g>
<!-- Node37304&#45;&gt;Node37890 -->
<g id="edge36" class="edge">
<title>Node37304&#45;&gt;Node37890</title>
<path fill="none" stroke="#191970" d="M70.2598,-344.3612C73.437,-291.0104 89.8863,-142.3607 175,-67 188.2458,-55.272 207.1387,-50.2955 223.7501,-48.3488"/>
<polygon fill="#191970" stroke="#191970" points="66.7568,-344.3369 69.753,-354.4992 73.7481,-344.6865 66.7568,-344.3369"/>
</g>
<!-- Node37676 -->
<g id="node28" class="node">
<title>Node37676</title>
<g id="a_node28"><a xlink:href="quickjs_8c.html#ab9c2e9c8dab72f3c057efe4ffcced332" target="_top" xlink:title="js_proxy_get_own_property">
<polygon fill="none" stroke="#000000" points="192,-.5 192,-19.5 328,-19.5 328,-.5 192,-.5"/>
<text text-anchor="middle" x="260" y="-7.5" font-family="Helvetica,sans-Serif" font-size="10.00" fill="#000000">js_proxy_get_own_property</text>
</a>
</g>
</g>
<!-- Node37304&#45;&gt;Node37676 -->
<g id="edge37" class="edge">
<title>Node37304&#45;&gt;Node37676</title>
<path fill="none" stroke="#191970" d="M73.1015,-344.035C85.271,-278.7498 126.8052,-73.255 175,-29 179.9006,-24.5 185.6276,-20.9856 191.7522,-18.2509"/>
<polygon fill="#191970" stroke="#191970" points="69.5963,-343.745 71.232,-354.2128 76.4811,-345.0097 69.5963,-343.745"/>
</g>
<!-- Node37425 -->
<g id="node29" class="node">
<title>Node37425</title>
<g id="a_node29"><a xlink:href="quickjs_8c.html#ad38b16d301e8f3661cf4c115c86511b3" target="_top" xlink:title="js_proxy_set">
<polygon fill="none" stroke="#000000" points="416.5,-391.5 416.5,-410.5 488.5,-410.5 488.5,-391.5 416.5,-391.5"/>
<text text-anchor="middle" x="452.5" y="-398.5" font-family="Helvetica,sans-Serif" font-size="10.00" fill="#000000">js_proxy_set</text>
</a>
</g>
</g>
<!-- Node37304&#45;&gt;Node37425 -->
<g id="edge40" class="edge">
<title>Node37304&#45;&gt;Node37425</title>
<path fill="none" stroke="#191970" d="M125.9656,-375.3884C141.7775,-378.2447 159.0125,-381.0482 175,-383 261.2606,-393.5307 363.409,-398.1516 416.4571,-399.967"/>
<polygon fill="#191970" stroke="#191970" points="126.2772,-371.8868 115.8078,-373.5121 125.0057,-378.7703 126.2772,-371.8868"/>
</g>
<!-- Node37423 -->
<g id="node30" class="node">
<title>Node37423</title>
<g id="a_node30"><a xlink:href="quickjs_8c.html#a638e637d492ee889691691baba33c4bd" target="_top" xlink:title="JS_SetPropertyGeneric">
<polygon fill="none" stroke="#ff0000" points="200.5,-430.5 200.5,-449.5 319.5,-449.5 319.5,-430.5 200.5,-430.5"/>
<text text-anchor="middle" x="260" y="-437.5" font-family="Helvetica,sans-Serif" font-size="10.00" fill="#000000">JS_SetPropertyGeneric</text>
</a>
</g>
</g>
<!-- Node37304&#45;&gt;Node37423 -->
<g id="edge41" class="edge">
<title>Node37304&#45;&gt;Node37423</title>
<path fill="none" stroke="#191970" d="M95.5414,-378.5049C116.5359,-389.7867 147.0618,-405.274 175,-416 189.6015,-421.6058 206.0614,-426.5545 220.5807,-430.4798"/>
<polygon fill="#191970" stroke="#191970" points="97.0669,-375.3505 86.6095,-373.6495 93.7236,-381.5006 97.0669,-375.3505"/>
</g>
<!-- Node37306 -->
<g id="node3" class="node">
<title>Node37306</title>
<g id="a_node3"><a xlink:href="quickjs_8c.html#ac2894ff4edcdb4e6841bcce9c76081e3" target="_top" xlink:title="JS_CallInternal">
<polygon fill="none" stroke="#ff0000" points="563,-503.5 563,-522.5 646,-522.5 646,-503.5 563,-503.5"/>
<text text-anchor="middle" x="604.5" y="-510.5" font-family="Helvetica,sans-Serif" font-size="10.00" fill="#000000">JS_CallInternal</text>
</a>
</g>
</g>
<!-- Node37305&#45;&gt;Node37306 -->
<g id="edge2" class="edge">
<title>Node37305&#45;&gt;Node37306</title>
<path fill="none" stroke="#191970" d="M519.4541,-827.9986C521.0532,-826.7654 522.5742,-825.435 524,-824 568.5183,-779.1937 597.2763,-570.2196 603.313,-522.6525"/>
<polygon fill="#191970" stroke="#191970" points="517.4873,-825.1008 510.8872,-833.3887 521.2151,-831.0257 517.4873,-825.1008"/>
</g>
<!-- Node37585 -->
<g id="node7" class="node">
<title>Node37585</title>
<g id="a_node7"><a xlink:href="quickjs_8c.html#ae69502aeeec991fb0bf5a9657aaa7453" target="_top" xlink:title="js_object_assign">
<polygon fill="none" stroke="#000000" points="560,-833.5 560,-852.5 649,-852.5 649,-833.5 560,-833.5"/>
<text text-anchor="middle" x="604.5" y="-840.5" font-family="Helvetica,sans-Serif" font-size="10.00" fill="#000000">js_object_assign</text>
</a>
</g>
</g>
<!-- Node37305&#45;&gt;Node37585 -->
<g id="edge9" class="edge">
<title>Node37305&#45;&gt;Node37585</title>
<path fill="none" stroke="#191970" d="M524.0341,-843C536.1906,-843 548.4999,-843 559.7123,-843"/>
<polygon fill="#191970" stroke="#191970" points="523.8861,-839.5001 513.8861,-843 523.886,-846.5001 523.8861,-839.5001"/>
</g>
<!-- Node37306&#45;&gt;Node37306 -->
<g id="edge8" class="edge">
<title>Node37306&#45;&gt;Node37306</title>
<path fill="none" stroke="#191970" d="M579.9465,-532.0292C581.2858,-537.128 589.4703,-541 604.5,-541 627.9609,-541 634.7426,-531.5653 624.845,-522.7571"/>
<polygon fill="#191970" stroke="#191970" points="583.209,-533.3096 584.155,-522.7571 576.8348,-530.4164 583.209,-533.3096"/>
</g>
<!-- Node37307 -->
<g id="node4" class="node">
<title>Node37307</title>
<g id="a_node4"><a xlink:href="quickjs_8c.html#ade71a22dc56e7371392393df663b28b3" target="_top" xlink:title="async_func_resume">
<polygon fill="none" stroke="#ff0000" points="685,-493.5 685,-512.5 789,-512.5 789,-493.5 685,-493.5"/>
<text text-anchor="middle" x="737" y="-500.5" font-family="Helvetica,sans-Serif" font-size="10.00" fill="#000000">async_func_resume</text>
</a>
</g>
</g>
<!-- Node37306&#45;&gt;Node37307 -->
<g id="edge3" class="edge">
<title>Node37306&#45;&gt;Node37307</title>
<path fill="none" stroke="#191970" d="M656.0992,-509.1057C665.5376,-508.3934 675.3936,-507.6495 684.8479,-506.936"/>
<polygon fill="#191970" stroke="#191970" points="655.7685,-505.6206 646.0603,-509.8634 656.2954,-512.6008 655.7685,-505.6206"/>
</g>
<!-- Node37326 -->
<g id="node5" class="node">
<title>Node37326</title>
<g id="a_node5"><a xlink:href="quickjs_8c.html#a1a4c02a29525d5cb2085dd8bca3af350" target="_top" xlink:title="JS_Call">
<polygon fill="none" stroke="#ff0000" points="711.5,-531.5 711.5,-550.5 762.5,-550.5 762.5,-531.5 711.5,-531.5"/>
<text text-anchor="middle" x="737" y="-538.5" font-family="Helvetica,sans-Serif" font-size="10.00" fill="#000000">JS_Call</text>
</a>
</g>
</g>
<!-- Node37306&#45;&gt;Node37326 -->
<g id="edge4" class="edge">
<title>Node37306&#45;&gt;Node37326</title>
<path fill="none" stroke="#191970" d="M656.0992,-517.3029C676.9618,-521.2812 699.8649,-526.6238 715.9604,-531.4611"/>
<polygon fill="#191970" stroke="#191970" points="656.5267,-513.8231 646.0603,-515.4677 655.2679,-520.709 656.5267,-513.8231"/>
</g>
<!-- Node37326&#45;&gt;Node37306 -->
<g id="edge5" class="edge">
<title>Node37326&#45;&gt;Node37306</title>
<path fill="none" stroke="#191970" d="M701.1939,-539.5053C676.9671,-535.5454 645.7993,-528.6313 625.495,-522.5254"/>
<polygon fill="#191970" stroke="#191970" points="700.6876,-542.9684 711.0999,-541.0105 701.7393,-536.0479 700.6876,-542.9684"/>
</g>
<!-- Node37383 -->
<g id="node6" class="node">
<title>Node37383</title>
<g id="a_node6"><a xlink:href="quickjs_8c.html#a624282391413d4c5a030adbd8b77aa80" target="_top" xlink:title="internalize_json_property">
<polygon fill="none" stroke="#ff0000" points="825,-587.5 825,-606.5 950,-606.5 950,-587.5 825,-587.5"/>
<text text-anchor="middle" x="887.5" y="-594.5" font-family="Helvetica,sans-Serif" font-size="10.00" fill="#000000">internalize_json_property</text>
</a>
</g>
</g>
<!-- Node37326&#45;&gt;Node37383 -->
<g id="edge6" class="edge">
<title>Node37326&#45;&gt;Node37383</title>
<path fill="none" stroke="#191970" d="M772.1516,-554.0797C799.6181,-564.2998 837.1528,-578.2662 861.8445,-587.4538"/>
<polygon fill="#191970" stroke="#191970" points="773.1231,-550.7068 762.5303,-550.4996 770.6819,-557.2673 773.1231,-550.7068"/>
</g>
<!-- Node37383&#45;&gt;Node37383 -->
<g id="edge7" class="edge">
<title>Node37383&#45;&gt;Node37383</title>
<path fill="none" stroke="#191970" d="M859.5009,-615.6539C860.6712,-620.9368 870.0043,-625 887.5,-625 914.1602,-625 921.8666,-615.5653 910.6194,-606.7571"/>
<polygon fill="#191970" stroke="#191970" points="862.6403,-617.208 864.3806,-606.7571 856.5029,-613.8417 862.6403,-617.208"/>
</g>
<!-- Node37602 -->
<g id="node9" class="node">
<title>Node37602</title>
<g id="a_node9"><a xlink:href="quickjs_8c.html#ac6d5606ba25525b3a03981eefbe98e13" target="_top" xlink:title="js_function_bind">
<polygon fill="none" stroke="#000000" points="409,-277.5 409,-296.5 496,-296.5 496,-277.5 409,-277.5"/>
<text text-anchor="middle" x="452.5" y="-284.5" font-family="Helvetica,sans-Serif" font-size="10.00" fill="#000000">js_function_bind</text>
</a>
</g>
</g>
<!-- Node37908&#45;&gt;Node37602 -->
<g id="edge11" class="edge">
<title>Node37908&#45;&gt;Node37602</title>
<path fill="none" stroke="#191970" d="M323.7065,-287.6691C351.6436,-287.5239 383.7265,-287.3573 408.8827,-287.2266"/>
<polygon fill="#191970" stroke="#191970" points="323.6036,-284.1694 313.622,-287.7214 323.6401,-291.1694 323.6036,-284.1694"/>
</g>
<!-- Node37909&#45;&gt;Node37305 -->
<g id="edge16" class="edge">
<title>Node37909&#45;&gt;Node37305</title>
<path fill="none" stroke="#191970" d="M267.917,-671.7191C283.8774,-707.1293 323.3765,-783.952 381,-824 386.5899,-827.8849 392.9298,-830.9757 399.4697,-833.4345"/>
<polygon fill="#191970" stroke="#191970" points="271.1042,-670.272 263.8838,-662.5186 264.6932,-673.0824 271.1042,-670.272"/>
</g>
<!-- Node37909&#45;&gt;Node37383 -->
<g id="edge22" class="edge">
<title>Node37909&#45;&gt;Node37383</title>
<path fill="none" stroke="#191970" d="M355.2574,-646.8275C405.4823,-643.4003 468.1083,-638.8547 524,-634 629.6949,-624.8194 752.4363,-611.8419 824.8371,-603.9473"/>
<polygon fill="#191970" stroke="#191970" points="354.7998,-643.3504 345.0598,-647.5196 355.2739,-650.3344 354.7998,-643.3504"/>
</g>
<!-- Node37909&#45;&gt;Node37531 -->
<g id="edge19" class="edge">
<title>Node37909&#45;&gt;Node37531</title>
<path fill="none" stroke="#191970" d="M279.4729,-669.497C297.4464,-685.1852 324.3919,-709.9032 345,-734 363.2695,-755.3623 358.0006,-769.8398 381,-786 386.5699,-789.9136 392.8981,-793.0211 399.4319,-795.4885"/>
<polygon fill="#191970" stroke="#191970" points="281.2949,-666.4463 271.4373,-662.5632 276.7218,-671.7461 281.2949,-666.4463"/>
</g>
<!-- Node37910 -->
<g id="node12" class="node">
<title>Node37910</title>
<g id="a_node12"><a xlink:href="quickjs_8c.html#a160229a9daaaf70e287d6dadb69bc609" target="_top" xlink:title="JS_GetOwnPropertyNames">
<polygon fill="none" stroke="#ff0000" points="383.5,-719.5 383.5,-738.5 521.5,-738.5 521.5,-719.5 383.5,-719.5"/>
<text text-anchor="middle" x="452.5" y="-726.5" font-family="Helvetica,sans-Serif" font-size="10.00" fill="#000000">JS_GetOwnPropertyNames</text>
</a>
</g>
</g>
<!-- Node37909&#45;&gt;Node37910 -->
<g id="edge14" class="edge">
<title>Node37909&#45;&gt;Node37910</title>
<path fill="none" stroke="#191970" d="M286.505,-667.1914C310.6312,-679.6939 347.4926,-697.7694 381,-710 390.6523,-713.5232 401.2543,-716.6999 411.2699,-719.4025"/>
<polygon fill="#191970" stroke="#191970" points="288.0908,-664.071 277.6081,-662.5338 284.8442,-670.2726 288.0908,-664.071"/>
</g>
<!-- Node37549 -->
<g id="node13" class="node">
<title>Node37549</title>
<g id="a_node13"><a xlink:href="quickjs_8c.html#aa40a5354bee3b56e05a71244910bcc78" target="_top" xlink:title="build_for_in_iterator">
<polygon fill="none" stroke="#ff0000" points="402,-681.5 402,-700.5 503,-700.5 503,-681.5 402,-681.5"/>
<text text-anchor="middle" x="452.5" y="-688.5" font-family="Helvetica,sans-Serif" font-size="10.00" fill="#000000">build_for_in_iterator</text>
</a>
</g>
</g>
<!-- Node37909&#45;&gt;Node37549 -->
<g id="edge15" class="edge">
<title>Node37909&#45;&gt;Node37549</title>
<path fill="none" stroke="#191970" d="M318.4498,-664.5381C345.9057,-669.958 378.2405,-676.341 404.2734,-681.4799"/>
<polygon fill="#191970" stroke="#191970" points="319.0644,-661.092 308.5759,-662.589 317.7087,-667.9595 319.0644,-661.092"/>
</g>
<!-- Node37595 -->
<g id="node14" class="node">
<title>Node37595</title>
<g id="a_node14"><a xlink:href="quickjs_8c.html#ab2de4cc7a9e58c7a6220acf9e4769d62" target="_top" xlink:title="JS_ObjectDefineProperties">
<polygon fill="none" stroke="#ff0000" points="385,-757.5 385,-776.5 520,-776.5 520,-757.5 385,-757.5"/>
<text text-anchor="middle" x="452.5" y="-764.5" font-family="Helvetica,sans-Serif" font-size="10.00" fill="#000000">JS_ObjectDefineProperties</text>
</a>
</g>
</g>
<!-- Node37909&#45;&gt;Node37595 -->
<g id="edge17" class="edge">
<title>Node37909&#45;&gt;Node37595</title>
<path fill="none" stroke="#191970" d="M276.615,-669.7326C298.6145,-690.9618 339.4925,-727.297 381,-748 388.5858,-751.7836 397.0126,-754.8792 405.3425,-757.39"/>
<polygon fill="#191970" stroke="#191970" points="278.9873,-667.1568 269.3979,-662.6517 274.0849,-672.1535 278.9873,-667.1568"/>
</g>
<!-- Node37589 -->
<g id="node15" class="node">
<title>Node37589</title>
<g id="a_node15"><a xlink:href="quickjs_8c.html#ad4eec5e88dc04d884c28e0f09d9a81f5" target="_top" xlink:title="js_object_getOwnProperty\lDescriptors">
<polygon fill="none" stroke="#000000" points="387,-594 387,-624 518,-624 518,-594 387,-594"/>
<text text-anchor="start" x="395" y="-612" font-family="Helvetica,sans-Serif" font-size="10.00" fill="#000000">js_object_getOwnProperty</text>
<text text-anchor="middle" x="452.5" y="-601" font-family="Helvetica,sans-Serif" font-size="10.00" fill="#000000">Descriptors</text>
</a>
</g>
</g>
<!-- Node37909&#45;&gt;Node37589 -->
<g id="edge18" class="edge">
<title>Node37909&#45;&gt;Node37589</title>
<path fill="none" stroke="#191970" d="M311.7283,-641.1764C334.8657,-635.8878 362.4057,-629.593 386.9652,-623.9794"/>
<polygon fill="#191970" stroke="#191970" points="310.7383,-637.8123 301.7696,-643.4527 312.2981,-644.6363 310.7383,-637.8123"/>
</g>
<!-- Node37909&#45;&gt;Node37615 -->
<g id="edge20" class="edge">
<title>Node37909&#45;&gt;Node37615</title>
<path fill="none" stroke="#191970" d="M332.846,-639.5918C337.0953,-637.679 341.1858,-635.4945 345,-633 367.3175,-618.404 358.9914,-600.0576 381,-585 390.3616,-578.5951 401.7358,-574.2303 412.6328,-571.2598"/>
<polygon fill="#191970" stroke="#191970" points="331.3427,-636.4226 323.3352,-643.3603 333.9213,-642.9304 331.3427,-636.4226"/>
</g>
<!-- Node37909&#45;&gt;Node37904 -->
<g id="edge21" class="edge">
<title>Node37909&#45;&gt;Node37904</title>
<path fill="none" stroke="#191970" d="M336.8565,-638.8337C339.7277,-637.0978 342.4594,-635.1607 345,-633 376.8768,-605.8894 349.5147,-573.5643 381,-546 387.3781,-540.4161 395.22,-536.4486 403.3468,-533.6351"/>
<polygon fill="#191970" stroke="#191970" points="335.1629,-635.769 327.8762,-643.4603 338.3688,-641.9917 335.1629,-635.769"/>
</g>
<!-- Node37909&#45;&gt;Node37648 -->
<g id="edge23" class="edge">
<title>Node37909&#45;&gt;Node37648</title>
<path fill="none" stroke="#191970" d="M338.6966,-638.1448C340.9194,-636.5852 343.0303,-634.8748 345,-633 386.876,-593.14 341.2791,-550.008 381,-508 384.6139,-504.178 388.8441,-500.94 393.4097,-498.1969"/>
<polygon fill="#191970" stroke="#191970" points="336.499,-635.3752 329.6311,-643.4426 340.0309,-641.4188 336.499,-635.3752"/>
</g>
<!-- Node37670&#45;&gt;Node37306 -->
<g id="edge25" class="edge">
<title>Node37670&#45;&gt;Node37306</title>
<path fill="none" stroke="#191970" d="M314.9671,-353.9097C371.6,-346.5055 460.3488,-343.5049 524,-382 571.0536,-410.4572 594.5058,-477.9415 601.8719,-503.217"/>
<polygon fill="#191970" stroke="#191970" points="314.1983,-350.483 304.7795,-355.3344 315.1679,-357.4156 314.1983,-350.483"/>
</g>
<!-- Node37670&#45;&gt;Node37678 -->
<g id="edge26" class="edge">
<title>Node37670&#45;&gt;Node37678</title>
<path fill="none" stroke="#191970" d="M314.7898,-352.8997C346.9277,-346.3887 386.6896,-338.333 415.2129,-332.5543"/>
<polygon fill="#191970" stroke="#191970" points="313.7531,-349.5386 304.6472,-354.9546 315.1431,-356.3992 313.7531,-349.5386"/>
</g>
<!-- Node37588&#45;&gt;Node37589 -->
<g id="edge29" class="edge">
<title>Node37588&#45;&gt;Node37589</title>
<path fill="none" stroke="#191970" d="M336.0239,-608.3949C352.7992,-608.4821 370.433,-608.5737 386.7604,-608.6585"/>
<polygon fill="#191970" stroke="#191970" points="335.7273,-604.8934 325.7092,-608.3413 335.6908,-611.8933 335.7273,-604.8934"/>
</g>
<!-- Node37423&#45;&gt;Node37306 -->
<g id="edge42" class="edge">
<title>Node37423&#45;&gt;Node37306</title>
<path fill="none" stroke="#191970" d="M329.8946,-435.403C384.2663,-434.0902 460.829,-437.2667 524,-459 552.0076,-468.6357 579.5536,-490.5458 594.0347,-503.2986"/>
<polygon fill="#191970" stroke="#191970" points="329.5589,-431.9114 319.6681,-435.709 329.7683,-438.9083 329.5589,-431.9114"/>
</g>
<!-- Node37423&#45;&gt;Node37425 -->
<g id="edge43" class="edge">
<title>Node37423&#45;&gt;Node37425</title>
<path fill="none" stroke="#191970" d="M317.2633,-428.3986C349.4221,-421.8833 388.5684,-413.9524 416.4519,-408.3032"/>
<polygon fill="#191970" stroke="#191970" points="316.1967,-425.0435 307.0908,-430.4595 317.5867,-431.9041 316.1967,-425.0435"/>
</g>
</g>
</svg>
        <g id="navigator" transform="translate(0 0)" fill="#404254">
                <rect fill="#f2f5e9" fill-opacity="0.5" stroke="#606060" stroke-width=".5" x="0" y="0" width="60" height="60"/>
                <use id="zoomplus" xlink:href="#zoomPlus" x="17" y="9" onmousedown="handleZoom(evt,'in')"/>
                <use id="zoomminus" xlink:href="#zoomMin" x="42" y="9" onmousedown="handleZoom(evt,'out')"/>
                <use id="reset" xlink:href="#resetDef" x="30" y="36" onmousedown="handleReset()"/>
                <g id="arrowUp" xlink:href="#dirArrow" transform="translate(30 24)" onmousedown="handlePan(0,-1)">
                  <use xlink:href="#rim" fill="#404040">
                        <set attributeName="fill" to="#808080" begin="arrowUp.mouseover" end="arrowUp.mouseout"/>
                  </use>
                  <path fill="none" stroke="white" stroke-width="1.5" d="M0,-3.0v7 M-2.5,-0.5L0,-3.0L2.5,-0.5"/>
                </g>
                <g id="arrowRight" xlink:href="#dirArrow" transform="rotate(90) translate(36 -43)" onmousedown="handlePan(1,0)">
                  <use xlink:href="#rim" fill="#404040">
                        <set attributeName="fill" to="#808080" begin="arrowRight.mouseover" end="arrowRight.mouseout"/>
                  </use>
                  <path fill="none" stroke="white" stroke-width="1.5" d="M0,-3.0v7 M-2.5,-0.5L0,-3.0L2.5,-0.5"/>
                </g>
                <g id="arrowDown" xlink:href="#dirArrow" transform="rotate(180) translate(-30 -48)" onmousedown="handlePan(0,1)">
                  <use xlink:href="#rim" fill="#404040">
                        <set attributeName="fill" to="#808080" begin="arrowDown.mouseover" end="arrowDown.mouseout"/>
                  </use>
                  <path fill="none" stroke="white" stroke-width="1.5" d="M0,-3.0v7 M-2.5,-0.5L0,-3.0L2.5,-0.5"/>
                </g>
                <g id="arrowLeft" xlink:href="#dirArrow" transform="rotate(270) translate(-36 17)" onmousedown="handlePan(-1,0)">
                  <use xlink:href="#rim" fill="#404040">
                        <set attributeName="fill" to="#808080" begin="arrowLeft.mouseover" end="arrowLeft.mouseout"/>
                  </use>
                  <path fill="none" stroke="white" stroke-width="1.5" d="M0,-3.0v7 M-2.5,-0.5L0,-3.0L2.5,-0.5"/>
                </g>
        </g>
        <svg viewBox="0 0 15 15" width="100%" height="30px" preserveAspectRatio="xMaxYMin meet">
         <g id="arrow_out" transform="scale(0.3 0.3)">
          <a xlink:href="quickjs_8c_ad13892c0a0f11781b566808876658099_icgraph_org.svg" target="_base">
           <rect id="button" ry="5" rx="5" y="6" x="6" height="38" width="38"
                fill="#f2f5e9" fill-opacity="0.5" stroke="#606060" stroke-width="1.0"/>
           <path id="arrow"
             d="M 11.500037,31.436501 C 11.940474,20.09759 22.043105,11.32322 32.158766,21.979434 L 37.068811,17.246167 C 37.068811,17.246167 37.088388,32 37.088388,32 L 22.160133,31.978069 C 22.160133,31.978069 26.997745,27.140456 26.997745,27.140456 C 18.528582,18.264221 13.291696,25.230495 11.500037,31.436501 z"
             style="fill:#404040;"/>
          </a>
         </g>
        </svg>
</svg>
