<?xml version="1.0" encoding="UTF-8" standalone="no"?>
<!DOCTYPE svg PUBLIC "-//W3C//DTD SVG 1.1//EN"
 "http://www.w3.org/Graphics/SVG/1.1/DTD/svg11.dtd">
<!-- Generated by graphviz version 2.40.1 (20161225.0304)
 -->
<!-- Title: JS_NewObjectFromShape Pages: 1 -->
<!--zoomable 712 -->
<svg id="main" version="1.1" xmlns="http://www.w3.org/2000/svg" xmlns:xlink="http://www.w3.org/1999/xlink" xml:space="preserve" onload="init(evt)">
<style type="text/css"><![CDATA[
.edge:hover path { stroke: red; }
.edge:hover polygon { stroke: red; fill: red; }
]]></style>
<script type="text/javascript"><![CDATA[
var edges = document.getElementsByTagName('g');
if (edges && edges.length) {
  for (var i=0;i<edges.length;i++) {
    if (edges[i].id.substr(0,4)=='edge') {
      edges[i].setAttribute('class','edge');
    }
  }
}
]]></script>
        <defs>
                <circle id="rim" cx="0" cy="0" r="7"/>
                <circle id="rim2" cx="0" cy="0" r="3.5"/>
                <g id="zoomPlus">
                        <use xlink:href="#rim" fill="#404040">
                                <set attributeName="fill" to="#808080" begin="zoomplus.mouseover" end="zoomplus.mouseout"/>
                        </use>
                        <path d="M-4,0h8M0,-4v8" fill="none" stroke="white" stroke-width="1.5" pointer-events="none"/>
                </g>
                <g id="zoomMin">
                        <use xlink:href="#rim" fill="#404040">
                                <set attributeName="fill" to="#808080" begin="zoomminus.mouseover" end="zoomminus.mouseout"/>
                        </use>
                        <path d="M-4,0h8" fill="none" stroke="white" stroke-width="1.5" pointer-events="none"/>
                </g>
                <g id="dirArrow">
                        <path fill="none" stroke="white" stroke-width="1.5" d="M0,-3.0v7 M-2.5,-0.5L0,-3.0L2.5,-0.5"/>
                </g>
               <g id="resetDef">
                       <use xlink:href="#rim2" fill="#404040">
                               <set attributeName="fill" to="#808080" begin="reset.mouseover" end="reset.mouseout"/>
                       </use>
               </g>
        </defs>

<script type="text/javascript">
var viewWidth = 842;
var viewHeight = 712;
var sectionId = 'dynsection-397';
</script>
<script xlink:href="svgpan.js"/>
<svg id="graph" class="graph">
<g id="viewport">
<title>JS_NewObjectFromShape</title>
<!-- Node131294 -->
<g id="node1" class="node">
<title>Node131294</title>
<polygon fill="#bfbfbf" stroke="#000000" points="0,-589.5 0,-608.5 133,-608.5 133,-589.5 0,-589.5"/>
<text text-anchor="middle" x="66.5" y="-596.5" font-family="Helvetica,sans-Serif" font-size="10.00" fill="#000000">JS_NewObjectFromShape</text>
</g>
<!-- Node131295 -->
<g id="node2" class="node">
<title>Node131295</title>
<g id="a_node2"><a xlink:href="quickjs_8c.html#a9780456a71703c53244b88831bc8fb7a" target="_top" xlink:title="add_gc_object">
<polygon fill="none" stroke="#000000" points="461.5,-646.5 461.5,-665.5 541.5,-665.5 541.5,-646.5 461.5,-646.5"/>
<text text-anchor="middle" x="501.5" y="-653.5" font-family="Helvetica,sans-Serif" font-size="10.00" fill="#000000">add_gc_object</text>
</a>
</g>
</g>
<!-- Node131294&#45;&gt;Node131295 -->
<g id="edge1" class="edge">
<title>Node131294&#45;&gt;Node131295</title>
<path fill="none" stroke="#191970" d="M90.5084,-608.5391C111.0128,-616.2444 141.472,-626.6555 169,-632 267.8265,-651.1871 385.8621,-655.3804 451.3767,-656.0973"/>
<polygon fill="#191970" stroke="#191970" points="451.3995,-659.5975 461.4294,-656.1842 451.4601,-652.5978 451.3995,-659.5975"/>
</g>
<!-- Node131298 -->
<g id="node5" class="node">
<title>Node131298</title>
<g id="a_node5"><a xlink:href="quickjs_8c.html#a74547db03bf739a52c83a326b32db997" target="_top" xlink:title="add_property">
<polygon fill="none" stroke="#000000" points="170.5,-181.5 170.5,-200.5 243.5,-200.5 243.5,-181.5 170.5,-181.5"/>
<text text-anchor="middle" x="207" y="-188.5" font-family="Helvetica,sans-Serif" font-size="10.00" fill="#000000">add_property</text>
</a>
</g>
</g>
<!-- Node131294&#45;&gt;Node131298 -->
<g id="edge4" class="edge">
<title>Node131294&#45;&gt;Node131298</title>
<path fill="none" stroke="#191970" d="M69.8345,-589.317C88.0167,-536.5173 175.2933,-283.0737 200.2942,-210.473"/>
<polygon fill="#191970" stroke="#191970" points="203.6876,-211.3682 203.6344,-200.7735 197.069,-209.089 203.6876,-211.3682"/>
</g>
<!-- Node131312 -->
<g id="node18" class="node">
<title>Node131312</title>
<g id="a_node18"><a xlink:href="quickjs_8c.html#a80e54dcf9ac687d4ccc2f90273565f30" target="_top" xlink:title="js_free">
<polygon fill="none" stroke="#ff0000" points="630.5,-608.5 630.5,-627.5 676.5,-627.5 676.5,-608.5 630.5,-608.5"/>
<text text-anchor="middle" x="653.5" y="-615.5" font-family="Helvetica,sans-Serif" font-size="10.00" fill="#000000">js_free</text>
</a>
</g>
</g>
<!-- Node131294&#45;&gt;Node131312 -->
<g id="edge43" class="edge">
<title>Node131294&#45;&gt;Node131312</title>
<path fill="none" stroke="#191970" d="M133.2649,-601.161C258.9837,-605.2303 526.6134,-613.8929 620.2868,-616.925"/>
<polygon fill="#191970" stroke="#191970" points="620.216,-620.4244 630.324,-617.2498 620.4425,-613.4281 620.216,-620.4244"/>
</g>
<!-- Node131326 -->
<g id="node25" class="node">
<title>Node131326</title>
<g id="a_node25"><a xlink:href="quickjs_8c.html#a3a9f27520d96cf58aa5bd7359e9cddee" target="_top" xlink:title="js_free_shape">
<polygon fill="none" stroke="#000000" points="305,-266.5 305,-285.5 382,-285.5 382,-266.5 305,-266.5"/>
<text text-anchor="middle" x="343.5" y="-273.5" font-family="Helvetica,sans-Serif" font-size="10.00" fill="#000000">js_free_shape</text>
</a>
</g>
</g>
<!-- Node131294&#45;&gt;Node131326 -->
<g id="edge44" class="edge">
<title>Node131294&#45;&gt;Node131326</title>
<path fill="none" stroke="#191970" d="M133.1237,-601.3165C170.6746,-598.9956 215.7712,-589.5698 245,-561 294.647,-512.4724 258.1145,-474.5439 281,-409 295.7749,-366.6846 319.7049,-319.8123 333.2666,-294.5654"/>
<polygon fill="#191970" stroke="#191970" points="336.3759,-296.1736 338.0735,-285.7157 330.2248,-292.8325 336.3759,-296.1736"/>
</g>
<!-- Node131353 -->
<g id="node27" class="node">
<title>Node131353</title>
<g id="a_node27"><a xlink:href="quickjs_8h.html#a2050bc428da1c65ac7eb87c3fa3b0392" target="_top" xlink:title="JS_NewInt32">
<polygon fill="none" stroke="#000000" points="169,-532.5 169,-551.5 245,-551.5 245,-532.5 169,-532.5"/>
<text text-anchor="middle" x="207" y="-539.5" font-family="Helvetica,sans-Serif" font-size="10.00" fill="#000000">JS_NewInt32</text>
</a>
</g>
</g>
<!-- Node131294&#45;&gt;Node131353 -->
<g id="edge45" class="edge">
<title>Node131294&#45;&gt;Node131353</title>
<path fill="none" stroke="#191970" d="M90.0165,-589.4595C113.014,-580.1295 148.2404,-565.8384 174.0299,-555.3758"/>
<polygon fill="#191970" stroke="#191970" points="175.4561,-558.5743 183.4067,-551.5716 172.8245,-552.0878 175.4561,-558.5743"/>
</g>
<!-- Node131354 -->
<g id="node28" class="node">
<title>Node131354</title>
<g id="a_node28"><a xlink:href="quickjs_8c.html#a85321334e4bec66bfc03451897a03a3b" target="_top" xlink:title="js_trigger_gc">
<polygon fill="none" stroke="#000000" points="171,-684.5 171,-703.5 243,-703.5 243,-684.5 171,-684.5"/>
<text text-anchor="middle" x="207" y="-691.5" font-family="Helvetica,sans-Serif" font-size="10.00" fill="#000000">js_trigger_gc</text>
</a>
</g>
</g>
<!-- Node131294&#45;&gt;Node131354 -->
<g id="edge46" class="edge">
<title>Node131294&#45;&gt;Node131354</title>
<path fill="none" stroke="#191970" d="M79.9705,-608.6025C99.4477,-622.4246 136.6853,-648.6173 169,-670 173.4412,-672.9387 178.2152,-676.0164 182.829,-678.95"/>
<polygon fill="#191970" stroke="#191970" points="181.0487,-681.9651 191.3741,-684.3394 184.783,-676.0443 181.0487,-681.9651"/>
</g>
<!-- Node131296 -->
<g id="node3" class="node">
<title>Node131296</title>
<g id="a_node3"><a xlink:href="list_8h.html#a3a5d0733570b2fafc18f4c71a2968ea5" target="_top" xlink:title="list_add_tail">
<polygon fill="none" stroke="#000000" points="619.5,-646.5 619.5,-665.5 687.5,-665.5 687.5,-646.5 619.5,-646.5"/>
<text text-anchor="middle" x="653.5" y="-653.5" font-family="Helvetica,sans-Serif" font-size="10.00" fill="#000000">list_add_tail</text>
</a>
</g>
</g>
<!-- Node131295&#45;&gt;Node131296 -->
<g id="edge2" class="edge">
<title>Node131295&#45;&gt;Node131296</title>
<path fill="none" stroke="#191970" d="M541.8341,-656C562.6194,-656 588.0075,-656 609.3209,-656"/>
<polygon fill="#191970" stroke="#191970" points="609.4186,-659.5001 619.4186,-656 609.4185,-652.5001 609.4186,-659.5001"/>
</g>
<!-- Node131297 -->
<g id="node4" class="node">
<title>Node131297</title>
<g id="a_node4"><a xlink:href="list_8h.html#a16286d5bff74a27aec51a3134ffc7b43" target="_top" xlink:title="__list_add">
<polygon fill="none" stroke="#000000" points="759.5,-646.5 759.5,-665.5 820.5,-665.5 820.5,-646.5 759.5,-646.5"/>
<text text-anchor="middle" x="790" y="-653.5" font-family="Helvetica,sans-Serif" font-size="10.00" fill="#000000">__list_add</text>
</a>
</g>
</g>
<!-- Node131296&#45;&gt;Node131297 -->
<g id="edge3" class="edge">
<title>Node131296&#45;&gt;Node131297</title>
<path fill="none" stroke="#191970" d="M687.5926,-656C706.2007,-656 729.3731,-656 748.9665,-656"/>
<polygon fill="#191970" stroke="#191970" points="749.1367,-659.5001 759.1366,-656 749.1366,-652.5001 749.1367,-659.5001"/>
</g>
<!-- Node131299 -->
<g id="node6" class="node">
<title>Node131299</title>
<g id="a_node6"><a xlink:href="quickjs_8c.html#a3cadcaa2bd1e3f9359f1c006f396cfa0" target="_top" xlink:title="add_shape_property">
<polygon fill="none" stroke="#000000" points="291.5,-181.5 291.5,-200.5 395.5,-200.5 395.5,-181.5 291.5,-181.5"/>
<text text-anchor="middle" x="343.5" y="-188.5" font-family="Helvetica,sans-Serif" font-size="10.00" fill="#000000">add_shape_property</text>
</a>
</g>
</g>
<!-- Node131298&#45;&gt;Node131299 -->
<g id="edge5" class="edge">
<title>Node131298&#45;&gt;Node131299</title>
<path fill="none" stroke="#191970" d="M243.5795,-191C255.1697,-191 268.3255,-191 281.1971,-191"/>
<polygon fill="#191970" stroke="#191970" points="281.4236,-194.5001 291.4236,-191 281.4236,-187.5001 281.4236,-194.5001"/>
</g>
<!-- Node131304 -->
<g id="node10" class="node">
<title>Node131304</title>
<g id="a_node10"><a xlink:href="quickjs_8c.html#a82dbe63adeac7849406fd48d96f39f7b" target="_top" xlink:title="js_shape_hash_link">
<polygon fill="none" stroke="#000000" points="450.5,-.5 450.5,-19.5 552.5,-19.5 552.5,-.5 450.5,-.5"/>
<text text-anchor="middle" x="501.5" y="-7.5" font-family="Helvetica,sans-Serif" font-size="10.00" fill="#000000">js_shape_hash_link</text>
</a>
</g>
</g>
<!-- Node131298&#45;&gt;Node131304 -->
<g id="edge42" class="edge">
<title>Node131298&#45;&gt;Node131304</title>
<path fill="none" stroke="#191970" d="M210.5314,-181.4234C219.0965,-159.5297 243.1011,-105.5139 281,-77 327.6146,-41.9288 392.656,-25.0733 440.0141,-17.0606"/>
<polygon fill="#191970" stroke="#191970" points="440.8199,-20.4762 450.139,-15.436 439.7107,-13.5646 440.8199,-20.4762"/>
</g>
<!-- Node131322 -->
<g id="node21" class="node">
<title>Node131322</title>
<g id="a_node21"><a xlink:href="quickjs_8c.html#ac0c5dbb01d6082796c44b1c7f7c170f1" target="_top" xlink:title="find_hashed_shape_prop">
<polygon fill="none" stroke="#000000" points="281,-124.5 281,-143.5 406,-143.5 406,-124.5 281,-124.5"/>
<text text-anchor="middle" x="343.5" y="-131.5" font-family="Helvetica,sans-Serif" font-size="10.00" fill="#000000">find_hashed_shape_prop</text>
</a>
</g>
</g>
<!-- Node131298&#45;&gt;Node131322 -->
<g id="edge24" class="edge">
<title>Node131298&#45;&gt;Node131322</title>
<path fill="none" stroke="#191970" d="M229.847,-181.4595C252.0914,-172.1706 286.112,-157.9642 311.1369,-147.5143"/>
<polygon fill="#191970" stroke="#191970" points="312.6994,-150.6548 320.5784,-143.5716 310.002,-144.1953 312.6994,-150.6548"/>
</g>
<!-- Node131323 -->
<g id="node22" class="node">
<title>Node131323</title>
<g id="a_node22"><a xlink:href="quickjs_8c.html#a8e34657169da77ae6a386311351ed3de" target="_top" xlink:title="js_clone_shape">
<polygon fill="none" stroke="#000000" points="301.5,-418.5 301.5,-437.5 385.5,-437.5 385.5,-418.5 301.5,-418.5"/>
<text text-anchor="middle" x="343.5" y="-425.5" font-family="Helvetica,sans-Serif" font-size="10.00" fill="#000000">js_clone_shape</text>
</a>
</g>
</g>
<!-- Node131298&#45;&gt;Node131323 -->
<g id="edge27" class="edge">
<title>Node131298&#45;&gt;Node131323</title>
<path fill="none" stroke="#191970" d="M212.52,-200.5842C233.0551,-236.2385 305.2595,-361.6043 332.7569,-409.3471"/>
<polygon fill="#191970" stroke="#191970" points="329.8874,-411.3778 337.9113,-418.2965 335.9533,-407.8842 329.8874,-411.3778"/>
</g>
<!-- Node131325 -->
<g id="node24" class="node">
<title>Node131325</title>
<g id="a_node24"><a xlink:href="quickjs_8c.html#aed229eb80b3b03a2275471dee93c69d6" target="_top" xlink:title="js_dup_shape">
<polygon fill="none" stroke="#000000" points="305,-86.5 305,-105.5 382,-105.5 382,-86.5 305,-86.5"/>
<text text-anchor="middle" x="343.5" y="-93.5" font-family="Helvetica,sans-Serif" font-size="10.00" fill="#000000">js_dup_shape</text>
</a>
</g>
</g>
<!-- Node131298&#45;&gt;Node131325 -->
<g id="edge36" class="edge">
<title>Node131298&#45;&gt;Node131325</title>
<path fill="none" stroke="#191970" d="M213.8192,-181.316C225.6587,-165.2069 251.5858,-132.9098 281,-115 285.4271,-112.3044 290.2655,-109.9657 295.2272,-107.9424"/>
<polygon fill="#191970" stroke="#191970" points="296.653,-111.1479 304.8452,-104.4293 294.2513,-104.5727 296.653,-111.1479"/>
</g>
<!-- Node131298&#45;&gt;Node131326 -->
<g id="edge37" class="edge">
<title>Node131298&#45;&gt;Node131326</title>
<path fill="none" stroke="#191970" d="M222.3929,-200.5854C245.9463,-215.2523 291.1398,-243.3947 319.1642,-260.8458"/>
<polygon fill="#191970" stroke="#191970" points="317.615,-264.0043 327.9539,-266.3193 321.3153,-258.0622 317.615,-264.0043"/>
</g>
<!-- Node131300 -->
<g id="node7" class="node">
<title>Node131300</title>
<g id="a_node7"><a xlink:href="quickjs_8c.html#a288254c06a39c9fca740a7abdad2834e" target="_top" xlink:title="__JS_AtomIsTaggedInt">
<polygon fill="none" stroke="#000000" points="442,-152.5 442,-171.5 561,-171.5 561,-152.5 442,-152.5"/>
<text text-anchor="middle" x="501.5" y="-159.5" font-family="Helvetica,sans-Serif" font-size="10.00" fill="#000000">__JS_AtomIsTaggedInt</text>
</a>
</g>
</g>
<!-- Node131299&#45;&gt;Node131300 -->
<g id="edge6" class="edge">
<title>Node131299&#45;&gt;Node131300</title>
<path fill="none" stroke="#191970" d="M395.673,-181.4239C409.7683,-178.8368 425.1566,-176.0124 439.7236,-173.3387"/>
<polygon fill="#191970" stroke="#191970" points="440.4474,-176.7644 449.6512,-171.5165 439.1836,-169.8794 440.4474,-176.7644"/>
</g>
<!-- Node131301 -->
<g id="node8" class="node">
<title>Node131301</title>
<g id="a_node8"><a xlink:href="quickjs_8c.html#a643df594b75933007bcdbb071b5ea8c5" target="_top" xlink:title="get_shape_prop">
<polygon fill="none" stroke="#000000" points="610.5,-266.5 610.5,-285.5 696.5,-285.5 696.5,-266.5 610.5,-266.5"/>
<text text-anchor="middle" x="653.5" y="-273.5" font-family="Helvetica,sans-Serif" font-size="10.00" fill="#000000">get_shape_prop</text>
</a>
</g>
</g>
<!-- Node131299&#45;&gt;Node131301 -->
<g id="edge7" class="edge">
<title>Node131299&#45;&gt;Node131301</title>
<path fill="none" stroke="#191970" d="M378.1586,-200.5032C434.5816,-215.974 546.2494,-246.5926 608.6456,-263.7012"/>
<polygon fill="#191970" stroke="#191970" points="608.0207,-267.159 618.5903,-266.428 609.8718,-260.4082 608.0207,-267.159"/>
</g>
<!-- Node131302 -->
<g id="node9" class="node">
<title>Node131302</title>
<g id="a_node9"><a xlink:href="quickjs_8c.html#abbf44eaeace1104a6bef718fbf5700fe" target="_top" xlink:title="JS_DupAtom">
<polygon fill="none" stroke="#ff0000" points="464,-304.5 464,-323.5 539,-323.5 539,-304.5 464,-304.5"/>
<text text-anchor="middle" x="501.5" y="-311.5" font-family="Helvetica,sans-Serif" font-size="10.00" fill="#000000">JS_DupAtom</text>
</a>
</g>
</g>
<!-- Node131299&#45;&gt;Node131302 -->
<g id="edge8" class="edge">
<title>Node131299&#45;&gt;Node131302</title>
<path fill="none" stroke="#191970" d="M352.572,-200.5863C376.9104,-226.3034 441.8289,-294.8925 442,-295 445.8223,-297.4008 449.9747,-299.5231 454.2487,-301.3942"/>
<polygon fill="#191970" stroke="#191970" points="453.1309,-304.7151 463.7188,-305.0992 455.6814,-298.1963 453.1309,-304.7151"/>
</g>
<!-- Node131299&#45;&gt;Node131304 -->
<g id="edge9" class="edge">
<title>Node131299&#45;&gt;Node131304</title>
<path fill="none" stroke="#191970" d="M366.4955,-181.3912C379.5294,-174.97 395.316,-165.418 406,-153 433.0244,-121.5895 418.5472,-101.16 442,-67 452.6572,-51.4773 468.0849,-36.8484 480.5601,-26.2977"/>
<polygon fill="#191970" stroke="#191970" points="483.1142,-28.7298 488.6301,-19.6841 478.6771,-23.3156 483.1142,-28.7298"/>
</g>
<!-- Node131306 -->
<g id="node12" class="node">
<title>Node131306</title>
<g id="a_node12"><a xlink:href="quickjs_8c.html#ae5e76f4be6214208cc91f10a192fc810" target="_top" xlink:title="js_shape_hash_unlink">
<polygon fill="none" stroke="#000000" points="597,-114.5 597,-133.5 710,-133.5 710,-114.5 597,-114.5"/>
<text text-anchor="middle" x="653.5" y="-121.5" font-family="Helvetica,sans-Serif" font-size="10.00" fill="#000000">js_shape_hash_unlink</text>
</a>
</g>
</g>
<!-- Node131299&#45;&gt;Node131306 -->
<g id="edge11" class="edge">
<title>Node131299&#45;&gt;Node131306</title>
<path fill="none" stroke="#191970" d="M358.832,-181.325C377.6316,-169.9943 410.8455,-151.6732 442,-143 489.2474,-129.8466 544.5036,-125.2329 586.6864,-123.8354"/>
<polygon fill="#191970" stroke="#191970" points="586.9436,-127.3297 596.8421,-123.5523 586.7485,-120.3324 586.9436,-127.3297"/>
</g>
<!-- Node131307 -->
<g id="node13" class="node">
<title>Node131307</title>
<g id="a_node13"><a xlink:href="quickjs_8c.html#acab22c2945c4d609e57a2484feb68a96" target="_top" xlink:title="prop_hash_end">
<polygon fill="none" stroke="#000000" points="748.5,-380.5 748.5,-399.5 831.5,-399.5 831.5,-380.5 748.5,-380.5"/>
<text text-anchor="middle" x="790" y="-387.5" font-family="Helvetica,sans-Serif" font-size="10.00" fill="#000000">prop_hash_end</text>
</a>
</g>
</g>
<!-- Node131299&#45;&gt;Node131307 -->
<g id="edge13" class="edge">
<title>Node131299&#45;&gt;Node131307</title>
<path fill="none" stroke="#191970" d="M395.807,-186.3752C472.6877,-182.4119 617.1133,-186.0919 710,-257 748.9332,-286.7209 772.9117,-341.2922 783.5432,-370.4378"/>
<polygon fill="#191970" stroke="#191970" points="780.3702,-371.9684 786.9677,-380.2584 786.9798,-369.6636 780.3702,-371.9684"/>
</g>
<!-- Node131308 -->
<g id="node14" class="node">
<title>Node131308</title>
<g id="a_node14"><a xlink:href="quickjs_8c.html#aa80740ff93b724ea7e0c280826f4a25a" target="_top" xlink:title="resize_properties">
<polygon fill="none" stroke="#ff0000" points="456,-494.5 456,-513.5 547,-513.5 547,-494.5 456,-494.5"/>
<text text-anchor="middle" x="501.5" y="-501.5" font-family="Helvetica,sans-Serif" font-size="10.00" fill="#000000">resize_properties</text>
</a>
</g>
</g>
<!-- Node131299&#45;&gt;Node131308 -->
<g id="edge14" class="edge">
<title>Node131299&#45;&gt;Node131308</title>
<path fill="none" stroke="#191970" d="M356.2994,-200.6673C370.7848,-212.3482 393.9292,-233.3957 406,-257 445.1317,-333.5217 401.0173,-371.4535 442,-447 450.9528,-463.5034 466.3654,-478.0671 479.2608,-488.3422"/>
<polygon fill="#191970" stroke="#191970" points="477.203,-491.1745 487.2781,-494.4523 481.4461,-485.607 477.203,-491.1745"/>
</g>
<!-- Node131321 -->
<g id="node20" class="node">
<title>Node131321</title>
<g id="a_node20"><a xlink:href="quickjs_8c.html#a11f047846c1027dc6066a5f1b2ef292a" target="_top" xlink:title="shape_hash">
<polygon fill="none" stroke="#000000" points="467,-76.5 467,-95.5 536,-95.5 536,-76.5 467,-76.5"/>
<text text-anchor="middle" x="501.5" y="-83.5" font-family="Helvetica,sans-Serif" font-size="10.00" fill="#000000">shape_hash</text>
</a>
</g>
</g>
<!-- Node131299&#45;&gt;Node131321 -->
<g id="edge23" class="edge">
<title>Node131299&#45;&gt;Node131321</title>
<path fill="none" stroke="#191970" d="M362.9072,-181.352C375.8349,-174.4261 392.8068,-164.3406 406,-153 424.9014,-136.7528 421.8395,-124.6557 442,-110 447.569,-105.9516 453.9176,-102.459 460.3445,-99.4898"/>
<polygon fill="#191970" stroke="#191970" points="461.8935,-102.6348 469.7353,-95.5104 459.1622,-96.1896 461.8935,-102.6348"/>
</g>
<!-- Node131305 -->
<g id="node11" class="node">
<title>Node131305</title>
<g id="a_node11"><a xlink:href="quickjs_8c.html#a8291bf195606b5d1b0faed795b6dc3ff" target="_top" xlink:title="get_shape_hash">
<polygon fill="none" stroke="#000000" points="746,-38.5 746,-57.5 834,-57.5 834,-38.5 746,-38.5"/>
<text text-anchor="middle" x="790" y="-45.5" font-family="Helvetica,sans-Serif" font-size="10.00" fill="#000000">get_shape_hash</text>
</a>
</g>
</g>
<!-- Node131304&#45;&gt;Node131305 -->
<g id="edge10" class="edge">
<title>Node131304&#45;&gt;Node131305</title>
<path fill="none" stroke="#191970" d="M552.5919,-15.0364C594.8686,-19.4064 656.4506,-26.2393 710,-34 718.3245,-35.2064 727.1136,-36.6109 735.6987,-38.0555"/>
<polygon fill="#191970" stroke="#191970" points="735.1954,-41.5202 745.6431,-39.7603 736.3783,-34.6208 735.1954,-41.5202"/>
</g>
<!-- Node131306&#45;&gt;Node131305 -->
<g id="edge12" class="edge">
<title>Node131306&#45;&gt;Node131305</title>
<path fill="none" stroke="#191970" d="M670.7878,-114.3745C694.275,-101.2975 736.4698,-77.8043 763.8433,-62.5634"/>
<polygon fill="#191970" stroke="#191970" points="765.8181,-65.4699 772.8526,-57.5473 762.4129,-59.354 765.8181,-65.4699"/>
</g>
<!-- Node131308&#45;&gt;Node131296 -->
<g id="edge21" class="edge">
<title>Node131308&#45;&gt;Node131296</title>
<path fill="none" stroke="#191970" d="M505.7797,-513.6098C517.085,-537.918 550.128,-602.3755 597,-637 600.9045,-639.8842 605.2749,-642.3494 609.8096,-644.4522"/>
<polygon fill="#191970" stroke="#191970" points="608.669,-647.7664 619.2514,-648.2779 611.2977,-641.2787 608.669,-647.7664"/>
</g>
<!-- Node131308&#45;&gt;Node131307 -->
<g id="edge22" class="edge">
<title>Node131308&#45;&gt;Node131307</title>
<path fill="none" stroke="#191970" d="M547.3861,-509.4577C591.5954,-512.5764 659.0838,-511.5651 710,-485 742.8051,-467.8842 767.5772,-431.027 780.3451,-408.586"/>
<polygon fill="#191970" stroke="#191970" points="783.4872,-410.1347 785.2118,-399.6812 777.3447,-406.7776 783.4872,-410.1347"/>
</g>
<!-- Node131309 -->
<g id="node15" class="node">
<title>Node131309</title>
<g id="a_node15"><a xlink:href="quickjs_8c.html#a7da0cfa6f27af0e1b9599d7f359edbe2" target="_top" xlink:title="get_alloc_from_shape">
<polygon fill="none" stroke="#000000" points="597.5,-380.5 597.5,-399.5 709.5,-399.5 709.5,-380.5 597.5,-380.5"/>
<text text-anchor="middle" x="653.5" y="-387.5" font-family="Helvetica,sans-Serif" font-size="10.00" fill="#000000">get_alloc_from_shape</text>
</a>
</g>
</g>
<!-- Node131308&#45;&gt;Node131309 -->
<g id="edge15" class="edge">
<title>Node131308&#45;&gt;Node131309</title>
<path fill="none" stroke="#191970" d="M514.198,-494.4765C540.2857,-474.9108 600.1521,-430.0109 632.2501,-405.9374"/>
<polygon fill="#191970" stroke="#191970" points="634.6159,-408.5381 640.5159,-399.738 630.4159,-402.9381 634.6159,-408.5381"/>
</g>
<!-- Node131310 -->
<g id="node16" class="node">
<title>Node131310</title>
<g id="a_node16"><a xlink:href="quickjs_8c.html#a8b6c89e0f589df709eb31a92b7fac32a" target="_top" xlink:title="get_shape_from_alloc">
<polygon fill="none" stroke="#000000" points="597.5,-456.5 597.5,-475.5 709.5,-475.5 709.5,-456.5 597.5,-456.5"/>
<text text-anchor="middle" x="653.5" y="-463.5" font-family="Helvetica,sans-Serif" font-size="10.00" fill="#000000">get_shape_from_alloc</text>
</a>
</g>
</g>
<!-- Node131308&#45;&gt;Node131310 -->
<g id="edge17" class="edge">
<title>Node131308&#45;&gt;Node131310</title>
<path fill="none" stroke="#191970" d="M539.856,-494.411C559.8237,-489.4191 584.4295,-483.2676 605.6334,-477.9666"/>
<polygon fill="#191970" stroke="#191970" points="606.5673,-481.341 615.4198,-475.5201 604.8695,-474.55 606.5673,-481.341"/>
</g>
<!-- Node131311 -->
<g id="node17" class="node">
<title>Node131311</title>
<g id="a_node17"><a xlink:href="quickjs_8c.html#ab54e821a9b1b55dc16c4494bd410b698" target="_top" xlink:title="get_shape_size">
<polygon fill="none" stroke="#000000" points="611,-570.5 611,-589.5 696,-589.5 696,-570.5 611,-570.5"/>
<text text-anchor="middle" x="653.5" y="-577.5" font-family="Helvetica,sans-Serif" font-size="10.00" fill="#000000">get_shape_size</text>
</a>
</g>
</g>
<!-- Node131308&#45;&gt;Node131311 -->
<g id="edge18" class="edge">
<title>Node131308&#45;&gt;Node131311</title>
<path fill="none" stroke="#191970" d="M515.5372,-513.6866C533.71,-525.915 566.6546,-547.0369 597,-561 601.6404,-563.1352 606.5918,-565.1534 611.5618,-567.0203"/>
<polygon fill="#191970" stroke="#191970" points="610.4706,-570.3471 621.0653,-570.415 612.8254,-563.755 610.4706,-570.3471"/>
</g>
<!-- Node131308&#45;&gt;Node131312 -->
<g id="edge19" class="edge">
<title>Node131308&#45;&gt;Node131312</title>
<path fill="none" stroke="#191970" d="M508.5752,-513.5273C523.1027,-532.4537 558.2081,-575.0245 597,-599 604.2598,-603.487 612.7056,-607.0548 620.8199,-609.83"/>
<polygon fill="#191970" stroke="#191970" points="619.8626,-613.1976 630.451,-612.8306 621.9448,-606.5145 619.8626,-613.1976"/>
</g>
<!-- Node131314 -->
<g id="node19" class="node">
<title>Node131314</title>
<g id="a_node19"><a xlink:href="quickjs_8c.html#a78b7f6b85f2739b551ff54f16156128b" target="_top" xlink:title="js_malloc">
<polygon fill="none" stroke="#ff0000" points="624.5,-532.5 624.5,-551.5 682.5,-551.5 682.5,-532.5 624.5,-532.5"/>
<text text-anchor="middle" x="653.5" y="-539.5" font-family="Helvetica,sans-Serif" font-size="10.00" fill="#000000">js_malloc</text>
</a>
</g>
</g>
<!-- Node131308&#45;&gt;Node131314 -->
<g id="edge20" class="edge">
<title>Node131308&#45;&gt;Node131314</title>
<path fill="none" stroke="#191970" d="M539.856,-513.589C562.6858,-519.2964 591.5785,-526.5196 614.5178,-532.2545"/>
<polygon fill="#191970" stroke="#191970" points="613.7213,-535.663 624.2716,-534.6929 615.4191,-528.872 613.7213,-535.663"/>
</g>
<!-- Node131309&#45;&gt;Node131307 -->
<g id="edge16" class="edge">
<title>Node131309&#45;&gt;Node131307</title>
<path fill="none" stroke="#191970" d="M709.8078,-390C719.1988,-390 728.9011,-390 738.1734,-390"/>
<polygon fill="#191970" stroke="#191970" points="738.4199,-393.5001 748.4199,-390 738.4199,-386.5001 738.4199,-393.5001"/>
</g>
<!-- Node131322&#45;&gt;Node131305 -->
<g id="edge25" class="edge">
<title>Node131322&#45;&gt;Node131305</title>
<path fill="none" stroke="#191970" d="M387.8359,-124.384C394.2465,-121.9189 400.5202,-118.8398 406,-115 427.8388,-99.6971 418.4827,-79.5717 442,-67 491.3034,-40.6439 650.7572,-42.4377 735.6481,-45.4748"/>
<polygon fill="#191970" stroke="#191970" points="735.7432,-48.9808 745.8677,-45.8593 736.0064,-41.9857 735.7432,-48.9808"/>
</g>
<!-- Node131322&#45;&gt;Node131321 -->
<g id="edge26" class="edge">
<title>Node131322&#45;&gt;Node131321</title>
<path fill="none" stroke="#191970" d="M375.0939,-124.4018C399.5292,-116.9785 433.5666,-106.638 460.166,-98.5572"/>
<polygon fill="#191970" stroke="#191970" points="461.41,-101.8373 469.9608,-95.5815 459.3752,-95.1395 461.41,-101.8373"/>
</g>
<!-- Node131323&#45;&gt;Node131295 -->
<g id="edge28" class="edge">
<title>Node131323&#45;&gt;Node131295</title>
<path fill="none" stroke="#191970" d="M348.3295,-437.8481C361.5239,-464.3282 400.0096,-538.7848 442,-594 454.4455,-610.3651 470.7344,-627.0781 483.1221,-639.0219"/>
<polygon fill="#191970" stroke="#191970" points="480.9546,-641.7899 490.6196,-646.1303 485.7708,-636.7101 480.9546,-641.7899"/>
</g>
<!-- Node131323&#45;&gt;Node131301 -->
<g id="edge31" class="edge">
<title>Node131323&#45;&gt;Node131301</title>
<path fill="none" stroke="#191970" d="M368.4913,-418.4158C409.4974,-402.397 493.2738,-368.4341 561,-333 585.5928,-320.1331 612.4734,-303.2268 630.8875,-291.1751"/>
<polygon fill="#191970" stroke="#191970" points="633.0274,-293.9563 639.4438,-285.5254 629.1703,-288.1149 633.0274,-293.9563"/>
</g>
<!-- Node131323&#45;&gt;Node131302 -->
<g id="edge33" class="edge">
<title>Node131323&#45;&gt;Node131302</title>
<path fill="none" stroke="#191970" d="M351.8336,-418.3803C367.775,-400.4724 404.3625,-361.6949 442,-338 448.286,-334.0426 455.3347,-330.5184 462.3221,-327.4702"/>
<polygon fill="#191970" stroke="#191970" points="463.8091,-330.6433 471.735,-323.6126 461.1546,-324.1661 463.8091,-330.6433"/>
</g>
<!-- Node131323&#45;&gt;Node131309 -->
<g id="edge29" class="edge">
<title>Node131323&#45;&gt;Node131309</title>
<path fill="none" stroke="#191970" d="M385.524,-418.9247C402.934,-415.418 423.375,-411.6261 442,-409 490.3951,-402.1764 545.385,-397.3248 587.1614,-394.2327"/>
<polygon fill="#191970" stroke="#191970" points="587.4939,-397.7179 597.2145,-393.5036 586.9875,-390.7362 587.4939,-397.7179"/>
</g>
<!-- Node131323&#45;&gt;Node131310 -->
<g id="edge30" class="edge">
<title>Node131323&#45;&gt;Node131310</title>
<path fill="none" stroke="#191970" d="M385.524,-437.0753C402.934,-440.582 423.375,-444.3739 442,-447 490.3951,-453.8236 545.385,-458.6752 587.1614,-461.7673"/>
<polygon fill="#191970" stroke="#191970" points="586.9875,-465.2638 597.2145,-462.4964 587.4939,-458.2821 586.9875,-465.2638"/>
</g>
<!-- Node131323&#45;&gt;Node131311 -->
<g id="edge32" class="edge">
<title>Node131323&#45;&gt;Node131311</title>
<path fill="none" stroke="#191970" d="M348.3009,-437.8242C360.3669,-461.3497 394.4315,-520.9645 442,-548 490.8237,-575.7489 555.7659,-581.8808 600.7479,-582.2517"/>
<polygon fill="#191970" stroke="#191970" points="600.8828,-585.7517 610.879,-582.2411 600.8753,-578.7517 600.8828,-585.7517"/>
</g>
<!-- Node131323&#45;&gt;Node131314 -->
<g id="edge35" class="edge">
<title>Node131323&#45;&gt;Node131314</title>
<path fill="none" stroke="#191970" d="M350.0002,-437.7136C364.0469,-457.78 399.4269,-503.5547 442,-523 497.7264,-548.453 570.2254,-548.8674 614.2403,-546.0247"/>
<polygon fill="#191970" stroke="#191970" points="614.5368,-549.5124 624.2536,-545.2894 614.0241,-542.5312 614.5368,-549.5124"/>
</g>
<!-- Node131324 -->
<g id="node23" class="node">
<title>Node131324</title>
<g id="a_node23"><a xlink:href="quickjs_8h.html#a775522f2d084fc8fa0fcb33f390006b4" target="_top" xlink:title="JS_DupValue">
<polygon fill="none" stroke="#000000" points="463,-418.5 463,-437.5 540,-437.5 540,-418.5 463,-418.5"/>
<text text-anchor="middle" x="501.5" y="-425.5" font-family="Helvetica,sans-Serif" font-size="10.00" fill="#000000">JS_DupValue</text>
</a>
</g>
</g>
<!-- Node131323&#45;&gt;Node131324 -->
<g id="edge34" class="edge">
<title>Node131323&#45;&gt;Node131324</title>
<path fill="none" stroke="#191970" d="M385.8411,-428C406.4225,-428 431.2691,-428 452.6495,-428"/>
<polygon fill="#191970" stroke="#191970" points="452.8331,-431.5001 462.8331,-428 452.833,-424.5001 452.8331,-431.5001"/>
</g>
<!-- Node131327 -->
<g id="node26" class="node">
<title>Node131327</title>
<g id="a_node26"><a xlink:href="quickjs_8c.html#a6f921a6312ada5c7da7b485e24d37f54" target="_top" xlink:title="js_free_shape0">
<polygon fill="none" stroke="#ff0000" points="460,-266.5 460,-285.5 543,-285.5 543,-266.5 460,-266.5"/>
<text text-anchor="middle" x="501.5" y="-273.5" font-family="Helvetica,sans-Serif" font-size="10.00" fill="#000000">js_free_shape0</text>
</a>
</g>
</g>
<!-- Node131326&#45;&gt;Node131327 -->
<g id="edge38" class="edge">
<title>Node131326&#45;&gt;Node131327</title>
<path fill="none" stroke="#191970" d="M382.1511,-276C402.4992,-276 427.729,-276 449.7428,-276"/>
<polygon fill="#191970" stroke="#191970" points="449.9277,-279.5001 459.9276,-276 449.9276,-272.5001 449.9277,-279.5001"/>
</g>
<!-- Node131327&#45;&gt;Node131301 -->
<g id="edge40" class="edge">
<title>Node131327&#45;&gt;Node131301</title>
<path fill="none" stroke="#191970" d="M543.0347,-276C560.6859,-276 581.484,-276 600.2452,-276"/>
<polygon fill="#191970" stroke="#191970" points="600.4256,-279.5001 610.4256,-276 600.4256,-272.5001 600.4256,-279.5001"/>
</g>
<!-- Node131327&#45;&gt;Node131306 -->
<g id="edge41" class="edge">
<title>Node131327&#45;&gt;Node131306</title>
<path fill="none" stroke="#191970" d="M511.0083,-266.4917C536.1728,-241.3272 604.765,-172.735 636.7116,-140.7884"/>
<polygon fill="#191970" stroke="#191970" points="639.3991,-143.0507 643.9953,-133.5047 634.4493,-138.1009 639.3991,-143.0507"/>
</g>
<!-- Node131327&#45;&gt;Node131309 -->
<g id="edge39" class="edge">
<title>Node131327&#45;&gt;Node131309</title>
<path fill="none" stroke="#191970" d="M540.803,-285.5278C547.8008,-288.0556 554.821,-291.1783 561,-295 594.4046,-315.6607 624.3716,-350.9822 640.6442,-372.2434"/>
<polygon fill="#191970" stroke="#191970" points="637.959,-374.497 646.7498,-380.4108 643.5655,-370.3058 637.959,-374.497"/>
</g>
<!-- Node131355 -->
<g id="node29" class="node">
<title>Node131355</title>
<g id="a_node29"><a xlink:href="quickjs_8c.html#aeeea589ee4cec4bbc3145210f4cf6e42" target="_top" xlink:title="JS_RunGC">
<polygon fill="none" stroke="#ff0000" points="310,-684.5 310,-703.5 377,-703.5 377,-684.5 310,-684.5"/>
<text text-anchor="middle" x="343.5" y="-691.5" font-family="Helvetica,sans-Serif" font-size="10.00" fill="#000000">JS_RunGC</text>
</a>
</g>
</g>
<!-- Node131354&#45;&gt;Node131355 -->
<g id="edge47" class="edge">
<title>Node131354&#45;&gt;Node131355</title>
<path fill="none" stroke="#191970" d="M243.2211,-694C260.6003,-694 281.5627,-694 299.8187,-694"/>
<polygon fill="#191970" stroke="#191970" points="299.924,-697.5001 309.924,-694 299.9239,-690.5001 299.924,-697.5001"/>
</g>
<!-- Node131356 -->
<g id="node30" class="node">
<title>Node131356</title>
<g id="a_node30"><a xlink:href="quickjs_8c.html#ae09ca4f159971d3c1f1dafc8682ba04b" target="_top" xlink:title="gc_decref">
<polygon fill="none" stroke="#ff0000" points="472,-684.5 472,-703.5 531,-703.5 531,-684.5 472,-684.5"/>
<text text-anchor="middle" x="501.5" y="-691.5" font-family="Helvetica,sans-Serif" font-size="10.00" fill="#000000">gc_decref</text>
</a>
</g>
</g>
<!-- Node131355&#45;&gt;Node131356 -->
<g id="edge48" class="edge">
<title>Node131355&#45;&gt;Node131356</title>
<path fill="none" stroke="#191970" d="M377.0077,-694C401.6886,-694 435.3558,-694 461.456,-694"/>
<polygon fill="#191970" stroke="#191970" points="461.7698,-697.5001 471.7698,-694 461.7698,-690.5001 461.7698,-697.5001"/>
</g>
<!-- Node131356&#45;&gt;Node131296 -->
<g id="edge49" class="edge">
<title>Node131356&#45;&gt;Node131296</title>
<path fill="none" stroke="#191970" d="M531.168,-686.583C553.4166,-681.0208 584.2317,-673.3171 609.3676,-667.0331"/>
<polygon fill="#191970" stroke="#191970" points="610.5438,-670.3468 619.3964,-664.5259 608.846,-663.5558 610.5438,-670.3468"/>
</g>
</g>
</svg>
        <g id="navigator" transform="translate(0 0)" fill="#404254">
                <rect fill="#f2f5e9" fill-opacity="0.5" stroke="#606060" stroke-width=".5" x="0" y="0" width="60" height="60"/>
                <use id="zoomplus" xlink:href="#zoomPlus" x="17" y="9" onmousedown="handleZoom(evt,'in')"/>
                <use id="zoomminus" xlink:href="#zoomMin" x="42" y="9" onmousedown="handleZoom(evt,'out')"/>
                <use id="reset" xlink:href="#resetDef" x="30" y="36" onmousedown="handleReset()"/>
                <g id="arrowUp" xlink:href="#dirArrow" transform="translate(30 24)" onmousedown="handlePan(0,-1)">
                  <use xlink:href="#rim" fill="#404040">
                        <set attributeName="fill" to="#808080" begin="arrowUp.mouseover" end="arrowUp.mouseout"/>
                  </use>
                  <path fill="none" stroke="white" stroke-width="1.5" d="M0,-3.0v7 M-2.5,-0.5L0,-3.0L2.5,-0.5"/>
                </g>
                <g id="arrowRight" xlink:href="#dirArrow" transform="rotate(90) translate(36 -43)" onmousedown="handlePan(1,0)">
                  <use xlink:href="#rim" fill="#404040">
                        <set attributeName="fill" to="#808080" begin="arrowRight.mouseover" end="arrowRight.mouseout"/>
                  </use>
                  <path fill="none" stroke="white" stroke-width="1.5" d="M0,-3.0v7 M-2.5,-0.5L0,-3.0L2.5,-0.5"/>
                </g>
                <g id="arrowDown" xlink:href="#dirArrow" transform="rotate(180) translate(-30 -48)" onmousedown="handlePan(0,1)">
                  <use xlink:href="#rim" fill="#404040">
                        <set attributeName="fill" to="#808080" begin="arrowDown.mouseover" end="arrowDown.mouseout"/>
                  </use>
                  <path fill="none" stroke="white" stroke-width="1.5" d="M0,-3.0v7 M-2.5,-0.5L0,-3.0L2.5,-0.5"/>
                </g>
                <g id="arrowLeft" xlink:href="#dirArrow" transform="rotate(270) translate(-36 17)" onmousedown="handlePan(-1,0)">
                  <use xlink:href="#rim" fill="#404040">
                        <set attributeName="fill" to="#808080" begin="arrowLeft.mouseover" end="arrowLeft.mouseout"/>
                  </use>
                  <path fill="none" stroke="white" stroke-width="1.5" d="M0,-3.0v7 M-2.5,-0.5L0,-3.0L2.5,-0.5"/>
                </g>
        </g>
        <svg viewBox="0 0 15 15" width="100%" height="30px" preserveAspectRatio="xMaxYMin meet">
         <g id="arrow_out" transform="scale(0.3 0.3)">
          <a xlink:href="quickjs_8c_a030c2e98b1775a7e3bdd13be1400b1fe_cgraph_org.svg" target="_base">
           <rect id="button" ry="5" rx="5" y="6" x="6" height="38" width="38"
                fill="#f2f5e9" fill-opacity="0.5" stroke="#606060" stroke-width="1.0"/>
           <path id="arrow"
             d="M 11.500037,31.436501 C 11.940474,20.09759 22.043105,11.32322 32.158766,21.979434 L 37.068811,17.246167 C 37.068811,17.246167 37.088388,32 37.088388,32 L 22.160133,31.978069 C 22.160133,31.978069 26.997745,27.140456 26.997745,27.140456 C 18.528582,18.264221 13.291696,25.230495 11.500037,31.436501 z"
             style="fill:#404040;"/>
          </a>
         </g>
        </svg>
</svg>
