<?xml version="1.0" encoding="UTF-8" standalone="no"?>
<!DOCTYPE svg PUBLIC "-//W3C//DTD SVG 1.1//EN"
 "http://www.w3.org/Graphics/SVG/1.1/DTD/svg11.dtd">
<!-- Generated by graphviz version 2.40.1 (20161225.0304)
 -->
<!-- Title: JS_SetPrivateField Pages: 1 -->
<svg width="690pt" height="287pt"
 viewBox="0.00 0.00 690.00 287.00" xmlns="http://www.w3.org/2000/svg" xmlns:xlink="http://www.w3.org/1999/xlink">
<g id="graph0" class="graph" transform="scale(1 1) rotate(0) translate(4 283)">
<title>JS_SetPrivateField</title>
<!-- Node182943 -->
<g id="node1" class="node">
<title>Node182943</title>
<polygon fill="#bfbfbf" stroke="#000000" points="0,-126.5 0,-145.5 101,-145.5 101,-126.5 0,-126.5"/>
<text text-anchor="middle" x="50.5" y="-133.5" font-family="Helvetica,sans-Serif" font-size="10.00" fill="#000000">JS_SetPrivateField</text>
</g>
<!-- Node182944 -->
<g id="node2" class="node">
<title>Node182944</title>
<g id="a_node2"><a xlink:href="quickjs_8c.html#a06b76f5124fd985e35f4c652fd018d6d" target="_top" xlink:title="find_own_property">
<polygon fill="none" stroke="#000000" points="169,-240.5 169,-259.5 265,-259.5 265,-240.5 169,-240.5"/>
<text text-anchor="middle" x="217" y="-247.5" font-family="Helvetica,sans-Serif" font-size="10.00" fill="#000000">find_own_property</text>
</a>
</g>
</g>
<!-- Node182943&#45;&gt;Node182944 -->
<g id="edge1" class="edge">
<title>Node182943&#45;&gt;Node182944</title>
<path fill="none" stroke="#191970" d="M57.1523,-145.7078C70.2674,-164.1152 101.3058,-204.1971 137,-226 144.2932,-230.4549 152.4686,-234.1306 160.7333,-237.1498"/>
<polygon fill="#191970" stroke="#191970" points="159.835,-240.54 170.4289,-240.3998 162.0598,-233.903 159.835,-240.54"/>
</g>
<!-- Node182947 -->
<g id="node5" class="node">
<title>Node182947</title>
<g id="a_node5"><a xlink:href="quickjs_8h.html#afaa20c47565bc704c6c85f3d77254e7d" target="_top" xlink:title="JS_FreeValue">
<polygon fill="none" stroke="#000000" points="337,-101.5 337,-120.5 415,-120.5 415,-101.5 337,-101.5"/>
<text text-anchor="middle" x="376" y="-108.5" font-family="Helvetica,sans-Serif" font-size="10.00" fill="#000000">JS_FreeValue</text>
</a>
</g>
</g>
<!-- Node182943&#45;&gt;Node182947 -->
<g id="edge4" class="edge">
<title>Node182943&#45;&gt;Node182947</title>
<path fill="none" stroke="#191970" d="M60.6457,-145.6298C75.8245,-159.2994 105.9916,-183.702 137,-193 205.1148,-213.4246 231.5583,-220.8239 297,-193 327.3103,-180.1129 351.6298,-149.2667 364.9176,-129.2968"/>
<polygon fill="#191970" stroke="#191970" points="367.9485,-131.0537 370.3807,-120.7418 362.0488,-127.2862 367.9485,-131.0537"/>
</g>
<!-- Node182983 -->
<g id="node8" class="node">
<title>Node182983</title>
<g id="a_node8"><a xlink:href="quickjs_8c.html#a11498940707b6928b86da6844ef8f2a1" target="_top" xlink:title="js_symbol_to_atom">
<polygon fill="none" stroke="#000000" points="166.5,-164.5 166.5,-183.5 267.5,-183.5 267.5,-164.5 166.5,-164.5"/>
<text text-anchor="middle" x="217" y="-171.5" font-family="Helvetica,sans-Serif" font-size="10.00" fill="#000000">js_symbol_to_atom</text>
</a>
</g>
</g>
<!-- Node182943&#45;&gt;Node182983 -->
<g id="edge7" class="edge">
<title>Node182943&#45;&gt;Node182983</title>
<path fill="none" stroke="#191970" d="M92.515,-145.589C114.6844,-150.6487 142.0732,-156.8996 165.511,-162.2488"/>
<polygon fill="#191970" stroke="#191970" points="164.759,-165.6671 175.2871,-164.4799 166.3166,-158.8425 164.759,-165.6671"/>
</g>
<!-- Node182984 -->
<g id="node9" class="node">
<title>Node182984</title>
<g id="a_node9"><a xlink:href="quickjs_8c.html#a726b00d108e0a0f4d958c36c2e426a64" target="_top" xlink:title="JS_ThrowTypeErrorNotAnObject">
<polygon fill="none" stroke="#000000" points="137,-126.5 137,-145.5 297,-145.5 297,-126.5 137,-126.5"/>
<text text-anchor="middle" x="217" y="-133.5" font-family="Helvetica,sans-Serif" font-size="10.00" fill="#000000">JS_ThrowTypeErrorNotAnObject</text>
</a>
</g>
</g>
<!-- Node182943&#45;&gt;Node182984 -->
<g id="edge8" class="edge">
<title>Node182943&#45;&gt;Node182984</title>
<path fill="none" stroke="#191970" d="M101.3602,-136C109.4024,-136 117.9224,-136 126.5463,-136"/>
<polygon fill="#191970" stroke="#191970" points="126.6953,-139.5001 136.6953,-136 126.6952,-132.5001 126.6953,-139.5001"/>
</g>
<!-- Node182985 -->
<g id="node10" class="node">
<title>Node182985</title>
<g id="a_node10"><a xlink:href="quickjs_8c.html#abda92b710bb8f585930b1072d9d69917" target="_top" xlink:title="JS_ThrowTypeErrorNotASymbol">
<polygon fill="none" stroke="#000000" points="137.5,-88.5 137.5,-107.5 296.5,-107.5 296.5,-88.5 137.5,-88.5"/>
<text text-anchor="middle" x="217" y="-95.5" font-family="Helvetica,sans-Serif" font-size="10.00" fill="#000000">JS_ThrowTypeErrorNotASymbol</text>
</a>
</g>
</g>
<!-- Node182943&#45;&gt;Node182985 -->
<g id="edge9" class="edge">
<title>Node182943&#45;&gt;Node182985</title>
<path fill="none" stroke="#191970" d="M92.515,-126.411C114.6844,-121.3513 142.0732,-115.1004 165.511,-109.7512"/>
<polygon fill="#191970" stroke="#191970" points="166.3166,-113.1575 175.2871,-107.5201 164.759,-106.3329 166.3166,-113.1575"/>
</g>
<!-- Node182986 -->
<g id="node11" class="node">
<title>Node182986</title>
<g id="a_node11"><a xlink:href="quickjs_8c.html#a26cfb2f387fcd9d8046c1f7200607ea5" target="_top" xlink:title="JS_ThrowTypeErrorPrivate\lNotFound">
<polygon fill="none" stroke="#000000" points="150,-39 150,-69 284,-69 284,-39 150,-39"/>
<text text-anchor="start" x="158" y="-57" font-family="Helvetica,sans-Serif" font-size="10.00" fill="#000000">JS_ThrowTypeErrorPrivate</text>
<text text-anchor="middle" x="217" y="-46" font-family="Helvetica,sans-Serif" font-size="10.00" fill="#000000">NotFound</text>
</a>
</g>
</g>
<!-- Node182943&#45;&gt;Node182986 -->
<g id="edge10" class="edge">
<title>Node182943&#45;&gt;Node182986</title>
<path fill="none" stroke="#191970" d="M62.736,-126.3287C78.925,-113.9217 108.7243,-92.4073 137,-79 141.8484,-76.7011 146.9598,-74.5457 152.158,-72.5403"/>
<polygon fill="#191970" stroke="#191970" points="153.3836,-75.8189 161.5704,-69.0938 150.9766,-69.2457 153.3836,-75.8189"/>
</g>
<!-- Node182987 -->
<g id="node12" class="node">
<title>Node182987</title>
<g id="a_node12"><a xlink:href="quickjs_8c.html#a0ec52a675282f321a6f42aa1298a53fe" target="_top" xlink:title="set_value">
<polygon fill="none" stroke="#000000" points="187.5,-.5 187.5,-19.5 246.5,-19.5 246.5,-.5 187.5,-.5"/>
<text text-anchor="middle" x="217" y="-7.5" font-family="Helvetica,sans-Serif" font-size="10.00" fill="#000000">set_value</text>
</a>
</g>
</g>
<!-- Node182943&#45;&gt;Node182987 -->
<g id="edge11" class="edge">
<title>Node182943&#45;&gt;Node182987</title>
<path fill="none" stroke="#191970" d="M55.4731,-126.2161C66.8196,-104.9374 96.7773,-54.3334 137,-29 149.0319,-21.422 163.8124,-16.8646 177.381,-14.1245"/>
<polygon fill="#191970" stroke="#191970" points="178.2073,-17.5332 187.4552,-12.3634 177.0018,-10.6378 178.2073,-17.5332"/>
</g>
<!-- Node182945 -->
<g id="node3" class="node">
<title>Node182945</title>
<g id="a_node3"><a xlink:href="quickjs_8c.html#a643df594b75933007bcdbb071b5ea8c5" target="_top" xlink:title="get_shape_prop">
<polygon fill="none" stroke="#000000" points="333,-259.5 333,-278.5 419,-278.5 419,-259.5 333,-259.5"/>
<text text-anchor="middle" x="376" y="-266.5" font-family="Helvetica,sans-Serif" font-size="10.00" fill="#000000">get_shape_prop</text>
</a>
</g>
</g>
<!-- Node182944&#45;&gt;Node182945 -->
<g id="edge2" class="edge">
<title>Node182944&#45;&gt;Node182945</title>
<path fill="none" stroke="#191970" d="M265.1367,-255.7522C283.3371,-257.9271 304.1494,-260.4141 322.789,-262.6415"/>
<polygon fill="#191970" stroke="#191970" points="322.5457,-266.1372 332.8904,-263.8485 323.3764,-259.1867 322.5457,-266.1372"/>
</g>
<!-- Node182946 -->
<g id="node4" class="node">
<title>Node182946</title>
<g id="a_node4"><a xlink:href="quickjs_8c.html#acab22c2945c4d609e57a2484feb68a96" target="_top" xlink:title="prop_hash_end">
<polygon fill="none" stroke="#000000" points="334.5,-221.5 334.5,-240.5 417.5,-240.5 417.5,-221.5 334.5,-221.5"/>
<text text-anchor="middle" x="376" y="-228.5" font-family="Helvetica,sans-Serif" font-size="10.00" fill="#000000">prop_hash_end</text>
</a>
</g>
</g>
<!-- Node182944&#45;&gt;Node182946 -->
<g id="edge3" class="edge">
<title>Node182944&#45;&gt;Node182946</title>
<path fill="none" stroke="#191970" d="M265.1367,-244.2478C283.8863,-242.0073 305.4076,-239.4356 324.4701,-237.1577"/>
<polygon fill="#191970" stroke="#191970" points="324.9653,-240.6235 334.4793,-235.9616 324.1346,-233.6729 324.9653,-240.6235"/>
</g>
<!-- Node182948 -->
<g id="node6" class="node">
<title>Node182948</title>
<g id="a_node6"><a xlink:href="quickjs_8c.html#aa059f309c30fd5166d16c82a97973146" target="_top" xlink:title="__JS_FreeValue">
<polygon fill="none" stroke="#000000" points="455,-101.5 455,-120.5 544,-120.5 544,-101.5 455,-101.5"/>
<text text-anchor="middle" x="499.5" y="-108.5" font-family="Helvetica,sans-Serif" font-size="10.00" fill="#000000">__JS_FreeValue</text>
</a>
</g>
</g>
<!-- Node182947&#45;&gt;Node182948 -->
<g id="edge5" class="edge">
<title>Node182947&#45;&gt;Node182948</title>
<path fill="none" stroke="#191970" d="M415.0762,-111C424.412,-111 434.5507,-111 444.4566,-111"/>
<polygon fill="#191970" stroke="#191970" points="444.6517,-114.5001 454.6517,-111 444.6517,-107.5001 444.6517,-114.5001"/>
</g>
<!-- Node182949 -->
<g id="node7" class="node">
<title>Node182949</title>
<g id="a_node7"><a xlink:href="quickjs_8c.html#ab1ea3fad7d138be12144a38be4d36423" target="_top" xlink:title="__JS_FreeValueRT">
<polygon fill="none" stroke="#ff0000" points="580,-101.5 580,-120.5 682,-120.5 682,-101.5 580,-101.5"/>
<text text-anchor="middle" x="631" y="-108.5" font-family="Helvetica,sans-Serif" font-size="10.00" fill="#000000">__JS_FreeValueRT</text>
</a>
</g>
</g>
<!-- Node182948&#45;&gt;Node182949 -->
<g id="edge6" class="edge">
<title>Node182948&#45;&gt;Node182949</title>
<path fill="none" stroke="#191970" d="M544.0199,-111C552.2672,-111 561.0138,-111 569.6583,-111"/>
<polygon fill="#191970" stroke="#191970" points="569.7233,-114.5001 579.7233,-111 569.7232,-107.5001 569.7233,-114.5001"/>
</g>
<!-- Node182987&#45;&gt;Node182947 -->
<g id="edge12" class="edge">
<title>Node182987&#45;&gt;Node182947</title>
<path fill="none" stroke="#191970" d="M246.6122,-12.947C262.3763,-15.4941 281.6262,-20.226 297,-29 325.1809,-45.0832 349.7013,-74.2527 363.67,-93.1154"/>
<polygon fill="#191970" stroke="#191970" points="360.9745,-95.3624 369.6495,-101.4448 366.661,-91.2802 360.9745,-95.3624"/>
</g>
</g>
</svg>
