<?xml version="1.0" encoding="UTF-8" standalone="no"?>
<!DOCTYPE svg PUBLIC "-//W3C//DTD SVG 1.1//EN"
 "http://www.w3.org/Graphics/SVG/1.1/DTD/svg11.dtd">
<!-- Generated by graphviz version 2.40.1 (20161225.0304)
 -->
<!-- Title: JS_AddIntrinsicDate Pages: 1 -->
<svg width="532pt" height="28pt"
 viewBox="0.00 0.00 532.00 28.00" xmlns="http://www.w3.org/2000/svg" xmlns:xlink="http://www.w3.org/1999/xlink">
<g id="graph0" class="graph" transform="scale(1 1) rotate(0) translate(4 24)">
<title>JS_AddIntrinsicDate</title>
<!-- Node471462 -->
<g id="node1" class="node">
<title>Node471462</title>
<polygon fill="#bfbfbf" stroke="#000000" points="0,-.5 0,-19.5 107,-19.5 107,-.5 0,-.5"/>
<text text-anchor="middle" x="53.5" y="-7.5" font-family="Helvetica,sans-Serif" font-size="10.00" fill="#000000">JS_AddIntrinsicDate</text>
</g>
<!-- Node471463 -->
<g id="node2" class="node">
<title>Node471463</title>
<g id="a_node2"><a xlink:href="quickjs_8c.html#ad8aedb643b8753b7a15f6cb2df61945e" target="_top" xlink:title="JS_NewContext">
<polygon fill="none" stroke="#000000" points="143,-.5 143,-19.5 232,-19.5 232,-.5 143,-.5"/>
<text text-anchor="middle" x="187.5" y="-7.5" font-family="Helvetica,sans-Serif" font-size="10.00" fill="#000000">JS_NewContext</text>
</a>
</g>
</g>
<!-- Node471462&#45;&gt;Node471463 -->
<g id="edge1" class="edge">
<title>Node471462&#45;&gt;Node471463</title>
<path fill="none" stroke="#191970" d="M117.2847,-10C125.9061,-10 134.5987,-10 142.7897,-10"/>
<polygon fill="#191970" stroke="#191970" points="117.2309,-6.5001 107.2308,-10 117.2308,-13.5001 117.2309,-6.5001"/>
</g>
<!-- Node471464 -->
<g id="node3" class="node">
<title>Node471464</title>
<g id="a_node3"><a xlink:href="classqjs_1_1Context.html#a4392a23648acfc4bf6b445336efb5007" target="_top" xlink:title="qjs::Context::Context">
<polygon fill="none" stroke="#000000" points="268,-.5 268,-19.5 378,-19.5 378,-.5 268,-.5"/>
<text text-anchor="middle" x="323" y="-7.5" font-family="Helvetica,sans-Serif" font-size="10.00" fill="#000000">qjs::Context::Context</text>
</a>
</g>
</g>
<!-- Node471463&#45;&gt;Node471464 -->
<g id="edge2" class="edge">
<title>Node471463&#45;&gt;Node471464</title>
<path fill="none" stroke="#191970" d="M242.3476,-10C250.7739,-10 259.4767,-10 267.9083,-10"/>
<polygon fill="#191970" stroke="#191970" points="242.2433,-6.5001 232.2433,-10 242.2433,-13.5001 242.2433,-6.5001"/>
</g>
<!-- Node471465 -->
<g id="node4" class="node">
<title>Node471465</title>
<g id="a_node4"><a xlink:href="classqjs_1_1Context.html#af725fb8083d8c33a37198d6acaf1a836" target="_top" xlink:title="qjs::Context::Context">
<polygon fill="none" stroke="#ff0000" points="414,-.5 414,-19.5 524,-19.5 524,-.5 414,-.5"/>
<text text-anchor="middle" x="469" y="-7.5" font-family="Helvetica,sans-Serif" font-size="10.00" fill="#000000">qjs::Context::Context</text>
</a>
</g>
</g>
<!-- Node471464&#45;&gt;Node471465 -->
<g id="edge3" class="edge">
<title>Node471464&#45;&gt;Node471465</title>
<path fill="none" stroke="#191970" d="M388.4101,-10C396.8647,-10 405.4567,-10 413.7256,-10"/>
<polygon fill="#191970" stroke="#191970" points="388.1964,-6.5001 378.1963,-10 388.1963,-13.5001 388.1964,-6.5001"/>
</g>
</g>
</svg>
