<?xml version="1.0" encoding="UTF-8" standalone="no"?>
<!DOCTYPE svg PUBLIC "-//W3C//DTD SVG 1.1//EN"
 "http://www.w3.org/Graphics/SVG/1.1/DTD/svg11.dtd">
<!-- Generated by graphviz version 2.40.1 (20161225.0304)
 -->
<!-- Title: JS_SetPropertyFunctionList Pages: 1 -->
<svg width="1076pt" height="398pt"
 viewBox="0.00 0.00 1076.00 398.00" xmlns="http://www.w3.org/2000/svg" xmlns:xlink="http://www.w3.org/1999/xlink">
<g id="graph0" class="graph" transform="scale(1 1) rotate(0) translate(4 394)">
<title>JS_SetPropertyFunctionList</title>
<!-- Node88555 -->
<g id="node1" class="node">
<title>Node88555</title>
<polygon fill="#bfbfbf" stroke="#000000" points="0,-257.5 0,-276.5 139,-276.5 139,-257.5 0,-257.5"/>
<text text-anchor="middle" x="69.5" y="-264.5" font-family="Helvetica,sans-Serif" font-size="10.00" fill="#000000">JS_SetPropertyFunctionList</text>
</g>
<!-- Node88556 -->
<g id="node2" class="node">
<title>Node88556</title>
<g id="a_node2"><a xlink:href="quickjs_8c.html#ae8e62d181b34d2e7bdda0b099c0880f5" target="_top" xlink:title="find_atom">
<polygon fill="none" stroke="#000000" points="221.5,-304.5 221.5,-323.5 280.5,-323.5 280.5,-304.5 221.5,-304.5"/>
<text text-anchor="middle" x="251" y="-311.5" font-family="Helvetica,sans-Serif" font-size="10.00" fill="#000000">find_atom</text>
</a>
</g>
</g>
<!-- Node88555&#45;&gt;Node88556 -->
<g id="edge1" class="edge">
<title>Node88555&#45;&gt;Node88556</title>
<path fill="none" stroke="#191970" d="M106.2292,-276.5112C136.7933,-284.4258 180.2109,-295.6689 211.516,-303.7755"/>
<polygon fill="#191970" stroke="#191970" points="210.6646,-307.1704 221.2227,-306.2891 212.4194,-300.3939 210.6646,-307.1704"/>
</g>
<!-- Node88609 -->
<g id="node7" class="node">
<title>Node88609</title>
<g id="a_node7"><a xlink:href="quickjs_8c.html#a7128998511654840928b9df9d4c55b3c" target="_top" xlink:title="JS_DefineAutoInitProperty">
<polygon fill="none" stroke="#000000" points="363,-223.5 363,-242.5 496,-242.5 496,-223.5 363,-223.5"/>
<text text-anchor="middle" x="429.5" y="-230.5" font-family="Helvetica,sans-Serif" font-size="10.00" fill="#000000">JS_DefineAutoInitProperty</text>
</a>
</g>
</g>
<!-- Node88555&#45;&gt;Node88609 -->
<g id="edge6" class="edge">
<title>Node88555&#45;&gt;Node88609</title>
<path fill="none" stroke="#191970" d="M139.3385,-260.4041C200.5445,-254.6236 289.362,-246.2353 352.5849,-240.2642"/>
<polygon fill="#191970" stroke="#191970" points="353.2701,-243.7152 362.8966,-239.2903 352.6118,-236.7462 353.2701,-243.7152"/>
</g>
<!-- Node88648 -->
<g id="node19" class="node">
<title>Node88648</title>
<g id="a_node19"><a xlink:href="quickjs_8c.html#ab7fc45a99935a1c0ba50b0216d9401a9" target="_top" xlink:title="JS_FreeAtom">
<polygon fill="none" stroke="#ff0000" points="212.5,-361.5 212.5,-380.5 289.5,-380.5 289.5,-361.5 212.5,-361.5"/>
<text text-anchor="middle" x="251" y="-368.5" font-family="Helvetica,sans-Serif" font-size="10.00" fill="#000000">JS_FreeAtom</text>
</a>
</g>
</g>
<!-- Node88555&#45;&gt;Node88648 -->
<g id="edge24" class="edge">
<title>Node88555&#45;&gt;Node88648</title>
<path fill="none" stroke="#191970" d="M83.912,-276.6304C103.9838,-289.8999 141.6508,-314.2873 175,-333 189.9475,-341.3872 206.9819,-349.9887 221.1299,-356.8824"/>
<polygon fill="#191970" stroke="#191970" points="219.8752,-360.1631 230.4024,-361.3584 222.9183,-353.8592 219.8752,-360.1631"/>
</g>
<!-- Node88659 -->
<g id="node20" class="node">
<title>Node88659</title>
<g id="a_node20"><a xlink:href="quickjs_8c.html#a3c828325cf92db0706f570c1d2bcb935" target="_top" xlink:title="JS_InstantiateFunctionListItem">
<polygon fill="none" stroke="#000000" points="175,-105.5 175,-124.5 327,-124.5 327,-105.5 175,-105.5"/>
<text text-anchor="middle" x="251" y="-112.5" font-family="Helvetica,sans-Serif" font-size="10.00" fill="#000000">JS_InstantiateFunctionListItem</text>
</a>
</g>
</g>
<!-- Node88555&#45;&gt;Node88659 -->
<g id="edge26" class="edge">
<title>Node88555&#45;&gt;Node88659</title>
<path fill="none" stroke="#191970" d="M80.8536,-257.4917C111.1567,-232.1139 194.1985,-162.5693 231.9136,-130.9842"/>
<polygon fill="#191970" stroke="#191970" points="234.2312,-133.6086 239.6507,-124.5047 229.7368,-128.2419 234.2312,-133.6086"/>
</g>
<!-- Node88557 -->
<g id="node3" class="node">
<title>Node88557</title>
<g id="a_node3"><a xlink:href="quickjs_8c.html#abbf44eaeace1104a6bef718fbf5700fe" target="_top" xlink:title="JS_DupAtom">
<polygon fill="none" stroke="#000000" points="841.5,-276.5 841.5,-295.5 916.5,-295.5 916.5,-276.5 841.5,-276.5"/>
<text text-anchor="middle" x="879" y="-283.5" font-family="Helvetica,sans-Serif" font-size="10.00" fill="#000000">JS_DupAtom</text>
</a>
</g>
</g>
<!-- Node88556&#45;&gt;Node88557 -->
<g id="edge2" class="edge">
<title>Node88556&#45;&gt;Node88557</title>
<path fill="none" stroke="#191970" d="M280.6523,-313.6661C362.2903,-312.594 597.2193,-308.4796 792,-295 804.7899,-294.1149 818.6065,-292.8347 831.3814,-291.5162"/>
<polygon fill="#191970" stroke="#191970" points="831.7888,-294.9928 841.3638,-290.4575 831.0504,-288.0318 831.7888,-294.9928"/>
</g>
<!-- Node88559 -->
<g id="node5" class="node">
<title>Node88559</title>
<g id="a_node5"><a xlink:href="quickjs_8c.html#aa2ef5af1544a3012f91a80c98c326b8f" target="_top" xlink:title="JS_NewAtom">
<polygon fill="none" stroke="#000000" points="391,-342.5 391,-361.5 468,-361.5 468,-342.5 391,-342.5"/>
<text text-anchor="middle" x="429.5" y="-349.5" font-family="Helvetica,sans-Serif" font-size="10.00" fill="#000000">JS_NewAtom</text>
</a>
</g>
</g>
<!-- Node88556&#45;&gt;Node88559 -->
<g id="edge4" class="edge">
<title>Node88556&#45;&gt;Node88559</title>
<path fill="none" stroke="#191970" d="M280.8769,-320.3603C308.1016,-326.1561 348.8158,-334.8235 380.7503,-341.6219"/>
<polygon fill="#191970" stroke="#191970" points="380.2723,-345.0985 390.7819,-343.7575 381.7299,-338.2519 380.2723,-345.0985"/>
</g>
<!-- Node88558 -->
<g id="node4" class="node">
<title>Node88558</title>
<g id="a_node4"><a xlink:href="quickjs_8c.html#a7f6796ee7a195631366f57c713a33f65" target="_top" xlink:title="__JS_AtomIsConst">
<polygon fill="none" stroke="#000000" points="966,-328.5 966,-347.5 1068,-347.5 1068,-328.5 966,-328.5"/>
<text text-anchor="middle" x="1017" y="-335.5" font-family="Helvetica,sans-Serif" font-size="10.00" fill="#000000">__JS_AtomIsConst</text>
</a>
</g>
</g>
<!-- Node88557&#45;&gt;Node88558 -->
<g id="edge3" class="edge">
<title>Node88557&#45;&gt;Node88558</title>
<path fill="none" stroke="#191970" d="M904.3113,-295.5376C926.059,-303.7324 957.6432,-315.6337 981.8442,-324.7529"/>
<polygon fill="#191970" stroke="#191970" points="980.7899,-328.0958 991.3818,-328.3468 983.2582,-321.5454 980.7899,-328.0958"/>
</g>
<!-- Node88560 -->
<g id="node6" class="node">
<title>Node88560</title>
<g id="a_node6"><a xlink:href="quickjs_8c.html#a522741f41afb1d0da0aa55968cd8579e" target="_top" xlink:title="JS_NewAtomLen">
<polygon fill="none" stroke="#ff0000" points="535,-342.5 535,-361.5 628,-361.5 628,-342.5 535,-342.5"/>
<text text-anchor="middle" x="581.5" y="-349.5" font-family="Helvetica,sans-Serif" font-size="10.00" fill="#000000">JS_NewAtomLen</text>
</a>
</g>
</g>
<!-- Node88559&#45;&gt;Node88560 -->
<g id="edge5" class="edge">
<title>Node88559&#45;&gt;Node88560</title>
<path fill="none" stroke="#191970" d="M468.2493,-352C485.3926,-352 505.8955,-352 524.7158,-352"/>
<polygon fill="#191970" stroke="#191970" points="524.9664,-355.5001 534.9664,-352 524.9663,-348.5001 524.9664,-355.5001"/>
</g>
<!-- Node88610 -->
<g id="node8" class="node">
<title>Node88610</title>
<g id="a_node8"><a xlink:href="quickjs_8c.html#a74547db03bf739a52c83a326b32db997" target="_top" xlink:title="add_property">
<polygon fill="none" stroke="#000000" points="545,-209.5 545,-228.5 618,-228.5 618,-209.5 545,-209.5"/>
<text text-anchor="middle" x="581.5" y="-216.5" font-family="Helvetica,sans-Serif" font-size="10.00" fill="#000000">add_property</text>
</a>
</g>
</g>
<!-- Node88609&#45;&gt;Node88610 -->
<g id="edge7" class="edge">
<title>Node88609&#45;&gt;Node88610</title>
<path fill="none" stroke="#191970" d="M496.1694,-226.8594C509.2561,-225.654 522.7176,-224.4142 534.9699,-223.2857"/>
<polygon fill="#191970" stroke="#191970" points="535.3058,-226.7696 544.9426,-222.3671 534.6637,-219.7991 535.3058,-226.7696"/>
</g>
<!-- Node88657 -->
<g id="node17" class="node">
<title>Node88657</title>
<g id="a_node17"><a xlink:href="quickjs_8c.html#a06b76f5124fd985e35f4c652fd018d6d" target="_top" xlink:title="find_own_property">
<polygon fill="none" stroke="#000000" points="681.5,-76.5 681.5,-95.5 777.5,-95.5 777.5,-76.5 681.5,-76.5"/>
<text text-anchor="middle" x="729.5" y="-83.5" font-family="Helvetica,sans-Serif" font-size="10.00" fill="#000000">find_own_property</text>
</a>
</g>
</g>
<!-- Node88609&#45;&gt;Node88657 -->
<g id="edge20" class="edge">
<title>Node88609&#45;&gt;Node88657</title>
<path fill="none" stroke="#191970" d="M444.8106,-223.3446C481.7989,-200.3356 579.4432,-141.4747 667,-105 672.4324,-102.737 678.2304,-100.6107 684.0226,-98.6588"/>
<polygon fill="#191970" stroke="#191970" points="685.2523,-101.9399 693.6995,-95.545 683.1081,-95.2764 685.2523,-101.9399"/>
</g>
<!-- Node88658 -->
<g id="node18" class="node">
<title>Node88658</title>
<g id="a_node18"><a xlink:href="quickjs_8c.html#a2814982d965920b44b14bef36ba18bba" target="_top" xlink:title="JS_DupContext">
<polygon fill="none" stroke="#000000" points="538.5,-247.5 538.5,-266.5 624.5,-266.5 624.5,-247.5 538.5,-247.5"/>
<text text-anchor="middle" x="581.5" y="-254.5" font-family="Helvetica,sans-Serif" font-size="10.00" fill="#000000">JS_DupContext</text>
</a>
</g>
</g>
<!-- Node88609&#45;&gt;Node88658 -->
<g id="edge23" class="edge">
<title>Node88609&#45;&gt;Node88658</title>
<path fill="none" stroke="#191970" d="M490.0112,-242.5544C502.5589,-244.5356 515.6948,-246.6097 527.9712,-248.5481"/>
<polygon fill="#191970" stroke="#191970" points="527.6259,-252.0368 538.0494,-250.1394 528.7177,-245.1225 527.6259,-252.0368"/>
</g>
<!-- Node88611 -->
<g id="node9" class="node">
<title>Node88611</title>
<g id="a_node9"><a xlink:href="quickjs_8c.html#a3cadcaa2bd1e3f9359f1c006f396cfa0" target="_top" xlink:title="add_shape_property">
<polygon fill="none" stroke="#ff0000" points="677.5,-266.5 677.5,-285.5 781.5,-285.5 781.5,-266.5 677.5,-266.5"/>
<text text-anchor="middle" x="729.5" y="-273.5" font-family="Helvetica,sans-Serif" font-size="10.00" fill="#000000">add_shape_property</text>
</a>
</g>
</g>
<!-- Node88610&#45;&gt;Node88611 -->
<g id="edge8" class="edge">
<title>Node88610&#45;&gt;Node88611</title>
<path fill="none" stroke="#191970" d="M608.2006,-228.5811C615.6547,-231.4357 623.7075,-234.6902 631,-238 647.4743,-245.477 650.2694,-250.1155 667,-257 672.4422,-259.2394 678.246,-261.3516 684.0413,-263.2962"/>
<polygon fill="#191970" stroke="#191970" points="683.1297,-266.6794 693.7209,-266.4033 685.2692,-260.0143 683.1297,-266.6794"/>
</g>
<!-- Node88613 -->
<g id="node11" class="node">
<title>Node88613</title>
<g id="a_node11"><a xlink:href="quickjs_8c.html#a82dbe63adeac7849406fd48d96f39f7b" target="_top" xlink:title="js_shape_hash_link">
<polygon fill="none" stroke="#ff0000" points="828,-333.5 828,-352.5 930,-352.5 930,-333.5 828,-333.5"/>
<text text-anchor="middle" x="879" y="-340.5" font-family="Helvetica,sans-Serif" font-size="10.00" fill="#000000">js_shape_hash_link</text>
</a>
</g>
</g>
<!-- Node88610&#45;&gt;Node88613 -->
<g id="edge19" class="edge">
<title>Node88610&#45;&gt;Node88613</title>
<path fill="none" stroke="#191970" d="M615.3216,-228.6103C620.9059,-231.1127 626.374,-234.2053 631,-238 654.1661,-257.0028 642.5283,-277.7109 667,-295 711.2705,-326.2768 772.6025,-337.567 817.9133,-341.4524"/>
<polygon fill="#191970" stroke="#191970" points="817.668,-344.9437 827.9046,-342.2123 818.1989,-337.9639 817.668,-344.9437"/>
</g>
<!-- Node88628 -->
<g id="node13" class="node">
<title>Node88628</title>
<g id="a_node13"><a xlink:href="quickjs_8c.html#ac0c5dbb01d6082796c44b1c7f7c170f1" target="_top" xlink:title="find_hashed_shape_prop">
<polygon fill="none" stroke="#ff0000" points="667,-228.5 667,-247.5 792,-247.5 792,-228.5 667,-228.5"/>
<text text-anchor="middle" x="729.5" y="-235.5" font-family="Helvetica,sans-Serif" font-size="10.00" fill="#000000">find_hashed_shape_prop</text>
</a>
</g>
</g>
<!-- Node88610&#45;&gt;Node88628 -->
<g id="edge13" class="edge">
<title>Node88610&#45;&gt;Node88628</title>
<path fill="none" stroke="#191970" d="M618.0843,-223.6966C629.8168,-225.2028 643.2521,-226.9276 656.6378,-228.6461"/>
<polygon fill="#191970" stroke="#191970" points="656.4709,-232.1533 666.8352,-229.9552 657.3623,-225.2103 656.4709,-232.1533"/>
</g>
<!-- Node88629 -->
<g id="node14" class="node">
<title>Node88629</title>
<g id="a_node14"><a xlink:href="quickjs_8c.html#a8e34657169da77ae6a386311351ed3de" target="_top" xlink:title="js_clone_shape">
<polygon fill="none" stroke="#ff0000" points="687.5,-114.5 687.5,-133.5 771.5,-133.5 771.5,-114.5 687.5,-114.5"/>
<text text-anchor="middle" x="729.5" y="-121.5" font-family="Helvetica,sans-Serif" font-size="10.00" fill="#000000">js_clone_shape</text>
</a>
</g>
</g>
<!-- Node88610&#45;&gt;Node88629 -->
<g id="edge14" class="edge">
<title>Node88610&#45;&gt;Node88629</title>
<path fill="none" stroke="#191970" d="M589.7251,-209.3703C603.9147,-193.3412 634.6034,-161.1589 667,-143 670.8892,-140.8201 675.0577,-138.8616 679.3281,-137.108"/>
<polygon fill="#191970" stroke="#191970" points="680.622,-140.361 688.7707,-133.5898 678.178,-133.8015 680.622,-140.361"/>
</g>
<!-- Node88631 -->
<g id="node15" class="node">
<title>Node88631</title>
<g id="a_node15"><a xlink:href="quickjs_8c.html#aed229eb80b3b03a2275471dee93c69d6" target="_top" xlink:title="js_dup_shape">
<polygon fill="none" stroke="#000000" points="691,-190.5 691,-209.5 768,-209.5 768,-190.5 691,-190.5"/>
<text text-anchor="middle" x="729.5" y="-197.5" font-family="Helvetica,sans-Serif" font-size="10.00" fill="#000000">js_dup_shape</text>
</a>
</g>
</g>
<!-- Node88610&#45;&gt;Node88631 -->
<g id="edge17" class="edge">
<title>Node88610&#45;&gt;Node88631</title>
<path fill="none" stroke="#191970" d="M618.0843,-214.3034C636.9771,-211.8779 660.2854,-208.8857 680.6916,-206.2659"/>
<polygon fill="#191970" stroke="#191970" points="681.2778,-209.7195 690.7507,-204.9746 680.3864,-202.7765 681.2778,-209.7195"/>
</g>
<!-- Node88632 -->
<g id="node16" class="node">
<title>Node88632</title>
<g id="a_node16"><a xlink:href="quickjs_8c.html#a3a9f27520d96cf58aa5bd7359e9cddee" target="_top" xlink:title="js_free_shape">
<polygon fill="none" stroke="#ff0000" points="691,-152.5 691,-171.5 768,-171.5 768,-152.5 691,-152.5"/>
<text text-anchor="middle" x="729.5" y="-159.5" font-family="Helvetica,sans-Serif" font-size="10.00" fill="#000000">js_free_shape</text>
</a>
</g>
</g>
<!-- Node88610&#45;&gt;Node88632 -->
<g id="edge18" class="edge">
<title>Node88610&#45;&gt;Node88632</title>
<path fill="none" stroke="#191970" d="M601.2517,-209.3882C618.3988,-201.2461 644.0156,-189.5642 667,-181 672.9977,-178.7652 679.3886,-176.5923 685.7078,-174.5626"/>
<polygon fill="#191970" stroke="#191970" points="687.0089,-177.8231 695.512,-171.5028 684.9234,-171.141 687.0089,-177.8231"/>
</g>
<!-- Node88611&#45;&gt;Node88557 -->
<g id="edge10" class="edge">
<title>Node88611&#45;&gt;Node88557</title>
<path fill="none" stroke="#191970" d="M781.7878,-279.4975C797.8126,-280.5694 815.3556,-281.7428 831.0742,-282.7943"/>
<polygon fill="#191970" stroke="#191970" points="830.8944,-286.29 841.1057,-283.4653 831.3617,-279.3056 830.8944,-286.29"/>
</g>
<!-- Node88612 -->
<g id="node10" class="node">
<title>Node88612</title>
<g id="a_node10"><a xlink:href="quickjs_8c.html#a643df594b75933007bcdbb071b5ea8c5" target="_top" xlink:title="get_shape_prop">
<polygon fill="none" stroke="#000000" points="836,-95.5 836,-114.5 922,-114.5 922,-95.5 836,-95.5"/>
<text text-anchor="middle" x="879" y="-102.5" font-family="Helvetica,sans-Serif" font-size="10.00" fill="#000000">get_shape_prop</text>
</a>
</g>
</g>
<!-- Node88611&#45;&gt;Node88612 -->
<g id="edge9" class="edge">
<title>Node88611&#45;&gt;Node88612</title>
<path fill="none" stroke="#191970" d="M777.7196,-266.4004C782.939,-263.946 787.8513,-260.8656 792,-257 824.7308,-226.5028 804.8648,-201.2903 828,-163 837.1509,-147.8547 850.42,-132.9112 861.1297,-121.9862"/>
<polygon fill="#191970" stroke="#191970" points="863.7443,-124.3226 868.3802,-114.7959 858.8152,-119.3523 863.7443,-124.3226"/>
</g>
<!-- Node88611&#45;&gt;Node88613 -->
<g id="edge11" class="edge">
<title>Node88611&#45;&gt;Node88613</title>
<path fill="none" stroke="#191970" d="M750.9197,-285.5995C776.4532,-297.0426 819.3095,-316.2491 848.3472,-329.2626"/>
<polygon fill="#191970" stroke="#191970" points="847.0631,-332.5225 857.62,-333.4183 849.9259,-326.1347 847.0631,-332.5225"/>
</g>
<!-- Node88616 -->
<g id="node12" class="node">
<title>Node88616</title>
<g id="a_node12"><a xlink:href="quickjs_8c.html#acab22c2945c4d609e57a2484feb68a96" target="_top" xlink:title="prop_hash_end">
<polygon fill="none" stroke="#000000" points="837.5,-172.5 837.5,-191.5 920.5,-191.5 920.5,-172.5 837.5,-172.5"/>
<text text-anchor="middle" x="879" y="-179.5" font-family="Helvetica,sans-Serif" font-size="10.00" fill="#000000">prop_hash_end</text>
</a>
</g>
</g>
<!-- Node88611&#45;&gt;Node88616 -->
<g id="edge12" class="edge">
<title>Node88611&#45;&gt;Node88616</title>
<path fill="none" stroke="#191970" d="M769.8532,-266.4384C777.4449,-263.8942 785.145,-260.7742 792,-257 819.9232,-241.6259 846.8945,-216.211 863.2164,-199.2878"/>
<polygon fill="#191970" stroke="#191970" points="866.0166,-201.42 870.3311,-191.7434 860.9239,-196.6174 866.0166,-201.42"/>
</g>
<!-- Node88629&#45;&gt;Node88557 -->
<g id="edge16" class="edge">
<title>Node88629&#45;&gt;Node88557</title>
<path fill="none" stroke="#191970" d="M771.5797,-132.1622C778.8533,-134.8225 785.9958,-138.3432 792,-143 793.4223,-144.1031 844.7929,-229.2171 867.9162,-267.5931"/>
<polygon fill="#191970" stroke="#191970" points="864.9808,-269.5031 873.1389,-276.2631 870.977,-265.8912 864.9808,-269.5031"/>
</g>
<!-- Node88629&#45;&gt;Node88612 -->
<g id="edge15" class="edge">
<title>Node88629&#45;&gt;Node88612</title>
<path fill="none" stroke="#191970" d="M771.5419,-118.6569C788.3633,-116.519 807.9375,-114.0314 825.7356,-111.7694"/>
<polygon fill="#191970" stroke="#191970" points="826.4965,-115.2009 835.9754,-110.468 825.6139,-108.2568 826.4965,-115.2009"/>
</g>
<!-- Node88657&#45;&gt;Node88612 -->
<g id="edge21" class="edge">
<title>Node88657&#45;&gt;Node88612</title>
<path fill="none" stroke="#191970" d="M777.6257,-92.1163C792.8902,-94.0563 809.8586,-96.2128 825.4785,-98.1979"/>
<polygon fill="#191970" stroke="#191970" points="825.1553,-101.6849 835.5168,-99.4737 826.0379,-94.7408 825.1553,-101.6849"/>
</g>
<!-- Node88657&#45;&gt;Node88616 -->
<g id="edge22" class="edge">
<title>Node88657&#45;&gt;Node88616</title>
<path fill="none" stroke="#191970" d="M770.2228,-95.6014C777.7037,-98.1318 785.2688,-101.2365 792,-105 820.2924,-120.8186 847.3476,-147.1201 863.5698,-164.5097"/>
<polygon fill="#191970" stroke="#191970" points="861.298,-167.2129 870.6212,-172.2456 866.4713,-162.4973 861.298,-167.2129"/>
</g>
<!-- Node88648&#45;&gt;Node88558 -->
<g id="edge25" class="edge">
<title>Node88648&#45;&gt;Node88558</title>
<path fill="none" stroke="#191970" d="M289.6286,-374.6634C351.2784,-380.1846 475.7493,-390 581.5,-390 581.5,-390 581.5,-390 729.5,-390 818.3169,-390 920.1388,-365.6722 975.6228,-350.2965"/>
<polygon fill="#191970" stroke="#191970" points="976.7515,-353.6149 985.43,-347.5376 974.8558,-346.8765 976.7515,-353.6149"/>
</g>
<!-- Node88660 -->
<g id="node21" class="node">
<title>Node88660</title>
<g id="a_node21"><a xlink:href="quickjs_8c.html#a0a8765bd4012467d9139bc24aabcb3ca" target="_top" xlink:title="JS_DefinePropertyValue">
<polygon fill="none" stroke="#000000" points="367.5,-38.5 367.5,-57.5 491.5,-57.5 491.5,-38.5 367.5,-38.5"/>
<text text-anchor="middle" x="429.5" y="-45.5" font-family="Helvetica,sans-Serif" font-size="10.00" fill="#000000">JS_DefinePropertyValue</text>
</a>
</g>
</g>
<!-- Node88659&#45;&gt;Node88660 -->
<g id="edge27" class="edge">
<title>Node88659&#45;&gt;Node88660</title>
<path fill="none" stroke="#191970" d="M276.5747,-105.4005C307.4589,-93.8082 359.5691,-74.2486 394.2493,-61.2313"/>
<polygon fill="#191970" stroke="#191970" points="395.8405,-64.3726 403.9727,-57.5817 393.3806,-57.8191 395.8405,-64.3726"/>
</g>
<!-- Node88661 -->
<g id="node22" class="node">
<title>Node88661</title>
<g id="a_node22"><a xlink:href="quickjs_8c.html#ab50618f1bf78e444caa6da0e3e2785d7" target="_top" xlink:title="JS_DefineProperty">
<polygon fill="none" stroke="#ff0000" points="532,-38.5 532,-57.5 631,-57.5 631,-38.5 532,-38.5"/>
<text text-anchor="middle" x="581.5" y="-45.5" font-family="Helvetica,sans-Serif" font-size="10.00" fill="#000000">JS_DefineProperty</text>
</a>
</g>
</g>
<!-- Node88660&#45;&gt;Node88661 -->
<g id="edge28" class="edge">
<title>Node88660&#45;&gt;Node88661</title>
<path fill="none" stroke="#191970" d="M491.7628,-48C501.6203,-48 511.7968,-48 521.5988,-48"/>
<polygon fill="#191970" stroke="#191970" points="521.649,-51.5001 531.6489,-48 521.6489,-44.5001 521.649,-51.5001"/>
</g>
<!-- Node88649 -->
<g id="node23" class="node">
<title>Node88649</title>
<g id="a_node23"><a xlink:href="quickjs_8h.html#afaa20c47565bc704c6c85f3d77254e7d" target="_top" xlink:title="JS_FreeValue">
<polygon fill="none" stroke="#ff0000" points="690.5,-.5 690.5,-19.5 768.5,-19.5 768.5,-.5 690.5,-.5"/>
<text text-anchor="middle" x="729.5" y="-7.5" font-family="Helvetica,sans-Serif" font-size="10.00" fill="#000000">JS_FreeValue</text>
</a>
</g>
</g>
<!-- Node88660&#45;&gt;Node88649 -->
<g id="edge32" class="edge">
<title>Node88660&#45;&gt;Node88649</title>
<path fill="none" stroke="#191970" d="M476.0483,-38.4828C493.538,-35.1414 513.6297,-31.5812 532,-29 582.3646,-21.9232 640.3299,-16.6894 680.3753,-13.5266"/>
<polygon fill="#191970" stroke="#191970" points="680.7097,-17.0113 690.4088,-12.7479 680.168,-10.0323 680.7097,-17.0113"/>
</g>
<!-- Node88661&#45;&gt;Node88612 -->
<g id="edge30" class="edge">
<title>Node88661&#45;&gt;Node88612</title>
<path fill="none" stroke="#191970" d="M631.1717,-48.0134C674.3143,-49.0773 738.1498,-53.1974 792,-67 813.0876,-72.405 835.5737,-82.3478 852.4021,-90.7073"/>
<polygon fill="#191970" stroke="#191970" points="851.1048,-93.9745 861.6033,-95.4 854.2852,-87.7387 851.1048,-93.9745"/>
</g>
<!-- Node88661&#45;&gt;Node88657 -->
<g id="edge29" class="edge">
<title>Node88661&#45;&gt;Node88657</title>
<path fill="none" stroke="#191970" d="M618.8466,-57.589C638.2009,-62.5583 662.0304,-68.6767 682.6126,-73.9613"/>
<polygon fill="#191970" stroke="#191970" points="681.8656,-77.383 692.4219,-76.4799 683.6065,-70.6029 681.8656,-77.383"/>
</g>
<!-- Node88661&#45;&gt;Node88649 -->
<g id="edge31" class="edge">
<title>Node88661&#45;&gt;Node88649</title>
<path fill="none" stroke="#191970" d="M618.8466,-38.411C638.2009,-33.4417 662.0304,-27.3233 682.6126,-22.0387"/>
<polygon fill="#191970" stroke="#191970" points="683.6065,-25.3971 692.4219,-19.5201 681.8656,-18.617 683.6065,-25.3971"/>
</g>
</g>
</svg>
