<?xml version="1.0" encoding="UTF-8" standalone="no"?>
<!DOCTYPE svg PUBLIC "-//W3C//DTD SVG 1.1//EN"
 "http://www.w3.org/Graphics/SVG/1.1/DTD/svg11.dtd">
<!-- Generated by graphviz version 2.40.1 (20161225.0304)
 -->
<!-- Title: JS_GetProperty Pages: 1 -->
<svg width="787pt" height="821pt"
 viewBox="0.00 0.00 787.00 820.86" xmlns="http://www.w3.org/2000/svg" xmlns:xlink="http://www.w3.org/1999/xlink">
<g id="graph0" class="graph" transform="scale(1 1) rotate(0) translate(4 816.8593)">
<title>JS_GetProperty</title>
<!-- Node56116 -->
<g id="node1" class="node">
<title>Node56116</title>
<polygon fill="#bfbfbf" stroke="#000000" points="0,-328.5 0,-347.5 86,-347.5 86,-328.5 0,-328.5"/>
<text text-anchor="middle" x="43" y="-335.5" font-family="Helvetica,sans-Serif" font-size="10.00" fill="#000000">JS_GetProperty</text>
</g>
<!-- Node56117 -->
<g id="node2" class="node">
<title>Node56117</title>
<g id="a_node2"><a xlink:href="quickjs_8c.html#a5762c57ae0c9937e986040c01222833a" target="_top" xlink:title="JS_GetPropertyInternal">
<polygon fill="none" stroke="#000000" points="122,-328.5 122,-347.5 241,-347.5 241,-328.5 122,-328.5"/>
<text text-anchor="middle" x="181.5" y="-335.5" font-family="Helvetica,sans-Serif" font-size="10.00" fill="#000000">JS_GetPropertyInternal</text>
</a>
</g>
</g>
<!-- Node56116&#45;&gt;Node56117 -->
<g id="edge1" class="edge">
<title>Node56116&#45;&gt;Node56117</title>
<path fill="none" stroke="#191970" d="M86.0631,-338C94.2247,-338 102.9555,-338 111.6981,-338"/>
<polygon fill="#191970" stroke="#191970" points="111.9331,-341.5001 121.933,-338 111.933,-334.5001 111.9331,-341.5001"/>
</g>
<!-- Node56118 -->
<g id="node3" class="node">
<title>Node56118</title>
<g id="a_node3"><a xlink:href="quickjs_8c.html#a288254c06a39c9fca740a7abdad2834e" target="_top" xlink:title="__JS_AtomIsTaggedInt">
<polygon fill="none" stroke="#000000" points="660,-769.5 660,-788.5 779,-788.5 779,-769.5 660,-769.5"/>
<text text-anchor="middle" x="719.5" y="-776.5" font-family="Helvetica,sans-Serif" font-size="10.00" fill="#000000">__JS_AtomIsTaggedInt</text>
</a>
</g>
</g>
<!-- Node56117&#45;&gt;Node56118 -->
<g id="edge2" class="edge">
<title>Node56117&#45;&gt;Node56118</title>
<path fill="none" stroke="#191970" d="M182.2874,-347.6434C187.0859,-403.884 214.2952,-688.9328 277,-744 389.7895,-843.0515 587.1248,-811.6319 675.0461,-790.9432"/>
<polygon fill="#191970" stroke="#191970" points="676.0659,-794.2976 684.963,-788.545 674.4204,-787.4937 676.0659,-794.2976"/>
</g>
<!-- Node56119 -->
<g id="node4" class="node">
<title>Node56119</title>
<g id="a_node4"><a xlink:href="quickjs_8c.html#a89f38938cee8077ce1fbba07946ed185" target="_top" xlink:title="__JS_AtomToUInt32">
<polygon fill="none" stroke="#000000" points="665.5,-703.5 665.5,-722.5 773.5,-722.5 773.5,-703.5 665.5,-703.5"/>
<text text-anchor="middle" x="719.5" y="-710.5" font-family="Helvetica,sans-Serif" font-size="10.00" fill="#000000">__JS_AtomToUInt32</text>
</a>
</g>
</g>
<!-- Node56117&#45;&gt;Node56119 -->
<g id="edge3" class="edge">
<title>Node56117&#45;&gt;Node56119</title>
<path fill="none" stroke="#191970" d="M182.6389,-347.5238C189.0528,-399.5384 222.3421,-648.7747 277,-699 390.9362,-803.6963 599.323,-752.3857 683.1503,-725.6879"/>
<polygon fill="#191970" stroke="#191970" points="684.3153,-728.9895 692.7409,-722.5662 682.1487,-722.3332 684.3153,-728.9895"/>
</g>
<!-- Node56120 -->
<g id="node5" class="node">
<title>Node56120</title>
<g id="a_node5"><a xlink:href="quickjs_8c.html#a06b76f5124fd985e35f4c652fd018d6d" target="_top" xlink:title="find_own_property">
<polygon fill="none" stroke="#000000" points="319,-670.5 319,-689.5 415,-689.5 415,-670.5 319,-670.5"/>
<text text-anchor="middle" x="367" y="-677.5" font-family="Helvetica,sans-Serif" font-size="10.00" fill="#000000">find_own_property</text>
</a>
</g>
</g>
<!-- Node56117&#45;&gt;Node56120 -->
<g id="edge4" class="edge">
<title>Node56117&#45;&gt;Node56120</title>
<path fill="none" stroke="#191970" d="M183.7626,-347.5791C192.1403,-381.8299 223.6964,-500.6663 277,-585 296.7368,-616.2264 327.7091,-646.1102 347.6825,-663.7598"/>
<polygon fill="#191970" stroke="#191970" points="345.4069,-666.4192 355.2536,-670.3298 349.9947,-661.1322 345.4069,-666.4192"/>
</g>
<!-- Node56123 -->
<g id="node8" class="node">
<title>Node56123</title>
<g id="a_node8"><a xlink:href="quickjs_8c.html#add3eea1f6d626963ade3c28a1fd563d1" target="_top" xlink:title="JS_AtomIsNumericIndex">
<polygon fill="none" stroke="#000000" points="304,-556.5 304,-575.5 430,-575.5 430,-556.5 304,-556.5"/>
<text text-anchor="middle" x="367" y="-563.5" font-family="Helvetica,sans-Serif" font-size="10.00" fill="#000000">JS_AtomIsNumericIndex</text>
</a>
</g>
</g>
<!-- Node56117&#45;&gt;Node56123 -->
<g id="edge7" class="edge">
<title>Node56117&#45;&gt;Node56123</title>
<path fill="none" stroke="#191970" d="M185.212,-347.5652C196.0521,-374.5985 229.8979,-452.9107 277,-504 295.0155,-523.5405 320.2621,-540.2599 339.4324,-551.3949"/>
<polygon fill="#191970" stroke="#191970" points="337.8683,-554.531 348.2969,-556.4004 341.3102,-548.4357 337.8683,-554.531"/>
</g>
<!-- Node56127 -->
<g id="node10" class="node">
<title>Node56127</title>
<g id="a_node10"><a xlink:href="quickjs_8h.html#afaa20c47565bc704c6c85f3d77254e7d" target="_top" xlink:title="JS_FreeValue">
<polygon fill="none" stroke="#ff0000" points="680.5,-480.5 680.5,-499.5 758.5,-499.5 758.5,-480.5 680.5,-480.5"/>
<text text-anchor="middle" x="719.5" y="-487.5" font-family="Helvetica,sans-Serif" font-size="10.00" fill="#000000">JS_FreeValue</text>
</a>
</g>
</g>
<!-- Node56117&#45;&gt;Node56127 -->
<g id="edge21" class="edge">
<title>Node56117&#45;&gt;Node56127</title>
<path fill="none" stroke="#191970" d="M187.7789,-347.5989C201.3534,-367.4483 235.5767,-412.8351 277,-433 416.7255,-501.0184 470.0001,-455.1729 624,-476 639.1114,-478.0437 655.5467,-480.4034 670.4553,-482.5963"/>
<polygon fill="#191970" stroke="#191970" points="670.0931,-486.0808 680.4976,-484.0819 671.1175,-479.1561 670.0931,-486.0808"/>
</g>
<!-- Node56164 -->
<g id="node12" class="node">
<title>Node56164</title>
<g id="a_node12"><a xlink:href="quickjs_8h.html#a2050bc428da1c65ac7eb87c3fa3b0392" target="_top" xlink:title="JS_NewInt32">
<polygon fill="none" stroke="#000000" points="681.5,-518.5 681.5,-537.5 757.5,-537.5 757.5,-518.5 681.5,-518.5"/>
<text text-anchor="middle" x="719.5" y="-525.5" font-family="Helvetica,sans-Serif" font-size="10.00" fill="#000000">JS_NewInt32</text>
</a>
</g>
</g>
<!-- Node56117&#45;&gt;Node56164 -->
<g id="edge28" class="edge">
<title>Node56117&#45;&gt;Node56164</title>
<path fill="none" stroke="#191970" d="M185.537,-347.7688C196.2729,-372.3836 228.0898,-437.046 277,-466 403.5596,-540.921 585.3631,-538.8756 671.1684,-532.7729"/>
<polygon fill="#191970" stroke="#191970" points="671.688,-536.2435 681.393,-531.9934 671.1558,-529.2638 671.688,-536.2435"/>
</g>
<!-- Node56337 -->
<g id="node14" class="node">
<title>Node56337</title>
<g id="a_node14"><a xlink:href="quickjs_8c.html#a23b7fe57d08a1b3b39ba556f9cbb6c76" target="_top" xlink:title="JS_AutoInitProperty">
<polygon fill="none" stroke="#ff0000" points="315,-404.5 315,-423.5 419,-423.5 419,-404.5 315,-404.5"/>
<text text-anchor="middle" x="367" y="-411.5" font-family="Helvetica,sans-Serif" font-size="10.00" fill="#000000">JS_AutoInitProperty</text>
</a>
</g>
</g>
<!-- Node56117&#45;&gt;Node56337 -->
<g id="edge17" class="edge">
<title>Node56117&#45;&gt;Node56337</title>
<path fill="none" stroke="#191970" d="M196.4995,-347.6361C214.8589,-359.0789 247.1915,-378.1077 277,-390 288.3822,-394.541 300.9122,-398.4966 312.9131,-401.8155"/>
<polygon fill="#191970" stroke="#191970" points="312.2689,-405.2658 322.8325,-404.4525 314.0674,-398.5008 312.2689,-405.2658"/>
</g>
<!-- Node56216 -->
<g id="node15" class="node">
<title>Node56216</title>
<g id="a_node15"><a xlink:href="quickjs_8c.html#a75f6ee5e4235a7dc99889f3d2eb2c147" target="_top" xlink:title="JS_CallFree">
<polygon fill="none" stroke="#ff0000" points="523,-385.5 523,-404.5 594,-404.5 594,-385.5 523,-385.5"/>
<text text-anchor="middle" x="558.5" y="-392.5" font-family="Helvetica,sans-Serif" font-size="10.00" fill="#000000">JS_CallFree</text>
</a>
</g>
</g>
<!-- Node56117&#45;&gt;Node56216 -->
<g id="edge18" class="edge">
<title>Node56117&#45;&gt;Node56216</title>
<path fill="none" stroke="#191970" d="M226.5736,-347.5663C242.4701,-350.7811 260.4923,-354.2464 277,-357 359.7126,-370.797 456.7415,-383.0307 512.5762,-389.6908"/>
<polygon fill="#191970" stroke="#191970" points="512.5009,-393.2063 522.8435,-390.9079 513.3251,-386.2549 512.5009,-393.2063"/>
</g>
<!-- Node56171 -->
<g id="node16" class="node">
<title>Node56171</title>
<g id="a_node16"><a xlink:href="quickjs_8h.html#a775522f2d084fc8fa0fcb33f390006b4" target="_top" xlink:title="JS_DupValue">
<polygon fill="none" stroke="#000000" points="328.5,-328.5 328.5,-347.5 405.5,-347.5 405.5,-328.5 328.5,-328.5"/>
<text text-anchor="middle" x="367" y="-335.5" font-family="Helvetica,sans-Serif" font-size="10.00" fill="#000000">JS_DupValue</text>
</a>
</g>
</g>
<!-- Node56117&#45;&gt;Node56171 -->
<g id="edge20" class="edge">
<title>Node56117&#45;&gt;Node56171</title>
<path fill="none" stroke="#191970" d="M241.2144,-338C266.1247,-338 294.692,-338 318.3,-338"/>
<polygon fill="#191970" stroke="#191970" points="318.427,-341.5001 328.427,-338 318.427,-334.5001 318.427,-341.5001"/>
</g>
<!-- Node56239 -->
<g id="node17" class="node">
<title>Node56239</title>
<g id="a_node17"><a xlink:href="quickjs_8c.html#aeb97957655d979e9fe56c955da2b2d4b" target="_top" xlink:title="JS_GetPropertyUint32">
<polygon fill="none" stroke="#ff0000" points="309.5,-290.5 309.5,-309.5 424.5,-309.5 424.5,-290.5 309.5,-290.5"/>
<text text-anchor="middle" x="367" y="-297.5" font-family="Helvetica,sans-Serif" font-size="10.00" fill="#000000">JS_GetPropertyUint32</text>
</a>
</g>
</g>
<!-- Node56117&#45;&gt;Node56239 -->
<g id="edge22" class="edge">
<title>Node56117&#45;&gt;Node56239</title>
<path fill="none" stroke="#191970" d="M228.3095,-328.411C253.3395,-323.2835 284.3414,-316.9328 310.6822,-311.5368"/>
<polygon fill="#191970" stroke="#191970" points="311.433,-314.9558 320.5271,-309.5201 310.0281,-308.0982 311.433,-314.9558"/>
</g>
<!-- Node56339 -->
<g id="node18" class="node">
<title>Node56339</title>
<g id="a_node18"><a xlink:href="quickjs_8c.html#a93550bf785e919d0881399712c54cb34" target="_top" xlink:title="JS_GetPrototypePrimitive">
<polygon fill="none" stroke="#000000" points="302,-252.5 302,-271.5 432,-271.5 432,-252.5 302,-252.5"/>
<text text-anchor="middle" x="367" y="-259.5" font-family="Helvetica,sans-Serif" font-size="10.00" fill="#000000">JS_GetPrototypePrimitive</text>
</a>
</g>
</g>
<!-- Node56117&#45;&gt;Node56339 -->
<g id="edge23" class="edge">
<title>Node56117&#45;&gt;Node56339</title>
<path fill="none" stroke="#191970" d="M194.3786,-328.4086C212.083,-315.6829 245.3547,-293.3863 277,-281 283.7476,-278.3589 290.9308,-276.0571 298.183,-274.0574"/>
<polygon fill="#191970" stroke="#191970" points="299.2665,-277.3928 308.0808,-271.5142 297.5244,-270.613 299.2665,-277.3928"/>
</g>
<!-- Node56415 -->
<g id="node19" class="node">
<title>Node56415</title>
<g id="a_node19"><a xlink:href="quickjs_8h.html#aaab426b47c95d00479b7355b1cf7f56c" target="_top" xlink:title="JS_IsUninitialized">
<polygon fill="none" stroke="#000000" points="319.5,-214.5 319.5,-233.5 414.5,-233.5 414.5,-214.5 319.5,-214.5"/>
<text text-anchor="middle" x="367" y="-221.5" font-family="Helvetica,sans-Serif" font-size="10.00" fill="#000000">JS_IsUninitialized</text>
</a>
</g>
</g>
<!-- Node56117&#45;&gt;Node56415 -->
<g id="edge24" class="edge">
<title>Node56117&#45;&gt;Node56415</title>
<path fill="none" stroke="#191970" d="M188.1333,-328.3817C202.1168,-308.9016 236.674,-264.7907 277,-243 286.997,-237.598 298.3899,-233.7311 309.6303,-230.9632"/>
<polygon fill="#191970" stroke="#191970" points="310.418,-234.3737 319.43,-228.8029 308.911,-227.5378 310.418,-234.3737"/>
</g>
<!-- Node56545 -->
<g id="node20" class="node">
<title>Node56545</title>
<g id="a_node20"><a xlink:href="quickjs_8c.html#a077ffa6455c0d7831bd4547542b5f2f7" target="_top" xlink:title="js_new_string_char">
<polygon fill="none" stroke="#000000" points="316.5,-176.5 316.5,-195.5 417.5,-195.5 417.5,-176.5 316.5,-176.5"/>
<text text-anchor="middle" x="367" y="-183.5" font-family="Helvetica,sans-Serif" font-size="10.00" fill="#000000">js_new_string_char</text>
</a>
</g>
</g>
<!-- Node56117&#45;&gt;Node56545 -->
<g id="edge25" class="edge">
<title>Node56117&#45;&gt;Node56545</title>
<path fill="none" stroke="#191970" d="M185.3934,-328.4229C196.0039,-303.6189 227.9561,-236.9961 277,-205 285.8179,-199.2472 296.0633,-195.1973 306.416,-192.3548"/>
<polygon fill="#191970" stroke="#191970" points="307.42,-195.7135 316.3315,-189.9833 305.7917,-188.9055 307.42,-195.7135"/>
</g>
<!-- Node56340 -->
<g id="node23" class="node">
<title>Node56340</title>
<g id="a_node23"><a xlink:href="quickjs_8c.html#ab8d0b87c9eed4eb6c054b6f4e1731554" target="_top" xlink:title="JS_ThrowReferenceErrorNot\lDefined">
<polygon fill="none" stroke="#ff0000" points="295.5,-127 295.5,-157 438.5,-157 438.5,-127 295.5,-127"/>
<text text-anchor="start" x="303.5" y="-145" font-family="Helvetica,sans-Serif" font-size="10.00" fill="#000000">JS_ThrowReferenceErrorNot</text>
<text text-anchor="middle" x="367" y="-134" font-family="Helvetica,sans-Serif" font-size="10.00" fill="#000000">Defined</text>
</a>
</g>
</g>
<!-- Node56117&#45;&gt;Node56340 -->
<g id="edge29" class="edge">
<title>Node56117&#45;&gt;Node56340</title>
<path fill="none" stroke="#191970" d="M184.0865,-328.1166C192.2932,-298.755 220.5942,-211.3405 277,-167 279.8267,-164.7779 282.8389,-162.7532 285.9832,-160.9084"/>
<polygon fill="#191970" stroke="#191970" points="287.8732,-163.8715 295.15,-156.1709 284.6593,-157.6529 287.8732,-163.8715"/>
</g>
<!-- Node56416 -->
<g id="node24" class="node">
<title>Node56416</title>
<g id="a_node24"><a xlink:href="quickjs_8c.html#a75ac132a3af4de01e1fadeb0bede6ee7" target="_top" xlink:title="JS_ThrowReferenceErrorUninitialized">
<polygon fill="none" stroke="#ff0000" points="277,-88.5 277,-107.5 457,-107.5 457,-88.5 277,-88.5"/>
<text text-anchor="middle" x="367" y="-95.5" font-family="Helvetica,sans-Serif" font-size="10.00" fill="#000000">JS_ThrowReferenceErrorUninitialized</text>
</a>
</g>
</g>
<!-- Node56117&#45;&gt;Node56416 -->
<g id="edge30" class="edge">
<title>Node56117&#45;&gt;Node56416</title>
<path fill="none" stroke="#191970" d="M182.5854,-328.1732C186.9885,-293.2874 206.788,-174.417 277,-117 279.0552,-115.3193 281.223,-113.7768 283.4802,-112.3616"/>
<polygon fill="#191970" stroke="#191970" points="285.4016,-115.3036 292.5799,-107.5112 282.1089,-109.1264 285.4016,-115.3036"/>
</g>
<!-- Node56345 -->
<g id="node25" class="node">
<title>Node56345</title>
<g id="a_node25"><a xlink:href="quickjs_8c.html#a033dd3ebd29c4eb9f0baff1dd0fec0b1" target="_top" xlink:title="JS_ThrowTypeErrorDetached\lArrayBuffer">
<polygon fill="none" stroke="#000000" points="294,-39 294,-69 440,-69 440,-39 294,-39"/>
<text text-anchor="start" x="302" y="-57" font-family="Helvetica,sans-Serif" font-size="10.00" fill="#000000">JS_ThrowTypeErrorDetached</text>
<text text-anchor="middle" x="367" y="-46" font-family="Helvetica,sans-Serif" font-size="10.00" fill="#000000">ArrayBuffer</text>
</a>
</g>
</g>
<!-- Node56117&#45;&gt;Node56345 -->
<g id="edge31" class="edge">
<title>Node56117&#45;&gt;Node56345</title>
<path fill="none" stroke="#191970" d="M182.0333,-328.3123C184.6578,-290.3657 199.4425,-150.4226 277,-79 279.5051,-76.6931 282.2048,-74.5964 285.0504,-72.691"/>
<polygon fill="#191970" stroke="#191970" points="287.0711,-75.5656 293.9758,-67.5297 283.5668,-69.5058 287.0711,-75.5656"/>
</g>
<!-- Node56351 -->
<g id="node26" class="node">
<title>Node56351</title>
<g id="a_node26"><a xlink:href="quickjs_8c.html#a869fa88a646c0a1914ec2e559b193b5c" target="_top" xlink:title="typed_array_is_detached">
<polygon fill="none" stroke="#000000" points="304.5,-.5 304.5,-19.5 429.5,-19.5 429.5,-.5 304.5,-.5"/>
<text text-anchor="middle" x="367" y="-7.5" font-family="Helvetica,sans-Serif" font-size="10.00" fill="#000000">typed_array_is_detached</text>
</a>
</g>
</g>
<!-- Node56117&#45;&gt;Node56351 -->
<g id="edge32" class="edge">
<title>Node56117&#45;&gt;Node56351</title>
<path fill="none" stroke="#191970" d="M183.1407,-328.3433C191.4147,-280.7654 230.0221,-71.8564 277,-29 282.1523,-24.2997 288.1659,-20.6502 294.5969,-17.8297"/>
<polygon fill="#191970" stroke="#191970" points="296.0944,-21.008 304.2662,-14.2647 293.6728,-14.4401 296.0944,-21.008"/>
</g>
<!-- Node56121 -->
<g id="node6" class="node">
<title>Node56121</title>
<g id="a_node6"><a xlink:href="quickjs_8c.html#a643df594b75933007bcdbb071b5ea8c5" target="_top" xlink:title="get_shape_prop">
<polygon fill="none" stroke="#000000" points="515.5,-670.5 515.5,-689.5 601.5,-689.5 601.5,-670.5 515.5,-670.5"/>
<text text-anchor="middle" x="558.5" y="-677.5" font-family="Helvetica,sans-Serif" font-size="10.00" fill="#000000">get_shape_prop</text>
</a>
</g>
</g>
<!-- Node56120&#45;&gt;Node56121 -->
<g id="edge5" class="edge">
<title>Node56120&#45;&gt;Node56121</title>
<path fill="none" stroke="#191970" d="M415.3235,-680C442.7573,-680 477.1401,-680 505.3357,-680"/>
<polygon fill="#191970" stroke="#191970" points="505.4193,-683.5001 515.4192,-680 505.4192,-676.5001 505.4193,-683.5001"/>
</g>
<!-- Node56122 -->
<g id="node7" class="node">
<title>Node56122</title>
<g id="a_node7"><a xlink:href="quickjs_8c.html#acab22c2945c4d609e57a2484feb68a96" target="_top" xlink:title="prop_hash_end">
<polygon fill="none" stroke="#000000" points="517,-708.5 517,-727.5 600,-727.5 600,-708.5 517,-708.5"/>
<text text-anchor="middle" x="558.5" y="-715.5" font-family="Helvetica,sans-Serif" font-size="10.00" fill="#000000">prop_hash_end</text>
</a>
</g>
</g>
<!-- Node56120&#45;&gt;Node56122 -->
<g id="edge6" class="edge">
<title>Node56120&#45;&gt;Node56122</title>
<path fill="none" stroke="#191970" d="M415.3235,-689.589C443.152,-695.1111 478.1309,-702.0521 506.5489,-707.6912"/>
<polygon fill="#191970" stroke="#191970" points="506.2064,-711.1914 516.6964,-709.7048 507.5689,-704.3252 506.2064,-711.1914"/>
</g>
<!-- Node56124 -->
<g id="node9" class="node">
<title>Node56124</title>
<g id="a_node9"><a xlink:href="quickjs_8c.html#ab4e100a9cde5f7ec87c92f5e766dbbab" target="_top" xlink:title="JS_AtomIsNumericIndex1">
<polygon fill="none" stroke="#ff0000" points="493,-594.5 493,-613.5 624,-613.5 624,-594.5 493,-594.5"/>
<text text-anchor="middle" x="558.5" y="-601.5" font-family="Helvetica,sans-Serif" font-size="10.00" fill="#000000">JS_AtomIsNumericIndex1</text>
</a>
</g>
</g>
<!-- Node56123&#45;&gt;Node56124 -->
<g id="edge8" class="edge">
<title>Node56123&#45;&gt;Node56124</title>
<path fill="none" stroke="#191970" d="M415.3235,-575.589C441.1632,-580.7165 473.1678,-587.0672 500.3606,-592.4632"/>
<polygon fill="#191970" stroke="#191970" points="500.0339,-595.9666 510.524,-594.4799 501.3965,-589.1004 500.0339,-595.9666"/>
</g>
<!-- Node56123&#45;&gt;Node56127 -->
<g id="edge14" class="edge">
<title>Node56123&#45;&gt;Node56127</title>
<path fill="none" stroke="#191970" d="M411.2874,-556.4515C477.331,-542.2123 601.2174,-515.5021 670.1069,-500.6493"/>
<polygon fill="#191970" stroke="#191970" points="671.2284,-503.988 680.2661,-498.4589 669.753,-497.1452 671.2284,-503.988"/>
</g>
<!-- Node56163 -->
<g id="node11" class="node">
<title>Node56163</title>
<g id="a_node11"><a xlink:href="quickjs_8h.html#ad80a83d73e9b7d872b88fbf2943aebe9" target="_top" xlink:title="JS_IsException">
<polygon fill="none" stroke="#000000" points="676.5,-608.5 676.5,-627.5 762.5,-627.5 762.5,-608.5 676.5,-608.5"/>
<text text-anchor="middle" x="719.5" y="-615.5" font-family="Helvetica,sans-Serif" font-size="10.00" fill="#000000">JS_IsException</text>
</a>
</g>
</g>
<!-- Node56123&#45;&gt;Node56163 -->
<g id="edge15" class="edge">
<title>Node56123&#45;&gt;Node56163</title>
<path fill="none" stroke="#191970" d="M382.5515,-575.6792C405.6244,-589.4104 450.7547,-613.889 493,-623 551.2645,-635.5659 619.9162,-631.503 666.2417,-626.095"/>
<polygon fill="#191970" stroke="#191970" points="666.8571,-629.5458 676.3552,-624.8515 666.0028,-622.5981 666.8571,-629.5458"/>
</g>
<!-- Node56320 -->
<g id="node13" class="node">
<title>Node56320</title>
<g id="a_node13"><a xlink:href="quickjs_8h.html#a4e407128a9605afb77523e49e9a627fd" target="_top" xlink:title="JS_IsUndefined">
<polygon fill="none" stroke="#000000" points="515.5,-556.5 515.5,-575.5 601.5,-575.5 601.5,-556.5 515.5,-556.5"/>
<text text-anchor="middle" x="558.5" y="-563.5" font-family="Helvetica,sans-Serif" font-size="10.00" fill="#000000">JS_IsUndefined</text>
</a>
</g>
</g>
<!-- Node56123&#45;&gt;Node56320 -->
<g id="edge16" class="edge">
<title>Node56123&#45;&gt;Node56320</title>
<path fill="none" stroke="#191970" d="M430.235,-566C454.5297,-566 481.9934,-566 505.2569,-566"/>
<polygon fill="#191970" stroke="#191970" points="505.2849,-569.5001 515.2849,-566 505.2848,-562.5001 505.2849,-569.5001"/>
</g>
<!-- Node56124&#45;&gt;Node56118 -->
<g id="edge9" class="edge">
<title>Node56124&#45;&gt;Node56118</title>
<path fill="none" stroke="#191970" d="M572.4365,-613.6203C586.747,-624.0283 608.9893,-641.7374 624,-661 645.7472,-688.9072 637.5954,-704.6178 660,-732 669.9642,-744.178 683.5952,-755.2303 695.2966,-763.5532"/>
<polygon fill="#191970" stroke="#191970" points="693.5473,-766.5973 703.7758,-769.3592 697.5021,-760.8215 693.5473,-766.5973"/>
</g>
<!-- Node56124&#45;&gt;Node56119 -->
<g id="edge10" class="edge">
<title>Node56124&#45;&gt;Node56119</title>
<path fill="none" stroke="#191970" d="M572.7877,-613.673C600.7633,-632.613 662.9699,-674.7281 696.6979,-697.5626"/>
<polygon fill="#191970" stroke="#191970" points="694.77,-700.484 705.0129,-703.192 698.6944,-694.6875 694.77,-700.484"/>
</g>
<!-- Node56124&#45;&gt;Node56127 -->
<g id="edge11" class="edge">
<title>Node56124&#45;&gt;Node56127</title>
<path fill="none" stroke="#191970" d="M608.3925,-594.4931C614.0371,-592.024 619.4024,-588.9149 624,-585 652.4566,-560.7687 631.8702,-533.61 660,-509 663.2594,-506.1484 666.9499,-503.7242 670.8578,-501.6633"/>
<polygon fill="#191970" stroke="#191970" points="672.5507,-504.7412 680.2697,-497.484 669.7098,-498.3435 672.5507,-504.7412"/>
</g>
<!-- Node56124&#45;&gt;Node56163 -->
<g id="edge12" class="edge">
<title>Node56124&#45;&gt;Node56163</title>
<path fill="none" stroke="#191970" d="M624.4494,-609.7347C638.428,-610.9503 653.0121,-612.2184 666.4393,-613.386"/>
<polygon fill="#191970" stroke="#191970" points="666.1868,-616.8772 676.4525,-614.2567 666.7933,-609.9035 666.1868,-616.8772"/>
</g>
<!-- Node56124&#45;&gt;Node56164 -->
<g id="edge13" class="edge">
<title>Node56124&#45;&gt;Node56164</title>
<path fill="none" stroke="#191970" d="M597.5248,-594.4556C606.3824,-591.8036 615.6394,-588.6359 624,-585 650.4769,-573.4855 678.6058,-555.9751 697.4235,-543.4018"/>
<polygon fill="#191970" stroke="#191970" points="699.5554,-546.185 705.8653,-537.674 695.6251,-540.3925 699.5554,-546.185"/>
</g>
<!-- Node56216&#45;&gt;Node56127 -->
<g id="edge19" class="edge">
<title>Node56216&#45;&gt;Node56127</title>
<path fill="none" stroke="#191970" d="M574.8235,-404.6319C603.0297,-421.2753 661.0655,-455.52 694.4241,-475.2037"/>
<polygon fill="#191970" stroke="#191970" points="692.7421,-478.275 703.1332,-480.3426 696.2995,-472.2463 692.7421,-478.275"/>
</g>
<!-- Node56546 -->
<g id="node21" class="node">
<title>Node56546</title>
<g id="a_node21"><a xlink:href="quickjs_8c.html#a960b48be1175b0982ecc03505711fc56" target="_top" xlink:title="js_new_string16">
<polygon fill="none" stroke="#ff0000" points="515,-157.5 515,-176.5 602,-176.5 602,-157.5 515,-157.5"/>
<text text-anchor="middle" x="558.5" y="-164.5" font-family="Helvetica,sans-Serif" font-size="10.00" fill="#000000">js_new_string16</text>
</a>
</g>
</g>
<!-- Node56545&#45;&gt;Node56546 -->
<g id="edge26" class="edge">
<title>Node56545&#45;&gt;Node56546</title>
<path fill="none" stroke="#191970" d="M417.5649,-180.9831C444.3896,-178.3217 477.3536,-175.0511 504.6551,-172.3423"/>
<polygon fill="#191970" stroke="#191970" points="505.2113,-175.8044 514.8168,-171.3341 504.5201,-168.8386 505.2113,-175.8044"/>
</g>
<!-- Node56193 -->
<g id="node22" class="node">
<title>Node56193</title>
<g id="a_node22"><a xlink:href="quickjs_8c.html#aa923510185fe24e3083baf7405b09f51" target="_top" xlink:title="js_new_string8">
<polygon fill="none" stroke="#ff0000" points="517.5,-195.5 517.5,-214.5 599.5,-214.5 599.5,-195.5 517.5,-195.5"/>
<text text-anchor="middle" x="558.5" y="-202.5" font-family="Helvetica,sans-Serif" font-size="10.00" fill="#000000">js_new_string8</text>
</a>
</g>
</g>
<!-- Node56545&#45;&gt;Node56193 -->
<g id="edge27" class="edge">
<title>Node56545&#45;&gt;Node56193</title>
<path fill="none" stroke="#191970" d="M417.5649,-191.0169C445.1757,-193.7563 479.2909,-197.1411 507.0404,-199.8943"/>
<polygon fill="#191970" stroke="#191970" points="507.0404,-203.4114 517.3371,-200.916 507.7316,-196.4457 507.0404,-203.4114"/>
</g>
</g>
</svg>
