<?xml version="1.0" encoding="UTF-8" standalone="no"?>
<!DOCTYPE svg PUBLIC "-//W3C//DTD SVG 1.1//EN"
 "http://www.w3.org/Graphics/SVG/1.1/DTD/svg11.dtd">
<!-- Generated by graphviz version 2.40.1 (20161225.0304)
 -->
<!-- Title: js_proxy_call Pages: 1 -->
<svg width="500pt" height="28pt"
 viewBox="0.00 0.00 500.00 28.00" xmlns="http://www.w3.org/2000/svg" xmlns:xlink="http://www.w3.org/1999/xlink">
<g id="graph0" class="graph" transform="scale(1 1) rotate(0) translate(4 24)">
<title>js_proxy_call</title>
<!-- Node446034 -->
<g id="node1" class="node">
<title>Node446034</title>
<polygon fill="#bfbfbf" stroke="#000000" points="0,-.5 0,-19.5 74,-19.5 74,-.5 0,-.5"/>
<text text-anchor="middle" x="37" y="-7.5" font-family="Helvetica,sans-Serif" font-size="10.00" fill="#000000">js_proxy_call</text>
</g>
<!-- Node446035 -->
<g id="node2" class="node">
<title>Node446035</title>
<g id="a_node2"><a xlink:href="quickjs_8c.html#a3afdbdd7b58ef7e1dcc178c362071b3d" target="_top" xlink:title="JS_AddIntrinsicProxy">
<polygon fill="none" stroke="#000000" points="110,-.5 110,-19.5 221,-19.5 221,-.5 110,-.5"/>
<text text-anchor="middle" x="165.5" y="-7.5" font-family="Helvetica,sans-Serif" font-size="10.00" fill="#000000">JS_AddIntrinsicProxy</text>
</a>
</g>
</g>
<!-- Node446034&#45;&gt;Node446035 -->
<g id="edge1" class="edge">
<title>Node446034&#45;&gt;Node446035</title>
<path fill="none" stroke="#191970" d="M84.3748,-10C92.6381,-10 101.3023,-10 109.7658,-10"/>
<polygon fill="#191970" stroke="#191970" points="84.1676,-6.5001 74.1675,-10 84.1675,-13.5001 84.1676,-6.5001"/>
</g>
<!-- Node446036 -->
<g id="node3" class="node">
<title>Node446036</title>
<g id="a_node3"><a xlink:href="quickjs_8c.html#ad8aedb643b8753b7a15f6cb2df61945e" target="_top" xlink:title="JS_NewContext">
<polygon fill="none" stroke="#000000" points="257,-.5 257,-19.5 346,-19.5 346,-.5 257,-.5"/>
<text text-anchor="middle" x="301.5" y="-7.5" font-family="Helvetica,sans-Serif" font-size="10.00" fill="#000000">JS_NewContext</text>
</a>
</g>
</g>
<!-- Node446035&#45;&gt;Node446036 -->
<g id="edge2" class="edge">
<title>Node446035&#45;&gt;Node446036</title>
<path fill="none" stroke="#191970" d="M231.3248,-10C239.9894,-10 248.7011,-10 256.8964,-10"/>
<polygon fill="#191970" stroke="#191970" points="231.2088,-6.5001 221.2088,-10 231.2088,-13.5001 231.2088,-6.5001"/>
</g>
<!-- Node446037 -->
<g id="node4" class="node">
<title>Node446037</title>
<g id="a_node4"><a xlink:href="classqjs_1_1Context.html#a4392a23648acfc4bf6b445336efb5007" target="_top" xlink:title="qjs::Context::Context">
<polygon fill="none" stroke="#ff0000" points="382,-.5 382,-19.5 492,-19.5 492,-.5 382,-.5"/>
<text text-anchor="middle" x="437" y="-7.5" font-family="Helvetica,sans-Serif" font-size="10.00" fill="#000000">qjs::Context::Context</text>
</a>
</g>
</g>
<!-- Node446036&#45;&gt;Node446037 -->
<g id="edge3" class="edge">
<title>Node446036&#45;&gt;Node446037</title>
<path fill="none" stroke="#191970" d="M356.3476,-10C364.7739,-10 373.4767,-10 381.9083,-10"/>
<polygon fill="#191970" stroke="#191970" points="356.2433,-6.5001 346.2433,-10 356.2433,-13.5001 356.2433,-6.5001"/>
</g>
</g>
</svg>
