<?xml version="1.0" encoding="UTF-8" standalone="no"?>
<!DOCTYPE svg PUBLIC "-//W3C//DTD SVG 1.1//EN"
 "http://www.w3.org/Graphics/SVG/1.1/DTD/svg11.dtd">
<!-- Generated by graphviz version 2.40.1 (20161225.0304)
 -->
<!-- Title: JS_AddIntrinsicBaseObjects Pages: 1 -->
<svg width="567pt" height="28pt"
 viewBox="0.00 0.00 567.00 28.00" xmlns="http://www.w3.org/2000/svg" xmlns:xlink="http://www.w3.org/1999/xlink">
<g id="graph0" class="graph" transform="scale(1 1) rotate(0) translate(4 24)">
<title>JS_AddIntrinsicBaseObjects</title>
<!-- Node6222 -->
<g id="node1" class="node">
<title>Node6222</title>
<polygon fill="#bfbfbf" stroke="#000000" points="0,-.5 0,-19.5 142,-19.5 142,-.5 0,-.5"/>
<text text-anchor="middle" x="71" y="-7.5" font-family="Helvetica,sans-Serif" font-size="10.00" fill="#000000">JS_AddIntrinsicBaseObjects</text>
</g>
<!-- Node6223 -->
<g id="node2" class="node">
<title>Node6223</title>
<g id="a_node2"><a xlink:href="quickjs_8c.html#ad8aedb643b8753b7a15f6cb2df61945e" target="_top" xlink:title="JS_NewContext">
<polygon fill="none" stroke="#000000" points="178,-.5 178,-19.5 267,-19.5 267,-.5 178,-.5"/>
<text text-anchor="middle" x="222.5" y="-7.5" font-family="Helvetica,sans-Serif" font-size="10.00" fill="#000000">JS_NewContext</text>
</a>
</g>
</g>
<!-- Node6222&#45;&gt;Node6223 -->
<g id="edge1" class="edge">
<title>Node6222&#45;&gt;Node6223</title>
<path fill="none" stroke="#191970" d="M152.5534,-10C161.2595,-10 169.8628,-10 177.8995,-10"/>
<polygon fill="#191970" stroke="#191970" points="152.3138,-6.5001 142.3138,-10 152.3137,-13.5001 152.3138,-6.5001"/>
</g>
<!-- Node6224 -->
<g id="node3" class="node">
<title>Node6224</title>
<g id="a_node3"><a xlink:href="classqjs_1_1Context.html#a4392a23648acfc4bf6b445336efb5007" target="_top" xlink:title="qjs::Context::Context">
<polygon fill="none" stroke="#000000" points="303,-.5 303,-19.5 413,-19.5 413,-.5 303,-.5"/>
<text text-anchor="middle" x="358" y="-7.5" font-family="Helvetica,sans-Serif" font-size="10.00" fill="#000000">qjs::Context::Context</text>
</a>
</g>
</g>
<!-- Node6223&#45;&gt;Node6224 -->
<g id="edge2" class="edge">
<title>Node6223&#45;&gt;Node6224</title>
<path fill="none" stroke="#191970" d="M277.3476,-10C285.7739,-10 294.4767,-10 302.9083,-10"/>
<polygon fill="#191970" stroke="#191970" points="277.2433,-6.5001 267.2433,-10 277.2433,-13.5001 277.2433,-6.5001"/>
</g>
<!-- Node6225 -->
<g id="node4" class="node">
<title>Node6225</title>
<g id="a_node4"><a xlink:href="classqjs_1_1Context.html#af725fb8083d8c33a37198d6acaf1a836" target="_top" xlink:title="qjs::Context::Context">
<polygon fill="none" stroke="#ff0000" points="449,-.5 449,-19.5 559,-19.5 559,-.5 449,-.5"/>
<text text-anchor="middle" x="504" y="-7.5" font-family="Helvetica,sans-Serif" font-size="10.00" fill="#000000">qjs::Context::Context</text>
</a>
</g>
</g>
<!-- Node6224&#45;&gt;Node6225 -->
<g id="edge3" class="edge">
<title>Node6224&#45;&gt;Node6225</title>
<path fill="none" stroke="#191970" d="M423.4101,-10C431.8647,-10 440.4567,-10 448.7256,-10"/>
<polygon fill="#191970" stroke="#191970" points="423.1964,-6.5001 413.1963,-10 423.1963,-13.5001 423.1964,-6.5001"/>
</g>
</g>
</svg>
