<?xml version="1.0" encoding="UTF-8" standalone="no"?>
<!DOCTYPE svg PUBLIC "-//W3C//DTD SVG 1.1//EN"
 "http://www.w3.org/Graphics/SVG/1.1/DTD/svg11.dtd">
<!-- Generated by graphviz version 2.40.1 (20161225.0304)
 -->
<!-- Title: JS_NewFloat64 Pages: 1 -->
<svg width="835pt" height="540pt"
 viewBox="0.00 0.00 835.00 540.00" xmlns="http://www.w3.org/2000/svg" xmlns:xlink="http://www.w3.org/1999/xlink">
<g id="graph0" class="graph" transform="scale(1 1) rotate(0) translate(4 536)">
<title>JS_NewFloat64</title>
<!-- Node29029 -->
<g id="node1" class="node">
<title>Node29029</title>
<polygon fill="#bfbfbf" stroke="#000000" points="0,-284.5 0,-303.5 86,-303.5 86,-284.5 0,-284.5"/>
<text text-anchor="middle" x="43" y="-291.5" font-family="Helvetica,sans-Serif" font-size="10.00" fill="#000000">JS_NewFloat64</text>
</g>
<!-- Node29030 -->
<g id="node2" class="node">
<title>Node29030</title>
<g id="a_node2"><a xlink:href="quickjs_8c.html#ae8ff05447c0d51fe277baccf616dc7c6" target="_top" xlink:title="js_add_slow">
<polygon fill="none" stroke="#000000" points="139,-398.5 139,-417.5 210,-417.5 210,-398.5 139,-398.5"/>
<text text-anchor="middle" x="174.5" y="-405.5" font-family="Helvetica,sans-Serif" font-size="10.00" fill="#000000">js_add_slow</text>
</a>
</g>
</g>
<!-- Node29029&#45;&gt;Node29030 -->
<g id="edge1" class="edge">
<title>Node29029&#45;&gt;Node29030</title>
<path fill="none" stroke="#191970" d="M53.8666,-312.2023C67.3761,-333.3976 92.3137,-368.1558 122,-389 127.3944,-392.7877 133.6272,-395.9037 139.8724,-398.4377"/>
<polygon fill="#191970" stroke="#191970" points="56.7285,-310.1758 48.4878,-303.5169 50.7774,-313.8614 56.7285,-310.1758"/>
</g>
<!-- Node29031 -->
<g id="node3" class="node">
<title>Node29031</title>
<g id="a_node3"><a xlink:href="quickjs_8c.html#ac2894ff4edcdb4e6841bcce9c76081e3" target="_top" xlink:title="JS_CallInternal">
<polygon fill="none" stroke="#000000" points="280,-436.5 280,-455.5 363,-455.5 363,-436.5 280,-436.5"/>
<text text-anchor="middle" x="321.5" y="-443.5" font-family="Helvetica,sans-Serif" font-size="10.00" fill="#000000">JS_CallInternal</text>
</a>
</g>
</g>
<!-- Node29029&#45;&gt;Node29031 -->
<g id="edge35" class="edge">
<title>Node29029&#45;&gt;Node29031</title>
<path fill="none" stroke="#191970" d="M45.3352,-313.7746C50.9225,-351.0444 68.8203,-430.9878 122,-465 178.422,-501.0859 262.7946,-472.1587 301.1798,-455.5879"/>
<polygon fill="#191970" stroke="#191970" points="48.7784,-313.1176 43.971,-303.6762 41.8414,-314.0547 48.7784,-313.1176"/>
</g>
<!-- Node29637 -->
<g id="node8" class="node">
<title>Node29637</title>
<g id="a_node8"><a xlink:href="quickjs_8c.html#a40bcef4994dba57dfb34b6eed66daef0" target="_top" xlink:title="js_atof">
<polygon fill="none" stroke="#000000" points="151.5,-94.5 151.5,-113.5 197.5,-113.5 197.5,-94.5 151.5,-94.5"/>
<text text-anchor="middle" x="174.5" y="-101.5" font-family="Helvetica,sans-Serif" font-size="10.00" fill="#000000">js_atof</text>
</a>
</g>
</g>
<!-- Node29029&#45;&gt;Node29637 -->
<g id="edge11" class="edge">
<title>Node29029&#45;&gt;Node29637</title>
<path fill="none" stroke="#191970" d="M46.8683,-274.3604C54.7925,-239.166 76.1306,-165.1045 122,-123 130.1406,-115.5276 141.4419,-110.9425 151.4746,-108.1551"/>
<polygon fill="#191970" stroke="#191970" points="43.4045,-273.823 44.7528,-284.3317 50.2521,-275.2759 43.4045,-273.823"/>
</g>
<!-- Node29414 -->
<g id="node23" class="node">
<title>Node29414</title>
<g id="a_node23"><a xlink:href="quickjs_8c.html#a3c8e7fb12a7f3cf1846a36b0a7fc499f" target="_top" xlink:title="js_binary_arith_slow">
<polygon fill="none" stroke="#000000" points="122,-360.5 122,-379.5 227,-379.5 227,-360.5 122,-360.5"/>
<text text-anchor="middle" x="174.5" y="-367.5" font-family="Helvetica,sans-Serif" font-size="10.00" fill="#000000">js_binary_arith_slow</text>
</a>
</g>
</g>
<!-- Node29029&#45;&gt;Node29414 -->
<g id="edge33" class="edge">
<title>Node29029&#45;&gt;Node29414</title>
<path fill="none" stroke="#191970" d="M61.8738,-309.9312C77.2913,-322.3577 100.0468,-339.3993 122,-351 128.7704,-354.5777 136.3618,-357.7566 143.6227,-360.4422"/>
<polygon fill="#191970" stroke="#191970" points="64.0663,-307.2028 54.1152,-303.5662 59.6265,-312.6147 64.0663,-307.2028"/>
</g>
<!-- Node29249 -->
<g id="node24" class="node">
<title>Node29249</title>
<g id="a_node24"><a xlink:href="quickjs_8c.html#a3486836f2ac17a9fa315904e14858e5a" target="_top" xlink:title="js_call_c_function">
<polygon fill="none" stroke="#ff0000" points="127,-322.5 127,-341.5 222,-341.5 222,-322.5 127,-322.5"/>
<text text-anchor="middle" x="174.5" y="-329.5" font-family="Helvetica,sans-Serif" font-size="10.00" fill="#000000">js_call_c_function</text>
</a>
</g>
</g>
<!-- Node29029&#45;&gt;Node29249 -->
<g id="edge34" class="edge">
<title>Node29029&#45;&gt;Node29249</title>
<path fill="none" stroke="#191970" d="M85.8778,-306.3906C103.8862,-311.5945 124.5096,-317.5541 141.3276,-322.4141"/>
<polygon fill="#191970" stroke="#191970" points="86.7616,-303.0028 76.183,-303.589 84.8183,-309.7276 86.7616,-303.0028"/>
</g>
<!-- Node29291 -->
<g id="node25" class="node">
<title>Node29291</title>
<g id="a_node25"><a xlink:href="quickjs_8c.html#ac6d5606ba25525b3a03981eefbe98e13" target="_top" xlink:title="js_function_bind">
<polygon fill="none" stroke="#000000" points="131,-284.5 131,-303.5 218,-303.5 218,-284.5 131,-284.5"/>
<text text-anchor="middle" x="174.5" y="-291.5" font-family="Helvetica,sans-Serif" font-size="10.00" fill="#000000">js_function_bind</text>
</a>
</g>
</g>
<!-- Node29029&#45;&gt;Node29291 -->
<g id="edge36" class="edge">
<title>Node29029&#45;&gt;Node29291</title>
<path fill="none" stroke="#191970" d="M96.4002,-294C107.8665,-294 119.8525,-294 130.8951,-294"/>
<polygon fill="#191970" stroke="#191970" points="96.0581,-290.5001 86.058,-294 96.058,-297.5001 96.0581,-290.5001"/>
</g>
<!-- Node29434 -->
<g id="node26" class="node">
<title>Node29434</title>
<g id="a_node26"><a xlink:href="quickjs_8c.html#af44ac6dcee5acfb5d6039f82a68bc4e6" target="_top" xlink:title="js_math_hypot">
<polygon fill="none" stroke="#000000" points="134.5,-246.5 134.5,-265.5 214.5,-265.5 214.5,-246.5 134.5,-246.5"/>
<text text-anchor="middle" x="174.5" y="-253.5" font-family="Helvetica,sans-Serif" font-size="10.00" fill="#000000">js_math_hypot</text>
</a>
</g>
</g>
<!-- Node29029&#45;&gt;Node29434 -->
<g id="edge37" class="edge">
<title>Node29029&#45;&gt;Node29434</title>
<path fill="none" stroke="#191970" d="M85.8778,-281.6094C103.8862,-276.4055 124.5096,-270.4459 141.3276,-265.5859"/>
<polygon fill="#191970" stroke="#191970" points="84.8183,-278.2724 76.183,-284.411 86.7616,-284.9972 84.8183,-278.2724"/>
</g>
<!-- Node29435 -->
<g id="node27" class="node">
<title>Node29435</title>
<g id="a_node27"><a xlink:href="quickjs_8c.html#af5a7bd13b47d5c2de41e92111bf21305" target="_top" xlink:title="js_math_min_max">
<polygon fill="none" stroke="#000000" points="126.5,-208.5 126.5,-227.5 222.5,-227.5 222.5,-208.5 126.5,-208.5"/>
<text text-anchor="middle" x="174.5" y="-215.5" font-family="Helvetica,sans-Serif" font-size="10.00" fill="#000000">js_math_min_max</text>
</a>
</g>
</g>
<!-- Node29029&#45;&gt;Node29435 -->
<g id="edge38" class="edge">
<title>Node29029&#45;&gt;Node29435</title>
<path fill="none" stroke="#191970" d="M61.8738,-278.0688C77.2913,-265.6423 100.0468,-248.6007 122,-237 128.7704,-233.4223 136.3618,-230.2434 143.6227,-227.5578"/>
<polygon fill="#191970" stroke="#191970" points="59.6265,-275.3853 54.1152,-284.4338 64.0663,-280.7972 59.6265,-275.3853"/>
</g>
<!-- Node29420 -->
<g id="node28" class="node">
<title>Node29420</title>
<g id="a_node28"><a xlink:href="quickjs_8c.html#aa7214e281acc07325a3c1a70d816a1d2" target="_top" xlink:title="js_post_inc_slow">
<polygon fill="none" stroke="#000000" points="128.5,-170.5 128.5,-189.5 220.5,-189.5 220.5,-170.5 128.5,-170.5"/>
<text text-anchor="middle" x="174.5" y="-177.5" font-family="Helvetica,sans-Serif" font-size="10.00" fill="#000000">js_post_inc_slow</text>
</a>
</g>
</g>
<!-- Node29029&#45;&gt;Node29420 -->
<g id="edge39" class="edge">
<title>Node29029&#45;&gt;Node29420</title>
<path fill="none" stroke="#191970" d="M53.8666,-275.7977C67.3761,-254.6024 92.3137,-219.8442 122,-199 127.3944,-195.2123 133.6272,-192.0963 139.8724,-189.5623"/>
<polygon fill="#191970" stroke="#191970" points="50.7774,-274.1386 48.4878,-284.4831 56.7285,-277.8242 50.7774,-274.1386"/>
</g>
<!-- Node29522 -->
<g id="node29" class="node">
<title>Node29522</title>
<g id="a_node29"><a xlink:href="quickjs_8c.html#a4985d9fd12208519be70abef27263906" target="_top" xlink:title="JS_ToIntegerFree">
<polygon fill="none" stroke="#ff0000" points="127,-132.5 127,-151.5 222,-151.5 222,-132.5 127,-132.5"/>
<text text-anchor="middle" x="174.5" y="-139.5" font-family="Helvetica,sans-Serif" font-size="10.00" fill="#000000">JS_ToIntegerFree</text>
</a>
</g>
</g>
<!-- Node29029&#45;&gt;Node29522 -->
<g id="edge40" class="edge">
<title>Node29029&#45;&gt;Node29522</title>
<path fill="none" stroke="#191970" d="M49.5847,-274.789C60.3543,-246.0998 84.3805,-192.1137 122,-161 126.6311,-157.1698 132.0983,-154.0805 137.7251,-151.5977"/>
<polygon fill="#191970" stroke="#191970" points="46.2024,-273.851 46.1055,-284.4454 52.788,-276.2238 46.2024,-273.851"/>
</g>
<!-- Node29454 -->
<g id="node30" class="node">
<title>Node29454</title>
<g id="a_node30"><a xlink:href="quickjs_8c.html#a6a81009df3c2dbacf14bbe0b69b6a6cd" target="_top" xlink:title="js_unary_arith_slow">
<polygon fill="none" stroke="#000000" points="123,-436.5 123,-455.5 226,-455.5 226,-436.5 123,-436.5"/>
<text text-anchor="middle" x="174.5" y="-443.5" font-family="Helvetica,sans-Serif" font-size="10.00" fill="#000000">js_unary_arith_slow</text>
</a>
</g>
</g>
<!-- Node29029&#45;&gt;Node29454 -->
<g id="edge41" class="edge">
<title>Node29029&#45;&gt;Node29454</title>
<path fill="none" stroke="#191970" d="M49.5847,-313.211C60.3543,-341.9002 84.3805,-395.8863 122,-427 126.6311,-430.8302 132.0983,-433.9195 137.7251,-436.4023"/>
<polygon fill="#191970" stroke="#191970" points="52.788,-311.7762 46.1055,-303.5546 46.2024,-314.149 52.788,-311.7762"/>
</g>
<!-- Node29030&#45;&gt;Node29031 -->
<g id="edge2" class="edge">
<title>Node29030&#45;&gt;Node29031</title>
<path fill="none" stroke="#191970" d="M219.9747,-419.7554C240.7707,-425.1312 265.0871,-431.4171 284.708,-436.4891"/>
<polygon fill="#191970" stroke="#191970" points="220.6423,-416.313 210.0846,-417.1987 218.8904,-423.0902 220.6423,-416.313"/>
</g>
<!-- Node29031&#45;&gt;Node29031 -->
<g id="edge10" class="edge">
<title>Node29031&#45;&gt;Node29031</title>
<path fill="none" stroke="#191970" d="M294.2475,-464.6539C295.3867,-469.9368 304.4708,-474 321.5,-474 347.4492,-474 354.9502,-464.5653 344.0028,-455.7571"/>
<polygon fill="#191970" stroke="#191970" points="297.3752,-466.227 298.9972,-455.7571 291.2001,-462.9303 297.3752,-466.227"/>
</g>
<!-- Node29032 -->
<g id="node4" class="node">
<title>Node29032</title>
<g id="a_node4"><a xlink:href="quickjs_8c.html#ade71a22dc56e7371392393df663b28b3" target="_top" xlink:title="async_func_resume">
<polygon fill="none" stroke="#ff0000" points="433,-474.5 433,-493.5 537,-493.5 537,-474.5 433,-474.5"/>
<text text-anchor="middle" x="485" y="-481.5" font-family="Helvetica,sans-Serif" font-size="10.00" fill="#000000">async_func_resume</text>
</a>
</g>
</g>
<!-- Node29031&#45;&gt;Node29032 -->
<g id="edge3" class="edge">
<title>Node29031&#45;&gt;Node29032</title>
<path fill="none" stroke="#191970" d="M372.6844,-457.8961C395.6661,-463.2374 422.4125,-469.4537 444.0387,-474.4799"/>
<polygon fill="#191970" stroke="#191970" points="373.2907,-454.4438 362.758,-455.589 371.706,-461.262 373.2907,-454.4438"/>
</g>
<!-- Node29051 -->
<g id="node5" class="node">
<title>Node29051</title>
<g id="a_node5"><a xlink:href="quickjs_8c.html#a1a4c02a29525d5cb2085dd8bca3af350" target="_top" xlink:title="JS_Call">
<polygon fill="none" stroke="#ff0000" points="459.5,-436.5 459.5,-455.5 510.5,-455.5 510.5,-436.5 459.5,-436.5"/>
<text text-anchor="middle" x="485" y="-443.5" font-family="Helvetica,sans-Serif" font-size="10.00" fill="#000000">JS_Call</text>
</a>
</g>
</g>
<!-- Node29031&#45;&gt;Node29051 -->
<g id="edge4" class="edge">
<title>Node29031&#45;&gt;Node29051</title>
<path fill="none" stroke="#191970" d="M373.4334,-439.666C402.0396,-438.8328 436.2902,-439.2512 459.2282,-440.9211"/>
<polygon fill="#191970" stroke="#191970" points="373.0506,-436.1773 363.181,-440.0296 373.2988,-443.1729 373.0506,-436.1773"/>
</g>
<!-- Node29132 -->
<g id="node6" class="node">
<title>Node29132</title>
<g id="a_node6"><a xlink:href="quickjs_8c.html#ad35594576a14c10812efaf958c99af8a" target="_top" xlink:title="JS_CallConstructorInternal">
<polygon fill="none" stroke="#ff0000" points="418,-398.5 418,-417.5 552,-417.5 552,-398.5 418,-398.5"/>
<text text-anchor="middle" x="485" y="-405.5" font-family="Helvetica,sans-Serif" font-size="10.00" fill="#000000">JS_CallConstructorInternal</text>
</a>
</g>
</g>
<!-- Node29031&#45;&gt;Node29132 -->
<g id="edge6" class="edge">
<title>Node29031&#45;&gt;Node29132</title>
<path fill="none" stroke="#191970" d="M352.1668,-433.4664C370.6565,-428.0351 394.964,-421.9693 417.725,-416.9807"/>
<polygon fill="#191970" stroke="#191970" points="351.0809,-430.1384 342.54,-436.4076 353.1263,-436.8329 351.0809,-430.1384"/>
</g>
<!-- Node29146 -->
<g id="node7" class="node">
<title>Node29146</title>
<g id="a_node7"><a xlink:href="quickjs_8c.html#a75f6ee5e4235a7dc99889f3d2eb2c147" target="_top" xlink:title="JS_CallFree">
<polygon fill="none" stroke="#ff0000" points="449.5,-512.5 449.5,-531.5 520.5,-531.5 520.5,-512.5 449.5,-512.5"/>
<text text-anchor="middle" x="485" y="-519.5" font-family="Helvetica,sans-Serif" font-size="10.00" fill="#000000">JS_CallFree</text>
</a>
</g>
</g>
<!-- Node29031&#45;&gt;Node29146 -->
<g id="edge8" class="edge">
<title>Node29031&#45;&gt;Node29146</title>
<path fill="none" stroke="#191970" d="M354.1458,-460.7322C371.8238,-471.2593 394.4129,-484.727 416,-494 434.2661,-501.8464 456.6527,-507.3067 470.874,-512.4957"/>
<polygon fill="#191970" stroke="#191970" points="355.7667,-457.6243 345.3803,-455.533 352.1956,-463.6449 355.7667,-457.6243"/>
</g>
<!-- Node29051&#45;&gt;Node29031 -->
<g id="edge5" class="edge">
<title>Node29051&#45;&gt;Node29031</title>
<path fill="none" stroke="#191970" d="M448.9485,-451.7081C423.6213,-453.0035 389.6722,-453.091 363.181,-451.9704"/>
<polygon fill="#191970" stroke="#191970" points="449.4607,-455.1834 459.2282,-451.0789 449.0331,-448.1965 449.4607,-455.1834"/>
</g>
<!-- Node29132&#45;&gt;Node29031 -->
<g id="edge7" class="edge">
<title>Node29132&#45;&gt;Node29031</title>
<path fill="none" stroke="#191970" d="M454.2781,-420.5498C428.5477,-428.1051 391.5792,-436.8841 363.181,-442.2831"/>
<polygon fill="#191970" stroke="#191970" points="455.3424,-423.8844 463.8843,-417.6165 453.2981,-417.1896 455.3424,-423.8844"/>
</g>
<!-- Node29146&#45;&gt;Node29031 -->
<g id="edge9" class="edge">
<title>Node29146&#45;&gt;Node29031</title>
<path fill="none" stroke="#191970" d="M439.3634,-520.1961C431.4434,-517.9545 423.3849,-515.1723 416,-512 380.7916,-496.8759 342.9181,-470.5932 328.0332,-455.5266"/>
<polygon fill="#191970" stroke="#191970" points="438.7043,-523.6403 449.2604,-522.7349 440.4437,-516.8598 438.7043,-523.6403"/>
</g>
<!-- Node29563 -->
<g id="node9" class="node">
<title>Node29563</title>
<g id="a_node9"><a xlink:href="quickjs_8c.html#abb21478f7d3d0ff964efbe82a673daef" target="_top" xlink:title="js_parseFloat">
<polygon fill="none" stroke="#000000" points="284,-132.5 284,-151.5 359,-151.5 359,-132.5 284,-132.5"/>
<text text-anchor="middle" x="321.5" y="-139.5" font-family="Helvetica,sans-Serif" font-size="10.00" fill="#000000">js_parseFloat</text>
</a>
</g>
</g>
<!-- Node29637&#45;&gt;Node29563 -->
<g id="edge12" class="edge">
<title>Node29637&#45;&gt;Node29563</title>
<path fill="none" stroke="#191970" d="M207.7144,-112.586C230.5725,-118.4949 260.9529,-126.3484 284.5717,-132.4539"/>
<polygon fill="#191970" stroke="#191970" points="208.3503,-109.1354 197.7926,-110.0212 206.5983,-115.9127 208.3503,-109.1354"/>
</g>
<!-- Node29472 -->
<g id="node10" class="node">
<title>Node29472</title>
<g id="a_node10"><a xlink:href="quickjs_8c.html#aed39bc2ad38569d153500dc6ae23cd6c" target="_top" xlink:title="js_parseInt">
<polygon fill="none" stroke="#000000" points="289,-94.5 289,-113.5 354,-113.5 354,-94.5 289,-94.5"/>
<text text-anchor="middle" x="321.5" y="-101.5" font-family="Helvetica,sans-Serif" font-size="10.00" fill="#000000">js_parseInt</text>
</a>
</g>
</g>
<!-- Node29637&#45;&gt;Node29472 -->
<g id="edge13" class="edge">
<title>Node29637&#45;&gt;Node29472</title>
<path fill="none" stroke="#191970" d="M207.9366,-104C232.1449,-104 264.703,-104 288.7511,-104"/>
<polygon fill="#191970" stroke="#191970" points="207.7926,-100.5001 197.7926,-104 207.7926,-107.5001 207.7926,-100.5001"/>
</g>
<!-- Node29409 -->
<g id="node11" class="node">
<title>Node29409</title>
<g id="a_node11"><a xlink:href="quickjs_8c.html#a0315f23b9804563f376c47edef2967fd" target="_top" xlink:title="JS_ToNumberHintFree">
<polygon fill="none" stroke="#ff0000" points="263,-56.5 263,-75.5 380,-75.5 380,-56.5 263,-56.5"/>
<text text-anchor="middle" x="321.5" y="-63.5" font-family="Helvetica,sans-Serif" font-size="10.00" fill="#000000">JS_ToNumberHintFree</text>
</a>
</g>
</g>
<!-- Node29637&#45;&gt;Node29409 -->
<g id="edge14" class="edge">
<title>Node29637&#45;&gt;Node29409</title>
<path fill="none" stroke="#191970" d="M207.7144,-95.414C230.5725,-89.5051 260.9529,-81.6516 284.5717,-75.5461"/>
<polygon fill="#191970" stroke="#191970" points="206.5983,-92.0873 197.7926,-97.9788 208.3503,-98.8646 206.5983,-92.0873"/>
</g>
<!-- Node29638 -->
<g id="node12" class="node">
<title>Node29638</title>
<g id="a_node12"><a xlink:href="quickjs_8c.html#a7fbd31397bde22dfa2b876b945f9afb4" target="_top" xlink:title="json_next_token">
<polygon fill="none" stroke="#000000" points="277.5,-18.5 277.5,-37.5 365.5,-37.5 365.5,-18.5 277.5,-18.5"/>
<text text-anchor="middle" x="321.5" y="-25.5" font-family="Helvetica,sans-Serif" font-size="10.00" fill="#000000">json_next_token</text>
</a>
</g>
</g>
<!-- Node29637&#45;&gt;Node29638 -->
<g id="edge15" class="edge">
<title>Node29637&#45;&gt;Node29638</title>
<path fill="none" stroke="#191970" d="M195.3557,-88.3608C212.7434,-75.876 238.536,-58.6104 263,-47 270.6213,-43.383 279.1097,-40.189 287.2044,-37.5014"/>
<polygon fill="#191970" stroke="#191970" points="193.0961,-85.6769 187.0808,-94.3985 197.2221,-91.3317 193.0961,-85.6769"/>
</g>
<!-- Node29640 -->
<g id="node16" class="node">
<title>Node29640</title>
<g id="a_node16"><a xlink:href="quickjs_8c.html#a75a3798e2045f6e403c1ef467126d1fb" target="_top" xlink:title="next_token">
<polygon fill="none" stroke="#ff0000" points="289,-170.5 289,-189.5 354,-189.5 354,-170.5 289,-170.5"/>
<text text-anchor="middle" x="321.5" y="-177.5" font-family="Helvetica,sans-Serif" font-size="10.00" fill="#000000">next_token</text>
</a>
</g>
</g>
<!-- Node29637&#45;&gt;Node29640 -->
<g id="edge22" class="edge">
<title>Node29637&#45;&gt;Node29640</title>
<path fill="none" stroke="#191970" d="M207.3031,-113.2062C214.0988,-115.8328 221.0071,-119.0751 227,-123 246.462,-135.7462 243.3291,-148.5787 263,-161 270.8553,-165.9603 280.1278,-169.7435 288.9471,-172.5768"/>
<polygon fill="#191970" stroke="#191970" points="208.1419,-109.7916 197.547,-109.7905 205.8287,-116.3984 208.1419,-109.7916"/>
</g>
<!-- Node29282 -->
<g id="node13" class="node">
<title>Node29282</title>
<g id="a_node13"><a xlink:href="quickjs_8c.html#a2ce39fc64f8e4a7a0e19bf5527df730f" target="_top" xlink:title="JS_ParseJSON2">
<polygon fill="none" stroke="#ff0000" points="735,-28.5 735,-47.5 827,-47.5 827,-28.5 735,-28.5"/>
<text text-anchor="middle" x="781" y="-35.5" font-family="Helvetica,sans-Serif" font-size="10.00" fill="#000000">JS_ParseJSON2</text>
</a>
</g>
</g>
<!-- Node29638&#45;&gt;Node29282 -->
<g id="edge16" class="edge">
<title>Node29638&#45;&gt;Node29282</title>
<path fill="none" stroke="#191970" d="M369.7814,-39.6247C384.5253,-42.6549 400.8464,-45.4917 416,-47 541.1593,-59.4575 573.4101,-53.8715 699,-47 710.5832,-46.3662 723.0456,-45.2325 734.6713,-43.9787"/>
<polygon fill="#191970" stroke="#191970" points="370.3697,-36.1716 359.8598,-37.5099 368.9104,-43.0178 370.3697,-36.1716"/>
</g>
<!-- Node29639 -->
<g id="node14" class="node">
<title>Node29639</title>
<g id="a_node14"><a xlink:href="quickjs_8c.html#ae66a7542eaaa25e85eeb8427eca70eae" target="_top" xlink:title="json_parse_expect">
<polygon fill="none" stroke="#000000" points="436,-18.5 436,-37.5 534,-37.5 534,-18.5 436,-18.5"/>
<text text-anchor="middle" x="485" y="-25.5" font-family="Helvetica,sans-Serif" font-size="10.00" fill="#000000">json_parse_expect</text>
</a>
</g>
</g>
<!-- Node29638&#45;&gt;Node29639 -->
<g id="edge17" class="edge">
<title>Node29638&#45;&gt;Node29639</title>
<path fill="none" stroke="#191970" d="M375.9261,-28C395.2777,-28 416.9376,-28 435.8243,-28"/>
<polygon fill="#191970" stroke="#191970" points="375.7455,-24.5001 365.7455,-28 375.7454,-31.5001 375.7455,-24.5001"/>
</g>
<!-- Node29281 -->
<g id="node15" class="node">
<title>Node29281</title>
<g id="a_node15"><a xlink:href="quickjs_8c.html#a756c1ab5dee9a6dd07723d7a075e2a53" target="_top" xlink:title="json_parse_value">
<polygon fill="none" stroke="#000000" points="598.5,-.5 598.5,-19.5 690.5,-19.5 690.5,-.5 598.5,-.5"/>
<text text-anchor="middle" x="644.5" y="-7.5" font-family="Helvetica,sans-Serif" font-size="10.00" fill="#000000">json_parse_value</text>
</a>
</g>
</g>
<!-- Node29638&#45;&gt;Node29281 -->
<g id="edge21" class="edge">
<title>Node29638&#45;&gt;Node29281</title>
<path fill="none" stroke="#191970" d="M369.7814,-16.3753C384.5253,-13.3451 400.8464,-10.5083 416,-9 478.9634,-2.7331 552.1693,-4.6635 598.413,-7.0094"/>
<polygon fill="#191970" stroke="#191970" points="368.9104,-12.9822 359.8598,-18.4901 370.3697,-19.8284 368.9104,-12.9822"/>
</g>
<!-- Node29639&#45;&gt;Node29281 -->
<g id="edge18" class="edge">
<title>Node29639&#45;&gt;Node29281</title>
<path fill="none" stroke="#191970" d="M544.2251,-21.3163C562.1557,-19.2928 581.5716,-17.1016 598.4998,-15.1912"/>
<polygon fill="#191970" stroke="#191970" points="543.7011,-17.8531 534.1567,-22.4525 544.4862,-24.809 543.7011,-17.8531"/>
</g>
<!-- Node29281&#45;&gt;Node29282 -->
<g id="edge19" class="edge">
<title>Node29281&#45;&gt;Node29282</title>
<path fill="none" stroke="#191970" d="M700.5726,-21.5021C711.9675,-23.8395 723.8305,-26.2729 734.8349,-28.5302"/>
<polygon fill="#191970" stroke="#191970" points="701.212,-18.0604 690.7127,-19.4795 699.8054,-24.9177 701.212,-18.0604"/>
</g>
<!-- Node29281&#45;&gt;Node29281 -->
<g id="edge20" class="edge">
<title>Node29281&#45;&gt;Node29281</title>
<path fill="none" stroke="#191970" d="M619.2025,-29.0292C620.5824,-34.128 629.0149,-38 644.5,-38 668.6719,-38 675.6591,-28.5653 665.4615,-19.7571"/>
<polygon fill="#191970" stroke="#191970" points="622.4728,-30.2982 623.5385,-19.7571 616.1319,-27.3329 622.4728,-30.2982"/>
</g>
<!-- Node29641 -->
<g id="node17" class="node">
<title>Node29641</title>
<g id="a_node17"><a xlink:href="quickjs_8c.html#a08f5927b79691c477c726fc5d309cfef" target="_top" xlink:title="is_let">
<polygon fill="none" stroke="#ff0000" points="465,-264.5 465,-283.5 505,-283.5 505,-264.5 465,-264.5"/>
<text text-anchor="middle" x="485" y="-271.5" font-family="Helvetica,sans-Serif" font-size="10.00" fill="#000000">is_let</text>
</a>
</g>
</g>
<!-- Node29640&#45;&gt;Node29641 -->
<g id="edge23" class="edge">
<title>Node29640&#45;&gt;Node29641</title>
<path fill="none" stroke="#191970" d="M338.0748,-196.6454C355.878,-213.6332 385.7138,-239.624 416,-255 431.5106,-262.8746 450.6925,-267.8187 464.8914,-270.6825"/>
<polygon fill="#191970" stroke="#191970" points="340.3891,-194.0138 330.7832,-189.5442 335.5052,-199.0286 340.3891,-194.0138"/>
</g>
<!-- Node29220 -->
<g id="node18" class="node">
<title>Node29220</title>
<g id="a_node18"><a xlink:href="quickjs_8c.html#a253917187cfb6b3db09d355b31edb3d5" target="_top" xlink:title="js_parse_array_literal">
<polygon fill="none" stroke="#ff0000" points="590,-255.5 590,-274.5 699,-274.5 699,-255.5 590,-255.5"/>
<text text-anchor="middle" x="644.5" y="-262.5" font-family="Helvetica,sans-Serif" font-size="10.00" fill="#000000">js_parse_array_literal</text>
</a>
</g>
</g>
<!-- Node29640&#45;&gt;Node29220 -->
<g id="edge24" class="edge">
<title>Node29640&#45;&gt;Node29220</title>
<path fill="none" stroke="#191970" d="M330.5133,-198.8097C344.5174,-225.5608 374.2948,-273.5105 416,-293 486.6062,-325.9954 582.2275,-292.4783 623.7881,-274.6319"/>
<polygon fill="#191970" stroke="#191970" points="333.5493,-197.0566 325.9264,-189.6985 327.297,-200.2043 333.5493,-197.0566"/>
</g>
<!-- Node29219 -->
<g id="node19" class="node">
<title>Node29219</title>
<g id="a_node19"><a xlink:href="quickjs_8c.html#a4fa2fc1719feb03edf64eaf034103fd2" target="_top" xlink:title="js_parse_assign_expr">
<polygon fill="none" stroke="#ff0000" points="429.5,-208.5 429.5,-227.5 540.5,-227.5 540.5,-208.5 429.5,-208.5"/>
<text text-anchor="middle" x="485" y="-215.5" font-family="Helvetica,sans-Serif" font-size="10.00" fill="#000000">js_parse_assign_expr</text>
</a>
</g>
</g>
<!-- Node29640&#45;&gt;Node29219 -->
<g id="edge25" class="edge">
<title>Node29640&#45;&gt;Node29219</title>
<path fill="none" stroke="#191970" d="M363.9936,-189.8762C388.6439,-195.6053 419.5387,-202.7858 443.9407,-208.4572"/>
<polygon fill="#191970" stroke="#191970" points="364.7265,-186.4533 354.1937,-187.5985 363.1417,-193.2716 364.7265,-186.4533"/>
</g>
<!-- Node29198 -->
<g id="node20" class="node">
<title>Node29198</title>
<g id="a_node20"><a xlink:href="quickjs_8c.html#a00eb789430243c24dab4a63ad6a79653" target="_top" xlink:title="js_parse_class">
<polygon fill="none" stroke="#ff0000" points="603.5,-170.5 603.5,-189.5 685.5,-189.5 685.5,-170.5 603.5,-170.5"/>
<text text-anchor="middle" x="644.5" y="-177.5" font-family="Helvetica,sans-Serif" font-size="10.00" fill="#000000">js_parse_class</text>
</a>
</g>
</g>
<!-- Node29640&#45;&gt;Node29198 -->
<g id="edge30" class="edge">
<title>Node29640&#45;&gt;Node29198</title>
<path fill="none" stroke="#191970" d="M364.5394,-180C426.991,-180 541.956,-180 603.3362,-180"/>
<polygon fill="#191970" stroke="#191970" points="364.2485,-176.5001 354.2485,-180 364.2485,-183.5001 364.2485,-176.5001"/>
</g>
<!-- Node29206 -->
<g id="node21" class="node">
<title>Node29206</title>
<g id="a_node21"><a xlink:href="quickjs_8c.html#acc0cac53be5317d9cab6a79afcd7da48" target="_top" xlink:title="js_parse_block">
<polygon fill="none" stroke="#ff0000" points="444,-94.5 444,-113.5 526,-113.5 526,-94.5 444,-94.5"/>
<text text-anchor="middle" x="485" y="-101.5" font-family="Helvetica,sans-Serif" font-size="10.00" fill="#000000">js_parse_block</text>
</a>
</g>
</g>
<!-- Node29640&#45;&gt;Node29206 -->
<g id="edge29" class="edge">
<title>Node29640&#45;&gt;Node29206</title>
<path fill="none" stroke="#191970" d="M363.65,-169.1435C369.3538,-166.8723 374.9677,-164.1777 380,-161 399.6709,-148.5787 396.0526,-134.9723 416,-123 424.4162,-117.9486 434.209,-114.2055 443.7271,-111.4443"/>
<polygon fill="#191970" stroke="#191970" points="362.2896,-165.9129 354.0529,-172.5768 364.6475,-172.5039 362.2896,-165.9129"/>
</g>
<!-- Node29202 -->
<g id="node22" class="node">
<title>Node29202</title>
<g id="a_node22"><a xlink:href="quickjs_8c.html#adf95ddf430ef93fd9efea1cc2f8a2fbe" target="_top" xlink:title="js_parse_class_default_ctor">
<polygon fill="none" stroke="#000000" points="416,-132.5 416,-151.5 554,-151.5 554,-132.5 416,-132.5"/>
<text text-anchor="middle" x="485" y="-139.5" font-family="Helvetica,sans-Serif" font-size="10.00" fill="#000000">js_parse_class_default_ctor</text>
</a>
</g>
</g>
<!-- Node29640&#45;&gt;Node29202 -->
<g id="edge31" class="edge">
<title>Node29640&#45;&gt;Node29202</title>
<path fill="none" stroke="#191970" d="M363.9936,-170.1238C388.6439,-164.3947 419.5387,-157.2142 443.9407,-151.5428"/>
<polygon fill="#191970" stroke="#191970" points="363.1417,-166.7284 354.1937,-172.4015 364.7265,-173.5467 363.1417,-166.7284"/>
</g>
<!-- Node29219&#45;&gt;Node29220 -->
<g id="edge26" class="edge">
<title>Node29219&#45;&gt;Node29220</title>
<path fill="none" stroke="#191970" d="M527.0746,-230.3982C553.6542,-238.2304 587.4831,-248.1988 611.9975,-255.4224"/>
<polygon fill="#191970" stroke="#191970" points="527.8587,-226.9805 517.2772,-227.5112 525.8801,-233.695 527.8587,-226.9805"/>
</g>
<!-- Node29219&#45;&gt;Node29219 -->
<g id="edge27" class="edge">
<title>Node29219&#45;&gt;Node29219</title>
<path fill="none" stroke="#191970" d="M455.5076,-236.6539C456.7404,-241.9368 466.5712,-246 485,-246 513.082,-246 521.1995,-236.5653 509.3524,-227.7571"/>
<polygon fill="#191970" stroke="#191970" points="458.6757,-238.1668 460.6476,-227.7571 452.6145,-234.665 458.6757,-238.1668"/>
</g>
<!-- Node29219&#45;&gt;Node29198 -->
<g id="edge28" class="edge">
<title>Node29219&#45;&gt;Node29198</title>
<path fill="none" stroke="#191970" d="M535.234,-206.032C557.5855,-200.7069 583.5383,-194.5238 604.5408,-189.5201"/>
<polygon fill="#191970" stroke="#191970" points="534.1651,-202.6886 525.2486,-208.411 535.7875,-209.498 534.1651,-202.6886"/>
</g>
<!-- Node29202&#45;&gt;Node29198 -->
<g id="edge32" class="edge">
<title>Node29202&#45;&gt;Node29198</title>
<path fill="none" stroke="#191970" d="M535.234,-153.968C557.5855,-159.2931 583.5383,-165.4762 604.5408,-170.4799"/>
<polygon fill="#191970" stroke="#191970" points="535.7875,-150.502 525.2486,-151.589 534.1651,-157.3114 535.7875,-150.502"/>
</g>
<!-- Node29454&#45;&gt;Node29031 -->
<g id="edge42" class="edge">
<title>Node29454&#45;&gt;Node29031</title>
<path fill="none" stroke="#191970" d="M236.3447,-446C251.0045,-446 266.299,-446 279.8149,-446"/>
<polygon fill="#191970" stroke="#191970" points="236.3267,-442.5001 226.3267,-446 236.3267,-449.5001 236.3267,-442.5001"/>
</g>
</g>
</svg>
