<?xml version="1.0" encoding="UTF-8" standalone="no"?>
<!DOCTYPE svg PUBLIC "-//W3C//DTD SVG 1.1//EN"
 "http://www.w3.org/Graphics/SVG/1.1/DTD/svg11.dtd">
<!-- Generated by graphviz version 2.40.1 (20161225.0304)
 -->
<!-- Title: js_typed_array_of Pages: 1 -->
<svg width="1114pt" height="894pt"
 viewBox="0.00 0.00 1114.00 894.12" xmlns="http://www.w3.org/2000/svg" xmlns:xlink="http://www.w3.org/1999/xlink">
<g id="graph0" class="graph" transform="scale(1 1) rotate(0) translate(4 890.1243)">
<title>js_typed_array_of</title>
<!-- Node478040 -->
<g id="node1" class="node">
<title>Node478040</title>
<polygon fill="#bfbfbf" stroke="#000000" points="0,-237.6243 0,-256.6243 94,-256.6243 94,-237.6243 0,-237.6243"/>
<text text-anchor="middle" x="47" y="-244.6243" font-family="Helvetica,sans-Serif" font-size="10.00" fill="#000000">js_typed_array_of</text>
</g>
<!-- Node478041 -->
<g id="node2" class="node">
<title>Node478041</title>
<g id="a_node2"><a xlink:href="quickjs_8h.html#a775522f2d084fc8fa0fcb33f390006b4" target="_top" xlink:title="JS_DupValue">
<polygon fill="none" stroke="#000000" points="765.5,-47.6243 765.5,-66.6243 842.5,-66.6243 842.5,-47.6243 765.5,-47.6243"/>
<text text-anchor="middle" x="804" y="-54.6243" font-family="Helvetica,sans-Serif" font-size="10.00" fill="#000000">JS_DupValue</text>
</a>
</g>
</g>
<!-- Node478040&#45;&gt;Node478041 -->
<g id="edge1" class="edge">
<title>Node478040&#45;&gt;Node478041</title>
<path fill="none" stroke="#191970" d="M52.0045,-237.4416C76.3732,-191.7749 187.5168,-.1243 336.5,-.1243 336.5,-.1243 336.5,-.1243 488,-.1243 595.6859,-.1243 624.7509,1.8642 729,-25.1243 745.3685,-29.3618 762.7889,-36.6108 776.7166,-43.1388"/>
<polygon fill="#191970" stroke="#191970" points="775.2178,-46.3017 785.745,-47.4971 778.261,-39.9978 775.2178,-46.3017"/>
</g>
<!-- Node478042 -->
<g id="node3" class="node">
<title>Node478042</title>
<g id="a_node3"><a xlink:href="quickjs_8h.html#afaa20c47565bc704c6c85f3d77254e7d" target="_top" xlink:title="JS_FreeValue">
<polygon fill="none" stroke="#000000" points="765,-515.6243 765,-534.6243 843,-534.6243 843,-515.6243 765,-515.6243"/>
<text text-anchor="middle" x="804" y="-522.6243" font-family="Helvetica,sans-Serif" font-size="10.00" fill="#000000">JS_FreeValue</text>
</a>
</g>
</g>
<!-- Node478040&#45;&gt;Node478042 -->
<g id="edge2" class="edge">
<title>Node478040&#45;&gt;Node478042</title>
<path fill="none" stroke="#191970" d="M94.0728,-242.1323C151.3063,-236.5029 250.8735,-228.1243 336.5,-228.1243 336.5,-228.1243 336.5,-228.1243 488,-228.1243 599.0551,-228.1243 648.6627,-217.4486 729,-294.1243 760.4059,-324.0988 789.8153,-455.3203 800.1188,-505.5079"/>
<polygon fill="#191970" stroke="#191970" points="796.7113,-506.3162 802.1213,-515.4256 803.5728,-504.9307 796.7113,-506.3162"/>
</g>
<!-- Node478080 -->
<g id="node6" class="node">
<title>Node478080</title>
<g id="a_node6"><a xlink:href="quickjs_8h.html#ad80a83d73e9b7d872b88fbf2943aebe9" target="_top" xlink:title="JS_IsException">
<polygon fill="none" stroke="#000000" points="613,-303.6243 613,-322.6243 699,-322.6243 699,-303.6243 613,-303.6243"/>
<text text-anchor="middle" x="656" y="-310.6243" font-family="Helvetica,sans-Serif" font-size="10.00" fill="#000000">JS_IsException</text>
</a>
</g>
</g>
<!-- Node478040&#45;&gt;Node478080 -->
<g id="edge5" class="edge">
<title>Node478040&#45;&gt;Node478080</title>
<path fill="none" stroke="#191970" d="M94.2036,-247.9559C183.2929,-250.1335 382.0859,-257.8927 547,-285.1243 569.7574,-288.8821 594.7055,-295.1286 614.9843,-300.7693"/>
<polygon fill="#191970" stroke="#191970" points="614.2541,-304.2001 624.8297,-303.5614 616.1641,-297.4657 614.2541,-304.2001"/>
</g>
<!-- Node478081 -->
<g id="node7" class="node">
<title>Node478081</title>
<g id="a_node7"><a xlink:href="quickjs_8h.html#a2050bc428da1c65ac7eb87c3fa3b0392" target="_top" xlink:title="JS_NewInt32">
<polygon fill="none" stroke="#000000" points="766,-733.6243 766,-752.6243 842,-752.6243 842,-733.6243 766,-733.6243"/>
<text text-anchor="middle" x="804" y="-740.6243" font-family="Helvetica,sans-Serif" font-size="10.00" fill="#000000">JS_NewInt32</text>
</a>
</g>
</g>
<!-- Node478040&#45;&gt;Node478081 -->
<g id="edge6" class="edge">
<title>Node478040&#45;&gt;Node478081</title>
<path fill="none" stroke="#191970" d="M48.5891,-256.7147C55.2658,-295.8581 82.9032,-446.9524 130,-563.1243 180.9922,-688.9048 198.1618,-720.8494 280,-829.1243 301.5081,-857.5803 300.83,-886.1243 336.5,-886.1243 336.5,-886.1243 336.5,-886.1243 488,-886.1243 599.9171,-886.1243 632.0169,-868.9786 729,-813.1243 752.9618,-799.3242 775.4438,-776.5178 789.4282,-760.7041"/>
<polygon fill="#191970" stroke="#191970" points="792.4111,-762.6035 796.2785,-752.7397 787.1041,-758.0388 792.4111,-762.6035"/>
</g>
<!-- Node478082 -->
<g id="node8" class="node">
<title>Node478082</title>
<g id="a_node8"><a xlink:href="quickjs_8c.html#aae909eaec829081b270012adfcd717a4" target="_top" xlink:title="JS_SetPropertyUint32">
<polygon fill="none" stroke="#000000" points="130,-534.6243 130,-553.6243 244,-553.6243 244,-534.6243 130,-534.6243"/>
<text text-anchor="middle" x="187" y="-541.6243" font-family="Helvetica,sans-Serif" font-size="10.00" fill="#000000">JS_SetPropertyUint32</text>
</a>
</g>
</g>
<!-- Node478040&#45;&gt;Node478082 -->
<g id="edge7" class="edge">
<title>Node478040&#45;&gt;Node478082</title>
<path fill="none" stroke="#191970" d="M51.4995,-256.6696C71.3268,-298.7318 151.1077,-467.9813 178.0562,-525.1507"/>
<polygon fill="#191970" stroke="#191970" points="175.0171,-526.9121 182.4469,-534.4652 181.3489,-523.9274 175.0171,-526.9121"/>
</g>
<!-- Node478473 -->
<g id="node23" class="node">
<title>Node478473</title>
<g id="a_node23"><a xlink:href="quickjs_8c.html#a8c18ce4b7a8c97ab520d4d37a1c6fc72" target="_top" xlink:title="js_typed_array_create">
<polygon fill="none" stroke="#000000" points="280,-142.6243 280,-161.6243 393,-161.6243 393,-142.6243 280,-142.6243"/>
<text text-anchor="middle" x="336.5" y="-149.6243" font-family="Helvetica,sans-Serif" font-size="10.00" fill="#000000">js_typed_array_create</text>
</a>
</g>
</g>
<!-- Node478040&#45;&gt;Node478473 -->
<g id="edge40" class="edge">
<title>Node478040&#45;&gt;Node478473</title>
<path fill="none" stroke="#191970" d="M69.6988,-237.4818C86.2694,-230.5945 109.3511,-221.3138 130,-214.1243 185.1443,-194.9241 249.7595,-176.102 291.8278,-164.3265"/>
<polygon fill="#191970" stroke="#191970" points="292.8003,-167.6889 301.4942,-161.6337 290.9218,-160.9457 292.8003,-167.6889"/>
</g>
<!-- Node478043 -->
<g id="node4" class="node">
<title>Node478043</title>
<g id="a_node4"><a xlink:href="quickjs_8c.html#aa059f309c30fd5166d16c82a97973146" target="_top" xlink:title="__JS_FreeValue">
<polygon fill="none" stroke="#000000" points="879,-515.6243 879,-534.6243 968,-534.6243 968,-515.6243 879,-515.6243"/>
<text text-anchor="middle" x="923.5" y="-522.6243" font-family="Helvetica,sans-Serif" font-size="10.00" fill="#000000">__JS_FreeValue</text>
</a>
</g>
</g>
<!-- Node478042&#45;&gt;Node478043 -->
<g id="edge3" class="edge">
<title>Node478042&#45;&gt;Node478043</title>
<path fill="none" stroke="#191970" d="M843.1288,-525.1243C851.3481,-525.1243 860.1608,-525.1243 868.8298,-525.1243"/>
<polygon fill="#191970" stroke="#191970" points="868.8964,-528.6244 878.8964,-525.1243 868.8964,-521.6244 868.8964,-528.6244"/>
</g>
<!-- Node478044 -->
<g id="node5" class="node">
<title>Node478044</title>
<g id="a_node5"><a xlink:href="quickjs_8c.html#ab1ea3fad7d138be12144a38be4d36423" target="_top" xlink:title="__JS_FreeValueRT">
<polygon fill="none" stroke="#ff0000" points="1004,-515.6243 1004,-534.6243 1106,-534.6243 1106,-515.6243 1004,-515.6243"/>
<text text-anchor="middle" x="1055" y="-522.6243" font-family="Helvetica,sans-Serif" font-size="10.00" fill="#000000">__JS_FreeValueRT</text>
</a>
</g>
</g>
<!-- Node478043&#45;&gt;Node478044 -->
<g id="edge4" class="edge">
<title>Node478043&#45;&gt;Node478044</title>
<path fill="none" stroke="#191970" d="M968.0199,-525.1243C976.2672,-525.1243 985.0138,-525.1243 993.6583,-525.1243"/>
<polygon fill="#191970" stroke="#191970" points="993.7233,-528.6244 1003.7233,-525.1243 993.7232,-521.6244 993.7233,-528.6244"/>
</g>
<!-- Node478083 -->
<g id="node9" class="node">
<title>Node478083</title>
<g id="a_node9"><a xlink:href="quickjs_8h.html#a88259aa0da61ac754402c64ccecee116" target="_top" xlink:title="JS_NewUint32">
<polygon fill="none" stroke="#000000" points="295,-800.6243 295,-819.6243 378,-819.6243 378,-800.6243 295,-800.6243"/>
<text text-anchor="middle" x="336.5" y="-807.6243" font-family="Helvetica,sans-Serif" font-size="10.00" fill="#000000">JS_NewUint32</text>
</a>
</g>
</g>
<!-- Node478082&#45;&gt;Node478083 -->
<g id="edge8" class="edge">
<title>Node478082&#45;&gt;Node478083</title>
<path fill="none" stroke="#191970" d="M192.4981,-553.9068C214.5705,-593.1795 296.9549,-739.7632 326.1566,-791.7207"/>
<polygon fill="#191970" stroke="#191970" points="323.1589,-793.5306 331.1096,-800.5333 329.2612,-790.1009 323.1589,-793.5306"/>
</g>
<!-- Node478085 -->
<g id="node11" class="node">
<title>Node478085</title>
<g id="a_node11"><a xlink:href="quickjs_8c.html#aee75cc1546e19479e3ccda58f3b50a96" target="_top" xlink:title="JS_SetPropertyValue">
<polygon fill="none" stroke="#000000" points="281.5,-534.6243 281.5,-553.6243 391.5,-553.6243 391.5,-534.6243 281.5,-534.6243"/>
<text text-anchor="middle" x="336.5" y="-541.6243" font-family="Helvetica,sans-Serif" font-size="10.00" fill="#000000">JS_SetPropertyValue</text>
</a>
</g>
</g>
<!-- Node478082&#45;&gt;Node478085 -->
<g id="edge11" class="edge">
<title>Node478082&#45;&gt;Node478085</title>
<path fill="none" stroke="#191970" d="M244.373,-544.1243C253.2275,-544.1243 262.4264,-544.1243 271.4344,-544.1243"/>
<polygon fill="#191970" stroke="#191970" points="271.4952,-547.6244 281.4951,-544.1243 271.4951,-540.6244 271.4952,-547.6244"/>
</g>
<!-- Node478083&#45;&gt;Node478081 -->
<g id="edge9" class="edge">
<title>Node478083&#45;&gt;Node478081</title>
<path fill="none" stroke="#191970" d="M374.0369,-819.6338C390.744,-823.3987 410.7325,-827.2675 429,-829.1243 481.1756,-834.4275 495.2377,-837.5552 547,-829.1243 631.9742,-815.284 726.7772,-777.2907 773.9436,-756.7439"/>
<polygon fill="#191970" stroke="#191970" points="775.5233,-759.8726 783.2646,-752.6392 772.7021,-753.4663 775.5233,-759.8726"/>
</g>
<!-- Node478084 -->
<g id="node10" class="node">
<title>Node478084</title>
<g id="a_node10"><a xlink:href="quickjs_8h.html#a9bf98b18de88b4199910a43e933eb97d" target="_top" xlink:title="__JS_NewFloat64">
<polygon fill="none" stroke="#000000" points="439.5,-800.6243 439.5,-819.6243 536.5,-819.6243 536.5,-800.6243 439.5,-800.6243"/>
<text text-anchor="middle" x="488" y="-807.6243" font-family="Helvetica,sans-Serif" font-size="10.00" fill="#000000">__JS_NewFloat64</text>
</a>
</g>
</g>
<!-- Node478083&#45;&gt;Node478084 -->
<g id="edge10" class="edge">
<title>Node478083&#45;&gt;Node478084</title>
<path fill="none" stroke="#191970" d="M378.2991,-810.1243C393.9657,-810.1243 412.0752,-810.1243 429.0085,-810.1243"/>
<polygon fill="#191970" stroke="#191970" points="429.3676,-813.6244 439.3676,-810.1243 429.3675,-806.6244 429.3676,-813.6244"/>
</g>
<!-- Node478085&#45;&gt;Node478042 -->
<g id="edge17" class="edge">
<title>Node478085&#45;&gt;Node478042</title>
<path fill="none" stroke="#191970" d="M347.8436,-553.8503C364.432,-567.4608 396.8436,-591.7906 429,-603.1243 554.9529,-647.5171 608.8207,-678.3634 729,-620.1243 761.6153,-604.3188 784.3264,-566.6883 795.6742,-543.8158"/>
<polygon fill="#191970" stroke="#191970" points="798.8504,-545.2863 799.9608,-534.7498 792.5221,-542.2941 798.8504,-545.2863"/>
</g>
<!-- Node478086 -->
<g id="node12" class="node">
<title>Node478086</title>
<g id="a_node12"><a xlink:href="quickjs_8c.html#a014abd680db53ab89cb133345742a59c" target="_top" xlink:title="__attribute__">
<polygon fill="none" stroke="#ff0000" points="619.5,-724.6243 619.5,-743.6243 692.5,-743.6243 692.5,-724.6243 619.5,-724.6243"/>
<text text-anchor="middle" x="656" y="-731.6243" font-family="Helvetica,sans-Serif" font-size="10.00" fill="#000000">__attribute__</text>
</a>
</g>
</g>
<!-- Node478085&#45;&gt;Node478086 -->
<g id="edge12" class="edge">
<title>Node478085&#45;&gt;Node478086</title>
<path fill="none" stroke="#191970" d="M337.262,-553.9274C340.55,-588.6404 356.8383,-706.1485 429,-753.1243 489.5206,-792.522 579.1968,-766.0491 625.6444,-747.6303"/>
<polygon fill="#191970" stroke="#191970" points="627.2179,-750.7679 635.1419,-743.7351 624.5617,-744.2914 627.2179,-750.7679"/>
</g>
<!-- Node478252 -->
<g id="node13" class="node">
<title>Node478252</title>
<g id="a_node13"><a xlink:href="quickjs_8c.html#adbffd820afae76d09c641b5b911e3600" target="_top" xlink:title="add_fast_array_element">
<polygon fill="none" stroke="#ff0000" points="595.5,-591.6243 595.5,-610.6243 716.5,-610.6243 716.5,-591.6243 595.5,-591.6243"/>
<text text-anchor="middle" x="656" y="-598.6243" font-family="Helvetica,sans-Serif" font-size="10.00" fill="#000000">add_fast_array_element</text>
</a>
</g>
</g>
<!-- Node478085&#45;&gt;Node478252 -->
<g id="edge13" class="edge">
<title>Node478085&#45;&gt;Node478252</title>
<path fill="none" stroke="#191970" d="M356.1938,-553.6493C374.5774,-562.0872 403.0036,-573.9907 429,-580.1243 480.3901,-592.2491 539.8667,-597.4398 585.0449,-599.6308"/>
<polygon fill="#191970" stroke="#191970" points="584.8939,-603.1274 595.0404,-600.0781 585.2069,-596.1344 584.8939,-603.1274"/>
</g>
<!-- Node478064 -->
<g id="node14" class="node">
<title>Node478064</title>
<g id="a_node14"><a xlink:href="quickjs_8c.html#ab7fc45a99935a1c0ba50b0216d9401a9" target="_top" xlink:title="JS_FreeAtom">
<polygon fill="none" stroke="#ff0000" points="449.5,-724.6243 449.5,-743.6243 526.5,-743.6243 526.5,-724.6243 449.5,-724.6243"/>
<text text-anchor="middle" x="488" y="-731.6243" font-family="Helvetica,sans-Serif" font-size="10.00" fill="#000000">JS_FreeAtom</text>
</a>
</g>
</g>
<!-- Node478085&#45;&gt;Node478064 -->
<g id="edge16" class="edge">
<title>Node478085&#45;&gt;Node478064</title>
<path fill="none" stroke="#191970" d="M338.9918,-553.8992C346.903,-582.9578 374.2207,-669.6135 429,-715.1243 432.3057,-717.8707 436.0159,-720.2226 439.924,-722.2362"/>
<polygon fill="#191970" stroke="#191970" points="438.7407,-725.539 449.3046,-726.3474 441.5505,-719.1276 438.7407,-725.539"/>
</g>
<!-- Node478354 -->
<g id="node15" class="node">
<title>Node478354</title>
<g id="a_node15"><a xlink:href="quickjs_8c.html#ad7f03358a8088ca920ab308225c6b2e6" target="_top" xlink:title="JS_SetPropertyInternal">
<polygon fill="none" stroke="#ff0000" points="429,-534.6243 429,-553.6243 547,-553.6243 547,-534.6243 429,-534.6243"/>
<text text-anchor="middle" x="488" y="-541.6243" font-family="Helvetica,sans-Serif" font-size="10.00" fill="#000000">JS_SetPropertyInternal</text>
</a>
</g>
</g>
<!-- Node478085&#45;&gt;Node478354 -->
<g id="edge18" class="edge">
<title>Node478085&#45;&gt;Node478354</title>
<path fill="none" stroke="#191970" d="M391.6235,-537.6018C400.4138,-537.4034 409.6053,-537.3347 418.6731,-537.3959"/>
<polygon fill="#191970" stroke="#191970" points="418.7883,-540.8975 428.8304,-537.5201 418.8739,-533.898 418.7883,-540.8975"/>
</g>
<!-- Node478213 -->
<g id="node16" class="node">
<title>Node478213</title>
<g id="a_node16"><a xlink:href="quickjs_8c.html#a033dd3ebd29c4eb9f0baff1dd0fec0b1" target="_top" xlink:title="JS_ThrowTypeErrorDetached\lArrayBuffer">
<polygon fill="none" stroke="#000000" points="583,-428.1243 583,-458.1243 729,-458.1243 729,-428.1243 583,-428.1243"/>
<text text-anchor="start" x="591" y="-446.1243" font-family="Helvetica,sans-Serif" font-size="10.00" fill="#000000">JS_ThrowTypeErrorDetached</text>
<text text-anchor="middle" x="656" y="-435.1243" font-family="Helvetica,sans-Serif" font-size="10.00" fill="#000000">ArrayBuffer</text>
</a>
</g>
</g>
<!-- Node478085&#45;&gt;Node478213 -->
<g id="edge30" class="edge">
<title>Node478085&#45;&gt;Node478213</title>
<path fill="none" stroke="#191970" d="M371.3283,-534.525C413.228,-522.8252 485.6027,-502.132 547,-482.1243 566.446,-475.7873 587.6555,-468.3259 606.1537,-461.6353"/>
<polygon fill="#191970" stroke="#191970" points="607.354,-464.9231 615.5562,-458.2168 604.9622,-458.3444 607.354,-464.9231"/>
</g>
<!-- Node478267 -->
<g id="node17" class="node">
<title>Node478267</title>
<g id="a_node17"><a xlink:href="quickjs_8c.html#a0ec52a675282f321a6f42aa1298a53fe" target="_top" xlink:title="set_value">
<polygon fill="none" stroke="#000000" points="626.5,-553.6243 626.5,-572.6243 685.5,-572.6243 685.5,-553.6243 626.5,-553.6243"/>
<text text-anchor="middle" x="656" y="-560.6243" font-family="Helvetica,sans-Serif" font-size="10.00" fill="#000000">set_value</text>
</a>
</g>
</g>
<!-- Node478085&#45;&gt;Node478267 -->
<g id="edge38" class="edge">
<title>Node478085&#45;&gt;Node478267</title>
<path fill="none" stroke="#191970" d="M374.0369,-553.6338C390.744,-557.3987 410.7325,-561.2675 429,-563.1243 494.2919,-569.7607 570.6944,-567.7631 616.1241,-565.5562"/>
<polygon fill="#191970" stroke="#191970" points="616.3495,-569.0493 626.1567,-565.0406 615.9902,-562.0585 616.3495,-569.0493"/>
</g>
<!-- Node478214 -->
<g id="node18" class="node">
<title>Node478214</title>
<g id="a_node18"><a xlink:href="quickjs_8c.html#a869fa88a646c0a1914ec2e559b193b5c" target="_top" xlink:title="typed_array_is_detached">
<polygon fill="none" stroke="#000000" points="593.5,-389.6243 593.5,-408.6243 718.5,-408.6243 718.5,-389.6243 593.5,-389.6243"/>
<text text-anchor="middle" x="656" y="-396.6243" font-family="Helvetica,sans-Serif" font-size="10.00" fill="#000000">typed_array_is_detached</text>
</a>
</g>
</g>
<!-- Node478085&#45;&gt;Node478214 -->
<g id="edge39" class="edge">
<title>Node478085&#45;&gt;Node478214</title>
<path fill="none" stroke="#191970" d="M348.3395,-534.4077C365.2675,-520.9455 397.8001,-496.642 429,-482.1243 478.4834,-459.099 498.7834,-473.6963 547,-448.1243 565.3997,-438.3658 564.4754,-427.6435 583,-418.1243 587.5427,-415.7899 592.3955,-413.7259 597.3586,-411.9039"/>
<polygon fill="#191970" stroke="#191970" points="598.6082,-415.1767 606.986,-408.6912 596.3923,-408.5367 598.6082,-415.1767"/>
</g>
<!-- Node478234 -->
<g id="node19" class="node">
<title>Node478234</title>
<g id="a_node19"><a xlink:href="quickjs_8c.html#ab1b614ef35f1cea05da0ad4927c53118" target="_top" xlink:title="JS_ToFloat64Free">
<polygon fill="none" stroke="#ff0000" points="439.5,-686.6243 439.5,-705.6243 536.5,-705.6243 536.5,-686.6243 439.5,-686.6243"/>
<text text-anchor="middle" x="488" y="-693.6243" font-family="Helvetica,sans-Serif" font-size="10.00" fill="#000000">JS_ToFloat64Free</text>
</a>
</g>
</g>
<!-- Node478085&#45;&gt;Node478234 -->
<g id="edge31" class="edge">
<title>Node478085&#45;&gt;Node478234</title>
<path fill="none" stroke="#191970" d="M341.1238,-553.8916C352.7107,-577.405 385.2256,-637.7504 429,-672.1243 434.0797,-676.1131 439.9126,-679.5311 445.8906,-682.431"/>
<polygon fill="#191970" stroke="#191970" points="444.7533,-685.7541 455.3167,-686.5694 447.5673,-679.3446 444.7533,-685.7541"/>
</g>
<!-- Node478216 -->
<g id="node20" class="node">
<title>Node478216</title>
<g id="a_node20"><a xlink:href="quickjs_8c.html#a643088ab23784b7f3c6ff94c37228256" target="_top" xlink:title="JS_ToInt32Free">
<polygon fill="none" stroke="#ff0000" points="445,-370.6243 445,-389.6243 531,-389.6243 531,-370.6243 445,-370.6243"/>
<text text-anchor="middle" x="488" y="-377.6243" font-family="Helvetica,sans-Serif" font-size="10.00" fill="#000000">JS_ToInt32Free</text>
</a>
</g>
</g>
<!-- Node478085&#45;&gt;Node478216 -->
<g id="edge32" class="edge">
<title>Node478085&#45;&gt;Node478216</title>
<path fill="none" stroke="#191970" d="M339.9911,-534.3715C349.7891,-508.3845 380.0668,-436.8864 429,-399.1243 431.4347,-397.2454 434.061,-395.5493 436.8059,-394.0185"/>
<polygon fill="#191970" stroke="#191970" points="438.3785,-397.1461 445.8865,-389.6709 435.3556,-390.8324 438.3785,-397.1461"/>
</g>
<!-- Node478472 -->
<g id="node21" class="node">
<title>Node478472</title>
<g id="a_node21"><a xlink:href="quickjs_8c.html#a4623c0fbf1417b8c089ba0f5037c5362" target="_top" xlink:title="JS_ToUint8ClampFree">
<polygon fill="none" stroke="#ff0000" points="430,-332.6243 430,-351.6243 546,-351.6243 546,-332.6243 430,-332.6243"/>
<text text-anchor="middle" x="488" y="-339.6243" font-family="Helvetica,sans-Serif" font-size="10.00" fill="#000000">JS_ToUint8ClampFree</text>
</a>
</g>
</g>
<!-- Node478085&#45;&gt;Node478472 -->
<g id="edge34" class="edge">
<title>Node478085&#45;&gt;Node478472</title>
<path fill="none" stroke="#191970" d="M338.5736,-534.5391C345.6,-504.3599 371.357,-410.3868 429,-361.1243 431.0043,-359.4114 433.1653,-357.8524 435.4347,-356.4334"/>
<polygon fill="#191970" stroke="#191970" points="437.3852,-359.363 444.6229,-351.6257 434.1399,-353.1608 437.3852,-359.363"/>
</g>
<!-- Node478190 -->
<g id="node22" class="node">
<title>Node478190</title>
<g id="a_node22"><a xlink:href="quickjs_8c.html#a859d5c989a2aaecef1653b3ac279e108" target="_top" xlink:title="JS_ValueToAtom">
<polygon fill="none" stroke="#ff0000" points="441.5,-294.6243 441.5,-313.6243 534.5,-313.6243 534.5,-294.6243 441.5,-294.6243"/>
<text text-anchor="middle" x="488" y="-301.6243" font-family="Helvetica,sans-Serif" font-size="10.00" fill="#000000">JS_ValueToAtom</text>
</a>
</g>
</g>
<!-- Node478085&#45;&gt;Node478190 -->
<g id="edge36" class="edge">
<title>Node478085&#45;&gt;Node478190</title>
<path fill="none" stroke="#191970" d="M337.6582,-534.5509C342.2839,-500.5209 362.529,-384.1817 429,-323.1243 430.7064,-321.5569 432.5431,-320.1187 434.4761,-318.7992"/>
<polygon fill="#191970" stroke="#191970" points="436.4657,-321.6957 443.4629,-313.7402 433.0318,-315.5958 436.4657,-321.6957"/>
</g>
<!-- Node478252&#45;&gt;Node478042 -->
<g id="edge14" class="edge">
<title>Node478252&#45;&gt;Node478042</title>
<path fill="none" stroke="#191970" d="M703.7115,-591.617C712.3465,-589.0872 721.1079,-585.9585 729,-582.1243 750.6426,-571.6097 772.1805,-554.3543 786.5857,-541.5789"/>
<polygon fill="#191970" stroke="#191970" points="789.1493,-543.9784 794.19,-534.6595 784.4381,-538.801 789.1493,-543.9784"/>
</g>
<!-- Node478252&#45;&gt;Node478081 -->
<g id="edge15" class="edge">
<title>Node478252&#45;&gt;Node478081</title>
<path fill="none" stroke="#191970" d="M701.2677,-610.6654C711.057,-614.1325 720.8919,-618.8169 729,-625.1243 763.0155,-651.5853 785.9226,-698.0974 796.7689,-724.1226"/>
<polygon fill="#191970" stroke="#191970" points="793.599,-725.6221 800.5626,-733.6069 800.0983,-723.0223 793.599,-725.6221"/>
</g>
<!-- Node478354&#45;&gt;Node478041 -->
<g id="edge21" class="edge">
<title>Node478354&#45;&gt;Node478041</title>
<path fill="none" stroke="#191970" d="M537.2226,-534.6015C600.0257,-521.4439 703.5856,-496.0287 729,-467.1243 781.2716,-407.6745 798.9778,-150.357 803.0203,-76.8196"/>
<polygon fill="#191970" stroke="#191970" points="806.5248,-76.8237 803.555,-66.6537 799.5345,-76.456 806.5248,-76.8237"/>
</g>
<!-- Node478354&#45;&gt;Node478042 -->
<g id="edge22" class="edge">
<title>Node478354&#45;&gt;Node478042</title>
<path fill="none" stroke="#191970" d="M547.0665,-540.5728C606.9348,-536.9731 698.5137,-531.4668 754.638,-528.0922"/>
<polygon fill="#191970" stroke="#191970" points="754.9176,-531.5819 764.6894,-527.4879 754.4974,-524.5945 754.9176,-531.5819"/>
</g>
<!-- Node478354&#45;&gt;Node478080 -->
<g id="edge23" class="edge">
<title>Node478354&#45;&gt;Node478080</title>
<path fill="none" stroke="#191970" d="M494.9666,-534.4482C506.8723,-517.5813 531.3603,-481.411 547,-448.1243 568.1578,-403.0931 548.7225,-378.1868 583,-342.1243 589.1435,-335.6608 596.9115,-330.6072 605.0731,-326.6649"/>
<polygon fill="#191970" stroke="#191970" points="606.5782,-329.8278 614.3896,-322.6702 603.8196,-323.3943 606.5782,-329.8278"/>
</g>
<!-- Node478354&#45;&gt;Node478081 -->
<g id="edge24" class="edge">
<title>Node478354&#45;&gt;Node478081</title>
<path fill="none" stroke="#191970" d="M498.6603,-553.6368C515.7738,-568.6765 550.735,-598.4601 583,-620.1243 648.9193,-664.3855 731.977,-707.4869 775.0733,-728.984"/>
<polygon fill="#191970" stroke="#191970" points="773.6272,-732.1736 784.141,-733.4819 776.7379,-725.9027 773.6272,-732.1736"/>
</g>
<!-- Node478354&#45;&gt;Node478085 -->
<g id="edge25" class="edge">
<title>Node478354&#45;&gt;Node478085</title>
<path fill="none" stroke="#191970" d="M428.8304,-550.7285C419.93,-550.8873 410.7084,-550.9164 401.6905,-550.8156"/>
<polygon fill="#191970" stroke="#191970" points="401.6809,-547.3151 391.6235,-550.6468 401.5634,-554.3141 401.6809,-547.3151"/>
</g>
<!-- Node478354&#45;&gt;Node478086 -->
<g id="edge19" class="edge">
<title>Node478354&#45;&gt;Node478086</title>
<path fill="none" stroke="#191970" d="M496.3338,-553.7946C512.7979,-572.8749 550.6995,-616.6796 583,-653.1243 602.5673,-675.2021 625.3627,-700.416 640.2053,-716.7668"/>
<polygon fill="#191970" stroke="#191970" points="637.8675,-719.3985 647.1829,-724.4458 643.0482,-714.691 637.8675,-719.3985"/>
</g>
<!-- Node478354&#45;&gt;Node478252 -->
<g id="edge20" class="edge">
<title>Node478354&#45;&gt;Node478252</title>
<path fill="none" stroke="#191970" d="M509.5972,-553.6688C528.6677,-561.8776 557.3495,-573.6932 583,-582.1243 590.348,-584.5395 598.1911,-586.8516 605.9098,-588.9796"/>
<polygon fill="#191970" stroke="#191970" points="605.0082,-592.3615 615.5735,-591.5706 606.821,-585.6003 605.0082,-592.3615"/>
</g>
<!-- Node478354&#45;&gt;Node478213 -->
<g id="edge26" class="edge">
<title>Node478354&#45;&gt;Node478213</title>
<path fill="none" stroke="#191970" d="M520.2701,-534.5525C529.4466,-530.9196 539.0877,-526.1611 547,-520.1243 567.919,-504.1637 562.1096,-489.1223 583,-473.1243 588.0687,-469.2426 593.7106,-465.7801 599.5491,-462.7128"/>
<polygon fill="#191970" stroke="#191970" points="601.3589,-465.7252 608.8316,-458.2146 598.3062,-459.4259 601.3589,-465.7252"/>
</g>
<!-- Node478354&#45;&gt;Node478267 -->
<g id="edge27" class="edge">
<title>Node478354&#45;&gt;Node478267</title>
<path fill="none" stroke="#191970" d="M547.2305,-550.823C570.1821,-553.4187 595.8431,-556.3208 616.4743,-558.6541"/>
<polygon fill="#191970" stroke="#191970" points="616.1331,-562.1378 626.4631,-559.7838 616.9199,-555.1821 616.1331,-562.1378"/>
</g>
<!-- Node478354&#45;&gt;Node478214 -->
<g id="edge29" class="edge">
<title>Node478354&#45;&gt;Node478214</title>
<path fill="none" stroke="#191970" d="M498.8623,-534.2988C511.3901,-522.6267 532.1626,-502.1988 547,-482.1243 566.3981,-455.8793 557.1485,-438.0438 583,-418.1243 585.334,-416.3258 587.8217,-414.6967 590.418,-413.2211"/>
<polygon fill="#191970" stroke="#191970" points="592.1255,-416.283 599.5982,-408.7723 589.0728,-409.9837 592.1255,-416.283"/>
</g>
<!-- Node478267&#45;&gt;Node478042 -->
<g id="edge28" class="edge">
<title>Node478267&#45;&gt;Node478042</title>
<path fill="none" stroke="#191970" d="M685.5943,-555.5257C706.04,-550.2762 733.6626,-543.1839 757.0852,-537.17"/>
<polygon fill="#191970" stroke="#191970" points="758.0178,-540.5441 766.8332,-534.6671 756.2769,-533.764 758.0178,-540.5441"/>
</g>
<!-- Node478216&#45;&gt;Node478080 -->
<g id="edge33" class="edge">
<title>Node478216&#45;&gt;Node478080</title>
<path fill="none" stroke="#191970" d="M521.1382,-370.5702C529.6726,-367.8067 538.7684,-364.5908 547,-361.1243 563.6735,-354.1026 566.5695,-349.6971 583,-342.1243 594.9979,-336.5945 608.3689,-331.097 620.3558,-326.3993"/>
<polygon fill="#191970" stroke="#191970" points="621.9721,-329.527 630.0387,-322.6581 619.4493,-322.9974 621.9721,-329.527"/>
</g>
<!-- Node478472&#45;&gt;Node478080 -->
<g id="edge35" class="edge">
<title>Node478472&#45;&gt;Node478080</title>
<path fill="none" stroke="#191970" d="M543.4751,-332.5482C562.5947,-329.2478 583.9516,-325.5612 602.8787,-322.294"/>
<polygon fill="#191970" stroke="#191970" points="603.5622,-325.7279 612.8211,-320.5778 602.3714,-318.8299 603.5622,-325.7279"/>
</g>
<!-- Node478190&#45;&gt;Node478080 -->
<g id="edge37" class="edge">
<title>Node478190&#45;&gt;Node478080</title>
<path fill="none" stroke="#191970" d="M534.7974,-306.6313C555.9189,-307.7628 580.973,-309.105 602.8047,-310.2745"/>
<polygon fill="#191970" stroke="#191970" points="602.7333,-313.7756 612.9063,-310.8157 603.1079,-306.7857 602.7333,-313.7756"/>
</g>
<!-- Node478473&#45;&gt;Node478041 -->
<g id="edge42" class="edge">
<title>Node478473&#45;&gt;Node478041</title>
<path fill="none" stroke="#191970" d="M342.1263,-142.4338C354.6381,-121.9844 387.0074,-74.847 429,-57.1243 538.1308,-11.0661 681.5574,-30.4762 755.4077,-45.5608"/>
<polygon fill="#191970" stroke="#191970" points="754.8493,-49.0199 765.3557,-47.6534 756.2903,-42.1698 754.8493,-49.0199"/>
</g>
<!-- Node478473&#45;&gt;Node478042 -->
<g id="edge43" class="edge">
<title>Node478473&#45;&gt;Node478042</title>
<path fill="none" stroke="#191970" d="M393.1498,-143.283C477.7179,-133.5408 636.8665,-129.0792 729,-214.1243 772.5113,-254.288 795.5716,-443.3051 802.0626,-505.3445"/>
<polygon fill="#191970" stroke="#191970" points="798.5899,-505.7915 803.083,-515.3864 805.5541,-505.0837 798.5899,-505.7915"/>
</g>
<!-- Node478473&#45;&gt;Node478080 -->
<g id="edge44" class="edge">
<title>Node478473&#45;&gt;Node478080</title>
<path fill="none" stroke="#191970" d="M357.9437,-161.7382C396.2681,-179.047 478.8827,-216.9337 547,-252.1243 576.1643,-267.1911 608.9498,-285.768 630.8768,-298.4359"/>
<polygon fill="#191970" stroke="#191970" points="629.1607,-301.4866 639.5671,-303.4758 632.6725,-295.4312 629.1607,-301.4866"/>
</g>
<!-- Node478409 -->
<g id="node24" class="node">
<title>Node478409</title>
<g id="a_node24"><a xlink:href="quickjs_8c.html#a28704096ee67c5b0ab1bd60ce050e36a" target="_top" xlink:title="JS_CallConstructor">
<polygon fill="none" stroke="#ff0000" points="437,-66.6243 437,-85.6243 539,-85.6243 539,-66.6243 437,-66.6243"/>
<text text-anchor="middle" x="488" y="-73.6243" font-family="Helvetica,sans-Serif" font-size="10.00" fill="#000000">JS_CallConstructor</text>
</a>
</g>
</g>
<!-- Node478473&#45;&gt;Node478409 -->
<g id="edge41" class="edge">
<title>Node478473&#45;&gt;Node478409</title>
<path fill="none" stroke="#191970" d="M349.7168,-142.5551C367.1716,-130.2586 399.1921,-108.8635 429,-95.1243 433.7047,-92.9557 438.7264,-90.9309 443.7795,-89.0724"/>
<polygon fill="#191970" stroke="#191970" points="445.1626,-92.2972 453.4603,-85.7094 442.8655,-85.6848 445.1626,-92.2972"/>
</g>
<!-- Node478474 -->
<g id="node25" class="node">
<title>Node478474</title>
<g id="a_node25"><a xlink:href="quickjs_8c.html#a07acd485a57197356906928a788a0644" target="_top" xlink:title="JS_ToLengthFree">
<polygon fill="none" stroke="#000000" points="441,-104.6243 441,-123.6243 535,-123.6243 535,-104.6243 441,-104.6243"/>
<text text-anchor="middle" x="488" y="-111.6243" font-family="Helvetica,sans-Serif" font-size="10.00" fill="#000000">JS_ToLengthFree</text>
</a>
</g>
</g>
<!-- Node478473&#45;&gt;Node478474 -->
<g id="edge45" class="edge">
<title>Node478473&#45;&gt;Node478474</title>
<path fill="none" stroke="#191970" d="M374.7298,-142.5353C394.6319,-137.5434 419.1567,-131.3919 440.2909,-126.0909"/>
<polygon fill="#191970" stroke="#191970" points="441.1971,-129.4721 450.0451,-123.6443 439.494,-122.6825 441.1971,-129.4721"/>
</g>
<!-- Node478477 -->
<g id="node27" class="node">
<title>Node478477</title>
<g id="a_node27"><a xlink:href="quickjs_8c.html#add71c7e0efcb1fd14572d39e2672971d" target="_top" xlink:title="js_typed_array_get\l_length_internal">
<polygon fill="none" stroke="#000000" points="438.5,-409.1243 438.5,-439.1243 537.5,-439.1243 537.5,-409.1243 438.5,-409.1243"/>
<text text-anchor="start" x="446.5" y="-427.1243" font-family="Helvetica,sans-Serif" font-size="10.00" fill="#000000">js_typed_array_get</text>
<text text-anchor="middle" x="488" y="-416.1243" font-family="Helvetica,sans-Serif" font-size="10.00" fill="#000000">_length_internal</text>
</a>
</g>
</g>
<!-- Node478473&#45;&gt;Node478477 -->
<g id="edge49" class="edge">
<title>Node478473&#45;&gt;Node478477</title>
<path fill="none" stroke="#191970" d="M337.4436,-162.0718C341.4174,-198.6148 359.9291,-327.0561 429,-399.1243 430.3856,-400.57 431.868,-401.9359 433.4267,-403.2263"/>
<polygon fill="#191970" stroke="#191970" points="431.564,-406.1948 441.7623,-409.0664 435.5807,-400.4618 431.564,-406.1948"/>
</g>
<!-- Node478474&#45;&gt;Node478042 -->
<g id="edge46" class="edge">
<title>Node478474&#45;&gt;Node478042</title>
<path fill="none" stroke="#191970" d="M530.6225,-104.6008C584.0858,-95.3827 675.2489,-89.1123 729,-138.1243 784.0894,-188.3566 799.7327,-433.3922 803.1705,-505.2696"/>
<polygon fill="#191970" stroke="#191970" points="799.6894,-505.7681 803.6359,-515.6005 806.6823,-505.453 799.6894,-505.7681"/>
</g>
<!-- Node478475 -->
<g id="node26" class="node">
<title>Node478475</title>
<g id="a_node26"><a xlink:href="quickjs_8c.html#a537e88d38784e3df2a19c72f8bd1d77e" target="_top" xlink:title="JS_ToInt64Clamp">
<polygon fill="none" stroke="#ff0000" points="608.5,-66.6243 608.5,-85.6243 703.5,-85.6243 703.5,-66.6243 608.5,-66.6243"/>
<text text-anchor="middle" x="656" y="-73.6243" font-family="Helvetica,sans-Serif" font-size="10.00" fill="#000000">JS_ToInt64Clamp</text>
</a>
</g>
</g>
<!-- Node478474&#45;&gt;Node478475 -->
<g id="edge47" class="edge">
<title>Node478474&#45;&gt;Node478475</title>
<path fill="none" stroke="#191970" d="M530.3935,-104.5353C552.7626,-99.4756 580.3982,-93.2247 604.0472,-87.8755"/>
<polygon fill="#191970" stroke="#191970" points="604.9299,-91.2643 613.9114,-85.6443 603.3856,-84.4368 604.9299,-91.2643"/>
</g>
<!-- Node478475&#45;&gt;Node478041 -->
<g id="edge48" class="edge">
<title>Node478475&#45;&gt;Node478041</title>
<path fill="none" stroke="#191970" d="M703.6428,-70.008C720.1577,-67.8878 738.6872,-65.509 755.2871,-63.378"/>
<polygon fill="#191970" stroke="#191970" points="755.8653,-66.8325 765.3382,-62.0876 754.9739,-59.8895 755.8653,-66.8325"/>
</g>
<!-- Node478477&#45;&gt;Node478213 -->
<g id="edge51" class="edge">
<title>Node478477&#45;&gt;Node478213</title>
<path fill="none" stroke="#191970" d="M537.9507,-429.7735C548.9831,-431.0212 560.9587,-432.3756 572.9098,-433.7272"/>
<polygon fill="#191970" stroke="#191970" points="572.5917,-437.2134 582.9217,-434.8595 573.3784,-430.2578 572.5917,-437.2134"/>
</g>
<!-- Node478477&#45;&gt;Node478214 -->
<g id="edge52" class="edge">
<title>Node478477&#45;&gt;Node478214</title>
<path fill="none" stroke="#191970" d="M537.9507,-416.6911C552.2323,-414.5659 568.0947,-412.2054 583.4382,-409.9222"/>
<polygon fill="#191970" stroke="#191970" points="584.0484,-413.37 593.4243,-408.4361 583.0181,-406.4462 584.0484,-413.37"/>
</g>
<!-- Node478478 -->
<g id="node28" class="node">
<title>Node478478</title>
<g id="a_node28"><a xlink:href="quickjs_8c.html#af894945c3459f86096c1821a0a696934" target="_top" xlink:title="get_typed_array">
<polygon fill="none" stroke="#000000" points="613,-351.6243 613,-370.6243 699,-370.6243 699,-351.6243 613,-351.6243"/>
<text text-anchor="middle" x="656" y="-358.6243" font-family="Helvetica,sans-Serif" font-size="10.00" fill="#000000">get_typed_array</text>
</a>
</g>
</g>
<!-- Node478477&#45;&gt;Node478478 -->
<g id="edge50" class="edge">
<title>Node478477&#45;&gt;Node478478</title>
<path fill="none" stroke="#191970" d="M525.0375,-408.9983C532.3661,-405.8462 539.9651,-402.4638 547,-399.1243 563.3437,-391.3659 566.1334,-386.6686 583,-380.1243 589.3163,-377.6735 596.0609,-375.4374 602.8029,-373.4292"/>
<polygon fill="#191970" stroke="#191970" points="603.9577,-376.7399 612.6285,-370.6515 602.0535,-370.0039 603.9577,-376.7399"/>
</g>
</g>
</svg>
