<?xml version="1.0" encoding="UTF-8" standalone="no"?>
<!DOCTYPE svg PUBLIC "-//W3C//DTD SVG 1.1//EN"
 "http://www.w3.org/Graphics/SVG/1.1/DTD/svg11.dtd">
<!-- Generated by graphviz version 2.40.1 (20161225.0304)
 -->
<!-- Title: JS_CheckBrand Pages: 1 -->
<svg width="414pt" height="161pt"
 viewBox="0.00 0.00 414.00 161.00" xmlns="http://www.w3.org/2000/svg" xmlns:xlink="http://www.w3.org/1999/xlink">
<g id="graph0" class="graph" transform="scale(1 1) rotate(0) translate(4 157)">
<title>JS_CheckBrand</title>
<!-- Node184280 -->
<g id="node1" class="node">
<title>Node184280</title>
<polygon fill="#bfbfbf" stroke="#000000" points="0,-57.5 0,-76.5 88,-76.5 88,-57.5 0,-57.5"/>
<text text-anchor="middle" x="44" y="-64.5" font-family="Helvetica,sans-Serif" font-size="10.00" fill="#000000">JS_CheckBrand</text>
</g>
<!-- Node184281 -->
<g id="node2" class="node">
<title>Node184281</title>
<g id="a_node2"><a xlink:href="quickjs_8c.html#a06b76f5124fd985e35f4c652fd018d6d" target="_top" xlink:title="find_own_property">
<polygon fill="none" stroke="#000000" points="156,-114.5 156,-133.5 252,-133.5 252,-114.5 156,-114.5"/>
<text text-anchor="middle" x="204" y="-121.5" font-family="Helvetica,sans-Serif" font-size="10.00" fill="#000000">find_own_property</text>
</a>
</g>
</g>
<!-- Node184280&#45;&gt;Node184281 -->
<g id="edge1" class="edge">
<title>Node184280&#45;&gt;Node184281</title>
<path fill="none" stroke="#191970" d="M61.342,-76.5476C77.25,-84.986 101.663,-97.1409 124,-105 131.2906,-107.5651 139.0756,-109.8951 146.8198,-111.9746"/>
<polygon fill="#191970" stroke="#191970" points="146.0111,-115.3804 156.567,-114.4736 147.7495,-108.5997 146.0111,-115.3804"/>
</g>
<!-- Node184284 -->
<g id="node5" class="node">
<title>Node184284</title>
<g id="a_node5"><a xlink:href="quickjs_8c.html#a76e95dd1ab1d7cb4b9407d2ad41ee119" target="_top" xlink:title="js_class_has_bytecode">
<polygon fill="none" stroke="#000000" points="144.5,-76.5 144.5,-95.5 263.5,-95.5 263.5,-76.5 144.5,-76.5"/>
<text text-anchor="middle" x="204" y="-83.5" font-family="Helvetica,sans-Serif" font-size="10.00" fill="#000000">js_class_has_bytecode</text>
</a>
</g>
</g>
<!-- Node184280&#45;&gt;Node184284 -->
<g id="edge4" class="edge">
<title>Node184280&#45;&gt;Node184284</title>
<path fill="none" stroke="#191970" d="M88.1442,-72.2421C102.4092,-73.9361 118.5919,-75.8578 134.2428,-77.7163"/>
<polygon fill="#191970" stroke="#191970" points="134.0825,-81.2218 144.4255,-78.9255 134.908,-74.2706 134.0825,-81.2218"/>
</g>
<!-- Node184285 -->
<g id="node6" class="node">
<title>Node184285</title>
<g id="a_node6"><a xlink:href="quickjs_8c.html#a11498940707b6928b86da6844ef8f2a1" target="_top" xlink:title="js_symbol_to_atom">
<polygon fill="none" stroke="#000000" points="153.5,-38.5 153.5,-57.5 254.5,-57.5 254.5,-38.5 153.5,-38.5"/>
<text text-anchor="middle" x="204" y="-45.5" font-family="Helvetica,sans-Serif" font-size="10.00" fill="#000000">js_symbol_to_atom</text>
</a>
</g>
</g>
<!-- Node184280&#45;&gt;Node184285 -->
<g id="edge5" class="edge">
<title>Node184280&#45;&gt;Node184285</title>
<path fill="none" stroke="#191970" d="M88.1442,-61.7579C105.1581,-59.7375 124.9001,-57.3931 143.2141,-55.2183"/>
<polygon fill="#191970" stroke="#191970" points="143.6978,-58.6856 153.2153,-54.0307 142.8723,-51.7344 143.6978,-58.6856"/>
</g>
<!-- Node184286 -->
<g id="node7" class="node">
<title>Node184286</title>
<g id="a_node7"><a xlink:href="quickjs_8c.html#a726b00d108e0a0f4d958c36c2e426a64" target="_top" xlink:title="JS_ThrowTypeErrorNotAnObject">
<polygon fill="none" stroke="#000000" points="124,-.5 124,-19.5 284,-19.5 284,-.5 124,-.5"/>
<text text-anchor="middle" x="204" y="-7.5" font-family="Helvetica,sans-Serif" font-size="10.00" fill="#000000">JS_ThrowTypeErrorNotAnObject</text>
</a>
</g>
</g>
<!-- Node184280&#45;&gt;Node184286 -->
<g id="edge6" class="edge">
<title>Node184280&#45;&gt;Node184286</title>
<path fill="none" stroke="#191970" d="M61.342,-57.4524C77.25,-49.014 101.663,-36.8591 124,-29 131.2906,-26.4349 139.0756,-24.1049 146.8198,-22.0254"/>
<polygon fill="#191970" stroke="#191970" points="147.7495,-25.4003 156.567,-19.5264 146.0111,-18.6196 147.7495,-25.4003"/>
</g>
<!-- Node184282 -->
<g id="node3" class="node">
<title>Node184282</title>
<g id="a_node3"><a xlink:href="quickjs_8c.html#a643df594b75933007bcdbb071b5ea8c5" target="_top" xlink:title="get_shape_prop">
<polygon fill="none" stroke="#000000" points="320,-133.5 320,-152.5 406,-152.5 406,-133.5 320,-133.5"/>
<text text-anchor="middle" x="363" y="-140.5" font-family="Helvetica,sans-Serif" font-size="10.00" fill="#000000">get_shape_prop</text>
</a>
</g>
</g>
<!-- Node184281&#45;&gt;Node184282 -->
<g id="edge2" class="edge">
<title>Node184281&#45;&gt;Node184282</title>
<path fill="none" stroke="#191970" d="M252.1367,-129.7522C270.3371,-131.9271 291.1494,-134.4141 309.789,-136.6415"/>
<polygon fill="#191970" stroke="#191970" points="309.5457,-140.1372 319.8904,-137.8485 310.3764,-133.1867 309.5457,-140.1372"/>
</g>
<!-- Node184283 -->
<g id="node4" class="node">
<title>Node184283</title>
<g id="a_node4"><a xlink:href="quickjs_8c.html#acab22c2945c4d609e57a2484feb68a96" target="_top" xlink:title="prop_hash_end">
<polygon fill="none" stroke="#000000" points="321.5,-95.5 321.5,-114.5 404.5,-114.5 404.5,-95.5 321.5,-95.5"/>
<text text-anchor="middle" x="363" y="-102.5" font-family="Helvetica,sans-Serif" font-size="10.00" fill="#000000">prop_hash_end</text>
</a>
</g>
</g>
<!-- Node184281&#45;&gt;Node184283 -->
<g id="edge3" class="edge">
<title>Node184281&#45;&gt;Node184283</title>
<path fill="none" stroke="#191970" d="M252.1367,-118.2478C270.8863,-116.0073 292.4076,-113.4356 311.4701,-111.1577"/>
<polygon fill="#191970" stroke="#191970" points="311.9653,-114.6235 321.4793,-109.9616 311.1346,-107.6729 311.9653,-114.6235"/>
</g>
</g>
</svg>
