<?xml version="1.0" encoding="UTF-8" standalone="no"?>
<!DOCTYPE svg PUBLIC "-//W3C//DTD SVG 1.1//EN"
 "http://www.w3.org/Graphics/SVG/1.1/DTD/svg11.dtd">
<!-- Generated by graphviz version 2.40.1 (20161225.0304)
 -->
<!-- Title: js_date_constructor Pages: 1 -->
<svg width="524pt" height="28pt"
 viewBox="0.00 0.00 524.00 28.00" xmlns="http://www.w3.org/2000/svg" xmlns:xlink="http://www.w3.org/1999/xlink">
<g id="graph0" class="graph" transform="scale(1 1) rotate(0) translate(4 24)">
<title>js_date_constructor</title>
<!-- Node467853 -->
<g id="node1" class="node">
<title>Node467853</title>
<polygon fill="#bfbfbf" stroke="#000000" points="0,-.5 0,-19.5 102,-19.5 102,-.5 0,-.5"/>
<text text-anchor="middle" x="51" y="-7.5" font-family="Helvetica,sans-Serif" font-size="10.00" fill="#000000">js_date_constructor</text>
</g>
<!-- Node467854 -->
<g id="node2" class="node">
<title>Node467854</title>
<g id="a_node2"><a xlink:href="quickjs_8c.html#a8ecbf5799518b7bfc3fefd47c7a0dd4e" target="_top" xlink:title="JS_AddIntrinsicDate">
<polygon fill="none" stroke="#000000" points="138,-.5 138,-19.5 245,-19.5 245,-.5 138,-.5"/>
<text text-anchor="middle" x="191.5" y="-7.5" font-family="Helvetica,sans-Serif" font-size="10.00" fill="#000000">JS_AddIntrinsicDate</text>
</a>
</g>
</g>
<!-- Node467853&#45;&gt;Node467854 -->
<g id="edge1" class="edge">
<title>Node467853&#45;&gt;Node467854</title>
<path fill="none" stroke="#191970" d="M112.3465,-10C120.8288,-10 129.4872,-10 137.8161,-10"/>
<polygon fill="#191970" stroke="#191970" points="112.1212,-6.5001 102.1212,-10 112.1211,-13.5001 112.1212,-6.5001"/>
</g>
<!-- Node467855 -->
<g id="node3" class="node">
<title>Node467855</title>
<g id="a_node3"><a xlink:href="quickjs_8c.html#ad8aedb643b8753b7a15f6cb2df61945e" target="_top" xlink:title="JS_NewContext">
<polygon fill="none" stroke="#000000" points="281,-.5 281,-19.5 370,-19.5 370,-.5 281,-.5"/>
<text text-anchor="middle" x="325.5" y="-7.5" font-family="Helvetica,sans-Serif" font-size="10.00" fill="#000000">JS_NewContext</text>
</a>
</g>
</g>
<!-- Node467854&#45;&gt;Node467855 -->
<g id="edge2" class="edge">
<title>Node467854&#45;&gt;Node467855</title>
<path fill="none" stroke="#191970" d="M255.2847,-10C263.9061,-10 272.5987,-10 280.7897,-10"/>
<polygon fill="#191970" stroke="#191970" points="255.2309,-6.5001 245.2308,-10 255.2308,-13.5001 255.2309,-6.5001"/>
</g>
<!-- Node467856 -->
<g id="node4" class="node">
<title>Node467856</title>
<g id="a_node4"><a xlink:href="classqjs_1_1Context.html#a4392a23648acfc4bf6b445336efb5007" target="_top" xlink:title="qjs::Context::Context">
<polygon fill="none" stroke="#ff0000" points="406,-.5 406,-19.5 516,-19.5 516,-.5 406,-.5"/>
<text text-anchor="middle" x="461" y="-7.5" font-family="Helvetica,sans-Serif" font-size="10.00" fill="#000000">qjs::Context::Context</text>
</a>
</g>
</g>
<!-- Node467855&#45;&gt;Node467856 -->
<g id="edge3" class="edge">
<title>Node467855&#45;&gt;Node467856</title>
<path fill="none" stroke="#191970" d="M380.3476,-10C388.7739,-10 397.4767,-10 405.9083,-10"/>
<polygon fill="#191970" stroke="#191970" points="380.2433,-6.5001 370.2433,-10 380.2433,-13.5001 380.2433,-6.5001"/>
</g>
</g>
</svg>
