<?xml version="1.0" encoding="UTF-8" standalone="no"?>
<!DOCTYPE svg PUBLIC "-//W3C//DTD SVG 1.1//EN"
 "http://www.w3.org/Graphics/SVG/1.1/DTD/svg11.dtd">
<!-- Generated by graphviz version 2.40.1 (20161225.0304)
 -->
<!-- Title: JS_CheckDefineGlobalVar Pages: 1 -->
<svg width="488pt" height="85pt"
 viewBox="0.00 0.00 488.00 85.00" xmlns="http://www.w3.org/2000/svg" xmlns:xlink="http://www.w3.org/1999/xlink">
<g id="graph0" class="graph" transform="scale(1 1) rotate(0) translate(4 81)">
<title>JS_CheckDefineGlobalVar</title>
<!-- Node214919 -->
<g id="node1" class="node">
<title>Node214919</title>
<polygon fill="#bfbfbf" stroke="#000000" points="0,-19.5 0,-38.5 134,-38.5 134,-19.5 0,-19.5"/>
<text text-anchor="middle" x="67" y="-26.5" font-family="Helvetica,sans-Serif" font-size="10.00" fill="#000000">JS_CheckDefineGlobalVar</text>
</g>
<!-- Node214920 -->
<g id="node2" class="node">
<title>Node214920</title>
<g id="a_node2"><a xlink:href="quickjs_8c.html#afdc6d90129958f6258bae1505495869f" target="_top" xlink:title="find_own_property1">
<polygon fill="none" stroke="#000000" points="213.5,-38.5 213.5,-57.5 314.5,-57.5 314.5,-38.5 213.5,-38.5"/>
<text text-anchor="middle" x="264" y="-45.5" font-family="Helvetica,sans-Serif" font-size="10.00" fill="#000000">find_own_property1</text>
</a>
</g>
</g>
<!-- Node214919&#45;&gt;Node214920 -->
<g id="edge1" class="edge">
<title>Node214919&#45;&gt;Node214920</title>
<path fill="none" stroke="#191970" d="M134.2452,-35.4856C156.5693,-37.6387 181.2829,-40.0222 203.1006,-42.1265"/>
<polygon fill="#191970" stroke="#191970" points="202.9378,-45.6269 213.2276,-43.1032 203.6098,-38.6592 202.9378,-45.6269"/>
</g>
<!-- Node214923 -->
<g id="node5" class="node">
<title>Node214923</title>
<g id="a_node5"><a xlink:href="quickjs_8c.html#a6e57a2fd95c74a486a390424f5770455" target="_top" xlink:title="JS_ThrowSyntaxErrorVarRedeclaration">
<polygon fill="none" stroke="#000000" points="170,-.5 170,-19.5 358,-19.5 358,-.5 170,-.5"/>
<text text-anchor="middle" x="264" y="-7.5" font-family="Helvetica,sans-Serif" font-size="10.00" fill="#000000">JS_ThrowSyntaxErrorVarRedeclaration</text>
</a>
</g>
</g>
<!-- Node214919&#45;&gt;Node214923 -->
<g id="edge4" class="edge">
<title>Node214919&#45;&gt;Node214923</title>
<path fill="none" stroke="#191970" d="M134.2452,-22.5144C142.497,-21.7186 151.0753,-20.8912 159.7131,-20.0581"/>
<polygon fill="#191970" stroke="#191970" points="160.2468,-23.523 169.8645,-19.0791 159.5747,-16.5553 160.2468,-23.523"/>
</g>
<!-- Node214921 -->
<g id="node3" class="node">
<title>Node214921</title>
<g id="a_node3"><a xlink:href="quickjs_8c.html#a643df594b75933007bcdbb071b5ea8c5" target="_top" xlink:title="get_shape_prop">
<polygon fill="none" stroke="#000000" points="394,-57.5 394,-76.5 480,-76.5 480,-57.5 394,-57.5"/>
<text text-anchor="middle" x="437" y="-64.5" font-family="Helvetica,sans-Serif" font-size="10.00" fill="#000000">get_shape_prop</text>
</a>
</g>
</g>
<!-- Node214920&#45;&gt;Node214921 -->
<g id="edge2" class="edge">
<title>Node214920&#45;&gt;Node214921</title>
<path fill="none" stroke="#191970" d="M314.5038,-53.5467C336.2004,-55.9295 361.5745,-58.7163 383.5839,-61.1335"/>
<polygon fill="#191970" stroke="#191970" points="383.4374,-64.6384 393.7597,-62.2511 384.2016,-57.6802 383.4374,-64.6384"/>
</g>
<!-- Node214922 -->
<g id="node4" class="node">
<title>Node214922</title>
<g id="a_node4"><a xlink:href="quickjs_8c.html#acab22c2945c4d609e57a2484feb68a96" target="_top" xlink:title="prop_hash_end">
<polygon fill="none" stroke="#000000" points="395.5,-19.5 395.5,-38.5 478.5,-38.5 478.5,-19.5 395.5,-19.5"/>
<text text-anchor="middle" x="437" y="-26.5" font-family="Helvetica,sans-Serif" font-size="10.00" fill="#000000">prop_hash_end</text>
</a>
</g>
</g>
<!-- Node214920&#45;&gt;Node214922 -->
<g id="edge3" class="edge">
<title>Node214920&#45;&gt;Node214922</title>
<path fill="none" stroke="#191970" d="M314.5038,-42.4533C336.8175,-40.0027 363.0209,-37.1249 385.4536,-34.6612"/>
<polygon fill="#191970" stroke="#191970" points="385.9095,-38.1322 395.4676,-33.5614 385.1453,-31.1741 385.9095,-38.1322"/>
</g>
</g>
</svg>
