<?xml version="1.0" encoding="UTF-8" standalone="no"?>
<!DOCTYPE svg PUBLIC "-//W3C//DTD SVG 1.1//EN"
 "http://www.w3.org/Graphics/SVG/1.1/DTD/svg11.dtd">
<!-- Generated by graphviz version 2.40.1 (20161225.0304)
 -->
<!-- Title: js_host_resolve_imported_module Pages: 1 -->
<svg width="566pt" height="84pt"
 viewBox="0.00 0.00 566.00 84.00" xmlns="http://www.w3.org/2000/svg" xmlns:xlink="http://www.w3.org/1999/xlink">
<g id="graph0" class="graph" transform="scale(1 1) rotate(0) translate(4 80)">
<title>js_host_resolve_imported_module</title>
<!-- Node330068 -->
<g id="node1" class="node">
<title>Node330068</title>
<polygon fill="#bfbfbf" stroke="#000000" points="0,-14 0,-44 128,-44 128,-14 0,-14"/>
<text text-anchor="start" x="8" y="-32" font-family="Helvetica,sans-Serif" font-size="10.00" fill="#000000">js_host_resolve_imported</text>
<text text-anchor="middle" x="64" y="-21" font-family="Helvetica,sans-Serif" font-size="10.00" fill="#000000">_module</text>
</g>
<!-- Node330069 -->
<g id="node2" class="node">
<title>Node330069</title>
<g id="a_node2"><a xlink:href="quickjs_8c.html#a5b9215d5347fb8696212caf3f8ebfad0" target="_top" xlink:title="js_host_resolve_imported\l_module_atom">
<polygon fill="none" stroke="#000000" points="164,-36 164,-66 292,-66 292,-36 164,-36"/>
<text text-anchor="start" x="172" y="-54" font-family="Helvetica,sans-Serif" font-size="10.00" fill="#000000">js_host_resolve_imported</text>
<text text-anchor="middle" x="228" y="-43" font-family="Helvetica,sans-Serif" font-size="10.00" fill="#000000">_module_atom</text>
</a>
</g>
</g>
<!-- Node330068&#45;&gt;Node330069 -->
<g id="edge1" class="edge">
<title>Node330068&#45;&gt;Node330069</title>
<path fill="none" stroke="#191970" d="M138.2859,-38.9652C146.8158,-40.1094 155.4581,-41.2688 163.8391,-42.3931"/>
<polygon fill="#191970" stroke="#191970" points="138.723,-35.4926 128.3464,-37.6318 137.7923,-42.4304 138.723,-35.4926"/>
</g>
<!-- Node330071 -->
<g id="node4" class="node">
<title>Node330071</title>
<g id="a_node4"><a xlink:href="quickjs_8c.html#aa75a2b06808d8da661d4eb6698b17cab" target="_top" xlink:title="JS_RunModule">
<polygon fill="none" stroke="#ff0000" points="468.5,-.5 468.5,-19.5 551.5,-19.5 551.5,-.5 468.5,-.5"/>
<text text-anchor="middle" x="510" y="-7.5" font-family="Helvetica,sans-Serif" font-size="10.00" fill="#000000">JS_RunModule</text>
</a>
</g>
</g>
<!-- Node330068&#45;&gt;Node330071 -->
<g id="edge6" class="edge">
<title>Node330068&#45;&gt;Node330071</title>
<path fill="none" stroke="#191970" d="M138.4462,-25.8285C233.0198,-21.7996 392.9797,-14.9852 468.3505,-11.7743"/>
<polygon fill="#191970" stroke="#191970" points="138.2178,-22.335 128.3759,-26.2575 138.5159,-29.3286 138.2178,-22.335"/>
</g>
<!-- Node330070 -->
<g id="node3" class="node">
<title>Node330070</title>
<g id="a_node3"><a xlink:href="quickjs_8c.html#a041f16b68daf31525cd76aa4794073ef" target="_top" xlink:title="js_resolve_module">
<polygon fill="none" stroke="#000000" points="328,-38.5 328,-57.5 426,-57.5 426,-38.5 328,-38.5"/>
<text text-anchor="middle" x="377" y="-45.5" font-family="Helvetica,sans-Serif" font-size="10.00" fill="#000000">js_resolve_module</text>
</a>
</g>
</g>
<!-- Node330069&#45;&gt;Node330070 -->
<g id="edge2" class="edge">
<title>Node330069&#45;&gt;Node330070</title>
<path fill="none" stroke="#191970" d="M302.2289,-49.5055C310.9224,-49.3304 319.6207,-49.1553 327.8505,-48.9896"/>
<polygon fill="#191970" stroke="#191970" points="301.9816,-46.0096 292.0541,-49.7103 302.1226,-53.0082 301.9816,-46.0096"/>
</g>
<!-- Node330070&#45;&gt;Node330070 -->
<g id="edge3" class="edge">
<title>Node330070&#45;&gt;Node330070</title>
<path fill="none" stroke="#191970" d="M352.4465,-67.0292C353.7858,-72.128 361.9703,-76 377,-76 400.4609,-76 407.2426,-66.5653 397.345,-57.7571"/>
<polygon fill="#191970" stroke="#191970" points="355.709,-68.3096 356.655,-57.7571 349.3348,-65.4164 355.709,-68.3096"/>
</g>
<!-- Node330070&#45;&gt;Node330071 -->
<g id="edge4" class="edge">
<title>Node330070&#45;&gt;Node330071</title>
<path fill="none" stroke="#191970" d="M420.3669,-35.6094C438.5807,-30.4055 459.4393,-24.4459 476.4492,-19.5859"/>
<polygon fill="#191970" stroke="#191970" points="419.2152,-32.2984 410.5615,-38.411 421.1383,-39.029 419.2152,-32.2984"/>
</g>
<!-- Node330251 -->
<g id="node5" class="node">
<title>Node330251</title>
<g id="a_node5"><a xlink:href="quickjs_8c.html#a46a8a7e155cfd0af984f6725f060f0d6" target="_top" xlink:title="__JS_EvalInternal">
<polygon fill="none" stroke="#ff0000" points="462,-38.5 462,-57.5 558,-57.5 558,-38.5 462,-38.5"/>
<text text-anchor="middle" x="510" y="-45.5" font-family="Helvetica,sans-Serif" font-size="10.00" fill="#000000">__JS_EvalInternal</text>
</a>
</g>
</g>
<!-- Node330070&#45;&gt;Node330251 -->
<g id="edge5" class="edge">
<title>Node330070&#45;&gt;Node330251</title>
<path fill="none" stroke="#191970" d="M436.1585,-48C444.7826,-48 453.5735,-48 461.9414,-48"/>
<polygon fill="#191970" stroke="#191970" points="436.1465,-44.5001 426.1464,-48 436.1464,-51.5001 436.1465,-44.5001"/>
</g>
</g>
</svg>
