<?xml version="1.0" encoding="UTF-8" standalone="no"?>
<!DOCTYPE svg PUBLIC "-//W3C//DTD SVG 1.1//EN"
 "http://www.w3.org/Graphics/SVG/1.1/DTD/svg11.dtd">
<!-- Generated by graphviz version 2.40.1 (20161225.0304)
 -->
<!-- Title: JS_GetScriptOrModuleName Pages: 1 -->
<svg width="574pt" height="161pt"
 viewBox="0.00 0.00 574.00 161.00" xmlns="http://www.w3.org/2000/svg" xmlns:xlink="http://www.w3.org/1999/xlink">
<g id="graph0" class="graph" transform="scale(1 1) rotate(0) translate(4 157)">
<title>JS_GetScriptOrModuleName</title>
<!-- Node342786 -->
<g id="node1" class="node">
<title>Node342786</title>
<polygon fill="#bfbfbf" stroke="#000000" points="0,-38.5 0,-57.5 143,-57.5 143,-38.5 0,-38.5"/>
<text text-anchor="middle" x="71.5" y="-45.5" font-family="Helvetica,sans-Serif" font-size="10.00" fill="#000000">JS_GetScriptOrModuleName</text>
</g>
<!-- Node342787 -->
<g id="node2" class="node">
<title>Node342787</title>
<g id="a_node2"><a xlink:href="quickjs_8c.html#a50e94675d1c4cf67c88e72169ea3c21a" target="_top" xlink:title="js_dynamic_import">
<polygon fill="none" stroke="#000000" points="179,-76.5 179,-95.5 277,-95.5 277,-76.5 179,-76.5"/>
<text text-anchor="middle" x="228" y="-83.5" font-family="Helvetica,sans-Serif" font-size="10.00" fill="#000000">js_dynamic_import</text>
</a>
</g>
</g>
<!-- Node342786&#45;&gt;Node342787 -->
<g id="edge1" class="edge">
<title>Node342786&#45;&gt;Node342787</title>
<path fill="none" stroke="#191970" d="M120.7892,-59.968C142.7203,-65.2931 168.1849,-71.4762 188.7924,-76.4799"/>
<polygon fill="#191970" stroke="#191970" points="121.5351,-56.5475 110.9916,-57.589 119.8833,-63.3498 121.5351,-56.5475"/>
</g>
<!-- Node343394 -->
<g id="node8" class="node">
<title>Node343394</title>
<g id="a_node8"><a xlink:href="quickjs_8c.html#a2c15f4e9fa1344bb2d7caca8e21b34f4" target="_top" xlink:title="js_import_meta">
<polygon fill="none" stroke="#000000" points="186.5,-38.5 186.5,-57.5 269.5,-57.5 269.5,-38.5 186.5,-38.5"/>
<text text-anchor="middle" x="228" y="-45.5" font-family="Helvetica,sans-Serif" font-size="10.00" fill="#000000">js_import_meta</text>
</a>
</g>
</g>
<!-- Node342786&#45;&gt;Node343394 -->
<g id="edge11" class="edge">
<title>Node342786&#45;&gt;Node343394</title>
<path fill="none" stroke="#191970" d="M153.4093,-48C164.8678,-48 176.2215,-48 186.4846,-48"/>
<polygon fill="#191970" stroke="#191970" points="153.3375,-44.5001 143.3375,-48 153.3374,-51.5001 153.3375,-44.5001"/>
</g>
<!-- Node342805 -->
<g id="node9" class="node">
<title>Node342805</title>
<g id="a_node9"><a xlink:href="quickjs-libc_8c.html#aff1e6131e8bf8b7eb25307623ad669e7" target="_top" xlink:title="js_worker_ctor">
<polygon fill="none" stroke="#ff0000" points="188,-.5 188,-19.5 268,-19.5 268,-.5 188,-.5"/>
<text text-anchor="middle" x="228" y="-7.5" font-family="Helvetica,sans-Serif" font-size="10.00" fill="#000000">js_worker_ctor</text>
</a>
</g>
</g>
<!-- Node342786&#45;&gt;Node342805 -->
<g id="edge13" class="edge">
<title>Node342786&#45;&gt;Node342805</title>
<path fill="none" stroke="#191970" d="M120.7892,-36.032C142.7203,-30.7069 168.1849,-24.5238 188.7924,-19.5201"/>
<polygon fill="#191970" stroke="#191970" points="119.8833,-32.6502 110.9916,-38.411 121.5351,-39.4525 119.8833,-32.6502"/>
</g>
<!-- Node342788 -->
<g id="node3" class="node">
<title>Node342788</title>
<g id="a_node3"><a xlink:href="quickjs_8c.html#ac2894ff4edcdb4e6841bcce9c76081e3" target="_top" xlink:title="JS_CallInternal">
<polygon fill="none" stroke="#000000" points="313,-57.5 313,-76.5 396,-76.5 396,-57.5 313,-57.5"/>
<text text-anchor="middle" x="354.5" y="-64.5" font-family="Helvetica,sans-Serif" font-size="10.00" fill="#000000">JS_CallInternal</text>
</a>
</g>
</g>
<!-- Node342787&#45;&gt;Node342788 -->
<g id="edge2" class="edge">
<title>Node342787&#45;&gt;Node342788</title>
<path fill="none" stroke="#191970" d="M287.3441,-77.0867C295.9969,-75.787 304.7476,-74.4727 312.945,-73.2415"/>
<polygon fill="#191970" stroke="#191970" points="286.6396,-73.6531 277.2704,-78.5997 287.6794,-80.5755 286.6396,-73.6531"/>
</g>
<!-- Node342788&#45;&gt;Node342788 -->
<g id="edge10" class="edge">
<title>Node342788&#45;&gt;Node342788</title>
<path fill="none" stroke="#191970" d="M331.0626,-86.0292C332.341,-91.128 340.1535,-95 354.5,-95 376.8945,-95 383.368,-85.5653 373.9203,-76.7571"/>
<polygon fill="#191970" stroke="#191970" points="334.3158,-87.3243 335.0797,-76.7571 327.8927,-84.5415 334.3158,-87.3243"/>
</g>
<!-- Node342789 -->
<g id="node4" class="node">
<title>Node342789</title>
<g id="a_node4"><a xlink:href="quickjs_8c.html#ade71a22dc56e7371392393df663b28b3" target="_top" xlink:title="async_func_resume">
<polygon fill="none" stroke="#ff0000" points="447,-133.5 447,-152.5 551,-152.5 551,-133.5 447,-133.5"/>
<text text-anchor="middle" x="499" y="-140.5" font-family="Helvetica,sans-Serif" font-size="10.00" fill="#000000">async_func_resume</text>
</a>
</g>
</g>
<!-- Node342788&#45;&gt;Node342789 -->
<g id="edge3" class="edge">
<title>Node342788&#45;&gt;Node342789</title>
<path fill="none" stroke="#191970" d="M373.1674,-83.7317C388.1367,-96.3741 410.1804,-113.3186 432,-124 439.7101,-127.7743 448.2971,-130.9165 456.6815,-133.487"/>
<polygon fill="#191970" stroke="#191970" points="375.08,-80.7585 365.2264,-76.8651 370.5014,-86.0535 375.08,-80.7585"/>
</g>
<!-- Node342808 -->
<g id="node5" class="node">
<title>Node342808</title>
<g id="a_node5"><a xlink:href="quickjs_8c.html#a1a4c02a29525d5cb2085dd8bca3af350" target="_top" xlink:title="JS_Call">
<polygon fill="none" stroke="#ff0000" points="473.5,-95.5 473.5,-114.5 524.5,-114.5 524.5,-95.5 473.5,-95.5"/>
<text text-anchor="middle" x="499" y="-102.5" font-family="Helvetica,sans-Serif" font-size="10.00" fill="#000000">JS_Call</text>
</a>
</g>
</g>
<!-- Node342788&#45;&gt;Node342808 -->
<g id="edge4" class="edge">
<title>Node342788&#45;&gt;Node342808</title>
<path fill="none" stroke="#191970" d="M406.3524,-74.1309C432.197,-80.291 461.8346,-88.6885 480.4855,-95.4368"/>
<polygon fill="#191970" stroke="#191970" points="406.8269,-70.6484 396.2954,-71.8052 405.2497,-77.4684 406.8269,-70.6484"/>
</g>
<!-- Node342888 -->
<g id="node6" class="node">
<title>Node342888</title>
<g id="a_node6"><a xlink:href="quickjs_8c.html#ad35594576a14c10812efaf958c99af8a" target="_top" xlink:title="JS_CallConstructorInternal">
<polygon fill="none" stroke="#ff0000" points="432,-57.5 432,-76.5 566,-76.5 566,-57.5 432,-57.5"/>
<text text-anchor="middle" x="499" y="-64.5" font-family="Helvetica,sans-Serif" font-size="10.00" fill="#000000">JS_CallConstructorInternal</text>
</a>
</g>
</g>
<!-- Node342788&#45;&gt;Node342888 -->
<g id="edge6" class="edge">
<title>Node342788&#45;&gt;Node342888</title>
<path fill="none" stroke="#191970" d="M406.5209,-60.4909C414.7845,-60.2892 423.4321,-60.2142 431.9815,-60.2658"/>
<polygon fill="#191970" stroke="#191970" points="406.1798,-56.9998 396.2954,-60.814 406.401,-63.9963 406.1798,-56.9998"/>
</g>
<!-- Node342902 -->
<g id="node7" class="node">
<title>Node342902</title>
<g id="a_node7"><a xlink:href="quickjs_8c.html#a75f6ee5e4235a7dc99889f3d2eb2c147" target="_top" xlink:title="JS_CallFree">
<polygon fill="none" stroke="#ff0000" points="463.5,-19.5 463.5,-38.5 534.5,-38.5 534.5,-19.5 463.5,-19.5"/>
<text text-anchor="middle" x="499" y="-26.5" font-family="Helvetica,sans-Serif" font-size="10.00" fill="#000000">JS_CallFree</text>
</a>
</g>
</g>
<!-- Node342788&#45;&gt;Node342902 -->
<g id="edge8" class="edge">
<title>Node342788&#45;&gt;Node342902</title>
<path fill="none" stroke="#191970" d="M382.6305,-54.1263C405.6733,-46.5295 438.4179,-37.7723 463.3055,-32.4723"/>
<polygon fill="#191970" stroke="#191970" points="381.4119,-50.8441 373.095,-57.4076 383.6897,-57.4632 381.4119,-50.8441"/>
</g>
<!-- Node342808&#45;&gt;Node342788 -->
<g id="edge5" class="edge">
<title>Node342808&#45;&gt;Node342788</title>
<path fill="none" stroke="#191970" d="M463.4088,-101.5497C434.8289,-95.469 395.8374,-84.8129 373.095,-76.5924"/>
<polygon fill="#191970" stroke="#191970" points="462.923,-105.0222 473.4179,-103.57 464.3081,-98.1605 462.923,-105.0222"/>
</g>
<!-- Node342888&#45;&gt;Node342788 -->
<g id="edge7" class="edge">
<title>Node342888&#45;&gt;Node342788</title>
<path fill="none" stroke="#191970" d="M421.7059,-73.7354C412.9651,-73.6845 404.3232,-73.5014 396.2954,-73.186"/>
<polygon fill="#191970" stroke="#191970" points="421.9819,-77.2354 431.9815,-73.7342 421.981,-70.2354 421.9819,-77.2354"/>
</g>
<!-- Node342902&#45;&gt;Node342788 -->
<g id="edge9" class="edge">
<title>Node342902&#45;&gt;Node342788</title>
<path fill="none" stroke="#191970" d="M470.7961,-41.8979C449.5982,-48.8825 420.2201,-56.8432 396.2954,-62.1948"/>
<polygon fill="#191970" stroke="#191970" points="472.1689,-45.127 480.4855,-38.5632 469.8909,-38.508 472.1689,-45.127"/>
</g>
<!-- Node343394&#45;&gt;Node342788 -->
<g id="edge12" class="edge">
<title>Node343394&#45;&gt;Node342788</title>
<path fill="none" stroke="#191970" d="M279.7026,-55.7656C290.7079,-57.4186 302.1959,-59.1441 312.7724,-60.7326"/>
<polygon fill="#191970" stroke="#191970" points="280.1804,-52.2982 269.7714,-54.274 279.1406,-59.2205 280.1804,-52.2982"/>
</g>
</g>
</svg>
