<?xml version="1.0" encoding="UTF-8" standalone="no"?>
<!DOCTYPE svg PUBLIC "-//W3C//DTD SVG 1.1//EN"
 "http://www.w3.org/Graphics/SVG/1.1/DTD/svg11.dtd">
<!-- Generated by graphviz version 2.40.1 (20161225.0304)
 -->
<!-- Title: add_property Pages: 1 -->
<svg width="684pt" height="712pt"
 viewBox="0.00 0.00 684.00 712.00" xmlns="http://www.w3.org/2000/svg" xmlns:xlink="http://www.w3.org/1999/xlink">
<g id="graph0" class="graph" transform="scale(1 1) rotate(0) translate(4 708)">
<title>add_property</title>
<!-- Node13002 -->
<g id="node1" class="node">
<title>Node13002</title>
<polygon fill="#bfbfbf" stroke="#000000" points="0,-494.5 0,-513.5 73,-513.5 73,-494.5 0,-494.5"/>
<text text-anchor="middle" x="36.5" y="-501.5" font-family="Helvetica,sans-Serif" font-size="10.00" fill="#000000">add_property</text>
</g>
<!-- Node13003 -->
<g id="node2" class="node">
<title>Node13003</title>
<g id="a_node2"><a xlink:href="quickjs_8c.html#a3cadcaa2bd1e3f9359f1c006f396cfa0" target="_top" xlink:title="add_shape_property">
<polygon fill="none" stroke="#000000" points="119.5,-513.5 119.5,-532.5 223.5,-532.5 223.5,-513.5 119.5,-513.5"/>
<text text-anchor="middle" x="171.5" y="-520.5" font-family="Helvetica,sans-Serif" font-size="10.00" fill="#000000">add_shape_property</text>
</a>
</g>
</g>
<!-- Node13002&#45;&gt;Node13003 -->
<g id="edge1" class="edge">
<title>Node13002&#45;&gt;Node13003</title>
<path fill="none" stroke="#191970" d="M73.0329,-509.1417C84.3087,-510.7286 97.0563,-512.5227 109.5487,-514.2809"/>
<polygon fill="#191970" stroke="#191970" points="109.0895,-517.7507 119.4797,-515.6786 110.0651,-510.819 109.0895,-517.7507"/>
</g>
<!-- Node13023 -->
<g id="node17" class="node">
<title>Node13023</title>
<g id="a_node17"><a xlink:href="quickjs_8c.html#a82dbe63adeac7849406fd48d96f39f7b" target="_top" xlink:title="js_shape_hash_link">
<polygon fill="none" stroke="#000000" points="278.5,-646.5 278.5,-665.5 380.5,-665.5 380.5,-646.5 278.5,-646.5"/>
<text text-anchor="middle" x="329.5" y="-653.5" font-family="Helvetica,sans-Serif" font-size="10.00" fill="#000000">js_shape_hash_link</text>
</a>
</g>
</g>
<!-- Node13002&#45;&gt;Node13023 -->
<g id="edge46" class="edge">
<title>Node13002&#45;&gt;Node13023</title>
<path fill="none" stroke="#191970" d="M38.5268,-513.8472C44.3402,-539.3031 63.6509,-607.3642 109,-637 155.8957,-667.6465 220.898,-669.5474 268.1704,-665.5052"/>
<polygon fill="#191970" stroke="#191970" points="268.6589,-668.9744 278.2757,-664.5284 267.9854,-662.0069 268.6589,-668.9744"/>
</g>
<!-- Node13028 -->
<g id="node22" class="node">
<title>Node13028</title>
<g id="a_node22"><a xlink:href="quickjs_8c.html#ac0c5dbb01d6082796c44b1c7f7c170f1" target="_top" xlink:title="find_hashed_shape_prop">
<polygon fill="none" stroke="#000000" points="109,-608.5 109,-627.5 234,-627.5 234,-608.5 109,-608.5"/>
<text text-anchor="middle" x="171.5" y="-615.5" font-family="Helvetica,sans-Serif" font-size="10.00" fill="#000000">find_hashed_shape_prop</text>
</a>
</g>
</g>
<!-- Node13002&#45;&gt;Node13028 -->
<g id="edge24" class="edge">
<title>Node13002&#45;&gt;Node13028</title>
<path fill="none" stroke="#191970" d="M48.01,-513.7196C71.2238,-533.3223 123.8621,-577.7724 152.3427,-601.8227"/>
<polygon fill="#191970" stroke="#191970" points="150.1206,-604.5273 160.0191,-608.305 154.6369,-599.1791 150.1206,-604.5273"/>
</g>
<!-- Node13029 -->
<g id="node23" class="node">
<title>Node13029</title>
<g id="a_node23"><a xlink:href="quickjs_8c.html#a8e34657169da77ae6a386311351ed3de" target="_top" xlink:title="js_clone_shape">
<polygon fill="none" stroke="#000000" points="287.5,-266.5 287.5,-285.5 371.5,-285.5 371.5,-266.5 287.5,-266.5"/>
<text text-anchor="middle" x="329.5" y="-273.5" font-family="Helvetica,sans-Serif" font-size="10.00" fill="#000000">js_clone_shape</text>
</a>
</g>
</g>
<!-- Node13002&#45;&gt;Node13029 -->
<g id="edge27" class="edge">
<title>Node13002&#45;&gt;Node13029</title>
<path fill="none" stroke="#191970" d="M73.4059,-501.3166C123.8058,-496.9298 210.5905,-486.5708 234,-466 272.3241,-432.3232 246.6096,-402.3404 270,-357 282.1496,-333.4489 300.825,-309.333 314.007,-293.6115"/>
<polygon fill="#191970" stroke="#191970" points="316.8497,-295.6726 320.6889,-285.7979 311.5296,-291.1232 316.8497,-295.6726"/>
</g>
<!-- Node13032 -->
<g id="node26" class="node">
<title>Node13032</title>
<g id="a_node26"><a xlink:href="quickjs_8c.html#aed229eb80b3b03a2275471dee93c69d6" target="_top" xlink:title="js_dup_shape">
<polygon fill="none" stroke="#000000" points="133,-437.5 133,-456.5 210,-456.5 210,-437.5 133,-437.5"/>
<text text-anchor="middle" x="171.5" y="-444.5" font-family="Helvetica,sans-Serif" font-size="10.00" fill="#000000">js_dup_shape</text>
</a>
</g>
</g>
<!-- Node13002&#45;&gt;Node13032 -->
<g id="edge37" class="edge">
<title>Node13002&#45;&gt;Node13032</title>
<path fill="none" stroke="#191970" d="M56.6685,-494.4235C71.1352,-487.6519 91.1439,-478.4841 109,-471 117.7382,-467.3375 127.2486,-463.574 136.1533,-460.1453"/>
<polygon fill="#191970" stroke="#191970" points="137.4161,-463.4096 145.513,-456.5766 134.9222,-456.8689 137.4161,-463.4096"/>
</g>
<!-- Node13033 -->
<g id="node27" class="node">
<title>Node13033</title>
<g id="a_node27"><a xlink:href="quickjs_8c.html#a3a9f27520d96cf58aa5bd7359e9cddee" target="_top" xlink:title="js_free_shape">
<polygon fill="none" stroke="#000000" points="133,-247.5 133,-266.5 210,-266.5 210,-247.5 133,-247.5"/>
<text text-anchor="middle" x="171.5" y="-254.5" font-family="Helvetica,sans-Serif" font-size="10.00" fill="#000000">js_free_shape</text>
</a>
</g>
</g>
<!-- Node13002&#45;&gt;Node13033 -->
<g id="edge38" class="edge">
<title>Node13002&#45;&gt;Node13033</title>
<path fill="none" stroke="#191970" d="M41.7922,-494.3173C61.9961,-457.3516 134.4806,-324.7318 161.3685,-275.5369"/>
<polygon fill="#191970" stroke="#191970" points="164.5196,-277.0693 166.2444,-266.6158 158.3772,-273.712 164.5196,-277.0693"/>
</g>
<!-- Node13004 -->
<g id="node3" class="node">
<title>Node13004</title>
<g id="a_node3"><a xlink:href="quickjs_8c.html#ae5e76f4be6214208cc91f10a192fc810" target="_top" xlink:title="js_shape_hash_unlink">
<polygon fill="none" stroke="#000000" points="425,-76.5 425,-95.5 538,-95.5 538,-76.5 425,-76.5"/>
<text text-anchor="middle" x="481.5" y="-83.5" font-family="Helvetica,sans-Serif" font-size="10.00" fill="#000000">js_shape_hash_unlink</text>
</a>
</g>
</g>
<!-- Node13003&#45;&gt;Node13004 -->
<g id="edge2" class="edge">
<title>Node13003&#45;&gt;Node13004</title>
<path fill="none" stroke="#191970" d="M187.2867,-513.4011C202.0456,-503.4992 223.3592,-486.6194 234,-466 294.5728,-348.6243 189.222,-275.5038 270,-171 304.7765,-126.0091 337.3331,-147.751 389,-124 405.438,-116.4435 408.372,-112.1287 425,-105 429.9936,-102.8592 435.3152,-100.7974 440.6204,-98.8721"/>
<polygon fill="#191970" stroke="#191970" points="441.7922,-102.1703 450.0774,-95.5668 439.4826,-95.5623 441.7922,-102.1703"/>
</g>
<!-- Node13006 -->
<g id="node5" class="node">
<title>Node13006</title>
<g id="a_node5"><a xlink:href="quickjs_8c.html#a11f047846c1027dc6066a5f1b2ef292a" target="_top" xlink:title="shape_hash">
<polygon fill="none" stroke="#000000" points="295,-608.5 295,-627.5 364,-627.5 364,-608.5 295,-608.5"/>
<text text-anchor="middle" x="329.5" y="-615.5" font-family="Helvetica,sans-Serif" font-size="10.00" fill="#000000">shape_hash</text>
</a>
</g>
</g>
<!-- Node13003&#45;&gt;Node13006 -->
<g id="edge4" class="edge">
<title>Node13003&#45;&gt;Node13006</title>
<path fill="none" stroke="#191970" d="M181.5865,-532.7533C198.5467,-548.6737 234.4236,-580.3368 270,-599 274.8013,-601.5187 279.9969,-603.7784 285.2495,-605.7841"/>
<polygon fill="#191970" stroke="#191970" points="284.0982,-609.0893 294.693,-609.1211 286.4305,-602.4893 284.0982,-609.0893"/>
</g>
<!-- Node13007 -->
<g id="node6" class="node">
<title>Node13007</title>
<g id="a_node6"><a xlink:href="quickjs_8c.html#aa80740ff93b724ea7e0c280826f4a25a" target="_top" xlink:title="resize_properties">
<polygon fill="none" stroke="#000000" points="284,-456.5 284,-475.5 375,-475.5 375,-456.5 284,-456.5"/>
<text text-anchor="middle" x="329.5" y="-463.5" font-family="Helvetica,sans-Serif" font-size="10.00" fill="#000000">resize_properties</text>
</a>
</g>
</g>
<!-- Node13003&#45;&gt;Node13007 -->
<g id="edge5" class="edge">
<title>Node13003&#45;&gt;Node13007</title>
<path fill="none" stroke="#191970" d="M197.9456,-513.4595C224.0355,-504.0473 264.1208,-489.5862 293.1874,-479.1001"/>
<polygon fill="#191970" stroke="#191970" points="294.7492,-482.2575 302.9681,-475.5716 292.3737,-475.6729 294.7492,-482.2575"/>
</g>
<!-- Node13018 -->
<g id="node13" class="node">
<title>Node13018</title>
<g id="a_node13"><a xlink:href="quickjs_8c.html#acab22c2945c4d609e57a2484feb68a96" target="_top" xlink:title="prop_hash_end">
<polygon fill="none" stroke="#000000" points="583.5,-608.5 583.5,-627.5 666.5,-627.5 666.5,-608.5 583.5,-608.5"/>
<text text-anchor="middle" x="625" y="-615.5" font-family="Helvetica,sans-Serif" font-size="10.00" fill="#000000">prop_hash_end</text>
</a>
</g>
</g>
<!-- Node13003&#45;&gt;Node13018 -->
<g id="edge23" class="edge">
<title>Node13003&#45;&gt;Node13018</title>
<path fill="none" stroke="#191970" d="M223.5001,-521.0287C270.3323,-521.6765 339.2534,-528.8642 389,-561 412.919,-576.4514 399.9703,-600.4214 425,-614 470.8269,-638.8611 531.683,-635.9399 574.1827,-629.271"/>
<polygon fill="#191970" stroke="#191970" points="575.0264,-632.6781 584.3022,-627.5585 573.8583,-625.7762 575.0264,-632.6781"/>
</g>
<!-- Node13003&#45;&gt;Node13023 -->
<g id="edge17" class="edge">
<title>Node13003&#45;&gt;Node13023</title>
<path fill="none" stroke="#191970" d="M179.3931,-532.73C200.7185,-558.9315 258.6504,-629.5047 270,-637 273.0765,-639.0317 276.3854,-640.8589 279.8106,-642.5001"/>
<polygon fill="#191970" stroke="#191970" points="278.4963,-645.7444 289.0694,-646.4225 281.2269,-639.2989 278.4963,-645.7444"/>
</g>
<!-- Node13024 -->
<g id="node18" class="node">
<title>Node13024</title>
<g id="a_node18"><a xlink:href="quickjs_8c.html#a643df594b75933007bcdbb071b5ea8c5" target="_top" xlink:title="get_shape_prop">
<polygon fill="none" stroke="#000000" points="438.5,-114.5 438.5,-133.5 524.5,-133.5 524.5,-114.5 438.5,-114.5"/>
<text text-anchor="middle" x="481.5" y="-121.5" font-family="Helvetica,sans-Serif" font-size="10.00" fill="#000000">get_shape_prop</text>
</a>
</g>
</g>
<!-- Node13003&#45;&gt;Node13024 -->
<g id="edge19" class="edge">
<title>Node13003&#45;&gt;Node13024</title>
<path fill="none" stroke="#191970" d="M186.7891,-513.4723C201.3915,-503.5086 222.7853,-486.4805 234,-466 279.2704,-383.3263 220.1087,-336.97 270,-257 304.5401,-201.6362 336.793,-210.1484 389,-171 405.2168,-158.8395 407.1413,-152.5882 425,-143 428.9534,-140.8774 433.1885,-138.9288 437.4963,-137.1562"/>
<polygon fill="#191970" stroke="#191970" points="438.8588,-140.3826 446.9622,-133.5572 436.3711,-133.8396 438.8588,-140.3826"/>
</g>
<!-- Node13025 -->
<g id="node19" class="node">
<title>Node13025</title>
<g id="a_node19"><a xlink:href="quickjs_8c.html#abbf44eaeace1104a6bef718fbf5700fe" target="_top" xlink:title="JS_DupAtom">
<polygon fill="none" stroke="#000000" points="444,-266.5 444,-285.5 519,-285.5 519,-266.5 444,-266.5"/>
<text text-anchor="middle" x="481.5" y="-273.5" font-family="Helvetica,sans-Serif" font-size="10.00" fill="#000000">JS_DupAtom</text>
</a>
</g>
</g>
<!-- Node13003&#45;&gt;Node13025 -->
<g id="edge20" class="edge">
<title>Node13003&#45;&gt;Node13025</title>
<path fill="none" stroke="#191970" d="M200.9031,-513.4022C211.9808,-508.9049 224.2475,-502.794 234,-495 254.8315,-478.3518 252.4297,-467.0598 270,-447 333.5728,-374.4195 342.7446,-345.4329 425,-295 428.3774,-292.9292 432.0081,-291.0529 435.7408,-289.3592"/>
<polygon fill="#191970" stroke="#191970" points="437.2095,-292.5401 445.1434,-285.5185 434.5624,-286.0599 437.2095,-292.5401"/>
</g>
<!-- Node13027 -->
<g id="node21" class="node">
<title>Node13027</title>
<g id="a_node21"><a xlink:href="quickjs_8c.html#a288254c06a39c9fca740a7abdad2834e" target="_top" xlink:title="__JS_AtomIsTaggedInt">
<polygon fill="none" stroke="#000000" points="270,-570.5 270,-589.5 389,-589.5 389,-570.5 270,-570.5"/>
<text text-anchor="middle" x="329.5" y="-577.5" font-family="Helvetica,sans-Serif" font-size="10.00" fill="#000000">__JS_AtomIsTaggedInt</text>
</a>
</g>
</g>
<!-- Node13003&#45;&gt;Node13027 -->
<g id="edge22" class="edge">
<title>Node13003&#45;&gt;Node13027</title>
<path fill="none" stroke="#191970" d="M197.9456,-532.5405C224.0355,-541.9527 264.1208,-556.4138 293.1874,-566.8999"/>
<polygon fill="#191970" stroke="#191970" points="292.3737,-570.3271 302.9681,-570.4284 294.7492,-563.7425 292.3737,-570.3271"/>
</g>
<!-- Node13005 -->
<g id="node4" class="node">
<title>Node13005</title>
<g id="a_node4"><a xlink:href="quickjs_8c.html#a8291bf195606b5d1b0faed795b6dc3ff" target="_top" xlink:title="get_shape_hash">
<polygon fill="none" stroke="#000000" points="581,-684.5 581,-703.5 669,-703.5 669,-684.5 581,-684.5"/>
<text text-anchor="middle" x="625" y="-691.5" font-family="Helvetica,sans-Serif" font-size="10.00" fill="#000000">get_shape_hash</text>
</a>
</g>
</g>
<!-- Node13004&#45;&gt;Node13005 -->
<g id="edge3" class="edge">
<title>Node13004&#45;&gt;Node13005</title>
<path fill="none" stroke="#191970" d="M527.0462,-95.6127C531.2452,-98.0709 535.0295,-101.1485 538,-105 610.3667,-198.8272 527.9951,-527.8027 574,-637 580.6377,-652.7552 593.4986,-667.0803 604.6442,-677.4288"/>
<polygon fill="#191970" stroke="#191970" points="602.5299,-680.231 612.3432,-684.2248 607.1624,-674.9831 602.5299,-680.231"/>
</g>
<!-- Node13008 -->
<g id="node7" class="node">
<title>Node13008</title>
<g id="a_node7"><a xlink:href="cutils_8h.html#a94f155fcce337a2b9d4719ed8042cbbe" target="_top" xlink:title="max_int">
<polygon fill="none" stroke="#000000" points="456,-456.5 456,-475.5 507,-475.5 507,-456.5 456,-456.5"/>
<text text-anchor="middle" x="481.5" y="-463.5" font-family="Helvetica,sans-Serif" font-size="10.00" fill="#000000">max_int</text>
</a>
</g>
</g>
<!-- Node13007&#45;&gt;Node13008 -->
<g id="edge6" class="edge">
<title>Node13007&#45;&gt;Node13008</title>
<path fill="none" stroke="#191970" d="M375.105,-466C397.6969,-466 424.5791,-466 445.6696,-466"/>
<polygon fill="#191970" stroke="#191970" points="445.8147,-469.5001 455.8147,-466 445.8147,-462.5001 445.8147,-469.5001"/>
</g>
<!-- Node13009 -->
<g id="node8" class="node">
<title>Node13009</title>
<g id="a_node8"><a xlink:href="quickjs_8c.html#a78b7f6b85f2739b551ff54f16156128b" target="_top" xlink:title="js_malloc">
<polygon fill="none" stroke="#ff0000" points="452.5,-380.5 452.5,-399.5 510.5,-399.5 510.5,-380.5 452.5,-380.5"/>
<text text-anchor="middle" x="481.5" y="-387.5" font-family="Helvetica,sans-Serif" font-size="10.00" fill="#000000">js_malloc</text>
</a>
</g>
</g>
<!-- Node13007&#45;&gt;Node13009 -->
<g id="edge7" class="edge">
<title>Node13007&#45;&gt;Node13009</title>
<path fill="none" stroke="#191970" d="M343.5372,-456.3134C361.71,-444.085 394.6546,-422.9631 425,-409 430.5409,-406.4504 436.5252,-404.0677 442.455,-401.9102"/>
<polygon fill="#191970" stroke="#191970" points="443.9913,-405.0822 452.2952,-398.5022 441.7004,-398.4676 443.9913,-405.0822"/>
</g>
<!-- Node13013 -->
<g id="node9" class="node">
<title>Node13013</title>
<g id="a_node9"><a xlink:href="quickjs_8c.html#ab54e821a9b1b55dc16c4494bd410b698" target="_top" xlink:title="get_shape_size">
<polygon fill="none" stroke="#000000" points="439,-342.5 439,-361.5 524,-361.5 524,-342.5 439,-342.5"/>
<text text-anchor="middle" x="481.5" y="-349.5" font-family="Helvetica,sans-Serif" font-size="10.00" fill="#000000">get_shape_size</text>
</a>
</g>
</g>
<!-- Node13007&#45;&gt;Node13013 -->
<g id="edge8" class="edge">
<title>Node13007&#45;&gt;Node13013</title>
<path fill="none" stroke="#191970" d="M336.5752,-456.4727C351.1027,-437.5463 386.2081,-394.9755 425,-371 428.3218,-368.9469 431.8919,-367.0863 435.5649,-365.406"/>
<polygon fill="#191970" stroke="#191970" points="436.9099,-368.6374 444.8243,-361.5937 434.2449,-362.1645 436.9099,-368.6374"/>
</g>
<!-- Node13014 -->
<g id="node10" class="node">
<title>Node13014</title>
<g id="a_node10"><a xlink:href="quickjs_8c.html#a8b6c89e0f589df709eb31a92b7fac32a" target="_top" xlink:title="get_shape_from_alloc">
<polygon fill="none" stroke="#000000" points="425.5,-304.5 425.5,-323.5 537.5,-323.5 537.5,-304.5 425.5,-304.5"/>
<text text-anchor="middle" x="481.5" y="-311.5" font-family="Helvetica,sans-Serif" font-size="10.00" fill="#000000">get_shape_from_alloc</text>
</a>
</g>
</g>
<!-- Node13007&#45;&gt;Node13014 -->
<g id="edge9" class="edge">
<title>Node13007&#45;&gt;Node13014</title>
<path fill="none" stroke="#191970" d="M336.7322,-456.3387C348.021,-441.2173 370.4586,-410.9966 389,-385 405.3221,-362.1152 402.5351,-349.8953 425,-333 427.4838,-331.132 430.1624,-329.4408 432.9559,-327.9106"/>
<polygon fill="#191970" stroke="#191970" points="434.6277,-330.9917 442.1713,-323.5522 431.6349,-324.6637 434.6277,-330.9917"/>
</g>
<!-- Node13015 -->
<g id="node11" class="node">
<title>Node13015</title>
<g id="a_node11"><a xlink:href="list_8h.html#ab60d5d18869ebeb5d6ab694289576fa7" target="_top" xlink:title="list_del">
<polygon fill="none" stroke="#000000" points="458,-418.5 458,-437.5 505,-437.5 505,-418.5 458,-418.5"/>
<text text-anchor="middle" x="481.5" y="-425.5" font-family="Helvetica,sans-Serif" font-size="10.00" fill="#000000">list_del</text>
</a>
</g>
</g>
<!-- Node13007&#45;&gt;Node13015 -->
<g id="edge10" class="edge">
<title>Node13007&#45;&gt;Node13015</title>
<path fill="none" stroke="#191970" d="M367.856,-456.411C392.5244,-450.2439 424.2717,-442.3071 447.9381,-436.3905"/>
<polygon fill="#191970" stroke="#191970" points="449.0122,-439.7298 457.8647,-433.9088 447.3144,-432.9388 449.0122,-439.7298"/>
</g>
<!-- Node13016 -->
<g id="node12" class="node">
<title>Node13016</title>
<g id="a_node12"><a xlink:href="list_8h.html#a3a5d0733570b2fafc18f4c71a2968ea5" target="_top" xlink:title="list_add_tail">
<polygon fill="none" stroke="#ff0000" points="591,-380.5 591,-399.5 659,-399.5 659,-380.5 591,-380.5"/>
<text text-anchor="middle" x="625" y="-387.5" font-family="Helvetica,sans-Serif" font-size="10.00" fill="#000000">list_add_tail</text>
</a>
</g>
</g>
<!-- Node13007&#45;&gt;Node13016 -->
<g id="edge11" class="edge">
<title>Node13007&#45;&gt;Node13016</title>
<path fill="none" stroke="#191970" d="M338.7009,-475.5367C361.5534,-499.1703 419.4605,-558.714 425,-561 471.4245,-580.1583 495.1864,-587.2538 538,-561 592.8118,-527.3887 614.4289,-447.2416 621.7471,-409.8473"/>
<polygon fill="#191970" stroke="#191970" points="625.2442,-410.1769 623.5801,-399.7136 618.356,-408.9309 625.2442,-410.1769"/>
</g>
<!-- Node13007&#45;&gt;Node13018 -->
<g id="edge12" class="edge">
<title>Node13007&#45;&gt;Node13018</title>
<path fill="none" stroke="#191970" d="M339.7861,-475.5712C352.1509,-487.3263 373.2071,-508.1555 389,-528 407.1925,-550.8597 400.5984,-566.9347 425,-583 469.0628,-612.0098 529.9603,-619.0626 572.9497,-619.9164"/>
<polygon fill="#191970" stroke="#191970" points="573.1671,-623.4185 583.1987,-620.01 573.2311,-616.4188 573.1671,-623.4185"/>
</g>
<!-- Node13019 -->
<g id="node14" class="node">
<title>Node13019</title>
<g id="a_node14"><a xlink:href="quickjs_8c.html#a80e54dcf9ac687d4ccc2f90273565f30" target="_top" xlink:title="js_free">
<polygon fill="none" stroke="#ff0000" points="458.5,-532.5 458.5,-551.5 504.5,-551.5 504.5,-532.5 458.5,-532.5"/>
<text text-anchor="middle" x="481.5" y="-539.5" font-family="Helvetica,sans-Serif" font-size="10.00" fill="#000000">js_free</text>
</a>
</g>
</g>
<!-- Node13007&#45;&gt;Node13019 -->
<g id="edge13" class="edge">
<title>Node13007&#45;&gt;Node13019</title>
<path fill="none" stroke="#191970" d="M343.5372,-475.6866C361.71,-487.915 394.6546,-509.0369 425,-523 432.4696,-526.4371 440.745,-529.5709 448.6066,-532.2585"/>
<polygon fill="#191970" stroke="#191970" points="447.6587,-535.6309 458.2513,-535.4136 449.8352,-528.9778 447.6587,-535.6309"/>
</g>
<!-- Node13021 -->
<g id="node15" class="node">
<title>Node13021</title>
<g id="a_node15"><a xlink:href="quickjs_8c.html#a7da0cfa6f27af0e1b9599d7f359edbe2" target="_top" xlink:title="get_alloc_from_shape">
<polygon fill="none" stroke="#000000" points="425.5,-190.5 425.5,-209.5 537.5,-209.5 537.5,-190.5 425.5,-190.5"/>
<text text-anchor="middle" x="481.5" y="-197.5" font-family="Helvetica,sans-Serif" font-size="10.00" fill="#000000">get_alloc_from_shape</text>
</a>
</g>
</g>
<!-- Node13007&#45;&gt;Node13021 -->
<g id="edge14" class="edge">
<title>Node13007&#45;&gt;Node13021</title>
<path fill="none" stroke="#191970" d="M332.7313,-456.2209C347.2313,-412.5583 406.3938,-236.7955 425,-219 426.6407,-217.4308 428.415,-215.991 430.2882,-214.67"/>
<polygon fill="#191970" stroke="#191970" points="432.1285,-217.6488 439.0247,-209.6057 428.6179,-211.5927 432.1285,-217.6488"/>
</g>
<!-- Node13022 -->
<g id="node16" class="node">
<title>Node13022</title>
<g id="a_node16"><a xlink:href="quickjs_8c.html#afc4635015897c24a35aa18566311c298" target="_top" xlink:title="js_realloc">
<polygon fill="none" stroke="#000000" points="452.5,-494.5 452.5,-513.5 510.5,-513.5 510.5,-494.5 452.5,-494.5"/>
<text text-anchor="middle" x="481.5" y="-501.5" font-family="Helvetica,sans-Serif" font-size="10.00" fill="#000000">js_realloc</text>
</a>
</g>
</g>
<!-- Node13007&#45;&gt;Node13022 -->
<g id="edge16" class="edge">
<title>Node13007&#45;&gt;Node13022</title>
<path fill="none" stroke="#191970" d="M367.856,-475.589C390.6858,-481.2964 419.5785,-488.5196 442.5178,-494.2545"/>
<polygon fill="#191970" stroke="#191970" points="441.7213,-497.663 452.2716,-496.6929 443.4191,-490.872 441.7213,-497.663"/>
</g>
<!-- Node13021&#45;&gt;Node13018 -->
<g id="edge15" class="edge">
<title>Node13021&#45;&gt;Node13018</title>
<path fill="none" stroke="#191970" d="M525.7722,-209.5309C530.3735,-211.9971 534.6005,-215.099 538,-219 594.4665,-283.795 555.8064,-325.0008 574,-409 589.1899,-479.1314 610.305,-561.7128 619.8962,-598.5568"/>
<polygon fill="#191970" stroke="#191970" points="616.569,-599.6681 622.4836,-608.4583 623.3416,-597.8983 616.569,-599.6681"/>
</g>
<!-- Node13023&#45;&gt;Node13005 -->
<g id="edge18" class="edge">
<title>Node13023&#45;&gt;Node13005</title>
<path fill="none" stroke="#191970" d="M380.5144,-663.7302C394.8907,-665.8402 410.5491,-668.0741 425,-670 474.2684,-676.5663 530.477,-683.2391 570.7334,-687.8762"/>
<polygon fill="#191970" stroke="#191970" points="570.5346,-691.3763 580.8685,-689.0395 571.3329,-684.422 570.5346,-691.3763"/>
</g>
<!-- Node13026 -->
<g id="node20" class="node">
<title>Node13026</title>
<g id="a_node20"><a xlink:href="quickjs_8c.html#a7f6796ee7a195631366f57c713a33f65" target="_top" xlink:title="__JS_AtomIsConst">
<polygon fill="none" stroke="#000000" points="574,-152.5 574,-171.5 676,-171.5 676,-152.5 574,-152.5"/>
<text text-anchor="middle" x="625" y="-159.5" font-family="Helvetica,sans-Serif" font-size="10.00" fill="#000000">__JS_AtomIsConst</text>
</a>
</g>
</g>
<!-- Node13025&#45;&gt;Node13026 -->
<g id="edge21" class="edge">
<title>Node13025&#45;&gt;Node13026</title>
<path fill="none" stroke="#191970" d="M518.9124,-266.4067C525.5486,-263.8853 532.1883,-260.7816 538,-257 569.8411,-236.2811 597.7307,-201.2317 612.8941,-179.9911"/>
<polygon fill="#191970" stroke="#191970" points="615.9222,-181.7672 618.7612,-171.5598 610.1764,-177.7688 615.9222,-181.7672"/>
</g>
<!-- Node13028&#45;&gt;Node13005 -->
<g id="edge26" class="edge">
<title>Node13028&#45;&gt;Node13005</title>
<path fill="none" stroke="#191970" d="M184.0343,-627.6573C201.9735,-640.8943 236.5136,-664.2537 270,-675 372.3644,-707.8505 499.7778,-704.7938 570.7636,-699.4846"/>
<polygon fill="#191970" stroke="#191970" points="571.1251,-702.967 580.8178,-698.6889 570.5728,-695.9888 571.1251,-702.967"/>
</g>
<!-- Node13028&#45;&gt;Node13006 -->
<g id="edge25" class="edge">
<title>Node13028&#45;&gt;Node13006</title>
<path fill="none" stroke="#191970" d="M234.3998,-618C251.1809,-618 268.9741,-618 284.5744,-618"/>
<polygon fill="#191970" stroke="#191970" points="284.9849,-621.5001 294.9849,-618 284.9849,-614.5001 284.9849,-621.5001"/>
</g>
<!-- Node13029&#45;&gt;Node13009 -->
<g id="edge29" class="edge">
<title>Node13029&#45;&gt;Node13009</title>
<path fill="none" stroke="#191970" d="M336.5752,-285.5273C351.1027,-304.4537 386.2081,-347.0245 425,-371 430.4882,-374.392 436.6542,-377.2587 442.8423,-379.6549"/>
<polygon fill="#191970" stroke="#191970" points="441.8957,-383.0319 452.4905,-383.0407 444.2136,-376.4268 441.8957,-383.0319"/>
</g>
<!-- Node13029&#45;&gt;Node13013 -->
<g id="edge28" class="edge">
<title>Node13029&#45;&gt;Node13013</title>
<path fill="none" stroke="#191970" d="M343.5372,-285.6866C361.71,-297.915 394.6546,-319.0369 425,-333 429.6404,-335.1352 434.5918,-337.1534 439.5618,-339.0203"/>
<polygon fill="#191970" stroke="#191970" points="438.4706,-342.3471 449.0653,-342.415 440.8254,-335.755 438.4706,-342.3471"/>
</g>
<!-- Node13029&#45;&gt;Node13014 -->
<g id="edge31" class="edge">
<title>Node13029&#45;&gt;Node13014</title>
<path fill="none" stroke="#191970" d="M367.856,-285.589C387.8237,-290.5809 412.4295,-296.7324 433.6334,-302.0334"/>
<polygon fill="#191970" stroke="#191970" points="432.8695,-305.45 443.4198,-304.4799 434.5673,-298.659 432.8695,-305.45"/>
</g>
<!-- Node13029&#45;&gt;Node13021 -->
<g id="edge30" class="edge">
<title>Node13029&#45;&gt;Node13021</title>
<path fill="none" stroke="#191970" d="M343.5372,-266.3134C361.71,-254.085 394.6546,-232.9631 425,-219 429.6404,-216.8648 434.5918,-214.8466 439.5618,-212.9797"/>
<polygon fill="#191970" stroke="#191970" points="440.8254,-216.245 449.0653,-209.585 438.4706,-209.6529 440.8254,-216.245"/>
</g>
<!-- Node13029&#45;&gt;Node13024 -->
<g id="edge35" class="edge">
<title>Node13029&#45;&gt;Node13024</title>
<path fill="none" stroke="#191970" d="M350.6567,-266.3499C363.2721,-259.668 378.7717,-249.6959 389,-237 417.0665,-202.1624 392.7192,-173.9731 425,-143 426.6382,-141.4282 428.4105,-139.9863 430.2819,-138.6635"/>
<polygon fill="#191970" stroke="#191970" points="432.1228,-141.6418 439.0132,-133.5936 428.6078,-135.5883 432.1228,-141.6418"/>
</g>
<!-- Node13029&#45;&gt;Node13025 -->
<g id="edge36" class="edge">
<title>Node13029&#45;&gt;Node13025</title>
<path fill="none" stroke="#191970" d="M371.8405,-276C391.065,-276 413.8905,-276 433.726,-276"/>
<polygon fill="#191970" stroke="#191970" points="433.7912,-279.5001 443.7912,-276 433.7912,-272.5001 433.7912,-279.5001"/>
</g>
<!-- Node13030 -->
<g id="node24" class="node">
<title>Node13030</title>
<g id="a_node24"><a xlink:href="quickjs_8c.html#a9780456a71703c53244b88831bc8fb7a" target="_top" xlink:title="add_gc_object">
<polygon fill="none" stroke="#000000" points="441.5,-152.5 441.5,-171.5 521.5,-171.5 521.5,-152.5 441.5,-152.5"/>
<text text-anchor="middle" x="481.5" y="-159.5" font-family="Helvetica,sans-Serif" font-size="10.00" fill="#000000">add_gc_object</text>
</a>
</g>
</g>
<!-- Node13029&#45;&gt;Node13030 -->
<g id="edge32" class="edge">
<title>Node13029&#45;&gt;Node13030</title>
<path fill="none" stroke="#191970" d="M348.1229,-266.4965C360.6486,-259.4928 377.0012,-249.1056 389,-237 409.829,-215.9855 401.6607,-199.1861 425,-181 427.412,-179.1206 430.0198,-177.4219 432.7462,-175.8873"/>
<polygon fill="#191970" stroke="#191970" points="434.286,-179.0305 441.7627,-171.5239 431.2367,-172.7295 434.286,-179.0305"/>
</g>
<!-- Node13031 -->
<g id="node25" class="node">
<title>Node13031</title>
<g id="a_node25"><a xlink:href="quickjs_8h.html#a775522f2d084fc8fa0fcb33f390006b4" target="_top" xlink:title="JS_DupValue">
<polygon fill="none" stroke="#000000" points="443,-228.5 443,-247.5 520,-247.5 520,-228.5 443,-228.5"/>
<text text-anchor="middle" x="481.5" y="-235.5" font-family="Helvetica,sans-Serif" font-size="10.00" fill="#000000">JS_DupValue</text>
</a>
</g>
</g>
<!-- Node13029&#45;&gt;Node13031 -->
<g id="edge34" class="edge">
<title>Node13029&#45;&gt;Node13031</title>
<path fill="none" stroke="#191970" d="M367.856,-266.411C387.8237,-261.4191 412.4295,-255.2676 433.6334,-249.9666"/>
<polygon fill="#191970" stroke="#191970" points="434.5673,-253.341 443.4198,-247.5201 432.8695,-246.55 434.5673,-253.341"/>
</g>
<!-- Node13030&#45;&gt;Node13016 -->
<g id="edge33" class="edge">
<title>Node13030&#45;&gt;Node13016</title>
<path fill="none" stroke="#191970" d="M521.5778,-170.6585C527.5731,-173.2542 533.3069,-176.6247 538,-181 594.4955,-233.6705 615.5218,-328.6411 622.2424,-369.9272"/>
<polygon fill="#191970" stroke="#191970" points="618.8201,-370.7045 623.7762,-380.0686 625.7414,-369.6577 618.8201,-370.7045"/>
</g>
<!-- Node13034 -->
<g id="node28" class="node">
<title>Node13034</title>
<g id="a_node28"><a xlink:href="quickjs_8c.html#a6f921a6312ada5c7da7b485e24d37f54" target="_top" xlink:title="js_free_shape0">
<polygon fill="none" stroke="#ff0000" points="288,-95.5 288,-114.5 371,-114.5 371,-95.5 288,-95.5"/>
<text text-anchor="middle" x="329.5" y="-102.5" font-family="Helvetica,sans-Serif" font-size="10.00" fill="#000000">js_free_shape0</text>
</a>
</g>
</g>
<!-- Node13033&#45;&gt;Node13034 -->
<g id="edge39" class="edge">
<title>Node13033&#45;&gt;Node13034</title>
<path fill="none" stroke="#191970" d="M178.3462,-247.3148C193.3306,-226.5504 230.8362,-176.8867 270,-143 279.9647,-134.378 292.0534,-126.296 302.7248,-119.821"/>
<polygon fill="#191970" stroke="#191970" points="304.8042,-122.6585 311.6488,-114.5713 301.2549,-116.625 304.8042,-122.6585"/>
</g>
<!-- Node13034&#45;&gt;Node13004 -->
<g id="edge40" class="edge">
<title>Node13034&#45;&gt;Node13004</title>
<path fill="none" stroke="#191970" d="M371.0347,-99.8082C384.5327,-98.1209 399.8709,-96.2036 414.7312,-94.3461"/>
<polygon fill="#191970" stroke="#191970" points="415.4257,-97.7866 424.9143,-93.0732 414.5574,-90.8407 415.4257,-97.7866"/>
</g>
<!-- Node13034&#45;&gt;Node13021 -->
<g id="edge45" class="edge">
<title>Node13034&#45;&gt;Node13021</title>
<path fill="none" stroke="#191970" d="M339.2509,-114.7146C355.6537,-130.5792 390.3805,-162.1639 425,-181 428.9415,-183.1445 433.1687,-185.1077 437.4717,-186.8894"/>
<polygon fill="#191970" stroke="#191970" points="436.3406,-190.2039 446.9313,-190.4998 438.8368,-183.664 436.3406,-190.2039"/>
</g>
<!-- Node13034&#45;&gt;Node13024 -->
<g id="edge42" class="edge">
<title>Node13034&#45;&gt;Node13024</title>
<path fill="none" stroke="#191970" d="M371.0347,-110.1918C388.6859,-112.3982 409.484,-114.998 428.2452,-117.3432"/>
<polygon fill="#191970" stroke="#191970" points="428.0687,-120.8482 438.4256,-118.6157 428.937,-113.9023 428.0687,-120.8482"/>
</g>
<!-- Node13035 -->
<g id="node29" class="node">
<title>Node13035</title>
<g id="a_node29"><a xlink:href="quickjs_8h.html#ab8db583fa5e7c2b1935854a42859daed" target="_top" xlink:title="JS_FreeValueRT">
<polygon fill="none" stroke="#ff0000" points="435.5,-.5 435.5,-19.5 527.5,-19.5 527.5,-.5 435.5,-.5"/>
<text text-anchor="middle" x="481.5" y="-7.5" font-family="Helvetica,sans-Serif" font-size="10.00" fill="#000000">JS_FreeValueRT</text>
</a>
</g>
</g>
<!-- Node13034&#45;&gt;Node13035 -->
<g id="edge41" class="edge">
<title>Node13034&#45;&gt;Node13035</title>
<path fill="none" stroke="#191970" d="M339.2509,-95.2854C355.6537,-79.4208 390.3805,-47.8361 425,-29 428.9415,-26.8555 433.1687,-24.8923 437.4717,-23.1106"/>
<polygon fill="#191970" stroke="#191970" points="438.8368,-26.336 446.9313,-19.5002 436.3406,-19.7961 438.8368,-26.336"/>
</g>
<!-- Node13059 -->
<g id="node30" class="node">
<title>Node13059</title>
<g id="a_node30"><a xlink:href="quickjs_8c.html#a5a0aca30abbb4d4ae86746541bf4cbc7" target="_top" xlink:title="JS_FreeAtomRT">
<polygon fill="none" stroke="#ff0000" points="436.5,-38.5 436.5,-57.5 526.5,-57.5 526.5,-38.5 436.5,-38.5"/>
<text text-anchor="middle" x="481.5" y="-45.5" font-family="Helvetica,sans-Serif" font-size="10.00" fill="#000000">JS_FreeAtomRT</text>
</a>
</g>
</g>
<!-- Node13034&#45;&gt;Node13059 -->
<g id="edge43" class="edge">
<title>Node13034&#45;&gt;Node13059</title>
<path fill="none" stroke="#191970" d="M352.5222,-95.4322C371.7819,-87.5264 400.0383,-76.1556 425,-67 430.6018,-64.9453 436.5462,-62.8524 442.3948,-60.8427"/>
<polygon fill="#191970" stroke="#191970" points="443.7242,-64.0877 452.0697,-57.5605 441.4753,-57.4588 443.7242,-64.0877"/>
</g>
<!-- Node13059&#45;&gt;Node13026 -->
<g id="edge44" class="edge">
<title>Node13059&#45;&gt;Node13026</title>
<path fill="none" stroke="#191970" d="M518.9124,-57.5933C525.5486,-60.1147 532.1883,-63.2184 538,-67 569.8411,-87.7189 597.7307,-122.7683 612.8941,-144.0089"/>
<polygon fill="#191970" stroke="#191970" points="610.1764,-146.2312 618.7612,-152.4402 615.9222,-142.2328 610.1764,-146.2312"/>
</g>
</g>
</svg>
