<?xml version="1.0" encoding="UTF-8" standalone="no"?>
<!DOCTYPE svg PUBLIC "-//W3C//DTD SVG 1.1//EN"
 "http://www.w3.org/Graphics/SVG/1.1/DTD/svg11.dtd">
<!-- Generated by graphviz version 2.40.1 (20161225.0304)
 -->
<!-- Title: js_host_resolve_imported_module Pages: 1 -->
<!--zoomable 84 -->
<svg id="main" version="1.1" xmlns="http://www.w3.org/2000/svg" xmlns:xlink="http://www.w3.org/1999/xlink" xml:space="preserve" onload="init(evt)">
<style type="text/css"><![CDATA[
.edge:hover path { stroke: red; }
.edge:hover polygon { stroke: red; fill: red; }
]]></style>
<script type="text/javascript"><![CDATA[
var edges = document.getElementsByTagName('g');
if (edges && edges.length) {
  for (var i=0;i<edges.length;i++) {
    if (edges[i].id.substr(0,4)=='edge') {
      edges[i].setAttribute('class','edge');
    }
  }
}
]]></script>
        <defs>
                <circle id="rim" cx="0" cy="0" r="7"/>
                <circle id="rim2" cx="0" cy="0" r="3.5"/>
                <g id="zoomPlus">
                        <use xlink:href="#rim" fill="#404040">
                                <set attributeName="fill" to="#808080" begin="zoomplus.mouseover" end="zoomplus.mouseout"/>
                        </use>
                        <path d="M-4,0h8M0,-4v8" fill="none" stroke="white" stroke-width="1.5" pointer-events="none"/>
                </g>
                <g id="zoomMin">
                        <use xlink:href="#rim" fill="#404040">
                                <set attributeName="fill" to="#808080" begin="zoomminus.mouseover" end="zoomminus.mouseout"/>
                        </use>
                        <path d="M-4,0h8" fill="none" stroke="white" stroke-width="1.5" pointer-events="none"/>
                </g>
                <g id="dirArrow">
                        <path fill="none" stroke="white" stroke-width="1.5" d="M0,-3.0v7 M-2.5,-0.5L0,-3.0L2.5,-0.5"/>
                </g>
               <g id="resetDef">
                       <use xlink:href="#rim2" fill="#404040">
                               <set attributeName="fill" to="#808080" begin="reset.mouseover" end="reset.mouseout"/>
                       </use>
               </g>
        </defs>

<script type="text/javascript">
var viewWidth = 566;
var viewHeight = 84;
var sectionId = 'dynsection-1110';
</script>
<script xlink:href="svgpan.js"/>
<svg id="graph" class="graph">
<g id="viewport">
<title>js_host_resolve_imported_module</title>
<!-- Node330068 -->
<g id="node1" class="node">
<title>Node330068</title>
<polygon fill="#bfbfbf" stroke="#000000" points="0,-14 0,-44 128,-44 128,-14 0,-14"/>
<text text-anchor="start" x="8" y="-32" font-family="Helvetica,sans-Serif" font-size="10.00" fill="#000000">js_host_resolve_imported</text>
<text text-anchor="middle" x="64" y="-21" font-family="Helvetica,sans-Serif" font-size="10.00" fill="#000000">_module</text>
</g>
<!-- Node330069 -->
<g id="node2" class="node">
<title>Node330069</title>
<g id="a_node2"><a xlink:href="quickjs_8c.html#a5b9215d5347fb8696212caf3f8ebfad0" target="_top" xlink:title="js_host_resolve_imported\l_module_atom">
<polygon fill="none" stroke="#000000" points="164,-36 164,-66 292,-66 292,-36 164,-36"/>
<text text-anchor="start" x="172" y="-54" font-family="Helvetica,sans-Serif" font-size="10.00" fill="#000000">js_host_resolve_imported</text>
<text text-anchor="middle" x="228" y="-43" font-family="Helvetica,sans-Serif" font-size="10.00" fill="#000000">_module_atom</text>
</a>
</g>
</g>
<!-- Node330068&#45;&gt;Node330069 -->
<g id="edge1" class="edge">
<title>Node330068&#45;&gt;Node330069</title>
<path fill="none" stroke="#191970" d="M138.2859,-38.9652C146.8158,-40.1094 155.4581,-41.2688 163.8391,-42.3931"/>
<polygon fill="#191970" stroke="#191970" points="138.723,-35.4926 128.3464,-37.6318 137.7923,-42.4304 138.723,-35.4926"/>
</g>
<!-- Node330071 -->
<g id="node4" class="node">
<title>Node330071</title>
<g id="a_node4"><a xlink:href="quickjs_8c.html#aa75a2b06808d8da661d4eb6698b17cab" target="_top" xlink:title="JS_RunModule">
<polygon fill="none" stroke="#ff0000" points="468.5,-.5 468.5,-19.5 551.5,-19.5 551.5,-.5 468.5,-.5"/>
<text text-anchor="middle" x="510" y="-7.5" font-family="Helvetica,sans-Serif" font-size="10.00" fill="#000000">JS_RunModule</text>
</a>
</g>
</g>
<!-- Node330068&#45;&gt;Node330071 -->
<g id="edge6" class="edge">
<title>Node330068&#45;&gt;Node330071</title>
<path fill="none" stroke="#191970" d="M138.4462,-25.8285C233.0198,-21.7996 392.9797,-14.9852 468.3505,-11.7743"/>
<polygon fill="#191970" stroke="#191970" points="138.2178,-22.335 128.3759,-26.2575 138.5159,-29.3286 138.2178,-22.335"/>
</g>
<!-- Node330070 -->
<g id="node3" class="node">
<title>Node330070</title>
<g id="a_node3"><a xlink:href="quickjs_8c.html#a041f16b68daf31525cd76aa4794073ef" target="_top" xlink:title="js_resolve_module">
<polygon fill="none" stroke="#000000" points="328,-38.5 328,-57.5 426,-57.5 426,-38.5 328,-38.5"/>
<text text-anchor="middle" x="377" y="-45.5" font-family="Helvetica,sans-Serif" font-size="10.00" fill="#000000">js_resolve_module</text>
</a>
</g>
</g>
<!-- Node330069&#45;&gt;Node330070 -->
<g id="edge2" class="edge">
<title>Node330069&#45;&gt;Node330070</title>
<path fill="none" stroke="#191970" d="M302.2289,-49.5055C310.9224,-49.3304 319.6207,-49.1553 327.8505,-48.9896"/>
<polygon fill="#191970" stroke="#191970" points="301.9816,-46.0096 292.0541,-49.7103 302.1226,-53.0082 301.9816,-46.0096"/>
</g>
<!-- Node330070&#45;&gt;Node330070 -->
<g id="edge3" class="edge">
<title>Node330070&#45;&gt;Node330070</title>
<path fill="none" stroke="#191970" d="M352.4465,-67.0292C353.7858,-72.128 361.9703,-76 377,-76 400.4609,-76 407.2426,-66.5653 397.345,-57.7571"/>
<polygon fill="#191970" stroke="#191970" points="355.709,-68.3096 356.655,-57.7571 349.3348,-65.4164 355.709,-68.3096"/>
</g>
<!-- Node330070&#45;&gt;Node330071 -->
<g id="edge4" class="edge">
<title>Node330070&#45;&gt;Node330071</title>
<path fill="none" stroke="#191970" d="M420.3669,-35.6094C438.5807,-30.4055 459.4393,-24.4459 476.4492,-19.5859"/>
<polygon fill="#191970" stroke="#191970" points="419.2152,-32.2984 410.5615,-38.411 421.1383,-39.029 419.2152,-32.2984"/>
</g>
<!-- Node330251 -->
<g id="node5" class="node">
<title>Node330251</title>
<g id="a_node5"><a xlink:href="quickjs_8c.html#a46a8a7e155cfd0af984f6725f060f0d6" target="_top" xlink:title="__JS_EvalInternal">
<polygon fill="none" stroke="#ff0000" points="462,-38.5 462,-57.5 558,-57.5 558,-38.5 462,-38.5"/>
<text text-anchor="middle" x="510" y="-45.5" font-family="Helvetica,sans-Serif" font-size="10.00" fill="#000000">__JS_EvalInternal</text>
</a>
</g>
</g>
<!-- Node330070&#45;&gt;Node330251 -->
<g id="edge5" class="edge">
<title>Node330070&#45;&gt;Node330251</title>
<path fill="none" stroke="#191970" d="M436.1585,-48C444.7826,-48 453.5735,-48 461.9414,-48"/>
<polygon fill="#191970" stroke="#191970" points="436.1465,-44.5001 426.1464,-48 436.1464,-51.5001 436.1465,-44.5001"/>
</g>
</g>
</svg>
        <g id="navigator" transform="translate(0 0)" fill="#404254">
                <rect fill="#f2f5e9" fill-opacity="0.5" stroke="#606060" stroke-width=".5" x="0" y="0" width="60" height="60"/>
                <use id="zoomplus" xlink:href="#zoomPlus" x="17" y="9" onmousedown="handleZoom(evt,'in')"/>
                <use id="zoomminus" xlink:href="#zoomMin" x="42" y="9" onmousedown="handleZoom(evt,'out')"/>
                <use id="reset" xlink:href="#resetDef" x="30" y="36" onmousedown="handleReset()"/>
                <g id="arrowUp" xlink:href="#dirArrow" transform="translate(30 24)" onmousedown="handlePan(0,-1)">
                  <use xlink:href="#rim" fill="#404040">
                        <set attributeName="fill" to="#808080" begin="arrowUp.mouseover" end="arrowUp.mouseout"/>
                  </use>
                  <path fill="none" stroke="white" stroke-width="1.5" d="M0,-3.0v7 M-2.5,-0.5L0,-3.0L2.5,-0.5"/>
                </g>
                <g id="arrowRight" xlink:href="#dirArrow" transform="rotate(90) translate(36 -43)" onmousedown="handlePan(1,0)">
                  <use xlink:href="#rim" fill="#404040">
                        <set attributeName="fill" to="#808080" begin="arrowRight.mouseover" end="arrowRight.mouseout"/>
                  </use>
                  <path fill="none" stroke="white" stroke-width="1.5" d="M0,-3.0v7 M-2.5,-0.5L0,-3.0L2.5,-0.5"/>
                </g>
                <g id="arrowDown" xlink:href="#dirArrow" transform="rotate(180) translate(-30 -48)" onmousedown="handlePan(0,1)">
                  <use xlink:href="#rim" fill="#404040">
                        <set attributeName="fill" to="#808080" begin="arrowDown.mouseover" end="arrowDown.mouseout"/>
                  </use>
                  <path fill="none" stroke="white" stroke-width="1.5" d="M0,-3.0v7 M-2.5,-0.5L0,-3.0L2.5,-0.5"/>
                </g>
                <g id="arrowLeft" xlink:href="#dirArrow" transform="rotate(270) translate(-36 17)" onmousedown="handlePan(-1,0)">
                  <use xlink:href="#rim" fill="#404040">
                        <set attributeName="fill" to="#808080" begin="arrowLeft.mouseover" end="arrowLeft.mouseout"/>
                  </use>
                  <path fill="none" stroke="white" stroke-width="1.5" d="M0,-3.0v7 M-2.5,-0.5L0,-3.0L2.5,-0.5"/>
                </g>
        </g>
        <svg viewBox="0 0 15 15" width="100%" height="30px" preserveAspectRatio="xMaxYMin meet">
         <g id="arrow_out" transform="scale(0.3 0.3)">
          <a xlink:href="quickjs_8c_a90dd988b99a5bc7b2a4aaffd2de405a9_icgraph_org.svg" target="_base">
           <rect id="button" ry="5" rx="5" y="6" x="6" height="38" width="38"
                fill="#f2f5e9" fill-opacity="0.5" stroke="#606060" stroke-width="1.0"/>
           <path id="arrow"
             d="M 11.500037,31.436501 C 11.940474,20.09759 22.043105,11.32322 32.158766,21.979434 L 37.068811,17.246167 C 37.068811,17.246167 37.088388,32 37.088388,32 L 22.160133,31.978069 C 22.160133,31.978069 26.997745,27.140456 26.997745,27.140456 C 18.528582,18.264221 13.291696,25.230495 11.500037,31.436501 z"
             style="fill:#404040;"/>
          </a>
         </g>
        </svg>
</svg>
