<?xml version="1.0" encoding="UTF-8" standalone="no"?>
<!DOCTYPE svg PUBLIC "-//W3C//DTD SVG 1.1//EN"
 "http://www.w3.org/Graphics/SVG/1.1/DTD/svg11.dtd">
<!-- Generated by graphviz version 2.40.1 (20161225.0304)
 -->
<!-- Title: js_resolve_module Pages: 1 -->
<!--zoomable 66 -->
<svg id="main" version="1.1" xmlns="http://www.w3.org/2000/svg" xmlns:xlink="http://www.w3.org/1999/xlink" xml:space="preserve" onload="init(evt)">
<style type="text/css"><![CDATA[
.edge:hover path { stroke: red; }
.edge:hover polygon { stroke: red; fill: red; }
]]></style>
<script type="text/javascript"><![CDATA[
var edges = document.getElementsByTagName('g');
if (edges && edges.length) {
  for (var i=0;i<edges.length;i++) {
    if (edges[i].id.substr(0,4)=='edge') {
      edges[i].setAttribute('class','edge');
    }
  }
}
]]></script>
        <defs>
                <circle id="rim" cx="0" cy="0" r="7"/>
                <circle id="rim2" cx="0" cy="0" r="3.5"/>
                <g id="zoomPlus">
                        <use xlink:href="#rim" fill="#404040">
                                <set attributeName="fill" to="#808080" begin="zoomplus.mouseover" end="zoomplus.mouseout"/>
                        </use>
                        <path d="M-4,0h8M0,-4v8" fill="none" stroke="white" stroke-width="1.5" pointer-events="none"/>
                </g>
                <g id="zoomMin">
                        <use xlink:href="#rim" fill="#404040">
                                <set attributeName="fill" to="#808080" begin="zoomminus.mouseover" end="zoomminus.mouseout"/>
                        </use>
                        <path d="M-4,0h8" fill="none" stroke="white" stroke-width="1.5" pointer-events="none"/>
                </g>
                <g id="dirArrow">
                        <path fill="none" stroke="white" stroke-width="1.5" d="M0,-3.0v7 M-2.5,-0.5L0,-3.0L2.5,-0.5"/>
                </g>
               <g id="resetDef">
                       <use xlink:href="#rim2" fill="#404040">
                               <set attributeName="fill" to="#808080" begin="reset.mouseover" end="reset.mouseout"/>
                       </use>
               </g>
        </defs>

<script type="text/javascript">
var viewWidth = 524;
var viewHeight = 66;
var sectionId = 'dynsection-1133';
</script>
<script xlink:href="svgpan.js"/>
<svg id="graph" class="graph">
<g id="viewport">
<title>js_resolve_module</title>
<!-- Node339135 -->
<g id="node1" class="node">
<title>Node339135</title>
<polygon fill="#bfbfbf" stroke="#000000" points="0,-19.5 0,-38.5 98,-38.5 98,-19.5 0,-19.5"/>
<text text-anchor="middle" x="49" y="-26.5" font-family="Helvetica,sans-Serif" font-size="10.00" fill="#000000">js_resolve_module</text>
</g>
<!-- Node339135&#45;&gt;Node339135 -->
<g id="edge4" class="edge">
<title>Node339135&#45;&gt;Node339135</title>
<path fill="none" stroke="#191970" d="M24.4465,-48.0292C25.7858,-53.128 33.9703,-57 49,-57 72.4609,-57 79.2426,-47.5653 69.345,-38.7571"/>
<polygon fill="#191970" stroke="#191970" points="27.709,-49.3096 28.655,-38.7571 21.3348,-46.4164 27.709,-49.3096"/>
</g>
<!-- Node339136 -->
<g id="node2" class="node">
<title>Node339136</title>
<g id="a_node2"><a xlink:href="quickjs_8c.html#a46a8a7e155cfd0af984f6725f060f0d6" target="_top" xlink:title="__JS_EvalInternal">
<polygon fill="none" stroke="#000000" points="134,-38.5 134,-57.5 230,-57.5 230,-38.5 134,-38.5"/>
<text text-anchor="middle" x="182" y="-45.5" font-family="Helvetica,sans-Serif" font-size="10.00" fill="#000000">__JS_EvalInternal</text>
</a>
</g>
</g>
<!-- Node339135&#45;&gt;Node339136 -->
<g id="edge1" class="edge">
<title>Node339135&#45;&gt;Node339136</title>
<path fill="none" stroke="#191970" d="M108.1585,-37.4512C116.7826,-38.6832 125.5735,-39.9391 133.9414,-41.1345"/>
<polygon fill="#191970" stroke="#191970" points="108.5409,-33.9704 98.1464,-36.0209 107.5509,-40.9 108.5409,-33.9704"/>
</g>
<!-- Node339142 -->
<g id="node5" class="node">
<title>Node339142</title>
<g id="a_node5"><a xlink:href="quickjs_8c.html#aa75a2b06808d8da661d4eb6698b17cab" target="_top" xlink:title="JS_RunModule">
<polygon fill="none" stroke="#000000" points="140.5,-.5 140.5,-19.5 223.5,-19.5 223.5,-.5 140.5,-.5"/>
<text text-anchor="middle" x="182" y="-7.5" font-family="Helvetica,sans-Serif" font-size="10.00" fill="#000000">JS_RunModule</text>
</a>
</g>
</g>
<!-- Node339135&#45;&gt;Node339142 -->
<g id="edge5" class="edge">
<title>Node339135&#45;&gt;Node339142</title>
<path fill="none" stroke="#191970" d="M108.073,-20.561C119.0025,-18.9996 130.203,-17.3996 140.4736,-15.9323"/>
<polygon fill="#191970" stroke="#191970" points="107.5509,-17.1 98.1464,-21.9791 108.5409,-24.0296 107.5509,-17.1"/>
</g>
<!-- Node339137 -->
<g id="node3" class="node">
<title>Node339137</title>
<g id="a_node3"><a xlink:href="quickjs_8c.html#acbcccb7ec58fd4a024ea1d01e5d04561" target="_top" xlink:title="JS_AddIntrinsicEval">
<polygon fill="none" stroke="#000000" points="271.5,-38.5 271.5,-57.5 376.5,-57.5 376.5,-38.5 271.5,-38.5"/>
<text text-anchor="middle" x="324" y="-45.5" font-family="Helvetica,sans-Serif" font-size="10.00" fill="#000000">JS_AddIntrinsicEval</text>
</a>
</g>
</g>
<!-- Node339136&#45;&gt;Node339137 -->
<g id="edge2" class="edge">
<title>Node339136&#45;&gt;Node339137</title>
<path fill="none" stroke="#191970" d="M240.1601,-48C250.4015,-48 261.0115,-48 271.0992,-48"/>
<polygon fill="#191970" stroke="#191970" points="240.0748,-44.5001 230.0747,-48 240.0747,-51.5001 240.0748,-44.5001"/>
</g>
<!-- Node339138 -->
<g id="node4" class="node">
<title>Node339138</title>
<g id="a_node4"><a xlink:href="quickjs_8c.html#ad8aedb643b8753b7a15f6cb2df61945e" target="_top" xlink:title="JS_NewContext">
<polygon fill="none" stroke="#ff0000" points="422.5,-38.5 422.5,-57.5 511.5,-57.5 511.5,-38.5 422.5,-38.5"/>
<text text-anchor="middle" x="467" y="-45.5" font-family="Helvetica,sans-Serif" font-size="10.00" fill="#000000">JS_NewContext</text>
</a>
</g>
</g>
<!-- Node339137&#45;&gt;Node339138 -->
<g id="edge3" class="edge">
<title>Node339137&#45;&gt;Node339138</title>
<path fill="none" stroke="#191970" d="M387.155,-48C399.02,-48 411.1958,-48 422.3513,-48"/>
<polygon fill="#191970" stroke="#191970" points="386.8417,-44.5001 376.8416,-48 386.8416,-51.5001 386.8417,-44.5001"/>
</g>
<!-- Node339143 -->
<g id="node6" class="node">
<title>Node339143</title>
<g id="a_node6"><a xlink:href="quickjs_8c.html#a6357b7fdae71c70c140e78e6c20cb5c2" target="_top" xlink:title="js_dynamic_import_job">
<polygon fill="none" stroke="#000000" points="266,-.5 266,-19.5 382,-19.5 382,-.5 266,-.5"/>
<text text-anchor="middle" x="324" y="-7.5" font-family="Helvetica,sans-Serif" font-size="10.00" fill="#000000">js_dynamic_import_job</text>
</a>
</g>
</g>
<!-- Node339142&#45;&gt;Node339143 -->
<g id="edge6" class="edge">
<title>Node339142&#45;&gt;Node339143</title>
<path fill="none" stroke="#191970" d="M233.9828,-10C244.3602,-10 255.3228,-10 265.8911,-10"/>
<polygon fill="#191970" stroke="#191970" points="233.8367,-6.5001 223.8367,-10 233.8366,-13.5001 233.8367,-6.5001"/>
</g>
<!-- Node339144 -->
<g id="node7" class="node">
<title>Node339144</title>
<g id="a_node7"><a xlink:href="quickjs_8c.html#a50e94675d1c4cf67c88e72169ea3c21a" target="_top" xlink:title="js_dynamic_import">
<polygon fill="none" stroke="#ff0000" points="418,-.5 418,-19.5 516,-19.5 516,-.5 418,-.5"/>
<text text-anchor="middle" x="467" y="-7.5" font-family="Helvetica,sans-Serif" font-size="10.00" fill="#000000">js_dynamic_import</text>
</a>
</g>
</g>
<!-- Node339143&#45;&gt;Node339144 -->
<g id="edge7" class="edge">
<title>Node339143&#45;&gt;Node339144</title>
<path fill="none" stroke="#191970" d="M392.1691,-10C400.7427,-10 409.3802,-10 417.5873,-10"/>
<polygon fill="#191970" stroke="#191970" points="392.1636,-6.5001 382.1636,-10 392.1635,-13.5001 392.1636,-6.5001"/>
</g>
</g>
</svg>
        <g id="navigator" transform="translate(0 0)" fill="#404254">
                <rect fill="#f2f5e9" fill-opacity="0.5" stroke="#606060" stroke-width=".5" x="0" y="0" width="60" height="60"/>
                <use id="zoomplus" xlink:href="#zoomPlus" x="17" y="9" onmousedown="handleZoom(evt,'in')"/>
                <use id="zoomminus" xlink:href="#zoomMin" x="42" y="9" onmousedown="handleZoom(evt,'out')"/>
                <use id="reset" xlink:href="#resetDef" x="30" y="36" onmousedown="handleReset()"/>
                <g id="arrowUp" xlink:href="#dirArrow" transform="translate(30 24)" onmousedown="handlePan(0,-1)">
                  <use xlink:href="#rim" fill="#404040">
                        <set attributeName="fill" to="#808080" begin="arrowUp.mouseover" end="arrowUp.mouseout"/>
                  </use>
                  <path fill="none" stroke="white" stroke-width="1.5" d="M0,-3.0v7 M-2.5,-0.5L0,-3.0L2.5,-0.5"/>
                </g>
                <g id="arrowRight" xlink:href="#dirArrow" transform="rotate(90) translate(36 -43)" onmousedown="handlePan(1,0)">
                  <use xlink:href="#rim" fill="#404040">
                        <set attributeName="fill" to="#808080" begin="arrowRight.mouseover" end="arrowRight.mouseout"/>
                  </use>
                  <path fill="none" stroke="white" stroke-width="1.5" d="M0,-3.0v7 M-2.5,-0.5L0,-3.0L2.5,-0.5"/>
                </g>
                <g id="arrowDown" xlink:href="#dirArrow" transform="rotate(180) translate(-30 -48)" onmousedown="handlePan(0,1)">
                  <use xlink:href="#rim" fill="#404040">
                        <set attributeName="fill" to="#808080" begin="arrowDown.mouseover" end="arrowDown.mouseout"/>
                  </use>
                  <path fill="none" stroke="white" stroke-width="1.5" d="M0,-3.0v7 M-2.5,-0.5L0,-3.0L2.5,-0.5"/>
                </g>
                <g id="arrowLeft" xlink:href="#dirArrow" transform="rotate(270) translate(-36 17)" onmousedown="handlePan(-1,0)">
                  <use xlink:href="#rim" fill="#404040">
                        <set attributeName="fill" to="#808080" begin="arrowLeft.mouseover" end="arrowLeft.mouseout"/>
                  </use>
                  <path fill="none" stroke="white" stroke-width="1.5" d="M0,-3.0v7 M-2.5,-0.5L0,-3.0L2.5,-0.5"/>
                </g>
        </g>
        <svg viewBox="0 0 15 15" width="100%" height="30px" preserveAspectRatio="xMaxYMin meet">
         <g id="arrow_out" transform="scale(0.3 0.3)">
          <a xlink:href="quickjs_8c_a041f16b68daf31525cd76aa4794073ef_icgraph_org.svg" target="_base">
           <rect id="button" ry="5" rx="5" y="6" x="6" height="38" width="38"
                fill="#f2f5e9" fill-opacity="0.5" stroke="#606060" stroke-width="1.0"/>
           <path id="arrow"
             d="M 11.500037,31.436501 C 11.940474,20.09759 22.043105,11.32322 32.158766,21.979434 L 37.068811,17.246167 C 37.068811,17.246167 37.088388,32 37.088388,32 L 22.160133,31.978069 C 22.160133,31.978069 26.997745,27.140456 26.997745,27.140456 C 18.528582,18.264221 13.291696,25.230495 11.500037,31.436501 z"
             style="fill:#404040;"/>
          </a>
         </g>
        </svg>
</svg>
