<?xml version="1.0" encoding="UTF-8" standalone="no"?>
<!DOCTYPE svg PUBLIC "-//W3C//DTD SVG 1.1//EN"
 "http://www.w3.org/Graphics/SVG/1.1/DTD/svg11.dtd">
<!-- Generated by graphviz version 2.40.1 (20161225.0304)
 -->
<!-- Title: js_instantiate_module Pages: 1 -->
<!--zoomable 85 -->
<svg id="main" version="1.1" xmlns="http://www.w3.org/2000/svg" xmlns:xlink="http://www.w3.org/1999/xlink" xml:space="preserve" onload="init(evt)">
<style type="text/css"><![CDATA[
.edge:hover path { stroke: red; }
.edge:hover polygon { stroke: red; fill: red; }
]]></style>
<script type="text/javascript"><![CDATA[
var edges = document.getElementsByTagName('g');
if (edges && edges.length) {
  for (var i=0;i<edges.length;i++) {
    if (edges[i].id.substr(0,4)=='edge') {
      edges[i].setAttribute('class','edge');
    }
  }
}
]]></script>
        <defs>
                <circle id="rim" cx="0" cy="0" r="7"/>
                <circle id="rim2" cx="0" cy="0" r="3.5"/>
                <g id="zoomPlus">
                        <use xlink:href="#rim" fill="#404040">
                                <set attributeName="fill" to="#808080" begin="zoomplus.mouseover" end="zoomplus.mouseout"/>
                        </use>
                        <path d="M-4,0h8M0,-4v8" fill="none" stroke="white" stroke-width="1.5" pointer-events="none"/>
                </g>
                <g id="zoomMin">
                        <use xlink:href="#rim" fill="#404040">
                                <set attributeName="fill" to="#808080" begin="zoomminus.mouseover" end="zoomminus.mouseout"/>
                        </use>
                        <path d="M-4,0h8" fill="none" stroke="white" stroke-width="1.5" pointer-events="none"/>
                </g>
                <g id="dirArrow">
                        <path fill="none" stroke="white" stroke-width="1.5" d="M0,-3.0v7 M-2.5,-0.5L0,-3.0L2.5,-0.5"/>
                </g>
               <g id="resetDef">
                       <use xlink:href="#rim2" fill="#404040">
                               <set attributeName="fill" to="#808080" begin="reset.mouseover" end="reset.mouseout"/>
                       </use>
               </g>
        </defs>

<script type="text/javascript">
var viewWidth = 544;
var viewHeight = 85;
var sectionId = 'dynsection-1141';
</script>
<script xlink:href="svgpan.js"/>
<svg id="graph" class="graph">
<g id="viewport">
<title>js_instantiate_module</title>
<!-- Node342175 -->
<g id="node1" class="node">
<title>Node342175</title>
<polygon fill="#bfbfbf" stroke="#000000" points="0,-19.5 0,-38.5 111,-38.5 111,-19.5 0,-19.5"/>
<text text-anchor="middle" x="55.5" y="-26.5" font-family="Helvetica,sans-Serif" font-size="10.00" fill="#000000">js_instantiate_module</text>
</g>
<!-- Node342175&#45;&gt;Node342175 -->
<g id="edge6" class="edge">
<title>Node342175&#45;&gt;Node342175</title>
<path fill="none" stroke="#191970" d="M27.1275,-47.6539C28.3135,-52.9368 37.771,-57 55.5,-57 82.5156,-57 90.3248,-47.5653 78.9276,-38.7571"/>
<polygon fill="#191970" stroke="#191970" points="30.2735,-49.1981 32.0724,-38.7571 24.1551,-45.7974 30.2735,-49.1981"/>
</g>
<!-- Node342176 -->
<g id="node2" class="node">
<title>Node342176</title>
<g id="a_node2"><a xlink:href="quickjs_8c.html#a5d217acce00892ab2b50a1dcc1eb4cc8" target="_top" xlink:title="JS_EvalFunctionInternal">
<polygon fill="none" stroke="#000000" points="147,-19.5 147,-38.5 270,-38.5 270,-19.5 147,-19.5"/>
<text text-anchor="middle" x="208.5" y="-26.5" font-family="Helvetica,sans-Serif" font-size="10.00" fill="#000000">JS_EvalFunctionInternal</text>
</a>
</g>
</g>
<!-- Node342175&#45;&gt;Node342176 -->
<g id="edge1" class="edge">
<title>Node342175&#45;&gt;Node342176</title>
<path fill="none" stroke="#191970" d="M121.3915,-29C129.8673,-29 138.5204,-29 146.9235,-29"/>
<polygon fill="#191970" stroke="#191970" points="121.1694,-25.5001 111.1693,-29 121.1693,-32.5001 121.1694,-25.5001"/>
</g>
<!-- Node342177 -->
<g id="node3" class="node">
<title>Node342177</title>
<g id="a_node3"><a xlink:href="quickjs_8c.html#af38ab3d672d41db0fa7a75b5c24149e4" target="_top" xlink:title="JS_EvalFunction">
<polygon fill="none" stroke="#000000" points="308.5,-38.5 308.5,-57.5 399.5,-57.5 399.5,-38.5 308.5,-38.5"/>
<text text-anchor="middle" x="354" y="-45.5" font-family="Helvetica,sans-Serif" font-size="10.00" fill="#000000">JS_EvalFunction</text>
</a>
</g>
</g>
<!-- Node342176&#45;&gt;Node342177 -->
<g id="edge2" class="edge">
<title>Node342176&#45;&gt;Node342177</title>
<path fill="none" stroke="#191970" d="M280.3947,-38.3883C289.8196,-39.6191 299.2636,-40.8523 308.094,-42.0054"/>
<polygon fill="#191970" stroke="#191970" points="280.5741,-34.8821 270.2051,-37.0577 279.6677,-41.8232 280.5741,-34.8821"/>
</g>
<!-- Node342358 -->
<g id="node6" class="node">
<title>Node342358</title>
<g id="a_node6"><a xlink:href="quickjs_8c.html#a46a8a7e155cfd0af984f6725f060f0d6" target="_top" xlink:title="__JS_EvalInternal">
<polygon fill="none" stroke="#ff0000" points="306,-.5 306,-19.5 402,-19.5 402,-.5 306,-.5"/>
<text text-anchor="middle" x="354" y="-7.5" font-family="Helvetica,sans-Serif" font-size="10.00" fill="#000000">__JS_EvalInternal</text>
</a>
</g>
</g>
<!-- Node342176&#45;&gt;Node342358 -->
<g id="edge5" class="edge">
<title>Node342176&#45;&gt;Node342358</title>
<path fill="none" stroke="#191970" d="M280.336,-19.6194C288.9978,-18.4883 297.6769,-17.3549 305.8821,-16.2834"/>
<polygon fill="#191970" stroke="#191970" points="279.6677,-16.1768 270.2051,-20.9423 280.5741,-23.1179 279.6677,-16.1768"/>
</g>
<!-- Node342178 -->
<g id="node4" class="node">
<title>Node342178</title>
<g id="a_node4"><a xlink:href="quickjs-libc_8c.html#ab1b439d304c2125490b47ef262b5df67" target="_top" xlink:title="js_std_eval_binary">
<polygon fill="none" stroke="#000000" points="438,-57.5 438,-76.5 536,-76.5 536,-57.5 438,-57.5"/>
<text text-anchor="middle" x="487" y="-64.5" font-family="Helvetica,sans-Serif" font-size="10.00" fill="#000000">js_std_eval_binary</text>
</a>
</g>
</g>
<!-- Node342177&#45;&gt;Node342178 -->
<g id="edge3" class="edge">
<title>Node342177&#45;&gt;Node342178</title>
<path fill="none" stroke="#191970" d="M409.778,-55.9683C419.1389,-57.3056 428.791,-58.6844 437.9657,-59.9951"/>
<polygon fill="#191970" stroke="#191970" points="410.1656,-52.4882 399.7711,-54.5387 409.1755,-59.4178 410.1656,-52.4882"/>
</g>
<!-- Node342179 -->
<g id="node5" class="node">
<title>Node342179</title>
<g id="a_node5"><a xlink:href="quickjs_8c.html#aa75a2b06808d8da661d4eb6698b17cab" target="_top" xlink:title="JS_RunModule">
<polygon fill="none" stroke="#ff0000" points="445.5,-19.5 445.5,-38.5 528.5,-38.5 528.5,-19.5 445.5,-19.5"/>
<text text-anchor="middle" x="487" y="-26.5" font-family="Helvetica,sans-Serif" font-size="10.00" fill="#000000">JS_RunModule</text>
</a>
</g>
</g>
<!-- Node342177&#45;&gt;Node342179 -->
<g id="edge4" class="edge">
<title>Node342177&#45;&gt;Node342179</title>
<path fill="none" stroke="#191970" d="M409.9748,-40.0036C421.7624,-38.3197 434.0027,-36.571 445.1632,-34.9767"/>
<polygon fill="#191970" stroke="#191970" points="409.1755,-36.5822 399.7711,-41.4613 410.1656,-43.5118 409.1755,-36.5822"/>
</g>
</g>
</svg>
        <g id="navigator" transform="translate(0 0)" fill="#404254">
                <rect fill="#f2f5e9" fill-opacity="0.5" stroke="#606060" stroke-width=".5" x="0" y="0" width="60" height="60"/>
                <use id="zoomplus" xlink:href="#zoomPlus" x="17" y="9" onmousedown="handleZoom(evt,'in')"/>
                <use id="zoomminus" xlink:href="#zoomMin" x="42" y="9" onmousedown="handleZoom(evt,'out')"/>
                <use id="reset" xlink:href="#resetDef" x="30" y="36" onmousedown="handleReset()"/>
                <g id="arrowUp" xlink:href="#dirArrow" transform="translate(30 24)" onmousedown="handlePan(0,-1)">
                  <use xlink:href="#rim" fill="#404040">
                        <set attributeName="fill" to="#808080" begin="arrowUp.mouseover" end="arrowUp.mouseout"/>
                  </use>
                  <path fill="none" stroke="white" stroke-width="1.5" d="M0,-3.0v7 M-2.5,-0.5L0,-3.0L2.5,-0.5"/>
                </g>
                <g id="arrowRight" xlink:href="#dirArrow" transform="rotate(90) translate(36 -43)" onmousedown="handlePan(1,0)">
                  <use xlink:href="#rim" fill="#404040">
                        <set attributeName="fill" to="#808080" begin="arrowRight.mouseover" end="arrowRight.mouseout"/>
                  </use>
                  <path fill="none" stroke="white" stroke-width="1.5" d="M0,-3.0v7 M-2.5,-0.5L0,-3.0L2.5,-0.5"/>
                </g>
                <g id="arrowDown" xlink:href="#dirArrow" transform="rotate(180) translate(-30 -48)" onmousedown="handlePan(0,1)">
                  <use xlink:href="#rim" fill="#404040">
                        <set attributeName="fill" to="#808080" begin="arrowDown.mouseover" end="arrowDown.mouseout"/>
                  </use>
                  <path fill="none" stroke="white" stroke-width="1.5" d="M0,-3.0v7 M-2.5,-0.5L0,-3.0L2.5,-0.5"/>
                </g>
                <g id="arrowLeft" xlink:href="#dirArrow" transform="rotate(270) translate(-36 17)" onmousedown="handlePan(-1,0)">
                  <use xlink:href="#rim" fill="#404040">
                        <set attributeName="fill" to="#808080" begin="arrowLeft.mouseover" end="arrowLeft.mouseout"/>
                  </use>
                  <path fill="none" stroke="white" stroke-width="1.5" d="M0,-3.0v7 M-2.5,-0.5L0,-3.0L2.5,-0.5"/>
                </g>
        </g>
        <svg viewBox="0 0 15 15" width="100%" height="30px" preserveAspectRatio="xMaxYMin meet">
         <g id="arrow_out" transform="scale(0.3 0.3)">
          <a xlink:href="quickjs_8c_a89e4f0ec49cdd0029ab50c0509ccc445_icgraph_org.svg" target="_base">
           <rect id="button" ry="5" rx="5" y="6" x="6" height="38" width="38"
                fill="#f2f5e9" fill-opacity="0.5" stroke="#606060" stroke-width="1.0"/>
           <path id="arrow"
             d="M 11.500037,31.436501 C 11.940474,20.09759 22.043105,11.32322 32.158766,21.979434 L 37.068811,17.246167 C 37.068811,17.246167 37.088388,32 37.088388,32 L 22.160133,31.978069 C 22.160133,31.978069 26.997745,27.140456 26.997745,27.140456 C 18.528582,18.264221 13.291696,25.230495 11.500037,31.436501 z"
             style="fill:#404040;"/>
          </a>
         </g>
        </svg>
</svg>
