<?xml version="1.0" encoding="UTF-8" standalone="no"?>
<!DOCTYPE svg PUBLIC "-//W3C//DTD SVG 1.1//EN"
 "http://www.w3.org/Graphics/SVG/1.1/DTD/svg11.dtd">
<!-- Generated by graphviz version 2.40.1 (20161225.0304)
 -->
<!-- Title: js_host_resolve_imported_module_atom Pages: 1 -->
<svg width="554pt" height="66pt"
 viewBox="0.00 0.00 554.00 66.00" xmlns="http://www.w3.org/2000/svg" xmlns:xlink="http://www.w3.org/1999/xlink">
<g id="graph0" class="graph" transform="scale(1 1) rotate(0) translate(4 62)">
<title>js_host_resolve_imported_module_atom</title>
<!-- Node331107 -->
<g id="node1" class="node">
<title>Node331107</title>
<polygon fill="#bfbfbf" stroke="#000000" points="0,-14 0,-44 128,-44 128,-14 0,-14"/>
<text text-anchor="start" x="8" y="-32" font-family="Helvetica,sans-Serif" font-size="10.00" fill="#000000">js_host_resolve_imported</text>
<text text-anchor="middle" x="64" y="-21" font-family="Helvetica,sans-Serif" font-size="10.00" fill="#000000">_module_atom</text>
</g>
<!-- Node331108 -->
<g id="node2" class="node">
<title>Node331108</title>
<g id="a_node2"><a xlink:href="quickjs_8c.html#a041f16b68daf31525cd76aa4794073ef" target="_top" xlink:title="js_resolve_module">
<polygon fill="none" stroke="#000000" points="164,-19.5 164,-38.5 262,-38.5 262,-19.5 164,-19.5"/>
<text text-anchor="middle" x="213" y="-26.5" font-family="Helvetica,sans-Serif" font-size="10.00" fill="#000000">js_resolve_module</text>
</a>
</g>
</g>
<!-- Node331107&#45;&gt;Node331108 -->
<g id="edge1" class="edge">
<title>Node331107&#45;&gt;Node331108</title>
<path fill="none" stroke="#191970" d="M138.2289,-29C146.9224,-29 155.6207,-29 163.8505,-29"/>
<polygon fill="#191970" stroke="#191970" points="138.0542,-25.5001 128.0541,-29 138.0541,-32.5001 138.0542,-25.5001"/>
</g>
<!-- Node331108&#45;&gt;Node331108 -->
<g id="edge2" class="edge">
<title>Node331108&#45;&gt;Node331108</title>
<path fill="none" stroke="#191970" d="M188.4465,-48.0292C189.7858,-53.128 197.9703,-57 213,-57 236.4609,-57 243.2426,-47.5653 233.345,-38.7571"/>
<polygon fill="#191970" stroke="#191970" points="191.709,-49.3096 192.655,-38.7571 185.3348,-46.4164 191.709,-49.3096"/>
</g>
<!-- Node331109 -->
<g id="node3" class="node">
<title>Node331109</title>
<g id="a_node3"><a xlink:href="quickjs_8c.html#aa75a2b06808d8da661d4eb6698b17cab" target="_top" xlink:title="JS_RunModule">
<polygon fill="none" stroke="#000000" points="304.5,-38.5 304.5,-57.5 387.5,-57.5 387.5,-38.5 304.5,-38.5"/>
<text text-anchor="middle" x="346" y="-45.5" font-family="Helvetica,sans-Serif" font-size="10.00" fill="#000000">JS_RunModule</text>
</a>
</g>
</g>
<!-- Node331108&#45;&gt;Node331109 -->
<g id="edge3" class="edge">
<title>Node331108&#45;&gt;Node331109</title>
<path fill="none" stroke="#191970" d="M272.073,-37.439C283.0025,-39.0004 294.203,-40.6004 304.4736,-42.0677"/>
<polygon fill="#191970" stroke="#191970" points="272.5409,-33.9704 262.1464,-36.0209 271.5509,-40.9 272.5409,-33.9704"/>
</g>
<!-- Node331289 -->
<g id="node5" class="node">
<title>Node331289</title>
<g id="a_node5"><a xlink:href="quickjs_8c.html#a46a8a7e155cfd0af984f6725f060f0d6" target="_top" xlink:title="__JS_EvalInternal">
<polygon fill="none" stroke="#ff0000" points="298,-.5 298,-19.5 394,-19.5 394,-.5 298,-.5"/>
<text text-anchor="middle" x="346" y="-7.5" font-family="Helvetica,sans-Serif" font-size="10.00" fill="#000000">__JS_EvalInternal</text>
</a>
</g>
</g>
<!-- Node331108&#45;&gt;Node331289 -->
<g id="edge5" class="edge">
<title>Node331108&#45;&gt;Node331289</title>
<path fill="none" stroke="#191970" d="M272.1585,-20.5488C280.7826,-19.3168 289.5735,-18.0609 297.9414,-16.8655"/>
<polygon fill="#191970" stroke="#191970" points="271.5509,-17.1 262.1464,-21.9791 272.5409,-24.0296 271.5509,-17.1"/>
</g>
<!-- Node331110 -->
<g id="node4" class="node">
<title>Node331110</title>
<g id="a_node4"><a xlink:href="quickjs_8c.html#a6357b7fdae71c70c140e78e6c20cb5c2" target="_top" xlink:title="js_dynamic_import_job">
<polygon fill="none" stroke="#ff0000" points="430,-38.5 430,-57.5 546,-57.5 546,-38.5 430,-38.5"/>
<text text-anchor="middle" x="488" y="-45.5" font-family="Helvetica,sans-Serif" font-size="10.00" fill="#000000">js_dynamic_import_job</text>
</a>
</g>
</g>
<!-- Node331109&#45;&gt;Node331110 -->
<g id="edge4" class="edge">
<title>Node331109&#45;&gt;Node331110</title>
<path fill="none" stroke="#191970" d="M397.9828,-48C408.3602,-48 419.3228,-48 429.8911,-48"/>
<polygon fill="#191970" stroke="#191970" points="397.8367,-44.5001 387.8367,-48 397.8366,-51.5001 397.8367,-44.5001"/>
</g>
</g>
</svg>
