<?xml version="1.0" encoding="UTF-8" standalone="no"?>
<!DOCTYPE svg PUBLIC "-//W3C//DTD SVG 1.1//EN"
 "http://www.w3.org/Graphics/SVG/1.1/DTD/svg11.dtd">
<!-- Generated by graphviz version 2.40.1 (20161225.0304)
 -->
<!-- Title: JS_AddIntrinsicStringNormalize Pages: 1 -->
<svg width="580pt" height="28pt"
 viewBox="0.00 0.00 580.00 28.00" xmlns="http://www.w3.org/2000/svg" xmlns:xlink="http://www.w3.org/1999/xlink">
<g id="graph0" class="graph" transform="scale(1 1) rotate(0) translate(4 24)">
<title>JS_AddIntrinsicStringNormalize</title>
<!-- Node420946 -->
<g id="node1" class="node">
<title>Node420946</title>
<polygon fill="#bfbfbf" stroke="#000000" points="0,-.5 0,-19.5 155,-19.5 155,-.5 0,-.5"/>
<text text-anchor="middle" x="77.5" y="-7.5" font-family="Helvetica,sans-Serif" font-size="10.00" fill="#000000">JS_AddIntrinsicStringNormalize</text>
</g>
<!-- Node420947 -->
<g id="node2" class="node">
<title>Node420947</title>
<g id="a_node2"><a xlink:href="quickjs_8c.html#ad8aedb643b8753b7a15f6cb2df61945e" target="_top" xlink:title="JS_NewContext">
<polygon fill="none" stroke="#000000" points="191,-.5 191,-19.5 280,-19.5 280,-.5 191,-.5"/>
<text text-anchor="middle" x="235.5" y="-7.5" font-family="Helvetica,sans-Serif" font-size="10.00" fill="#000000">JS_NewContext</text>
</a>
</g>
</g>
<!-- Node420946&#45;&gt;Node420947 -->
<g id="edge1" class="edge">
<title>Node420946&#45;&gt;Node420947</title>
<path fill="none" stroke="#191970" d="M165.3683,-10C174.0708,-10 182.6278,-10 190.6099,-10"/>
<polygon fill="#191970" stroke="#191970" points="165.1114,-6.5001 155.1114,-10 165.1114,-13.5001 165.1114,-6.5001"/>
</g>
<!-- Node420948 -->
<g id="node3" class="node">
<title>Node420948</title>
<g id="a_node3"><a xlink:href="classqjs_1_1Context.html#a4392a23648acfc4bf6b445336efb5007" target="_top" xlink:title="qjs::Context::Context">
<polygon fill="none" stroke="#000000" points="316,-.5 316,-19.5 426,-19.5 426,-.5 316,-.5"/>
<text text-anchor="middle" x="371" y="-7.5" font-family="Helvetica,sans-Serif" font-size="10.00" fill="#000000">qjs::Context::Context</text>
</a>
</g>
</g>
<!-- Node420947&#45;&gt;Node420948 -->
<g id="edge2" class="edge">
<title>Node420947&#45;&gt;Node420948</title>
<path fill="none" stroke="#191970" d="M290.3476,-10C298.7739,-10 307.4767,-10 315.9083,-10"/>
<polygon fill="#191970" stroke="#191970" points="290.2433,-6.5001 280.2433,-10 290.2433,-13.5001 290.2433,-6.5001"/>
</g>
<!-- Node420949 -->
<g id="node4" class="node">
<title>Node420949</title>
<g id="a_node4"><a xlink:href="classqjs_1_1Context.html#af725fb8083d8c33a37198d6acaf1a836" target="_top" xlink:title="qjs::Context::Context">
<polygon fill="none" stroke="#ff0000" points="462,-.5 462,-19.5 572,-19.5 572,-.5 462,-.5"/>
<text text-anchor="middle" x="517" y="-7.5" font-family="Helvetica,sans-Serif" font-size="10.00" fill="#000000">qjs::Context::Context</text>
</a>
</g>
</g>
<!-- Node420948&#45;&gt;Node420949 -->
<g id="edge3" class="edge">
<title>Node420948&#45;&gt;Node420949</title>
<path fill="none" stroke="#191970" d="M436.4101,-10C444.8647,-10 453.4567,-10 461.7256,-10"/>
<polygon fill="#191970" stroke="#191970" points="436.1964,-6.5001 426.1963,-10 436.1963,-13.5001 436.1964,-6.5001"/>
</g>
</g>
</svg>
