<?xml version="1.0" encoding="UTF-8" standalone="no"?>
<!DOCTYPE svg PUBLIC "-//W3C//DTD SVG 1.1//EN"
 "http://www.w3.org/Graphics/SVG/1.1/DTD/svg11.dtd">
<!-- Generated by graphviz version 2.40.1 (20161225.0304)
 -->
<!-- Title: seal_template_obj Pages: 1 -->
<!--zoomable 155 -->
<svg id="main" version="1.1" xmlns="http://www.w3.org/2000/svg" xmlns:xlink="http://www.w3.org/1999/xlink" xml:space="preserve" onload="init(evt)">
<style type="text/css"><![CDATA[
.edge:hover path { stroke: red; }
.edge:hover polygon { stroke: red; fill: red; }
]]></style>
<script type="text/javascript"><![CDATA[
var edges = document.getElementsByTagName('g');
if (edges && edges.length) {
  for (var i=0;i<edges.length;i++) {
    if (edges[i].id.substr(0,4)=='edge') {
      edges[i].setAttribute('class','edge');
    }
  }
}
]]></script>
        <defs>
                <circle id="rim" cx="0" cy="0" r="7"/>
                <circle id="rim2" cx="0" cy="0" r="3.5"/>
                <g id="zoomPlus">
                        <use xlink:href="#rim" fill="#404040">
                                <set attributeName="fill" to="#808080" begin="zoomplus.mouseover" end="zoomplus.mouseout"/>
                        </use>
                        <path d="M-4,0h8M0,-4v8" fill="none" stroke="white" stroke-width="1.5" pointer-events="none"/>
                </g>
                <g id="zoomMin">
                        <use xlink:href="#rim" fill="#404040">
                                <set attributeName="fill" to="#808080" begin="zoomminus.mouseover" end="zoomminus.mouseout"/>
                        </use>
                        <path d="M-4,0h8" fill="none" stroke="white" stroke-width="1.5" pointer-events="none"/>
                </g>
                <g id="dirArrow">
                        <path fill="none" stroke="white" stroke-width="1.5" d="M0,-3.0v7 M-2.5,-0.5L0,-3.0L2.5,-0.5"/>
                </g>
               <g id="resetDef">
                       <use xlink:href="#rim2" fill="#404040">
                               <set attributeName="fill" to="#808080" begin="reset.mouseover" end="reset.mouseout"/>
                       </use>
               </g>
        </defs>

<script type="text/javascript">
var viewWidth = 675;
var viewHeight = 155;
var sectionId = 'dynsection-1003';
</script>
<script xlink:href="svgpan.js"/>
<svg id="graph" class="graph">
<g id="viewport">
<title>seal_template_obj</title>
<!-- Node313591 -->
<g id="node1" class="node">
<title>Node313591</title>
<polygon fill="#bfbfbf" stroke="#000000" points="0,-95.5 0,-114.5 95,-114.5 95,-95.5 0,-95.5"/>
<text text-anchor="middle" x="47.5" y="-102.5" font-family="Helvetica,sans-Serif" font-size="10.00" fill="#000000">seal_template_obj</text>
</g>
<!-- Node313592 -->
<g id="node2" class="node">
<title>Node313592</title>
<g id="a_node2"><a xlink:href="quickjs_8c.html#afdc6d90129958f6258bae1505495869f" target="_top" xlink:title="find_own_property1">
<polygon fill="none" stroke="#000000" points="131,-117.5 131,-136.5 232,-136.5 232,-117.5 131,-117.5"/>
<text text-anchor="middle" x="181.5" y="-124.5" font-family="Helvetica,sans-Serif" font-size="10.00" fill="#000000">find_own_property1</text>
</a>
</g>
</g>
<!-- Node313591&#45;&gt;Node313592 -->
<g id="edge1" class="edge">
<title>Node313591&#45;&gt;Node313592</title>
<path fill="none" stroke="#191970" d="M95.1207,-112.8183C103.4472,-114.1854 112.2106,-115.6241 120.8329,-117.0397"/>
<polygon fill="#191970" stroke="#191970" points="120.4203,-120.5188 130.8553,-118.6852 121.5544,-113.6112 120.4203,-120.5188"/>
</g>
<!-- Node313595 -->
<g id="node5" class="node">
<title>Node313595</title>
<g id="a_node5"><a xlink:href="quickjs_8c.html#a6d48937f79966a773376cc24834c663f" target="_top" xlink:title="js_update_property\l_flags">
<polygon fill="none" stroke="#000000" points="132,-68 132,-98 231,-98 231,-68 132,-68"/>
<text text-anchor="start" x="140" y="-86" font-family="Helvetica,sans-Serif" font-size="10.00" fill="#000000">js_update_property</text>
<text text-anchor="middle" x="181.5" y="-75" font-family="Helvetica,sans-Serif" font-size="10.00" fill="#000000">_flags</text>
</a>
</g>
</g>
<!-- Node313591&#45;&gt;Node313595 -->
<g id="edge4" class="edge">
<title>Node313591&#45;&gt;Node313595</title>
<path fill="none" stroke="#191970" d="M95.1207,-97.1817C103.7563,-95.7639 112.8619,-94.2689 121.7926,-92.8027"/>
<polygon fill="#191970" stroke="#191970" points="122.4662,-96.2391 131.767,-91.1651 121.332,-89.3315 122.4662,-96.2391"/>
</g>
<!-- Node313593 -->
<g id="node3" class="node">
<title>Node313593</title>
<g id="a_node3"><a xlink:href="quickjs_8c.html#a643df594b75933007bcdbb071b5ea8c5" target="_top" xlink:title="get_shape_prop">
<polygon fill="none" stroke="#000000" points="581,-114.5 581,-133.5 667,-133.5 667,-114.5 581,-114.5"/>
<text text-anchor="middle" x="624" y="-121.5" font-family="Helvetica,sans-Serif" font-size="10.00" fill="#000000">get_shape_prop</text>
</a>
</g>
</g>
<!-- Node313592&#45;&gt;Node313593 -->
<g id="edge2" class="edge">
<title>Node313592&#45;&gt;Node313593</title>
<path fill="none" stroke="#191970" d="M224.4028,-136.5375C238.2444,-139.1835 253.7042,-141.689 268,-143 375.1378,-152.8254 500.9159,-140.5476 570.6239,-131.6532"/>
<polygon fill="#191970" stroke="#191970" points="571.4419,-135.0763 580.9058,-130.3137 570.5374,-128.135 571.4419,-135.0763"/>
</g>
<!-- Node313594 -->
<g id="node4" class="node">
<title>Node313594</title>
<g id="a_node4"><a xlink:href="quickjs_8c.html#acab22c2945c4d609e57a2484feb68a96" target="_top" xlink:title="prop_hash_end">
<polygon fill="none" stroke="#000000" points="290.5,-114.5 290.5,-133.5 373.5,-133.5 373.5,-114.5 290.5,-114.5"/>
<text text-anchor="middle" x="332" y="-121.5" font-family="Helvetica,sans-Serif" font-size="10.00" fill="#000000">prop_hash_end</text>
</a>
</g>
</g>
<!-- Node313592&#45;&gt;Node313594 -->
<g id="edge3" class="edge">
<title>Node313592&#45;&gt;Node313594</title>
<path fill="none" stroke="#191970" d="M232.033,-125.9927C247.5841,-125.6827 264.7195,-125.3411 280.3448,-125.0297"/>
<polygon fill="#191970" stroke="#191970" points="280.4348,-128.5287 290.363,-124.83 280.2952,-121.5301 280.4348,-128.5287"/>
</g>
<!-- Node313596 -->
<g id="node6" class="node">
<title>Node313596</title>
<g id="a_node6"><a xlink:href="quickjs_8c.html#a3dd8e78607dbc729614deacf55901b95" target="_top" xlink:title="js_shape_prepare_update">
<polygon fill="none" stroke="#000000" points="268,-73.5 268,-92.5 396,-92.5 396,-73.5 268,-73.5"/>
<text text-anchor="middle" x="332" y="-80.5" font-family="Helvetica,sans-Serif" font-size="10.00" fill="#000000">js_shape_prepare_update</text>
</a>
</g>
</g>
<!-- Node313595&#45;&gt;Node313596 -->
<g id="edge5" class="edge">
<title>Node313595&#45;&gt;Node313596</title>
<path fill="none" stroke="#191970" d="M231.1964,-83C239.7189,-83 248.7377,-83 257.7376,-83"/>
<polygon fill="#191970" stroke="#191970" points="257.8633,-86.5001 267.8633,-83 257.8632,-79.5001 257.8633,-86.5001"/>
</g>
<!-- Node313596&#45;&gt;Node313593 -->
<g id="edge6" class="edge">
<title>Node313596&#45;&gt;Node313593</title>
<path fill="none" stroke="#191970" d="M370.2625,-92.5275C388.8065,-96.8601 411.4595,-101.7359 432,-105 478.6139,-112.4075 532.0824,-117.4168 570.7373,-120.4238"/>
<polygon fill="#191970" stroke="#191970" points="570.4935,-123.9152 580.7297,-121.1822 571.0233,-116.9353 570.4935,-123.9152"/>
</g>
<!-- Node313597 -->
<g id="node7" class="node">
<title>Node313597</title>
<g id="a_node7"><a xlink:href="quickjs_8c.html#a8e34657169da77ae6a386311351ed3de" target="_top" xlink:title="js_clone_shape">
<polygon fill="none" stroke="#ff0000" points="446.5,-76.5 446.5,-95.5 530.5,-95.5 530.5,-76.5 446.5,-76.5"/>
<text text-anchor="middle" x="488.5" y="-83.5" font-family="Helvetica,sans-Serif" font-size="10.00" fill="#000000">js_clone_shape</text>
</a>
</g>
</g>
<!-- Node313596&#45;&gt;Node313597 -->
<g id="edge7" class="edge">
<title>Node313596&#45;&gt;Node313597</title>
<path fill="none" stroke="#191970" d="M396.1061,-84.2289C409.4276,-84.4842 423.3148,-84.7504 436.1533,-84.9965"/>
<polygon fill="#191970" stroke="#191970" points="436.1287,-88.4966 446.194,-85.189 436.2629,-81.4979 436.1287,-88.4966"/>
</g>
<!-- Node313611 -->
<g id="node8" class="node">
<title>Node313611</title>
<g id="a_node8"><a xlink:href="quickjs_8c.html#a3a9f27520d96cf58aa5bd7359e9cddee" target="_top" xlink:title="js_free_shape">
<polygon fill="none" stroke="#ff0000" points="450,-38.5 450,-57.5 527,-57.5 527,-38.5 450,-38.5"/>
<text text-anchor="middle" x="488.5" y="-45.5" font-family="Helvetica,sans-Serif" font-size="10.00" fill="#000000">js_free_shape</text>
</a>
</g>
</g>
<!-- Node313596&#45;&gt;Node313611 -->
<g id="edge9" class="edge">
<title>Node313596&#45;&gt;Node313611</title>
<path fill="none" stroke="#191970" d="M374.7643,-73.4361C394.908,-68.9311 419.032,-63.536 439.8689,-58.876"/>
<polygon fill="#191970" stroke="#191970" points="440.807,-62.2527 449.802,-56.6545 439.2792,-55.4215 440.807,-62.2527"/>
</g>
<!-- Node313641 -->
<g id="node9" class="node">
<title>Node313641</title>
<g id="a_node9"><a xlink:href="quickjs_8c.html#ae5e76f4be6214208cc91f10a192fc810" target="_top" xlink:title="js_shape_hash_unlink">
<polygon fill="none" stroke="#ff0000" points="432,-.5 432,-19.5 545,-19.5 545,-.5 432,-.5"/>
<text text-anchor="middle" x="488.5" y="-7.5" font-family="Helvetica,sans-Serif" font-size="10.00" fill="#000000">js_shape_hash_unlink</text>
</a>
</g>
</g>
<!-- Node313596&#45;&gt;Node313641 -->
<g id="edge10" class="edge">
<title>Node313596&#45;&gt;Node313641</title>
<path fill="none" stroke="#191970" d="M347.8579,-73.3364C367.2317,-61.7912 401.2347,-42.3631 432,-29 436.9833,-26.8355 442.2989,-24.7596 447.601,-22.8272"/>
<polygon fill="#191970" stroke="#191970" points="448.7746,-26.1247 457.0552,-19.5154 446.4604,-19.5183 448.7746,-26.1247"/>
</g>
<!-- Node313597&#45;&gt;Node313593 -->
<g id="edge8" class="edge">
<title>Node313597&#45;&gt;Node313593</title>
<path fill="none" stroke="#191970" d="M522.6924,-95.589C540.1039,-100.4719 561.4715,-106.4643 580.0871,-111.685"/>
<polygon fill="#191970" stroke="#191970" points="579.2449,-115.0837 589.8186,-114.4141 581.1351,-108.3438 579.2449,-115.0837"/>
</g>
</g>
</svg>
        <g id="navigator" transform="translate(0 0)" fill="#404254">
                <rect fill="#f2f5e9" fill-opacity="0.5" stroke="#606060" stroke-width=".5" x="0" y="0" width="60" height="60"/>
                <use id="zoomplus" xlink:href="#zoomPlus" x="17" y="9" onmousedown="handleZoom(evt,'in')"/>
                <use id="zoomminus" xlink:href="#zoomMin" x="42" y="9" onmousedown="handleZoom(evt,'out')"/>
                <use id="reset" xlink:href="#resetDef" x="30" y="36" onmousedown="handleReset()"/>
                <g id="arrowUp" xlink:href="#dirArrow" transform="translate(30 24)" onmousedown="handlePan(0,-1)">
                  <use xlink:href="#rim" fill="#404040">
                        <set attributeName="fill" to="#808080" begin="arrowUp.mouseover" end="arrowUp.mouseout"/>
                  </use>
                  <path fill="none" stroke="white" stroke-width="1.5" d="M0,-3.0v7 M-2.5,-0.5L0,-3.0L2.5,-0.5"/>
                </g>
                <g id="arrowRight" xlink:href="#dirArrow" transform="rotate(90) translate(36 -43)" onmousedown="handlePan(1,0)">
                  <use xlink:href="#rim" fill="#404040">
                        <set attributeName="fill" to="#808080" begin="arrowRight.mouseover" end="arrowRight.mouseout"/>
                  </use>
                  <path fill="none" stroke="white" stroke-width="1.5" d="M0,-3.0v7 M-2.5,-0.5L0,-3.0L2.5,-0.5"/>
                </g>
                <g id="arrowDown" xlink:href="#dirArrow" transform="rotate(180) translate(-30 -48)" onmousedown="handlePan(0,1)">
                  <use xlink:href="#rim" fill="#404040">
                        <set attributeName="fill" to="#808080" begin="arrowDown.mouseover" end="arrowDown.mouseout"/>
                  </use>
                  <path fill="none" stroke="white" stroke-width="1.5" d="M0,-3.0v7 M-2.5,-0.5L0,-3.0L2.5,-0.5"/>
                </g>
                <g id="arrowLeft" xlink:href="#dirArrow" transform="rotate(270) translate(-36 17)" onmousedown="handlePan(-1,0)">
                  <use xlink:href="#rim" fill="#404040">
                        <set attributeName="fill" to="#808080" begin="arrowLeft.mouseover" end="arrowLeft.mouseout"/>
                  </use>
                  <path fill="none" stroke="white" stroke-width="1.5" d="M0,-3.0v7 M-2.5,-0.5L0,-3.0L2.5,-0.5"/>
                </g>
        </g>
        <svg viewBox="0 0 15 15" width="100%" height="30px" preserveAspectRatio="xMaxYMin meet">
         <g id="arrow_out" transform="scale(0.3 0.3)">
          <a xlink:href="quickjs_8c_a0f23e03f0a367d4b5559a14efbb1f4ee_cgraph_org.svg" target="_base">
           <rect id="button" ry="5" rx="5" y="6" x="6" height="38" width="38"
                fill="#f2f5e9" fill-opacity="0.5" stroke="#606060" stroke-width="1.0"/>
           <path id="arrow"
             d="M 11.500037,31.436501 C 11.940474,20.09759 22.043105,11.32322 32.158766,21.979434 L 37.068811,17.246167 C 37.068811,17.246167 37.088388,32 37.088388,32 L 22.160133,31.978069 C 22.160133,31.978069 26.997745,27.140456 26.997745,27.140456 C 18.528582,18.264221 13.291696,25.230495 11.500037,31.436501 z"
             style="fill:#404040;"/>
          </a>
         </g>
        </svg>
</svg>
