<?xml version="1.0" encoding="UTF-8" standalone="no"?>
<!DOCTYPE svg PUBLIC "-//W3C//DTD SVG 1.1//EN"
 "http://www.w3.org/Graphics/SVG/1.1/DTD/svg11.dtd">
<!-- Generated by graphviz version 2.40.1 (20161225.0304)
 -->
<!-- Title: __JS_FindAtom Pages: 1 -->
<svg width="867pt" height="698pt"
 viewBox="0.00 0.00 867.00 698.00" xmlns="http://www.w3.org/2000/svg" xmlns:xlink="http://www.w3.org/1999/xlink">
<g id="graph0" class="graph" transform="scale(1 1) rotate(0) translate(4 694)">
<title>__JS_FindAtom</title>
<!-- Node81987 -->
<g id="node1" class="node">
<title>Node81987</title>
<polygon fill="#bfbfbf" stroke="#000000" points="0,-215.5 0,-234.5 86,-234.5 86,-215.5 0,-215.5"/>
<text text-anchor="middle" x="43" y="-222.5" font-family="Helvetica,sans-Serif" font-size="10.00" fill="#000000">__JS_FindAtom</text>
</g>
<!-- Node81988 -->
<g id="node2" class="node">
<title>Node81988</title>
<g id="a_node2"><a xlink:href="quickjs_8c.html#a522741f41afb1d0da0aa55968cd8579e" target="_top" xlink:title="JS_NewAtomLen">
<polygon fill="none" stroke="#000000" points="122,-512.5 122,-531.5 215,-531.5 215,-512.5 122,-512.5"/>
<text text-anchor="middle" x="168.5" y="-519.5" font-family="Helvetica,sans-Serif" font-size="10.00" fill="#000000">JS_NewAtomLen</text>
</a>
</g>
</g>
<!-- Node81987&#45;&gt;Node81988 -->
<g id="edge1" class="edge">
<title>Node81987&#45;&gt;Node81988</title>
<path fill="none" stroke="#191970" d="M50.9524,-243.8197C75.0246,-300.7874 146.5482,-470.0504 164.4185,-512.3409"/>
<polygon fill="#191970" stroke="#191970" points="54.1499,-242.3944 47.0335,-234.5453 47.7019,-245.1191 54.1499,-242.3944"/>
</g>
<!-- Node82624 -->
<g id="node25" class="node">
<title>Node82624</title>
<g id="a_node25"><a xlink:href="quickjs_8c.html#a9f0339d81c06451de278073572cc194e" target="_top" xlink:title="JS_NewClass">
<polygon fill="none" stroke="#000000" points="417.5,-38.5 417.5,-57.5 497.5,-57.5 497.5,-38.5 417.5,-38.5"/>
<text text-anchor="middle" x="457.5" y="-45.5" font-family="Helvetica,sans-Serif" font-size="10.00" fill="#000000">JS_NewClass</text>
</a>
</g>
</g>
<!-- Node81987&#45;&gt;Node82624 -->
<g id="edge25" class="edge">
<title>Node81987&#45;&gt;Node82624</title>
<path fill="none" stroke="#191970" d="M70.5161,-210.6193C128.2961,-180.8311 267.0049,-111.4583 389,-67 398.5082,-63.535 408.9533,-60.3403 418.7596,-57.5983"/>
<polygon fill="#191970" stroke="#191970" points="68.5918,-207.6742 61.3196,-215.3792 71.8094,-213.8908 68.5918,-207.6742"/>
</g>
<!-- Node81989 -->
<g id="node3" class="node">
<title>Node81989</title>
<g id="a_node3"><a xlink:href="quickjs_8c.html#aa2ef5af1544a3012f91a80c98c326b8f" target="_top" xlink:title="JS_NewAtom">
<polygon fill="none" stroke="#000000" points="263.5,-354.5 263.5,-373.5 340.5,-373.5 340.5,-354.5 263.5,-354.5"/>
<text text-anchor="middle" x="302" y="-361.5" font-family="Helvetica,sans-Serif" font-size="10.00" fill="#000000">JS_NewAtom</text>
</a>
</g>
</g>
<!-- Node81988&#45;&gt;Node81989 -->
<g id="edge2" class="edge">
<title>Node81988&#45;&gt;Node81989</title>
<path fill="none" stroke="#191970" d="M183.6075,-504.1199C211.8204,-470.7294 271.6476,-399.9226 293.6521,-373.8799"/>
<polygon fill="#191970" stroke="#191970" points="180.6316,-502.219 176.851,-512.1164 185.9785,-506.7368 180.6316,-502.219"/>
</g>
<!-- Node82395 -->
<g id="node20" class="node">
<title>Node82395</title>
<g id="a_node20"><a xlink:href="quickjs_8c.html#aadfd9c31a6f69160c12e99b8d5eb5b3c" target="_top" xlink:title="js_atom_concat_str">
<polygon fill="none" stroke="#ff0000" points="251,-588.5 251,-607.5 353,-607.5 353,-588.5 251,-588.5"/>
<text text-anchor="middle" x="302" y="-595.5" font-family="Helvetica,sans-Serif" font-size="10.00" fill="#000000">js_atom_concat_str</text>
</a>
</g>
</g>
<!-- Node81988&#45;&gt;Node82395 -->
<g id="edge20" class="edge">
<title>Node81988&#45;&gt;Node82395</title>
<path fill="none" stroke="#191970" d="M188.6331,-538.0271C204.8081,-550.3692 228.4671,-567.2517 251,-579 257.7864,-582.5383 265.384,-585.7397 272.6001,-588.4631"/>
<polygon fill="#191970" stroke="#191970" points="190.519,-535.0605 180.4715,-531.6989 186.2297,-540.5925 190.519,-535.0605"/>
</g>
<!-- Node82612 -->
<g id="node21" class="node">
<title>Node82612</title>
<g id="a_node21"><a xlink:href="quickjs_8c.html#ad91865d0889d1420e3e70d5d497a9bdb" target="_top" xlink:title="parse_ident">
<polygon fill="none" stroke="#000000" points="268.5,-550.5 268.5,-569.5 335.5,-569.5 335.5,-550.5 268.5,-550.5"/>
<text text-anchor="middle" x="302" y="-557.5" font-family="Helvetica,sans-Serif" font-size="10.00" fill="#000000">parse_ident</text>
</a>
</g>
</g>
<!-- Node81988&#45;&gt;Node82612 -->
<g id="edge21" class="edge">
<title>Node81988&#45;&gt;Node82612</title>
<path fill="none" stroke="#191970" d="M212.03,-534.3906C230.3122,-539.5945 251.2492,-545.5541 268.3231,-550.4141"/>
<polygon fill="#191970" stroke="#191970" points="212.7639,-530.9605 202.1877,-531.589 210.8474,-537.6931 212.7639,-530.9605"/>
</g>
<!-- Node82621 -->
<g id="node23" class="node">
<title>Node82621</title>
<g id="a_node23"><a xlink:href="quickjs_8c.html#adab89942b11c3b3cbf3ecb9e763b0ab6" target="_top" xlink:title="json_parse_ident">
<polygon fill="none" stroke="#000000" points="257,-512.5 257,-531.5 347,-531.5 347,-512.5 257,-512.5"/>
<text text-anchor="middle" x="302" y="-519.5" font-family="Helvetica,sans-Serif" font-size="10.00" fill="#000000">json_parse_ident</text>
</a>
</g>
</g>
<!-- Node81988&#45;&gt;Node82621 -->
<g id="edge23" class="edge">
<title>Node81988&#45;&gt;Node82621</title>
<path fill="none" stroke="#191970" d="M225.2029,-522C235.7923,-522 246.7269,-522 256.9077,-522"/>
<polygon fill="#191970" stroke="#191970" points="225.1919,-518.5001 215.1918,-522 225.1918,-525.5001 225.1919,-518.5001"/>
</g>
<!-- Node81990 -->
<g id="node4" class="node">
<title>Node81990</title>
<g id="a_node4"><a xlink:href="classqjs_1_1Value.html#ac6bbb5f2ab1ed265b2b508325807e2fb" target="_top" xlink:title="qjs::Value::add_getter\l_setter">
<polygon fill="none" stroke="#000000" points="401.5,-305 401.5,-335 513.5,-335 513.5,-305 401.5,-305"/>
<text text-anchor="start" x="409.5" y="-323" font-family="Helvetica,sans-Serif" font-size="10.00" fill="#000000">qjs::Value::add_getter</text>
<text text-anchor="middle" x="457.5" y="-312" font-family="Helvetica,sans-Serif" font-size="10.00" fill="#000000">_setter</text>
</a>
</g>
</g>
<!-- Node81989&#45;&gt;Node81990 -->
<g id="edge3" class="edge">
<title>Node81989&#45;&gt;Node81990</title>
<path fill="none" stroke="#191970" d="M345.5109,-351.6882C363.7384,-346.5306 385.1033,-340.4852 404.2576,-335.0654"/>
<polygon fill="#191970" stroke="#191970" points="344.4104,-348.3621 335.7412,-354.4527 346.3164,-355.0977 344.4104,-348.3621"/>
</g>
<!-- Node81991 -->
<g id="node5" class="node">
<title>Node81991</title>
<g id="a_node5"><a xlink:href="classqjs_1_1Value.html#a7816587475ecf667433f9ea681df925b" target="_top" xlink:title="qjs::Value::add_getter">
<polygon fill="none" stroke="#000000" points="401.5,-266.5 401.5,-285.5 513.5,-285.5 513.5,-266.5 401.5,-266.5"/>
<text text-anchor="middle" x="457.5" y="-273.5" font-family="Helvetica,sans-Serif" font-size="10.00" fill="#000000">qjs::Value::add_getter</text>
</a>
</g>
</g>
<!-- Node81989&#45;&gt;Node81991 -->
<g id="edge4" class="edge">
<title>Node81989&#45;&gt;Node81991</title>
<path fill="none" stroke="#191970" d="M318.7825,-347.2596C335.3231,-331.6422 361.9774,-308.7451 389,-295 396.4801,-291.1952 404.8195,-288.0712 413.034,-285.5347"/>
<polygon fill="#191970" stroke="#191970" points="316.2836,-344.8071 311.5178,-354.2695 321.1443,-349.8444 316.2836,-344.8071"/>
</g>
<!-- Node81992 -->
<g id="node6" class="node">
<title>Node81992</title>
<g id="a_node6"><a xlink:href="quickjs_8c.html#a27c3a725d4014a35b5bedcdf6e70dec7" target="_top" xlink:title="JS_NewAtomString">
<polygon fill="none" stroke="#ff0000" points="406,-228.5 406,-247.5 509,-247.5 509,-228.5 406,-228.5"/>
<text text-anchor="middle" x="457.5" y="-235.5" font-family="Helvetica,sans-Serif" font-size="10.00" fill="#000000">JS_NewAtomString</text>
</a>
</g>
</g>
<!-- Node81989&#45;&gt;Node81992 -->
<g id="edge5" class="edge">
<title>Node81989&#45;&gt;Node81992</title>
<path fill="none" stroke="#191970" d="M312.111,-345.4916C326.1886,-321.4705 353.9581,-279.9257 389,-257 394.8867,-253.1487 401.5479,-250.0705 408.3469,-247.6121"/>
<polygon fill="#191970" stroke="#191970" points="308.9873,-343.9045 307.0889,-354.3278 315.0731,-347.3634 308.9873,-343.9045"/>
</g>
<!-- Node81999 -->
<g id="node7" class="node">
<title>Node81999</title>
<g id="a_node7"><a xlink:href="quickjs_8c.html#a21cfe4c4fc9372dc0b95b37667cff0c9" target="_top" xlink:title="JS_NewCFunction3">
<polygon fill="none" stroke="#ff0000" points="405.5,-190.5 405.5,-209.5 509.5,-209.5 509.5,-190.5 405.5,-190.5"/>
<text text-anchor="middle" x="457.5" y="-197.5" font-family="Helvetica,sans-Serif" font-size="10.00" fill="#000000">JS_NewCFunction3</text>
</a>
</g>
</g>
<!-- Node81989&#45;&gt;Node81999 -->
<g id="edge6" class="edge">
<title>Node81989&#45;&gt;Node81999</title>
<path fill="none" stroke="#191970" d="M308.3601,-344.4013C319.5444,-313.0775 345.7403,-251.9185 389,-219 394.107,-215.1138 399.9656,-212.0224 406.0597,-209.5633"/>
<polygon fill="#191970" stroke="#191970" points="304.9533,-343.5468 305.0267,-354.1414 311.5762,-345.8134 304.9533,-343.5468"/>
</g>
<!-- Node82017 -->
<g id="node8" class="node">
<title>Node82017</title>
<g id="a_node8"><a xlink:href="quickjs_8c.html#a04f589361a4fbc30d997402e92a50de2" target="_top" xlink:title="JS_GetPropertyStr">
<polygon fill="none" stroke="#ff0000" points="408,-152.5 408,-171.5 507,-171.5 507,-152.5 408,-152.5"/>
<text text-anchor="middle" x="457.5" y="-159.5" font-family="Helvetica,sans-Serif" font-size="10.00" fill="#000000">JS_GetPropertyStr</text>
</a>
</g>
</g>
<!-- Node81989&#45;&gt;Node82017 -->
<g id="edge7" class="edge">
<title>Node81989&#45;&gt;Node82017</title>
<path fill="none" stroke="#191970" d="M305.7652,-344.1598C313.9594,-306.5358 337.0103,-224.6831 389,-181 394.4803,-176.3953 400.9935,-172.9018 407.7902,-170.2524"/>
<polygon fill="#191970" stroke="#191970" points="302.2609,-343.8262 303.6835,-354.3251 309.1186,-345.2306 302.2609,-343.8262"/>
</g>
<!-- Node82034 -->
<g id="node9" class="node">
<title>Node82034</title>
<g id="a_node9"><a xlink:href="quickjs_8c.html#a62617fe11025d2e5a545db069fc28e64" target="_top" xlink:title="JS_SetPropertyStr">
<polygon fill="none" stroke="#ff0000" points="408.5,-114.5 408.5,-133.5 506.5,-133.5 506.5,-114.5 408.5,-114.5"/>
<text text-anchor="middle" x="457.5" y="-121.5" font-family="Helvetica,sans-Serif" font-size="10.00" fill="#000000">JS_SetPropertyStr</text>
</a>
</g>
</g>
<!-- Node81989&#45;&gt;Node82034 -->
<g id="edge8" class="edge">
<title>Node81989&#45;&gt;Node82034</title>
<path fill="none" stroke="#191970" d="M307.2378,-344.57C320.6876,-296.0217 357.5902,-171.2888 389,-143 394.5022,-138.0445 401.1881,-134.3682 408.2005,-131.6437"/>
<polygon fill="#191970" stroke="#191970" points="303.7987,-343.8774 304.5354,-354.4466 310.5506,-345.7249 303.7987,-343.8774"/>
</g>
<!-- Node82041 -->
<g id="node10" class="node">
<title>Node82041</title>
<g id="a_node10"><a xlink:href="quickjs_8c.html#a841f4cb887e4d9e03e94a0697255e578" target="_top" xlink:title="JS_DefinePropertyValueStr">
<polygon fill="none" stroke="#ff0000" points="389,-76.5 389,-95.5 526,-95.5 526,-76.5 389,-76.5"/>
<text text-anchor="middle" x="457.5" y="-83.5" font-family="Helvetica,sans-Serif" font-size="10.00" fill="#000000">JS_DefinePropertyValueStr</text>
</a>
</g>
</g>
<!-- Node81989&#45;&gt;Node82041 -->
<g id="edge9" class="edge">
<title>Node81989&#45;&gt;Node82041</title>
<path fill="none" stroke="#191970" d="M307.9446,-344.6816C326.0547,-286.0585 379.8647,-113.6592 389,-105 393.0306,-101.1794 397.7608,-98.115 402.8201,-95.6588"/>
<polygon fill="#191970" stroke="#191970" points="304.5997,-343.6512 304.9973,-354.2386 311.2889,-345.7141 304.5997,-343.6512"/>
</g>
<!-- Node82055 -->
<g id="node11" class="node">
<title>Node82055</title>
<g id="a_node11"><a xlink:href="quickjs_8c.html#ac29cc4ec49efa0f0308e494316ce5139" target="_top" xlink:title="JS_NewCModule">
<polygon fill="none" stroke="#ff0000" points="411,-594.5 411,-613.5 504,-613.5 504,-594.5 411,-594.5"/>
<text text-anchor="middle" x="457.5" y="-601.5" font-family="Helvetica,sans-Serif" font-size="10.00" fill="#000000">JS_NewCModule</text>
</a>
</g>
</g>
<!-- Node81989&#45;&gt;Node82055 -->
<g id="edge10" class="edge">
<title>Node81989&#45;&gt;Node82055</title>
<path fill="none" stroke="#191970" d="M309.0142,-383.1635C328.2625,-435.5613 381.0098,-577.8037 389,-585 395.1441,-590.5336 402.7642,-594.4722 410.6668,-597.2716"/>
<polygon fill="#191970" stroke="#191970" points="312.2678,-381.8701 305.5385,-373.6867 305.6959,-384.2804 312.2678,-381.8701"/>
</g>
<!-- Node82058 -->
<g id="node12" class="node">
<title>Node82058</title>
<g id="a_node12"><a xlink:href="quickjs_8c.html#a369af749a1fb181216fe8a8b55f841b0" target="_top" xlink:title="JS_AddModuleExport">
<polygon fill="none" stroke="#ff0000" points="402,-556.5 402,-575.5 513,-575.5 513,-556.5 402,-556.5"/>
<text text-anchor="middle" x="457.5" y="-563.5" font-family="Helvetica,sans-Serif" font-size="10.00" fill="#000000">JS_AddModuleExport</text>
</a>
</g>
</g>
<!-- Node81989&#45;&gt;Node82058 -->
<g id="edge11" class="edge">
<title>Node81989&#45;&gt;Node82058</title>
<path fill="none" stroke="#191970" d="M308.7907,-383.1611C324.0983,-425.3586 362.0604,-524.3647 389,-547 393.6299,-550.8902 398.997,-553.9872 404.6495,-556.4522"/>
<polygon fill="#191970" stroke="#191970" points="312.0809,-381.967 305.4076,-373.7379 305.4926,-384.3324 312.0809,-381.967"/>
</g>
<!-- Node82061 -->
<g id="node13" class="node">
<title>Node82061</title>
<g id="a_node13"><a xlink:href="quickjs_8c.html#acc3990661d2851b858601061a62cc7d6" target="_top" xlink:title="JS_SetModuleExport">
<polygon fill="none" stroke="#ff0000" points="403,-392.5 403,-411.5 512,-411.5 512,-392.5 403,-392.5"/>
<text text-anchor="middle" x="457.5" y="-399.5" font-family="Helvetica,sans-Serif" font-size="10.00" fill="#000000">JS_SetModuleExport</text>
</a>
</g>
</g>
<!-- Node81989&#45;&gt;Node82061 -->
<g id="edge12" class="edge">
<title>Node81989&#45;&gt;Node82061</title>
<path fill="none" stroke="#191970" d="M350.6152,-375.8802C372.5135,-381.2316 398.0166,-387.4639 418.6181,-392.4983"/>
<polygon fill="#191970" stroke="#191970" points="351.3831,-372.465 340.8381,-373.491 349.7214,-379.2649 351.3831,-372.465"/>
</g>
<!-- Node82064 -->
<g id="node16" class="node">
<title>Node82064</title>
<g id="a_node16"><a xlink:href="quickjs_8c.html#a90dd988b99a5bc7b2a4aaffd2de405a9" target="_top" xlink:title="js_host_resolve_imported\l_module">
<polygon fill="none" stroke="#ff0000" points="393.5,-469 393.5,-499 521.5,-499 521.5,-469 393.5,-469"/>
<text text-anchor="start" x="401.5" y="-487" font-family="Helvetica,sans-Serif" font-size="10.00" fill="#000000">js_host_resolve_imported</text>
<text text-anchor="middle" x="457.5" y="-476" font-family="Helvetica,sans-Serif" font-size="10.00" fill="#000000">_module</text>
</a>
</g>
</g>
<!-- Node81989&#45;&gt;Node82064 -->
<g id="edge15" class="edge">
<title>Node81989&#45;&gt;Node82064</title>
<path fill="none" stroke="#191970" d="M315.359,-381.4691C331.1748,-401.1988 359.158,-433.2507 389,-454 397.2078,-459.7069 406.6752,-464.6948 415.902,-468.88"/>
<polygon fill="#191970" stroke="#191970" points="318.102,-379.2951 309.1704,-373.5963 312.5987,-383.6211 318.102,-379.2951"/>
</g>
<!-- Node82607 -->
<g id="node17" class="node">
<title>Node82607</title>
<g id="a_node17"><a xlink:href="quickjs_8c.html#a8020fd59ed57f7f299216ec1ebfcda01" target="_top" xlink:title="js_new_function_def">
<polygon fill="none" stroke="#ff0000" points="404.5,-518.5 404.5,-537.5 510.5,-537.5 510.5,-518.5 404.5,-518.5"/>
<text text-anchor="middle" x="457.5" y="-525.5" font-family="Helvetica,sans-Serif" font-size="10.00" fill="#000000">js_new_function_def</text>
</a>
</g>
</g>
<!-- Node81989&#45;&gt;Node82607 -->
<g id="edge16" class="edge">
<title>Node81989&#45;&gt;Node82607</title>
<path fill="none" stroke="#191970" d="M308.4498,-383.3982C319.7607,-414.4138 346.1311,-475.0239 389,-508 394.6954,-512.3811 401.3263,-515.8037 408.1763,-518.4771"/>
<polygon fill="#191970" stroke="#191970" points="311.682,-382.0378 305.0747,-373.7556 305.075,-384.3505 311.682,-382.0378"/>
</g>
<!-- Node82198 -->
<g id="node18" class="node">
<title>Node82198</title>
<g id="a_node18"><a xlink:href="quickjs_8c.html#a46a8a7e155cfd0af984f6725f060f0d6" target="_top" xlink:title="__JS_EvalInternal">
<polygon fill="none" stroke="#ff0000" points="580.5,-460.5 580.5,-479.5 676.5,-479.5 676.5,-460.5 580.5,-460.5"/>
<text text-anchor="middle" x="628.5" y="-467.5" font-family="Helvetica,sans-Serif" font-size="10.00" fill="#000000">__JS_EvalInternal</text>
</a>
</g>
</g>
<!-- Node81989&#45;&gt;Node82198 -->
<g id="edge18" class="edge">
<title>Node81989&#45;&gt;Node82198</title>
<path fill="none" stroke="#191970" d="M321.5573,-379.9489C338.4351,-392.9137 363.9783,-410.6882 389,-421 452.1758,-447.0356 530.616,-459.7039 580.1335,-465.5208"/>
<polygon fill="#191970" stroke="#191970" points="323.5953,-377.0991 313.5698,-373.6726 319.2703,-382.6031 323.5953,-377.0991"/>
</g>
<!-- Node82611 -->
<g id="node19" class="node">
<title>Node82611</title>
<g id="a_node19"><a xlink:href="quickjs_8c.html#ae8e62d181b34d2e7bdda0b099c0880f5" target="_top" xlink:title="find_atom">
<polygon fill="none" stroke="#ff0000" points="428,-354.5 428,-373.5 487,-373.5 487,-354.5 428,-354.5"/>
<text text-anchor="middle" x="457.5" y="-361.5" font-family="Helvetica,sans-Serif" font-size="10.00" fill="#000000">find_atom</text>
</a>
</g>
</g>
<!-- Node81989&#45;&gt;Node82611 -->
<g id="edge19" class="edge">
<title>Node81989&#45;&gt;Node82611</title>
<path fill="none" stroke="#191970" d="M350.9787,-364C376.245,-364 406.2306,-364 427.9401,-364"/>
<polygon fill="#191970" stroke="#191970" points="350.8381,-360.5001 340.8381,-364 350.8381,-367.5001 350.8381,-360.5001"/>
</g>
<!-- Node82062 -->
<g id="node14" class="node">
<title>Node82062</title>
<g id="a_node14"><a xlink:href="quickjs-libc_8c.html#a08cea1a0226b7603e6969e2208d99d55" target="_top" xlink:title="js_std_init">
<polygon fill="none" stroke="#ff0000" points="598,-361.5 598,-380.5 659,-380.5 659,-361.5 598,-361.5"/>
<text text-anchor="middle" x="628.5" y="-368.5" font-family="Helvetica,sans-Serif" font-size="10.00" fill="#000000">js_std_init</text>
</a>
</g>
</g>
<!-- Node82061&#45;&gt;Node82062 -->
<g id="edge13" class="edge">
<title>Node82061&#45;&gt;Node82062</title>
<path fill="none" stroke="#191970" d="M520.1389,-390.6444C546.5302,-385.86 576.0578,-380.5071 597.6168,-376.5987"/>
<polygon fill="#191970" stroke="#191970" points="519.4162,-387.2183 510.2009,-392.446 520.6649,-394.106 519.4162,-387.2183"/>
</g>
<!-- Node82005 -->
<g id="node15" class="node">
<title>Node82005</title>
<g id="a_node15"><a xlink:href="quickjs-libc_8c.html#a066e7962ce24f22d5df20968a8baa346" target="_top" xlink:title="js_os_init">
<polygon fill="none" stroke="#ff0000" points="599.5,-201.5 599.5,-220.5 657.5,-220.5 657.5,-201.5 599.5,-201.5"/>
<text text-anchor="middle" x="628.5" y="-208.5" font-family="Helvetica,sans-Serif" font-size="10.00" fill="#000000">js_os_init</text>
</a>
</g>
</g>
<!-- Node82061&#45;&gt;Node82005 -->
<g id="edge14" class="edge">
<title>Node82061&#45;&gt;Node82005</title>
<path fill="none" stroke="#191970" d="M518.1154,-388.1152C520.8813,-386.585 523.5291,-384.8861 526,-383 584.5786,-338.2857 616.43,-249.6734 625.6484,-220.5338"/>
<polygon fill="#191970" stroke="#191970" points="516.4936,-385.0105 508.9514,-392.4512 519.4876,-391.3379 516.4936,-385.0105"/>
</g>
<!-- Node82607&#45;&gt;Node82198 -->
<g id="edge17" class="edge">
<title>Node82607&#45;&gt;Node82198</title>
<path fill="none" stroke="#191970" d="M501.8175,-515.5601C509.8946,-513.1513 518.2235,-510.5732 526,-508 553.0269,-499.0571 583.5722,-487.5479 604.2339,-479.5501"/>
<polygon fill="#191970" stroke="#191970" points="500.7516,-512.2252 492.1441,-518.4027 502.7252,-518.9413 500.7516,-512.2252"/>
</g>
<!-- Node82613 -->
<g id="node22" class="node">
<title>Node82613</title>
<g id="a_node22"><a xlink:href="quickjs_8c.html#a75a3798e2045f6e403c1ef467126d1fb" target="_top" xlink:title="next_token">
<polygon fill="none" stroke="#ff0000" points="425,-670.5 425,-689.5 490,-689.5 490,-670.5 425,-670.5"/>
<text text-anchor="middle" x="457.5" y="-677.5" font-family="Helvetica,sans-Serif" font-size="10.00" fill="#000000">next_token</text>
</a>
</g>
</g>
<!-- Node82612&#45;&gt;Node82613 -->
<g id="edge22" class="edge">
<title>Node82612&#45;&gt;Node82613</title>
<path fill="none" stroke="#191970" d="M344.501,-572.6351C347.5668,-574.4818 350.4498,-576.5914 353,-579 381.9358,-606.3298 358.9155,-634.94 389,-661 398.888,-669.5652 412.3316,-674.2949 424.6912,-676.8968"/>
<polygon fill="#191970" stroke="#191970" points="346.0066,-569.4746 335.5017,-568.0971 342.8548,-575.7249 346.0066,-569.4746"/>
</g>
<!-- Node82622 -->
<g id="node24" class="node">
<title>Node82622</title>
<g id="a_node24"><a xlink:href="quickjs_8c.html#a7fbd31397bde22dfa2b876b945f9afb4" target="_top" xlink:title="json_next_token">
<polygon fill="none" stroke="#ff0000" points="413.5,-632.5 413.5,-651.5 501.5,-651.5 501.5,-632.5 413.5,-632.5"/>
<text text-anchor="middle" x="457.5" y="-639.5" font-family="Helvetica,sans-Serif" font-size="10.00" fill="#000000">json_next_token</text>
</a>
</g>
</g>
<!-- Node82621&#45;&gt;Node82622 -->
<g id="edge24" class="edge">
<title>Node82621&#45;&gt;Node82622</title>
<path fill="none" stroke="#191970" d="M347.5889,-536.6322C349.5078,-537.9661 351.3257,-539.4186 353,-541 381.9358,-568.3298 358.9155,-596.94 389,-623 395.9029,-628.9795 404.5387,-633.0897 413.3289,-635.9116"/>
<polygon fill="#191970" stroke="#191970" points="349.0769,-533.4509 338.6609,-531.5126 345.5947,-539.5234 349.0769,-533.4509"/>
</g>
<!-- Node82624&#45;&gt;Node82062 -->
<g id="edge30" class="edge">
<title>Node82624&#45;&gt;Node82062</title>
<path fill="none" stroke="#191970" d="M507.3427,-54.8385C514.3277,-57.6634 520.8627,-61.5818 526,-67 577.0466,-120.8372 538.0271,-159.7896 562,-230 579.5784,-281.4825 610.5485,-339.0437 623.0446,-361.4007"/>
<polygon fill="#191970" stroke="#191970" points="508.2209,-51.4426 497.6277,-51.626 506.0232,-58.0886 508.2209,-51.4426"/>
</g>
<!-- Node82624&#45;&gt;Node82005 -->
<g id="edge31" class="edge">
<title>Node82624&#45;&gt;Node82005</title>
<path fill="none" stroke="#191970" d="M507.3215,-57.4377C513.9337,-59.9187 520.3644,-63.0496 526,-67 578.0148,-103.4611 612.9288,-175.1084 624.3888,-201.2001"/>
<polygon fill="#191970" stroke="#191970" points="508.1684,-54.0322 497.5758,-54.248 505.991,-60.685 508.1684,-54.0322"/>
</g>
<!-- Node82625 -->
<g id="node26" class="node">
<title>Node82625</title>
<g id="a_node26"><a xlink:href="structqjs_1_1js__traits_3_01std_1_1shared__ptr_3_01T_01_4_01_4.html#af3558afeef079826c58411353c8ccce0" target="_top" xlink:title="Register class in QuickJS context. ">
<polygon fill="none" stroke="#000000" points="578,-.5 578,-41.5 679,-41.5 679,-.5 578,-.5"/>
<text text-anchor="start" x="586" y="-29.5" font-family="Helvetica,sans-Serif" font-size="10.00" fill="#000000">qjs::js_traits&lt; std</text>
<text text-anchor="start" x="586" y="-18.5" font-family="Helvetica,sans-Serif" font-size="10.00" fill="#000000">::shared_ptr&lt; T &gt; &gt;</text>
<text text-anchor="middle" x="628.5" y="-7.5" font-family="Helvetica,sans-Serif" font-size="10.00" fill="#000000">::register_class</text>
</a>
</g>
</g>
<!-- Node82624&#45;&gt;Node82625 -->
<g id="edge26" class="edge">
<title>Node82624&#45;&gt;Node82625</title>
<path fill="none" stroke="#191970" d="M507.4775,-40.1088C529.6467,-36.6084 555.6913,-32.4961 577.929,-28.9849"/>
<polygon fill="#191970" stroke="#191970" points="506.9236,-36.6528 497.5919,-41.6697 508.0154,-43.5672 506.9236,-36.6528"/>
</g>
<!-- Node82627 -->
<g id="node28" class="node">
<title>Node82627</title>
<g id="a_node28"><a xlink:href="structqjs_1_1js__traits_3_01detail_1_1function_01_4.html#afe383c63f389edaf9f878cd30062d37f" target="_top" xlink:title="qjs::js_traits\&lt; detail\l::function \&gt;::register_class">
<polygon fill="none" stroke="#000000" points="562,-61 562,-91 695,-91 695,-61 562,-61"/>
<text text-anchor="start" x="570" y="-79" font-family="Helvetica,sans-Serif" font-size="10.00" fill="#000000">qjs::js_traits&lt; detail</text>
<text text-anchor="middle" x="628.5" y="-68" font-family="Helvetica,sans-Serif" font-size="10.00" fill="#000000">::function &gt;::register_class</text>
</a>
</g>
</g>
<!-- Node82624&#45;&gt;Node82627 -->
<g id="edge28" class="edge">
<title>Node82624&#45;&gt;Node82627</title>
<path fill="none" stroke="#191970" d="M507.8156,-56.2388C524.7471,-59.0112 543.9085,-62.1488 561.8954,-65.094"/>
<polygon fill="#191970" stroke="#191970" points="508.0261,-52.7267 497.5919,-54.5648 506.8949,-59.6347 508.0261,-52.7267"/>
</g>
<!-- Node82626 -->
<g id="node27" class="node">
<title>Node82626</title>
<g id="a_node27"><a xlink:href="structqjs_1_1js__traits_3_01std_1_1shared__ptr_3_01T_01_4_01_4.html#a046f811ae16e0cb24170a8425f3e8780" target="_top" xlink:title="Create a JSValue from std::shared_ptr&lt;T&gt;. ">
<polygon fill="none" stroke="#000000" points="731,-6 731,-36 859,-36 859,-6 731,-6"/>
<text text-anchor="start" x="739" y="-24" font-family="Helvetica,sans-Serif" font-size="10.00" fill="#000000">qjs::js_traits&lt; std</text>
<text text-anchor="middle" x="795" y="-13" font-family="Helvetica,sans-Serif" font-size="10.00" fill="#000000">::shared_ptr&lt; T &gt; &gt;::wrap</text>
</a>
</g>
</g>
<!-- Node82625&#45;&gt;Node82626 -->
<g id="edge27" class="edge">
<title>Node82625&#45;&gt;Node82626</title>
<path fill="none" stroke="#191970" d="M689.4831,-21C702.969,-21 717.2964,-21 730.9021,-21"/>
<polygon fill="#191970" stroke="#191970" points="689.3602,-17.5001 679.3602,-21 689.3602,-24.5001 689.3602,-17.5001"/>
</g>
<!-- Node82628 -->
<g id="node29" class="node">
<title>Node82628</title>
<g id="a_node29"><a xlink:href="classqjs_1_1Context.html#aae629cc551168d549a405db5c762b61e" target="_top" xlink:title="qjs::Context::init">
<polygon fill="none" stroke="#ff0000" points="750.5,-66.5 750.5,-85.5 839.5,-85.5 839.5,-66.5 750.5,-66.5"/>
<text text-anchor="middle" x="795" y="-73.5" font-family="Helvetica,sans-Serif" font-size="10.00" fill="#000000">qjs::Context::init</text>
</a>
</g>
</g>
<!-- Node82627&#45;&gt;Node82628 -->
<g id="edge29" class="edge">
<title>Node82627&#45;&gt;Node82628</title>
<path fill="none" stroke="#191970" d="M705.2985,-76C720.669,-76 736.3347,-76 750.1826,-76"/>
<polygon fill="#191970" stroke="#191970" points="705.2626,-72.5001 695.2626,-76 705.2625,-79.5001 705.2626,-72.5001"/>
</g>
</g>
</svg>
