<?xml version="1.0" encoding="UTF-8" standalone="no"?>
<!DOCTYPE svg PUBLIC "-//W3C//DTD SVG 1.1//EN"
 "http://www.w3.org/Graphics/SVG/1.1/DTD/svg11.dtd">
<!-- Generated by graphviz version 2.40.1 (20161225.0304)
 -->
<!-- Title: js_array_find Pages: 1 -->
<!--zoomable 1076 -->
<svg id="main" version="1.1" xmlns="http://www.w3.org/2000/svg" xmlns:xlink="http://www.w3.org/1999/xlink" xml:space="preserve" onload="init(evt)">
<style type="text/css"><![CDATA[
.edge:hover path { stroke: red; }
.edge:hover polygon { stroke: red; fill: red; }
]]></style>
<script type="text/javascript"><![CDATA[
var edges = document.getElementsByTagName('g');
if (edges && edges.length) {
  for (var i=0;i<edges.length;i++) {
    if (edges[i].id.substr(0,4)=='edge') {
      edges[i].setAttribute('class','edge');
    }
  }
}
]]></script>
        <defs>
                <circle id="rim" cx="0" cy="0" r="7"/>
                <circle id="rim2" cx="0" cy="0" r="3.5"/>
                <g id="zoomPlus">
                        <use xlink:href="#rim" fill="#404040">
                                <set attributeName="fill" to="#808080" begin="zoomplus.mouseover" end="zoomplus.mouseout"/>
                        </use>
                        <path d="M-4,0h8M0,-4v8" fill="none" stroke="white" stroke-width="1.5" pointer-events="none"/>
                </g>
                <g id="zoomMin">
                        <use xlink:href="#rim" fill="#404040">
                                <set attributeName="fill" to="#808080" begin="zoomminus.mouseover" end="zoomminus.mouseout"/>
                        </use>
                        <path d="M-4,0h8" fill="none" stroke="white" stroke-width="1.5" pointer-events="none"/>
                </g>
                <g id="dirArrow">
                        <path fill="none" stroke="white" stroke-width="1.5" d="M0,-3.0v7 M-2.5,-0.5L0,-3.0L2.5,-0.5"/>
                </g>
               <g id="resetDef">
                       <use xlink:href="#rim2" fill="#404040">
                               <set attributeName="fill" to="#808080" begin="reset.mouseover" end="reset.mouseout"/>
                       </use>
               </g>
        </defs>

<script type="text/javascript">
var viewWidth = 780;
var viewHeight = 1076;
var sectionId = 'dynsection-1477';
</script>
<script xlink:href="svgpan.js"/>
<svg id="graph" class="graph">
<g id="viewport">
<title>js_array_find</title>
<!-- Node396386 -->
<g id="node1" class="node">
<title>Node396386</title>
<polygon fill="#bfbfbf" stroke="#000000" points="0,-687.1947 0,-706.1947 72,-706.1947 72,-687.1947 0,-687.1947"/>
<text text-anchor="middle" x="36" y="-694.1947" font-family="Helvetica,sans-Serif" font-size="10.00" fill="#000000">js_array_find</text>
</g>
<!-- Node396387 -->
<g id="node2" class="node">
<title>Node396387</title>
<g id="a_node2"><a xlink:href="quickjs_8c.html#a59a7e992f228759bf0a56f0aae4f3cc3" target="_top" xlink:title="check_function">
<polygon fill="none" stroke="#000000" points="108,-1048.1947 108,-1067.1947 191,-1067.1947 191,-1048.1947 108,-1048.1947"/>
<text text-anchor="middle" x="149.5" y="-1055.1947" font-family="Helvetica,sans-Serif" font-size="10.00" fill="#000000">check_function</text>
</a>
</g>
</g>
<!-- Node396386&#45;&gt;Node396387 -->
<g id="edge1" class="edge">
<title>Node396386&#45;&gt;Node396387</title>
<path fill="none" stroke="#191970" d="M36.9908,-706.2481C42.2304,-755.2958 67.9902,-978.6446 108,-1033.6947 110.4084,-1037.0084 113.4247,-1039.935 116.7261,-1042.501"/>
<polygon fill="#191970" stroke="#191970" points="115.0555,-1045.5909 125.3363,-1048.1512 118.896,-1039.7385 115.0555,-1045.5909"/>
</g>
<!-- Node396389 -->
<g id="node4" class="node">
<title>Node396389</title>
<g id="a_node4"><a xlink:href="quickjs_8c.html#a1a4c02a29525d5cb2085dd8bca3af350" target="_top" xlink:title="JS_Call">
<polygon fill="none" stroke="#000000" points="124,-516.1947 124,-535.1947 175,-535.1947 175,-516.1947 124,-516.1947"/>
<text text-anchor="middle" x="149.5" y="-523.1947" font-family="Helvetica,sans-Serif" font-size="10.00" fill="#000000">JS_Call</text>
</a>
</g>
</g>
<!-- Node396386&#45;&gt;Node396389 -->
<g id="edge3" class="edge">
<title>Node396386&#45;&gt;Node396389</title>
<path fill="none" stroke="#191970" d="M42.4275,-687.011C60.7659,-659.3821 113.5529,-579.8528 137.4685,-543.8214"/>
<polygon fill="#191970" stroke="#191970" points="140.529,-545.5394 143.143,-535.2721 134.6968,-541.6683 140.529,-545.5394"/>
</g>
<!-- Node396443 -->
<g id="node12" class="node">
<title>Node396443</title>
<g id="a_node12"><a xlink:href="quickjs_8h.html#afaa20c47565bc704c6c85f3d77254e7d" target="_top" xlink:title="JS_FreeValue">
<polygon fill="none" stroke="#ff0000" points="673.5,-896.1947 673.5,-915.1947 751.5,-915.1947 751.5,-896.1947 673.5,-896.1947"/>
<text text-anchor="middle" x="712.5" y="-903.1947" font-family="Helvetica,sans-Serif" font-size="10.00" fill="#000000">JS_FreeValue</text>
</a>
</g>
</g>
<!-- Node396386&#45;&gt;Node396443 -->
<g id="edge54" class="edge">
<title>Node396386&#45;&gt;Node396443</title>
<path fill="none" stroke="#191970" d="M37.6101,-706.3119C44.7258,-747.8338 74.4861,-911.3592 108,-949.6947 159.2209,-1008.2845 190.6775,-1019.6947 268.5,-1019.6947 268.5,-1019.6947 268.5,-1019.6947 401.5,-1019.6947 498.7554,-1019.6947 528.3309,-1021.6498 617,-981.6947 648.6628,-967.4271 678.9275,-940.2767 696.6059,-922.5876"/>
<polygon fill="#191970" stroke="#191970" points="699.3277,-924.8096 703.8026,-915.2062 694.3156,-919.923 699.3277,-924.8096"/>
</g>
<!-- Node396461 -->
<g id="node14" class="node">
<title>Node396461</title>
<g id="a_node14"><a xlink:href="quickjs_8h.html#ad80a83d73e9b7d872b88fbf2943aebe9" target="_top" xlink:title="JS_IsException">
<polygon fill="none" stroke="#000000" points="669.5,-630.1947 669.5,-649.1947 755.5,-649.1947 755.5,-630.1947 669.5,-630.1947"/>
<text text-anchor="middle" x="712.5" y="-637.1947" font-family="Helvetica,sans-Serif" font-size="10.00" fill="#000000">JS_IsException</text>
</a>
</g>
</g>
<!-- Node396386&#45;&gt;Node396461 -->
<g id="edge61" class="edge">
<title>Node396386&#45;&gt;Node396461</title>
<path fill="none" stroke="#191970" d="M56.4646,-706.2114C105.2759,-728.3739 232.9049,-783.1769 346,-804.6947 410.2354,-816.9163 427.6259,-809.3611 493,-810.6947 548.0996,-811.8187 569.4702,-838.59 617,-810.6947 673.6081,-777.4713 699.1453,-697.1271 708.2833,-659.6124"/>
<polygon fill="#191970" stroke="#191970" points="711.7911,-659.9732 710.609,-649.4445 704.9673,-658.4124 711.7911,-659.9732"/>
</g>
<!-- Node396462 -->
<g id="node17" class="node">
<title>Node396462</title>
<g id="a_node17"><a xlink:href="quickjs_8h.html#a2050bc428da1c65ac7eb87c3fa3b0392" target="_top" xlink:title="JS_NewInt32">
<polygon fill="none" stroke="#000000" points="674.5,-174.1947 674.5,-193.1947 750.5,-193.1947 750.5,-174.1947 674.5,-174.1947"/>
<text text-anchor="middle" x="712.5" y="-181.1947" font-family="Helvetica,sans-Serif" font-size="10.00" fill="#000000">JS_NewInt32</text>
</a>
</g>
</g>
<!-- Node396386&#45;&gt;Node396462 -->
<g id="edge62" class="edge">
<title>Node396386&#45;&gt;Node396462</title>
<path fill="none" stroke="#191970" d="M37.3263,-687.167C44.1131,-639.2077 75.8878,-424.2109 108,-365.6947 179.6662,-235.1015 208.84,-187.8131 346,-129.6947 456.9063,-82.7007 500.8817,-94.6763 617,-126.6947 645.7933,-134.6341 674.6586,-153.7904 692.9959,-167.7091"/>
<polygon fill="#191970" stroke="#191970" points="691.0718,-170.6475 701.1058,-174.0492 695.3832,-165.1327 691.0718,-170.6475"/>
</g>
<!-- Node396519 -->
<g id="node23" class="node">
<title>Node396519</title>
<g id="a_node23"><a xlink:href="quickjs_8c.html#a90d6e607f6917d817c1e997bd2e6ed07" target="_top" xlink:title="JS_GetPropertyValue">
<polygon fill="none" stroke="#000000" points="346,-250.1947 346,-269.1947 457,-269.1947 457,-250.1947 346,-250.1947"/>
<text text-anchor="middle" x="401.5" y="-257.1947" font-family="Helvetica,sans-Serif" font-size="10.00" fill="#000000">JS_GetPropertyValue</text>
</a>
</g>
</g>
<!-- Node396386&#45;&gt;Node396519 -->
<g id="edge60" class="edge">
<title>Node396386&#45;&gt;Node396519</title>
<path fill="none" stroke="#191970" d="M36.4624,-687.189C38.6055,-652.1959 50.12,-528.5462 108,-450.6947 176.6886,-358.305 304.3565,-298.0875 366.1612,-272.9999"/>
<polygon fill="#191970" stroke="#191970" points="367.5049,-276.2322 375.4959,-269.2756 364.9108,-269.7306 367.5049,-276.2322"/>
</g>
<!-- Node396611 -->
<g id="node26" class="node">
<title>Node396611</title>
<g id="a_node26"><a xlink:href="quickjs_8c.html#a2bf30c9cddfe98a32535843202495069" target="_top" xlink:title="JS_ToBoolFree">
<polygon fill="none" stroke="#000000" points="359.5,-972.1947 359.5,-991.1947 443.5,-991.1947 443.5,-972.1947 359.5,-972.1947"/>
<text text-anchor="middle" x="401.5" y="-979.1947" font-family="Helvetica,sans-Serif" font-size="10.00" fill="#000000">JS_ToBoolFree</text>
</a>
</g>
</g>
<!-- Node396386&#45;&gt;Node396611 -->
<g id="edge66" class="edge">
<title>Node396386&#45;&gt;Node396611</title>
<path fill="none" stroke="#191970" d="M37.913,-706.3085C45.6583,-744.2976 75.8167,-883.31 108,-912.6947 174.5512,-973.4586 284.3339,-983.7001 349.0997,-983.8914"/>
<polygon fill="#191970" stroke="#191970" points="349.5011,-987.3894 359.4825,-983.8369 349.4643,-980.3895 349.5011,-987.3894"/>
</g>
<!-- Node396664 -->
<g id="node27" class="node">
<title>Node396664</title>
<g id="a_node27"><a xlink:href="quickjs_8c.html#a710289a14c2810467e5b448d3c28bd55" target="_top" xlink:title="JS_ToObject">
<polygon fill="none" stroke="#ff0000" points="364.5,-402.1947 364.5,-421.1947 438.5,-421.1947 438.5,-402.1947 364.5,-402.1947"/>
<text text-anchor="middle" x="401.5" y="-409.1947" font-family="Helvetica,sans-Serif" font-size="10.00" fill="#000000">JS_ToObject</text>
</a>
</g>
</g>
<!-- Node396386&#45;&gt;Node396664 -->
<g id="edge67" class="edge">
<title>Node396386&#45;&gt;Node396664</title>
<path fill="none" stroke="#191970" d="M36.8056,-686.7987C39.8745,-655.6309 53.5803,-558.5012 108,-506.6947 176.5298,-441.4555 290.2501,-421.0168 354.1528,-414.6144"/>
<polygon fill="#191970" stroke="#191970" points="354.7111,-418.0777 364.3456,-413.6703 354.0654,-411.1076 354.7111,-418.0777"/>
</g>
<!-- Node396818 -->
<g id="node28" class="node">
<title>Node396818</title>
<g id="a_node28"><a xlink:href="quickjs_8c.html#a5f848f76409193212a44e6221e430919" target="_top" xlink:title="js_get_length64">
<polygon fill="none" stroke="#000000" points="359,-896.1947 359,-915.1947 444,-915.1947 444,-896.1947 359,-896.1947"/>
<text text-anchor="middle" x="401.5" y="-903.1947" font-family="Helvetica,sans-Serif" font-size="10.00" fill="#000000">js_get_length64</text>
</a>
</g>
</g>
<!-- Node396386&#45;&gt;Node396818 -->
<g id="edge55" class="edge">
<title>Node396386&#45;&gt;Node396818</title>
<path fill="none" stroke="#191970" d="M36.4033,-706.4398C38.2846,-737.9537 48.869,-837.6123 108,-881.6947 177.8882,-933.7965 284.8806,-927.1407 348.5473,-916.8846"/>
<polygon fill="#191970" stroke="#191970" points="349.4917,-920.2743 358.7636,-915.1478 348.3185,-913.3734 349.4917,-920.2743"/>
</g>
<!-- Node396660 -->
<g id="node30" class="node">
<title>Node396660</title>
<g id="a_node30"><a xlink:href="quickjs_8h.html#a6acbc709e59969eac6775f9b253b438f" target="_top" xlink:title="JS_NewInt64">
<polygon fill="none" stroke="#000000" points="517,-60.1947 517,-79.1947 593,-79.1947 593,-60.1947 517,-60.1947"/>
<text text-anchor="middle" x="555" y="-67.1947" font-family="Helvetica,sans-Serif" font-size="10.00" fill="#000000">JS_NewInt64</text>
</a>
</g>
</g>
<!-- Node396386&#45;&gt;Node396660 -->
<g id="edge63" class="edge">
<title>Node396386&#45;&gt;Node396660</title>
<path fill="none" stroke="#191970" d="M36.3304,-686.8718C39.031,-609.4841 58.638,-99.8225 108,-55.6947 227.347,50.9973 444.4036,-23.2508 524.3635,-56.1891"/>
<polygon fill="#191970" stroke="#191970" points="523.2771,-59.5288 533.8524,-60.1713 525.9859,-53.0742 523.2771,-59.5288"/>
</g>
<!-- Node396388 -->
<g id="node3" class="node">
<title>Node396388</title>
<g id="a_node3"><a xlink:href="quickjs_8c.html#a1ca9cdb1fa2ffc3e6506e92b200e490f" target="_top" xlink:title="JS_IsFunction">
<polygon fill="none" stroke="#000000" points="228.5,-1048.1947 228.5,-1067.1947 308.5,-1067.1947 308.5,-1048.1947 228.5,-1048.1947"/>
<text text-anchor="middle" x="268.5" y="-1055.1947" font-family="Helvetica,sans-Serif" font-size="10.00" fill="#000000">JS_IsFunction</text>
</a>
</g>
</g>
<!-- Node396387&#45;&gt;Node396388 -->
<g id="edge2" class="edge">
<title>Node396387&#45;&gt;Node396388</title>
<path fill="none" stroke="#191970" d="M191.1204,-1057.6947C199.8859,-1057.6947 209.222,-1057.6947 218.2655,-1057.6947"/>
<polygon fill="#191970" stroke="#191970" points="218.3054,-1061.1948 228.3054,-1057.6947 218.3053,-1054.1948 218.3054,-1061.1948"/>
</g>
<!-- Node396390 -->
<g id="node5" class="node">
<title>Node396390</title>
<g id="a_node5"><a xlink:href="quickjs_8c.html#ac2894ff4edcdb4e6841bcce9c76081e3" target="_top" xlink:title="JS_CallInternal">
<polygon fill="none" stroke="#ff0000" points="227,-516.1947 227,-535.1947 310,-535.1947 310,-516.1947 227,-516.1947"/>
<text text-anchor="middle" x="268.5" y="-523.1947" font-family="Helvetica,sans-Serif" font-size="10.00" fill="#000000">JS_CallInternal</text>
</a>
</g>
</g>
<!-- Node396389&#45;&gt;Node396390 -->
<g id="edge4" class="edge">
<title>Node396389&#45;&gt;Node396390</title>
<path fill="none" stroke="#191970" d="M175.0285,-520.0374C187.1185,-519.1595 202.0227,-518.8106 216.3497,-518.9907"/>
<polygon fill="#191970" stroke="#191970" points="216.5573,-522.4959 226.6313,-519.2153 216.7102,-515.4976 216.5573,-522.4959"/>
</g>
<!-- Node396390&#45;&gt;Node396389 -->
<g id="edge23" class="edge">
<title>Node396390&#45;&gt;Node396389</title>
<path fill="none" stroke="#191970" d="M226.6313,-532.1741C213.0533,-532.6025 198.1287,-532.5222 185.0552,-531.9333"/>
<polygon fill="#191970" stroke="#191970" points="185.2143,-528.4368 175.0285,-531.352 184.8091,-535.425 185.2143,-528.4368"/>
</g>
<!-- Node396390&#45;&gt;Node396390 -->
<g id="edge24" class="edge">
<title>Node396390&#45;&gt;Node396390</title>
<path fill="none" stroke="#191970" d="M250.3128,-535.4517C241.4649,-544.2599 247.5273,-553.6947 268.5,-553.6947 281.9356,-553.6947 289.252,-549.8227 290.4493,-544.7239"/>
<polygon fill="#191970" stroke="#191970" points="293.6902,-543.4021 286.6872,-535.4517 287.2038,-546.034 293.6902,-543.4021"/>
</g>
<!-- Node396391 -->
<g id="node6" class="node">
<title>Node396391</title>
<g id="a_node6"><a xlink:href="quickjs_8c.html#a853f0924d441ea4225488f37c8b69f9a" target="_top" xlink:title="__attribute__">
<polygon fill="none" stroke="#000000" points="365,-706.1947 365,-725.1947 438,-725.1947 438,-706.1947 365,-706.1947"/>
<text text-anchor="middle" x="401.5" y="-713.1947" font-family="Helvetica,sans-Serif" font-size="10.00" fill="#000000">__attribute__</text>
</a>
</g>
</g>
<!-- Node396390&#45;&gt;Node396391 -->
<g id="edge5" class="edge">
<title>Node396390&#45;&gt;Node396391</title>
<path fill="none" stroke="#191970" d="M270.1238,-535.4012C275.4567,-564.2687 295.0995,-650.4458 346,-696.6947 348.9267,-699.3539 352.2424,-701.6436 355.7617,-703.6146"/>
<polygon fill="#191970" stroke="#191970" points="354.2859,-706.7883 364.8237,-707.8867 357.2709,-700.4566 354.2859,-706.7883"/>
</g>
<!-- Node396392 -->
<g id="node7" class="node">
<title>Node396392</title>
<g id="a_node7"><a xlink:href="quickjs_8c.html#a877fcb7651d95b411ce70e62b7f4a1f0" target="_top" xlink:title="__JS_AtomFromUInt32">
<polygon fill="none" stroke="#000000" points="653,-402.1947 653,-421.1947 772,-421.1947 772,-402.1947 653,-402.1947"/>
<text text-anchor="middle" x="712.5" y="-409.1947" font-family="Helvetica,sans-Serif" font-size="10.00" fill="#000000">__JS_AtomFromUInt32</text>
</a>
</g>
</g>
<!-- Node396390&#45;&gt;Node396392 -->
<g id="edge6" class="edge">
<title>Node396390&#45;&gt;Node396392</title>
<path fill="none" stroke="#191970" d="M269.1032,-515.8266C271.6465,-483.9538 284.4467,-383.4726 346,-342.6947 372.0989,-325.4046 600.2426,-349.3917 617,-354.6947 645.3179,-363.656 674.086,-382.4287 692.5386,-395.9861"/>
<polygon fill="#191970" stroke="#191970" points="690.6297,-398.9302 700.7213,-402.1567 694.8444,-393.3412 690.6297,-398.9302"/>
</g>
<!-- Node396393 -->
<g id="node8" class="node">
<title>Node396393</title>
<g id="a_node8"><a xlink:href="quickjs_8h.html#a9bf98b18de88b4199910a43e933eb97d" target="_top" xlink:title="__JS_NewFloat64">
<polygon fill="none" stroke="#000000" points="664,-98.1947 664,-117.1947 761,-117.1947 761,-98.1947 664,-98.1947"/>
<text text-anchor="middle" x="712.5" y="-105.1947" font-family="Helvetica,sans-Serif" font-size="10.00" fill="#000000">__JS_NewFloat64</text>
</a>
</g>
</g>
<!-- Node396390&#45;&gt;Node396393 -->
<g id="edge7" class="edge">
<title>Node396390&#45;&gt;Node396393</title>
<path fill="none" stroke="#191970" d="M269.2856,-515.9229C273.8362,-461.3476 298.286,-194.39 346,-129.6947 420.4657,-28.7268 496.0558,-17.3456 617,-50.6947 645.7933,-58.6341 674.6586,-77.7904 692.9959,-91.7091"/>
<polygon fill="#191970" stroke="#191970" points="691.0718,-94.6475 701.1058,-98.0492 695.3832,-89.1327 691.0718,-94.6475"/>
</g>
<!-- Node396394 -->
<g id="node9" class="node">
<title>Node396394</title>
<g id="a_node9"><a xlink:href="quickjs_8c.html#a74547db03bf739a52c83a326b32db997" target="_top" xlink:title="add_property">
<polygon fill="none" stroke="#ff0000" points="365,-668.1947 365,-687.1947 438,-687.1947 438,-668.1947 365,-668.1947"/>
<text text-anchor="middle" x="401.5" y="-675.1947" font-family="Helvetica,sans-Serif" font-size="10.00" fill="#000000">add_property</text>
</a>
</g>
</g>
<!-- Node396390&#45;&gt;Node396394 -->
<g id="edge8" class="edge">
<title>Node396390&#45;&gt;Node396394</title>
<path fill="none" stroke="#191970" d="M271.4567,-535.2925C279.4197,-559.5725 303.6259,-623.9695 346,-658.6947 348.9293,-661.0952 352.1788,-663.1993 355.5935,-665.0424"/>
<polygon fill="#191970" stroke="#191970" points="354.3651,-668.33 364.9121,-669.3358 357.2943,-661.9723 354.3651,-668.33"/>
</g>
<!-- Node396451 -->
<g id="node10" class="node">
<title>Node396451</title>
<g id="a_node10"><a xlink:href="quickjs_8c.html#a4956f45ffd2849b96dc051277264f87a" target="_top" xlink:title="build_arg_list">
<polygon fill="none" stroke="#ff0000" points="364.5,-630.1947 364.5,-649.1947 438.5,-649.1947 438.5,-630.1947 364.5,-630.1947"/>
<text text-anchor="middle" x="401.5" y="-637.1947" font-family="Helvetica,sans-Serif" font-size="10.00" fill="#000000">build_arg_list</text>
</a>
</g>
</g>
<!-- Node396390&#45;&gt;Node396451 -->
<g id="edge9" class="edge">
<title>Node396390&#45;&gt;Node396451</title>
<path fill="none" stroke="#191970" d="M274.6289,-535.3598C286.4584,-553.3434 314.1042,-592.2421 346,-615.6947 351.2727,-619.5717 357.2689,-622.9837 363.3234,-625.9273"/>
<polygon fill="#191970" stroke="#191970" points="362.2329,-629.2738 372.79,-630.1669 365.094,-622.8852 362.2329,-629.2738"/>
</g>
<!-- Node396452 -->
<g id="node11" class="node">
<title>Node396452</title>
<g id="a_node11"><a xlink:href="quickjs_8c.html#ac864482356b3efc2d0b0a509fcfa4c7c" target="_top" xlink:title="free_arg_list">
<polygon fill="none" stroke="#ff0000" points="520,-744.1947 520,-763.1947 590,-763.1947 590,-744.1947 520,-744.1947"/>
<text text-anchor="middle" x="555" y="-751.1947" font-family="Helvetica,sans-Serif" font-size="10.00" fill="#000000">free_arg_list</text>
</a>
</g>
</g>
<!-- Node396390&#45;&gt;Node396452 -->
<g id="edge21" class="edge">
<title>Node396390&#45;&gt;Node396452</title>
<path fill="none" stroke="#191970" d="M270.2209,-535.3854C277.5938,-575.6966 307.8821,-729.2772 346,-756.6947 371.2541,-774.8595 456.4252,-767.3477 509.9299,-760.4045"/>
<polygon fill="#191970" stroke="#191970" points="510.4084,-763.8717 519.8558,-759.0761 509.4798,-756.9336 510.4084,-763.8717"/>
</g>
<!-- Node396390&#45;&gt;Node396443 -->
<g id="edge28" class="edge">
<title>Node396390&#45;&gt;Node396443</title>
<path fill="none" stroke="#191970" d="M268.7859,-535.2427C270.6695,-590.9176 283.2499,-872.9602 346,-924.6947 393.0994,-963.5259 575.0221,-933.5823 663.5511,-916.0643"/>
<polygon fill="#191970" stroke="#191970" points="664.2403,-919.4958 673.3575,-914.0989 662.8646,-912.6323 664.2403,-919.4958"/>
</g>
<!-- Node396422 -->
<g id="node13" class="node">
<title>Node396422</title>
<g id="a_node13"><a xlink:href="quickjs_8h.html#a775522f2d084fc8fa0fcb33f390006b4" target="_top" xlink:title="JS_DupValue">
<polygon fill="none" stroke="#000000" points="516.5,-364.1947 516.5,-383.1947 593.5,-383.1947 593.5,-364.1947 516.5,-364.1947"/>
<text text-anchor="middle" x="555" y="-371.1947" font-family="Helvetica,sans-Serif" font-size="10.00" fill="#000000">JS_DupValue</text>
</a>
</g>
</g>
<!-- Node396390&#45;&gt;Node396422 -->
<g id="edge26" class="edge">
<title>Node396390&#45;&gt;Node396422</title>
<path fill="none" stroke="#191970" d="M269.3863,-516.0259C272.7465,-485.7112 287.6494,-392.3129 346,-354.6947 371.6036,-338.1882 452.9357,-351.3533 506.2664,-362.4693"/>
<polygon fill="#191970" stroke="#191970" points="505.6969,-365.9264 516.2064,-364.5846 507.1539,-359.0797 505.6969,-365.9264"/>
</g>
<!-- Node396390&#45;&gt;Node396461 -->
<g id="edge43" class="edge">
<title>Node396390&#45;&gt;Node396461</title>
<path fill="none" stroke="#191970" d="M278.0314,-535.222C291.7533,-548.3046 318.4658,-571.4817 346,-582.6947 458.6406,-628.5661 497.0865,-600.3759 617,-620.6947 630.8143,-623.0354 645.6939,-625.8521 659.5011,-628.5912"/>
<polygon fill="#191970" stroke="#191970" points="658.8416,-632.0285 669.3347,-630.564 660.2185,-625.1653 658.8416,-632.0285"/>
</g>
<!-- Node396547 -->
<g id="node15" class="node">
<title>Node396547</title>
<g id="a_node15"><a xlink:href="quickjs_8c.html#a61c8dfb5e807af1b6ff7d8ca61576dda" target="_top" xlink:title="build_backtrace">
<polygon fill="none" stroke="#ff0000" points="359,-554.1947 359,-573.1947 444,-573.1947 444,-554.1947 359,-554.1947"/>
<text text-anchor="middle" x="401.5" y="-561.1947" font-family="Helvetica,sans-Serif" font-size="10.00" fill="#000000">build_backtrace</text>
</a>
</g>
</g>
<!-- Node396390&#45;&gt;Node396547 -->
<g id="edge14" class="edge">
<title>Node396390&#45;&gt;Node396547</title>
<path fill="none" stroke="#191970" d="M302.0615,-535.2837C319.073,-540.1441 339.9319,-546.1038 358.1446,-551.3074"/>
<polygon fill="#191970" stroke="#191970" points="357.3724,-554.7268 367.9492,-554.1087 359.2955,-547.9961 357.3724,-554.7268"/>
</g>
<!-- Node396565 -->
<g id="node16" class="node">
<title>Node396565</title>
<g id="a_node16"><a xlink:href="quickjs_8c.html#a0a8765bd4012467d9139bc24aabcb3ca" target="_top" xlink:title="JS_DefinePropertyValue">
<polygon fill="none" stroke="#ff0000" points="493,-630.1947 493,-649.1947 617,-649.1947 617,-630.1947 493,-630.1947"/>
<text text-anchor="middle" x="555" y="-637.1947" font-family="Helvetica,sans-Serif" font-size="10.00" fill="#000000">JS_DefinePropertyValue</text>
</a>
</g>
</g>
<!-- Node396390&#45;&gt;Node396565 -->
<g id="edge25" class="edge">
<title>Node396390&#45;&gt;Node396565</title>
<path fill="none" stroke="#191970" d="M270.5937,-535.4891C278.9363,-573.5053 311.0561,-710.3834 346,-734.6947 386.4966,-762.8692 411.2766,-753.2189 457,-734.6947 495.2189,-719.2108 526.7627,-680.8787 543.0457,-657.9169"/>
<polygon fill="#191970" stroke="#191970" points="546.1161,-659.6281 548.8845,-649.4014 540.3428,-655.6696 546.1161,-659.6281"/>
</g>
<!-- Node396390&#45;&gt;Node396462 -->
<g id="edge44" class="edge">
<title>Node396390&#45;&gt;Node396462</title>
<path fill="none" stroke="#191970" d="M269.2992,-516.1672C273.6061,-467.3112 295.7468,-245.5572 346,-203.6947 393.0371,-164.5112 575.9283,-172.8798 664.2437,-179.4929"/>
<polygon fill="#191970" stroke="#191970" points="664.0352,-182.9871 674.2749,-180.2671 664.5739,-176.0079 664.0352,-182.9871"/>
</g>
<!-- Node396635 -->
<g id="node18" class="node">
<title>Node396635</title>
<g id="a_node18"><a xlink:href="quickjs_8c.html#a344894112559c2ba75043fd10bcfa02f" target="_top" xlink:title="close_lexical_var">
<polygon fill="none" stroke="#ff0000" points="355.5,-364.1947 355.5,-383.1947 447.5,-383.1947 447.5,-364.1947 355.5,-364.1947"/>
<text text-anchor="middle" x="401.5" y="-371.1947" font-family="Helvetica,sans-Serif" font-size="10.00" fill="#000000">close_lexical_var</text>
</a>
</g>
</g>
<!-- Node396390&#45;&gt;Node396635 -->
<g id="edge18" class="edge">
<title>Node396390&#45;&gt;Node396635</title>
<path fill="none" stroke="#191970" d="M271.4567,-516.0968C279.4197,-491.8168 303.6259,-427.4198 346,-392.6947 348.1416,-390.9396 350.4543,-389.3431 352.8776,-387.8911"/>
<polygon fill="#191970" stroke="#191970" points="354.6987,-390.8918 362.0285,-383.2416 351.5279,-384.6511 354.6987,-390.8918"/>
</g>
<!-- Node396636 -->
<g id="node19" class="node">
<title>Node396636</title>
<g id="a_node19"><a xlink:href="quickjs_8c.html#a1782043fce951bd4f0d91c7796b31e24" target="_top" xlink:title="close_var_refs">
<polygon fill="none" stroke="#ff0000" points="361.5,-478.1947 361.5,-497.1947 441.5,-497.1947 441.5,-478.1947 361.5,-478.1947"/>
<text text-anchor="middle" x="401.5" y="-485.1947" font-family="Helvetica,sans-Serif" font-size="10.00" fill="#000000">close_var_refs</text>
</a>
</g>
</g>
<!-- Node396390&#45;&gt;Node396636 -->
<g id="edge20" class="edge">
<title>Node396390&#45;&gt;Node396636</title>
<path fill="none" stroke="#191970" d="M302.0615,-516.1057C319.073,-511.2452 339.9319,-505.2856 358.1446,-500.0819"/>
<polygon fill="#191970" stroke="#191970" points="359.2955,-503.3932 367.9492,-497.2806 357.3724,-496.6626 359.2955,-503.3932"/>
</g>
<!-- Node396440 -->
<g id="node20" class="node">
<title>Node396440</title>
<g id="a_node20"><a xlink:href="quickjs_8c.html#a9e7b4bccf927d811b0f99b40b08c0472" target="_top" xlink:title="free_var_ref">
<polygon fill="none" stroke="#ff0000" points="367.5,-440.1947 367.5,-459.1947 435.5,-459.1947 435.5,-440.1947 367.5,-440.1947"/>
<text text-anchor="middle" x="401.5" y="-447.1947" font-family="Helvetica,sans-Serif" font-size="10.00" fill="#000000">free_var_ref</text>
</a>
</g>
</g>
<!-- Node396390&#45;&gt;Node396440 -->
<g id="edge22" class="edge">
<title>Node396390&#45;&gt;Node396440</title>
<path fill="none" stroke="#191970" d="M279.3345,-516.0431C293.7003,-503.6574 320.2492,-482.1661 346,-468.6947 350.0171,-466.5931 354.3154,-464.6479 358.6755,-462.8683"/>
<polygon fill="#191970" stroke="#191970" points="360.127,-466.061 368.2343,-459.2403 357.6431,-459.5166 360.127,-466.061"/>
</g>
<!-- Node396442 -->
<g id="node21" class="node">
<title>Node396442</title>
<g id="a_node21"><a xlink:href="quickjs_8c.html#ab7fc45a99935a1c0ba50b0216d9401a9" target="_top" xlink:title="JS_FreeAtom">
<polygon fill="none" stroke="#ff0000" points="516.5,-212.1947 516.5,-231.1947 593.5,-231.1947 593.5,-212.1947 516.5,-212.1947"/>
<text text-anchor="middle" x="555" y="-219.1947" font-family="Helvetica,sans-Serif" font-size="10.00" fill="#000000">JS_FreeAtom</text>
</a>
</g>
</g>
<!-- Node396390&#45;&gt;Node396442 -->
<g id="edge27" class="edge">
<title>Node396390&#45;&gt;Node396442</title>
<path fill="none" stroke="#191970" d="M269.6519,-516.1045C275.3124,-470.6833 301.7063,-277.8495 346,-240.6947 390.1173,-203.6878 459.4207,-205.1331 505.9968,-211.657"/>
<polygon fill="#191970" stroke="#191970" points="505.7396,-215.1583 516.1538,-213.21 506.7977,-208.2387 505.7396,-215.1583"/>
</g>
<!-- Node396454 -->
<g id="node22" class="node">
<title>Node396454</title>
<g id="a_node22"><a xlink:href="quickjs_8h.html#a89b7c8686c7eee70b86be722ee4730ad" target="_top" xlink:title="JS_GetProperty">
<polygon fill="none" stroke="#ff0000" points="512,-782.1947 512,-801.1947 598,-801.1947 598,-782.1947 512,-782.1947"/>
<text text-anchor="middle" x="555" y="-789.1947" font-family="Helvetica,sans-Serif" font-size="10.00" fill="#000000">JS_GetProperty</text>
</a>
</g>
</g>
<!-- Node396390&#45;&gt;Node396454 -->
<g id="edge29" class="edge">
<title>Node396390&#45;&gt;Node396454</title>
<path fill="none" stroke="#191970" d="M270.0106,-535.2284C276.8491,-577.1021 306.302,-744.0301 346,-775.6947 389.6407,-810.5041 456.024,-809.342 502.2251,-802.8189"/>
<polygon fill="#191970" stroke="#191970" points="502.9923,-806.2421 512.3428,-801.2601 501.9264,-799.3237 502.9923,-806.2421"/>
</g>
<!-- Node396390&#45;&gt;Node396519 -->
<g id="edge30" class="edge">
<title>Node396390&#45;&gt;Node396519</title>
<path fill="none" stroke="#191970" d="M268.8468,-515.9916C270.6269,-480.3385 281.4163,-354.9552 346,-283.6947 349.3486,-279.9999 353.3653,-276.85 357.6868,-274.1699"/>
<polygon fill="#191970" stroke="#191970" points="359.6717,-277.0792 366.8693,-269.3046 356.3943,-270.8938 359.6717,-277.0792"/>
</g>
<!-- Node396520 -->
<g id="node24" class="node">
<title>Node396520</title>
<g id="a_node24"><a xlink:href="quickjs_8h.html#a88259aa0da61ac754402c64ccecee116" target="_top" xlink:title="JS_NewUint32">
<polygon fill="none" stroke="#000000" points="513.5,-136.1947 513.5,-155.1947 596.5,-155.1947 596.5,-136.1947 513.5,-136.1947"/>
<text text-anchor="middle" x="555" y="-143.1947" font-family="Helvetica,sans-Serif" font-size="10.00" fill="#000000">JS_NewUint32</text>
</a>
</g>
</g>
<!-- Node396390&#45;&gt;Node396520 -->
<g id="edge45" class="edge">
<title>Node396390&#45;&gt;Node396520</title>
<path fill="none" stroke="#191970" d="M269.1356,-515.9315C272.7424,-463.7344 292.4091,-218.1766 346,-169.6947 388.1392,-131.5727 456.2544,-130.9234 503.2073,-136.2794"/>
<polygon fill="#191970" stroke="#191970" points="502.8218,-139.7584 513.1824,-137.543 503.7016,-132.8139 502.8218,-139.7584"/>
</g>
<!-- Node396521 -->
<g id="node25" class="node">
<title>Node396521</title>
<g id="a_node25"><a xlink:href="quickjs_8c.html#a859d5c989a2aaecef1653b3ac279e108" target="_top" xlink:title="JS_ValueToAtom">
<polygon fill="none" stroke="#ff0000" points="508.5,-478.1947 508.5,-497.1947 601.5,-497.1947 601.5,-478.1947 508.5,-478.1947"/>
<text text-anchor="middle" x="555" y="-485.1947" font-family="Helvetica,sans-Serif" font-size="10.00" fill="#000000">JS_ValueToAtom</text>
</a>
</g>
</g>
<!-- Node396390&#45;&gt;Node396521 -->
<g id="edge53" class="edge">
<title>Node396390&#45;&gt;Node396521</title>
<path fill="none" stroke="#191970" d="M310.1886,-522.5888C348.4744,-519.4767 406.7231,-514.0866 457,-506.6947 471.0734,-504.6255 486.1964,-501.9301 500.2493,-499.2226"/>
<polygon fill="#191970" stroke="#191970" points="501.1237,-502.6179 510.2626,-497.2578 499.7758,-495.7489 501.1237,-502.6179"/>
</g>
<!-- Node396390&#45;&gt;Node396611 -->
<g id="edge46" class="edge">
<title>Node396390&#45;&gt;Node396611</title>
<path fill="none" stroke="#191970" d="M269.0092,-535.2761C272.2224,-592.4775 291.3429,-888.7165 346,-957.6947 348.9022,-961.3573 352.4733,-964.4719 356.3929,-967.1183"/>
<polygon fill="#191970" stroke="#191970" points="354.9751,-970.3367 365.4057,-972.1946 358.4103,-964.2375 354.9751,-970.3367"/>
</g>
<!-- Node396390&#45;&gt;Node396664 -->
<g id="edge48" class="edge">
<title>Node396390&#45;&gt;Node396664</title>
<path fill="none" stroke="#191970" d="M273.8017,-516.123C284.7998,-497.1168 311.9363,-454.4097 346,-430.6947 348.8444,-428.7144 351.9134,-426.9248 355.0969,-425.3103"/>
<polygon fill="#191970" stroke="#191970" points="356.5761,-428.483 364.2808,-421.2106 353.7226,-422.0909 356.5761,-428.483"/>
</g>
<!-- Node396451&#45;&gt;Node396452 -->
<g id="edge10" class="edge">
<title>Node396451&#45;&gt;Node396452</title>
<path fill="none" stroke="#191970" d="M436.902,-649.2011C443.8204,-651.772 450.8349,-654.9161 457,-658.6947 461.689,-661.5685 511.1274,-710.2467 537.937,-736.7755"/>
<polygon fill="#191970" stroke="#191970" points="535.5818,-739.369 545.15,-743.9188 540.5075,-734.3953 535.5818,-739.369"/>
</g>
<!-- Node396451&#45;&gt;Node396422 -->
<g id="edge12" class="edge">
<title>Node396451&#45;&gt;Node396422</title>
<path fill="none" stroke="#191970" d="M413.8083,-630.0504C426.3412,-619.6228 445.5158,-601.898 457,-582.6947 484.2707,-537.094 470.27,-516.7203 493,-468.6947 506.5397,-440.087 527.5125,-409.9598 541.2506,-391.4941"/>
<polygon fill="#191970" stroke="#191970" points="544.1127,-393.5121 547.3494,-383.4237 538.5279,-389.2917 544.1127,-393.5121"/>
</g>
<!-- Node396451&#45;&gt;Node396461 -->
<g id="edge13" class="edge">
<title>Node396451&#45;&gt;Node396461</title>
<path fill="none" stroke="#191970" d="M438.6253,-649.204C455.1508,-652.9689 474.9239,-656.8377 493,-658.6947 547.8226,-664.3266 562.1544,-664.0976 617,-658.6947 632.3093,-657.1865 648.8018,-654.3498 663.7019,-651.3196"/>
<polygon fill="#191970" stroke="#191970" points="664.6665,-654.6932 673.7289,-649.2047 663.2218,-647.8439 664.6665,-654.6932"/>
</g>
<!-- Node396452&#45;&gt;Node396443 -->
<g id="edge11" class="edge">
<title>Node396452&#45;&gt;Node396443</title>
<path fill="none" stroke="#191970" d="M590.3059,-760.2322C599.5579,-763.0507 609.1354,-767.0478 617,-772.6947 659.1584,-802.965 689.7583,-857.7082 703.8429,-886.6194"/>
<polygon fill="#191970" stroke="#191970" points="700.8414,-888.4602 708.2755,-896.009 707.1715,-885.4718 700.8414,-888.4602"/>
</g>
<!-- Node396547&#45;&gt;Node396565 -->
<g id="edge15" class="edge">
<title>Node396547&#45;&gt;Node396565</title>
<path fill="none" stroke="#191970" d="M420.9409,-573.3201C447.5839,-586.5114 495.6335,-610.3015 526.3884,-625.5287"/>
<polygon fill="#191970" stroke="#191970" points="525.2022,-628.8469 535.717,-630.1474 528.3082,-622.5736 525.2022,-628.8469"/>
</g>
<!-- Node396547&#45;&gt;Node396462 -->
<g id="edge17" class="edge">
<title>Node396547&#45;&gt;Node396462</title>
<path fill="none" stroke="#191970" d="M410.9677,-554.0517C422.0477,-542.7481 440.9267,-523.4301 457,-506.6947 473.1152,-489.9157 473.6345,-481.587 493,-468.6947 542.0596,-436.0338 574.9251,-462.9656 617,-421.6947 680.7403,-359.1723 703.2215,-248.5529 709.9704,-203.5602"/>
<polygon fill="#191970" stroke="#191970" points="713.4757,-203.7653 711.3921,-193.3774 706.5429,-202.7973 713.4757,-203.7653"/>
</g>
<!-- Node396565&#45;&gt;Node396443 -->
<g id="edge16" class="edge">
<title>Node396565&#45;&gt;Node396443</title>
<path fill="none" stroke="#191970" d="M561.5601,-649.2644C573.1259,-666.2405 597.7419,-702.8407 617,-734.6947 649.8601,-789.0471 685.6091,-855.1187 702.538,-886.8731"/>
<polygon fill="#191970" stroke="#191970" points="699.5618,-888.7311 707.3455,-895.9188 705.743,-885.4459 699.5618,-888.7311"/>
</g>
<!-- Node396635&#45;&gt;Node396422 -->
<g id="edge19" class="edge">
<title>Node396635&#45;&gt;Node396422</title>
<path fill="none" stroke="#191970" d="M447.5551,-373.6947C466.1083,-373.6947 487.5267,-373.6947 506.3349,-373.6947"/>
<polygon fill="#191970" stroke="#191970" points="506.4806,-377.1948 516.4806,-373.6947 506.4806,-370.1948 506.4806,-377.1948"/>
</g>
<!-- Node396519&#45;&gt;Node396393 -->
<g id="edge31" class="edge">
<title>Node396519&#45;&gt;Node396393</title>
<path fill="none" stroke="#191970" d="M457.0306,-269.0817C503.8437,-273.8869 570.4562,-273.0991 617,-240.6947 647.6738,-219.3391 631.1433,-195.0134 653,-164.6947 664.0109,-149.4208 679.4285,-134.7848 691.8105,-124.1686"/>
<polygon fill="#191970" stroke="#191970" points="694.3665,-126.5944 699.8062,-117.5026 689.8841,-121.2178 694.3665,-126.5944"/>
</g>
<!-- Node396519&#45;&gt;Node396443 -->
<g id="edge34" class="edge">
<title>Node396519&#45;&gt;Node396443</title>
<path fill="none" stroke="#191970" d="M408.5301,-269.4512C420.2325,-286.1272 443.7296,-321.5317 457,-354.6947 482.7924,-419.1501 457.9052,-446.7938 493,-506.6947 530.8436,-571.2873 576.2648,-557.8855 617,-620.6947 674.8321,-709.8652 701.0911,-837.5449 709.4097,-886.0163"/>
<polygon fill="#191970" stroke="#191970" points="705.9899,-886.7895 711.0715,-896.0861 712.8965,-885.6496 705.9899,-886.7895"/>
</g>
<!-- Node396519&#45;&gt;Node396422 -->
<g id="edge32" class="edge">
<title>Node396519&#45;&gt;Node396422</title>
<path fill="none" stroke="#191970" d="M414.3233,-269.2182C440.6684,-288.7839 501.1256,-333.6837 533.5404,-357.7573"/>
<polygon fill="#191970" stroke="#191970" points="531.7728,-360.8042 541.8878,-363.9566 535.9464,-355.1845 531.7728,-360.8042"/>
</g>
<!-- Node396519&#45;&gt;Node396462 -->
<g id="edge36" class="edge">
<title>Node396519&#45;&gt;Node396462</title>
<path fill="none" stroke="#191970" d="M430.6174,-269.2471C473.2174,-281.557 554.2754,-298.5935 617,-273.6947 653.4772,-259.2149 684.106,-223.4693 700.24,-201.6346"/>
<polygon fill="#191970" stroke="#191970" points="703.0915,-203.6641 706.0606,-193.4938 697.3972,-199.5927 703.0915,-203.6641"/>
</g>
<!-- Node396519&#45;&gt;Node396442 -->
<g id="edge33" class="edge">
<title>Node396519&#45;&gt;Node396442</title>
<path fill="none" stroke="#191970" d="M440.2345,-250.1057C460.3993,-245.1137 485.2479,-238.9623 506.6611,-233.6613"/>
<polygon fill="#191970" stroke="#191970" points="507.6781,-237.0153 516.544,-231.2147 505.9959,-230.2204 507.6781,-237.0153"/>
</g>
<!-- Node396519&#45;&gt;Node396454 -->
<g id="edge35" class="edge">
<title>Node396519&#45;&gt;Node396454</title>
<path fill="none" stroke="#191970" d="M409.0674,-269.2587C421.5613,-285.6512 446.1946,-320.6487 457,-354.6947 485.2034,-443.5592 434.3997,-700.1802 493,-772.6947 495.7464,-776.0932 499.0852,-778.8979 502.7735,-781.2108"/>
<polygon fill="#191970" stroke="#191970" points="501.3892,-784.4315 511.9,-785.7629 504.5136,-778.1674 501.3892,-784.4315"/>
</g>
<!-- Node396519&#45;&gt;Node396520 -->
<g id="edge37" class="edge">
<title>Node396519&#45;&gt;Node396520</title>
<path fill="none" stroke="#191970" d="M414.3233,-250.1712C440.6684,-230.6054 501.1256,-185.7056 533.5404,-161.6321"/>
<polygon fill="#191970" stroke="#191970" points="535.9464,-164.2049 541.8878,-155.4327 531.7728,-158.5852 535.9464,-164.2049"/>
</g>
<!-- Node396519&#45;&gt;Node396521 -->
<g id="edge40" class="edge">
<title>Node396519&#45;&gt;Node396521</title>
<path fill="none" stroke="#191970" d="M407.9003,-269.2013C431.2569,-303.8938 512.141,-424.0343 542.9524,-469.7999"/>
<polygon fill="#191970" stroke="#191970" points="540.0843,-471.8069 548.5724,-478.1475 545.891,-467.8976 540.0843,-471.8069"/>
</g>
<!-- Node396520&#45;&gt;Node396393 -->
<g id="edge39" class="edge">
<title>Node396520&#45;&gt;Node396393</title>
<path fill="none" stroke="#191970" d="M594.7439,-136.1057C615.5277,-131.0912 641.1611,-124.9066 663.1995,-119.5894"/>
<polygon fill="#191970" stroke="#191970" points="664.1417,-122.9626 673.0419,-117.2147 662.4999,-116.1578 664.1417,-122.9626"/>
</g>
<!-- Node396520&#45;&gt;Node396462 -->
<g id="edge38" class="edge">
<title>Node396520&#45;&gt;Node396462</title>
<path fill="none" stroke="#191970" d="M594.7439,-155.2837C615.9229,-160.3935 642.1375,-166.7183 664.4524,-172.1022"/>
<polygon fill="#191970" stroke="#191970" points="663.8568,-175.5589 674.3988,-174.502 665.4986,-168.7541 663.8568,-175.5589"/>
</g>
<!-- Node396521&#45;&gt;Node396392 -->
<g id="edge41" class="edge">
<title>Node396521&#45;&gt;Node396392</title>
<path fill="none" stroke="#191970" d="M581.8661,-478.1607C592.8881,-474.0267 605.69,-468.9362 617,-463.6947 641.4702,-452.3542 668.3703,-437.4767 687.3676,-426.5416"/>
<polygon fill="#191970" stroke="#191970" points="689.3792,-429.4209 696.2697,-421.3729 685.8643,-423.3673 689.3792,-429.4209"/>
</g>
<!-- Node396521&#45;&gt;Node396461 -->
<g id="edge42" class="edge">
<title>Node396521&#45;&gt;Node396461</title>
<path fill="none" stroke="#191970" d="M589.6078,-497.1993C599.0575,-500.7954 608.9114,-505.5512 617,-511.6947 656.9187,-542.0138 688.0859,-593.3507 702.9526,-620.8959"/>
<polygon fill="#191970" stroke="#191970" points="699.9269,-622.6621 707.6783,-629.8848 706.1228,-619.4047 699.9269,-622.6621"/>
</g>
<!-- Node396611&#45;&gt;Node396443 -->
<g id="edge47" class="edge">
<title>Node396611&#45;&gt;Node396443</title>
<path fill="none" stroke="#191970" d="M443.7979,-981.7652C487.9813,-980.744 558.8262,-975.994 617,-957.6947 643.9282,-949.2241 671.9813,-932.9076 690.6577,-920.8008"/>
<polygon fill="#191970" stroke="#191970" points="692.6289,-923.6934 699.0269,-915.2485 688.759,-917.8603 692.6289,-923.6934"/>
</g>
<!-- Node396664&#45;&gt;Node396422 -->
<g id="edge50" class="edge">
<title>Node396664&#45;&gt;Node396422</title>
<path fill="none" stroke="#191970" d="M438.6581,-402.4959C459.1251,-397.4292 484.765,-391.0818 506.7622,-385.6363"/>
<polygon fill="#191970" stroke="#191970" points="507.7152,-389.0061 516.5811,-383.2055 506.033,-382.2112 507.7152,-389.0061"/>
</g>
<!-- Node396664&#45;&gt;Node396461 -->
<g id="edge51" class="edge">
<title>Node396664&#45;&gt;Node396461</title>
<path fill="none" stroke="#191970" d="M438.6888,-419.8036C445.3119,-422.4747 451.7594,-426.013 457,-430.6947 484.8731,-455.5951 467.9585,-478.9483 493,-506.6947 507.8158,-523.1108 631.6446,-594.0434 686.5087,-625.0712"/>
<polygon fill="#191970" stroke="#191970" points="684.875,-628.1681 695.3037,-630.0373 688.3168,-622.0727 684.875,-628.1681"/>
</g>
<!-- Node396664&#45;&gt;Node396565 -->
<g id="edge49" class="edge">
<title>Node396664&#45;&gt;Node396565</title>
<path fill="none" stroke="#191970" d="M438.6314,-418.6434C445.4979,-421.4117 452.0525,-425.2824 457,-430.6947 502.3834,-480.3414 459.9999,-519.0821 493,-577.6947 503.2046,-595.8194 520.179,-612.2592 533.7893,-623.6491"/>
<polygon fill="#191970" stroke="#191970" points="531.7566,-626.5062 541.7382,-630.0583 536.1503,-621.0568 531.7566,-626.5062"/>
</g>
<!-- Node396664&#45;&gt;Node396462 -->
<g id="edge52" class="edge">
<title>Node396664&#45;&gt;Node396462</title>
<path fill="none" stroke="#191970" d="M438.8379,-418.9399C485.0951,-425.7333 564.2385,-429.9697 617,-392.6947 681.9037,-346.8413 703.6241,-245.803 710.0675,-203.2239"/>
<polygon fill="#191970" stroke="#191970" points="713.5381,-203.6775 711.4488,-193.2907 706.6048,-202.7133 713.5381,-203.6775"/>
</g>
<!-- Node396818&#45;&gt;Node396461 -->
<g id="edge57" class="edge">
<title>Node396818&#45;&gt;Node396461</title>
<path fill="none" stroke="#191970" d="M441.2507,-896.1487C499.7224,-881.8255 603.49,-855.2261 617,-843.6947 675.4536,-793.8018 700.4408,-700.2908 708.8962,-659.533"/>
<polygon fill="#191970" stroke="#191970" points="712.3707,-660.0023 710.8568,-649.5162 705.5011,-658.6577 712.3707,-660.0023"/>
</g>
<!-- Node396818&#45;&gt;Node396454 -->
<g id="edge56" class="edge">
<title>Node396818&#45;&gt;Node396454</title>
<path fill="none" stroke="#191970" d="M414.3233,-896.1712C440.6684,-876.6054 501.1256,-831.7056 533.5404,-807.6321"/>
<polygon fill="#191970" stroke="#191970" points="535.9464,-810.2049 541.8878,-801.4327 531.7728,-804.5852 535.9464,-810.2049"/>
</g>
<!-- Node396819 -->
<g id="node29" class="node">
<title>Node396819</title>
<g id="a_node29"><a xlink:href="quickjs_8c.html#a07acd485a57197356906928a788a0644" target="_top" xlink:title="JS_ToLengthFree">
<polygon fill="none" stroke="#ff0000" points="508,-896.1947 508,-915.1947 602,-915.1947 602,-896.1947 508,-896.1947"/>
<text text-anchor="middle" x="555" y="-903.1947" font-family="Helvetica,sans-Serif" font-size="10.00" fill="#000000">JS_ToLengthFree</text>
</a>
</g>
</g>
<!-- Node396818&#45;&gt;Node396819 -->
<g id="edge58" class="edge">
<title>Node396818&#45;&gt;Node396819</title>
<path fill="none" stroke="#191970" d="M444.2583,-905.6947C460.7951,-905.6947 479.9702,-905.6947 497.6703,-905.6947"/>
<polygon fill="#191970" stroke="#191970" points="497.8904,-909.1948 507.8903,-905.6947 497.8903,-902.1948 497.8904,-909.1948"/>
</g>
<!-- Node396819&#45;&gt;Node396443 -->
<g id="edge59" class="edge">
<title>Node396819&#45;&gt;Node396443</title>
<path fill="none" stroke="#191970" d="M602.2552,-905.6947C621.5337,-905.6947 643.8271,-905.6947 663.3007,-905.6947"/>
<polygon fill="#191970" stroke="#191970" points="663.4932,-909.1948 673.4931,-905.6947 663.4931,-902.1948 663.4932,-909.1948"/>
</g>
<!-- Node396660&#45;&gt;Node396393 -->
<g id="edge65" class="edge">
<title>Node396660&#45;&gt;Node396393</title>
<path fill="none" stroke="#191970" d="M593.1264,-78.8934C614.2214,-83.983 640.6719,-90.3647 663.31,-95.8266"/>
<polygon fill="#191970" stroke="#191970" points="662.538,-99.2407 673.08,-98.1838 664.1798,-92.436 662.538,-99.2407"/>
</g>
<!-- Node396660&#45;&gt;Node396462 -->
<g id="edge64" class="edge">
<title>Node396660&#45;&gt;Node396462</title>
<path fill="none" stroke="#191970" d="M586.7168,-79.2933C596.7953,-83.0338 607.7246,-87.8465 617,-93.6947 621.4317,-96.4889 668.8126,-141.7454 695.1251,-166.9921"/>
<polygon fill="#191970" stroke="#191970" points="692.9065,-169.7141 702.5437,-174.1157 697.7548,-164.6649 692.9065,-169.7141"/>
</g>
</g>
</svg>
        <g id="navigator" transform="translate(0 0)" fill="#404254">
                <rect fill="#f2f5e9" fill-opacity="0.5" stroke="#606060" stroke-width=".5" x="0" y="0" width="60" height="60"/>
                <use id="zoomplus" xlink:href="#zoomPlus" x="17" y="9" onmousedown="handleZoom(evt,'in')"/>
                <use id="zoomminus" xlink:href="#zoomMin" x="42" y="9" onmousedown="handleZoom(evt,'out')"/>
                <use id="reset" xlink:href="#resetDef" x="30" y="36" onmousedown="handleReset()"/>
                <g id="arrowUp" xlink:href="#dirArrow" transform="translate(30 24)" onmousedown="handlePan(0,-1)">
                  <use xlink:href="#rim" fill="#404040">
                        <set attributeName="fill" to="#808080" begin="arrowUp.mouseover" end="arrowUp.mouseout"/>
                  </use>
                  <path fill="none" stroke="white" stroke-width="1.5" d="M0,-3.0v7 M-2.5,-0.5L0,-3.0L2.5,-0.5"/>
                </g>
                <g id="arrowRight" xlink:href="#dirArrow" transform="rotate(90) translate(36 -43)" onmousedown="handlePan(1,0)">
                  <use xlink:href="#rim" fill="#404040">
                        <set attributeName="fill" to="#808080" begin="arrowRight.mouseover" end="arrowRight.mouseout"/>
                  </use>
                  <path fill="none" stroke="white" stroke-width="1.5" d="M0,-3.0v7 M-2.5,-0.5L0,-3.0L2.5,-0.5"/>
                </g>
                <g id="arrowDown" xlink:href="#dirArrow" transform="rotate(180) translate(-30 -48)" onmousedown="handlePan(0,1)">
                  <use xlink:href="#rim" fill="#404040">
                        <set attributeName="fill" to="#808080" begin="arrowDown.mouseover" end="arrowDown.mouseout"/>
                  </use>
                  <path fill="none" stroke="white" stroke-width="1.5" d="M0,-3.0v7 M-2.5,-0.5L0,-3.0L2.5,-0.5"/>
                </g>
                <g id="arrowLeft" xlink:href="#dirArrow" transform="rotate(270) translate(-36 17)" onmousedown="handlePan(-1,0)">
                  <use xlink:href="#rim" fill="#404040">
                        <set attributeName="fill" to="#808080" begin="arrowLeft.mouseover" end="arrowLeft.mouseout"/>
                  </use>
                  <path fill="none" stroke="white" stroke-width="1.5" d="M0,-3.0v7 M-2.5,-0.5L0,-3.0L2.5,-0.5"/>
                </g>
        </g>
        <svg viewBox="0 0 15 15" width="100%" height="30px" preserveAspectRatio="xMaxYMin meet">
         <g id="arrow_out" transform="scale(0.3 0.3)">
          <a xlink:href="quickjs_8c_a9dd41b086da4e13b3487cc9c6e2af2b8_cgraph_org.svg" target="_base">
           <rect id="button" ry="5" rx="5" y="6" x="6" height="38" width="38"
                fill="#f2f5e9" fill-opacity="0.5" stroke="#606060" stroke-width="1.0"/>
           <path id="arrow"
             d="M 11.500037,31.436501 C 11.940474,20.09759 22.043105,11.32322 32.158766,21.979434 L 37.068811,17.246167 C 37.068811,17.246167 37.088388,32 37.088388,32 L 22.160133,31.978069 C 22.160133,31.978069 26.997745,27.140456 26.997745,27.140456 C 18.528582,18.264221 13.291696,25.230495 11.500037,31.436501 z"
             style="fill:#404040;"/>
          </a>
         </g>
        </svg>
</svg>
