<?xml version="1.0" encoding="UTF-8" standalone="no"?>
<!DOCTYPE svg PUBLIC "-//W3C//DTD SVG 1.1//EN"
 "http://www.w3.org/Graphics/SVG/1.1/DTD/svg11.dtd">
<!-- Generated by graphviz version 2.40.1 (20161225.0304)
 -->
<!-- Title: js_object_isSealed Pages: 1 -->
<!--zoomable 615 -->
<svg id="main" version="1.1" xmlns="http://www.w3.org/2000/svg" xmlns:xlink="http://www.w3.org/1999/xlink" xml:space="preserve" onload="init(evt)">
<style type="text/css"><![CDATA[
.edge:hover path { stroke: red; }
.edge:hover polygon { stroke: red; fill: red; }
]]></style>
<script type="text/javascript"><![CDATA[
var edges = document.getElementsByTagName('g');
if (edges && edges.length) {
  for (var i=0;i<edges.length;i++) {
    if (edges[i].id.substr(0,4)=='edge') {
      edges[i].setAttribute('class','edge');
    }
  }
}
]]></script>
        <defs>
                <circle id="rim" cx="0" cy="0" r="7"/>
                <circle id="rim2" cx="0" cy="0" r="3.5"/>
                <g id="zoomPlus">
                        <use xlink:href="#rim" fill="#404040">
                                <set attributeName="fill" to="#808080" begin="zoomplus.mouseover" end="zoomplus.mouseout"/>
                        </use>
                        <path d="M-4,0h8M0,-4v8" fill="none" stroke="white" stroke-width="1.5" pointer-events="none"/>
                </g>
                <g id="zoomMin">
                        <use xlink:href="#rim" fill="#404040">
                                <set attributeName="fill" to="#808080" begin="zoomminus.mouseover" end="zoomminus.mouseout"/>
                        </use>
                        <path d="M-4,0h8" fill="none" stroke="white" stroke-width="1.5" pointer-events="none"/>
                </g>
                <g id="dirArrow">
                        <path fill="none" stroke="white" stroke-width="1.5" d="M0,-3.0v7 M-2.5,-0.5L0,-3.0L2.5,-0.5"/>
                </g>
               <g id="resetDef">
                       <use xlink:href="#rim2" fill="#404040">
                               <set attributeName="fill" to="#808080" begin="reset.mouseover" end="reset.mouseout"/>
                       </use>
               </g>
        </defs>

<script type="text/javascript">
var viewWidth = 1150;
var viewHeight = 615;
var sectionId = 'dynsection-1426';
</script>
<script xlink:href="svgpan.js"/>
<svg id="graph" class="graph">
<g id="viewport">
<title>js_object_isSealed</title>
<!-- Node381610 -->
<g id="node1" class="node">
<title>Node381610</title>
<polygon fill="#bfbfbf" stroke="#000000" points="0,-152.5 0,-171.5 98,-171.5 98,-152.5 0,-152.5"/>
<text text-anchor="middle" x="49" y="-159.5" font-family="Helvetica,sans-Serif" font-size="10.00" fill="#000000">js_object_isSealed</text>
</g>
<!-- Node381611 -->
<g id="node2" class="node">
<title>Node381611</title>
<g id="a_node2"><a xlink:href="quickjs_8c.html#adfe21c674d998ca6586b7f7400352dc4" target="_top" xlink:title="js_free_desc">
<polygon fill="none" stroke="#000000" points="373.5,-347.5 373.5,-366.5 445.5,-366.5 445.5,-347.5 373.5,-347.5"/>
<text text-anchor="middle" x="409.5" y="-354.5" font-family="Helvetica,sans-Serif" font-size="10.00" fill="#000000">js_free_desc</text>
</a>
</g>
</g>
<!-- Node381610&#45;&gt;Node381611 -->
<g id="edge1" class="edge">
<title>Node381610&#45;&gt;Node381611</title>
<path fill="none" stroke="#191970" d="M54.2554,-171.6239C65.9185,-192.1152 95.9662,-240.3556 134,-267 205.1445,-316.84 305.6205,-340.3882 363.5151,-350.4397"/>
<polygon fill="#191970" stroke="#191970" points="363.0264,-353.9065 373.4672,-352.107 364.183,-347.0027 363.0264,-353.9065"/>
</g>
<!-- Node381650 -->
<g id="node5" class="node">
<title>Node381650</title>
<g id="a_node5"><a xlink:href="quickjs_8c.html#a6b42cd922447e1eb6bfc52761895a174" target="_top" xlink:title="js_free_prop_enum">
<polygon fill="none" stroke="#000000" points="360,-.5 360,-19.5 459,-19.5 459,-.5 360,-.5"/>
<text text-anchor="middle" x="409.5" y="-7.5" font-family="Helvetica,sans-Serif" font-size="10.00" fill="#000000">js_free_prop_enum</text>
</a>
</g>
</g>
<!-- Node381610&#45;&gt;Node381650 -->
<g id="edge4" class="edge">
<title>Node381610&#45;&gt;Node381650</title>
<path fill="none" stroke="#191970" d="M89.1718,-171.5069C143.8792,-181.9349 242.0741,-191.368 304,-143 344.2073,-111.5956 304.1691,-70.3182 340,-34 343.9223,-30.0244 348.5337,-26.7067 353.4843,-23.9382"/>
<polygon fill="#191970" stroke="#191970" points="355.1833,-27.0051 362.6859,-19.5243 352.1558,-20.6936 355.1833,-27.0051"/>
</g>
<!-- Node381651 -->
<g id="node8" class="node">
<title>Node381651</title>
<g id="a_node8"><a xlink:href="quickjs_8c.html#ad13892c0a0f11781b566808876658099" target="_top" xlink:title="JS_GetOwnPropertyInternal">
<polygon fill="none" stroke="#000000" points="340,-309.5 340,-328.5 479,-328.5 479,-309.5 340,-309.5"/>
<text text-anchor="middle" x="409.5" y="-316.5" font-family="Helvetica,sans-Serif" font-size="10.00" fill="#000000">JS_GetOwnPropertyInternal</text>
</a>
</g>
</g>
<!-- Node381610&#45;&gt;Node381651 -->
<g id="edge7" class="edge">
<title>Node381610&#45;&gt;Node381651</title>
<path fill="none" stroke="#191970" d="M61.3665,-171.7046C77.4066,-183.9521 106.5871,-205.0941 134,-219 211.9633,-258.5488 309.3669,-290.0538 365.0024,-306.4989"/>
<polygon fill="#191970" stroke="#191970" points="364.31,-309.943 374.8906,-309.3928 366.2763,-303.2248 364.31,-309.943"/>
</g>
<!-- Node381924 -->
<g id="node25" class="node">
<title>Node381924</title>
<g id="a_node25"><a xlink:href="quickjs_8c.html#a176ac5ff56a118a0b1b2566798d28823" target="_top" xlink:title="JS_GetOwnPropertyNamesInternal">
<polygon fill="none" stroke="#ff0000" points="134,-190.5 134,-209.5 304,-209.5 304,-190.5 134,-190.5"/>
<text text-anchor="middle" x="219" y="-197.5" font-family="Helvetica,sans-Serif" font-size="10.00" fill="#000000">JS_GetOwnPropertyNamesInternal</text>
</a>
</g>
</g>
<!-- Node381610&#45;&gt;Node381924 -->
<g id="edge29" class="edge">
<title>Node381610&#45;&gt;Node381924</title>
<path fill="none" stroke="#191970" d="M91.8982,-171.589C114.5336,-176.6487 142.4982,-182.8996 166.4287,-188.2488"/>
<polygon fill="#191970" stroke="#191970" points="165.8876,-191.7141 176.4103,-190.4799 167.4147,-184.8827 165.8876,-191.7141"/>
</g>
<!-- Node381824 -->
<g id="node26" class="node">
<title>Node381824</title>
<g id="a_node26"><a xlink:href="quickjs_8c.html#a17c92ef7fbad6a6029f6aa933d669624" target="_top" xlink:title="JS_IsExtensible">
<polygon fill="none" stroke="#ff0000" points="175,-114.5 175,-133.5 263,-133.5 263,-114.5 175,-114.5"/>
<text text-anchor="middle" x="219" y="-121.5" font-family="Helvetica,sans-Serif" font-size="10.00" fill="#000000">JS_IsExtensible</text>
</a>
</g>
</g>
<!-- Node381610&#45;&gt;Node381824 -->
<g id="edge40" class="edge">
<title>Node381610&#45;&gt;Node381824</title>
<path fill="none" stroke="#191970" d="M91.8982,-152.411C114.5336,-147.3513 142.4982,-141.1004 166.4287,-135.7512"/>
<polygon fill="#191970" stroke="#191970" points="167.4147,-139.1173 176.4103,-133.5201 165.8876,-132.2859 167.4147,-139.1173"/>
</g>
<!-- Node381896 -->
<g id="node27" class="node">
<title>Node381896</title>
<g id="a_node27"><a xlink:href="quickjs_8h.html#a3d68fe446df2d9c7d1900b16371bff5b" target="_top" xlink:title="JS_IsObject">
<polygon fill="none" stroke="#000000" points="183.5,-76.5 183.5,-95.5 254.5,-95.5 254.5,-76.5 183.5,-76.5"/>
<text text-anchor="middle" x="219" y="-83.5" font-family="Helvetica,sans-Serif" font-size="10.00" fill="#000000">JS_IsObject</text>
</a>
</g>
</g>
<!-- Node381610&#45;&gt;Node381896 -->
<g id="edge41" class="edge">
<title>Node381610&#45;&gt;Node381896</title>
<path fill="none" stroke="#191970" d="M60.2951,-152.3922C75.8632,-139.648 105.2623,-117.3305 134,-105 146.2806,-99.7308 160.212,-95.8353 173.191,-92.993"/>
<polygon fill="#191970" stroke="#191970" points="174.2413,-96.3513 183.3459,-90.9332 172.8497,-89.491 174.2413,-96.3513"/>
</g>
<!-- Node381990 -->
<g id="node28" class="node">
<title>Node381990</title>
<g id="a_node28"><a xlink:href="quickjs_8h.html#a93abffa925714e249a6aa2f4ae7900f6" target="_top" xlink:title="JS_NewBool">
<polygon fill="none" stroke="#000000" points="182,-38.5 182,-57.5 256,-57.5 256,-38.5 182,-38.5"/>
<text text-anchor="middle" x="219" y="-45.5" font-family="Helvetica,sans-Serif" font-size="10.00" fill="#000000">JS_NewBool</text>
</a>
</g>
</g>
<!-- Node381610&#45;&gt;Node381990 -->
<g id="edge42" class="edge">
<title>Node381610&#45;&gt;Node381990</title>
<path fill="none" stroke="#191970" d="M54.6527,-152.4069C66.6353,-132.9734 96.5828,-88.9437 134,-67 145.3214,-60.3605 158.7369,-56.039 171.5251,-53.2271"/>
<polygon fill="#191970" stroke="#191970" points="172.4408,-56.6149 181.5944,-51.2801 171.1118,-49.7422 172.4408,-56.6149"/>
</g>
<!-- Node381612 -->
<g id="node3" class="node">
<title>Node381612</title>
<g id="a_node3"><a xlink:href="quickjs_8h.html#afaa20c47565bc704c6c85f3d77254e7d" target="_top" xlink:title="JS_FreeValue">
<polygon fill="none" stroke="#000000" points="918.5,-537.5 918.5,-556.5 996.5,-556.5 996.5,-537.5 918.5,-537.5"/>
<text text-anchor="middle" x="957.5" y="-544.5" font-family="Helvetica,sans-Serif" font-size="10.00" fill="#000000">JS_FreeValue</text>
</a>
</g>
</g>
<!-- Node381611&#45;&gt;Node381612 -->
<g id="edge2" class="edge">
<title>Node381611&#45;&gt;Node381612</title>
<path fill="none" stroke="#191970" d="M410.8695,-366.8553C416.309,-401.7445 439.8836,-519.7735 515,-566 646.9265,-647.1872 845.2429,-588.8304 923.7628,-560.2771"/>
<polygon fill="#191970" stroke="#191970" points="925.4405,-563.3878 933.5976,-556.6267 923.0046,-556.8252 925.4405,-563.3878"/>
</g>
<!-- Node381613 -->
<g id="node4" class="node">
<title>Node381613</title>
<g id="a_node4"><a xlink:href="quickjs_8c.html#aa059f309c30fd5166d16c82a97973146" target="_top" xlink:title="__JS_FreeValue">
<polygon fill="none" stroke="#ff0000" points="1053,-537.5 1053,-556.5 1142,-556.5 1142,-537.5 1053,-537.5"/>
<text text-anchor="middle" x="1097.5" y="-544.5" font-family="Helvetica,sans-Serif" font-size="10.00" fill="#000000">__JS_FreeValue</text>
</a>
</g>
</g>
<!-- Node381612&#45;&gt;Node381613 -->
<g id="edge3" class="edge">
<title>Node381612&#45;&gt;Node381613</title>
<path fill="none" stroke="#191970" d="M996.8704,-547C1010.9984,-547 1027.2,-547 1042.4155,-547"/>
<polygon fill="#191970" stroke="#191970" points="1042.7543,-550.5001 1052.7542,-547 1042.7542,-543.5001 1042.7543,-550.5001"/>
</g>
<!-- Node381633 -->
<g id="node6" class="node">
<title>Node381633</title>
<g id="a_node6"><a xlink:href="quickjs_8c.html#a80e54dcf9ac687d4ccc2f90273565f30" target="_top" xlink:title="js_free">
<polygon fill="none" stroke="#ff0000" points="582,-63.5 582,-82.5 628,-82.5 628,-63.5 582,-63.5"/>
<text text-anchor="middle" x="605" y="-70.5" font-family="Helvetica,sans-Serif" font-size="10.00" fill="#000000">js_free</text>
</a>
</g>
</g>
<!-- Node381650&#45;&gt;Node381633 -->
<g id="edge5" class="edge">
<title>Node381650&#45;&gt;Node381633</title>
<path fill="none" stroke="#191970" d="M439.1922,-19.5683C474.9277,-31.0841 534.7543,-50.3633 571.9321,-62.3438"/>
<polygon fill="#191970" stroke="#191970" points="571.1871,-65.781 581.7787,-65.5169 573.3342,-59.1184 571.1871,-65.781"/>
</g>
<!-- Node381634 -->
<g id="node7" class="node">
<title>Node381634</title>
<g id="a_node7"><a xlink:href="quickjs_8c.html#ab7fc45a99935a1c0ba50b0216d9401a9" target="_top" xlink:title="JS_FreeAtom">
<polygon fill="none" stroke="#ff0000" points="566.5,-12.5 566.5,-31.5 643.5,-31.5 643.5,-12.5 566.5,-12.5"/>
<text text-anchor="middle" x="605" y="-19.5" font-family="Helvetica,sans-Serif" font-size="10.00" fill="#000000">JS_FreeAtom</text>
</a>
</g>
</g>
<!-- Node381650&#45;&gt;Node381634 -->
<g id="edge6" class="edge">
<title>Node381650&#45;&gt;Node381634</title>
<path fill="none" stroke="#191970" d="M459.0856,-13.0436C488.8361,-14.8697 526.522,-17.1829 556.1417,-19.001"/>
<polygon fill="#191970" stroke="#191970" points="556.0603,-22.5025 566.2559,-19.6218 556.4892,-15.5157 556.0603,-22.5025"/>
</g>
<!-- Node381652 -->
<g id="node9" class="node">
<title>Node381652</title>
<g id="a_node9"><a xlink:href="quickjs_8c.html#a288254c06a39c9fca740a7abdad2834e" target="_top" xlink:title="__JS_AtomIsTaggedInt">
<polygon fill="none" stroke="#000000" points="898,-413.5 898,-432.5 1017,-432.5 1017,-413.5 898,-413.5"/>
<text text-anchor="middle" x="957.5" y="-420.5" font-family="Helvetica,sans-Serif" font-size="10.00" fill="#000000">__JS_AtomIsTaggedInt</text>
</a>
</g>
</g>
<!-- Node381651&#45;&gt;Node381652 -->
<g id="edge8" class="edge">
<title>Node381651&#45;&gt;Node381652</title>
<path fill="none" stroke="#191970" d="M452.8975,-328.5505C461.7207,-331.1303 470.804,-334.2666 479,-338 496.4996,-345.9713 497.02,-355.181 515,-362 549.093,-374.93 771.9227,-401.7851 887.7723,-415.1261"/>
<polygon fill="#191970" stroke="#191970" points="887.6272,-418.6324 897.9612,-416.2964 888.426,-411.6781 887.6272,-418.6324"/>
</g>
<!-- Node381653 -->
<g id="node10" class="node">
<title>Node381653</title>
<g id="a_node10"><a xlink:href="quickjs_8c.html#a89f38938cee8077ce1fbba07946ed185" target="_top" xlink:title="__JS_AtomToUInt32">
<polygon fill="none" stroke="#000000" points="903.5,-375.5 903.5,-394.5 1011.5,-394.5 1011.5,-375.5 903.5,-375.5"/>
<text text-anchor="middle" x="957.5" y="-382.5" font-family="Helvetica,sans-Serif" font-size="10.00" fill="#000000">__JS_AtomToUInt32</text>
</a>
</g>
</g>
<!-- Node381651&#45;&gt;Node381653 -->
<g id="edge9" class="edge">
<title>Node381651&#45;&gt;Node381653</title>
<path fill="none" stroke="#191970" d="M458.2287,-328.5356C476.0458,-331.8212 496.3925,-335.3398 515,-338 648.9356,-357.1479 806.709,-372.0934 893.0233,-379.6251"/>
<polygon fill="#191970" stroke="#191970" points="892.9237,-383.1295 903.1888,-380.5066 893.5286,-376.1557 892.9237,-383.1295"/>
</g>
<!-- Node381654 -->
<g id="node11" class="node">
<title>Node381654</title>
<g id="a_node11"><a xlink:href="quickjs_8c.html#a06b76f5124fd985e35f4c652fd018d6d" target="_top" xlink:title="find_own_property">
<polygon fill="none" stroke="#000000" points="557,-309.5 557,-328.5 653,-328.5 653,-309.5 557,-309.5"/>
<text text-anchor="middle" x="605" y="-316.5" font-family="Helvetica,sans-Serif" font-size="10.00" fill="#000000">find_own_property</text>
</a>
</g>
</g>
<!-- Node381651&#45;&gt;Node381654 -->
<g id="edge10" class="edge">
<title>Node381651&#45;&gt;Node381654</title>
<path fill="none" stroke="#191970" d="M479.252,-319C501.3035,-319 525.4311,-319 546.6023,-319"/>
<polygon fill="#191970" stroke="#191970" points="546.7359,-322.5001 556.7359,-319 546.7359,-315.5001 546.7359,-322.5001"/>
</g>
<!-- Node381655 -->
<g id="node14" class="node">
<title>Node381655</title>
<g id="a_node14"><a xlink:href="quickjs_8c.html#add3eea1f6d626963ade3c28a1fd563d1" target="_top" xlink:title="JS_AtomIsNumericIndex">
<polygon fill="none" stroke="#000000" points="542,-461.5 542,-480.5 668,-480.5 668,-461.5 542,-461.5"/>
<text text-anchor="middle" x="605" y="-468.5" font-family="Helvetica,sans-Serif" font-size="10.00" fill="#000000">JS_AtomIsNumericIndex</text>
</a>
</g>
</g>
<!-- Node381651&#45;&gt;Node381655 -->
<g id="edge13" class="edge">
<title>Node381651&#45;&gt;Node381655</title>
<path fill="none" stroke="#191970" d="M465.3849,-328.6599C470.3766,-331.1199 475.033,-334.1849 479,-338 517.2964,-374.8306 475.6374,-416.3112 515,-452 520.0872,-456.6124 526.0046,-460.2113 532.3298,-463.0072"/>
<polygon fill="#191970" stroke="#191970" points="531.2469,-466.3388 541.8396,-466.5533 533.6927,-459.7799 531.2469,-466.3388"/>
</g>
<!-- Node381735 -->
<g id="node18" class="node">
<title>Node381735</title>
<g id="a_node18"><a xlink:href="quickjs_8c.html#a23b7fe57d08a1b3b39ba556f9cbb6c76" target="_top" xlink:title="JS_AutoInitProperty">
<polygon fill="none" stroke="#ff0000" points="553,-537.5 553,-556.5 657,-556.5 657,-537.5 553,-537.5"/>
<text text-anchor="middle" x="605" y="-544.5" font-family="Helvetica,sans-Serif" font-size="10.00" fill="#000000">JS_AutoInitProperty</text>
</a>
</g>
</g>
<!-- Node381651&#45;&gt;Node381735 -->
<g id="edge22" class="edge">
<title>Node381651&#45;&gt;Node381735</title>
<path fill="none" stroke="#191970" d="M466.53,-328.542C471.1705,-331.0355 475.4359,-334.1402 479,-338 537.3071,-401.1438 454.8618,-466.5976 515,-528 522.614,-535.7741 532.5511,-540.7558 543.0352,-543.8808"/>
<polygon fill="#191970" stroke="#191970" points="542.2215,-547.2849 552.7662,-546.2556 543.8811,-540.4845 542.2215,-547.2849"/>
</g>
<!-- Node381667 -->
<g id="node19" class="node">
<title>Node381667</title>
<g id="a_node19"><a xlink:href="quickjs_8h.html#a775522f2d084fc8fa0fcb33f390006b4" target="_top" xlink:title="JS_DupValue">
<polygon fill="none" stroke="#000000" points="566.5,-499.5 566.5,-518.5 643.5,-518.5 643.5,-499.5 566.5,-499.5"/>
<text text-anchor="middle" x="605" y="-506.5" font-family="Helvetica,sans-Serif" font-size="10.00" fill="#000000">JS_DupValue</text>
</a>
</g>
</g>
<!-- Node381651&#45;&gt;Node381667 -->
<g id="edge23" class="edge">
<title>Node381651&#45;&gt;Node381667</title>
<path fill="none" stroke="#191970" d="M466.0139,-328.5387C470.8196,-331.0273 475.2624,-334.132 479,-338 527.2413,-387.9252 465.3118,-441.5146 515,-490 525.9581,-500.6928 541.3316,-506.0414 556.2764,-508.5489"/>
<polygon fill="#191970" stroke="#191970" points="556.1302,-512.0588 566.4947,-509.8618 557.0222,-505.1159 556.1302,-512.0588"/>
</g>
<!-- Node381737 -->
<g id="node20" class="node">
<title>Node381737</title>
<g id="a_node20"><a xlink:href="quickjs_8c.html#aeb97957655d979e9fe56c955da2b2d4b" target="_top" xlink:title="JS_GetPropertyUint32">
<polygon fill="none" stroke="#ff0000" points="547.5,-423.5 547.5,-442.5 662.5,-442.5 662.5,-423.5 547.5,-423.5"/>
<text text-anchor="middle" x="605" y="-430.5" font-family="Helvetica,sans-Serif" font-size="10.00" fill="#000000">JS_GetPropertyUint32</text>
</a>
</g>
</g>
<!-- Node381651&#45;&gt;Node381737 -->
<g id="edge24" class="edge">
<title>Node381651&#45;&gt;Node381737</title>
<path fill="none" stroke="#191970" d="M463.0195,-328.5794C468.7725,-331.0389 474.2503,-334.126 479,-338 506.417,-360.362 487.5131,-386.7239 515,-409 521.6821,-414.4154 529.4725,-418.6165 537.6223,-421.8741"/>
<polygon fill="#191970" stroke="#191970" points="536.7148,-425.265 547.3096,-425.2811 539.0373,-418.6615 536.7148,-425.265"/>
</g>
<!-- Node381754 -->
<g id="node21" class="node">
<title>Node381754</title>
<g id="a_node21"><a xlink:href="quickjs_8h.html#aaab426b47c95d00479b7355b1cf7f56c" target="_top" xlink:title="JS_IsUninitialized">
<polygon fill="none" stroke="#000000" points="557.5,-271.5 557.5,-290.5 652.5,-290.5 652.5,-271.5 557.5,-271.5"/>
<text text-anchor="middle" x="605" y="-278.5" font-family="Helvetica,sans-Serif" font-size="10.00" fill="#000000">JS_IsUninitialized</text>
</a>
</g>
</g>
<!-- Node381651&#45;&gt;Node381754 -->
<g id="edge25" class="edge">
<title>Node381651&#45;&gt;Node381754</title>
<path fill="none" stroke="#191970" d="M458.5806,-309.46C485.4771,-304.2321 518.9739,-297.7212 547.1381,-292.2468"/>
<polygon fill="#191970" stroke="#191970" points="548.1026,-295.6249 557.251,-290.2811 546.7669,-288.7535 548.1026,-295.6249"/>
</g>
<!-- Node381762 -->
<g id="node22" class="node">
<title>Node381762</title>
<g id="a_node22"><a xlink:href="quickjs_8c.html#a75ac132a3af4de01e1fadeb0bede6ee7" target="_top" xlink:title="JS_ThrowReferenceErrorUninitialized">
<polygon fill="none" stroke="#ff0000" points="515,-233.5 515,-252.5 695,-252.5 695,-233.5 515,-233.5"/>
<text text-anchor="middle" x="605" y="-240.5" font-family="Helvetica,sans-Serif" font-size="10.00" fill="#000000">JS_ThrowReferenceErrorUninitialized</text>
</a>
</g>
</g>
<!-- Node381651&#45;&gt;Node381762 -->
<g id="edge26" class="edge">
<title>Node381651&#45;&gt;Node381762</title>
<path fill="none" stroke="#191970" d="M423.8916,-309.4778C443.6364,-296.8305 480.6026,-274.6225 515,-262 522.2734,-259.3309 530.0224,-256.9911 537.8054,-254.9517"/>
<polygon fill="#191970" stroke="#191970" points="538.7765,-258.3172 547.649,-252.5267 537.1021,-251.5204 538.7765,-258.3172"/>
</g>
<!-- Node381763 -->
<g id="node23" class="node">
<title>Node381763</title>
<g id="a_node23"><a xlink:href="quickjs_8c.html#a033dd3ebd29c4eb9f0baff1dd0fec0b1" target="_top" xlink:title="JS_ThrowTypeErrorDetached\lArrayBuffer">
<polygon fill="none" stroke="#000000" points="532,-184 532,-214 678,-214 678,-184 532,-184"/>
<text text-anchor="start" x="540" y="-202" font-family="Helvetica,sans-Serif" font-size="10.00" fill="#000000">JS_ThrowTypeErrorDetached</text>
<text text-anchor="middle" x="605" y="-191" font-family="Helvetica,sans-Serif" font-size="10.00" fill="#000000">ArrayBuffer</text>
</a>
</g>
</g>
<!-- Node381651&#45;&gt;Node381763 -->
<g id="edge27" class="edge">
<title>Node381651&#45;&gt;Node381763</title>
<path fill="none" stroke="#191970" d="M417.439,-309.3282C433.7086,-290.142 472.8676,-247.1272 515,-224 519.1359,-221.7297 523.4941,-219.6526 527.9708,-217.754"/>
<polygon fill="#191970" stroke="#191970" points="529.2578,-221.0089 537.2926,-214.103 526.7049,-214.491 529.2578,-221.0089"/>
</g>
<!-- Node381764 -->
<g id="node24" class="node">
<title>Node381764</title>
<g id="a_node24"><a xlink:href="quickjs_8c.html#a869fa88a646c0a1914ec2e559b193b5c" target="_top" xlink:title="typed_array_is_detached">
<polygon fill="none" stroke="#000000" points="542.5,-145.5 542.5,-164.5 667.5,-164.5 667.5,-145.5 542.5,-145.5"/>
<text text-anchor="middle" x="605" y="-152.5" font-family="Helvetica,sans-Serif" font-size="10.00" fill="#000000">typed_array_is_detached</text>
</a>
</g>
</g>
<!-- Node381651&#45;&gt;Node381764 -->
<g id="edge28" class="edge">
<title>Node381651&#45;&gt;Node381764</title>
<path fill="none" stroke="#191970" d="M413.5045,-309.3324C424.9746,-282.927 460.6563,-209.2115 515,-174 520.365,-170.5238 526.2528,-167.6702 532.3688,-165.3294"/>
<polygon fill="#191970" stroke="#191970" points="533.7569,-168.5555 542.125,-162.0574 531.5311,-161.9188 533.7569,-168.5555"/>
</g>
<!-- Node381640 -->
<g id="node12" class="node">
<title>Node381640</title>
<g id="a_node12"><a xlink:href="quickjs_8c.html#a643df594b75933007bcdbb071b5ea8c5" target="_top" xlink:title="get_shape_prop">
<polygon fill="none" stroke="#000000" points="753.5,-189.5 753.5,-208.5 839.5,-208.5 839.5,-189.5 753.5,-189.5"/>
<text text-anchor="middle" x="796.5" y="-196.5" font-family="Helvetica,sans-Serif" font-size="10.00" fill="#000000">get_shape_prop</text>
</a>
</g>
</g>
<!-- Node381654&#45;&gt;Node381640 -->
<g id="edge11" class="edge">
<title>Node381654&#45;&gt;Node381640</title>
<path fill="none" stroke="#191970" d="M653.0355,-314.1067C667.1478,-311.3076 682.2156,-306.9095 695,-300 733.2274,-279.3395 766.5724,-239.8051 783.8801,-216.8033"/>
<polygon fill="#191970" stroke="#191970" points="786.8052,-218.7333 789.8988,-208.6001 781.1613,-214.5924 786.8052,-218.7333"/>
</g>
<!-- Node381639 -->
<g id="node13" class="node">
<title>Node381639</title>
<g id="a_node13"><a xlink:href="quickjs_8c.html#acab22c2945c4d609e57a2484feb68a96" target="_top" xlink:title="prop_hash_end">
<polygon fill="none" stroke="#000000" points="755,-309.5 755,-328.5 838,-328.5 838,-309.5 755,-309.5"/>
<text text-anchor="middle" x="796.5" y="-316.5" font-family="Helvetica,sans-Serif" font-size="10.00" fill="#000000">prop_hash_end</text>
</a>
</g>
</g>
<!-- Node381654&#45;&gt;Node381639 -->
<g id="edge12" class="edge">
<title>Node381654&#45;&gt;Node381639</title>
<path fill="none" stroke="#191970" d="M653.3235,-319C681.152,-319 716.1309,-319 744.5489,-319"/>
<polygon fill="#191970" stroke="#191970" points="744.6964,-322.5001 754.6964,-319 744.6963,-315.5001 744.6964,-322.5001"/>
</g>
<!-- Node381655&#45;&gt;Node381612 -->
<g id="edge19" class="edge">
<title>Node381655&#45;&gt;Node381612</title>
<path fill="none" stroke="#191970" d="M658.249,-480.5229C670.4372,-483.176 683.258,-486.3494 695,-490 711.5519,-495.1459 714.3858,-500.059 731,-505 790.8728,-522.8061 861.9982,-534.5187 908.3592,-540.9451"/>
<polygon fill="#191970" stroke="#191970" points="908.0577,-544.4362 918.4375,-542.3128 908.9991,-537.4998 908.0577,-544.4362"/>
</g>
<!-- Node381656 -->
<g id="node15" class="node">
<title>Node381656</title>
<g id="a_node15"><a xlink:href="quickjs_8c.html#ab4e100a9cde5f7ec87c92f5e766dbbab" target="_top" xlink:title="JS_AtomIsNumericIndex1">
<polygon fill="none" stroke="#ff0000" points="731,-461.5 731,-480.5 862,-480.5 862,-461.5 731,-461.5"/>
<text text-anchor="middle" x="796.5" y="-468.5" font-family="Helvetica,sans-Serif" font-size="10.00" fill="#000000">JS_AtomIsNumericIndex1</text>
</a>
</g>
</g>
<!-- Node381655&#45;&gt;Node381656 -->
<g id="edge14" class="edge">
<title>Node381655&#45;&gt;Node381656</title>
<path fill="none" stroke="#191970" d="M668.235,-471C684.9921,-471 703.2568,-471 720.611,-471"/>
<polygon fill="#191970" stroke="#191970" points="720.7055,-474.5001 730.7054,-471 720.7054,-467.5001 720.7055,-474.5001"/>
</g>
<!-- Node381659 -->
<g id="node16" class="node">
<title>Node381659</title>
<g id="a_node16"><a xlink:href="quickjs_8h.html#ad80a83d73e9b7d872b88fbf2943aebe9" target="_top" xlink:title="JS_IsException">
<polygon fill="none" stroke="#000000" points="914.5,-480.5 914.5,-499.5 1000.5,-499.5 1000.5,-480.5 914.5,-480.5"/>
<text text-anchor="middle" x="957.5" y="-487.5" font-family="Helvetica,sans-Serif" font-size="10.00" fill="#000000">JS_IsException</text>
</a>
</g>
</g>
<!-- Node381655&#45;&gt;Node381659 -->
<g id="edge20" class="edge">
<title>Node381655&#45;&gt;Node381659</title>
<path fill="none" stroke="#191970" d="M656.298,-480.5136C679.0867,-484.2793 706.2924,-488.1476 731,-490 790.2405,-494.4414 858.4418,-493.6408 904.3967,-492.2384"/>
<polygon fill="#191970" stroke="#191970" points="904.5474,-495.7354 914.4282,-491.9118 904.3196,-488.7391 904.5474,-495.7354"/>
</g>
<!-- Node381832 -->
<g id="node17" class="node">
<title>Node381832</title>
<g id="a_node17"><a xlink:href="quickjs_8h.html#a4e407128a9605afb77523e49e9a627fd" target="_top" xlink:title="JS_IsUndefined">
<polygon fill="none" stroke="#000000" points="753.5,-423.5 753.5,-442.5 839.5,-442.5 839.5,-423.5 753.5,-423.5"/>
<text text-anchor="middle" x="796.5" y="-430.5" font-family="Helvetica,sans-Serif" font-size="10.00" fill="#000000">JS_IsUndefined</text>
</a>
</g>
</g>
<!-- Node381655&#45;&gt;Node381832 -->
<g id="edge21" class="edge">
<title>Node381655&#45;&gt;Node381832</title>
<path fill="none" stroke="#191970" d="M653.3235,-461.411C680.7573,-455.9672 715.1401,-449.1445 743.3357,-443.5496"/>
<polygon fill="#191970" stroke="#191970" points="744.2918,-446.9282 753.4192,-441.5487 742.9292,-440.0621 744.2918,-446.9282"/>
</g>
<!-- Node381656&#45;&gt;Node381612 -->
<g id="edge17" class="edge">
<title>Node381656&#45;&gt;Node381612</title>
<path fill="none" stroke="#191970" d="M816.8908,-480.6255C844.9565,-493.8739 895.6696,-517.813 927.9083,-533.0313"/>
<polygon fill="#191970" stroke="#191970" points="926.7376,-536.3489 937.2748,-537.4527 929.7258,-530.0188 926.7376,-536.3489"/>
</g>
<!-- Node381656&#45;&gt;Node381652 -->
<g id="edge15" class="edge">
<title>Node381656&#45;&gt;Node381652</title>
<path fill="none" stroke="#191970" d="M829.8451,-461.4146C840.161,-458.4257 851.5573,-455.1 862,-452 880.0515,-446.6413 899.9863,-440.6063 916.9527,-435.4349"/>
<polygon fill="#191970" stroke="#191970" points="918.0201,-438.7686 926.5626,-432.5014 915.9764,-432.0735 918.0201,-438.7686"/>
</g>
<!-- Node381656&#45;&gt;Node381653 -->
<g id="edge16" class="edge">
<title>Node381656&#45;&gt;Node381653</title>
<path fill="none" stroke="#191970" d="M843.2989,-461.4916C849.8993,-459.0156 856.3508,-455.9048 862,-452 883.9362,-436.8371 876.2686,-419.4551 898,-404 900.6952,-402.0832 903.5928,-400.3534 906.6063,-398.7933"/>
<polygon fill="#191970" stroke="#191970" points="908.2268,-401.9022 915.9078,-394.6048 905.3525,-395.5194 908.2268,-401.9022"/>
</g>
<!-- Node381656&#45;&gt;Node381659 -->
<g id="edge18" class="edge">
<title>Node381656&#45;&gt;Node381659</title>
<path fill="none" stroke="#191970" d="M862.4494,-478.7828C876.428,-480.4325 891.0121,-482.1536 904.4393,-483.7382"/>
<polygon fill="#191970" stroke="#191970" points="904.1112,-487.2237 914.4525,-484.9199 904.9316,-480.2719 904.1112,-487.2237"/>
</g>
<!-- Node381924&#45;&gt;Node381611 -->
<g id="edge32" class="edge">
<title>Node381924&#45;&gt;Node381611</title>
<path fill="none" stroke="#191970" d="M224.6755,-209.7533C239.911,-235.0461 284.3486,-303.1945 340,-338 347.0874,-342.4326 355.2106,-345.8457 363.3459,-348.4696"/>
<polygon fill="#191970" stroke="#191970" points="362.6291,-351.905 373.2063,-351.2941 364.5568,-345.1756 362.6291,-351.905"/>
</g>
<!-- Node381924&#45;&gt;Node381650 -->
<g id="edge33" class="edge">
<title>Node381924&#45;&gt;Node381650</title>
<path fill="none" stroke="#191970" d="M282.1827,-190.3929C290.3077,-186.9267 297.9033,-182.2629 304,-176 349.4148,-129.3469 295.9406,-81.9352 340,-34 343.5269,-30.1629 347.6966,-26.9392 352.2143,-24.2309"/>
<polygon fill="#191970" stroke="#191970" points="353.9278,-27.2862 361.2536,-19.6323 350.7537,-21.0471 353.9278,-27.2862"/>
</g>
<!-- Node381924&#45;&gt;Node381633 -->
<g id="edge31" class="edge">
<title>Node381924&#45;&gt;Node381633</title>
<path fill="none" stroke="#191970" d="M276.8897,-190.3921C286.6064,-186.963 296.0883,-182.3109 304,-176 330.121,-155.164 312.5192,-129.0066 340,-110 410.74,-61.074 517.7776,-63.5658 571.602,-68.6918"/>
<polygon fill="#191970" stroke="#191970" points="571.3217,-72.1815 581.6308,-69.7377 572.0478,-65.2192 571.3217,-72.1815"/>
</g>
<!-- Node381924&#45;&gt;Node381634 -->
<g id="edge34" class="edge">
<title>Node381924&#45;&gt;Node381634</title>
<path fill="none" stroke="#191970" d="M280.97,-190.3963C289.4648,-186.9426 297.4893,-182.2816 304,-176 341.6278,-139.6961 300.2969,-98.0219 340,-64 371.6444,-36.8836 488.5097,-27.155 556.0092,-23.7549"/>
<polygon fill="#191970" stroke="#191970" points="556.5752,-27.2321 566.398,-23.2619 556.2433,-20.24 556.5752,-27.2321"/>
</g>
<!-- Node381924&#45;&gt;Node381651 -->
<g id="edge35" class="edge">
<title>Node381924&#45;&gt;Node381651</title>
<path fill="none" stroke="#191970" d="M232.1125,-209.5616C248.9405,-221.9033 278.9526,-244.1537 304,-264 320.3241,-276.9345 321.9258,-283.651 340,-294 348.0903,-298.6324 357.1908,-302.65 366.0752,-306.0283"/>
<polygon fill="#191970" stroke="#191970" points="364.9784,-309.3533 375.5729,-309.4421 367.3462,-302.7659 364.9784,-309.3533"/>
</g>
<!-- Node381924&#45;&gt;Node381640 -->
<g id="edge30" class="edge">
<title>Node381924&#45;&gt;Node381640</title>
<path fill="none" stroke="#191970" d="M252.6656,-190.4498C282.3861,-182.0867 323.4815,-170.7075 340,-167 494.5336,-132.3154 542.6915,-92.5744 695,-136 726.825,-145.0738 758.4094,-167.3114 777.6894,-182.7779"/>
<polygon fill="#191970" stroke="#191970" points="775.6975,-185.6719 785.6386,-189.336 780.1523,-180.2723 775.6975,-185.6719"/>
</g>
<!-- Node381924&#45;&gt;Node381754 -->
<g id="edge36" class="edge">
<title>Node381924&#45;&gt;Node381754</title>
<path fill="none" stroke="#191970" d="M247.5869,-209.5716C271.9418,-217.4683 307.9805,-228.547 340,-236 410.6663,-252.4487 493.2444,-265.5163 547.1989,-273.2425"/>
<polygon fill="#191970" stroke="#191970" points="546.8711,-276.7309 557.2634,-274.6692 547.8536,-269.8002 546.8711,-276.7309"/>
</g>
<!-- Node381924&#45;&gt;Node381762 -->
<g id="edge37" class="edge">
<title>Node381924&#45;&gt;Node381762</title>
<path fill="none" stroke="#191970" d="M300.6766,-209.5199C313.8239,-211.0322 327.2863,-212.5689 340,-214 395.0744,-220.1996 456.6093,-226.9447 506.5096,-232.3684"/>
<polygon fill="#191970" stroke="#191970" points="506.332,-235.8697 516.6515,-233.47 507.0879,-228.9106 506.332,-235.8697"/>
</g>
<!-- Node381924&#45;&gt;Node381763 -->
<g id="edge38" class="edge">
<title>Node381924&#45;&gt;Node381763</title>
<path fill="none" stroke="#191970" d="M304.1872,-199.7793C368.8853,-199.6117 457.3826,-199.3824 521.6294,-199.216"/>
<polygon fill="#191970" stroke="#191970" points="521.7342,-202.7158 531.7251,-199.1898 521.716,-195.7158 521.7342,-202.7158"/>
</g>
<!-- Node381924&#45;&gt;Node381764 -->
<g id="edge39" class="edge">
<title>Node381924&#45;&gt;Node381764</title>
<path fill="none" stroke="#191970" d="M300.8607,-190.4567C369.3417,-182.4731 466.1414,-171.1882 532.0141,-163.5087"/>
<polygon fill="#191970" stroke="#191970" points="532.7842,-166.9427 542.3116,-162.3082 531.9736,-159.9898 532.7842,-166.9427"/>
</g>
</g>
</svg>
        <g id="navigator" transform="translate(0 0)" fill="#404254">
                <rect fill="#f2f5e9" fill-opacity="0.5" stroke="#606060" stroke-width=".5" x="0" y="0" width="60" height="60"/>
                <use id="zoomplus" xlink:href="#zoomPlus" x="17" y="9" onmousedown="handleZoom(evt,'in')"/>
                <use id="zoomminus" xlink:href="#zoomMin" x="42" y="9" onmousedown="handleZoom(evt,'out')"/>
                <use id="reset" xlink:href="#resetDef" x="30" y="36" onmousedown="handleReset()"/>
                <g id="arrowUp" xlink:href="#dirArrow" transform="translate(30 24)" onmousedown="handlePan(0,-1)">
                  <use xlink:href="#rim" fill="#404040">
                        <set attributeName="fill" to="#808080" begin="arrowUp.mouseover" end="arrowUp.mouseout"/>
                  </use>
                  <path fill="none" stroke="white" stroke-width="1.5" d="M0,-3.0v7 M-2.5,-0.5L0,-3.0L2.5,-0.5"/>
                </g>
                <g id="arrowRight" xlink:href="#dirArrow" transform="rotate(90) translate(36 -43)" onmousedown="handlePan(1,0)">
                  <use xlink:href="#rim" fill="#404040">
                        <set attributeName="fill" to="#808080" begin="arrowRight.mouseover" end="arrowRight.mouseout"/>
                  </use>
                  <path fill="none" stroke="white" stroke-width="1.5" d="M0,-3.0v7 M-2.5,-0.5L0,-3.0L2.5,-0.5"/>
                </g>
                <g id="arrowDown" xlink:href="#dirArrow" transform="rotate(180) translate(-30 -48)" onmousedown="handlePan(0,1)">
                  <use xlink:href="#rim" fill="#404040">
                        <set attributeName="fill" to="#808080" begin="arrowDown.mouseover" end="arrowDown.mouseout"/>
                  </use>
                  <path fill="none" stroke="white" stroke-width="1.5" d="M0,-3.0v7 M-2.5,-0.5L0,-3.0L2.5,-0.5"/>
                </g>
                <g id="arrowLeft" xlink:href="#dirArrow" transform="rotate(270) translate(-36 17)" onmousedown="handlePan(-1,0)">
                  <use xlink:href="#rim" fill="#404040">
                        <set attributeName="fill" to="#808080" begin="arrowLeft.mouseover" end="arrowLeft.mouseout"/>
                  </use>
                  <path fill="none" stroke="white" stroke-width="1.5" d="M0,-3.0v7 M-2.5,-0.5L0,-3.0L2.5,-0.5"/>
                </g>
        </g>
        <svg viewBox="0 0 15 15" width="100%" height="30px" preserveAspectRatio="xMaxYMin meet">
         <g id="arrow_out" transform="scale(0.3 0.3)">
          <a xlink:href="quickjs_8c_a43a4ecde0329def8ff22e9341c7b109d_cgraph_org.svg" target="_base">
           <rect id="button" ry="5" rx="5" y="6" x="6" height="38" width="38"
                fill="#f2f5e9" fill-opacity="0.5" stroke="#606060" stroke-width="1.0"/>
           <path id="arrow"
             d="M 11.500037,31.436501 C 11.940474,20.09759 22.043105,11.32322 32.158766,21.979434 L 37.068811,17.246167 C 37.068811,17.246167 37.088388,32 37.088388,32 L 22.160133,31.978069 C 22.160133,31.978069 26.997745,27.140456 26.997745,27.140456 C 18.528582,18.264221 13.291696,25.230495 11.500037,31.436501 z"
             style="fill:#404040;"/>
          </a>
         </g>
        </svg>
</svg>
