<?xml version="1.0" encoding="UTF-8" standalone="no"?>
<!DOCTYPE svg PUBLIC "-//W3C//DTD SVG 1.1//EN"
 "http://www.w3.org/Graphics/SVG/1.1/DTD/svg11.dtd">
<!-- Generated by graphviz version 2.40.1 (20161225.0304)
 -->
<!-- Title: JS_CheckGlobalVar Pages: 1 -->
<!--zoomable 237 -->
<svg id="main" version="1.1" xmlns="http://www.w3.org/2000/svg" xmlns:xlink="http://www.w3.org/1999/xlink" xml:space="preserve" onload="init(evt)">
<style type="text/css"><![CDATA[
.edge:hover path { stroke: red; }
.edge:hover polygon { stroke: red; fill: red; }
]]></style>
<script type="text/javascript"><![CDATA[
var edges = document.getElementsByTagName('g');
if (edges && edges.length) {
  for (var i=0;i<edges.length;i++) {
    if (edges[i].id.substr(0,4)=='edge') {
      edges[i].setAttribute('class','edge');
    }
  }
}
]]></script>
        <defs>
                <circle id="rim" cx="0" cy="0" r="7"/>
                <circle id="rim2" cx="0" cy="0" r="3.5"/>
                <g id="zoomPlus">
                        <use xlink:href="#rim" fill="#404040">
                                <set attributeName="fill" to="#808080" begin="zoomplus.mouseover" end="zoomplus.mouseout"/>
                        </use>
                        <path d="M-4,0h8M0,-4v8" fill="none" stroke="white" stroke-width="1.5" pointer-events="none"/>
                </g>
                <g id="zoomMin">
                        <use xlink:href="#rim" fill="#404040">
                                <set attributeName="fill" to="#808080" begin="zoomminus.mouseover" end="zoomminus.mouseout"/>
                        </use>
                        <path d="M-4,0h8" fill="none" stroke="white" stroke-width="1.5" pointer-events="none"/>
                </g>
                <g id="dirArrow">
                        <path fill="none" stroke="white" stroke-width="1.5" d="M0,-3.0v7 M-2.5,-0.5L0,-3.0L2.5,-0.5"/>
                </g>
               <g id="resetDef">
                       <use xlink:href="#rim2" fill="#404040">
                               <set attributeName="fill" to="#808080" begin="reset.mouseover" end="reset.mouseout"/>
                       </use>
               </g>
        </defs>

<script type="text/javascript">
var viewWidth = 876;
var viewHeight = 237;
var sectionId = 'dynsection-640';
</script>
<script xlink:href="svgpan.js"/>
<svg id="graph" class="graph">
<g id="viewport">
<title>JS_CheckGlobalVar</title>
<!-- Node219314 -->
<g id="node1" class="node">
<title>Node219314</title>
<polygon fill="#bfbfbf" stroke="#000000" points="0,-133.5 0,-152.5 105,-152.5 105,-133.5 0,-133.5"/>
<text text-anchor="middle" x="52.5" y="-140.5" font-family="Helvetica,sans-Serif" font-size="10.00" fill="#000000">JS_CheckGlobalVar</text>
</g>
<!-- Node219315 -->
<g id="node2" class="node">
<title>Node219315</title>
<g id="a_node2"><a xlink:href="quickjs_8c.html#afdc6d90129958f6258bae1505495869f" target="_top" xlink:title="find_own_property1">
<polygon fill="none" stroke="#000000" points="141,-171.5 141,-190.5 242,-190.5 242,-171.5 141,-171.5"/>
<text text-anchor="middle" x="191.5" y="-178.5" font-family="Helvetica,sans-Serif" font-size="10.00" fill="#000000">find_own_property1</text>
</a>
</g>
</g>
<!-- Node219314&#45;&gt;Node219315 -->
<g id="edge1" class="edge">
<title>Node219314&#45;&gt;Node219315</title>
<path fill="none" stroke="#191970" d="M87.5756,-152.589C105.5191,-157.4944 127.5584,-163.5196 146.7167,-168.7571"/>
<polygon fill="#191970" stroke="#191970" points="145.8666,-172.1531 156.4357,-171.4141 147.7126,-165.4008 145.8666,-172.1531"/>
</g>
<!-- Node219318 -->
<g id="node5" class="node">
<title>Node219318</title>
<g id="a_node5"><a xlink:href="quickjs_8c.html#a9d6d0a9704951d01c128975e0d2213f8" target="_top" xlink:title="JS_HasProperty">
<polygon fill="none" stroke="#000000" points="147,-95.5 147,-114.5 236,-114.5 236,-95.5 147,-95.5"/>
<text text-anchor="middle" x="191.5" y="-102.5" font-family="Helvetica,sans-Serif" font-size="10.00" fill="#000000">JS_HasProperty</text>
</a>
</g>
</g>
<!-- Node219314&#45;&gt;Node219318 -->
<g id="edge4" class="edge">
<title>Node219314&#45;&gt;Node219318</title>
<path fill="none" stroke="#191970" d="M87.5756,-133.411C105.5191,-128.5056 127.5584,-122.4804 146.7167,-117.2429"/>
<polygon fill="#191970" stroke="#191970" points="147.7126,-120.5992 156.4357,-114.5859 145.8666,-113.8469 147.7126,-120.5992"/>
</g>
<!-- Node219316 -->
<g id="node3" class="node">
<title>Node219316</title>
<g id="a_node3"><a xlink:href="quickjs_8c.html#a643df594b75933007bcdbb071b5ea8c5" target="_top" xlink:title="get_shape_prop">
<polygon fill="none" stroke="#000000" points="304.5,-209.5 304.5,-228.5 390.5,-228.5 390.5,-209.5 304.5,-209.5"/>
<text text-anchor="middle" x="347.5" y="-216.5" font-family="Helvetica,sans-Serif" font-size="10.00" fill="#000000">get_shape_prop</text>
</a>
</g>
</g>
<!-- Node219315&#45;&gt;Node219316 -->
<g id="edge2" class="edge">
<title>Node219315&#45;&gt;Node219316</title>
<path fill="none" stroke="#191970" d="M230.8654,-190.589C251.4513,-195.6035 276.8405,-201.7881 298.669,-207.1053"/>
<polygon fill="#191970" stroke="#191970" points="297.8734,-210.5137 308.4177,-209.4799 299.5302,-203.7126 297.8734,-210.5137"/>
</g>
<!-- Node219317 -->
<g id="node4" class="node">
<title>Node219317</title>
<g id="a_node4"><a xlink:href="quickjs_8c.html#acab22c2945c4d609e57a2484feb68a96" target="_top" xlink:title="prop_hash_end">
<polygon fill="none" stroke="#000000" points="306,-171.5 306,-190.5 389,-190.5 389,-171.5 306,-171.5"/>
<text text-anchor="middle" x="347.5" y="-178.5" font-family="Helvetica,sans-Serif" font-size="10.00" fill="#000000">prop_hash_end</text>
</a>
</g>
</g>
<!-- Node219315&#45;&gt;Node219317 -->
<g id="edge3" class="edge">
<title>Node219315&#45;&gt;Node219317</title>
<path fill="none" stroke="#191970" d="M242.1487,-181C259.2415,-181 278.3406,-181 295.5336,-181"/>
<polygon fill="#191970" stroke="#191970" points="295.9574,-184.5001 305.9574,-181 295.9573,-177.5001 295.9574,-184.5001"/>
</g>
<!-- Node219319 -->
<g id="node6" class="node">
<title>Node219319</title>
<g id="a_node6"><a xlink:href="quickjs_8c.html#add3eea1f6d626963ade3c28a1fd563d1" target="_top" xlink:title="JS_AtomIsNumericIndex">
<polygon fill="none" stroke="#000000" points="453,-28.5 453,-47.5 579,-47.5 579,-28.5 453,-28.5"/>
<text text-anchor="middle" x="516" y="-35.5" font-family="Helvetica,sans-Serif" font-size="10.00" fill="#000000">JS_AtomIsNumericIndex</text>
</a>
</g>
</g>
<!-- Node219318&#45;&gt;Node219319 -->
<g id="edge5" class="edge">
<title>Node219318&#45;&gt;Node219319</title>
<path fill="none" stroke="#191970" d="M201.9546,-95.3165C217.2806,-81.8182 247.3648,-57.8917 278,-48 331.2756,-30.798 394.7578,-28.9924 442.7551,-31.1102"/>
<polygon fill="#191970" stroke="#191970" points="442.5884,-34.6061 452.753,-31.6175 442.9432,-27.6151 442.5884,-34.6061"/>
</g>
<!-- Node219325 -->
<g id="node8" class="node">
<title>Node219325</title>
<g id="a_node8"><a xlink:href="quickjs_8h.html#afaa20c47565bc704c6c85f3d77254e7d" target="_top" xlink:title="JS_FreeValue">
<polygon fill="none" stroke="#ff0000" points="786,-57.5 786,-76.5 864,-76.5 864,-57.5 786,-57.5"/>
<text text-anchor="middle" x="825" y="-64.5" font-family="Helvetica,sans-Serif" font-size="10.00" fill="#000000">JS_FreeValue</text>
</a>
</g>
</g>
<!-- Node219318&#45;&gt;Node219325 -->
<g id="edge13" class="edge">
<title>Node219318&#45;&gt;Node219325</title>
<path fill="none" stroke="#191970" d="M227.6966,-114.5113C317.9252,-136.478 559.0169,-184.414 746,-124 770.4419,-116.1028 793.6877,-97.5142 808.5541,-83.6992"/>
<polygon fill="#191970" stroke="#191970" points="811.1343,-86.0733 815.9054,-76.6135 806.2765,-81.0333 811.1343,-86.0733"/>
</g>
<!-- Node219369 -->
<g id="node11" class="node">
<title>Node219369</title>
<g id="a_node11"><a xlink:href="quickjs_8h.html#a775522f2d084fc8fa0fcb33f390006b4" target="_top" xlink:title="JS_DupValue">
<polygon fill="none" stroke="#000000" points="477.5,-76.5 477.5,-95.5 554.5,-95.5 554.5,-76.5 477.5,-76.5"/>
<text text-anchor="middle" x="516" y="-83.5" font-family="Helvetica,sans-Serif" font-size="10.00" fill="#000000">JS_DupValue</text>
</a>
</g>
</g>
<!-- Node219318&#45;&gt;Node219369 -->
<g id="edge12" class="edge">
<title>Node219318&#45;&gt;Node219369</title>
<path fill="none" stroke="#191970" d="M236.2796,-102.3781C296.8879,-98.8294 404.6314,-92.5208 467.2312,-88.8555"/>
<polygon fill="#191970" stroke="#191970" points="467.4721,-92.3475 477.2504,-88.2689 467.0629,-85.3594 467.4721,-92.3475"/>
</g>
<!-- Node219618 -->
<g id="node12" class="node">
<title>Node219618</title>
<g id="a_node12"><a xlink:href="quickjs_8c.html#ad13892c0a0f11781b566808876658099" target="_top" xlink:title="JS_GetOwnPropertyInternal">
<polygon fill="none" stroke="#ff0000" points="278,-57.5 278,-76.5 417,-76.5 417,-57.5 278,-57.5"/>
<text text-anchor="middle" x="347.5" y="-64.5" font-family="Helvetica,sans-Serif" font-size="10.00" fill="#000000">JS_GetOwnPropertyInternal</text>
</a>
</g>
</g>
<!-- Node219318&#45;&gt;Node219618 -->
<g id="edge14" class="edge">
<title>Node219318&#45;&gt;Node219618</title>
<path fill="none" stroke="#191970" d="M230.8654,-95.411C251.4513,-90.3965 276.8405,-84.2119 298.669,-78.8947"/>
<polygon fill="#191970" stroke="#191970" points="299.5302,-82.2874 308.4177,-76.5201 297.8734,-75.4863 299.5302,-82.2874"/>
</g>
<!-- Node219320 -->
<g id="node7" class="node">
<title>Node219320</title>
<g id="a_node7"><a xlink:href="quickjs_8c.html#ab4e100a9cde5f7ec87c92f5e766dbbab" target="_top" xlink:title="JS_AtomIsNumericIndex1">
<polygon fill="none" stroke="#ff0000" points="615,-19.5 615,-38.5 746,-38.5 746,-19.5 615,-19.5"/>
<text text-anchor="middle" x="680.5" y="-26.5" font-family="Helvetica,sans-Serif" font-size="10.00" fill="#000000">JS_AtomIsNumericIndex1</text>
</a>
</g>
</g>
<!-- Node219319&#45;&gt;Node219320 -->
<g id="edge6" class="edge">
<title>Node219319&#45;&gt;Node219320</title>
<path fill="none" stroke="#191970" d="M579.1295,-34.5461C587.5303,-34.0865 596.2129,-33.6115 604.7996,-33.1417"/>
<polygon fill="#191970" stroke="#191970" points="605.0192,-36.635 614.813,-32.5938 604.6367,-29.6454 605.0192,-36.635"/>
</g>
<!-- Node219319&#45;&gt;Node219325 -->
<g id="edge9" class="edge">
<title>Node219319&#45;&gt;Node219325</title>
<path fill="none" stroke="#191970" d="M579.1012,-44.4734C591.0233,-45.6682 603.3925,-46.8887 615,-48 670.0421,-53.2698 733.2387,-58.9354 775.8054,-62.6952"/>
<polygon fill="#191970" stroke="#191970" points="775.629,-66.1931 785.8978,-63.585 776.2438,-59.2202 775.629,-66.1931"/>
</g>
<!-- Node219361 -->
<g id="node9" class="node">
<title>Node219361</title>
<g id="a_node9"><a xlink:href="quickjs_8h.html#ad80a83d73e9b7d872b88fbf2943aebe9" target="_top" xlink:title="JS_IsException">
<polygon fill="none" stroke="#000000" points="782,-.5 782,-19.5 868,-19.5 868,-.5 782,-.5"/>
<text text-anchor="middle" x="825" y="-7.5" font-family="Helvetica,sans-Serif" font-size="10.00" fill="#000000">JS_IsException</text>
</a>
</g>
</g>
<!-- Node219319&#45;&gt;Node219361 -->
<g id="edge10" class="edge">
<title>Node219319&#45;&gt;Node219361</title>
<path fill="none" stroke="#191970" d="M542.4653,-28.3606C562.1646,-21.7183 589.8769,-13.4844 615,-10 667.8786,-2.6661 728.97,-3.7218 771.5792,-5.9692"/>
<polygon fill="#191970" stroke="#191970" points="771.5447,-9.4728 781.727,-6.5454 771.9416,-2.4841 771.5447,-9.4728"/>
</g>
<!-- Node219516 -->
<g id="node10" class="node">
<title>Node219516</title>
<g id="a_node10"><a xlink:href="quickjs_8h.html#a4e407128a9605afb77523e49e9a627fd" target="_top" xlink:title="JS_IsUndefined">
<polygon fill="none" stroke="#000000" points="637.5,-95.5 637.5,-114.5 723.5,-114.5 723.5,-95.5 637.5,-95.5"/>
<text text-anchor="middle" x="680.5" y="-102.5" font-family="Helvetica,sans-Serif" font-size="10.00" fill="#000000">JS_IsUndefined</text>
</a>
</g>
</g>
<!-- Node219319&#45;&gt;Node219516 -->
<g id="edge11" class="edge">
<title>Node219319&#45;&gt;Node219516</title>
<path fill="none" stroke="#191970" d="M537.0923,-47.5883C557.033,-56.5511 587.8582,-70.1438 615,-81 624.2637,-84.7053 634.3484,-88.5113 643.7662,-91.9694"/>
<polygon fill="#191970" stroke="#191970" points="642.6828,-95.2996 653.2769,-95.4284 645.0754,-88.7212 642.6828,-95.2996"/>
</g>
<!-- Node219320&#45;&gt;Node219325 -->
<g id="edge7" class="edge">
<title>Node219320&#45;&gt;Node219325</title>
<path fill="none" stroke="#191970" d="M716.9635,-38.589C735.7741,-43.5358 758.9146,-49.6211 778.9472,-54.8892"/>
<polygon fill="#191970" stroke="#191970" points="778.2374,-58.3215 788.7988,-57.4799 780.0177,-51.5517 778.2374,-58.3215"/>
</g>
<!-- Node219320&#45;&gt;Node219361 -->
<g id="edge8" class="edge">
<title>Node219320&#45;&gt;Node219361</title>
<path fill="none" stroke="#191970" d="M746.4072,-20.334C754.9799,-19.2068 763.6727,-18.0638 771.9977,-16.9692"/>
<polygon fill="#191970" stroke="#191970" points="772.4789,-20.4361 781.9372,-15.6622 771.5662,-13.4958 772.4789,-20.4361"/>
</g>
<!-- Node219618&#45;&gt;Node219319 -->
<g id="edge15" class="edge">
<title>Node219618&#45;&gt;Node219319</title>
<path fill="none" stroke="#191970" d="M403.1402,-57.4239C418.3168,-54.812 434.8988,-51.9581 450.5661,-49.2616"/>
<polygon fill="#191970" stroke="#191970" points="451.4441,-52.662 460.7056,-47.5165 450.2568,-45.7635 451.4441,-52.662"/>
</g>
<!-- Node219618&#45;&gt;Node219369 -->
<g id="edge16" class="edge">
<title>Node219618&#45;&gt;Node219369</title>
<path fill="none" stroke="#191970" d="M417.0082,-74.8377C433.9635,-76.7496 451.7409,-78.7542 467.4774,-80.5286"/>
<polygon fill="#191970" stroke="#191970" points="467.1653,-84.0155 477.4945,-81.6581 467.9497,-77.0596 467.1653,-84.0155"/>
</g>
</g>
</svg>
        <g id="navigator" transform="translate(0 0)" fill="#404254">
                <rect fill="#f2f5e9" fill-opacity="0.5" stroke="#606060" stroke-width=".5" x="0" y="0" width="60" height="60"/>
                <use id="zoomplus" xlink:href="#zoomPlus" x="17" y="9" onmousedown="handleZoom(evt,'in')"/>
                <use id="zoomminus" xlink:href="#zoomMin" x="42" y="9" onmousedown="handleZoom(evt,'out')"/>
                <use id="reset" xlink:href="#resetDef" x="30" y="36" onmousedown="handleReset()"/>
                <g id="arrowUp" xlink:href="#dirArrow" transform="translate(30 24)" onmousedown="handlePan(0,-1)">
                  <use xlink:href="#rim" fill="#404040">
                        <set attributeName="fill" to="#808080" begin="arrowUp.mouseover" end="arrowUp.mouseout"/>
                  </use>
                  <path fill="none" stroke="white" stroke-width="1.5" d="M0,-3.0v7 M-2.5,-0.5L0,-3.0L2.5,-0.5"/>
                </g>
                <g id="arrowRight" xlink:href="#dirArrow" transform="rotate(90) translate(36 -43)" onmousedown="handlePan(1,0)">
                  <use xlink:href="#rim" fill="#404040">
                        <set attributeName="fill" to="#808080" begin="arrowRight.mouseover" end="arrowRight.mouseout"/>
                  </use>
                  <path fill="none" stroke="white" stroke-width="1.5" d="M0,-3.0v7 M-2.5,-0.5L0,-3.0L2.5,-0.5"/>
                </g>
                <g id="arrowDown" xlink:href="#dirArrow" transform="rotate(180) translate(-30 -48)" onmousedown="handlePan(0,1)">
                  <use xlink:href="#rim" fill="#404040">
                        <set attributeName="fill" to="#808080" begin="arrowDown.mouseover" end="arrowDown.mouseout"/>
                  </use>
                  <path fill="none" stroke="white" stroke-width="1.5" d="M0,-3.0v7 M-2.5,-0.5L0,-3.0L2.5,-0.5"/>
                </g>
                <g id="arrowLeft" xlink:href="#dirArrow" transform="rotate(270) translate(-36 17)" onmousedown="handlePan(-1,0)">
                  <use xlink:href="#rim" fill="#404040">
                        <set attributeName="fill" to="#808080" begin="arrowLeft.mouseover" end="arrowLeft.mouseout"/>
                  </use>
                  <path fill="none" stroke="white" stroke-width="1.5" d="M0,-3.0v7 M-2.5,-0.5L0,-3.0L2.5,-0.5"/>
                </g>
        </g>
        <svg viewBox="0 0 15 15" width="100%" height="30px" preserveAspectRatio="xMaxYMin meet">
         <g id="arrow_out" transform="scale(0.3 0.3)">
          <a xlink:href="quickjs_8c_aa4c729f8538eb4637d69f8c64138cfee_cgraph_org.svg" target="_base">
           <rect id="button" ry="5" rx="5" y="6" x="6" height="38" width="38"
                fill="#f2f5e9" fill-opacity="0.5" stroke="#606060" stroke-width="1.0"/>
           <path id="arrow"
             d="M 11.500037,31.436501 C 11.940474,20.09759 22.043105,11.32322 32.158766,21.979434 L 37.068811,17.246167 C 37.068811,17.246167 37.088388,32 37.088388,32 L 22.160133,31.978069 C 22.160133,31.978069 26.997745,27.140456 26.997745,27.140456 C 18.528582,18.264221 13.291696,25.230495 11.500037,31.436501 z"
             style="fill:#404040;"/>
          </a>
         </g>
        </svg>
</svg>
