<?xml version="1.0" encoding="UTF-8" standalone="no"?>
<!DOCTYPE svg PUBLIC "-//W3C//DTD SVG 1.1//EN"
 "http://www.w3.org/Graphics/SVG/1.1/DTD/svg11.dtd">
<!-- Generated by graphviz version 2.40.1 (20161225.0304)
 -->
<!-- Title: JS_SetPropertyInternal Pages: 1 -->
<!--zoomable 964 -->
<svg id="main" version="1.1" xmlns="http://www.w3.org/2000/svg" xmlns:xlink="http://www.w3.org/1999/xlink" xml:space="preserve" onload="init(evt)">
<style type="text/css"><![CDATA[
.edge:hover path { stroke: red; }
.edge:hover polygon { stroke: red; fill: red; }
]]></style>
<script type="text/javascript"><![CDATA[
var edges = document.getElementsByTagName('g');
if (edges && edges.length) {
  for (var i=0;i<edges.length;i++) {
    if (edges[i].id.substr(0,4)=='edge') {
      edges[i].setAttribute('class','edge');
    }
  }
}
]]></script>
        <defs>
                <circle id="rim" cx="0" cy="0" r="7"/>
                <circle id="rim2" cx="0" cy="0" r="3.5"/>
                <g id="zoomPlus">
                        <use xlink:href="#rim" fill="#404040">
                                <set attributeName="fill" to="#808080" begin="zoomplus.mouseover" end="zoomplus.mouseout"/>
                        </use>
                        <path d="M-4,0h8M0,-4v8" fill="none" stroke="white" stroke-width="1.5" pointer-events="none"/>
                </g>
                <g id="zoomMin">
                        <use xlink:href="#rim" fill="#404040">
                                <set attributeName="fill" to="#808080" begin="zoomminus.mouseover" end="zoomminus.mouseout"/>
                        </use>
                        <path d="M-4,0h8" fill="none" stroke="white" stroke-width="1.5" pointer-events="none"/>
                </g>
                <g id="dirArrow">
                        <path fill="none" stroke="white" stroke-width="1.5" d="M0,-3.0v7 M-2.5,-0.5L0,-3.0L2.5,-0.5"/>
                </g>
               <g id="resetDef">
                       <use xlink:href="#rim2" fill="#404040">
                               <set attributeName="fill" to="#808080" begin="reset.mouseover" end="reset.mouseout"/>
                       </use>
               </g>
        </defs>

<script type="text/javascript">
var viewWidth = 625;
var viewHeight = 964;
var sectionId = 'dynsection-596';
</script>
<script xlink:href="svgpan.js"/>
<svg id="graph" class="graph">
<g id="viewport">
<title>JS_SetPropertyInternal</title>
<!-- Node200564 -->
<g id="node1" class="node">
<title>Node200564</title>
<polygon fill="#bfbfbf" stroke="#000000" points="0,-820.5 0,-839.5 118,-839.5 118,-820.5 0,-820.5"/>
<text text-anchor="middle" x="59" y="-827.5" font-family="Helvetica,sans-Serif" font-size="10.00" fill="#000000">JS_SetPropertyInternal</text>
</g>
<!-- Node200565 -->
<g id="node2" class="node">
<title>Node200565</title>
<g id="a_node2"><a xlink:href="quickjs_8c.html#aa40a5354bee3b56e05a71244910bcc78" target="_top" xlink:title="build_for_in_iterator">
<polygon fill="none" stroke="#000000" points="158.5,-896.5 158.5,-915.5 259.5,-915.5 259.5,-896.5 158.5,-896.5"/>
<text text-anchor="middle" x="209" y="-903.5" font-family="Helvetica,sans-Serif" font-size="10.00" fill="#000000">build_for_in_iterator</text>
</a>
</g>
</g>
<!-- Node200564&#45;&gt;Node200565 -->
<g id="edge1" class="edge">
<title>Node200564&#45;&gt;Node200565</title>
<path fill="none" stroke="#191970" d="M81.4284,-845.2808C100.2303,-857.6382 128.0858,-874.9101 154,-887 161.5071,-890.5023 169.848,-893.7104 177.7183,-896.4533"/>
<polygon fill="#191970" stroke="#191970" points="83.2377,-842.2807 72.9738,-839.6534 79.3591,-848.1079 83.2377,-842.2807"/>
</g>
<!-- Node200567 -->
<g id="node4" class="node">
<title>Node200567</title>
<g id="a_node4"><a xlink:href="quickjs_8c.html#ac2894ff4edcdb4e6841bcce9c76081e3" target="_top" xlink:title="JS_CallInternal">
<polygon fill="none" stroke="#ff0000" points="508.5,-858.5 508.5,-877.5 591.5,-877.5 591.5,-858.5 508.5,-858.5"/>
<text text-anchor="middle" x="550" y="-865.5" font-family="Helvetica,sans-Serif" font-size="10.00" fill="#000000">JS_CallInternal</text>
</a>
</g>
</g>
<!-- Node200564&#45;&gt;Node200567 -->
<g id="edge5" class="edge">
<title>Node200564&#45;&gt;Node200567</title>
<path fill="none" stroke="#191970" d="M70.4494,-848.2071C86.0835,-871.1524 116.4993,-909.4667 154,-925 274.3096,-974.8339 320.9143,-957.5611 447,-925 482.6189,-915.8016 519.0704,-891.3585 537.5742,-877.6561"/>
<polygon fill="#191970" stroke="#191970" points="73.2705,-846.1271 64.8492,-839.698 67.4232,-849.9754 73.2705,-846.1271"/>
</g>
<!-- Node201165 -->
<g id="node5" class="node">
<title>Node201165</title>
<g id="a_node5"><a xlink:href="quickjs_8c.html#ad50f89a3ee5e8b29b31bb62cf8ea0d82" target="_top" xlink:title="JS_SetGlobalVar">
<polygon fill="none" stroke="#000000" points="163,-858.5 163,-877.5 255,-877.5 255,-858.5 163,-858.5"/>
<text text-anchor="middle" x="209" y="-865.5" font-family="Helvetica,sans-Serif" font-size="10.00" fill="#000000">JS_SetGlobalVar</text>
</a>
</g>
</g>
<!-- Node200564&#45;&gt;Node201165 -->
<g id="edge6" class="edge">
<title>Node200564&#45;&gt;Node201165</title>
<path fill="none" stroke="#191970" d="M106.811,-842.1121C127.7016,-847.4044 151.8472,-853.5213 171.4209,-858.4799"/>
<polygon fill="#191970" stroke="#191970" points="107.4047,-838.652 96.8513,-839.589 105.6856,-845.4377 107.4047,-838.652"/>
</g>
<!-- Node201166 -->
<g id="node6" class="node">
<title>Node201166</title>
<g id="a_node6"><a xlink:href="quickjs_8h.html#af763b173e78debf2075670ca2c128a30" target="_top" xlink:title="JS_SetProperty">
<polygon fill="none" stroke="#000000" points="166,-478.5 166,-497.5 252,-497.5 252,-478.5 166,-478.5"/>
<text text-anchor="middle" x="209" y="-485.5" font-family="Helvetica,sans-Serif" font-size="10.00" fill="#000000">JS_SetProperty</text>
</a>
</g>
</g>
<!-- Node200564&#45;&gt;Node201166 -->
<g id="edge8" class="edge">
<title>Node200564&#45;&gt;Node201166</title>
<path fill="none" stroke="#191970" d="M67.1934,-811.319C94.8656,-748.2265 184.2724,-544.379 204.7806,-497.6201"/>
<polygon fill="#191970" stroke="#191970" points="63.9798,-809.9323 63.1684,-820.496 70.3904,-812.744 63.9798,-809.9323"/>
</g>
<!-- Node201167 -->
<g id="node25" class="node">
<title>Node201167</title>
<g id="a_node25"><a xlink:href="quickjs_8c.html#a62617fe11025d2e5a545db069fc28e64" target="_top" xlink:title="JS_SetPropertyStr">
<polygon fill="none" stroke="#000000" points="160,-79.5 160,-98.5 258,-98.5 258,-79.5 160,-79.5"/>
<text text-anchor="middle" x="209" y="-86.5" font-family="Helvetica,sans-Serif" font-size="10.00" fill="#000000">JS_SetPropertyStr</text>
</a>
</g>
</g>
<!-- Node200564&#45;&gt;Node201167 -->
<g id="edge35" class="edge">
<title>Node200564&#45;&gt;Node201167</title>
<path fill="none" stroke="#191970" d="M62.9568,-810.4536C84.9064,-702.0224 191.2907,-176.4839 207.0478,-98.6437"/>
<polygon fill="#191970" stroke="#191970" points="59.5051,-809.8644 60.9514,-820.36 66.366,-811.2533 59.5051,-809.8644"/>
</g>
<!-- Node200848 -->
<g id="node30" class="node">
<title>Node200848</title>
<g id="a_node30"><a xlink:href="quickjs_8c.html#aee75cc1546e19479e3ccda58f3b50a96" target="_top" xlink:title="JS_SetPropertyValue">
<polygon fill="none" stroke="#ff0000" points="154,-820.5 154,-839.5 264,-839.5 264,-820.5 154,-820.5"/>
<text text-anchor="middle" x="209" y="-827.5" font-family="Helvetica,sans-Serif" font-size="10.00" fill="#000000">JS_SetPropertyValue</text>
</a>
</g>
</g>
<!-- Node200564&#45;&gt;Node200848 -->
<g id="edge40" class="edge">
<title>Node200564&#45;&gt;Node200848</title>
<path fill="none" stroke="#191970" d="M128.4715,-823.2663C136.885,-823.2166 145.3917,-823.2806 153.5651,-823.4584"/>
<polygon fill="#191970" stroke="#191970" points="128.243,-819.7686 118.284,-823.3835 128.3236,-826.7682 128.243,-819.7686"/>
</g>
<!-- Node200566 -->
<g id="node3" class="node">
<title>Node200566</title>
<g id="a_node3"><a xlink:href="quickjs_8c.html#a3472bcc4762be7f7de1dcf4c1e0c5ff1" target="_top" xlink:title="js_for_in_start">
<polygon fill="none" stroke="#000000" points="334.5,-896.5 334.5,-915.5 412.5,-915.5 412.5,-896.5 334.5,-896.5"/>
<text text-anchor="middle" x="373.5" y="-903.5" font-family="Helvetica,sans-Serif" font-size="10.00" fill="#000000">js_for_in_start</text>
</a>
</g>
</g>
<!-- Node200565&#45;&gt;Node200566 -->
<g id="edge2" class="edge">
<title>Node200565&#45;&gt;Node200566</title>
<path fill="none" stroke="#191970" d="M269.7835,-906C291.4035,-906 315.1512,-906 334.4612,-906"/>
<polygon fill="#191970" stroke="#191970" points="269.6977,-902.5001 259.6977,-906 269.6977,-909.5001 269.6977,-902.5001"/>
</g>
<!-- Node200566&#45;&gt;Node200567 -->
<g id="edge3" class="edge">
<title>Node200566&#45;&gt;Node200567</title>
<path fill="none" stroke="#191970" d="M422.6906,-895.4094C449.6877,-889.597 482.7943,-882.4692 508.4792,-876.9393"/>
<polygon fill="#191970" stroke="#191970" points="421.7104,-892.0401 412.6711,-897.5666 423.1838,-898.8833 421.7104,-892.0401"/>
</g>
<!-- Node200567&#45;&gt;Node200567 -->
<g id="edge4" class="edge">
<title>Node200567&#45;&gt;Node200567</title>
<path fill="none" stroke="#191970" d="M517.0166,-885.8913C517.4997,-891.5406 528.4941,-896 550,-896 581.2813,-896 590.3235,-886.5653 577.1267,-877.7571"/>
<polygon fill="#191970" stroke="#191970" points="519.8706,-887.9175 522.8733,-877.7571 514.1898,-883.8273 519.8706,-887.9175"/>
</g>
<!-- Node201165&#45;&gt;Node200567 -->
<g id="edge7" class="edge">
<title>Node201165&#45;&gt;Node200567</title>
<path fill="none" stroke="#191970" d="M265.5033,-868C333.8761,-868 447.3849,-868 508.3064,-868"/>
<polygon fill="#191970" stroke="#191970" points="265.3437,-864.5001 255.3437,-868 265.3436,-871.5001 265.3437,-864.5001"/>
</g>
<!-- Node200849 -->
<g id="node7" class="node">
<title>Node200849</title>
<g id="a_node7"><a xlink:href="quickjs_8c.html#a51b06daa618640e531fe808770553b96" target="_top" xlink:title="JS_SetPropertyInt64">
<polygon fill="none" stroke="#ff0000" points="320,-668.5 320,-687.5 427,-687.5 427,-668.5 320,-668.5"/>
<text text-anchor="middle" x="373.5" y="-675.5" font-family="Helvetica,sans-Serif" font-size="10.00" fill="#000000">JS_SetPropertyInt64</text>
</a>
</g>
</g>
<!-- Node201166&#45;&gt;Node200849 -->
<g id="edge9" class="edge">
<title>Node201166&#45;&gt;Node200849</title>
<path fill="none" stroke="#191970" d="M213.8172,-507.6186C223.644,-543.389 249.4697,-619.184 300,-659 305.7973,-663.568 312.5753,-667.0467 319.6277,-669.6941"/>
<polygon fill="#191970" stroke="#191970" points="217.0902,-506.2993 211.1778,-497.5076 210.3171,-508.0674 217.0902,-506.2993"/>
</g>
<!-- Node200753 -->
<g id="node8" class="node">
<title>Node200753</title>
<g id="a_node8"><a xlink:href="quickjs_8c.html#a3d640b89712ebda808c0c3eca9849674" target="_top" xlink:title="js_array_push">
<polygon fill="none" stroke="#ff0000" points="511.5,-630.5 511.5,-649.5 588.5,-649.5 588.5,-630.5 511.5,-630.5"/>
<text text-anchor="middle" x="550" y="-637.5" font-family="Helvetica,sans-Serif" font-size="10.00" fill="#000000">js_array_push</text>
</a>
</g>
</g>
<!-- Node201166&#45;&gt;Node200753 -->
<g id="edge23" class="edge">
<title>Node201166&#45;&gt;Node200753</title>
<path fill="none" stroke="#191970" d="M221.06,-505.9067C236.6628,-527.6167 265.922,-563.6898 300,-583 318.3003,-593.3698 445.8439,-619.4963 511.3514,-632.4616"/>
<polygon fill="#191970" stroke="#191970" points="223.8326,-503.7639 215.235,-497.5725 218.0951,-507.774 223.8326,-503.7639"/>
</g>
<!-- Node200673 -->
<g id="node9" class="node">
<title>Node200673</title>
<g id="a_node9"><a xlink:href="quickjs_8c.html#a70b7ec8358ab99b905686d5bf80950cc" target="_top" xlink:title="js_array_slice">
<polygon fill="none" stroke="#000000" points="511.5,-497.5 511.5,-516.5 588.5,-516.5 588.5,-497.5 511.5,-497.5"/>
<text text-anchor="middle" x="550" y="-504.5" font-family="Helvetica,sans-Serif" font-size="10.00" fill="#000000">js_array_slice</text>
</a>
</g>
</g>
<!-- Node201166&#45;&gt;Node200673 -->
<g id="edge24" class="edge">
<title>Node201166&#45;&gt;Node200673</title>
<path fill="none" stroke="#191970" d="M262.4279,-490.9769C331.5634,-494.829 450.3591,-501.4482 511.365,-504.8473"/>
<polygon fill="#191970" stroke="#191970" points="262.3671,-487.4682 252.1879,-490.4064 261.9777,-494.4574 262.3671,-487.4682"/>
</g>
<!-- Node200709 -->
<g id="node10" class="node">
<title>Node200709</title>
<g id="a_node10"><a xlink:href="quickjs_8c.html#a41fc4304b39616e7be3500fe6ec881c2" target="_top" xlink:title="js_regexp_Symbol_match">
<polygon fill="none" stroke="#000000" points="485.5,-744.5 485.5,-763.5 614.5,-763.5 614.5,-744.5 485.5,-744.5"/>
<text text-anchor="middle" x="550" y="-751.5" font-family="Helvetica,sans-Serif" font-size="10.00" fill="#000000">js_regexp_Symbol_match</text>
</a>
</g>
</g>
<!-- Node201166&#45;&gt;Node200709 -->
<g id="edge29" class="edge">
<title>Node201166&#45;&gt;Node200709</title>
<path fill="none" stroke="#191970" d="M209.8794,-507.6583C213.1309,-554.4984 228.3942,-672.8837 300,-728 355.9323,-771.0522 440.9887,-770.0802 496.0368,-763.5289"/>
<polygon fill="#191970" stroke="#191970" points="213.3696,-507.3869 209.2952,-497.6069 206.3814,-507.7931 213.3696,-507.3869"/>
</g>
<!-- Node200636 -->
<g id="node11" class="node">
<title>Node200636</title>
<g id="a_node11"><a xlink:href="quickjs_8c.html#a6a77bcdb9f7f18c13c108c99a198708b" target="_top" xlink:title="js_regexp_Symbol_replace">
<polygon fill="none" stroke="#000000" points="483,-554.5 483,-573.5 617,-573.5 617,-554.5 483,-554.5"/>
<text text-anchor="middle" x="550" y="-561.5" font-family="Helvetica,sans-Serif" font-size="10.00" fill="#000000">js_regexp_Symbol_replace</text>
</a>
</g>
</g>
<!-- Node201166&#45;&gt;Node200636 -->
<g id="edge32" class="edge">
<title>Node201166&#45;&gt;Node200636</title>
<path fill="none" stroke="#191970" d="M257.2561,-499.899C271.0463,-503.2362 286.1029,-506.8198 300,-510 371.2035,-526.2944 454.126,-543.9449 504.3064,-554.4807"/>
<polygon fill="#191970" stroke="#191970" points="258.0168,-496.4821 247.4731,-497.5218 256.3639,-503.2841 258.0168,-496.4821"/>
</g>
<!-- Node200676 -->
<g id="node12" class="node">
<title>Node200676</title>
<g id="a_node12"><a xlink:href="quickjs_8c.html#a79872a6d9d139e36d5d1894d16132024" target="_top" xlink:title="js_regexp_Symbol_split">
<polygon fill="none" stroke="#000000" points="490,-706.5 490,-725.5 610,-725.5 610,-706.5 490,-706.5"/>
<text text-anchor="middle" x="550" y="-713.5" font-family="Helvetica,sans-Serif" font-size="10.00" fill="#000000">js_regexp_Symbol_split</text>
</a>
</g>
</g>
<!-- Node201166&#45;&gt;Node200676 -->
<g id="edge34" class="edge">
<title>Node201166&#45;&gt;Node200676</title>
<path fill="none" stroke="#191970" d="M210.9624,-507.5554C216.3897,-550.1869 235.748,-651.3237 300,-697 360.3109,-739.8746 450.7661,-734.185 504.7344,-725.5237"/>
<polygon fill="#191970" stroke="#191970" points="214.4383,-507.1443 209.8191,-497.6094 207.4841,-507.9438 214.4383,-507.1443"/>
</g>
<!-- Node200718 -->
<g id="node13" class="node">
<title>Node200718</title>
<g id="a_node13"><a xlink:href="quickjs_8c.html#a3b754d750c7f3123e85f4a2e748de023" target="_top" xlink:title="JS_CopyDataProperties">
<polygon fill="none" stroke="#ff0000" points="312.5,-782.5 312.5,-801.5 434.5,-801.5 434.5,-782.5 312.5,-782.5"/>
<text text-anchor="middle" x="373.5" y="-789.5" font-family="Helvetica,sans-Serif" font-size="10.00" fill="#000000">JS_CopyDataProperties</text>
</a>
</g>
</g>
<!-- Node201166&#45;&gt;Node200718 -->
<g id="edge15" class="edge">
<title>Node201166&#45;&gt;Node200718</title>
<path fill="none" stroke="#191970" d="M212.9253,-507.4272C224.8062,-564.4691 261.9068,-729.854 300,-768 306.3551,-774.3639 314.4182,-779.0406 322.86,-782.4774"/>
<polygon fill="#191970" stroke="#191970" points="216.3335,-506.6242 210.8925,-497.5332 209.4767,-508.033 216.3335,-506.6242"/>
</g>
<!-- Node200853 -->
<g id="node14" class="node">
<title>Node200853</title>
<g id="a_node14"><a xlink:href="quickjs_8c.html#a68c7842d6b1ef577bc4625aec4ede310" target="_top" xlink:title="js_array_constructor">
<polygon fill="none" stroke="#ff0000" points="321,-136.5 321,-155.5 426,-155.5 426,-136.5 321,-136.5"/>
<text text-anchor="middle" x="373.5" y="-143.5" font-family="Helvetica,sans-Serif" font-size="10.00" fill="#000000">js_array_constructor</text>
</a>
</g>
</g>
<!-- Node201166&#45;&gt;Node200853 -->
<g id="edge17" class="edge">
<title>Node201166&#45;&gt;Node200853</title>
<path fill="none" stroke="#191970" d="M211.9884,-468.0237C221.8854,-404.4639 255.5087,-208.5383 300,-165 305.8403,-159.2847 313.1629,-155.2234 320.9072,-152.35"/>
<polygon fill="#191970" stroke="#191970" points="208.4713,-467.8705 210.4193,-478.2847 215.3908,-468.9287 208.4713,-467.8705"/>
</g>
<!-- Node200594 -->
<g id="node15" class="node">
<title>Node200594</title>
<g id="a_node15"><a xlink:href="quickjs_8c.html#a5e32da9a43002cb96dcbd62a1a340144" target="_top" xlink:title="js_array_from">
<polygon fill="none" stroke="#000000" points="512,-288.5 512,-307.5 588,-307.5 588,-288.5 512,-288.5"/>
<text text-anchor="middle" x="550" y="-295.5" font-family="Helvetica,sans-Serif" font-size="10.00" fill="#000000">js_array_from</text>
</a>
</g>
</g>
<!-- Node201166&#45;&gt;Node200594 -->
<g id="edge19" class="edge">
<title>Node201166&#45;&gt;Node200594</title>
<path fill="none" stroke="#191970" d="M262.4876,-485.3154C313.5188,-480.537 390.7365,-467.3379 447,-431 497.5381,-398.3599 533.4362,-332.1295 545.531,-307.5034"/>
<polygon fill="#191970" stroke="#191970" points="261.9925,-481.8449 252.3287,-486.1879 262.5916,-488.8193 261.9925,-481.8449"/>
</g>
<!-- Node200670 -->
<g id="node16" class="node">
<title>Node200670</title>
<g id="a_node16"><a xlink:href="quickjs_8c.html#aed64f4c93145310216f62d7548856b8d" target="_top" xlink:title="js_array_of">
<polygon fill="none" stroke="#000000" points="341,-402.5 341,-421.5 406,-421.5 406,-402.5 341,-402.5"/>
<text text-anchor="middle" x="373.5" y="-409.5" font-family="Helvetica,sans-Serif" font-size="10.00" fill="#000000">js_array_of</text>
</a>
</g>
</g>
<!-- Node201166&#45;&gt;Node200670 -->
<g id="edge20" class="edge">
<title>Node201166&#45;&gt;Node200670</title>
<path fill="none" stroke="#191970" d="M232.2912,-472.9287C250.279,-461.729 276.0613,-446.6152 300,-436 313.0074,-430.2321 327.8444,-425.126 340.7659,-421.1225"/>
<polygon fill="#191970" stroke="#191970" points="230.2353,-470.0873 223.6462,-478.3841 233.971,-476.0072 230.2353,-470.0873"/>
</g>
<!-- Node200672 -->
<g id="node17" class="node">
<title>Node200672</title>
<g id="a_node17"><a xlink:href="quickjs_8c.html#aaa85fa359f7aa8985f0299147272adef" target="_top" xlink:title="js_array_concat">
<polygon fill="none" stroke="#000000" points="330.5,-364.5 330.5,-383.5 416.5,-383.5 416.5,-364.5 330.5,-364.5"/>
<text text-anchor="middle" x="373.5" y="-371.5" font-family="Helvetica,sans-Serif" font-size="10.00" fill="#000000">js_array_concat</text>
</a>
</g>
</g>
<!-- Node201166&#45;&gt;Node200672 -->
<g id="edge21" class="edge">
<title>Node201166&#45;&gt;Node200672</title>
<path fill="none" stroke="#191970" d="M221.3934,-469.9221C237.1484,-448.3399 266.376,-412.6978 300,-393 309.2114,-387.6037 319.9521,-383.7201 330.332,-380.9322"/>
<polygon fill="#191970" stroke="#191970" points="218.4337,-468.0449 215.4926,-478.2233 224.1391,-472.1005 218.4337,-468.0449"/>
</g>
<!-- Node200707 -->
<g id="node18" class="node">
<title>Node200707</title>
<g id="a_node18"><a xlink:href="quickjs_8c.html#a01281ea66186a034a0e9021ee8c9f945" target="_top" xlink:title="js_array_pop">
<polygon fill="none" stroke="#ff0000" points="337.5,-326.5 337.5,-345.5 409.5,-345.5 409.5,-326.5 337.5,-326.5"/>
<text text-anchor="middle" x="373.5" y="-333.5" font-family="Helvetica,sans-Serif" font-size="10.00" fill="#000000">js_array_pop</text>
</a>
</g>
</g>
<!-- Node201166&#45;&gt;Node200707 -->
<g id="edge22" class="edge">
<title>Node201166&#45;&gt;Node200707</title>
<path fill="none" stroke="#191970" d="M216.8439,-468.6953C229.728,-439.4802 258.1857,-384.3405 300,-355 310.8967,-347.3539 324.6359,-342.7837 337.2785,-340.0523"/>
<polygon fill="#191970" stroke="#191970" points="213.4988,-467.6179 212.8058,-478.19 219.9404,-470.3575 213.4988,-467.6179"/>
</g>
<!-- Node200938 -->
<g id="node19" class="node">
<title>Node200938</title>
<g id="a_node19"><a xlink:href="quickjs_8c.html#af55de7fe1d3513a7230dfbfc1cbeec62" target="_top" xlink:title="js_regexp_compile">
<polygon fill="none" stroke="#000000" points="324.5,-288.5 324.5,-307.5 422.5,-307.5 422.5,-288.5 324.5,-288.5"/>
<text text-anchor="middle" x="373.5" y="-295.5" font-family="Helvetica,sans-Serif" font-size="10.00" fill="#000000">js_regexp_compile</text>
</a>
</g>
</g>
<!-- Node201166&#45;&gt;Node200938 -->
<g id="edge25" class="edge">
<title>Node201166&#45;&gt;Node200938</title>
<path fill="none" stroke="#191970" d="M213.8172,-468.3814C223.644,-432.611 249.4697,-356.816 300,-317 307.0395,-311.4531 315.5252,-307.5124 324.1921,-304.716"/>
<polygon fill="#191970" stroke="#191970" points="210.3171,-467.9326 211.1778,-478.4924 217.0902,-469.7007 210.3171,-467.9326"/>
</g>
<!-- Node200870 -->
<g id="node20" class="node">
<title>Node200870</title>
<g id="a_node20"><a xlink:href="quickjs_8c.html#a9eb2d90f27f684820f9de13189502b7c" target="_top" xlink:title="js_regexp_exec">
<polygon fill="none" stroke="#ff0000" points="331,-250.5 331,-269.5 416,-269.5 416,-250.5 331,-250.5"/>
<text text-anchor="middle" x="373.5" y="-257.5" font-family="Helvetica,sans-Serif" font-size="10.00" fill="#000000">js_regexp_exec</text>
</a>
</g>
</g>
<!-- Node201166&#45;&gt;Node200870 -->
<g id="edge26" class="edge">
<title>Node201166&#45;&gt;Node200870</title>
<path fill="none" stroke="#191970" d="M211.7334,-468.4223C218.5883,-426.9381 240.4427,-329.8355 300,-279 308.6212,-271.6413 319.7448,-267.0825 330.7166,-264.2729"/>
<polygon fill="#191970" stroke="#191970" points="208.2671,-467.9362 210.2087,-478.3516 215.186,-468.9987 208.2671,-467.9362"/>
</g>
<!-- Node201085 -->
<g id="node21" class="node">
<title>Node201085</title>
<g id="a_node21"><a xlink:href="quickjs_8c.html#a14fa3c10f581e1cd38b349913f47fb43" target="_top" xlink:title="JS_RegExpDelete">
<polygon fill="none" stroke="#000000" points="324.5,-554.5 324.5,-573.5 422.5,-573.5 422.5,-554.5 324.5,-554.5"/>
<text text-anchor="middle" x="373.5" y="-561.5" font-family="Helvetica,sans-Serif" font-size="10.00" fill="#000000">JS_RegExpDelete</text>
</a>
</g>
</g>
<!-- Node201166&#45;&gt;Node201085 -->
<g id="edge27" class="edge">
<title>Node201166&#45;&gt;Node201085</title>
<path fill="none" stroke="#191970" d="M232.2912,-503.0713C250.279,-514.271 276.0613,-529.3848 300,-540 312.5165,-545.5503 326.7273,-550.4877 339.2951,-554.4196"/>
<polygon fill="#191970" stroke="#191970" points="233.971,-499.9928 223.6462,-497.6159 230.2353,-505.9127 233.971,-499.9928"/>
</g>
<!-- Node200708 -->
<g id="node22" class="node">
<title>Node200708</title>
<g id="a_node22"><a xlink:href="quickjs_8c.html#aeb6df5fcffc6fecfac1e9b0d709e99c5" target="_top" xlink:title="js_regexp_string_iterator_next">
<polygon fill="none" stroke="#000000" points="300,-212.5 300,-231.5 447,-231.5 447,-212.5 300,-212.5"/>
<text text-anchor="middle" x="373.5" y="-219.5" font-family="Helvetica,sans-Serif" font-size="10.00" fill="#000000">js_regexp_string_iterator_next</text>
</a>
</g>
</g>
<!-- Node201166&#45;&gt;Node200708 -->
<g id="edge30" class="edge">
<title>Node201166&#45;&gt;Node200708</title>
<path fill="none" stroke="#191970" d="M210.2533,-468.4744C214.3301,-421.8263 231.2786,-303.1697 300,-241 304.3005,-237.1095 309.2939,-233.9951 314.6151,-231.5049"/>
<polygon fill="#191970" stroke="#191970" points="206.7616,-468.2338 209.4856,-478.4724 213.741,-468.7698 206.7616,-468.2338"/>
</g>
<!-- Node200675 -->
<g id="node23" class="node">
<title>Node200675</title>
<g id="a_node23"><a xlink:href="quickjs_8c.html#ace9b3fda4db2506ca054f0c7aaf41880" target="_top" xlink:title="js_regexp_Symbol_matchAll">
<polygon fill="none" stroke="#000000" points="303.5,-174.5 303.5,-193.5 443.5,-193.5 443.5,-174.5 303.5,-174.5"/>
<text text-anchor="middle" x="373.5" y="-181.5" font-family="Helvetica,sans-Serif" font-size="10.00" fill="#000000">js_regexp_Symbol_matchAll</text>
</a>
</g>
</g>
<!-- Node201166&#45;&gt;Node200675 -->
<g id="edge31" class="edge">
<title>Node201166&#45;&gt;Node200675</title>
<path fill="none" stroke="#191970" d="M212.766,-468.115C224.2029,-409.7454 260.193,-240.6341 300,-203 304.0225,-199.1971 308.7034,-196.1306 313.7185,-193.6613"/>
<polygon fill="#191970" stroke="#191970" points="209.2703,-467.7586 210.8121,-478.2406 216.1435,-469.0849 209.2703,-467.7586"/>
</g>
<!-- Node200873 -->
<g id="node24" class="node">
<title>Node200873</title>
<g id="a_node24"><a xlink:href="quickjs_8c.html#af315d0f35b4b11e5957b904c98bf1c0d" target="_top" xlink:title="js_regexp_Symbol_search">
<polygon fill="none" stroke="#000000" points="308,-630.5 308,-649.5 439,-649.5 439,-630.5 308,-630.5"/>
<text text-anchor="middle" x="373.5" y="-637.5" font-family="Helvetica,sans-Serif" font-size="10.00" fill="#000000">js_regexp_Symbol_search</text>
</a>
</g>
</g>
<!-- Node201166&#45;&gt;Node200873 -->
<g id="edge33" class="edge">
<title>Node201166&#45;&gt;Node200873</title>
<path fill="none" stroke="#191970" d="M217.4644,-506.6754C230.9955,-534.4854 260.0942,-586.6471 300,-616 308.5425,-622.2835 318.8121,-626.9744 328.9293,-630.4573"/>
<polygon fill="#191970" stroke="#191970" points="220.6242,-505.1699 213.1925,-497.6188 214.2932,-508.1563 220.6242,-505.1699"/>
</g>
<!-- Node200849&#45;&gt;Node200753 -->
<g id="edge10" class="edge">
<title>Node200849&#45;&gt;Node200753</title>
<path fill="none" stroke="#191970" d="M428.1193,-666.2406C455.121,-660.4272 487.0622,-653.5503 511.4708,-648.2952"/>
<polygon fill="#191970" stroke="#191970" points="427.0777,-662.8846 418.0384,-668.411 428.5511,-669.7278 427.0777,-662.8846"/>
</g>
<!-- Node200849&#45;&gt;Node200673 -->
<g id="edge11" class="edge">
<title>Node200849&#45;&gt;Node200673</title>
<path fill="none" stroke="#191970" d="M436.4021,-666.7157C440.2403,-664.559 443.8263,-662.01 447,-659 485.5514,-622.4363 449.5749,-586.3022 483,-545 493.4315,-532.1102 509.4769,-522.7919 523.2504,-516.6093"/>
<polygon fill="#191970" stroke="#191970" points="434.6487,-663.6714 427.0641,-671.069 437.6065,-670.0158 434.6487,-663.6714"/>
</g>
<!-- Node200849&#45;&gt;Node200709 -->
<g id="edge12" class="edge">
<title>Node200849&#45;&gt;Node200709</title>
<path fill="none" stroke="#191970" d="M398.2271,-692.7298C419.9847,-705.2342 452.8106,-723.0071 483,-735 491.9892,-738.571 501.9031,-741.7656 511.2859,-744.4703"/>
<polygon fill="#191970" stroke="#191970" points="399.7434,-689.5628 389.3395,-687.5604 396.2239,-695.6137 399.7434,-689.5628"/>
</g>
<!-- Node200849&#45;&gt;Node200636 -->
<g id="edge13" class="edge">
<title>Node200849&#45;&gt;Node200636</title>
<path fill="none" stroke="#191970" d="M435.2625,-664.8349C439.3421,-663.1195 443.2959,-661.1837 447,-659 467.041,-647.185 466.1158,-637.005 483,-621 501.3987,-603.5594 524.1081,-584.7702 537.8017,-573.7147"/>
<polygon fill="#191970" stroke="#191970" points="433.7184,-661.6753 425.5733,-668.451 436.1659,-668.2335 433.7184,-661.6753"/>
</g>
<!-- Node200849&#45;&gt;Node200676 -->
<g id="edge14" class="edge">
<title>Node200849&#45;&gt;Node200676</title>
<path fill="none" stroke="#191970" d="M428.0876,-689.7526C453.0447,-695.1258 482.2268,-701.4086 505.7819,-706.4799"/>
<polygon fill="#191970" stroke="#191970" points="428.5511,-686.2722 418.0384,-687.589 427.0777,-693.1154 428.5511,-686.2722"/>
</g>
<!-- Node200718&#45;&gt;Node200567 -->
<g id="edge16" class="edge">
<title>Node200718&#45;&gt;Node200567</title>
<path fill="none" stroke="#191970" d="M416.0441,-804.6771C426.2911,-808.0627 437.1273,-811.9237 447,-816 478.1059,-828.8433 512.7437,-847.2243 532.8816,-858.3436"/>
<polygon fill="#191970" stroke="#191970" points="417.0425,-801.3216 406.4509,-801.5852 414.8951,-807.9841 417.0425,-801.3216"/>
</g>
<!-- Node200853&#45;&gt;Node200594 -->
<g id="edge18" class="edge">
<title>Node200853&#45;&gt;Node200594</title>
<path fill="none" stroke="#191970" d="M435.7285,-158.8448C439.6728,-160.6355 443.4709,-162.6757 447,-165 497.0001,-197.9304 532.9707,-263.407 545.3184,-288.1884"/>
<polygon fill="#191970" stroke="#191970" points="436.9033,-155.5455 426.3177,-155.103 434.3169,-162.0501 436.9033,-155.5455"/>
</g>
<!-- Node201085&#45;&gt;Node200636 -->
<g id="edge28" class="edge">
<title>Node201085&#45;&gt;Node200636</title>
<path fill="none" stroke="#191970" d="M432.9846,-564C449.0402,-564 466.5221,-564 482.9603,-564"/>
<polygon fill="#191970" stroke="#191970" points="432.6651,-560.5001 422.6651,-564 432.6651,-567.5001 432.6651,-560.5001"/>
</g>
<!-- Node201168 -->
<g id="node26" class="node">
<title>Node201168</title>
<g id="a_node26"><a xlink:href="structqjs_1_1js__property__traits_3_01const_01char_01_5_01_4.html#ad7131d2b5de0ffc36fba2524b6d88f11" target="_top" xlink:title="qjs::js_property_traits\l\&lt; const char * \&gt;::set\l_property">
<polygon fill="none" stroke="#000000" points="318.5,-.5 318.5,-41.5 428.5,-41.5 428.5,-.5 318.5,-.5"/>
<text text-anchor="start" x="326.5" y="-29.5" font-family="Helvetica,sans-Serif" font-size="10.00" fill="#000000">qjs::js_property_traits</text>
<text text-anchor="start" x="326.5" y="-18.5" font-family="Helvetica,sans-Serif" font-size="10.00" fill="#000000">&lt; const char * &gt;::set</text>
<text text-anchor="middle" x="373.5" y="-7.5" font-family="Helvetica,sans-Serif" font-size="10.00" fill="#000000">_property</text>
</a>
</g>
</g>
<!-- Node201167&#45;&gt;Node201168 -->
<g id="edge36" class="edge">
<title>Node201167&#45;&gt;Node201168</title>
<path fill="none" stroke="#191970" d="M241.4529,-75.3738C258.809,-68.1052 280.5538,-59.0287 300,-51 307.3888,-47.9494 315.2024,-44.7412 322.869,-41.6034"/>
<polygon fill="#191970" stroke="#191970" points="239.6615,-72.3296 231.7916,-79.4229 242.3673,-78.7855 239.6615,-72.3296"/>
</g>
<!-- Node201169 -->
<g id="node27" class="node">
<title>Node201169</title>
<g id="a_node27"><a xlink:href="quickjs-libc_8c.html#a5802fe689f97b693173247111a01a76a" target="_top" xlink:title="js_set_error_object">
<polygon fill="none" stroke="#ff0000" points="324,-98.5 324,-117.5 423,-117.5 423,-98.5 324,-98.5"/>
<text text-anchor="middle" x="373.5" y="-105.5" font-family="Helvetica,sans-Serif" font-size="10.00" fill="#000000">js_set_error_object</text>
</a>
</g>
</g>
<!-- Node201167&#45;&gt;Node201169 -->
<g id="edge37" class="edge">
<title>Node201167&#45;&gt;Node201169</title>
<path fill="none" stroke="#191970" d="M268.2896,-95.848C286.5196,-97.9536 306.3856,-100.2482 323.8953,-102.2706"/>
<polygon fill="#191970" stroke="#191970" points="268.691,-92.3712 258.3554,-94.7006 267.8878,-99.325 268.691,-92.3712"/>
</g>
<!-- Node200803 -->
<g id="node29" class="node">
<title>Node200803</title>
<g id="a_node29"><a xlink:href="quickjs-libc_8c.html#ad04466feec6822a3b838baf229f6dfa0" target="_top" xlink:title="js_std_add_helpers">
<polygon fill="none" stroke="#ff0000" points="323,-60.5 323,-79.5 424,-79.5 424,-60.5 323,-60.5"/>
<text text-anchor="middle" x="373.5" y="-67.5" font-family="Helvetica,sans-Serif" font-size="10.00" fill="#000000">js_std_add_helpers</text>
</a>
</g>
</g>
<!-- Node201167&#45;&gt;Node200803 -->
<g id="edge39" class="edge">
<title>Node201167&#45;&gt;Node200803</title>
<path fill="none" stroke="#191970" d="M268.6019,-82.1159C286.3513,-80.0658 305.6268,-77.8395 322.755,-75.8611"/>
<polygon fill="#191970" stroke="#191970" points="267.8878,-78.675 258.3554,-83.2994 268.691,-85.6288 267.8878,-78.675"/>
</g>
<!-- Node200950 -->
<g id="node28" class="node">
<title>Node200950</title>
<g id="a_node28"><a xlink:href="quickjs-libc_8c.html#a51bfedac363e39a4273635aa7810425a" target="_top" xlink:title="js_std_fdopen">
<polygon fill="none" stroke="#000000" points="511.5,-98.5 511.5,-117.5 588.5,-117.5 588.5,-98.5 511.5,-98.5"/>
<text text-anchor="middle" x="550" y="-105.5" font-family="Helvetica,sans-Serif" font-size="10.00" fill="#000000">js_std_fdopen</text>
</a>
</g>
</g>
<!-- Node201169&#45;&gt;Node200950 -->
<g id="edge38" class="edge">
<title>Node201169&#45;&gt;Node200950</title>
<path fill="none" stroke="#191970" d="M433.1976,-108C459.0114,-108 488.4781,-108 511.3567,-108"/>
<polygon fill="#191970" stroke="#191970" points="433.1348,-104.5001 423.1348,-108 433.1348,-111.5001 433.1348,-104.5001"/>
</g>
<!-- Node200848&#45;&gt;Node200564 -->
<g id="edge43" class="edge">
<title>Node200848&#45;&gt;Node200564</title>
<path fill="none" stroke="#191970" d="M143.4587,-836.7021C135.0848,-836.7874 126.551,-836.7588 118.284,-836.6165"/>
<polygon fill="#191970" stroke="#191970" points="143.6219,-840.2 153.5651,-836.5416 143.5107,-833.2009 143.6219,-840.2"/>
</g>
<!-- Node200848&#45;&gt;Node200567 -->
<g id="edge41" class="edge">
<title>Node200848&#45;&gt;Node200567</title>
<path fill="none" stroke="#191970" d="M274.4823,-837.2971C343.4698,-844.9849 450.0284,-856.8595 508.3453,-863.3581"/>
<polygon fill="#191970" stroke="#191970" points="274.4927,-833.7767 264.1665,-836.1476 273.7174,-840.7337 274.4927,-833.7767"/>
</g>
<!-- Node200848&#45;&gt;Node200849 -->
<g id="edge42" class="edge">
<title>Node200848&#45;&gt;Node200849</title>
<path fill="none" stroke="#191970" d="M226.7366,-813.6112C261.1216,-781.839 335.8688,-712.7717 363.2137,-687.5047"/>
<polygon fill="#191970" stroke="#191970" points="224.2596,-811.1346 219.2902,-820.4917 229.0101,-816.2758 224.2596,-811.1346"/>
</g>
</g>
</svg>
        <g id="navigator" transform="translate(0 0)" fill="#404254">
                <rect fill="#f2f5e9" fill-opacity="0.5" stroke="#606060" stroke-width=".5" x="0" y="0" width="60" height="60"/>
                <use id="zoomplus" xlink:href="#zoomPlus" x="17" y="9" onmousedown="handleZoom(evt,'in')"/>
                <use id="zoomminus" xlink:href="#zoomMin" x="42" y="9" onmousedown="handleZoom(evt,'out')"/>
                <use id="reset" xlink:href="#resetDef" x="30" y="36" onmousedown="handleReset()"/>
                <g id="arrowUp" xlink:href="#dirArrow" transform="translate(30 24)" onmousedown="handlePan(0,-1)">
                  <use xlink:href="#rim" fill="#404040">
                        <set attributeName="fill" to="#808080" begin="arrowUp.mouseover" end="arrowUp.mouseout"/>
                  </use>
                  <path fill="none" stroke="white" stroke-width="1.5" d="M0,-3.0v7 M-2.5,-0.5L0,-3.0L2.5,-0.5"/>
                </g>
                <g id="arrowRight" xlink:href="#dirArrow" transform="rotate(90) translate(36 -43)" onmousedown="handlePan(1,0)">
                  <use xlink:href="#rim" fill="#404040">
                        <set attributeName="fill" to="#808080" begin="arrowRight.mouseover" end="arrowRight.mouseout"/>
                  </use>
                  <path fill="none" stroke="white" stroke-width="1.5" d="M0,-3.0v7 M-2.5,-0.5L0,-3.0L2.5,-0.5"/>
                </g>
                <g id="arrowDown" xlink:href="#dirArrow" transform="rotate(180) translate(-30 -48)" onmousedown="handlePan(0,1)">
                  <use xlink:href="#rim" fill="#404040">
                        <set attributeName="fill" to="#808080" begin="arrowDown.mouseover" end="arrowDown.mouseout"/>
                  </use>
                  <path fill="none" stroke="white" stroke-width="1.5" d="M0,-3.0v7 M-2.5,-0.5L0,-3.0L2.5,-0.5"/>
                </g>
                <g id="arrowLeft" xlink:href="#dirArrow" transform="rotate(270) translate(-36 17)" onmousedown="handlePan(-1,0)">
                  <use xlink:href="#rim" fill="#404040">
                        <set attributeName="fill" to="#808080" begin="arrowLeft.mouseover" end="arrowLeft.mouseout"/>
                  </use>
                  <path fill="none" stroke="white" stroke-width="1.5" d="M0,-3.0v7 M-2.5,-0.5L0,-3.0L2.5,-0.5"/>
                </g>
        </g>
        <svg viewBox="0 0 15 15" width="100%" height="30px" preserveAspectRatio="xMaxYMin meet">
         <g id="arrow_out" transform="scale(0.3 0.3)">
          <a xlink:href="quickjs_8c_ad7f03358a8088ca920ab308225c6b2e6_icgraph_org.svg" target="_base">
           <rect id="button" ry="5" rx="5" y="6" x="6" height="38" width="38"
                fill="#f2f5e9" fill-opacity="0.5" stroke="#606060" stroke-width="1.0"/>
           <path id="arrow"
             d="M 11.500037,31.436501 C 11.940474,20.09759 22.043105,11.32322 32.158766,21.979434 L 37.068811,17.246167 C 37.068811,17.246167 37.088388,32 37.088388,32 L 22.160133,31.978069 C 22.160133,31.978069 26.997745,27.140456 26.997745,27.140456 C 18.528582,18.264221 13.291696,25.230495 11.500037,31.436501 z"
             style="fill:#404040;"/>
          </a>
         </g>
        </svg>
</svg>
