<?xml version="1.0" encoding="UTF-8" standalone="no"?>
<!DOCTYPE svg PUBLIC "-//W3C//DTD SVG 1.1//EN"
 "http://www.w3.org/Graphics/SVG/1.1/DTD/svg11.dtd">
<!-- Generated by graphviz version 2.40.1 (20161225.0304)
 -->
<!-- Title: js_object_assign Pages: 1 -->
<!--zoomable 436 -->
<svg id="main" version="1.1" xmlns="http://www.w3.org/2000/svg" xmlns:xlink="http://www.w3.org/1999/xlink" xml:space="preserve" onload="init(evt)">
<style type="text/css"><![CDATA[
.edge:hover path { stroke: red; }
.edge:hover polygon { stroke: red; fill: red; }
]]></style>
<script type="text/javascript"><![CDATA[
var edges = document.getElementsByTagName('g');
if (edges && edges.length) {
  for (var i=0;i<edges.length;i++) {
    if (edges[i].id.substr(0,4)=='edge') {
      edges[i].setAttribute('class','edge');
    }
  }
}
]]></script>
        <defs>
                <circle id="rim" cx="0" cy="0" r="7"/>
                <circle id="rim2" cx="0" cy="0" r="3.5"/>
                <g id="zoomPlus">
                        <use xlink:href="#rim" fill="#404040">
                                <set attributeName="fill" to="#808080" begin="zoomplus.mouseover" end="zoomplus.mouseout"/>
                        </use>
                        <path d="M-4,0h8M0,-4v8" fill="none" stroke="white" stroke-width="1.5" pointer-events="none"/>
                </g>
                <g id="zoomMin">
                        <use xlink:href="#rim" fill="#404040">
                                <set attributeName="fill" to="#808080" begin="zoomminus.mouseover" end="zoomminus.mouseout"/>
                        </use>
                        <path d="M-4,0h8" fill="none" stroke="white" stroke-width="1.5" pointer-events="none"/>
                </g>
                <g id="dirArrow">
                        <path fill="none" stroke="white" stroke-width="1.5" d="M0,-3.0v7 M-2.5,-0.5L0,-3.0L2.5,-0.5"/>
                </g>
               <g id="resetDef">
                       <use xlink:href="#rim2" fill="#404040">
                               <set attributeName="fill" to="#808080" begin="reset.mouseover" end="reset.mouseout"/>
                       </use>
               </g>
        </defs>

<script type="text/javascript">
var viewWidth = 893;
var viewHeight = 436;
var sectionId = 'dynsection-1423';
</script>
<script xlink:href="svgpan.js"/>
<svg id="graph" class="graph">
<g id="viewport">
<title>js_object_assign</title>
<!-- Node380737 -->
<g id="node1" class="node">
<title>Node380737</title>
<polygon fill="#bfbfbf" stroke="#000000" points="0,-152.5 0,-171.5 89,-171.5 89,-152.5 0,-152.5"/>
<text text-anchor="middle" x="44.5" y="-159.5" font-family="Helvetica,sans-Serif" font-size="10.00" fill="#000000">js_object_assign</text>
</g>
<!-- Node380738 -->
<g id="node2" class="node">
<title>Node380738</title>
<g id="a_node2"><a xlink:href="quickjs_8c.html#a3b754d750c7f3123e85f4a2e748de023" target="_top" xlink:title="JS_CopyDataProperties">
<polygon fill="none" stroke="#000000" points="125,-209.5 125,-228.5 247,-228.5 247,-209.5 125,-209.5"/>
<text text-anchor="middle" x="186" y="-216.5" font-family="Helvetica,sans-Serif" font-size="10.00" fill="#000000">JS_CopyDataProperties</text>
</a>
</g>
</g>
<!-- Node380737&#45;&gt;Node380738 -->
<g id="edge1" class="edge">
<title>Node380737&#45;&gt;Node380738</title>
<path fill="none" stroke="#191970" d="M68.1839,-171.5405C91.3451,-180.8705 126.8222,-195.1616 152.7952,-205.6242"/>
<polygon fill="#191970" stroke="#191970" points="151.6553,-208.9383 162.2388,-209.4284 154.2709,-202.4453 151.6553,-208.9383"/>
</g>
<!-- Node380768 -->
<g id="node5" class="node">
<title>Node380768</title>
<g id="a_node5"><a xlink:href="quickjs_8h.html#afaa20c47565bc704c6c85f3d77254e7d" target="_top" xlink:title="JS_FreeValue">
<polygon fill="none" stroke="#ff0000" points="803,-247.5 803,-266.5 881,-266.5 881,-247.5 803,-247.5"/>
<text text-anchor="middle" x="842" y="-254.5" font-family="Helvetica,sans-Serif" font-size="10.00" fill="#000000">JS_FreeValue</text>
</a>
</g>
</g>
<!-- Node380737&#45;&gt;Node380768 -->
<g id="edge21" class="edge">
<title>Node380737&#45;&gt;Node380768</title>
<path fill="none" stroke="#191970" d="M50.982,-171.5066C81.2521,-214.6573 213.7447,-390 368,-390 368,-390 368,-390 558.5,-390 667.5715,-390 779.804,-308.3151 823.2544,-272.9768"/>
<polygon fill="#191970" stroke="#191970" points="825.5312,-275.6357 831.006,-266.565 821.0696,-270.2418 825.5312,-275.6357"/>
</g>
<!-- Node380804 -->
<g id="node6" class="node">
<title>Node380804</title>
<g id="a_node6"><a xlink:href="quickjs_8h.html#ad80a83d73e9b7d872b88fbf2943aebe9" target="_top" xlink:title="JS_IsException">
<polygon fill="none" stroke="#000000" points="799,-114.5 799,-133.5 885,-133.5 885,-114.5 799,-114.5"/>
<text text-anchor="middle" x="842" y="-121.5" font-family="Helvetica,sans-Serif" font-size="10.00" fill="#000000">JS_IsException</text>
</a>
</g>
</g>
<!-- Node380737&#45;&gt;Node380804 -->
<g id="edge22" class="edge">
<title>Node380737&#45;&gt;Node380804</title>
<path fill="none" stroke="#191970" d="M56.6374,-152.4424C71.8283,-140.8989 99.0175,-121.5914 125,-110 226.7899,-64.5893 256.5401,-48 368,-48 368,-48 368,-48 558.5,-48 653.566,-48 760.6357,-88.3629 811.7248,-110.259"/>
<polygon fill="#191970" stroke="#191970" points="810.6102,-113.591 821.176,-114.3745 813.4049,-107.1731 810.6102,-113.591"/>
</g>
<!-- Node380882 -->
<g id="node7" class="node">
<title>Node380882</title>
<g id="a_node7"><a xlink:href="quickjs_8h.html#a4e407128a9605afb77523e49e9a627fd" target="_top" xlink:title="JS_IsUndefined">
<polygon fill="none" stroke="#000000" points="799,-304.5 799,-323.5 885,-323.5 885,-304.5 799,-304.5"/>
<text text-anchor="middle" x="842" y="-311.5" font-family="Helvetica,sans-Serif" font-size="10.00" fill="#000000">JS_IsUndefined</text>
</a>
</g>
</g>
<!-- Node380737&#45;&gt;Node380882 -->
<g id="edge24" class="edge">
<title>Node380737&#45;&gt;Node380882</title>
<path fill="none" stroke="#191970" d="M46.9616,-171.5457C54.3429,-198.4489 78.6959,-275.8607 125,-321 209.4993,-403.3735 249.9935,-428 368,-428 368,-428 368,-428 558.5,-428 663.1889,-428 774.9428,-360.2559 820.6583,-329.212"/>
<polygon fill="#191970" stroke="#191970" points="822.6577,-332.0847 828.8992,-323.5235 818.6811,-326.3239 822.6577,-332.0847"/>
</g>
<!-- Node380981 -->
<g id="node14" class="node">
<title>Node380981</title>
<g id="a_node14"><a xlink:href="quickjs_8h.html#a149f24b67e745bad93573b3b4c80db4c" target="_top" xlink:title="JS_IsNull">
<polygon fill="none" stroke="#000000" points="156.5,-.5 156.5,-19.5 215.5,-19.5 215.5,-.5 156.5,-.5"/>
<text text-anchor="middle" x="186" y="-7.5" font-family="Helvetica,sans-Serif" font-size="10.00" fill="#000000">JS_IsNull</text>
</a>
</g>
</g>
<!-- Node380737&#45;&gt;Node380981 -->
<g id="edge23" class="edge">
<title>Node380737&#45;&gt;Node380981</title>
<path fill="none" stroke="#191970" d="M48.1468,-152.1857C57.3933,-128.568 83.9716,-68.0085 125,-34 131.416,-28.6818 139.1525,-24.4424 146.9291,-21.0997"/>
<polygon fill="#191970" stroke="#191970" points="148.2855,-24.3278 156.3487,-17.4549 145.7595,-17.7995 148.2855,-24.3278"/>
</g>
<!-- Node380970 -->
<g id="node15" class="node">
<title>Node380970</title>
<g id="a_node15"><a xlink:href="quickjs_8c.html#a710289a14c2810467e5b448d3c28bd55" target="_top" xlink:title="JS_ToObject">
<polygon fill="none" stroke="#ff0000" points="331,-76.5 331,-95.5 405,-95.5 405,-76.5 331,-76.5"/>
<text text-anchor="middle" x="368" y="-83.5" font-family="Helvetica,sans-Serif" font-size="10.00" fill="#000000">JS_ToObject</text>
</a>
</g>
</g>
<!-- Node380737&#45;&gt;Node380970 -->
<g id="edge25" class="edge">
<title>Node380737&#45;&gt;Node380970</title>
<path fill="none" stroke="#191970" d="M85.1439,-152.4515C145.227,-138.3362 257.4747,-111.9658 321.0094,-97.0395"/>
<polygon fill="#191970" stroke="#191970" points="321.8382,-100.4402 330.7727,-94.7458 320.2372,-93.6257 321.8382,-100.4402"/>
</g>
<!-- Node380739 -->
<g id="node3" class="node">
<title>Node380739</title>
<g id="a_node3"><a xlink:href="quickjs_8c.html#a0a8765bd4012467d9139bc24aabcb3ca" target="_top" xlink:title="JS_DefinePropertyValue">
<polygon fill="none" stroke="#000000" points="496.5,-152.5 496.5,-171.5 620.5,-171.5 620.5,-152.5 496.5,-152.5"/>
<text text-anchor="middle" x="558.5" y="-159.5" font-family="Helvetica,sans-Serif" font-size="10.00" fill="#000000">JS_DefinePropertyValue</text>
</a>
</g>
</g>
<!-- Node380738&#45;&gt;Node380739 -->
<g id="edge2" class="edge">
<title>Node380738&#45;&gt;Node380739</title>
<path fill="none" stroke="#191970" d="M235.2749,-209.4334C250.5476,-206.5822 267.4489,-203.5424 283,-201 351.7793,-189.7555 430.5342,-178.7986 486.1771,-171.3763"/>
<polygon fill="#191970" stroke="#191970" points="486.8386,-174.8193 496.2903,-170.0323 485.9163,-167.8803 486.8386,-174.8193"/>
</g>
<!-- Node380738&#45;&gt;Node380804 -->
<g id="edge14" class="edge">
<title>Node380738&#45;&gt;Node380804</title>
<path fill="none" stroke="#191970" d="M201.8443,-209.4028C220.5491,-198.5361 252.9251,-181.1561 283,-172 462.0961,-117.4753 687.3578,-117.7663 788.5156,-121.2981"/>
<polygon fill="#191970" stroke="#191970" points="788.6573,-124.8058 798.7814,-121.6829 788.9196,-117.8107 788.6573,-124.8058"/>
</g>
<!-- Node381092 -->
<g id="node8" class="node">
<title>Node381092</title>
<g id="a_node8"><a xlink:href="quickjs_8c.html#a6b42cd922447e1eb6bfc52761895a174" target="_top" xlink:title="js_free_prop_enum">
<polygon fill="none" stroke="#ff0000" points="509,-228.5 509,-247.5 608,-247.5 608,-228.5 509,-228.5"/>
<text text-anchor="middle" x="558.5" y="-235.5" font-family="Helvetica,sans-Serif" font-size="10.00" fill="#000000">js_free_prop_enum</text>
</a>
</g>
</g>
<!-- Node380738&#45;&gt;Node381092 -->
<g id="edge8" class="edge">
<title>Node380738&#45;&gt;Node381092</title>
<path fill="none" stroke="#191970" d="M194.1142,-228.6326C209.3894,-245.9251 244.3735,-281.6701 283,-295 354.4222,-319.6477 383.5928,-324.8543 453,-295 474.3713,-285.8075 469.0416,-268.9539 489,-257 492.6218,-254.8308 496.4965,-252.9033 500.4947,-251.1915"/>
<polygon fill="#191970" stroke="#191970" points="501.887,-254.4065 509.9864,-247.5765 499.3955,-247.8649 501.887,-254.4065"/>
</g>
<!-- Node381006 -->
<g id="node9" class="node">
<title>Node381006</title>
<g id="a_node9"><a xlink:href="quickjs_8c.html#ad13892c0a0f11781b566808876658099" target="_top" xlink:title="JS_GetOwnPropertyInternal">
<polygon fill="none" stroke="#ff0000" points="489,-190.5 489,-209.5 628,-209.5 628,-190.5 489,-190.5"/>
<text text-anchor="middle" x="558.5" y="-197.5" font-family="Helvetica,sans-Serif" font-size="10.00" fill="#000000">JS_GetOwnPropertyInternal</text>
</a>
</g>
</g>
<!-- Node380738&#45;&gt;Node381006 -->
<g id="edge9" class="edge">
<title>Node380738&#45;&gt;Node381006</title>
<path fill="none" stroke="#191970" d="M247.0937,-215.8838C310.341,-212.6578 409.4266,-207.6037 478.7974,-204.0654"/>
<polygon fill="#191970" stroke="#191970" points="479.0004,-207.5597 488.809,-203.5547 478.6437,-200.5687 479.0004,-207.5597"/>
</g>
<!-- Node381093 -->
<g id="node10" class="node">
<title>Node381093</title>
<g id="a_node10"><a xlink:href="quickjs_8c.html#a176ac5ff56a118a0b1b2566798d28823" target="_top" xlink:title="JS_GetOwnPropertyNamesInternal">
<polygon fill="none" stroke="#ff0000" points="283,-228.5 283,-247.5 453,-247.5 453,-228.5 283,-228.5"/>
<text text-anchor="middle" x="368" y="-235.5" font-family="Helvetica,sans-Serif" font-size="10.00" fill="#000000">JS_GetOwnPropertyNamesInternal</text>
</a>
</g>
</g>
<!-- Node380738&#45;&gt;Node381093 -->
<g id="edge10" class="edge">
<title>Node380738&#45;&gt;Node381093</title>
<path fill="none" stroke="#191970" d="M247.1097,-225.3796C255.3485,-226.2397 263.955,-227.1382 272.6146,-228.0422"/>
<polygon fill="#191970" stroke="#191970" points="272.4764,-231.5467 282.7857,-229.104 273.2032,-224.5845 272.4764,-231.5467"/>
</g>
<!-- Node380859 -->
<g id="node11" class="node">
<title>Node380859</title>
<g id="a_node11"><a xlink:href="quickjs_8h.html#a89b7c8686c7eee70b86be722ee4730ad" target="_top" xlink:title="JS_GetProperty">
<polygon fill="none" stroke="#ff0000" points="325,-266.5 325,-285.5 411,-285.5 411,-266.5 325,-266.5"/>
<text text-anchor="middle" x="368" y="-273.5" font-family="Helvetica,sans-Serif" font-size="10.00" fill="#000000">JS_GetProperty</text>
</a>
</g>
</g>
<!-- Node380738&#45;&gt;Node380859 -->
<g id="edge13" class="edge">
<title>Node380738&#45;&gt;Node380859</title>
<path fill="none" stroke="#191970" d="M207.6199,-228.576C227.0574,-236.9176 256.5364,-248.911 283,-257 293.1914,-260.1151 304.2135,-262.9551 314.8366,-265.4353"/>
<polygon fill="#191970" stroke="#191970" points="314.3337,-268.9098 324.8592,-267.7002 315.8767,-262.082 314.3337,-268.9098"/>
</g>
<!-- Node381168 -->
<g id="node12" class="node">
<title>Node381168</title>
<g id="a_node12"><a xlink:href="quickjs_8h.html#af763b173e78debf2075670ca2c128a30" target="_top" xlink:title="JS_SetProperty">
<polygon fill="none" stroke="#000000" points="325,-342.5 325,-361.5 411,-361.5 411,-342.5 325,-342.5"/>
<text text-anchor="middle" x="368" y="-349.5" font-family="Helvetica,sans-Serif" font-size="10.00" fill="#000000">JS_SetProperty</text>
</a>
</g>
</g>
<!-- Node380738&#45;&gt;Node381168 -->
<g id="edge15" class="edge">
<title>Node380738&#45;&gt;Node381168</title>
<path fill="none" stroke="#191970" d="M191.7297,-228.506C205.009,-249.7093 240.0586,-301.1146 283,-328 292.7506,-334.1048 304.0863,-338.6927 315.2407,-342.1284"/>
<polygon fill="#191970" stroke="#191970" points="314.3777,-345.5215 324.9519,-344.8603 316.2734,-338.783 314.3777,-345.5215"/>
</g>
<!-- Node380740 -->
<g id="node4" class="node">
<title>Node380740</title>
<g id="a_node4"><a xlink:href="quickjs_8c.html#ab50618f1bf78e444caa6da0e3e2785d7" target="_top" xlink:title="JS_DefineProperty">
<polygon fill="none" stroke="#ff0000" points="664,-228.5 664,-247.5 763,-247.5 763,-228.5 664,-228.5"/>
<text text-anchor="middle" x="713.5" y="-235.5" font-family="Helvetica,sans-Serif" font-size="10.00" fill="#000000">JS_DefineProperty</text>
</a>
</g>
</g>
<!-- Node380739&#45;&gt;Node380740 -->
<g id="edge3" class="edge">
<title>Node380739&#45;&gt;Node380740</title>
<path fill="none" stroke="#191970" d="M601.8975,-171.5505C610.7207,-174.1303 619.804,-177.2666 628,-181 652.1939,-192.0207 677.1933,-209.526 693.8619,-222.2317"/>
<polygon fill="#191970" stroke="#191970" points="691.7272,-225.0054 701.7707,-228.3787 696.0229,-219.4785 691.7272,-225.0054"/>
</g>
<!-- Node380739&#45;&gt;Node380768 -->
<g id="edge7" class="edge">
<title>Node380739&#45;&gt;Node380768</title>
<path fill="none" stroke="#191970" d="M593.5141,-171.517C604.553,-174.5323 616.7903,-177.8901 628,-181 688.0631,-197.6631 704.694,-196.9627 763,-219 780.868,-225.7534 800.2043,-235.0185 815.2744,-242.7093"/>
<polygon fill="#191970" stroke="#191970" points="814.0145,-245.9985 824.5033,-247.4937 817.2363,-239.784 814.0145,-245.9985"/>
</g>
<!-- Node380740&#45;&gt;Node380768 -->
<g id="edge4" class="edge">
<title>Node380740&#45;&gt;Node380768</title>
<path fill="none" stroke="#191970" d="M763.1815,-245.3459C772.931,-246.7875 783.153,-248.2989 792.8838,-249.7377"/>
<polygon fill="#191970" stroke="#191970" points="792.4019,-253.2044 802.8063,-251.2048 793.4258,-246.2797 792.4019,-253.2044"/>
</g>
<!-- Node380740&#45;&gt;Node380804 -->
<g id="edge5" class="edge">
<title>Node380740&#45;&gt;Node380804</title>
<path fill="none" stroke="#191970" d="M738.0301,-228.456C746.3713,-224.6163 755.4783,-219.729 763,-214 790.4141,-193.1197 815.4463,-161.5492 829.6889,-141.8847"/>
<polygon fill="#191970" stroke="#191970" points="832.6848,-143.7103 835.6104,-133.5274 826.9732,-139.6633 832.6848,-143.7103"/>
</g>
<!-- Node380740&#45;&gt;Node380882 -->
<g id="edge6" class="edge">
<title>Node380740&#45;&gt;Node380882</title>
<path fill="none" stroke="#191970" d="M729.7746,-247.6255C751.7887,-260.6454 791.2606,-283.9907 817.0379,-299.2364"/>
<polygon fill="#191970" stroke="#191970" points="815.4685,-302.3745 825.8575,-304.4527 819.032,-296.3494 815.4685,-302.3745"/>
</g>
<!-- Node381093&#45;&gt;Node381092 -->
<g id="edge11" class="edge">
<title>Node381093&#45;&gt;Node381092</title>
<path fill="none" stroke="#191970" d="M453.2207,-238C468.5263,-238 484.1813,-238 498.581,-238"/>
<polygon fill="#191970" stroke="#191970" points="498.8215,-241.5001 508.8215,-238 498.8214,-234.5001 498.8215,-241.5001"/>
</g>
<!-- Node381093&#45;&gt;Node381006 -->
<g id="edge12" class="edge">
<title>Node381093&#45;&gt;Node381006</title>
<path fill="none" stroke="#191970" d="M416.0712,-228.411C441.7759,-223.2835 473.6134,-216.9328 500.6642,-211.5368"/>
<polygon fill="#191970" stroke="#191970" points="501.6524,-214.9087 510.7745,-209.5201 500.283,-208.044 501.6524,-214.9087"/>
</g>
<!-- Node381098 -->
<g id="node13" class="node">
<title>Node381098</title>
<g id="a_node13"><a xlink:href="quickjs_8c.html#ad7f03358a8088ca920ab308225c6b2e6" target="_top" xlink:title="JS_SetPropertyInternal">
<polygon fill="none" stroke="#ff0000" points="499.5,-266.5 499.5,-285.5 617.5,-285.5 617.5,-266.5 499.5,-266.5"/>
<text text-anchor="middle" x="558.5" y="-273.5" font-family="Helvetica,sans-Serif" font-size="10.00" fill="#000000">JS_SetPropertyInternal</text>
</a>
</g>
</g>
<!-- Node381168&#45;&gt;Node381098 -->
<g id="edge16" class="edge">
<title>Node381168&#45;&gt;Node381098</title>
<path fill="none" stroke="#191970" d="M407.4193,-342.4798C421.9386,-338.5545 438.3985,-333.6058 453,-328 480.9382,-317.274 511.4641,-301.7867 532.4586,-290.5049"/>
<polygon fill="#191970" stroke="#191970" points="534.2764,-293.5006 541.3905,-285.6495 530.9331,-287.3505 534.2764,-293.5006"/>
</g>
<!-- Node381098&#45;&gt;Node380740 -->
<g id="edge17" class="edge">
<title>Node381098&#45;&gt;Node380740</title>
<path fill="none" stroke="#191970" d="M597.613,-266.411C617.9748,-261.4191 643.0663,-255.2676 664.6887,-249.9666"/>
<polygon fill="#191970" stroke="#191970" points="665.7892,-253.3006 674.6682,-247.5201 664.1224,-246.5019 665.7892,-253.3006"/>
</g>
<!-- Node381098&#45;&gt;Node380768 -->
<g id="edge18" class="edge">
<title>Node381098&#45;&gt;Node380768</title>
<path fill="none" stroke="#191970" d="M617.5858,-272.0401C669.5505,-268.5575 744.298,-263.5479 793.0029,-260.2838"/>
<polygon fill="#191970" stroke="#191970" points="793.2397,-263.7758 802.9832,-259.6149 792.7715,-256.7915 793.2397,-263.7758"/>
</g>
<!-- Node381098&#45;&gt;Node380804 -->
<g id="edge19" class="edge">
<title>Node381098&#45;&gt;Node380804</title>
<path fill="none" stroke="#191970" d="M607.0136,-266.4235C614.323,-263.9488 621.5613,-260.8564 628,-257 647.9584,-245.0461 645.4983,-233.104 664,-219 710.5414,-183.5209 772.1474,-153.8889 809.3326,-137.5831"/>
<polygon fill="#191970" stroke="#191970" points="810.8995,-140.7188 818.6882,-133.5363 808.1205,-134.2941 810.8995,-140.7188"/>
</g>
<!-- Node381098&#45;&gt;Node380882 -->
<g id="edge20" class="edge">
<title>Node381098&#45;&gt;Node380882</title>
<path fill="none" stroke="#191970" d="M617.5858,-283.9198C668.0355,-290.682 739.9589,-300.3225 788.6778,-306.8528"/>
<polygon fill="#191970" stroke="#191970" points="788.3293,-310.3373 798.7056,-308.1969 789.2593,-303.3993 788.3293,-310.3373"/>
</g>
<!-- Node380970&#45;&gt;Node380739 -->
<g id="edge26" class="edge">
<title>Node380970&#45;&gt;Node380739</title>
<path fill="none" stroke="#191970" d="M392.127,-95.6255C425.7646,-109.0452 486.8968,-133.4339 524.955,-148.6172"/>
<polygon fill="#191970" stroke="#191970" points="523.9839,-151.998 534.5689,-152.4527 526.5778,-145.4963 523.9839,-151.998"/>
</g>
<!-- Node380970&#45;&gt;Node380804 -->
<g id="edge27" class="edge">
<title>Node380970&#45;&gt;Node380804</title>
<path fill="none" stroke="#191970" d="M405.1578,-86.8373C475.3167,-88.7328 632.0084,-94.4656 763,-110 771.3511,-110.9904 780.1572,-112.2923 788.7391,-113.7037"/>
<polygon fill="#191970" stroke="#191970" points="788.2236,-117.1663 798.6699,-115.3988 789.4014,-110.2661 788.2236,-117.1663"/>
</g>
</g>
</svg>
        <g id="navigator" transform="translate(0 0)" fill="#404254">
                <rect fill="#f2f5e9" fill-opacity="0.5" stroke="#606060" stroke-width=".5" x="0" y="0" width="60" height="60"/>
                <use id="zoomplus" xlink:href="#zoomPlus" x="17" y="9" onmousedown="handleZoom(evt,'in')"/>
                <use id="zoomminus" xlink:href="#zoomMin" x="42" y="9" onmousedown="handleZoom(evt,'out')"/>
                <use id="reset" xlink:href="#resetDef" x="30" y="36" onmousedown="handleReset()"/>
                <g id="arrowUp" xlink:href="#dirArrow" transform="translate(30 24)" onmousedown="handlePan(0,-1)">
                  <use xlink:href="#rim" fill="#404040">
                        <set attributeName="fill" to="#808080" begin="arrowUp.mouseover" end="arrowUp.mouseout"/>
                  </use>
                  <path fill="none" stroke="white" stroke-width="1.5" d="M0,-3.0v7 M-2.5,-0.5L0,-3.0L2.5,-0.5"/>
                </g>
                <g id="arrowRight" xlink:href="#dirArrow" transform="rotate(90) translate(36 -43)" onmousedown="handlePan(1,0)">
                  <use xlink:href="#rim" fill="#404040">
                        <set attributeName="fill" to="#808080" begin="arrowRight.mouseover" end="arrowRight.mouseout"/>
                  </use>
                  <path fill="none" stroke="white" stroke-width="1.5" d="M0,-3.0v7 M-2.5,-0.5L0,-3.0L2.5,-0.5"/>
                </g>
                <g id="arrowDown" xlink:href="#dirArrow" transform="rotate(180) translate(-30 -48)" onmousedown="handlePan(0,1)">
                  <use xlink:href="#rim" fill="#404040">
                        <set attributeName="fill" to="#808080" begin="arrowDown.mouseover" end="arrowDown.mouseout"/>
                  </use>
                  <path fill="none" stroke="white" stroke-width="1.5" d="M0,-3.0v7 M-2.5,-0.5L0,-3.0L2.5,-0.5"/>
                </g>
                <g id="arrowLeft" xlink:href="#dirArrow" transform="rotate(270) translate(-36 17)" onmousedown="handlePan(-1,0)">
                  <use xlink:href="#rim" fill="#404040">
                        <set attributeName="fill" to="#808080" begin="arrowLeft.mouseover" end="arrowLeft.mouseout"/>
                  </use>
                  <path fill="none" stroke="white" stroke-width="1.5" d="M0,-3.0v7 M-2.5,-0.5L0,-3.0L2.5,-0.5"/>
                </g>
        </g>
        <svg viewBox="0 0 15 15" width="100%" height="30px" preserveAspectRatio="xMaxYMin meet">
         <g id="arrow_out" transform="scale(0.3 0.3)">
          <a xlink:href="quickjs_8c_ae69502aeeec991fb0bf5a9657aaa7453_cgraph_org.svg" target="_base">
           <rect id="button" ry="5" rx="5" y="6" x="6" height="38" width="38"
                fill="#f2f5e9" fill-opacity="0.5" stroke="#606060" stroke-width="1.0"/>
           <path id="arrow"
             d="M 11.500037,31.436501 C 11.940474,20.09759 22.043105,11.32322 32.158766,21.979434 L 37.068811,17.246167 C 37.068811,17.246167 37.088388,32 37.088388,32 L 22.160133,31.978069 C 22.160133,31.978069 26.997745,27.140456 26.997745,27.140456 C 18.528582,18.264221 13.291696,25.230495 11.500037,31.436501 z"
             style="fill:#404040;"/>
          </a>
         </g>
        </svg>
</svg>
