<?xml version="1.0" encoding="UTF-8" standalone="no"?>
<!DOCTYPE svg PUBLIC "-//W3C//DTD SVG 1.1//EN"
 "http://www.w3.org/Graphics/SVG/1.1/DTD/svg11.dtd">
<!-- Generated by graphviz version 2.40.1 (20161225.0304)
 -->
<!-- Title: worker_func Pages: 1 -->
<svg width="616pt" height="731pt"
 viewBox="0.00 0.00 616.00 731.00" xmlns="http://www.w3.org/2000/svg" xmlns:xlink="http://www.w3.org/1999/xlink">
<g id="graph0" class="graph" transform="scale(1 1) rotate(0) translate(4 727)">
<title>worker_func</title>
<!-- Node26916 -->
<g id="node1" class="node">
<title>Node26916</title>
<polygon fill="#bfbfbf" stroke="#000000" points="0,-228.5 0,-247.5 70,-247.5 70,-228.5 0,-228.5"/>
<text text-anchor="middle" x="35" y="-235.5" font-family="Helvetica,sans-Serif" font-size="10.00" fill="#000000">worker_func</text>
</g>
<!-- Node26917 -->
<g id="node2" class="node">
<title>Node26917</title>
<g id="a_node2"><a xlink:href="quickjs_8c.html#a1b4fe6eb1b7bcaec6713bd5ac2921f1b" target="_top" xlink:title="JS_FreeContext">
<polygon fill="none" stroke="#000000" points="283,-608.5 283,-627.5 371,-627.5 371,-608.5 283,-608.5"/>
<text text-anchor="middle" x="327" y="-615.5" font-family="Helvetica,sans-Serif" font-size="10.00" fill="#000000">JS_FreeContext</text>
</a>
</g>
</g>
<!-- Node26916&#45;&gt;Node26917 -->
<g id="edge1" class="edge">
<title>Node26916&#45;&gt;Node26917</title>
<path fill="none" stroke="#191970" d="M35.4841,-247.6032C38.2774,-298.9482 54.0681,-540.5386 106,-589 150.2022,-630.2483 222.7659,-631.9505 272.6094,-627.013"/>
<polygon fill="#191970" stroke="#191970" points="273.0174,-630.4893 282.5709,-625.9087 272.2461,-623.5319 273.0174,-630.4893"/>
</g>
<!-- Node26955 -->
<g id="node9" class="node">
<title>Node26955</title>
<g id="a_node9"><a xlink:href="quickjs_8c.html#ad80a65b72c3a346d8a0047858a5f0b13" target="_top" xlink:title="JS_FreeRuntime">
<polygon fill="none" stroke="#000000" points="126.5,-190.5 126.5,-209.5 216.5,-209.5 216.5,-190.5 126.5,-190.5"/>
<text text-anchor="middle" x="171.5" y="-197.5" font-family="Helvetica,sans-Serif" font-size="10.00" fill="#000000">JS_FreeRuntime</text>
</a>
</g>
</g>
<!-- Node26916&#45;&gt;Node26955 -->
<g id="edge9" class="edge">
<title>Node26916&#45;&gt;Node26955</title>
<path fill="none" stroke="#191970" d="M69.4447,-228.411C86.9847,-223.5281 108.51,-217.5357 127.2631,-212.315"/>
<polygon fill="#191970" stroke="#191970" points="128.3713,-215.6397 137.0663,-209.5859 126.494,-208.8961 128.3713,-215.6397"/>
</g>
<!-- Node26972 -->
<g id="node16" class="node">
<title>Node26972</title>
<g id="a_node16"><a xlink:href="quickjs-libc_8c.html#ad61d60681847f324c5ba4ad88c546f1e" target="_top" xlink:title="js_module_loader">
<polygon fill="none" stroke="#ff0000" points="125.5,-361.5 125.5,-380.5 217.5,-380.5 217.5,-361.5 125.5,-361.5"/>
<text text-anchor="middle" x="171.5" y="-368.5" font-family="Helvetica,sans-Serif" font-size="10.00" fill="#000000">js_module_loader</text>
</a>
</g>
</g>
<!-- Node26916&#45;&gt;Node26972 -->
<g id="edge17" class="edge">
<title>Node26916&#45;&gt;Node26972</title>
<path fill="none" stroke="#191970" d="M44.8167,-247.565C67.7259,-269.8868 124.971,-325.664 154.0126,-353.961"/>
<polygon fill="#191970" stroke="#191970" points="151.7991,-356.6909 161.4039,-361.1628 156.6841,-351.6773 151.7991,-356.6909"/>
</g>
<!-- Node27359 -->
<g id="node23" class="node">
<title>Node27359</title>
<g id="a_node23"><a xlink:href="quickjs_8c.html#afc1ca27a266094085ebb43e2eea0dda2" target="_top" xlink:title="JS_NewRuntime">
<polygon fill="none" stroke="#ff0000" points="126,-152.5 126,-171.5 217,-171.5 217,-152.5 126,-152.5"/>
<text text-anchor="middle" x="171.5" y="-159.5" font-family="Helvetica,sans-Serif" font-size="10.00" fill="#000000">JS_NewRuntime</text>
</a>
</g>
</g>
<!-- Node26916&#45;&gt;Node27359 -->
<g id="edge28" class="edge">
<title>Node26916&#45;&gt;Node27359</title>
<path fill="none" stroke="#191970" d="M44.6755,-228.1067C57.5659,-215.4597 81.5959,-193.6862 106,-181 110.304,-178.7626 114.908,-176.7547 119.6056,-174.9602"/>
<polygon fill="#191970" stroke="#191970" points="121.0261,-178.1715 129.3137,-171.5712 118.7189,-171.5627 121.0261,-178.1715"/>
</g>
<!-- Node27377 -->
<g id="node24" class="node">
<title>Node27377</title>
<g id="a_node24"><a xlink:href="quickjs_8c.html#a1bd1f65ec3dfbd0ae95b3fd84e95cb77" target="_top" xlink:title="JS_SetCanBlock">
<polygon fill="none" stroke="#000000" points="125.5,-114.5 125.5,-133.5 217.5,-133.5 217.5,-114.5 125.5,-114.5"/>
<text text-anchor="middle" x="171.5" y="-121.5" font-family="Helvetica,sans-Serif" font-size="10.00" fill="#000000">JS_SetCanBlock</text>
</a>
</g>
</g>
<!-- Node26916&#45;&gt;Node27377 -->
<g id="edge29" class="edge">
<title>Node26916&#45;&gt;Node27377</title>
<path fill="none" stroke="#191970" d="M39.5499,-228.2823C49.0737,-209.0138 72.9906,-165.858 106,-143 109.1028,-140.8514 112.4484,-138.9433 115.9282,-137.2491"/>
<polygon fill="#191970" stroke="#191970" points="117.5357,-140.3693 125.3784,-133.2459 114.8052,-133.9238 117.5357,-140.3693"/>
</g>
<!-- Node27378 -->
<g id="node25" class="node">
<title>Node27378</title>
<g id="a_node25"><a xlink:href="quickjs_8c.html#ae7580084b7ee2e8ebe03e24b693750e3" target="_top" xlink:title="JS_SetModuleLoaderFunc">
<polygon fill="none" stroke="#000000" points="106,-76.5 106,-95.5 237,-95.5 237,-76.5 106,-76.5"/>
<text text-anchor="middle" x="171.5" y="-83.5" font-family="Helvetica,sans-Serif" font-size="10.00" fill="#000000">JS_SetModuleLoaderFunc</text>
</a>
</g>
</g>
<!-- Node26916&#45;&gt;Node27378 -->
<g id="edge30" class="edge">
<title>Node26916&#45;&gt;Node27378</title>
<path fill="none" stroke="#191970" d="M37.3687,-228.2917C43.866,-203.7525 64.3242,-138.7974 106,-105 108.2416,-103.1821 110.6502,-101.5382 113.1735,-100.0516"/>
<polygon fill="#191970" stroke="#191970" points="114.7405,-103.1813 122.1197,-95.5788 111.6101,-96.9202 114.7405,-103.1813"/>
</g>
<!-- Node27379 -->
<g id="node26" class="node">
<title>Node27379</title>
<g id="a_node26"><a xlink:href="quickjs-libc_8c.html#ad04466feec6822a3b838baf229f6dfa0" target="_top" xlink:title="js_std_add_helpers">
<polygon fill="none" stroke="#ff0000" points="121,-560.5 121,-579.5 222,-579.5 222,-560.5 121,-560.5"/>
<text text-anchor="middle" x="171.5" y="-567.5" font-family="Helvetica,sans-Serif" font-size="10.00" fill="#000000">js_std_add_helpers</text>
</a>
</g>
</g>
<!-- Node26916&#45;&gt;Node27379 -->
<g id="edge31" class="edge">
<title>Node26916&#45;&gt;Node27379</title>
<path fill="none" stroke="#191970" d="M36.1953,-247.7111C42.0245,-293.7544 68.7093,-489.7972 106,-537 112.3936,-545.0931 121.2987,-551.3685 130.4858,-556.1663"/>
<polygon fill="#191970" stroke="#191970" points="129.1449,-559.4032 139.6844,-560.4841 132.1193,-553.0665 129.1449,-559.4032"/>
</g>
<!-- Node27388 -->
<g id="node27" class="node">
<title>Node27388</title>
<g id="a_node27"><a xlink:href="quickjs-libc_8c.html#a82bb7888d024e97e430d98653e97a7bc" target="_top" xlink:title="js_std_dump_error">
<polygon fill="none" stroke="#ff0000" points="278.5,-532.5 278.5,-551.5 375.5,-551.5 375.5,-532.5 278.5,-532.5"/>
<text text-anchor="middle" x="327" y="-539.5" font-family="Helvetica,sans-Serif" font-size="10.00" fill="#000000">js_std_dump_error</text>
</a>
</g>
</g>
<!-- Node26916&#45;&gt;Node27388 -->
<g id="edge33" class="edge">
<title>Node26916&#45;&gt;Node27388</title>
<path fill="none" stroke="#191970" d="M36.4576,-247.5255C42.9317,-288.6314 70.3417,-450.3085 106,-485 148.9536,-526.7889 218.2903,-539.0958 267.8442,-542.1703"/>
<polygon fill="#191970" stroke="#191970" points="267.9362,-545.6794 278.1015,-542.6935 268.2929,-538.6885 267.9362,-545.6794"/>
</g>
<!-- Node27393 -->
<g id="node28" class="node">
<title>Node27393</title>
<g id="a_node28"><a xlink:href="quickjs-libc_8c.html#a090f31285f348ef3b91004b9a9a294d0" target="_top" xlink:title="js_std_free_handlers">
<polygon fill="none" stroke="#ff0000" points="118,-38.5 118,-57.5 225,-57.5 225,-38.5 118,-38.5"/>
<text text-anchor="middle" x="171.5" y="-45.5" font-family="Helvetica,sans-Serif" font-size="10.00" fill="#000000">js_std_free_handlers</text>
</a>
</g>
</g>
<!-- Node26916&#45;&gt;Node27393 -->
<g id="edge35" class="edge">
<title>Node26916&#45;&gt;Node27393</title>
<path fill="none" stroke="#191970" d="M36.1243,-228.1981C39.9951,-199.0643 55.4487,-112.2201 106,-67 107.7567,-65.4286 109.6362,-63.9867 111.6088,-62.6636"/>
<polygon fill="#191970" stroke="#191970" points="113.712,-65.4997 120.7621,-57.591 110.3188,-59.377 113.712,-65.4997"/>
</g>
<!-- Node27395 -->
<g id="node29" class="node">
<title>Node27395</title>
<g id="a_node29"><a xlink:href="quickjs-libc_8c.html#ad1f0d0ceb132b9dbe7016053de6c154a" target="_top" xlink:title="js_std_init_handlers">
<polygon fill="none" stroke="#ff0000" points="120,-228.5 120,-247.5 223,-247.5 223,-228.5 120,-228.5"/>
<text text-anchor="middle" x="171.5" y="-235.5" font-family="Helvetica,sans-Serif" font-size="10.00" fill="#000000">js_std_init_handlers</text>
</a>
</g>
</g>
<!-- Node26916&#45;&gt;Node27395 -->
<g id="edge36" class="edge">
<title>Node26916&#45;&gt;Node27395</title>
<path fill="none" stroke="#191970" d="M70.1521,-238C82.2379,-238 96.1508,-238 109.7195,-238"/>
<polygon fill="#191970" stroke="#191970" points="109.9925,-241.5001 119.9925,-238 109.9924,-234.5001 109.9925,-241.5001"/>
</g>
<!-- Node27401 -->
<g id="node30" class="node">
<title>Node27401</title>
<g id="a_node30"><a xlink:href="quickjs-libc_8c.html#af7480dad10e937004e36b2b409b084a4" target="_top" xlink:title="js_std_loop">
<polygon fill="none" stroke="#ff0000" points="138.5,-456.5 138.5,-475.5 204.5,-475.5 204.5,-456.5 138.5,-456.5"/>
<text text-anchor="middle" x="171.5" y="-463.5" font-family="Helvetica,sans-Serif" font-size="10.00" fill="#000000">js_std_loop</text>
</a>
</g>
</g>
<!-- Node26916&#45;&gt;Node27401 -->
<g id="edge38" class="edge">
<title>Node26916&#45;&gt;Node27401</title>
<path fill="none" stroke="#191970" d="M38.4697,-247.725C47.5503,-272.5547 73.5709,-339.8662 106,-390 120.2085,-411.9656 140.2895,-434.3159 154.4622,-449.0393"/>
<polygon fill="#191970" stroke="#191970" points="152.1563,-451.687 161.6533,-456.3835 157.1579,-446.7897 152.1563,-451.687"/>
</g>
<!-- Node26918 -->
<g id="node3" class="node">
<title>Node26918</title>
<g id="a_node3"><a xlink:href="quickjs_8c.html#adcabee55726eddca24893a78515c7ba2" target="_top" xlink:title="js_free_modules">
<polygon fill="none" stroke="#ff0000" points="422,-589.5 422,-608.5 510,-608.5 510,-589.5 422,-589.5"/>
<text text-anchor="middle" x="466" y="-596.5" font-family="Helvetica,sans-Serif" font-size="10.00" fill="#000000">js_free_modules</text>
</a>
</g>
</g>
<!-- Node26917&#45;&gt;Node26918 -->
<g id="edge2" class="edge">
<title>Node26917&#45;&gt;Node26918</title>
<path fill="none" stroke="#191970" d="M371.3626,-611.936C384.1519,-610.1879 398.2536,-608.2603 411.5785,-606.4389"/>
<polygon fill="#191970" stroke="#191970" points="412.1482,-609.8937 421.5821,-605.0715 411.2002,-602.9582 412.1482,-609.8937"/>
</g>
<!-- Node26952 -->
<g id="node4" class="node">
<title>Node26952</title>
<g id="a_node4"><a xlink:href="quickjs_8h.html#afaa20c47565bc704c6c85f3d77254e7d" target="_top" xlink:title="JS_FreeValue">
<polygon fill="none" stroke="#ff0000" points="427,-513.5 427,-532.5 505,-532.5 505,-513.5 427,-513.5"/>
<text text-anchor="middle" x="466" y="-520.5" font-family="Helvetica,sans-Serif" font-size="10.00" fill="#000000">JS_FreeValue</text>
</a>
</g>
</g>
<!-- Node26917&#45;&gt;Node26952 -->
<g id="edge3" class="edge">
<title>Node26917&#45;&gt;Node26952</title>
<path fill="none" stroke="#191970" d="M355.686,-608.3858C364.3326,-604.6903 373.5078,-599.9076 381,-594 401.6619,-577.708 396.6449,-563.6738 417,-547 421.4425,-543.3609 426.529,-540.0995 431.7052,-537.2409"/>
<polygon fill="#191970" stroke="#191970" points="433.6584,-540.1751 440.9996,-532.5359 430.4968,-533.9297 433.6584,-540.1751"/>
</g>
<!-- Node26925 -->
<g id="node5" class="node">
<title>Node26925</title>
<g id="a_node5"><a xlink:href="quickjs_8c.html#a69e19dda8a93d613203e0baa06f0ed8d" target="_top" xlink:title="js_free_rt">
<polygon fill="none" stroke="#000000" points="551,-456.5 551,-475.5 608,-475.5 608,-456.5 551,-456.5"/>
<text text-anchor="middle" x="579.5" y="-463.5" font-family="Helvetica,sans-Serif" font-size="10.00" fill="#000000">js_free_rt</text>
</a>
</g>
</g>
<!-- Node26917&#45;&gt;Node26925 -->
<g id="edge4" class="edge">
<title>Node26917&#45;&gt;Node26925</title>
<path fill="none" stroke="#191970" d="M349.1159,-608.4468C367.2879,-600.6492 393.733,-589.4205 417,-580 460.3008,-562.4682 476.9384,-569.0857 515,-542 537.1281,-526.2531 556.3655,-501.2512 567.9404,-484.2595"/>
<polygon fill="#191970" stroke="#191970" points="570.9668,-486.0279 573.5523,-475.7534 565.1238,-482.173 570.9668,-486.0279"/>
</g>
<!-- Node26954 -->
<g id="node6" class="node">
<title>Node26954</title>
<g id="a_node6"><a xlink:href="quickjs_8c.html#a8a02cfc587edc36995bda62a0160269c" target="_top" xlink:title="js_free_shape_null">
<polygon fill="none" stroke="#ff0000" points="417,-703.5 417,-722.5 515,-722.5 515,-703.5 417,-703.5"/>
<text text-anchor="middle" x="466" y="-710.5" font-family="Helvetica,sans-Serif" font-size="10.00" fill="#000000">js_free_shape_null</text>
</a>
</g>
</g>
<!-- Node26917&#45;&gt;Node26954 -->
<g id="edge5" class="edge">
<title>Node26917&#45;&gt;Node26954</title>
<path fill="none" stroke="#191970" d="M337.5282,-627.5319C353.7881,-641.9611 386.3439,-669.7079 417,-689 422.5769,-692.5096 428.741,-695.884 434.7614,-698.9374"/>
<polygon fill="#191970" stroke="#191970" points="433.4766,-702.2049 443.9986,-703.4449 436.5465,-695.914 433.4766,-702.2049"/>
</g>
<!-- Node26943 -->
<g id="node7" class="node">
<title>Node26943</title>
<g id="a_node7"><a xlink:href="list_8h.html#ab60d5d18869ebeb5d6ab694289576fa7" target="_top" xlink:title="list_del">
<polygon fill="none" stroke="#000000" points="556,-646.5 556,-665.5 603,-665.5 603,-646.5 556,-646.5"/>
<text text-anchor="middle" x="579.5" y="-653.5" font-family="Helvetica,sans-Serif" font-size="10.00" fill="#000000">list_del</text>
</a>
</g>
</g>
<!-- Node26917&#45;&gt;Node26943 -->
<g id="edge6" class="edge">
<title>Node26917&#45;&gt;Node26943</title>
<path fill="none" stroke="#191970" d="M343.9263,-627.5766C361.5393,-636.9486 390.2363,-650.5815 417,-656 460.7882,-664.8653 512.5847,-662.7624 545.7255,-659.8688"/>
<polygon fill="#191970" stroke="#191970" points="546.171,-663.3424 555.7962,-658.9144 545.5105,-656.3736 546.171,-663.3424"/>
</g>
<!-- Node26942 -->
<g id="node8" class="node">
<title>Node26942</title>
<g id="a_node8"><a xlink:href="quickjs_8c.html#adfb3133f30938e2db9b525ade5fc09cf" target="_top" xlink:title="remove_gc_object">
<polygon fill="none" stroke="#000000" points="418,-627.5 418,-646.5 514,-646.5 514,-627.5 418,-627.5"/>
<text text-anchor="middle" x="466" y="-634.5" font-family="Helvetica,sans-Serif" font-size="10.00" fill="#000000">remove_gc_object</text>
</a>
</g>
</g>
<!-- Node26917&#45;&gt;Node26942 -->
<g id="edge7" class="edge">
<title>Node26917&#45;&gt;Node26942</title>
<path fill="none" stroke="#191970" d="M371.3626,-624.064C382.908,-625.6421 395.5229,-627.3664 407.6703,-629.0269"/>
<polygon fill="#191970" stroke="#191970" points="407.3486,-632.5154 417.7305,-630.402 408.2967,-625.5799 407.3486,-632.5154"/>
</g>
<!-- Node26942&#45;&gt;Node26943 -->
<g id="edge8" class="edge">
<title>Node26942&#45;&gt;Node26943</title>
<path fill="none" stroke="#191970" d="M514.1342,-645.0577C524.8066,-646.8443 535.8953,-648.7005 545.8426,-650.3657"/>
<polygon fill="#191970" stroke="#191970" points="545.2898,-653.8218 555.7304,-652.021 546.4456,-646.9179 545.2898,-653.8218"/>
</g>
<!-- Node26955&#45;&gt;Node26925 -->
<g id="edge11" class="edge">
<title>Node26955&#45;&gt;Node26925</title>
<path fill="none" stroke="#191970" d="M216.898,-194.2985C261.4014,-190.8778 329.8233,-191.562 381,-219 480.6004,-272.3999 548.1712,-399.1475 570.9816,-447.1419"/>
<polygon fill="#191970" stroke="#191970" points="567.8846,-448.7828 575.2748,-456.3746 574.232,-445.8312 567.8846,-448.7828"/>
</g>
<!-- Node26928 -->
<g id="node10" class="node">
<title>Node26928</title>
<g id="a_node10"><a xlink:href="quickjs_8h.html#ab8db583fa5e7c2b1935854a42859daed" target="_top" xlink:title="JS_FreeValueRT">
<polygon fill="none" stroke="#ff0000" points="281,-152.5 281,-171.5 373,-171.5 373,-152.5 281,-152.5"/>
<text text-anchor="middle" x="327" y="-159.5" font-family="Helvetica,sans-Serif" font-size="10.00" fill="#000000">JS_FreeValueRT</text>
</a>
</g>
</g>
<!-- Node26955&#45;&gt;Node26928 -->
<g id="edge10" class="edge">
<title>Node26955&#45;&gt;Node26928</title>
<path fill="none" stroke="#191970" d="M210.7392,-190.411C231.2591,-185.3965 256.567,-179.2119 278.3255,-173.8947"/>
<polygon fill="#191970" stroke="#191970" points="279.1597,-177.294 288.043,-171.5201 277.4979,-170.494 279.1597,-177.294"/>
</g>
<!-- Node26956 -->
<g id="node11" class="node">
<title>Node26956</title>
<g id="a_node11"><a xlink:href="list_8h.html#a663527a4d757540b2177bef0db1ce5c0" target="_top" xlink:title="init_list_head">
<polygon fill="none" stroke="#000000" points="290,-228.5 290,-247.5 364,-247.5 364,-228.5 290,-228.5"/>
<text text-anchor="middle" x="327" y="-235.5" font-family="Helvetica,sans-Serif" font-size="10.00" fill="#000000">init_list_head</text>
</a>
</g>
</g>
<!-- Node26955&#45;&gt;Node26956 -->
<g id="edge12" class="edge">
<title>Node26955&#45;&gt;Node26956</title>
<path fill="none" stroke="#191970" d="M210.7392,-209.589C231.8053,-214.737 257.9175,-221.1181 280.0552,-226.528"/>
<polygon fill="#191970" stroke="#191970" points="279.3694,-229.9633 289.9144,-228.9373 281.0311,-223.1634 279.3694,-229.9633"/>
</g>
<!-- Node26957 -->
<g id="node12" class="node">
<title>Node26957</title>
<g id="a_node12"><a xlink:href="quickjs_8c.html#aeeea589ee4cec4bbc3145210f4cf6e42" target="_top" xlink:title="JS_RunGC">
<polygon fill="none" stroke="#ff0000" points="293.5,-114.5 293.5,-133.5 360.5,-133.5 360.5,-114.5 293.5,-114.5"/>
<text text-anchor="middle" x="327" y="-121.5" font-family="Helvetica,sans-Serif" font-size="10.00" fill="#000000">JS_RunGC</text>
</a>
</g>
</g>
<!-- Node26955&#45;&gt;Node26957 -->
<g id="edge13" class="edge">
<title>Node26955&#45;&gt;Node26957</title>
<path fill="none" stroke="#191970" d="M216.5358,-190.3858C223.6575,-187.905 230.7316,-184.8206 237,-181 256.8654,-168.8921 253.4814,-155.6593 273,-143 276.3744,-140.8115 280.0313,-138.8401 283.7972,-137.0719"/>
<polygon fill="#191970" stroke="#191970" points="285.4195,-140.1867 293.2837,-133.087 282.7085,-133.733 285.4195,-140.1867"/>
</g>
<!-- Node26970 -->
<g id="node13" class="node">
<title>Node26970</title>
<g id="a_node13"><a xlink:href="list_8h.html#acc8877b883e77ef12325dd5bfa4be0d3" target="_top" xlink:title="list_empty">
<polygon fill="none" stroke="#000000" points="296,-76.5 296,-95.5 358,-95.5 358,-76.5 296,-76.5"/>
<text text-anchor="middle" x="327" y="-83.5" font-family="Helvetica,sans-Serif" font-size="10.00" fill="#000000">list_empty</text>
</a>
</g>
</g>
<!-- Node26955&#45;&gt;Node26970 -->
<g id="edge14" class="edge">
<title>Node26955&#45;&gt;Node26970</title>
<path fill="none" stroke="#191970" d="M216.6909,-192.3851C224.0336,-189.6703 231.1404,-185.9896 237,-181 265.4566,-156.7687 245.2329,-130.0185 273,-105 276.9144,-101.4731 281.5234,-98.5921 286.3714,-96.2408"/>
<polygon fill="#191970" stroke="#191970" points="287.9479,-99.3772 295.8693,-92.3414 285.2893,-92.9017 287.9479,-99.3772"/>
</g>
<!-- Node26941 -->
<g id="node14" class="node">
<title>Node26941</title>
<g id="a_node14"><a xlink:href="quickjs_8c.html#a5a0aca30abbb4d4ae86746541bf4cbc7" target="_top" xlink:title="JS_FreeAtomRT">
<polygon fill="none" stroke="#ff0000" points="282,-38.5 282,-57.5 372,-57.5 372,-38.5 282,-38.5"/>
<text text-anchor="middle" x="327" y="-45.5" font-family="Helvetica,sans-Serif" font-size="10.00" fill="#000000">JS_FreeAtomRT</text>
</a>
</g>
</g>
<!-- Node26955&#45;&gt;Node26941 -->
<g id="edge15" class="edge">
<title>Node26955&#45;&gt;Node26941</title>
<path fill="none" stroke="#191970" d="M216.609,-193.2869C224.1338,-190.4861 231.3249,-186.543 237,-181 275.0105,-143.8743 236.0437,-105.1752 273,-67 274.3998,-65.554 275.916,-64.2179 277.5215,-62.9834"/>
<polygon fill="#191970" stroke="#191970" points="279.5156,-65.8651 286.1668,-57.6182 275.8244,-59.9174 279.5156,-65.8651"/>
</g>
<!-- Node26971 -->
<g id="node15" class="node">
<title>Node26971</title>
<g id="a_node15"><a xlink:href="quickjs_8c.html#ac3bdf708c1dc092fd52508b5d29bd0ce" target="_top" xlink:title="atom_is_free">
<polygon fill="none" stroke="#000000" points="290.5,-.5 290.5,-19.5 363.5,-19.5 363.5,-.5 290.5,-.5"/>
<text text-anchor="middle" x="327" y="-7.5" font-family="Helvetica,sans-Serif" font-size="10.00" fill="#000000">atom_is_free</text>
</a>
</g>
</g>
<!-- Node26955&#45;&gt;Node26971 -->
<g id="edge16" class="edge">
<title>Node26955&#45;&gt;Node26971</title>
<path fill="none" stroke="#191970" d="M216.6117,-193.747C224.2273,-190.9079 231.4502,-186.8331 237,-181 284.8538,-130.7032 226.573,-80.6167 273,-29 275.3989,-26.333 278.1947,-24.0403 281.228,-22.0695"/>
<polygon fill="#191970" stroke="#191970" points="283.0436,-25.0694 290.2723,-17.3237 279.791,-18.871 283.0436,-25.0694"/>
</g>
<!-- Node26972&#45;&gt;Node26952 -->
<g id="edge22" class="edge">
<title>Node26972&#45;&gt;Node26952</title>
<path fill="none" stroke="#191970" d="M217.627,-374.4701C271.3637,-379.3395 355.9884,-389.8306 381,-409 410.6651,-431.7359 393.5924,-455.862 417,-485 423.8769,-493.5605 433.0527,-501.3319 441.6036,-507.5841"/>
<polygon fill="#191970" stroke="#191970" points="439.628,-510.4733 449.838,-513.3028 443.621,-504.7238 439.628,-510.4733"/>
</g>
<!-- Node26973 -->
<g id="node17" class="node">
<title>Node26973</title>
<g id="a_node17"><a xlink:href="cutils_8h.html#a6ba0ed81ba200dfb3deaaff79932a5b0" target="_top" xlink:title="has_suffix">
<polygon fill="none" stroke="#000000" points="296,-342.5 296,-361.5 358,-361.5 358,-342.5 296,-342.5"/>
<text text-anchor="middle" x="327" y="-349.5" font-family="Helvetica,sans-Serif" font-size="10.00" fill="#000000">has_suffix</text>
</a>
</g>
</g>
<!-- Node26972&#45;&gt;Node26973 -->
<g id="edge18" class="edge">
<title>Node26972&#45;&gt;Node26973</title>
<path fill="none" stroke="#191970" d="M217.7341,-365.3508C239.3315,-362.7119 264.8343,-359.5958 285.7675,-357.0381"/>
<polygon fill="#191970" stroke="#191970" points="286.4437,-360.4816 295.9453,-355.7945 285.5946,-353.5332 286.4437,-360.4816"/>
</g>
<!-- Node26974 -->
<g id="node18" class="node">
<title>Node26974</title>
<g id="a_node18"><a xlink:href="quickjs_8c.html#a8f9200abd5af97fd0411fe053cb021e0" target="_top" xlink:title="JS_Eval">
<polygon fill="none" stroke="#ff0000" points="300.5,-304.5 300.5,-323.5 353.5,-323.5 353.5,-304.5 300.5,-304.5"/>
<text text-anchor="middle" x="327" y="-311.5" font-family="Helvetica,sans-Serif" font-size="10.00" fill="#000000">JS_Eval</text>
</a>
</g>
</g>
<!-- Node26972&#45;&gt;Node26974 -->
<g id="edge19" class="edge">
<title>Node26972&#45;&gt;Node26974</title>
<path fill="none" stroke="#191970" d="M196.4761,-361.4913C216.99,-353.7195 246.8242,-342.5038 273,-333 278.6853,-330.9358 284.7193,-328.7792 290.615,-326.6909"/>
<polygon fill="#191970" stroke="#191970" points="292.0531,-329.8951 300.3203,-323.2691 289.7255,-323.2934 292.0531,-329.8951"/>
</g>
<!-- Node26926 -->
<g id="node19" class="node">
<title>Node26926</title>
<g id="a_node19"><a xlink:href="quickjs_8c.html#a80e54dcf9ac687d4ccc2f90273565f30" target="_top" xlink:title="js_free">
<polygon fill="none" stroke="#000000" points="443,-456.5 443,-475.5 489,-475.5 489,-456.5 443,-456.5"/>
<text text-anchor="middle" x="466" y="-463.5" font-family="Helvetica,sans-Serif" font-size="10.00" fill="#000000">js_free</text>
</a>
</g>
</g>
<!-- Node26972&#45;&gt;Node26926 -->
<g id="edge20" class="edge">
<title>Node26972&#45;&gt;Node26926</title>
<path fill="none" stroke="#191970" d="M180.092,-361.3578C196.2407,-344.0499 233.1059,-308.2806 273,-295 318.5428,-279.839 340.1983,-269.7171 381,-295 435.3984,-328.7081 456.0884,-408.806 462.9755,-446.1702"/>
<polygon fill="#191970" stroke="#191970" points="459.5697,-447.021 464.6918,-456.2954 466.4713,-445.8511 459.5697,-447.021"/>
</g>
<!-- Node26976 -->
<g id="node20" class="node">
<title>Node26976</title>
<g id="a_node20"><a xlink:href="quickjs_8h.html#ad80a83d73e9b7d872b88fbf2943aebe9" target="_top" xlink:title="JS_IsException">
<polygon fill="none" stroke="#000000" points="284,-418.5 284,-437.5 370,-437.5 370,-418.5 284,-418.5"/>
<text text-anchor="middle" x="327" y="-425.5" font-family="Helvetica,sans-Serif" font-size="10.00" fill="#000000">JS_IsException</text>
</a>
</g>
</g>
<!-- Node26972&#45;&gt;Node26976 -->
<g id="edge23" class="edge">
<title>Node26972&#45;&gt;Node26976</title>
<path fill="none" stroke="#191970" d="M197.5272,-380.5405C223.2042,-389.9527 262.6552,-404.4138 291.262,-414.8999"/>
<polygon fill="#191970" stroke="#191970" points="290.2942,-418.2728 300.8879,-418.4284 292.7034,-411.7004 290.2942,-418.2728"/>
</g>
<!-- Node26977 -->
<g id="node21" class="node">
<title>Node26977</title>
<g id="a_node21"><a xlink:href="quickjs-libc_8c.html#a529207225a77f71253f17893e1e6dffb" target="_top" xlink:title="js_load_file">
<polygon fill="none" stroke="#000000" points="294.5,-494.5 294.5,-513.5 359.5,-513.5 359.5,-494.5 294.5,-494.5"/>
<text text-anchor="middle" x="327" y="-501.5" font-family="Helvetica,sans-Serif" font-size="10.00" fill="#000000">js_load_file</text>
</a>
</g>
</g>
<!-- Node26972&#45;&gt;Node26977 -->
<g id="edge24" class="edge">
<title>Node26972&#45;&gt;Node26977</title>
<path fill="none" stroke="#191970" d="M179.9261,-380.7268C203.2372,-407.6008 267.2506,-481.1435 273,-485 276.7219,-487.4965 280.808,-489.703 285.0147,-491.6442"/>
<polygon fill="#191970" stroke="#191970" points="283.7424,-494.9054 294.3216,-495.4798 286.4096,-488.4334 283.7424,-494.9054"/>
</g>
<!-- Node26978 -->
<g id="node22" class="node">
<title>Node26978</title>
<g id="a_node22"><a xlink:href="quickjs-libc_8c.html#a403f4287b78b0e8e88e39e1d9cffa463" target="_top" xlink:title="js_module_loader_so">
<polygon fill="none" stroke="#000000" points="273,-456.5 273,-475.5 381,-475.5 381,-456.5 273,-456.5"/>
<text text-anchor="middle" x="327" y="-463.5" font-family="Helvetica,sans-Serif" font-size="10.00" fill="#000000">js_module_loader_so</text>
</a>
</g>
</g>
<!-- Node26972&#45;&gt;Node26978 -->
<g id="edge26" class="edge">
<title>Node26972&#45;&gt;Node26978</title>
<path fill="none" stroke="#191970" d="M182.0153,-380.613C199.6669,-396.3315 236.8821,-427.7111 273,-447 276.797,-449.0278 280.8549,-450.9133 284.9768,-452.6466"/>
<polygon fill="#191970" stroke="#191970" points="284.0297,-456.0341 294.6179,-456.4102 286.5753,-449.5133 284.0297,-456.0341"/>
</g>
<!-- Node26926&#45;&gt;Node26925 -->
<g id="edge21" class="edge">
<title>Node26926&#45;&gt;Node26925</title>
<path fill="none" stroke="#191970" d="M489.2423,-466C503.9584,-466 523.3579,-466 540.3994,-466"/>
<polygon fill="#191970" stroke="#191970" points="540.6425,-469.5001 550.6424,-466 540.6424,-462.5001 540.6425,-469.5001"/>
</g>
<!-- Node26977&#45;&gt;Node26926 -->
<g id="edge25" class="edge">
<title>Node26977&#45;&gt;Node26926</title>
<path fill="none" stroke="#191970" d="M359.5893,-495.0907C381.7175,-489.0413 410.8782,-481.0693 433.0766,-475.0006"/>
<polygon fill="#191970" stroke="#191970" points="434.0127,-478.3732 442.7357,-472.36 432.1667,-471.621 434.0127,-478.3732"/>
</g>
<!-- Node26978&#45;&gt;Node26926 -->
<g id="edge27" class="edge">
<title>Node26978&#45;&gt;Node26926</title>
<path fill="none" stroke="#191970" d="M381.139,-466C398.481,-466 417.1661,-466 432.5769,-466"/>
<polygon fill="#191970" stroke="#191970" points="432.666,-469.5001 442.666,-466 432.6659,-462.5001 432.666,-469.5001"/>
</g>
<!-- Node27379&#45;&gt;Node26952 -->
<g id="edge32" class="edge">
<title>Node27379&#45;&gt;Node26952</title>
<path fill="none" stroke="#191970" d="M222.1734,-573.0976C265.0601,-574.473 327.8513,-573.538 381,-561 392.2728,-558.3407 417.5604,-546.7511 437.6398,-537.0625"/>
<polygon fill="#191970" stroke="#191970" points="439.2529,-540.17 446.7116,-532.6454 436.1885,-533.8764 439.2529,-540.17"/>
</g>
<!-- Node27388&#45;&gt;Node26952 -->
<g id="edge34" class="edge">
<title>Node27388&#45;&gt;Node26952</title>
<path fill="none" stroke="#191970" d="M375.6155,-535.3547C388.966,-533.5298 403.4501,-531.55 416.8315,-529.7209"/>
<polygon fill="#191970" stroke="#191970" points="417.3786,-533.1787 426.8124,-528.3566 416.4305,-526.2432 417.3786,-533.1787"/>
</g>
<!-- Node27395&#45;&gt;Node26956 -->
<g id="edge37" class="edge">
<title>Node27395&#45;&gt;Node26956</title>
<path fill="none" stroke="#191970" d="M223.2792,-238C241.4475,-238 261.7534,-238 279.5489,-238"/>
<polygon fill="#191970" stroke="#191970" points="279.7014,-241.5001 289.7013,-238 279.7013,-234.5001 279.7014,-241.5001"/>
</g>
<!-- Node27401&#45;&gt;Node27388 -->
<g id="edge39" class="edge">
<title>Node27401&#45;&gt;Node27388</title>
<path fill="none" stroke="#191970" d="M186.545,-475.5437C205.9923,-487.6212 241.1471,-508.5837 273,-523 277.6346,-525.0976 282.5748,-527.116 287.5131,-529.003"/>
<polygon fill="#191970" stroke="#191970" points="286.3326,-532.298 296.9263,-532.4561 288.7434,-525.7262 286.3326,-532.298"/>
</g>
</g>
</svg>
