<?xml version="1.0" encoding="UTF-8" standalone="no"?>
<!DOCTYPE svg PUBLIC "-//W3C//DTD SVG 1.1//EN"
 "http://www.w3.org/Graphics/SVG/1.1/DTD/svg11.dtd">
<!-- Generated by graphviz version 2.40.1 (20161225.0304)
 -->
<!-- Title: js_strdup Pages: 1 -->
<svg width="600pt" height="78pt"
 viewBox="0.00 0.00 600.00 77.50" xmlns="http://www.w3.org/2000/svg" xmlns:xlink="http://www.w3.org/1999/xlink">
<g id="graph0" class="graph" transform="scale(1 1) rotate(0) translate(4 73.5)">
<title>js_strdup</title>
<!-- Node16979 -->
<g id="node1" class="node">
<title>Node16979</title>
<polygon fill="#bfbfbf" stroke="#000000" points="0,-22.5 0,-41.5 56,-41.5 56,-22.5 0,-22.5"/>
<text text-anchor="middle" x="28" y="-29.5" font-family="Helvetica,sans-Serif" font-size="10.00" fill="#000000">js_strdup</text>
</g>
<!-- Node16980 -->
<g id="node2" class="node">
<title>Node16980</title>
<g id="a_node2"><a xlink:href="quickjs_8c.html#a412ab329319b697a75481a981199fa73" target="_top" xlink:title="js_default_module_normalize_name">
<polygon fill="none" stroke="#000000" points="92,-22.5 92,-41.5 264,-41.5 264,-22.5 92,-22.5"/>
<text text-anchor="middle" x="178" y="-29.5" font-family="Helvetica,sans-Serif" font-size="10.00" fill="#000000">js_default_module_normalize_name</text>
</a>
</g>
</g>
<!-- Node16979&#45;&gt;Node16980 -->
<g id="edge1" class="edge">
<title>Node16979&#45;&gt;Node16980</title>
<path fill="none" stroke="#191970" d="M66.2716,-32C74.2813,-32 83.0331,-32 91.9993,-32"/>
<polygon fill="#191970" stroke="#191970" points="66.2139,-28.5001 56.2139,-32 66.2138,-35.5001 66.2139,-28.5001"/>
</g>
<!-- Node16981 -->
<g id="node3" class="node">
<title>Node16981</title>
<g id="a_node3"><a xlink:href="quickjs_8c.html#a90dd988b99a5bc7b2a4aaffd2de405a9" target="_top" xlink:title="js_host_resolve_imported\l_module">
<polygon fill="none" stroke="#000000" points="300,-17 300,-47 428,-47 428,-17 300,-17"/>
<text text-anchor="start" x="308" y="-35" font-family="Helvetica,sans-Serif" font-size="10.00" fill="#000000">js_host_resolve_imported</text>
<text text-anchor="middle" x="364" y="-24" font-family="Helvetica,sans-Serif" font-size="10.00" fill="#000000">_module</text>
</a>
</g>
</g>
<!-- Node16980&#45;&gt;Node16981 -->
<g id="edge2" class="edge">
<title>Node16980&#45;&gt;Node16981</title>
<path fill="none" stroke="#191970" d="M274.3146,-32C282.9363,-32 291.5199,-32 299.7686,-32"/>
<polygon fill="#191970" stroke="#191970" points="274.1939,-28.5001 264.1939,-32 274.1939,-35.5001 274.1939,-28.5001"/>
</g>
<!-- Node16982 -->
<g id="node4" class="node">
<title>Node16982</title>
<g id="a_node4"><a xlink:href="quickjs_8c.html#a5b9215d5347fb8696212caf3f8ebfad0" target="_top" xlink:title="js_host_resolve_imported\l_module_atom">
<polygon fill="none" stroke="#ff0000" points="464,-39 464,-69 592,-69 592,-39 464,-39"/>
<text text-anchor="start" x="472" y="-57" font-family="Helvetica,sans-Serif" font-size="10.00" fill="#000000">js_host_resolve_imported</text>
<text text-anchor="middle" x="528" y="-46" font-family="Helvetica,sans-Serif" font-size="10.00" fill="#000000">_module_atom</text>
</a>
</g>
</g>
<!-- Node16981&#45;&gt;Node16982 -->
<g id="edge3" class="edge">
<title>Node16981&#45;&gt;Node16982</title>
<path fill="none" stroke="#191970" d="M438.2859,-41.9652C446.8158,-43.1094 455.4581,-44.2688 463.8391,-45.3931"/>
<polygon fill="#191970" stroke="#191970" points="438.723,-38.4926 428.3464,-40.6318 437.7923,-45.4304 438.723,-38.4926"/>
</g>
<!-- Node16990 -->
<g id="node5" class="node">
<title>Node16990</title>
<g id="a_node5"><a xlink:href="quickjs_8c.html#aa75a2b06808d8da661d4eb6698b17cab" target="_top" xlink:title="JS_RunModule">
<polygon fill="none" stroke="#ff0000" points="486.5,-.5 486.5,-19.5 569.5,-19.5 569.5,-.5 486.5,-.5"/>
<text text-anchor="middle" x="528" y="-7.5" font-family="Helvetica,sans-Serif" font-size="10.00" fill="#000000">JS_RunModule</text>
</a>
</g>
</g>
<!-- Node16981&#45;&gt;Node16990 -->
<g id="edge4" class="edge">
<title>Node16981&#45;&gt;Node16990</title>
<path fill="none" stroke="#191970" d="M438.4399,-22.0142C454.7721,-19.8233 471.5077,-17.5782 486.0254,-15.6307"/>
<polygon fill="#191970" stroke="#191970" points="437.7923,-18.5696 428.3464,-23.3682 438.723,-25.5074 437.7923,-18.5696"/>
</g>
</g>
</svg>
