<?xml version="1.0" encoding="UTF-8" standalone="no"?>
<!DOCTYPE svg PUBLIC "-//W3C//DTD SVG 1.1//EN"
 "http://www.w3.org/Graphics/SVG/1.1/DTD/svg11.dtd">
<!-- Generated by graphviz version 2.40.1 (20161225.0304)
 -->
<!-- Title: js_parse_destructuring_element Pages: 1 -->
<svg width="958pt" height="1494pt"
 viewBox="0.00 0.00 958.00 1494.00" xmlns="http://www.w3.org/2000/svg" xmlns:xlink="http://www.w3.org/1999/xlink">
<g id="graph0" class="graph" transform="scale(1 1) rotate(0) translate(4 1490)">
<title>js_parse_destructuring_element</title>
<!-- Node320248 -->
<g id="node1" class="node">
<title>Node320248</title>
<polygon fill="#bfbfbf" stroke="#000000" points="0,-663 0,-693 115,-693 115,-663 0,-663"/>
<text text-anchor="start" x="8" y="-681" font-family="Helvetica,sans-Serif" font-size="10.00" fill="#000000">js_parse_destructuring</text>
<text text-anchor="middle" x="57.5" y="-670" font-family="Helvetica,sans-Serif" font-size="10.00" fill="#000000">_element</text>
</g>
<!-- Node320248&#45;&gt;Node320248 -->
<g id="edge61" class="edge">
<title>Node320248&#45;&gt;Node320248</title>
<path fill="none" stroke="#191970" d="M30.6623,-693.159C24.1908,-702.5566 33.1367,-711.5 57.5,-711.5 72.3464,-711.5 81.4677,-708.179 84.8639,-703.4579"/>
<polygon fill="#191970" stroke="#191970" points="88.3435,-702.9673 84.3377,-693.159 81.3527,-703.3246 88.3435,-702.9673"/>
</g>
<!-- Node320249 -->
<g id="node2" class="node">
<title>Node320249</title>
<g id="a_node2"><a xlink:href="quickjs_8c.html#a853f0924d441ea4225488f37c8b69f9a" target="_top" xlink:title="__attribute__">
<polygon fill="none" stroke="#000000" points="176,-1466.5 176,-1485.5 249,-1485.5 249,-1466.5 176,-1466.5"/>
<text text-anchor="middle" x="212.5" y="-1473.5" font-family="Helvetica,sans-Serif" font-size="10.00" fill="#000000">__attribute__</text>
</a>
</g>
</g>
<!-- Node320248&#45;&gt;Node320249 -->
<g id="edge1" class="edge">
<title>Node320248&#45;&gt;Node320249</title>
<path fill="none" stroke="#191970" d="M58.3979,-693.1075C64.6225,-795.83 102.5376,-1389.489 151,-1452 155.0554,-1457.231 160.4108,-1461.3233 166.2733,-1464.5244"/>
<polygon fill="#191970" stroke="#191970" points="165.2378,-1467.8985 175.7892,-1468.8567 168.1383,-1461.5277 165.2378,-1467.8985"/>
</g>
<!-- Node320250 -->
<g id="node3" class="node">
<title>Node320250</title>
<g id="a_node3"><a xlink:href="quickjs_8c.html#aa57b449a878287663249bb7ab23ed8e9" target="_top" xlink:title="emit_atom">
<polygon fill="none" stroke="#000000" points="655.5,-592.5 655.5,-611.5 717.5,-611.5 717.5,-592.5 655.5,-592.5"/>
<text text-anchor="middle" x="686.5" y="-599.5" font-family="Helvetica,sans-Serif" font-size="10.00" fill="#000000">emit_atom</text>
</a>
</g>
</g>
<!-- Node320248&#45;&gt;Node320250 -->
<g id="edge2" class="edge">
<title>Node320248&#45;&gt;Node320250</title>
<path fill="none" stroke="#191970" d="M86.6828,-662.9372C104.775,-654.1759 128.7367,-643.5944 151,-637 293.0772,-594.9167 332.3112,-595.0398 480,-583 537.1438,-578.3416 552.0804,-576.1246 609,-583 620.9138,-584.4391 633.6386,-587.0798 645.2615,-589.9441"/>
<polygon fill="#191970" stroke="#191970" points="644.5864,-593.3845 655.1437,-592.4942 646.3355,-586.6065 644.5864,-593.3845"/>
</g>
<!-- Node320251 -->
<g id="node4" class="node">
<title>Node320251</title>
<g id="a_node4"><a xlink:href="quickjs_8c.html#aa4ce3850b0d5830d9a617fbbdaddfa79" target="_top" xlink:title="emit_u32">
<polygon fill="none" stroke="#000000" points="773.5,-877.5 773.5,-896.5 829.5,-896.5 829.5,-877.5 773.5,-877.5"/>
<text text-anchor="middle" x="801.5" y="-884.5" font-family="Helvetica,sans-Serif" font-size="10.00" fill="#000000">emit_u32</text>
</a>
</g>
</g>
<!-- Node320248&#45;&gt;Node320251 -->
<g id="edge18" class="edge">
<title>Node320248&#45;&gt;Node320251</title>
<path fill="none" stroke="#191970" d="M65.3879,-662.9919C79.4961,-637.3928 111.3224,-584.9613 151,-553 236.9634,-483.7542 266.6157,-450 377,-450 377,-450 377,-450 544.5,-450 627.0677,-450 668.9917,-421.2466 728,-479 784.2707,-534.0741 798.0445,-793.0345 800.8595,-867.1419"/>
<polygon fill="#191970" stroke="#191970" points="797.3706,-867.519 801.222,-877.389 804.3662,-867.2714 797.3706,-867.519"/>
</g>
<!-- Node320255 -->
<g id="node6" class="node">
<title>Node320255</title>
<g id="a_node6"><a xlink:href="quickjs_8c.html#abbf44eaeace1104a6bef718fbf5700fe" target="_top" xlink:title="JS_DupAtom">
<polygon fill="none" stroke="#ff0000" points="764,-300.5 764,-319.5 839,-319.5 839,-300.5 764,-300.5"/>
<text text-anchor="middle" x="801.5" y="-307.5" font-family="Helvetica,sans-Serif" font-size="10.00" fill="#000000">JS_DupAtom</text>
</a>
</g>
</g>
<!-- Node320248&#45;&gt;Node320255 -->
<g id="edge28" class="edge">
<title>Node320248&#45;&gt;Node320255</title>
<path fill="none" stroke="#191970" d="M57.7557,-662.8563C59.4465,-581.8784 71.5823,-200.7344 151,-122 223.2305,-50.391 275.2892,-86 377,-86 377,-86 377,-86 544.5,-86 632.9447,-86 665.144,-100.7779 728,-163 765.3843,-200.0074 787.0424,-259.9501 796.2366,-290.6014"/>
<polygon fill="#191970" stroke="#191970" points="792.9459,-291.8236 799.066,-300.472 799.6749,-289.8947 792.9459,-291.8236"/>
</g>
<!-- Node320257 -->
<g id="node7" class="node">
<title>Node320257</title>
<g id="a_node7"><a xlink:href="quickjs_8c.html#a6b3c67655a0facc68b271ce3d401deb3" target="_top" xlink:title="emit_goto">
<polygon fill="none" stroke="#000000" points="515,-1314.5 515,-1333.5 574,-1333.5 574,-1314.5 515,-1314.5"/>
<text text-anchor="middle" x="544.5" y="-1321.5" font-family="Helvetica,sans-Serif" font-size="10.00" fill="#000000">emit_goto</text>
</a>
</g>
</g>
<!-- Node320248&#45;&gt;Node320257 -->
<g id="edge6" class="edge">
<title>Node320248&#45;&gt;Node320257</title>
<path fill="none" stroke="#191970" d="M58.4896,-693.469C63.558,-768.2397 88.8258,-1091.6751 151,-1167 198.1693,-1224.1463 414.8422,-1288.5919 504.9841,-1313.4478"/>
<polygon fill="#191970" stroke="#191970" points="504.2561,-1316.8773 514.8254,-1316.1426 506.1048,-1310.1258 504.2561,-1316.8773"/>
</g>
<!-- Node320258 -->
<g id="node8" class="node">
<title>Node320258</title>
<g id="a_node8"><a xlink:href="quickjs_8c.html#a832fb9c17eacb588e93f333cf8b76522" target="_top" xlink:title="emit_op">
<polygon fill="none" stroke="#000000" points="776,-972.5 776,-991.5 827,-991.5 827,-972.5 776,-972.5"/>
<text text-anchor="middle" x="801.5" y="-979.5" font-family="Helvetica,sans-Serif" font-size="10.00" fill="#000000">emit_op</text>
</a>
</g>
</g>
<!-- Node320248&#45;&gt;Node320258 -->
<g id="edge16" class="edge">
<title>Node320248&#45;&gt;Node320258</title>
<path fill="none" stroke="#191970" d="M57.8438,-693.0513C60.0942,-779.933 75.0977,-1217.1349 151,-1323 216.6688,-1414.5917 264.2994,-1438 377,-1438 377,-1438 377,-1438 544.5,-1438 626.4916,-1438 668.2131,-1475.1084 728,-1419 789.7637,-1361.0365 799.6548,-1079.4749 801.2134,-1001.8513"/>
<polygon fill="#191970" stroke="#191970" points="804.7178,-1001.6268 801.3935,-991.567 797.7189,-1001.5042 804.7178,-1001.6268"/>
</g>
<!-- Node320262 -->
<g id="node11" class="node">
<title>Node320262</title>
<g id="a_node11"><a xlink:href="quickjs_8c.html#a0dd0929b9f2ff5983b0027b7cce5c447" target="_top" xlink:title="new_label">
<polygon fill="none" stroke="#ff0000" points="656.5,-1276.5 656.5,-1295.5 716.5,-1295.5 716.5,-1276.5 656.5,-1276.5"/>
<text text-anchor="middle" x="686.5" y="-1283.5" font-family="Helvetica,sans-Serif" font-size="10.00" fill="#000000">new_label</text>
</a>
</g>
</g>
<!-- Node320248&#45;&gt;Node320262 -->
<g id="edge90" class="edge">
<title>Node320248&#45;&gt;Node320262</title>
<path fill="none" stroke="#191970" d="M58.0135,-693.2558C61.0924,-776.638 79.4612,-1176.9943 151,-1273 213.481,-1356.8501 514.5361,-1425.8475 609,-1381 642.164,-1365.2551 665.8193,-1327.6036 677.7247,-1304.7109"/>
<polygon fill="#191970" stroke="#191970" points="680.9182,-1306.1494 682.231,-1295.6362 674.6486,-1303.0361 680.9182,-1306.1494"/>
</g>
<!-- Node320264 -->
<g id="node12" class="node">
<title>Node320264</title>
<g id="a_node12"><a xlink:href="quickjs_8c.html#a555f0d4061c655933eb187026d0796af" target="_top" xlink:title="emit_label">
<polygon fill="none" stroke="#000000" points="656,-858.5 656,-877.5 717,-877.5 717,-858.5 656,-858.5"/>
<text text-anchor="middle" x="686.5" y="-865.5" font-family="Helvetica,sans-Serif" font-size="10.00" fill="#000000">emit_label</text>
</a>
</g>
</g>
<!-- Node320248&#45;&gt;Node320264 -->
<g id="edge13" class="edge">
<title>Node320248&#45;&gt;Node320264</title>
<path fill="none" stroke="#191970" d="M67.0117,-693.3315C82.2716,-716.9062 114.2662,-762.3305 151,-791 212.745,-839.1899 233.6371,-849.5811 310,-867 372.7947,-881.3239 562.026,-874.187 645.8171,-870.1424"/>
<polygon fill="#191970" stroke="#191970" points="646.1558,-873.6301 655.9715,-869.6423 645.8114,-866.6385 646.1558,-873.6301"/>
</g>
<!-- Node320265 -->
<g id="node13" class="node">
<title>Node320265</title>
<g id="a_node13"><a xlink:href="quickjs_8c.html#a50b5ef50e38aaeb8cba27214601474c7" target="_top" xlink:title="emit_u16">
<polygon fill="none" stroke="#ff0000" points="658.5,-1048.5 658.5,-1067.5 714.5,-1067.5 714.5,-1048.5 658.5,-1048.5"/>
<text text-anchor="middle" x="686.5" y="-1055.5" font-family="Helvetica,sans-Serif" font-size="10.00" fill="#000000">emit_u16</text>
</a>
</g>
</g>
<!-- Node320248&#45;&gt;Node320265 -->
<g id="edge17" class="edge">
<title>Node320248&#45;&gt;Node320265</title>
<path fill="none" stroke="#191970" d="M58.2745,-693.2706C61.3894,-738.027 76.7508,-870.0616 151,-939 293.9496,-1071.7249 550.9484,-1068.2436 647.9911,-1061.5472"/>
<polygon fill="#191970" stroke="#191970" points="648.5027,-1065.0189 658.2159,-1060.7875 647.984,-1058.0381 648.5027,-1065.0189"/>
</g>
<!-- Node320267 -->
<g id="node14" class="node">
<title>Node320267</title>
<g id="a_node14"><a xlink:href="quickjs_8c.html#addf02d1c6b3438644c021b2b6d593b7c" target="_top" xlink:title="emit_u8">
<polygon fill="none" stroke="#000000" points="519,-1352.5 519,-1371.5 570,-1371.5 570,-1352.5 519,-1352.5"/>
<text text-anchor="middle" x="544.5" y="-1359.5" font-family="Helvetica,sans-Serif" font-size="10.00" fill="#000000">emit_u8</text>
</a>
</g>
</g>
<!-- Node320248&#45;&gt;Node320267 -->
<g id="edge19" class="edge">
<title>Node320248&#45;&gt;Node320267</title>
<path fill="none" stroke="#191970" d="M58.1705,-693.1286C61.9303,-771.5761 82.7324,-1131.6203 151,-1215 242.9992,-1327.3647 429.9697,-1353.8661 508.495,-1360.0954"/>
<polygon fill="#191970" stroke="#191970" points="508.607,-1363.6127 518.8343,-1360.8467 509.1143,-1356.6311 508.607,-1363.6127"/>
</g>
<!-- Node320268 -->
<g id="node15" class="node">
<title>Node320268</title>
<g id="a_node15"><a xlink:href="quickjs_8c.html#a069baa06a1214006c4ec473875de010e" target="_top" xlink:title="get_lvalue">
<polygon fill="none" stroke="#ff0000" points="514,-1124.5 514,-1143.5 575,-1143.5 575,-1124.5 514,-1124.5"/>
<text text-anchor="middle" x="544.5" y="-1131.5" font-family="Helvetica,sans-Serif" font-size="10.00" fill="#000000">get_lvalue</text>
</a>
</g>
</g>
<!-- Node320248&#45;&gt;Node320268 -->
<g id="edge21" class="edge">
<title>Node320248&#45;&gt;Node320268</title>
<path fill="none" stroke="#191970" d="M58.8934,-693.2981C65.2242,-759.2996 93.4868,-1018.7384 151,-1072 201.762,-1119.0095 413.5384,-1130.4093 503.6391,-1133.1466"/>
<polygon fill="#191970" stroke="#191970" points="503.6566,-1136.6484 513.7516,-1133.4327 503.8546,-1129.6512 503.6566,-1136.6484"/>
</g>
<!-- Node320272 -->
<g id="node16" class="node">
<title>Node320272</title>
<g id="a_node16"><a xlink:href="quickjs_8c.html#a53e971ab3c46da0b7d48481b0696e138" target="_top" xlink:title="js_define_var">
<polygon fill="none" stroke="#ff0000" points="175.5,-724.5 175.5,-743.5 249.5,-743.5 249.5,-724.5 175.5,-724.5"/>
<text text-anchor="middle" x="212.5" y="-731.5" font-family="Helvetica,sans-Serif" font-size="10.00" fill="#000000">js_define_var</text>
</a>
</g>
</g>
<!-- Node320248&#45;&gt;Node320272 -->
<g id="edge27" class="edge">
<title>Node320248&#45;&gt;Node320272</title>
<path fill="none" stroke="#191970" d="M93.6652,-693.0651C110.9081,-700.0537 131.8967,-708.2805 151,-715 157.0879,-717.1414 163.5588,-719.2835 169.9301,-721.3171"/>
<polygon fill="#191970" stroke="#191970" points="169.2017,-724.7566 179.7908,-724.4077 171.2953,-718.077 169.2017,-724.7566"/>
</g>
<!-- Node320285 -->
<g id="node17" class="node">
<title>Node320285</title>
<g id="a_node17"><a xlink:href="quickjs_8c.html#a98ab69061f85c400e0eed2c0eb47f49b" target="_top" xlink:title="js_emit_spread_code">
<polygon fill="none" stroke="#000000" points="322.5,-1167.5 322.5,-1186.5 431.5,-1186.5 431.5,-1167.5 322.5,-1167.5"/>
<text text-anchor="middle" x="377" y="-1174.5" font-family="Helvetica,sans-Serif" font-size="10.00" fill="#000000">js_emit_spread_code</text>
</a>
</g>
</g>
<!-- Node320248&#45;&gt;Node320285 -->
<g id="edge29" class="edge">
<title>Node320248&#45;&gt;Node320285</title>
<path fill="none" stroke="#191970" d="M58.4896,-693.4332C63.4052,-765.1702 87.5441,-1065.235 151,-1129 192.6908,-1170.8939 261.261,-1180.4632 311.9562,-1181.0396"/>
<polygon fill="#191970" stroke="#191970" points="312.1652,-1184.5397 322.1648,-1181.0383 312.1643,-1177.5397 312.1652,-1184.5397"/>
</g>
<!-- Node320286 -->
<g id="node18" class="node">
<title>Node320286</title>
<g id="a_node18"><a xlink:href="quickjs_8c.html#ab7fc45a99935a1c0ba50b0216d9401a9" target="_top" xlink:title="JS_FreeAtom">
<polygon fill="none" stroke="#ff0000" points="648,-488.5 648,-507.5 725,-507.5 725,-488.5 648,-488.5"/>
<text text-anchor="middle" x="686.5" y="-495.5" font-family="Helvetica,sans-Serif" font-size="10.00" fill="#000000">JS_FreeAtom</text>
</a>
</g>
</g>
<!-- Node320248&#45;&gt;Node320286 -->
<g id="edge37" class="edge">
<title>Node320248&#45;&gt;Node320286</title>
<path fill="none" stroke="#191970" d="M71.113,-662.9186C88.0322,-645.1744 118.6483,-616.2097 151,-601 317.7758,-522.5924 540.5397,-503.8716 637.7213,-499.4019"/>
<polygon fill="#191970" stroke="#191970" points="637.9947,-502.8935 647.8354,-498.9679 637.6945,-495.8999 637.9947,-502.8935"/>
</g>
<!-- Node320291 -->
<g id="node19" class="node">
<title>Node320291</title>
<g id="a_node19"><a xlink:href="quickjs_8c.html#a4fa2fc1719feb03edf64eaf034103fd2" target="_top" xlink:title="js_parse_assign_expr">
<polygon fill="none" stroke="#ff0000" points="321.5,-820.5 321.5,-839.5 432.5,-839.5 432.5,-820.5 321.5,-820.5"/>
<text text-anchor="middle" x="377" y="-827.5" font-family="Helvetica,sans-Serif" font-size="10.00" fill="#000000">js_parse_assign_expr</text>
</a>
</g>
</g>
<!-- Node320248&#45;&gt;Node320291 -->
<g id="edge38" class="edge">
<title>Node320248&#45;&gt;Node320291</title>
<path fill="none" stroke="#191970" d="M72.8163,-693.1258C90.3963,-709.773 120.7214,-736.3718 151,-753 207.307,-783.9223 278.2649,-805.6244 325.4996,-817.9372"/>
<polygon fill="#191970" stroke="#191970" points="324.6494,-821.3324 335.205,-820.422 326.3856,-814.5511 324.6494,-821.3324"/>
</g>
<!-- Node320299 -->
<g id="node20" class="node">
<title>Node320299</title>
<g id="a_node20"><a xlink:href="quickjs_8c.html#a75a3798e2045f6e403c1ef467126d1fb" target="_top" xlink:title="next_token">
<polygon fill="none" stroke="#ff0000" points="512,-352.5 512,-371.5 577,-371.5 577,-352.5 512,-352.5"/>
<text text-anchor="middle" x="544.5" y="-359.5" font-family="Helvetica,sans-Serif" font-size="10.00" fill="#000000">next_token</text>
</a>
</g>
</g>
<!-- Node320248&#45;&gt;Node320299 -->
<g id="edge91" class="edge">
<title>Node320248&#45;&gt;Node320299</title>
<path fill="none" stroke="#191970" d="M59.5098,-662.8158C67.6441,-603.8599 100.1421,-391.3987 151,-351 253.0051,-269.9727 314.2973,-330.8472 444,-343 463.0649,-344.7863 483.9008,-348.4391 501.6328,-352.0688"/>
<polygon fill="#191970" stroke="#191970" points="501.1703,-355.5483 511.6776,-354.1891 502.6161,-348.6992 501.1703,-355.5483"/>
</g>
<!-- Node320776 -->
<g id="node21" class="node">
<title>Node320776</title>
<g id="a_node21"><a xlink:href="quickjs_8c.html#a24d4ada6c0c50e82c89955a9300708a9" target="_top" xlink:title="put_lvalue">
<polygon fill="none" stroke="#000000" points="514,-934.5 514,-953.5 575,-953.5 575,-934.5 514,-934.5"/>
<text text-anchor="middle" x="544.5" y="-941.5" font-family="Helvetica,sans-Serif" font-size="10.00" fill="#000000">put_lvalue</text>
</a>
</g>
</g>
<!-- Node320248&#45;&gt;Node320776 -->
<g id="edge94" class="edge">
<title>Node320248&#45;&gt;Node320776</title>
<path fill="none" stroke="#191970" d="M58.8113,-693.2918C63.2331,-734.4664 81.4875,-848.0541 151,-900 257.103,-979.2896 426.4126,-964.1467 503.6689,-951.8067"/>
<polygon fill="#191970" stroke="#191970" points="504.6545,-955.1908 513.943,-950.0942 503.5036,-948.286 504.6545,-955.1908"/>
</g>
<!-- Node320773 -->
<g id="node22" class="node">
<title>Node320773</title>
<g id="a_node22"><a xlink:href="quickjs_8c.html#ab87db7e4e299e811a54acab5fe3620a7" target="_top" xlink:title="set_object_name">
<polygon fill="none" stroke="#ff0000" points="499,-592.5 499,-611.5 590,-611.5 590,-592.5 499,-592.5"/>
<text text-anchor="middle" x="544.5" y="-599.5" font-family="Helvetica,sans-Serif" font-size="10.00" fill="#000000">set_object_name</text>
</a>
</g>
</g>
<!-- Node320248&#45;&gt;Node320773 -->
<g id="edge95" class="edge">
<title>Node320248&#45;&gt;Node320773</title>
<path fill="none" stroke="#191970" d="M115.2603,-665.7303C127.0614,-663.3735 139.4131,-661.0148 151,-659 183.6286,-653.3263 388.4719,-624.1269 488.9937,-609.8622"/>
<polygon fill="#191970" stroke="#191970" points="489.561,-613.3168 498.9702,-608.4469 488.5777,-606.3862 489.561,-613.3168"/>
</g>
<!-- Node320807 -->
<g id="node23" class="node">
<title>Node320807</title>
<g id="a_node23"><a xlink:href="quickjs_8c.html#ae158688d1a291870802ba7b327192c25" target="_top" xlink:title="js_parse_check_duplicate\l_parameter">
<polygon fill="none" stroke="#000000" points="480,-115 480,-145 609,-145 609,-115 480,-115"/>
<text text-anchor="start" x="488" y="-133" font-family="Helvetica,sans-Serif" font-size="10.00" fill="#000000">js_parse_check_duplicate</text>
<text text-anchor="middle" x="544.5" y="-122" font-family="Helvetica,sans-Serif" font-size="10.00" fill="#000000">_parameter</text>
</a>
</g>
</g>
<!-- Node320248&#45;&gt;Node320807 -->
<g id="edge60" class="edge">
<title>Node320248&#45;&gt;Node320807</title>
<path fill="none" stroke="#191970" d="M58.2413,-662.8586C62.2027,-588.242 83.2923,-260.4245 151,-190 232.743,-104.9771 380.3922,-106.6534 469.7372,-117.2166"/>
<polygon fill="#191970" stroke="#191970" points="469.4436,-120.707 479.8002,-118.473 470.3109,-113.761 469.4436,-120.707"/>
</g>
<!-- Node320808 -->
<g id="node24" class="node">
<title>Node320808</title>
<g id="a_node24"><a xlink:href="quickjs_8c.html#ab10609a91c359ea5d3051f7bb646af83" target="_top" xlink:title="js_parse_destructuring_var">
<polygon fill="none" stroke="#000000" points="310,-162.5 310,-181.5 444,-181.5 444,-162.5 310,-162.5"/>
<text text-anchor="middle" x="377" y="-169.5" font-family="Helvetica,sans-Serif" font-size="10.00" fill="#000000">js_parse_destructuring_var</text>
</a>
</g>
</g>
<!-- Node320248&#45;&gt;Node320808 -->
<g id="edge62" class="edge">
<title>Node320248&#45;&gt;Node320808</title>
<path fill="none" stroke="#191970" d="M59.1298,-662.8659C66.5607,-596.3185 99.1201,-330.2118 151,-267 189.4776,-220.1179 255.1447,-195.9931 305.8094,-183.8167"/>
<polygon fill="#191970" stroke="#191970" points="306.7674,-187.1879 315.7298,-181.5376 305.2,-180.3656 306.7674,-187.1879"/>
</g>
<!-- Node320740 -->
<g id="node25" class="node">
<title>Node320740</title>
<g id="a_node25"><a xlink:href="quickjs_8c.html#aeca8ed71e1eef8ec809afab744958c28" target="_top" xlink:title="js_parse_expect">
<polygon fill="none" stroke="#000000" points="333,-352.5 333,-371.5 421,-371.5 421,-352.5 333,-352.5"/>
<text text-anchor="middle" x="377" y="-359.5" font-family="Helvetica,sans-Serif" font-size="10.00" fill="#000000">js_parse_expect</text>
</a>
</g>
</g>
<!-- Node320248&#45;&gt;Node320740 -->
<g id="edge67" class="edge">
<title>Node320248&#45;&gt;Node320740</title>
<path fill="none" stroke="#191970" d="M60.3413,-662.7509C70.6569,-609.0717 107.8038,-430.1409 151,-394 198.6267,-354.1523 272.628,-351.0978 322.8692,-354.7233"/>
<polygon fill="#191970" stroke="#191970" points="322.6425,-358.2165 332.8984,-355.5579 323.2231,-351.2406 322.6425,-358.2165"/>
</g>
<!-- Node320405 -->
<g id="node26" class="node">
<title>Node320405</title>
<g id="a_node26"><a xlink:href="quickjs_8c.html#acdcc62310b4f6f73fa7bc7267b18b1d4" target="_top" xlink:title="js_parse_postfix_expr">
<polygon fill="none" stroke="#ff0000" points="156.5,-668.5 156.5,-687.5 268.5,-687.5 268.5,-668.5 156.5,-668.5"/>
<text text-anchor="middle" x="212.5" y="-675.5" font-family="Helvetica,sans-Serif" font-size="10.00" fill="#000000">js_parse_postfix_expr</text>
</a>
</g>
</g>
<!-- Node320248&#45;&gt;Node320405 -->
<g id="edge69" class="edge">
<title>Node320248&#45;&gt;Node320405</title>
<path fill="none" stroke="#191970" d="M115.2163,-671.4494C125.2867,-671.2423 135.8347,-671.1965 146.1161,-671.3121"/>
<polygon fill="#191970" stroke="#191970" points="146.2242,-674.8143 156.2812,-671.4815 146.3409,-667.8153 146.2242,-674.8143"/>
</g>
<!-- Node320777 -->
<g id="node27" class="node">
<title>Node320777</title>
<g id="a_node27"><a xlink:href="quickjs_8c.html#ac00298085baf11a4a7bd600cf5de2e6d" target="_top" xlink:title="js_parse_skip_parens\l_token">
<polygon fill="none" stroke="#ff0000" points="321.5,-391 321.5,-421 432.5,-421 432.5,-391 321.5,-391"/>
<text text-anchor="start" x="329.5" y="-409" font-family="Helvetica,sans-Serif" font-size="10.00" fill="#000000">js_parse_skip_parens</text>
<text text-anchor="middle" x="377" y="-398" font-family="Helvetica,sans-Serif" font-size="10.00" fill="#000000">_token</text>
</a>
</g>
</g>
<!-- Node320248&#45;&gt;Node320777 -->
<g id="edge89" class="edge">
<title>Node320248&#45;&gt;Node320777</title>
<path fill="none" stroke="#191970" d="M58.2961,-662.7256C61.4501,-619.2776 76.865,-494.3769 151,-436 195.8538,-400.6803 261.9095,-395.6376 311.0358,-397.9662"/>
<polygon fill="#191970" stroke="#191970" points="311.0598,-401.4736 321.2481,-398.5668 311.4708,-394.4857 311.0598,-401.4736"/>
</g>
<!-- Node320801 -->
<g id="node28" class="node">
<title>Node320801</title>
<g id="a_node28"><a xlink:href="quickjs_8c.html#a42234753f3193f37ce45b3c0ca4c25cd" target="_top" xlink:title="js_parse_property_name">
<polygon fill="none" stroke="#ff0000" points="151,-276.5 151,-295.5 274,-295.5 274,-276.5 151,-276.5"/>
<text text-anchor="middle" x="212.5" y="-283.5" font-family="Helvetica,sans-Serif" font-size="10.00" fill="#000000">js_parse_property_name</text>
</a>
</g>
</g>
<!-- Node320248&#45;&gt;Node320801 -->
<g id="edge84" class="edge">
<title>Node320248&#45;&gt;Node320801</title>
<path fill="none" stroke="#191970" d="M59.5026,-662.7314C67.9726,-600.2404 102.655,-364.7038 151,-310 154.4225,-306.1273 158.5476,-302.8743 163.0214,-300.1427"/>
<polygon fill="#191970" stroke="#191970" points="164.6954,-303.2173 171.9617,-295.5069 161.473,-297.0031 164.6954,-303.2173"/>
</g>
<!-- Node320786 -->
<g id="node29" class="node">
<title>Node320786</title>
<g id="a_node29"><a xlink:href="quickjs_8c.html#a5c7cab2e519987b7421a0db07237ec0a" target="_top" xlink:title="pop_break_entry">
<polygon fill="none" stroke="#000000" points="168,-38.5 168,-57.5 257,-57.5 257,-38.5 168,-38.5"/>
<text text-anchor="middle" x="212.5" y="-45.5" font-family="Helvetica,sans-Serif" font-size="10.00" fill="#000000">pop_break_entry</text>
</a>
</g>
</g>
<!-- Node320248&#45;&gt;Node320786 -->
<g id="edge92" class="edge">
<title>Node320248&#45;&gt;Node320786</title>
<path fill="none" stroke="#191970" d="M57.8416,-662.9271C60.034,-578.7623 74.5792,-167.2981 151,-72 154.0227,-68.2306 157.7176,-65.0519 161.7813,-62.3714"/>
<polygon fill="#191970" stroke="#191970" points="163.4767,-65.4335 170.5435,-57.5398 160.0965,-59.3036 163.4767,-65.4335"/>
</g>
<!-- Node320785 -->
<g id="node30" class="node">
<title>Node320785</title>
<g id="a_node30"><a xlink:href="quickjs_8c.html#a411e3fe0b272a488c85c360de8fa3e63" target="_top" xlink:title="push_break_entry">
<polygon fill="none" stroke="#000000" points="165.5,-.5 165.5,-19.5 259.5,-19.5 259.5,-.5 165.5,-.5"/>
<text text-anchor="middle" x="212.5" y="-7.5" font-family="Helvetica,sans-Serif" font-size="10.00" fill="#000000">push_break_entry</text>
</a>
</g>
</g>
<!-- Node320248&#45;&gt;Node320785 -->
<g id="edge93" class="edge">
<title>Node320248&#45;&gt;Node320785</title>
<path fill="none" stroke="#191970" d="M58.7046,-662.9824C66.2574,-570.3678 108.1531,-79.1408 151,-29 152.7151,-26.9929 154.6375,-25.1944 156.7142,-23.5832"/>
<polygon fill="#191970" stroke="#191970" points="158.6956,-26.4735 165.3774,-18.2514 155.0266,-20.5121 158.6956,-26.4735"/>
</g>
<!-- Node320250&#45;&gt;Node320251 -->
<g id="edge3" class="edge">
<title>Node320250&#45;&gt;Node320251</title>
<path fill="none" stroke="#191970" d="M710.4219,-611.7251C716.9109,-615.3623 723.4045,-620.0847 728,-626 758.1309,-664.7841 787.9732,-813.7376 797.9802,-867.5028"/>
<polygon fill="#191970" stroke="#191970" points="794.5594,-868.2533 799.8075,-877.457 801.4443,-866.9894 794.5594,-868.2533"/>
</g>
<!-- Node320250&#45;&gt;Node320255 -->
<g id="edge5" class="edge">
<title>Node320250&#45;&gt;Node320255</title>
<path fill="none" stroke="#191970" d="M703.1741,-592.3031C711.7363,-586.5381 721.6708,-578.4988 728,-569 780.0863,-490.829 795.69,-375.7757 799.9916,-329.9229"/>
<polygon fill="#191970" stroke="#191970" points="803.4906,-330.0832 800.8571,-319.8209 796.5162,-329.4856 803.4906,-330.0832"/>
</g>
<!-- Node320252 -->
<g id="node5" class="node">
<title>Node320252</title>
<g id="a_node5"><a xlink:href="cutils_8h.html#a8ba08f82c43549fcb3c939229498354d" target="_top" xlink:title="dbuf_put_u32">
<polygon fill="none" stroke="#ff0000" points="875,-943.5 875,-962.5 950,-962.5 950,-943.5 875,-943.5"/>
<text text-anchor="middle" x="912.5" y="-950.5" font-family="Helvetica,sans-Serif" font-size="10.00" fill="#000000">dbuf_put_u32</text>
</a>
</g>
</g>
<!-- Node320251&#45;&gt;Node320252 -->
<g id="edge4" class="edge">
<title>Node320251&#45;&gt;Node320252</title>
<path fill="none" stroke="#191970" d="M817.8784,-896.7385C836.2646,-907.6708 866.3056,-925.5331 887.6016,-938.1955"/>
<polygon fill="#191970" stroke="#191970" points="886.0311,-941.3337 896.4153,-943.4361 889.6087,-935.3169 886.0311,-941.3337"/>
</g>
<!-- Node320257&#45;&gt;Node320251 -->
<g id="edge10" class="edge">
<title>Node320257&#45;&gt;Node320251</title>
<path fill="none" stroke="#191970" d="M574.3319,-1331.0659C615.1088,-1338.7663 687.767,-1345.1645 728,-1305 782.083,-1251.009 742.7617,-1036.4094 764,-963 769.9706,-942.3627 781.33,-920.5426 789.9885,-905.6028"/>
<polygon fill="#191970" stroke="#191970" points="793.0865,-907.2413 795.2046,-896.8603 787.0752,-903.6547 793.0865,-907.2413"/>
</g>
<!-- Node320257&#45;&gt;Node320258 -->
<g id="edge7" class="edge">
<title>Node320257&#45;&gt;Node320258</title>
<path fill="none" stroke="#191970" d="M574.0992,-1331.0226C619.9231,-1341.1267 705.1486,-1356.6154 728,-1338 780.9597,-1294.8575 796.9096,-1070.1176 800.5722,-1001.7515"/>
<polygon fill="#191970" stroke="#191970" points="804.0799,-1001.6857 801.0893,-991.5218 797.0888,-1001.3323 804.0799,-1001.6857"/>
</g>
<!-- Node320260 -->
<g id="node10" class="node">
<title>Node320260</title>
<g id="a_node10"><a xlink:href="quickjs_8c.html#ac9b65f8f0ed192fa6be0984d92550f34" target="_top" xlink:title="js_is_live_code">
<polygon fill="none" stroke="#ff0000" points="645,-1390.5 645,-1409.5 728,-1409.5 728,-1390.5 645,-1390.5"/>
<text text-anchor="middle" x="686.5" y="-1397.5" font-family="Helvetica,sans-Serif" font-size="10.00" fill="#000000">js_is_live_code</text>
</a>
</g>
</g>
<!-- Node320257&#45;&gt;Node320260 -->
<g id="edge11" class="edge">
<title>Node320257&#45;&gt;Node320260</title>
<path fill="none" stroke="#191970" d="M574.2097,-1329.7405C585.5594,-1332.6917 598.3278,-1336.9713 609,-1343 627.8982,-1353.6756 627.5018,-1363.1577 645,-1376 649.3341,-1379.1809 654.1231,-1382.2845 658.8616,-1385.1474"/>
<polygon fill="#191970" stroke="#191970" points="657.3712,-1388.3289 667.7786,-1390.3131 660.8801,-1382.2718 657.3712,-1388.3289"/>
</g>
<!-- Node320257&#45;&gt;Node320262 -->
<g id="edge12" class="edge">
<title>Node320257&#45;&gt;Node320262</title>
<path fill="none" stroke="#191970" d="M574.2679,-1316.034C595.2373,-1310.4224 623.5499,-1302.8458 646.4915,-1296.7065"/>
<polygon fill="#191970" stroke="#191970" points="647.527,-1300.0526 656.2823,-1294.0864 645.7174,-1293.2906 647.527,-1300.0526"/>
</g>
<!-- Node320258&#45;&gt;Node320252 -->
<g id="edge8" class="edge">
<title>Node320258&#45;&gt;Node320252</title>
<path fill="none" stroke="#191970" d="M827.2446,-975.2739C838.7786,-972.2606 852.7467,-968.6112 866.0095,-965.1462"/>
<polygon fill="#191970" stroke="#191970" points="867.1717,-968.4601 875.9623,-962.5459 865.4023,-961.6874 867.1717,-968.4601"/>
</g>
<!-- Node320259 -->
<g id="node9" class="node">
<title>Node320259</title>
<g id="a_node9"><a xlink:href="cutils_8h.html#aeed81d4787ccdbd55baa9b5fd6717e88" target="_top" xlink:title="dbuf_putc">
<polygon fill="none" stroke="#ff0000" points="883,-1000.5 883,-1019.5 942,-1019.5 942,-1000.5 883,-1000.5"/>
<text text-anchor="middle" x="912.5" y="-1007.5" font-family="Helvetica,sans-Serif" font-size="10.00" fill="#000000">dbuf_putc</text>
</a>
</g>
</g>
<!-- Node320258&#45;&gt;Node320259 -->
<g id="edge9" class="edge">
<title>Node320258&#45;&gt;Node320259</title>
<path fill="none" stroke="#191970" d="M827.2446,-988.4941C840.904,-991.9398 857.9774,-996.2466 873.2502,-1000.0992"/>
<polygon fill="#191970" stroke="#191970" points="872.4203,-1003.4994 882.9727,-1002.5517 874.1325,-996.712 872.4203,-1003.4994"/>
</g>
<!-- Node320264&#45;&gt;Node320251 -->
<g id="edge15" class="edge">
<title>Node320264&#45;&gt;Node320251</title>
<path fill="none" stroke="#191970" d="M717.016,-873.0418C731.181,-875.3821 748.1716,-878.1892 763.1896,-880.6705"/>
<polygon fill="#191970" stroke="#191970" points="762.7757,-884.1494 773.2125,-882.3264 763.9168,-877.2431 762.7757,-884.1494"/>
</g>
<!-- Node320264&#45;&gt;Node320258 -->
<g id="edge14" class="edge">
<title>Node320264&#45;&gt;Node320258</title>
<path fill="none" stroke="#191970" d="M696.3048,-877.7196C715.9098,-897.1541 760.1516,-941.0112 784.5515,-965.1989"/>
<polygon fill="#191970" stroke="#191970" points="782.154,-967.7505 791.72,-972.305 787.0821,-962.7792 782.154,-967.7505"/>
</g>
<!-- Node320267&#45;&gt;Node320259 -->
<g id="edge20" class="edge">
<title>Node320267&#45;&gt;Node320259</title>
<path fill="none" stroke="#191970" d="M555.7195,-1371.5834C585.8183,-1396.0751 669.995,-1456.4676 728,-1419 869.3393,-1327.7037 903.5171,-1099.2893 910.7466,-1030.1453"/>
<polygon fill="#191970" stroke="#191970" points="914.268,-1030.0919 911.7463,-1019.8016 907.3005,-1029.4185 914.268,-1030.0919"/>
</g>
<!-- Node320268&#45;&gt;Node320250 -->
<g id="edge22" class="edge">
<title>Node320268&#45;&gt;Node320250</title>
<path fill="none" stroke="#191970" d="M548.8095,-1124.1548C560.0298,-1098.2206 590.5551,-1025.7056 609,-963 646.6601,-834.97 674.3225,-676.425 683.3411,-621.6729"/>
<polygon fill="#191970" stroke="#191970" points="686.8265,-622.0458 684.9795,-611.6132 679.9175,-620.9205 686.8265,-622.0458"/>
</g>
<!-- Node320268&#45;&gt;Node320251 -->
<g id="edge25" class="edge">
<title>Node320268&#45;&gt;Node320251</title>
<path fill="none" stroke="#191970" d="M575.2134,-1132.8875C615.6632,-1129.7626 686.5049,-1118.3004 728,-1077 765.6589,-1039.5177 744.1871,-1012.3007 764,-963 772.1011,-942.8419 783.3325,-920.654 791.3881,-905.4839"/>
<polygon fill="#191970" stroke="#191970" points="794.5012,-907.0847 796.1584,-896.6203 788.3372,-903.7673 794.5012,-907.0847"/>
</g>
<!-- Node320268&#45;&gt;Node320258 -->
<g id="edge23" class="edge">
<title>Node320268&#45;&gt;Node320258</title>
<path fill="none" stroke="#191970" d="M575.1954,-1142.1054C614.0463,-1150.4913 681.4992,-1158.6218 728,-1129 772.9916,-1100.3396 791.4688,-1035.1397 798.1628,-1002.0557"/>
<polygon fill="#191970" stroke="#191970" points="801.6816,-1002.2759 800.0633,-991.8054 794.7989,-1000.9998 801.6816,-1002.2759"/>
</g>
<!-- Node320268&#45;&gt;Node320262 -->
<g id="edge26" class="edge">
<title>Node320268&#45;&gt;Node320262</title>
<path fill="none" stroke="#191970" d="M555.3006,-1143.7978C568.3601,-1155.7761 590.8467,-1176.825 609,-1196 632.0072,-1220.3021 656.9914,-1249.9633 672.1988,-1268.4211"/>
<polygon fill="#191970" stroke="#191970" points="669.5957,-1270.7665 678.6417,-1276.2819 675.0095,-1266.3291 669.5957,-1270.7665"/>
</g>
<!-- Node320268&#45;&gt;Node320265 -->
<g id="edge24" class="edge">
<title>Node320268&#45;&gt;Node320265</title>
<path fill="none" stroke="#191970" d="M574.6667,-1124.4284C585.7119,-1120.4974 598.1544,-1115.5583 609,-1110 629.3709,-1099.5599 650.8602,-1084.8066 666.0297,-1073.6799"/>
<polygon fill="#191970" stroke="#191970" points="668.2494,-1076.3908 674.1748,-1067.6078 664.0656,-1070.7786 668.2494,-1076.3908"/>
</g>
<!-- Node320285&#45;&gt;Node320251 -->
<g id="edge34" class="edge">
<title>Node320285&#45;&gt;Node320251</title>
<path fill="none" stroke="#191970" d="M431.5929,-1185.0354C509.9064,-1193.1347 652.9438,-1194.5259 728,-1112 773.8386,-1061.5995 740.7852,-1027.0504 764,-963 771.4029,-942.5752 782.7415,-920.4282 791.0129,-905.3406"/>
<polygon fill="#191970" stroke="#191970" points="794.111,-906.9713 795.9333,-896.5343 788.0002,-903.5569 794.111,-906.9713"/>
</g>
<!-- Node320285&#45;&gt;Node320257 -->
<g id="edge30" class="edge">
<title>Node320285&#45;&gt;Node320257</title>
<path fill="none" stroke="#191970" d="M407.7247,-1186.6024C420.3282,-1191.8311 434.223,-1199.438 444,-1210 473.2656,-1241.6153 449.1692,-1269.9091 480,-1300 487.0441,-1306.8751 496.2342,-1311.8107 505.4595,-1315.3431"/>
<polygon fill="#191970" stroke="#191970" points="504.4037,-1318.6806 514.9976,-1318.5389 506.6276,-1312.0432 504.4037,-1318.6806"/>
</g>
<!-- Node320285&#45;&gt;Node320258 -->
<g id="edge32" class="edge">
<title>Node320285&#45;&gt;Node320258</title>
<path fill="none" stroke="#191970" d="M410.4162,-1186.5048C479.1696,-1203.8308 637.5836,-1231.931 728,-1153 774.3477,-1112.5397 792.4104,-1037.6768 798.6244,-1001.9635"/>
<polygon fill="#191970" stroke="#191970" points="802.1207,-1002.2649 800.2465,-991.8372 795.2088,-1001.1577 802.1207,-1002.2649"/>
</g>
<!-- Node320285&#45;&gt;Node320262 -->
<g id="edge36" class="edge">
<title>Node320285&#45;&gt;Node320262</title>
<path fill="none" stroke="#191970" d="M403.9863,-1186.5814C417.0141,-1192.0862 432.3132,-1199.9252 444,-1210 465.2902,-1228.3535 455.8975,-1247.5366 480,-1262 531.1415,-1292.6889 602.3042,-1293.7581 646.3301,-1290.6597"/>
<polygon fill="#191970" stroke="#191970" points="646.6859,-1294.1424 656.371,-1289.8473 646.1213,-1287.1652 646.6859,-1294.1424"/>
</g>
<!-- Node320285&#45;&gt;Node320264 -->
<g id="edge31" class="edge">
<title>Node320285&#45;&gt;Node320264</title>
<path fill="none" stroke="#191970" d="M377.9532,-1167.293C382.1551,-1129.9043 402.4209,-993.8776 480,-925 504.4439,-903.2978 592.6802,-884.5246 645.5786,-874.8902"/>
<polygon fill="#191970" stroke="#191970" points="646.4304,-878.2934 655.6577,-873.087 645.1976,-871.4028 646.4304,-878.2934"/>
</g>
<!-- Node320285&#45;&gt;Node320265 -->
<g id="edge33" class="edge">
<title>Node320285&#45;&gt;Node320265</title>
<path fill="none" stroke="#191970" d="M390.3516,-1167.3226C409.4011,-1153.9069 445.8625,-1129.6583 480,-1115 536.5121,-1090.7342 606.1799,-1074.0338 648.4269,-1065.2502"/>
<polygon fill="#191970" stroke="#191970" points="649.1954,-1068.6656 658.2951,-1063.2392 647.7975,-1061.8066 649.1954,-1068.6656"/>
</g>
<!-- Node320285&#45;&gt;Node320267 -->
<g id="edge35" class="edge">
<title>Node320285&#45;&gt;Node320267</title>
<path fill="none" stroke="#191970" d="M387.7872,-1186.9021C402.1936,-1200.5984 427.7785,-1226.6325 444,-1253 466.574,-1289.6935 448.1388,-1314.0023 480,-1343 488.0472,-1350.324 498.7853,-1354.8334 509.1879,-1357.607"/>
<polygon fill="#191970" stroke="#191970" points="508.4399,-1361.0261 518.96,-1359.7695 509.9524,-1354.1914 508.4399,-1361.0261"/>
</g>
<!-- Node320291&#45;&gt;Node320251 -->
<g id="edge42" class="edge">
<title>Node320291&#45;&gt;Node320251</title>
<path fill="none" stroke="#191970" d="M432.5402,-824.9084C502.9668,-820.267 627.342,-818.1786 728,-849 745.6329,-854.3992 764.0641,-863.9391 778.0588,-872.1092"/>
<polygon fill="#191970" stroke="#191970" points="776.6023,-875.3177 786.9743,-877.4788 780.2138,-869.3213 776.6023,-875.3177"/>
</g>
<!-- Node320291&#45;&gt;Node320257 -->
<g id="edge39" class="edge">
<title>Node320291&#45;&gt;Node320257</title>
<path fill="none" stroke="#191970" d="M378.3484,-839.5272C384.9269,-884.3766 415.9667,-1078.3783 480,-1224 493.5682,-1254.8562 516.0416,-1287.0011 530.5573,-1306.258"/>
<polygon fill="#191970" stroke="#191970" points="527.9248,-1308.5767 536.7881,-1314.3812 533.479,-1304.3164 527.9248,-1308.5767"/>
</g>
<!-- Node320291&#45;&gt;Node320258 -->
<g id="edge41" class="edge">
<title>Node320291&#45;&gt;Node320258</title>
<path fill="none" stroke="#191970" d="M380.9992,-839.6523C392.1872,-865.2433 426.53,-934.7926 480,-963 573.2649,-1012.2007 703.594,-999.2224 765.7639,-988.976"/>
<polygon fill="#191970" stroke="#191970" points="766.5889,-992.3855 775.8491,-987.2377 765.3998,-985.4872 766.5889,-992.3855"/>
</g>
<!-- Node320291&#45;&gt;Node320262 -->
<g id="edge47" class="edge">
<title>Node320291&#45;&gt;Node320262</title>
<path fill="none" stroke="#191970" d="M377.7146,-839.5236C381.2661,-881.0424 400.186,-1048.8008 480,-1153 525.6334,-1212.5756 606.1112,-1253.0936 651.9625,-1272.6025"/>
<polygon fill="#191970" stroke="#191970" points="650.6189,-1275.8343 661.1961,-1276.4459 653.3089,-1269.3718 650.6189,-1275.8343"/>
</g>
<!-- Node320291&#45;&gt;Node320264 -->
<g id="edge40" class="edge">
<title>Node320291&#45;&gt;Node320264</title>
<path fill="none" stroke="#191970" d="M432.9287,-834.591C480.01,-838.7417 549.0633,-845.4986 609,-854 620.9359,-855.693 633.8434,-857.8805 645.6373,-860.0211"/>
<polygon fill="#191970" stroke="#191970" points="645.1925,-863.4982 655.6625,-861.8766 646.4665,-856.6151 645.1925,-863.4982"/>
</g>
<!-- Node320291&#45;&gt;Node320267 -->
<g id="edge43" class="edge">
<title>Node320291&#45;&gt;Node320267</title>
<path fill="none" stroke="#191970" d="M379.006,-839.6529C387.1989,-879.1128 418.8791,-1032.0346 444,-1158 460.3823,-1240.1469 423.6264,-1281.0443 480,-1343 487.4421,-1351.179 498.2079,-1355.9066 508.8188,-1358.6171"/>
<polygon fill="#191970" stroke="#191970" points="508.3353,-1362.0902 518.8311,-1360.6446 509.7247,-1355.2294 508.3353,-1362.0902"/>
</g>
<!-- Node320291&#45;&gt;Node320268 -->
<g id="edge44" class="edge">
<title>Node320291&#45;&gt;Node320268</title>
<path fill="none" stroke="#191970" d="M382.3833,-839.7703C406.2073,-883.009 502.3799,-1057.5552 534.212,-1115.328"/>
<polygon fill="#191970" stroke="#191970" points="531.3289,-1117.3482 539.2203,-1124.4177 537.4599,-1113.9701 531.3289,-1117.3482"/>
</g>
<!-- Node320291&#45;&gt;Node320286 -->
<g id="edge45" class="edge">
<title>Node320291&#45;&gt;Node320286</title>
<path fill="none" stroke="#191970" d="M378.4151,-820.0374C384.1122,-783.4415 408.6013,-654.8392 480,-583 523.2841,-539.4489 592.049,-517.2514 638.1995,-506.6551"/>
<polygon fill="#191970" stroke="#191970" points="638.959,-510.0718 647.9742,-504.5061 637.4558,-503.2351 638.959,-510.0718"/>
</g>
<!-- Node320291&#45;&gt;Node320291 -->
<g id="edge46" class="edge">
<title>Node320291&#45;&gt;Node320291</title>
<path fill="none" stroke="#191970" d="M351.7228,-839.7571C339.4258,-848.5653 347.8516,-858 377,-858 396.5841,-858 406.8136,-853.741 407.6886,-848.2746"/>
<polygon fill="#191970" stroke="#191970" points="410.594,-846.3207 402.2772,-839.7571 404.6856,-850.0745 410.594,-846.3207"/>
</g>
<!-- Node320291&#45;&gt;Node320299 -->
<g id="edge48" class="edge">
<title>Node320291&#45;&gt;Node320299</title>
<path fill="none" stroke="#191970" d="M380.4985,-820.2252C401.3178,-762.0554 508.9604,-461.2987 537.5313,-381.4707"/>
<polygon fill="#191970" stroke="#191970" points="540.9463,-382.3156 541.0208,-371.7211 534.3557,-379.9568 540.9463,-382.3156"/>
</g>
<!-- Node320291&#45;&gt;Node320776 -->
<g id="edge49" class="edge">
<title>Node320291&#45;&gt;Node320776</title>
<path fill="none" stroke="#191970" d="M390.9929,-839.5235C419.8636,-859.1729 486.2765,-904.3733 521.535,-928.3701"/>
<polygon fill="#191970" stroke="#191970" points="519.9556,-931.5289 530.1919,-934.262 523.8942,-925.742 519.9556,-931.5289"/>
</g>
<!-- Node320291&#45;&gt;Node320773 -->
<g id="edge55" class="edge">
<title>Node320291&#45;&gt;Node320773</title>
<path fill="none" stroke="#191970" d="M383.984,-820.4934C409.5241,-785.7284 498.1008,-665.1583 531.5635,-619.6091"/>
<polygon fill="#191970" stroke="#191970" points="534.3863,-621.6784 537.4862,-611.5472 528.7449,-617.534 534.3863,-621.6784"/>
</g>
<!-- Node320776&#45;&gt;Node320251 -->
<g id="edge53" class="edge">
<title>Node320776&#45;&gt;Node320251</title>
<path fill="none" stroke="#191970" d="M575.2449,-937.1811C622.3615,-926.7311 712.3293,-906.7772 763.4763,-895.4333"/>
<polygon fill="#191970" stroke="#191970" points="764.463,-898.7996 773.4679,-893.2172 762.9473,-891.9656 764.463,-898.7996"/>
</g>
<!-- Node320776&#45;&gt;Node320258 -->
<g id="edge51" class="edge">
<title>Node320776&#45;&gt;Node320258</title>
<path fill="none" stroke="#191970" d="M575.0991,-947.4503C611.5902,-951.6924 674.3881,-959.3956 728,-968 740.3006,-969.9742 753.7006,-972.4341 765.6497,-974.7387"/>
<polygon fill="#191970" stroke="#191970" points="765.2269,-978.2223 775.7129,-976.7079 766.5712,-971.3525 765.2269,-978.2223"/>
</g>
<!-- Node320776&#45;&gt;Node320264 -->
<g id="edge50" class="edge">
<title>Node320776&#45;&gt;Node320264</title>
<path fill="none" stroke="#191970" d="M575.2112,-934.7224C586.1971,-930.852 598.4601,-925.8766 609,-920 626.7039,-910.129 628.1873,-903.3224 645,-892 649.7461,-888.8038 654.9361,-885.5933 659.9892,-882.6068"/>
<polygon fill="#191970" stroke="#191970" points="661.8937,-885.549 668.8117,-877.5245 658.3995,-879.4835 661.8937,-885.549"/>
</g>
<!-- Node320776&#45;&gt;Node320265 -->
<g id="edge52" class="edge">
<title>Node320776&#45;&gt;Node320265</title>
<path fill="none" stroke="#191970" d="M556.6068,-953.7196C581.0243,-973.3223 636.392,-1017.7724 666.3493,-1041.8227"/>
<polygon fill="#191970" stroke="#191970" points="664.4347,-1044.7739 674.4238,-1048.305 668.817,-1039.3154 664.4347,-1044.7739"/>
</g>
<!-- Node320776&#45;&gt;Node320286 -->
<g id="edge54" class="edge">
<title>Node320776&#45;&gt;Node320286</title>
<path fill="none" stroke="#191970" d="M546.5124,-934.3118C555.4643,-891.8957 593.5057,-718.6307 645,-583 653.9655,-559.3858 667.1389,-533.4631 676.2272,-516.5306"/>
<polygon fill="#191970" stroke="#191970" points="679.3352,-518.1415 681.0435,-507.6853 673.1875,-514.794 679.3352,-518.1415"/>
</g>
<!-- Node320773&#45;&gt;Node320250 -->
<g id="edge56" class="edge">
<title>Node320773&#45;&gt;Node320250</title>
<path fill="none" stroke="#191970" d="M590.2113,-602C607.8024,-602 627.7758,-602 644.9535,-602"/>
<polygon fill="#191970" stroke="#191970" points="645.2414,-605.5001 655.2414,-602 645.2414,-598.5001 645.2414,-605.5001"/>
</g>
<!-- Node320773&#45;&gt;Node320255 -->
<g id="edge58" class="edge">
<title>Node320773&#45;&gt;Node320255</title>
<path fill="none" stroke="#191970" d="M588.9149,-592.4099C630.5111,-581.1891 691.573,-558.6039 728,-517 777.0355,-460.9957 794.0248,-370.0537 799.3291,-330.01"/>
<polygon fill="#191970" stroke="#191970" points="802.8222,-330.2783 800.5552,-319.9288 795.8734,-329.4331 802.8222,-330.2783"/>
</g>
<!-- Node320773&#45;&gt;Node320258 -->
<g id="edge57" class="edge">
<title>Node320773&#45;&gt;Node320258</title>
<path fill="none" stroke="#191970" d="M581.2747,-611.5479C623.7047,-624.5799 692.2117,-652.2131 728,-702 781.7379,-776.7575 735.3428,-818.5059 764,-906 770.687,-926.4164 781.9456,-948.2676 790.3852,-963.2749"/>
<polygon fill="#191970" stroke="#191970" points="787.4239,-965.1461 795.4478,-972.0647 793.4897,-961.6524 787.4239,-965.1461"/>
</g>
<!-- Node320773&#45;&gt;Node320286 -->
<g id="edge59" class="edge">
<title>Node320773&#45;&gt;Node320286</title>
<path fill="none" stroke="#191970" d="M578.6671,-592.4735C588.8796,-588.803 599.7979,-584.0124 609,-578 609.4545,-577.703 647.4529,-538.4094 670.0668,-515.0092"/>
<polygon fill="#191970" stroke="#191970" points="672.6377,-517.3855 677.0696,-507.7621 667.6038,-512.5213 672.6377,-517.3855"/>
</g>
<!-- Node320808&#45;&gt;Node320255 -->
<g id="edge63" class="edge">
<title>Node320808&#45;&gt;Node320255</title>
<path fill="none" stroke="#191970" d="M428.1843,-162.4941C500.4384,-151.8609 634.0023,-142.6736 728,-198 763.5848,-218.945 785.1631,-264.7061 795.0474,-290.7892"/>
<polygon fill="#191970" stroke="#191970" points="791.8005,-292.1035 798.4731,-300.3332 798.3889,-289.7387 791.8005,-292.1035"/>
</g>
<!-- Node320808&#45;&gt;Node320286 -->
<g id="edge64" class="edge">
<title>Node320808&#45;&gt;Node320286</title>
<path fill="none" stroke="#191970" d="M426.8803,-181.6121C479.1278,-194.1737 560.2369,-221.1113 609,-274 664.3086,-333.988 680.4329,-435.4292 684.8923,-478.1225"/>
<polygon fill="#191970" stroke="#191970" points="681.4085,-478.46 685.8279,-488.089 688.3778,-477.8056 681.4085,-478.46"/>
</g>
<!-- Node320808&#45;&gt;Node320299 -->
<g id="edge66" class="edge">
<title>Node320808&#45;&gt;Node320299</title>
<path fill="none" stroke="#191970" d="M385.5366,-181.6833C412.1876,-211.9143 494.1307,-304.8647 528.7752,-344.1629"/>
<polygon fill="#191970" stroke="#191970" points="526.5413,-346.9216 535.7797,-352.1083 531.7922,-342.2925 526.5413,-346.9216"/>
</g>
<!-- Node320808&#45;&gt;Node320807 -->
<g id="edge65" class="edge">
<title>Node320808&#45;&gt;Node320807</title>
<path fill="none" stroke="#191970" d="M415.0083,-162.4695C432.6765,-158.0393 454.2625,-152.6267 474.7068,-147.5004"/>
<polygon fill="#191970" stroke="#191970" points="475.7807,-150.8395 484.6292,-145.0124 474.0782,-144.0497 475.7807,-150.8395"/>
</g>
<!-- Node320740&#45;&gt;Node320299 -->
<g id="edge68" class="edge">
<title>Node320740&#45;&gt;Node320299</title>
<path fill="none" stroke="#191970" d="M421.0087,-362C445.9435,-362 476.9968,-362 501.7255,-362"/>
<polygon fill="#191970" stroke="#191970" points="501.9001,-365.5001 511.9,-362 501.9,-358.5001 501.9001,-365.5001"/>
</g>
<!-- Node320405&#45;&gt;Node320248 -->
<g id="edge78" class="edge">
<title>Node320405&#45;&gt;Node320248</title>
<path fill="none" stroke="#191970" d="M156.2812,-684.5185C146.2601,-684.7417 135.7244,-684.8035 125.4183,-684.7039"/>
<polygon fill="#191970" stroke="#191970" points="125.2678,-681.2014 115.2163,-684.5506 125.1625,-688.2006 125.2678,-681.2014"/>
</g>
<!-- Node320405&#45;&gt;Node320250 -->
<g id="edge70" class="edge">
<title>Node320405&#45;&gt;Node320250</title>
<path fill="none" stroke="#191970" d="M268.8229,-673.6528C315.8167,-669.6685 384.4737,-663.0178 444,-654 517.942,-642.7984 535.9991,-637.2407 609,-621 620.8186,-618.3707 633.6004,-615.3221 645.3103,-612.4471"/>
<polygon fill="#191970" stroke="#191970" points="646.408,-615.781 655.2736,-609.98 644.7255,-608.9862 646.408,-615.781"/>
</g>
<!-- Node320405&#45;&gt;Node320251 -->
<g id="edge74" class="edge">
<title>Node320405&#45;&gt;Node320251</title>
<path fill="none" stroke="#191970" d="M268.5835,-677.2273C394.4604,-675.9714 691.3474,-675.857 728,-702 782.802,-741.0883 796.7604,-827.7878 800.3024,-867.0231"/>
<polygon fill="#191970" stroke="#191970" points="796.8254,-867.4585 801.0761,-877.1632 803.8051,-866.9259 796.8254,-867.4585"/>
</g>
<!-- Node320405&#45;&gt;Node320255 -->
<g id="edge76" class="edge">
<title>Node320405&#45;&gt;Node320255</title>
<path fill="none" stroke="#191970" d="M227.9516,-668.346C308.3962,-618.0852 679.3398,-386.3242 777.5739,-324.9487"/>
<polygon fill="#191970" stroke="#191970" points="779.584,-327.8199 786.2102,-319.5529 775.8749,-321.8833 779.584,-327.8199"/>
</g>
<!-- Node320405&#45;&gt;Node320258 -->
<g id="edge72" class="edge">
<title>Node320405&#45;&gt;Node320258</title>
<path fill="none" stroke="#191970" d="M254.1371,-687.5577C363.1455,-713.2299 653.6119,-786.0107 728,-849 737.7119,-857.2237 774.5389,-928.6077 792.0891,-963.2694"/>
<polygon fill="#191970" stroke="#191970" points="789.0486,-965.0133 796.6782,-972.3645 795.2982,-961.8599 789.0486,-965.0133"/>
</g>
<!-- Node320405&#45;&gt;Node320264 -->
<g id="edge71" class="edge">
<title>Node320405&#45;&gt;Node320264</title>
<path fill="none" stroke="#191970" d="M233.1133,-687.5274C245.834,-694.0667 261.9635,-703.6085 274,-715 294.6818,-734.5736 286.4545,-751.9852 310,-768 366.303,-806.2951 544.1847,-814.1309 609,-835 625.3996,-840.2803 643.1185,-847.6896 657.4691,-854.15"/>
<polygon fill="#191970" stroke="#191970" points="656.2597,-857.4458 666.8084,-858.4332 659.1778,-851.0831 656.2597,-857.4458"/>
</g>
<!-- Node320405&#45;&gt;Node320265 -->
<g id="edge73" class="edge">
<title>Node320405&#45;&gt;Node320265</title>
<path fill="none" stroke="#191970" d="M237.7306,-687.5619C250.4094,-693.5988 264.9598,-702.6237 274,-715 314.9498,-771.0613 271.7935,-809.0343 310,-867 361.7565,-945.5233 396.2109,-950.2913 480,-993 535.5284,-1021.3038 605.765,-1040.213 648.3554,-1050.0225"/>
<polygon fill="#191970" stroke="#191970" points="647.7781,-1053.4801 658.3029,-1052.2635 649.3166,-1046.6512 647.7781,-1053.4801"/>
</g>
<!-- Node320405&#45;&gt;Node320267 -->
<g id="edge75" class="edge">
<title>Node320405&#45;&gt;Node320267</title>
<path fill="none" stroke="#191970" d="M239.8078,-687.5999C252.3895,-693.4912 266.2251,-702.3739 274,-715 330.2032,-806.2712 261.4287,-1100.4486 310,-1196 345.4321,-1265.7033 385.3924,-1258.2397 444,-1310 460.2687,-1324.368 461.1018,-1332.3244 480,-1343 488.9015,-1348.0284 499.2612,-1351.84 509.0397,-1354.6789"/>
<polygon fill="#191970" stroke="#191970" points="508.3715,-1358.1224 518.934,-1357.2953 510.1611,-1351.355 508.3715,-1358.1224"/>
</g>
<!-- Node320405&#45;&gt;Node320291 -->
<g id="edge77" class="edge">
<title>Node320405&#45;&gt;Node320291</title>
<path fill="none" stroke="#191970" d="M235.8173,-687.5197C248.5542,-693.7263 263.7698,-702.9266 274,-715 302.1177,-748.1836 278.7455,-775.7525 310,-806 314.209,-810.0734 319.1568,-813.4612 324.4253,-816.2776"/>
<polygon fill="#191970" stroke="#191970" points="322.9766,-819.4638 333.5208,-820.4982 325.923,-813.1141 322.9766,-819.4638"/>
</g>
<!-- Node320405&#45;&gt;Node320299 -->
<g id="edge83" class="edge">
<title>Node320405&#45;&gt;Node320299</title>
<path fill="none" stroke="#191970" d="M219.0014,-668.1852C233.8691,-646.0464 272.0076,-590.9633 310,-550 364.1634,-491.6011 384.8633,-484.3568 444,-431 460.1151,-416.4599 462.4044,-410.7086 480,-398 491.0457,-390.0221 504.0333,-382.4652 515.448,-376.3541"/>
<polygon fill="#191970" stroke="#191970" points="517.3434,-379.313 524.5893,-371.5834 514.1047,-373.1073 517.3434,-379.313"/>
</g>
<!-- Node320405&#45;&gt;Node320740 -->
<g id="edge79" class="edge">
<title>Node320405&#45;&gt;Node320740</title>
<path fill="none" stroke="#191970" d="M214.3804,-668.4695C223.6438,-622.4228 265.7597,-423.4681 310,-381 313.9795,-377.1799 318.6687,-374.1179 323.6882,-371.6652"/>
<polygon fill="#191970" stroke="#191970" points="325.0552,-374.8877 332.9981,-367.8762 322.4164,-368.4041 325.0552,-374.8877"/>
</g>
<!-- Node320405&#45;&gt;Node320405 -->
<g id="edge80" class="edge">
<title>Node320405&#45;&gt;Node320405</title>
<path fill="none" stroke="#191970" d="M188.7641,-687.7571C177.2169,-696.5653 185.1289,-706 212.5,-706 230.4623,-706 240.0442,-701.9368 241.2458,-696.6539"/>
<polygon fill="#191970" stroke="#191970" points="244.1923,-694.7532 236.2359,-687.7571 238.0928,-698.1879 244.1923,-694.7532"/>
</g>
<!-- Node320405&#45;&gt;Node320777 -->
<g id="edge81" class="edge">
<title>Node320405&#45;&gt;Node320777</title>
<path fill="none" stroke="#191970" d="M218.1044,-668.2046C232.8694,-642.4542 274.167,-570.7917 310,-512 327.3497,-483.5341 347.9152,-451.1973 361.6421,-429.8048"/>
<polygon fill="#191970" stroke="#191970" points="364.6139,-431.6543 367.0771,-421.3498 358.7256,-427.8692 364.6139,-431.6543"/>
</g>
<!-- Node320777&#45;&gt;Node320299 -->
<g id="edge82" class="edge">
<title>Node320777&#45;&gt;Node320299</title>
<path fill="none" stroke="#191970" d="M432.7751,-391.3486C455.3477,-385.4191 480.9834,-378.685 502,-373.1642"/>
<polygon fill="#191970" stroke="#191970" points="503.1299,-376.4862 511.9125,-370.5603 501.3513,-369.7159 503.1299,-376.4862"/>
</g>
<!-- Node320801&#45;&gt;Node320255 -->
<g id="edge85" class="edge">
<title>Node320801&#45;&gt;Node320255</title>
<path fill="none" stroke="#191970" d="M252.0937,-276.4896C269.7091,-272.7245 290.7744,-268.8558 310,-267 472.7945,-251.2858 666.1698,-282.9339 753.9444,-300.035"/>
<polygon fill="#191970" stroke="#191970" points="753.3767,-303.4904 763.8653,-301.994 754.7328,-296.623 753.3767,-303.4904"/>
</g>
<!-- Node320801&#45;&gt;Node320286 -->
<g id="edge86" class="edge">
<title>Node320801&#45;&gt;Node320286</title>
<path fill="none" stroke="#191970" d="M269.6392,-276.4639C354.5892,-265.7635 514.3202,-259.5252 609,-343 651.1914,-380.1982 673.0918,-445.7323 681.8359,-478.3755"/>
<polygon fill="#191970" stroke="#191970" points="678.54,-479.6176 684.3918,-488.4498 685.3251,-477.8961 678.54,-479.6176"/>
</g>
<!-- Node320801&#45;&gt;Node320299 -->
<g id="edge88" class="edge">
<title>Node320801&#45;&gt;Node320299</title>
<path fill="none" stroke="#191970" d="M274.1555,-286.1783C321.5111,-287.7906 388.0574,-293.2821 444,-310 472.2736,-318.4493 501.9685,-334.8862 521.6825,-347.028"/>
<polygon fill="#191970" stroke="#191970" points="519.9256,-350.0578 530.2526,-352.4248 523.6557,-344.1344 519.9256,-350.0578"/>
</g>
<!-- Node320801&#45;&gt;Node320740 -->
<g id="edge87" class="edge">
<title>Node320801&#45;&gt;Node320740</title>
<path fill="none" stroke="#191970" d="M233.334,-295.6255C262.1335,-308.931 314.2726,-333.0196 347.1899,-348.2276"/>
<polygon fill="#191970" stroke="#191970" points="345.7892,-351.4359 356.3351,-352.4527 348.7251,-345.0813 345.7892,-351.4359"/>
</g>
</g>
</svg>
