<?xml version="1.0" encoding="UTF-8" standalone="no"?>
<!DOCTYPE svg PUBLIC "-//W3C//DTD SVG 1.1//EN"
 "http://www.w3.org/Graphics/SVG/1.1/DTD/svg11.dtd">
<!-- Generated by graphviz version 2.40.1 (20161225.0304)
 -->
<!-- Title: JS_ToCStringLen Pages: 1 -->
<svg width="623pt" height="614pt"
 viewBox="0.00 0.00 623.00 613.50" xmlns="http://www.w3.org/2000/svg" xmlns:xlink="http://www.w3.org/1999/xlink">
<g id="graph0" class="graph" transform="scale(1 1) rotate(0) translate(4 609.5)">
<title>JS_ToCStringLen</title>
<!-- Node49101 -->
<g id="node1" class="node">
<title>Node49101</title>
<polygon fill="#bfbfbf" stroke="#000000" points="0,-245 0,-264 94,-264 94,-245 0,-245"/>
<text text-anchor="middle" x="47" y="-252" font-family="Helvetica,sans-Serif" font-size="10.00" fill="#000000">JS_ToCStringLen</text>
</g>
<!-- Node49102 -->
<g id="node2" class="node">
<title>Node49102</title>
<g id="a_node2"><a xlink:href="quickjs_8c.html#aadfd9c31a6f69160c12e99b8d5eb5b3c" target="_top" xlink:title="js_atom_concat_str">
<polygon fill="none" stroke="#000000" points="138.5,-548 138.5,-567 240.5,-567 240.5,-548 138.5,-548"/>
<text text-anchor="middle" x="189.5" y="-555" font-family="Helvetica,sans-Serif" font-size="10.00" fill="#000000">js_atom_concat_str</text>
</a>
</g>
</g>
<!-- Node49101&#45;&gt;Node49102 -->
<g id="edge1" class="edge">
<title>Node49101&#45;&gt;Node49102</title>
<path fill="none" stroke="#191970" d="M51.8703,-273.8939C62.4685,-314.2345 89.9315,-409.4247 130,-481.5 144.4929,-507.5699 167.5975,-534.1293 180.3313,-547.8937"/>
<polygon fill="#191970" stroke="#191970" points="55.2148,-272.8464 49.3318,-264.035 48.4359,-274.5919 55.2148,-272.8464"/>
</g>
<!-- Node49142 -->
<g id="node7" class="node">
<title>Node49142</title>
<g id="a_node7"><a xlink:href="quickjs_8c.html#ab0bd3fbfe9b7f004c067b103a6d60d03" target="_top" xlink:title="js_compile_regexp">
<polygon fill="none" stroke="#000000" points="140.5,-453 140.5,-472 238.5,-472 238.5,-453 140.5,-453"/>
<text text-anchor="middle" x="189.5" y="-460" font-family="Helvetica,sans-Serif" font-size="10.00" fill="#000000">js_compile_regexp</text>
</a>
</g>
</g>
<!-- Node49101&#45;&gt;Node49142 -->
<g id="edge7" class="edge">
<title>Node49101&#45;&gt;Node49142</title>
<path fill="none" stroke="#191970" d="M54.919,-273.2845C68.0143,-303.1733 96.1287,-362.654 130,-406.5 144.0488,-424.686 164.144,-442.2807 177.0072,-452.7498"/>
<polygon fill="#191970" stroke="#191970" points="58.0992,-271.8202 50.9285,-264.0207 51.6703,-274.5895 58.0992,-271.8202"/>
</g>
<!-- Node49147 -->
<g id="node12" class="node">
<title>Node49147</title>
<g id="a_node12"><a xlink:href="quickjs_8c.html#a97231fb89bb56fdeddd9f5ba17b0e1ff" target="_top" xlink:title="JS_EvalObject">
<polygon fill="none" stroke="#000000" points="148.5,-378 148.5,-397 230.5,-397 230.5,-378 148.5,-378"/>
<text text-anchor="middle" x="189.5" y="-385" font-family="Helvetica,sans-Serif" font-size="10.00" fill="#000000">JS_EvalObject</text>
</a>
</g>
</g>
<!-- Node49101&#45;&gt;Node49147 -->
<g id="edge13" class="edge">
<title>Node49101&#45;&gt;Node49147</title>
<path fill="none" stroke="#191970" d="M55.8707,-273.2677C68.7391,-298.5209 94.9337,-343.1849 130,-368.5 135.539,-372.4987 141.9552,-375.68 148.4815,-378.204"/>
<polygon fill="#191970" stroke="#191970" points="58.8818,-271.4598 51.3224,-264.0365 52.6026,-274.5537 58.8818,-271.4598"/>
</g>
<!-- Node49477 -->
<g id="node19" class="node">
<title>Node49477</title>
<g id="a_node19"><a xlink:href="quickjs-libc_8c.html#a55f6cd4bbd0e676992642d066fd1d9fd" target="_top" xlink:title="js_evalScript">
<polygon fill="none" stroke="#000000" points="153,-340 153,-359 226,-359 226,-340 153,-340"/>
<text text-anchor="middle" x="189.5" y="-347" font-family="Helvetica,sans-Serif" font-size="10.00" fill="#000000">js_evalScript</text>
</a>
</g>
</g>
<!-- Node49101&#45;&gt;Node49477 -->
<g id="edge23" class="edge">
<title>Node49101&#45;&gt;Node49477</title>
<path fill="none" stroke="#191970" d="M61.6483,-271.7088C77.0675,-288.8296 102.8343,-314.7561 130,-330.5 137.0365,-334.578 145.057,-337.8973 152.8809,-340.5525"/>
<polygon fill="#191970" stroke="#191970" points="64.1826,-269.2906 54.9494,-264.0946 58.9271,-273.9144 64.1826,-269.2906"/>
</g>
<!-- Node49168 -->
<g id="node20" class="node">
<title>Node49168</title>
<g id="a_node20"><a xlink:href="quickjs_8c.html#a8d95b2b91f50339b621237ad13f9cc47" target="_top" xlink:title="js_json_parse">
<polygon fill="none" stroke="#000000" points="151,-302 151,-321 228,-321 228,-302 151,-302"/>
<text text-anchor="middle" x="189.5" y="-309" font-family="Helvetica,sans-Serif" font-size="10.00" fill="#000000">js_json_parse</text>
</a>
</g>
</g>
<!-- Node49101&#45;&gt;Node49168 -->
<g id="edge24" class="edge">
<title>Node49101&#45;&gt;Node49168</title>
<path fill="none" stroke="#191970" d="M75.4274,-268.5431C91.2879,-276.1164 111.5179,-285.3481 130,-292.5 138.6972,-295.8655 148.2657,-299.114 157.1387,-301.9444"/>
<polygon fill="#191970" stroke="#191970" points="76.6986,-265.2703 66.1713,-264.0754 73.6557,-271.5744 76.6986,-265.2703"/>
</g>
<!-- Node49703 -->
<g id="node21" class="node">
<title>Node49703</title>
<g id="a_node21"><a xlink:href="quickjs-libc_8c.html#a26a501e5bf41a733d365f221143ff3d5" target="_top" xlink:title="js_print">
<polygon fill="none" stroke="#000000" points="165.5,-264 165.5,-283 213.5,-283 213.5,-264 165.5,-264"/>
<text text-anchor="middle" x="189.5" y="-271" font-family="Helvetica,sans-Serif" font-size="10.00" fill="#000000">js_print</text>
</a>
</g>
</g>
<!-- Node49101&#45;&gt;Node49703 -->
<g id="edge25" class="edge">
<title>Node49101&#45;&gt;Node49703</title>
<path fill="none" stroke="#191970" d="M104.0282,-262.1038C125.3686,-264.9491 148.4833,-268.0311 165.2877,-270.2717"/>
<polygon fill="#191970" stroke="#191970" points="104.4296,-258.6264 94.0548,-260.774 103.5044,-265.565 104.4296,-258.6264"/>
</g>
<!-- Node49520 -->
<g id="node23" class="node">
<title>Node49520</title>
<g id="a_node23"><a xlink:href="quickjs-libc_8c.html#a2abec3aeee82a6dd3dd063725bbeecfe" target="_top" xlink:title="js_printf_internal">
<polygon fill="none" stroke="#ff0000" points="145.5,-226 145.5,-245 233.5,-245 233.5,-226 145.5,-226"/>
<text text-anchor="middle" x="189.5" y="-233" font-family="Helvetica,sans-Serif" font-size="10.00" fill="#000000">js_printf_internal</text>
</a>
</g>
</g>
<!-- Node49101&#45;&gt;Node49520 -->
<g id="edge27" class="edge">
<title>Node49101&#45;&gt;Node49520</title>
<path fill="none" stroke="#191970" d="M104.3417,-246.8544C118.0212,-245.0305 132.4125,-243.1117 145.391,-241.3812"/>
<polygon fill="#191970" stroke="#191970" points="103.5044,-243.435 94.0548,-248.226 104.4296,-250.3736 103.5044,-243.435"/>
</g>
<!-- Node49704 -->
<g id="node24" class="node">
<title>Node49704</title>
<g id="a_node24"><a xlink:href="quickjs-libc_8c.html#ad54da96247855ac44db1dafb4c5ff9ee" target="_top" xlink:title="js_std_file_puts">
<polygon fill="none" stroke="#000000" points="147,-188 147,-207 232,-207 232,-188 147,-188"/>
<text text-anchor="middle" x="189.5" y="-195" font-family="Helvetica,sans-Serif" font-size="10.00" fill="#000000">js_std_file_puts</text>
</a>
</g>
</g>
<!-- Node49101&#45;&gt;Node49704 -->
<g id="edge28" class="edge">
<title>Node49101&#45;&gt;Node49704</title>
<path fill="none" stroke="#191970" d="M75.4274,-240.4569C91.2879,-232.8836 111.5179,-223.6519 130,-216.5 138.6972,-213.1345 148.2657,-209.886 157.1387,-207.0556"/>
<polygon fill="#191970" stroke="#191970" points="73.6557,-237.4256 66.1713,-244.9246 76.6986,-243.7297 73.6557,-237.4256"/>
</g>
<!-- Node49366 -->
<g id="node25" class="node">
<title>Node49366</title>
<g id="a_node25"><a xlink:href="quickjs-libc_8c.html#a3820b79ea873fc2066551d85f7bb2c4c" target="_top" xlink:title="js_std_parseExtJSON">
<polygon fill="none" stroke="#000000" points="132.5,-150 132.5,-169 246.5,-169 246.5,-150 132.5,-150"/>
<text text-anchor="middle" x="189.5" y="-157" font-family="Helvetica,sans-Serif" font-size="10.00" fill="#000000">js_std_parseExtJSON</text>
</a>
</g>
</g>
<!-- Node49101&#45;&gt;Node49366 -->
<g id="edge29" class="edge">
<title>Node49101&#45;&gt;Node49366</title>
<path fill="none" stroke="#191970" d="M61.6483,-237.2912C77.0675,-220.1704 102.8343,-194.2439 130,-178.5 136.4736,-174.7482 143.78,-171.6386 151,-169.0975"/>
<polygon fill="#191970" stroke="#191970" points="58.9271,-235.0856 54.9494,-244.9054 64.1826,-239.7094 58.9271,-235.0856"/>
</g>
<!-- Node49646 -->
<g id="node26" class="node">
<title>Node49646</title>
<g id="a_node26"><a xlink:href="quickjs_8c.html#ac6b88454ffc4d639197c1e95e515e04a" target="_top" xlink:title="js_string_normalize">
<polygon fill="none" stroke="#000000" points="139,-112 139,-131 240,-131 240,-112 139,-112"/>
<text text-anchor="middle" x="189.5" y="-119" font-family="Helvetica,sans-Serif" font-size="10.00" fill="#000000">js_string_normalize</text>
</a>
</g>
</g>
<!-- Node49101&#45;&gt;Node49646 -->
<g id="edge30" class="edge">
<title>Node49101&#45;&gt;Node49646</title>
<path fill="none" stroke="#191970" d="M55.8707,-235.7323C68.7391,-210.4791 94.9337,-165.8151 130,-140.5 135.3632,-136.6282 141.5487,-133.5228 147.8603,-131.0384"/>
<polygon fill="#191970" stroke="#191970" points="52.6026,-234.4463 51.3224,-244.9635 58.8818,-237.5402 52.6026,-234.4463"/>
</g>
<!-- Node49490 -->
<g id="node27" class="node">
<title>Node49490</title>
<g id="a_node27"><a xlink:href="quickjs_8c.html#a0315f23b9804563f376c47edef2967fd" target="_top" xlink:title="JS_ToNumberHintFree">
<polygon fill="none" stroke="#ff0000" points="131,-74 131,-93 248,-93 248,-74 131,-74"/>
<text text-anchor="middle" x="189.5" y="-81" font-family="Helvetica,sans-Serif" font-size="10.00" fill="#000000">JS_ToNumberHintFree</text>
</a>
</g>
</g>
<!-- Node49101&#45;&gt;Node49490 -->
<g id="edge31" class="edge">
<title>Node49101&#45;&gt;Node49490</title>
<path fill="none" stroke="#191970" d="M52.4084,-235.0611C62.3703,-202.8121 86.6672,-138.2671 130,-102.5 134.6832,-98.6344 140.1647,-95.5509 145.8711,-93.0922"/>
<polygon fill="#191970" stroke="#191970" points="49.0459,-234.0897 49.5728,-244.6714 55.7597,-236.0707 49.0459,-234.0897"/>
</g>
<!-- Node49705 -->
<g id="node28" class="node">
<title>Node49705</title>
<g id="a_node28"><a xlink:href="structqjs_1_1js__traits_3_01std_1_1string__view_01_4.html#a722fb92e222abf0655072de681e46b23" target="_top" xlink:title="qjs::js_traits\&lt; std\l::string_view \&gt;::unwrap">
<polygon fill="none" stroke="#000000" points="130,-24.5 130,-54.5 249,-54.5 249,-24.5 130,-24.5"/>
<text text-anchor="start" x="138" y="-42.5" font-family="Helvetica,sans-Serif" font-size="10.00" fill="#000000">qjs::js_traits&lt; std</text>
<text text-anchor="middle" x="189.5" y="-31.5" font-family="Helvetica,sans-Serif" font-size="10.00" fill="#000000">::string_view &gt;::unwrap</text>
</a>
</g>
</g>
<!-- Node49101&#45;&gt;Node49705 -->
<g id="edge32" class="edge">
<title>Node49101&#45;&gt;Node49705</title>
<path fill="none" stroke="#191970" d="M50.6142,-234.5237C58.4696,-196.5257 80.5227,-113.2852 130,-64.5 133.9095,-60.6452 138.5022,-57.3502 143.3734,-54.5419"/>
<polygon fill="#191970" stroke="#191970" points="47.0939,-234.2908 48.6175,-244.7755 53.9648,-235.6291 47.0939,-234.2908"/>
</g>
<!-- Node49103 -->
<g id="node3" class="node">
<title>Node49103</title>
<g id="a_node3"><a xlink:href="quickjs_8c.html#a6bb36fa120270db7f4e19891b8a0bfe1" target="_top" xlink:title="get_private_setter_name">
<polygon fill="none" stroke="#000000" points="303,-548 303,-567 427,-567 427,-548 303,-548"/>
<text text-anchor="middle" x="365" y="-555" font-family="Helvetica,sans-Serif" font-size="10.00" fill="#000000">get_private_setter_name</text>
</a>
</g>
</g>
<!-- Node49102&#45;&gt;Node49103 -->
<g id="edge2" class="edge">
<title>Node49102&#45;&gt;Node49103</title>
<path fill="none" stroke="#191970" d="M250.9825,-557.5C267.7763,-557.5 285.984,-557.5 302.8165,-557.5"/>
<polygon fill="#191970" stroke="#191970" points="250.7337,-554.0001 240.7336,-557.5 250.7336,-561.0001 250.7337,-554.0001"/>
</g>
<!-- Node49141 -->
<g id="node6" class="node">
<title>Node49141</title>
<g id="a_node6"><a xlink:href="quickjs_8c.html#aa38698096df1fd806b60ab8b209fa4a8" target="_top" xlink:title="js_atom_concat_num">
<polygon fill="none" stroke="#000000" points="310,-586 310,-605 420,-605 420,-586 310,-586"/>
<text text-anchor="middle" x="365" y="-593" font-family="Helvetica,sans-Serif" font-size="10.00" fill="#000000">js_atom_concat_num</text>
</a>
</g>
</g>
<!-- Node49102&#45;&gt;Node49141 -->
<g id="edge5" class="edge">
<title>Node49102&#45;&gt;Node49141</title>
<path fill="none" stroke="#191970" d="M243.7783,-569.2526C268.594,-574.6258 297.6108,-580.9086 321.0324,-585.9799"/>
<polygon fill="#191970" stroke="#191970" points="244.3003,-565.7846 233.7861,-567.089 242.8189,-572.626 244.3003,-565.7846"/>
</g>
<!-- Node49104 -->
<g id="node4" class="node">
<title>Node49104</title>
<g id="a_node4"><a xlink:href="quickjs_8c.html#a00eb789430243c24dab4a63ad6a79653" target="_top" xlink:title="js_parse_class">
<polygon fill="none" stroke="#ff0000" points="507,-586 507,-605 589,-605 589,-586 507,-586"/>
<text text-anchor="middle" x="548" y="-593" font-family="Helvetica,sans-Serif" font-size="10.00" fill="#000000">js_parse_class</text>
</a>
</g>
</g>
<!-- Node49103&#45;&gt;Node49104 -->
<g id="edge3" class="edge">
<title>Node49103&#45;&gt;Node49104</title>
<path fill="none" stroke="#191970" d="M421.1144,-569.1522C448.7721,-574.8953 481.5289,-581.6973 506.8314,-586.9513"/>
<polygon fill="#191970" stroke="#191970" points="421.6814,-565.6953 411.1786,-567.089 420.2581,-572.5491 421.6814,-565.6953"/>
</g>
<!-- Node49138 -->
<g id="node5" class="node">
<title>Node49138</title>
<g id="a_node5"><a xlink:href="quickjs_8c.html#a7d2ad72913c8768cc7bceeb2693d53c4" target="_top" xlink:title="resolve_scope_private\l_field">
<polygon fill="none" stroke="#ff0000" points="491,-536.5 491,-566.5 605,-566.5 605,-536.5 491,-536.5"/>
<text text-anchor="start" x="499" y="-554.5" font-family="Helvetica,sans-Serif" font-size="10.00" fill="#000000">resolve_scope_private</text>
<text text-anchor="middle" x="548" y="-543.5" font-family="Helvetica,sans-Serif" font-size="10.00" fill="#000000">_field</text>
</a>
</g>
</g>
<!-- Node49103&#45;&gt;Node49138 -->
<g id="edge4" class="edge">
<title>Node49103&#45;&gt;Node49138</title>
<path fill="none" stroke="#191970" d="M437.5174,-555.1224C455.2539,-554.5409 473.9858,-553.9267 490.8861,-553.3726"/>
<polygon fill="#191970" stroke="#191970" points="437.0907,-551.6344 427.2108,-555.4603 437.3202,-558.6306 437.0907,-551.6344"/>
</g>
<!-- Node49141&#45;&gt;Node49104 -->
<g id="edge6" class="edge">
<title>Node49141&#45;&gt;Node49104</title>
<path fill="none" stroke="#191970" d="M430.7015,-595.5C456.0702,-595.5 484.3201,-595.5 506.7387,-595.5"/>
<polygon fill="#191970" stroke="#191970" points="430.4027,-592.0001 420.4027,-595.5 430.4026,-599.0001 430.4027,-592.0001"/>
</g>
<!-- Node49143 -->
<g id="node8" class="node">
<title>Node49143</title>
<g id="a_node8"><a xlink:href="quickjs_8c.html#aa24c64e9ce871601a39b40dbfee0deb4" target="_top" xlink:title="JS_AddIntrinsicRegExpCompiler">
<polygon fill="none" stroke="#000000" points="285,-510 285,-529 445,-529 445,-510 285,-510"/>
<text text-anchor="middle" x="365" y="-517" font-family="Helvetica,sans-Serif" font-size="10.00" fill="#000000">JS_AddIntrinsicRegExpCompiler</text>
</a>
</g>
</g>
<!-- Node49142&#45;&gt;Node49143 -->
<g id="edge8" class="edge">
<title>Node49142&#45;&gt;Node49143</title>
<path fill="none" stroke="#191970" d="M220.1873,-476.033C238.7137,-483.8691 262.9323,-493.5298 285,-500.5 296.1621,-504.0256 308.3815,-507.2421 319.8356,-509.9856"/>
<polygon fill="#191970" stroke="#191970" points="221.3659,-472.7303 210.7955,-472.011 218.6102,-479.1651 221.3659,-472.7303"/>
</g>
<!-- Node49145 -->
<g id="node10" class="node">
<title>Node49145</title>
<g id="a_node10"><a xlink:href="quickjs_8c.html#af55de7fe1d3513a7230dfbfc1cbeec62" target="_top" xlink:title="js_regexp_compile">
<polygon fill="none" stroke="#000000" points="316,-472 316,-491 414,-491 414,-472 316,-472"/>
<text text-anchor="middle" x="365" y="-479" font-family="Helvetica,sans-Serif" font-size="10.00" fill="#000000">js_regexp_compile</text>
</a>
</g>
</g>
<!-- Node49142&#45;&gt;Node49145 -->
<g id="edge10" class="edge">
<title>Node49142&#45;&gt;Node49145</title>
<path fill="none" stroke="#191970" d="M248.9526,-468.9365C270.6703,-471.2877 294.9778,-473.9193 315.7131,-476.1641"/>
<polygon fill="#191970" stroke="#191970" points="249.1722,-465.4399 238.8536,-467.8431 248.4187,-472.3992 249.1722,-465.4399"/>
</g>
<!-- Node49146 -->
<g id="node11" class="node">
<title>Node49146</title>
<g id="a_node11"><a xlink:href="quickjs_8c.html#a233052710c228313122c39c231a23ddf" target="_top" xlink:title="js_regexp_constructor">
<polygon fill="none" stroke="#000000" points="308.5,-434 308.5,-453 421.5,-453 421.5,-434 308.5,-434"/>
<text text-anchor="middle" x="365" y="-441" font-family="Helvetica,sans-Serif" font-size="10.00" fill="#000000">js_regexp_constructor</text>
</a>
</g>
</g>
<!-- Node49142&#45;&gt;Node49146 -->
<g id="edge11" class="edge">
<title>Node49142&#45;&gt;Node49146</title>
<path fill="none" stroke="#191970" d="M248.9675,-456.0619C268.1338,-453.9869 289.3157,-451.6937 308.2786,-449.6408"/>
<polygon fill="#191970" stroke="#191970" points="248.4187,-452.6008 238.8536,-457.1569 249.1722,-459.5601 248.4187,-452.6008"/>
</g>
<!-- Node49144 -->
<g id="node9" class="node">
<title>Node49144</title>
<g id="a_node9"><a xlink:href="quickjs_8c.html#aafc8241682ce24b6d72e0f237ee85a51" target="_top" xlink:title="JS_AddIntrinsicRegExp">
<polygon fill="none" stroke="#ff0000" points="487.5,-476 487.5,-495 608.5,-495 608.5,-476 487.5,-476"/>
<text text-anchor="middle" x="548" y="-483" font-family="Helvetica,sans-Serif" font-size="10.00" fill="#000000">JS_AddIntrinsicRegExp</text>
</a>
</g>
</g>
<!-- Node49143&#45;&gt;Node49144 -->
<g id="edge9" class="edge">
<title>Node49143&#45;&gt;Node49144</title>
<path fill="none" stroke="#191970" d="M426.3792,-508.0962C449.1801,-503.86 474.7898,-499.1019 496.6068,-495.0485"/>
<polygon fill="#191970" stroke="#191970" points="425.6551,-504.6708 416.4627,-509.9386 426.9338,-511.553 425.6551,-504.6708"/>
</g>
<!-- Node49146&#45;&gt;Node49144 -->
<g id="edge12" class="edge">
<title>Node49146&#45;&gt;Node49144</title>
<path fill="none" stroke="#191970" d="M416.2857,-455.2705C444.709,-461.7939 479.5954,-469.8006 506.3225,-475.9347"/>
<polygon fill="#191970" stroke="#191970" points="417.0551,-451.8561 406.5255,-453.0305 415.4892,-458.6788 417.0551,-451.8561"/>
</g>
<!-- Node49148 -->
<g id="node13" class="node">
<title>Node49148</title>
<g id="a_node13"><a xlink:href="quickjs_8c.html#ac2894ff4edcdb4e6841bcce9c76081e3" target="_top" xlink:title="JS_CallInternal">
<polygon fill="none" stroke="#ff0000" points="323.5,-378 323.5,-397 406.5,-397 406.5,-378 323.5,-378"/>
<text text-anchor="middle" x="365" y="-385" font-family="Helvetica,sans-Serif" font-size="10.00" fill="#000000">JS_CallInternal</text>
</a>
</g>
</g>
<!-- Node49147&#45;&gt;Node49148 -->
<g id="edge14" class="edge">
<title>Node49147&#45;&gt;Node49148</title>
<path fill="none" stroke="#191970" d="M240.7775,-387.5C266.9883,-387.5 298.4804,-387.5 323.1977,-387.5"/>
<polygon fill="#191970" stroke="#191970" points="240.647,-384.0001 230.647,-387.5 240.6469,-391.0001 240.647,-384.0001"/>
</g>
<!-- Node49664 -->
<g id="node17" class="node">
<title>Node49664</title>
<g id="a_node17"><a xlink:href="quickjs_8c.html#a43064473b2e303ee40f4c1c7a87e85da" target="_top" xlink:title="js_function_constructor">
<polygon fill="none" stroke="#ff0000" points="306,-340 306,-359 424,-359 424,-340 306,-340"/>
<text text-anchor="middle" x="365" y="-347" font-family="Helvetica,sans-Serif" font-size="10.00" fill="#000000">js_function_constructor</text>
</a>
</g>
</g>
<!-- Node49147&#45;&gt;Node49664 -->
<g id="edge21" class="edge">
<title>Node49147&#45;&gt;Node49664</title>
<path fill="none" stroke="#191970" d="M240.512,-376.4547C266.0207,-370.9314 296.584,-364.3137 321.043,-359.0178"/>
<polygon fill="#191970" stroke="#191970" points="239.6798,-373.0537 230.647,-378.5907 241.1612,-379.8951 239.6798,-373.0537"/>
</g>
<!-- Node49702 -->
<g id="node18" class="node">
<title>Node49702</title>
<g id="a_node18"><a xlink:href="quickjs_8c.html#aa760a09841b95bbc8ab2859780713705" target="_top" xlink:title="js_global_eval">
<polygon fill="none" stroke="#ff0000" points="326,-302 326,-321 404,-321 404,-302 326,-302"/>
<text text-anchor="middle" x="365" y="-309" font-family="Helvetica,sans-Serif" font-size="10.00" fill="#000000">js_global_eval</text>
</a>
</g>
</g>
<!-- Node49147&#45;&gt;Node49702 -->
<g id="edge22" class="edge">
<title>Node49147&#45;&gt;Node49702</title>
<path fill="none" stroke="#191970" d="M238.4479,-374.1344C242.1228,-372.4538 245.6855,-370.5815 249,-368.5 268.7016,-356.1274 264.8431,-342.1161 285,-330.5 297.3684,-323.3723 312.281,-318.9139 325.8629,-316.1271"/>
<polygon fill="#191970" stroke="#191970" points="237.0939,-370.9067 229.1591,-377.9273 239.7402,-377.3872 237.0939,-370.9067"/>
</g>
<!-- Node49148&#45;&gt;Node49148 -->
<g id="edge20" class="edge">
<title>Node49148&#45;&gt;Node49148</title>
<path fill="none" stroke="#191970" d="M332.4401,-405.7746C333.3684,-411.241 344.2217,-415.5 365,-415.5 395.9258,-415.5 404.8653,-406.0653 391.8185,-397.2571"/>
<polygon fill="#191970" stroke="#191970" points="335.4943,-407.5054 338.1815,-397.2571 329.6898,-403.5928 335.4943,-407.5054"/>
</g>
<!-- Node49149 -->
<g id="node14" class="node">
<title>Node49149</title>
<g id="a_node14"><a xlink:href="quickjs_8c.html#ade71a22dc56e7371392393df663b28b3" target="_top" xlink:title="async_func_resume">
<polygon fill="none" stroke="#ff0000" points="496,-416 496,-435 600,-435 600,-416 496,-416"/>
<text text-anchor="middle" x="548" y="-423" font-family="Helvetica,sans-Serif" font-size="10.00" fill="#000000">async_func_resume</text>
</a>
</g>
</g>
<!-- Node49148&#45;&gt;Node49149 -->
<g id="edge15" class="edge">
<title>Node49148&#45;&gt;Node49149</title>
<path fill="none" stroke="#191970" d="M416.5345,-398.2012C443.4509,-403.7904 476.1097,-410.572 502.1424,-415.9777"/>
<polygon fill="#191970" stroke="#191970" points="417.0283,-394.7291 406.5255,-396.1228 415.605,-401.5829 417.0283,-394.7291"/>
</g>
<!-- Node49164 -->
<g id="node15" class="node">
<title>Node49164</title>
<g id="a_node15"><a xlink:href="quickjs_8c.html#a1a4c02a29525d5cb2085dd8bca3af350" target="_top" xlink:title="JS_Call">
<polygon fill="none" stroke="#ff0000" points="522.5,-378 522.5,-397 573.5,-397 573.5,-378 522.5,-378"/>
<text text-anchor="middle" x="548" y="-385" font-family="Helvetica,sans-Serif" font-size="10.00" fill="#000000">JS_Call</text>
</a>
</g>
</g>
<!-- Node49148&#45;&gt;Node49164 -->
<g id="edge16" class="edge">
<title>Node49148&#45;&gt;Node49164</title>
<path fill="none" stroke="#191970" d="M416.9064,-381.3463C451.4112,-380.2398 495.2228,-380.6732 522.4373,-382.6465"/>
<polygon fill="#191970" stroke="#191970" points="416.386,-377.8634 406.5255,-381.7392 416.6508,-384.8584 416.386,-377.8634"/>
</g>
<!-- Node49245 -->
<g id="node16" class="node">
<title>Node49245</title>
<g id="a_node16"><a xlink:href="quickjs_8c.html#ad35594576a14c10812efaf958c99af8a" target="_top" xlink:title="JS_CallConstructorInternal">
<polygon fill="none" stroke="#ff0000" points="481,-340 481,-359 615,-359 615,-340 481,-340"/>
<text text-anchor="middle" x="548" y="-347" font-family="Helvetica,sans-Serif" font-size="10.00" fill="#000000">JS_CallConstructorInternal</text>
</a>
</g>
</g>
<!-- Node49148&#45;&gt;Node49245 -->
<g id="edge18" class="edge">
<title>Node49148&#45;&gt;Node49245</title>
<path fill="none" stroke="#191970" d="M398.4877,-375.1865C421.4832,-369.1188 452.7983,-362.225 480.8288,-356.9148"/>
<polygon fill="#191970" stroke="#191970" points="397.2701,-371.891 388.5494,-377.9076 399.1187,-378.6425 397.2701,-371.891"/>
</g>
<!-- Node49164&#45;&gt;Node49148 -->
<g id="edge17" class="edge">
<title>Node49164&#45;&gt;Node49148</title>
<path fill="none" stroke="#191970" d="M512.3021,-392.9799C481.9727,-394.5739 438.4098,-394.6675 406.5255,-393.2608"/>
<polygon fill="#191970" stroke="#191970" points="512.6723,-396.4638 522.4373,-392.3535 512.2404,-389.4771 512.6723,-396.4638"/>
</g>
<!-- Node49245&#45;&gt;Node49148 -->
<g id="edge19" class="edge">
<title>Node49245&#45;&gt;Node49148</title>
<path fill="none" stroke="#191970" d="M514.8304,-361.7294C484.4336,-369.767 439.307,-379.2772 406.5255,-384.638"/>
<polygon fill="#191970" stroke="#191970" points="515.8168,-365.0882 524.5351,-359.0682 513.9655,-358.3375 515.8168,-365.0882"/>
</g>
<!-- Node49294 -->
<g id="node22" class="node">
<title>Node49294</title>
<g id="a_node22"><a xlink:href="quickjs-libc_8c.html#ad04466feec6822a3b838baf229f6dfa0" target="_top" xlink:title="js_std_add_helpers">
<polygon fill="none" stroke="#ff0000" points="314.5,-264 314.5,-283 415.5,-283 415.5,-264 314.5,-264"/>
<text text-anchor="middle" x="365" y="-271" font-family="Helvetica,sans-Serif" font-size="10.00" fill="#000000">js_std_add_helpers</text>
</a>
</g>
</g>
<!-- Node49703&#45;&gt;Node49294 -->
<g id="edge26" class="edge">
<title>Node49703&#45;&gt;Node49294</title>
<path fill="none" stroke="#191970" d="M223.5717,-273.5C249.3427,-273.5 285.1443,-273.5 314.2777,-273.5"/>
<polygon fill="#191970" stroke="#191970" points="223.5346,-270.0001 213.5345,-273.5 223.5345,-277.0001 223.5346,-270.0001"/>
</g>
<!-- Node49706 -->
<g id="node29" class="node">
<title>Node49706</title>
<g id="a_node29"><a xlink:href="structqjs_1_1js__traits_3_01std_1_1string_01_4.html#a9511dd47284884284b365ff1bd3de9d5" target="_top" xlink:title="qjs::js_traits\&lt; std\l::string \&gt;::unwrap">
<polygon fill="none" stroke="#000000" points="318.5,-49.5 318.5,-79.5 411.5,-79.5 411.5,-49.5 318.5,-49.5"/>
<text text-anchor="start" x="326.5" y="-67.5" font-family="Helvetica,sans-Serif" font-size="10.00" fill="#000000">qjs::js_traits&lt; std</text>
<text text-anchor="middle" x="365" y="-56.5" font-family="Helvetica,sans-Serif" font-size="10.00" fill="#000000">::string &gt;::unwrap</text>
</a>
</g>
</g>
<!-- Node49705&#45;&gt;Node49706 -->
<g id="edge33" class="edge">
<title>Node49705&#45;&gt;Node49706</title>
<path fill="none" stroke="#191970" d="M259.3305,-49.4474C279.1672,-52.2731 300.28,-55.2806 318.377,-57.8585"/>
<polygon fill="#191970" stroke="#191970" points="259.8,-45.979 249.4063,-48.0337 258.8127,-52.909 259.8,-45.979"/>
</g>
<!-- Node49707 -->
<g id="node30" class="node">
<title>Node49707</title>
<g id="a_node30"><a xlink:href="structqjs_1_1js__traits_3_01const_01char_01_5_01_4.html#ac03002f04b35482ae7ad9ac3a693ddbf" target="_top" xlink:title="qjs::js_traits\&lt; const\l char * \&gt;::unwrap">
<polygon fill="none" stroke="#000000" points="313.5,-.5 313.5,-30.5 416.5,-30.5 416.5,-.5 313.5,-.5"/>
<text text-anchor="start" x="321.5" y="-18.5" font-family="Helvetica,sans-Serif" font-size="10.00" fill="#000000">qjs::js_traits&lt; const</text>
<text text-anchor="middle" x="365" y="-7.5" font-family="Helvetica,sans-Serif" font-size="10.00" fill="#000000"> char * &gt;::unwrap</text>
</a>
</g>
</g>
<!-- Node49705&#45;&gt;Node49707 -->
<g id="edge34" class="edge">
<title>Node49705&#45;&gt;Node49707</title>
<path fill="none" stroke="#191970" d="M259.5341,-29.9227C277.4721,-27.4696 296.4407,-24.8756 313.2703,-22.5741"/>
<polygon fill="#191970" stroke="#191970" points="258.8398,-26.485 249.4063,-31.3077 259.7883,-33.4204 258.8398,-26.485"/>
</g>
</g>
</svg>
