<?xml version="1.0" encoding="UTF-8" standalone="no"?>
<!DOCTYPE svg PUBLIC "-//W3C//DTD SVG 1.1//EN"
 "http://www.w3.org/Graphics/SVG/1.1/DTD/svg11.dtd">
<!-- Generated by graphviz version 2.40.1 (20161225.0304)
 -->
<!-- Title: js_array_pop Pages: 1 -->
<svg width="796pt" height="983pt"
 viewBox="0.00 0.00 796.00 982.97" xmlns="http://www.w3.org/2000/svg" xmlns:xlink="http://www.w3.org/1999/xlink">
<g id="graph0" class="graph" transform="scale(1 1) rotate(0) translate(4 978.9742)">
<title>js_array_pop</title>
<!-- Node397700 -->
<g id="node1" class="node">
<title>Node397700</title>
<polygon fill="#bfbfbf" stroke="#000000" points="0,-343.4742 0,-362.4742 72,-362.4742 72,-343.4742 0,-343.4742"/>
<text text-anchor="middle" x="36" y="-350.4742" font-family="Helvetica,sans-Serif" font-size="10.00" fill="#000000">js_array_pop</text>
</g>
<!-- Node397701 -->
<g id="node2" class="node">
<title>Node397701</title>
<g id="a_node2"><a xlink:href="quickjs_8c.html#a6c99d7581e100a5de07c9a24f4c7d34a" target="_top" xlink:title="JS_CopySubArray">
<polygon fill="none" stroke="#000000" points="108,-566.4742 108,-585.4742 206,-585.4742 206,-566.4742 108,-566.4742"/>
<text text-anchor="middle" x="157" y="-573.4742" font-family="Helvetica,sans-Serif" font-size="10.00" fill="#000000">JS_CopySubArray</text>
</a>
</g>
</g>
<!-- Node397700&#45;&gt;Node397701 -->
<g id="edge1" class="edge">
<title>Node397700&#45;&gt;Node397701</title>
<path fill="none" stroke="#191970" d="M41.1992,-362.5562C59.661,-396.5808 122.2722,-511.9718 146.9158,-557.3892"/>
<polygon fill="#191970" stroke="#191970" points="143.9746,-559.3076 151.8202,-566.4278 150.1272,-555.9691 143.9746,-559.3076"/>
</g>
<!-- Node397702 -->
<g id="node3" class="node">
<title>Node397702</title>
<g id="a_node3"><a xlink:href="quickjs_8c.html#a70e21308fe3760cd95dd1dbb1a8755e6" target="_top" xlink:title="JS_DeletePropertyInt64">
<polygon fill="none" stroke="#000000" points="242.5,-737.4742 242.5,-756.4742 363.5,-756.4742 363.5,-737.4742 242.5,-737.4742"/>
<text text-anchor="middle" x="303" y="-744.4742" font-family="Helvetica,sans-Serif" font-size="10.00" fill="#000000">JS_DeletePropertyInt64</text>
</a>
</g>
</g>
<!-- Node397700&#45;&gt;Node397702 -->
<g id="edge37" class="edge">
<title>Node397700&#45;&gt;Node397702</title>
<path fill="none" stroke="#191970" d="M36.7702,-362.6424C39.9276,-397.155 54.375,-516.4113 108,-594.9742 152.2076,-659.7402 232.6225,-709.475 275.0569,-732.6502"/>
<polygon fill="#191970" stroke="#191970" points="273.5343,-735.8052 284.0011,-737.4477 276.8431,-729.6366 273.5343,-735.8052"/>
</g>
<!-- Node397758 -->
<g id="node6" class="node">
<title>Node397758</title>
<g id="a_node6"><a xlink:href="quickjs_8h.html#afaa20c47565bc704c6c85f3d77254e7d" target="_top" xlink:title="JS_FreeValue">
<polygon fill="none" stroke="#ff0000" points="567.5,-471.4742 567.5,-490.4742 645.5,-490.4742 645.5,-471.4742 567.5,-471.4742"/>
<text text-anchor="middle" x="606.5" y="-478.4742" font-family="Helvetica,sans-Serif" font-size="10.00" fill="#000000">JS_FreeValue</text>
</a>
</g>
</g>
<!-- Node397700&#45;&gt;Node397758 -->
<g id="edge38" class="edge">
<title>Node397700&#45;&gt;Node397758</title>
<path fill="none" stroke="#191970" d="M51.4862,-343.242C114.4735,-305.0133 355.4593,-172.0373 511,-271.9742 577.8565,-314.9303 598.4907,-417.5802 604.3559,-461.0171"/>
<polygon fill="#191970" stroke="#191970" points="600.9081,-461.6576 605.597,-471.1584 607.8563,-460.8073 600.9081,-461.6576"/>
</g>
<!-- Node397772 -->
<g id="node7" class="node">
<title>Node397772</title>
<g id="a_node7"><a xlink:href="quickjs_8h.html#ad80a83d73e9b7d872b88fbf2943aebe9" target="_top" xlink:title="JS_IsException">
<polygon fill="none" stroke="#000000" points="702,-832.4742 702,-851.4742 788,-851.4742 788,-832.4742 702,-832.4742"/>
<text text-anchor="middle" x="745" y="-839.4742" font-family="Helvetica,sans-Serif" font-size="10.00" fill="#000000">JS_IsException</text>
</a>
</g>
</g>
<!-- Node397700&#45;&gt;Node397772 -->
<g id="edge52" class="edge">
<title>Node397700&#45;&gt;Node397772</title>
<path fill="none" stroke="#191970" d="M37.1256,-362.6162C43.3816,-415.3565 74.7913,-669.1208 108,-739.9742 165.5985,-862.865 167.2806,-974.9742 303,-974.9742 303,-974.9742 303,-974.9742 455.5,-974.9742 552.4248,-974.9742 581.6587,-965.7336 666,-917.9742 692.5128,-902.961 716.7607,-877.003 731.2078,-859.6606"/>
<polygon fill="#191970" stroke="#191970" points="734.258,-861.4553 737.8294,-851.4806 728.8172,-857.051 734.258,-861.4553"/>
</g>
<!-- Node397773 -->
<g id="node8" class="node">
<title>Node397773</title>
<g id="a_node8"><a xlink:href="quickjs_8c.html#a710289a14c2810467e5b448d3c28bd55" target="_top" xlink:title="JS_ToObject">
<polygon fill="none" stroke="#ff0000" points="569.5,-889.4742 569.5,-908.4742 643.5,-908.4742 643.5,-889.4742 569.5,-889.4742"/>
<text text-anchor="middle" x="606.5" y="-896.4742" font-family="Helvetica,sans-Serif" font-size="10.00" fill="#000000">JS_ToObject</text>
</a>
</g>
</g>
<!-- Node397700&#45;&gt;Node397773 -->
<g id="edge56" class="edge">
<title>Node397700&#45;&gt;Node397773</title>
<path fill="none" stroke="#191970" d="M36.2592,-362.622C37.7123,-401.9006 47.184,-552.5498 108,-654.9742 197.1711,-805.1534 236.9479,-855.3698 400,-917.9742 456.9412,-939.8369 528.956,-924.4413 571.155,-911.5265"/>
<polygon fill="#191970" stroke="#191970" points="572.2374,-914.8551 580.7062,-908.4888 570.1157,-908.1844 572.2374,-914.8551"/>
</g>
<!-- Node397991 -->
<g id="node13" class="node">
<title>Node397991</title>
<g id="a_node13"><a xlink:href="quickjs_8h.html#af763b173e78debf2075670ca2c128a30" target="_top" xlink:title="JS_SetProperty">
<polygon fill="none" stroke="#ff0000" points="412.5,-357.4742 412.5,-376.4742 498.5,-376.4742 498.5,-357.4742 412.5,-357.4742"/>
<text text-anchor="middle" x="455.5" y="-364.4742" font-family="Helvetica,sans-Serif" font-size="10.00" fill="#000000">JS_SetProperty</text>
</a>
</g>
</g>
<!-- Node397700&#45;&gt;Node397991 -->
<g id="edge55" class="edge">
<title>Node397700&#45;&gt;Node397991</title>
<path fill="none" stroke="#191970" d="M72.1294,-354.1799C146.1333,-356.6497 315.2694,-362.2943 402.0213,-365.1894"/>
<polygon fill="#191970" stroke="#191970" points="402.0692,-368.6929 412.1804,-365.5285 402.3028,-361.6968 402.0692,-368.6929"/>
</g>
<!-- Node397943 -->
<g id="node19" class="node">
<title>Node397943</title>
<g id="a_node19"><a xlink:href="quickjs_8c.html#a4e7bf9ce9c03f0cac9529a14161183e0" target="_top" xlink:title="js_get_fast_array">
<polygon fill="none" stroke="#000000" points="111,-91.4742 111,-110.4742 203,-110.4742 203,-91.4742 111,-91.4742"/>
<text text-anchor="middle" x="157" y="-98.4742" font-family="Helvetica,sans-Serif" font-size="10.00" fill="#000000">js_get_fast_array</text>
</a>
</g>
</g>
<!-- Node397700&#45;&gt;Node397943 -->
<g id="edge39" class="edge">
<title>Node397700&#45;&gt;Node397943</title>
<path fill="none" stroke="#191970" d="M36.4129,-343.4655C38.364,-309.5995 49.243,-193.2492 108,-124.9742 111.1551,-121.308 115.0011,-118.1495 119.1367,-115.442"/>
<polygon fill="#191970" stroke="#191970" points="120.9115,-118.4593 127.9041,-110.4998 117.4741,-112.3614 120.9115,-118.4593"/>
</g>
<!-- Node398137 -->
<g id="node20" class="node">
<title>Node398137</title>
<g id="a_node20"><a xlink:href="quickjs_8c.html#a5f848f76409193212a44e6221e430919" target="_top" xlink:title="js_get_length64">
<polygon fill="none" stroke="#000000" points="260.5,-53.4742 260.5,-72.4742 345.5,-72.4742 345.5,-53.4742 260.5,-53.4742"/>
<text text-anchor="middle" x="303" y="-60.4742" font-family="Helvetica,sans-Serif" font-size="10.00" fill="#000000">js_get_length64</text>
</a>
</g>
</g>
<!-- Node397700&#45;&gt;Node398137 -->
<g id="edge40" class="edge">
<title>Node397700&#45;&gt;Node398137</title>
<path fill="none" stroke="#191970" d="M36.8043,-343.3955C39.9142,-312.3016 53.8353,-213.0237 108,-157.9742 140.764,-124.6749 166.3195,-144.6273 206,-119.9742 224.4366,-108.5197 223.5918,-98.4741 242,-86.9742 248.4366,-82.9532 255.6591,-79.3984 262.8214,-76.34"/>
<polygon fill="#191970" stroke="#191970" points="264.4866,-79.4436 272.4713,-72.4797 261.8866,-72.9443 264.4866,-79.4436"/>
</g>
<!-- Node398141 -->
<g id="node23" class="node">
<title>Node398141</title>
<g id="a_node23"><a xlink:href="quickjs_8c.html#a7bb763b31e1c40a04aa0c1d5db0f1191" target="_top" xlink:title="JS_GetPropertyInt64">
<polygon fill="none" stroke="#000000" points="249,-300.4742 249,-319.4742 357,-319.4742 357,-300.4742 249,-300.4742"/>
<text text-anchor="middle" x="303" y="-307.4742" font-family="Helvetica,sans-Serif" font-size="10.00" fill="#000000">JS_GetPropertyInt64</text>
</a>
</g>
</g>
<!-- Node397700&#45;&gt;Node398141 -->
<g id="edge46" class="edge">
<title>Node397700&#45;&gt;Node398141</title>
<path fill="none" stroke="#191970" d="M72.0088,-347.175C114.5782,-340.3193 186.2272,-328.7803 238.4607,-320.3682"/>
<polygon fill="#191970" stroke="#191970" points="239.3179,-323.7753 248.6342,-318.7297 238.2048,-316.8643 239.3179,-323.7753"/>
</g>
<!-- Node397930 -->
<g id="node24" class="node">
<title>Node397930</title>
<g id="a_node24"><a xlink:href="quickjs_8h.html#a6acbc709e59969eac6775f9b253b438f" target="_top" xlink:title="JS_NewInt64">
<polygon fill="none" stroke="#ff0000" points="119,-167.4742 119,-186.4742 195,-186.4742 195,-167.4742 119,-167.4742"/>
<text text-anchor="middle" x="157" y="-174.4742" font-family="Helvetica,sans-Serif" font-size="10.00" fill="#000000">JS_NewInt64</text>
</a>
</g>
</g>
<!-- Node397700&#45;&gt;Node397930 -->
<g id="edge53" class="edge">
<title>Node397700&#45;&gt;Node397930</title>
<path fill="none" stroke="#191970" d="M38.237,-343.1279C44.6706,-316.8234 65.5404,-243.9927 108,-200.9742 111.6494,-197.2767 115.984,-194.062 120.5429,-191.2929"/>
<polygon fill="#191970" stroke="#191970" points="122.3068,-194.3185 129.4647,-186.5072 118.9979,-188.1499 122.3068,-194.3185"/>
</g>
<!-- Node397701&#45;&gt;Node397702 -->
<g id="edge2" class="edge">
<title>Node397701&#45;&gt;Node397702</title>
<path fill="none" stroke="#191970" d="M165.2679,-585.6578C189.0583,-613.5219 257.9187,-694.1735 288.3007,-729.7578"/>
<polygon fill="#191970" stroke="#191970" points="285.6677,-732.0643 294.8228,-737.3967 290.9913,-727.519 285.6677,-732.0643"/>
</g>
<!-- Node398135 -->
<g id="node12" class="node">
<title>Node398135</title>
<g id="a_node12"><a xlink:href="quickjs_8c.html#a51b06daa618640e531fe808770553b96" target="_top" xlink:title="JS_SetPropertyInt64">
<polygon fill="none" stroke="#000000" points="249.5,-509.4742 249.5,-528.4742 356.5,-528.4742 356.5,-509.4742 249.5,-509.4742"/>
<text text-anchor="middle" x="303" y="-516.4742" font-family="Helvetica,sans-Serif" font-size="10.00" fill="#000000">JS_SetPropertyInt64</text>
</a>
</g>
</g>
<!-- Node397701&#45;&gt;Node398135 -->
<g id="edge14" class="edge">
<title>Node397701&#45;&gt;Node398135</title>
<path fill="none" stroke="#191970" d="M181.4371,-566.4337C205.4401,-557.0626 242.263,-542.6866 269.0929,-532.2119"/>
<polygon fill="#191970" stroke="#191970" points="270.4408,-535.443 278.4832,-528.5458 267.895,-528.9223 270.4408,-535.443"/>
</g>
<!-- Node398136 -->
<g id="node15" class="node">
<title>Node398136</title>
<g id="a_node15"><a xlink:href="quickjs_8c.html#a14674e74168715dc5a3a391910982e5d" target="_top" xlink:title="JS_TryGetPropertyInt64">
<polygon fill="none" stroke="#000000" points="242,-623.4742 242,-642.4742 364,-642.4742 364,-623.4742 242,-623.4742"/>
<text text-anchor="middle" x="303" y="-630.4742" font-family="Helvetica,sans-Serif" font-size="10.00" fill="#000000">JS_TryGetPropertyInt64</text>
</a>
</g>
</g>
<!-- Node397701&#45;&gt;Node398136 -->
<g id="edge23" class="edge">
<title>Node397701&#45;&gt;Node398136</title>
<path fill="none" stroke="#191970" d="M181.4371,-585.5147C205.4401,-594.8857 242.263,-609.2618 269.0929,-619.7365"/>
<polygon fill="#191970" stroke="#191970" points="267.895,-623.026 278.4832,-623.4025 270.4408,-616.5054 267.895,-623.026"/>
</g>
<!-- Node397703 -->
<g id="node4" class="node">
<title>Node397703</title>
<g id="a_node4"><a xlink:href="quickjs_8c.html#a877fcb7651d95b411ce70e62b7f4a1f0" target="_top" xlink:title="__JS_AtomFromUInt32">
<polygon fill="none" stroke="#000000" points="547,-737.4742 547,-756.4742 666,-756.4742 666,-737.4742 547,-737.4742"/>
<text text-anchor="middle" x="606.5" y="-744.4742" font-family="Helvetica,sans-Serif" font-size="10.00" fill="#000000">__JS_AtomFromUInt32</text>
</a>
</g>
</g>
<!-- Node397702&#45;&gt;Node397703 -->
<g id="edge3" class="edge">
<title>Node397702&#45;&gt;Node397703</title>
<path fill="none" stroke="#191970" d="M315.942,-756.635C333.7671,-769.2766 367.3837,-790.783 400,-798.9742 447.8475,-810.9904 463.1919,-811.1463 511,-798.9742 538.6708,-791.9291 566.9807,-775.0572 585.5155,-762.4295"/>
<polygon fill="#191970" stroke="#191970" points="587.6045,-765.2394 593.7836,-756.633 583.5861,-759.5077 587.6045,-765.2394"/>
</g>
<!-- Node397704 -->
<g id="node5" class="node">
<title>Node397704</title>
<g id="a_node5"><a xlink:href="quickjs_8c.html#a2b88ed25233c441cbed7b0a027c9ee2f" target="_top" xlink:title="JS_DeleteProperty">
<polygon fill="none" stroke="#ff0000" points="406,-889.4742 406,-908.4742 505,-908.4742 505,-889.4742 406,-889.4742"/>
<text text-anchor="middle" x="455.5" y="-896.4742" font-family="Helvetica,sans-Serif" font-size="10.00" fill="#000000">JS_DeleteProperty</text>
</a>
</g>
</g>
<!-- Node397702&#45;&gt;Node397704 -->
<g id="edge4" class="edge">
<title>Node397702&#45;&gt;Node397704</title>
<path fill="none" stroke="#191970" d="M308.0251,-756.6691C320.5673,-780.022 355.4678,-840.0377 400,-874.9742 404.9866,-878.8863 410.708,-882.288 416.5404,-885.2025"/>
<polygon fill="#191970" stroke="#191970" points="415.1564,-888.4181 425.707,-889.3847 418.062,-882.0496 415.1564,-888.4181"/>
</g>
<!-- Node397757 -->
<g id="node10" class="node">
<title>Node397757</title>
<g id="a_node10"><a xlink:href="quickjs_8c.html#ab7fc45a99935a1c0ba50b0216d9401a9" target="_top" xlink:title="JS_FreeAtom">
<polygon fill="none" stroke="#ff0000" points="568,-528.4742 568,-547.4742 645,-547.4742 645,-528.4742 568,-528.4742"/>
<text text-anchor="middle" x="606.5" y="-535.4742" font-family="Helvetica,sans-Serif" font-size="10.00" fill="#000000">JS_FreeAtom</text>
</a>
</g>
</g>
<!-- Node397702&#45;&gt;Node397757 -->
<g id="edge10" class="edge">
<title>Node397702&#45;&gt;Node397757</title>
<path fill="none" stroke="#191970" d="M363.7539,-756.2022C408.267,-759.6775 468.1467,-757.1704 511,-727.9742 570.8318,-687.2104 595.0373,-597.4069 603.0887,-557.6157"/>
<polygon fill="#191970" stroke="#191970" points="606.5646,-558.0708 604.9836,-547.5946 599.6865,-556.7701 606.5646,-558.0708"/>
</g>
<!-- Node398134 -->
<g id="node11" class="node">
<title>Node398134</title>
<g id="a_node11"><a xlink:href="quickjs_8c.html#aa641af3a921335927dab07dc83285917" target="_top" xlink:title="JS_NewAtomInt64">
<polygon fill="none" stroke="#ff0000" points="406,-699.4742 406,-718.4742 505,-718.4742 505,-699.4742 406,-699.4742"/>
<text text-anchor="middle" x="455.5" y="-706.4742" font-family="Helvetica,sans-Serif" font-size="10.00" fill="#000000">JS_NewAtomInt64</text>
</a>
</g>
</g>
<!-- Node397702&#45;&gt;Node398134 -->
<g id="edge11" class="edge">
<title>Node397702&#45;&gt;Node398134</title>
<path fill="none" stroke="#191970" d="M341.4822,-737.3852C361.5156,-732.3933 386.2023,-726.2418 407.476,-720.9408"/>
<polygon fill="#191970" stroke="#191970" points="408.4375,-724.3083 417.2945,-718.4942 406.745,-717.516 408.4375,-724.3083"/>
</g>
<!-- Node397704&#45;&gt;Node397758 -->
<g id="edge5" class="edge">
<title>Node397704&#45;&gt;Node397758</title>
<path fill="none" stroke="#191970" d="M459.1184,-889.4718C468.7807,-863.7892 495.504,-790.6972 511,-727.9742 533.6069,-636.4686 494.8331,-597.4787 547,-518.9742 553.4921,-509.2044 563.4457,-501.4285 573.3654,-495.5212"/>
<polygon fill="#191970" stroke="#191970" points="575.2587,-498.4755 582.3655,-490.6177 571.9097,-492.3285 575.2587,-498.4755"/>
</g>
<!-- Node397704&#45;&gt;Node397772 -->
<g id="edge6" class="edge">
<title>Node397704&#45;&gt;Node397772</title>
<path fill="none" stroke="#191970" d="M500.6161,-889.4645C515.3884,-886.3886 531.8856,-882.9936 547,-879.9742 595.942,-870.1969 651.79,-859.5224 691.6675,-851.9834"/>
<polygon fill="#191970" stroke="#191970" points="692.5263,-855.3832 701.7033,-850.0885 691.2275,-848.5047 692.5263,-855.3832"/>
</g>
<!-- Node397704&#45;&gt;Node397773 -->
<g id="edge7" class="edge">
<title>Node397704&#45;&gt;Node397773</title>
<path fill="none" stroke="#191970" d="M505.3615,-898.9742C522.5773,-898.9742 541.8112,-898.9742 558.8457,-898.9742"/>
<polygon fill="#191970" stroke="#191970" points="559.1303,-902.4743 569.1302,-898.9742 559.1302,-895.4743 559.1303,-902.4743"/>
</g>
<!-- Node397773&#45;&gt;Node397772 -->
<g id="edge8" class="edge">
<title>Node397773&#45;&gt;Node397772</title>
<path fill="none" stroke="#191970" d="M630.2688,-889.4644C641.1695,-885.0832 654.2534,-879.7964 666,-874.9742 681.4174,-868.645 698.4844,-861.5295 712.7984,-855.5306"/>
<polygon fill="#191970" stroke="#191970" points="714.3475,-858.6763 722.2142,-851.5794 711.6388,-852.2216 714.3475,-858.6763"/>
</g>
<!-- Node397836 -->
<g id="node9" class="node">
<title>Node397836</title>
<g id="a_node9"><a xlink:href="quickjs_8h.html#a2050bc428da1c65ac7eb87c3fa3b0392" target="_top" xlink:title="JS_NewInt32">
<polygon fill="none" stroke="#000000" points="707,-362.4742 707,-381.4742 783,-381.4742 783,-362.4742 707,-362.4742"/>
<text text-anchor="middle" x="745" y="-369.4742" font-family="Helvetica,sans-Serif" font-size="10.00" fill="#000000">JS_NewInt32</text>
</a>
</g>
</g>
<!-- Node397773&#45;&gt;Node397836 -->
<g id="edge9" class="edge">
<title>Node397773&#45;&gt;Node397836</title>
<path fill="none" stroke="#191970" d="M611.757,-889.2611C623.2236,-867.6939 650.6787,-813.9241 666,-765.9742 710.6907,-626.1087 735.2948,-449.9097 742.633,-391.6578"/>
<polygon fill="#191970" stroke="#191970" points="746.1198,-391.9793 743.8713,-381.6258 739.1725,-391.1217 746.1198,-391.9793"/>
</g>
<!-- Node398134&#45;&gt;Node397703 -->
<g id="edge12" class="edge">
<title>Node398134&#45;&gt;Node397703</title>
<path fill="none" stroke="#191970" d="M493.6037,-718.5632C513.44,-723.5551 537.8839,-729.7066 558.9483,-735.0075"/>
<polygon fill="#191970" stroke="#191970" points="558.1185,-738.4078 568.6703,-737.4541 559.8269,-731.6194 558.1185,-738.4078"/>
</g>
<!-- Node398134&#45;&gt;Node397772 -->
<g id="edge13" class="edge">
<title>Node398134&#45;&gt;Node397772</title>
<path fill="none" stroke="#191970" d="M505.4291,-702.1102C550.4832,-698.4283 617.0118,-699.4416 666,-727.9742 703.1055,-749.5858 726.8503,-796.4061 737.8431,-822.8278"/>
<polygon fill="#191970" stroke="#191970" points="734.6065,-824.1607 741.5482,-832.1647 741.1129,-821.5788 734.6065,-824.1607"/>
</g>
<!-- Node398135&#45;&gt;Node397758 -->
<g id="edge16" class="edge">
<title>Node398135&#45;&gt;Node397758</title>
<path fill="none" stroke="#191970" d="M346.7803,-509.4179C363.3847,-506.0522 382.5043,-502.4859 400,-499.9742 453.3855,-492.31 515.003,-487.1094 556.9374,-484.1136"/>
<polygon fill="#191970" stroke="#191970" points="557.426,-487.5881 567.1576,-483.3993 556.9379,-480.6051 557.426,-487.5881"/>
</g>
<!-- Node398135&#45;&gt;Node397836 -->
<g id="edge18" class="edge">
<title>Node398135&#45;&gt;Node397836</title>
<path fill="none" stroke="#191970" d="M328.8571,-509.3867C348.3524,-502.2209 375.7809,-492.2724 400,-483.9742 509.7031,-446.3865 640.096,-404.9219 704.6488,-384.6072"/>
<polygon fill="#191970" stroke="#191970" points="705.9405,-387.8701 714.4306,-381.5322 703.8412,-381.1923 705.9405,-387.8701"/>
</g>
<!-- Node398135&#45;&gt;Node397757 -->
<g id="edge15" class="edge">
<title>Node398135&#45;&gt;Node397757</title>
<path fill="none" stroke="#191970" d="M342.3881,-528.4845C359.9127,-532.2496 380.8703,-536.1183 400,-537.9742 453.784,-543.1921 515.8192,-542.2657 557.7448,-540.6213"/>
<polygon fill="#191970" stroke="#191970" points="558.1096,-544.1091 567.9533,-540.1911 557.8148,-537.1154 558.1096,-544.1091"/>
</g>
<!-- Node398135&#45;&gt;Node398134 -->
<g id="edge17" class="edge">
<title>Node398135&#45;&gt;Node398134</title>
<path fill="none" stroke="#191970" d="M310.7722,-528.6575C335.0365,-558.8885 409.6414,-651.8389 441.1834,-691.1371"/>
<polygon fill="#191970" stroke="#191970" points="438.5716,-693.4746 447.5606,-699.0825 444.0307,-689.093 438.5716,-693.4746"/>
</g>
<!-- Node398135&#45;&gt;Node397991 -->
<g id="edge19" class="edge">
<title>Node398135&#45;&gt;Node397991</title>
<path fill="none" stroke="#191970" d="M308.0251,-509.2792C320.5673,-485.9264 355.4678,-425.9107 400,-390.9742 404.9866,-387.0621 410.708,-383.6604 416.5404,-380.7459"/>
<polygon fill="#191970" stroke="#191970" points="418.062,-383.8988 425.707,-376.5637 415.1564,-377.5303 418.062,-383.8988"/>
</g>
<!-- Node398005 -->
<g id="node14" class="node">
<title>Node398005</title>
<g id="a_node14"><a xlink:href="quickjs_8c.html#aee75cc1546e19479e3ccda58f3b50a96" target="_top" xlink:title="JS_SetPropertyValue">
<polygon fill="none" stroke="#ff0000" points="400.5,-509.4742 400.5,-528.4742 510.5,-528.4742 510.5,-509.4742 400.5,-509.4742"/>
<text text-anchor="middle" x="455.5" y="-516.4742" font-family="Helvetica,sans-Serif" font-size="10.00" fill="#000000">JS_SetPropertyValue</text>
</a>
</g>
</g>
<!-- Node398135&#45;&gt;Node398005 -->
<g id="edge20" class="edge">
<title>Node398135&#45;&gt;Node398005</title>
<path fill="none" stroke="#191970" d="M356.7658,-518.9742C367.5988,-518.9742 379.0969,-518.9742 390.2722,-518.9742"/>
<polygon fill="#191970" stroke="#191970" points="390.4162,-522.4743 400.4162,-518.9742 390.4162,-515.4743 390.4162,-522.4743"/>
</g>
<!-- Node398005&#45;&gt;Node397758 -->
<g id="edge22" class="edge">
<title>Node398005&#45;&gt;Node397758</title>
<path fill="none" stroke="#191970" d="M493.6037,-509.3852C513.44,-504.3933 537.8839,-498.2418 558.9483,-492.9408"/>
<polygon fill="#191970" stroke="#191970" points="559.8269,-496.3289 568.6703,-490.4942 558.1185,-489.5406 559.8269,-496.3289"/>
</g>
<!-- Node398005&#45;&gt;Node397757 -->
<g id="edge21" class="edge">
<title>Node398005&#45;&gt;Node397757</title>
<path fill="none" stroke="#191970" d="M510.8694,-525.9412C526.1884,-527.8688 542.7003,-529.9464 557.6213,-531.8239"/>
<polygon fill="#191970" stroke="#191970" points="557.304,-535.3115 567.6628,-533.0874 558.178,-528.3662 557.304,-535.3115"/>
</g>
<!-- Node398136&#45;&gt;Node397703 -->
<g id="edge24" class="edge">
<title>Node398136&#45;&gt;Node397703</title>
<path fill="none" stroke="#191970" d="M309.3664,-642.6791C323.1333,-662.7291 357.8568,-708.4744 400,-727.9742 442.5611,-747.6673 495.2736,-752.2388 536.7876,-751.9786"/>
<polygon fill="#191970" stroke="#191970" points="536.8721,-755.4778 546.816,-751.8215 536.7624,-748.4787 536.8721,-755.4778"/>
</g>
<!-- Node398136&#45;&gt;Node397772 -->
<g id="edge34" class="edge">
<title>Node398136&#45;&gt;Node397772</title>
<path fill="none" stroke="#191970" d="M307.8708,-642.4912C320.0704,-665.3346 354.2678,-723.5495 400,-752.9742 491.4769,-811.8316 620.0706,-831.8238 691.6243,-838.573"/>
<polygon fill="#191970" stroke="#191970" points="691.4852,-842.0744 701.7564,-839.4757 692.1065,-835.102 691.4852,-842.0744"/>
</g>
<!-- Node398136&#45;&gt;Node397836 -->
<g id="edge36" class="edge">
<title>Node398136&#45;&gt;Node397836</title>
<path fill="none" stroke="#191970" d="M364.0394,-636.6007C375.9605,-637.1733 388.3686,-637.6746 400,-637.9742 523.541,-641.1561 582.0863,-647.6989 666,-556.9742 711.5601,-507.7161 733.2309,-428.1952 741.2088,-391.579"/>
<polygon fill="#191970" stroke="#191970" points="744.6595,-392.1753 743.2564,-381.6738 737.8044,-390.7582 744.6595,-392.1753"/>
</g>
<!-- Node398136&#45;&gt;Node397757 -->
<g id="edge25" class="edge">
<title>Node398136&#45;&gt;Node397757</title>
<path fill="none" stroke="#191970" d="M364.3146,-636.4591C406.9212,-636.7347 464.2228,-632.7465 511,-613.9742 543.4009,-600.9713 573.6544,-573.2238 591.1029,-555.0978"/>
<polygon fill="#191970" stroke="#191970" points="593.9035,-557.2274 598.1804,-547.5341 588.7922,-552.4446 593.9035,-557.2274"/>
</g>
<!-- Node398136&#45;&gt;Node398134 -->
<g id="edge35" class="edge">
<title>Node398136&#45;&gt;Node398134</title>
<path fill="none" stroke="#191970" d="M319.9475,-642.6194C339.1337,-653.4066 371.4409,-671.1743 400,-684.9742 407.3106,-688.5067 415.2698,-692.0954 422.8183,-695.3839"/>
<polygon fill="#191970" stroke="#191970" points="421.5108,-698.6314 432.0804,-699.3619 424.2733,-692.1996 421.5108,-698.6314"/>
</g>
<!-- Node397832 -->
<g id="node16" class="node">
<title>Node397832</title>
<g id="a_node16"><a xlink:href="quickjs_8h.html#a89b7c8686c7eee70b86be722ee4730ad" target="_top" xlink:title="JS_GetProperty">
<polygon fill="none" stroke="#ff0000" points="563.5,-262.4742 563.5,-281.4742 649.5,-281.4742 649.5,-262.4742 563.5,-262.4742"/>
<text text-anchor="middle" x="606.5" y="-269.4742" font-family="Helvetica,sans-Serif" font-size="10.00" fill="#000000">JS_GetProperty</text>
</a>
</g>
</g>
<!-- Node398136&#45;&gt;Node397832 -->
<g id="edge26" class="edge">
<title>Node398136&#45;&gt;Node397832</title>
<path fill="none" stroke="#191970" d="M309.377,-623.2733C324.2805,-600.8257 362.9454,-543.8688 400,-499.9742 445.6166,-445.937 463.5942,-438.4487 511,-385.9742 540.9479,-352.8242 574.0407,-312.4062 592.3456,-289.6896"/>
<polygon fill="#191970" stroke="#191970" points="595.2794,-291.626 598.8115,-281.6373 589.8213,-287.2432 595.2794,-291.626"/>
</g>
<!-- Node397858 -->
<g id="node17" class="node">
<title>Node397858</title>
<g id="a_node17"><a xlink:href="quickjs_8c.html#a90d6e607f6917d817c1e997bd2e6ed07" target="_top" xlink:title="JS_GetPropertyValue">
<polygon fill="none" stroke="#ff0000" points="400,-281.4742 400,-300.4742 511,-300.4742 511,-281.4742 400,-281.4742"/>
<text text-anchor="middle" x="455.5" y="-288.4742" font-family="Helvetica,sans-Serif" font-size="10.00" fill="#000000">JS_GetPropertyValue</text>
</a>
</g>
</g>
<!-- Node398136&#45;&gt;Node397858 -->
<g id="edge27" class="edge">
<title>Node398136&#45;&gt;Node397858</title>
<path fill="none" stroke="#191970" d="M310.9498,-623.4113C324.1405,-607.0205 350.4378,-572.0254 364,-537.9742 395.802,-458.1275 360.3375,-424.2221 400,-347.9742 408.286,-332.0449 422.4686,-317.595 434.4222,-307.2298"/>
<polygon fill="#191970" stroke="#191970" points="436.7831,-309.8188 442.2418,-300.7384 432.3119,-304.4327 436.7831,-309.8188"/>
</g>
<!-- Node397974 -->
<g id="node18" class="node">
<title>Node397974</title>
<g id="a_node18"><a xlink:href="quickjs_8c.html#a9d6d0a9704951d01c128975e0d2213f8" target="_top" xlink:title="JS_HasProperty">
<polygon fill="none" stroke="#ff0000" points="411,-585.4742 411,-604.4742 500,-604.4742 500,-585.4742 411,-585.4742"/>
<text text-anchor="middle" x="455.5" y="-592.4742" font-family="Helvetica,sans-Serif" font-size="10.00" fill="#000000">JS_HasProperty</text>
</a>
</g>
</g>
<!-- Node398136&#45;&gt;Node397974 -->
<g id="edge32" class="edge">
<title>Node398136&#45;&gt;Node397974</title>
<path fill="none" stroke="#191970" d="M341.4822,-623.3852C361.5156,-618.3933 386.2023,-612.2418 407.476,-606.9408"/>
<polygon fill="#191970" stroke="#191970" points="408.4375,-610.3083 417.2945,-604.4942 406.745,-603.516 408.4375,-610.3083"/>
</g>
<!-- Node397858&#45;&gt;Node397758 -->
<g id="edge29" class="edge">
<title>Node397858&#45;&gt;Node397758</title>
<path fill="none" stroke="#191970" d="M487.2167,-300.5936C495.5919,-304.1749 504.1848,-308.8943 511,-314.9742 558.0136,-356.9158 587.7525,-427.7184 600.0315,-461.6761"/>
<polygon fill="#191970" stroke="#191970" points="596.8001,-463.0388 603.4044,-471.3234 603.4079,-460.7285 596.8001,-463.0388"/>
</g>
<!-- Node397858&#45;&gt;Node397836 -->
<g id="edge31" class="edge">
<title>Node397858&#45;&gt;Node397836</title>
<path fill="none" stroke="#191970" d="M489.5606,-300.5041C542.013,-315.1799 642.5645,-343.3135 700.6386,-359.5622"/>
<polygon fill="#191970" stroke="#191970" points="700.0469,-363.031 710.6202,-362.355 701.9331,-356.2899 700.0469,-363.031"/>
</g>
<!-- Node397858&#45;&gt;Node397757 -->
<g id="edge28" class="edge">
<title>Node397858&#45;&gt;Node397757</title>
<path fill="none" stroke="#191970" d="M491.5262,-300.5285C498.8938,-303.995 505.9335,-308.6758 511,-314.9742 563.5023,-380.2429 499.8888,-430.7136 547,-499.9742 553.6501,-509.7508 563.7374,-517.5553 573.727,-523.4855"/>
<polygon fill="#191970" stroke="#191970" points="572.3157,-526.7021 582.7723,-528.4077 575.6615,-520.5535 572.3157,-526.7021"/>
</g>
<!-- Node397858&#45;&gt;Node397832 -->
<g id="edge30" class="edge">
<title>Node397858&#45;&gt;Node397832</title>
<path fill="none" stroke="#191970" d="M511.2978,-283.9533C524.9551,-282.2348 539.5371,-280.4 553.0799,-278.6959"/>
<polygon fill="#191970" stroke="#191970" points="553.7162,-282.1435 563.201,-277.4224 552.8423,-275.1983 553.7162,-282.1435"/>
</g>
<!-- Node397974&#45;&gt;Node397758 -->
<g id="edge33" class="edge">
<title>Node397974&#45;&gt;Node397758</title>
<path fill="none" stroke="#191970" d="M466.1326,-585.3957C482.838,-570.5206 516.4809,-541.2607 547,-518.9742 558.0585,-510.8987 570.7966,-502.6346 581.6424,-495.8844"/>
<polygon fill="#191970" stroke="#191970" points="583.5418,-498.8253 590.2293,-490.6077 579.8769,-492.8613 583.5418,-498.8253"/>
</g>
<!-- Node398137&#45;&gt;Node397772 -->
<g id="edge42" class="edge">
<title>Node398137&#45;&gt;Node397772</title>
<path fill="none" stroke="#191970" d="M323.1254,-53.3285C383.8412,-25.7896 567.0817,45.635 666,-43.9742 669.7365,-47.3591 731.4624,-698.7241 743.1118,-821.9776"/>
<polygon fill="#191970" stroke="#191970" points="739.654,-822.5909 744.0792,-832.2173 746.623,-821.9324 739.654,-822.5909"/>
</g>
<!-- Node398137&#45;&gt;Node397832 -->
<g id="edge41" class="edge">
<title>Node398137&#45;&gt;Node397832</title>
<path fill="none" stroke="#191970" d="M318.0656,-72.5762C352.5865,-94.6632 439.9084,-151.0177 511,-200.9742 537.2391,-219.4125 566.7698,-241.5948 585.9532,-256.2015"/>
<polygon fill="#191970" stroke="#191970" points="583.9182,-259.0513 593.9901,-262.339 588.1668,-253.488 583.9182,-259.0513"/>
</g>
<!-- Node398138 -->
<g id="node21" class="node">
<title>Node398138</title>
<g id="a_node21"><a xlink:href="quickjs_8c.html#a07acd485a57197356906928a788a0644" target="_top" xlink:title="JS_ToLengthFree">
<polygon fill="none" stroke="#000000" points="408.5,-53.4742 408.5,-72.4742 502.5,-72.4742 502.5,-53.4742 408.5,-53.4742"/>
<text text-anchor="middle" x="455.5" y="-60.4742" font-family="Helvetica,sans-Serif" font-size="10.00" fill="#000000">JS_ToLengthFree</text>
</a>
</g>
</g>
<!-- Node398137&#45;&gt;Node398138 -->
<g id="edge43" class="edge">
<title>Node398137&#45;&gt;Node398138</title>
<path fill="none" stroke="#191970" d="M345.8856,-62.9742C362.1608,-62.9742 380.9622,-62.9742 398.3479,-62.9742"/>
<polygon fill="#191970" stroke="#191970" points="398.3909,-66.4743 408.3909,-62.9742 398.3908,-59.4743 398.3909,-66.4743"/>
</g>
<!-- Node398138&#45;&gt;Node397758 -->
<g id="edge44" class="edge">
<title>Node398138&#45;&gt;Node397758</title>
<path fill="none" stroke="#191970" d="M459.5826,-72.6086C469.0224,-94.9933 492.9322,-152.3155 511,-200.9742 547.0824,-298.1479 585.6273,-416.1293 600.3264,-461.7157"/>
<polygon fill="#191970" stroke="#191970" points="596.9945,-462.7876 603.3883,-471.2357 603.6583,-460.6443 596.9945,-462.7876"/>
</g>
<!-- Node398139 -->
<g id="node22" class="node">
<title>Node398139</title>
<g id="a_node22"><a xlink:href="quickjs_8c.html#a537e88d38784e3df2a19c72f8bd1d77e" target="_top" xlink:title="JS_ToInt64Clamp">
<polygon fill="none" stroke="#ff0000" points="559,-53.4742 559,-72.4742 654,-72.4742 654,-53.4742 559,-53.4742"/>
<text text-anchor="middle" x="606.5" y="-60.4742" font-family="Helvetica,sans-Serif" font-size="10.00" fill="#000000">JS_ToInt64Clamp</text>
</a>
</g>
</g>
<!-- Node398138&#45;&gt;Node398139 -->
<g id="edge45" class="edge">
<title>Node398138&#45;&gt;Node398139</title>
<path fill="none" stroke="#191970" d="M502.863,-62.9742C517.3395,-62.9742 533.4264,-62.9742 548.5238,-62.9742"/>
<polygon fill="#191970" stroke="#191970" points="548.7859,-66.4743 558.7858,-62.9742 548.7858,-59.4743 548.7859,-66.4743"/>
</g>
<!-- Node398141&#45;&gt;Node397836 -->
<g id="edge51" class="edge">
<title>Node398141&#45;&gt;Node397836</title>
<path fill="none" stroke="#191970" d="M317.3507,-300.3148C335.6381,-288.5903 368.6484,-269.3502 400,-260.9742 514.268,-230.446 561.7736,-197.0636 666,-252.9742 705.5287,-274.1787 728.639,-324.8322 738.7972,-352.73"/>
<polygon fill="#191970" stroke="#191970" points="735.4939,-353.887 742.0635,-362.1991 742.1112,-351.6044 735.4939,-353.887"/>
</g>
<!-- Node398141&#45;&gt;Node397757 -->
<g id="edge47" class="edge">
<title>Node398141&#45;&gt;Node397757</title>
<path fill="none" stroke="#191970" d="M357.3153,-313.2602C411.3912,-317.6619 489.3702,-327.438 511,-347.9742 561.3467,-395.7755 506.8035,-443.3703 547,-499.9742 553.9004,-509.6911 564.1427,-517.5087 574.1927,-523.468"/>
<polygon fill="#191970" stroke="#191970" points="572.8123,-526.7018 583.267,-528.4195 576.1653,-520.5571 572.8123,-526.7018"/>
</g>
<!-- Node398141&#45;&gt;Node398134 -->
<g id="edge50" class="edge">
<title>Node398141&#45;&gt;Node398134</title>
<path fill="none" stroke="#191970" d="M306.1918,-319.8588C315.2756,-348.0019 342.0311,-430.9805 364,-499.9742 380.121,-550.6025 378.4654,-565.4008 400,-613.9742 412.4509,-642.0583 431.1623,-672.3501 443.354,-690.9914"/>
<polygon fill="#191970" stroke="#191970" points="440.4699,-692.9754 448.9134,-699.3753 446.3039,-689.1069 440.4699,-692.9754"/>
</g>
<!-- Node398141&#45;&gt;Node397832 -->
<g id="edge48" class="edge">
<title>Node398141&#45;&gt;Node397832</title>
<path fill="none" stroke="#191970" d="M321.3387,-300.3919C340.3979,-291.0153 371.3868,-277.3789 400,-271.9742 451.4202,-262.2615 511.3364,-263.6247 553.3436,-266.591"/>
<polygon fill="#191970" stroke="#191970" points="553.1177,-270.0838 563.3543,-267.3521 553.6484,-263.104 553.1177,-270.0838"/>
</g>
<!-- Node398141&#45;&gt;Node397858 -->
<g id="edge49" class="edge">
<title>Node398141&#45;&gt;Node397858</title>
<path fill="none" stroke="#191970" d="M357.1952,-303.222C367.8136,-301.899 379.0564,-300.4983 389.9979,-299.1351"/>
<polygon fill="#191970" stroke="#191970" points="390.4445,-302.6066 399.935,-297.897 389.579,-295.6603 390.4445,-302.6066"/>
</g>
<!-- Node397930&#45;&gt;Node397836 -->
<g id="edge54" class="edge">
<title>Node397930&#45;&gt;Node397836</title>
<path fill="none" stroke="#191970" d="M195.1629,-168.5907C285.654,-150.9723 516.8111,-119.4626 666,-218.9742 712.922,-250.272 733.5913,-318.5416 741.2178,-352.2866"/>
<polygon fill="#191970" stroke="#191970" points="737.8411,-353.2375 743.3233,-362.3038 744.6915,-351.7977 737.8411,-353.2375"/>
</g>
</g>
</svg>
