<?xml version="1.0" encoding="UTF-8" standalone="no"?>
<!DOCTYPE svg PUBLIC "-//W3C//DTD SVG 1.1//EN"
 "http://www.w3.org/Graphics/SVG/1.1/DTD/svg11.dtd">
<!-- Generated by graphviz version 2.40.1 (20161225.0304)
 -->
<!-- Title: JS_NewAtomStr Pages: 1 -->
<!--zoomable 661 -->
<svg id="main" version="1.1" xmlns="http://www.w3.org/2000/svg" xmlns:xlink="http://www.w3.org/1999/xlink" xml:space="preserve" onload="init(evt)">
<style type="text/css"><![CDATA[
.edge:hover path { stroke: red; }
.edge:hover polygon { stroke: red; fill: red; }
]]></style>
<script type="text/javascript"><![CDATA[
var edges = document.getElementsByTagName('g');
if (edges && edges.length) {
  for (var i=0;i<edges.length;i++) {
    if (edges[i].id.substr(0,4)=='edge') {
      edges[i].setAttribute('class','edge');
    }
  }
}
]]></script>
        <defs>
                <circle id="rim" cx="0" cy="0" r="7"/>
                <circle id="rim2" cx="0" cy="0" r="3.5"/>
                <g id="zoomPlus">
                        <use xlink:href="#rim" fill="#404040">
                                <set attributeName="fill" to="#808080" begin="zoomplus.mouseover" end="zoomplus.mouseout"/>
                        </use>
                        <path d="M-4,0h8M0,-4v8" fill="none" stroke="white" stroke-width="1.5" pointer-events="none"/>
                </g>
                <g id="zoomMin">
                        <use xlink:href="#rim" fill="#404040">
                                <set attributeName="fill" to="#808080" begin="zoomminus.mouseover" end="zoomminus.mouseout"/>
                        </use>
                        <path d="M-4,0h8" fill="none" stroke="white" stroke-width="1.5" pointer-events="none"/>
                </g>
                <g id="dirArrow">
                        <path fill="none" stroke="white" stroke-width="1.5" d="M0,-3.0v7 M-2.5,-0.5L0,-3.0L2.5,-0.5"/>
                </g>
               <g id="resetDef">
                       <use xlink:href="#rim2" fill="#404040">
                               <set attributeName="fill" to="#808080" begin="reset.mouseover" end="reset.mouseout"/>
                       </use>
               </g>
        </defs>

<script type="text/javascript">
var viewWidth = 839;
var viewHeight = 661;
var sectionId = 'dynsection-247';
</script>
<script xlink:href="svgpan.js"/>
<svg id="graph" class="graph">
<g id="viewport">
<title>JS_NewAtomStr</title>
<!-- Node83421 -->
<g id="node1" class="node">
<title>Node83421</title>
<polygon fill="#bfbfbf" stroke="#000000" points="0,-518.5 0,-537.5 90,-537.5 90,-518.5 0,-518.5"/>
<text text-anchor="middle" x="45" y="-525.5" font-family="Helvetica,sans-Serif" font-size="10.00" fill="#000000">JS_NewAtomStr</text>
</g>
<!-- Node83422 -->
<g id="node2" class="node">
<title>Node83422</title>
<g id="a_node2"><a xlink:href="quickjs_8c.html#a22324bb35cdaa36ce844506a073bb7f4" target="_top" xlink:title="emit_push_const">
<polygon fill="none" stroke="#000000" points="437,-632.5 437,-651.5 528,-651.5 528,-632.5 437,-632.5"/>
<text text-anchor="middle" x="482.5" y="-639.5" font-family="Helvetica,sans-Serif" font-size="10.00" fill="#000000">emit_push_const</text>
</a>
</g>
</g>
<!-- Node83421&#45;&gt;Node83422 -->
<g id="edge1" class="edge">
<title>Node83421&#45;&gt;Node83422</title>
<path fill="none" stroke="#191970" d="M73.4813,-542.0048C88.9,-549.4229 108.3533,-558.5204 126,-566 191.663,-593.8315 206.5191,-606.9183 276,-623 330.3661,-635.5833 394.5996,-639.8942 436.8215,-641.3372"/>
<polygon fill="#191970" stroke="#191970" points="74.9802,-538.8419 64.4546,-537.6326 71.9287,-545.1418 74.9802,-538.8419"/>
</g>
<!-- Node83457 -->
<g id="node6" class="node">
<title>Node83457</title>
<g id="a_node6"><a xlink:href="quickjs_8c.html#a522741f41afb1d0da0aa55968cd8579e" target="_top" xlink:title="JS_NewAtomLen">
<polygon fill="none" stroke="#000000" points="136.5,-537.5 136.5,-556.5 229.5,-556.5 229.5,-537.5 136.5,-537.5"/>
<text text-anchor="middle" x="183" y="-544.5" font-family="Helvetica,sans-Serif" font-size="10.00" fill="#000000">JS_NewAtomLen</text>
</a>
</g>
</g>
<!-- Node83421&#45;&gt;Node83457 -->
<g id="edge7" class="edge">
<title>Node83421&#45;&gt;Node83457</title>
<path fill="none" stroke="#191970" d="M100.4493,-535.6343C112.3338,-537.2706 124.7766,-538.9837 136.2915,-540.5691"/>
<polygon fill="#191970" stroke="#191970" points="100.5703,-532.118 90.1864,-534.2213 99.6155,-539.0526 100.5703,-532.118"/>
</g>
<!-- Node84059 -->
<g id="node27" class="node">
<title>Node84059</title>
<g id="a_node27"><a xlink:href="quickjs_8c.html#ad54b242d774ba44b2ac39fe8161aaf9c" target="_top" xlink:title="JS_ReadObjectAtoms">
<polygon fill="none" stroke="#000000" points="126,-499.5 126,-518.5 240,-518.5 240,-499.5 126,-499.5"/>
<text text-anchor="middle" x="183" y="-506.5" font-family="Helvetica,sans-Serif" font-size="10.00" fill="#000000">JS_ReadObjectAtoms</text>
</a>
</g>
</g>
<!-- Node83421&#45;&gt;Node84059 -->
<g id="edge32" class="edge">
<title>Node83421&#45;&gt;Node84059</title>
<path fill="none" stroke="#191970" d="M100.2118,-520.3984C108.574,-519.2471 117.2178,-518.057 125.6246,-516.8995"/>
<polygon fill="#191970" stroke="#191970" points="99.6155,-516.9474 90.1864,-521.7787 100.5703,-523.882 99.6155,-516.9474"/>
</g>
<!-- Node83999 -->
<g id="node29" class="node">
<title>Node83999</title>
<g id="a_node29"><a xlink:href="quickjs_8c.html#a859d5c989a2aaecef1653b3ac279e108" target="_top" xlink:title="JS_ValueToAtom">
<polygon fill="none" stroke="#ff0000" points="136.5,-461.5 136.5,-480.5 229.5,-480.5 229.5,-461.5 136.5,-461.5"/>
<text text-anchor="middle" x="183" y="-468.5" font-family="Helvetica,sans-Serif" font-size="10.00" fill="#000000">JS_ValueToAtom</text>
</a>
</g>
</g>
<!-- Node83421&#45;&gt;Node83999 -->
<g id="edge34" class="edge">
<title>Node83421&#45;&gt;Node83999</title>
<path fill="none" stroke="#191970" d="M72.7425,-514.0011C88.2209,-506.4413 107.9634,-497.2083 126,-490 134.427,-486.6322 143.7095,-483.359 152.2926,-480.5052"/>
<polygon fill="#191970" stroke="#191970" points="71.128,-510.8948 63.7094,-518.4589 74.2258,-517.1721 71.128,-510.8948"/>
</g>
<!-- Node83423 -->
<g id="node3" class="node">
<title>Node83423</title>
<g id="a_node3"><a xlink:href="quickjs_8c.html#a035daca514f14aacc1e0cff81d8e423a" target="_top" xlink:title="js_parse_template">
<polygon fill="none" stroke="#000000" points="587,-575.5 587,-594.5 683,-594.5 683,-575.5 587,-575.5"/>
<text text-anchor="middle" x="635" y="-582.5" font-family="Helvetica,sans-Serif" font-size="10.00" fill="#000000">js_parse_template</text>
</a>
</g>
</g>
<!-- Node83422&#45;&gt;Node83423 -->
<g id="edge2" class="edge">
<title>Node83422&#45;&gt;Node83423</title>
<path fill="none" stroke="#191970" d="M532.3646,-629.5285C538.7065,-627.5464 545.0537,-625.3619 551,-623 567.8138,-616.3214 570.5648,-611.5627 587,-604 594.1648,-600.7031 602.0757,-597.4277 609.3731,-594.5486"/>
<polygon fill="#191970" stroke="#191970" points="531.0493,-626.2681 522.4616,-632.473 533.0444,-632.9777 531.0493,-626.2681"/>
</g>
<!-- Node83424 -->
<g id="node4" class="node">
<title>Node83424</title>
<g id="a_node4"><a xlink:href="quickjs_8c.html#acdcc62310b4f6f73fa7bc7267b18b1d4" target="_top" xlink:title="js_parse_postfix_expr">
<polygon fill="none" stroke="#ff0000" points="719,-575.5 719,-594.5 831,-594.5 831,-575.5 719,-575.5"/>
<text text-anchor="middle" x="775" y="-582.5" font-family="Helvetica,sans-Serif" font-size="10.00" fill="#000000">js_parse_postfix_expr</text>
</a>
</g>
</g>
<!-- Node83422&#45;&gt;Node83424 -->
<g id="edge5" class="edge">
<title>Node83422&#45;&gt;Node83424</title>
<path fill="none" stroke="#191970" d="M538.1133,-650.0539C578.9951,-654.054 635.4705,-655.5306 683,-642 715.5284,-632.7399 747.7971,-608.3219 764.0898,-594.6398"/>
<polygon fill="#191970" stroke="#191970" points="538.3836,-646.563 528.0706,-648.9901 537.6462,-653.5241 538.3836,-646.563"/>
</g>
<!-- Node83446 -->
<g id="node5" class="node">
<title>Node83446</title>
<g id="a_node5"><a xlink:href="quickjs_8c.html#a2ecfb6abb190101748202a8aa5821fba" target="_top" xlink:title="js_parse_delete">
<polygon fill="none" stroke="#ff0000" points="592.5,-613.5 592.5,-632.5 677.5,-632.5 677.5,-613.5 592.5,-613.5"/>
<text text-anchor="middle" x="635" y="-620.5" font-family="Helvetica,sans-Serif" font-size="10.00" fill="#000000">js_parse_delete</text>
</a>
</g>
</g>
<!-- Node83422&#45;&gt;Node83446 -->
<g id="edge6" class="edge">
<title>Node83422&#45;&gt;Node83446</title>
<path fill="none" stroke="#191970" d="M538.5211,-635.0203C556.3233,-632.8023 575.7112,-630.3868 592.4062,-628.3068"/>
<polygon fill="#191970" stroke="#191970" points="537.7456,-631.5898 528.255,-636.2994 538.6111,-638.5361 537.7456,-631.5898"/>
</g>
<!-- Node83423&#45;&gt;Node83424 -->
<g id="edge3" class="edge">
<title>Node83423&#45;&gt;Node83424</title>
<path fill="none" stroke="#191970" d="M693.2384,-585C701.6057,-585 710.2037,-585 718.5358,-585"/>
<polygon fill="#191970" stroke="#191970" points="693.1801,-581.5001 683.1801,-585 693.18,-588.5001 693.1801,-581.5001"/>
</g>
<!-- Node83424&#45;&gt;Node83424 -->
<g id="edge4" class="edge">
<title>Node83424&#45;&gt;Node83424</title>
<path fill="none" stroke="#191970" d="M748.9584,-604.0292C750.3789,-609.128 759.0594,-613 775,-613 799.8828,-613 807.0755,-603.5653 796.5781,-594.7571"/>
<polygon fill="#191970" stroke="#191970" points="752.238,-605.2855 753.4219,-594.7571 745.9308,-602.2493 752.238,-605.2855"/>
</g>
<!-- Node83458 -->
<g id="node7" class="node">
<title>Node83458</title>
<g id="a_node7"><a xlink:href="quickjs_8c.html#aa2ef5af1544a3012f91a80c98c326b8f" target="_top" xlink:title="JS_NewAtom">
<polygon fill="none" stroke="#000000" points="288.5,-297.5 288.5,-316.5 365.5,-316.5 365.5,-297.5 288.5,-297.5"/>
<text text-anchor="middle" x="327" y="-304.5" font-family="Helvetica,sans-Serif" font-size="10.00" fill="#000000">JS_NewAtom</text>
</a>
</g>
</g>
<!-- Node83457&#45;&gt;Node83458 -->
<g id="edge8" class="edge">
<title>Node83457&#45;&gt;Node83458</title>
<path fill="none" stroke="#191970" d="M234.6514,-532.3431C236.5448,-531.0185 238.3394,-529.5744 240,-528 304.9333,-466.4375 322.2957,-350.4495 326.0788,-316.5382"/>
<polygon fill="#191970" stroke="#191970" points="232.75,-529.399 225.8262,-537.4184 236.2398,-535.4671 232.75,-529.399"/>
</g>
<!-- Node83830 -->
<g id="node22" class="node">
<title>Node83830</title>
<g id="a_node22"><a xlink:href="quickjs_8c.html#aadfd9c31a6f69160c12e99b8d5eb5b3c" target="_top" xlink:title="js_atom_concat_str">
<polygon fill="none" stroke="#ff0000" points="276,-594.5 276,-613.5 378,-613.5 378,-594.5 276,-594.5"/>
<text text-anchor="middle" x="327" y="-601.5" font-family="Helvetica,sans-Serif" font-size="10.00" fill="#000000">js_atom_concat_str</text>
</a>
</g>
</g>
<!-- Node83457&#45;&gt;Node83830 -->
<g id="edge24" class="edge">
<title>Node83457&#45;&gt;Node83830</title>
<path fill="none" stroke="#191970" d="M215.2341,-560.4605C233.0876,-567.8428 255.7115,-577.078 276,-585 284.0974,-588.1617 292.9614,-591.5048 300.9953,-594.4906"/>
<polygon fill="#191970" stroke="#191970" points="216.4294,-557.1673 205.8514,-556.57 213.7482,-563.6334 216.4294,-557.1673"/>
</g>
<!-- Node84047 -->
<g id="node23" class="node">
<title>Node84047</title>
<g id="a_node23"><a xlink:href="quickjs_8c.html#ad91865d0889d1420e3e70d5d497a9bdb" target="_top" xlink:title="parse_ident">
<polygon fill="none" stroke="#000000" points="293.5,-518.5 293.5,-537.5 360.5,-537.5 360.5,-518.5 293.5,-518.5"/>
<text text-anchor="middle" x="327" y="-525.5" font-family="Helvetica,sans-Serif" font-size="10.00" fill="#000000">parse_ident</text>
</a>
</g>
</g>
<!-- Node83457&#45;&gt;Node84047 -->
<g id="edge25" class="edge">
<title>Node83457&#45;&gt;Node84047</title>
<path fill="none" stroke="#191970" d="M239.9077,-539.4913C257.9699,-537.1081 277.3589,-534.5499 293.2469,-532.4535"/>
<polygon fill="#191970" stroke="#191970" points="239.2089,-536.0531 229.7527,-540.8312 240.1246,-542.993 239.2089,-536.0531"/>
</g>
<!-- Node84056 -->
<g id="node25" class="node">
<title>Node84056</title>
<g id="a_node25"><a xlink:href="quickjs_8c.html#adab89942b11c3b3cbf3ecb9e763b0ab6" target="_top" xlink:title="json_parse_ident">
<polygon fill="none" stroke="#000000" points="282,-556.5 282,-575.5 372,-575.5 372,-556.5 282,-556.5"/>
<text text-anchor="middle" x="327" y="-563.5" font-family="Helvetica,sans-Serif" font-size="10.00" fill="#000000">json_parse_ident</text>
</a>
</g>
</g>
<!-- Node83457&#45;&gt;Node84056 -->
<g id="edge30" class="edge">
<title>Node83457&#45;&gt;Node84056</title>
<path fill="none" stroke="#191970" d="M239.7757,-554.4912C253.7804,-556.3391 268.5903,-558.2932 281.9528,-560.0563"/>
<polygon fill="#191970" stroke="#191970" points="240.1246,-551.007 229.7527,-553.1688 239.2089,-557.9469 240.1246,-551.007"/>
</g>
<!-- Node83459 -->
<g id="node8" class="node">
<title>Node83459</title>
<g id="a_node8"><a xlink:href="classqjs_1_1Value.html#ac6bbb5f2ab1ed265b2b508325807e2fb" target="_top" xlink:title="qjs::Value::add_getter\l_setter">
<polygon fill="none" stroke="#000000" points="426.5,-229 426.5,-259 538.5,-259 538.5,-229 426.5,-229"/>
<text text-anchor="start" x="434.5" y="-247" font-family="Helvetica,sans-Serif" font-size="10.00" fill="#000000">qjs::Value::add_getter</text>
<text text-anchor="middle" x="482.5" y="-236" font-family="Helvetica,sans-Serif" font-size="10.00" fill="#000000">_setter</text>
</a>
</g>
</g>
<!-- Node83458&#45;&gt;Node83459 -->
<g id="edge9" class="edge">
<title>Node83458&#45;&gt;Node83459</title>
<path fill="none" stroke="#191970" d="M364.0941,-293.8224C368.8123,-291.9588 373.5456,-289.9952 378,-288 394.511,-280.6044 397.4644,-276.3404 414,-269 421.7524,-265.5586 430.139,-262.2061 438.2967,-259.1318"/>
<polygon fill="#191970" stroke="#191970" points="362.6127,-290.6417 354.5245,-297.485 365.1149,-297.1792 362.6127,-290.6417"/>
</g>
<!-- Node83460 -->
<g id="node9" class="node">
<title>Node83460</title>
<g id="a_node9"><a xlink:href="classqjs_1_1Value.html#a7816587475ecf667433f9ea681df925b" target="_top" xlink:title="qjs::Value::add_getter">
<polygon fill="none" stroke="#000000" points="426.5,-190.5 426.5,-209.5 538.5,-209.5 538.5,-190.5 426.5,-190.5"/>
<text text-anchor="middle" x="482.5" y="-197.5" font-family="Helvetica,sans-Serif" font-size="10.00" fill="#000000">qjs::Value::add_getter</text>
</a>
</g>
</g>
<!-- Node83458&#45;&gt;Node83460 -->
<g id="edge10" class="edge">
<title>Node83458&#45;&gt;Node83460</title>
<path fill="none" stroke="#191970" d="M371.7964,-292.6622C373.992,-291.2464 376.0787,-289.6962 378,-288 403.9301,-265.1073 387.1092,-240.7562 414,-219 418.7972,-215.1188 424.3336,-212.0289 430.1374,-209.5692"/>
<polygon fill="#191970" stroke="#191970" points="370.0301,-289.6386 362.9088,-297.4832 373.3677,-295.7916 370.0301,-289.6386"/>
</g>
<!-- Node83461 -->
<g id="node10" class="node">
<title>Node83461</title>
<g id="a_node10"><a xlink:href="quickjs_8c.html#a27c3a725d4014a35b5bedcdf6e70dec7" target="_top" xlink:title="JS_NewAtomString">
<polygon fill="none" stroke="#ff0000" points="431,-152.5 431,-171.5 534,-171.5 534,-152.5 431,-152.5"/>
<text text-anchor="middle" x="482.5" y="-159.5" font-family="Helvetica,sans-Serif" font-size="10.00" fill="#000000">JS_NewAtomString</text>
</a>
</g>
</g>
<!-- Node83458&#45;&gt;Node83461 -->
<g id="edge11" class="edge">
<title>Node83458&#45;&gt;Node83461</title>
<path fill="none" stroke="#191970" d="M373.4521,-292.0312C375.069,-290.7918 376.595,-289.4508 378,-288 412.9057,-251.9566 377.5764,-215.5087 414,-181 418.8379,-176.4165 424.6826,-172.9213 430.8942,-170.2591"/>
<polygon fill="#191970" stroke="#191970" points="371.4087,-289.1799 364.7488,-297.4198 375.0935,-295.1315 371.4087,-289.1799"/>
</g>
<!-- Node83464 -->
<g id="node11" class="node">
<title>Node83464</title>
<g id="a_node11"><a xlink:href="quickjs_8c.html#a21cfe4c4fc9372dc0b95b37667cff0c9" target="_top" xlink:title="JS_NewCFunction3">
<polygon fill="none" stroke="#ff0000" points="430.5,-114.5 430.5,-133.5 534.5,-133.5 534.5,-114.5 430.5,-114.5"/>
<text text-anchor="middle" x="482.5" y="-121.5" font-family="Helvetica,sans-Serif" font-size="10.00" fill="#000000">JS_NewCFunction3</text>
</a>
</g>
</g>
<!-- Node83458&#45;&gt;Node83464 -->
<g id="edge12" class="edge">
<title>Node83458&#45;&gt;Node83464</title>
<path fill="none" stroke="#191970" d="M374.1453,-291.7248C375.5183,-290.5721 376.8104,-289.3326 378,-288 422.2197,-238.4651 367.6907,-190.5871 414,-143 418.5618,-138.3124 424.1707,-134.7513 430.1977,-132.0513"/>
<polygon fill="#191970" stroke="#191970" points="371.9497,-288.9811 365.549,-297.4239 375.8177,-294.8154 371.9497,-288.9811"/>
</g>
<!-- Node83482 -->
<g id="node12" class="node">
<title>Node83482</title>
<g id="a_node12"><a xlink:href="quickjs_8c.html#a04f589361a4fbc30d997402e92a50de2" target="_top" xlink:title="JS_GetPropertyStr">
<polygon fill="none" stroke="#ff0000" points="433,-76.5 433,-95.5 532,-95.5 532,-76.5 433,-76.5"/>
<text text-anchor="middle" x="482.5" y="-83.5" font-family="Helvetica,sans-Serif" font-size="10.00" fill="#000000">JS_GetPropertyStr</text>
</a>
</g>
</g>
<!-- Node83458&#45;&gt;Node83482 -->
<g id="edge13" class="edge">
<title>Node83458&#45;&gt;Node83482</title>
<path fill="none" stroke="#191970" d="M374.2305,-291.7989C375.5795,-290.6254 376.8434,-289.3614 378,-288 431.6669,-224.8259 357.6655,-165.8074 414,-105 419.1163,-99.4775 425.6836,-95.508 432.72,-92.6651"/>
<polygon fill="#191970" stroke="#191970" points="372.0298,-289.0627 365.7269,-297.5789 375.9648,-294.852 372.0298,-289.0627"/>
</g>
<!-- Node83499 -->
<g id="node13" class="node">
<title>Node83499</title>
<g id="a_node13"><a xlink:href="quickjs_8c.html#a62617fe11025d2e5a545db069fc28e64" target="_top" xlink:title="JS_SetPropertyStr">
<polygon fill="none" stroke="#ff0000" points="433.5,-38.5 433.5,-57.5 531.5,-57.5 531.5,-38.5 433.5,-38.5"/>
<text text-anchor="middle" x="482.5" y="-45.5" font-family="Helvetica,sans-Serif" font-size="10.00" fill="#000000">JS_SetPropertyStr</text>
</a>
</g>
</g>
<!-- Node83458&#45;&gt;Node83499 -->
<g id="edge14" class="edge">
<title>Node83458&#45;&gt;Node83499</title>
<path fill="none" stroke="#191970" d="M374.2155,-291.9119C375.5758,-290.7067 376.8453,-289.4053 378,-288 441.1792,-211.1105 347.5721,-141.1009 414,-67 419.1899,-61.2106 425.9739,-57.1201 433.2531,-54.2427"/>
<polygon fill="#191970" stroke="#191970" points="371.8684,-289.2771 365.5955,-297.8154 375.8238,-295.0525 371.8684,-289.2771"/>
</g>
<!-- Node83506 -->
<g id="node14" class="node">
<title>Node83506</title>
<g id="a_node14"><a xlink:href="quickjs_8c.html#a841f4cb887e4d9e03e94a0697255e578" target="_top" xlink:title="JS_DefinePropertyValueStr">
<polygon fill="none" stroke="#ff0000" points="414,-.5 414,-19.5 551,-19.5 551,-.5 414,-.5"/>
<text text-anchor="middle" x="482.5" y="-7.5" font-family="Helvetica,sans-Serif" font-size="10.00" fill="#000000">JS_DefinePropertyValueStr</text>
</a>
</g>
</g>
<!-- Node83458&#45;&gt;Node83506 -->
<g id="edge15" class="edge">
<title>Node83458&#45;&gt;Node83506</title>
<path fill="none" stroke="#191970" d="M374.2578,-291.9462C375.6064,-290.7315 376.8618,-289.4187 378,-288 450.7279,-197.3511 337.4405,-116.4369 414,-29 417.3333,-25.1931 421.3559,-22.1183 425.7616,-19.6387"/>
<polygon fill="#191970" stroke="#191970" points="371.9101,-289.3148 365.6834,-297.8868 375.8966,-295.0688 371.9101,-289.3148"/>
</g>
<!-- Node83520 -->
<g id="node15" class="node">
<title>Node83520</title>
<g id="a_node15"><a xlink:href="quickjs_8c.html#ac29cc4ec49efa0f0308e494316ce5139" target="_top" xlink:title="JS_NewCModule">
<polygon fill="none" stroke="#ff0000" points="436,-518.5 436,-537.5 529,-537.5 529,-518.5 436,-518.5"/>
<text text-anchor="middle" x="482.5" y="-525.5" font-family="Helvetica,sans-Serif" font-size="10.00" fill="#000000">JS_NewCModule</text>
</a>
</g>
</g>
<!-- Node83458&#45;&gt;Node83520 -->
<g id="edge16" class="edge">
<title>Node83458&#45;&gt;Node83520</title>
<path fill="none" stroke="#191970" d="M329.7493,-326.6558C336.4543,-367.0362 357.4531,-459.6698 414,-509 420.2309,-514.4357 427.8924,-518.3276 435.8088,-521.1115"/>
<polygon fill="#191970" stroke="#191970" points="333.2022,-326.0815 328.2195,-316.7314 326.2839,-327.1479 333.2022,-326.0815"/>
</g>
<!-- Node83523 -->
<g id="node16" class="node">
<title>Node83523</title>
<g id="a_node16"><a xlink:href="quickjs_8c.html#a369af749a1fb181216fe8a8b55f841b0" target="_top" xlink:title="JS_AddModuleExport">
<polygon fill="none" stroke="#ff0000" points="427,-480.5 427,-499.5 538,-499.5 538,-480.5 427,-480.5"/>
<text text-anchor="middle" x="482.5" y="-487.5" font-family="Helvetica,sans-Serif" font-size="10.00" fill="#000000">JS_AddModuleExport</text>
</a>
</g>
</g>
<!-- Node83458&#45;&gt;Node83523 -->
<g id="edge17" class="edge">
<title>Node83458&#45;&gt;Node83523</title>
<path fill="none" stroke="#191970" d="M331.9244,-326.7104C341.5938,-361.2689 366.3882,-432.7485 414,-471 418.8105,-474.8648 424.355,-477.9447 430.1632,-480.3988"/>
<polygon fill="#191970" stroke="#191970" points="335.2613,-325.6396 329.3066,-316.8764 328.4968,-327.4402 335.2613,-325.6396"/>
</g>
<!-- Node83526 -->
<g id="node17" class="node">
<title>Node83526</title>
<g id="a_node17"><a xlink:href="quickjs_8c.html#acc3990661d2851b858601061a62cc7d6" target="_top" xlink:title="JS_SetModuleExport">
<polygon fill="none" stroke="#ff0000" points="428,-442.5 428,-461.5 537,-461.5 537,-442.5 428,-442.5"/>
<text text-anchor="middle" x="482.5" y="-449.5" font-family="Helvetica,sans-Serif" font-size="10.00" fill="#000000">JS_SetModuleExport</text>
</a>
</g>
</g>
<!-- Node83458&#45;&gt;Node83526 -->
<g id="edge18" class="edge">
<title>Node83458&#45;&gt;Node83526</title>
<path fill="none" stroke="#191970" d="M334.9554,-325.9738C347.573,-353.7286 374.8228,-405.1179 414,-433 419.4296,-436.8642 425.6165,-439.9436 431.9996,-442.3974"/>
<polygon fill="#191970" stroke="#191970" points="338.0629,-324.3448 330.8417,-316.5921 331.6521,-327.1559 338.0629,-324.3448"/>
</g>
<!-- Node83529 -->
<g id="node18" class="node">
<title>Node83529</title>
<g id="a_node18"><a xlink:href="quickjs_8c.html#a90dd988b99a5bc7b2a4aaffd2de405a9" target="_top" xlink:title="js_host_resolve_imported\l_module">
<polygon fill="none" stroke="#ff0000" points="418.5,-393 418.5,-423 546.5,-423 546.5,-393 418.5,-393"/>
<text text-anchor="start" x="426.5" y="-411" font-family="Helvetica,sans-Serif" font-size="10.00" fill="#000000">js_host_resolve_imported</text>
<text text-anchor="middle" x="482.5" y="-400" font-family="Helvetica,sans-Serif" font-size="10.00" fill="#000000">_module</text>
</a>
</g>
</g>
<!-- Node83458&#45;&gt;Node83529 -->
<g id="edge19" class="edge">
<title>Node83458&#45;&gt;Node83529</title>
<path fill="none" stroke="#191970" d="M342.9225,-324.2063C359.3521,-341.1134 386.4051,-366.6838 414,-383 420.3204,-386.7371 427.293,-390.0641 434.2979,-392.975"/>
<polygon fill="#191970" stroke="#191970" points="345.186,-321.508 335.7546,-316.6809 340.1173,-326.3359 345.186,-321.508"/>
</g>
<!-- Node84042 -->
<g id="node19" class="node">
<title>Node84042</title>
<g id="a_node19"><a xlink:href="quickjs_8c.html#a8020fd59ed57f7f299216ec1ebfcda01" target="_top" xlink:title="js_new_function_def">
<polygon fill="none" stroke="#ff0000" points="429.5,-354.5 429.5,-373.5 535.5,-373.5 535.5,-354.5 429.5,-354.5"/>
<text text-anchor="middle" x="482.5" y="-361.5" font-family="Helvetica,sans-Serif" font-size="10.00" fill="#000000">js_new_function_def</text>
</a>
</g>
</g>
<!-- Node83458&#45;&gt;Node84042 -->
<g id="edge20" class="edge">
<title>Node83458&#45;&gt;Node84042</title>
<path fill="none" stroke="#191970" d="M361.1753,-320.1939C377.1818,-326.3141 396.5309,-333.6278 414,-340 427.3771,-344.8796 442.2913,-350.1276 454.7791,-354.468"/>
<polygon fill="#191970" stroke="#191970" points="362.278,-316.8682 351.6877,-316.5565 359.7721,-323.4044 362.278,-316.8682"/>
</g>
<!-- Node83437 -->
<g id="node20" class="node">
<title>Node83437</title>
<g id="a_node20"><a xlink:href="quickjs_8c.html#a46a8a7e155cfd0af984f6725f060f0d6" target="_top" xlink:title="__JS_EvalInternal">
<polygon fill="none" stroke="#ff0000" points="587,-335.5 587,-354.5 683,-354.5 683,-335.5 587,-335.5"/>
<text text-anchor="middle" x="635" y="-342.5" font-family="Helvetica,sans-Serif" font-size="10.00" fill="#000000">__JS_EvalInternal</text>
</a>
</g>
</g>
<!-- Node83458&#45;&gt;Node83437 -->
<g id="edge22" class="edge">
<title>Node83458&#45;&gt;Node83437</title>
<path fill="none" stroke="#191970" d="M375.6807,-313.0061C433.4831,-320.1375 529.2845,-331.9572 586.8522,-339.0597"/>
<polygon fill="#191970" stroke="#191970" points="376.0499,-309.5252 365.6965,-311.7742 375.1927,-316.4725 376.0499,-309.5252"/>
</g>
<!-- Node84046 -->
<g id="node21" class="node">
<title>Node84046</title>
<g id="a_node21"><a xlink:href="quickjs_8c.html#ae8e62d181b34d2e7bdda0b099c0880f5" target="_top" xlink:title="find_atom">
<polygon fill="none" stroke="#ff0000" points="453,-278.5 453,-297.5 512,-297.5 512,-278.5 453,-278.5"/>
<text text-anchor="middle" x="482.5" y="-285.5" font-family="Helvetica,sans-Serif" font-size="10.00" fill="#000000">find_atom</text>
</a>
</g>
</g>
<!-- Node83458&#45;&gt;Node84046 -->
<g id="edge23" class="edge">
<title>Node83458&#45;&gt;Node84046</title>
<path fill="none" stroke="#191970" d="M375.9787,-301.0155C401.245,-297.9283 431.2306,-294.2644 452.9401,-291.6118"/>
<polygon fill="#191970" stroke="#191970" points="375.3397,-297.5674 365.8381,-302.2545 376.1888,-304.5157 375.3397,-297.5674"/>
</g>
<!-- Node84042&#45;&gt;Node83437 -->
<g id="edge21" class="edge">
<title>Node84042&#45;&gt;Node83437</title>
<path fill="none" stroke="#191970" d="M546.1061,-356.0753C559.7147,-354.3798 573.8761,-352.6154 586.7906,-351.0064"/>
<polygon fill="#191970" stroke="#191970" points="545.3276,-352.6451 535.8371,-357.3547 546.1931,-359.5914 545.3276,-352.6451"/>
</g>
<!-- Node84048 -->
<g id="node24" class="node">
<title>Node84048</title>
<g id="a_node24"><a xlink:href="quickjs_8c.html#a75a3798e2045f6e403c1ef467126d1fb" target="_top" xlink:title="next_token">
<polygon fill="none" stroke="#ff0000" points="450,-556.5 450,-575.5 515,-575.5 515,-556.5 450,-556.5"/>
<text text-anchor="middle" x="482.5" y="-563.5" font-family="Helvetica,sans-Serif" font-size="10.00" fill="#000000">next_token</text>
</a>
</g>
</g>
<!-- Node84047&#45;&gt;Node84048 -->
<g id="edge26" class="edge">
<title>Node84047&#45;&gt;Node84048</title>
<path fill="none" stroke="#191970" d="M370.7552,-538.6926C395.8836,-544.8333 426.9111,-552.4156 449.8903,-558.0311"/>
<polygon fill="#191970" stroke="#191970" points="371.2862,-535.2194 360.7412,-536.2454 369.6245,-542.0193 371.2862,-535.2194"/>
</g>
<!-- Node84048&#45;&gt;Node83423 -->
<g id="edge27" class="edge">
<title>Node84048&#45;&gt;Node83423</title>
<path fill="none" stroke="#191970" d="M525.1946,-571.3193C544.4123,-573.7137 567.1822,-576.5506 586.9909,-579.0185"/>
<polygon fill="#191970" stroke="#191970" points="525.5711,-567.8393 515.2151,-570.076 524.7056,-574.7856 525.5711,-567.8393"/>
</g>
<!-- Node84048&#45;&gt;Node83424 -->
<g id="edge28" class="edge">
<title>Node84048&#45;&gt;Node83424</title>
<path fill="none" stroke="#191970" d="M525.3492,-563.4864C566.0324,-561.6935 628.8453,-560.4663 683,-566 701.1718,-567.8568 721.0526,-571.7257 737.6689,-575.4906"/>
<polygon fill="#191970" stroke="#191970" points="525.072,-559.9955 515.2483,-563.9634 525.4023,-566.9877 525.072,-559.9955"/>
</g>
<!-- Node84048&#45;&gt;Node83446 -->
<g id="edge29" class="edge">
<title>Node84048&#45;&gt;Node83446</title>
<path fill="none" stroke="#191970" d="M524.7557,-576.1839C533.5457,-578.7283 542.6666,-581.6899 551,-585 567.8138,-591.6786 570.5648,-596.4373 587,-604 594.1648,-607.2969 602.0757,-610.5723 609.3731,-613.4514"/>
<polygon fill="#191970" stroke="#191970" points="525.603,-572.7869 515.0316,-573.4922 523.7355,-579.5332 525.603,-572.7869"/>
</g>
<!-- Node84057 -->
<g id="node26" class="node">
<title>Node84057</title>
<g id="a_node26"><a xlink:href="quickjs_8c.html#a7fbd31397bde22dfa2b876b945f9afb4" target="_top" xlink:title="json_next_token">
<polygon fill="none" stroke="#ff0000" points="438.5,-594.5 438.5,-613.5 526.5,-613.5 526.5,-594.5 438.5,-594.5"/>
<text text-anchor="middle" x="482.5" y="-601.5" font-family="Helvetica,sans-Serif" font-size="10.00" fill="#000000">json_next_token</text>
</a>
</g>
</g>
<!-- Node84056&#45;&gt;Node84057 -->
<g id="edge31" class="edge">
<title>Node84056&#45;&gt;Node84057</title>
<path fill="none" stroke="#191970" d="M375.9742,-577.968C397.7652,-583.2931 423.0672,-589.4762 443.543,-594.4799"/>
<polygon fill="#191970" stroke="#191970" points="376.7843,-574.563 366.2392,-575.589 375.1225,-581.3629 376.7843,-574.563"/>
</g>
<!-- Node83571 -->
<g id="node28" class="node">
<title>Node83571</title>
<g id="a_node28"><a xlink:href="quickjs_8c.html#a12be2ea9c010752715072489497594e9" target="_top" xlink:title="JS_ReadObject">
<polygon fill="none" stroke="#ff0000" points="284,-259.5 284,-278.5 370,-278.5 370,-259.5 284,-259.5"/>
<text text-anchor="middle" x="327" y="-266.5" font-family="Helvetica,sans-Serif" font-size="10.00" fill="#000000">JS_ReadObject</text>
</a>
</g>
</g>
<!-- Node84059&#45;&gt;Node83571 -->
<g id="edge33" class="edge">
<title>Node84059&#45;&gt;Node83571</title>
<path fill="none" stroke="#191970" d="M236.2842,-493.7164C237.6067,-492.566 238.8511,-491.3293 240,-490 299.6292,-421.0043 217.5827,-358.0248 276,-288 279.2685,-284.0821 283.4273,-280.9716 287.9554,-278.5023"/>
<polygon fill="#191970" stroke="#191970" points="234.25,-490.8674 227.979,-499.4071 238.2067,-496.6419 234.25,-490.8674"/>
</g>
</g>
</svg>
        <g id="navigator" transform="translate(0 0)" fill="#404254">
                <rect fill="#f2f5e9" fill-opacity="0.5" stroke="#606060" stroke-width=".5" x="0" y="0" width="60" height="60"/>
                <use id="zoomplus" xlink:href="#zoomPlus" x="17" y="9" onmousedown="handleZoom(evt,'in')"/>
                <use id="zoomminus" xlink:href="#zoomMin" x="42" y="9" onmousedown="handleZoom(evt,'out')"/>
                <use id="reset" xlink:href="#resetDef" x="30" y="36" onmousedown="handleReset()"/>
                <g id="arrowUp" xlink:href="#dirArrow" transform="translate(30 24)" onmousedown="handlePan(0,-1)">
                  <use xlink:href="#rim" fill="#404040">
                        <set attributeName="fill" to="#808080" begin="arrowUp.mouseover" end="arrowUp.mouseout"/>
                  </use>
                  <path fill="none" stroke="white" stroke-width="1.5" d="M0,-3.0v7 M-2.5,-0.5L0,-3.0L2.5,-0.5"/>
                </g>
                <g id="arrowRight" xlink:href="#dirArrow" transform="rotate(90) translate(36 -43)" onmousedown="handlePan(1,0)">
                  <use xlink:href="#rim" fill="#404040">
                        <set attributeName="fill" to="#808080" begin="arrowRight.mouseover" end="arrowRight.mouseout"/>
                  </use>
                  <path fill="none" stroke="white" stroke-width="1.5" d="M0,-3.0v7 M-2.5,-0.5L0,-3.0L2.5,-0.5"/>
                </g>
                <g id="arrowDown" xlink:href="#dirArrow" transform="rotate(180) translate(-30 -48)" onmousedown="handlePan(0,1)">
                  <use xlink:href="#rim" fill="#404040">
                        <set attributeName="fill" to="#808080" begin="arrowDown.mouseover" end="arrowDown.mouseout"/>
                  </use>
                  <path fill="none" stroke="white" stroke-width="1.5" d="M0,-3.0v7 M-2.5,-0.5L0,-3.0L2.5,-0.5"/>
                </g>
                <g id="arrowLeft" xlink:href="#dirArrow" transform="rotate(270) translate(-36 17)" onmousedown="handlePan(-1,0)">
                  <use xlink:href="#rim" fill="#404040">
                        <set attributeName="fill" to="#808080" begin="arrowLeft.mouseover" end="arrowLeft.mouseout"/>
                  </use>
                  <path fill="none" stroke="white" stroke-width="1.5" d="M0,-3.0v7 M-2.5,-0.5L0,-3.0L2.5,-0.5"/>
                </g>
        </g>
        <svg viewBox="0 0 15 15" width="100%" height="30px" preserveAspectRatio="xMaxYMin meet">
         <g id="arrow_out" transform="scale(0.3 0.3)">
          <a xlink:href="quickjs_8c_a33fd643aff7f70e649d246385cd99b00_icgraph_org.svg" target="_base">
           <rect id="button" ry="5" rx="5" y="6" x="6" height="38" width="38"
                fill="#f2f5e9" fill-opacity="0.5" stroke="#606060" stroke-width="1.0"/>
           <path id="arrow"
             d="M 11.500037,31.436501 C 11.940474,20.09759 22.043105,11.32322 32.158766,21.979434 L 37.068811,17.246167 C 37.068811,17.246167 37.088388,32 37.088388,32 L 22.160133,31.978069 C 22.160133,31.978069 26.997745,27.140456 26.997745,27.140456 C 18.528582,18.264221 13.291696,25.230495 11.500037,31.436501 z"
             style="fill:#404040;"/>
          </a>
         </g>
        </svg>
</svg>
