<?xml version="1.0" encoding="UTF-8" standalone="no"?>
<!DOCTYPE svg PUBLIC "-//W3C//DTD SVG 1.1//EN"
 "http://www.w3.org/Graphics/SVG/1.1/DTD/svg11.dtd">
<!-- Generated by graphviz version 2.40.1 (20161225.0304)
 -->
<!-- Title: build_backtrace Pages: 1 -->
<svg width="525pt" height="484pt"
 viewBox="0.00 0.00 525.00 484.00" xmlns="http://www.w3.org/2000/svg" xmlns:xlink="http://www.w3.org/1999/xlink">
<g id="graph0" class="graph" transform="scale(1 1) rotate(0) translate(4 480)">
<title>build_backtrace</title>
<!-- Node163360 -->
<g id="node1" class="node">
<title>Node163360</title>
<polygon fill="#bfbfbf" stroke="#000000" points="0,-228.5 0,-247.5 85,-247.5 85,-228.5 0,-228.5"/>
<text text-anchor="middle" x="42.5" y="-235.5" font-family="Helvetica,sans-Serif" font-size="10.00" fill="#000000">build_backtrace</text>
</g>
<!-- Node163361 -->
<g id="node2" class="node">
<title>Node163361</title>
<g id="a_node2"><a xlink:href="cutils_8h.html#a7e3df12bda422b64b14ec2fc2f487c5f" target="_top" xlink:title="__attribute__">
<polygon fill="none" stroke="#000000" points="146.5,-456.5 146.5,-475.5 219.5,-475.5 219.5,-456.5 146.5,-456.5"/>
<text text-anchor="middle" x="183" y="-463.5" font-family="Helvetica,sans-Serif" font-size="10.00" fill="#000000">__attribute__</text>
</a>
</g>
</g>
<!-- Node163360&#45;&gt;Node163361 -->
<g id="edge1" class="edge">
<title>Node163360&#45;&gt;Node163361</title>
<path fill="none" stroke="#191970" d="M43.1825,-247.5135C46.051,-280.2917 59.9959,-389.6615 121,-447 125.4669,-451.1985 130.8387,-454.4706 136.5283,-457.0203"/>
<polygon fill="#191970" stroke="#191970" points="135.7073,-460.4496 146.2999,-460.6655 138.1539,-453.891 135.7073,-460.4496"/>
</g>
<!-- Node163362 -->
<g id="node3" class="node">
<title>Node163362</title>
<g id="a_node3"><a xlink:href="cutils_8h.html#a1fed0a329cb7bb0e04283285037921a4" target="_top" xlink:title="dbuf_error">
<polygon fill="none" stroke="#000000" points="153,-418.5 153,-437.5 213,-437.5 213,-418.5 153,-418.5"/>
<text text-anchor="middle" x="183" y="-425.5" font-family="Helvetica,sans-Serif" font-size="10.00" fill="#000000">dbuf_error</text>
</a>
</g>
</g>
<!-- Node163360&#45;&gt;Node163362 -->
<g id="edge2" class="edge">
<title>Node163360&#45;&gt;Node163362</title>
<path fill="none" stroke="#191970" d="M44.1159,-247.786C49.4369,-276.8755 69.1312,-363.6086 121,-409 127.264,-414.4817 135.0814,-418.3819 143.0325,-421.1569"/>
<polygon fill="#191970" stroke="#191970" points="142.12,-424.5368 152.702,-424.0143 144.1038,-417.8237 142.12,-424.5368"/>
</g>
<!-- Node163363 -->
<g id="node4" class="node">
<title>Node163363</title>
<g id="a_node4"><a xlink:href="cutils_8h.html#a8a3b715fc2146312b777c4e3db546b55" target="_top" xlink:title="dbuf_free">
<polygon fill="none" stroke="#000000" points="154.5,-380.5 154.5,-399.5 211.5,-399.5 211.5,-380.5 154.5,-380.5"/>
<text text-anchor="middle" x="183" y="-387.5" font-family="Helvetica,sans-Serif" font-size="10.00" fill="#000000">dbuf_free</text>
</a>
</g>
</g>
<!-- Node163360&#45;&gt;Node163363 -->
<g id="edge3" class="edge">
<title>Node163360&#45;&gt;Node163363</title>
<path fill="none" stroke="#191970" d="M45.4654,-247.6814C53.4618,-272.1573 77.8313,-336.9761 121,-371 127.8635,-376.4095 136.2652,-380.2854 144.6411,-383.0603"/>
<polygon fill="#191970" stroke="#191970" points="143.7916,-386.4576 154.3683,-385.8381 145.7138,-379.7267 143.7916,-386.4576"/>
</g>
<!-- Node163364 -->
<g id="node5" class="node">
<title>Node163364</title>
<g id="a_node5"><a xlink:href="cutils_8h.html#aeed81d4787ccdbd55baa9b5fd6717e88" target="_top" xlink:title="dbuf_putc">
<polygon fill="none" stroke="#000000" points="153.5,-342.5 153.5,-361.5 212.5,-361.5 212.5,-342.5 153.5,-342.5"/>
<text text-anchor="middle" x="183" y="-349.5" font-family="Helvetica,sans-Serif" font-size="10.00" fill="#000000">dbuf_putc</text>
</a>
</g>
</g>
<!-- Node163360&#45;&gt;Node163364 -->
<g id="edge4" class="edge">
<title>Node163360&#45;&gt;Node163364</title>
<path fill="none" stroke="#191970" d="M47.8373,-247.6646C58.9185,-266.8377 86.3045,-309.8302 121,-333 127.7803,-337.5279 135.6863,-341.0146 143.5384,-343.6867"/>
<polygon fill="#191970" stroke="#191970" points="142.7821,-347.1143 153.3669,-346.6529 144.8046,-340.4128 142.7821,-347.1143"/>
</g>
<!-- Node163367 -->
<g id="node8" class="node">
<title>Node163367</title>
<g id="a_node8"><a xlink:href="quickjs_8c.html#af139f102b1c52111bc98af4ba935bf18" target="_top" xlink:title="find_line_num">
<polygon fill="none" stroke="#000000" points="144.5,-304.5 144.5,-323.5 221.5,-323.5 221.5,-304.5 144.5,-304.5"/>
<text text-anchor="middle" x="183" y="-311.5" font-family="Helvetica,sans-Serif" font-size="10.00" fill="#000000">find_line_num</text>
</a>
</g>
</g>
<!-- Node163360&#45;&gt;Node163367 -->
<g id="edge7" class="edge">
<title>Node163360&#45;&gt;Node163367</title>
<path fill="none" stroke="#191970" d="M53.182,-247.5569C67.6266,-260.0384 94.6252,-281.8438 121,-295 125.5428,-297.266 130.409,-299.3233 135.3436,-301.175"/>
<polygon fill="#191970" stroke="#191970" points="134.2557,-304.5023 144.8505,-304.4835 136.5564,-297.8911 134.2557,-304.5023"/>
</g>
<!-- Node163370 -->
<g id="node11" class="node">
<title>Node163370</title>
<g id="a_node11"><a xlink:href="quickjs_8c.html#adb1fc78e06c842a22d4fa3bf3fb75f70" target="_top" xlink:title="get_func_name">
<polygon fill="none" stroke="#000000" points="141.5,-266.5 141.5,-285.5 224.5,-285.5 224.5,-266.5 141.5,-266.5"/>
<text text-anchor="middle" x="183" y="-273.5" font-family="Helvetica,sans-Serif" font-size="10.00" fill="#000000">get_func_name</text>
</a>
</g>
</g>
<!-- Node163360&#45;&gt;Node163370 -->
<g id="edge11" class="edge">
<title>Node163360&#45;&gt;Node163370</title>
<path fill="none" stroke="#191970" d="M77.9541,-247.589C96.0913,-252.4944 118.3684,-258.5196 137.7334,-263.7571"/>
<polygon fill="#191970" stroke="#191970" points="136.9903,-267.1818 147.5573,-266.4141 138.8179,-260.4246 136.9903,-267.1818"/>
</g>
<!-- Node163695 -->
<g id="node17" class="node">
<title>Node163695</title>
<g id="a_node17"><a xlink:href="quickjs_8c.html#a4b66ebf3abee5d29490343fbe360ec5a" target="_top" xlink:title="JS_AtomToCString">
<polygon fill="none" stroke="#ff0000" points="132.5,-228.5 132.5,-247.5 233.5,-247.5 233.5,-228.5 132.5,-228.5"/>
<text text-anchor="middle" x="183" y="-235.5" font-family="Helvetica,sans-Serif" font-size="10.00" fill="#000000">JS_AtomToCString</text>
</a>
</g>
</g>
<!-- Node163360&#45;&gt;Node163695 -->
<g id="edge17" class="edge">
<title>Node163360&#45;&gt;Node163695</title>
<path fill="none" stroke="#191970" d="M85.0359,-238C96.7093,-238 109.5986,-238 122.0871,-238"/>
<polygon fill="#191970" stroke="#191970" points="122.4477,-241.5001 132.4476,-238 122.4476,-234.5001 122.4477,-241.5001"/>
</g>
<!-- Node163540 -->
<g id="node18" class="node">
<title>Node163540</title>
<g id="a_node18"><a xlink:href="quickjs_8c.html#a76e95dd1ab1d7cb4b9407d2ad41ee119" target="_top" xlink:title="js_class_has_bytecode">
<polygon fill="none" stroke="#000000" points="123.5,-190.5 123.5,-209.5 242.5,-209.5 242.5,-190.5 123.5,-190.5"/>
<text text-anchor="middle" x="183" y="-197.5" font-family="Helvetica,sans-Serif" font-size="10.00" fill="#000000">js_class_has_bytecode</text>
</a>
</g>
</g>
<!-- Node163360&#45;&gt;Node163540 -->
<g id="edge19" class="edge">
<title>Node163360&#45;&gt;Node163540</title>
<path fill="none" stroke="#191970" d="M77.9541,-228.411C96.0913,-223.5056 118.3684,-217.4804 137.7334,-212.2429"/>
<polygon fill="#191970" stroke="#191970" points="138.8179,-215.5754 147.5573,-209.5859 136.9903,-208.8182 138.8179,-215.5754"/>
</g>
<!-- Node163787 -->
<g id="node19" class="node">
<title>Node163787</title>
<g id="a_node19"><a xlink:href="quickjs_8c.html#a85c6e39e83eab2ddb82d58e82721d06a" target="_top" xlink:title="js_dbuf_init">
<polygon fill="none" stroke="#000000" points="150,-152.5 150,-171.5 216,-171.5 216,-152.5 150,-152.5"/>
<text text-anchor="middle" x="183" y="-159.5" font-family="Helvetica,sans-Serif" font-size="10.00" fill="#000000">js_dbuf_init</text>
</a>
</g>
</g>
<!-- Node163360&#45;&gt;Node163787 -->
<g id="edge20" class="edge">
<title>Node163360&#45;&gt;Node163787</title>
<path fill="none" stroke="#191970" d="M53.182,-228.4431C67.6266,-215.9616 94.6252,-194.1562 121,-181 127.0241,-177.9951 133.6166,-175.3573 140.1835,-173.0791"/>
<polygon fill="#191970" stroke="#191970" points="141.2782,-176.4037 149.717,-169.9977 139.1252,-169.7429 141.2782,-176.4037"/>
</g>
<!-- Node163534 -->
<g id="node23" class="node">
<title>Node163534</title>
<g id="a_node23"><a xlink:href="quickjs_8c.html#a0a8765bd4012467d9139bc24aabcb3ca" target="_top" xlink:title="JS_DefinePropertyValue">
<polygon fill="none" stroke="#ff0000" points="121,-114.5 121,-133.5 245,-133.5 245,-114.5 121,-114.5"/>
<text text-anchor="middle" x="183" y="-121.5" font-family="Helvetica,sans-Serif" font-size="10.00" fill="#000000">JS_DefinePropertyValue</text>
</a>
</g>
</g>
<!-- Node163360&#45;&gt;Node163534 -->
<g id="edge24" class="edge">
<title>Node163360&#45;&gt;Node163534</title>
<path fill="none" stroke="#191970" d="M47.8373,-228.3354C58.9185,-209.1623 86.3045,-166.1698 121,-143 124.0837,-140.9407 127.4002,-139.0968 130.8386,-137.4469"/>
<polygon fill="#191970" stroke="#191970" points="132.2962,-140.6307 140.1487,-133.5182 129.5747,-134.1814 132.2962,-140.6307"/>
</g>
<!-- Node163484 -->
<g id="node24" class="node">
<title>Node163484</title>
<g id="a_node24"><a xlink:href="quickjs_8c.html#ae0bc4f65da64810facb2cb9e476eda2e" target="_top" xlink:title="JS_FreeCString">
<polygon fill="none" stroke="#ff0000" points="140,-76.5 140,-95.5 226,-95.5 226,-76.5 140,-76.5"/>
<text text-anchor="middle" x="183" y="-83.5" font-family="Helvetica,sans-Serif" font-size="10.00" fill="#000000">JS_FreeCString</text>
</a>
</g>
</g>
<!-- Node163360&#45;&gt;Node163484 -->
<g id="edge25" class="edge">
<title>Node163360&#45;&gt;Node163484</title>
<path fill="none" stroke="#191970" d="M45.4654,-228.3186C53.4618,-203.8427 77.8313,-139.0239 121,-105 123.9593,-102.6676 127.2045,-100.6204 130.6103,-98.8235"/>
<polygon fill="#191970" stroke="#191970" points="132.2371,-101.9294 139.9146,-94.6282 129.3598,-95.5481 132.2371,-101.9294"/>
</g>
<!-- Node163447 -->
<g id="node25" class="node">
<title>Node163447</title>
<g id="a_node25"><a xlink:href="quickjs_8h.html#a2050bc428da1c65ac7eb87c3fa3b0392" target="_top" xlink:title="JS_NewInt32">
<polygon fill="none" stroke="#000000" points="145,-38.5 145,-57.5 221,-57.5 221,-38.5 145,-38.5"/>
<text text-anchor="middle" x="183" y="-45.5" font-family="Helvetica,sans-Serif" font-size="10.00" fill="#000000">JS_NewInt32</text>
</a>
</g>
</g>
<!-- Node163360&#45;&gt;Node163447 -->
<g id="edge26" class="edge">
<title>Node163360&#45;&gt;Node163447</title>
<path fill="none" stroke="#191970" d="M44.1159,-228.214C49.4369,-199.1245 69.1312,-112.3914 121,-67 125.236,-63.293 130.1824,-60.3092 135.4002,-57.9076"/>
<polygon fill="#191970" stroke="#191970" points="136.9358,-61.066 144.9903,-54.183 134.4015,-54.5409 136.9358,-61.066"/>
</g>
<!-- Node163424 -->
<g id="node26" class="node">
<title>Node163424</title>
<g id="a_node26"><a xlink:href="quickjs_8c.html#a0ee6a3654a6016393fac5e1c108f403a" target="_top" xlink:title="JS_NewString">
<polygon fill="none" stroke="#ff0000" points="143,-.5 143,-19.5 223,-19.5 223,-.5 143,-.5"/>
<text text-anchor="middle" x="183" y="-7.5" font-family="Helvetica,sans-Serif" font-size="10.00" fill="#000000">JS_NewString</text>
</a>
</g>
</g>
<!-- Node163360&#45;&gt;Node163424 -->
<g id="edge27" class="edge">
<title>Node163360&#45;&gt;Node163424</title>
<path fill="none" stroke="#191970" d="M43.1825,-228.4865C46.051,-195.7083 59.9959,-86.3385 121,-29 124.6043,-25.6123 128.7977,-22.8277 133.2719,-20.5391"/>
<polygon fill="#191970" stroke="#191970" points="134.9212,-23.641 142.7511,-16.5036 132.1792,-17.2004 134.9212,-23.641"/>
</g>
<!-- Node163365 -->
<g id="node6" class="node">
<title>Node163365</title>
<g id="a_node6"><a xlink:href="cutils_8h.html#ad1cfaae47347ae771136b5a9bbda49aa" target="_top" xlink:title="dbuf_put">
<polygon fill="none" stroke="#000000" points="302,-380.5 302,-399.5 356,-399.5 356,-380.5 302,-380.5"/>
<text text-anchor="middle" x="329" y="-387.5" font-family="Helvetica,sans-Serif" font-size="10.00" fill="#000000">dbuf_put</text>
</a>
</g>
</g>
<!-- Node163364&#45;&gt;Node163365 -->
<g id="edge5" class="edge">
<title>Node163364&#45;&gt;Node163365</title>
<path fill="none" stroke="#191970" d="M212.5453,-359.6899C235.5406,-365.675 267.5808,-374.0142 292.2342,-380.4308"/>
<polygon fill="#191970" stroke="#191970" points="291.4015,-383.8306 301.9607,-382.9624 293.1647,-377.0563 291.4015,-383.8306"/>
</g>
<!-- Node163366 -->
<g id="node7" class="node">
<title>Node163366</title>
<g id="a_node7"><a xlink:href="cutils_8h.html#ac0b9ce26415947e972d6781d9f2fb11b" target="_top" xlink:title="dbuf_realloc">
<polygon fill="none" stroke="#000000" points="430.5,-380.5 430.5,-399.5 499.5,-399.5 499.5,-380.5 430.5,-380.5"/>
<text text-anchor="middle" x="465" y="-387.5" font-family="Helvetica,sans-Serif" font-size="10.00" fill="#000000">dbuf_realloc</text>
</a>
</g>
</g>
<!-- Node163365&#45;&gt;Node163366 -->
<g id="edge6" class="edge">
<title>Node163365&#45;&gt;Node163366</title>
<path fill="none" stroke="#191970" d="M356.1948,-390C374.514,-390 399.1032,-390 420.2711,-390"/>
<polygon fill="#191970" stroke="#191970" points="420.3454,-393.5001 430.3454,-390 420.3454,-386.5001 420.3454,-393.5001"/>
</g>
<!-- Node163368 -->
<g id="node9" class="node">
<title>Node163368</title>
<g id="a_node9"><a xlink:href="quickjs_8c.html#a930fdff715d46df68de392095deb7d79" target="_top" xlink:title="get_leb128">
<polygon fill="none" stroke="#000000" points="433,-342.5 433,-361.5 497,-361.5 497,-342.5 433,-342.5"/>
<text text-anchor="middle" x="465" y="-349.5" font-family="Helvetica,sans-Serif" font-size="10.00" fill="#000000">get_leb128</text>
</a>
</g>
</g>
<!-- Node163367&#45;&gt;Node163368 -->
<g id="edge8" class="edge">
<title>Node163367&#45;&gt;Node163368</title>
<path fill="none" stroke="#191970" d="M221.9678,-322.3777C239.8854,-326.0176 261.4567,-330.1023 281,-333 329.4918,-340.19 385.5758,-345.5609 422.9563,-348.7258"/>
<polygon fill="#191970" stroke="#191970" points="422.726,-352.2186 432.9817,-349.5596 423.3063,-345.2427 422.726,-352.2186"/>
</g>
<!-- Node163369 -->
<g id="node10" class="node">
<title>Node163369</title>
<g id="a_node10"><a xlink:href="quickjs_8c.html#a408b3a08f717d04623662251b8953e37" target="_top" xlink:title="get_sleb128">
<polygon fill="none" stroke="#000000" points="294.5,-304.5 294.5,-323.5 363.5,-323.5 363.5,-304.5 294.5,-304.5"/>
<text text-anchor="middle" x="329" y="-311.5" font-family="Helvetica,sans-Serif" font-size="10.00" fill="#000000">get_sleb128</text>
</a>
</g>
</g>
<!-- Node163367&#45;&gt;Node163369 -->
<g id="edge9" class="edge">
<title>Node163367&#45;&gt;Node163369</title>
<path fill="none" stroke="#191970" d="M221.742,-314C240.8778,-314 264.0753,-314 283.9952,-314"/>
<polygon fill="#191970" stroke="#191970" points="284.0743,-317.5001 294.0743,-314 284.0743,-310.5001 284.0743,-317.5001"/>
</g>
<!-- Node163369&#45;&gt;Node163368 -->
<g id="edge10" class="edge">
<title>Node163369&#45;&gt;Node163368</title>
<path fill="none" stroke="#191970" d="M363.3185,-323.589C381.4109,-328.6442 403.7591,-334.8886 422.8922,-340.2346"/>
<polygon fill="#191970" stroke="#191970" points="421.992,-343.6171 432.565,-342.9373 423.8758,-336.8753 421.992,-343.6171"/>
</g>
<!-- Node163371 -->
<g id="node12" class="node">
<title>Node163371</title>
<g id="a_node12"><a xlink:href="quickjs_8c.html#a06b76f5124fd985e35f4c652fd018d6d" target="_top" xlink:title="find_own_property">
<polygon fill="none" stroke="#000000" points="281,-266.5 281,-285.5 377,-285.5 377,-266.5 281,-266.5"/>
<text text-anchor="middle" x="329" y="-273.5" font-family="Helvetica,sans-Serif" font-size="10.00" fill="#000000">find_own_property</text>
</a>
</g>
</g>
<!-- Node163370&#45;&gt;Node163371 -->
<g id="edge12" class="edge">
<title>Node163370&#45;&gt;Node163371</title>
<path fill="none" stroke="#191970" d="M224.8377,-276C239.0782,-276 255.2664,-276 270.565,-276"/>
<polygon fill="#191970" stroke="#191970" points="270.9793,-279.5001 280.9793,-276 270.9792,-272.5001 270.9793,-279.5001"/>
</g>
<!-- Node163374 -->
<g id="node15" class="node">
<title>Node163374</title>
<g id="a_node15"><a xlink:href="quickjs_8h.html#af931f06630ab719b5f82a16eb27effd1" target="_top" xlink:title="JS_ToCString">
<polygon fill="none" stroke="#000000" points="290,-228.5 290,-247.5 368,-247.5 368,-228.5 290,-228.5"/>
<text text-anchor="middle" x="329" y="-235.5" font-family="Helvetica,sans-Serif" font-size="10.00" fill="#000000">JS_ToCString</text>
</a>
</g>
</g>
<!-- Node163370&#45;&gt;Node163374 -->
<g id="edge15" class="edge">
<title>Node163370&#45;&gt;Node163374</title>
<path fill="none" stroke="#191970" d="M219.842,-266.411C238.8479,-261.4642 262.2286,-255.3789 282.4692,-250.1108"/>
<polygon fill="#191970" stroke="#191970" points="283.627,-253.4261 292.423,-247.5201 281.8638,-246.6518 283.627,-253.4261"/>
</g>
<!-- Node163372 -->
<g id="node13" class="node">
<title>Node163372</title>
<g id="a_node13"><a xlink:href="quickjs_8c.html#a643df594b75933007bcdbb071b5ea8c5" target="_top" xlink:title="get_shape_prop">
<polygon fill="none" stroke="#000000" points="422,-304.5 422,-323.5 508,-323.5 508,-304.5 422,-304.5"/>
<text text-anchor="middle" x="465" y="-311.5" font-family="Helvetica,sans-Serif" font-size="10.00" fill="#000000">get_shape_prop</text>
</a>
</g>
</g>
<!-- Node163371&#45;&gt;Node163372 -->
<g id="edge13" class="edge">
<title>Node163371&#45;&gt;Node163372</title>
<path fill="none" stroke="#191970" d="M363.3185,-285.589C380.7943,-290.4719 402.2407,-296.4643 420.9251,-301.685"/>
<polygon fill="#191970" stroke="#191970" points="420.1194,-305.0938 430.6924,-304.4141 422.0032,-298.3521 420.1194,-305.0938"/>
</g>
<!-- Node163373 -->
<g id="node14" class="node">
<title>Node163373</title>
<g id="a_node14"><a xlink:href="quickjs_8c.html#acab22c2945c4d609e57a2484feb68a96" target="_top" xlink:title="prop_hash_end">
<polygon fill="none" stroke="#000000" points="423.5,-266.5 423.5,-285.5 506.5,-285.5 506.5,-266.5 423.5,-266.5"/>
<text text-anchor="middle" x="465" y="-273.5" font-family="Helvetica,sans-Serif" font-size="10.00" fill="#000000">prop_hash_end</text>
</a>
</g>
</g>
<!-- Node163371&#45;&gt;Node163373 -->
<g id="edge14" class="edge">
<title>Node163371&#45;&gt;Node163373</title>
<path fill="none" stroke="#191970" d="M377.3314,-276C388.9054,-276 401.311,-276 413.0413,-276"/>
<polygon fill="#191970" stroke="#191970" points="413.138,-279.5001 423.138,-276 413.1379,-272.5001 413.138,-279.5001"/>
</g>
<!-- Node163375 -->
<g id="node16" class="node">
<title>Node163375</title>
<g id="a_node16"><a xlink:href="quickjs_8c.html#af49e67b73f845dc1f9c3ee648dd9f95c" target="_top" xlink:title="JS_ToCStringLen2">
<polygon fill="none" stroke="#ff0000" points="415.5,-228.5 415.5,-247.5 514.5,-247.5 514.5,-228.5 415.5,-228.5"/>
<text text-anchor="middle" x="465" y="-235.5" font-family="Helvetica,sans-Serif" font-size="10.00" fill="#000000">JS_ToCStringLen2</text>
</a>
</g>
</g>
<!-- Node163374&#45;&gt;Node163375 -->
<g id="edge16" class="edge">
<title>Node163374&#45;&gt;Node163375</title>
<path fill="none" stroke="#191970" d="M368.3368,-238C379.7365,-238 392.4516,-238 404.8173,-238"/>
<polygon fill="#191970" stroke="#191970" points="405.0857,-241.5001 415.0857,-238 405.0856,-234.5001 405.0857,-241.5001"/>
</g>
<!-- Node163695&#45;&gt;Node163374 -->
<g id="edge18" class="edge">
<title>Node163695&#45;&gt;Node163374</title>
<path fill="none" stroke="#191970" d="M233.654,-238C248.6435,-238 265.0241,-238 279.9128,-238"/>
<polygon fill="#191970" stroke="#191970" points="279.9467,-241.5001 289.9466,-238 279.9466,-234.5001 279.9467,-241.5001"/>
</g>
<!-- Node163788 -->
<g id="node20" class="node">
<title>Node163788</title>
<g id="a_node20"><a xlink:href="cutils_8h.html#a04e3983476063eb6fbab2fd74fc49fc6" target="_top" xlink:title="dbuf_init2">
<polygon fill="none" stroke="#000000" points="299.5,-171.5 299.5,-190.5 358.5,-190.5 358.5,-171.5 299.5,-171.5"/>
<text text-anchor="middle" x="329" y="-178.5" font-family="Helvetica,sans-Serif" font-size="10.00" fill="#000000">dbuf_init2</text>
</a>
</g>
</g>
<!-- Node163787&#45;&gt;Node163788 -->
<g id="edge21" class="edge">
<title>Node163787&#45;&gt;Node163788</title>
<path fill="none" stroke="#191970" d="M216.1297,-166.3114C237.8715,-169.1408 266.4198,-172.856 289.365,-175.842"/>
<polygon fill="#191970" stroke="#191970" points="289.1004,-179.337 299.4685,-177.1569 290.0038,-172.3955 289.1004,-179.337"/>
</g>
<!-- Node163790 -->
<g id="node22" class="node">
<title>Node163790</title>
<g id="a_node22"><a xlink:href="quickjs_8c.html#aa548c4ad5eacef7d9508100cfe6f6871" target="_top" xlink:title="js_realloc_rt">
<polygon fill="none" stroke="#000000" points="294.5,-133.5 294.5,-152.5 363.5,-152.5 363.5,-133.5 294.5,-133.5"/>
<text text-anchor="middle" x="329" y="-140.5" font-family="Helvetica,sans-Serif" font-size="10.00" fill="#000000">js_realloc_rt</text>
</a>
</g>
</g>
<!-- Node163787&#45;&gt;Node163790 -->
<g id="edge23" class="edge">
<title>Node163787&#45;&gt;Node163790</title>
<path fill="none" stroke="#191970" d="M216.1297,-157.6886C236.3209,-155.061 262.3825,-151.6694 284.3749,-148.8074"/>
<polygon fill="#191970" stroke="#191970" points="285.0134,-152.2539 294.4781,-147.4926 284.11,-145.3124 285.0134,-152.2539"/>
</g>
<!-- Node163789 -->
<g id="node21" class="node">
<title>Node163789</title>
<g id="a_node21"><a xlink:href="cutils_8c.html#abb5d9de84cd0caedf89814f555ab5d1a" target="_top" xlink:title="dbuf_default_realloc">
<polygon fill="none" stroke="#000000" points="413,-171.5 413,-190.5 517,-190.5 517,-171.5 413,-171.5"/>
<text text-anchor="middle" x="465" y="-178.5" font-family="Helvetica,sans-Serif" font-size="10.00" fill="#000000">dbuf_default_realloc</text>
</a>
</g>
</g>
<!-- Node163788&#45;&gt;Node163789 -->
<g id="edge22" class="edge">
<title>Node163788&#45;&gt;Node163789</title>
<path fill="none" stroke="#191970" d="M358.51,-181C371.5192,-181 387.3308,-181 402.7459,-181"/>
<polygon fill="#191970" stroke="#191970" points="402.7851,-184.5001 412.785,-181 402.785,-177.5001 402.7851,-184.5001"/>
</g>
</g>
</svg>
