<?xml version="1.0" encoding="UTF-8" standalone="no"?>
<!DOCTYPE svg PUBLIC "-//W3C//DTD SVG 1.1//EN"
 "http://www.w3.org/Graphics/SVG/1.1/DTD/svg11.dtd">
<!-- Generated by graphviz version 2.40.1 (20161225.0304)
 -->
<!-- Title: JS_GetOwnProperty Pages: 1 -->
<svg width="849pt" height="472pt"
 viewBox="0.00 0.00 849.00 472.00" xmlns="http://www.w3.org/2000/svg" xmlns:xlink="http://www.w3.org/1999/xlink">
<g id="graph0" class="graph" transform="scale(1 1) rotate(0) translate(4 468)">
<title>JS_GetOwnProperty</title>
<!-- Node67578 -->
<g id="node1" class="node">
<title>Node67578</title>
<polygon fill="#bfbfbf" stroke="#000000" points="0,-183.5 0,-202.5 107,-202.5 107,-183.5 0,-183.5"/>
<text text-anchor="middle" x="53.5" y="-190.5" font-family="Helvetica,sans-Serif" font-size="10.00" fill="#000000">JS_GetOwnProperty</text>
</g>
<!-- Node67579 -->
<g id="node2" class="node">
<title>Node67579</title>
<g id="a_node2"><a xlink:href="quickjs_8c.html#ad13892c0a0f11781b566808876658099" target="_top" xlink:title="JS_GetOwnPropertyInternal">
<polygon fill="none" stroke="#000000" points="153.5,-202.5 153.5,-221.5 292.5,-221.5 292.5,-202.5 153.5,-202.5"/>
<text text-anchor="middle" x="223" y="-209.5" font-family="Helvetica,sans-Serif" font-size="10.00" fill="#000000">JS_GetOwnPropertyInternal</text>
</a>
</g>
</g>
<!-- Node67578&#45;&gt;Node67579 -->
<g id="edge1" class="edge">
<title>Node67578&#45;&gt;Node67579</title>
<path fill="none" stroke="#191970" d="M107.1309,-199.0117C118.5725,-200.2943 130.8929,-201.6753 143.0796,-203.0414"/>
<polygon fill="#191970" stroke="#191970" points="142.9352,-206.547 153.2629,-204.1829 143.7151,-199.5906 142.9352,-206.547"/>
</g>
<!-- Node67821 -->
<g id="node20" class="node">
<title>Node67821</title>
<g id="a_node20"><a xlink:href="quickjs_8c.html#a726b00d108e0a0f4d958c36c2e426a64" target="_top" xlink:title="JS_ThrowTypeErrorNotAnObject">
<polygon fill="none" stroke="#000000" points="143,-164.5 143,-183.5 303,-183.5 303,-164.5 143,-164.5"/>
<text text-anchor="middle" x="223" y="-171.5" font-family="Helvetica,sans-Serif" font-size="10.00" fill="#000000">JS_ThrowTypeErrorNotAnObject</text>
</a>
</g>
</g>
<!-- Node67578&#45;&gt;Node67821 -->
<g id="edge23" class="edge">
<title>Node67578&#45;&gt;Node67821</title>
<path fill="none" stroke="#191970" d="M107.1309,-186.9883C115.287,-186.074 123.8897,-185.1097 132.5722,-184.1365"/>
<polygon fill="#191970" stroke="#191970" points="133.2316,-187.5846 142.7794,-182.9923 132.4517,-180.6281 133.2316,-187.5846"/>
</g>
<!-- Node67580 -->
<g id="node3" class="node">
<title>Node67580</title>
<g id="a_node3"><a xlink:href="quickjs_8c.html#a288254c06a39c9fca740a7abdad2834e" target="_top" xlink:title="__JS_AtomIsTaggedInt">
<polygon fill="none" stroke="#000000" points="722,-444.5 722,-463.5 841,-463.5 841,-444.5 722,-444.5"/>
<text text-anchor="middle" x="781.5" y="-451.5" font-family="Helvetica,sans-Serif" font-size="10.00" fill="#000000">__JS_AtomIsTaggedInt</text>
</a>
</g>
</g>
<!-- Node67579&#45;&gt;Node67580 -->
<g id="edge2" class="edge">
<title>Node67579&#45;&gt;Node67580</title>
<path fill="none" stroke="#191970" d="M226.1871,-221.6605C236.7405,-252.0071 273.6441,-345.9563 339,-389 452.9129,-464.0236 618.8483,-466.692 711.7748,-460.9786"/>
<polygon fill="#191970" stroke="#191970" points="712.1656,-464.4605 721.9111,-460.3041 711.7008,-457.4759 712.1656,-464.4605"/>
</g>
<!-- Node67581 -->
<g id="node4" class="node">
<title>Node67581</title>
<g id="a_node4"><a xlink:href="quickjs_8c.html#a89f38938cee8077ce1fbba07946ed185" target="_top" xlink:title="__JS_AtomToUInt32">
<polygon fill="none" stroke="#000000" points="727.5,-397.5 727.5,-416.5 835.5,-416.5 835.5,-397.5 727.5,-397.5"/>
<text text-anchor="middle" x="781.5" y="-404.5" font-family="Helvetica,sans-Serif" font-size="10.00" fill="#000000">__JS_AtomToUInt32</text>
</a>
</g>
</g>
<!-- Node67579&#45;&gt;Node67581 -->
<g id="edge3" class="edge">
<title>Node67579&#45;&gt;Node67581</title>
<path fill="none" stroke="#191970" d="M228.6244,-221.7867C243.356,-246.5098 285.6442,-311.861 339,-345 456.8621,-418.2036 626.0288,-419.3822 717.2796,-413.4451"/>
<polygon fill="#191970" stroke="#191970" points="717.7444,-416.9212 727.4753,-412.7307 717.2551,-409.9383 717.7444,-416.9212"/>
</g>
<!-- Node67582 -->
<g id="node5" class="node">
<title>Node67582</title>
<g id="a_node5"><a xlink:href="quickjs_8c.html#a06b76f5124fd985e35f4c652fd018d6d" target="_top" xlink:title="find_own_property">
<polygon fill="none" stroke="#000000" points="381,-278.5 381,-297.5 477,-297.5 477,-278.5 381,-278.5"/>
<text text-anchor="middle" x="429" y="-285.5" font-family="Helvetica,sans-Serif" font-size="10.00" fill="#000000">find_own_property</text>
</a>
</g>
</g>
<!-- Node67579&#45;&gt;Node67582 -->
<g id="edge4" class="edge">
<title>Node67579&#45;&gt;Node67582</title>
<path fill="none" stroke="#191970" d="M239.3422,-221.6599C261.304,-234.2554 301.8813,-256.1867 339,-269 349.1705,-272.5108 360.2214,-275.4897 370.985,-277.9735"/>
<polygon fill="#191970" stroke="#191970" points="370.2379,-281.3928 380.7555,-280.1164 371.7375,-274.5553 370.2379,-281.3928"/>
</g>
<!-- Node67585 -->
<g id="node8" class="node">
<title>Node67585</title>
<g id="a_node8"><a xlink:href="quickjs_8c.html#add3eea1f6d626963ade3c28a1fd563d1" target="_top" xlink:title="JS_AtomIsNumericIndex">
<polygon fill="none" stroke="#000000" points="366,-316.5 366,-335.5 492,-335.5 492,-316.5 366,-316.5"/>
<text text-anchor="middle" x="429" y="-323.5" font-family="Helvetica,sans-Serif" font-size="10.00" fill="#000000">JS_AtomIsNumericIndex</text>
</a>
</g>
</g>
<!-- Node67579&#45;&gt;Node67585 -->
<g id="edge7" class="edge">
<title>Node67579&#45;&gt;Node67585</title>
<path fill="none" stroke="#191970" d="M231.548,-221.574C249.4383,-240.9722 292.9955,-284.9401 339,-307 344.3503,-309.5656 350.0435,-311.7866 355.8672,-313.7092"/>
<polygon fill="#191970" stroke="#191970" points="355.1702,-317.154 365.754,-316.671 357.179,-310.4484 355.1702,-317.154"/>
</g>
<!-- Node67701 -->
<g id="node13" class="node">
<title>Node67701</title>
<g id="a_node13"><a xlink:href="quickjs_8c.html#a23b7fe57d08a1b3b39ba556f9cbb6c76" target="_top" xlink:title="JS_AutoInitProperty">
<polygon fill="none" stroke="#ff0000" points="377,-240.5 377,-259.5 481,-259.5 481,-240.5 377,-240.5"/>
<text text-anchor="middle" x="429" y="-247.5" font-family="Helvetica,sans-Serif" font-size="10.00" fill="#000000">JS_AutoInitProperty</text>
</a>
</g>
</g>
<!-- Node67579&#45;&gt;Node67701 -->
<g id="edge16" class="edge">
<title>Node67579&#45;&gt;Node67701</title>
<path fill="none" stroke="#191970" d="M274.7166,-221.54C302.7556,-226.7122 337.6018,-233.1401 367.0794,-238.5778"/>
<polygon fill="#191970" stroke="#191970" points="366.7931,-242.0839 377.2621,-240.4561 368.063,-235.2001 366.7931,-242.0839"/>
</g>
<!-- Node67633 -->
<g id="node14" class="node">
<title>Node67633</title>
<g id="a_node14"><a xlink:href="quickjs_8h.html#a775522f2d084fc8fa0fcb33f390006b4" target="_top" xlink:title="JS_DupValue">
<polygon fill="none" stroke="#000000" points="390.5,-202.5 390.5,-221.5 467.5,-221.5 467.5,-202.5 390.5,-202.5"/>
<text text-anchor="middle" x="429" y="-209.5" font-family="Helvetica,sans-Serif" font-size="10.00" fill="#000000">JS_DupValue</text>
</a>
</g>
</g>
<!-- Node67579&#45;&gt;Node67633 -->
<g id="edge17" class="edge">
<title>Node67579&#45;&gt;Node67633</title>
<path fill="none" stroke="#191970" d="M292.7422,-212C321.4916,-212 354.1135,-212 380.2289,-212"/>
<polygon fill="#191970" stroke="#191970" points="380.2606,-215.5001 390.2605,-212 380.2605,-208.5001 380.2606,-215.5001"/>
</g>
<!-- Node67703 -->
<g id="node15" class="node">
<title>Node67703</title>
<g id="a_node15"><a xlink:href="quickjs_8c.html#aeb97957655d979e9fe56c955da2b2d4b" target="_top" xlink:title="JS_GetPropertyUint32">
<polygon fill="none" stroke="#ff0000" points="371.5,-164.5 371.5,-183.5 486.5,-183.5 486.5,-164.5 371.5,-164.5"/>
<text text-anchor="middle" x="429" y="-171.5" font-family="Helvetica,sans-Serif" font-size="10.00" fill="#000000">JS_GetPropertyUint32</text>
</a>
</g>
</g>
<!-- Node67579&#45;&gt;Node67703 -->
<g id="edge18" class="edge">
<title>Node67579&#45;&gt;Node67703</title>
<path fill="none" stroke="#191970" d="M274.7166,-202.46C302.7556,-197.2878 337.6018,-190.8599 367.0794,-185.4222"/>
<polygon fill="#191970" stroke="#191970" points="368.063,-188.7999 377.2621,-183.5439 366.7931,-181.9161 368.063,-188.7999"/>
</g>
<!-- Node67720 -->
<g id="node16" class="node">
<title>Node67720</title>
<g id="a_node16"><a xlink:href="quickjs_8h.html#aaab426b47c95d00479b7355b1cf7f56c" target="_top" xlink:title="JS_IsUninitialized">
<polygon fill="none" stroke="#000000" points="381.5,-126.5 381.5,-145.5 476.5,-145.5 476.5,-126.5 381.5,-126.5"/>
<text text-anchor="middle" x="429" y="-133.5" font-family="Helvetica,sans-Serif" font-size="10.00" fill="#000000">JS_IsUninitialized</text>
</a>
</g>
</g>
<!-- Node67579&#45;&gt;Node67720 -->
<g id="edge19" class="edge">
<title>Node67579&#45;&gt;Node67720</title>
<path fill="none" stroke="#191970" d="M281.3477,-202.3689C288.9002,-199.9196 296.3211,-196.849 303,-193 323.1569,-181.3839 318.6988,-166.362 339,-155 348.9159,-149.4504 360.2727,-145.5179 371.5033,-142.7324"/>
<polygon fill="#191970" stroke="#191970" points="372.2913,-146.1428 381.3008,-140.5679 370.7812,-139.3076 372.2913,-146.1428"/>
</g>
<!-- Node67728 -->
<g id="node17" class="node">
<title>Node67728</title>
<g id="a_node17"><a xlink:href="quickjs_8c.html#a75ac132a3af4de01e1fadeb0bede6ee7" target="_top" xlink:title="JS_ThrowReferenceErrorUninitialized">
<polygon fill="none" stroke="#ff0000" points="339,-88.5 339,-107.5 519,-107.5 519,-88.5 339,-88.5"/>
<text text-anchor="middle" x="429" y="-95.5" font-family="Helvetica,sans-Serif" font-size="10.00" fill="#000000">JS_ThrowReferenceErrorUninitialized</text>
</a>
</g>
</g>
<!-- Node67579&#45;&gt;Node67728 -->
<g id="edge20" class="edge">
<title>Node67579&#45;&gt;Node67728</title>
<path fill="none" stroke="#191970" d="M287.0807,-202.4521C292.8055,-199.9653 298.2301,-196.8636 303,-193 332.0434,-169.4752 309.6633,-140.1581 339,-117 341.0839,-115.355 343.2767,-113.8435 345.5554,-112.4552"/>
<polygon fill="#191970" stroke="#191970" points="347.4649,-115.4073 354.7225,-107.6886 344.2355,-109.1966 347.4649,-115.4073"/>
</g>
<!-- Node67729 -->
<g id="node18" class="node">
<title>Node67729</title>
<g id="a_node18"><a xlink:href="quickjs_8c.html#a033dd3ebd29c4eb9f0baff1dd0fec0b1" target="_top" xlink:title="JS_ThrowTypeErrorDetached\lArrayBuffer">
<polygon fill="none" stroke="#000000" points="356,-39 356,-69 502,-69 502,-39 356,-39"/>
<text text-anchor="start" x="364" y="-57" font-family="Helvetica,sans-Serif" font-size="10.00" fill="#000000">JS_ThrowTypeErrorDetached</text>
<text text-anchor="middle" x="429" y="-46" font-family="Helvetica,sans-Serif" font-size="10.00" fill="#000000">ArrayBuffer</text>
</a>
</g>
</g>
<!-- Node67579&#45;&gt;Node67729 -->
<g id="edge21" class="edge">
<title>Node67579&#45;&gt;Node67729</title>
<path fill="none" stroke="#191970" d="M289.207,-202.3604C294.2312,-199.868 298.9228,-196.791 303,-193 341.9112,-156.8195 300.7789,-115.9088 339,-79 341.4497,-76.6344 344.1032,-74.4886 346.9104,-72.5426"/>
<polygon fill="#191970" stroke="#191970" points="348.9417,-75.4067 355.7437,-67.2836 345.3607,-69.3919 348.9417,-75.4067"/>
</g>
<!-- Node67730 -->
<g id="node19" class="node">
<title>Node67730</title>
<g id="a_node19"><a xlink:href="quickjs_8c.html#a869fa88a646c0a1914ec2e559b193b5c" target="_top" xlink:title="typed_array_is_detached">
<polygon fill="none" stroke="#000000" points="366.5,-.5 366.5,-19.5 491.5,-19.5 491.5,-.5 366.5,-.5"/>
<text text-anchor="middle" x="429" y="-7.5" font-family="Helvetica,sans-Serif" font-size="10.00" fill="#000000">typed_array_is_detached</text>
</a>
</g>
</g>
<!-- Node67579&#45;&gt;Node67730 -->
<g id="edge22" class="edge">
<title>Node67579&#45;&gt;Node67730</title>
<path fill="none" stroke="#191970" d="M290.3403,-202.3455C294.9937,-199.8413 299.2972,-196.7666 303,-193 355.3144,-139.7835 286.0212,-81.5551 339,-29 344.0274,-24.0128 350.0135,-20.1833 356.4754,-17.26"/>
<polygon fill="#191970" stroke="#191970" points="358.0968,-20.3897 366.2269,-13.5962 355.6348,-13.837 358.0968,-20.3897"/>
</g>
<!-- Node67583 -->
<g id="node6" class="node">
<title>Node67583</title>
<g id="a_node6"><a xlink:href="quickjs_8c.html#a643df594b75933007bcdbb071b5ea8c5" target="_top" xlink:title="get_shape_prop">
<polygon fill="none" stroke="#000000" points="577.5,-221.5 577.5,-240.5 663.5,-240.5 663.5,-221.5 577.5,-221.5"/>
<text text-anchor="middle" x="620.5" y="-228.5" font-family="Helvetica,sans-Serif" font-size="10.00" fill="#000000">get_shape_prop</text>
</a>
</g>
</g>
<!-- Node67582&#45;&gt;Node67583 -->
<g id="edge5" class="edge">
<title>Node67582&#45;&gt;Node67583</title>
<path fill="none" stroke="#191970" d="M477.3318,-280.3637C491.0189,-277.5149 505.7838,-273.777 519,-269 536.0143,-262.8502 538.2257,-256.7773 555,-250 560.7635,-247.6714 566.9178,-245.4988 573.0602,-243.5161"/>
<polygon fill="#191970" stroke="#191970" points="574.1196,-246.8522 582.6449,-240.5618 572.0576,-240.1627 574.1196,-246.8522"/>
</g>
<!-- Node67584 -->
<g id="node7" class="node">
<title>Node67584</title>
<g id="a_node7"><a xlink:href="quickjs_8c.html#acab22c2945c4d609e57a2484feb68a96" target="_top" xlink:title="prop_hash_end">
<polygon fill="none" stroke="#000000" points="579,-183.5 579,-202.5 662,-202.5 662,-183.5 579,-183.5"/>
<text text-anchor="middle" x="620.5" y="-190.5" font-family="Helvetica,sans-Serif" font-size="10.00" fill="#000000">prop_hash_end</text>
</a>
</g>
</g>
<!-- Node67582&#45;&gt;Node67584 -->
<g id="edge6" class="edge">
<title>Node67582&#45;&gt;Node67584</title>
<path fill="none" stroke="#191970" d="M477.1687,-285.0152C491.5967,-282.3072 506.808,-277.4808 519,-269 543.5973,-251.8901 531.0549,-230.0114 555,-212 559.3763,-208.7082 564.3092,-205.9856 569.4548,-203.7341"/>
<polygon fill="#191970" stroke="#191970" points="570.7591,-206.9828 578.8721,-200.1689 568.2806,-200.4362 570.7591,-206.9828"/>
</g>
<!-- Node67586 -->
<g id="node9" class="node">
<title>Node67586</title>
<g id="a_node9"><a xlink:href="quickjs_8c.html#ab4e100a9cde5f7ec87c92f5e766dbbab" target="_top" xlink:title="JS_AtomIsNumericIndex1">
<polygon fill="none" stroke="#ff0000" points="555,-373.5 555,-392.5 686,-392.5 686,-373.5 555,-373.5"/>
<text text-anchor="middle" x="620.5" y="-380.5" font-family="Helvetica,sans-Serif" font-size="10.00" fill="#000000">JS_AtomIsNumericIndex1</text>
</a>
</g>
</g>
<!-- Node67585&#45;&gt;Node67586 -->
<g id="edge8" class="edge">
<title>Node67585&#45;&gt;Node67586</title>
<path fill="none" stroke="#191970" d="M461.0528,-335.5405C493.2266,-345.1171 542.9611,-359.9205 578.3219,-370.4457"/>
<polygon fill="#191970" stroke="#191970" points="577.7597,-373.93 588.3426,-373.4284 579.7567,-367.2209 577.7597,-373.93"/>
</g>
<!-- Node67589 -->
<g id="node10" class="node">
<title>Node67589</title>
<g id="a_node10"><a xlink:href="quickjs_8h.html#afaa20c47565bc704c6c85f3d77254e7d" target="_top" xlink:title="JS_FreeValue">
<polygon fill="none" stroke="#ff0000" points="742.5,-340.5 742.5,-359.5 820.5,-359.5 820.5,-340.5 742.5,-340.5"/>
<text text-anchor="middle" x="781.5" y="-347.5" font-family="Helvetica,sans-Serif" font-size="10.00" fill="#000000">JS_FreeValue</text>
</a>
</g>
</g>
<!-- Node67585&#45;&gt;Node67589 -->
<g id="edge13" class="edge">
<title>Node67585&#45;&gt;Node67589</title>
<path fill="none" stroke="#191970" d="M492.0199,-330.2907C560.8645,-334.978 669.6795,-342.3867 732.4455,-346.6601"/>
<polygon fill="#191970" stroke="#191970" points="732.2704,-350.1562 742.4851,-347.3437 732.746,-343.1724 732.2704,-350.1562"/>
</g>
<!-- Node67625 -->
<g id="node11" class="node">
<title>Node67625</title>
<g id="a_node11"><a xlink:href="quickjs_8h.html#ad80a83d73e9b7d872b88fbf2943aebe9" target="_top" xlink:title="JS_IsException">
<polygon fill="none" stroke="#000000" points="738.5,-302.5 738.5,-321.5 824.5,-321.5 824.5,-302.5 738.5,-302.5"/>
<text text-anchor="middle" x="781.5" y="-309.5" font-family="Helvetica,sans-Serif" font-size="10.00" fill="#000000">JS_IsException</text>
</a>
</g>
</g>
<!-- Node67585&#45;&gt;Node67625 -->
<g id="edge14" class="edge">
<title>Node67585&#45;&gt;Node67625</title>
<path fill="none" stroke="#191970" d="M492.0199,-323.4971C559.3638,-320.8224 664.9546,-316.6288 728.2762,-314.1139"/>
<polygon fill="#191970" stroke="#191970" points="728.5915,-317.6042 738.4447,-313.71 728.3136,-310.6097 728.5915,-317.6042"/>
</g>
<!-- Node67798 -->
<g id="node12" class="node">
<title>Node67798</title>
<g id="a_node12"><a xlink:href="quickjs_8h.html#a4e407128a9605afb77523e49e9a627fd" target="_top" xlink:title="JS_IsUndefined">
<polygon fill="none" stroke="#000000" points="577.5,-259.5 577.5,-278.5 663.5,-278.5 663.5,-259.5 577.5,-259.5"/>
<text text-anchor="middle" x="620.5" y="-266.5" font-family="Helvetica,sans-Serif" font-size="10.00" fill="#000000">JS_IsUndefined</text>
</a>
</g>
</g>
<!-- Node67585&#45;&gt;Node67798 -->
<g id="edge15" class="edge">
<title>Node67585&#45;&gt;Node67798</title>
<path fill="none" stroke="#191970" d="M481.2377,-316.4759C493.7098,-313.7891 506.9091,-310.6012 519,-307 535.453,-302.0996 538.9396,-299.0646 555,-293 564.5022,-289.4119 574.8082,-285.599 584.3716,-282.0936"/>
<polygon fill="#191970" stroke="#191970" points="585.8125,-285.2935 594.0041,-278.5742 583.4102,-278.7186 585.8125,-285.2935"/>
</g>
<!-- Node67586&#45;&gt;Node67580 -->
<g id="edge9" class="edge">
<title>Node67586&#45;&gt;Node67580</title>
<path fill="none" stroke="#191970" d="M642.2132,-392.5754C670.1382,-404.8901 718.8153,-426.3564 750.5956,-440.3714"/>
<polygon fill="#191970" stroke="#191970" points="749.3123,-443.6306 759.8743,-444.4632 752.1368,-437.2257 749.3123,-443.6306"/>
</g>
<!-- Node67586&#45;&gt;Node67581 -->
<g id="edge10" class="edge">
<title>Node67586&#45;&gt;Node67581</title>
<path fill="none" stroke="#191970" d="M684.5941,-392.5544C695.3595,-394.1592 706.5337,-395.8249 717.3018,-397.4301"/>
<polygon fill="#191970" stroke="#191970" points="717.0679,-400.9338 727.4747,-398.9465 718.1001,-394.0103 717.0679,-400.9338"/>
</g>
<!-- Node67586&#45;&gt;Node67589 -->
<g id="edge11" class="edge">
<title>Node67586&#45;&gt;Node67589</title>
<path fill="none" stroke="#191970" d="M667.0679,-373.455C687.5791,-369.2509 711.6877,-364.3093 732.4736,-360.0489"/>
<polygon fill="#191970" stroke="#191970" points="733.2868,-363.4551 742.3803,-358.0183 731.8812,-356.5976 733.2868,-363.4551"/>
</g>
<!-- Node67586&#45;&gt;Node67625 -->
<g id="edge12" class="edge">
<title>Node67586&#45;&gt;Node67625</title>
<path fill="none" stroke="#191970" d="M636.9827,-373.4864C656.7414,-362.3353 691.0677,-343.7609 722,-331 727.3943,-328.7746 733.1498,-326.6453 738.8764,-324.6699"/>
<polygon fill="#191970" stroke="#191970" points="740.0305,-327.9747 748.4176,-321.5012 737.8241,-321.3315 740.0305,-327.9747"/>
</g>
</g>
</svg>
