<?xml version="1.0" encoding="UTF-8" standalone="no"?>
<!DOCTYPE svg PUBLIC "-//W3C//DTD SVG 1.1//EN"
 "http://www.w3.org/Graphics/SVG/1.1/DTD/svg11.dtd">
<!-- Generated by graphviz version 2.40.1 (20161225.0304)
 -->
<!-- Title: js_math_hypot Pages: 1 -->
<svg width="486pt" height="104pt"
 viewBox="0.00 0.00 486.00 104.00" xmlns="http://www.w3.org/2000/svg" xmlns:xlink="http://www.w3.org/1999/xlink">
<g id="graph0" class="graph" transform="scale(1 1) rotate(0) translate(4 100)">
<title>js_math_hypot</title>
<!-- Node421396 -->
<g id="node1" class="node">
<title>Node421396</title>
<polygon fill="#bfbfbf" stroke="#000000" points="0,-57.5 0,-76.5 80,-76.5 80,-57.5 0,-57.5"/>
<text text-anchor="middle" x="40" y="-64.5" font-family="Helvetica,sans-Serif" font-size="10.00" fill="#000000">js_math_hypot</text>
</g>
<!-- Node421397 -->
<g id="node2" class="node">
<title>Node421397</title>
<g id="a_node2"><a xlink:href="quickjs_8h.html#ae91f44bd7249613050c18c7133702c67" target="_top" xlink:title="JS_NewFloat64">
<polygon fill="none" stroke="#000000" points="116,-76.5 116,-95.5 202,-95.5 202,-76.5 116,-76.5"/>
<text text-anchor="middle" x="159" y="-83.5" font-family="Helvetica,sans-Serif" font-size="10.00" fill="#000000">JS_NewFloat64</text>
</a>
</g>
</g>
<!-- Node421396&#45;&gt;Node421397 -->
<g id="edge1" class="edge">
<title>Node421396&#45;&gt;Node421397</title>
<path fill="none" stroke="#191970" d="M80.288,-73.4325C88.5268,-74.748 97.3161,-76.1513 105.9239,-77.5257"/>
<polygon fill="#191970" stroke="#191970" points="105.4748,-80.9982 115.9016,-79.1187 106.5785,-74.0858 105.4748,-80.9982"/>
</g>
<!-- Node421399 -->
<g id="node4" class="node">
<title>Node421399</title>
<g id="a_node4"><a xlink:href="quickjs_8c.html#a8cc9386cd04cfa067d0c6bf588c6bb58" target="_top" xlink:title="JS_ToFloat64">
<polygon fill="none" stroke="#000000" points="120.5,-38.5 120.5,-57.5 197.5,-57.5 197.5,-38.5 120.5,-38.5"/>
<text text-anchor="middle" x="159" y="-45.5" font-family="Helvetica,sans-Serif" font-size="10.00" fill="#000000">JS_ToFloat64</text>
</a>
</g>
</g>
<!-- Node421396&#45;&gt;Node421399 -->
<g id="edge3" class="edge">
<title>Node421396&#45;&gt;Node421399</title>
<path fill="none" stroke="#191970" d="M80.288,-60.5675C89.8964,-59.0334 100.2536,-57.3797 110.1984,-55.7918"/>
<polygon fill="#191970" stroke="#191970" points="111.041,-59.2017 120.3641,-54.1688 109.9373,-52.2893 111.041,-59.2017"/>
</g>
<!-- Node421398 -->
<g id="node3" class="node">
<title>Node421398</title>
<g id="a_node3"><a xlink:href="quickjs_8h.html#a9bf98b18de88b4199910a43e933eb97d" target="_top" xlink:title="__JS_NewFloat64">
<polygon fill="none" stroke="#000000" points="238,-76.5 238,-95.5 335,-95.5 335,-76.5 238,-76.5"/>
<text text-anchor="middle" x="286.5" y="-83.5" font-family="Helvetica,sans-Serif" font-size="10.00" fill="#000000">__JS_NewFloat64</text>
</a>
</g>
</g>
<!-- Node421397&#45;&gt;Node421398 -->
<g id="edge2" class="edge">
<title>Node421397&#45;&gt;Node421398</title>
<path fill="none" stroke="#191970" d="M202.1657,-86C210.2807,-86 218.8942,-86 227.3968,-86"/>
<polygon fill="#191970" stroke="#191970" points="227.6723,-89.5001 237.6723,-86 227.6723,-82.5001 227.6723,-89.5001"/>
</g>
<!-- Node421400 -->
<g id="node5" class="node">
<title>Node421400</title>
<g id="a_node5"><a xlink:href="quickjs_8h.html#a775522f2d084fc8fa0fcb33f390006b4" target="_top" xlink:title="JS_DupValue">
<polygon fill="none" stroke="#000000" points="248,-38.5 248,-57.5 325,-57.5 325,-38.5 248,-38.5"/>
<text text-anchor="middle" x="286.5" y="-45.5" font-family="Helvetica,sans-Serif" font-size="10.00" fill="#000000">JS_DupValue</text>
</a>
</g>
</g>
<!-- Node421399&#45;&gt;Node421400 -->
<g id="edge4" class="edge">
<title>Node421399&#45;&gt;Node421400</title>
<path fill="none" stroke="#191970" d="M197.6002,-48C210.0923,-48 224.1187,-48 237.2737,-48"/>
<polygon fill="#191970" stroke="#191970" points="237.591,-51.5001 247.591,-48 237.5909,-44.5001 237.591,-51.5001"/>
</g>
<!-- Node421401 -->
<g id="node6" class="node">
<title>Node421401</title>
<g id="a_node6"><a xlink:href="quickjs_8c.html#ab1b614ef35f1cea05da0ad4927c53118" target="_top" xlink:title="JS_ToFloat64Free">
<polygon fill="none" stroke="#000000" points="238,-.5 238,-19.5 335,-19.5 335,-.5 238,-.5"/>
<text text-anchor="middle" x="286.5" y="-7.5" font-family="Helvetica,sans-Serif" font-size="10.00" fill="#000000">JS_ToFloat64Free</text>
</a>
</g>
</g>
<!-- Node421399&#45;&gt;Node421401 -->
<g id="edge5" class="edge">
<title>Node421399&#45;&gt;Node421401</title>
<path fill="none" stroke="#191970" d="M191.1736,-38.411C207.3307,-33.5956 227.108,-27.7012 244.4518,-22.532"/>
<polygon fill="#191970" stroke="#191970" points="245.7529,-25.7964 254.3367,-19.5859 243.7535,-19.088 245.7529,-25.7964"/>
</g>
<!-- Node421402 -->
<g id="node7" class="node">
<title>Node421402</title>
<g id="a_node7"><a xlink:href="quickjs_8c.html#a9a2e141f21d9ea38a3a23c9b4eb6e356" target="_top" xlink:title="__JS_ToFloat64Free">
<polygon fill="none" stroke="#ff0000" points="371,-.5 371,-19.5 478,-19.5 478,-.5 371,-.5"/>
<text text-anchor="middle" x="424.5" y="-7.5" font-family="Helvetica,sans-Serif" font-size="10.00" fill="#000000">__JS_ToFloat64Free</text>
</a>
</g>
</g>
<!-- Node421401&#45;&gt;Node421402 -->
<g id="edge6" class="edge">
<title>Node421401&#45;&gt;Node421402</title>
<path fill="none" stroke="#191970" d="M335.1536,-10C343.3186,-10 351.901,-10 360.3844,-10"/>
<polygon fill="#191970" stroke="#191970" points="360.6485,-13.5001 370.6485,-10 360.6485,-6.5001 360.6485,-13.5001"/>
</g>
</g>
</svg>
