<?xml version="1.0" encoding="UTF-8" standalone="no"?>
<!DOCTYPE svg PUBLIC "-//W3C//DTD SVG 1.1//EN"
 "http://www.w3.org/Graphics/SVG/1.1/DTD/svg11.dtd">
<!-- Generated by graphviz version 2.40.1 (20161225.0304)
 -->
<!-- Title: JS_NewContextRaw Pages: 1 -->
<svg width="934pt" height="638pt"
 viewBox="0.00 0.00 934.00 637.56" xmlns="http://www.w3.org/2000/svg" xmlns:xlink="http://www.w3.org/1999/xlink">
<g id="graph0" class="graph" transform="scale(1 1) rotate(0) translate(4 633.5639)">
<title>JS_NewContextRaw</title>
<!-- Node5309 -->
<g id="node1" class="node">
<title>Node5309</title>
<polygon fill="#bfbfbf" stroke="#000000" points="0,-361.4443 0,-380.4443 109,-380.4443 109,-361.4443 0,-361.4443"/>
<text text-anchor="middle" x="54.5" y="-368.4443" font-family="Helvetica,sans-Serif" font-size="10.00" fill="#000000">JS_NewContextRaw</text>
</g>
<!-- Node5310 -->
<g id="node2" class="node">
<title>Node5310</title>
<g id="a_node2"><a xlink:href="quickjs_8c.html#a9780456a71703c53244b88831bc8fb7a" target="_top" xlink:title="add_gc_object">
<polygon fill="none" stroke="#000000" points="525.5,-589.4443 525.5,-608.4443 605.5,-608.4443 605.5,-589.4443 525.5,-589.4443"/>
<text text-anchor="middle" x="565.5" y="-596.4443" font-family="Helvetica,sans-Serif" font-size="10.00" fill="#000000">add_gc_object</text>
</a>
</g>
</g>
<!-- Node5309&#45;&gt;Node5310 -->
<g id="edge1" class="edge">
<title>Node5309&#45;&gt;Node5310</title>
<path fill="none" stroke="#191970" d="M63.0559,-380.7896C94.0337,-415.6451 204.8561,-533.5746 325,-579.9443 387.1976,-603.9495 465.03,-605.4482 515.0072,-603.148"/>
<polygon fill="#191970" stroke="#191970" points="515.4326,-606.6305 525.2334,-602.6063 515.0622,-599.6403 515.4326,-606.6305"/>
</g>
<!-- Node5311 -->
<g id="node3" class="node">
<title>Node5311</title>
<g id="a_node3"><a xlink:href="list_8h.html#a3a5d0733570b2fafc18f4c71a2968ea5" target="_top" xlink:title="list_add_tail">
<polygon fill="none" stroke="#000000" points="685,-589.4443 685,-608.4443 753,-608.4443 753,-589.4443 685,-589.4443"/>
<text text-anchor="middle" x="719" y="-596.4443" font-family="Helvetica,sans-Serif" font-size="10.00" fill="#000000">list_add_tail</text>
</a>
</g>
</g>
<!-- Node5309&#45;&gt;Node5311 -->
<g id="edge46" class="edge">
<title>Node5309&#45;&gt;Node5311</title>
<path fill="none" stroke="#191970" d="M57.7197,-380.7755C67.0083,-407.7278 96.3398,-483.6586 145,-526.9443 210.1438,-584.893 240.3426,-584.09 325,-604.9443 457.1715,-637.5031 495.646,-632.3899 631,-617.9443 645.382,-616.4094 660.8652,-613.5014 674.7742,-610.4137"/>
<polygon fill="#191970" stroke="#191970" points="675.6281,-613.8087 684.5856,-608.1506 674.0548,-606.9878 675.6281,-613.8087"/>
</g>
<!-- Node5313 -->
<g id="node5" class="node">
<title>Node5313</title>
<g id="a_node5"><a xlink:href="list_8h.html#a663527a4d757540b2177bef0db1ce5c0" target="_top" xlink:title="init_list_head">
<polygon fill="none" stroke="#000000" points="180,-323.4443 180,-342.4443 254,-342.4443 254,-323.4443 180,-323.4443"/>
<text text-anchor="middle" x="217" y="-330.4443" font-family="Helvetica,sans-Serif" font-size="10.00" fill="#000000">init_list_head</text>
</a>
</g>
</g>
<!-- Node5309&#45;&gt;Node5313 -->
<g id="edge4" class="edge">
<title>Node5309&#45;&gt;Node5313</title>
<path fill="none" stroke="#191970" d="M95.5056,-361.3553C118.2119,-356.0455 146.5283,-349.4238 170.1107,-343.9091"/>
<polygon fill="#191970" stroke="#191970" points="170.9571,-347.3057 179.8975,-341.6206 169.3632,-340.4896 170.9571,-347.3057"/>
</g>
<!-- Node5314 -->
<g id="node6" class="node">
<title>Node5314</title>
<g id="a_node6"><a xlink:href="quickjs_8c.html#a7efb53c2f76fd5cc0e584449437ec09c" target="_top" xlink:title="JS_AddIntrinsicBasicObjects">
<polygon fill="none" stroke="#000000" points="145,-361.4443 145,-380.4443 289,-380.4443 289,-361.4443 145,-361.4443"/>
<text text-anchor="middle" x="217" y="-368.4443" font-family="Helvetica,sans-Serif" font-size="10.00" fill="#000000">JS_AddIntrinsicBasicObjects</text>
</a>
</g>
</g>
<!-- Node5309&#45;&gt;Node5314 -->
<g id="edge5" class="edge">
<title>Node5309&#45;&gt;Node5314</title>
<path fill="none" stroke="#191970" d="M109.0622,-370.9443C117.3461,-370.9443 126.0463,-370.9443 134.7617,-370.9443"/>
<polygon fill="#191970" stroke="#191970" points="134.9758,-374.4444 144.9757,-370.9443 134.9757,-367.4444 134.9758,-374.4444"/>
</g>
<!-- Node5329 -->
<g id="node30" class="node">
<title>Node5329</title>
<g id="a_node30"><a xlink:href="quickjs_8c.html#a69e19dda8a93d613203e0baa06f0ed8d" target="_top" xlink:title="js_free_rt">
<polygon fill="none" stroke="#000000" points="188.5,-285.4443 188.5,-304.4443 245.5,-304.4443 245.5,-285.4443 188.5,-285.4443"/>
<text text-anchor="middle" x="217" y="-292.4443" font-family="Helvetica,sans-Serif" font-size="10.00" fill="#000000">js_free_rt</text>
</a>
</g>
</g>
<!-- Node5309&#45;&gt;Node5329 -->
<g id="edge45" class="edge">
<title>Node5309&#45;&gt;Node5329</title>
<path fill="none" stroke="#191970" d="M66.9968,-361.3266C83.8507,-348.7778 115.1988,-326.8981 145,-313.9443 155.5298,-309.3672 167.4192,-305.6792 178.4575,-302.8142"/>
<polygon fill="#191970" stroke="#191970" points="179.4078,-306.185 188.292,-300.4125 177.7471,-299.3849 179.4078,-306.185"/>
</g>
<!-- Node5310&#45;&gt;Node5311 -->
<g id="edge2" class="edge">
<title>Node5310&#45;&gt;Node5311</title>
<path fill="none" stroke="#191970" d="M605.8303,-598.9443C626.9753,-598.9443 652.9215,-598.9443 674.6336,-598.9443"/>
<polygon fill="#191970" stroke="#191970" points="674.9126,-602.4444 684.9125,-598.9443 674.9125,-595.4444 674.9126,-602.4444"/>
</g>
<!-- Node5312 -->
<g id="node4" class="node">
<title>Node5312</title>
<g id="a_node4"><a xlink:href="list_8h.html#a16286d5bff74a27aec51a3134ffc7b43" target="_top" xlink:title="__list_add">
<polygon fill="none" stroke="#000000" points="836,-589.4443 836,-608.4443 897,-608.4443 897,-589.4443 836,-589.4443"/>
<text text-anchor="middle" x="866.5" y="-596.4443" font-family="Helvetica,sans-Serif" font-size="10.00" fill="#000000">__list_add</text>
</a>
</g>
</g>
<!-- Node5311&#45;&gt;Node5312 -->
<g id="edge3" class="edge">
<title>Node5311&#45;&gt;Node5312</title>
<path fill="none" stroke="#191970" d="M753.2102,-598.9443C774.9076,-598.9443 803.0876,-598.9443 825.9141,-598.9443"/>
<polygon fill="#191970" stroke="#191970" points="825.9827,-602.4444 835.9826,-598.9443 825.9826,-595.4444 825.9827,-602.4444"/>
</g>
<!-- Node5315 -->
<g id="node7" class="node">
<title>Node5315</title>
<g id="a_node7"><a xlink:href="quickjs_8c.html#a3cadcaa2bd1e3f9359f1c006f396cfa0" target="_top" xlink:title="add_shape_property">
<polygon fill="none" stroke="#000000" points="342.5,-247.4443 342.5,-266.4443 446.5,-266.4443 446.5,-247.4443 342.5,-247.4443"/>
<text text-anchor="middle" x="394.5" y="-254.4443" font-family="Helvetica,sans-Serif" font-size="10.00" fill="#000000">add_shape_property</text>
</a>
</g>
</g>
<!-- Node5314&#45;&gt;Node5315 -->
<g id="edge6" class="edge">
<title>Node5314&#45;&gt;Node5315</title>
<path fill="none" stroke="#191970" d="M271.3376,-361.4067C277.6272,-358.9428 283.6832,-355.8432 289,-351.9443 313.1624,-334.2254 303.1566,-315.4539 325,-294.9443 335.4654,-285.1179 348.9523,-276.9868 361.2562,-270.8022"/>
<polygon fill="#191970" stroke="#191970" points="362.8466,-273.9215 370.3649,-266.4565 359.8324,-267.6037 362.8466,-273.9215"/>
</g>
<!-- Node5338 -->
<g id="node16" class="node">
<title>Node5338</title>
<g id="a_node16"><a xlink:href="quickjs_8c.html#aab0be018b8f7bdcff45226f502c3f820" target="_top" xlink:title="get_proto_obj">
<polygon fill="none" stroke="#000000" points="681.5,-38.4443 681.5,-57.4443 756.5,-57.4443 756.5,-38.4443 681.5,-38.4443"/>
<text text-anchor="middle" x="719" y="-45.4443" font-family="Helvetica,sans-Serif" font-size="10.00" fill="#000000">get_proto_obj</text>
</a>
</g>
</g>
<!-- Node5314&#45;&gt;Node5338 -->
<g id="edge17" class="edge">
<title>Node5314&#45;&gt;Node5338</title>
<path fill="none" stroke="#191970" d="M277.3568,-361.3271C281.714,-358.8299 285.688,-355.7457 289,-351.9443 376.3461,-251.6913 227.265,-145.099 325,-54.9443 425.1015,37.3934 607.7569,-9.6377 684.0547,-35.126"/>
<polygon fill="#191970" stroke="#191970" points="683.0767,-38.4905 693.6712,-38.4143 685.3416,-31.867 683.0767,-38.4905"/>
</g>
<!-- Node5339 -->
<g id="node17" class="node">
<title>Node5339</title>
<g id="a_node17"><a xlink:href="quickjs_8c.html#a260bfa297ff6cb5bd18e229afaa54663" target="_top" xlink:title="JS_AtomToString">
<polygon fill="none" stroke="#000000" points="518.5,-437.4443 518.5,-456.4443 612.5,-456.4443 612.5,-437.4443 518.5,-437.4443"/>
<text text-anchor="middle" x="565.5" y="-444.4443" font-family="Helvetica,sans-Serif" font-size="10.00" fill="#000000">JS_AtomToString</text>
</a>
</g>
</g>
<!-- Node5314&#45;&gt;Node5339 -->
<g id="edge18" class="edge">
<title>Node5314&#45;&gt;Node5339</title>
<path fill="none" stroke="#191970" d="M260.7849,-380.4928C324.6449,-394.4192 443.2069,-420.2749 512.1021,-435.2994"/>
<polygon fill="#191970" stroke="#191970" points="511.3781,-438.7237 521.8942,-437.4348 512.8696,-431.8844 511.3781,-438.7237"/>
</g>
<!-- Node5342 -->
<g id="node19" class="node">
<title>Node5342</title>
<g id="a_node19"><a xlink:href="quickjs_8h.html#a775522f2d084fc8fa0fcb33f390006b4" target="_top" xlink:title="JS_DupValue">
<polygon fill="none" stroke="#000000" points="828,-475.4443 828,-494.4443 905,-494.4443 905,-475.4443 828,-475.4443"/>
<text text-anchor="middle" x="866.5" y="-482.4443" font-family="Helvetica,sans-Serif" font-size="10.00" fill="#000000">JS_DupValue</text>
</a>
</g>
</g>
<!-- Node5314&#45;&gt;Node5342 -->
<g id="edge27" class="edge">
<title>Node5314&#45;&gt;Node5342</title>
<path fill="none" stroke="#191970" d="M225.111,-380.7364C241.737,-400.1387 281.7742,-443.5231 325,-465.9443 396.003,-502.7736 420.7172,-497.3582 500,-507.9443 573.6023,-517.7719 592.7528,-511.833 667,-512.9443 713.217,-513.636 725.2469,-519.5133 771,-512.9443 791.3011,-510.0295 813.3084,-503.7978 831.0748,-497.9517"/>
<polygon fill="#191970" stroke="#191970" points="832.6563,-501.1111 841.0004,-494.5822 830.406,-494.4826 832.6563,-501.1111"/>
</g>
<!-- Node5361 -->
<g id="node20" class="node">
<title>Node5361</title>
<g id="a_node20"><a xlink:href="quickjs_8c.html#a0a8765bd4012467d9139bc24aabcb3ca" target="_top" xlink:title="JS_DefinePropertyValue">
<polygon fill="none" stroke="#ff0000" points="332.5,-304.4443 332.5,-323.4443 456.5,-323.4443 456.5,-304.4443 332.5,-304.4443"/>
<text text-anchor="middle" x="394.5" y="-311.4443" font-family="Helvetica,sans-Serif" font-size="10.00" fill="#000000">JS_DefinePropertyValue</text>
</a>
</g>
</g>
<!-- Node5314&#45;&gt;Node5361 -->
<g id="edge22" class="edge">
<title>Node5314&#45;&gt;Node5361</title>
<path fill="none" stroke="#191970" d="M255.6653,-361.4077C266.506,-358.5536 278.2613,-355.2881 289,-351.9443 313.1203,-344.4337 339.8953,-334.7734 360.436,-327.0725"/>
<polygon fill="#191970" stroke="#191970" points="361.8618,-330.2754 369.9799,-323.4675 359.3882,-323.727 361.8618,-330.2754"/>
</g>
<!-- Node5742 -->
<g id="node22" class="node">
<title>Node5742</title>
<g id="a_node22"><a xlink:href="quickjs_8c.html#ae11c9bc0861d37234b3118d9d4cde05d" target="_top" xlink:title="js_function_proto">
<polygon fill="none" stroke="#000000" points="349,-551.4443 349,-570.4443 440,-570.4443 440,-551.4443 349,-551.4443"/>
<text text-anchor="middle" x="394.5" y="-558.4443" font-family="Helvetica,sans-Serif" font-size="10.00" fill="#000000">js_function_proto</text>
</a>
</g>
</g>
<!-- Node5314&#45;&gt;Node5742 -->
<g id="edge28" class="edge">
<title>Node5314&#45;&gt;Node5742</title>
<path fill="none" stroke="#191970" d="M220.3179,-380.8521C230.6959,-410.282 265.4493,-497.8676 325,-541.9443 329.3988,-545.2 334.3239,-547.8979 339.467,-550.1335"/>
<polygon fill="#191970" stroke="#191970" points="338.3013,-553.4344 348.8933,-553.6789 340.7656,-546.8825 338.3013,-553.4344"/>
</g>
<!-- Node5539 -->
<g id="node23" class="node">
<title>Node5539</title>
<g id="a_node23"><a xlink:href="quickjs_8c.html#a1030d2020be7d911eb62869f21cc3b70" target="_top" xlink:title="js_new_shape2">
<polygon fill="none" stroke="#ff0000" points="352.5,-437.4443 352.5,-456.4443 436.5,-456.4443 436.5,-437.4443 352.5,-437.4443"/>
<text text-anchor="middle" x="394.5" y="-444.4443" font-family="Helvetica,sans-Serif" font-size="10.00" fill="#000000">js_new_shape2</text>
</a>
</g>
</g>
<!-- Node5314&#45;&gt;Node5539 -->
<g id="edge29" class="edge">
<title>Node5314&#45;&gt;Node5539</title>
<path fill="none" stroke="#191970" d="M235.432,-380.6312C256.6963,-391.6149 292.8648,-409.7119 325,-422.9443 334.5609,-426.8812 345.0294,-430.7295 354.874,-434.1511"/>
<polygon fill="#191970" stroke="#191970" points="353.8594,-437.503 364.4539,-437.418 356.1188,-430.8776 353.8594,-437.503"/>
</g>
<!-- Node5743 -->
<g id="node24" class="node">
<title>Node5743</title>
<g id="a_node24"><a xlink:href="quickjs_8c.html#a27c3a725d4014a35b5bedcdf6e70dec7" target="_top" xlink:title="JS_NewAtomString">
<polygon fill="none" stroke="#ff0000" points="343,-361.4443 343,-380.4443 446,-380.4443 446,-361.4443 343,-361.4443"/>
<text text-anchor="middle" x="394.5" y="-368.4443" font-family="Helvetica,sans-Serif" font-size="10.00" fill="#000000">JS_NewAtomString</text>
</a>
</g>
</g>
<!-- Node5314&#45;&gt;Node5743 -->
<g id="edge34" class="edge">
<title>Node5314&#45;&gt;Node5743</title>
<path fill="none" stroke="#191970" d="M289.196,-370.9443C303.6388,-370.9443 318.688,-370.9443 332.7396,-370.9443"/>
<polygon fill="#191970" stroke="#191970" points="332.7721,-374.4444 342.772,-370.9443 332.772,-367.4444 332.7721,-374.4444"/>
</g>
<!-- Node5744 -->
<g id="node25" class="node">
<title>Node5744</title>
<g id="a_node25"><a xlink:href="quickjs_8c.html#a21cfe4c4fc9372dc0b95b37667cff0c9" target="_top" xlink:title="JS_NewCFunction3">
<polygon fill="none" stroke="#ff0000" points="342.5,-200.4443 342.5,-219.4443 446.5,-219.4443 446.5,-200.4443 342.5,-200.4443"/>
<text text-anchor="middle" x="394.5" y="-207.4443" font-family="Helvetica,sans-Serif" font-size="10.00" fill="#000000">JS_NewCFunction3</text>
</a>
</g>
</g>
<!-- Node5314&#45;&gt;Node5744 -->
<g id="edge36" class="edge">
<title>Node5314&#45;&gt;Node5744</title>
<path fill="none" stroke="#191970" d="M275.2316,-361.3382C280.2728,-358.863 284.9762,-355.7799 289,-351.9443 327.4591,-315.2836 288.9053,-276.9351 325,-237.9443 330.4057,-232.1048 337.1964,-227.4573 344.4014,-223.7655"/>
<polygon fill="#191970" stroke="#191970" points="345.9994,-226.8844 353.6764,-219.5826 343.1216,-220.5033 345.9994,-226.8844"/>
</g>
<!-- Node5535 -->
<g id="node26" class="node">
<title>Node5535</title>
<g id="a_node26"><a xlink:href="quickjs_8c.html#a73738c650f11459db0d7af3dcdf8316b" target="_top" xlink:title="JS_NewObjectProtoClass">
<polygon fill="none" stroke="#ff0000" points="500,-57.4443 500,-76.4443 631,-76.4443 631,-57.4443 500,-57.4443"/>
<text text-anchor="middle" x="565.5" y="-64.4443" font-family="Helvetica,sans-Serif" font-size="10.00" fill="#000000">JS_NewObjectProtoClass</text>
</a>
</g>
</g>
<!-- Node5314&#45;&gt;Node5535 -->
<g id="edge43" class="edge">
<title>Node5314&#45;&gt;Node5535</title>
<path fill="none" stroke="#191970" d="M276.9138,-361.4235C281.4252,-358.9129 285.5529,-355.7989 289,-351.9443 362.0715,-270.2329 248.3599,-186.3183 325,-107.9443 367.0086,-64.9852 436.3088,-57.0466 489.7552,-58.5075"/>
<polygon fill="#191970" stroke="#191970" points="489.7516,-62.0099 499.8798,-58.9003 490.023,-55.0152 489.7516,-62.0099"/>
</g>
<!-- Node5709 -->
<g id="node27" class="node">
<title>Node5709</title>
<g id="a_node27"><a xlink:href="quickjs_8c.html#afc0d8ea75588216ec132a6e1655524a7" target="_top" xlink:title="JS_NewObject">
<polygon fill="none" stroke="#000000" points="353,-157.4443 353,-176.4443 436,-176.4443 436,-157.4443 353,-157.4443"/>
<text text-anchor="middle" x="394.5" y="-164.4443" font-family="Helvetica,sans-Serif" font-size="10.00" fill="#000000">JS_NewObject</text>
</a>
</g>
</g>
<!-- Node5314&#45;&gt;Node5709 -->
<g id="edge39" class="edge">
<title>Node5314&#45;&gt;Node5709</title>
<path fill="none" stroke="#191970" d="M276.2726,-361.3303C280.9786,-358.8456 285.3239,-355.7628 289,-351.9443 339.8519,-299.1211 276.1505,-245.6245 325,-190.9443 330.0283,-185.3158 336.4411,-181.007 343.3308,-177.7086"/>
<polygon fill="#191970" stroke="#191970" points="344.9878,-180.8133 352.9361,-173.8079 342.354,-174.3277 344.9878,-180.8133"/>
</g>
<!-- Node5584 -->
<g id="node28" class="node">
<title>Node5584</title>
<g id="a_node28"><a xlink:href="quickjs_8c.html#a884d294acbf5be675ffc760e38bd0521" target="_top" xlink:title="JS_NewObjectProto">
<polygon fill="none" stroke="#000000" points="341.5,-117.4443 341.5,-136.4443 447.5,-136.4443 447.5,-117.4443 341.5,-117.4443"/>
<text text-anchor="middle" x="394.5" y="-124.4443" font-family="Helvetica,sans-Serif" font-size="10.00" fill="#000000">JS_NewObjectProto</text>
</a>
</g>
</g>
<!-- Node5314&#45;&gt;Node5584 -->
<g id="edge41" class="edge">
<title>Node5314&#45;&gt;Node5584</title>
<path fill="none" stroke="#191970" d="M276.7985,-361.3189C281.3341,-358.8303 285.4989,-355.75 289,-351.9443 351.3333,-284.1873 263.8767,-216.7947 325,-147.9443 327.2594,-145.3992 329.8153,-143.1574 332.5801,-141.1832"/>
<polygon fill="#191970" stroke="#191970" points="334.5409,-144.0914 341.4131,-136.0277 331.0122,-138.0458 334.5409,-144.0914"/>
</g>
<!-- Node5745 -->
<g id="node29" class="node">
<title>Node5745</title>
<g id="a_node29"><a xlink:href="quickjs_8c.html#ac00854b7f1f0f8567af964a2f8f2adb0" target="_top" xlink:title="JS_SetPropertyFunctionList">
<polygon fill="none" stroke="#ff0000" points="325,-513.4443 325,-532.4443 464,-532.4443 464,-513.4443 325,-513.4443"/>
<text text-anchor="middle" x="394.5" y="-520.4443" font-family="Helvetica,sans-Serif" font-size="10.00" fill="#000000">JS_SetPropertyFunctionList</text>
</a>
</g>
</g>
<!-- Node5314&#45;&gt;Node5745 -->
<g id="edge44" class="edge">
<title>Node5314&#45;&gt;Node5745</title>
<path fill="none" stroke="#191970" d="M222.5035,-380.4896C236.548,-404.0329 276.0869,-465.3931 325,-498.9443 331.1515,-503.1638 338.1161,-506.7075 345.2021,-509.6641"/>
<polygon fill="#191970" stroke="#191970" points="344.2838,-513.0593 354.8749,-513.3402 346.7706,-506.5159 344.2838,-513.0593"/>
</g>
<!-- Node5316 -->
<g id="node8" class="node">
<title>Node5316</title>
<g id="a_node8"><a xlink:href="quickjs_8c.html#a288254c06a39c9fca740a7abdad2834e" target="_top" xlink:title="__JS_AtomIsTaggedInt">
<polygon fill="none" stroke="#000000" points="807,-285.4443 807,-304.4443 926,-304.4443 926,-285.4443 807,-285.4443"/>
<text text-anchor="middle" x="866.5" y="-292.4443" font-family="Helvetica,sans-Serif" font-size="10.00" fill="#000000">__JS_AtomIsTaggedInt</text>
</a>
</g>
</g>
<!-- Node5315&#45;&gt;Node5316 -->
<g id="edge7" class="edge">
<title>Node5315&#45;&gt;Node5316</title>
<path fill="none" stroke="#191970" d="M431.9539,-247.4028C500.617,-231.5764 650.6498,-204.759 771,-237.9443 799.7933,-245.8837 828.6586,-265.04 846.9959,-278.9587"/>
<polygon fill="#191970" stroke="#191970" points="845.0718,-281.8971 855.1058,-285.2988 849.3832,-276.3823 845.0718,-281.8971"/>
</g>
<!-- Node5317 -->
<g id="node9" class="node">
<title>Node5317</title>
<g id="a_node9"><a xlink:href="quickjs_8c.html#a643df594b75933007bcdbb071b5ea8c5" target="_top" xlink:title="get_shape_prop">
<polygon fill="none" stroke="#000000" points="676,-247.4443 676,-266.4443 762,-266.4443 762,-247.4443 676,-247.4443"/>
<text text-anchor="middle" x="719" y="-254.4443" font-family="Helvetica,sans-Serif" font-size="10.00" fill="#000000">get_shape_prop</text>
</a>
</g>
</g>
<!-- Node5315&#45;&gt;Node5317 -->
<g id="edge8" class="edge">
<title>Node5315&#45;&gt;Node5317</title>
<path fill="none" stroke="#191970" d="M446.6365,-256.9443C506.7593,-256.9443 605.0764,-256.9443 665.6906,-256.9443"/>
<polygon fill="#191970" stroke="#191970" points="665.8172,-260.4444 675.8172,-256.9443 665.8172,-253.4444 665.8172,-260.4444"/>
</g>
<!-- Node5318 -->
<g id="node10" class="node">
<title>Node5318</title>
<g id="a_node10"><a xlink:href="quickjs_8c.html#abbf44eaeace1104a6bef718fbf5700fe" target="_top" xlink:title="JS_DupAtom">
<polygon fill="none" stroke="#ff0000" points="528,-171.4443 528,-190.4443 603,-190.4443 603,-171.4443 528,-171.4443"/>
<text text-anchor="middle" x="565.5" y="-178.4443" font-family="Helvetica,sans-Serif" font-size="10.00" fill="#000000">JS_DupAtom</text>
</a>
</g>
</g>
<!-- Node5315&#45;&gt;Node5318 -->
<g id="edge9" class="edge">
<title>Node5315&#45;&gt;Node5318</title>
<path fill="none" stroke="#191970" d="M421.8129,-247.4256C434.8651,-242.5054 450.5389,-236.0465 464,-228.9443 481.0075,-219.9709 482.8521,-213.6464 500,-204.9443 508.0037,-200.8826 516.8625,-197.1612 525.4107,-193.9236"/>
<polygon fill="#191970" stroke="#191970" points="526.6681,-197.1906 534.8678,-190.4813 524.2738,-190.6128 526.6681,-197.1906"/>
</g>
<!-- Node5320 -->
<g id="node11" class="node">
<title>Node5320</title>
<g id="a_node11"><a xlink:href="quickjs_8c.html#a82dbe63adeac7849406fd48d96f39f7b" target="_top" xlink:title="js_shape_hash_link">
<polygon fill="none" stroke="#ff0000" points="514.5,-399.4443 514.5,-418.4443 616.5,-418.4443 616.5,-399.4443 514.5,-399.4443"/>
<text text-anchor="middle" x="565.5" y="-406.4443" font-family="Helvetica,sans-Serif" font-size="10.00" fill="#000000">js_shape_hash_link</text>
</a>
</g>
</g>
<!-- Node5315&#45;&gt;Node5320 -->
<g id="edge10" class="edge">
<title>Node5315&#45;&gt;Node5320</title>
<path fill="none" stroke="#191970" d="M421.9477,-266.5765C436.1472,-272.7658 452.8031,-282.0832 464,-294.9443 493.648,-328.9988 466.8229,-359.3175 500,-389.9443 501.6965,-391.5104 503.5146,-392.9481 505.4259,-394.268"/>
<polygon fill="#191970" stroke="#191970" points="503.8938,-397.4232 514.3152,-399.3324 507.359,-391.3411 503.8938,-397.4232"/>
</g>
<!-- Node5322 -->
<g id="node12" class="node">
<title>Node5322</title>
<g id="a_node12"><a xlink:href="quickjs_8c.html#ae5e76f4be6214208cc91f10a192fc810" target="_top" xlink:title="js_shape_hash_unlink">
<polygon fill="none" stroke="#ff0000" points="509,-133.4443 509,-152.4443 622,-152.4443 622,-133.4443 509,-133.4443"/>
<text text-anchor="middle" x="565.5" y="-140.4443" font-family="Helvetica,sans-Serif" font-size="10.00" fill="#000000">js_shape_hash_unlink</text>
</a>
</g>
</g>
<!-- Node5315&#45;&gt;Node5322 -->
<g id="edge11" class="edge">
<title>Node5315&#45;&gt;Node5322</title>
<path fill="none" stroke="#191970" d="M431.4674,-247.4328C442.8499,-243.1702 454.7942,-237.1888 464,-228.9443 489.1817,-206.3922 473.7156,-183.201 500,-161.9443 502.2441,-160.1294 504.6546,-158.488 507.1796,-157.0033"/>
<polygon fill="#191970" stroke="#191970" points="508.7458,-160.1334 516.1297,-152.5354 505.6193,-153.8704 508.7458,-160.1334"/>
</g>
<!-- Node5323 -->
<g id="node13" class="node">
<title>Node5323</title>
<g id="a_node13"><a xlink:href="quickjs_8c.html#acab22c2945c4d609e57a2484feb68a96" target="_top" xlink:title="prop_hash_end">
<polygon fill="none" stroke="#000000" points="677.5,-361.4443 677.5,-380.4443 760.5,-380.4443 760.5,-361.4443 677.5,-361.4443"/>
<text text-anchor="middle" x="719" y="-368.4443" font-family="Helvetica,sans-Serif" font-size="10.00" fill="#000000">prop_hash_end</text>
</a>
</g>
</g>
<!-- Node5315&#45;&gt;Node5323 -->
<g id="edge12" class="edge">
<title>Node5315&#45;&gt;Node5323</title>
<path fill="none" stroke="#191970" d="M411.9131,-266.4936C440.6847,-282.2519 495.4477,-312.1524 500,-313.9443 530.2856,-325.8651 613.1053,-346.2319 667.7709,-359.1184"/>
<polygon fill="#191970" stroke="#191970" points="667.0962,-362.5551 677.6315,-361.4339 668.6964,-355.7405 667.0962,-362.5551"/>
</g>
<!-- Node5324 -->
<g id="node14" class="node">
<title>Node5324</title>
<g id="a_node14"><a xlink:href="quickjs_8c.html#aa80740ff93b724ea7e0c280826f4a25a" target="_top" xlink:title="resize_properties">
<polygon fill="none" stroke="#ff0000" points="520,-361.4443 520,-380.4443 611,-380.4443 611,-361.4443 520,-361.4443"/>
<text text-anchor="middle" x="565.5" y="-368.4443" font-family="Helvetica,sans-Serif" font-size="10.00" fill="#000000">resize_properties</text>
</a>
</g>
</g>
<!-- Node5315&#45;&gt;Node5324 -->
<g id="edge13" class="edge">
<title>Node5315&#45;&gt;Node5324</title>
<path fill="none" stroke="#191970" d="M418.1247,-266.5069C432.4511,-273.0776 450.5073,-282.8012 464,-294.9443 484.8936,-313.748 477.7636,-329.7493 500,-346.9443 505.407,-351.1254 511.6134,-354.6295 518.004,-357.5518"/>
<polygon fill="#191970" stroke="#191970" points="516.8473,-360.8605 527.427,-361.4281 519.5105,-354.3869 516.8473,-360.8605"/>
</g>
<!-- Node5337 -->
<g id="node15" class="node">
<title>Node5337</title>
<g id="a_node15"><a xlink:href="quickjs_8c.html#a11f047846c1027dc6066a5f1b2ef292a" target="_top" xlink:title="shape_hash">
<polygon fill="none" stroke="#000000" points="531,-95.4443 531,-114.4443 600,-114.4443 600,-95.4443 531,-95.4443"/>
<text text-anchor="middle" x="565.5" y="-102.4443" font-family="Helvetica,sans-Serif" font-size="10.00" fill="#000000">shape_hash</text>
</a>
</g>
</g>
<!-- Node5315&#45;&gt;Node5337 -->
<g id="edge16" class="edge">
<title>Node5315&#45;&gt;Node5337</title>
<path fill="none" stroke="#191970" d="M434.8299,-247.3253C445.4471,-243.1531 456.1215,-237.2492 464,-228.9443 497.953,-193.1536 464.2895,-157.9816 500,-123.9443 505.8455,-118.3727 513.2254,-114.4212 520.9073,-111.6221"/>
<polygon fill="#191970" stroke="#191970" points="522.1482,-114.9034 530.7063,-108.6577 520.1212,-108.2033 522.1482,-114.9034"/>
</g>
<!-- Node5324&#45;&gt;Node5311 -->
<g id="edge14" class="edge">
<title>Node5324&#45;&gt;Node5311</title>
<path fill="none" stroke="#191970" d="M611.2137,-378.4737C618.4157,-381.1996 625.3396,-384.9061 631,-389.9443 638.6189,-396.7256 691.5812,-529.5164 711.4729,-579.837"/>
<polygon fill="#191970" stroke="#191970" points="708.2604,-581.2314 715.1874,-589.2481 714.7716,-578.6615 708.2604,-581.2314"/>
</g>
<!-- Node5324&#45;&gt;Node5323 -->
<g id="edge15" class="edge">
<title>Node5324&#45;&gt;Node5323</title>
<path fill="none" stroke="#191970" d="M611.1395,-370.9443C628.804,-370.9443 649.1151,-370.9443 667.3141,-370.9443"/>
<polygon fill="#191970" stroke="#191970" points="667.4623,-374.4444 677.4623,-370.9443 667.4622,-367.4444 667.4623,-374.4444"/>
</g>
<!-- Node5340 -->
<g id="node18" class="node">
<title>Node5340</title>
<g id="a_node18"><a xlink:href="quickjs_8c.html#a06ff303a11e6641cbf1f6634e6a61811" target="_top" xlink:title="__JS_AtomToValue">
<polygon fill="none" stroke="#ff0000" points="667,-437.4443 667,-456.4443 771,-456.4443 771,-437.4443 667,-437.4443"/>
<text text-anchor="middle" x="719" y="-444.4443" font-family="Helvetica,sans-Serif" font-size="10.00" fill="#000000">__JS_AtomToValue</text>
</a>
</g>
</g>
<!-- Node5339&#45;&gt;Node5340 -->
<g id="edge19" class="edge">
<title>Node5339&#45;&gt;Node5340</title>
<path fill="none" stroke="#191970" d="M612.8076,-446.9443C626.6927,-446.9443 642.0932,-446.9443 656.7601,-446.9443"/>
<polygon fill="#191970" stroke="#191970" points="656.7692,-450.4444 666.7692,-446.9443 656.7691,-443.4444 656.7692,-450.4444"/>
</g>
<!-- Node5340&#45;&gt;Node5316 -->
<g id="edge20" class="edge">
<title>Node5340&#45;&gt;Node5316</title>
<path fill="none" stroke="#191970" d="M728.2268,-437.436C752.6463,-412.2714 819.2078,-343.6793 850.2086,-311.7327"/>
<polygon fill="#191970" stroke="#191970" points="852.8244,-314.0629 857.2767,-304.449 847.8008,-309.1881 852.8244,-314.0629"/>
</g>
<!-- Node5340&#45;&gt;Node5342 -->
<g id="edge21" class="edge">
<title>Node5340&#45;&gt;Node5342</title>
<path fill="none" stroke="#191970" d="M756.2205,-456.5333C775.5093,-461.5026 799.2584,-467.621 819.771,-472.9056"/>
<polygon fill="#191970" stroke="#191970" points="818.9902,-476.3187 829.5472,-475.4242 820.7366,-469.54 818.9902,-476.3187"/>
</g>
<!-- Node5362 -->
<g id="node21" class="node">
<title>Node5362</title>
<g id="a_node21"><a xlink:href="quickjs_8c.html#ab50618f1bf78e444caa6da0e3e2785d7" target="_top" xlink:title="JS_DefineProperty">
<polygon fill="none" stroke="#ff0000" points="516,-285.4443 516,-304.4443 615,-304.4443 615,-285.4443 516,-285.4443"/>
<text text-anchor="middle" x="565.5" y="-292.4443" font-family="Helvetica,sans-Serif" font-size="10.00" fill="#000000">JS_DefineProperty</text>
</a>
</g>
</g>
<!-- Node5361&#45;&gt;Node5362 -->
<g id="edge23" class="edge">
<title>Node5361&#45;&gt;Node5362</title>
<path fill="none" stroke="#191970" d="M456.7187,-307.0311C472.699,-305.2555 489.854,-303.3494 505.7086,-301.5878"/>
<polygon fill="#191970" stroke="#191970" points="506.3618,-305.0368 515.9141,-300.4538 505.5888,-298.0796 506.3618,-305.0368"/>
</g>
<!-- Node5362&#45;&gt;Node5316 -->
<g id="edge24" class="edge">
<title>Node5362&#45;&gt;Node5316</title>
<path fill="none" stroke="#191970" d="M615.204,-294.9443C664.72,-294.9443 741.1768,-294.9443 796.7565,-294.9443"/>
<polygon fill="#191970" stroke="#191970" points="796.8804,-298.4444 806.8804,-294.9443 796.8803,-291.4444 796.8804,-298.4444"/>
</g>
<!-- Node5362&#45;&gt;Node5317 -->
<g id="edge25" class="edge">
<title>Node5362&#45;&gt;Node5317</title>
<path fill="none" stroke="#191970" d="M604.2345,-285.3553C624.3993,-280.3633 649.2479,-274.2119 670.6611,-268.9109"/>
<polygon fill="#191970" stroke="#191970" points="671.6781,-272.2649 680.544,-266.4643 669.9959,-265.47 671.6781,-272.2649"/>
</g>
<!-- Node5362&#45;&gt;Node5342 -->
<g id="edge26" class="edge">
<title>Node5362&#45;&gt;Node5342</title>
<path fill="none" stroke="#191970" d="M614.5632,-304.5074C667.0047,-315.4272 745.9852,-334.0951 771,-351.9443 813.2477,-382.0899 843.8095,-436.8863 857.8649,-465.8383"/>
<polygon fill="#191970" stroke="#191970" points="854.8643,-467.6823 862.2875,-475.2419 861.1988,-464.7032 854.8643,-467.6823"/>
</g>
<!-- Node5539&#45;&gt;Node5310 -->
<g id="edge30" class="edge">
<title>Node5539&#45;&gt;Node5310</title>
<path fill="none" stroke="#191970" d="M406.7532,-456.5939C420.7968,-467.7449 444.4011,-486.768 464,-503.9443 480.2265,-518.165 523.2952,-558.8591 547.7986,-582.1126"/>
<polygon fill="#191970" stroke="#191970" points="545.6698,-584.9179 555.3311,-589.2666 550.4904,-579.8422 545.6698,-584.9179"/>
</g>
<!-- Node5539&#45;&gt;Node5320 -->
<g id="edge32" class="edge">
<title>Node5539&#45;&gt;Node5320</title>
<path fill="none" stroke="#191970" d="M436.7697,-437.551C459.7181,-432.4514 488.305,-426.0987 512.7068,-420.6761"/>
<polygon fill="#191970" stroke="#191970" points="513.5263,-424.0795 522.5288,-418.4934 512.0077,-417.2461 513.5263,-424.0795"/>
</g>
<!-- Node5539&#45;&gt;Node5323 -->
<g id="edge33" class="edge">
<title>Node5539&#45;&gt;Node5323</title>
<path fill="none" stroke="#191970" d="M419.6043,-456.4494C464.2477,-471.7657 559.4684,-497.1886 631,-465.9443 633.3922,-464.8994 678.6577,-415.3391 703.3097,-388.2298"/>
<polygon fill="#191970" stroke="#191970" points="706.0935,-390.3706 710.2282,-380.6158 700.9128,-385.6631 706.0935,-390.3706"/>
</g>
<!-- Node5539&#45;&gt;Node5342 -->
<g id="edge31" class="edge">
<title>Node5539&#45;&gt;Node5342</title>
<path fill="none" stroke="#191970" d="M424.1253,-456.5507C436.5336,-460.7351 451.0548,-465.8432 464,-470.9443 480.29,-477.3633 482.8723,-483.3095 500,-486.9443 611.8288,-510.676 747.2082,-500.1122 818.0017,-491.7021"/>
<polygon fill="#191970" stroke="#191970" points="818.4673,-495.1713 827.9675,-490.4812 817.616,-488.2232 818.4673,-495.1713"/>
</g>
<!-- Node5743&#45;&gt;Node5339 -->
<g id="edge35" class="edge">
<title>Node5743&#45;&gt;Node5339</title>
<path fill="none" stroke="#191970" d="M431.1013,-380.4738C442.0968,-384.1443 453.9104,-388.9343 464,-394.9443 482.6475,-406.0519 481.0797,-417.3079 500,-427.9443 503.9382,-430.1582 508.1575,-432.1342 512.4867,-433.8941"/>
<polygon fill="#191970" stroke="#191970" points="511.4793,-437.2526 522.073,-437.41 513.8897,-430.6807 511.4793,-437.2526"/>
</g>
<!-- Node5744&#45;&gt;Node5535 -->
<g id="edge37" class="edge">
<title>Node5744&#45;&gt;Node5535</title>
<path fill="none" stroke="#191970" d="M440.8218,-200.4332C449.3313,-196.9922 457.5496,-192.311 464,-185.9443 497.6187,-152.7616 465.5595,-118.2732 500,-85.9443 501.6834,-84.3641 503.4904,-82.9144 505.3924,-81.5845"/>
<polygon fill="#191970" stroke="#191970" points="507.329,-84.5082 514.2512,-76.4874 503.838,-78.4408 507.329,-84.5082"/>
</g>
<!-- Node5535&#45;&gt;Node5338 -->
<g id="edge38" class="edge">
<title>Node5535&#45;&gt;Node5338</title>
<path fill="none" stroke="#191970" d="M631.0431,-58.8314C644.4119,-57.1767 658.2443,-55.4645 670.8705,-53.9017"/>
<polygon fill="#191970" stroke="#191970" points="671.6619,-57.3305 681.1562,-52.6285 670.802,-50.3835 671.6619,-57.3305"/>
</g>
<!-- Node5709&#45;&gt;Node5535 -->
<g id="edge40" class="edge">
<title>Node5709&#45;&gt;Node5535</title>
<path fill="none" stroke="#191970" d="M436.2389,-159.7182C446.0312,-156.626 455.9462,-152.2195 464,-145.9443 488.5311,-126.8305 475.3631,-104.9215 500,-85.9443 502.4535,-84.0544 505.0894,-82.3524 507.8448,-80.8195"/>
<polygon fill="#191970" stroke="#191970" points="509.4477,-83.9329 516.9749,-76.477 506.441,-77.6115 509.4477,-83.9329"/>
</g>
<!-- Node5584&#45;&gt;Node5535 -->
<g id="edge42" class="edge">
<title>Node5584&#45;&gt;Node5535</title>
<path fill="none" stroke="#191970" d="M418.9503,-117.4413C450.0948,-105.3367 499.936,-85.9659 500,-85.9443 506.5551,-83.7238 513.5317,-81.5267 520.3954,-79.4582"/>
<polygon fill="#191970" stroke="#191970" points="521.7088,-82.7199 530.3086,-76.5317 519.7268,-76.0063 521.7088,-82.7199"/>
</g>
</g>
</svg>
