<?xml version="1.0" encoding="UTF-8" standalone="no"?>
<!DOCTYPE svg PUBLIC "-//W3C//DTD SVG 1.1//EN"
 "http://www.w3.org/Graphics/SVG/1.1/DTD/svg11.dtd">
<!-- Generated by graphviz version 2.40.1 (20161225.0304)
 -->
<!-- Title: JS_SetContextOpaque Pages: 1 -->
<svg width="542pt" height="28pt"
 viewBox="0.00 0.00 542.00 28.00" xmlns="http://www.w3.org/2000/svg" xmlns:xlink="http://www.w3.org/1999/xlink">
<g id="graph0" class="graph" transform="scale(1 1) rotate(0) translate(4 24)">
<title>JS_SetContextOpaque</title>
<!-- Node68333 -->
<g id="node1" class="node">
<title>Node68333</title>
<polygon fill="#bfbfbf" stroke="#000000" points="0,-.5 0,-19.5 117,-19.5 117,-.5 0,-.5"/>
<text text-anchor="middle" x="58.5" y="-7.5" font-family="Helvetica,sans-Serif" font-size="10.00" fill="#000000">JS_SetContextOpaque</text>
</g>
<!-- Node68334 -->
<g id="node2" class="node">
<title>Node68334</title>
<g id="a_node2"><a xlink:href="classqjs_1_1Context.html#aae629cc551168d549a405db5c762b61e" target="_top" xlink:title="qjs::Context::init">
<polygon fill="none" stroke="#000000" points="153,-.5 153,-19.5 242,-19.5 242,-.5 153,-.5"/>
<text text-anchor="middle" x="197.5" y="-7.5" font-family="Helvetica,sans-Serif" font-size="10.00" fill="#000000">qjs::Context::init</text>
</a>
</g>
</g>
<!-- Node68333&#45;&gt;Node68334 -->
<g id="edge1" class="edge">
<title>Node68333&#45;&gt;Node68334</title>
<path fill="none" stroke="#191970" d="M127.2605,-10C135.9963,-10 144.7476,-10 152.9624,-10"/>
<polygon fill="#191970" stroke="#191970" points="127.0457,-6.5001 117.0457,-10 127.0456,-13.5001 127.0457,-6.5001"/>
</g>
<!-- Node68335 -->
<g id="node3" class="node">
<title>Node68335</title>
<g id="a_node3"><a xlink:href="classqjs_1_1Context.html#a4392a23648acfc4bf6b445336efb5007" target="_top" xlink:title="qjs::Context::Context">
<polygon fill="none" stroke="#000000" points="278,-.5 278,-19.5 388,-19.5 388,-.5 278,-.5"/>
<text text-anchor="middle" x="333" y="-7.5" font-family="Helvetica,sans-Serif" font-size="10.00" fill="#000000">qjs::Context::Context</text>
</a>
</g>
</g>
<!-- Node68334&#45;&gt;Node68335 -->
<g id="edge2" class="edge">
<title>Node68334&#45;&gt;Node68335</title>
<path fill="none" stroke="#191970" d="M252.3476,-10C260.7739,-10 269.4767,-10 277.9083,-10"/>
<polygon fill="#191970" stroke="#191970" points="252.2433,-6.5001 242.2433,-10 252.2433,-13.5001 252.2433,-6.5001"/>
</g>
<!-- Node68336 -->
<g id="node4" class="node">
<title>Node68336</title>
<g id="a_node4"><a xlink:href="classqjs_1_1Context.html#af725fb8083d8c33a37198d6acaf1a836" target="_top" xlink:title="qjs::Context::Context">
<polygon fill="none" stroke="#ff0000" points="424,-.5 424,-19.5 534,-19.5 534,-.5 424,-.5"/>
<text text-anchor="middle" x="479" y="-7.5" font-family="Helvetica,sans-Serif" font-size="10.00" fill="#000000">qjs::Context::Context</text>
</a>
</g>
</g>
<!-- Node68335&#45;&gt;Node68336 -->
<g id="edge3" class="edge">
<title>Node68335&#45;&gt;Node68336</title>
<path fill="none" stroke="#191970" d="M398.4101,-10C406.8647,-10 415.4567,-10 423.7256,-10"/>
<polygon fill="#191970" stroke="#191970" points="398.1964,-6.5001 388.1963,-10 398.1963,-13.5001 398.1964,-6.5001"/>
</g>
</g>
</svg>
