<?xml version="1.0" encoding="UTF-8" standalone="no"?>
<!DOCTYPE svg PUBLIC "-//W3C//DTD SVG 1.1//EN"
 "http://www.w3.org/Graphics/SVG/1.1/DTD/svg11.dtd">
<!-- Generated by graphviz version 2.40.1 (20161225.0304)
 -->
<!-- Title: js_array_reduce Pages: 1 -->
<svg width="832pt" height="1044pt"
 viewBox="0.00 0.00 832.00 1044.17" xmlns="http://www.w3.org/2000/svg" xmlns:xlink="http://www.w3.org/1999/xlink">
<g id="graph0" class="graph" transform="scale(1 1) rotate(0) translate(4 1040.1678)">
<title>js_array_reduce</title>
<!-- Node394186 -->
<g id="node1" class="node">
<title>Node394186</title>
<polygon fill="#bfbfbf" stroke="#000000" points="0,-731.6678 0,-750.6678 86,-750.6678 86,-731.6678 0,-731.6678"/>
<text text-anchor="middle" x="43" y="-738.6678" font-family="Helvetica,sans-Serif" font-size="10.00" fill="#000000">js_array_reduce</text>
</g>
<!-- Node394187 -->
<g id="node2" class="node">
<title>Node394187</title>
<g id="a_node2"><a xlink:href="quickjs_8c.html#a59a7e992f228759bf0a56f0aae4f3cc3" target="_top" xlink:title="check_function">
<polygon fill="none" stroke="#000000" points="130,-1016.6678 130,-1035.6678 213,-1035.6678 213,-1016.6678 130,-1016.6678"/>
<text text-anchor="middle" x="171.5" y="-1023.6678" font-family="Helvetica,sans-Serif" font-size="10.00" fill="#000000">check_function</text>
</a>
</g>
</g>
<!-- Node394186&#45;&gt;Node394187 -->
<g id="edge1" class="edge">
<title>Node394186&#45;&gt;Node394187</title>
<path fill="none" stroke="#191970" d="M43.2452,-750.7521C44.6817,-787.7506 54.5293,-923.1331 122,-1002.1678 125.1295,-1005.8337 128.949,-1008.987 133.0647,-1011.6873"/>
<polygon fill="#191970" stroke="#191970" points="131.3727,-1014.7512 141.8027,-1016.6128 134.8101,-1008.6533 131.3727,-1014.7512"/>
</g>
<!-- Node394189 -->
<g id="node4" class="node">
<title>Node394189</title>
<g id="a_node4"><a xlink:href="quickjs_8c.html#a1a4c02a29525d5cb2085dd8bca3af350" target="_top" xlink:title="JS_Call">
<polygon fill="none" stroke="#000000" points="146,-522.6678 146,-541.6678 197,-541.6678 197,-522.6678 146,-522.6678"/>
<text text-anchor="middle" x="171.5" y="-529.6678" font-family="Helvetica,sans-Serif" font-size="10.00" fill="#000000">JS_Call</text>
</a>
</g>
</g>
<!-- Node394186&#45;&gt;Node394189 -->
<g id="edge3" class="edge">
<title>Node394186&#45;&gt;Node394189</title>
<path fill="none" stroke="#191970" d="M48.8553,-731.6444C68.757,-699.2751 134.0167,-593.1329 160.3419,-550.3159"/>
<polygon fill="#191970" stroke="#191970" points="163.3543,-552.099 165.6103,-541.7471 157.3912,-548.4327 163.3543,-552.099"/>
</g>
<!-- Node394222 -->
<g id="node11" class="node">
<title>Node394222</title>
<g id="a_node11"><a xlink:href="quickjs_8h.html#a775522f2d084fc8fa0fcb33f390006b4" target="_top" xlink:title="JS_DupValue">
<polygon fill="none" stroke="#000000" points="609.5,-693.6678 609.5,-712.6678 686.5,-712.6678 686.5,-693.6678 609.5,-693.6678"/>
<text text-anchor="middle" x="648" y="-700.6678" font-family="Helvetica,sans-Serif" font-size="10.00" fill="#000000">JS_DupValue</text>
</a>
</g>
</g>
<!-- Node394186&#45;&gt;Node394222 -->
<g id="edge40" class="edge">
<title>Node394186&#45;&gt;Node394222</title>
<path fill="none" stroke="#191970" d="M86.3138,-742.9006C174.1996,-745.7541 379.5938,-749.0514 550,-726.1678 568.0731,-723.7408 587.6942,-719.4712 604.5988,-715.2643"/>
<polygon fill="#191970" stroke="#191970" points="605.9153,-718.5403 614.7352,-712.67 604.1796,-711.7588 605.9153,-718.5403"/>
</g>
<!-- Node394261 -->
<g id="node12" class="node">
<title>Node394261</title>
<g id="a_node12"><a xlink:href="quickjs_8h.html#ad80a83d73e9b7d872b88fbf2943aebe9" target="_top" xlink:title="JS_IsException">
<polygon fill="none" stroke="#000000" points="605,-826.6678 605,-845.6678 691,-845.6678 691,-826.6678 605,-826.6678"/>
<text text-anchor="middle" x="648" y="-833.6678" font-family="Helvetica,sans-Serif" font-size="10.00" fill="#000000">JS_IsException</text>
</a>
</g>
</g>
<!-- Node394186&#45;&gt;Node394261 -->
<g id="edge47" class="edge">
<title>Node394186&#45;&gt;Node394261</title>
<path fill="none" stroke="#191970" d="M53.0418,-750.9661C67.4165,-764.6183 95.1033,-789.553 122,-806.1678 250.8459,-885.7595 289.7754,-905.32 439,-931.1678 487.6095,-939.5876 506.7947,-954.9812 550,-931.1678 576.241,-916.7046 564.6709,-895.2117 586,-874.1678 595.4082,-864.8854 607.4899,-856.8402 618.4851,-850.5725"/>
<polygon fill="#191970" stroke="#191970" points="620.2675,-853.5874 627.3831,-845.7376 616.9254,-847.4367 620.2675,-853.5874"/>
</g>
<!-- Node394243 -->
<g id="node15" class="node">
<title>Node394243</title>
<g id="a_node15"><a xlink:href="quickjs_8h.html#afaa20c47565bc704c6c85f3d77254e7d" target="_top" xlink:title="JS_FreeValue">
<polygon fill="none" stroke="#ff0000" points="746,-579.6678 746,-598.6678 824,-598.6678 824,-579.6678 746,-579.6678"/>
<text text-anchor="middle" x="785" y="-586.6678" font-family="Helvetica,sans-Serif" font-size="10.00" fill="#000000">JS_FreeValue</text>
</a>
</g>
</g>
<!-- Node394186&#45;&gt;Node394243 -->
<g id="edge41" class="edge">
<title>Node394186&#45;&gt;Node394243</title>
<path fill="none" stroke="#191970" d="M47.9382,-750.8505C71.9901,-796.5172 181.76,-988.1678 330,-988.1678 330,-988.1678 330,-988.1678 494.5,-988.1678 596.0594,-988.1678 642.2768,-987.8506 710,-912.1678 751.0179,-866.329 775.8175,-671.9436 782.8932,-608.9557"/>
<polygon fill="#191970" stroke="#191970" points="786.3971,-609.111 784.0081,-598.789 779.4388,-608.3479 786.3971,-609.111"/>
</g>
<!-- Node394464 -->
<g id="node21" class="node">
<title>Node394464</title>
<g id="a_node21"><a xlink:href="quickjs_8c.html#a710289a14c2810467e5b448d3c28bd55" target="_top" xlink:title="JS_ToObject">
<polygon fill="none" stroke="#ff0000" points="457.5,-674.6678 457.5,-693.6678 531.5,-693.6678 531.5,-674.6678 457.5,-674.6678"/>
<text text-anchor="middle" x="494.5" y="-681.6678" font-family="Helvetica,sans-Serif" font-size="10.00" fill="#000000">JS_ToObject</text>
</a>
</g>
</g>
<!-- Node394186&#45;&gt;Node394464 -->
<g id="edge51" class="edge">
<title>Node394186&#45;&gt;Node394464</title>
<path fill="none" stroke="#191970" d="M86.2917,-735.7024C171.322,-724.9677 359.5032,-701.2106 447.4661,-690.1056"/>
<polygon fill="#191970" stroke="#191970" points="447.9477,-693.5727 457.4305,-688.8477 447.0708,-686.6278 447.9477,-693.5727"/>
</g>
<!-- Node394618 -->
<g id="node22" class="node">
<title>Node394618</title>
<g id="a_node22"><a xlink:href="quickjs_8c.html#a5f848f76409193212a44e6221e430919" target="_top" xlink:title="js_get_length64">
<polygon fill="none" stroke="#000000" points="452,-902.6678 452,-921.6678 537,-921.6678 537,-902.6678 452,-902.6678"/>
<text text-anchor="middle" x="494.5" y="-909.6678" font-family="Helvetica,sans-Serif" font-size="10.00" fill="#000000">js_get_length64</text>
</a>
</g>
</g>
<!-- Node394186&#45;&gt;Node394618 -->
<g id="edge42" class="edge">
<title>Node394186&#45;&gt;Node394618</title>
<path fill="none" stroke="#191970" d="M65.3749,-750.8012C81.1385,-757.5176 102.7769,-766.5957 122,-774.1678 244.3724,-822.3709 391.1446,-875.3406 458.0502,-899.2239"/>
<polygon fill="#191970" stroke="#191970" points="457.1137,-902.6057 467.7084,-902.6675 459.4646,-896.0123 457.1137,-902.6057"/>
</g>
<!-- Node394460 -->
<g id="node24" class="node">
<title>Node394460</title>
<g id="a_node24"><a xlink:href="quickjs_8h.html#a6acbc709e59969eac6775f9b253b438f" target="_top" xlink:title="JS_NewInt64">
<polygon fill="none" stroke="#000000" points="456.5,-142.6678 456.5,-161.6678 532.5,-161.6678 532.5,-142.6678 456.5,-142.6678"/>
<text text-anchor="middle" x="494.5" y="-149.6678" font-family="Helvetica,sans-Serif" font-size="10.00" fill="#000000">JS_NewInt64</text>
</a>
</g>
</g>
<!-- Node394186&#45;&gt;Node394460 -->
<g id="edge48" class="edge">
<title>Node394186&#45;&gt;Node394460</title>
<path fill="none" stroke="#191970" d="M44.3195,-731.4939C51.1031,-682.8203 83.2402,-464.8858 122,-410.1678 163.2598,-351.9206 191.6371,-351.8523 257,-323.1678 318.3986,-296.2231 353.4821,-330.376 403,-285.1678 437.885,-253.319 408.9336,-221.6002 439,-185.1678 445.1831,-177.6755 453.5396,-171.4743 461.8896,-166.5486"/>
<polygon fill="#191970" stroke="#191970" points="463.7149,-169.5405 470.8446,-161.7035 460.3838,-163.3839 463.7149,-169.5405"/>
</g>
<!-- Node394622 -->
<g id="node25" class="node">
<title>Node394622</title>
<g id="a_node25"><a xlink:href="quickjs_8c.html#a14674e74168715dc5a3a391910982e5d" target="_top" xlink:title="JS_TryGetPropertyInt64">
<polygon fill="none" stroke="#000000" points="269,-332.6678 269,-351.6678 391,-351.6678 391,-332.6678 269,-332.6678"/>
<text text-anchor="middle" x="330" y="-339.6678" font-family="Helvetica,sans-Serif" font-size="10.00" fill="#000000">JS_TryGetPropertyInt64</text>
</a>
</g>
</g>
<!-- Node394186&#45;&gt;Node394622 -->
<g id="edge52" class="edge">
<title>Node394186&#45;&gt;Node394622</title>
<path fill="none" stroke="#191970" d="M44.3969,-731.6474C49.6031,-698.6918 70.3017,-587.4321 122,-513.1678 172.0145,-441.3223 260.1536,-383.0877 303.8811,-356.994"/>
<polygon fill="#191970" stroke="#191970" points="305.9096,-359.8616 312.7567,-351.7766 302.3622,-353.827 305.9096,-359.8616"/>
</g>
<!-- Node394624 -->
<g id="node27" class="node">
<title>Node394624</title>
<g id="a_node27"><a xlink:href="quickjs_8c.html#add71c7e0efcb1fd14572d39e2672971d" target="_top" xlink:title="js_typed_array_get\l_length_internal">
<polygon fill="none" stroke="#000000" points="122,-226.1678 122,-256.1678 221,-256.1678 221,-226.1678 122,-226.1678"/>
<text text-anchor="start" x="130" y="-244.1678" font-family="Helvetica,sans-Serif" font-size="10.00" fill="#000000">js_typed_array_get</text>
<text text-anchor="middle" x="171.5" y="-233.1678" font-family="Helvetica,sans-Serif" font-size="10.00" fill="#000000">_length_internal</text>
</a>
</g>
</g>
<!-- Node394186&#45;&gt;Node394624 -->
<g id="edge63" class="edge">
<title>Node394186&#45;&gt;Node394624</title>
<path fill="none" stroke="#191970" d="M43.8956,-731.4322C49.3648,-673.2724 79.4452,-371.522 122,-290.1678 127.2667,-280.0992 135.3364,-270.8202 143.4418,-263.1076"/>
<polygon fill="#191970" stroke="#191970" points="146.0196,-265.4975 151.1335,-256.2185 141.3493,-260.2832 146.0196,-265.4975"/>
</g>
<!-- Node394188 -->
<g id="node3" class="node">
<title>Node394188</title>
<g id="a_node3"><a xlink:href="quickjs_8c.html#a1ca9cdb1fa2ffc3e6506e92b200e490f" target="_top" xlink:title="JS_IsFunction">
<polygon fill="none" stroke="#000000" points="290,-1016.6678 290,-1035.6678 370,-1035.6678 370,-1016.6678 290,-1016.6678"/>
<text text-anchor="middle" x="330" y="-1023.6678" font-family="Helvetica,sans-Serif" font-size="10.00" fill="#000000">JS_IsFunction</text>
</a>
</g>
</g>
<!-- Node394187&#45;&gt;Node394188 -->
<g id="edge2" class="edge">
<title>Node394187&#45;&gt;Node394188</title>
<path fill="none" stroke="#191970" d="M213.144,-1026.1678C233.4801,-1026.1678 258.1171,-1026.1678 279.5164,-1026.1678"/>
<polygon fill="#191970" stroke="#191970" points="279.7284,-1029.6679 289.7284,-1026.1678 279.7283,-1022.6679 279.7284,-1029.6679"/>
</g>
<!-- Node394190 -->
<g id="node5" class="node">
<title>Node394190</title>
<g id="a_node5"><a xlink:href="quickjs_8c.html#ac2894ff4edcdb4e6841bcce9c76081e3" target="_top" xlink:title="JS_CallInternal">
<polygon fill="none" stroke="#ff0000" points="288.5,-522.6678 288.5,-541.6678 371.5,-541.6678 371.5,-522.6678 288.5,-522.6678"/>
<text text-anchor="middle" x="330" y="-529.6678" font-family="Helvetica,sans-Serif" font-size="10.00" fill="#000000">JS_CallInternal</text>
</a>
</g>
</g>
<!-- Node394189&#45;&gt;Node394190 -->
<g id="edge4" class="edge">
<title>Node394189&#45;&gt;Node394190</title>
<path fill="none" stroke="#191970" d="M197.3185,-527.0271C219.1756,-525.4357 251.1825,-525.0246 278.2837,-525.7938"/>
<polygon fill="#191970" stroke="#191970" points="278.283,-529.2958 288.3989,-526.1463 278.5269,-522.3 278.283,-529.2958"/>
</g>
<!-- Node394190&#45;&gt;Node394189 -->
<g id="edge16" class="edge">
<title>Node394190&#45;&gt;Node394189</title>
<path fill="none" stroke="#191970" d="M288.3989,-538.1893C263.248,-539.2412 231.5066,-539.154 207.4482,-537.9277"/>
<polygon fill="#191970" stroke="#191970" points="207.5135,-534.4253 197.3185,-537.3085 207.0863,-541.4122 207.5135,-534.4253"/>
</g>
<!-- Node394190&#45;&gt;Node394190 -->
<g id="edge17" class="edge">
<title>Node394190&#45;&gt;Node394190</title>
<path fill="none" stroke="#191970" d="M305.6476,-541.9249C293.8005,-550.7331 301.918,-560.1678 330,-560.1678 348.4288,-560.1678 358.2596,-556.1046 359.4924,-550.8218"/>
<polygon fill="#191970" stroke="#191970" points="362.3855,-548.8328 354.3524,-541.9249 356.3243,-552.3346 362.3855,-548.8328"/>
</g>
<!-- Node394191 -->
<g id="node6" class="node">
<title>Node394191</title>
<g id="a_node6"><a xlink:href="quickjs_8c.html#a853f0924d441ea4225488f37c8b69f9a" target="_top" xlink:title="__attribute__">
<polygon fill="none" stroke="#000000" points="458,-522.6678 458,-541.6678 531,-541.6678 531,-522.6678 458,-522.6678"/>
<text text-anchor="middle" x="494.5" y="-529.6678" font-family="Helvetica,sans-Serif" font-size="10.00" fill="#000000">__attribute__</text>
</a>
</g>
</g>
<!-- Node394190&#45;&gt;Node394191 -->
<g id="edge5" class="edge">
<title>Node394190&#45;&gt;Node394191</title>
<path fill="none" stroke="#191970" d="M371.5103,-532.1678C394.6422,-532.1678 423.5256,-532.1678 447.4883,-532.1678"/>
<polygon fill="#191970" stroke="#191970" points="447.7686,-535.6679 457.7686,-532.1678 447.7685,-528.6679 447.7686,-535.6679"/>
</g>
<!-- Node394192 -->
<g id="node7" class="node">
<title>Node394192</title>
<g id="a_node7"><a xlink:href="quickjs_8c.html#a877fcb7651d95b411ce70e62b7f4a1f0" target="_top" xlink:title="__JS_AtomFromUInt32">
<polygon fill="none" stroke="#000000" points="588.5,-28.6678 588.5,-47.6678 707.5,-47.6678 707.5,-28.6678 588.5,-28.6678"/>
<text text-anchor="middle" x="648" y="-35.6678" font-family="Helvetica,sans-Serif" font-size="10.00" fill="#000000">__JS_AtomFromUInt32</text>
</a>
</g>
</g>
<!-- Node394190&#45;&gt;Node394192 -->
<g id="edge6" class="edge">
<title>Node394190&#45;&gt;Node394192</title>
<path fill="none" stroke="#191970" d="M335.2189,-522.4757C348.7422,-496.9112 385.109,-425.2116 403,-361.1678 433.5585,-251.7789 366.3125,-195.4391 439,-108.1678 472.995,-67.3522 531.5748,-50.2186 578.0819,-43.0852"/>
<polygon fill="#191970" stroke="#191970" points="578.6966,-46.5332 588.1099,-41.671 577.7191,-39.6018 578.6966,-46.5332"/>
</g>
<!-- Node394193 -->
<g id="node8" class="node">
<title>Node394193</title>
<g id="a_node8"><a xlink:href="quickjs_8h.html#a9bf98b18de88b4199910a43e933eb97d" target="_top" xlink:title="__JS_NewFloat64">
<polygon fill="none" stroke="#000000" points="599.5,-256.6678 599.5,-275.6678 696.5,-275.6678 696.5,-256.6678 599.5,-256.6678"/>
<text text-anchor="middle" x="648" y="-263.6678" font-family="Helvetica,sans-Serif" font-size="10.00" fill="#000000">__JS_NewFloat64</text>
</a>
</g>
</g>
<!-- Node394190&#45;&gt;Node394193 -->
<g id="edge7" class="edge">
<title>Node394190&#45;&gt;Node394193</title>
<path fill="none" stroke="#191970" d="M334.0445,-522.6492C353.147,-477.7367 433.6348,-289.0219 439,-285.1678 482.1912,-254.1416 544.0728,-252.3186 589.2911,-256.4839"/>
<polygon fill="#191970" stroke="#191970" points="588.9405,-259.9663 599.2495,-257.5217 589.6662,-253.004 588.9405,-259.9663"/>
</g>
<!-- Node394194 -->
<g id="node9" class="node">
<title>Node394194</title>
<g id="a_node9"><a xlink:href="quickjs_8c.html#a74547db03bf739a52c83a326b32db997" target="_top" xlink:title="add_property">
<polygon fill="none" stroke="#ff0000" points="458,-636.6678 458,-655.6678 531,-655.6678 531,-636.6678 458,-636.6678"/>
<text text-anchor="middle" x="494.5" y="-643.6678" font-family="Helvetica,sans-Serif" font-size="10.00" fill="#000000">add_property</text>
</a>
</g>
</g>
<!-- Node394190&#45;&gt;Node394194 -->
<g id="edge8" class="edge">
<title>Node394190&#45;&gt;Node394194</title>
<path fill="none" stroke="#191970" d="M339.7804,-541.8958C358.0221,-559.6442 399.0198,-597.7009 439,-622.1678 445.279,-626.0104 452.2826,-629.5487 459.1425,-632.6611"/>
<polygon fill="#191970" stroke="#191970" points="457.7585,-635.8758 468.3265,-636.6297 460.5353,-629.45 457.7585,-635.8758"/>
</g>
<!-- Node394251 -->
<g id="node10" class="node">
<title>Node394251</title>
<g id="a_node10"><a xlink:href="quickjs_8c.html#a4956f45ffd2849b96dc051277264f87a" target="_top" xlink:title="build_arg_list">
<polygon fill="none" stroke="#ff0000" points="457.5,-826.6678 457.5,-845.6678 531.5,-845.6678 531.5,-826.6678 457.5,-826.6678"/>
<text text-anchor="middle" x="494.5" y="-833.6678" font-family="Helvetica,sans-Serif" font-size="10.00" fill="#000000">build_arg_list</text>
</a>
</g>
</g>
<!-- Node394190&#45;&gt;Node394251 -->
<g id="edge9" class="edge">
<title>Node394190&#45;&gt;Node394251</title>
<path fill="none" stroke="#191970" d="M331.0691,-541.7832C335.8924,-580.7989 359.0004,-729.1593 439,-812.1678 442.6401,-815.9448 446.9737,-819.1617 451.5914,-821.8933"/>
<polygon fill="#191970" stroke="#191970" points="450.218,-825.1223 460.7138,-826.5677 453.4103,-818.8925 450.218,-825.1223"/>
</g>
<!-- Node394190&#45;&gt;Node394222 -->
<g id="edge19" class="edge">
<title>Node394190&#45;&gt;Node394222</title>
<path fill="none" stroke="#191970" d="M332.6277,-541.9684C341.4544,-572.6746 373.2511,-667.1076 439,-703.1678 490.0608,-731.1723 559.2466,-724.0622 603.7607,-714.8599"/>
<polygon fill="#191970" stroke="#191970" points="604.6726,-718.2433 613.6936,-712.687 603.1766,-711.405 604.6726,-718.2433"/>
</g>
<!-- Node394190&#45;&gt;Node394261 -->
<g id="edge33" class="edge">
<title>Node394190&#45;&gt;Node394261</title>
<path fill="none" stroke="#191970" d="M331.7187,-541.8264C340.7423,-591.3406 384.3134,-815.9059 439,-855.1678 492.8172,-893.8055 575.627,-867.9689 619.0908,-849.7561"/>
<polygon fill="#191970" stroke="#191970" points="620.7192,-852.8649 628.4991,-845.673 617.9323,-846.4435 620.7192,-852.8649"/>
</g>
<!-- Node394347 -->
<g id="node13" class="node">
<title>Node394347</title>
<g id="a_node13"><a xlink:href="quickjs_8c.html#a61c8dfb5e807af1b6ff7d8ca61576dda" target="_top" xlink:title="build_backtrace">
<polygon fill="none" stroke="#ff0000" points="452,-408.6678 452,-427.6678 537,-427.6678 537,-408.6678 452,-408.6678"/>
<text text-anchor="middle" x="494.5" y="-415.6678" font-family="Helvetica,sans-Serif" font-size="10.00" fill="#000000">build_backtrace</text>
</a>
</g>
</g>
<!-- Node394190&#45;&gt;Node394347 -->
<g id="edge12" class="edge">
<title>Node394190&#45;&gt;Node394347</title>
<path fill="none" stroke="#191970" d="M339.7804,-522.4398C358.0221,-504.6914 399.0198,-466.6347 439,-442.1678 445.279,-438.3252 452.2826,-434.7869 459.1425,-431.6745"/>
<polygon fill="#191970" stroke="#191970" points="460.5353,-434.8856 468.3265,-427.7059 457.7585,-428.4599 460.5353,-434.8856"/>
</g>
<!-- Node394365 -->
<g id="node14" class="node">
<title>Node394365</title>
<g id="a_node14"><a xlink:href="quickjs_8c.html#a0a8765bd4012467d9139bc24aabcb3ca" target="_top" xlink:title="JS_DefinePropertyValue">
<polygon fill="none" stroke="#ff0000" points="586,-598.6678 586,-617.6678 710,-617.6678 710,-598.6678 586,-598.6678"/>
<text text-anchor="middle" x="648" y="-605.6678" font-family="Helvetica,sans-Serif" font-size="10.00" fill="#000000">JS_DefinePropertyValue</text>
</a>
</g>
</g>
<!-- Node394190&#45;&gt;Node394365 -->
<g id="edge18" class="edge">
<title>Node394190&#45;&gt;Node394365</title>
<path fill="none" stroke="#191970" d="M345.9498,-541.8636C366.6157,-553.9265 404.1375,-574.1531 439,-584.1678 483.3346,-596.9035 534.7933,-602.9144 575.5562,-605.736"/>
<polygon fill="#191970" stroke="#191970" points="575.4743,-609.2379 585.6783,-606.3868 575.9235,-602.2523 575.4743,-609.2379"/>
</g>
<!-- Node394190&#45;&gt;Node394243 -->
<g id="edge21" class="edge">
<title>Node394190&#45;&gt;Node394243</title>
<path fill="none" stroke="#191970" d="M371.5686,-540.0492C391.8576,-543.7334 416.6534,-547.9963 439,-551.1678 544.3506,-566.1196 668.4661,-578.4806 735.6931,-584.7413"/>
<polygon fill="#191970" stroke="#191970" points="735.7027,-588.2571 745.9826,-585.6932 736.3476,-581.2868 735.7027,-588.2571"/>
</g>
<!-- Node394262 -->
<g id="node16" class="node">
<title>Node394262</title>
<g id="a_node16"><a xlink:href="quickjs_8h.html#a2050bc428da1c65ac7eb87c3fa3b0392" target="_top" xlink:title="JS_NewInt32">
<polygon fill="none" stroke="#000000" points="610,-332.6678 610,-351.6678 686,-351.6678 686,-332.6678 610,-332.6678"/>
<text text-anchor="middle" x="648" y="-339.6678" font-family="Helvetica,sans-Serif" font-size="10.00" fill="#000000">JS_NewInt32</text>
</a>
</g>
</g>
<!-- Node394190&#45;&gt;Node394262 -->
<g id="edge34" class="edge">
<title>Node394190&#45;&gt;Node394262</title>
<path fill="none" stroke="#191970" d="M335.1403,-522.3998C348.6436,-497.7205 387.6491,-432.4638 439,-399.1678 488.1843,-367.2766 554.9491,-353.0897 599.6563,-346.8704"/>
<polygon fill="#191970" stroke="#191970" points="600.2225,-350.3263 609.6834,-345.5575 599.3136,-343.3855 600.2225,-350.3263"/>
</g>
<!-- Node394242 -->
<g id="node17" class="node">
<title>Node394242</title>
<g id="a_node17"><a xlink:href="quickjs_8c.html#ab7fc45a99935a1c0ba50b0216d9401a9" target="_top" xlink:title="JS_FreeAtom">
<polygon fill="none" stroke="#ff0000" points="609.5,-104.6678 609.5,-123.6678 686.5,-123.6678 686.5,-104.6678 609.5,-104.6678"/>
<text text-anchor="middle" x="648" y="-111.6678" font-family="Helvetica,sans-Serif" font-size="10.00" fill="#000000">JS_FreeAtom</text>
</a>
</g>
</g>
<!-- Node394190&#45;&gt;Node394242 -->
<g id="edge20" class="edge">
<title>Node394190&#45;&gt;Node394242</title>
<path fill="none" stroke="#191970" d="M335.1631,-522.4599C348.5516,-496.8571 384.6209,-425.0732 403,-361.1678 417.1775,-311.8717 401.5535,-168.223 439,-133.1678 461.3641,-112.2319 544.5296,-110.6025 598.9676,-111.9491"/>
<polygon fill="#191970" stroke="#191970" points="599.0142,-115.4518 609.1111,-112.2421 599.2164,-108.4547 599.0142,-115.4518"/>
</g>
<!-- Node394254 -->
<g id="node18" class="node">
<title>Node394254</title>
<g id="a_node18"><a xlink:href="quickjs_8h.html#a89b7c8686c7eee70b86be722ee4730ad" target="_top" xlink:title="JS_GetProperty">
<polygon fill="none" stroke="#ff0000" points="605,-427.6678 605,-446.6678 691,-446.6678 691,-427.6678 605,-427.6678"/>
<text text-anchor="middle" x="648" y="-434.6678" font-family="Helvetica,sans-Serif" font-size="10.00" fill="#000000">JS_GetProperty</text>
</a>
</g>
</g>
<!-- Node394190&#45;&gt;Node394254 -->
<g id="edge22" class="edge">
<title>Node394190&#45;&gt;Node394254</title>
<path fill="none" stroke="#191970" d="M344.8668,-522.5244C365.264,-509.7398 403.4536,-487.3767 439,-475.1678 490.3425,-457.5335 551.7413,-447.6149 594.6568,-442.3693"/>
<polygon fill="#191970" stroke="#191970" points="595.0858,-445.8431 604.6072,-441.1962 594.2662,-438.8912 595.0858,-445.8431"/>
</g>
<!-- Node394319 -->
<g id="node19" class="node">
<title>Node394319</title>
<g id="a_node19"><a xlink:href="quickjs_8c.html#a90d6e607f6917d817c1e997bd2e6ed07" target="_top" xlink:title="JS_GetPropertyValue">
<polygon fill="none" stroke="#ff0000" points="439,-294.6678 439,-313.6678 550,-313.6678 550,-294.6678 439,-294.6678"/>
<text text-anchor="middle" x="494.5" y="-301.6678" font-family="Helvetica,sans-Serif" font-size="10.00" fill="#000000">JS_GetPropertyValue</text>
</a>
</g>
</g>
<!-- Node394190&#45;&gt;Node394319 -->
<g id="edge23" class="edge">
<title>Node394190&#45;&gt;Node394319</title>
<path fill="none" stroke="#191970" d="M332.6045,-522.6458C341.7736,-490.7871 375.4852,-386.6433 439,-328.1678 443.1511,-324.346 448.0058,-321.0711 453.0855,-318.2818"/>
<polygon fill="#191970" stroke="#191970" points="454.903,-321.2901 462.3687,-313.7725 451.8445,-314.9936 454.903,-321.2901"/>
</g>
<!-- Node394491 -->
<g id="node20" class="node">
<title>Node394491</title>
<g id="a_node20"><a xlink:href="quickjs_8c.html#a9d6d0a9704951d01c128975e0d2213f8" target="_top" xlink:title="JS_HasProperty">
<polygon fill="none" stroke="#ff0000" points="450,-484.6678 450,-503.6678 539,-503.6678 539,-484.6678 450,-484.6678"/>
<text text-anchor="middle" x="494.5" y="-491.6678" font-family="Helvetica,sans-Serif" font-size="10.00" fill="#000000">JS_HasProperty</text>
</a>
</g>
</g>
<!-- Node394190&#45;&gt;Node394491 -->
<g id="edge30" class="edge">
<title>Node394190&#45;&gt;Node394491</title>
<path fill="none" stroke="#191970" d="M371.5103,-522.5788C393.3156,-517.5417 420.2318,-511.324 443.3191,-505.9907"/>
<polygon fill="#191970" stroke="#191970" points="444.3326,-509.3489 453.2882,-503.6879 442.757,-502.5285 444.3326,-509.3489"/>
</g>
<!-- Node394190&#45;&gt;Node394464 -->
<g id="edge35" class="edge">
<title>Node394190&#45;&gt;Node394464</title>
<path fill="none" stroke="#191970" d="M335.2694,-541.7435C349.0756,-565.9715 388.7334,-630.2564 439,-665.1678 441.8467,-667.1449 444.9173,-668.9321 448.1019,-670.5449"/>
<polygon fill="#191970" stroke="#191970" points="446.7294,-673.7651 457.288,-674.6416 449.5806,-667.372 446.7294,-673.7651"/>
</g>
<!-- Node394251&#45;&gt;Node394222 -->
<g id="edge10" class="edge">
<title>Node394251&#45;&gt;Node394222</title>
<path fill="none" stroke="#191970" d="M505.5393,-826.6028C531.4118,-804.1856 596.2271,-748.0264 628.7516,-719.8456"/>
<polygon fill="#191970" stroke="#191970" points="631.3808,-722.1986 636.6465,-713.005 626.7969,-716.9082 631.3808,-722.1986"/>
</g>
<!-- Node394251&#45;&gt;Node394261 -->
<g id="edge11" class="edge">
<title>Node394251&#45;&gt;Node394261</title>
<path fill="none" stroke="#191970" d="M531.6581,-836.1678C550.5582,-836.1678 573.8693,-836.1678 594.6498,-836.1678"/>
<polygon fill="#191970" stroke="#191970" points="594.9323,-839.6679 604.9322,-836.1678 594.9322,-832.6679 594.9323,-839.6679"/>
</g>
<!-- Node394347&#45;&gt;Node394365 -->
<g id="edge13" class="edge">
<title>Node394347&#45;&gt;Node394365</title>
<path fill="none" stroke="#191970" d="M504.7559,-427.8665C516.2347,-438.9078 535.1674,-457.6842 550,-475.1678 583.2161,-514.3207 617.8987,-563.7519 635.7545,-589.9411"/>
<polygon fill="#191970" stroke="#191970" points="633.0307,-592.1609 641.5377,-598.4761 638.8257,-588.2343 633.0307,-592.1609"/>
</g>
<!-- Node394347&#45;&gt;Node394262 -->
<g id="edge15" class="edge">
<title>Node394347&#45;&gt;Node394262</title>
<path fill="none" stroke="#191970" d="M513.9409,-408.5424C540.5839,-395.351 588.6335,-371.561 619.3884,-356.3338"/>
<polygon fill="#191970" stroke="#191970" points="621.3082,-359.2888 628.717,-351.7151 618.2022,-353.0156 621.3082,-359.2888"/>
</g>
<!-- Node394365&#45;&gt;Node394243 -->
<g id="edge14" class="edge">
<title>Node394365&#45;&gt;Node394243</title>
<path fill="none" stroke="#191970" d="M710.0865,-599.5573C718.7437,-598.3566 727.5388,-597.1369 735.9121,-595.9756"/>
<polygon fill="#191970" stroke="#191970" points="736.4545,-599.434 745.8788,-594.5934 735.4928,-592.5004 736.4545,-599.434"/>
</g>
<!-- Node394319&#45;&gt;Node394193 -->
<g id="edge24" class="edge">
<title>Node394319&#45;&gt;Node394193</title>
<path fill="none" stroke="#191970" d="M533.2345,-294.5788C553.3993,-289.5869 578.2479,-283.4354 599.6611,-278.1344"/>
<polygon fill="#191970" stroke="#191970" points="600.6781,-281.4884 609.544,-275.6879 598.9959,-274.6935 600.6781,-281.4884"/>
</g>
<!-- Node394319&#45;&gt;Node394222 -->
<g id="edge25" class="edge">
<title>Node394319&#45;&gt;Node394222</title>
<path fill="none" stroke="#191970" d="M501.8066,-313.8197C513.9164,-330.3416 537.9983,-365.5249 550,-399.1678 584.4697,-495.7923 544.1264,-533.514 586,-627.1678 596.3213,-650.2522 615.5307,-672.1283 629.8436,-686.4304"/>
<polygon fill="#191970" stroke="#191970" points="627.5848,-689.1151 637.2039,-693.5563 632.4538,-684.0859 627.5848,-689.1151"/>
</g>
<!-- Node394319&#45;&gt;Node394243 -->
<g id="edge27" class="edge">
<title>Node394319&#45;&gt;Node394243</title>
<path fill="none" stroke="#191970" d="M539.1784,-294.6065C587.0112,-287.143 662.4268,-283.7471 710,-323.1678 748.7982,-355.3173 774.4169,-513.7603 782.3665,-569.6266"/>
<polygon fill="#191970" stroke="#191970" points="778.9144,-570.214 783.7565,-579.6377 785.8479,-569.2513 778.9144,-570.214"/>
</g>
<!-- Node394319&#45;&gt;Node394262 -->
<g id="edge29" class="edge">
<title>Node394319&#45;&gt;Node394262</title>
<path fill="none" stroke="#191970" d="M533.2345,-313.7568C553.4759,-318.7677 578.4369,-324.947 599.9052,-330.2616"/>
<polygon fill="#191970" stroke="#191970" points="599.2615,-333.7078 609.8096,-332.7135 600.9437,-326.913 599.2615,-333.7078"/>
</g>
<!-- Node394319&#45;&gt;Node394242 -->
<g id="edge26" class="edge">
<title>Node394319&#45;&gt;Node394242</title>
<path fill="none" stroke="#191970" d="M504.7559,-294.4691C516.2347,-283.4278 535.1674,-264.6514 550,-247.1678 583.2161,-208.0149 617.8987,-158.5837 635.7545,-132.3945"/>
<polygon fill="#191970" stroke="#191970" points="638.8257,-134.1014 641.5377,-123.8595 633.0307,-130.1747 638.8257,-134.1014"/>
</g>
<!-- Node394319&#45;&gt;Node394254 -->
<g id="edge28" class="edge">
<title>Node394319&#45;&gt;Node394254</title>
<path fill="none" stroke="#191970" d="M505.5393,-313.7328C531.4118,-336.15 596.2271,-392.3092 628.7516,-420.49"/>
<polygon fill="#191970" stroke="#191970" points="626.7969,-423.4274 636.6465,-427.3306 631.3808,-418.137 626.7969,-423.4274"/>
</g>
<!-- Node394491&#45;&gt;Node394222 -->
<g id="edge31" class="edge">
<title>Node394491&#45;&gt;Node394222</title>
<path fill="none" stroke="#191970" d="M536.7353,-503.7762C541.6409,-506.2282 546.2292,-509.3056 550,-513.1678 587.1179,-551.1858 560.7561,-580.4147 586,-627.1678 598.0139,-649.4182 616.9522,-671.428 630.739,-685.9892"/>
<polygon fill="#191970" stroke="#191970" points="628.3189,-688.5213 637.7916,-693.2667 633.3457,-683.6498 628.3189,-688.5213"/>
</g>
<!-- Node394491&#45;&gt;Node394243 -->
<g id="edge32" class="edge">
<title>Node394491&#45;&gt;Node394243</title>
<path fill="none" stroke="#191970" d="M533.5398,-503.7122C577.0993,-514.7496 649.4168,-534.2369 710,-556.1678 725.3919,-561.7396 742.1,-568.9699 755.8312,-575.242"/>
<polygon fill="#191970" stroke="#191970" points="754.6973,-578.574 765.2422,-579.6022 757.6401,-572.2226 754.6973,-578.574"/>
</g>
<!-- Node394464&#45;&gt;Node394222 -->
<g id="edge37" class="edge">
<title>Node394464&#45;&gt;Node394222</title>
<path fill="none" stroke="#191970" d="M531.6581,-688.7672C551.9563,-691.2797 577.3424,-694.4219 599.2173,-697.1296"/>
<polygon fill="#191970" stroke="#191970" points="598.9577,-700.6241 609.3119,-698.3791 599.8176,-693.6771 598.9577,-700.6241"/>
</g>
<!-- Node394464&#45;&gt;Node394261 -->
<g id="edge38" class="edge">
<title>Node394464&#45;&gt;Node394261</title>
<path fill="none" stroke="#191970" d="M504.1021,-693.6761C529.515,-718.8406 598.784,-787.4328 631.0459,-819.3794"/>
<polygon fill="#191970" stroke="#191970" points="628.8331,-822.1138 638.4015,-826.6631 633.7585,-817.1398 628.8331,-822.1138"/>
</g>
<!-- Node394464&#45;&gt;Node394365 -->
<g id="edge36" class="edge">
<title>Node394464&#45;&gt;Node394365</title>
<path fill="none" stroke="#191970" d="M526.0364,-674.5744C533.9788,-671.8324 542.4032,-668.6364 550,-665.1678 576.7399,-652.9586 605.6339,-635.5953 625.0679,-623.2469"/>
<polygon fill="#191970" stroke="#191970" points="627.0246,-626.1499 633.5433,-617.7977 623.2389,-620.2618 627.0246,-626.1499"/>
</g>
<!-- Node394464&#45;&gt;Node394262 -->
<g id="edge39" class="edge">
<title>Node394464&#45;&gt;Node394262</title>
<path fill="none" stroke="#191970" d="M531.7552,-677.691C538.6979,-674.8912 545.2513,-670.8882 550,-665.1678 620.8591,-579.8088 541.3206,-519.7105 586,-418.1678 596.184,-395.0226 615.4154,-373.1562 629.771,-358.8731"/>
<polygon fill="#191970" stroke="#191970" points="632.3828,-361.2168 637.1562,-351.7582 627.5262,-356.1756 632.3828,-361.2168"/>
</g>
<!-- Node394618&#45;&gt;Node394261 -->
<g id="edge44" class="edge">
<title>Node394618&#45;&gt;Node394261</title>
<path fill="none" stroke="#191970" d="M517.6376,-902.6491C527.6683,-898.3976 539.4974,-893.2152 550,-888.1678 574.7651,-876.2661 602.3613,-861.4814 621.943,-850.7226"/>
<polygon fill="#191970" stroke="#191970" points="623.8034,-853.6935 630.8645,-845.7947 620.4188,-847.5661 623.8034,-853.6935"/>
</g>
<!-- Node394618&#45;&gt;Node394254 -->
<g id="edge43" class="edge">
<title>Node394618&#45;&gt;Node394254</title>
<path fill="none" stroke="#191970" d="M507.9777,-902.5142C521.062,-892.3339 540.3222,-875.0351 550,-855.1678 602.2449,-747.9159 555.2257,-704.4303 586,-589.1678 599.2917,-539.385 624.733,-484.1059 638.5334,-455.9241"/>
<polygon fill="#191970" stroke="#191970" points="641.7374,-457.3413 643.047,-446.8277 635.4669,-454.2299 641.7374,-457.3413"/>
</g>
<!-- Node394619 -->
<g id="node23" class="node">
<title>Node394619</title>
<g id="a_node23"><a xlink:href="quickjs_8c.html#a07acd485a57197356906928a788a0644" target="_top" xlink:title="JS_ToLengthFree">
<polygon fill="none" stroke="#ff0000" points="601,-883.6678 601,-902.6678 695,-902.6678 695,-883.6678 601,-883.6678"/>
<text text-anchor="middle" x="648" y="-890.6678" font-family="Helvetica,sans-Serif" font-size="10.00" fill="#000000">JS_ToLengthFree</text>
</a>
</g>
</g>
<!-- Node394618&#45;&gt;Node394619 -->
<g id="edge45" class="edge">
<title>Node394618&#45;&gt;Node394619</title>
<path fill="none" stroke="#191970" d="M537.2583,-906.8752C553.7951,-904.8284 572.9702,-902.4549 590.6703,-900.264"/>
<polygon fill="#191970" stroke="#191970" points="591.396,-903.701 600.8903,-898.999 590.5361,-896.754 591.396,-903.701"/>
</g>
<!-- Node394619&#45;&gt;Node394243 -->
<g id="edge46" class="edge">
<title>Node394619&#45;&gt;Node394243</title>
<path fill="none" stroke="#191970" d="M672.2998,-883.535C685.2306,-877.2553 700.4,-867.8516 710,-855.1678 768.7181,-777.5873 781.4717,-656.0127 784.2367,-608.8174"/>
<polygon fill="#191970" stroke="#191970" points="787.7374,-608.8877 784.7371,-598.7266 780.746,-608.541 787.7374,-608.8877"/>
</g>
<!-- Node394460&#45;&gt;Node394193 -->
<g id="edge50" class="edge">
<title>Node394460&#45;&gt;Node394193</title>
<path fill="none" stroke="#191970" d="M521.3994,-161.6776C530.7982,-165.5423 541.1933,-170.4543 550,-176.1678 582.5567,-197.2896 614.5878,-229.4488 632.7622,-249.0624"/>
<polygon fill="#191970" stroke="#191970" points="630.3398,-251.6004 639.6639,-256.6314 635.5123,-246.8839 630.3398,-251.6004"/>
</g>
<!-- Node394460&#45;&gt;Node394262 -->
<g id="edge49" class="edge">
<title>Node394460&#45;&gt;Node394262</title>
<path fill="none" stroke="#191970" d="M528.8021,-161.6838C536.5978,-165.1865 544.2613,-169.8932 550,-176.1678 584.4319,-213.8149 558.3319,-242.3036 586,-285.1678 596.4725,-301.3921 612.641,-316.0469 625.841,-326.4334"/>
<polygon fill="#191970" stroke="#191970" points="623.9135,-329.3642 633.9969,-332.6161 628.1422,-323.7859 623.9135,-329.3642"/>
</g>
<!-- Node394622&#45;&gt;Node394192 -->
<g id="edge53" class="edge">
<title>Node394622&#45;&gt;Node394192</title>
<path fill="none" stroke="#191970" d="M349.3148,-332.6372C366.4252,-323.1059 390.563,-306.766 403,-285.1678 461.4339,-183.6913 350.7232,-101.1042 439,-24.1678 489.0831,19.4815 574.1172,-6.2955 618.7155,-24.6403"/>
<polygon fill="#191970" stroke="#191970" points="617.5363,-27.9422 628.108,-28.6417 620.2799,-21.5023 617.5363,-27.9422"/>
</g>
<!-- Node394622&#45;&gt;Node394261 -->
<g id="edge58" class="edge">
<title>Node394622&#45;&gt;Node394261</title>
<path fill="none" stroke="#191970" d="M335.0512,-351.9088C348.1698,-377.5914 383.6437,-449.5515 403,-513.1678 428.0183,-595.3928 390.779,-632.0229 439,-703.1678 480.9894,-765.1188 562.4614,-804.3004 610.3401,-823.0432"/>
<polygon fill="#191970" stroke="#191970" points="609.1427,-826.3324 619.7335,-826.6268 611.6378,-819.7922 609.1427,-826.3324"/>
</g>
<!-- Node394622&#45;&gt;Node394262 -->
<g id="edge62" class="edge">
<title>Node394622&#45;&gt;Node394262</title>
<path fill="none" stroke="#191970" d="M380.2745,-332.5671C388.6609,-329.1379 396.6753,-324.4839 403,-318.1678 439.0999,-282.117 397.653,-239.0557 439,-209.1678 478.9815,-180.267 508.3128,-182.7868 550,-209.1678 581.5828,-229.1544 563.8332,-255.0751 586,-285.1678 597.5951,-300.9088 613.9917,-315.7564 627.0109,-326.3497"/>
<polygon fill="#191970" stroke="#191970" points="624.9796,-329.2054 634.9943,-332.6632 629.3217,-323.7149 624.9796,-329.2054"/>
</g>
<!-- Node394622&#45;&gt;Node394242 -->
<g id="edge54" class="edge">
<title>Node394622&#45;&gt;Node394242</title>
<path fill="none" stroke="#191970" d="M348.7125,-332.6592C365.6489,-323.0406 389.8884,-306.5521 403,-285.1678 446.7845,-213.7576 374.3597,-153.4419 439,-100.1678 490.0062,-58.1304 573.9358,-82.841 618.3287,-100.7103"/>
<polygon fill="#191970" stroke="#191970" points="617.1145,-103.9961 627.6913,-104.6155 619.8093,-97.5355 617.1145,-103.9961"/>
</g>
<!-- Node394622&#45;&gt;Node394254 -->
<g id="edge55" class="edge">
<title>Node394622&#45;&gt;Node394254</title>
<path fill="none" stroke="#191970" d="M373.009,-351.746C417.6668,-362.055 489.3499,-379.6254 550,-399.1678 572.4817,-406.4118 597.2826,-416.045 616.3101,-423.7995"/>
<polygon fill="#191970" stroke="#191970" points="615.1116,-427.091 625.6911,-427.6607 617.776,-420.6179 615.1116,-427.091"/>
</g>
<!-- Node394622&#45;&gt;Node394319 -->
<g id="edge56" class="edge">
<title>Node394622&#45;&gt;Node394319</title>
<path fill="none" stroke="#191970" d="M371.5103,-332.5788C393.3156,-327.5417 420.2318,-321.324 443.3191,-315.9907"/>
<polygon fill="#191970" stroke="#191970" points="444.3326,-319.3489 453.2882,-313.6879 442.757,-312.5285 444.3326,-319.3489"/>
</g>
<!-- Node394622&#45;&gt;Node394491 -->
<g id="edge57" class="edge">
<title>Node394622&#45;&gt;Node394491</title>
<path fill="none" stroke="#191970" d="M340.2902,-351.6761C367.6396,-376.9473 442.3871,-446.0149 476.7683,-477.7835"/>
<polygon fill="#191970" stroke="#191970" points="474.4938,-480.4472 484.2137,-484.6631 479.2443,-475.306 474.4938,-480.4472"/>
</g>
<!-- Node394623 -->
<g id="node26" class="node">
<title>Node394623</title>
<g id="a_node26"><a xlink:href="quickjs_8c.html#aa641af3a921335927dab07dc83285917" target="_top" xlink:title="JS_NewAtomInt64">
<polygon fill="none" stroke="#ff0000" points="445,-218.6678 445,-237.6678 544,-237.6678 544,-218.6678 445,-218.6678"/>
<text text-anchor="middle" x="494.5" y="-225.6678" font-family="Helvetica,sans-Serif" font-size="10.00" fill="#000000">JS_NewAtomInt64</text>
</a>
</g>
</g>
<!-- Node394622&#45;&gt;Node394623 -->
<g id="edge59" class="edge">
<title>Node394622&#45;&gt;Node394623</title>
<path fill="none" stroke="#191970" d="M376.7257,-332.6055C386.1149,-329.1575 395.4146,-324.4864 403,-318.1678 428.6729,-296.7822 414.3209,-274.693 439,-252.1678 443.2161,-248.3197 448.145,-245.0236 453.2937,-242.2185"/>
<polygon fill="#191970" stroke="#191970" points="455.2051,-245.1826 462.6924,-237.6866 452.1647,-238.8773 455.2051,-245.1826"/>
</g>
<!-- Node394623&#45;&gt;Node394192 -->
<g id="edge60" class="edge">
<title>Node394623&#45;&gt;Node394192</title>
<path fill="none" stroke="#191970" d="M505.844,-218.5817C517.9332,-207.931 537.0753,-189.7701 550,-171.1678 571.326,-140.4735 563.8332,-125.2605 586,-95.1678 597.5951,-79.4268 613.9917,-64.5792 627.0109,-53.9859"/>
<polygon fill="#191970" stroke="#191970" points="629.3217,-56.6207 634.9943,-47.6724 624.9796,-51.1302 629.3217,-56.6207"/>
</g>
<!-- Node394623&#45;&gt;Node394261 -->
<g id="edge61" class="edge">
<title>Node394623&#45;&gt;Node394261</title>
<path fill="none" stroke="#191970" d="M508.1984,-237.7175C521.4542,-247.817 540.8452,-265.0542 550,-285.1678 630.7311,-462.5396 530.2446,-535.4338 586,-722.1678 596.8851,-758.6239 620.3892,-796.5906 635.1267,-818.2106"/>
<polygon fill="#191970" stroke="#191970" points="632.258,-820.2158 640.8437,-826.4235 638.0031,-816.2165 632.258,-820.2158"/>
</g>
<!-- Node394625 -->
<g id="node28" class="node">
<title>Node394625</title>
<g id="a_node28"><a xlink:href="quickjs_8c.html#af894945c3459f86096c1821a0a696934" target="_top" xlink:title="get_typed_array">
<polygon fill="none" stroke="#000000" points="287,-256.6678 287,-275.6678 373,-275.6678 373,-256.6678 287,-256.6678"/>
<text text-anchor="middle" x="330" y="-263.6678" font-family="Helvetica,sans-Serif" font-size="10.00" fill="#000000">get_typed_array</text>
</a>
</g>
</g>
<!-- Node394624&#45;&gt;Node394625 -->
<g id="edge64" class="edge">
<title>Node394624&#45;&gt;Node394625</title>
<path fill="none" stroke="#191970" d="M221.2155,-249.0094C238.9048,-251.7995 258.8849,-254.9509 276.8505,-257.7846"/>
<polygon fill="#191970" stroke="#191970" points="276.4557,-261.2655 286.8789,-259.3664 277.5464,-254.351 276.4557,-261.2655"/>
</g>
<!-- Node394343 -->
<g id="node29" class="node">
<title>Node394343</title>
<g id="a_node29"><a xlink:href="quickjs_8c.html#a033dd3ebd29c4eb9f0baff1dd0fec0b1" target="_top" xlink:title="JS_ThrowTypeErrorDetached\lArrayBuffer">
<polygon fill="none" stroke="#000000" points="257,-207.1678 257,-237.1678 403,-237.1678 403,-207.1678 257,-207.1678"/>
<text text-anchor="start" x="265" y="-225.1678" font-family="Helvetica,sans-Serif" font-size="10.00" fill="#000000">JS_ThrowTypeErrorDetached</text>
<text text-anchor="middle" x="330" y="-214.1678" font-family="Helvetica,sans-Serif" font-size="10.00" fill="#000000">ArrayBuffer</text>
</a>
</g>
</g>
<!-- Node394624&#45;&gt;Node394343 -->
<g id="edge65" class="edge">
<title>Node394624&#45;&gt;Node394343</title>
<path fill="none" stroke="#191970" d="M221.2155,-235.2082C229.4608,-234.2198 238.2038,-233.1718 247.0086,-232.1163"/>
<polygon fill="#191970" stroke="#191970" points="247.4401,-235.5897 256.9524,-230.9243 246.6069,-228.6395 247.4401,-235.5897"/>
</g>
<!-- Node394344 -->
<g id="node30" class="node">
<title>Node394344</title>
<g id="a_node30"><a xlink:href="quickjs_8c.html#a869fa88a646c0a1914ec2e559b193b5c" target="_top" xlink:title="typed_array_is_detached">
<polygon fill="none" stroke="#000000" points="267.5,-168.6678 267.5,-187.6678 392.5,-187.6678 392.5,-168.6678 267.5,-168.6678"/>
<text text-anchor="middle" x="330" y="-175.6678" font-family="Helvetica,sans-Serif" font-size="10.00" fill="#000000">typed_array_is_detached</text>
</a>
</g>
</g>
<!-- Node394624&#45;&gt;Node394344 -->
<g id="edge66" class="edge">
<title>Node394624&#45;&gt;Node394344</title>
<path fill="none" stroke="#191970" d="M197.0087,-226.1533C213.657,-216.8329 236.1033,-205.1517 257,-197.1678 263.3289,-194.7498 270.081,-192.5331 276.8269,-190.5352"/>
<polygon fill="#191970" stroke="#191970" points="277.9796,-193.8468 286.656,-187.7665 276.0816,-187.109 277.9796,-193.8468"/>
</g>
</g>
</svg>
