<?xml version="1.0" encoding="UTF-8" standalone="no"?>
<!DOCTYPE svg PUBLIC "-//W3C//DTD SVG 1.1//EN"
 "http://www.w3.org/Graphics/SVG/1.1/DTD/svg11.dtd">
<!-- Generated by graphviz version 2.40.1 (20161225.0304)
 -->
<!-- Title: js_new_shape2 Pages: 1 -->
<svg width="507pt" height="332pt"
 viewBox="0.00 0.00 507.00 332.00" xmlns="http://www.w3.org/2000/svg" xmlns:xlink="http://www.w3.org/1999/xlink">
<g id="graph0" class="graph" transform="scale(1 1) rotate(0) translate(4 328)">
<title>js_new_shape2</title>
<!-- Node124715 -->
<g id="node1" class="node">
<title>Node124715</title>
<polygon fill="#bfbfbf" stroke="#000000" points="0,-152.5 0,-171.5 84,-171.5 84,-152.5 0,-152.5"/>
<text text-anchor="middle" x="42" y="-159.5" font-family="Helvetica,sans-Serif" font-size="10.00" fill="#000000">js_new_shape2</text>
</g>
<!-- Node124716 -->
<g id="node2" class="node">
<title>Node124716</title>
<g id="a_node2"><a xlink:href="quickjs_8c.html#a9780456a71703c53244b88831bc8fb7a" target="_top" xlink:title="add_gc_object">
<polygon fill="none" stroke="#000000" points="136,-304.5 136,-323.5 216,-323.5 216,-304.5 136,-304.5"/>
<text text-anchor="middle" x="176" y="-311.5" font-family="Helvetica,sans-Serif" font-size="10.00" fill="#000000">add_gc_object</text>
</a>
</g>
</g>
<!-- Node124715&#45;&gt;Node124716 -->
<g id="edge1" class="edge">
<title>Node124715&#45;&gt;Node124716</title>
<path fill="none" stroke="#191970" d="M44.9886,-171.6051C53.033,-195.9021 77.4603,-260.3356 120,-295 122.2384,-296.824 124.6609,-298.4766 127.2,-299.9733"/>
<polygon fill="#191970" stroke="#191970" points="125.6769,-303.1249 136.1841,-304.4848 128.8182,-296.8694 125.6769,-303.1249"/>
</g>
<!-- Node124719 -->
<g id="node5" class="node">
<title>Node124719</title>
<g id="a_node5"><a xlink:href="quickjs_8c.html#a8b6c89e0f589df709eb31a92b7fac32a" target="_top" xlink:title="get_shape_from_alloc">
<polygon fill="none" stroke="#000000" points="120,-266.5 120,-285.5 232,-285.5 232,-266.5 120,-266.5"/>
<text text-anchor="middle" x="176" y="-273.5" font-family="Helvetica,sans-Serif" font-size="10.00" fill="#000000">get_shape_from_alloc</text>
</a>
</g>
</g>
<!-- Node124715&#45;&gt;Node124719 -->
<g id="edge4" class="edge">
<title>Node124715&#45;&gt;Node124719</title>
<path fill="none" stroke="#191970" d="M47.3464,-171.5784C58.4345,-190.5966 85.7784,-233.3244 120,-257 122.744,-258.8984 125.6938,-260.6209 128.7529,-262.1818"/>
<polygon fill="#191970" stroke="#191970" points="127.6047,-265.5024 138.162,-266.3931 130.4644,-259.1132 127.6047,-265.5024"/>
</g>
<!-- Node124720 -->
<g id="node6" class="node">
<title>Node124720</title>
<g id="a_node6"><a xlink:href="quickjs_8c.html#ab54e821a9b1b55dc16c4494bd410b698" target="_top" xlink:title="get_shape_size">
<polygon fill="none" stroke="#000000" points="133.5,-228.5 133.5,-247.5 218.5,-247.5 218.5,-228.5 133.5,-228.5"/>
<text text-anchor="middle" x="176" y="-235.5" font-family="Helvetica,sans-Serif" font-size="10.00" fill="#000000">get_shape_size</text>
</a>
</g>
</g>
<!-- Node124715&#45;&gt;Node124720 -->
<g id="edge5" class="edge">
<title>Node124715&#45;&gt;Node124720</title>
<path fill="none" stroke="#191970" d="M52.9102,-171.6574C67.3751,-184.0493 94.1021,-205.5473 120,-219 124.0557,-221.1067 128.3942,-223.0553 132.7945,-224.837"/>
<polygon fill="#191970" stroke="#191970" points="131.8486,-228.2207 142.4406,-228.4676 134.3144,-221.6693 131.8486,-228.2207"/>
</g>
<!-- Node124721 -->
<g id="node7" class="node">
<title>Node124721</title>
<g id="a_node7"><a xlink:href="quickjs_8h.html#a775522f2d084fc8fa0fcb33f390006b4" target="_top" xlink:title="JS_DupValue">
<polygon fill="none" stroke="#000000" points="137.5,-190.5 137.5,-209.5 214.5,-209.5 214.5,-190.5 137.5,-190.5"/>
<text text-anchor="middle" x="176" y="-197.5" font-family="Helvetica,sans-Serif" font-size="10.00" fill="#000000">JS_DupValue</text>
</a>
</g>
</g>
<!-- Node124715&#45;&gt;Node124721 -->
<g id="edge6" class="edge">
<title>Node124715&#45;&gt;Node124721</title>
<path fill="none" stroke="#191970" d="M75.8139,-171.589C93.0326,-176.4719 114.1637,-182.4643 132.5733,-187.685"/>
<polygon fill="#191970" stroke="#191970" points="131.6214,-191.053 142.197,-190.4141 133.5312,-184.3185 131.6214,-191.053"/>
</g>
<!-- Node124722 -->
<g id="node8" class="node">
<title>Node124722</title>
<g id="a_node8"><a xlink:href="quickjs_8c.html#a78b7f6b85f2739b551ff54f16156128b" target="_top" xlink:title="js_malloc">
<polygon fill="none" stroke="#000000" points="147,-152.5 147,-171.5 205,-171.5 205,-152.5 147,-152.5"/>
<text text-anchor="middle" x="176" y="-159.5" font-family="Helvetica,sans-Serif" font-size="10.00" fill="#000000">js_malloc</text>
</a>
</g>
</g>
<!-- Node124715&#45;&gt;Node124722 -->
<g id="edge7" class="edge">
<title>Node124715&#45;&gt;Node124722</title>
<path fill="none" stroke="#191970" d="M84.0308,-162C100.7786,-162 119.9555,-162 136.4492,-162"/>
<polygon fill="#191970" stroke="#191970" points="136.8479,-165.5001 146.8478,-162 136.8478,-158.5001 136.8479,-165.5001"/>
</g>
<!-- Node124726 -->
<g id="node12" class="node">
<title>Node124726</title>
<g id="a_node12"><a xlink:href="quickjs_8c.html#a82dbe63adeac7849406fd48d96f39f7b" target="_top" xlink:title="js_shape_hash_link">
<polygon fill="none" stroke="#000000" points="125,-114.5 125,-133.5 227,-133.5 227,-114.5 125,-114.5"/>
<text text-anchor="middle" x="176" y="-121.5" font-family="Helvetica,sans-Serif" font-size="10.00" fill="#000000">js_shape_hash_link</text>
</a>
</g>
</g>
<!-- Node124715&#45;&gt;Node124726 -->
<g id="edge11" class="edge">
<title>Node124715&#45;&gt;Node124726</title>
<path fill="none" stroke="#191970" d="M75.8139,-152.411C93.0326,-147.5281 114.1637,-141.5357 132.5733,-136.315"/>
<polygon fill="#191970" stroke="#191970" points="133.5312,-139.6815 142.197,-133.5859 131.6214,-132.947 133.5312,-139.6815"/>
</g>
<!-- Node124728 -->
<g id="node14" class="node">
<title>Node124728</title>
<g id="a_node14"><a xlink:href="quickjs_8c.html#acab22c2945c4d609e57a2484feb68a96" target="_top" xlink:title="prop_hash_end">
<polygon fill="none" stroke="#000000" points="134.5,-76.5 134.5,-95.5 217.5,-95.5 217.5,-76.5 134.5,-76.5"/>
<text text-anchor="middle" x="176" y="-83.5" font-family="Helvetica,sans-Serif" font-size="10.00" fill="#000000">prop_hash_end</text>
</a>
</g>
</g>
<!-- Node124715&#45;&gt;Node124728 -->
<g id="edge13" class="edge">
<title>Node124715&#45;&gt;Node124728</title>
<path fill="none" stroke="#191970" d="M52.9102,-152.3426C67.3751,-139.9507 94.1021,-118.4527 120,-105 124.0557,-102.8933 128.3942,-100.9447 132.7945,-99.163"/>
<polygon fill="#191970" stroke="#191970" points="134.3144,-102.3307 142.4406,-95.5324 131.8486,-95.7793 134.3144,-102.3307"/>
</g>
<!-- Node124729 -->
<g id="node15" class="node">
<title>Node124729</title>
<g id="a_node15"><a xlink:href="quickjs_8c.html#ac05a95a74726df4e854747a64d7d0407" target="_top" xlink:title="resize_shape_hash">
<polygon fill="none" stroke="#000000" points="125.5,-38.5 125.5,-57.5 226.5,-57.5 226.5,-38.5 125.5,-38.5"/>
<text text-anchor="middle" x="176" y="-45.5" font-family="Helvetica,sans-Serif" font-size="10.00" fill="#000000">resize_shape_hash</text>
</a>
</g>
</g>
<!-- Node124715&#45;&gt;Node124729 -->
<g id="edge14" class="edge">
<title>Node124715&#45;&gt;Node124729</title>
<path fill="none" stroke="#191970" d="M47.3464,-152.4216C58.4345,-133.4034 85.7784,-90.6756 120,-67 122.744,-65.1016 125.6938,-63.3791 128.7529,-61.8182"/>
<polygon fill="#191970" stroke="#191970" points="130.4644,-64.8868 138.162,-57.6069 127.6047,-58.4976 130.4644,-64.8868"/>
</g>
<!-- Node124731 -->
<g id="node17" class="node">
<title>Node124731</title>
<g id="a_node17"><a xlink:href="quickjs_8c.html#afeaafcef811076df11d1552bcc7f6a2a" target="_top" xlink:title="shape_initial_hash">
<polygon fill="none" stroke="#000000" points="127.5,-.5 127.5,-19.5 224.5,-19.5 224.5,-.5 127.5,-.5"/>
<text text-anchor="middle" x="176" y="-7.5" font-family="Helvetica,sans-Serif" font-size="10.00" fill="#000000">shape_initial_hash</text>
</a>
</g>
</g>
<!-- Node124715&#45;&gt;Node124731 -->
<g id="edge17" class="edge">
<title>Node124715&#45;&gt;Node124731</title>
<path fill="none" stroke="#191970" d="M44.9886,-152.3949C53.033,-128.0979 77.4603,-63.6644 120,-29 122.2384,-27.176 124.6609,-25.5234 127.2,-24.0267"/>
<polygon fill="#191970" stroke="#191970" points="128.8182,-27.1306 136.1841,-19.5152 125.6769,-20.8751 128.8182,-27.1306"/>
</g>
<!-- Node124717 -->
<g id="node3" class="node">
<title>Node124717</title>
<g id="a_node3"><a xlink:href="list_8h.html#a3a5d0733570b2fafc18f4c71a2968ea5" target="_top" xlink:title="list_add_tail">
<polygon fill="none" stroke="#000000" points="295,-304.5 295,-323.5 363,-323.5 363,-304.5 295,-304.5"/>
<text text-anchor="middle" x="329" y="-311.5" font-family="Helvetica,sans-Serif" font-size="10.00" fill="#000000">list_add_tail</text>
</a>
</g>
</g>
<!-- Node124716&#45;&gt;Node124717 -->
<g id="edge2" class="edge">
<title>Node124716&#45;&gt;Node124717</title>
<path fill="none" stroke="#191970" d="M216.1989,-314C237.199,-314 262.9501,-314 284.5436,-314"/>
<polygon fill="#191970" stroke="#191970" points="284.771,-317.5001 294.771,-314 284.7709,-310.5001 284.771,-317.5001"/>
</g>
<!-- Node124718 -->
<g id="node4" class="node">
<title>Node124718</title>
<g id="a_node4"><a xlink:href="list_8h.html#a16286d5bff74a27aec51a3134ffc7b43" target="_top" xlink:title="__list_add">
<polygon fill="none" stroke="#000000" points="432,-304.5 432,-323.5 493,-323.5 493,-304.5 432,-304.5"/>
<text text-anchor="middle" x="462.5" y="-311.5" font-family="Helvetica,sans-Serif" font-size="10.00" fill="#000000">__list_add</text>
</a>
</g>
</g>
<!-- Node124717&#45;&gt;Node124718 -->
<g id="edge3" class="edge">
<title>Node124717&#45;&gt;Node124718</title>
<path fill="none" stroke="#191970" d="M363.0331,-314C380.8927,-314 402.9037,-314 421.6757,-314"/>
<polygon fill="#191970" stroke="#191970" points="421.7245,-317.5001 431.7244,-314 421.7244,-310.5001 421.7245,-317.5001"/>
</g>
<!-- Node124723 -->
<g id="node9" class="node">
<title>Node124723</title>
<g id="a_node9"><a xlink:href="quickjs_8c.html#a4b710876403548c1ad3edc7a7719c559" target="_top" xlink:title="js_malloc_rt">
<polygon fill="none" stroke="#000000" points="294.5,-171.5 294.5,-190.5 363.5,-190.5 363.5,-171.5 294.5,-171.5"/>
<text text-anchor="middle" x="329" y="-178.5" font-family="Helvetica,sans-Serif" font-size="10.00" fill="#000000">js_malloc_rt</text>
</a>
</g>
</g>
<!-- Node124722&#45;&gt;Node124723 -->
<g id="edge8" class="edge">
<title>Node124722&#45;&gt;Node124723</title>
<path fill="none" stroke="#191970" d="M205.1383,-165.6185C227.4658,-168.3912 258.6674,-172.2659 284.168,-175.4326"/>
<polygon fill="#191970" stroke="#191970" points="283.9903,-178.9374 294.3454,-176.6965 284.853,-171.9907 283.9903,-178.9374"/>
</g>
<!-- Node124724 -->
<g id="node10" class="node">
<title>Node124724</title>
<g id="a_node10"><a xlink:href="quickjs_8c.html#a344d6c0e45d9bf3861fd9269724045a2" target="_top" xlink:title="JS_ThrowOutOfMemory">
<polygon fill="none" stroke="#000000" points="268,-133.5 268,-152.5 390,-152.5 390,-133.5 268,-133.5"/>
<text text-anchor="middle" x="329" y="-140.5" font-family="Helvetica,sans-Serif" font-size="10.00" fill="#000000">JS_ThrowOutOfMemory</text>
</a>
</g>
</g>
<!-- Node124722&#45;&gt;Node124724 -->
<g id="edge9" class="edge">
<title>Node124722&#45;&gt;Node124724</title>
<path fill="none" stroke="#191970" d="M205.1383,-158.3815C220.2045,-156.5106 239.3113,-154.1378 257.9806,-151.8194"/>
<polygon fill="#191970" stroke="#191970" points="258.4858,-155.2836 267.9782,-150.5779 257.623,-148.337 258.4858,-155.2836"/>
</g>
<!-- Node124725 -->
<g id="node11" class="node">
<title>Node124725</title>
<g id="a_node11"><a xlink:href="quickjs_8c.html#a853f0924d441ea4225488f37c8b69f9a" target="_top" xlink:title="__attribute__">
<polygon fill="none" stroke="#000000" points="426,-133.5 426,-152.5 499,-152.5 499,-133.5 426,-133.5"/>
<text text-anchor="middle" x="462.5" y="-140.5" font-family="Helvetica,sans-Serif" font-size="10.00" fill="#000000">__attribute__</text>
</a>
</g>
</g>
<!-- Node124724&#45;&gt;Node124725 -->
<g id="edge10" class="edge">
<title>Node124724&#45;&gt;Node124725</title>
<path fill="none" stroke="#191970" d="M390.2799,-143C398.8587,-143 407.5588,-143 415.8083,-143"/>
<polygon fill="#191970" stroke="#191970" points="415.9737,-146.5001 425.9737,-143 415.9736,-139.5001 415.9737,-146.5001"/>
</g>
<!-- Node124727 -->
<g id="node13" class="node">
<title>Node124727</title>
<g id="a_node13"><a xlink:href="quickjs_8c.html#a8291bf195606b5d1b0faed795b6dc3ff" target="_top" xlink:title="get_shape_hash">
<polygon fill="none" stroke="#000000" points="285,-86.5 285,-105.5 373,-105.5 373,-86.5 285,-86.5"/>
<text text-anchor="middle" x="329" y="-93.5" font-family="Helvetica,sans-Serif" font-size="10.00" fill="#000000">get_shape_hash</text>
</a>
</g>
</g>
<!-- Node124726&#45;&gt;Node124727 -->
<g id="edge12" class="edge">
<title>Node124726&#45;&gt;Node124727</title>
<path fill="none" stroke="#191970" d="M227.3724,-114.5985C242.6833,-111.7965 259.5049,-108.7181 274.9797,-105.8861"/>
<polygon fill="#191970" stroke="#191970" points="275.7183,-109.3091 284.9249,-104.066 274.4582,-102.4235 275.7183,-109.3091"/>
</g>
<!-- Node124729&#45;&gt;Node124727 -->
<g id="edge15" class="edge">
<title>Node124729&#45;&gt;Node124727</title>
<path fill="none" stroke="#191970" d="M206.5941,-57.5982C230.1519,-64.9888 262.9261,-75.2709 288.6332,-83.3359"/>
<polygon fill="#191970" stroke="#191970" points="287.8697,-86.7645 298.4589,-86.4185 289.9652,-80.0855 287.8697,-86.7645"/>
</g>
<!-- Node124730 -->
<g id="node16" class="node">
<title>Node124730</title>
<g id="a_node16"><a xlink:href="quickjs_8c.html#a69e19dda8a93d613203e0baa06f0ed8d" target="_top" xlink:title="js_free_rt">
<polygon fill="none" stroke="#000000" points="300.5,-38.5 300.5,-57.5 357.5,-57.5 357.5,-38.5 300.5,-38.5"/>
<text text-anchor="middle" x="329" y="-45.5" font-family="Helvetica,sans-Serif" font-size="10.00" fill="#000000">js_free_rt</text>
</a>
</g>
</g>
<!-- Node124729&#45;&gt;Node124730 -->
<g id="edge16" class="edge">
<title>Node124729&#45;&gt;Node124730</title>
<path fill="none" stroke="#191970" d="M226.5219,-48C247.2325,-48 270.8256,-48 290.1492,-48"/>
<polygon fill="#191970" stroke="#191970" points="290.4,-51.5001 300.4,-48 290.3999,-44.5001 290.4,-51.5001"/>
</g>
<!-- Node124732 -->
<g id="node18" class="node">
<title>Node124732</title>
<g id="a_node18"><a xlink:href="quickjs_8c.html#a11f047846c1027dc6066a5f1b2ef292a" target="_top" xlink:title="shape_hash">
<polygon fill="none" stroke="#000000" points="294.5,-.5 294.5,-19.5 363.5,-19.5 363.5,-.5 294.5,-.5"/>
<text text-anchor="middle" x="329" y="-7.5" font-family="Helvetica,sans-Serif" font-size="10.00" fill="#000000">shape_hash</text>
</a>
</g>
</g>
<!-- Node124731&#45;&gt;Node124732 -->
<g id="edge18" class="edge">
<title>Node124731&#45;&gt;Node124732</title>
<path fill="none" stroke="#191970" d="M224.8308,-10C243.8685,-10 265.5483,-10 284.1821,-10"/>
<polygon fill="#191970" stroke="#191970" points="284.1848,-13.5001 294.1848,-10 284.1847,-6.5001 284.1848,-13.5001"/>
</g>
</g>
</svg>
