<?xml version="1.0" encoding="UTF-8" standalone="no"?>
<!DOCTYPE svg PUBLIC "-//W3C//DTD SVG 1.1//EN"
 "http://www.w3.org/Graphics/SVG/1.1/DTD/svg11.dtd">
<!-- Generated by graphviz version 2.40.1 (20161225.0304)
 -->
<!-- Title: delete_property Pages: 1 -->
<svg width="859pt" height="549pt"
 viewBox="0.00 0.00 859.00 548.62" xmlns="http://www.w3.org/2000/svg" xmlns:xlink="http://www.w3.org/1999/xlink">
<g id="graph0" class="graph" transform="scale(1 1) rotate(0) translate(4 544.6229)">
<title>delete_property</title>
<!-- Node195693 -->
<g id="node1" class="node">
<title>Node195693</title>
<polygon fill="#bfbfbf" stroke="#000000" points="0,-152.5 0,-171.5 83,-171.5 83,-152.5 0,-152.5"/>
<text text-anchor="middle" x="41.5" y="-159.5" font-family="Helvetica,sans-Serif" font-size="10.00" fill="#000000">delete_property</text>
</g>
<!-- Node195694 -->
<g id="node2" class="node">
<title>Node195694</title>
<g id="a_node2"><a xlink:href="quickjs_8c.html#ab638a184d14e8b02ab3ea38b393c7cad" target="_top" xlink:title="compact_properties">
<polygon fill="none" stroke="#000000" points="437.5,-332.5 437.5,-351.5 539.5,-351.5 539.5,-332.5 437.5,-332.5"/>
<text text-anchor="middle" x="488.5" y="-339.5" font-family="Helvetica,sans-Serif" font-size="10.00" fill="#000000">compact_properties</text>
</a>
</g>
</g>
<!-- Node195693&#45;&gt;Node195694 -->
<g id="edge1" class="edge">
<title>Node195693&#45;&gt;Node195694</title>
<path fill="none" stroke="#191970" d="M44.2156,-171.6599C51.7548,-196.7401 75.3207,-264.5088 119,-301 207.645,-375.0571 352.93,-365.6076 432.3409,-353.2146"/>
<polygon fill="#191970" stroke="#191970" points="433.3224,-356.6007 442.6276,-351.5348 432.1942,-349.6922 433.3224,-356.6007"/>
</g>
<!-- Node195696 -->
<g id="node4" class="node">
<title>Node195696</title>
<g id="a_node4"><a xlink:href="quickjs_8c.html#acab22c2945c4d609e57a2484feb68a96" target="_top" xlink:title="prop_hash_end">
<polygon fill="none" stroke="#000000" points="748.5,-351.5 748.5,-370.5 831.5,-370.5 831.5,-351.5 748.5,-351.5"/>
<text text-anchor="middle" x="790" y="-358.5" font-family="Helvetica,sans-Serif" font-size="10.00" fill="#000000">prop_hash_end</text>
</a>
</g>
</g>
<!-- Node195693&#45;&gt;Node195696 -->
<g id="edge50" class="edge">
<title>Node195693&#45;&gt;Node195696</title>
<path fill="none" stroke="#191970" d="M43.7779,-171.5179C58.2547,-229.4314 142.9356,-532 332,-532 332,-532 332,-532 488.5,-532 579.7803,-532 615.0726,-560.5333 693,-513 719.1384,-497.0564 761.9653,-416.733 780.7166,-379.7235"/>
<polygon fill="#191970" stroke="#191970" points="783.9766,-381.0306 785.3331,-370.523 777.72,-377.8913 783.9766,-381.0306"/>
</g>
<!-- Node195709 -->
<g id="node15" class="node">
<title>Node195709</title>
<g id="a_node15"><a xlink:href="quickjs_8c.html#ac93c982cb636a5430b191d104083af3e" target="_top" xlink:title="convert_fast_array\l_to_array">
<polygon fill="none" stroke="#000000" points="126.5,-261 126.5,-291 224.5,-291 224.5,-261 126.5,-261"/>
<text text-anchor="start" x="134.5" y="-279" font-family="Helvetica,sans-Serif" font-size="10.00" fill="#000000">convert_fast_array</text>
<text text-anchor="middle" x="175.5" y="-268" font-family="Helvetica,sans-Serif" font-size="10.00" fill="#000000">_to_array</text>
</a>
</g>
</g>
<!-- Node195693&#45;&gt;Node195709 -->
<g id="edge15" class="edge">
<title>Node195693&#45;&gt;Node195709</title>
<path fill="none" stroke="#191970" d="M52.9248,-171.7196C74.3299,-189.93 120.9399,-229.5832 150.1167,-254.4053"/>
<polygon fill="#191970" stroke="#191970" points="147.9638,-257.1689 157.8484,-260.9829 152.4997,-251.8373 147.9638,-257.1689"/>
</g>
<!-- Node195714 -->
<g id="node19" class="node">
<title>Node195714</title>
<g id="a_node19"><a xlink:href="quickjs_8c.html#a643df594b75933007bcdbb071b5ea8c5" target="_top" xlink:title="get_shape_prop">
<polygon fill="none" stroke="#000000" points="594,-104.5 594,-123.5 680,-123.5 680,-104.5 594,-104.5"/>
<text text-anchor="middle" x="637" y="-111.5" font-family="Helvetica,sans-Serif" font-size="10.00" fill="#000000">get_shape_prop</text>
</a>
</g>
</g>
<!-- Node195693&#45;&gt;Node195714 -->
<g id="edge42" class="edge">
<title>Node195693&#45;&gt;Node195714</title>
<path fill="none" stroke="#191970" d="M83.1884,-161.9882C149.6641,-161.471 283.6432,-158.3877 396,-143 412.2387,-140.776 415.82,-137.6174 432,-135 483.1164,-126.7311 541.9602,-121.0997 583.4547,-117.7665"/>
<polygon fill="#191970" stroke="#191970" points="583.9199,-121.2409 593.6151,-116.9684 583.3717,-114.2624 583.9199,-121.2409"/>
</g>
<!-- Node195755 -->
<g id="node21" class="node">
<title>Node195755</title>
<g id="a_node21"><a xlink:href="quickjs_8c.html#a3dd8e78607dbc729614deacf55901b95" target="_top" xlink:title="js_shape_prepare_update">
<polygon fill="none" stroke="#000000" points="268,-190.5 268,-209.5 396,-209.5 396,-190.5 268,-190.5"/>
<text text-anchor="middle" x="332" y="-197.5" font-family="Helvetica,sans-Serif" font-size="10.00" fill="#000000">js_shape_prepare_update</text>
</a>
</g>
</g>
<!-- Node195693&#45;&gt;Node195755 -->
<g id="edge49" class="edge">
<title>Node195693&#45;&gt;Node195755</title>
<path fill="none" stroke="#191970" d="M83.2464,-170.0669C94.802,-172.1564 107.3657,-174.2956 119,-176 164.8239,-182.713 216.4334,-188.5711 257.3734,-192.819"/>
<polygon fill="#191970" stroke="#191970" points="257.2366,-196.3232 267.542,-193.8638 257.9521,-189.3599 257.2366,-196.3232"/>
</g>
<!-- Node195751 -->
<g id="node24" class="node">
<title>Node195751</title>
<g id="a_node24"><a xlink:href="quickjs_8c.html#af4274494e2e45f9018154ffcbb7e89e4" target="_top" xlink:title="free_property">
<polygon fill="none" stroke="#ff0000" points="138.5,-114.5 138.5,-133.5 212.5,-133.5 212.5,-114.5 138.5,-114.5"/>
<text text-anchor="middle" x="175.5" y="-121.5" font-family="Helvetica,sans-Serif" font-size="10.00" fill="#000000">free_property</text>
</a>
</g>
</g>
<!-- Node195693&#45;&gt;Node195751 -->
<g id="edge41" class="edge">
<title>Node195693&#45;&gt;Node195751</title>
<path fill="none" stroke="#191970" d="M75.3139,-152.411C92.5326,-147.5281 113.6637,-141.5357 132.0733,-136.315"/>
<polygon fill="#191970" stroke="#191970" points="133.0312,-139.6815 141.697,-133.5859 131.1214,-132.947 133.0312,-139.6815"/>
</g>
<!-- Node195756 -->
<g id="node25" class="node">
<title>Node195756</title>
<g id="a_node25"><a xlink:href="quickjs_8c.html#aae16c5cdefab4e9dd9866993a7f0150e" target="_top" xlink:title="JS_AtomIsArrayIndex">
<polygon fill="none" stroke="#000000" points="119,-76.5 119,-95.5 232,-95.5 232,-76.5 119,-76.5"/>
<text text-anchor="middle" x="175.5" y="-83.5" font-family="Helvetica,sans-Serif" font-size="10.00" fill="#000000">JS_AtomIsArrayIndex</text>
</a>
</g>
</g>
<!-- Node195693&#45;&gt;Node195756 -->
<g id="edge43" class="edge">
<title>Node195693&#45;&gt;Node195756</title>
<path fill="none" stroke="#191970" d="M52.3232,-152.3268C66.6769,-139.9178 93.2127,-118.4014 119,-105 123.0347,-102.9032 127.3488,-100.9665 131.7275,-99.1966"/>
<polygon fill="#191970" stroke="#191970" points="133.2007,-102.3822 141.333,-95.5914 130.7408,-95.8286 133.2007,-102.3822"/>
</g>
<!-- Node195746 -->
<g id="node29" class="node">
<title>Node195746</title>
<g id="a_node29"><a xlink:href="quickjs_8c.html#ab7fc45a99935a1c0ba50b0216d9401a9" target="_top" xlink:title="JS_FreeAtom">
<polygon fill="none" stroke="#ff0000" points="137,-38.5 137,-57.5 214,-57.5 214,-38.5 137,-38.5"/>
<text text-anchor="middle" x="175.5" y="-45.5" font-family="Helvetica,sans-Serif" font-size="10.00" fill="#000000">JS_FreeAtom</text>
</a>
</g>
</g>
<!-- Node195693&#45;&gt;Node195746 -->
<g id="edge47" class="edge">
<title>Node195693&#45;&gt;Node195746</title>
<path fill="none" stroke="#191970" d="M46.7907,-152.4125C57.7692,-133.378 84.872,-90.6224 119,-67 121.8519,-65.026 124.9255,-63.2432 128.1139,-61.6353"/>
<polygon fill="#191970" stroke="#191970" points="129.5926,-64.8084 137.3143,-57.554 126.7541,-58.4097 129.5926,-64.8084"/>
</g>
<!-- Node195747 -->
<g id="node30" class="node">
<title>Node195747</title>
<g id="a_node30"><a xlink:href="quickjs_8h.html#afaa20c47565bc704c6c85f3d77254e7d" target="_top" xlink:title="JS_FreeValue">
<polygon fill="none" stroke="#ff0000" points="136.5,-.5 136.5,-19.5 214.5,-19.5 214.5,-.5 136.5,-.5"/>
<text text-anchor="middle" x="175.5" y="-7.5" font-family="Helvetica,sans-Serif" font-size="10.00" fill="#000000">JS_FreeValue</text>
</a>
</g>
</g>
<!-- Node195693&#45;&gt;Node195747 -->
<g id="edge48" class="edge">
<title>Node195693&#45;&gt;Node195747</title>
<path fill="none" stroke="#191970" d="M44.4455,-152.3884C52.3821,-128.0762 76.5317,-63.6099 119,-29 121.5671,-26.9079 124.3752,-25.042 127.324,-23.3783"/>
<polygon fill="#191970" stroke="#191970" points="128.9962,-26.458 136.4921,-18.9705 125.963,-20.1492 128.9962,-26.458"/>
</g>
<!-- Node195695 -->
<g id="node3" class="node">
<title>Node195695</title>
<g id="a_node3"><a xlink:href="quickjs_8c.html#a7da0cfa6f27af0e1b9599d7f359edbe2" target="_top" xlink:title="get_alloc_from_shape">
<polygon fill="none" stroke="#000000" points="581,-256.5 581,-275.5 693,-275.5 693,-256.5 581,-256.5"/>
<text text-anchor="middle" x="637" y="-263.5" font-family="Helvetica,sans-Serif" font-size="10.00" fill="#000000">get_alloc_from_shape</text>
</a>
</g>
</g>
<!-- Node195694&#45;&gt;Node195695 -->
<g id="edge2" class="edge">
<title>Node195694&#45;&gt;Node195695</title>
<path fill="none" stroke="#191970" d="M525.5631,-332.4383C532.3029,-329.9043 539.0694,-326.7881 545,-323 564.6063,-310.4769 561.4106,-297.5495 581,-285 584.1229,-282.9994 587.4796,-281.185 590.9419,-279.5442"/>
<polygon fill="#191970" stroke="#191970" points="592.4208,-282.7189 600.2653,-275.5975 589.692,-276.2727 592.4208,-282.7189"/>
</g>
<!-- Node195694&#45;&gt;Node195696 -->
<g id="edge14" class="edge">
<title>Node195694&#45;&gt;Node195696</title>
<path fill="none" stroke="#191970" d="M521.591,-351.5399C529.9296,-355.0908 538.3818,-359.8146 545,-366 570.8485,-390.158 550.8517,-418.4842 581,-437 623.4168,-463.0507 645.9454,-453.2385 693,-437 726.6473,-425.3884 757.5308,-396.7681 775.0305,-378.1523"/>
<polygon fill="#191970" stroke="#191970" points="777.7352,-380.3806 781.8858,-370.6326 772.5622,-375.6646 777.7352,-380.3806"/>
</g>
<!-- Node195697 -->
<g id="node5" class="node">
<title>Node195697</title>
<g id="a_node5"><a xlink:href="quickjs_8c.html#a8b6c89e0f589df709eb31a92b7fac32a" target="_top" xlink:title="get_shape_from_alloc">
<polygon fill="none" stroke="#000000" points="581,-142.5 581,-161.5 693,-161.5 693,-142.5 581,-142.5"/>
<text text-anchor="middle" x="637" y="-149.5" font-family="Helvetica,sans-Serif" font-size="10.00" fill="#000000">get_shape_from_alloc</text>
</a>
</g>
</g>
<!-- Node195694&#45;&gt;Node195697 -->
<g id="edge4" class="edge">
<title>Node195694&#45;&gt;Node195697</title>
<path fill="none" stroke="#191970" d="M532.324,-332.4633C537.0612,-329.9992 541.4432,-326.8994 545,-323 591.7851,-271.7077 534.284,-222.3553 581,-171 582.2111,-169.6686 583.519,-168.4304 584.9047,-167.279"/>
<polygon fill="#191970" stroke="#191970" points="587.1278,-170.0061 593.56,-161.5872 583.2816,-164.1574 587.1278,-170.0061"/>
</g>
<!-- Node195698 -->
<g id="node6" class="node">
<title>Node195698</title>
<g id="a_node6"><a xlink:href="quickjs_8c.html#ab54e821a9b1b55dc16c4494bd410b698" target="_top" xlink:title="get_shape_size">
<polygon fill="none" stroke="#000000" points="594.5,-294.5 594.5,-313.5 679.5,-313.5 679.5,-294.5 594.5,-294.5"/>
<text text-anchor="middle" x="637" y="-301.5" font-family="Helvetica,sans-Serif" font-size="10.00" fill="#000000">get_shape_size</text>
</a>
</g>
</g>
<!-- Node195694&#45;&gt;Node195698 -->
<g id="edge5" class="edge">
<title>Node195694&#45;&gt;Node195698</title>
<path fill="none" stroke="#191970" d="M525.9728,-332.411C545.3925,-327.4417 569.3025,-321.3233 589.9542,-316.0387"/>
<polygon fill="#191970" stroke="#191970" points="590.9765,-319.3899 599.7966,-313.5201 589.2411,-312.6084 590.9765,-319.3899"/>
</g>
<!-- Node195699 -->
<g id="node7" class="node">
<title>Node195699</title>
<g id="a_node7"><a xlink:href="quickjs_8c.html#a80e54dcf9ac687d4ccc2f90273565f30" target="_top" xlink:title="js_free">
<polygon fill="none" stroke="#000000" points="614,-484.5 614,-503.5 660,-503.5 660,-484.5 614,-484.5"/>
<text text-anchor="middle" x="637" y="-491.5" font-family="Helvetica,sans-Serif" font-size="10.00" fill="#000000">js_free</text>
</a>
</g>
</g>
<!-- Node195694&#45;&gt;Node195699 -->
<g id="edge6" class="edge">
<title>Node195694&#45;&gt;Node195699</title>
<path fill="none" stroke="#191970" d="M523.6447,-351.5976C531.4814,-355.0881 539.1811,-359.7686 545,-366 578.3832,-401.7499 547.6742,-434.1966 581,-470 587.3357,-476.8067 595.9241,-481.7688 604.4709,-485.3504"/>
<polygon fill="#191970" stroke="#191970" points="603.3866,-488.6806 613.9804,-488.8324 605.7935,-482.1074 603.3866,-488.6806"/>
</g>
<!-- Node195701 -->
<g id="node9" class="node">
<title>Node195701</title>
<g id="a_node9"><a xlink:href="quickjs_8c.html#a78b7f6b85f2739b551ff54f16156128b" target="_top" xlink:title="js_malloc">
<polygon fill="none" stroke="#000000" points="608,-180.5 608,-199.5 666,-199.5 666,-180.5 608,-180.5"/>
<text text-anchor="middle" x="637" y="-187.5" font-family="Helvetica,sans-Serif" font-size="10.00" fill="#000000">js_malloc</text>
</a>
</g>
</g>
<!-- Node195694&#45;&gt;Node195701 -->
<g id="edge8" class="edge">
<title>Node195694&#45;&gt;Node195701</title>
<path fill="none" stroke="#191970" d="M530.1392,-332.3779C535.5271,-329.9236 540.6676,-326.8492 545,-323 572.9406,-298.1754 559.6052,-277.6464 581,-247 591.5814,-231.8429 606.3194,-217.0217 618.0201,-206.2931"/>
<polygon fill="#191970" stroke="#191970" points="620.4234,-208.8394 625.5469,-199.5657 615.7586,-203.6202 620.4234,-208.8394"/>
</g>
<!-- Node195705 -->
<g id="node12" class="node">
<title>Node195705</title>
<g id="a_node12"><a xlink:href="list_8h.html#a3a5d0733570b2fafc18f4c71a2968ea5" target="_top" xlink:title="list_add_tail">
<polygon fill="none" stroke="#ff0000" points="603,-370.5 603,-389.5 671,-389.5 671,-370.5 603,-370.5"/>
<text text-anchor="middle" x="637" y="-377.5" font-family="Helvetica,sans-Serif" font-size="10.00" fill="#000000">list_add_tail</text>
</a>
</g>
</g>
<!-- Node195694&#45;&gt;Node195705 -->
<g id="edge11" class="edge">
<title>Node195694&#45;&gt;Node195705</title>
<path fill="none" stroke="#191970" d="M525.9728,-351.589C546.3708,-356.8087 571.7231,-363.2961 593.0497,-368.7535"/>
<polygon fill="#191970" stroke="#191970" points="592.2882,-372.1713 602.8437,-371.2597 594.0236,-365.3898 592.2882,-372.1713"/>
</g>
<!-- Node195707 -->
<g id="node13" class="node">
<title>Node195707</title>
<g id="a_node13"><a xlink:href="list_8h.html#ab60d5d18869ebeb5d6ab694289576fa7" target="_top" xlink:title="list_del">
<polygon fill="none" stroke="#000000" points="613.5,-332.5 613.5,-351.5 660.5,-351.5 660.5,-332.5 613.5,-332.5"/>
<text text-anchor="middle" x="637" y="-339.5" font-family="Helvetica,sans-Serif" font-size="10.00" fill="#000000">list_del</text>
</a>
</g>
</g>
<!-- Node195694&#45;&gt;Node195707 -->
<g id="edge12" class="edge">
<title>Node195694&#45;&gt;Node195707</title>
<path fill="none" stroke="#191970" d="M539.6053,-342C560.6027,-342 584.3439,-342 603.1294,-342"/>
<polygon fill="#191970" stroke="#191970" points="603.2824,-345.5001 613.2824,-342 603.2824,-338.5001 603.2824,-345.5001"/>
</g>
<!-- Node195708 -->
<g id="node14" class="node">
<title>Node195708</title>
<g id="a_node14"><a xlink:href="cutils_8h.html#a94f155fcce337a2b9d4719ed8042cbbe" target="_top" xlink:title="max_int">
<polygon fill="none" stroke="#000000" points="611.5,-408.5 611.5,-427.5 662.5,-427.5 662.5,-408.5 611.5,-408.5"/>
<text text-anchor="middle" x="637" y="-415.5" font-family="Helvetica,sans-Serif" font-size="10.00" fill="#000000">max_int</text>
</a>
</g>
</g>
<!-- Node195694&#45;&gt;Node195708 -->
<g id="edge13" class="edge">
<title>Node195694&#45;&gt;Node195708</title>
<path fill="none" stroke="#191970" d="M516.1753,-351.5659C525.6679,-355.4076 536.1277,-360.2904 545,-366 563.2522,-377.7459 562.3225,-387.9428 581,-399 587.4381,-402.8114 594.7488,-405.9926 601.9136,-408.5934"/>
<polygon fill="#191970" stroke="#191970" points="600.9039,-411.9461 611.4975,-411.7849 603.1156,-405.3046 600.9039,-411.9461"/>
</g>
<!-- Node195695&#45;&gt;Node195696 -->
<g id="edge3" class="edge">
<title>Node195695&#45;&gt;Node195696</title>
<path fill="none" stroke="#191970" d="M671.2401,-275.5692C678.6166,-278.1888 686.2274,-281.3365 693,-285 723.4881,-301.4918 754.2392,-327.5513 772.7078,-344.4615"/>
<polygon fill="#191970" stroke="#191970" points="770.3557,-347.0537 780.0593,-351.307 775.126,-341.9308 770.3557,-347.0537"/>
</g>
<!-- Node195700 -->
<g id="node8" class="node">
<title>Node195700</title>
<g id="a_node8"><a xlink:href="quickjs_8c.html#a69e19dda8a93d613203e0baa06f0ed8d" target="_top" xlink:title="js_free_rt">
<polygon fill="none" stroke="#000000" points="761.5,-484.5 761.5,-503.5 818.5,-503.5 818.5,-484.5 761.5,-484.5"/>
<text text-anchor="middle" x="790" y="-491.5" font-family="Helvetica,sans-Serif" font-size="10.00" fill="#000000">js_free_rt</text>
</a>
</g>
</g>
<!-- Node195699&#45;&gt;Node195700 -->
<g id="edge7" class="edge">
<title>Node195699&#45;&gt;Node195700</title>
<path fill="none" stroke="#191970" d="M660.2374,-494C684.3601,-494 722.51,-494 751.2133,-494"/>
<polygon fill="#191970" stroke="#191970" points="751.3173,-497.5001 761.3173,-494 751.3172,-490.5001 751.3173,-497.5001"/>
</g>
<!-- Node195702 -->
<g id="node10" class="node">
<title>Node195702</title>
<g id="a_node10"><a xlink:href="quickjs_8c.html#a4b710876403548c1ad3edc7a7719c559" target="_top" xlink:title="js_malloc_rt">
<polygon fill="none" stroke="#000000" points="755.5,-161.5 755.5,-180.5 824.5,-180.5 824.5,-161.5 755.5,-161.5"/>
<text text-anchor="middle" x="790" y="-168.5" font-family="Helvetica,sans-Serif" font-size="10.00" fill="#000000">js_malloc_rt</text>
</a>
</g>
</g>
<!-- Node195701&#45;&gt;Node195702 -->
<g id="edge9" class="edge">
<title>Node195701&#45;&gt;Node195702</title>
<path fill="none" stroke="#191970" d="M666.1383,-186.3815C688.4658,-183.6088 719.6674,-179.7341 745.168,-176.5674"/>
<polygon fill="#191970" stroke="#191970" points="745.853,-180.0093 755.3454,-175.3035 744.9903,-173.0626 745.853,-180.0093"/>
</g>
<!-- Node195703 -->
<g id="node11" class="node">
<title>Node195703</title>
<g id="a_node11"><a xlink:href="quickjs_8c.html#a344d6c0e45d9bf3861fd9269724045a2" target="_top" xlink:title="JS_ThrowOutOfMemory">
<polygon fill="none" stroke="#ff0000" points="729,-199.5 729,-218.5 851,-218.5 851,-199.5 729,-199.5"/>
<text text-anchor="middle" x="790" y="-206.5" font-family="Helvetica,sans-Serif" font-size="10.00" fill="#000000">JS_ThrowOutOfMemory</text>
</a>
</g>
</g>
<!-- Node195701&#45;&gt;Node195703 -->
<g id="edge10" class="edge">
<title>Node195701&#45;&gt;Node195703</title>
<path fill="none" stroke="#191970" d="M666.1383,-193.6185C681.2045,-195.4894 700.3113,-197.8622 718.9806,-200.1806"/>
<polygon fill="#191970" stroke="#191970" points="718.623,-203.663 728.9782,-201.4221 719.4858,-196.7164 718.623,-203.663"/>
</g>
<!-- Node195709&#45;&gt;Node195699 -->
<g id="edge25" class="edge">
<title>Node195709&#45;&gt;Node195699</title>
<path fill="none" stroke="#191970" d="M190.7059,-291.1349C208.1457,-307.8313 238.1893,-334.6305 268,-352 383.6911,-419.4084 537.3168,-466.5355 603.8969,-485.1515"/>
<polygon fill="#191970" stroke="#191970" points="603.245,-488.6025 613.8161,-487.8932 605.11,-481.8554 603.245,-488.6025"/>
</g>
<!-- Node195710 -->
<g id="node16" class="node">
<title>Node195710</title>
<g id="a_node16"><a xlink:href="quickjs_8c.html#a877fcb7651d95b411ce70e62b7f4a1f0" target="_top" xlink:title="__JS_AtomFromUInt32">
<polygon fill="none" stroke="#000000" points="272.5,-323.5 272.5,-342.5 391.5,-342.5 391.5,-323.5 272.5,-323.5"/>
<text text-anchor="middle" x="332" y="-330.5" font-family="Helvetica,sans-Serif" font-size="10.00" fill="#000000">__JS_AtomFromUInt32</text>
</a>
</g>
</g>
<!-- Node195709&#45;&gt;Node195710 -->
<g id="edge16" class="edge">
<title>Node195709&#45;&gt;Node195710</title>
<path fill="none" stroke="#191970" d="M217.0282,-291.1253C241.5912,-300.0715 272.3973,-311.2917 295.9374,-319.8654"/>
<polygon fill="#191970" stroke="#191970" points="294.9478,-323.2298 305.5418,-323.3635 297.3435,-316.6525 294.9478,-323.2298"/>
</g>
<!-- Node195711 -->
<g id="node17" class="node">
<title>Node195711</title>
<g id="a_node17"><a xlink:href="quickjs_8c.html#a74547db03bf739a52c83a326b32db997" target="_top" xlink:title="add_property">
<polygon fill="none" stroke="#ff0000" points="295.5,-247.5 295.5,-266.5 368.5,-266.5 368.5,-247.5 295.5,-247.5"/>
<text text-anchor="middle" x="332" y="-254.5" font-family="Helvetica,sans-Serif" font-size="10.00" fill="#000000">add_property</text>
</a>
</g>
</g>
<!-- Node195709&#45;&gt;Node195711 -->
<g id="edge17" class="edge">
<title>Node195709&#45;&gt;Node195711</title>
<path fill="none" stroke="#191970" d="M224.5882,-270.0404C243.8884,-267.6973 265.9506,-265.0188 285.0389,-262.7014"/>
<polygon fill="#191970" stroke="#191970" points="285.504,-266.1707 295.0093,-261.4909 284.6603,-259.2217 285.504,-266.1707"/>
</g>
<!-- Node195709&#45;&gt;Node195755 -->
<g id="edge26" class="edge">
<title>Node195709&#45;&gt;Node195755</title>
<path fill="none" stroke="#191970" d="M206.4194,-260.9848C234.4684,-247.3636 275.5139,-227.431 302.9619,-214.1015"/>
<polygon fill="#191970" stroke="#191970" points="304.5935,-217.2002 312.06,-209.6833 301.5356,-210.9034 304.5935,-217.2002"/>
</g>
<!-- Node195720 -->
<g id="node23" class="node">
<title>Node195720</title>
<g id="a_node23"><a xlink:href="quickjs_8c.html#aa80740ff93b724ea7e0c280826f4a25a" target="_top" xlink:title="resize_properties">
<polygon fill="none" stroke="#ff0000" points="443,-294.5 443,-313.5 534,-313.5 534,-294.5 443,-294.5"/>
<text text-anchor="middle" x="488.5" y="-301.5" font-family="Helvetica,sans-Serif" font-size="10.00" fill="#000000">resize_properties</text>
</a>
</g>
</g>
<!-- Node195709&#45;&gt;Node195720 -->
<g id="edge31" class="edge">
<title>Node195709&#45;&gt;Node195720</title>
<path fill="none" stroke="#191970" d="M224.7506,-280.4058C281.1871,-285.4544 373.477,-293.7104 432.5729,-298.9969"/>
<polygon fill="#191970" stroke="#191970" points="432.5714,-302.5107 442.8435,-299.9157 433.1952,-295.5385 432.5714,-302.5107"/>
</g>
<!-- Node195724 -->
<g id="node18" class="node">
<title>Node195724</title>
<g id="a_node18"><a xlink:href="quickjs_8c.html#a8e34657169da77ae6a386311351ed3de" target="_top" xlink:title="js_clone_shape">
<polygon fill="none" stroke="#ff0000" points="446.5,-218.5 446.5,-237.5 530.5,-237.5 530.5,-218.5 446.5,-218.5"/>
<text text-anchor="middle" x="488.5" y="-225.5" font-family="Helvetica,sans-Serif" font-size="10.00" fill="#000000">js_clone_shape</text>
</a>
</g>
</g>
<!-- Node195711&#45;&gt;Node195724 -->
<g id="edge18" class="edge">
<title>Node195711&#45;&gt;Node195724</title>
<path fill="none" stroke="#191970" d="M368.6923,-250.2008C388.8273,-246.4697 414.1338,-241.7803 436.2946,-237.6738"/>
<polygon fill="#191970" stroke="#191970" points="437.0305,-241.0971 446.2254,-235.8336 435.755,-234.2143 437.0305,-241.0971"/>
</g>
<!-- Node195728 -->
<g id="node20" class="node">
<title>Node195728</title>
<g id="a_node20"><a xlink:href="quickjs_8c.html#a3a9f27520d96cf58aa5bd7359e9cddee" target="_top" xlink:title="js_free_shape">
<polygon fill="none" stroke="#ff0000" points="450,-256.5 450,-275.5 527,-275.5 527,-256.5 450,-256.5"/>
<text text-anchor="middle" x="488.5" y="-263.5" font-family="Helvetica,sans-Serif" font-size="10.00" fill="#000000">js_free_shape</text>
</a>
</g>
</g>
<!-- Node195711&#45;&gt;Node195728 -->
<g id="edge24" class="edge">
<title>Node195711&#45;&gt;Node195728</title>
<path fill="none" stroke="#191970" d="M368.6923,-259.1101C389.8458,-260.3266 416.7072,-261.8713 439.6323,-263.1897"/>
<polygon fill="#191970" stroke="#191970" points="439.6693,-266.6975 449.8538,-263.7775 440.0713,-259.7091 439.6693,-266.6975"/>
</g>
<!-- Node195724&#45;&gt;Node195695 -->
<g id="edge19" class="edge">
<title>Node195724&#45;&gt;Node195695</title>
<path fill="none" stroke="#191970" d="M525.9728,-237.589C545.3925,-242.5583 569.3025,-248.6767 589.9542,-253.9613"/>
<polygon fill="#191970" stroke="#191970" points="589.2411,-257.3916 599.7966,-256.4799 590.9765,-250.6101 589.2411,-257.3916"/>
</g>
<!-- Node195724&#45;&gt;Node195697 -->
<g id="edge20" class="edge">
<title>Node195724&#45;&gt;Node195697</title>
<path fill="none" stroke="#191970" d="M525.5631,-218.4383C532.3029,-215.9043 539.0694,-212.7881 545,-209 564.6063,-196.4769 561.4106,-183.5495 581,-171 584.1229,-168.9994 587.4796,-167.185 590.9419,-165.5442"/>
<polygon fill="#191970" stroke="#191970" points="592.4208,-168.7189 600.2653,-161.5975 589.692,-162.2727 592.4208,-168.7189"/>
</g>
<!-- Node195724&#45;&gt;Node195698 -->
<g id="edge22" class="edge">
<title>Node195724&#45;&gt;Node195698</title>
<path fill="none" stroke="#191970" d="M525.5631,-237.5617C532.3029,-240.0957 539.0694,-243.2119 545,-247 564.6063,-259.5231 561.4106,-272.4505 581,-285 584.1229,-287.0006 587.4796,-288.815 590.9419,-290.4558"/>
<polygon fill="#191970" stroke="#191970" points="589.692,-293.7273 600.2653,-294.4025 592.4208,-287.2811 589.692,-293.7273"/>
</g>
<!-- Node195724&#45;&gt;Node195701 -->
<g id="edge23" class="edge">
<title>Node195724&#45;&gt;Node195701</title>
<path fill="none" stroke="#191970" d="M525.9728,-218.411C548.0278,-212.7673 575.8747,-205.6415 598.1626,-199.9382"/>
<polygon fill="#191970" stroke="#191970" points="599.1509,-203.2982 607.971,-197.4283 597.4155,-196.5167 599.1509,-203.2982"/>
</g>
<!-- Node195724&#45;&gt;Node195714 -->
<g id="edge21" class="edge">
<title>Node195724&#45;&gt;Node195714</title>
<path fill="none" stroke="#191970" d="M530.1392,-218.3779C535.5271,-215.9236 540.6676,-212.8492 545,-209 572.9406,-184.1754 553.0929,-157.8622 581,-133 582.9116,-131.2969 584.9822,-129.7454 587.1627,-128.332"/>
<polygon fill="#191970" stroke="#191970" points="588.888,-131.3779 596.0133,-123.537 585.5535,-125.2231 588.888,-131.3779"/>
</g>
<!-- Node195755&#45;&gt;Node195724 -->
<g id="edge28" class="edge">
<title>Node195755&#45;&gt;Node195724</title>
<path fill="none" stroke="#191970" d="M385.4207,-209.5577C401.8465,-212.4965 419.9006,-215.7266 436.2471,-218.6512"/>
<polygon fill="#191970" stroke="#191970" points="435.7145,-222.1114 446.1746,-220.4274 436.9474,-215.2209 435.7145,-222.1114"/>
</g>
<!-- Node195755&#45;&gt;Node195714 -->
<g id="edge27" class="edge">
<title>Node195755&#45;&gt;Node195714</title>
<path fill="none" stroke="#191970" d="M364.8524,-190.3737C384.3517,-184.6848 409.5686,-177.3709 432,-171 487.1515,-155.3362 550.779,-137.7145 592.334,-126.2663"/>
<polygon fill="#191970" stroke="#191970" points="593.4334,-129.5939 602.1456,-123.565 591.5753,-122.845 593.4334,-129.5939"/>
</g>
<!-- Node195755&#45;&gt;Node195728 -->
<g id="edge29" class="edge">
<title>Node195755&#45;&gt;Node195728</title>
<path fill="none" stroke="#191970" d="M350.8823,-209.6726C370.777,-219.6738 403.1621,-235.4188 432,-247 437.2218,-249.0971 442.7744,-251.1605 448.2816,-253.1099"/>
<polygon fill="#191970" stroke="#191970" points="447.4696,-256.5319 458.0643,-256.4784 449.7487,-249.9133 447.4696,-256.5319"/>
</g>
<!-- Node195719 -->
<g id="node22" class="node">
<title>Node195719</title>
<g id="a_node22"><a xlink:href="quickjs_8c.html#ae5e76f4be6214208cc91f10a192fc810" target="_top" xlink:title="js_shape_hash_unlink">
<polygon fill="none" stroke="#ff0000" points="432,-180.5 432,-199.5 545,-199.5 545,-180.5 432,-180.5"/>
<text text-anchor="middle" x="488.5" y="-187.5" font-family="Helvetica,sans-Serif" font-size="10.00" fill="#000000">js_shape_hash_unlink</text>
</a>
</g>
</g>
<!-- Node195755&#45;&gt;Node195719 -->
<g id="edge30" class="edge">
<title>Node195755&#45;&gt;Node195719</title>
<path fill="none" stroke="#191970" d="M396.1061,-195.9038C404.5079,-195.3669 413.1346,-194.8157 421.5815,-194.2759"/>
<polygon fill="#191970" stroke="#191970" points="422.0118,-197.7557 431.7683,-193.625 421.5654,-190.7699 422.0118,-197.7557"/>
</g>
<!-- Node195720&#45;&gt;Node195695 -->
<g id="edge32" class="edge">
<title>Node195720&#45;&gt;Node195695</title>
<path fill="none" stroke="#191970" d="M525.9728,-294.411C545.3925,-289.4417 569.3025,-283.3233 589.9542,-278.0387"/>
<polygon fill="#191970" stroke="#191970" points="590.9765,-281.3899 599.7966,-275.5201 589.2411,-274.6084 590.9765,-281.3899"/>
</g>
<!-- Node195720&#45;&gt;Node195696 -->
<g id="edge40" class="edge">
<title>Node195720&#45;&gt;Node195696</title>
<path fill="none" stroke="#191970" d="M525.5631,-294.4383C532.3029,-291.9043 539.0694,-288.7881 545,-285 564.6063,-272.4769 559.6287,-256.1925 581,-247 626.7271,-227.3313 647.814,-226.1181 693,-247 735.462,-266.623 766.1679,-315.0129 780.6566,-342.0136"/>
<polygon fill="#191970" stroke="#191970" points="777.7077,-343.9311 785.4062,-351.21 783.9272,-340.7189 777.7077,-343.9311"/>
</g>
<!-- Node195720&#45;&gt;Node195697 -->
<g id="edge33" class="edge">
<title>Node195720&#45;&gt;Node195697</title>
<path fill="none" stroke="#191970" d="M531.4895,-294.4896C536.4847,-292.022 541.1577,-288.9141 545,-285 582.2211,-247.083 543.83,-208.9672 581,-171 582.4274,-169.5419 583.9708,-168.1957 585.6034,-166.9529"/>
<polygon fill="#191970" stroke="#191970" points="587.697,-169.7745 594.3876,-161.5594 584.0343,-163.8092 587.697,-169.7745"/>
</g>
<!-- Node195720&#45;&gt;Node195698 -->
<g id="edge34" class="edge">
<title>Node195720&#45;&gt;Node195698</title>
<path fill="none" stroke="#191970" d="M534.2666,-304C549.9958,-304 567.735,-304 583.991,-304"/>
<polygon fill="#191970" stroke="#191970" points="584.4234,-307.5001 594.4233,-304 584.4233,-300.5001 584.4234,-307.5001"/>
</g>
<!-- Node195720&#45;&gt;Node195699 -->
<g id="edge35" class="edge">
<title>Node195720&#45;&gt;Node195699</title>
<path fill="none" stroke="#191970" d="M531.4895,-313.5104C536.4847,-315.978 541.1577,-319.0859 545,-323 582.2211,-360.917 553.6271,-391.4606 581,-437 590.407,-452.6502 604.9448,-467.2755 616.8505,-477.7926"/>
<polygon fill="#191970" stroke="#191970" points="614.6962,-480.5553 624.5769,-484.3794 619.2375,-475.2283 614.6962,-480.5553"/>
</g>
<!-- Node195720&#45;&gt;Node195701 -->
<g id="edge36" class="edge">
<title>Node195720&#45;&gt;Node195701</title>
<path fill="none" stroke="#191970" d="M529.7555,-294.4007C535.2619,-291.9404 540.538,-288.8583 545,-285 571.7624,-261.8585 555.1903,-238.1995 581,-214 586.0806,-209.2363 592.2524,-205.3354 598.6178,-202.1686"/>
<polygon fill="#191970" stroke="#191970" points="600.2415,-205.2778 607.9779,-198.0392 597.416,-198.8734 600.2415,-205.2778"/>
</g>
<!-- Node195720&#45;&gt;Node195705 -->
<g id="edge37" class="edge">
<title>Node195720&#45;&gt;Node195705</title>
<path fill="none" stroke="#191970" d="M525.5631,-313.5617C532.3029,-316.0957 539.0694,-319.2119 545,-323 564.6063,-335.5231 561.4106,-348.4505 581,-361 584.8483,-363.4653 589.0515,-365.6478 593.3699,-367.5712"/>
<polygon fill="#191970" stroke="#191970" points="592.3292,-370.9241 602.9144,-371.3773 594.9221,-364.4221 592.3292,-370.9241"/>
</g>
<!-- Node195720&#45;&gt;Node195707 -->
<g id="edge38" class="edge">
<title>Node195720&#45;&gt;Node195707</title>
<path fill="none" stroke="#191970" d="M525.9728,-313.589C549.9235,-319.7178 580.7044,-327.5944 603.7792,-333.499"/>
<polygon fill="#191970" stroke="#191970" points="602.9142,-336.8904 613.4697,-335.9788 604.6496,-330.1089 602.9142,-336.8904"/>
</g>
<!-- Node195720&#45;&gt;Node195708 -->
<g id="edge39" class="edge">
<title>Node195720&#45;&gt;Node195708</title>
<path fill="none" stroke="#191970" d="M530.1392,-313.6221C535.5271,-316.0764 540.6676,-319.1508 545,-323 572.9406,-347.8246 553.0929,-374.1378 581,-399 586.8631,-404.2234 594.2214,-408.0216 601.6582,-410.7799"/>
<polygon fill="#191970" stroke="#191970" points="600.7709,-414.17 611.3606,-413.8395 602.8762,-407.494 600.7709,-414.17"/>
</g>
<!-- Node195713 -->
<g id="node26" class="node">
<title>Node195713</title>
<g id="a_node26"><a xlink:href="quickjs_8c.html#a288254c06a39c9fca740a7abdad2834e" target="_top" xlink:title="__JS_AtomIsTaggedInt">
<polygon fill="none" stroke="#000000" points="272.5,-76.5 272.5,-95.5 391.5,-95.5 391.5,-76.5 272.5,-76.5"/>
<text text-anchor="middle" x="332" y="-83.5" font-family="Helvetica,sans-Serif" font-size="10.00" fill="#000000">__JS_AtomIsTaggedInt</text>
</a>
</g>
</g>
<!-- Node195756&#45;&gt;Node195713 -->
<g id="edge44" class="edge">
<title>Node195756&#45;&gt;Node195713</title>
<path fill="none" stroke="#191970" d="M232.0001,-86C241.8499,-86 252.1991,-86 262.3528,-86"/>
<polygon fill="#191970" stroke="#191970" points="262.4156,-89.5001 272.4155,-86 262.4155,-82.5001 262.4156,-89.5001"/>
</g>
<!-- Node195757 -->
<g id="node27" class="node">
<title>Node195757</title>
<g id="a_node27"><a xlink:href="quickjs_8c.html#a89f38938cee8077ce1fbba07946ed185" target="_top" xlink:title="__JS_AtomToUInt32">
<polygon fill="none" stroke="#000000" points="278,-38.5 278,-57.5 386,-57.5 386,-38.5 278,-38.5"/>
<text text-anchor="middle" x="332" y="-45.5" font-family="Helvetica,sans-Serif" font-size="10.00" fill="#000000">__JS_AtomToUInt32</text>
</a>
</g>
</g>
<!-- Node195756&#45;&gt;Node195757 -->
<g id="edge45" class="edge">
<title>Node195756&#45;&gt;Node195757</title>
<path fill="none" stroke="#191970" d="M214.9916,-76.411C235.6434,-71.3965 261.114,-65.2119 283.0125,-59.8947"/>
<polygon fill="#191970" stroke="#191970" points="283.9007,-63.2809 292.7924,-57.5201 282.2489,-56.4785 283.9007,-63.2809"/>
</g>
<!-- Node195758 -->
<g id="node28" class="node">
<title>Node195758</title>
<g id="a_node28"><a xlink:href="quickjs_8c.html#a1eaea8fa2599700598076ea84f1afcf3" target="_top" xlink:title="is_num_string">
<polygon fill="none" stroke="#ff0000" points="293.5,-114.5 293.5,-133.5 370.5,-133.5 370.5,-114.5 293.5,-114.5"/>
<text text-anchor="middle" x="332" y="-121.5" font-family="Helvetica,sans-Serif" font-size="10.00" fill="#000000">is_num_string</text>
</a>
</g>
</g>
<!-- Node195756&#45;&gt;Node195758 -->
<g id="edge46" class="edge">
<title>Node195756&#45;&gt;Node195758</title>
<path fill="none" stroke="#191970" d="M214.9916,-95.589C235.8005,-100.6416 261.5017,-106.8822 283.5114,-112.2264"/>
<polygon fill="#191970" stroke="#191970" points="282.7899,-115.6529 293.3334,-114.6113 284.4417,-108.8505 282.7899,-115.6529"/>
</g>
</g>
</svg>
