<?xml version="1.0" encoding="UTF-8" standalone="no"?>
<!DOCTYPE svg PUBLIC "-//W3C//DTD SVG 1.1//EN"
 "http://www.w3.org/Graphics/SVG/1.1/DTD/svg11.dtd">
<!-- Generated by graphviz version 2.40.1 (20161225.0304)
 -->
<!-- Title: JS_EvalFunction Pages: 1 -->
<svg width="519pt" height="66pt"
 viewBox="0.00 0.00 519.00 66.00" xmlns="http://www.w3.org/2000/svg" xmlns:xlink="http://www.w3.org/1999/xlink">
<g id="graph0" class="graph" transform="scale(1 1) rotate(0) translate(4 62)">
<title>JS_EvalFunction</title>
<!-- Node354545 -->
<g id="node1" class="node">
<title>Node354545</title>
<polygon fill="#bfbfbf" stroke="#000000" points="0,-19.5 0,-38.5 91,-38.5 91,-19.5 0,-19.5"/>
<text text-anchor="middle" x="45.5" y="-26.5" font-family="Helvetica,sans-Serif" font-size="10.00" fill="#000000">JS_EvalFunction</text>
</g>
<!-- Node354546 -->
<g id="node2" class="node">
<title>Node354546</title>
<g id="a_node2"><a xlink:href="quickjs_8c.html#aa75a2b06808d8da661d4eb6698b17cab" target="_top" xlink:title="JS_RunModule">
<polygon fill="none" stroke="#000000" points="134.5,-38.5 134.5,-57.5 217.5,-57.5 217.5,-38.5 134.5,-38.5"/>
<text text-anchor="middle" x="176" y="-45.5" font-family="Helvetica,sans-Serif" font-size="10.00" fill="#000000">JS_RunModule</text>
</a>
</g>
</g>
<!-- Node354545&#45;&gt;Node354546 -->
<g id="edge1" class="edge">
<title>Node354545&#45;&gt;Node354546</title>
<path fill="none" stroke="#191970" d="M101.1421,-37.1012C112.1862,-38.7091 123.6057,-40.3717 134.0975,-41.8992"/>
<polygon fill="#191970" stroke="#191970" points="101.5425,-33.6226 91.1426,-35.6453 100.5339,-40.5496 101.5425,-33.6226"/>
</g>
<!-- Node354605 -->
<g id="node5" class="node">
<title>Node354605</title>
<g id="a_node5"><a xlink:href="quickjs-libc_8c.html#ab1b439d304c2125490b47ef262b5df67" target="_top" xlink:title="js_std_eval_binary">
<polygon fill="none" stroke="#000000" points="127,-.5 127,-19.5 225,-19.5 225,-.5 127,-.5"/>
<text text-anchor="middle" x="176" y="-7.5" font-family="Helvetica,sans-Serif" font-size="10.00" fill="#000000">js_std_eval_binary</text>
</a>
</g>
</g>
<!-- Node354545&#45;&gt;Node354605 -->
<g id="edge4" class="edge">
<title>Node354545&#45;&gt;Node354605</title>
<path fill="none" stroke="#191970" d="M101.2703,-20.8802C109.6925,-19.654 118.3301,-18.3964 126.6054,-17.1915"/>
<polygon fill="#191970" stroke="#191970" points="100.5339,-17.4504 91.1426,-22.3547 101.5425,-24.3774 100.5339,-17.4504"/>
</g>
<!-- Node354547 -->
<g id="node3" class="node">
<title>Node354547</title>
<g id="a_node3"><a xlink:href="quickjs_8c.html#a6357b7fdae71c70c140e78e6c20cb5c2" target="_top" xlink:title="js_dynamic_import_job">
<polygon fill="none" stroke="#000000" points="261,-38.5 261,-57.5 377,-57.5 377,-38.5 261,-38.5"/>
<text text-anchor="middle" x="319" y="-45.5" font-family="Helvetica,sans-Serif" font-size="10.00" fill="#000000">js_dynamic_import_job</text>
</a>
</g>
</g>
<!-- Node354546&#45;&gt;Node354547 -->
<g id="edge2" class="edge">
<title>Node354546&#45;&gt;Node354547</title>
<path fill="none" stroke="#191970" d="M227.8375,-48C238.6063,-48 250.0203,-48 260.9943,-48"/>
<polygon fill="#191970" stroke="#191970" points="227.746,-44.5001 217.7459,-48 227.7459,-51.5001 227.746,-44.5001"/>
</g>
<!-- Node354548 -->
<g id="node4" class="node">
<title>Node354548</title>
<g id="a_node4"><a xlink:href="quickjs_8c.html#a50e94675d1c4cf67c88e72169ea3c21a" target="_top" xlink:title="js_dynamic_import">
<polygon fill="none" stroke="#ff0000" points="413,-38.5 413,-57.5 511,-57.5 511,-38.5 413,-38.5"/>
<text text-anchor="middle" x="462" y="-45.5" font-family="Helvetica,sans-Serif" font-size="10.00" fill="#000000">js_dynamic_import</text>
</a>
</g>
</g>
<!-- Node354547&#45;&gt;Node354548 -->
<g id="edge3" class="edge">
<title>Node354547&#45;&gt;Node354548</title>
<path fill="none" stroke="#191970" d="M387.1691,-48C395.7427,-48 404.3802,-48 412.5873,-48"/>
<polygon fill="#191970" stroke="#191970" points="387.1636,-44.5001 377.1636,-48 387.1635,-51.5001 387.1636,-44.5001"/>
</g>
</g>
</svg>
