<?xml version="1.0" encoding="UTF-8" standalone="no"?>
<!DOCTYPE svg PUBLIC "-//W3C//DTD SVG 1.1//EN"
 "http://www.w3.org/Graphics/SVG/1.1/DTD/svg11.dtd">
<!-- Generated by graphviz version 2.40.1 (20161225.0304)
 -->
<!-- Title: js_dataview_constructor Pages: 1 -->
<svg width="578pt" height="28pt"
 viewBox="0.00 0.00 578.00 28.00" xmlns="http://www.w3.org/2000/svg" xmlns:xlink="http://www.w3.org/1999/xlink">
<g id="graph0" class="graph" transform="scale(1 1) rotate(0) translate(4 24)">
<title>js_dataview_constructor</title>
<!-- Node484473 -->
<g id="node1" class="node">
<title>Node484473</title>
<polygon fill="#bfbfbf" stroke="#000000" points="0,-.5 0,-19.5 122,-19.5 122,-.5 0,-.5"/>
<text text-anchor="middle" x="61" y="-7.5" font-family="Helvetica,sans-Serif" font-size="10.00" fill="#000000">js_dataview_constructor</text>
</g>
<!-- Node484474 -->
<g id="node2" class="node">
<title>Node484474</title>
<g id="a_node2"><a xlink:href="quickjs_8c.html#a177d09828596bfe6df4bd90b2e93989d" target="_top" xlink:title="JS_AddIntrinsicTypedArrays">
<polygon fill="none" stroke="#000000" points="158,-.5 158,-19.5 299,-19.5 299,-.5 158,-.5"/>
<text text-anchor="middle" x="228.5" y="-7.5" font-family="Helvetica,sans-Serif" font-size="10.00" fill="#000000">JS_AddIntrinsicTypedArrays</text>
</a>
</g>
</g>
<!-- Node484473&#45;&gt;Node484474 -->
<g id="edge1" class="edge">
<title>Node484473&#45;&gt;Node484474</title>
<path fill="none" stroke="#191970" d="M132.5072,-10C140.8635,-10 149.3861,-10 157.7324,-10"/>
<polygon fill="#191970" stroke="#191970" points="132.4197,-6.5001 122.4197,-10 132.4197,-13.5001 132.4197,-6.5001"/>
</g>
<!-- Node484475 -->
<g id="node3" class="node">
<title>Node484475</title>
<g id="a_node3"><a xlink:href="quickjs_8c.html#ad8aedb643b8753b7a15f6cb2df61945e" target="_top" xlink:title="JS_NewContext">
<polygon fill="none" stroke="#000000" points="335,-.5 335,-19.5 424,-19.5 424,-.5 335,-.5"/>
<text text-anchor="middle" x="379.5" y="-7.5" font-family="Helvetica,sans-Serif" font-size="10.00" fill="#000000">JS_NewContext</text>
</a>
</g>
</g>
<!-- Node484474&#45;&gt;Node484475 -->
<g id="edge2" class="edge">
<title>Node484474&#45;&gt;Node484475</title>
<path fill="none" stroke="#191970" d="M309.3813,-10C318.0943,-10 326.7113,-10 334.7649,-10"/>
<polygon fill="#191970" stroke="#191970" points="309.1368,-6.5001 299.1368,-10 309.1367,-13.5001 309.1368,-6.5001"/>
</g>
<!-- Node484476 -->
<g id="node4" class="node">
<title>Node484476</title>
<g id="a_node4"><a xlink:href="classqjs_1_1Context.html#a4392a23648acfc4bf6b445336efb5007" target="_top" xlink:title="qjs::Context::Context">
<polygon fill="none" stroke="#ff0000" points="460,-.5 460,-19.5 570,-19.5 570,-.5 460,-.5"/>
<text text-anchor="middle" x="515" y="-7.5" font-family="Helvetica,sans-Serif" font-size="10.00" fill="#000000">qjs::Context::Context</text>
</a>
</g>
</g>
<!-- Node484475&#45;&gt;Node484476 -->
<g id="edge3" class="edge">
<title>Node484475&#45;&gt;Node484476</title>
<path fill="none" stroke="#191970" d="M434.3476,-10C442.7739,-10 451.4767,-10 459.9083,-10"/>
<polygon fill="#191970" stroke="#191970" points="434.2433,-6.5001 424.2433,-10 434.2433,-13.5001 434.2433,-6.5001"/>
</g>
</g>
</svg>
