<?xml version="1.0" encoding="UTF-8" standalone="no"?>
<!DOCTYPE svg PUBLIC "-//W3C//DTD SVG 1.1//EN"
 "http://www.w3.org/Graphics/SVG/1.1/DTD/svg11.dtd">
<!-- Generated by graphviz version 2.40.1 (20161225.0304)
 -->
<!-- Title: js_object_constructor Pages: 1 -->
<svg width="567pt" height="28pt"
 viewBox="0.00 0.00 567.00 28.00" xmlns="http://www.w3.org/2000/svg" xmlns:xlink="http://www.w3.org/1999/xlink">
<g id="graph0" class="graph" transform="scale(1 1) rotate(0) translate(4 24)">
<title>js_object_constructor</title>
<!-- Node372908 -->
<g id="node1" class="node">
<title>Node372908</title>
<polygon fill="#bfbfbf" stroke="#000000" points="0,-.5 0,-19.5 110,-19.5 110,-.5 0,-.5"/>
<text text-anchor="middle" x="55" y="-7.5" font-family="Helvetica,sans-Serif" font-size="10.00" fill="#000000">js_object_constructor</text>
</g>
<!-- Node372909 -->
<g id="node2" class="node">
<title>Node372909</title>
<g id="a_node2"><a xlink:href="quickjs_8c.html#a4c9489297c684663f30e517204a9ec14" target="_top" xlink:title="JS_AddIntrinsicBaseObjects">
<polygon fill="none" stroke="#000000" points="146,-.5 146,-19.5 288,-19.5 288,-.5 146,-.5"/>
<text text-anchor="middle" x="217" y="-7.5" font-family="Helvetica,sans-Serif" font-size="10.00" fill="#000000">JS_AddIntrinsicBaseObjects</text>
</a>
</g>
</g>
<!-- Node372908&#45;&gt;Node372909 -->
<g id="edge1" class="edge">
<title>Node372908&#45;&gt;Node372909</title>
<path fill="none" stroke="#191970" d="M120.4003,-10C128.7977,-10 137.4277,-10 145.9104,-10"/>
<polygon fill="#191970" stroke="#191970" points="120.2981,-6.5001 110.2981,-10 120.2981,-13.5001 120.2981,-6.5001"/>
</g>
<!-- Node372910 -->
<g id="node3" class="node">
<title>Node372910</title>
<g id="a_node3"><a xlink:href="quickjs_8c.html#ad8aedb643b8753b7a15f6cb2df61945e" target="_top" xlink:title="JS_NewContext">
<polygon fill="none" stroke="#000000" points="324,-.5 324,-19.5 413,-19.5 413,-.5 324,-.5"/>
<text text-anchor="middle" x="368.5" y="-7.5" font-family="Helvetica,sans-Serif" font-size="10.00" fill="#000000">JS_NewContext</text>
</a>
</g>
</g>
<!-- Node372909&#45;&gt;Node372910 -->
<g id="edge2" class="edge">
<title>Node372909&#45;&gt;Node372910</title>
<path fill="none" stroke="#191970" d="M298.5534,-10C307.2595,-10 315.8628,-10 323.8995,-10"/>
<polygon fill="#191970" stroke="#191970" points="298.3138,-6.5001 288.3138,-10 298.3137,-13.5001 298.3138,-6.5001"/>
</g>
<!-- Node372911 -->
<g id="node4" class="node">
<title>Node372911</title>
<g id="a_node4"><a xlink:href="classqjs_1_1Context.html#a4392a23648acfc4bf6b445336efb5007" target="_top" xlink:title="qjs::Context::Context">
<polygon fill="none" stroke="#ff0000" points="449,-.5 449,-19.5 559,-19.5 559,-.5 449,-.5"/>
<text text-anchor="middle" x="504" y="-7.5" font-family="Helvetica,sans-Serif" font-size="10.00" fill="#000000">qjs::Context::Context</text>
</a>
</g>
</g>
<!-- Node372910&#45;&gt;Node372911 -->
<g id="edge3" class="edge">
<title>Node372910&#45;&gt;Node372911</title>
<path fill="none" stroke="#191970" d="M423.3476,-10C431.7739,-10 440.4767,-10 448.9083,-10"/>
<polygon fill="#191970" stroke="#191970" points="423.2433,-6.5001 413.2433,-10 423.2433,-13.5001 423.2433,-6.5001"/>
</g>
</g>
</svg>
