<?xml version="1.0" encoding="UTF-8" standalone="no"?>
<!DOCTYPE svg PUBLIC "-//W3C//DTD SVG 1.1//EN"
 "http://www.w3.org/Graphics/SVG/1.1/DTD/svg11.dtd">
<!-- Generated by graphviz version 2.40.1 (20161225.0304)
 -->
<!-- Title: js_function_bind Pages: 1 -->
<svg width="916pt" height="598pt"
 viewBox="0.00 0.00 916.00 598.00" xmlns="http://www.w3.org/2000/svg" xmlns:xlink="http://www.w3.org/1999/xlink">
<g id="graph0" class="graph" transform="scale(1 1) rotate(0) translate(4 594)">
<title>js_function_bind</title>
<!-- Node387101 -->
<g id="node1" class="node">
<title>Node387101</title>
<polygon fill="#bfbfbf" stroke="#000000" points="0,-266.5 0,-285.5 87,-285.5 87,-266.5 0,-266.5"/>
<text text-anchor="middle" x="43.5" y="-273.5" font-family="Helvetica,sans-Serif" font-size="10.00" fill="#000000">js_function_bind</text>
</g>
<!-- Node387102 -->
<g id="node2" class="node">
<title>Node387102</title>
<g id="a_node2"><a xlink:href="quickjs_8c.html#a59a7e992f228759bf0a56f0aae4f3cc3" target="_top" xlink:title="check_function">
<polygon fill="none" stroke="#000000" points="147,-570.5 147,-589.5 230,-589.5 230,-570.5 147,-570.5"/>
<text text-anchor="middle" x="188.5" y="-577.5" font-family="Helvetica,sans-Serif" font-size="10.00" fill="#000000">check_function</text>
</a>
</g>
</g>
<!-- Node387101&#45;&gt;Node387102 -->
<g id="edge1" class="edge">
<title>Node387101&#45;&gt;Node387102</title>
<path fill="none" stroke="#191970" d="M45.0622,-285.7863C52.365,-330.4352 84.414,-514.4236 123,-556 127.1167,-560.4357 132.1218,-564.0542 137.5116,-567.0054"/>
<polygon fill="#191970" stroke="#191970" points="136.315,-570.3094 146.8567,-571.3688 139.2765,-563.9667 136.315,-570.3094"/>
</g>
<!-- Node387104 -->
<g id="node4" class="node">
<title>Node387104</title>
<g id="a_node4"><a xlink:href="quickjs_8c.html#a260bfa297ff6cb5bd18e229afaa54663" target="_top" xlink:title="JS_AtomToString">
<polygon fill="none" stroke="#000000" points="456.5,-418.5 456.5,-437.5 550.5,-437.5 550.5,-418.5 456.5,-418.5"/>
<text text-anchor="middle" x="503.5" y="-425.5" font-family="Helvetica,sans-Serif" font-size="10.00" fill="#000000">JS_AtomToString</text>
</a>
</g>
</g>
<!-- Node387101&#45;&gt;Node387104 -->
<g id="edge3" class="edge">
<title>Node387101&#45;&gt;Node387104</title>
<path fill="none" stroke="#191970" d="M47.0829,-285.8339C56.0028,-308.83 81.521,-366.2645 123,-394 221.0083,-459.5347 366.3793,-450.4486 446.075,-438.7753"/>
<polygon fill="#191970" stroke="#191970" points="447.0471,-442.1673 456.4021,-437.1938 445.9875,-435.248 447.0471,-442.1673"/>
</g>
<!-- Node387108 -->
<g id="node8" class="node">
<title>Node387108</title>
<g id="a_node8"><a xlink:href="quickjs_8h.html#a775522f2d084fc8fa0fcb33f390006b4" target="_top" xlink:title="JS_DupValue">
<polygon fill="none" stroke="#000000" points="810,-494.5 810,-513.5 887,-513.5 887,-494.5 810,-494.5"/>
<text text-anchor="middle" x="848.5" y="-501.5" font-family="Helvetica,sans-Serif" font-size="10.00" fill="#000000">JS_DupValue</text>
</a>
</g>
</g>
<!-- Node387101&#45;&gt;Node387108 -->
<g id="edge24" class="edge">
<title>Node387101&#45;&gt;Node387108</title>
<path fill="none" stroke="#191970" d="M44.5108,-285.8706C48.3205,-317.8767 64.7126,-419.7844 123,-473 201.5014,-544.6708 245.7025,-542 352,-542 352,-542 352,-542 503.5,-542 614.71,-542 642.8199,-538.0997 753,-523 768.2409,-520.9113 784.7137,-517.9067 799.6167,-514.9013"/>
<polygon fill="#191970" stroke="#191970" points="800.5624,-518.2801 809.649,-512.8318 799.1481,-511.4244 800.5624,-518.2801"/>
</g>
<!-- Node387132 -->
<g id="node10" class="node">
<title>Node387132</title>
<g id="a_node10"><a xlink:href="quickjs_8c.html#a964b0ba49f8823d8d8f21c6645a81542" target="_top" xlink:title="JS_ConcatString3">
<polygon fill="none" stroke="#000000" points="140.5,-304.5 140.5,-323.5 236.5,-323.5 236.5,-304.5 140.5,-304.5"/>
<text text-anchor="middle" x="188.5" y="-311.5" font-family="Helvetica,sans-Serif" font-size="10.00" fill="#000000">JS_ConcatString3</text>
</a>
</g>
</g>
<!-- Node387101&#45;&gt;Node387132 -->
<g id="edge9" class="edge">
<title>Node387101&#45;&gt;Node387132</title>
<path fill="none" stroke="#191970" d="M80.0896,-285.589C98.9654,-290.5358 122.1859,-296.6211 142.2879,-301.8892"/>
<polygon fill="#191970" stroke="#191970" points="141.6129,-305.3305 152.1735,-304.4799 143.3875,-298.5591 141.6129,-305.3305"/>
</g>
<!-- Node387133 -->
<g id="node11" class="node">
<title>Node387133</title>
<g id="a_node11"><a xlink:href="quickjs_8h.html#afaa20c47565bc704c6c85f3d77254e7d" target="_top" xlink:title="JS_FreeValue">
<polygon fill="none" stroke="#000000" points="464.5,-323.5 464.5,-342.5 542.5,-342.5 542.5,-323.5 464.5,-323.5"/>
<text text-anchor="middle" x="503.5" y="-330.5" font-family="Helvetica,sans-Serif" font-size="10.00" fill="#000000">JS_FreeValue</text>
</a>
</g>
</g>
<!-- Node387101&#45;&gt;Node387133 -->
<g id="edge25" class="edge">
<title>Node387101&#45;&gt;Node387133</title>
<path fill="none" stroke="#191970" d="M50.2181,-285.6228C62.6334,-302.7 90.8552,-338.3522 123,-358 189.2165,-398.4734 213.2445,-397.5411 290,-409 344.507,-417.1374 362.2681,-428.0012 414,-409 445.6932,-397.3591 473.8411,-368.967 489.7641,-350.3729"/>
<polygon fill="#191970" stroke="#191970" points="492.5064,-352.5489 496.1887,-342.6145 487.115,-348.0843 492.5064,-352.5489"/>
</g>
<!-- Node387169 -->
<g id="node13" class="node">
<title>Node387169</title>
<g id="a_node13"><a xlink:href="quickjs_8h.html#ad80a83d73e9b7d872b88fbf2943aebe9" target="_top" xlink:title="JS_IsException">
<polygon fill="none" stroke="#000000" points="309,-114.5 309,-133.5 395,-133.5 395,-114.5 309,-114.5"/>
<text text-anchor="middle" x="352" y="-121.5" font-family="Helvetica,sans-Serif" font-size="10.00" fill="#000000">JS_IsException</text>
</a>
</g>
</g>
<!-- Node387101&#45;&gt;Node387169 -->
<g id="edge34" class="edge">
<title>Node387101&#45;&gt;Node387169</title>
<path fill="none" stroke="#191970" d="M87.0877,-284.6829C133.4204,-291.2895 206.4309,-293.8583 254,-257 291.6703,-227.8116 258.6356,-191.8788 290,-156 296.5086,-148.5546 305.1714,-142.6035 313.9526,-137.9509"/>
<polygon fill="#191970" stroke="#191970" points="315.5702,-141.0567 323.061,-133.5641 312.5327,-134.75 315.5702,-141.0567"/>
</g>
<!-- Node387280 -->
<g id="node20" class="node">
<title>Node387280</title>
<g id="a_node20"><a xlink:href="quickjs_8c.html#a0a8765bd4012467d9139bc24aabcb3ca" target="_top" xlink:title="JS_DefinePropertyValue">
<polygon fill="none" stroke="#ff0000" points="290,-342.5 290,-361.5 414,-361.5 414,-342.5 290,-342.5"/>
<text text-anchor="middle" x="352" y="-349.5" font-family="Helvetica,sans-Serif" font-size="10.00" fill="#000000">JS_DefinePropertyValue</text>
</a>
</g>
</g>
<!-- Node387101&#45;&gt;Node387280 -->
<g id="edge22" class="edge">
<title>Node387101&#45;&gt;Node387280</title>
<path fill="none" stroke="#191970" d="M53.2419,-285.7442C67.2757,-299.0846 94.6279,-322.5659 123,-333 173.1253,-351.434 233.4506,-355.7839 279.5997,-355.7391"/>
<polygon fill="#191970" stroke="#191970" points="279.8449,-359.2373 289.8167,-355.6577 279.7891,-352.2375 279.8449,-359.2373"/>
</g>
<!-- Node387533 -->
<g id="node21" class="node">
<title>Node387533</title>
<g id="a_node21"><a xlink:href="quickjs_8c.html#ac3d351dbdf57be84bab3d5c40009df53" target="_top" xlink:title="JS_GetOwnProperty">
<polygon fill="none" stroke="#000000" points="450,-494.5 450,-513.5 557,-513.5 557,-494.5 450,-494.5"/>
<text text-anchor="middle" x="503.5" y="-501.5" font-family="Helvetica,sans-Serif" font-size="10.00" fill="#000000">JS_GetOwnProperty</text>
</a>
</g>
</g>
<!-- Node387101&#45;&gt;Node387533 -->
<g id="edge26" class="edge">
<title>Node387101&#45;&gt;Node387533</title>
<path fill="none" stroke="#191970" d="M45.3557,-285.5256C51.2404,-313.0094 72.1811,-392.9086 123,-431 216.4232,-501.0256 358.0848,-509.6521 439.6213,-507.9479"/>
<polygon fill="#191970" stroke="#191970" points="439.8421,-511.4434 449.7447,-507.6766 439.6545,-504.4459 439.8421,-511.4434"/>
</g>
<!-- Node387204 -->
<g id="node24" class="node">
<title>Node387204</title>
<g id="a_node24"><a xlink:href="quickjs_8h.html#a89b7c8686c7eee70b86be722ee4730ad" target="_top" xlink:title="JS_GetProperty">
<polygon fill="none" stroke="#ff0000" points="145.5,-228.5 145.5,-247.5 231.5,-247.5 231.5,-228.5 145.5,-228.5"/>
<text text-anchor="middle" x="188.5" y="-235.5" font-family="Helvetica,sans-Serif" font-size="10.00" fill="#000000">JS_GetProperty</text>
</a>
</g>
</g>
<!-- Node387101&#45;&gt;Node387204 -->
<g id="edge32" class="edge">
<title>Node387101&#45;&gt;Node387204</title>
<path fill="none" stroke="#191970" d="M80.0896,-266.411C98.9654,-261.4642 122.1859,-255.3789 142.2879,-250.1108"/>
<polygon fill="#191970" stroke="#191970" points="143.3875,-253.4409 152.1735,-247.5201 141.6129,-246.6695 143.3875,-253.4409"/>
</g>
<!-- Node387512 -->
<g id="node25" class="node">
<title>Node387512</title>
<g id="a_node25"><a xlink:href="quickjs_8c.html#afa39b15865cb50fc2383e76e33b2de1a" target="_top" xlink:title="JS_IsConstructor">
<polygon fill="none" stroke="#000000" points="142,-190.5 142,-209.5 235,-209.5 235,-190.5 142,-190.5"/>
<text text-anchor="middle" x="188.5" y="-197.5" font-family="Helvetica,sans-Serif" font-size="10.00" fill="#000000">JS_IsConstructor</text>
</a>
</g>
</g>
<!-- Node387101&#45;&gt;Node387512 -->
<g id="edge33" class="edge">
<title>Node387101&#45;&gt;Node387512</title>
<path fill="none" stroke="#191970" d="M54.3113,-266.3919C68.9324,-253.8536 96.2666,-231.9857 123,-219 127.6728,-216.7302 132.6679,-214.6803 137.7375,-212.8417"/>
<polygon fill="#191970" stroke="#191970" points="139.1447,-216.0614 147.5133,-209.5639 136.9194,-209.4245 139.1447,-216.0614"/>
</g>
<!-- Node387449 -->
<g id="node26" class="node">
<title>Node387449</title>
<g id="a_node26"><a xlink:href="quickjs_8h.html#aa53b9197dc6d5770e3a080c1e335f7cb" target="_top" xlink:title="JS_IsString">
<polygon fill="none" stroke="#000000" points="154.5,-152.5 154.5,-171.5 222.5,-171.5 222.5,-152.5 154.5,-152.5"/>
<text text-anchor="middle" x="188.5" y="-159.5" font-family="Helvetica,sans-Serif" font-size="10.00" fill="#000000">JS_IsString</text>
</a>
</g>
</g>
<!-- Node387101&#45;&gt;Node387449 -->
<g id="edge35" class="edge">
<title>Node387101&#45;&gt;Node387449</title>
<path fill="none" stroke="#191970" d="M48.9081,-266.2925C60.1355,-247.0423 87.8789,-203.918 123,-181 129.481,-176.7709 136.9221,-173.4628 144.4107,-170.8811"/>
<polygon fill="#191970" stroke="#191970" points="145.6645,-174.1578 154.2058,-167.8891 143.6195,-167.4631 145.6645,-174.1578"/>
</g>
<!-- Node387220 -->
<g id="node27" class="node">
<title>Node387220</title>
<g id="a_node27"><a xlink:href="quickjs_8h.html#ae91f44bd7249613050c18c7133702c67" target="_top" xlink:title="JS_NewFloat64">
<polygon fill="none" stroke="#ff0000" points="145.5,-114.5 145.5,-133.5 231.5,-133.5 231.5,-114.5 145.5,-114.5"/>
<text text-anchor="middle" x="188.5" y="-121.5" font-family="Helvetica,sans-Serif" font-size="10.00" fill="#000000">JS_NewFloat64</text>
</a>
</g>
</g>
<!-- Node387101&#45;&gt;Node387220 -->
<g id="edge36" class="edge">
<title>Node387101&#45;&gt;Node387220</title>
<path fill="none" stroke="#191970" d="M46.51,-266.2787C54.6245,-241.7091 79.3393,-176.6886 123,-143 126.8961,-139.9937 131.2537,-137.4628 135.8201,-135.3321"/>
<polygon fill="#191970" stroke="#191970" points="137.4215,-138.4612 145.4057,-131.4967 134.8211,-131.9621 137.4215,-138.4612"/>
</g>
<!-- Node387210 -->
<g id="node28" class="node">
<title>Node387210</title>
<g id="a_node28"><a xlink:href="quickjs_8h.html#a2050bc428da1c65ac7eb87c3fa3b0392" target="_top" xlink:title="JS_NewInt32">
<polygon fill="none" stroke="#000000" points="150.5,-76.5 150.5,-95.5 226.5,-95.5 226.5,-76.5 150.5,-76.5"/>
<text text-anchor="middle" x="188.5" y="-83.5" font-family="Helvetica,sans-Serif" font-size="10.00" fill="#000000">JS_NewInt32</text>
</a>
</g>
</g>
<!-- Node387101&#45;&gt;Node387210 -->
<g id="edge37" class="edge">
<title>Node387101&#45;&gt;Node387210</title>
<path fill="none" stroke="#191970" d="M45.1454,-266.1753C50.5591,-236.9778 70.5664,-149.9743 123,-105 128.1929,-100.5459 134.3785,-97.1344 140.8441,-94.522"/>
<polygon fill="#191970" stroke="#191970" points="142.1077,-97.7889 150.4343,-91.2377 139.8397,-91.1664 142.1077,-97.7889"/>
</g>
<!-- Node387287 -->
<g id="node29" class="node">
<title>Node387287</title>
<g id="a_node29"><a xlink:href="quickjs_8c.html#a73738c650f11459db0d7af3dcdf8316b" target="_top" xlink:title="JS_NewObjectProtoClass">
<polygon fill="none" stroke="#ff0000" points="123,-38.5 123,-57.5 254,-57.5 254,-38.5 123,-38.5"/>
<text text-anchor="middle" x="188.5" y="-45.5" font-family="Helvetica,sans-Serif" font-size="10.00" fill="#000000">JS_NewObjectProtoClass</text>
</a>
</g>
</g>
<!-- Node387101&#45;&gt;Node387287 -->
<g id="edge38" class="edge">
<title>Node387101&#45;&gt;Node387287</title>
<path fill="none" stroke="#191970" d="M44.2008,-266.45C47.1372,-233.5523 61.3501,-123.8394 123,-67 124.6975,-65.435 126.5164,-63.9981 128.4284,-62.679"/>
<polygon fill="#191970" stroke="#191970" points="130.3612,-65.6062 137.32,-57.617 126.8979,-59.5229 130.3612,-65.6062"/>
</g>
<!-- Node387125 -->
<g id="node30" class="node">
<title>Node387125</title>
<g id="a_node30"><a xlink:href="cutils_8h.html#a94f155fcce337a2b9d4719ed8042cbbe" target="_top" xlink:title="max_int">
<polygon fill="none" stroke="#000000" points="163,-.5 163,-19.5 214,-19.5 214,-.5 163,-.5"/>
<text text-anchor="middle" x="188.5" y="-7.5" font-family="Helvetica,sans-Serif" font-size="10.00" fill="#000000">max_int</text>
</a>
</g>
</g>
<!-- Node387101&#45;&gt;Node387125 -->
<g id="edge39" class="edge">
<title>Node387101&#45;&gt;Node387125</title>
<path fill="none" stroke="#191970" d="M45.3264,-266.4897C53.3862,-225.4474 86.9704,-63.9974 123,-29 131.0452,-21.1852 142.1048,-16.5523 152.8464,-13.8166"/>
<polygon fill="#191970" stroke="#191970" points="153.853,-17.1826 162.9388,-11.7329 152.4376,-10.3272 153.853,-17.1826"/>
</g>
<!-- Node387103 -->
<g id="node3" class="node">
<title>Node387103</title>
<g id="a_node3"><a xlink:href="quickjs_8c.html#a1ca9cdb1fa2ffc3e6506e92b200e490f" target="_top" xlink:title="JS_IsFunction">
<polygon fill="none" stroke="#000000" points="312,-570.5 312,-589.5 392,-589.5 392,-570.5 312,-570.5"/>
<text text-anchor="middle" x="352" y="-577.5" font-family="Helvetica,sans-Serif" font-size="10.00" fill="#000000">JS_IsFunction</text>
</a>
</g>
</g>
<!-- Node387102&#45;&gt;Node387103 -->
<g id="edge2" class="edge">
<title>Node387102&#45;&gt;Node387103</title>
<path fill="none" stroke="#191970" d="M230.181,-580C251.9231,-580 278.6889,-580 301.5887,-580"/>
<polygon fill="#191970" stroke="#191970" points="301.8063,-583.5001 311.8063,-580 301.8062,-576.5001 301.8063,-583.5001"/>
</g>
<!-- Node387105 -->
<g id="node5" class="node">
<title>Node387105</title>
<g id="a_node5"><a xlink:href="quickjs_8c.html#a06ff303a11e6641cbf1f6634e6a61811" target="_top" xlink:title="__JS_AtomToValue">
<polygon fill="none" stroke="#000000" points="621,-418.5 621,-437.5 725,-437.5 725,-418.5 621,-418.5"/>
<text text-anchor="middle" x="673" y="-425.5" font-family="Helvetica,sans-Serif" font-size="10.00" fill="#000000">__JS_AtomToValue</text>
</a>
</g>
</g>
<!-- Node387104&#45;&gt;Node387105 -->
<g id="edge4" class="edge">
<title>Node387104&#45;&gt;Node387105</title>
<path fill="none" stroke="#191970" d="M550.7152,-428C569.317,-428 590.942,-428 610.7888,-428"/>
<polygon fill="#191970" stroke="#191970" points="610.9799,-431.5001 620.9799,-428 610.9798,-424.5001 610.9799,-431.5001"/>
</g>
<!-- Node387106 -->
<g id="node6" class="node">
<title>Node387106</title>
<g id="a_node6"><a xlink:href="quickjs_8c.html#a288254c06a39c9fca740a7abdad2834e" target="_top" xlink:title="__JS_AtomIsTaggedInt">
<polygon fill="none" stroke="#000000" points="789,-456.5 789,-475.5 908,-475.5 908,-456.5 789,-456.5"/>
<text text-anchor="middle" x="848.5" y="-463.5" font-family="Helvetica,sans-Serif" font-size="10.00" fill="#000000">__JS_AtomIsTaggedInt</text>
</a>
</g>
</g>
<!-- Node387105&#45;&gt;Node387106 -->
<g id="edge5" class="edge">
<title>Node387105&#45;&gt;Node387106</title>
<path fill="none" stroke="#191970" d="M717.2861,-437.589C740.7581,-442.6713 769.781,-448.9554 794.5584,-454.3203"/>
<polygon fill="#191970" stroke="#191970" points="794.0182,-457.7844 804.5324,-456.4799 795.4996,-450.9429 794.0182,-457.7844"/>
</g>
<!-- Node387107 -->
<g id="node7" class="node">
<title>Node387107</title>
<g id="a_node7"><a xlink:href="quickjs_8c.html#a89f38938cee8077ce1fbba07946ed185" target="_top" xlink:title="__JS_AtomToUInt32">
<polygon fill="none" stroke="#000000" points="794.5,-418.5 794.5,-437.5 902.5,-437.5 902.5,-418.5 794.5,-418.5"/>
<text text-anchor="middle" x="848.5" y="-425.5" font-family="Helvetica,sans-Serif" font-size="10.00" fill="#000000">__JS_AtomToUInt32</text>
</a>
</g>
</g>
<!-- Node387105&#45;&gt;Node387107 -->
<g id="edge6" class="edge">
<title>Node387105&#45;&gt;Node387107</title>
<path fill="none" stroke="#191970" d="M725.1806,-428C743.7657,-428 764.9132,-428 784.3834,-428"/>
<polygon fill="#191970" stroke="#191970" points="784.3898,-431.5001 794.3897,-428 784.3897,-424.5001 784.3898,-431.5001"/>
</g>
<!-- Node387105&#45;&gt;Node387108 -->
<g id="edge7" class="edge">
<title>Node387105&#45;&gt;Node387108</title>
<path fill="none" stroke="#191970" d="M725.0364,-435.7305C734.7203,-438.4346 744.4658,-442.0819 753,-447 773.1569,-458.6161 769.2984,-472.6274 789,-485 792.5642,-487.2383 796.4153,-489.2347 800.3844,-491.0109"/>
<polygon fill="#191970" stroke="#191970" points="799.1955,-494.3049 809.7803,-494.7666 801.7937,-487.8049 799.1955,-494.3049"/>
</g>
<!-- Node387109 -->
<g id="node9" class="node">
<title>Node387109</title>
<g id="a_node9"><a xlink:href="quickjs_8c.html#a0ee6a3654a6016393fac5e1c108f403a" target="_top" xlink:title="JS_NewString">
<polygon fill="none" stroke="#ff0000" points="808.5,-380.5 808.5,-399.5 888.5,-399.5 888.5,-380.5 808.5,-380.5"/>
<text text-anchor="middle" x="848.5" y="-387.5" font-family="Helvetica,sans-Serif" font-size="10.00" fill="#000000">JS_NewString</text>
</a>
</g>
</g>
<!-- Node387105&#45;&gt;Node387109 -->
<g id="edge8" class="edge">
<title>Node387105&#45;&gt;Node387109</title>
<path fill="none" stroke="#191970" d="M717.2861,-418.411C742.0278,-413.0538 772.9372,-406.3612 798.5405,-400.8174"/>
<polygon fill="#191970" stroke="#191970" points="799.3964,-404.2133 808.4293,-398.6763 797.915,-397.3718 799.3964,-404.2133"/>
</g>
<!-- Node387132&#45;&gt;Node387133 -->
<g id="edge10" class="edge">
<title>Node387132&#45;&gt;Node387133</title>
<path fill="none" stroke="#191970" d="M236.6846,-316.9064C295.5399,-320.4564 394.5818,-326.4303 454.0197,-330.0155"/>
<polygon fill="#191970" stroke="#191970" points="454.0878,-333.5259 464.2804,-330.6344 454.5093,-326.5385 454.0878,-333.5259"/>
</g>
<!-- Node387132&#45;&gt;Node387169 -->
<g id="edge12" class="edge">
<title>Node387132&#45;&gt;Node387169</title>
<path fill="none" stroke="#191970" d="M232.9938,-304.3712C240.8515,-300.9419 248.3217,-296.295 254,-290 297.6088,-241.6545 246.8308,-196.7384 290,-148 293.4044,-144.1564 297.4977,-140.9239 301.9378,-138.2062"/>
<polygon fill="#191970" stroke="#191970" points="303.5573,-141.309 310.8136,-133.5891 300.3269,-135.099 303.5573,-141.309"/>
</g>
<!-- Node387170 -->
<g id="node14" class="node">
<title>Node387170</title>
<g id="a_node14"><a xlink:href="quickjs_8c.html#a38cad713b74c445668210ea8614bfb65" target="_top" xlink:title="JS_ToStringFree">
<polygon fill="none" stroke="#000000" points="307,-266.5 307,-285.5 397,-285.5 397,-266.5 307,-266.5"/>
<text text-anchor="middle" x="352" y="-273.5" font-family="Helvetica,sans-Serif" font-size="10.00" fill="#000000">JS_ToStringFree</text>
</a>
</g>
</g>
<!-- Node387132&#45;&gt;Node387170 -->
<g id="edge13" class="edge">
<title>Node387132&#45;&gt;Node387170</title>
<path fill="none" stroke="#191970" d="M229.758,-304.411C251.4307,-299.3739 278.1832,-293.1562 301.1303,-287.8229"/>
<polygon fill="#191970" stroke="#191970" points="302.0907,-291.1931 311.0387,-285.5201 300.506,-284.3748 302.0907,-291.1931"/>
</g>
<!-- Node387531 -->
<g id="node16" class="node">
<title>Node387531</title>
<g id="a_node16"><a xlink:href="quickjs_8c.html#a6887ef15fd884e05ddf04ec291b5f3d2" target="_top" xlink:title="string_buffer_concat">
<polygon fill="none" stroke="#ff0000" points="299.5,-228.5 299.5,-247.5 404.5,-247.5 404.5,-228.5 299.5,-228.5"/>
<text text-anchor="middle" x="352" y="-235.5" font-family="Helvetica,sans-Serif" font-size="10.00" fill="#000000">string_buffer_concat</text>
</a>
</g>
</g>
<!-- Node387132&#45;&gt;Node387531 -->
<g id="edge16" class="edge">
<title>Node387132&#45;&gt;Node387531</title>
<path fill="none" stroke="#191970" d="M222.3081,-304.4398C232.8599,-300.7248 244.2744,-295.9172 254,-290 272.5428,-278.7183 271.1602,-267.7784 290,-257 293.7377,-254.8616 297.7426,-252.9381 301.8514,-251.2129"/>
<polygon fill="#191970" stroke="#191970" points="303.4381,-254.3547 311.5504,-247.5399 300.9589,-247.8084 303.4381,-254.3547"/>
</g>
<!-- Node387130 -->
<g id="node17" class="node">
<title>Node387130</title>
<g id="a_node17"><a xlink:href="quickjs_8c.html#a0b130652cf11eb0eb9f7e3ee6c5d7c6a" target="_top" xlink:title="string_buffer_write8">
<polygon fill="none" stroke="#ff0000" points="452.5,-190.5 452.5,-209.5 554.5,-209.5 554.5,-190.5 452.5,-190.5"/>
<text text-anchor="middle" x="503.5" y="-197.5" font-family="Helvetica,sans-Serif" font-size="10.00" fill="#000000">string_buffer_write8</text>
</a>
</g>
</g>
<!-- Node387132&#45;&gt;Node387130 -->
<g id="edge21" class="edge">
<title>Node387132&#45;&gt;Node387130</title>
<path fill="none" stroke="#191970" d="M231.6314,-304.4783C239.8814,-301.032 247.8501,-296.3514 254,-290 289.4894,-253.3481 248.653,-210.8879 290,-181 345.0943,-141.1749 430.2791,-167.8643 474.5527,-186.418"/>
<polygon fill="#191970" stroke="#191970" points="473.2982,-189.6889 483.8652,-190.4558 476.0828,-183.2666 473.2982,-189.6889"/>
</g>
<!-- Node387116 -->
<g id="node18" class="node">
<title>Node387116</title>
<g id="a_node18"><a xlink:href="quickjs_8c.html#accfc3d1dcaa88c88402cb245ccaf4fdb" target="_top" xlink:title="string_buffer_end">
<polygon fill="none" stroke="#ff0000" points="306,-380.5 306,-399.5 398,-399.5 398,-380.5 306,-380.5"/>
<text text-anchor="middle" x="352" y="-387.5" font-family="Helvetica,sans-Serif" font-size="10.00" fill="#000000">string_buffer_end</text>
</a>
</g>
</g>
<!-- Node387132&#45;&gt;Node387116 -->
<g id="edge18" class="edge">
<title>Node387132&#45;&gt;Node387116</title>
<path fill="none" stroke="#191970" d="M203.12,-323.538C222.3999,-335.8008 257.6728,-357.1595 290,-371 295.1747,-373.2155 300.6931,-375.2903 306.2236,-377.195"/>
<polygon fill="#191970" stroke="#191970" points="305.5273,-380.6497 316.1199,-380.4331 307.7042,-373.9968 305.5273,-380.6497"/>
</g>
<!-- Node387121 -->
<g id="node19" class="node">
<title>Node387121</title>
<g id="a_node19"><a xlink:href="quickjs_8c.html#ac43dee2ed14e80248f1af195bd3d8181" target="_top" xlink:title="string_buffer_init2">
<polygon fill="none" stroke="#ff0000" points="305,-190.5 305,-209.5 399,-209.5 399,-190.5 305,-190.5"/>
<text text-anchor="middle" x="352" y="-197.5" font-family="Helvetica,sans-Serif" font-size="10.00" fill="#000000">string_buffer_init2</text>
</a>
</g>
</g>
<!-- Node387132&#45;&gt;Node387121 -->
<g id="edge20" class="edge">
<title>Node387132&#45;&gt;Node387121</title>
<path fill="none" stroke="#191970" d="M229.2208,-304.4261C238.0987,-300.9528 246.938,-296.274 254,-290 280.4497,-266.5018 262.9272,-241.7776 290,-219 292.0352,-217.2877 294.2228,-215.7296 296.5173,-214.3119"/>
<polygon fill="#191970" stroke="#191970" points="298.527,-217.2129 305.8012,-209.51 295.311,-210.9954 298.527,-217.2129"/>
</g>
<!-- Node387134 -->
<g id="node12" class="node">
<title>Node387134</title>
<g id="a_node12"><a xlink:href="quickjs_8c.html#aa059f309c30fd5166d16c82a97973146" target="_top" xlink:title="__JS_FreeValue">
<polygon fill="none" stroke="#ff0000" points="628.5,-323.5 628.5,-342.5 717.5,-342.5 717.5,-323.5 628.5,-323.5"/>
<text text-anchor="middle" x="673" y="-330.5" font-family="Helvetica,sans-Serif" font-size="10.00" fill="#000000">__JS_FreeValue</text>
</a>
</g>
</g>
<!-- Node387133&#45;&gt;Node387134 -->
<g id="edge11" class="edge">
<title>Node387133&#45;&gt;Node387134</title>
<path fill="none" stroke="#191970" d="M542.8127,-333C565.1471,-333 593.4588,-333 617.9719,-333"/>
<polygon fill="#191970" stroke="#191970" points="618.2165,-336.5001 628.2164,-333 618.2164,-329.5001 618.2165,-336.5001"/>
</g>
<!-- Node387170&#45;&gt;Node387133 -->
<g id="edge14" class="edge">
<title>Node387170&#45;&gt;Node387133</title>
<path fill="none" stroke="#191970" d="M377.3577,-285.5405C402.3742,-294.9527 440.8104,-309.4138 468.6813,-319.8999"/>
<polygon fill="#191970" stroke="#191970" points="467.4676,-323.1827 478.0596,-323.4284 469.9326,-316.6311 467.4676,-323.1827"/>
</g>
<!-- Node387171 -->
<g id="node15" class="node">
<title>Node387171</title>
<g id="a_node15"><a xlink:href="quickjs_8c.html#a7bcb8e1a20cbc8374a5f9ba4a2088cec" target="_top" xlink:title="JS_ToString">
<polygon fill="none" stroke="#ff0000" points="468,-266.5 468,-285.5 539,-285.5 539,-266.5 468,-266.5"/>
<text text-anchor="middle" x="503.5" y="-273.5" font-family="Helvetica,sans-Serif" font-size="10.00" fill="#000000">JS_ToString</text>
</a>
</g>
</g>
<!-- Node387170&#45;&gt;Node387171 -->
<g id="edge15" class="edge">
<title>Node387170&#45;&gt;Node387171</title>
<path fill="none" stroke="#191970" d="M397.0448,-276C416.12,-276 438.3222,-276 457.4999,-276"/>
<polygon fill="#191970" stroke="#191970" points="457.5111,-279.5001 467.5111,-276 457.511,-272.5001 457.5111,-279.5001"/>
</g>
<!-- Node387531&#45;&gt;Node387130 -->
<g id="edge17" class="edge">
<title>Node387531&#45;&gt;Node387130</title>
<path fill="none" stroke="#191970" d="M390.2298,-228.411C410.1319,-223.4191 434.6567,-217.2676 455.7909,-211.9666"/>
<polygon fill="#191970" stroke="#191970" points="456.6971,-215.3479 465.5451,-209.5201 454.994,-208.5582 456.6971,-215.3479"/>
</g>
<!-- Node387116&#45;&gt;Node387104 -->
<g id="edge19" class="edge">
<title>Node387116&#45;&gt;Node387104</title>
<path fill="none" stroke="#191970" d="M390.2298,-399.589C410.1319,-404.5809 434.6567,-410.7324 455.7909,-416.0334"/>
<polygon fill="#191970" stroke="#191970" points="454.994,-419.4418 465.5451,-418.4799 456.6971,-412.6521 454.994,-419.4418"/>
</g>
<!-- Node387280&#45;&gt;Node387133 -->
<g id="edge23" class="edge">
<title>Node387280&#45;&gt;Node387133</title>
<path fill="none" stroke="#191970" d="M414.058,-344.2172C427.4697,-342.5352 441.4737,-340.7789 454.3122,-339.1688"/>
<polygon fill="#191970" stroke="#191970" points="454.8382,-342.6303 464.3249,-337.913 453.9671,-335.6847 454.8382,-342.6303"/>
</g>
<!-- Node387408 -->
<g id="node22" class="node">
<title>Node387408</title>
<g id="a_node22"><a xlink:href="quickjs_8c.html#ad13892c0a0f11781b566808876658099" target="_top" xlink:title="JS_GetOwnPropertyInternal">
<polygon fill="none" stroke="#ff0000" points="603.5,-456.5 603.5,-475.5 742.5,-475.5 742.5,-456.5 603.5,-456.5"/>
<text text-anchor="middle" x="673" y="-463.5" font-family="Helvetica,sans-Serif" font-size="10.00" fill="#000000">JS_GetOwnPropertyInternal</text>
</a>
</g>
</g>
<!-- Node387533&#45;&gt;Node387408 -->
<g id="edge27" class="edge">
<title>Node387533&#45;&gt;Node387408</title>
<path fill="none" stroke="#191970" d="M546.272,-494.411C568.8409,-489.3513 596.7232,-483.1004 620.5833,-477.7512"/>
<polygon fill="#191970" stroke="#191970" points="621.5435,-481.1229 630.5356,-475.5201 620.0121,-474.2925 621.5435,-481.1229"/>
</g>
<!-- Node387348 -->
<g id="node23" class="node">
<title>Node387348</title>
<g id="a_node23"><a xlink:href="quickjs_8c.html#a726b00d108e0a0f4d958c36c2e426a64" target="_top" xlink:title="JS_ThrowTypeErrorNotAnObject">
<polygon fill="none" stroke="#000000" points="593,-494.5 593,-513.5 753,-513.5 753,-494.5 593,-494.5"/>
<text text-anchor="middle" x="673" y="-501.5" font-family="Helvetica,sans-Serif" font-size="10.00" fill="#000000">JS_ThrowTypeErrorNotAnObject</text>
</a>
</g>
</g>
<!-- Node387533&#45;&gt;Node387348 -->
<g id="edge31" class="edge">
<title>Node387533&#45;&gt;Node387348</title>
<path fill="none" stroke="#191970" d="M557.1309,-504C565.287,-504 573.8897,-504 582.5722,-504"/>
<polygon fill="#191970" stroke="#191970" points="582.7794,-507.5001 592.7794,-504 582.7794,-500.5001 582.7794,-507.5001"/>
</g>
<!-- Node387408&#45;&gt;Node387106 -->
<g id="edge28" class="edge">
<title>Node387408&#45;&gt;Node387106</title>
<path fill="none" stroke="#191970" d="M742.6143,-466C754.4572,-466 766.761,-466 778.6109,-466"/>
<polygon fill="#191970" stroke="#191970" points="778.8848,-469.5001 788.8848,-466 778.8847,-462.5001 778.8848,-469.5001"/>
</g>
<!-- Node387408&#45;&gt;Node387107 -->
<g id="edge29" class="edge">
<title>Node387408&#45;&gt;Node387107</title>
<path fill="none" stroke="#191970" d="M717.2861,-456.411C740.7581,-451.3287 769.781,-445.0446 794.5584,-439.6797"/>
<polygon fill="#191970" stroke="#191970" points="795.4996,-443.0571 804.5324,-437.5201 794.0182,-436.2156 795.4996,-443.0571"/>
</g>
<!-- Node387408&#45;&gt;Node387108 -->
<g id="edge30" class="edge">
<title>Node387408&#45;&gt;Node387108</title>
<path fill="none" stroke="#191970" d="M717.2861,-475.589C742.4761,-481.0433 774.0591,-487.8817 799.9267,-493.4827"/>
<polygon fill="#191970" stroke="#191970" points="799.3833,-496.9461 809.8976,-495.6416 800.8647,-490.1046 799.3833,-496.9461"/>
</g>
</g>
</svg>
