<?xml version="1.0" encoding="UTF-8" standalone="no"?>
<!DOCTYPE svg PUBLIC "-//W3C//DTD SVG 1.1//EN"
 "http://www.w3.org/Graphics/SVG/1.1/DTD/svg11.dtd">
<!-- Generated by graphviz version 2.40.1 (20161225.0304)
 -->
<!-- Title: JS_NewContextRaw Pages: 1 -->
<svg width="934pt" height="737pt"
 viewBox="0.00 0.00 934.00 737.22" xmlns="http://www.w3.org/2000/svg" xmlns:xlink="http://www.w3.org/1999/xlink">
<g id="graph0" class="graph" transform="scale(1 1) rotate(0) translate(4 733.222)">
<title>JS_NewContextRaw</title>
<!-- Node67083 -->
<g id="node1" class="node">
<title>Node67083</title>
<polygon fill="#bfbfbf" stroke="#000000" points="0,-266.5 0,-285.5 109,-285.5 109,-266.5 0,-266.5"/>
<text text-anchor="middle" x="54.5" y="-273.5" font-family="Helvetica,sans-Serif" font-size="10.00" fill="#000000">JS_NewContextRaw</text>
</g>
<!-- Node67084 -->
<g id="node2" class="node">
<title>Node67084</title>
<g id="a_node2"><a xlink:href="quickjs_8c.html#a9780456a71703c53244b88831bc8fb7a" target="_top" xlink:title="add_gc_object">
<polygon fill="none" stroke="#000000" points="525.5,-684.5 525.5,-703.5 605.5,-703.5 605.5,-684.5 525.5,-684.5"/>
<text text-anchor="middle" x="565.5" y="-691.5" font-family="Helvetica,sans-Serif" font-size="10.00" fill="#000000">add_gc_object</text>
</a>
</g>
</g>
<!-- Node67083&#45;&gt;Node67084 -->
<g id="edge1" class="edge">
<title>Node67083&#45;&gt;Node67084</title>
<path fill="none" stroke="#191970" d="M57.657,-285.6517C74.8215,-336.4003 162.1911,-573.6627 325,-670 383.2788,-704.4848 463.655,-705.0289 515.1082,-700.7203"/>
<polygon fill="#191970" stroke="#191970" points="515.6816,-704.1822 525.3141,-699.7703 515.0327,-697.2123 515.6816,-704.1822"/>
</g>
<!-- Node67085 -->
<g id="node3" class="node">
<title>Node67085</title>
<g id="a_node3"><a xlink:href="list_8h.html#a3a5d0733570b2fafc18f4c71a2968ea5" target="_top" xlink:title="list_add_tail">
<polygon fill="none" stroke="#000000" points="685,-684.5 685,-703.5 753,-703.5 753,-684.5 685,-684.5"/>
<text text-anchor="middle" x="719" y="-691.5" font-family="Helvetica,sans-Serif" font-size="10.00" fill="#000000">list_add_tail</text>
</a>
</g>
</g>
<!-- Node67083&#45;&gt;Node67085 -->
<g id="edge46" class="edge">
<title>Node67083&#45;&gt;Node67085</title>
<path fill="none" stroke="#191970" d="M55.1784,-285.7632C58.3721,-325.4638 74.8472,-477.2675 145,-574 202.3304,-653.052 233.0174,-667.2098 325,-700 453.2192,-745.7079 495.646,-727.4456 631,-713 645.382,-711.4651 660.8652,-708.5572 674.7742,-705.4694"/>
<polygon fill="#191970" stroke="#191970" points="675.6281,-708.8644 684.5856,-703.2063 674.0548,-702.0435 675.6281,-708.8644"/>
</g>
<!-- Node67087 -->
<g id="node5" class="node">
<title>Node67087</title>
<g id="a_node5"><a xlink:href="list_8h.html#a663527a4d757540b2177bef0db1ce5c0" target="_top" xlink:title="init_list_head">
<polygon fill="none" stroke="#000000" points="180,-228.5 180,-247.5 254,-247.5 254,-228.5 180,-228.5"/>
<text text-anchor="middle" x="217" y="-235.5" font-family="Helvetica,sans-Serif" font-size="10.00" fill="#000000">init_list_head</text>
</a>
</g>
</g>
<!-- Node67083&#45;&gt;Node67087 -->
<g id="edge4" class="edge">
<title>Node67083&#45;&gt;Node67087</title>
<path fill="none" stroke="#191970" d="M95.5056,-266.411C118.2119,-261.1012 146.5283,-254.4795 170.1107,-248.9649"/>
<polygon fill="#191970" stroke="#191970" points="170.9571,-252.3615 179.8975,-246.6763 169.3632,-245.5453 170.9571,-252.3615"/>
</g>
<!-- Node67088 -->
<g id="node6" class="node">
<title>Node67088</title>
<g id="a_node6"><a xlink:href="quickjs_8c.html#a7efb53c2f76fd5cc0e584449437ec09c" target="_top" xlink:title="JS_AddIntrinsicBasicObjects">
<polygon fill="none" stroke="#000000" points="145,-266.5 145,-285.5 289,-285.5 289,-266.5 145,-266.5"/>
<text text-anchor="middle" x="217" y="-273.5" font-family="Helvetica,sans-Serif" font-size="10.00" fill="#000000">JS_AddIntrinsicBasicObjects</text>
</a>
</g>
</g>
<!-- Node67083&#45;&gt;Node67088 -->
<g id="edge5" class="edge">
<title>Node67083&#45;&gt;Node67088</title>
<path fill="none" stroke="#191970" d="M109.0622,-276C117.3461,-276 126.0463,-276 134.7617,-276"/>
<polygon fill="#191970" stroke="#191970" points="134.9758,-279.5001 144.9757,-276 134.9757,-272.5001 134.9758,-279.5001"/>
</g>
<!-- Node67104 -->
<g id="node30" class="node">
<title>Node67104</title>
<g id="a_node30"><a xlink:href="quickjs_8c.html#a69e19dda8a93d613203e0baa06f0ed8d" target="_top" xlink:title="js_free_rt">
<polygon fill="none" stroke="#000000" points="188.5,-190.5 188.5,-209.5 245.5,-209.5 245.5,-190.5 188.5,-190.5"/>
<text text-anchor="middle" x="217" y="-197.5" font-family="Helvetica,sans-Serif" font-size="10.00" fill="#000000">js_free_rt</text>
</a>
</g>
</g>
<!-- Node67083&#45;&gt;Node67104 -->
<g id="edge45" class="edge">
<title>Node67083&#45;&gt;Node67104</title>
<path fill="none" stroke="#191970" d="M66.9968,-266.3823C83.8507,-253.8335 115.1988,-231.9539 145,-219 155.5298,-214.4229 167.4192,-210.7349 178.4575,-207.8699"/>
<polygon fill="#191970" stroke="#191970" points="179.4078,-211.2408 188.292,-205.4683 177.7471,-204.4406 179.4078,-211.2408"/>
</g>
<!-- Node67084&#45;&gt;Node67085 -->
<g id="edge2" class="edge">
<title>Node67084&#45;&gt;Node67085</title>
<path fill="none" stroke="#191970" d="M605.8303,-694C626.9753,-694 652.9215,-694 674.6336,-694"/>
<polygon fill="#191970" stroke="#191970" points="674.9126,-697.5001 684.9125,-694 674.9125,-690.5001 674.9126,-697.5001"/>
</g>
<!-- Node67086 -->
<g id="node4" class="node">
<title>Node67086</title>
<g id="a_node4"><a xlink:href="list_8h.html#a16286d5bff74a27aec51a3134ffc7b43" target="_top" xlink:title="__list_add">
<polygon fill="none" stroke="#000000" points="836,-684.5 836,-703.5 897,-703.5 897,-684.5 836,-684.5"/>
<text text-anchor="middle" x="866.5" y="-691.5" font-family="Helvetica,sans-Serif" font-size="10.00" fill="#000000">__list_add</text>
</a>
</g>
</g>
<!-- Node67085&#45;&gt;Node67086 -->
<g id="edge3" class="edge">
<title>Node67085&#45;&gt;Node67086</title>
<path fill="none" stroke="#191970" d="M753.2102,-694C774.9076,-694 803.0876,-694 825.9141,-694"/>
<polygon fill="#191970" stroke="#191970" points="825.9827,-697.5001 835.9826,-694 825.9826,-690.5001 825.9827,-697.5001"/>
</g>
<!-- Node67089 -->
<g id="node7" class="node">
<title>Node67089</title>
<g id="a_node7"><a xlink:href="quickjs_8c.html#a3cadcaa2bd1e3f9359f1c006f396cfa0" target="_top" xlink:title="add_shape_property">
<polygon fill="none" stroke="#000000" points="342.5,-380.5 342.5,-399.5 446.5,-399.5 446.5,-380.5 342.5,-380.5"/>
<text text-anchor="middle" x="394.5" y="-387.5" font-family="Helvetica,sans-Serif" font-size="10.00" fill="#000000">add_shape_property</text>
</a>
</g>
</g>
<!-- Node67088&#45;&gt;Node67089 -->
<g id="edge6" class="edge">
<title>Node67088&#45;&gt;Node67089</title>
<path fill="none" stroke="#191970" d="M225.1717,-285.6773C241.9068,-304.8732 282.1306,-347.9048 325,-371 329.2501,-373.2897 333.7983,-375.3208 338.4581,-377.1193"/>
<polygon fill="#191970" stroke="#191970" points="337.5252,-380.5007 348.12,-380.4925 339.8325,-373.8919 337.5252,-380.5007"/>
</g>
<!-- Node67112 -->
<g id="node16" class="node">
<title>Node67112</title>
<g id="a_node16"><a xlink:href="quickjs_8c.html#aab0be018b8f7bdcff45226f502c3f820" target="_top" xlink:title="get_proto_obj">
<polygon fill="none" stroke="#000000" points="681.5,-114.5 681.5,-133.5 756.5,-133.5 756.5,-114.5 681.5,-114.5"/>
<text text-anchor="middle" x="719" y="-121.5" font-family="Helvetica,sans-Serif" font-size="10.00" fill="#000000">get_proto_obj</text>
</a>
</g>
</g>
<!-- Node67088&#45;&gt;Node67112 -->
<g id="edge17" class="edge">
<title>Node67088&#45;&gt;Node67112</title>
<path fill="none" stroke="#191970" d="M273.2651,-266.4498C278.9418,-263.9802 284.3263,-260.8827 289,-257 317.7492,-233.1165 294.9332,-203.2019 325,-181 352.4872,-160.7029 572.6107,-137.7513 671.3581,-128.3576"/>
<polygon fill="#191970" stroke="#191970" points="671.7453,-131.8367 681.372,-127.4119 671.0872,-124.8677 671.7453,-131.8367"/>
</g>
<!-- Node67113 -->
<g id="node17" class="node">
<title>Node67113</title>
<g id="a_node17"><a xlink:href="quickjs_8c.html#a260bfa297ff6cb5bd18e229afaa54663" target="_top" xlink:title="JS_AtomToString">
<polygon fill="none" stroke="#000000" points="518.5,-190.5 518.5,-209.5 612.5,-209.5 612.5,-190.5 518.5,-190.5"/>
<text text-anchor="middle" x="565.5" y="-197.5" font-family="Helvetica,sans-Serif" font-size="10.00" fill="#000000">JS_AtomToString</text>
</a>
</g>
</g>
<!-- Node67088&#45;&gt;Node67113 -->
<g id="edge18" class="edge">
<title>Node67088&#45;&gt;Node67113</title>
<path fill="none" stroke="#191970" d="M238.807,-285.6281C284.4532,-304.187 391.8021,-339.341 464,-295 494.1483,-276.4842 473.5503,-247.4982 500,-224 504.5241,-219.9807 509.7776,-216.6161 515.3034,-213.8037"/>
<polygon fill="#191970" stroke="#191970" points="517.0743,-216.8461 524.7792,-209.5739 514.221,-210.454 517.0743,-216.8461"/>
</g>
<!-- Node67134 -->
<g id="node19" class="node">
<title>Node67134</title>
<g id="a_node19"><a xlink:href="quickjs_8h.html#a775522f2d084fc8fa0fcb33f390006b4" target="_top" xlink:title="JS_DupValue">
<polygon fill="none" stroke="#000000" points="828,-475.5 828,-494.5 905,-494.5 905,-475.5 828,-475.5"/>
<text text-anchor="middle" x="866.5" y="-482.5" font-family="Helvetica,sans-Serif" font-size="10.00" fill="#000000">JS_DupValue</text>
</a>
</g>
</g>
<!-- Node67088&#45;&gt;Node67134 -->
<g id="edge27" class="edge">
<title>Node67088&#45;&gt;Node67134</title>
<path fill="none" stroke="#191970" d="M220.8484,-285.752C232.0531,-314.3016 265.3557,-400.2776 289,-473 307.008,-528.3869 279.1113,-563.136 325,-599 481.4893,-721.303 595.355,-663.7133 771,-571 804.1491,-553.5024 834.9184,-521.9333 852.1553,-502.2971"/>
<polygon fill="#191970" stroke="#191970" points="854.8279,-504.5572 858.6815,-494.688 849.5145,-500 854.8279,-504.5572"/>
</g>
<!-- Node67135 -->
<g id="node20" class="node">
<title>Node67135</title>
<g id="a_node20"><a xlink:href="quickjs_8c.html#a0a8765bd4012467d9139bc24aabcb3ca" target="_top" xlink:title="JS_DefinePropertyValue">
<polygon fill="none" stroke="#ff0000" points="332.5,-342.5 332.5,-361.5 456.5,-361.5 456.5,-342.5 332.5,-342.5"/>
<text text-anchor="middle" x="394.5" y="-349.5" font-family="Helvetica,sans-Serif" font-size="10.00" fill="#000000">JS_DefinePropertyValue</text>
</a>
</g>
</g>
<!-- Node67088&#45;&gt;Node67135 -->
<g id="edge22" class="edge">
<title>Node67088&#45;&gt;Node67135</title>
<path fill="none" stroke="#191970" d="M235.432,-285.6869C256.6963,-296.6706 292.8648,-314.7676 325,-328 334.5609,-331.9369 345.0294,-335.7852 354.874,-339.2068"/>
<polygon fill="#191970" stroke="#191970" points="353.8594,-342.5587 364.4539,-342.4737 356.1188,-335.9333 353.8594,-342.5587"/>
</g>
<!-- Node67516 -->
<g id="node22" class="node">
<title>Node67516</title>
<g id="a_node22"><a xlink:href="quickjs_8c.html#ae11c9bc0861d37234b3118d9d4cde05d" target="_top" xlink:title="js_function_proto">
<polygon fill="none" stroke="#000000" points="349,-228.5 349,-247.5 440,-247.5 440,-228.5 349,-228.5"/>
<text text-anchor="middle" x="394.5" y="-235.5" font-family="Helvetica,sans-Serif" font-size="10.00" fill="#000000">js_function_proto</text>
</a>
</g>
</g>
<!-- Node67088&#45;&gt;Node67516 -->
<g id="edge28" class="edge">
<title>Node67088&#45;&gt;Node67516</title>
<path fill="none" stroke="#191970" d="M261.7907,-266.411C285.5303,-261.3287 314.8839,-255.0446 339.9437,-249.6797"/>
<polygon fill="#191970" stroke="#191970" points="340.9856,-253.036 350.0313,-247.5201 339.5202,-246.1911 340.9856,-253.036"/>
</g>
<!-- Node67151 -->
<g id="node23" class="node">
<title>Node67151</title>
<g id="a_node23"><a xlink:href="quickjs_8c.html#a1030d2020be7d911eb62869f21cc3b70" target="_top" xlink:title="js_new_shape2">
<polygon fill="none" stroke="#ff0000" points="352.5,-570.5 352.5,-589.5 436.5,-589.5 436.5,-570.5 352.5,-570.5"/>
<text text-anchor="middle" x="394.5" y="-577.5" font-family="Helvetica,sans-Serif" font-size="10.00" fill="#000000">js_new_shape2</text>
</a>
</g>
</g>
<!-- Node67088&#45;&gt;Node67151 -->
<g id="edge29" class="edge">
<title>Node67088&#45;&gt;Node67151</title>
<path fill="none" stroke="#191970" d="M222.7047,-285.7703C248.0033,-329.0985 350.2876,-504.2786 383.8064,-561.6853"/>
<polygon fill="#191970" stroke="#191970" points="380.8402,-563.5467 388.905,-570.4177 386.8853,-560.0171 380.8402,-563.5467"/>
</g>
<!-- Node67517 -->
<g id="node24" class="node">
<title>Node67517</title>
<g id="a_node24"><a xlink:href="quickjs_8c.html#a27c3a725d4014a35b5bedcdf6e70dec7" target="_top" xlink:title="JS_NewAtomString">
<polygon fill="none" stroke="#ff0000" points="343,-266.5 343,-285.5 446,-285.5 446,-266.5 343,-266.5"/>
<text text-anchor="middle" x="394.5" y="-273.5" font-family="Helvetica,sans-Serif" font-size="10.00" fill="#000000">JS_NewAtomString</text>
</a>
</g>
</g>
<!-- Node67088&#45;&gt;Node67517 -->
<g id="edge34" class="edge">
<title>Node67088&#45;&gt;Node67517</title>
<path fill="none" stroke="#191970" d="M289.196,-276C303.6388,-276 318.688,-276 332.7396,-276"/>
<polygon fill="#191970" stroke="#191970" points="332.7721,-279.5001 342.772,-276 332.772,-272.5001 332.7721,-279.5001"/>
</g>
<!-- Node67518 -->
<g id="node25" class="node">
<title>Node67518</title>
<g id="a_node25"><a xlink:href="quickjs_8c.html#a21cfe4c4fc9372dc0b95b37667cff0c9" target="_top" xlink:title="JS_NewCFunction3">
<polygon fill="none" stroke="#ff0000" points="342.5,-76.5 342.5,-95.5 446.5,-95.5 446.5,-76.5 342.5,-76.5"/>
<text text-anchor="middle" x="394.5" y="-83.5" font-family="Helvetica,sans-Serif" font-size="10.00" fill="#000000">JS_NewCFunction3</text>
</a>
</g>
</g>
<!-- Node67088&#45;&gt;Node67518 -->
<g id="edge36" class="edge">
<title>Node67088&#45;&gt;Node67518</title>
<path fill="none" stroke="#191970" d="M276.2219,-266.337C280.9384,-263.8624 285.3,-260.7954 289,-257 337.4619,-207.2888 276.7587,-154.9252 325,-105 327.5098,-102.4026 330.3377,-100.1494 333.3798,-98.1958"/>
<polygon fill="#191970" stroke="#191970" points="335.2047,-101.1909 342.4348,-93.4464 331.9532,-94.9918 335.2047,-101.1909"/>
</g>
<!-- Node67146 -->
<g id="node26" class="node">
<title>Node67146</title>
<g id="a_node26"><a xlink:href="quickjs_8c.html#a73738c650f11459db0d7af3dcdf8316b" target="_top" xlink:title="JS_NewObjectProtoClass">
<polygon fill="none" stroke="#ff0000" points="500,-76.5 500,-95.5 631,-95.5 631,-76.5 500,-76.5"/>
<text text-anchor="middle" x="565.5" y="-83.5" font-family="Helvetica,sans-Serif" font-size="10.00" fill="#000000">JS_NewObjectProtoClass</text>
</a>
</g>
</g>
<!-- Node67088&#45;&gt;Node67146 -->
<g id="edge43" class="edge">
<title>Node67088&#45;&gt;Node67146</title>
<path fill="none" stroke="#191970" d="M276.7475,-266.3275C281.2938,-263.8487 285.4751,-260.7836 289,-257 347.5861,-194.1149 258.8108,-121.8257 325,-67 385.8053,-16.6339 487.4709,-50.7475 536.8478,-72.234"/>
<polygon fill="#191970" stroke="#191970" points="535.7213,-75.5647 546.278,-76.4633 538.5859,-69.1776 535.7213,-75.5647"/>
</g>
<!-- Node67476 -->
<g id="node27" class="node">
<title>Node67476</title>
<g id="a_node27"><a xlink:href="quickjs_8c.html#afc0d8ea75588216ec132a6e1655524a7" target="_top" xlink:title="JS_NewObject">
<polygon fill="none" stroke="#000000" points="353,-.5 353,-19.5 436,-19.5 436,-.5 353,-.5"/>
<text text-anchor="middle" x="394.5" y="-7.5" font-family="Helvetica,sans-Serif" font-size="10.00" fill="#000000">JS_NewObject</text>
</a>
</g>
</g>
<!-- Node67088&#45;&gt;Node67476 -->
<g id="edge39" class="edge">
<title>Node67088&#45;&gt;Node67476</title>
<path fill="none" stroke="#191970" d="M276.8581,-266.4291C281.3812,-263.929 285.5268,-260.8312 289,-257 356.4289,-182.6202 260.3877,-110.8392 325,-34 329.9139,-28.1563 336.3255,-23.7331 343.2667,-20.3856"/>
<polygon fill="#191970" stroke="#191970" points="345.015,-23.4538 352.9694,-16.4554 342.3869,-16.9658 345.015,-23.4538"/>
</g>
<!-- Node67348 -->
<g id="node28" class="node">
<title>Node67348</title>
<g id="a_node28"><a xlink:href="quickjs_8c.html#a884d294acbf5be675ffc760e38bd0521" target="_top" xlink:title="JS_NewObjectProto">
<polygon fill="none" stroke="#000000" points="341.5,-114.5 341.5,-133.5 447.5,-133.5 447.5,-114.5 341.5,-114.5"/>
<text text-anchor="middle" x="394.5" y="-121.5" font-family="Helvetica,sans-Serif" font-size="10.00" fill="#000000">JS_NewObjectProto</text>
</a>
</g>
</g>
<!-- Node67088&#45;&gt;Node67348 -->
<g id="edge41" class="edge">
<title>Node67088&#45;&gt;Node67348</title>
<path fill="none" stroke="#191970" d="M275.1796,-266.339C280.2311,-263.8747 284.9512,-260.8091 289,-257 326.1585,-222.0413 289.1691,-184.3182 325,-148 328.9223,-144.0244 333.5337,-140.7067 338.4843,-137.9382"/>
<polygon fill="#191970" stroke="#191970" points="340.1833,-141.0051 347.6859,-133.5243 337.1558,-134.6936 340.1833,-141.0051"/>
</g>
<!-- Node67519 -->
<g id="node29" class="node">
<title>Node67519</title>
<g id="a_node29"><a xlink:href="quickjs_8c.html#ac00854b7f1f0f8567af964a2f8f2adb0" target="_top" xlink:title="JS_SetPropertyFunctionList">
<polygon fill="none" stroke="#ff0000" points="325,-190.5 325,-209.5 464,-209.5 464,-190.5 325,-190.5"/>
<text text-anchor="middle" x="394.5" y="-197.5" font-family="Helvetica,sans-Serif" font-size="10.00" fill="#000000">JS_SetPropertyFunctionList</text>
</a>
</g>
</g>
<!-- Node67088&#45;&gt;Node67519 -->
<g id="edge44" class="edge">
<title>Node67088&#45;&gt;Node67519</title>
<path fill="none" stroke="#191970" d="M267.6342,-266.4735C275.0781,-263.9965 282.4392,-260.8902 289,-257 309.0111,-245.1346 305.0416,-230.9539 325,-219 328.6218,-216.8308 332.4965,-214.9033 336.4947,-213.1915"/>
<polygon fill="#191970" stroke="#191970" points="337.887,-216.4065 345.9864,-209.5765 335.3955,-209.8649 337.887,-216.4065"/>
</g>
<!-- Node67090 -->
<g id="node8" class="node">
<title>Node67090</title>
<g id="a_node8"><a xlink:href="quickjs_8c.html#ae5e76f4be6214208cc91f10a192fc810" target="_top" xlink:title="js_shape_hash_unlink">
<polygon fill="none" stroke="#ff0000" points="509,-304.5 509,-323.5 622,-323.5 622,-304.5 509,-304.5"/>
<text text-anchor="middle" x="565.5" y="-311.5" font-family="Helvetica,sans-Serif" font-size="10.00" fill="#000000">js_shape_hash_unlink</text>
</a>
</g>
</g>
<!-- Node67089&#45;&gt;Node67090 -->
<g id="edge7" class="edge">
<title>Node67089&#45;&gt;Node67090</title>
<path fill="none" stroke="#191970" d="M443.0136,-380.4235C450.323,-377.9488 457.5613,-374.8564 464,-371 483.9584,-359.0461 480.1346,-345.1079 500,-333 503.428,-330.9106 507.097,-329.0414 510.883,-327.3707"/>
<polygon fill="#191970" stroke="#191970" points="512.4318,-330.5229 520.4642,-323.6142 509.8766,-324.0059 512.4318,-330.5229"/>
</g>
<!-- Node67092 -->
<g id="node9" class="node">
<title>Node67092</title>
<g id="a_node9"><a xlink:href="quickjs_8c.html#a11f047846c1027dc6066a5f1b2ef292a" target="_top" xlink:title="shape_hash">
<polygon fill="none" stroke="#000000" points="531,-494.5 531,-513.5 600,-513.5 600,-494.5 531,-494.5"/>
<text text-anchor="middle" x="565.5" y="-501.5" font-family="Helvetica,sans-Serif" font-size="10.00" fill="#000000">shape_hash</text>
</a>
</g>
</g>
<!-- Node67089&#45;&gt;Node67092 -->
<g id="edge8" class="edge">
<title>Node67089&#45;&gt;Node67092</title>
<path fill="none" stroke="#191970" d="M402.4615,-399.6311C418.7716,-418.7439 457.9999,-461.6334 500,-485 506.4732,-488.6013 513.6944,-491.5772 520.9115,-494.0182"/>
<polygon fill="#191970" stroke="#191970" points="520.0925,-497.4281 530.6796,-497.0239 522.1512,-490.7377 520.0925,-497.4281"/>
</g>
<!-- Node67093 -->
<g id="node10" class="node">
<title>Node67093</title>
<g id="a_node10"><a xlink:href="quickjs_8c.html#aa80740ff93b724ea7e0c280826f4a25a" target="_top" xlink:title="resize_properties">
<polygon fill="none" stroke="#ff0000" points="520,-456.5 520,-475.5 611,-475.5 611,-456.5 520,-456.5"/>
<text text-anchor="middle" x="565.5" y="-463.5" font-family="Helvetica,sans-Serif" font-size="10.00" fill="#000000">resize_properties</text>
</a>
</g>
</g>
<!-- Node67089&#45;&gt;Node67093 -->
<g id="edge9" class="edge">
<title>Node67089&#45;&gt;Node67093</title>
<path fill="none" stroke="#191970" d="M412.5209,-399.6176C433.3074,-410.5378 468.6517,-428.5765 500,-442 508.9117,-445.816 518.6543,-449.5922 527.8369,-452.9802"/>
<polygon fill="#191970" stroke="#191970" points="526.9212,-456.3711 537.5154,-456.4878 529.3063,-449.7899 526.9212,-456.3711"/>
</g>
<!-- Node67102 -->
<g id="node11" class="node">
<title>Node67102</title>
<g id="a_node11"><a xlink:href="quickjs_8c.html#acab22c2945c4d609e57a2484feb68a96" target="_top" xlink:title="prop_hash_end">
<polygon fill="none" stroke="#000000" points="677.5,-456.5 677.5,-475.5 760.5,-475.5 760.5,-456.5 677.5,-456.5"/>
<text text-anchor="middle" x="719" y="-463.5" font-family="Helvetica,sans-Serif" font-size="10.00" fill="#000000">prop_hash_end</text>
</a>
</g>
</g>
<!-- Node67089&#45;&gt;Node67102 -->
<g id="edge16" class="edge">
<title>Node67089&#45;&gt;Node67102</title>
<path fill="none" stroke="#191970" d="M435.2696,-399.5485C494.4881,-413.4179 604.2247,-439.1189 668.4884,-454.1699"/>
<polygon fill="#191970" stroke="#191970" points="667.8625,-457.6179 678.3972,-456.4906 669.4588,-450.8023 667.8625,-457.6179"/>
</g>
<!-- Node67107 -->
<g id="node12" class="node">
<title>Node67107</title>
<g id="a_node12"><a xlink:href="quickjs_8c.html#a82dbe63adeac7849406fd48d96f39f7b" target="_top" xlink:title="js_shape_hash_link">
<polygon fill="none" stroke="#ff0000" points="514.5,-532.5 514.5,-551.5 616.5,-551.5 616.5,-532.5 514.5,-532.5"/>
<text text-anchor="middle" x="565.5" y="-539.5" font-family="Helvetica,sans-Serif" font-size="10.00" fill="#000000">js_shape_hash_link</text>
</a>
</g>
</g>
<!-- Node67089&#45;&gt;Node67107 -->
<g id="edge12" class="edge">
<title>Node67089&#45;&gt;Node67107</title>
<path fill="none" stroke="#191970" d="M399.4205,-399.7225C412.3616,-424.2951 449.8379,-489.322 500,-523 503.0812,-525.0687 506.3897,-526.9156 509.8238,-528.564"/>
<polygon fill="#191970" stroke="#191970" points="508.5624,-531.8304 519.1373,-532.4801 511.2757,-525.3776 508.5624,-531.8304"/>
</g>
<!-- Node67108 -->
<g id="node13" class="node">
<title>Node67108</title>
<g id="a_node13"><a xlink:href="quickjs_8c.html#a643df594b75933007bcdbb071b5ea8c5" target="_top" xlink:title="get_shape_prop">
<polygon fill="none" stroke="#000000" points="676,-380.5 676,-399.5 762,-399.5 762,-380.5 676,-380.5"/>
<text text-anchor="middle" x="719" y="-387.5" font-family="Helvetica,sans-Serif" font-size="10.00" fill="#000000">get_shape_prop</text>
</a>
</g>
</g>
<!-- Node67089&#45;&gt;Node67108 -->
<g id="edge13" class="edge">
<title>Node67089&#45;&gt;Node67108</title>
<path fill="none" stroke="#191970" d="M446.6365,-390C506.7593,-390 605.0764,-390 665.6906,-390"/>
<polygon fill="#191970" stroke="#191970" points="665.8172,-393.5001 675.8172,-390 665.8172,-386.5001 665.8172,-393.5001"/>
</g>
<!-- Node67109 -->
<g id="node14" class="node">
<title>Node67109</title>
<g id="a_node14"><a xlink:href="quickjs_8c.html#abbf44eaeace1104a6bef718fbf5700fe" target="_top" xlink:title="JS_DupAtom">
<polygon fill="none" stroke="#ff0000" points="528,-342.5 528,-361.5 603,-361.5 603,-342.5 528,-342.5"/>
<text text-anchor="middle" x="565.5" y="-349.5" font-family="Helvetica,sans-Serif" font-size="10.00" fill="#000000">JS_DupAtom</text>
</a>
</g>
</g>
<!-- Node67089&#45;&gt;Node67109 -->
<g id="edge14" class="edge">
<title>Node67089&#45;&gt;Node67109</title>
<path fill="none" stroke="#191970" d="M437.6505,-380.411C462.086,-374.9809 492.6956,-368.1787 517.8373,-362.5917"/>
<polygon fill="#191970" stroke="#191970" points="518.8848,-365.9444 527.8874,-360.3584 517.3662,-359.1111 518.8848,-365.9444"/>
</g>
<!-- Node67111 -->
<g id="node15" class="node">
<title>Node67111</title>
<g id="a_node15"><a xlink:href="quickjs_8c.html#a288254c06a39c9fca740a7abdad2834e" target="_top" xlink:title="__JS_AtomIsTaggedInt">
<polygon fill="none" stroke="#000000" points="807,-266.5 807,-285.5 926,-285.5 926,-266.5 807,-266.5"/>
<text text-anchor="middle" x="866.5" y="-273.5" font-family="Helvetica,sans-Serif" font-size="10.00" fill="#000000">__JS_AtomIsTaggedInt</text>
</a>
</g>
</g>
<!-- Node67089&#45;&gt;Node67111 -->
<g id="edge15" class="edge">
<title>Node67089&#45;&gt;Node67111</title>
<path fill="none" stroke="#191970" d="M446.5838,-382.0739C453.0053,-379.3657 459.0413,-375.7689 464,-371 502.2964,-334.1694 457.1442,-288.4085 500,-257 547.6893,-222.0491 718.8659,-247.7628 809.41,-264.5493"/>
<polygon fill="#191970" stroke="#191970" points="809.0332,-268.0397 819.5076,-266.4463 810.3258,-261.16 809.0332,-268.0397"/>
</g>
<!-- Node67093&#45;&gt;Node67085 -->
<g id="edge10" class="edge">
<title>Node67093&#45;&gt;Node67085</title>
<path fill="none" stroke="#191970" d="M611.2137,-473.5294C618.4157,-476.2553 625.3396,-479.9619 631,-485 689.0629,-536.6799 709.9083,-632.9602 716.407,-674.3058"/>
<polygon fill="#191970" stroke="#191970" points="712.9762,-675.0355 717.8785,-684.4279 719.9034,-674.0284 712.9762,-675.0355"/>
</g>
<!-- Node67093&#45;&gt;Node67102 -->
<g id="edge11" class="edge">
<title>Node67093&#45;&gt;Node67102</title>
<path fill="none" stroke="#191970" d="M611.1395,-466C628.804,-466 649.1151,-466 667.3141,-466"/>
<polygon fill="#191970" stroke="#191970" points="667.4623,-469.5001 677.4623,-466 667.4622,-462.5001 667.4623,-469.5001"/>
</g>
<!-- Node67114 -->
<g id="node18" class="node">
<title>Node67114</title>
<g id="a_node18"><a xlink:href="quickjs_8c.html#a06ff303a11e6641cbf1f6634e6a61811" target="_top" xlink:title="__JS_AtomToValue">
<polygon fill="none" stroke="#ff0000" points="667,-304.5 667,-323.5 771,-323.5 771,-304.5 667,-304.5"/>
<text text-anchor="middle" x="719" y="-311.5" font-family="Helvetica,sans-Serif" font-size="10.00" fill="#000000">__JS_AtomToValue</text>
</a>
</g>
</g>
<!-- Node67113&#45;&gt;Node67114 -->
<g id="edge19" class="edge">
<title>Node67113&#45;&gt;Node67114</title>
<path fill="none" stroke="#191970" d="M578.3233,-209.5235C604.6684,-229.0892 665.1256,-273.9891 697.5404,-298.0626"/>
<polygon fill="#191970" stroke="#191970" points="695.7728,-301.1095 705.8878,-304.262 699.9464,-295.4898 695.7728,-301.1095"/>
</g>
<!-- Node67114&#45;&gt;Node67111 -->
<g id="edge20" class="edge">
<title>Node67114&#45;&gt;Node67111</title>
<path fill="none" stroke="#191970" d="M756.2205,-304.411C775.5093,-299.4417 799.2584,-293.3233 819.771,-288.0387"/>
<polygon fill="#191970" stroke="#191970" points="820.7366,-291.4043 829.5472,-285.5201 818.9902,-284.6256 820.7366,-291.4043"/>
</g>
<!-- Node67114&#45;&gt;Node67134 -->
<g id="edge21" class="edge">
<title>Node67114&#45;&gt;Node67134</title>
<path fill="none" stroke="#191970" d="M747.1646,-323.5577C755.4231,-327.2294 764.084,-332.0129 771,-338 813.6061,-374.8838 844.5409,-435.3182 858.3977,-465.9374"/>
<polygon fill="#191970" stroke="#191970" points="855.3466,-467.6936 862.578,-475.4369 861.7537,-464.8741 855.3466,-467.6936"/>
</g>
<!-- Node67136 -->
<g id="node21" class="node">
<title>Node67136</title>
<g id="a_node21"><a xlink:href="quickjs_8c.html#ab50618f1bf78e444caa6da0e3e2785d7" target="_top" xlink:title="JS_DefineProperty">
<polygon fill="none" stroke="#ff0000" points="516,-266.5 516,-285.5 615,-285.5 615,-266.5 516,-266.5"/>
<text text-anchor="middle" x="565.5" y="-273.5" font-family="Helvetica,sans-Serif" font-size="10.00" fill="#000000">JS_DefineProperty</text>
</a>
</g>
</g>
<!-- Node67135&#45;&gt;Node67136 -->
<g id="edge23" class="edge">
<title>Node67135&#45;&gt;Node67136</title>
<path fill="none" stroke="#191970" d="M431.1013,-342.4705C442.0968,-338.7999 453.9104,-334.01 464,-328 482.6475,-316.8923 481.0797,-305.6364 500,-295 503.9382,-292.7861 508.1575,-290.81 512.4867,-289.0501"/>
<polygon fill="#191970" stroke="#191970" points="513.8897,-292.2636 522.073,-285.5342 511.4793,-285.6917 513.8897,-292.2636"/>
</g>
<!-- Node67136&#45;&gt;Node67108 -->
<g id="edge25" class="edge">
<title>Node67136&#45;&gt;Node67108</title>
<path fill="none" stroke="#191970" d="M615.292,-285.6265C620.9535,-288.0755 626.3502,-291.1473 631,-295 658.2433,-317.5734 641.5257,-341.4477 667,-366 670.8391,-369.7001 675.3515,-372.9032 680.0867,-375.655"/>
<polygon fill="#191970" stroke="#191970" points="678.8532,-378.9558 689.3488,-380.403 682.0465,-372.7266 678.8532,-378.9558"/>
</g>
<!-- Node67136&#45;&gt;Node67111 -->
<g id="edge26" class="edge">
<title>Node67136&#45;&gt;Node67111</title>
<path fill="none" stroke="#191970" d="M615.204,-276C664.72,-276 741.1768,-276 796.7565,-276"/>
<polygon fill="#191970" stroke="#191970" points="796.8804,-279.5001 806.8804,-276 796.8803,-272.5001 796.8804,-279.5001"/>
</g>
<!-- Node67136&#45;&gt;Node67134 -->
<g id="edge24" class="edge">
<title>Node67136&#45;&gt;Node67134</title>
<path fill="none" stroke="#191970" d="M610.5358,-285.6142C617.6575,-288.095 624.7316,-291.1794 631,-295 650.8654,-307.1079 647.5576,-320.2239 667,-333 708.1263,-360.0251 730.7177,-342.7322 771,-371 808.3149,-397.1855 839.5855,-441.4786 855.3992,-466.4459"/>
<polygon fill="#191970" stroke="#191970" points="852.6236,-468.6123 860.8576,-475.2794 858.5784,-464.9326 852.6236,-468.6123"/>
</g>
<!-- Node67151&#45;&gt;Node67084 -->
<g id="edge30" class="edge">
<title>Node67151&#45;&gt;Node67084</title>
<path fill="none" stroke="#191970" d="M408.7852,-589.5235C438.3847,-609.2565 506.6376,-654.7584 542.5129,-678.6753"/>
<polygon fill="#191970" stroke="#191970" points="540.6309,-681.6271 550.8929,-684.262 544.5139,-675.8027 540.6309,-681.6271"/>
</g>
<!-- Node67151&#45;&gt;Node67102 -->
<g id="edge32" class="edge">
<title>Node67151&#45;&gt;Node67102</title>
<path fill="none" stroke="#191970" d="M436.6165,-585.4807C485.857,-589.95 568.5598,-591.3084 631,-561 665.863,-544.0776 693.6747,-506.8725 708.1246,-484.3714"/>
<polygon fill="#191970" stroke="#191970" points="711.1871,-486.0739 713.4809,-475.7304 705.2374,-482.3859 711.1871,-486.0739"/>
</g>
<!-- Node67151&#45;&gt;Node67107 -->
<g id="edge33" class="edge">
<title>Node67151&#45;&gt;Node67107</title>
<path fill="none" stroke="#191970" d="M436.7697,-570.6067C459.7181,-565.5071 488.305,-559.1544 512.7068,-553.7318"/>
<polygon fill="#191970" stroke="#191970" points="513.5263,-557.1352 522.5288,-551.5491 512.0077,-550.3019 513.5263,-557.1352"/>
</g>
<!-- Node67151&#45;&gt;Node67134 -->
<g id="edge31" class="edge">
<title>Node67151&#45;&gt;Node67134</title>
<path fill="none" stroke="#191970" d="M436.8876,-587.4471C484.6229,-594.4514 564.247,-601.9594 631,-588 712.6548,-570.9243 800.6328,-523.8639 842.1581,-499.7155"/>
<polygon fill="#191970" stroke="#191970" points="844.1501,-502.6043 850.9914,-494.5144 840.5984,-496.5722 844.1501,-502.6043"/>
</g>
<!-- Node67517&#45;&gt;Node67113 -->
<g id="edge35" class="edge">
<title>Node67517&#45;&gt;Node67113</title>
<path fill="none" stroke="#191970" d="M441.3136,-266.4977C449.1434,-263.991 456.9914,-260.869 464,-257 483.002,-246.5102 481.4572,-235.2817 500,-224 506.8383,-219.8395 514.5116,-216.2275 522.1329,-213.1582"/>
<polygon fill="#191970" stroke="#191970" points="523.5659,-216.3586 531.6919,-209.5602 521.1,-209.8073 523.5659,-216.3586"/>
</g>
<!-- Node67518&#45;&gt;Node67146 -->
<g id="edge37" class="edge">
<title>Node67518&#45;&gt;Node67146</title>
<path fill="none" stroke="#191970" d="M446.7348,-86C460.3811,-86 475.3667,-86 489.96,-86"/>
<polygon fill="#191970" stroke="#191970" points="489.9791,-89.5001 499.9791,-86 489.979,-82.5001 489.9791,-89.5001"/>
</g>
<!-- Node67146&#45;&gt;Node67112 -->
<g id="edge38" class="edge">
<title>Node67146&#45;&gt;Node67112</title>
<path fill="none" stroke="#191970" d="M604.2345,-95.589C624.6293,-100.6379 649.8154,-106.8729 671.3925,-112.2144"/>
<polygon fill="#191970" stroke="#191970" points="670.7911,-115.6711 681.3391,-114.6768 672.4732,-108.8762 670.7911,-115.6711"/>
</g>
<!-- Node67476&#45;&gt;Node67146 -->
<g id="edge40" class="edge">
<title>Node67476&#45;&gt;Node67146</title>
<path fill="none" stroke="#191970" d="M425.3006,-19.5979C437.4978,-23.6669 451.5528,-28.6937 464,-34 490.4152,-45.261 519.4774,-60.4523 539.7093,-71.5063"/>
<polygon fill="#191970" stroke="#191970" points="538.1646,-74.6514 548.6117,-76.4149 541.5446,-68.5214 538.1646,-74.6514"/>
</g>
<!-- Node67348&#45;&gt;Node67146 -->
<g id="edge42" class="edge">
<title>Node67348&#45;&gt;Node67146</title>
<path fill="none" stroke="#191970" d="M437.6505,-114.411C460.4191,-109.3513 488.5482,-103.1004 512.6194,-97.7512"/>
<polygon fill="#191970" stroke="#191970" points="513.6572,-101.1061 522.6598,-95.5201 512.1386,-94.2728 513.6572,-101.1061"/>
</g>
</g>
</svg>
