<?xml version="1.0" encoding="UTF-8" standalone="no"?>
<!DOCTYPE svg PUBLIC "-//W3C//DTD SVG 1.1//EN"
 "http://www.w3.org/Graphics/SVG/1.1/DTD/svg11.dtd">
<!-- Generated by graphviz version 2.40.1 (20161225.0304)
 -->
<!-- Title: js_host_resolve_imported_module_atom Pages: 1 -->
<svg width="817pt" height="197pt"
 viewBox="0.00 0.00 817.00 196.98" xmlns="http://www.w3.org/2000/svg" xmlns:xlink="http://www.w3.org/1999/xlink">
<g id="graph0" class="graph" transform="scale(1 1) rotate(0) translate(4 192.9812)">
<title>js_host_resolve_imported_module_atom</title>
<!-- Node330676 -->
<g id="node1" class="node">
<title>Node330676</title>
<polygon fill="#bfbfbf" stroke="#000000" points="0,-44.5 0,-74.5 128,-74.5 128,-44.5 0,-44.5"/>
<text text-anchor="start" x="8" y="-62.5" font-family="Helvetica,sans-Serif" font-size="10.00" fill="#000000">js_host_resolve_imported</text>
<text text-anchor="middle" x="64" y="-51.5" font-family="Helvetica,sans-Serif" font-size="10.00" fill="#000000">_module_atom</text>
</g>
<!-- Node330677 -->
<g id="node2" class="node">
<title>Node330677</title>
<g id="a_node2"><a xlink:href="quickjs_8c.html#a4b66ebf3abee5d29490343fbe360ec5a" target="_top" xlink:title="JS_AtomToCString">
<polygon fill="none" stroke="#000000" points="177.5,-107 177.5,-126 278.5,-126 278.5,-107 177.5,-107"/>
<text text-anchor="middle" x="228" y="-114" font-family="Helvetica,sans-Serif" font-size="10.00" fill="#000000">JS_AtomToCString</text>
</a>
</g>
</g>
<!-- Node330676&#45;&gt;Node330677 -->
<g id="edge1" class="edge">
<title>Node330676&#45;&gt;Node330677</title>
<path fill="none" stroke="#191970" d="M107.5184,-74.6253C133.3734,-83.6115 165.8293,-94.8919 190.5391,-103.4801"/>
<polygon fill="#191970" stroke="#191970" points="189.6791,-106.8865 200.2739,-106.8635 191.9772,-100.2744 189.6791,-106.8865"/>
</g>
<!-- Node330798 -->
<g id="node10" class="node">
<title>Node330798</title>
<g id="a_node10"><a xlink:href="quickjs_8c.html#ae0bc4f65da64810facb2cb9e476eda2e" target="_top" xlink:title="JS_FreeCString">
<polygon fill="none" stroke="#000000" points="332,-31 332,-50 418,-50 418,-31 332,-31"/>
<text text-anchor="middle" x="375" y="-38" font-family="Helvetica,sans-Serif" font-size="10.00" fill="#000000">JS_FreeCString</text>
</a>
</g>
</g>
<!-- Node330676&#45;&gt;Node330798 -->
<g id="edge11" class="edge">
<title>Node330676&#45;&gt;Node330798</title>
<path fill="none" stroke="#191970" d="M128.0623,-55.5862C185.36,-52.0857 268.3465,-47.0158 321.9915,-43.7385"/>
<polygon fill="#191970" stroke="#191970" points="322.2154,-47.2314 331.9833,-43.128 321.7884,-40.2444 322.2154,-47.2314"/>
</g>
<!-- Node331014 -->
<g id="node11" class="node">
<title>Node331014</title>
<g id="a_node11"><a xlink:href="quickjs_8c.html#a90dd988b99a5bc7b2a4aaffd2de405a9" target="_top" xlink:title="js_host_resolve_imported\l_module">
<polygon fill="none" stroke="#ff0000" points="164,-.5 164,-30.5 292,-30.5 292,-.5 164,-.5"/>
<text text-anchor="start" x="172" y="-18.5" font-family="Helvetica,sans-Serif" font-size="10.00" fill="#000000">js_host_resolve_imported</text>
<text text-anchor="middle" x="228" y="-7.5" font-family="Helvetica,sans-Serif" font-size="10.00" fill="#000000">_module</text>
</a>
</g>
</g>
<!-- Node330676&#45;&gt;Node331014 -->
<g id="edge13" class="edge">
<title>Node330676&#45;&gt;Node331014</title>
<path fill="none" stroke="#191970" d="M119.9808,-44.4808C133.4958,-40.8548 148.0629,-36.9466 161.9897,-33.2101"/>
<polygon fill="#191970" stroke="#191970" points="163.2418,-36.498 171.9932,-30.5262 161.4278,-29.7371 163.2418,-36.498"/>
</g>
<!-- Node330678 -->
<g id="node3" class="node">
<title>Node330678</title>
<g id="a_node3"><a xlink:href="quickjs_8c.html#a260bfa297ff6cb5bd18e229afaa54663" target="_top" xlink:title="JS_AtomToString">
<polygon fill="none" stroke="#000000" points="328,-145 328,-164 422,-164 422,-145 328,-145"/>
<text text-anchor="middle" x="375" y="-152" font-family="Helvetica,sans-Serif" font-size="10.00" fill="#000000">JS_AtomToString</text>
</a>
</g>
</g>
<!-- Node330677&#45;&gt;Node330678 -->
<g id="edge2" class="edge">
<title>Node330677&#45;&gt;Node330678</title>
<path fill="none" stroke="#191970" d="M265.0943,-126.089C284.3178,-131.0583 307.9863,-137.1767 328.4294,-142.4613"/>
<polygon fill="#191970" stroke="#191970" points="327.6147,-145.8657 338.1724,-144.9799 329.3667,-139.0885 327.6147,-145.8657"/>
</g>
<!-- Node330706 -->
<g id="node5" class="node">
<title>Node330706</title>
<g id="a_node5"><a xlink:href="quickjs_8h.html#afaa20c47565bc704c6c85f3d77254e7d" target="_top" xlink:title="JS_FreeValue">
<polygon fill="none" stroke="#000000" points="602,-69 602,-88 680,-88 680,-69 602,-69"/>
<text text-anchor="middle" x="641" y="-76" font-family="Helvetica,sans-Serif" font-size="10.00" fill="#000000">JS_FreeValue</text>
</a>
</g>
</g>
<!-- Node330677&#45;&gt;Node330706 -->
<g id="edge4" class="edge">
<title>Node330677&#45;&gt;Node330706</title>
<path fill="none" stroke="#191970" d="M271.6189,-106.9649C289.0727,-103.4768 309.4123,-99.8204 328,-97.5 420.6861,-85.9293 529.7281,-81.3337 591.5691,-79.5611"/>
<polygon fill="#191970" stroke="#191970" points="591.915,-83.053 601.8156,-79.2809 591.7236,-76.0556 591.915,-83.053"/>
</g>
<!-- Node330742 -->
<g id="node7" class="node">
<title>Node330742</title>
<g id="a_node7"><a xlink:href="quickjs_8h.html#ad80a83d73e9b7d872b88fbf2943aebe9" target="_top" xlink:title="JS_IsException">
<polygon fill="none" stroke="#000000" points="598,-145 598,-164 684,-164 684,-145 598,-145"/>
<text text-anchor="middle" x="641" y="-152" font-family="Helvetica,sans-Serif" font-size="10.00" fill="#000000">JS_IsException</text>
</a>
</g>
</g>
<!-- Node330677&#45;&gt;Node330742 -->
<g id="edge6" class="edge">
<title>Node330677&#45;&gt;Node330742</title>
<path fill="none" stroke="#191970" d="M240.0141,-126.1521C257.9168,-139.8495 293.2299,-164.2864 328,-173.5 428.5303,-200.1393 458.7234,-185.7448 562,-173.5 574.2572,-172.0467 587.3647,-169.3673 599.3092,-166.4695"/>
<polygon fill="#191970" stroke="#191970" points="600.1917,-169.8566 609.0249,-164.0063 598.4714,-163.0713 600.1917,-169.8566"/>
</g>
<!-- Node330743 -->
<g id="node8" class="node">
<title>Node330743</title>
<g id="a_node8"><a xlink:href="quickjs_8h.html#af931f06630ab719b5f82a16eb27effd1" target="_top" xlink:title="JS_ToCString">
<polygon fill="none" stroke="#000000" points="336,-107 336,-126 414,-126 414,-107 336,-107"/>
<text text-anchor="middle" x="375" y="-114" font-family="Helvetica,sans-Serif" font-size="10.00" fill="#000000">JS_ToCString</text>
</a>
</g>
</g>
<!-- Node330677&#45;&gt;Node330743 -->
<g id="edge7" class="edge">
<title>Node330677&#45;&gt;Node330743</title>
<path fill="none" stroke="#191970" d="M278.5891,-116.5C293.8392,-116.5 310.5515,-116.5 325.7155,-116.5"/>
<polygon fill="#191970" stroke="#191970" points="325.9294,-120.0001 335.9294,-116.5 325.9294,-113.0001 325.9294,-120.0001"/>
</g>
<!-- Node330679 -->
<g id="node4" class="node">
<title>Node330679</title>
<g id="a_node4"><a xlink:href="quickjs_8c.html#a06ff303a11e6641cbf1f6634e6a61811" target="_top" xlink:title="__JS_AtomToValue">
<polygon fill="none" stroke="#ff0000" points="458,-145 458,-164 562,-164 562,-145 458,-145"/>
<text text-anchor="middle" x="510" y="-152" font-family="Helvetica,sans-Serif" font-size="10.00" fill="#000000">__JS_AtomToValue</text>
</a>
</g>
</g>
<!-- Node330678&#45;&gt;Node330679 -->
<g id="edge3" class="edge">
<title>Node330678&#45;&gt;Node330679</title>
<path fill="none" stroke="#191970" d="M422.2164,-154.5C430.5233,-154.5 439.282,-154.5 447.9214,-154.5"/>
<polygon fill="#191970" stroke="#191970" points="447.9745,-158.0001 457.9744,-154.5 447.9744,-151.0001 447.9745,-158.0001"/>
</g>
<!-- Node330707 -->
<g id="node6" class="node">
<title>Node330707</title>
<g id="a_node6"><a xlink:href="quickjs_8c.html#aa059f309c30fd5166d16c82a97973146" target="_top" xlink:title="__JS_FreeValue">
<polygon fill="none" stroke="#ff0000" points="720,-69 720,-88 809,-88 809,-69 720,-69"/>
<text text-anchor="middle" x="764.5" y="-76" font-family="Helvetica,sans-Serif" font-size="10.00" fill="#000000">__JS_FreeValue</text>
</a>
</g>
</g>
<!-- Node330706&#45;&gt;Node330707 -->
<g id="edge5" class="edge">
<title>Node330706&#45;&gt;Node330707</title>
<path fill="none" stroke="#191970" d="M680.0762,-78.5C689.412,-78.5 699.5507,-78.5 709.4566,-78.5"/>
<polygon fill="#191970" stroke="#191970" points="709.6517,-82.0001 719.6517,-78.5 709.6517,-75.0001 709.6517,-82.0001"/>
</g>
<!-- Node330744 -->
<g id="node9" class="node">
<title>Node330744</title>
<g id="a_node9"><a xlink:href="quickjs_8c.html#af49e67b73f845dc1f9c3ee648dd9f95c" target="_top" xlink:title="JS_ToCStringLen2">
<polygon fill="none" stroke="#ff0000" points="460.5,-107 460.5,-126 559.5,-126 559.5,-107 460.5,-107"/>
<text text-anchor="middle" x="510" y="-114" font-family="Helvetica,sans-Serif" font-size="10.00" fill="#000000">JS_ToCStringLen2</text>
</a>
</g>
</g>
<!-- Node330743&#45;&gt;Node330744 -->
<g id="edge8" class="edge">
<title>Node330743&#45;&gt;Node330744</title>
<path fill="none" stroke="#191970" d="M414.0476,-116.5C425.3634,-116.5 437.985,-116.5 450.2598,-116.5"/>
<polygon fill="#191970" stroke="#191970" points="450.4527,-120.0001 460.4527,-116.5 450.4527,-113.0001 450.4527,-120.0001"/>
</g>
<!-- Node330744&#45;&gt;Node330706 -->
<g id="edge9" class="edge">
<title>Node330744&#45;&gt;Node330706</title>
<path fill="none" stroke="#191970" d="M543.0568,-106.911C559.8125,-102.0506 580.3577,-96.0909 598.2965,-90.8873"/>
<polygon fill="#191970" stroke="#191970" points="599.3247,-94.2334 607.9537,-88.0859 597.3745,-87.5105 599.3247,-94.2334"/>
</g>
<!-- Node330744&#45;&gt;Node330742 -->
<g id="edge10" class="edge">
<title>Node330744&#45;&gt;Node330742</title>
<path fill="none" stroke="#191970" d="M543.0568,-126.089C559.8125,-130.9494 580.3577,-136.9091 598.2965,-142.1127"/>
<polygon fill="#191970" stroke="#191970" points="597.3745,-145.4895 607.9537,-144.9141 599.3247,-138.7666 597.3745,-145.4895"/>
</g>
<!-- Node330798&#45;&gt;Node330706 -->
<g id="edge12" class="edge">
<title>Node330798&#45;&gt;Node330706</title>
<path fill="none" stroke="#191970" d="M418.1605,-45.4464C456.1148,-49.9375 512.818,-56.9904 562,-64.5 571.6063,-65.9668 581.8439,-67.6739 591.6554,-69.3813"/>
<polygon fill="#191970" stroke="#191970" points="591.2251,-72.8594 601.6813,-71.1508 592.4418,-65.9659 591.2251,-72.8594"/>
</g>
</g>
</svg>
