<?xml version="1.0" encoding="UTF-8" standalone="no"?>
<!DOCTYPE svg PUBLIC "-//W3C//DTD SVG 1.1//EN"
 "http://www.w3.org/Graphics/SVG/1.1/DTD/svg11.dtd">
<!-- Generated by graphviz version 2.40.1 (20161225.0304)
 -->
<!-- Title: JS_NewUint32 Pages: 1 -->
<!--zoomable 636 -->
<svg id="main" version="1.1" xmlns="http://www.w3.org/2000/svg" xmlns:xlink="http://www.w3.org/1999/xlink" xml:space="preserve" onload="init(evt)">
<style type="text/css"><![CDATA[
.edge:hover path { stroke: red; }
.edge:hover polygon { stroke: red; fill: red; }
]]></style>
<script type="text/javascript"><![CDATA[
var edges = document.getElementsByTagName('g');
if (edges && edges.length) {
  for (var i=0;i<edges.length;i++) {
    if (edges[i].id.substr(0,4)=='edge') {
      edges[i].setAttribute('class','edge');
    }
  }
}
]]></script>
        <defs>
                <circle id="rim" cx="0" cy="0" r="7"/>
                <circle id="rim2" cx="0" cy="0" r="3.5"/>
                <g id="zoomPlus">
                        <use xlink:href="#rim" fill="#404040">
                                <set attributeName="fill" to="#808080" begin="zoomplus.mouseover" end="zoomplus.mouseout"/>
                        </use>
                        <path d="M-4,0h8M0,-4v8" fill="none" stroke="white" stroke-width="1.5" pointer-events="none"/>
                </g>
                <g id="zoomMin">
                        <use xlink:href="#rim" fill="#404040">
                                <set attributeName="fill" to="#808080" begin="zoomminus.mouseover" end="zoomminus.mouseout"/>
                        </use>
                        <path d="M-4,0h8" fill="none" stroke="white" stroke-width="1.5" pointer-events="none"/>
                </g>
                <g id="dirArrow">
                        <path fill="none" stroke="white" stroke-width="1.5" d="M0,-3.0v7 M-2.5,-0.5L0,-3.0L2.5,-0.5"/>
                </g>
               <g id="resetDef">
                       <use xlink:href="#rim2" fill="#404040">
                               <set attributeName="fill" to="#808080" begin="reset.mouseover" end="reset.mouseout"/>
                       </use>
               </g>
        </defs>

<script type="text/javascript">
var viewWidth = 874;
var viewHeight = 636;
var sectionId = 'dynsection-96';
</script>
<script xlink:href="svgpan.js"/>
<svg id="graph" class="graph">
<g id="viewport">
<title>JS_NewUint32</title>
<!-- Node28410 -->
<g id="node1" class="node">
<title>Node28410</title>
<polygon fill="#bfbfbf" stroke="#000000" points="0,-266.5 0,-285.5 83,-285.5 83,-266.5 0,-266.5"/>
<text text-anchor="middle" x="41.5" y="-273.5" font-family="Helvetica,sans-Serif" font-size="10.00" fill="#000000">JS_NewUint32</text>
</g>
<!-- Node28411 -->
<g id="node2" class="node">
<title>Node28411</title>
<g id="a_node2"><a xlink:href="quickjs_8c.html#a68c7842d6b1ef577bc4625aec4ede310" target="_top" xlink:title="js_array_constructor">
<polygon fill="none" stroke="#000000" points="292.5,-513.5 292.5,-532.5 397.5,-532.5 397.5,-513.5 292.5,-513.5"/>
<text text-anchor="middle" x="345" y="-520.5" font-family="Helvetica,sans-Serif" font-size="10.00" fill="#000000">js_array_constructor</text>
</a>
</g>
</g>
<!-- Node28410&#45;&gt;Node28411 -->
<g id="edge1" class="edge">
<title>Node28410&#45;&gt;Node28411</title>
<path fill="none" stroke="#191970" d="M42.8136,-295.5961C46.6799,-336.6668 61.6862,-431.9329 119,-480 144.706,-501.5587 234.0029,-513.3402 292.3571,-518.8925"/>
<polygon fill="#191970" stroke="#191970" points="46.2942,-295.2157 41.9925,-285.5335 39.3174,-295.785 46.2942,-295.2157"/>
</g>
<!-- Node28417 -->
<g id="node5" class="node">
<title>Node28417</title>
<g id="a_node5"><a xlink:href="quickjs_8c.html#a5e32da9a43002cb96dcbd62a1a340144" target="_top" xlink:title="js_array_from">
<polygon fill="none" stroke="#000000" points="490,-465.5 490,-484.5 566,-484.5 566,-465.5 490,-465.5"/>
<text text-anchor="middle" x="528" y="-472.5" font-family="Helvetica,sans-Serif" font-size="10.00" fill="#000000">js_array_from</text>
</a>
</g>
</g>
<!-- Node28410&#45;&gt;Node28417 -->
<g id="edge10" class="edge">
<title>Node28410&#45;&gt;Node28417</title>
<path fill="none" stroke="#191970" d="M44.9894,-296.0755C52.1319,-330.5082 71.9041,-400.2731 119,-433 178.4232,-474.2931 400.2669,-476.5231 489.9863,-475.6642"/>
<polygon fill="#191970" stroke="#191970" points="48.3507,-295.0193 43.0301,-285.8574 41.476,-296.3376 48.3507,-295.0193"/>
</g>
<!-- Node28423 -->
<g id="node11" class="node">
<title>Node28423</title>
<g id="a_node11"><a xlink:href="quickjs_8c.html#a4398c126700f887a947501bf25910f75" target="_top" xlink:title="js_array_iterator_next">
<polygon fill="none" stroke="#000000" points="473,-295.5 473,-314.5 583,-314.5 583,-295.5 473,-295.5"/>
<text text-anchor="middle" x="528" y="-302.5" font-family="Helvetica,sans-Serif" font-size="10.00" fill="#000000">js_array_iterator_next</text>
</a>
</g>
</g>
<!-- Node28410&#45;&gt;Node28423 -->
<g id="edge11" class="edge">
<title>Node28410&#45;&gt;Node28423</title>
<path fill="none" stroke="#191970" d="M93.403,-277.8885C166.5306,-280.711 304.0373,-286.6105 421,-295 437.8416,-296.208 456.1478,-297.8117 472.7784,-299.3802"/>
<polygon fill="#191970" stroke="#191970" points="93.2173,-274.379 83.0909,-277.4945 92.95,-281.3739 93.2173,-274.379"/>
</g>
<!-- Node28425 -->
<g id="node13" class="node">
<title>Node28425</title>
<g id="a_node13"><a xlink:href="quickjs_8c.html#ac2894ff4edcdb4e6841bcce9c76081e3" target="_top" xlink:title="JS_CallInternal">
<polygon fill="none" stroke="#ff0000" points="783,-361.5 783,-380.5 866,-380.5 866,-361.5 783,-361.5"/>
<text text-anchor="middle" x="824.5" y="-368.5" font-family="Helvetica,sans-Serif" font-size="10.00" fill="#000000">JS_CallInternal</text>
</a>
</g>
</g>
<!-- Node28410&#45;&gt;Node28425 -->
<g id="edge17" class="edge">
<title>Node28410&#45;&gt;Node28425</title>
<path fill="none" stroke="#191970" d="M50.6801,-294.6123C62.8721,-317.0803 86.6893,-353.9651 119,-371 208.1653,-418.01 244.2012,-390 345,-390 345,-390 345,-390 528,-390 619.041,-390 725.4849,-380.9684 782.8167,-375.359"/>
<polygon fill="#191970" stroke="#191970" points="53.7617,-292.9519 46.0415,-285.696 47.5518,-296.1826 53.7617,-292.9519"/>
</g>
<!-- Node28520 -->
<g id="node14" class="node">
<title>Node28520</title>
<g id="a_node14"><a xlink:href="quickjs_8c.html#aed64f4c93145310216f62d7548856b8d" target="_top" xlink:title="js_array_of">
<polygon fill="none" stroke="#000000" points="143.5,-190.5 143.5,-209.5 208.5,-209.5 208.5,-190.5 143.5,-190.5"/>
<text text-anchor="middle" x="176" y="-197.5" font-family="Helvetica,sans-Serif" font-size="10.00" fill="#000000">js_array_of</text>
</a>
</g>
</g>
<!-- Node28410&#45;&gt;Node28520 -->
<g id="edge15" class="edge">
<title>Node28410&#45;&gt;Node28520</title>
<path fill="none" stroke="#191970" d="M62.3772,-260.3826C77.5964,-249.4036 98.9736,-234.8043 119,-224 128.9222,-218.6469 140.2941,-213.6476 150.2573,-209.6123"/>
<polygon fill="#191970" stroke="#191970" points="60.1914,-257.6449 54.1847,-266.3725 64.323,-263.2957 60.1914,-257.6449"/>
</g>
<!-- Node28863 -->
<g id="node15" class="node">
<title>Node28863</title>
<g id="a_node15"><a xlink:href="quickjs_8c.html#adbeea736a6232c3a784b39a2dfb6a510" target="_top" xlink:title="js_atomics_op">
<polygon fill="none" stroke="#000000" points="136,-152.5 136,-171.5 216,-171.5 216,-152.5 136,-152.5"/>
<text text-anchor="middle" x="176" y="-159.5" font-family="Helvetica,sans-Serif" font-size="10.00" fill="#000000">js_atomics_op</text>
</a>
</g>
</g>
<!-- Node28410&#45;&gt;Node28863 -->
<g id="edge16" class="edge">
<title>Node28410&#45;&gt;Node28863</title>
<path fill="none" stroke="#191970" d="M51.9875,-257.66C65.0739,-236.3319 89.3775,-201.4458 119,-181 124.5801,-177.1485 131.0013,-174.028 137.4767,-171.5155"/>
<polygon fill="#191970" stroke="#191970" points="48.89,-256.0211 46.7854,-266.4048 54.906,-259.5999 48.89,-256.0211"/>
</g>
<!-- Node28611 -->
<g id="node16" class="node">
<title>Node28611</title>
<g id="a_node16"><a xlink:href="quickjs_8c.html#ad5565bb5cfd5321f181573257f3b0c91" target="_top" xlink:title="JS_CreateProperty">
<polygon fill="none" stroke="#ff0000" points="126,-114.5 126,-133.5 226,-133.5 226,-114.5 126,-114.5"/>
<text text-anchor="middle" x="176" y="-121.5" font-family="Helvetica,sans-Serif" font-size="10.00" fill="#000000">JS_CreateProperty</text>
</a>
</g>
</g>
<!-- Node28410&#45;&gt;Node28611 -->
<g id="edge18" class="edge">
<title>Node28410&#45;&gt;Node28611</title>
<path fill="none" stroke="#191970" d="M47.7597,-256.6694C58.065,-227.8247 81.3019,-173.6393 119,-143 123.7759,-139.1184 129.378,-136.0167 135.1718,-133.5417"/>
<polygon fill="#191970" stroke="#191970" points="44.3625,-255.7871 44.44,-266.3817 50.9863,-258.0512 44.3625,-255.7871"/>
</g>
<!-- Node28899 -->
<g id="node17" class="node">
<title>Node28899</title>
<g id="a_node17"><a xlink:href="quickjs_8c.html#a351e921aea7f22e239884fdc941a8e52" target="_top" xlink:title="js_dataview_getValue">
<polygon fill="none" stroke="#000000" points="120,-76.5 120,-95.5 232,-95.5 232,-76.5 120,-76.5"/>
<text text-anchor="middle" x="176" y="-83.5" font-family="Helvetica,sans-Serif" font-size="10.00" fill="#000000">js_dataview_getValue</text>
</a>
</g>
</g>
<!-- Node28410&#45;&gt;Node28899 -->
<g id="edge19" class="edge">
<title>Node28410&#45;&gt;Node28899</title>
<path fill="none" stroke="#191970" d="M45.0782,-256.2505C52.505,-220.8799 72.9019,-146.5464 119,-105 123.3392,-101.0893 128.5075,-97.9803 133.9346,-95.5095"/>
<polygon fill="#191970" stroke="#191970" points="41.6024,-255.7869 43.1065,-266.2744 48.4708,-257.1379 41.6024,-255.7869"/>
</g>
<!-- Node28655 -->
<g id="node18" class="node">
<title>Node28655</title>
<g id="a_node18"><a xlink:href="quickjs_8c.html#a12aed667595f49667e0095f0a028e0d4" target="_top" xlink:title="JS_DefinePropertyValueUint32">
<polygon fill="none" stroke="#ff0000" points="269,-228.5 269,-247.5 421,-247.5 421,-228.5 269,-228.5"/>
<text text-anchor="middle" x="345" y="-235.5" font-family="Helvetica,sans-Serif" font-size="10.00" fill="#000000">JS_DefinePropertyValueUint32</text>
</a>
</g>
</g>
<!-- Node28410&#45;&gt;Node28655 -->
<g id="edge20" class="edge">
<title>Node28410&#45;&gt;Node28655</title>
<path fill="none" stroke="#191970" d="M93.1859,-266.1228C101.7897,-264.634 110.634,-263.1982 119,-262 168.7991,-254.8675 225.0531,-248.8864 268.9796,-244.6791"/>
<polygon fill="#191970" stroke="#191970" points="92.4759,-262.694 83.2392,-267.8838 93.6963,-269.5868 92.4759,-262.694"/>
</g>
<!-- Node28747 -->
<g id="node19" class="node">
<title>Node28747</title>
<g id="a_node19"><a xlink:href="quickjs_8c.html#aeb97957655d979e9fe56c955da2b2d4b" target="_top" xlink:title="JS_GetPropertyUint32">
<polygon fill="none" stroke="#ff0000" points="287.5,-304.5 287.5,-323.5 402.5,-323.5 402.5,-304.5 287.5,-304.5"/>
<text text-anchor="middle" x="345" y="-311.5" font-family="Helvetica,sans-Serif" font-size="10.00" fill="#000000">JS_GetPropertyUint32</text>
</a>
</g>
</g>
<!-- Node28410&#45;&gt;Node28747 -->
<g id="edge22" class="edge">
<title>Node28410&#45;&gt;Node28747</title>
<path fill="none" stroke="#191970" d="M93.1859,-285.8772C101.7897,-287.366 110.634,-288.8018 119,-290 176.0249,-298.1674 241.5137,-304.825 287.2646,-309.0384"/>
<polygon fill="#191970" stroke="#191970" points="93.6963,-282.4132 83.2392,-284.1162 92.4759,-289.306 93.6963,-282.4132"/>
</g>
<!-- Node28744 -->
<g id="node20" class="node">
<title>Node28744</title>
<g id="a_node20"><a xlink:href="quickjs_8c.html#a90d6e607f6917d817c1e997bd2e6ed07" target="_top" xlink:title="JS_GetPropertyValue">
<polygon fill="none" stroke="#ff0000" points="120.5,-342.5 120.5,-361.5 231.5,-361.5 231.5,-342.5 120.5,-342.5"/>
<text text-anchor="middle" x="176" y="-349.5" font-family="Helvetica,sans-Serif" font-size="10.00" fill="#000000">JS_GetPropertyValue</text>
</a>
</g>
</g>
<!-- Node28410&#45;&gt;Node28744 -->
<g id="edge24" class="edge">
<title>Node28410&#45;&gt;Node28744</title>
<path fill="none" stroke="#191970" d="M62.3772,-291.6174C77.5964,-302.5964 98.9736,-317.1957 119,-328 128.9222,-333.3531 140.2941,-338.3524 150.2573,-342.3877"/>
<polygon fill="#191970" stroke="#191970" points="64.323,-288.7043 54.1847,-285.6275 60.1914,-294.3551 64.323,-288.7043"/>
</g>
<!-- Node28730 -->
<g id="node21" class="node">
<title>Node28730</title>
<g id="a_node21"><a xlink:href="quickjs_8c.html#aae909eaec829081b270012adfcd717a4" target="_top" xlink:title="JS_SetPropertyUint32">
<polygon fill="none" stroke="#ff0000" points="119,-532.5 119,-551.5 233,-551.5 233,-532.5 119,-532.5"/>
<text text-anchor="middle" x="176" y="-539.5" font-family="Helvetica,sans-Serif" font-size="10.00" fill="#000000">JS_SetPropertyUint32</text>
</a>
</g>
</g>
<!-- Node28410&#45;&gt;Node28730 -->
<g id="edge27" class="edge">
<title>Node28410&#45;&gt;Node28730</title>
<path fill="none" stroke="#191970" d="M42.4265,-295.9609C45.5634,-341.2142 59.2732,-452.7326 119,-518 124.7265,-524.2577 132.3468,-528.9388 140.1467,-532.4203"/>
<polygon fill="#191970" stroke="#191970" points="45.9055,-295.5008 41.8242,-285.7237 38.9176,-295.912 45.9055,-295.5008"/>
</g>
<!-- Node28867 -->
<g id="node22" class="node">
<title>Node28867</title>
<g id="a_node22"><a xlink:href="quickjs_8c.html#a612a61744ff6b38d2ef45c1fc9f2a805" target="_top" xlink:title="js_shr_slow">
<polygon fill="none" stroke="#000000" points="311,-418.5 311,-437.5 379,-437.5 379,-418.5 311,-418.5"/>
<text text-anchor="middle" x="345" y="-425.5" font-family="Helvetica,sans-Serif" font-size="10.00" fill="#000000">js_shr_slow</text>
</a>
</g>
</g>
<!-- Node28410&#45;&gt;Node28867 -->
<g id="edge29" class="edge">
<title>Node28410&#45;&gt;Node28867</title>
<path fill="none" stroke="#191970" d="M47.2155,-295.6532C56.8137,-324.7768 79.144,-378.6733 119,-404 178.1108,-441.5622 263.9004,-438.5741 310.9555,-433.2097"/>
<polygon fill="#191970" stroke="#191970" points="50.4666,-294.3215 44.1503,-285.8154 43.7835,-296.4039 50.4666,-294.3215"/>
</g>
<!-- Node29018 -->
<g id="node23" class="node">
<title>Node29018</title>
<g id="a_node23"><a xlink:href="quickjs_8c.html#a36a4c57de89b7bc22b0992f6626eeb2e" target="_top" xlink:title="js_TA_get_uint32">
<polygon fill="none" stroke="#000000" points="130,-38.5 130,-57.5 222,-57.5 222,-38.5 130,-38.5"/>
<text text-anchor="middle" x="176" y="-45.5" font-family="Helvetica,sans-Serif" font-size="10.00" fill="#000000">js_TA_get_uint32</text>
</a>
</g>
</g>
<!-- Node28410&#45;&gt;Node29018 -->
<g id="edge31" class="edge">
<title>Node28410&#45;&gt;Node29018</title>
<path fill="none" stroke="#191970" d="M43.2537,-255.96C47.9266,-214.7353 64.3336,-119.8733 119,-67 123.0488,-63.084 127.9258,-59.9746 133.1013,-57.5058"/>
<polygon fill="#191970" stroke="#191970" points="39.7537,-255.7831 42.2248,-266.0857 46.7179,-256.4908 39.7537,-255.7831"/>
</g>
<!-- Node28613 -->
<g id="node25" class="node">
<title>Node28613</title>
<g id="a_node25"><a xlink:href="quickjs_8c.html#ad55fe6f65ecb58e327ac9e9b4ab475f5" target="_top" xlink:title="set_array_length">
<polygon fill="none" stroke="#ff0000" points="131.5,-.5 131.5,-19.5 220.5,-19.5 220.5,-.5 131.5,-.5"/>
<text text-anchor="middle" x="176" y="-7.5" font-family="Helvetica,sans-Serif" font-size="10.00" fill="#000000">set_array_length</text>
</a>
</g>
</g>
<!-- Node28410&#45;&gt;Node28613 -->
<g id="edge33" class="edge">
<title>Node28410&#45;&gt;Node28613</title>
<path fill="none" stroke="#191970" d="M45.304,-256.1849C55.7636,-203.5923 86.355,-62.2285 119,-29 122.8014,-25.1307 127.4102,-22.0494 132.3417,-19.5955"/>
<polygon fill="#191970" stroke="#191970" points="41.82,-255.7641 43.3339,-266.2503 48.6897,-257.1088 41.82,-255.7641"/>
</g>
<!-- Node28412 -->
<g id="node3" class="node">
<title>Node28412</title>
<g id="a_node3"><a xlink:href="quickjs_8c.html#a4c9489297c684663f30e517204a9ec14" target="_top" xlink:title="JS_AddIntrinsicBaseObjects">
<polygon fill="none" stroke="#000000" points="457,-579.5 457,-598.5 599,-598.5 599,-579.5 457,-579.5"/>
<text text-anchor="middle" x="528" y="-586.5" font-family="Helvetica,sans-Serif" font-size="10.00" fill="#000000">JS_AddIntrinsicBaseObjects</text>
</a>
</g>
</g>
<!-- Node28411&#45;&gt;Node28412 -->
<g id="edge2" class="edge">
<title>Node28411&#45;&gt;Node28412</title>
<path fill="none" stroke="#191970" d="M381.1189,-536.0265C416.6264,-548.8325 469.9706,-568.0714 501.655,-579.4985"/>
<polygon fill="#191970" stroke="#191970" points="382.2041,-532.6973 371.6098,-532.597 379.8292,-539.2821 382.2041,-532.6973"/>
</g>
<!-- Node28411&#45;&gt;Node28417 -->
<g id="edge4" class="edge">
<title>Node28411&#45;&gt;Node28417</title>
<path fill="none" stroke="#191970" d="M391.322,-510.85C422.3716,-502.7058 462.687,-492.1313 491.4705,-484.5815"/>
<polygon fill="#191970" stroke="#191970" points="390.3777,-507.4792 381.593,-513.4018 392.1538,-514.2501 390.3777,-507.4792"/>
</g>
<!-- Node28418 -->
<g id="node6" class="node">
<title>Node28418</title>
<g id="a_node6"><a xlink:href="quickjs_8c.html#a3b818b1ca9d2d4aaa9b55b1cc54c1bc4" target="_top" xlink:title="JS_ArraySpeciesCreate">
<polygon fill="none" stroke="#000000" points="467,-513.5 467,-532.5 589,-532.5 589,-513.5 467,-513.5"/>
<text text-anchor="middle" x="528" y="-520.5" font-family="Helvetica,sans-Serif" font-size="10.00" fill="#000000">JS_ArraySpeciesCreate</text>
</a>
</g>
</g>
<!-- Node28411&#45;&gt;Node28418 -->
<g id="edge5" class="edge">
<title>Node28411&#45;&gt;Node28418</title>
<path fill="none" stroke="#191970" d="M407.994,-523C427.0267,-523 447.8876,-523 466.8013,-523"/>
<polygon fill="#191970" stroke="#191970" points="407.9312,-519.5001 397.9312,-523 407.9311,-526.5001 407.9312,-519.5001"/>
</g>
<!-- Node28413 -->
<g id="node4" class="node">
<title>Node28413</title>
<g id="a_node4"><a xlink:href="quickjs_8c.html#ad8aedb643b8753b7a15f6cb2df61945e" target="_top" xlink:title="JS_NewContext">
<polygon fill="none" stroke="#ff0000" points="646.5,-608.5 646.5,-627.5 735.5,-627.5 735.5,-608.5 646.5,-608.5"/>
<text text-anchor="middle" x="691" y="-615.5" font-family="Helvetica,sans-Serif" font-size="10.00" fill="#000000">JS_NewContext</text>
</a>
</g>
</g>
<!-- Node28412&#45;&gt;Node28413 -->
<g id="edge3" class="edge">
<title>Node28412&#45;&gt;Node28413</title>
<path fill="none" stroke="#191970" d="M591.8257,-600.3555C610.1044,-603.6075 629.6291,-607.0813 646.478,-610.0789"/>
<polygon fill="#191970" stroke="#191970" points="592.2825,-596.8819 581.824,-598.5761 591.0563,-603.7737 592.2825,-596.8819"/>
</g>
<!-- Node28419 -->
<g id="node7" class="node">
<title>Node28419</title>
<g id="a_node7"><a xlink:href="quickjs_8c.html#aaa85fa359f7aa8985f0299147272adef" target="_top" xlink:title="js_array_concat">
<polygon fill="none" stroke="#000000" points="648,-532.5 648,-551.5 734,-551.5 734,-532.5 648,-532.5"/>
<text text-anchor="middle" x="691" y="-539.5" font-family="Helvetica,sans-Serif" font-size="10.00" fill="#000000">js_array_concat</text>
</a>
</g>
</g>
<!-- Node28418&#45;&gt;Node28419 -->
<g id="edge6" class="edge">
<title>Node28418&#45;&gt;Node28419</title>
<path fill="none" stroke="#191970" d="M599.3426,-531.316C615.8552,-533.2408 632.9329,-535.2314 647.807,-536.9652"/>
<polygon fill="#191970" stroke="#191970" points="599.4969,-527.8104 589.1589,-530.129 598.6864,-534.7633 599.4969,-527.8104"/>
</g>
<!-- Node28420 -->
<g id="node8" class="node">
<title>Node28420</title>
<g id="a_node8"><a xlink:href="quickjs_8c.html#aa0bbf08a7e91459c68a312fba7016c6d" target="_top" xlink:title="js_array_every">
<polygon fill="none" stroke="#000000" points="651,-494.5 651,-513.5 731,-513.5 731,-494.5 651,-494.5"/>
<text text-anchor="middle" x="691" y="-501.5" font-family="Helvetica,sans-Serif" font-size="10.00" fill="#000000">js_array_every</text>
</a>
</g>
</g>
<!-- Node28418&#45;&gt;Node28420 -->
<g id="edge7" class="edge">
<title>Node28418&#45;&gt;Node28420</title>
<path fill="none" stroke="#191970" d="M599.4205,-514.6749C617.0168,-512.6238 635.2497,-510.4985 650.77,-508.6894"/>
<polygon fill="#191970" stroke="#191970" points="598.6864,-511.2367 589.1589,-515.871 599.4969,-518.1896 598.6864,-511.2367"/>
</g>
<!-- Node28421 -->
<g id="node9" class="node">
<title>Node28421</title>
<g id="a_node9"><a xlink:href="quickjs_8c.html#a12e173fe76ae1141ef47318f9d0cbea7" target="_top" xlink:title="js_array_flatten">
<polygon fill="none" stroke="#000000" points="649.5,-456.5 649.5,-475.5 732.5,-475.5 732.5,-456.5 649.5,-456.5"/>
<text text-anchor="middle" x="691" y="-463.5" font-family="Helvetica,sans-Serif" font-size="10.00" fill="#000000">js_array_flatten</text>
</a>
</g>
</g>
<!-- Node28418&#45;&gt;Node28421 -->
<g id="edge8" class="edge">
<title>Node28418&#45;&gt;Node28421</title>
<path fill="none" stroke="#191970" d="M564.44,-509.9148C585.1114,-502.5281 611.4744,-493.1679 635,-485 643.9228,-481.9021 653.6647,-478.5769 662.4847,-475.588"/>
<polygon fill="#191970" stroke="#191970" points="563.0232,-506.7043 554.7868,-513.3686 565.3814,-513.2952 563.0232,-506.7043"/>
</g>
<!-- Node28422 -->
<g id="node10" class="node">
<title>Node28422</title>
<g id="a_node10"><a xlink:href="quickjs_8c.html#a70b7ec8358ab99b905686d5bf80950cc" target="_top" xlink:title="js_array_slice">
<polygon fill="none" stroke="#000000" points="652.5,-570.5 652.5,-589.5 729.5,-589.5 729.5,-570.5 652.5,-570.5"/>
<text text-anchor="middle" x="691" y="-577.5" font-family="Helvetica,sans-Serif" font-size="10.00" fill="#000000">js_array_slice</text>
</a>
</g>
</g>
<!-- Node28418&#45;&gt;Node28422 -->
<g id="edge9" class="edge">
<title>Node28418&#45;&gt;Node28422</title>
<path fill="none" stroke="#191970" d="M564.44,-536.0852C585.1114,-543.4719 611.4744,-552.8321 635,-561 643.9228,-564.0979 653.6647,-567.4231 662.4847,-570.412"/>
<polygon fill="#191970" stroke="#191970" points="565.3814,-532.7048 554.7868,-532.6314 563.0232,-539.2957 565.3814,-532.7048"/>
</g>
<!-- Node28424 -->
<g id="node12" class="node">
<title>Node28424</title>
<g id="a_node12"><a xlink:href="quickjs_8c.html#a43208b0746998d2b6b9b8bd1ef8b5f99" target="_top" xlink:title="js_append_enumerate">
<polygon fill="none" stroke="#000000" points="635,-295.5 635,-314.5 747,-314.5 747,-295.5 635,-295.5"/>
<text text-anchor="middle" x="691" y="-302.5" font-family="Helvetica,sans-Serif" font-size="10.00" fill="#000000">js_append_enumerate</text>
</a>
</g>
</g>
<!-- Node28423&#45;&gt;Node28424 -->
<g id="edge12" class="edge">
<title>Node28423&#45;&gt;Node28424</title>
<path fill="none" stroke="#191970" d="M593.4906,-305C607.1627,-305 621.4605,-305 634.762,-305"/>
<polygon fill="#191970" stroke="#191970" points="593.1844,-301.5001 583.1844,-305 593.1843,-308.5001 593.1844,-301.5001"/>
</g>
<!-- Node28424&#45;&gt;Node28425 -->
<g id="edge13" class="edge">
<title>Node28424&#45;&gt;Node28425</title>
<path fill="none" stroke="#191970" d="M719.6796,-319.1787C745.456,-331.9221 782.6108,-350.2908 805.0645,-361.3915"/>
<polygon fill="#191970" stroke="#191970" points="720.9275,-315.8913 710.412,-314.597 717.8252,-322.1663 720.9275,-315.8913"/>
</g>
<!-- Node28425&#45;&gt;Node28425 -->
<g id="edge14" class="edge">
<title>Node28425&#45;&gt;Node28425</title>
<path fill="none" stroke="#191970" d="M799.9465,-390.0292C801.2858,-395.128 809.4703,-399 824.5,-399 847.9609,-399 854.7426,-389.5653 844.845,-380.7571"/>
<polygon fill="#191970" stroke="#191970" points="803.209,-391.3096 804.155,-380.7571 796.8348,-388.4164 803.209,-391.3096"/>
</g>
<!-- Node28655&#45;&gt;Node28424 -->
<g id="edge21" class="edge">
<title>Node28655&#45;&gt;Node28424</title>
<path fill="none" stroke="#191970" d="M407.0687,-249.427C458.5297,-258.9737 533.5812,-273.0644 599,-286 614.1995,-289.0055 630.7875,-292.3968 645.6404,-295.4738"/>
<polygon fill="#191970" stroke="#191970" points="407.5712,-245.9606 397.1009,-247.5799 406.2958,-252.8434 407.5712,-245.9606"/>
</g>
<!-- Node28747&#45;&gt;Node28423 -->
<g id="edge23" class="edge">
<title>Node28747&#45;&gt;Node28423</title>
<path fill="none" stroke="#191970" d="M412.8224,-310.6645C432.5895,-309.6923 453.9399,-308.6423 472.8254,-307.7135"/>
<polygon fill="#191970" stroke="#191970" points="412.4671,-307.1776 402.6512,-311.1647 412.811,-314.1692 412.4671,-307.1776"/>
</g>
<!-- Node28744&#45;&gt;Node28425 -->
<g id="edge25" class="edge">
<title>Node28744&#45;&gt;Node28425</title>
<path fill="none" stroke="#191970" d="M241.6289,-353.9228C374.7013,-357.8216 672.9658,-366.5603 782.8347,-369.7793"/>
<polygon fill="#191970" stroke="#191970" points="241.6693,-350.4226 231.5711,-353.6281 241.4643,-357.4196 241.6693,-350.4226"/>
</g>
<!-- Node28744&#45;&gt;Node28747 -->
<g id="edge26" class="edge">
<title>Node28744&#45;&gt;Node28747</title>
<path fill="none" stroke="#191970" d="M228.5869,-340.1757C252.4129,-334.8184 280.2069,-328.5689 302.6608,-323.5201"/>
<polygon fill="#191970" stroke="#191970" points="227.6344,-336.8024 218.6458,-342.411 229.1701,-343.6319 227.6344,-336.8024"/>
</g>
<!-- Node28730&#45;&gt;Node28411 -->
<g id="edge28" class="edge">
<title>Node28730&#45;&gt;Node28411</title>
<path fill="none" stroke="#191970" d="M243.2532,-534.439C259.598,-532.6014 276.8419,-530.6627 292.396,-528.9141"/>
<polygon fill="#191970" stroke="#191970" points="242.762,-530.9721 233.2157,-535.5675 243.5441,-537.9282 242.762,-530.9721"/>
</g>
<!-- Node28867&#45;&gt;Node28425 -->
<g id="edge30" class="edge">
<title>Node28867&#45;&gt;Node28425</title>
<path fill="none" stroke="#191970" d="M389.1849,-430.2375C463.9664,-432.9489 619.7623,-433.9385 747,-404 768.495,-398.9423 791.5961,-388.3699 806.9301,-380.5481"/>
<polygon fill="#191970" stroke="#191970" points="389.3111,-426.7399 379.182,-429.8465 389.0376,-433.7345 389.3111,-426.7399"/>
</g>
<!-- Node28803 -->
<g id="node24" class="node">
<title>Node28803</title>
<g id="a_node24"><a xlink:href="quickjs_8c.html#ad24e5f774218bb0d2859db9dc569d118" target="_top" xlink:title="js_typed_array_sort">
<polygon fill="none" stroke="#000000" points="294,-38.5 294,-57.5 396,-57.5 396,-38.5 294,-38.5"/>
<text text-anchor="middle" x="345" y="-45.5" font-family="Helvetica,sans-Serif" font-size="10.00" fill="#000000">js_typed_array_sort</text>
</a>
</g>
</g>
<!-- Node29018&#45;&gt;Node28803 -->
<g id="edge32" class="edge">
<title>Node29018&#45;&gt;Node28803</title>
<path fill="none" stroke="#191970" d="M232.3274,-48C252.1931,-48 274.4048,-48 293.8215,-48"/>
<polygon fill="#191970" stroke="#191970" points="232.18,-44.5001 222.18,-48 232.18,-51.5001 232.18,-44.5001"/>
</g>
</g>
</svg>
        <g id="navigator" transform="translate(0 0)" fill="#404254">
                <rect fill="#f2f5e9" fill-opacity="0.5" stroke="#606060" stroke-width=".5" x="0" y="0" width="60" height="60"/>
                <use id="zoomplus" xlink:href="#zoomPlus" x="17" y="9" onmousedown="handleZoom(evt,'in')"/>
                <use id="zoomminus" xlink:href="#zoomMin" x="42" y="9" onmousedown="handleZoom(evt,'out')"/>
                <use id="reset" xlink:href="#resetDef" x="30" y="36" onmousedown="handleReset()"/>
                <g id="arrowUp" xlink:href="#dirArrow" transform="translate(30 24)" onmousedown="handlePan(0,-1)">
                  <use xlink:href="#rim" fill="#404040">
                        <set attributeName="fill" to="#808080" begin="arrowUp.mouseover" end="arrowUp.mouseout"/>
                  </use>
                  <path fill="none" stroke="white" stroke-width="1.5" d="M0,-3.0v7 M-2.5,-0.5L0,-3.0L2.5,-0.5"/>
                </g>
                <g id="arrowRight" xlink:href="#dirArrow" transform="rotate(90) translate(36 -43)" onmousedown="handlePan(1,0)">
                  <use xlink:href="#rim" fill="#404040">
                        <set attributeName="fill" to="#808080" begin="arrowRight.mouseover" end="arrowRight.mouseout"/>
                  </use>
                  <path fill="none" stroke="white" stroke-width="1.5" d="M0,-3.0v7 M-2.5,-0.5L0,-3.0L2.5,-0.5"/>
                </g>
                <g id="arrowDown" xlink:href="#dirArrow" transform="rotate(180) translate(-30 -48)" onmousedown="handlePan(0,1)">
                  <use xlink:href="#rim" fill="#404040">
                        <set attributeName="fill" to="#808080" begin="arrowDown.mouseover" end="arrowDown.mouseout"/>
                  </use>
                  <path fill="none" stroke="white" stroke-width="1.5" d="M0,-3.0v7 M-2.5,-0.5L0,-3.0L2.5,-0.5"/>
                </g>
                <g id="arrowLeft" xlink:href="#dirArrow" transform="rotate(270) translate(-36 17)" onmousedown="handlePan(-1,0)">
                  <use xlink:href="#rim" fill="#404040">
                        <set attributeName="fill" to="#808080" begin="arrowLeft.mouseover" end="arrowLeft.mouseout"/>
                  </use>
                  <path fill="none" stroke="white" stroke-width="1.5" d="M0,-3.0v7 M-2.5,-0.5L0,-3.0L2.5,-0.5"/>
                </g>
        </g>
        <svg viewBox="0 0 15 15" width="100%" height="30px" preserveAspectRatio="xMaxYMin meet">
         <g id="arrow_out" transform="scale(0.3 0.3)">
          <a xlink:href="quickjs_8h_a88259aa0da61ac754402c64ccecee116_icgraph_org.svg" target="_base">
           <rect id="button" ry="5" rx="5" y="6" x="6" height="38" width="38"
                fill="#f2f5e9" fill-opacity="0.5" stroke="#606060" stroke-width="1.0"/>
           <path id="arrow"
             d="M 11.500037,31.436501 C 11.940474,20.09759 22.043105,11.32322 32.158766,21.979434 L 37.068811,17.246167 C 37.068811,17.246167 37.088388,32 37.088388,32 L 22.160133,31.978069 C 22.160133,31.978069 26.997745,27.140456 26.997745,27.140456 C 18.528582,18.264221 13.291696,25.230495 11.500037,31.436501 z"
             style="fill:#404040;"/>
          </a>
         </g>
        </svg>
</svg>
