<?xml version="1.0" encoding="UTF-8" standalone="no"?>
<!DOCTYPE svg PUBLIC "-//W3C//DTD SVG 1.1//EN"
 "http://www.w3.org/Graphics/SVG/1.1/DTD/svg11.dtd">
<!-- Generated by graphviz version 2.40.1 (20161225.0304)
 -->
<!-- Title: js_import_meta Pages: 1 -->
<svg width="592pt" height="294pt"
 viewBox="0.00 0.00 592.00 294.00" xmlns="http://www.w3.org/2000/svg" xmlns:xlink="http://www.w3.org/1999/xlink">
<g id="graph0" class="graph" transform="scale(1 1) rotate(0) translate(4 290)">
<title>js_import_meta</title>
<!-- Node27039 -->
<g id="node1" class="node">
<title>Node27039</title>
<polygon fill="#bfbfbf" stroke="#000000" points="0,-142.5 0,-161.5 83,-161.5 83,-142.5 0,-142.5"/>
<text text-anchor="middle" x="41.5" y="-149.5" font-family="Helvetica,sans-Serif" font-size="10.00" fill="#000000">js_import_meta</text>
</g>
<!-- Node27040 -->
<g id="node2" class="node">
<title>Node27040</title>
<g id="a_node2"><a xlink:href="quickjs_8c.html#a0a31a11db1d2054a132f4879d1f3c8cc" target="_top" xlink:title="js_find_loaded_module">
<polygon fill="none" stroke="#000000" points="132.5,-209.5 132.5,-228.5 248.5,-228.5 248.5,-209.5 132.5,-209.5"/>
<text text-anchor="middle" x="190.5" y="-216.5" font-family="Helvetica,sans-Serif" font-size="10.00" fill="#000000">js_find_loaded_module</text>
</a>
</g>
</g>
<!-- Node27039&#45;&gt;Node27040 -->
<g id="edge1" class="edge">
<title>Node27039&#45;&gt;Node27040</title>
<path fill="none" stroke="#191970" d="M54.288,-161.5759C69.1446,-172.2965 94.7302,-189.5343 119,-200 124.5156,-202.3785 130.4021,-204.522 136.3399,-206.4371"/>
<polygon fill="#191970" stroke="#191970" points="135.7403,-209.9117 146.3248,-209.4454 137.7597,-203.2093 135.7403,-209.9117"/>
</g>
<!-- Node27041 -->
<g id="node3" class="node">
<title>Node27041</title>
<g id="a_node3"><a xlink:href="quickjs_8c.html#ab7fc45a99935a1c0ba50b0216d9401a9" target="_top" xlink:title="JS_FreeAtom">
<polygon fill="none" stroke="#000000" points="152,-114.5 152,-133.5 229,-133.5 229,-114.5 152,-114.5"/>
<text text-anchor="middle" x="190.5" y="-121.5" font-family="Helvetica,sans-Serif" font-size="10.00" fill="#000000">JS_FreeAtom</text>
</a>
</g>
</g>
<!-- Node27039&#45;&gt;Node27041 -->
<g id="edge2" class="edge">
<title>Node27039&#45;&gt;Node27041</title>
<path fill="none" stroke="#191970" d="M83.0048,-144.2004C101.2525,-140.7713 122.8099,-136.7203 141.8112,-133.1496"/>
<polygon fill="#191970" stroke="#191970" points="142.5928,-136.564 151.7743,-131.2773 141.2999,-129.6845 142.5928,-136.564"/>
</g>
<!-- Node27047 -->
<g id="node7" class="node">
<title>Node27047</title>
<g id="a_node7"><a xlink:href="quickjs_8c.html#a44504e6de8f6e13870e695d360d9cd3e" target="_top" xlink:title="JS_GetImportMeta">
<polygon fill="none" stroke="#000000" points="141,-171.5 141,-190.5 240,-190.5 240,-171.5 141,-171.5"/>
<text text-anchor="middle" x="190.5" y="-178.5" font-family="Helvetica,sans-Serif" font-size="10.00" fill="#000000">JS_GetImportMeta</text>
</a>
</g>
</g>
<!-- Node27039&#45;&gt;Node27047 -->
<g id="edge6" class="edge">
<title>Node27039&#45;&gt;Node27047</title>
<path fill="none" stroke="#191970" d="M83.0048,-160.0781C98.051,-163.0066 115.3474,-166.373 131.6056,-169.5373"/>
<polygon fill="#191970" stroke="#191970" points="131.0806,-173.0008 141.5651,-171.4758 132.418,-166.1297 131.0806,-173.0008"/>
</g>
<!-- Node27127 -->
<g id="node13" class="node">
<title>Node27127</title>
<g id="a_node13"><a xlink:href="quickjs_8c.html#a3d9d43172bb33e53a4843dd3a770e889" target="_top" xlink:title="JS_GetScriptOrModuleName">
<polygon fill="none" stroke="#000000" points="119,-38.5 119,-57.5 262,-57.5 262,-38.5 119,-38.5"/>
<text text-anchor="middle" x="190.5" y="-45.5" font-family="Helvetica,sans-Serif" font-size="10.00" fill="#000000">JS_GetScriptOrModuleName</text>
</a>
</g>
</g>
<!-- Node27039&#45;&gt;Node27127 -->
<g id="edge12" class="edge">
<title>Node27039&#45;&gt;Node27127</title>
<path fill="none" stroke="#191970" d="M55.2505,-142.4023C81.0854,-124.3699 137.0779,-85.2879 168.3103,-63.4881"/>
<polygon fill="#191970" stroke="#191970" points="170.5859,-66.1681 176.7827,-57.5745 166.5794,-60.428 170.5859,-66.1681"/>
</g>
<!-- Node27042 -->
<g id="node4" class="node">
<title>Node27042</title>
<g id="a_node4"><a xlink:href="quickjs_8c.html#a7f6796ee7a195631366f57c713a33f65" target="_top" xlink:title="__JS_AtomIsConst">
<polygon fill="none" stroke="#000000" points="467.5,-57.5 467.5,-76.5 569.5,-76.5 569.5,-57.5 467.5,-57.5"/>
<text text-anchor="middle" x="518.5" y="-64.5" font-family="Helvetica,sans-Serif" font-size="10.00" fill="#000000">__JS_AtomIsConst</text>
</a>
</g>
</g>
<!-- Node27041&#45;&gt;Node27042 -->
<g id="edge3" class="edge">
<title>Node27041&#45;&gt;Node27042</title>
<path fill="none" stroke="#191970" d="M229.0532,-117.1448C249.5312,-113.514 275.129,-108.9919 298,-105 351.785,-95.6124 412.9771,-85.0785 457.2302,-77.4867"/>
<polygon fill="#191970" stroke="#191970" points="457.9871,-80.908 467.2516,-75.7681 456.8038,-74.0088 457.9871,-80.908"/>
</g>
<!-- Node27043 -->
<g id="node5" class="node">
<title>Node27043</title>
<g id="a_node5"><a xlink:href="quickjs_8c.html#a0bbd9e3ecd55e3ea6c9d44bfda382095" target="_top" xlink:title="__JS_FreeAtom">
<polygon fill="none" stroke="#000000" points="314,-114.5 314,-133.5 401,-133.5 401,-114.5 314,-114.5"/>
<text text-anchor="middle" x="357.5" y="-121.5" font-family="Helvetica,sans-Serif" font-size="10.00" fill="#000000">__JS_FreeAtom</text>
</a>
</g>
</g>
<!-- Node27041&#45;&gt;Node27043 -->
<g id="edge4" class="edge">
<title>Node27041&#45;&gt;Node27043</title>
<path fill="none" stroke="#191970" d="M229.2329,-124C251.4065,-124 279.5598,-124 303.838,-124"/>
<polygon fill="#191970" stroke="#191970" points="303.9771,-127.5001 313.977,-124 303.977,-120.5001 303.9771,-127.5001"/>
</g>
<!-- Node27044 -->
<g id="node6" class="node">
<title>Node27044</title>
<g id="a_node6"><a xlink:href="quickjs_8c.html#a58c8965dad50b15b75918a09f3d9dc7c" target="_top" xlink:title="JS_FreeAtomStruct">
<polygon fill="none" stroke="#ff0000" points="467,-114.5 467,-133.5 570,-133.5 570,-114.5 467,-114.5"/>
<text text-anchor="middle" x="518.5" y="-121.5" font-family="Helvetica,sans-Serif" font-size="10.00" fill="#000000">JS_FreeAtomStruct</text>
</a>
</g>
</g>
<!-- Node27043&#45;&gt;Node27044 -->
<g id="edge5" class="edge">
<title>Node27043&#45;&gt;Node27044</title>
<path fill="none" stroke="#191970" d="M401.0689,-124C418.1984,-124 438.1762,-124 456.745,-124"/>
<polygon fill="#191970" stroke="#191970" points="456.8891,-127.5001 466.8891,-124 456.889,-120.5001 456.8891,-127.5001"/>
</g>
<!-- Node27048 -->
<g id="node8" class="node">
<title>Node27048</title>
<g id="a_node8"><a xlink:href="quickjs_8h.html#a4e407128a9605afb77523e49e9a627fd" target="_top" xlink:title="JS_IsUndefined">
<polygon fill="none" stroke="#000000" points="314.5,-228.5 314.5,-247.5 400.5,-247.5 400.5,-228.5 314.5,-228.5"/>
<text text-anchor="middle" x="357.5" y="-235.5" font-family="Helvetica,sans-Serif" font-size="10.00" fill="#000000">JS_IsUndefined</text>
</a>
</g>
</g>
<!-- Node27047&#45;&gt;Node27048 -->
<g id="edge7" class="edge">
<title>Node27047&#45;&gt;Node27048</title>
<path fill="none" stroke="#191970" d="M232.9756,-190.5956C242.6504,-193.2453 252.789,-196.399 262,-200 278.8498,-206.5874 281.3179,-211.9988 298,-219 303.1869,-221.1769 308.7149,-223.2517 314.2327,-225.1764"/>
<polygon fill="#191970" stroke="#191970" points="313.4841,-228.6165 324.0779,-228.4684 315.704,-221.9778 313.4841,-228.6165"/>
</g>
<!-- Node27049 -->
<g id="node9" class="node">
<title>Node27049</title>
<g id="a_node9"><a xlink:href="quickjs_8c.html#a884d294acbf5be675ffc760e38bd0521" target="_top" xlink:title="JS_NewObjectProto">
<polygon fill="none" stroke="#000000" points="304.5,-266.5 304.5,-285.5 410.5,-285.5 410.5,-266.5 304.5,-266.5"/>
<text text-anchor="middle" x="357.5" y="-273.5" font-family="Helvetica,sans-Serif" font-size="10.00" fill="#000000">JS_NewObjectProto</text>
</a>
</g>
</g>
<!-- Node27047&#45;&gt;Node27049 -->
<g id="edge8" class="edge">
<title>Node27047&#45;&gt;Node27049</title>
<path fill="none" stroke="#191970" d="M240.0214,-188.9455C247.8372,-191.6258 255.4789,-195.2093 262,-200 286.1471,-217.7397 274.2981,-238.6698 298,-257 300.3321,-258.8036 302.8399,-260.4383 305.4599,-261.9198"/>
<polygon fill="#191970" stroke="#191970" points="304.1804,-265.1888 314.7071,-266.3889 307.2264,-258.8862 304.1804,-265.1888"/>
</g>
<!-- Node27126 -->
<g id="node11" class="node">
<title>Node27126</title>
<g id="a_node11"><a xlink:href="quickjs_8h.html#ad80a83d73e9b7d872b88fbf2943aebe9" target="_top" xlink:title="JS_IsException">
<polygon fill="none" stroke="#000000" points="314.5,-190.5 314.5,-209.5 400.5,-209.5 400.5,-190.5 314.5,-190.5"/>
<text text-anchor="middle" x="357.5" y="-197.5" font-family="Helvetica,sans-Serif" font-size="10.00" fill="#000000">JS_IsException</text>
</a>
</g>
</g>
<!-- Node27047&#45;&gt;Node27126 -->
<g id="edge10" class="edge">
<title>Node27047&#45;&gt;Node27126</title>
<path fill="none" stroke="#191970" d="M240.1534,-186.6492C260.3047,-188.9419 283.6219,-191.5947 304.1362,-193.9287"/>
<polygon fill="#191970" stroke="#191970" points="303.9335,-197.4281 314.2651,-195.0811 304.7249,-190.473 303.9335,-197.4281"/>
</g>
<!-- Node27069 -->
<g id="node12" class="node">
<title>Node27069</title>
<g id="a_node12"><a xlink:href="quickjs_8h.html#a775522f2d084fc8fa0fcb33f390006b4" target="_top" xlink:title="JS_DupValue">
<polygon fill="none" stroke="#000000" points="319,-152.5 319,-171.5 396,-171.5 396,-152.5 319,-152.5"/>
<text text-anchor="middle" x="357.5" y="-159.5" font-family="Helvetica,sans-Serif" font-size="10.00" fill="#000000">JS_DupValue</text>
</a>
</g>
</g>
<!-- Node27047&#45;&gt;Node27069 -->
<g id="edge11" class="edge">
<title>Node27047&#45;&gt;Node27069</title>
<path fill="none" stroke="#191970" d="M240.1534,-175.3508C261.8998,-172.8767 287.333,-169.9831 308.952,-167.5234"/>
<polygon fill="#191970" stroke="#191970" points="309.3664,-170.9989 318.9066,-166.3909 308.575,-164.0438 309.3664,-170.9989"/>
</g>
<!-- Node27050 -->
<g id="node10" class="node">
<title>Node27050</title>
<g id="a_node10"><a xlink:href="quickjs_8c.html#a73738c650f11459db0d7af3dcdf8316b" target="_top" xlink:title="JS_NewObjectProtoClass">
<polygon fill="none" stroke="#ff0000" points="453,-266.5 453,-285.5 584,-285.5 584,-266.5 453,-266.5"/>
<text text-anchor="middle" x="518.5" y="-273.5" font-family="Helvetica,sans-Serif" font-size="10.00" fill="#000000">JS_NewObjectProtoClass</text>
</a>
</g>
</g>
<!-- Node27049&#45;&gt;Node27050 -->
<g id="edge9" class="edge">
<title>Node27049&#45;&gt;Node27050</title>
<path fill="none" stroke="#191970" d="M410.6636,-276C420.867,-276 431.7352,-276 442.4959,-276"/>
<polygon fill="#191970" stroke="#191970" points="442.7548,-279.5001 452.7548,-276 442.7548,-272.5001 442.7548,-279.5001"/>
</g>
<!-- Node27128 -->
<g id="node14" class="node">
<title>Node27128</title>
<g id="a_node14"><a xlink:href="quickjs_8c.html#a76e95dd1ab1d7cb4b9407d2ad41ee119" target="_top" xlink:title="js_class_has_bytecode">
<polygon fill="none" stroke="#000000" points="298,-.5 298,-19.5 417,-19.5 417,-.5 298,-.5"/>
<text text-anchor="middle" x="357.5" y="-7.5" font-family="Helvetica,sans-Serif" font-size="10.00" fill="#000000">js_class_has_bytecode</text>
</a>
</g>
</g>
<!-- Node27127&#45;&gt;Node27128 -->
<g id="edge13" class="edge">
<title>Node27127&#45;&gt;Node27128</title>
<path fill="none" stroke="#191970" d="M232.6412,-38.411C254.8771,-33.3513 282.3482,-27.1004 305.8564,-21.7512"/>
<polygon fill="#191970" stroke="#191970" points="306.6877,-25.1516 315.6619,-19.5201 305.1345,-18.3261 306.6877,-25.1516"/>
</g>
<!-- Node27121 -->
<g id="node15" class="node">
<title>Node27121</title>
<g id="a_node15"><a xlink:href="quickjs_8c.html#abbf44eaeace1104a6bef718fbf5700fe" target="_top" xlink:title="JS_DupAtom">
<polygon fill="none" stroke="#000000" points="320,-38.5 320,-57.5 395,-57.5 395,-38.5 320,-38.5"/>
<text text-anchor="middle" x="357.5" y="-45.5" font-family="Helvetica,sans-Serif" font-size="10.00" fill="#000000">JS_DupAtom</text>
</a>
</g>
</g>
<!-- Node27127&#45;&gt;Node27121 -->
<g id="edge14" class="edge">
<title>Node27127&#45;&gt;Node27121</title>
<path fill="none" stroke="#191970" d="M262.2922,-48C278.227,-48 294.7421,-48 309.454,-48"/>
<polygon fill="#191970" stroke="#191970" points="309.8137,-51.5001 319.8137,-48 309.8137,-44.5001 309.8137,-51.5001"/>
</g>
<!-- Node27121&#45;&gt;Node27042 -->
<g id="edge15" class="edge">
<title>Node27121&#45;&gt;Node27042</title>
<path fill="none" stroke="#191970" d="M395.2473,-52.4547C413.698,-54.6321 436.3698,-57.3076 457.2157,-59.7677"/>
<polygon fill="#191970" stroke="#191970" points="456.9347,-63.2587 467.276,-60.9549 457.7551,-56.307 456.9347,-63.2587"/>
</g>
</g>
</svg>
