<?xml version="1.0" encoding="UTF-8" standalone="no"?>
<!DOCTYPE svg PUBLIC "-//W3C//DTD SVG 1.1//EN"
 "http://www.w3.org/Graphics/SVG/1.1/DTD/svg11.dtd">
<!-- Generated by graphviz version 2.40.1 (20161225.0304)
 -->
<!-- Title: js_new_module_def Pages: 1 -->
<svg width="533pt" height="382pt"
 viewBox="0.00 0.00 533.00 382.00" xmlns="http://www.w3.org/2000/svg" xmlns:xlink="http://www.w3.org/1999/xlink">
<g id="graph0" class="graph" transform="scale(1 1) rotate(0) translate(4 378)">
<title>js_new_module_def</title>
<!-- Node327786 -->
<g id="node1" class="node">
<title>Node327786</title>
<polygon fill="#bfbfbf" stroke="#000000" points="0,-266.5 0,-285.5 103,-285.5 103,-266.5 0,-266.5"/>
<text text-anchor="middle" x="51.5" y="-273.5" font-family="Helvetica,sans-Serif" font-size="10.00" fill="#000000">js_new_module_def</text>
</g>
<!-- Node327787 -->
<g id="node2" class="node">
<title>Node327787</title>
<g id="a_node2"><a xlink:href="quickjs_8c.html#a46a8a7e155cfd0af984f6725f060f0d6" target="_top" xlink:title="__JS_EvalInternal">
<polygon fill="none" stroke="#000000" points="139,-329.5 139,-348.5 235,-348.5 235,-329.5 139,-329.5"/>
<text text-anchor="middle" x="187" y="-336.5" font-family="Helvetica,sans-Serif" font-size="10.00" fill="#000000">__JS_EvalInternal</text>
</a>
</g>
</g>
<!-- Node327786&#45;&gt;Node327787 -->
<g id="edge1" class="edge">
<title>Node327786&#45;&gt;Node327787</title>
<path fill="none" stroke="#191970" d="M81.3631,-289.8847C107.0919,-301.8472 143.5649,-318.8051 166.2268,-329.3416"/>
<polygon fill="#191970" stroke="#191970" points="82.623,-286.6107 72.0795,-285.5683 79.6717,-292.9582 82.623,-286.6107"/>
</g>
<!-- Node327793 -->
<g id="node5" class="node">
<title>Node327793</title>
<g id="a_node5"><a xlink:href="quickjs_8c.html#ac29cc4ec49efa0f0308e494316ce5139" target="_top" xlink:title="JS_NewCModule">
<polygon fill="none" stroke="#000000" points="140.5,-266.5 140.5,-285.5 233.5,-285.5 233.5,-266.5 140.5,-266.5"/>
<text text-anchor="middle" x="187" y="-273.5" font-family="Helvetica,sans-Serif" font-size="10.00" fill="#000000">JS_NewCModule</text>
</a>
</g>
</g>
<!-- Node327786&#45;&gt;Node327793 -->
<g id="edge4" class="edge">
<title>Node327786&#45;&gt;Node327793</title>
<path fill="none" stroke="#191970" d="M113.3073,-276C122.4222,-276 131.6817,-276 140.419,-276"/>
<polygon fill="#191970" stroke="#191970" points="113.1133,-272.5001 103.1133,-276 113.1132,-279.5001 113.1133,-272.5001"/>
</g>
<!-- Node327797 -->
<g id="node10" class="node">
<title>Node327797</title>
<g id="a_node10"><a xlink:href="quickjs_8c.html#a21c7b14be807f7ce7f71c19e2e80380c" target="_top" xlink:title="JS_ReadModule">
<polygon fill="none" stroke="#000000" points="142.5,-133.5 142.5,-152.5 231.5,-152.5 231.5,-133.5 142.5,-133.5"/>
<text text-anchor="middle" x="187" y="-140.5" font-family="Helvetica,sans-Serif" font-size="10.00" fill="#000000">JS_ReadModule</text>
</a>
</g>
</g>
<!-- Node327786&#45;&gt;Node327797 -->
<g id="edge10" class="edge">
<title>Node327786&#45;&gt;Node327797</title>
<path fill="none" stroke="#191970" d="M68.5113,-259.3026C97.1129,-231.2287 153.9622,-175.4283 176.9779,-152.8372"/>
<polygon fill="#191970" stroke="#191970" points="65.9297,-256.9322 61.2448,-266.435 70.8332,-261.9278 65.9297,-256.9322"/>
</g>
<!-- Node327788 -->
<g id="node3" class="node">
<title>Node327788</title>
<g id="a_node3"><a xlink:href="quickjs_8c.html#acbcccb7ec58fd4a024ea1d01e5d04561" target="_top" xlink:title="JS_AddIntrinsicEval">
<polygon fill="none" stroke="#000000" points="272,-354.5 272,-373.5 377,-373.5 377,-354.5 272,-354.5"/>
<text text-anchor="middle" x="324.5" y="-361.5" font-family="Helvetica,sans-Serif" font-size="10.00" fill="#000000">JS_AddIntrinsicEval</text>
</a>
</g>
</g>
<!-- Node327787&#45;&gt;Node327788 -->
<g id="edge2" class="edge">
<title>Node327787&#45;&gt;Node327788</title>
<path fill="none" stroke="#191970" d="M245.0459,-349.5538C253.9859,-351.1793 263.1735,-352.8497 271.9838,-354.4516"/>
<polygon fill="#191970" stroke="#191970" points="245.5557,-346.0892 235.0908,-347.7438 244.3034,-352.9763 245.5557,-346.0892"/>
</g>
<!-- Node327789 -->
<g id="node4" class="node">
<title>Node327789</title>
<g id="a_node4"><a xlink:href="quickjs_8c.html#ad8aedb643b8753b7a15f6cb2df61945e" target="_top" xlink:title="JS_NewContext">
<polygon fill="none" stroke="#ff0000" points="425,-354.5 425,-373.5 514,-373.5 514,-354.5 425,-354.5"/>
<text text-anchor="middle" x="469.5" y="-361.5" font-family="Helvetica,sans-Serif" font-size="10.00" fill="#000000">JS_NewContext</text>
</a>
</g>
</g>
<!-- Node327788&#45;&gt;Node327789 -->
<g id="edge3" class="edge">
<title>Node327788&#45;&gt;Node327789</title>
<path fill="none" stroke="#191970" d="M387.6164,-364C400.0922,-364 412.9451,-364 424.6636,-364"/>
<polygon fill="#191970" stroke="#191970" points="387.2585,-360.5001 377.2585,-364 387.2585,-367.5001 387.2585,-360.5001"/>
</g>
<!-- Node327794 -->
<g id="node6" class="node">
<title>Node327794</title>
<g id="a_node6"><a xlink:href="classqjs_1_1Context_1_1Module.html#a3b16e4ca57ab1de004a35ae1930b40d2" target="_top" xlink:title="qjs::Context::Module\l::Module">
<polygon fill="none" stroke="#000000" points="271,-305 271,-335 378,-335 378,-305 271,-305"/>
<text text-anchor="start" x="279" y="-323" font-family="Helvetica,sans-Serif" font-size="10.00" fill="#000000">qjs::Context::Module</text>
<text text-anchor="middle" x="324.5" y="-312" font-family="Helvetica,sans-Serif" font-size="10.00" fill="#000000">::Module</text>
</a>
</g>
</g>
<!-- Node327793&#45;&gt;Node327794 -->
<g id="edge5" class="edge">
<title>Node327793&#45;&gt;Node327794</title>
<path fill="none" stroke="#191970" d="M226.3725,-288.5992C242.2909,-293.6931 260.7973,-299.6151 277.4207,-304.9346"/>
<polygon fill="#191970" stroke="#191970" points="227.4264,-285.2617 216.8355,-285.5473 225.293,-291.9287 227.4264,-285.2617"/>
</g>
<!-- Node327795 -->
<g id="node7" class="node">
<title>Node327795</title>
<g id="a_node7"><a xlink:href="quickjs-libc_8c.html#a0e65c67dfff872a664f8d29e7eae5a61" target="_top" xlink:title="js_init_module_std">
<polygon fill="none" stroke="#000000" points="275.5,-266.5 275.5,-285.5 373.5,-285.5 373.5,-266.5 275.5,-266.5"/>
<text text-anchor="middle" x="324.5" y="-273.5" font-family="Helvetica,sans-Serif" font-size="10.00" fill="#000000">js_init_module_std</text>
</a>
</g>
</g>
<!-- Node327793&#45;&gt;Node327795 -->
<g id="edge6" class="edge">
<title>Node327793&#45;&gt;Node327795</title>
<path fill="none" stroke="#191970" d="M243.8011,-276C254.2135,-276 265.0032,-276 275.1749,-276"/>
<polygon fill="#191970" stroke="#191970" points="243.5513,-272.5001 233.5512,-276 243.5512,-279.5001 243.5513,-272.5001"/>
</g>
<!-- Node327796 -->
<g id="node9" class="node">
<title>Node327796</title>
<g id="a_node9"><a xlink:href="quickjs-libc_8c.html#adcca2b4a661355e6ff87a0def2339894" target="_top" xlink:title="js_init_module_os">
<polygon fill="none" stroke="#000000" points="277,-228.5 277,-247.5 372,-247.5 372,-228.5 277,-228.5"/>
<text text-anchor="middle" x="324.5" y="-235.5" font-family="Helvetica,sans-Serif" font-size="10.00" fill="#000000">js_init_module_os</text>
</a>
</g>
</g>
<!-- Node327793&#45;&gt;Node327796 -->
<g id="edge8" class="edge">
<title>Node327793&#45;&gt;Node327796</title>
<path fill="none" stroke="#191970" d="M231.5729,-263.6817C250.4645,-258.4607 272.1472,-252.4684 289.814,-247.5859"/>
<polygon fill="#191970" stroke="#191970" points="230.4034,-260.3736 221.6971,-266.411 232.2681,-267.1207 230.4034,-260.3736"/>
</g>
<!-- Node327792 -->
<g id="node8" class="node">
<title>Node327792</title>
<g id="a_node8"><a xlink:href="qjs_8cpp.html#a3c04138a5bfe5d72780bb7e82a18e627" target="_top" xlink:title="main">
<polygon fill="none" stroke="#000000" points="450.5,-266.5 450.5,-285.5 488.5,-285.5 488.5,-266.5 450.5,-266.5"/>
<text text-anchor="middle" x="469.5" y="-273.5" font-family="Helvetica,sans-Serif" font-size="10.00" fill="#000000">main</text>
</a>
</g>
</g>
<!-- Node327795&#45;&gt;Node327792 -->
<g id="edge7" class="edge">
<title>Node327795&#45;&gt;Node327792</title>
<path fill="none" stroke="#191970" d="M383.6339,-276C407.4259,-276 433.2073,-276 450.2451,-276"/>
<polygon fill="#191970" stroke="#191970" points="383.5904,-272.5001 373.5904,-276 383.5904,-279.5001 383.5904,-272.5001"/>
</g>
<!-- Node327796&#45;&gt;Node327792 -->
<g id="edge9" class="edge">
<title>Node327796&#45;&gt;Node327792</title>
<path fill="none" stroke="#191970" d="M371.0673,-250.2038C397.894,-257.2343 430.1769,-265.6946 450.2732,-270.9613"/>
<polygon fill="#191970" stroke="#191970" points="371.6503,-246.7385 361.0896,-247.589 369.8757,-253.5098 371.6503,-246.7385"/>
</g>
<!-- Node327798 -->
<g id="node11" class="node">
<title>Node327798</title>
<g id="a_node11"><a xlink:href="quickjs_8c.html#a4b8ef2bb3b35e4a5f6ed8bd837a50e7c" target="_top" xlink:title="JS_ReadObjectRec">
<polygon fill="none" stroke="#000000" points="272.5,-133.5 272.5,-152.5 376.5,-152.5 376.5,-133.5 272.5,-133.5"/>
<text text-anchor="middle" x="324.5" y="-140.5" font-family="Helvetica,sans-Serif" font-size="10.00" fill="#000000">JS_ReadObjectRec</text>
</a>
</g>
</g>
<!-- Node327797&#45;&gt;Node327798 -->
<g id="edge11" class="edge">
<title>Node327797&#45;&gt;Node327798</title>
<path fill="none" stroke="#191970" d="M241.9354,-136.3726C251.992,-136.1919 262.46,-136.2109 272.4299,-136.4298"/>
<polygon fill="#191970" stroke="#191970" points="241.5505,-132.8811 231.6423,-136.6333 241.7277,-139.8789 241.5505,-132.8811"/>
</g>
<!-- Node327798&#45;&gt;Node327797 -->
<g id="edge14" class="edge">
<title>Node327798&#45;&gt;Node327797</title>
<path fill="none" stroke="#191970" d="M262.2202,-149.7234C251.9106,-149.8085 241.4051,-149.6896 231.6423,-149.3667"/>
<polygon fill="#191970" stroke="#191970" points="262.4835,-153.2199 272.4299,-149.5702 262.3785,-146.2207 262.4835,-153.2199"/>
</g>
<!-- Node327799 -->
<g id="node12" class="node">
<title>Node327799</title>
<g id="a_node12"><a xlink:href="quickjs_8c.html#a367627778ac537f4bb1f0fd07a2dee1b" target="_top" xlink:title="JS_ReadFunctionTag">
<polygon fill="none" stroke="#000000" points="414,-228.5 414,-247.5 525,-247.5 525,-228.5 414,-228.5"/>
<text text-anchor="middle" x="469.5" y="-235.5" font-family="Helvetica,sans-Serif" font-size="10.00" fill="#000000">JS_ReadFunctionTag</text>
</a>
</g>
</g>
<!-- Node327798&#45;&gt;Node327799 -->
<g id="edge12" class="edge">
<title>Node327798&#45;&gt;Node327799</title>
<path fill="none" stroke="#191970" d="M347.665,-159.4312C364.722,-174.465 389.1765,-195.8883 414,-210 427.9889,-217.9525 445.8514,-223.3261 457.4773,-228.3908"/>
<polygon fill="#191970" stroke="#191970" points="349.7394,-156.5948 339.9166,-152.6243 345.1194,-161.8537 349.7394,-156.5948"/>
</g>
<!-- Node327800 -->
<g id="node13" class="node">
<title>Node327800</title>
<g id="a_node13"><a xlink:href="quickjs_8c.html#ad0e3230c3896c2048283a9302f184fb4" target="_top" xlink:title="JS_ReadObjectTag">
<polygon fill="none" stroke="#000000" points="418.5,-190.5 418.5,-209.5 520.5,-209.5 520.5,-190.5 418.5,-190.5"/>
<text text-anchor="middle" x="469.5" y="-197.5" font-family="Helvetica,sans-Serif" font-size="10.00" fill="#000000">JS_ReadObjectTag</text>
</a>
</g>
</g>
<!-- Node327798&#45;&gt;Node327800 -->
<g id="edge15" class="edge">
<title>Node327798&#45;&gt;Node327800</title>
<path fill="none" stroke="#191970" d="M374.7562,-156.3723C387.487,-161.4722 401.1863,-167.0937 414,-172 429.7883,-178.0453 448.4373,-184.2396 459.5985,-190.3016"/>
<polygon fill="#191970" stroke="#191970" points="375.8262,-153.0314 365.2404,-152.5945 373.2433,-159.5375 375.8262,-153.0314"/>
</g>
<!-- Node327801 -->
<g id="node14" class="node">
<title>Node327801</title>
<g id="a_node14"><a xlink:href="quickjs_8c.html#a18da561cb430d36d47200cd3ab394984" target="_top" xlink:title="JS_ReadArray">
<polygon fill="none" stroke="#000000" points="429.5,-152.5 429.5,-171.5 509.5,-171.5 509.5,-152.5 429.5,-152.5"/>
<text text-anchor="middle" x="469.5" y="-159.5" font-family="Helvetica,sans-Serif" font-size="10.00" fill="#000000">JS_ReadArray</text>
</a>
</g>
</g>
<!-- Node327798&#45;&gt;Node327801 -->
<g id="edge17" class="edge">
<title>Node327798&#45;&gt;Node327801</title>
<path fill="none" stroke="#191970" d="M386.8855,-144.4834C405.1692,-146.6656 424.3283,-149.545 439.5878,-152.4959"/>
<polygon fill="#191970" stroke="#191970" points="387.1787,-140.9943 376.8483,-143.3467 386.391,-147.9498 387.1787,-140.9943"/>
</g>
<!-- Node327802 -->
<g id="node15" class="node">
<title>Node327802</title>
<g id="a_node15"><a xlink:href="quickjs_8c.html#a00910faacc776e3c2c225aa117aab450" target="_top" xlink:title="JS_ReadTypedArray">
<polygon fill="none" stroke="#000000" points="416,-114.5 416,-133.5 523,-133.5 523,-114.5 416,-114.5"/>
<text text-anchor="middle" x="469.5" y="-121.5" font-family="Helvetica,sans-Serif" font-size="10.00" fill="#000000">JS_ReadTypedArray</text>
</a>
</g>
</g>
<!-- Node327798&#45;&gt;Node327802 -->
<g id="edge19" class="edge">
<title>Node327798&#45;&gt;Node327802</title>
<path fill="none" stroke="#191970" d="M364.529,-131.6466C380.3587,-128.9028 398.7915,-126.3418 415.7536,-124.4975"/>
<polygon fill="#191970" stroke="#191970" points="363.7524,-128.2305 354.5441,-133.4705 365.0103,-135.1166 363.7524,-128.2305"/>
</g>
<!-- Node327803 -->
<g id="node16" class="node">
<title>Node327803</title>
<g id="a_node16"><a xlink:href="quickjs_8c.html#a8fce6f70a6fc880eabcdb9883e3753f2" target="_top" xlink:title="JS_ReadDate">
<polygon fill="none" stroke="#000000" points="430.5,-76.5 430.5,-95.5 508.5,-95.5 508.5,-76.5 430.5,-76.5"/>
<text text-anchor="middle" x="469.5" y="-83.5" font-family="Helvetica,sans-Serif" font-size="10.00" fill="#000000">JS_ReadDate</text>
</a>
</g>
</g>
<!-- Node327798&#45;&gt;Node327803 -->
<g id="edge21" class="edge">
<title>Node327798&#45;&gt;Node327803</title>
<path fill="none" stroke="#191970" d="M342.6422,-127.9858C360.6138,-117.8738 388.9934,-105.575 414,-96 419.2311,-93.997 424.7762,-91.9777 430.2589,-90.1308"/>
<polygon fill="#191970" stroke="#191970" points="340.5457,-125.1642 333.8164,-133.3474 344.1801,-131.1468 340.5457,-125.1642"/>
</g>
<!-- Node327804 -->
<g id="node17" class="node">
<title>Node327804</title>
<g id="a_node17"><a xlink:href="quickjs_8c.html#aa329df3dbab623ec017b77cb77bcce2f" target="_top" xlink:title="JS_ReadObjectValue">
<polygon fill="none" stroke="#000000" points="414.5,-38.5 414.5,-57.5 524.5,-57.5 524.5,-38.5 414.5,-38.5"/>
<text text-anchor="middle" x="469.5" y="-45.5" font-family="Helvetica,sans-Serif" font-size="10.00" fill="#000000">JS_ReadObjectValue</text>
</a>
</g>
</g>
<!-- Node327798&#45;&gt;Node327804 -->
<g id="edge23" class="edge">
<title>Node327798&#45;&gt;Node327804</title>
<path fill="none" stroke="#191970" d="M335.4065,-125.3626C351.2857,-105.8845 382.3428,-75.9966 414,-58 414.2656,-57.849 414.5326,-57.6989 414.801,-57.5498"/>
<polygon fill="#191970" stroke="#191970" points="332.4887,-123.4178 329.2311,-133.4994 338.0646,-127.6497 332.4887,-123.4178"/>
</g>
<!-- Node327805 -->
<g id="node18" class="node">
<title>Node327805</title>
<g id="a_node18"><a xlink:href="quickjs_8c.html#a12be2ea9c010752715072489497594e9" target="_top" xlink:title="JS_ReadObject">
<polygon fill="none" stroke="#ff0000" points="426.5,-.5 426.5,-19.5 512.5,-19.5 512.5,-.5 426.5,-.5"/>
<text text-anchor="middle" x="469.5" y="-7.5" font-family="Helvetica,sans-Serif" font-size="10.00" fill="#000000">JS_ReadObject</text>
</a>
</g>
</g>
<!-- Node327798&#45;&gt;Node327805 -->
<g id="edge25" class="edge">
<title>Node327798&#45;&gt;Node327805</title>
<path fill="none" stroke="#191970" d="M334.5418,-124.3126C348.9467,-99.1924 377.7778,-54.7243 414,-29 419.3973,-25.167 425.6317,-22.0555 431.9303,-19.5463"/>
<polygon fill="#191970" stroke="#191970" points="331.397,-122.7658 329.5843,-133.2044 337.511,-126.1745 331.397,-122.7658"/>
</g>
<!-- Node327799&#45;&gt;Node327798 -->
<g id="edge13" class="edge">
<title>Node327799&#45;&gt;Node327798</title>
<path fill="none" stroke="#191970" d="M406.0968,-223.2155C372.0564,-201.6461 340.8059,-169.2614 329.2311,-152.5006"/>
<polygon fill="#191970" stroke="#191970" points="404.4275,-226.2958 414.801,-228.4502 408.0351,-220.297 404.4275,-226.2958"/>
</g>
<!-- Node327800&#45;&gt;Node327798 -->
<g id="edge16" class="edge">
<title>Node327800&#45;&gt;Node327798</title>
<path fill="none" stroke="#191970" d="M408.7905,-187.9338C378.0772,-175.845 348.4711,-162.4628 333.8164,-152.6526"/>
<polygon fill="#191970" stroke="#191970" points="407.7534,-191.2856 418.3424,-191.6386 410.2848,-184.7593 407.7534,-191.2856"/>
</g>
<!-- Node327801&#45;&gt;Node327798 -->
<g id="edge18" class="edge">
<title>Node327801&#45;&gt;Node327798</title>
<path fill="none" stroke="#191970" d="M419.3173,-161.8817C397.7374,-159.637 373.2345,-156.1381 354.5441,-152.5295"/>
<polygon fill="#191970" stroke="#191970" points="419.0248,-165.3696 429.3155,-162.8492 419.6991,-158.4022 419.0248,-165.3696"/>
</g>
<!-- Node327802&#45;&gt;Node327798 -->
<g id="edge20" class="edge">
<title>Node327802&#45;&gt;Node327798</title>
<path fill="none" stroke="#191970" d="M429.3542,-135.3736C413.1143,-138.1853 394.1497,-140.8036 376.8483,-142.6533"/>
<polygon fill="#191970" stroke="#191970" points="430.3796,-138.7443 439.5878,-133.5041 429.1216,-131.8582 430.3796,-138.7443"/>
</g>
<!-- Node327803&#45;&gt;Node327798 -->
<g id="edge22" class="edge">
<title>Node327803&#45;&gt;Node327798</title>
<path fill="none" stroke="#191970" d="M450.3186,-100.1221C439.572,-104.752 425.9646,-109.4188 414,-114 397.9201,-120.1569 380.4455,-127.4402 365.2404,-133.4055"/>
<polygon fill="#191970" stroke="#191970" points="452.0778,-103.161 459.5985,-95.6984 449.0656,-96.8422 452.0778,-103.161"/>
</g>
<!-- Node327804&#45;&gt;Node327798 -->
<g id="edge24" class="edge">
<title>Node327804&#45;&gt;Node327798</title>
<path fill="none" stroke="#191970" d="M448.0765,-61.3756C437.4264,-65.428 424.601,-69.9735 414,-76 385.1145,-92.4209 356.7286,-118.742 339.9166,-133.3757"/>
<polygon fill="#191970" stroke="#191970" points="449.4963,-64.5774 457.4773,-57.6092 446.8929,-58.0795 449.4963,-64.5774"/>
</g>
</g>
</svg>
