<?xml version="1.0" encoding="UTF-8" standalone="no"?>
<!DOCTYPE svg PUBLIC "-//W3C//DTD SVG 1.1//EN"
 "http://www.w3.org/Graphics/SVG/1.1/DTD/svg11.dtd">
<!-- Generated by graphviz version 2.40.1 (20161225.0304)
 -->
<!-- Title: JS_DefinePropertyValueStr Pages: 1 -->
<!--zoomable 589 -->
<svg id="main" version="1.1" xmlns="http://www.w3.org/2000/svg" xmlns:xlink="http://www.w3.org/1999/xlink" xml:space="preserve" onload="init(evt)">
<style type="text/css"><![CDATA[
.edge:hover path { stroke: red; }
.edge:hover polygon { stroke: red; fill: red; }
]]></style>
<script type="text/javascript"><![CDATA[
var edges = document.getElementsByTagName('g');
if (edges && edges.length) {
  for (var i=0;i<edges.length;i++) {
    if (edges[i].id.substr(0,4)=='edge') {
      edges[i].setAttribute('class','edge');
    }
  }
}
]]></script>
        <defs>
                <circle id="rim" cx="0" cy="0" r="7"/>
                <circle id="rim2" cx="0" cy="0" r="3.5"/>
                <g id="zoomPlus">
                        <use xlink:href="#rim" fill="#404040">
                                <set attributeName="fill" to="#808080" begin="zoomplus.mouseover" end="zoomplus.mouseout"/>
                        </use>
                        <path d="M-4,0h8M0,-4v8" fill="none" stroke="white" stroke-width="1.5" pointer-events="none"/>
                </g>
                <g id="zoomMin">
                        <use xlink:href="#rim" fill="#404040">
                                <set attributeName="fill" to="#808080" begin="zoomminus.mouseover" end="zoomminus.mouseout"/>
                        </use>
                        <path d="M-4,0h8" fill="none" stroke="white" stroke-width="1.5" pointer-events="none"/>
                </g>
                <g id="dirArrow">
                        <path fill="none" stroke="white" stroke-width="1.5" d="M0,-3.0v7 M-2.5,-0.5L0,-3.0L2.5,-0.5"/>
                </g>
               <g id="resetDef">
                       <use xlink:href="#rim2" fill="#404040">
                               <set attributeName="fill" to="#808080" begin="reset.mouseover" end="reset.mouseout"/>
                       </use>
               </g>
        </defs>

<script type="text/javascript">
var viewWidth = 978;
var viewHeight = 589;
var sectionId = 'dynsection-220';
</script>
<script xlink:href="svgpan.js"/>
<svg id="graph" class="graph">
<g id="viewport">
<title>JS_DefinePropertyValueStr</title>
<!-- Node77243 -->
<g id="node1" class="node">
<title>Node77243</title>
<polygon fill="#bfbfbf" stroke="#000000" points="0,-314.5 0,-333.5 137,-333.5 137,-314.5 0,-314.5"/>
<text text-anchor="middle" x="68.5" y="-321.5" font-family="Helvetica,sans-Serif" font-size="10.00" fill="#000000">JS_DefinePropertyValueStr</text>
</g>
<!-- Node77244 -->
<g id="node2" class="node">
<title>Node77244</title>
<g id="a_node2"><a xlink:href="quickjs-libc_8c.html#a9fa4c190ba56314c7ed9b00bbc7ad0f9" target="_top" xlink:title="handle_posted_message">
<polygon fill="none" stroke="#000000" points="183.5,-475.5 183.5,-494.5 308.5,-494.5 308.5,-475.5 183.5,-475.5"/>
<text text-anchor="middle" x="246" y="-482.5" font-family="Helvetica,sans-Serif" font-size="10.00" fill="#000000">handle_posted_message</text>
</a>
</g>
</g>
<!-- Node77243&#45;&gt;Node77244 -->
<g id="edge1" class="edge">
<title>Node77243&#45;&gt;Node77244</title>
<path fill="none" stroke="#191970" d="M77.1005,-342.8935C92.068,-373.5902 125.8732,-434.0694 173,-466 178.7461,-469.8932 185.2418,-472.9888 191.9306,-475.4501"/>
<polygon fill="#191970" stroke="#191970" points="80.1956,-341.2515 72.7547,-333.7094 73.8682,-344.2455 80.1956,-341.2515"/>
</g>
<!-- Node77245 -->
<g id="node3" class="node">
<title>Node77245</title>
<g id="a_node3"><a xlink:href="quickjs_8c.html#a4c9489297c684663f30e517204a9ec14" target="_top" xlink:title="JS_AddIntrinsicBaseObjects">
<polygon fill="none" stroke="#000000" points="554.5,-380.5 554.5,-399.5 696.5,-399.5 696.5,-380.5 554.5,-380.5"/>
<text text-anchor="middle" x="625.5" y="-387.5" font-family="Helvetica,sans-Serif" font-size="10.00" fill="#000000">JS_AddIntrinsicBaseObjects</text>
</a>
</g>
</g>
<!-- Node77243&#45;&gt;Node77245 -->
<g id="edge2" class="edge">
<title>Node77243&#45;&gt;Node77245</title>
<path fill="none" stroke="#191970" d="M147.3065,-333.3379C255.8105,-346.1948 449.6155,-369.1591 554.0813,-381.5375"/>
<polygon fill="#191970" stroke="#191970" points="147.4206,-329.8271 137.0782,-332.126 146.5969,-336.7784 147.4206,-329.8271"/>
</g>
<!-- Node77250 -->
<g id="node6" class="node">
<title>Node77250</title>
<g id="a_node6"><a xlink:href="quickjs_8c.html#a3afdbdd7b58ef7e1dcc178c362071b3d" target="_top" xlink:title="JS_AddIntrinsicProxy">
<polygon fill="none" stroke="#000000" points="190.5,-437.5 190.5,-456.5 301.5,-456.5 301.5,-437.5 190.5,-437.5"/>
<text text-anchor="middle" x="246" y="-444.5" font-family="Helvetica,sans-Serif" font-size="10.00" fill="#000000">JS_AddIntrinsicProxy</text>
</a>
</g>
</g>
<!-- Node77243&#45;&gt;Node77250 -->
<g id="edge5" class="edge">
<title>Node77243&#45;&gt;Node77250</title>
<path fill="none" stroke="#191970" d="M81.4072,-341.748C99.3266,-365.0819 133.9748,-405.7172 173,-428 179.8235,-431.8961 187.4585,-435.0097 195.1498,-437.4934"/>
<polygon fill="#191970" stroke="#191970" points="84.1875,-339.6217 75.3843,-333.7264 78.5898,-343.8247 84.1875,-339.6217"/>
</g>
<!-- Node77251 -->
<g id="node7" class="node">
<title>Node77251</title>
<g id="a_node7"><a xlink:href="quickjs-libc_8c.html#a5cc3e22713f1916d49867f60a7375505" target="_top" xlink:title="js_module_set_import_meta">
<polygon fill="none" stroke="#000000" points="176.5,-295.5 176.5,-314.5 315.5,-314.5 315.5,-295.5 176.5,-295.5"/>
<text text-anchor="middle" x="246" y="-302.5" font-family="Helvetica,sans-Serif" font-size="10.00" fill="#000000">js_module_set_import_meta</text>
</a>
</g>
</g>
<!-- Node77243&#45;&gt;Node77251 -->
<g id="edge7" class="edge">
<title>Node77243&#45;&gt;Node77251</title>
<path fill="none" stroke="#191970" d="M147.185,-315.5774C156.9133,-314.536 166.8051,-313.4772 176.3846,-312.4518"/>
<polygon fill="#191970" stroke="#191970" points="146.6968,-312.1096 137.1261,-316.6541 147.4419,-319.0698 146.6968,-312.1096"/>
</g>
<!-- Node77258 -->
<g id="node12" class="node">
<title>Node77258</title>
<g id="a_node12"><a xlink:href="quickjs_8c.html#acd5457d29e9641ae5e3a1d778f94bd0e" target="_top" xlink:title="JS_NewGlobalCConstructor2">
<polygon fill="none" stroke="#000000" points="173,-399.5 173,-418.5 319,-418.5 319,-399.5 173,-399.5"/>
<text text-anchor="middle" x="246" y="-406.5" font-family="Helvetica,sans-Serif" font-size="10.00" fill="#000000">JS_NewGlobalCConstructor2</text>
</a>
</g>
</g>
<!-- Node77243&#45;&gt;Node77258 -->
<g id="edge12" class="edge">
<title>Node77243&#45;&gt;Node77258</title>
<path fill="none" stroke="#191970" d="M97.597,-337.9338C133.819,-355.2795 194.7256,-384.4461 226.0567,-399.4497"/>
<polygon fill="#191970" stroke="#191970" points="99.0474,-334.7477 88.5165,-333.5854 96.024,-341.0612 99.0474,-334.7477"/>
</g>
<!-- Node77266 -->
<g id="node20" class="node">
<title>Node77266</title>
<g id="a_node20"><a xlink:href="quickjs-libc_8c.html#a0142166ddf6e134f89207c3ee3c7572c" target="_top" xlink:title="js_os_stat">
<polygon fill="none" stroke="#000000" points="215,-257.5 215,-276.5 277,-276.5 277,-257.5 215,-257.5"/>
<text text-anchor="middle" x="246" y="-264.5" font-family="Helvetica,sans-Serif" font-size="10.00" fill="#000000">js_os_stat</text>
</a>
</g>
</g>
<!-- Node77243&#45;&gt;Node77266 -->
<g id="edge28" class="edge">
<title>Node77243&#45;&gt;Node77266</title>
<path fill="none" stroke="#191970" d="M102.221,-310.8229C122.5599,-303.1048 149.0807,-293.4436 173,-286 186.6297,-281.7585 201.8871,-277.6843 214.915,-274.404"/>
<polygon fill="#191970" stroke="#191970" points="100.8611,-307.5957 92.7715,-314.4374 103.362,-314.1337 100.8611,-307.5957"/>
</g>
<!-- Node77267 -->
<g id="node21" class="node">
<title>Node77267</title>
<g id="a_node21"><a xlink:href="quickjs_8c.html#a9eb2d90f27f684820f9de13189502b7c" target="_top" xlink:title="js_regexp_exec">
<polygon fill="none" stroke="#000000" points="203.5,-200.5 203.5,-219.5 288.5,-219.5 288.5,-200.5 203.5,-200.5"/>
<text text-anchor="middle" x="246" y="-207.5" font-family="Helvetica,sans-Serif" font-size="10.00" fill="#000000">js_regexp_exec</text>
</a>
</g>
</g>
<!-- Node77243&#45;&gt;Node77267 -->
<g id="edge29" class="edge">
<title>Node77243&#45;&gt;Node77267</title>
<path fill="none" stroke="#191970" d="M88.6418,-307.9618C109.24,-291.8973 142.459,-266.9091 173,-248 190.2502,-237.3198 210.8239,-226.7961 225.7267,-219.5415"/>
<polygon fill="#191970" stroke="#191970" points="86.3316,-305.3258 80.6313,-314.2565 90.6567,-310.8298 86.3316,-305.3258"/>
</g>
<!-- Node77276 -->
<g id="node30" class="node">
<title>Node77276</title>
<g id="a_node30"><a xlink:href="quickjs-libc_8c.html#a7aebce2172c6aa4a6645aef600a69e6b" target="_top" xlink:title="js_std_urlGet">
<polygon fill="none" stroke="#000000" points="209,-162.5 209,-181.5 283,-181.5 283,-162.5 209,-162.5"/>
<text text-anchor="middle" x="246" y="-169.5" font-family="Helvetica,sans-Serif" font-size="10.00" fill="#000000">js_std_urlGet</text>
</a>
</g>
</g>
<!-- Node77243&#45;&gt;Node77276 -->
<g id="edge39" class="edge">
<title>Node77243&#45;&gt;Node77276</title>
<path fill="none" stroke="#191970" d="M78.0809,-305.0853C93.8192,-275.9809 127.949,-220.4984 173,-191 183.6275,-184.0414 196.6819,-179.6283 208.7984,-176.8307"/>
<polygon fill="#191970" stroke="#191970" points="74.8478,-303.7137 73.2933,-314.1939 81.0441,-306.9705 74.8478,-303.7137"/>
</g>
<!-- Node77246 -->
<g id="node4" class="node">
<title>Node77246</title>
<g id="a_node4"><a xlink:href="quickjs_8c.html#ad8aedb643b8753b7a15f6cb2df61945e" target="_top" xlink:title="JS_NewContext">
<polygon fill="none" stroke="#000000" points="735,-418.5 735,-437.5 824,-437.5 824,-418.5 735,-418.5"/>
<text text-anchor="middle" x="779.5" y="-425.5" font-family="Helvetica,sans-Serif" font-size="10.00" fill="#000000">JS_NewContext</text>
</a>
</g>
</g>
<!-- Node77245&#45;&gt;Node77246 -->
<g id="edge3" class="edge">
<title>Node77245&#45;&gt;Node77246</title>
<path fill="none" stroke="#191970" d="M674.2937,-402.04C695.8082,-407.3488 720.7318,-413.4988 740.9187,-418.4799"/>
<polygon fill="#191970" stroke="#191970" points="674.908,-398.5867 664.3607,-399.589 673.231,-405.3828 674.908,-398.5867"/>
</g>
<!-- Node77247 -->
<g id="node5" class="node">
<title>Node77247</title>
<g id="a_node5"><a xlink:href="classqjs_1_1Context.html#a4392a23648acfc4bf6b445336efb5007" target="_top" xlink:title="qjs::Context::Context">
<polygon fill="none" stroke="#ff0000" points="860,-418.5 860,-437.5 970,-437.5 970,-418.5 860,-418.5"/>
<text text-anchor="middle" x="915" y="-425.5" font-family="Helvetica,sans-Serif" font-size="10.00" fill="#000000">qjs::Context::Context</text>
</a>
</g>
</g>
<!-- Node77246&#45;&gt;Node77247 -->
<g id="edge4" class="edge">
<title>Node77246&#45;&gt;Node77247</title>
<path fill="none" stroke="#191970" d="M834.3476,-428C842.7739,-428 851.4767,-428 859.9083,-428"/>
<polygon fill="#191970" stroke="#191970" points="834.2433,-424.5001 824.2433,-428 834.2433,-431.5001 834.2433,-424.5001"/>
</g>
<!-- Node77250&#45;&gt;Node77246 -->
<g id="edge6" class="edge">
<title>Node77250&#45;&gt;Node77246</title>
<path fill="none" stroke="#191970" d="M310.4829,-459.778C313.5209,-461.5914 316.3872,-463.6542 319,-466 352.5981,-496.1643 317.8439,-535.3457 355,-561 413.8837,-601.656 444.8191,-568.3124 516,-561 598.6334,-552.5111 627.5935,-565.4435 699,-523 735.423,-501.3504 763.2609,-457.1645 774.3091,-437.6416"/>
<polygon fill="#191970" stroke="#191970" points="312.0435,-456.6452 301.5344,-455.3 308.9109,-462.9052 312.0435,-456.6452"/>
</g>
<!-- Node77252 -->
<g id="node8" class="node">
<title>Node77252</title>
<g id="a_node8"><a xlink:href="quickjs-libc_8c.html#ad61d60681847f324c5ba4ad88c546f1e" target="_top" xlink:title="js_module_loader">
<polygon fill="none" stroke="#000000" points="389.5,-266.5 389.5,-285.5 481.5,-285.5 481.5,-266.5 389.5,-266.5"/>
<text text-anchor="middle" x="435.5" y="-273.5" font-family="Helvetica,sans-Serif" font-size="10.00" fill="#000000">js_module_loader</text>
</a>
</g>
</g>
<!-- Node77251&#45;&gt;Node77252 -->
<g id="edge8" class="edge">
<title>Node77251&#45;&gt;Node77252</title>
<path fill="none" stroke="#191970" d="M318.3834,-293.9229C342.2139,-290.276 368.0465,-286.3227 389.3717,-283.0592"/>
<polygon fill="#191970" stroke="#191970" points="317.6673,-290.4916 308.3119,-295.4641 318.7263,-297.4111 317.6673,-290.4916"/>
</g>
<!-- Node77257 -->
<g id="node11" class="node">
<title>Node77257</title>
<g id="a_node11"><a xlink:href="quickjs-libc_8c.html#ab1b439d304c2125490b47ef262b5df67" target="_top" xlink:title="js_std_eval_binary">
<polygon fill="none" stroke="#000000" points="386.5,-228.5 386.5,-247.5 484.5,-247.5 484.5,-228.5 386.5,-228.5"/>
<text text-anchor="middle" x="435.5" y="-235.5" font-family="Helvetica,sans-Serif" font-size="10.00" fill="#000000">js_std_eval_binary</text>
</a>
</g>
</g>
<!-- Node77251&#45;&gt;Node77257 -->
<g id="edge11" class="edge">
<title>Node77251&#45;&gt;Node77257</title>
<path fill="none" stroke="#191970" d="M304.3668,-292.2233C309.4197,-290.3979 314.3668,-288.3324 319,-286 337.3515,-276.7617 336.5442,-266.0281 355,-257 364.6743,-252.2676 375.5894,-248.6773 386.188,-245.966"/>
<polygon fill="#191970" stroke="#191970" points="302.9797,-288.995 294.5741,-295.4446 305.1671,-295.6445 302.9797,-288.995"/>
</g>
<!-- Node77249 -->
<g id="node9" class="node">
<title>Node77249</title>
<g id="a_node9"><a xlink:href="qjs_8cpp.html#a3c04138a5bfe5d72780bb7e82a18e627" target="_top" xlink:title="main">
<polygon fill="none" stroke="#000000" points="606.5,-228.5 606.5,-247.5 644.5,-247.5 644.5,-228.5 606.5,-228.5"/>
<text text-anchor="middle" x="625.5" y="-235.5" font-family="Helvetica,sans-Serif" font-size="10.00" fill="#000000">main</text>
</a>
</g>
</g>
<!-- Node77252&#45;&gt;Node77249 -->
<g id="edge9" class="edge">
<title>Node77252&#45;&gt;Node77249</title>
<path fill="none" stroke="#191970" d="M492.1135,-264.6773C530.9217,-256.9157 580.0043,-247.0991 606.4807,-241.8039"/>
<polygon fill="#191970" stroke="#191970" points="491.0986,-261.3109 481.9792,-266.7042 492.4715,-268.1749 491.0986,-261.3109"/>
</g>
<!-- Node77253 -->
<g id="node10" class="node">
<title>Node77253</title>
<g id="a_node10"><a xlink:href="quickjs-libc_8c.html#a1fbb3adc15e7b967479fc1940e99b67a" target="_top" xlink:title="worker_func">
<polygon fill="none" stroke="#ff0000" points="590.5,-266.5 590.5,-285.5 660.5,-285.5 660.5,-266.5 590.5,-266.5"/>
<text text-anchor="middle" x="625.5" y="-273.5" font-family="Helvetica,sans-Serif" font-size="10.00" fill="#000000">worker_func</text>
</a>
</g>
</g>
<!-- Node77252&#45;&gt;Node77253 -->
<g id="edge10" class="edge">
<title>Node77252&#45;&gt;Node77253</title>
<path fill="none" stroke="#191970" d="M492.0536,-276C523.9045,-276 562.6912,-276 590.2216,-276"/>
<polygon fill="#191970" stroke="#191970" points="491.9793,-272.5001 481.9792,-276 491.9792,-279.5001 491.9793,-272.5001"/>
</g>
<!-- Node77258&#45;&gt;Node77245 -->
<g id="edge13" class="edge">
<title>Node77258&#45;&gt;Node77245</title>
<path fill="none" stroke="#191970" d="M329.3345,-404.8278C396.7355,-401.4533 490.61,-396.7534 554.4807,-393.5556"/>
<polygon fill="#191970" stroke="#191970" points="328.9839,-401.3409 319.1714,-405.3366 329.334,-408.3321 328.9839,-401.3409"/>
</g>
<!-- Node77259 -->
<g id="node13" class="node">
<title>Node77259</title>
<g id="a_node13"><a xlink:href="quickjs_8c.html#a4497f8c7cf2ec38da989910ae8b1f042" target="_top" xlink:title="JS_AddIntrinsicMapSet">
<polygon fill="none" stroke="#000000" points="376,-456.5 376,-475.5 495,-475.5 495,-456.5 376,-456.5"/>
<text text-anchor="middle" x="435.5" y="-463.5" font-family="Helvetica,sans-Serif" font-size="10.00" fill="#000000">JS_AddIntrinsicMapSet</text>
</a>
</g>
</g>
<!-- Node77258&#45;&gt;Node77259 -->
<g id="edge14" class="edge">
<title>Node77258&#45;&gt;Node77259</title>
<path fill="none" stroke="#191970" d="M299.1971,-421.3049C305.9391,-423.3131 312.6837,-425.5493 319,-428 335.8666,-434.5443 338.0598,-440.6487 355,-447 364.8154,-450.68 375.5787,-453.8062 385.9513,-456.3953"/>
<polygon fill="#191970" stroke="#191970" points="299.9465,-417.8796 289.3715,-418.5272 298.0423,-424.6156 299.9465,-417.8796"/>
</g>
<!-- Node77260 -->
<g id="node14" class="node">
<title>Node77260</title>
<g id="a_node14"><a xlink:href="quickjs_8c.html#a2e66fcf1bc1d19f346317f10ee590621" target="_top" xlink:title="JS_AddIntrinsicPromise">
<polygon fill="none" stroke="#000000" points="374.5,-418.5 374.5,-437.5 496.5,-437.5 496.5,-418.5 374.5,-418.5"/>
<text text-anchor="middle" x="435.5" y="-425.5" font-family="Helvetica,sans-Serif" font-size="10.00" fill="#000000">JS_AddIntrinsicPromise</text>
</a>
</g>
</g>
<!-- Node77258&#45;&gt;Node77260 -->
<g id="edge16" class="edge">
<title>Node77258&#45;&gt;Node77260</title>
<path fill="none" stroke="#191970" d="M329.617,-417.3838C344.6844,-418.8945 360.1327,-420.4434 374.4091,-421.8748"/>
<polygon fill="#191970" stroke="#191970" points="329.565,-413.8611 319.2656,-416.3459 328.8666,-420.8262 329.565,-413.8611"/>
</g>
<!-- Node77261 -->
<g id="node15" class="node">
<title>Node77261</title>
<g id="a_node15"><a xlink:href="quickjs_8c.html#a177d09828596bfe6df4bd90b2e93989d" target="_top" xlink:title="JS_AddIntrinsicTypedArrays">
<polygon fill="none" stroke="#000000" points="555,-494.5 555,-513.5 696,-513.5 696,-494.5 555,-494.5"/>
<text text-anchor="middle" x="625.5" y="-501.5" font-family="Helvetica,sans-Serif" font-size="10.00" fill="#000000">JS_AddIntrinsicTypedArrays</text>
</a>
</g>
</g>
<!-- Node77258&#45;&gt;Node77261 -->
<g id="edge18" class="edge">
<title>Node77258&#45;&gt;Node77261</title>
<path fill="none" stroke="#191970" d="M310.5904,-422.7735C313.5333,-424.3328 316.3566,-426.0684 319,-428 343.1923,-445.678 329.2821,-469.6258 355,-485 421.9758,-525.0384 515.6183,-521.1951 573.3196,-513.5091"/>
<polygon fill="#191970" stroke="#191970" points="312.0138,-419.5758 301.4636,-418.6041 309.1051,-425.9429 312.0138,-419.5758"/>
</g>
<!-- Node77262 -->
<g id="node16" class="node">
<title>Node77262</title>
<g id="a_node16"><a xlink:href="quickjs_8c.html#a293feb2179c9a722b2bd410bc2c5c173" target="_top" xlink:title="JS_NewGlobalCConstructor">
<polygon fill="none" stroke="#000000" points="365.5,-304.5 365.5,-323.5 505.5,-323.5 505.5,-304.5 365.5,-304.5"/>
<text text-anchor="middle" x="435.5" y="-311.5" font-family="Helvetica,sans-Serif" font-size="10.00" fill="#000000">JS_NewGlobalCConstructor</text>
</a>
</g>
</g>
<!-- Node77258&#45;&gt;Node77262 -->
<g id="edge20" class="edge">
<title>Node77258&#45;&gt;Node77262</title>
<path fill="none" stroke="#191970" d="M274.4809,-394.722C313.6586,-375.0814 383.1134,-340.2624 416.5178,-323.5162"/>
<polygon fill="#191970" stroke="#191970" points="272.5841,-391.7576 265.2131,-399.3681 275.7212,-398.0153 272.5841,-391.7576"/>
</g>
<!-- Node77265 -->
<g id="node19" class="node">
<title>Node77265</title>
<g id="a_node19"><a xlink:href="quickjs_8c.html#abc33a664e231090ec89f9d9975e21229" target="_top" xlink:title="JS_NewGlobalCConstructorOnly">
<polygon fill="none" stroke="#000000" points="355,-532.5 355,-551.5 516,-551.5 516,-532.5 355,-532.5"/>
<text text-anchor="middle" x="435.5" y="-539.5" font-family="Helvetica,sans-Serif" font-size="10.00" fill="#000000">JS_NewGlobalCConstructorOnly</text>
</a>
</g>
</g>
<!-- Node77258&#45;&gt;Node77265 -->
<g id="edge26" class="edge">
<title>Node77258&#45;&gt;Node77265</title>
<path fill="none" stroke="#191970" d="M312.8269,-423.3221C314.9974,-424.7402 317.0658,-426.2952 319,-428 351.3189,-456.4867 323.1863,-488.9502 355,-518 361.8924,-524.2936 370.3698,-528.9404 379.209,-532.3704"/>
<polygon fill="#191970" stroke="#191970" points="314.4693,-420.2312 304.0162,-418.5036 311.1104,-426.3727 314.4693,-420.2312"/>
</g>
<!-- Node77259&#45;&gt;Node77246 -->
<g id="edge15" class="edge">
<title>Node77259&#45;&gt;Node77246</title>
<path fill="none" stroke="#191970" d="M505.0522,-461.2167C558.2776,-457.181 633.4366,-450.6724 699,-442 710.6723,-440.4561 723.2378,-438.4416 734.8904,-436.4241"/>
<polygon fill="#191970" stroke="#191970" points="504.7538,-457.7291 495.043,-461.9661 505.2765,-464.7096 504.7538,-457.7291"/>
</g>
<!-- Node77260&#45;&gt;Node77246 -->
<g id="edge17" class="edge">
<title>Node77260&#45;&gt;Node77246</title>
<path fill="none" stroke="#191970" d="M506.8966,-428C575.4872,-428 676.9923,-428 734.8325,-428"/>
<polygon fill="#191970" stroke="#191970" points="506.6039,-424.5001 496.6039,-428 506.6039,-431.5001 506.6039,-424.5001"/>
</g>
<!-- Node77261&#45;&gt;Node77246 -->
<g id="edge19" class="edge">
<title>Node77261&#45;&gt;Node77246</title>
<path fill="none" stroke="#191970" d="M670.7317,-491.2653C680.2478,-488.0258 690.0957,-484.2419 699,-480 724.5351,-467.8356 751.6552,-448.8961 766.9948,-437.544"/>
<polygon fill="#191970" stroke="#191970" points="669.4118,-488.0142 660.9884,-494.4405 671.5807,-494.6698 669.4118,-488.0142"/>
</g>
<!-- Node77262&#45;&gt;Node77245 -->
<g id="edge21" class="edge">
<title>Node77262&#45;&gt;Node77245</title>
<path fill="none" stroke="#191970" d="M490.0798,-326.6043C499.0298,-329.6945 507.9881,-333.4567 516,-338 534.8807,-348.7065 532.9256,-360.6425 552,-371 559.0653,-374.8365 566.9367,-377.9234 574.8289,-380.4002"/>
<polygon fill="#191970" stroke="#191970" points="491.0075,-323.2264 480.4165,-323.5099 488.8727,-329.8929 491.0075,-323.2264"/>
</g>
<!-- Node77263 -->
<g id="node17" class="node">
<title>Node77263</title>
<g id="a_node17"><a xlink:href="quickjs_8c.html#a8ecbf5799518b7bfc3fefd47c7a0dd4e" target="_top" xlink:title="JS_AddIntrinsicDate">
<polygon fill="none" stroke="#000000" points="572,-304.5 572,-323.5 679,-323.5 679,-304.5 572,-304.5"/>
<text text-anchor="middle" x="625.5" y="-311.5" font-family="Helvetica,sans-Serif" font-size="10.00" fill="#000000">JS_AddIntrinsicDate</text>
</a>
</g>
</g>
<!-- Node77262&#45;&gt;Node77263 -->
<g id="edge22" class="edge">
<title>Node77262&#45;&gt;Node77263</title>
<path fill="none" stroke="#191970" d="M515.8233,-314C534.7588,-314 554.4914,-314 571.9135,-314"/>
<polygon fill="#191970" stroke="#191970" points="515.7092,-310.5001 505.7092,-314 515.7091,-317.5001 515.7092,-310.5001"/>
</g>
<!-- Node77264 -->
<g id="node18" class="node">
<title>Node77264</title>
<g id="a_node18"><a xlink:href="quickjs_8c.html#aafc8241682ce24b6d72e0f237ee85a51" target="_top" xlink:title="JS_AddIntrinsicRegExp">
<polygon fill="none" stroke="#000000" points="565,-342.5 565,-361.5 686,-361.5 686,-342.5 565,-342.5"/>
<text text-anchor="middle" x="625.5" y="-349.5" font-family="Helvetica,sans-Serif" font-size="10.00" fill="#000000">JS_AddIntrinsicRegExp</text>
</a>
</g>
</g>
<!-- Node77262&#45;&gt;Node77264 -->
<g id="edge24" class="edge">
<title>Node77262&#45;&gt;Node77264</title>
<path fill="none" stroke="#191970" d="M493.5475,-325.6095C520.5699,-331.014 552.3176,-337.3635 577.8997,-342.4799"/>
<polygon fill="#191970" stroke="#191970" points="493.9373,-322.1182 483.445,-323.589 492.5644,-328.9823 493.9373,-322.1182"/>
</g>
<!-- Node77263&#45;&gt;Node77246 -->
<g id="edge23" class="edge">
<title>Node77263&#45;&gt;Node77246</title>
<path fill="none" stroke="#191970" d="M688.3489,-327.3516C692.0586,-329.0187 695.6421,-330.8929 699,-333 734.7073,-355.4065 762.7241,-398.7986 774.0485,-418.2054"/>
<polygon fill="#191970" stroke="#191970" points="689.5105,-324.0472 678.9243,-323.6201 686.9336,-330.5557 689.5105,-324.0472"/>
</g>
<!-- Node77264&#45;&gt;Node77246 -->
<g id="edge25" class="edge">
<title>Node77264&#45;&gt;Node77246</title>
<path fill="none" stroke="#191970" d="M682.9937,-364.6823C688.4995,-366.5429 693.9191,-368.6418 699,-371 726.338,-383.6885 754.1351,-405.8717 768.8385,-418.4971"/>
<polygon fill="#191970" stroke="#191970" points="683.633,-361.2157 673.0446,-361.5859 681.5527,-367.8995 683.633,-361.2157"/>
</g>
<!-- Node77265&#45;&gt;Node77261 -->
<g id="edge27" class="edge">
<title>Node77265&#45;&gt;Node77261</title>
<path fill="none" stroke="#191970" d="M493.5475,-530.3905C520.5699,-524.986 552.3176,-518.6365 577.8997,-513.5201"/>
<polygon fill="#191970" stroke="#191970" points="492.5644,-527.0177 483.445,-532.411 493.9373,-533.8818 492.5644,-527.0177"/>
</g>
<!-- Node77268 -->
<g id="node22" class="node">
<title>Node77268</title>
<g id="a_node22"><a xlink:href="quickjs_8c.html#a55de0909f8b4c06625f67b2fdb670279" target="_top" xlink:title="js_is_standard_regexp">
<polygon fill="none" stroke="#000000" points="378.5,-190.5 378.5,-209.5 492.5,-209.5 492.5,-190.5 378.5,-190.5"/>
<text text-anchor="middle" x="435.5" y="-197.5" font-family="Helvetica,sans-Serif" font-size="10.00" fill="#000000">js_is_standard_regexp</text>
</a>
</g>
</g>
<!-- Node77267&#45;&gt;Node77268 -->
<g id="edge30" class="edge">
<title>Node77267&#45;&gt;Node77268</title>
<path fill="none" stroke="#191970" d="M298.8169,-207.2128C323.5705,-205.9066 353.1074,-204.3479 378.3797,-203.0143"/>
<polygon fill="#191970" stroke="#191970" points="298.3291,-203.7336 288.5275,-207.7558 298.6981,-210.7239 298.3291,-203.7336"/>
</g>
<!-- Node77270 -->
<g id="node24" class="node">
<title>Node77270</title>
<g id="a_node24"><a xlink:href="quickjs_8c.html#ab737681b4f1a426c560df37c1304c9d6" target="_top" xlink:title="JS_RegExpExec">
<polygon fill="none" stroke="#000000" points="389.5,-114.5 389.5,-133.5 481.5,-133.5 481.5,-114.5 389.5,-114.5"/>
<text text-anchor="middle" x="435.5" y="-121.5" font-family="Helvetica,sans-Serif" font-size="10.00" fill="#000000">JS_RegExpExec</text>
</a>
</g>
</g>
<!-- Node77267&#45;&gt;Node77270 -->
<g id="edge32" class="edge">
<title>Node77267&#45;&gt;Node77270</title>
<path fill="none" stroke="#191970" d="M298.7598,-198.072C305.6624,-195.9887 312.5664,-193.6316 319,-191 358.3034,-174.9236 400.6051,-147.8419 421.7767,-133.5286"/>
<polygon fill="#191970" stroke="#191970" points="297.3657,-194.8295 288.7025,-200.9285 299.2783,-201.5631 297.3657,-194.8295"/>
</g>
<!-- Node77269 -->
<g id="node23" class="node">
<title>Node77269</title>
<g id="a_node23"><a xlink:href="quickjs_8c.html#a6a77bcdb9f7f18c13c108c99a198708b" target="_top" xlink:title="js_regexp_Symbol_replace">
<polygon fill="none" stroke="#000000" points="558.5,-190.5 558.5,-209.5 692.5,-209.5 692.5,-190.5 558.5,-190.5"/>
<text text-anchor="middle" x="625.5" y="-197.5" font-family="Helvetica,sans-Serif" font-size="10.00" fill="#000000">js_regexp_Symbol_replace</text>
</a>
</g>
</g>
<!-- Node77268&#45;&gt;Node77269 -->
<g id="edge31" class="edge">
<title>Node77268&#45;&gt;Node77269</title>
<path fill="none" stroke="#191970" d="M502.633,-200C520.6493,-200 540.1325,-200 558.16,-200"/>
<polygon fill="#191970" stroke="#191970" points="502.5063,-196.5001 492.5063,-200 502.5062,-203.5001 502.5063,-196.5001"/>
</g>
<!-- Node77270&#45;&gt;Node77269 -->
<g id="edge35" class="edge">
<title>Node77270&#45;&gt;Node77269</title>
<path fill="none" stroke="#191970" d="M461.2402,-138.4742C484.4163,-151.0467 519.7003,-169.0632 552,-181 561.7665,-184.6093 572.5046,-187.8004 582.6847,-190.4877"/>
<polygon fill="#191970" stroke="#191970" points="462.8404,-135.36 452.3898,-133.6177 459.4729,-141.4968 462.8404,-135.36"/>
</g>
<!-- Node77271 -->
<g id="node25" class="node">
<title>Node77271</title>
<g id="a_node25"><a xlink:href="quickjs_8c.html#aeb6df5fcffc6fecfac1e9b0d709e99c5" target="_top" xlink:title="js_regexp_string_iterator_next">
<polygon fill="none" stroke="#000000" points="552,-152.5 552,-171.5 699,-171.5 699,-152.5 552,-152.5"/>
<text text-anchor="middle" x="625.5" y="-159.5" font-family="Helvetica,sans-Serif" font-size="10.00" fill="#000000">js_regexp_string_iterator_next</text>
</a>
</g>
</g>
<!-- Node77270&#45;&gt;Node77271 -->
<g id="edge33" class="edge">
<title>Node77270&#45;&gt;Node77271</title>
<path fill="none" stroke="#191970" d="M491.8088,-135.2618C519.1823,-140.7365 551.7247,-147.2449 577.849,-152.4698"/>
<polygon fill="#191970" stroke="#191970" points="492.4715,-131.8251 481.9792,-133.2958 491.0986,-138.6891 492.4715,-131.8251"/>
</g>
<!-- Node77272 -->
<g id="node26" class="node">
<title>Node77272</title>
<g id="a_node26"><a xlink:href="quickjs_8c.html#a41fc4304b39616e7be3500fe6ec881c2" target="_top" xlink:title="js_regexp_Symbol_match">
<polygon fill="none" stroke="#000000" points="561,-114.5 561,-133.5 690,-133.5 690,-114.5 561,-114.5"/>
<text text-anchor="middle" x="625.5" y="-121.5" font-family="Helvetica,sans-Serif" font-size="10.00" fill="#000000">js_regexp_Symbol_match</text>
</a>
</g>
</g>
<!-- Node77270&#45;&gt;Node77272 -->
<g id="edge34" class="edge">
<title>Node77270&#45;&gt;Node77272</title>
<path fill="none" stroke="#191970" d="M491.9992,-124C513.645,-124 538.5006,-124 560.8515,-124"/>
<polygon fill="#191970" stroke="#191970" points="491.9793,-120.5001 481.9792,-124 491.9792,-127.5001 491.9793,-120.5001"/>
</g>
<!-- Node77273 -->
<g id="node27" class="node">
<title>Node77273</title>
<g id="a_node27"><a xlink:href="quickjs_8c.html#af315d0f35b4b11e5957b904c98bf1c0d" target="_top" xlink:title="js_regexp_Symbol_search">
<polygon fill="none" stroke="#000000" points="560,-76.5 560,-95.5 691,-95.5 691,-76.5 560,-76.5"/>
<text text-anchor="middle" x="625.5" y="-83.5" font-family="Helvetica,sans-Serif" font-size="10.00" fill="#000000">js_regexp_Symbol_search</text>
</a>
</g>
</g>
<!-- Node77270&#45;&gt;Node77273 -->
<g id="edge36" class="edge">
<title>Node77270&#45;&gt;Node77273</title>
<path fill="none" stroke="#191970" d="M491.8088,-112.7382C519.1823,-107.2635 551.7247,-100.7551 577.849,-95.5302"/>
<polygon fill="#191970" stroke="#191970" points="491.0986,-109.3109 481.9792,-114.7042 492.4715,-116.1749 491.0986,-109.3109"/>
</g>
<!-- Node77274 -->
<g id="node28" class="node">
<title>Node77274</title>
<g id="a_node28"><a xlink:href="quickjs_8c.html#a79872a6d9d139e36d5d1894d16132024" target="_top" xlink:title="js_regexp_Symbol_split">
<polygon fill="none" stroke="#000000" points="565.5,-38.5 565.5,-57.5 685.5,-57.5 685.5,-38.5 565.5,-38.5"/>
<text text-anchor="middle" x="625.5" y="-45.5" font-family="Helvetica,sans-Serif" font-size="10.00" fill="#000000">js_regexp_Symbol_split</text>
</a>
</g>
</g>
<!-- Node77270&#45;&gt;Node77274 -->
<g id="edge37" class="edge">
<title>Node77270&#45;&gt;Node77274</title>
<path fill="none" stroke="#191970" d="M461.2402,-109.5258C484.4163,-96.9533 519.7003,-78.9368 552,-67 561.7665,-63.3907 572.5046,-60.1996 582.6847,-57.5123"/>
<polygon fill="#191970" stroke="#191970" points="459.4729,-106.5032 452.3898,-114.3823 462.8404,-112.64 459.4729,-106.5032"/>
</g>
<!-- Node77275 -->
<g id="node29" class="node">
<title>Node77275</title>
<g id="a_node29"><a xlink:href="quickjs_8c.html#acda1b1a97bfde7e280456c5969b7a2a3" target="_top" xlink:title="js_regexp_test">
<polygon fill="none" stroke="#000000" points="585.5,-.5 585.5,-19.5 665.5,-19.5 665.5,-.5 585.5,-.5"/>
<text text-anchor="middle" x="625.5" y="-7.5" font-family="Helvetica,sans-Serif" font-size="10.00" fill="#000000">js_regexp_test</text>
</a>
</g>
</g>
<!-- Node77270&#45;&gt;Node77275 -->
<g id="edge38" class="edge">
<title>Node77270&#45;&gt;Node77275</title>
<path fill="none" stroke="#191970" d="M451.627,-106.9131C472.7158,-85.5675 511.7372,-49.3777 552,-29 562.3484,-23.7625 574.2673,-19.8807 585.4542,-17.0414"/>
<polygon fill="#191970" stroke="#191970" points="448.9085,-104.6888 444.4573,-114.3033 453.9326,-109.563 448.9085,-104.6888"/>
</g>
</g>
</svg>
        <g id="navigator" transform="translate(0 0)" fill="#404254">
                <rect fill="#f2f5e9" fill-opacity="0.5" stroke="#606060" stroke-width=".5" x="0" y="0" width="60" height="60"/>
                <use id="zoomplus" xlink:href="#zoomPlus" x="17" y="9" onmousedown="handleZoom(evt,'in')"/>
                <use id="zoomminus" xlink:href="#zoomMin" x="42" y="9" onmousedown="handleZoom(evt,'out')"/>
                <use id="reset" xlink:href="#resetDef" x="30" y="36" onmousedown="handleReset()"/>
                <g id="arrowUp" xlink:href="#dirArrow" transform="translate(30 24)" onmousedown="handlePan(0,-1)">
                  <use xlink:href="#rim" fill="#404040">
                        <set attributeName="fill" to="#808080" begin="arrowUp.mouseover" end="arrowUp.mouseout"/>
                  </use>
                  <path fill="none" stroke="white" stroke-width="1.5" d="M0,-3.0v7 M-2.5,-0.5L0,-3.0L2.5,-0.5"/>
                </g>
                <g id="arrowRight" xlink:href="#dirArrow" transform="rotate(90) translate(36 -43)" onmousedown="handlePan(1,0)">
                  <use xlink:href="#rim" fill="#404040">
                        <set attributeName="fill" to="#808080" begin="arrowRight.mouseover" end="arrowRight.mouseout"/>
                  </use>
                  <path fill="none" stroke="white" stroke-width="1.5" d="M0,-3.0v7 M-2.5,-0.5L0,-3.0L2.5,-0.5"/>
                </g>
                <g id="arrowDown" xlink:href="#dirArrow" transform="rotate(180) translate(-30 -48)" onmousedown="handlePan(0,1)">
                  <use xlink:href="#rim" fill="#404040">
                        <set attributeName="fill" to="#808080" begin="arrowDown.mouseover" end="arrowDown.mouseout"/>
                  </use>
                  <path fill="none" stroke="white" stroke-width="1.5" d="M0,-3.0v7 M-2.5,-0.5L0,-3.0L2.5,-0.5"/>
                </g>
                <g id="arrowLeft" xlink:href="#dirArrow" transform="rotate(270) translate(-36 17)" onmousedown="handlePan(-1,0)">
                  <use xlink:href="#rim" fill="#404040">
                        <set attributeName="fill" to="#808080" begin="arrowLeft.mouseover" end="arrowLeft.mouseout"/>
                  </use>
                  <path fill="none" stroke="white" stroke-width="1.5" d="M0,-3.0v7 M-2.5,-0.5L0,-3.0L2.5,-0.5"/>
                </g>
        </g>
        <svg viewBox="0 0 15 15" width="100%" height="30px" preserveAspectRatio="xMaxYMin meet">
         <g id="arrow_out" transform="scale(0.3 0.3)">
          <a xlink:href="quickjs_8h_a841f4cb887e4d9e03e94a0697255e578_icgraph_org.svg" target="_base">
           <rect id="button" ry="5" rx="5" y="6" x="6" height="38" width="38"
                fill="#f2f5e9" fill-opacity="0.5" stroke="#606060" stroke-width="1.0"/>
           <path id="arrow"
             d="M 11.500037,31.436501 C 11.940474,20.09759 22.043105,11.32322 32.158766,21.979434 L 37.068811,17.246167 C 37.068811,17.246167 37.088388,32 37.088388,32 L 22.160133,31.978069 C 22.160133,31.978069 26.997745,27.140456 26.997745,27.140456 C 18.528582,18.264221 13.291696,25.230495 11.500037,31.436501 z"
             style="fill:#404040;"/>
          </a>
         </g>
        </svg>
</svg>
