<?xml version="1.0" encoding="UTF-8" standalone="no"?>
<!DOCTYPE svg PUBLIC "-//W3C//DTD SVG 1.1//EN"
 "http://www.w3.org/Graphics/SVG/1.1/DTD/svg11.dtd">
<!-- Generated by graphviz version 2.40.1 (20161225.0304)
 -->
<!-- Title: JS_SetConstructor2 Pages: 1 -->
<!--zoomable 315 -->
<svg id="main" version="1.1" xmlns="http://www.w3.org/2000/svg" xmlns:xlink="http://www.w3.org/1999/xlink" xml:space="preserve" onload="init(evt)">
<style type="text/css"><![CDATA[
.edge:hover path { stroke: red; }
.edge:hover polygon { stroke: red; fill: red; }
]]></style>
<script type="text/javascript"><![CDATA[
var edges = document.getElementsByTagName('g');
if (edges && edges.length) {
  for (var i=0;i<edges.length;i++) {
    if (edges[i].id.substr(0,4)=='edge') {
      edges[i].setAttribute('class','edge');
    }
  }
}
]]></script>
        <defs>
                <circle id="rim" cx="0" cy="0" r="7"/>
                <circle id="rim2" cx="0" cy="0" r="3.5"/>
                <g id="zoomPlus">
                        <use xlink:href="#rim" fill="#404040">
                                <set attributeName="fill" to="#808080" begin="zoomplus.mouseover" end="zoomplus.mouseout"/>
                        </use>
                        <path d="M-4,0h8M0,-4v8" fill="none" stroke="white" stroke-width="1.5" pointer-events="none"/>
                </g>
                <g id="zoomMin">
                        <use xlink:href="#rim" fill="#404040">
                                <set attributeName="fill" to="#808080" begin="zoomminus.mouseover" end="zoomminus.mouseout"/>
                        </use>
                        <path d="M-4,0h8" fill="none" stroke="white" stroke-width="1.5" pointer-events="none"/>
                </g>
                <g id="dirArrow">
                        <path fill="none" stroke="white" stroke-width="1.5" d="M0,-3.0v7 M-2.5,-0.5L0,-3.0L2.5,-0.5"/>
                </g>
               <g id="resetDef">
                       <use xlink:href="#rim2" fill="#404040">
                               <set attributeName="fill" to="#808080" begin="reset.mouseover" end="reset.mouseout"/>
                       </use>
               </g>
        </defs>

<script type="text/javascript">
var viewWidth = 1077;
var viewHeight = 315;
var sectionId = 'dynsection-1378';
</script>
<script xlink:href="svgpan.js"/>
<svg id="graph" class="graph">
<g id="viewport">
<title>JS_SetConstructor2</title>
<!-- Node368051 -->
<g id="node1" class="node">
<title>Node368051</title>
<polygon fill="#bfbfbf" stroke="#000000" points="0,-154.3114 0,-173.3114 105,-173.3114 105,-154.3114 0,-154.3114"/>
<text text-anchor="middle" x="52.5" y="-161.3114" font-family="Helvetica,sans-Serif" font-size="10.00" fill="#000000">JS_SetConstructor2</text>
</g>
<!-- Node368052 -->
<g id="node2" class="node">
<title>Node368052</title>
<g id="a_node2"><a xlink:href="quickjs_8c.html#a4c9489297c684663f30e517204a9ec14" target="_top" xlink:title="JS_AddIntrinsicBaseObjects">
<polygon fill="none" stroke="#000000" points="656,-78.3114 656,-97.3114 798,-97.3114 798,-78.3114 656,-78.3114"/>
<text text-anchor="middle" x="727" y="-85.3114" font-family="Helvetica,sans-Serif" font-size="10.00" fill="#000000">JS_AddIntrinsicBaseObjects</text>
</a>
</g>
</g>
<!-- Node368051&#45;&gt;Node368052 -->
<g id="edge1" class="edge">
<title>Node368051&#45;&gt;Node368052</title>
<path fill="none" stroke="#191970" d="M76.4635,-148.9511C116.5277,-124.7348 200.2859,-76.7625 277,-49.8114 354.9619,-22.4219 376.804,-20.3008 459,-11.8114 530.1769,-4.4601 551.829,9.9352 620,-11.8114 661.4617,-25.0377 700.6169,-60.8337 717.8275,-78.1587"/>
<polygon fill="#191970" stroke="#191970" points="74.6389,-145.9643 67.9205,-154.1565 78.2813,-151.9421 74.6389,-145.9643"/>
</g>
<!-- Node368057 -->
<g id="node5" class="node">
<title>Node368057</title>
<g id="a_node5"><a xlink:href="quickjs_8c.html#a2e66fcf1bc1d19f346317f10ee590621" target="_top" xlink:title="JS_AddIntrinsicPromise">
<polygon fill="none" stroke="#000000" points="478.5,-287.3114 478.5,-306.3114 600.5,-306.3114 600.5,-287.3114 478.5,-287.3114"/>
<text text-anchor="middle" x="539.5" y="-294.3114" font-family="Helvetica,sans-Serif" font-size="10.00" fill="#000000">JS_AddIntrinsicPromise</text>
</a>
</g>
</g>
<!-- Node368051&#45;&gt;Node368057 -->
<g id="edge4" class="edge">
<title>Node368051&#45;&gt;Node368057</title>
<path fill="none" stroke="#191970" d="M88.9228,-176.771C133.0819,-192.2231 209.931,-218.2822 277,-236.8114 351.3494,-257.352 438.9057,-276.3397 491.758,-287.2433"/>
<polygon fill="#191970" stroke="#191970" points="89.8134,-173.3742 79.2186,-173.3617 87.4931,-179.9785 89.8134,-173.3742"/>
</g>
<!-- Node368058 -->
<g id="node6" class="node">
<title>Node368058</title>
<g id="a_node6"><a xlink:href="quickjs_8c.html#ad4850b99c142ea2d6d1b276efebb62e0" target="_top" xlink:title="JS_SetConstructor">
<polygon fill="none" stroke="#000000" points="141,-154.3114 141,-173.3114 241,-173.3114 241,-154.3114 141,-154.3114"/>
<text text-anchor="middle" x="191" y="-161.3114" font-family="Helvetica,sans-Serif" font-size="10.00" fill="#000000">JS_SetConstructor</text>
</a>
</g>
</g>
<!-- Node368051&#45;&gt;Node368058 -->
<g id="edge6" class="edge">
<title>Node368051&#45;&gt;Node368058</title>
<path fill="none" stroke="#191970" d="M115.4632,-163.8114C123.9104,-163.8114 132.4834,-163.8114 140.6739,-163.8114"/>
<polygon fill="#191970" stroke="#191970" points="115.256,-160.3115 105.256,-163.8114 115.256,-167.3115 115.256,-160.3115"/>
</g>
<!-- Node368053 -->
<g id="node3" class="node">
<title>Node368053</title>
<g id="a_node3"><a xlink:href="quickjs_8c.html#ad8aedb643b8753b7a15f6cb2df61945e" target="_top" xlink:title="JS_NewContext">
<polygon fill="none" stroke="#000000" points="834,-173.3114 834,-192.3114 923,-192.3114 923,-173.3114 834,-173.3114"/>
<text text-anchor="middle" x="878.5" y="-180.3114" font-family="Helvetica,sans-Serif" font-size="10.00" fill="#000000">JS_NewContext</text>
</a>
</g>
</g>
<!-- Node368052&#45;&gt;Node368053 -->
<g id="edge2" class="edge">
<title>Node368052&#45;&gt;Node368053</title>
<path fill="none" stroke="#191970" d="M750.9516,-102.8306C782.381,-122.5388 836.6421,-156.5639 863.099,-173.154"/>
<polygon fill="#191970" stroke="#191970" points="752.6919,-99.7907 742.3604,-97.4433 748.9731,-105.7212 752.6919,-99.7907"/>
</g>
<!-- Node368054 -->
<g id="node4" class="node">
<title>Node368054</title>
<g id="a_node4"><a xlink:href="classqjs_1_1Context.html#a4392a23648acfc4bf6b445336efb5007" target="_top" xlink:title="qjs::Context::Context">
<polygon fill="none" stroke="#ff0000" points="959,-173.3114 959,-192.3114 1069,-192.3114 1069,-173.3114 959,-173.3114"/>
<text text-anchor="middle" x="1014" y="-180.3114" font-family="Helvetica,sans-Serif" font-size="10.00" fill="#000000">qjs::Context::Context</text>
</a>
</g>
</g>
<!-- Node368053&#45;&gt;Node368054 -->
<g id="edge3" class="edge">
<title>Node368053&#45;&gt;Node368054</title>
<path fill="none" stroke="#191970" d="M933.3476,-182.8114C941.7739,-182.8114 950.4767,-182.8114 958.9083,-182.8114"/>
<polygon fill="#191970" stroke="#191970" points="933.2433,-179.3115 923.2433,-182.8114 933.2433,-186.3115 933.2433,-179.3115"/>
</g>
<!-- Node368057&#45;&gt;Node368053 -->
<g id="edge5" class="edge">
<title>Node368057&#45;&gt;Node368053</title>
<path fill="none" stroke="#191970" d="M588.8476,-284.7408C641.4272,-271.3178 726.7362,-247.9199 798,-220.8114 819.956,-212.4594 844.2187,-200.6289 860.3085,-192.3951"/>
<polygon fill="#191970" stroke="#191970" points="587.9359,-281.3611 579.1019,-287.2101 589.6552,-288.1467 587.9359,-281.3611"/>
</g>
<!-- Node368059 -->
<g id="node7" class="node">
<title>Node368059</title>
<g id="a_node7"><a xlink:href="quickjs-libc_8c.html#a066e7962ce24f22d5df20968a8baa346" target="_top" xlink:title="js_os_init">
<polygon fill="none" stroke="#000000" points="321,-59.3114 321,-78.3114 379,-78.3114 379,-59.3114 321,-59.3114"/>
<text text-anchor="middle" x="350" y="-66.3114" font-family="Helvetica,sans-Serif" font-size="10.00" fill="#000000">js_os_init</text>
</a>
</g>
</g>
<!-- Node368058&#45;&gt;Node368059 -->
<g id="edge7" class="edge">
<title>Node368058&#45;&gt;Node368059</title>
<path fill="none" stroke="#191970" d="M215.714,-149.0452C248.6333,-129.3764 305.9507,-95.1302 333.8366,-78.4688"/>
<polygon fill="#191970" stroke="#191970" points="213.91,-146.0458 207.1208,-154.1795 217.5004,-152.0549 213.91,-146.0458"/>
</g>
<!-- Node368061 -->
<g id="node9" class="node">
<title>Node368061</title>
<g id="a_node9"><a xlink:href="quickjs_8c.html#acd5457d29e9641ae5e3a1d778f94bd0e" target="_top" xlink:title="JS_NewGlobalCConstructor2">
<polygon fill="none" stroke="#000000" points="277,-154.3114 277,-173.3114 423,-173.3114 423,-154.3114 277,-154.3114"/>
<text text-anchor="middle" x="350" y="-161.3114" font-family="Helvetica,sans-Serif" font-size="10.00" fill="#000000">JS_NewGlobalCConstructor2</text>
</a>
</g>
</g>
<!-- Node368058&#45;&gt;Node368061 -->
<g id="edge9" class="edge">
<title>Node368058&#45;&gt;Node368061</title>
<path fill="none" stroke="#191970" d="M251.5682,-163.8114C259.8124,-163.8114 268.3451,-163.8114 276.7827,-163.8114"/>
<polygon fill="#191970" stroke="#191970" points="251.3086,-160.3115 241.3086,-163.8114 251.3086,-167.3115 251.3086,-160.3115"/>
</g>
<!-- Node368066 -->
<g id="node12" class="node">
<title>Node368066</title>
<g id="a_node12"><a xlink:href="quickjs_8c.html#a177d09828596bfe6df4bd90b2e93989d" target="_top" xlink:title="JS_AddIntrinsicTypedArrays">
<polygon fill="none" stroke="#000000" points="656.5,-192.3114 656.5,-211.3114 797.5,-211.3114 797.5,-192.3114 656.5,-192.3114"/>
<text text-anchor="middle" x="727" y="-199.3114" font-family="Helvetica,sans-Serif" font-size="10.00" fill="#000000">JS_AddIntrinsicTypedArrays</text>
</a>
</g>
</g>
<!-- Node368058&#45;&gt;Node368066 -->
<g id="edge20" class="edge">
<title>Node368058&#45;&gt;Node368066</title>
<path fill="none" stroke="#191970" d="M219.5819,-177.7649C289.1902,-209.8418 472.6038,-282.8769 620,-239.8114 638.2247,-234.4866 638.4273,-224.0012 656,-216.8114 661.1305,-214.7123 666.5948,-212.8916 672.1266,-211.3157"/>
<polygon fill="#191970" stroke="#191970" points="220.6958,-174.4217 210.1555,-173.3481 217.7257,-180.7604 220.6958,-174.4217"/>
</g>
<!-- Node368060 -->
<g id="node8" class="node">
<title>Node368060</title>
<g id="a_node8"><a xlink:href="quickjs-libc_8c.html#adcca2b4a661355e6ff87a0def2339894" target="_top" xlink:title="js_init_module_os">
<polygon fill="none" stroke="#ff0000" points="492,-21.3114 492,-40.3114 587,-40.3114 587,-21.3114 492,-21.3114"/>
<text text-anchor="middle" x="539.5" y="-28.3114" font-family="Helvetica,sans-Serif" font-size="10.00" fill="#000000">js_init_module_os</text>
</a>
</g>
</g>
<!-- Node368059&#45;&gt;Node368060 -->
<g id="edge8" class="edge">
<title>Node368059&#45;&gt;Node368060</title>
<path fill="none" stroke="#191970" d="M389.2277,-60.9452C419.025,-54.97 460.142,-46.7249 491.835,-40.3696"/>
<polygon fill="#191970" stroke="#191970" points="388.3107,-57.5593 379.1941,-62.9572 389.6871,-64.4227 388.3107,-57.5593"/>
</g>
<!-- Node368061&#45;&gt;Node368052 -->
<g id="edge18" class="edge">
<title>Node368061&#45;&gt;Node368052</title>
<path fill="none" stroke="#191970" d="M407.5159,-152.2167C482.0781,-137.1856 610.7152,-111.2534 679.8282,-97.3208"/>
<polygon fill="#191970" stroke="#191970" points="406.4767,-148.8557 397.3656,-154.2629 407.8601,-155.7177 406.4767,-148.8557"/>
</g>
<!-- Node368061&#45;&gt;Node368057 -->
<g id="edge17" class="edge">
<title>Node368061&#45;&gt;Node368057</title>
<path fill="none" stroke="#191970" d="M372.2951,-179.4591C411.8801,-207.2418 493.3173,-264.3982 525.7405,-287.1543"/>
<polygon fill="#191970" stroke="#191970" points="373.8243,-176.2564 363.6284,-173.3764 369.8029,-181.9861 373.8243,-176.2564"/>
</g>
<!-- Node368062 -->
<g id="node10" class="node">
<title>Node368062</title>
<g id="a_node10"><a xlink:href="quickjs_8c.html#a293feb2179c9a722b2bd410bc2c5c173" target="_top" xlink:title="JS_NewGlobalCConstructor">
<polygon fill="none" stroke="#ff0000" points="469.5,-59.3114 469.5,-78.3114 609.5,-78.3114 609.5,-59.3114 469.5,-59.3114"/>
<text text-anchor="middle" x="539.5" y="-66.3114" font-family="Helvetica,sans-Serif" font-size="10.00" fill="#000000">JS_NewGlobalCConstructor</text>
</a>
</g>
</g>
<!-- Node368061&#45;&gt;Node368062 -->
<g id="edge10" class="edge">
<title>Node368061&#45;&gt;Node368062</title>
<path fill="none" stroke="#191970" d="M370.2589,-148.0462C391.3984,-132.2302 426.0035,-108.0861 459,-92.8114 471.705,-86.9301 486.2015,-82.0847 499.3594,-78.3254"/>
<polygon fill="#191970" stroke="#191970" points="367.9163,-145.4303 362.0675,-154.2645 372.1487,-151.0058 367.9163,-145.4303"/>
</g>
<!-- Node368065 -->
<g id="node11" class="node">
<title>Node368065</title>
<g id="a_node11"><a xlink:href="quickjs_8c.html#abc33a664e231090ec89f9d9975e21229" target="_top" xlink:title="JS_NewGlobalCConstructorOnly">
<polygon fill="none" stroke="#000000" points="459,-211.3114 459,-230.3114 620,-230.3114 620,-211.3114 459,-211.3114"/>
<text text-anchor="middle" x="539.5" y="-218.3114" font-family="Helvetica,sans-Serif" font-size="10.00" fill="#000000">JS_NewGlobalCConstructorOnly</text>
</a>
</g>
</g>
<!-- Node368061&#45;&gt;Node368065 -->
<g id="edge12" class="edge">
<title>Node368061&#45;&gt;Node368065</title>
<path fill="none" stroke="#191970" d="M391.088,-176.2957C411.501,-182.4867 436.5434,-190.0645 459,-196.8114 474.9222,-201.5951 492.6271,-206.8776 507.3696,-211.266"/>
<polygon fill="#191970" stroke="#191970" points="392.0559,-172.9319 381.4705,-173.3776 390.0235,-179.6304 392.0559,-172.9319"/>
</g>
<!-- Node368061&#45;&gt;Node368066 -->
<g id="edge19" class="edge">
<title>Node368061&#45;&gt;Node368066</title>
<path fill="none" stroke="#191970" d="M433.2219,-172.1998C500.0954,-178.9404 592.9923,-188.304 656.3014,-194.6853"/>
<polygon fill="#191970" stroke="#191970" points="433.437,-168.7039 423.1364,-171.1833 432.735,-175.6686 433.437,-168.7039"/>
</g>
<!-- Node368067 -->
<g id="node13" class="node">
<title>Node368067</title>
<g id="a_node13"><a xlink:href="quickjs_8c.html#a4497f8c7cf2ec38da989910ae8b1f042" target="_top" xlink:title="JS_AddIntrinsicMapSet">
<polygon fill="none" stroke="#000000" points="667.5,-154.3114 667.5,-173.3114 786.5,-173.3114 786.5,-154.3114 667.5,-154.3114"/>
<text text-anchor="middle" x="727" y="-161.3114" font-family="Helvetica,sans-Serif" font-size="10.00" fill="#000000">JS_AddIntrinsicMapSet</text>
</a>
</g>
</g>
<!-- Node368061&#45;&gt;Node368067 -->
<g id="edge15" class="edge">
<title>Node368061&#45;&gt;Node368067</title>
<path fill="none" stroke="#191970" d="M433.3759,-163.8114C504.2642,-163.8114 604.3117,-163.8114 667.3961,-163.8114"/>
<polygon fill="#191970" stroke="#191970" points="433.1364,-160.3115 423.1364,-163.8114 433.1364,-167.3115 433.1364,-160.3115"/>
</g>
<!-- Node368062&#45;&gt;Node368052 -->
<g id="edge11" class="edge">
<title>Node368062&#45;&gt;Node368052</title>
<path fill="none" stroke="#191970" d="M619.5903,-76.9272C631.6085,-78.1451 643.9329,-79.3939 655.7503,-80.5914"/>
<polygon fill="#191970" stroke="#191970" points="619.8867,-73.4394 609.5847,-75.9133 619.1809,-80.4038 619.8867,-73.4394"/>
</g>
<!-- Node368065&#45;&gt;Node368066 -->
<g id="edge13" class="edge">
<title>Node368065&#45;&gt;Node368066</title>
<path fill="none" stroke="#191970" d="M630.0883,-211.6318C638.96,-210.7328 647.8694,-209.83 656.4983,-208.9556"/>
<polygon fill="#191970" stroke="#191970" points="629.7012,-208.153 620.105,-212.6434 630.407,-215.1173 629.7012,-208.153"/>
</g>
<!-- Node368066&#45;&gt;Node368053 -->
<g id="edge14" class="edge">
<title>Node368066&#45;&gt;Node368053</title>
<path fill="none" stroke="#191970" d="M807.864,-191.6701C816.703,-190.5615 825.4487,-189.4647 833.6168,-188.4403"/>
<polygon fill="#191970" stroke="#191970" points="807.3574,-188.2061 797.8707,-192.9233 808.2285,-195.1517 807.3574,-188.2061"/>
</g>
<!-- Node368067&#45;&gt;Node368053 -->
<g id="edge16" class="edge">
<title>Node368067&#45;&gt;Node368053</title>
<path fill="none" stroke="#191970" d="M796.8152,-172.5671C809.2978,-174.1326 821.9967,-175.7252 833.5448,-177.1735"/>
<polygon fill="#191970" stroke="#191970" points="797.2346,-169.0924 786.8768,-171.3207 796.3635,-176.038 797.2346,-169.0924"/>
</g>
</g>
</svg>
        <g id="navigator" transform="translate(0 0)" fill="#404254">
                <rect fill="#f2f5e9" fill-opacity="0.5" stroke="#606060" stroke-width=".5" x="0" y="0" width="60" height="60"/>
                <use id="zoomplus" xlink:href="#zoomPlus" x="17" y="9" onmousedown="handleZoom(evt,'in')"/>
                <use id="zoomminus" xlink:href="#zoomMin" x="42" y="9" onmousedown="handleZoom(evt,'out')"/>
                <use id="reset" xlink:href="#resetDef" x="30" y="36" onmousedown="handleReset()"/>
                <g id="arrowUp" xlink:href="#dirArrow" transform="translate(30 24)" onmousedown="handlePan(0,-1)">
                  <use xlink:href="#rim" fill="#404040">
                        <set attributeName="fill" to="#808080" begin="arrowUp.mouseover" end="arrowUp.mouseout"/>
                  </use>
                  <path fill="none" stroke="white" stroke-width="1.5" d="M0,-3.0v7 M-2.5,-0.5L0,-3.0L2.5,-0.5"/>
                </g>
                <g id="arrowRight" xlink:href="#dirArrow" transform="rotate(90) translate(36 -43)" onmousedown="handlePan(1,0)">
                  <use xlink:href="#rim" fill="#404040">
                        <set attributeName="fill" to="#808080" begin="arrowRight.mouseover" end="arrowRight.mouseout"/>
                  </use>
                  <path fill="none" stroke="white" stroke-width="1.5" d="M0,-3.0v7 M-2.5,-0.5L0,-3.0L2.5,-0.5"/>
                </g>
                <g id="arrowDown" xlink:href="#dirArrow" transform="rotate(180) translate(-30 -48)" onmousedown="handlePan(0,1)">
                  <use xlink:href="#rim" fill="#404040">
                        <set attributeName="fill" to="#808080" begin="arrowDown.mouseover" end="arrowDown.mouseout"/>
                  </use>
                  <path fill="none" stroke="white" stroke-width="1.5" d="M0,-3.0v7 M-2.5,-0.5L0,-3.0L2.5,-0.5"/>
                </g>
                <g id="arrowLeft" xlink:href="#dirArrow" transform="rotate(270) translate(-36 17)" onmousedown="handlePan(-1,0)">
                  <use xlink:href="#rim" fill="#404040">
                        <set attributeName="fill" to="#808080" begin="arrowLeft.mouseover" end="arrowLeft.mouseout"/>
                  </use>
                  <path fill="none" stroke="white" stroke-width="1.5" d="M0,-3.0v7 M-2.5,-0.5L0,-3.0L2.5,-0.5"/>
                </g>
        </g>
        <svg viewBox="0 0 15 15" width="100%" height="30px" preserveAspectRatio="xMaxYMin meet">
         <g id="arrow_out" transform="scale(0.3 0.3)">
          <a xlink:href="quickjs_8c_a945738a975fc3235a1d7858d48d9b274_icgraph_org.svg" target="_base">
           <rect id="button" ry="5" rx="5" y="6" x="6" height="38" width="38"
                fill="#f2f5e9" fill-opacity="0.5" stroke="#606060" stroke-width="1.0"/>
           <path id="arrow"
             d="M 11.500037,31.436501 C 11.940474,20.09759 22.043105,11.32322 32.158766,21.979434 L 37.068811,17.246167 C 37.068811,17.246167 37.088388,32 37.088388,32 L 22.160133,31.978069 C 22.160133,31.978069 26.997745,27.140456 26.997745,27.140456 C 18.528582,18.264221 13.291696,25.230495 11.500037,31.436501 z"
             style="fill:#404040;"/>
          </a>
         </g>
        </svg>
</svg>
