<?xml version="1.0" encoding="UTF-8" standalone="no"?>
<!DOCTYPE svg PUBLIC "-//W3C//DTD SVG 1.1//EN"
 "http://www.w3.org/Graphics/SVG/1.1/DTD/svg11.dtd">
<!-- Generated by graphviz version 2.40.1 (20161225.0304)
 -->
<!-- Title: init_class_range Pages: 1 -->
<svg width="531pt" height="132pt"
 viewBox="0.00 0.00 531.00 132.00" xmlns="http://www.w3.org/2000/svg" xmlns:xlink="http://www.w3.org/1999/xlink">
<g id="graph0" class="graph" transform="scale(1 1) rotate(0) translate(4 128)">
<title>init_class_range</title>
<!-- Node60041 -->
<g id="node1" class="node">
<title>Node60041</title>
<polygon fill="#bfbfbf" stroke="#000000" points="0,-66.5 0,-85.5 87,-85.5 87,-66.5 0,-66.5"/>
<text text-anchor="middle" x="43.5" y="-73.5" font-family="Helvetica,sans-Serif" font-size="10.00" fill="#000000">init_class_range</text>
</g>
<!-- Node60042 -->
<g id="node2" class="node">
<title>Node60042</title>
<g id="a_node2"><a xlink:href="quickjs_8c.html#a2e66fcf1bc1d19f346317f10ee590621" target="_top" xlink:title="JS_AddIntrinsicPromise">
<polygon fill="none" stroke="#000000" points="123,-104.5 123,-123.5 245,-123.5 245,-104.5 123,-104.5"/>
<text text-anchor="middle" x="184" y="-111.5" font-family="Helvetica,sans-Serif" font-size="10.00" fill="#000000">JS_AddIntrinsicPromise</text>
</a>
</g>
</g>
<!-- Node60041&#45;&gt;Node60042 -->
<g id="edge1" class="edge">
<title>Node60041&#45;&gt;Node60042</title>
<path fill="none" stroke="#191970" d="M88.7787,-88.2462C108.1449,-93.484 130.4218,-99.5091 148.5573,-104.4141"/>
<polygon fill="#191970" stroke="#191970" points="89.5211,-84.8213 78.9541,-85.589 87.6934,-91.5785 89.5211,-84.8213"/>
</g>
<!-- Node60047 -->
<g id="node5" class="node">
<title>Node60047</title>
<g id="a_node5"><a xlink:href="quickjs_8c.html#a3afdbdd7b58ef7e1dcc178c362071b3d" target="_top" xlink:title="JS_AddIntrinsicProxy">
<polygon fill="none" stroke="#000000" points="128.5,-66.5 128.5,-85.5 239.5,-85.5 239.5,-66.5 128.5,-66.5"/>
<text text-anchor="middle" x="184" y="-73.5" font-family="Helvetica,sans-Serif" font-size="10.00" fill="#000000">JS_AddIntrinsicProxy</text>
</a>
</g>
</g>
<!-- Node60041&#45;&gt;Node60047 -->
<g id="edge4" class="edge">
<title>Node60041&#45;&gt;Node60047</title>
<path fill="none" stroke="#191970" d="M97.2067,-76C107.4282,-76 118.1451,-76 128.4234,-76"/>
<polygon fill="#191970" stroke="#191970" points="97.1849,-72.5001 87.1849,-76 97.1849,-79.5001 97.1849,-72.5001"/>
</g>
<!-- Node60048 -->
<g id="node6" class="node">
<title>Node60048</title>
<g id="a_node6"><a xlink:href="quickjs_8c.html#a27966451027feb455b5da12c1578771c" target="_top" xlink:title="JS_NewRuntime2">
<polygon fill="none" stroke="#000000" points="136,-28.5 136,-47.5 232,-47.5 232,-28.5 136,-28.5"/>
<text text-anchor="middle" x="184" y="-35.5" font-family="Helvetica,sans-Serif" font-size="10.00" fill="#000000">JS_NewRuntime2</text>
</a>
</g>
</g>
<!-- Node60041&#45;&gt;Node60048 -->
<g id="edge6" class="edge">
<title>Node60041&#45;&gt;Node60048</title>
<path fill="none" stroke="#191970" d="M88.7787,-63.7538C108.1449,-58.516 130.4218,-52.4909 148.5573,-47.5859"/>
<polygon fill="#191970" stroke="#191970" points="87.6934,-60.4215 78.9541,-66.411 89.5211,-67.1787 87.6934,-60.4215"/>
</g>
<!-- Node60043 -->
<g id="node3" class="node">
<title>Node60043</title>
<g id="a_node3"><a xlink:href="quickjs_8c.html#ad8aedb643b8753b7a15f6cb2df61945e" target="_top" xlink:title="JS_NewContext">
<polygon fill="none" stroke="#000000" points="282,-85.5 282,-104.5 371,-104.5 371,-85.5 282,-85.5"/>
<text text-anchor="middle" x="326.5" y="-92.5" font-family="Helvetica,sans-Serif" font-size="10.00" fill="#000000">JS_NewContext</text>
</a>
</g>
</g>
<!-- Node60042&#45;&gt;Node60043 -->
<g id="edge2" class="edge">
<title>Node60042&#45;&gt;Node60043</title>
<path fill="none" stroke="#191970" d="M255.3439,-104.4875C264.3015,-103.2931 273.2571,-102.0991 281.6444,-100.9808"/>
<polygon fill="#191970" stroke="#191970" points="254.7095,-101.041 245.2598,-105.832 255.6347,-107.9796 254.7095,-101.041"/>
</g>
<!-- Node60044 -->
<g id="node4" class="node">
<title>Node60044</title>
<g id="a_node4"><a xlink:href="classqjs_1_1Context.html#a4392a23648acfc4bf6b445336efb5007" target="_top" xlink:title="qjs::Context::Context">
<polygon fill="none" stroke="#ff0000" points="410.5,-85.5 410.5,-104.5 520.5,-104.5 520.5,-85.5 410.5,-85.5"/>
<text text-anchor="middle" x="465.5" y="-92.5" font-family="Helvetica,sans-Serif" font-size="10.00" fill="#000000">qjs::Context::Context</text>
</a>
</g>
</g>
<!-- Node60043&#45;&gt;Node60044 -->
<g id="edge3" class="edge">
<title>Node60043&#45;&gt;Node60044</title>
<path fill="none" stroke="#191970" d="M381.3313,-95C390.7961,-95 400.6412,-95 410.1204,-95"/>
<polygon fill="#191970" stroke="#191970" points="381.2456,-91.5001 371.2456,-95 381.2456,-98.5001 381.2456,-91.5001"/>
</g>
<!-- Node60047&#45;&gt;Node60043 -->
<g id="edge5" class="edge">
<title>Node60047&#45;&gt;Node60043</title>
<path fill="none" stroke="#191970" d="M249.5047,-84.734C260.4852,-86.198 271.6488,-87.6865 281.9434,-89.0591"/>
<polygon fill="#191970" stroke="#191970" points="249.8771,-81.2527 239.5023,-83.4003 248.9519,-88.1913 249.8771,-81.2527"/>
</g>
<!-- Node60049 -->
<g id="node7" class="node">
<title>Node60049</title>
<g id="a_node7"><a xlink:href="quickjs_8c.html#afc1ca27a266094085ebb43e2eea0dda2" target="_top" xlink:title="JS_NewRuntime">
<polygon fill="none" stroke="#000000" points="281,-28.5 281,-47.5 372,-47.5 372,-28.5 281,-28.5"/>
<text text-anchor="middle" x="326.5" y="-35.5" font-family="Helvetica,sans-Serif" font-size="10.00" fill="#000000">JS_NewRuntime</text>
</a>
</g>
</g>
<!-- Node60048&#45;&gt;Node60049 -->
<g id="edge7" class="edge">
<title>Node60048&#45;&gt;Node60049</title>
<path fill="none" stroke="#191970" d="M242.3454,-38C255.1354,-38 268.4993,-38 280.7137,-38"/>
<polygon fill="#191970" stroke="#191970" points="242.244,-34.5001 232.244,-38 242.244,-41.5001 242.244,-34.5001"/>
</g>
<!-- Node60050 -->
<g id="node8" class="node">
<title>Node60050</title>
<g id="a_node8"><a xlink:href="classqjs_1_1Runtime.html#a0860a1339ff567f9f603c7bed4d670f9" target="_top" xlink:title="qjs::Runtime::Runtime">
<polygon fill="none" stroke="#000000" points="408,-38.5 408,-57.5 523,-57.5 523,-38.5 408,-38.5"/>
<text text-anchor="middle" x="465.5" y="-45.5" font-family="Helvetica,sans-Serif" font-size="10.00" fill="#000000">qjs::Runtime::Runtime</text>
</a>
</g>
</g>
<!-- Node60049&#45;&gt;Node60050 -->
<g id="edge8" class="edge">
<title>Node60049&#45;&gt;Node60050</title>
<path fill="none" stroke="#191970" d="M382.1119,-42.0009C390.5346,-42.6068 399.2411,-43.2332 407.7088,-43.8424"/>
<polygon fill="#191970" stroke="#191970" points="382.2392,-38.5011 372.0138,-41.2744 381.7368,-45.483 382.2392,-38.5011"/>
</g>
<!-- Node60051 -->
<g id="node9" class="node">
<title>Node60051</title>
<g id="a_node9"><a xlink:href="quickjs-libc_8c.html#a1fbb3adc15e7b967479fc1940e99b67a" target="_top" xlink:title="worker_func">
<polygon fill="none" stroke="#ff0000" points="430.5,-.5 430.5,-19.5 500.5,-19.5 500.5,-.5 430.5,-.5"/>
<text text-anchor="middle" x="465.5" y="-7.5" font-family="Helvetica,sans-Serif" font-size="10.00" fill="#000000">worker_func</text>
</a>
</g>
</g>
<!-- Node60049&#45;&gt;Node60051 -->
<g id="edge9" class="edge">
<title>Node60049&#45;&gt;Node60051</title>
<path fill="none" stroke="#191970" d="M382.0193,-26.8162C398.3672,-23.5232 415.7915,-20.0132 430.4693,-17.0565"/>
<polygon fill="#191970" stroke="#191970" points="381.1257,-23.4259 372.0138,-28.8318 382.5081,-30.288 381.1257,-23.4259"/>
</g>
</g>
</svg>
