<?xml version="1.0" encoding="UTF-8" standalone="no"?>
<!DOCTYPE svg PUBLIC "-//W3C//DTD SVG 1.1//EN"
 "http://www.w3.org/Graphics/SVG/1.1/DTD/svg11.dtd">
<!-- Generated by graphviz version 2.40.1 (20161225.0304)
 -->
<!-- Title: JS_SetConstructor Pages: 1 -->
<!--zoomable 260 -->
<svg id="main" version="1.1" xmlns="http://www.w3.org/2000/svg" xmlns:xlink="http://www.w3.org/1999/xlink" xml:space="preserve" onload="init(evt)">
<style type="text/css"><![CDATA[
.edge:hover path { stroke: red; }
.edge:hover polygon { stroke: red; fill: red; }
]]></style>
<script type="text/javascript"><![CDATA[
var edges = document.getElementsByTagName('g');
if (edges && edges.length) {
  for (var i=0;i<edges.length;i++) {
    if (edges[i].id.substr(0,4)=='edge') {
      edges[i].setAttribute('class','edge');
    }
  }
}
]]></script>
        <defs>
                <circle id="rim" cx="0" cy="0" r="7"/>
                <circle id="rim2" cx="0" cy="0" r="3.5"/>
                <g id="zoomPlus">
                        <use xlink:href="#rim" fill="#404040">
                                <set attributeName="fill" to="#808080" begin="zoomplus.mouseover" end="zoomplus.mouseout"/>
                        </use>
                        <path d="M-4,0h8M0,-4v8" fill="none" stroke="white" stroke-width="1.5" pointer-events="none"/>
                </g>
                <g id="zoomMin">
                        <use xlink:href="#rim" fill="#404040">
                                <set attributeName="fill" to="#808080" begin="zoomminus.mouseover" end="zoomminus.mouseout"/>
                        </use>
                        <path d="M-4,0h8" fill="none" stroke="white" stroke-width="1.5" pointer-events="none"/>
                </g>
                <g id="dirArrow">
                        <path fill="none" stroke="white" stroke-width="1.5" d="M0,-3.0v7 M-2.5,-0.5L0,-3.0L2.5,-0.5"/>
                </g>
               <g id="resetDef">
                       <use xlink:href="#rim2" fill="#404040">
                               <set attributeName="fill" to="#808080" begin="reset.mouseover" end="reset.mouseout"/>
                       </use>
               </g>
        </defs>

<script type="text/javascript">
var viewWidth = 936;
var viewHeight = 260;
var sectionId = 'dynsection-1380';
</script>
<script xlink:href="svgpan.js"/>
<svg id="graph" class="graph">
<g id="viewport">
<title>JS_SetConstructor</title>
<!-- Node368501 -->
<g id="node1" class="node">
<title>Node368501</title>
<polygon fill="#bfbfbf" stroke="#000000" points="0,-133.5 0,-152.5 100,-152.5 100,-133.5 0,-133.5"/>
<text text-anchor="middle" x="50" y="-140.5" font-family="Helvetica,sans-Serif" font-size="10.00" fill="#000000">JS_SetConstructor</text>
</g>
<!-- Node368502 -->
<g id="node2" class="node">
<title>Node368502</title>
<g id="a_node2"><a xlink:href="quickjs_8c.html#a177d09828596bfe6df4bd90b2e93989d" target="_top" xlink:title="JS_AddIntrinsicTypedArrays">
<polygon fill="none" stroke="#000000" points="515.5,-228.5 515.5,-247.5 656.5,-247.5 656.5,-228.5 515.5,-228.5"/>
<text text-anchor="middle" x="586" y="-235.5" font-family="Helvetica,sans-Serif" font-size="10.00" fill="#000000">JS_AddIntrinsicTypedArrays</text>
</a>
</g>
</g>
<!-- Node368501&#45;&gt;Node368502 -->
<g id="edge1" class="edge">
<title>Node368501&#45;&gt;Node368502</title>
<path fill="none" stroke="#191970" d="M77.1638,-157.1675C124.5156,-180.9769 225.9276,-228.0711 318,-245 388.3759,-257.9397 407.4826,-247.3369 479,-245 490.7219,-244.617 503.1546,-243.9985 515.2383,-243.2838"/>
<polygon fill="#191970" stroke="#191970" points="78.6681,-154.006 68.1676,-152.5956 75.4967,-160.2464 78.6681,-154.006"/>
</g>
<!-- Node368507 -->
<g id="node5" class="node">
<title>Node368507</title>
<g id="a_node5"><a xlink:href="quickjs_8c.html#acd5457d29e9641ae5e3a1d778f94bd0e" target="_top" xlink:title="JS_NewGlobalCConstructor2">
<polygon fill="none" stroke="#000000" points="136,-133.5 136,-152.5 282,-152.5 282,-133.5 136,-133.5"/>
<text text-anchor="middle" x="209" y="-140.5" font-family="Helvetica,sans-Serif" font-size="10.00" fill="#000000">JS_NewGlobalCConstructor2</text>
</a>
</g>
</g>
<!-- Node368501&#45;&gt;Node368507 -->
<g id="edge4" class="edge">
<title>Node368501&#45;&gt;Node368507</title>
<path fill="none" stroke="#191970" d="M110.5682,-143C118.8124,-143 127.3451,-143 135.7827,-143"/>
<polygon fill="#191970" stroke="#191970" points="110.3086,-139.5001 100.3086,-143 110.3086,-146.5001 110.3086,-139.5001"/>
</g>
<!-- Node368515 -->
<g id="node13" class="node">
<title>Node368515</title>
<g id="a_node13"><a xlink:href="quickjs-libc_8c.html#a066e7962ce24f22d5df20968a8baa346" target="_top" xlink:title="js_os_init">
<polygon fill="none" stroke="#000000" points="180,-38.5 180,-57.5 238,-57.5 238,-38.5 180,-38.5"/>
<text text-anchor="middle" x="209" y="-45.5" font-family="Helvetica,sans-Serif" font-size="10.00" fill="#000000">js_os_init</text>
</a>
</g>
</g>
<!-- Node368501&#45;&gt;Node368515 -->
<g id="edge20" class="edge">
<title>Node368501&#45;&gt;Node368515</title>
<path fill="none" stroke="#191970" d="M74.714,-128.2338C107.6333,-108.565 164.9507,-74.3188 192.8366,-57.6574"/>
<polygon fill="#191970" stroke="#191970" points="72.91,-125.2344 66.1208,-133.3681 76.5004,-131.2435 72.91,-125.2344"/>
</g>
<!-- Node368503 -->
<g id="node3" class="node">
<title>Node368503</title>
<g id="a_node3"><a xlink:href="quickjs_8c.html#ad8aedb643b8753b7a15f6cb2df61945e" target="_top" xlink:title="JS_NewContext">
<polygon fill="none" stroke="#000000" points="693,-133.5 693,-152.5 782,-152.5 782,-133.5 693,-133.5"/>
<text text-anchor="middle" x="737.5" y="-140.5" font-family="Helvetica,sans-Serif" font-size="10.00" fill="#000000">JS_NewContext</text>
</a>
</g>
</g>
<!-- Node368502&#45;&gt;Node368503 -->
<g id="edge2" class="edge">
<title>Node368502&#45;&gt;Node368503</title>
<path fill="none" stroke="#191970" d="M644.353,-224.9588C648.739,-223.2064 653.0062,-221.229 657,-219 688.5521,-201.3898 717.1762,-168.6573 730.1566,-152.5106"/>
<polygon fill="#191970" stroke="#191970" points="642.855,-221.7776 634.6221,-228.4462 645.2167,-228.3672 642.855,-221.7776"/>
</g>
<!-- Node368504 -->
<g id="node4" class="node">
<title>Node368504</title>
<g id="a_node4"><a xlink:href="classqjs_1_1Context.html#a4392a23648acfc4bf6b445336efb5007" target="_top" xlink:title="qjs::Context::Context">
<polygon fill="none" stroke="#ff0000" points="818,-133.5 818,-152.5 928,-152.5 928,-133.5 818,-133.5"/>
<text text-anchor="middle" x="873" y="-140.5" font-family="Helvetica,sans-Serif" font-size="10.00" fill="#000000">qjs::Context::Context</text>
</a>
</g>
</g>
<!-- Node368503&#45;&gt;Node368504 -->
<g id="edge3" class="edge">
<title>Node368503&#45;&gt;Node368504</title>
<path fill="none" stroke="#191970" d="M792.3476,-143C800.7739,-143 809.4767,-143 817.9083,-143"/>
<polygon fill="#191970" stroke="#191970" points="792.2433,-139.5001 782.2433,-143 792.2433,-146.5001 792.2433,-139.5001"/>
</g>
<!-- Node368507&#45;&gt;Node368502 -->
<g id="edge19" class="edge">
<title>Node368507&#45;&gt;Node368502</title>
<path fill="none" stroke="#191970" d="M226.195,-159.5165C246.3625,-177.7318 281.679,-206.159 318,-219 382.0966,-241.6608 460.0786,-244.6771 515.3587,-243.0722"/>
<polygon fill="#191970" stroke="#191970" points="228.476,-156.8587 218.7588,-152.6366 223.7222,-161.9969 228.476,-156.8587"/>
</g>
<!-- Node368508 -->
<g id="node6" class="node">
<title>Node368508</title>
<g id="a_node6"><a xlink:href="quickjs_8c.html#a293feb2179c9a722b2bd410bc2c5c173" target="_top" xlink:title="JS_NewGlobalCConstructor">
<polygon fill="none" stroke="#000000" points="328.5,-152.5 328.5,-171.5 468.5,-171.5 468.5,-152.5 328.5,-152.5"/>
<text text-anchor="middle" x="398.5" y="-159.5" font-family="Helvetica,sans-Serif" font-size="10.00" fill="#000000">JS_NewGlobalCConstructor</text>
</a>
</g>
</g>
<!-- Node368507&#45;&gt;Node368508 -->
<g id="edge5" class="edge">
<title>Node368507&#45;&gt;Node368508</title>
<path fill="none" stroke="#191970" d="M292.2694,-151.3489C304.2689,-152.552 316.5177,-153.7801 328.2307,-154.9545"/>
<polygon fill="#191970" stroke="#191970" points="292.565,-147.8611 282.2656,-150.3459 291.8666,-154.8262 292.565,-147.8611"/>
</g>
<!-- Node368511 -->
<g id="node9" class="node">
<title>Node368511</title>
<g id="a_node9"><a xlink:href="quickjs_8c.html#a4c9489297c684663f30e517204a9ec14" target="_top" xlink:title="JS_AddIntrinsicBaseObjects">
<polygon fill="none" stroke="#000000" points="515,-114.5 515,-133.5 657,-133.5 657,-114.5 515,-114.5"/>
<text text-anchor="middle" x="586" y="-121.5" font-family="Helvetica,sans-Serif" font-size="10.00" fill="#000000">JS_AddIntrinsicBaseObjects</text>
</a>
</g>
</g>
<!-- Node368507&#45;&gt;Node368511 -->
<g id="edge18" class="edge">
<title>Node368507&#45;&gt;Node368511</title>
<path fill="none" stroke="#191970" d="M292.2056,-138.8066C358.9685,-135.4419 451.6766,-130.7696 514.9837,-127.5791"/>
<polygon fill="#191970" stroke="#191970" points="291.9475,-135.3151 282.1364,-139.3141 292.2999,-142.3062 291.9475,-135.3151"/>
</g>
<!-- Node368512 -->
<g id="node10" class="node">
<title>Node368512</title>
<g id="a_node10"><a xlink:href="quickjs_8c.html#abc33a664e231090ec89f9d9975e21229" target="_top" xlink:title="JS_NewGlobalCConstructorOnly">
<polygon fill="none" stroke="#000000" points="318,-190.5 318,-209.5 479,-209.5 479,-190.5 318,-190.5"/>
<text text-anchor="middle" x="398.5" y="-197.5" font-family="Helvetica,sans-Serif" font-size="10.00" fill="#000000">JS_NewGlobalCConstructorOnly</text>
</a>
</g>
</g>
<!-- Node368507&#45;&gt;Node368512 -->
<g id="edge12" class="edge">
<title>Node368507&#45;&gt;Node368512</title>
<path fill="none" stroke="#191970" d="M243.8714,-156.1928C265.119,-163.9714 292.9196,-173.6897 318,-181 329.7181,-184.4155 342.5294,-187.6576 354.416,-190.4648"/>
<polygon fill="#191970" stroke="#191970" points="244.8996,-152.8416 234.3064,-152.6604 242.4745,-159.4081 244.8996,-152.8416"/>
</g>
<!-- Node368513 -->
<g id="node11" class="node">
<title>Node368513</title>
<g id="a_node11"><a xlink:href="quickjs_8c.html#a4497f8c7cf2ec38da989910ae8b1f042" target="_top" xlink:title="JS_AddIntrinsicMapSet">
<polygon fill="none" stroke="#000000" points="339,-76.5 339,-95.5 458,-95.5 458,-76.5 339,-76.5"/>
<text text-anchor="middle" x="398.5" y="-83.5" font-family="Helvetica,sans-Serif" font-size="10.00" fill="#000000">JS_AddIntrinsicMapSet</text>
</a>
</g>
</g>
<!-- Node368507&#45;&gt;Node368513 -->
<g id="edge14" class="edge">
<title>Node368507&#45;&gt;Node368513</title>
<path fill="none" stroke="#191970" d="M250.088,-130.5157C270.501,-124.3247 295.5434,-116.7469 318,-110 333.9222,-105.2163 351.6271,-99.9338 366.3696,-95.5454"/>
<polygon fill="#191970" stroke="#191970" points="249.0235,-127.181 240.4705,-133.4338 251.0559,-133.8795 249.0235,-127.181"/>
</g>
<!-- Node368514 -->
<g id="node12" class="node">
<title>Node368514</title>
<g id="a_node12"><a xlink:href="quickjs_8c.html#a2e66fcf1bc1d19f346317f10ee590621" target="_top" xlink:title="JS_AddIntrinsicPromise">
<polygon fill="none" stroke="#000000" points="337.5,-38.5 337.5,-57.5 459.5,-57.5 459.5,-38.5 337.5,-38.5"/>
<text text-anchor="middle" x="398.5" y="-45.5" font-family="Helvetica,sans-Serif" font-size="10.00" fill="#000000">JS_AddIntrinsicPromise</text>
</a>
</g>
</g>
<!-- Node368507&#45;&gt;Node368514 -->
<g id="edge16" class="edge">
<title>Node368507&#45;&gt;Node368514</title>
<path fill="none" stroke="#191970" d="M227.5968,-126.7026C248.2885,-109.4033 283.3846,-82.472 318,-67 326.5213,-63.1912 335.9051,-60.0917 345.1641,-57.5868"/>
<polygon fill="#191970" stroke="#191970" points="225.251,-124.103 219.9035,-133.2493 229.7876,-129.4341 225.251,-124.103"/>
</g>
<!-- Node368509 -->
<g id="node7" class="node">
<title>Node368509</title>
<g id="a_node7"><a xlink:href="quickjs_8c.html#aafc8241682ce24b6d72e0f237ee85a51" target="_top" xlink:title="JS_AddIntrinsicRegExp">
<polygon fill="none" stroke="#000000" points="525.5,-190.5 525.5,-209.5 646.5,-209.5 646.5,-190.5 525.5,-190.5"/>
<text text-anchor="middle" x="586" y="-197.5" font-family="Helvetica,sans-Serif" font-size="10.00" fill="#000000">JS_AddIntrinsicRegExp</text>
</a>
</g>
</g>
<!-- Node368508&#45;&gt;Node368509 -->
<g id="edge6" class="edge">
<title>Node368508&#45;&gt;Node368509</title>
<path fill="none" stroke="#191970" d="M455.7838,-173.6095C482.4506,-179.014 513.7805,-185.3635 539.0261,-190.4799"/>
<polygon fill="#191970" stroke="#191970" points="456.3101,-170.1451 445.8142,-171.589 454.9197,-177.0056 456.3101,-170.1451"/>
</g>
<!-- Node368510 -->
<g id="node8" class="node">
<title>Node368510</title>
<g id="a_node8"><a xlink:href="quickjs_8c.html#a8ecbf5799518b7bfc3fefd47c7a0dd4e" target="_top" xlink:title="JS_AddIntrinsicDate">
<polygon fill="none" stroke="#000000" points="532.5,-152.5 532.5,-171.5 639.5,-171.5 639.5,-152.5 532.5,-152.5"/>
<text text-anchor="middle" x="586" y="-159.5" font-family="Helvetica,sans-Serif" font-size="10.00" fill="#000000">JS_AddIntrinsicDate</text>
</a>
</g>
</g>
<!-- Node368508&#45;&gt;Node368510 -->
<g id="edge8" class="edge">
<title>Node368508&#45;&gt;Node368510</title>
<path fill="none" stroke="#191970" d="M478.5903,-162C496.7619,-162 515.6332,-162 532.3941,-162"/>
<polygon fill="#191970" stroke="#191970" points="478.5848,-158.5001 468.5847,-162 478.5847,-165.5001 478.5848,-158.5001"/>
</g>
<!-- Node368508&#45;&gt;Node368511 -->
<g id="edge10" class="edge">
<title>Node368508&#45;&gt;Node368511</title>
<path fill="none" stroke="#191970" d="M455.7838,-150.3905C482.4506,-144.986 513.7805,-138.6365 539.0261,-133.5201"/>
<polygon fill="#191970" stroke="#191970" points="454.9197,-146.9944 445.8142,-152.411 456.3101,-153.8549 454.9197,-146.9944"/>
</g>
<!-- Node368509&#45;&gt;Node368503 -->
<g id="edge7" class="edge">
<title>Node368509&#45;&gt;Node368503</title>
<path fill="none" stroke="#191970" d="M636.6101,-187.6553C643.523,-185.6215 650.4797,-183.3894 657,-181 679.2017,-172.8641 703.6195,-160.8798 719.6741,-152.5532"/>
<polygon fill="#191970" stroke="#191970" points="635.2429,-184.4043 626.5691,-190.4883 637.1438,-191.1413 635.2429,-184.4043"/>
</g>
<!-- Node368510&#45;&gt;Node368503 -->
<g id="edge9" class="edge">
<title>Node368510&#45;&gt;Node368503</title>
<path fill="none" stroke="#191970" d="M650.1674,-153.9526C664.5307,-152.1513 679.463,-150.2786 692.8325,-148.6019"/>
<polygon fill="#191970" stroke="#191970" points="649.3265,-150.5306 639.8398,-155.2478 650.1976,-157.4761 649.3265,-150.5306"/>
</g>
<!-- Node368511&#45;&gt;Node368503 -->
<g id="edge11" class="edge">
<title>Node368511&#45;&gt;Node368503</title>
<path fill="none" stroke="#191970" d="M667.2695,-134.1922C676.0724,-135.2962 684.7754,-136.3877 692.8995,-137.4065"/>
<polygon fill="#191970" stroke="#191970" points="667.6716,-130.7153 657.3138,-132.9436 666.8005,-137.6609 667.6716,-130.7153"/>
</g>
<!-- Node368512&#45;&gt;Node368502 -->
<g id="edge13" class="edge">
<title>Node368512&#45;&gt;Node368502</title>
<path fill="none" stroke="#191970" d="M455.7838,-211.6095C482.4506,-217.014 513.7805,-223.3635 539.0261,-228.4799"/>
<polygon fill="#191970" stroke="#191970" points="456.3101,-208.1451 445.8142,-209.589 454.9197,-215.0056 456.3101,-208.1451"/>
</g>
<!-- Node368513&#45;&gt;Node368503 -->
<g id="edge15" class="edge">
<title>Node368513&#45;&gt;Node368503</title>
<path fill="none" stroke="#191970" d="M468.2756,-84.2666C520.9523,-84.5963 594.577,-88.5809 657,-105 680.7644,-111.2507 706.0625,-124.3957 721.8218,-133.4597"/>
<polygon fill="#191970" stroke="#191970" points="468.0359,-80.7662 458.0291,-84.2468 468.0223,-87.7662 468.0359,-80.7662"/>
</g>
<!-- Node368514&#45;&gt;Node368503 -->
<g id="edge17" class="edge">
<title>Node368514&#45;&gt;Node368503</title>
<path fill="none" stroke="#191970" d="M469.6202,-47.1604C523.0333,-48.8505 596.9917,-56.2186 657,-81 686.3485,-93.1199 714.2236,-118.8481 728.1879,-133.056"/>
<polygon fill="#191970" stroke="#191970" points="469.645,-43.66 459.5581,-46.9012 469.4647,-50.6576 469.645,-43.66"/>
</g>
<!-- Node368516 -->
<g id="node14" class="node">
<title>Node368516</title>
<g id="a_node14"><a xlink:href="quickjs-libc_8c.html#adcca2b4a661355e6ff87a0def2339894" target="_top" xlink:title="js_init_module_os">
<polygon fill="none" stroke="#000000" points="351,-.5 351,-19.5 446,-19.5 446,-.5 351,-.5"/>
<text text-anchor="middle" x="398.5" y="-7.5" font-family="Helvetica,sans-Serif" font-size="10.00" fill="#000000">js_init_module_os</text>
</a>
</g>
</g>
<!-- Node368515&#45;&gt;Node368516 -->
<g id="edge21" class="edge">
<title>Node368515&#45;&gt;Node368516</title>
<path fill="none" stroke="#191970" d="M248.2277,-40.1338C278.025,-34.1586 319.142,-25.9135 350.835,-19.5581"/>
<polygon fill="#191970" stroke="#191970" points="247.3107,-36.7479 238.1941,-42.1458 248.6871,-43.6112 247.3107,-36.7479"/>
</g>
<!-- Node368506 -->
<g id="node15" class="node">
<title>Node368506</title>
<g id="a_node15"><a xlink:href="qjs_8cpp.html#a3c04138a5bfe5d72780bb7e82a18e627" target="_top" xlink:title="main">
<polygon fill="none" stroke="#000000" points="567,-.5 567,-19.5 605,-19.5 605,-.5 567,-.5"/>
<text text-anchor="middle" x="586" y="-7.5" font-family="Helvetica,sans-Serif" font-size="10.00" fill="#000000">main</text>
</a>
</g>
</g>
<!-- Node368516&#45;&gt;Node368506 -->
<g id="edge22" class="edge">
<title>Node368516&#45;&gt;Node368506</title>
<path fill="none" stroke="#191970" d="M456.6578,-10C494.3174,-10 540.9755,-10 566.7006,-10"/>
<polygon fill="#191970" stroke="#191970" points="456.2993,-6.5001 446.2993,-10 456.2993,-13.5001 456.2993,-6.5001"/>
</g>
</g>
</svg>
        <g id="navigator" transform="translate(0 0)" fill="#404254">
                <rect fill="#f2f5e9" fill-opacity="0.5" stroke="#606060" stroke-width=".5" x="0" y="0" width="60" height="60"/>
                <use id="zoomplus" xlink:href="#zoomPlus" x="17" y="9" onmousedown="handleZoom(evt,'in')"/>
                <use id="zoomminus" xlink:href="#zoomMin" x="42" y="9" onmousedown="handleZoom(evt,'out')"/>
                <use id="reset" xlink:href="#resetDef" x="30" y="36" onmousedown="handleReset()"/>
                <g id="arrowUp" xlink:href="#dirArrow" transform="translate(30 24)" onmousedown="handlePan(0,-1)">
                  <use xlink:href="#rim" fill="#404040">
                        <set attributeName="fill" to="#808080" begin="arrowUp.mouseover" end="arrowUp.mouseout"/>
                  </use>
                  <path fill="none" stroke="white" stroke-width="1.5" d="M0,-3.0v7 M-2.5,-0.5L0,-3.0L2.5,-0.5"/>
                </g>
                <g id="arrowRight" xlink:href="#dirArrow" transform="rotate(90) translate(36 -43)" onmousedown="handlePan(1,0)">
                  <use xlink:href="#rim" fill="#404040">
                        <set attributeName="fill" to="#808080" begin="arrowRight.mouseover" end="arrowRight.mouseout"/>
                  </use>
                  <path fill="none" stroke="white" stroke-width="1.5" d="M0,-3.0v7 M-2.5,-0.5L0,-3.0L2.5,-0.5"/>
                </g>
                <g id="arrowDown" xlink:href="#dirArrow" transform="rotate(180) translate(-30 -48)" onmousedown="handlePan(0,1)">
                  <use xlink:href="#rim" fill="#404040">
                        <set attributeName="fill" to="#808080" begin="arrowDown.mouseover" end="arrowDown.mouseout"/>
                  </use>
                  <path fill="none" stroke="white" stroke-width="1.5" d="M0,-3.0v7 M-2.5,-0.5L0,-3.0L2.5,-0.5"/>
                </g>
                <g id="arrowLeft" xlink:href="#dirArrow" transform="rotate(270) translate(-36 17)" onmousedown="handlePan(-1,0)">
                  <use xlink:href="#rim" fill="#404040">
                        <set attributeName="fill" to="#808080" begin="arrowLeft.mouseover" end="arrowLeft.mouseout"/>
                  </use>
                  <path fill="none" stroke="white" stroke-width="1.5" d="M0,-3.0v7 M-2.5,-0.5L0,-3.0L2.5,-0.5"/>
                </g>
        </g>
        <svg viewBox="0 0 15 15" width="100%" height="30px" preserveAspectRatio="xMaxYMin meet">
         <g id="arrow_out" transform="scale(0.3 0.3)">
          <a xlink:href="quickjs_8c_ad4850b99c142ea2d6d1b276efebb62e0_icgraph_org.svg" target="_base">
           <rect id="button" ry="5" rx="5" y="6" x="6" height="38" width="38"
                fill="#f2f5e9" fill-opacity="0.5" stroke="#606060" stroke-width="1.0"/>
           <path id="arrow"
             d="M 11.500037,31.436501 C 11.940474,20.09759 22.043105,11.32322 32.158766,21.979434 L 37.068811,17.246167 C 37.068811,17.246167 37.088388,32 37.088388,32 L 22.160133,31.978069 C 22.160133,31.978069 26.997745,27.140456 26.997745,27.140456 C 18.528582,18.264221 13.291696,25.230495 11.500037,31.436501 z"
             style="fill:#404040;"/>
          </a>
         </g>
        </svg>
</svg>
