<?xml version="1.0" encoding="UTF-8" standalone="no"?>
<!DOCTYPE svg PUBLIC "-//W3C//DTD SVG 1.1//EN"
 "http://www.w3.org/Graphics/SVG/1.1/DTD/svg11.dtd">
<!-- Generated by graphviz version 2.40.1 (20161225.0304)
 -->
<!-- Title: js_closure Pages: 1 -->
<svg width="856pt" height="593pt"
 viewBox="0.00 0.00 856.00 593.00" xmlns="http://www.w3.org/2000/svg" xmlns:xlink="http://www.w3.org/1999/xlink">
<g id="graph0" class="graph" transform="scale(1 1) rotate(0) translate(4 589)">
<title>js_closure</title>
<!-- Node292416 -->
<g id="node1" class="node">
<title>Node292416</title>
<polygon fill="#bfbfbf" stroke="#000000" points="0,-304.5 0,-323.5 61,-323.5 61,-304.5 0,-304.5"/>
<text text-anchor="middle" x="30.5" y="-311.5" font-family="Helvetica,sans-Serif" font-size="10.00" fill="#000000">js_closure</text>
</g>
<!-- Node292417 -->
<g id="node2" class="node">
<title>Node292417</title>
<g id="a_node2"><a xlink:href="quickjs_8c.html#abc3c566f6ced6ad29f99e7db6ab3b75b" target="_top" xlink:title="js_closure2">
<polygon fill="none" stroke="#000000" points="129.5,-527.5 129.5,-546.5 195.5,-546.5 195.5,-527.5 129.5,-527.5"/>
<text text-anchor="middle" x="162.5" y="-534.5" font-family="Helvetica,sans-Serif" font-size="10.00" fill="#000000">js_closure2</text>
</a>
</g>
</g>
<!-- Node292416&#45;&gt;Node292417 -->
<g id="edge1" class="edge">
<title>Node292416&#45;&gt;Node292417</title>
<path fill="none" stroke="#191970" d="M31.1601,-323.8505C33.7454,-354.9211 45.7458,-452.1046 97,-508 103.2958,-514.8659 111.5152,-520.1968 119.9934,-524.303"/>
<polygon fill="#191970" stroke="#191970" points="118.6482,-527.5345 129.2159,-528.2928 121.4276,-521.1099 118.6482,-527.5345"/>
</g>
<!-- Node292421 -->
<g id="node5" class="node">
<title>Node292421</title>
<g id="a_node5"><a xlink:href="quickjs_8h.html#afaa20c47565bc704c6c85f3d77254e7d" target="_top" xlink:title="JS_FreeValue">
<polygon fill="none" stroke="#000000" points="591.5,-532.5 591.5,-551.5 669.5,-551.5 669.5,-532.5 591.5,-532.5"/>
<text text-anchor="middle" x="630.5" y="-539.5" font-family="Helvetica,sans-Serif" font-size="10.00" fill="#000000">JS_FreeValue</text>
</a>
</g>
</g>
<!-- Node292416&#45;&gt;Node292421 -->
<g id="edge35" class="edge">
<title>Node292416&#45;&gt;Node292421</title>
<path fill="none" stroke="#191970" d="M35.4804,-323.5954C45.0057,-340.9778 67.5074,-377.6626 97,-397 253.7904,-499.8026 481.9237,-530.1435 581.2385,-538.7503"/>
<polygon fill="#191970" stroke="#191970" points="581.0344,-542.2453 591.2897,-539.5847 581.6135,-535.2693 581.0344,-542.2453"/>
</g>
<!-- Node292457 -->
<g id="node7" class="node">
<title>Node292457</title>
<g id="a_node7"><a xlink:href="quickjs_8c.html#a7128998511654840928b9df9d4c55b3c" target="_top" xlink:title="JS_DefineAutoInitProperty">
<polygon fill="none" stroke="#000000" points="264,-247.5 264,-266.5 397,-266.5 397,-247.5 264,-247.5"/>
<text text-anchor="middle" x="330.5" y="-254.5" font-family="Helvetica,sans-Serif" font-size="10.00" fill="#000000">JS_DefineAutoInitProperty</text>
</a>
</g>
</g>
<!-- Node292416&#45;&gt;Node292457 -->
<g id="edge6" class="edge">
<title>Node292416&#45;&gt;Node292457</title>
<path fill="none" stroke="#191970" d="M61.2572,-307.3548C72.4921,-304.9724 85.3092,-302.3067 97,-300 154.2671,-288.7008 219.6264,-276.7447 266.6023,-268.3158"/>
<polygon fill="#191970" stroke="#191970" points="267.4091,-271.7271 276.6355,-266.5191 266.1751,-264.8367 267.4091,-271.7271"/>
</g>
<!-- Node292480 -->
<g id="node20" class="node">
<title>Node292480</title>
<g id="a_node20"><a xlink:href="quickjs_8c.html#a0a8765bd4012467d9139bc24aabcb3ca" target="_top" xlink:title="JS_DefinePropertyValue">
<polygon fill="none" stroke="#000000" points="268.5,-380.5 268.5,-399.5 392.5,-399.5 392.5,-380.5 268.5,-380.5"/>
<text text-anchor="middle" x="330.5" y="-387.5" font-family="Helvetica,sans-Serif" font-size="10.00" fill="#000000">JS_DefinePropertyValue</text>
</a>
</g>
</g>
<!-- Node292416&#45;&gt;Node292480 -->
<g id="edge23" class="edge">
<title>Node292416&#45;&gt;Node292480</title>
<path fill="none" stroke="#191970" d="M38.3006,-323.7501C49.6258,-337.0973 72.0169,-360.5869 97,-371 147.9766,-392.2473 210.5688,-396.3003 258.1126,-395.4214"/>
<polygon fill="#191970" stroke="#191970" points="258.42,-398.9147 268.3246,-395.1532 258.2361,-391.9171 258.42,-398.9147"/>
</g>
<!-- Node292503 -->
<g id="node25" class="node">
<title>Node292503</title>
<g id="a_node25"><a xlink:href="quickjs_8h.html#ad80a83d73e9b7d872b88fbf2943aebe9" target="_top" xlink:title="JS_IsException">
<polygon fill="none" stroke="#000000" points="587.5,-266.5 587.5,-285.5 673.5,-285.5 673.5,-266.5 587.5,-266.5"/>
<text text-anchor="middle" x="630.5" y="-273.5" font-family="Helvetica,sans-Serif" font-size="10.00" fill="#000000">JS_IsException</text>
</a>
</g>
</g>
<!-- Node292416&#45;&gt;Node292503 -->
<g id="edge39" class="edge">
<title>Node292416&#45;&gt;Node292503</title>
<path fill="none" stroke="#191970" d="M61.1525,-314.4618C139.7102,-315.294 354.5504,-315.3552 532,-295 547.1829,-293.2584 563.5304,-290.4783 578.4601,-287.5764"/>
<polygon fill="#191970" stroke="#191970" points="579.4193,-290.9539 588.5378,-285.5591 578.0453,-284.0901 579.4193,-290.9539"/>
</g>
<!-- Node292776 -->
<g id="node27" class="node">
<title>Node292776</title>
<g id="a_node27"><a xlink:href="quickjs_8c.html#a5d963b1e3acf275363fedd4bfdd8a57f" target="_top" xlink:title="js_function_set_properties">
<polygon fill="none" stroke="#ff0000" points="97,-342.5 97,-361.5 228,-361.5 228,-342.5 97,-342.5"/>
<text text-anchor="middle" x="162.5" y="-349.5" font-family="Helvetica,sans-Serif" font-size="10.00" fill="#000000">js_function_set_properties</text>
</a>
</g>
</g>
<!-- Node292416&#45;&gt;Node292776 -->
<g id="edge36" class="edge">
<title>Node292416&#45;&gt;Node292776</title>
<path fill="none" stroke="#191970" d="M61.1152,-322.8135C78.4965,-327.8172 100.5262,-334.1591 119.607,-339.652"/>
<polygon fill="#191970" stroke="#191970" points="118.698,-343.0324 129.276,-342.4355 120.6346,-336.3056 118.698,-343.0324"/>
</g>
<!-- Node292642 -->
<g id="node28" class="node">
<title>Node292642</title>
<g id="a_node28"><a xlink:href="quickjs_8c.html#a659dc0db7e440fd6eb012d613627faa3" target="_top" xlink:title="JS_NewObjectClass">
<polygon fill="none" stroke="#ff0000" points="108.5,-228.5 108.5,-247.5 216.5,-247.5 216.5,-228.5 108.5,-228.5"/>
<text text-anchor="middle" x="162.5" y="-235.5" font-family="Helvetica,sans-Serif" font-size="10.00" fill="#000000">JS_NewObjectClass</text>
</a>
</g>
</g>
<!-- Node292416&#45;&gt;Node292642 -->
<g id="edge40" class="edge">
<title>Node292416&#45;&gt;Node292642</title>
<path fill="none" stroke="#191970" d="M40.5998,-304.4366C53.0445,-293.0652 75.2246,-274.1069 97,-262 104.4557,-257.8547 112.7673,-254.1736 120.8993,-251.0151"/>
<polygon fill="#191970" stroke="#191970" points="122.128,-254.2925 130.3012,-247.5508 119.7078,-247.7242 122.128,-254.2925"/>
</g>
<!-- Node292806 -->
<g id="node29" class="node">
<title>Node292806</title>
<g id="a_node29"><a xlink:href="quickjs_8c.html#a884d294acbf5be675ffc760e38bd0521" target="_top" xlink:title="JS_NewObjectProto">
<polygon fill="none" stroke="#ff0000" points="109.5,-190.5 109.5,-209.5 215.5,-209.5 215.5,-190.5 109.5,-190.5"/>
<text text-anchor="middle" x="162.5" y="-197.5" font-family="Helvetica,sans-Serif" font-size="10.00" fill="#000000">JS_NewObjectProto</text>
</a>
</g>
</g>
<!-- Node292416&#45;&gt;Node292806 -->
<g id="edge41" class="edge">
<title>Node292416&#45;&gt;Node292806</title>
<path fill="none" stroke="#191970" d="M34.5901,-304.2807C43.2019,-285.0093 65.0761,-241.8486 97,-219 99.6959,-217.0705 102.5857,-215.3357 105.5946,-213.7763"/>
<polygon fill="#191970" stroke="#191970" points="107.2102,-216.8877 114.9044,-209.6041 104.3474,-210.4998 107.2102,-216.8877"/>
</g>
<!-- Node292817 -->
<g id="node30" class="node">
<title>Node292817</title>
<g id="a_node30"><a xlink:href="quickjs_8c.html#afa23cf32e0412f97cd08186c9842e58d" target="_top" xlink:title="JS_SetConstructorBit">
<polygon fill="none" stroke="#000000" points="106.5,-152.5 106.5,-171.5 218.5,-171.5 218.5,-152.5 106.5,-152.5"/>
<text text-anchor="middle" x="162.5" y="-159.5" font-family="Helvetica,sans-Serif" font-size="10.00" fill="#000000">JS_SetConstructorBit</text>
</a>
</g>
</g>
<!-- Node292416&#45;&gt;Node292817 -->
<g id="edge42" class="edge">
<title>Node292416&#45;&gt;Node292817</title>
<path fill="none" stroke="#191970" d="M32.5255,-304.3015C38.158,-279.7854 56.344,-214.88 97,-181 99.0295,-179.3087 101.2029,-177.7679 103.4795,-176.3642"/>
<polygon fill="#191970" stroke="#191970" points="105.4131,-179.3046 112.6871,-171.6014 102.197,-173.0872 105.4131,-179.3046"/>
</g>
<!-- Node292418 -->
<g id="node3" class="node">
<title>Node292418</title>
<g id="a_node3"><a xlink:href="quickjs_8c.html#a37fe43b6649456a848bd54846450b995" target="_top" xlink:title="get_var_ref">
<polygon fill="none" stroke="#000000" points="298,-565.5 298,-584.5 363,-584.5 363,-565.5 298,-565.5"/>
<text text-anchor="middle" x="330.5" y="-572.5" font-family="Helvetica,sans-Serif" font-size="10.00" fill="#000000">get_var_ref</text>
</a>
</g>
</g>
<!-- Node292417&#45;&gt;Node292418 -->
<g id="edge2" class="edge">
<title>Node292417&#45;&gt;Node292418</title>
<path fill="none" stroke="#191970" d="M195.6914,-544.5076C222.093,-550.4794 259.2212,-558.8774 287.8302,-565.3485"/>
<polygon fill="#191970" stroke="#191970" points="287.4234,-568.8448 297.9492,-567.6373 288.9678,-562.0173 287.4234,-568.8448"/>
</g>
<!-- Node292417&#45;&gt;Node292421 -->
<g id="edge4" class="edge">
<title>Node292417&#45;&gt;Node292421</title>
<path fill="none" stroke="#191970" d="M195.7822,-537.3556C276.8982,-538.2222 485.148,-540.4471 580.9381,-541.4705"/>
<polygon fill="#191970" stroke="#191970" points="581.1873,-544.9733 591.2241,-541.5804 581.2621,-537.9737 581.1873,-544.9733"/>
</g>
<!-- Node292419 -->
<g id="node4" class="node">
<title>Node292419</title>
<g id="a_node4"><a xlink:href="list_8h.html#a3a5d0733570b2fafc18f4c71a2968ea5" target="_top" xlink:title="list_add_tail">
<polygon fill="none" stroke="#ff0000" points="448.5,-565.5 448.5,-584.5 516.5,-584.5 516.5,-565.5 448.5,-565.5"/>
<text text-anchor="middle" x="482.5" y="-572.5" font-family="Helvetica,sans-Serif" font-size="10.00" fill="#000000">list_add_tail</text>
</a>
</g>
</g>
<!-- Node292418&#45;&gt;Node292419 -->
<g id="edge3" class="edge">
<title>Node292418&#45;&gt;Node292419</title>
<path fill="none" stroke="#191970" d="M363.1078,-575C384.9921,-575 414.0951,-575 438.0884,-575"/>
<polygon fill="#191970" stroke="#191970" points="438.3646,-578.5001 448.3646,-575 438.3645,-571.5001 438.3646,-578.5001"/>
</g>
<!-- Node292422 -->
<g id="node6" class="node">
<title>Node292422</title>
<g id="a_node6"><a xlink:href="quickjs_8c.html#aa059f309c30fd5166d16c82a97973146" target="_top" xlink:title="__JS_FreeValue">
<polygon fill="none" stroke="#ff0000" points="744,-532.5 744,-551.5 833,-551.5 833,-532.5 744,-532.5"/>
<text text-anchor="middle" x="788.5" y="-539.5" font-family="Helvetica,sans-Serif" font-size="10.00" fill="#000000">__JS_FreeValue</text>
</a>
</g>
</g>
<!-- Node292421&#45;&gt;Node292422 -->
<g id="edge5" class="edge">
<title>Node292421&#45;&gt;Node292422</title>
<path fill="none" stroke="#191970" d="M669.5562,-542C688.8752,-542 712.5191,-542 733.6226,-542"/>
<polygon fill="#191970" stroke="#191970" points="733.7484,-545.5001 743.7484,-542 733.7483,-538.5001 733.7484,-545.5001"/>
</g>
<!-- Node292458 -->
<g id="node8" class="node">
<title>Node292458</title>
<g id="a_node8"><a xlink:href="quickjs_8c.html#a74547db03bf739a52c83a326b32db997" target="_top" xlink:title="add_property">
<polygon fill="none" stroke="#000000" points="446,-114.5 446,-133.5 519,-133.5 519,-114.5 446,-114.5"/>
<text text-anchor="middle" x="482.5" y="-121.5" font-family="Helvetica,sans-Serif" font-size="10.00" fill="#000000">add_property</text>
</a>
</g>
</g>
<!-- Node292457&#45;&gt;Node292458 -->
<g id="edge7" class="edge">
<title>Node292457&#45;&gt;Node292458</title>
<path fill="none" stroke="#191970" d="M341.4315,-247.435C367.0511,-225.0178 431.233,-168.8586 463.4397,-140.6778"/>
<polygon fill="#191970" stroke="#191970" points="466.0365,-143.0563 471.2575,-133.8372 461.4269,-137.7883 466.0365,-143.0563"/>
</g>
<!-- Node292478 -->
<g id="node18" class="node">
<title>Node292478</title>
<g id="a_node18"><a xlink:href="quickjs_8c.html#a06b76f5124fd985e35f4c652fd018d6d" target="_top" xlink:title="find_own_property">
<polygon fill="none" stroke="#000000" points="582.5,-228.5 582.5,-247.5 678.5,-247.5 678.5,-228.5 582.5,-228.5"/>
<text text-anchor="middle" x="630.5" y="-235.5" font-family="Helvetica,sans-Serif" font-size="10.00" fill="#000000">find_own_property</text>
</a>
</g>
</g>
<!-- Node292457&#45;&gt;Node292478 -->
<g id="edge19" class="edge">
<title>Node292457&#45;&gt;Node292478</title>
<path fill="none" stroke="#191970" d="M397.0797,-252.7833C449.5659,-249.4592 522.0322,-244.8696 572.2383,-241.6899"/>
<polygon fill="#191970" stroke="#191970" points="572.5255,-245.1788 582.2842,-241.0537 572.0829,-238.1928 572.5255,-245.1788"/>
</g>
<!-- Node292479 -->
<g id="node19" class="node">
<title>Node292479</title>
<g id="a_node19"><a xlink:href="quickjs_8c.html#a2814982d965920b44b14bef36ba18bba" target="_top" xlink:title="JS_DupContext">
<polygon fill="none" stroke="#000000" points="439.5,-266.5 439.5,-285.5 525.5,-285.5 525.5,-266.5 439.5,-266.5"/>
<text text-anchor="middle" x="482.5" y="-273.5" font-family="Helvetica,sans-Serif" font-size="10.00" fill="#000000">JS_DupContext</text>
</a>
</g>
</g>
<!-- Node292457&#45;&gt;Node292479 -->
<g id="edge22" class="edge">
<title>Node292457&#45;&gt;Node292479</title>
<path fill="none" stroke="#191970" d="M397.1694,-265.3337C407.8183,-266.6648 418.7152,-268.0269 429.0069,-269.3134"/>
<polygon fill="#191970" stroke="#191970" points="428.7084,-272.8032 439.0653,-270.5707 429.5767,-265.8573 428.7084,-272.8032"/>
</g>
<!-- Node292459 -->
<g id="node9" class="node">
<title>Node292459</title>
<g id="a_node9"><a xlink:href="quickjs_8c.html#a3cadcaa2bd1e3f9359f1c006f396cfa0" target="_top" xlink:title="add_shape_property">
<polygon fill="none" stroke="#ff0000" points="578.5,-152.5 578.5,-171.5 682.5,-171.5 682.5,-152.5 578.5,-152.5"/>
<text text-anchor="middle" x="630.5" y="-159.5" font-family="Helvetica,sans-Serif" font-size="10.00" fill="#000000">add_shape_property</text>
</a>
</g>
</g>
<!-- Node292458&#45;&gt;Node292459 -->
<g id="edge8" class="edge">
<title>Node292458&#45;&gt;Node292459</title>
<path fill="none" stroke="#191970" d="M519.0843,-133.3933C538.5047,-138.3796 562.5908,-144.5638 583.3944,-149.9053"/>
<polygon fill="#191970" stroke="#191970" points="582.7523,-153.3539 593.3086,-152.4509 584.4932,-146.5738 582.7523,-153.3539"/>
</g>
<!-- Node292462 -->
<g id="node12" class="node">
<title>Node292462</title>
<g id="a_node12"><a xlink:href="quickjs_8c.html#a82dbe63adeac7849406fd48d96f39f7b" target="_top" xlink:title="js_shape_hash_link">
<polygon fill="none" stroke="#ff0000" points="737.5,-95.5 737.5,-114.5 839.5,-114.5 839.5,-95.5 737.5,-95.5"/>
<text text-anchor="middle" x="788.5" y="-102.5" font-family="Helvetica,sans-Serif" font-size="10.00" fill="#000000">js_shape_hash_link</text>
</a>
</g>
</g>
<!-- Node292458&#45;&gt;Node292462 -->
<g id="edge18" class="edge">
<title>Node292458&#45;&gt;Node292462</title>
<path fill="none" stroke="#191970" d="M517.1547,-114.492C532.5898,-110.7273 551.0711,-106.8583 568,-105 621.4837,-99.129 682.7053,-99.7047 727.0463,-101.418"/>
<polygon fill="#191970" stroke="#191970" points="726.9521,-104.917 737.0892,-101.8365 727.2437,-97.9231 726.9521,-104.917"/>
</g>
<!-- Node292473 -->
<g id="node14" class="node">
<title>Node292473</title>
<g id="a_node14"><a xlink:href="quickjs_8c.html#ac0c5dbb01d6082796c44b1c7f7c170f1" target="_top" xlink:title="find_hashed_shape_prop">
<polygon fill="none" stroke="#ff0000" points="568,-.5 568,-19.5 693,-19.5 693,-.5 568,-.5"/>
<text text-anchor="middle" x="630.5" y="-7.5" font-family="Helvetica,sans-Serif" font-size="10.00" fill="#000000">find_hashed_shape_prop</text>
</a>
</g>
</g>
<!-- Node292458&#45;&gt;Node292473 -->
<g id="edge13" class="edge">
<title>Node292458&#45;&gt;Node292473</title>
<path fill="none" stroke="#191970" d="M488.5315,-114.3446C500.9931,-95.1879 531.4916,-52.2235 568,-29 571.2968,-26.9028 574.8383,-25.026 578.4989,-23.3482"/>
<polygon fill="#191970" stroke="#191970" points="579.8281,-26.5861 587.7717,-19.5755 577.19,-20.1022 579.8281,-26.5861"/>
</g>
<!-- Node292474 -->
<g id="node15" class="node">
<title>Node292474</title>
<g id="a_node15"><a xlink:href="quickjs_8c.html#a8e34657169da77ae6a386311351ed3de" target="_top" xlink:title="js_clone_shape">
<polygon fill="none" stroke="#ff0000" points="588.5,-190.5 588.5,-209.5 672.5,-209.5 672.5,-190.5 588.5,-190.5"/>
<text text-anchor="middle" x="630.5" y="-197.5" font-family="Helvetica,sans-Serif" font-size="10.00" fill="#000000">js_clone_shape</text>
</a>
</g>
</g>
<!-- Node292458&#45;&gt;Node292474 -->
<g id="edge14" class="edge">
<title>Node292458&#45;&gt;Node292474</title>
<path fill="none" stroke="#191970" d="M494.2851,-133.5011C510.1844,-145.9209 539.7745,-167.6581 568,-181 572.7485,-183.2446 577.8244,-185.2989 582.9539,-187.1583"/>
<polygon fill="#191970" stroke="#191970" points="582.2178,-190.604 592.8121,-190.4925 584.4606,-183.973 582.2178,-190.604"/>
</g>
<!-- Node292477 -->
<g id="node16" class="node">
<title>Node292477</title>
<g id="a_node16"><a xlink:href="quickjs_8c.html#aed229eb80b3b03a2275471dee93c69d6" target="_top" xlink:title="js_dup_shape">
<polygon fill="none" stroke="#000000" points="592,-114.5 592,-133.5 669,-133.5 669,-114.5 592,-114.5"/>
<text text-anchor="middle" x="630.5" y="-121.5" font-family="Helvetica,sans-Serif" font-size="10.00" fill="#000000">js_dup_shape</text>
</a>
</g>
</g>
<!-- Node292458&#45;&gt;Node292477 -->
<g id="edge16" class="edge">
<title>Node292458&#45;&gt;Node292477</title>
<path fill="none" stroke="#191970" d="M519.0843,-124C537.9771,-124 561.2854,-124 581.6916,-124"/>
<polygon fill="#191970" stroke="#191970" points="581.7507,-127.5001 591.7507,-124 581.7507,-120.5001 581.7507,-127.5001"/>
</g>
<!-- Node292445 -->
<g id="node17" class="node">
<title>Node292445</title>
<g id="a_node17"><a xlink:href="quickjs_8c.html#a3a9f27520d96cf58aa5bd7359e9cddee" target="_top" xlink:title="js_free_shape">
<polygon fill="none" stroke="#ff0000" points="592,-38.5 592,-57.5 669,-57.5 669,-38.5 592,-38.5"/>
<text text-anchor="middle" x="630.5" y="-45.5" font-family="Helvetica,sans-Serif" font-size="10.00" fill="#000000">js_free_shape</text>
</a>
</g>
</g>
<!-- Node292458&#45;&gt;Node292445 -->
<g id="edge17" class="edge">
<title>Node292458&#45;&gt;Node292445</title>
<path fill="none" stroke="#191970" d="M496.5762,-114.352C513.1669,-103.2405 541.8017,-84.8668 568,-72 575.8735,-68.1331 584.5365,-64.4603 592.8392,-61.2033"/>
<polygon fill="#191970" stroke="#191970" points="594.2498,-64.4115 602.3515,-57.5841 591.7605,-57.869 594.2498,-64.4115"/>
</g>
<!-- Node292460 -->
<g id="node10" class="node">
<title>Node292460</title>
<g id="a_node10"><a xlink:href="quickjs_8c.html#a288254c06a39c9fca740a7abdad2834e" target="_top" xlink:title="__JS_AtomIsTaggedInt">
<polygon fill="none" stroke="#000000" points="729,-376.5 729,-395.5 848,-395.5 848,-376.5 729,-376.5"/>
<text text-anchor="middle" x="788.5" y="-383.5" font-family="Helvetica,sans-Serif" font-size="10.00" fill="#000000">__JS_AtomIsTaggedInt</text>
</a>
</g>
</g>
<!-- Node292459&#45;&gt;Node292460 -->
<g id="edge9" class="edge">
<title>Node292459&#45;&gt;Node292460</title>
<path fill="none" stroke="#191970" d="M677.8281,-171.6013C683.3241,-174.0542 688.5469,-177.1337 693,-181 700.6809,-187.6687 758.5207,-317.9074 780.2675,-367.2603"/>
<polygon fill="#191970" stroke="#191970" points="777.0978,-368.7471 784.3292,-376.4904 783.5049,-365.9277 777.0978,-368.7471"/>
</g>
<!-- Node292449 -->
<g id="node11" class="node">
<title>Node292449</title>
<g id="a_node11"><a xlink:href="quickjs_8c.html#a643df594b75933007bcdbb071b5ea8c5" target="_top" xlink:title="get_shape_prop">
<polygon fill="none" stroke="#000000" points="745.5,-219.5 745.5,-238.5 831.5,-238.5 831.5,-219.5 745.5,-219.5"/>
<text text-anchor="middle" x="788.5" y="-226.5" font-family="Helvetica,sans-Serif" font-size="10.00" fill="#000000">get_shape_prop</text>
</a>
</g>
</g>
<!-- Node292459&#45;&gt;Node292449 -->
<g id="edge10" class="edge">
<title>Node292459&#45;&gt;Node292449</title>
<path fill="none" stroke="#191970" d="M666.2791,-171.5967C675.1285,-174.3186 684.5049,-177.5043 693,-181 709.7306,-187.8845 712.8665,-191.8135 729,-200 738.8378,-204.9919 749.6644,-210.318 759.3548,-215.0257"/>
<polygon fill="#191970" stroke="#191970" points="758.0616,-218.288 768.5878,-219.4919 761.1098,-211.9866 758.0616,-218.288"/>
</g>
<!-- Node292459&#45;&gt;Node292462 -->
<g id="edge11" class="edge">
<title>Node292459&#45;&gt;Node292462</title>
<path fill="none" stroke="#191970" d="M663.7523,-152.4543C673.2523,-149.5753 683.581,-146.2992 693,-143 714.4131,-135.4997 738.1139,-126.0758 756.5477,-118.4893"/>
<polygon fill="#191970" stroke="#191970" points="758.0351,-121.6616 765.9324,-114.5988 755.3544,-115.1952 758.0351,-121.6616"/>
</g>
<!-- Node292448 -->
<g id="node13" class="node">
<title>Node292448</title>
<g id="a_node13"><a xlink:href="quickjs_8c.html#acab22c2945c4d609e57a2484feb68a96" target="_top" xlink:title="prop_hash_end">
<polygon fill="none" stroke="#000000" points="747,-171.5 747,-190.5 830,-190.5 830,-171.5 747,-171.5"/>
<text text-anchor="middle" x="788.5" y="-178.5" font-family="Helvetica,sans-Serif" font-size="10.00" fill="#000000">prop_hash_end</text>
</a>
</g>
</g>
<!-- Node292459&#45;&gt;Node292448 -->
<g id="edge12" class="edge">
<title>Node292459&#45;&gt;Node292448</title>
<path fill="none" stroke="#191970" d="M682.673,-168.274C700.1054,-170.3703 719.5153,-172.7044 736.9035,-174.7954"/>
<polygon fill="#191970" stroke="#191970" points="736.5312,-178.2757 746.8776,-175.9948 737.367,-171.3258 736.5312,-178.2757"/>
</g>
<!-- Node292474&#45;&gt;Node292449 -->
<g id="edge15" class="edge">
<title>Node292474&#45;&gt;Node292449</title>
<path fill="none" stroke="#191970" d="M672.8411,-207.7715C692.0777,-211.3022 715.0405,-215.5169 735.4165,-219.2568"/>
<polygon fill="#191970" stroke="#191970" points="735.0246,-222.7433 745.4921,-221.1062 736.2883,-215.8583 735.0246,-222.7433"/>
</g>
<!-- Node292478&#45;&gt;Node292449 -->
<g id="edge20" class="edge">
<title>Node292478&#45;&gt;Node292449</title>
<path fill="none" stroke="#191970" d="M678.7637,-235.2508C696.5986,-234.2349 716.9095,-233.0779 735.1681,-232.0379"/>
<polygon fill="#191970" stroke="#191970" points="735.5737,-235.5206 745.3584,-231.4574 735.1755,-228.5319 735.5737,-235.5206"/>
</g>
<!-- Node292478&#45;&gt;Node292448 -->
<g id="edge21" class="edge">
<title>Node292478&#45;&gt;Node292448</title>
<path fill="none" stroke="#191970" d="M663.7523,-228.4543C673.2523,-225.5753 683.581,-222.2992 693,-219 714.4131,-211.4997 738.1139,-202.0758 756.5477,-194.4893"/>
<polygon fill="#191970" stroke="#191970" points="758.0351,-197.6616 765.9324,-190.5988 755.3544,-191.1952 758.0351,-197.6616"/>
</g>
<!-- Node292480&#45;&gt;Node292421 -->
<g id="edge34" class="edge">
<title>Node292480&#45;&gt;Node292421</title>
<path fill="none" stroke="#191970" d="M356.8604,-399.5936C396.2495,-414.4057 472.2291,-444.8359 532,-480 549.2381,-490.1414 551.2379,-496.0898 568,-507 579.1557,-514.2611 591.9083,-521.5686 602.9723,-527.6144"/>
<polygon fill="#191970" stroke="#191970" points="601.333,-530.7068 611.7969,-532.3675 604.6525,-524.5439 601.333,-530.7068"/>
</g>
<!-- Node292481 -->
<g id="node21" class="node">
<title>Node292481</title>
<g id="a_node21"><a xlink:href="quickjs_8c.html#ab50618f1bf78e444caa6da0e3e2785d7" target="_top" xlink:title="JS_DefineProperty">
<polygon fill="none" stroke="#ff0000" points="433,-380.5 433,-399.5 532,-399.5 532,-380.5 433,-380.5"/>
<text text-anchor="middle" x="482.5" y="-387.5" font-family="Helvetica,sans-Serif" font-size="10.00" fill="#000000">JS_DefineProperty</text>
</a>
</g>
</g>
<!-- Node292480&#45;&gt;Node292481 -->
<g id="edge24" class="edge">
<title>Node292480&#45;&gt;Node292481</title>
<path fill="none" stroke="#191970" d="M392.7628,-390C402.6203,-390 412.7968,-390 422.5988,-390"/>
<polygon fill="#191970" stroke="#191970" points="422.649,-393.5001 432.6489,-390 422.6489,-386.5001 422.649,-393.5001"/>
</g>
<!-- Node292481&#45;&gt;Node292421 -->
<g id="edge31" class="edge">
<title>Node292481&#45;&gt;Node292421</title>
<path fill="none" stroke="#191970" d="M496.6545,-399.546C507.5073,-407.4571 522.2342,-419.552 532,-433 556.107,-466.1965 538.5012,-489.4871 568,-518 572.0742,-521.938 576.8632,-525.2465 581.9469,-528.0225"/>
<polygon fill="#191970" stroke="#191970" points="580.7897,-531.3471 591.3254,-532.465 583.7863,-525.0209 580.7897,-531.3471"/>
</g>
<!-- Node292481&#45;&gt;Node292460 -->
<g id="edge26" class="edge">
<title>Node292481&#45;&gt;Node292460</title>
<path fill="none" stroke="#191970" d="M495.4939,-399.802C505.9703,-408.0407 520.758,-420.4518 532,-433 550.7566,-453.9359 543.1015,-471.9544 568,-485 617.21,-510.7837 641.8667,-506.7211 693,-485 731.6145,-468.5968 762.2052,-428.0842 777.5998,-404.2771"/>
<polygon fill="#191970" stroke="#191970" points="780.5811,-406.1106 782.9102,-395.775 774.6441,-402.4023 780.5811,-406.1106"/>
</g>
<!-- Node292481&#45;&gt;Node292449 -->
<g id="edge30" class="edge">
<title>Node292481&#45;&gt;Node292449</title>
<path fill="none" stroke="#191970" d="M522.3462,-380.4811C579.1947,-366.7084 678.3605,-341.8994 693,-333 729.6138,-310.7424 760.7514,-270.3933 776.8212,-247.0353"/>
<polygon fill="#191970" stroke="#191970" points="779.7389,-248.9685 782.4017,-238.7137 773.9251,-245.0697 779.7389,-248.9685"/>
</g>
<!-- Node292481&#45;&gt;Node292478 -->
<g id="edge29" class="edge">
<title>Node292481&#45;&gt;Node292478</title>
<path fill="none" stroke="#191970" d="M487.5626,-380.344C502.2031,-352.7436 545.0078,-274.3807 568,-257 570.4978,-255.1118 573.1838,-253.4099 575.9884,-251.8761"/>
<polygon fill="#191970" stroke="#191970" points="577.6955,-254.9413 585.2638,-247.527 574.7238,-248.6034 577.6955,-254.9413"/>
</g>
<!-- Node292482 -->
<g id="node22" class="node">
<title>Node292482</title>
<g id="a_node22"><a xlink:href="quickjs_8c.html#a014abd680db53ab89cb133345742a59c" target="_top" xlink:title="__attribute__">
<polygon fill="none" stroke="#ff0000" points="594,-456.5 594,-475.5 667,-475.5 667,-456.5 594,-456.5"/>
<text text-anchor="middle" x="630.5" y="-463.5" font-family="Helvetica,sans-Serif" font-size="10.00" fill="#000000">__attribute__</text>
</a>
</g>
</g>
<!-- Node292481&#45;&gt;Node292482 -->
<g id="edge25" class="edge">
<title>Node292481&#45;&gt;Node292482</title>
<path fill="none" stroke="#191970" d="M494.2851,-399.5011C510.1844,-411.9209 539.7745,-433.6581 568,-447 573.0625,-449.393 578.4972,-451.5697 583.9721,-453.5246"/>
<polygon fill="#191970" stroke="#191970" points="583.205,-456.9582 593.7987,-456.8024 585.4201,-450.3179 583.205,-456.9582"/>
</g>
<!-- Node292508 -->
<g id="node23" class="node">
<title>Node292508</title>
<g id="a_node23"><a xlink:href="quickjs_8c.html#a89f38938cee8077ce1fbba07946ed185" target="_top" xlink:title="__JS_AtomToUInt32">
<polygon fill="none" stroke="#000000" points="576.5,-418.5 576.5,-437.5 684.5,-437.5 684.5,-418.5 576.5,-418.5"/>
<text text-anchor="middle" x="630.5" y="-425.5" font-family="Helvetica,sans-Serif" font-size="10.00" fill="#000000">__JS_AtomToUInt32</text>
</a>
</g>
</g>
<!-- Node292481&#45;&gt;Node292508 -->
<g id="edge27" class="edge">
<title>Node292481&#45;&gt;Node292508</title>
<path fill="none" stroke="#191970" d="M519.8466,-399.589C539.2009,-404.5583 563.0304,-410.6767 583.6126,-415.9613"/>
<polygon fill="#191970" stroke="#191970" points="582.8656,-419.383 593.4219,-418.4799 584.6065,-412.6029 582.8656,-419.383"/>
</g>
<!-- Node292841 -->
<g id="node24" class="node">
<title>Node292841</title>
<g id="a_node24"><a xlink:href="quickjs_8c.html#a68c7ae36cec3bf8bbf6cc0868a71cc4b" target="_top" xlink:title="check_define_prop_flags">
<polygon fill="none" stroke="#000000" points="568,-380.5 568,-399.5 693,-399.5 693,-380.5 568,-380.5"/>
<text text-anchor="middle" x="630.5" y="-387.5" font-family="Helvetica,sans-Serif" font-size="10.00" fill="#000000">check_define_prop_flags</text>
</a>
</g>
</g>
<!-- Node292481&#45;&gt;Node292841 -->
<g id="edge28" class="edge">
<title>Node292481&#45;&gt;Node292841</title>
<path fill="none" stroke="#191970" d="M532.1936,-390C540.4022,-390 549.0597,-390 557.6955,-390"/>
<polygon fill="#191970" stroke="#191970" points="557.7951,-393.5001 567.795,-390 557.795,-386.5001 557.7951,-393.5001"/>
</g>
<!-- Node292481&#45;&gt;Node292503 -->
<g id="edge32" class="edge">
<title>Node292481&#45;&gt;Node292503</title>
<path fill="none" stroke="#191970" d="M490.0382,-380.3866C507.2069,-358.7076 549.1842,-306.969 568,-295 571.2968,-292.9028 574.8383,-291.026 578.4989,-289.3482"/>
<polygon fill="#191970" stroke="#191970" points="579.8281,-292.5861 587.7717,-285.5755 577.19,-286.1022 579.8281,-292.5861"/>
</g>
<!-- Node292546 -->
<g id="node26" class="node">
<title>Node292546</title>
<g id="a_node26"><a xlink:href="quickjs_8h.html#a2050bc428da1c65ac7eb87c3fa3b0392" target="_top" xlink:title="JS_NewInt32">
<polygon fill="none" stroke="#000000" points="592.5,-304.5 592.5,-323.5 668.5,-323.5 668.5,-304.5 592.5,-304.5"/>
<text text-anchor="middle" x="630.5" y="-311.5" font-family="Helvetica,sans-Serif" font-size="10.00" fill="#000000">JS_NewInt32</text>
</a>
</g>
</g>
<!-- Node292481&#45;&gt;Node292546 -->
<g id="edge33" class="edge">
<title>Node292481&#45;&gt;Node292546</title>
<path fill="none" stroke="#191970" d="M504.713,-380.4422C513.4383,-376.3788 523.4026,-371.3453 532,-366 549.214,-355.2975 550.3478,-347.9631 568,-338 575.1963,-333.9383 583.2158,-330.2817 591.0462,-327.1183"/>
<polygon fill="#191970" stroke="#191970" points="592.3568,-330.3643 600.4359,-323.5102 589.8459,-323.8301 592.3568,-330.3643"/>
</g>
<!-- Node292776&#45;&gt;Node292480 -->
<g id="edge37" class="edge">
<title>Node292776&#45;&gt;Node292480</title>
<path fill="none" stroke="#191970" d="M204.8935,-361.589C227.2626,-366.6487 254.8982,-372.8996 278.5472,-378.2488"/>
<polygon fill="#191970" stroke="#191970" points="277.8856,-381.6875 288.4114,-380.4799 279.4299,-374.8599 277.8856,-381.6875"/>
</g>
<!-- Node292776&#45;&gt;Node292546 -->
<g id="edge38" class="edge">
<title>Node292776&#45;&gt;Node292546</title>
<path fill="none" stroke="#191970" d="M228.0376,-349.256C302.0017,-345.8077 425.8536,-338.9745 532,-328 548.3488,-326.3097 566.1529,-323.9417 582.0716,-321.6333"/>
<polygon fill="#191970" stroke="#191970" points="582.8451,-325.0571 592.226,-320.1327 581.8217,-318.1323 582.8451,-325.0571"/>
</g>
</g>
</svg>
