<?xml version="1.0" encoding="UTF-8" standalone="no"?>
<!DOCTYPE svg PUBLIC "-//W3C//DTD SVG 1.1//EN"
 "http://www.w3.org/Graphics/SVG/1.1/DTD/svg11.dtd">
<!-- Generated by graphviz version 2.40.1 (20161225.0304)
 -->
<!-- Title: JS_SetConstructor Pages: 1 -->
<svg width="936pt" height="294pt"
 viewBox="0.00 0.00 936.00 294.00" xmlns="http://www.w3.org/2000/svg" xmlns:xlink="http://www.w3.org/1999/xlink">
<g id="graph0" class="graph" transform="scale(1 1) rotate(0) translate(4 290)">
<title>JS_SetConstructor</title>
<!-- Node88539 -->
<g id="node1" class="node">
<title>Node88539</title>
<polygon fill="#bfbfbf" stroke="#000000" points="0,-38.5 0,-57.5 100,-57.5 100,-38.5 0,-38.5"/>
<text text-anchor="middle" x="50" y="-45.5" font-family="Helvetica,sans-Serif" font-size="10.00" fill="#000000">JS_SetConstructor</text>
</g>
<!-- Node88540 -->
<g id="node2" class="node">
<title>Node88540</title>
<g id="a_node2"><a xlink:href="quickjs_8c.html#a177d09828596bfe6df4bd90b2e93989d" target="_top" xlink:title="JS_AddIntrinsicTypedArrays">
<polygon fill="none" stroke="#000000" points="515.5,-76.5 515.5,-95.5 656.5,-95.5 656.5,-76.5 515.5,-76.5"/>
<text text-anchor="middle" x="586" y="-83.5" font-family="Helvetica,sans-Serif" font-size="10.00" fill="#000000">JS_AddIntrinsicTypedArrays</text>
</a>
</g>
</g>
<!-- Node88539&#45;&gt;Node88540 -->
<g id="edge1" class="edge">
<title>Node88539&#45;&gt;Node88540</title>
<path fill="none" stroke="#191970" d="M110.0549,-48.1746C193.1921,-48.9817 347.9344,-52.5245 479,-67 499.1594,-69.2265 521.2559,-72.9335 540.1077,-76.4849"/>
<polygon fill="#191970" stroke="#191970" points="110.0629,-44.6747 100.0328,-48.0873 110.0019,-51.6744 110.0629,-44.6747"/>
</g>
<!-- Node88545 -->
<g id="node5" class="node">
<title>Node88545</title>
<g id="a_node5"><a xlink:href="quickjs_8c.html#acd5457d29e9641ae5e3a1d778f94bd0e" target="_top" xlink:title="JS_NewGlobalCConstructor2">
<polygon fill="none" stroke="#000000" points="136,-152.5 136,-171.5 282,-171.5 282,-152.5 136,-152.5"/>
<text text-anchor="middle" x="209" y="-159.5" font-family="Helvetica,sans-Serif" font-size="10.00" fill="#000000">JS_NewGlobalCConstructor2</text>
</a>
</g>
</g>
<!-- Node88539&#45;&gt;Node88545 -->
<g id="edge4" class="edge">
<title>Node88539&#45;&gt;Node88545</title>
<path fill="none" stroke="#191970" d="M71.437,-63.3699C104.6912,-87.2125 167.755,-132.4281 195.418,-152.262"/>
<polygon fill="#191970" stroke="#191970" points="73.4492,-60.506 63.2828,-57.5235 69.3703,-66.1949 73.4492,-60.506"/>
</g>
<!-- Node88553 -->
<g id="node13" class="node">
<title>Node88553</title>
<g id="a_node13"><a xlink:href="quickjs-libc_8c.html#a066e7962ce24f22d5df20968a8baa346" target="_top" xlink:title="js_os_init">
<polygon fill="none" stroke="#000000" points="180,-.5 180,-19.5 238,-19.5 238,-.5 180,-.5"/>
<text text-anchor="middle" x="209" y="-7.5" font-family="Helvetica,sans-Serif" font-size="10.00" fill="#000000">js_os_init</text>
</a>
</g>
</g>
<!-- Node88539&#45;&gt;Node88553 -->
<g id="edge20" class="edge">
<title>Node88539&#45;&gt;Node88553</title>
<path fill="none" stroke="#191970" d="M99.9324,-36.0665C126.249,-29.777 157.6065,-22.2827 179.9294,-16.9477"/>
<polygon fill="#191970" stroke="#191970" points="99.0349,-32.6823 90.1224,-38.411 100.6621,-39.4906 99.0349,-32.6823"/>
</g>
<!-- Node88541 -->
<g id="node3" class="node">
<title>Node88541</title>
<g id="a_node3"><a xlink:href="quickjs_8c.html#ad8aedb643b8753b7a15f6cb2df61945e" target="_top" xlink:title="JS_NewContext">
<polygon fill="none" stroke="#000000" points="693,-171.5 693,-190.5 782,-190.5 782,-171.5 693,-171.5"/>
<text text-anchor="middle" x="737.5" y="-178.5" font-family="Helvetica,sans-Serif" font-size="10.00" fill="#000000">JS_NewContext</text>
</a>
</g>
</g>
<!-- Node88540&#45;&gt;Node88541 -->
<g id="edge2" class="edge">
<title>Node88540&#45;&gt;Node88541</title>
<path fill="none" stroke="#191970" d="M644.353,-99.0412C648.739,-100.7936 653.0062,-102.771 657,-105 688.5521,-122.6102 717.1762,-155.3427 730.1566,-171.4894"/>
<polygon fill="#191970" stroke="#191970" points="645.2167,-95.6328 634.6221,-95.5538 642.855,-102.2224 645.2167,-95.6328"/>
</g>
<!-- Node88542 -->
<g id="node4" class="node">
<title>Node88542</title>
<g id="a_node4"><a xlink:href="classqjs_1_1Context.html#a4392a23648acfc4bf6b445336efb5007" target="_top" xlink:title="qjs::Context::Context">
<polygon fill="none" stroke="#ff0000" points="818,-171.5 818,-190.5 928,-190.5 928,-171.5 818,-171.5"/>
<text text-anchor="middle" x="873" y="-178.5" font-family="Helvetica,sans-Serif" font-size="10.00" fill="#000000">qjs::Context::Context</text>
</a>
</g>
</g>
<!-- Node88541&#45;&gt;Node88542 -->
<g id="edge3" class="edge">
<title>Node88541&#45;&gt;Node88542</title>
<path fill="none" stroke="#191970" d="M792.3476,-181C800.7739,-181 809.4767,-181 817.9083,-181"/>
<polygon fill="#191970" stroke="#191970" points="792.2433,-177.5001 782.2433,-181 792.2433,-184.5001 792.2433,-177.5001"/>
</g>
<!-- Node88545&#45;&gt;Node88540 -->
<g id="edge11" class="edge">
<title>Node88545&#45;&gt;Node88540</title>
<path fill="none" stroke="#191970" d="M260.8962,-150.2949C278.9503,-146.2968 299.3488,-141.8622 318,-138 393.1857,-122.4311 480.5355,-105.7431 534.5461,-95.587"/>
<polygon fill="#191970" stroke="#191970" points="260.1357,-146.8785 251.1333,-152.4648 261.6545,-153.7117 260.1357,-146.8785"/>
</g>
<!-- Node88546 -->
<g id="node6" class="node">
<title>Node88546</title>
<g id="a_node6"><a xlink:href="quickjs_8c.html#a4c9489297c684663f30e517204a9ec14" target="_top" xlink:title="JS_AddIntrinsicBaseObjects">
<polygon fill="none" stroke="#000000" points="515,-114.5 515,-133.5 657,-133.5 657,-114.5 515,-114.5"/>
<text text-anchor="middle" x="586" y="-121.5" font-family="Helvetica,sans-Serif" font-size="10.00" fill="#000000">JS_AddIntrinsicBaseObjects</text>
</a>
</g>
</g>
<!-- Node88545&#45;&gt;Node88546 -->
<g id="edge5" class="edge">
<title>Node88545&#45;&gt;Node88546</title>
<path fill="none" stroke="#191970" d="M292.2411,-155.4975C345.6631,-151.1029 416.4864,-144.8651 479,-138 491.1048,-136.6707 503.9607,-135.1139 516.406,-133.5307"/>
<polygon fill="#191970" stroke="#191970" points="291.8172,-152.0204 282.1358,-156.3239 292.3879,-158.9971 291.8172,-152.0204"/>
</g>
<!-- Node88547 -->
<g id="node7" class="node">
<title>Node88547</title>
<g id="a_node7"><a xlink:href="quickjs_8c.html#a4497f8c7cf2ec38da989910ae8b1f042" target="_top" xlink:title="JS_AddIntrinsicMapSet">
<polygon fill="none" stroke="#000000" points="339,-266.5 339,-285.5 458,-285.5 458,-266.5 339,-266.5"/>
<text text-anchor="middle" x="398.5" y="-273.5" font-family="Helvetica,sans-Serif" font-size="10.00" fill="#000000">JS_AddIntrinsicMapSet</text>
</a>
</g>
</g>
<!-- Node88545&#45;&gt;Node88547 -->
<g id="edge7" class="edge">
<title>Node88545&#45;&gt;Node88547</title>
<path fill="none" stroke="#191970" d="M223.7504,-179.2165C243.158,-200.7405 279.3605,-237.1615 318,-257 325.5369,-260.8696 333.8755,-263.9648 342.2461,-266.437"/>
<polygon fill="#191970" stroke="#191970" points="226.1853,-176.6861 216.9431,-171.5061 220.9378,-181.319 226.1853,-176.6861"/>
</g>
<!-- Node88548 -->
<g id="node8" class="node">
<title>Node88548</title>
<g id="a_node8"><a xlink:href="quickjs_8c.html#a2e66fcf1bc1d19f346317f10ee590621" target="_top" xlink:title="JS_AddIntrinsicPromise">
<polygon fill="none" stroke="#000000" points="337.5,-228.5 337.5,-247.5 459.5,-247.5 459.5,-228.5 337.5,-228.5"/>
<text text-anchor="middle" x="398.5" y="-235.5" font-family="Helvetica,sans-Serif" font-size="10.00" fill="#000000">JS_AddIntrinsicPromise</text>
</a>
</g>
</g>
<!-- Node88545&#45;&gt;Node88548 -->
<g id="edge9" class="edge">
<title>Node88545&#45;&gt;Node88548</title>
<path fill="none" stroke="#191970" d="M233.1049,-176.8542C254.6709,-189.5891 287.4966,-207.6296 318,-219 327.9569,-222.7115 338.8838,-225.8649 349.388,-228.4727"/>
<polygon fill="#191970" stroke="#191970" points="234.6915,-173.7247 224.3144,-171.5879 231.0941,-179.7296 234.6915,-173.7247"/>
</g>
<!-- Node88549 -->
<g id="node9" class="node">
<title>Node88549</title>
<g id="a_node9"><a xlink:href="quickjs_8c.html#a293feb2179c9a722b2bd410bc2c5c173" target="_top" xlink:title="JS_NewGlobalCConstructor">
<polygon fill="none" stroke="#000000" points="328.5,-190.5 328.5,-209.5 468.5,-209.5 468.5,-190.5 328.5,-190.5"/>
<text text-anchor="middle" x="398.5" y="-197.5" font-family="Helvetica,sans-Serif" font-size="10.00" fill="#000000">JS_NewGlobalCConstructor</text>
</a>
</g>
</g>
<!-- Node88545&#45;&gt;Node88549 -->
<g id="edge12" class="edge">
<title>Node88545&#45;&gt;Node88549</title>
<path fill="none" stroke="#191970" d="M266.8948,-173.6095C293.846,-179.014 325.5102,-185.3635 351.025,-190.4799"/>
<polygon fill="#191970" stroke="#191970" points="267.3118,-170.1235 256.8189,-171.589 265.9355,-176.9869 267.3118,-170.1235"/>
</g>
<!-- Node88552 -->
<g id="node12" class="node">
<title>Node88552</title>
<g id="a_node12"><a xlink:href="quickjs_8c.html#abc33a664e231090ec89f9d9975e21229" target="_top" xlink:title="JS_NewGlobalCConstructorOnly">
<polygon fill="none" stroke="#000000" points="318,-76.5 318,-95.5 479,-95.5 479,-76.5 318,-76.5"/>
<text text-anchor="middle" x="398.5" y="-83.5" font-family="Helvetica,sans-Serif" font-size="10.00" fill="#000000">JS_NewGlobalCConstructorOnly</text>
</a>
</g>
</g>
<!-- Node88545&#45;&gt;Node88552 -->
<g id="edge18" class="edge">
<title>Node88545&#45;&gt;Node88552</title>
<path fill="none" stroke="#191970" d="M235.7153,-147.8172C257.473,-136.6194 289.1942,-121.0879 318,-110 332.1545,-104.5516 348.0942,-99.5691 362.0324,-95.5732"/>
<polygon fill="#191970" stroke="#191970" points="234.0116,-144.7581 226.7524,-152.4752 237.2396,-150.9694 234.0116,-144.7581"/>
</g>
<!-- Node88546&#45;&gt;Node88541 -->
<g id="edge6" class="edge">
<title>Node88546&#45;&gt;Node88541</title>
<path fill="none" stroke="#191970" d="M636.6101,-136.3447C643.523,-138.3785 650.4797,-140.6106 657,-143 679.2017,-151.1359 703.6195,-163.1202 719.6741,-171.4468"/>
<polygon fill="#191970" stroke="#191970" points="637.1438,-132.8587 626.5691,-133.5117 635.2429,-139.5957 637.1438,-132.8587"/>
</g>
<!-- Node88547&#45;&gt;Node88541 -->
<g id="edge8" class="edge">
<title>Node88547&#45;&gt;Node88541</title>
<path fill="none" stroke="#191970" d="M468.2675,-276.4147C521.7522,-274.4926 596.4204,-266.8742 657,-242 686.1974,-230.0114 714.1339,-204.7243 728.1479,-190.7667"/>
<polygon fill="#191970" stroke="#191970" points="468.0897,-272.9184 458.1998,-276.7185 468.3009,-279.9152 468.0897,-272.9184"/>
</g>
<!-- Node88548&#45;&gt;Node88541 -->
<g id="edge10" class="edge">
<title>Node88548&#45;&gt;Node88541</title>
<path fill="none" stroke="#191970" d="M469.8309,-239.7226C522.3949,-239.3244 595.189,-235.2581 657,-219 680.7644,-212.7493 706.0625,-199.6043 721.8218,-190.5403"/>
<polygon fill="#191970" stroke="#191970" points="469.5857,-236.2233 459.5971,-239.7559 469.6085,-243.2233 469.5857,-236.2233"/>
</g>
<!-- Node88549&#45;&gt;Node88546 -->
<g id="edge13" class="edge">
<title>Node88549&#45;&gt;Node88546</title>
<path fill="none" stroke="#191970" d="M453.0798,-187.3957C462.0298,-184.3055 470.9881,-180.5433 479,-176 497.8807,-165.2935 495.9698,-153.4386 515,-143 522.0482,-139.1339 529.9272,-136.0199 537.8014,-133.5221"/>
<polygon fill="#191970" stroke="#191970" points="451.8727,-184.1071 443.4165,-190.4901 454.0075,-190.7736 451.8727,-184.1071"/>
</g>
<!-- Node88550 -->
<g id="node10" class="node">
<title>Node88550</title>
<g id="a_node10"><a xlink:href="quickjs_8c.html#a8ecbf5799518b7bfc3fefd47c7a0dd4e" target="_top" xlink:title="JS_AddIntrinsicDate">
<polygon fill="none" stroke="#000000" points="532.5,-152.5 532.5,-171.5 639.5,-171.5 639.5,-152.5 532.5,-152.5"/>
<text text-anchor="middle" x="586" y="-159.5" font-family="Helvetica,sans-Serif" font-size="10.00" fill="#000000">JS_AddIntrinsicDate</text>
</a>
</g>
</g>
<!-- Node88549&#45;&gt;Node88550 -->
<g id="edge14" class="edge">
<title>Node88549&#45;&gt;Node88550</title>
<path fill="none" stroke="#191970" d="M455.7838,-188.3905C482.4506,-182.986 513.7805,-176.6365 539.0261,-171.5201"/>
<polygon fill="#191970" stroke="#191970" points="454.9197,-184.9944 445.8142,-190.411 456.3101,-191.8549 454.9197,-184.9944"/>
</g>
<!-- Node88551 -->
<g id="node11" class="node">
<title>Node88551</title>
<g id="a_node11"><a xlink:href="quickjs_8c.html#aafc8241682ce24b6d72e0f237ee85a51" target="_top" xlink:title="JS_AddIntrinsicRegExp">
<polygon fill="none" stroke="#000000" points="525.5,-190.5 525.5,-209.5 646.5,-209.5 646.5,-190.5 525.5,-190.5"/>
<text text-anchor="middle" x="586" y="-197.5" font-family="Helvetica,sans-Serif" font-size="10.00" fill="#000000">JS_AddIntrinsicRegExp</text>
</a>
</g>
</g>
<!-- Node88549&#45;&gt;Node88551 -->
<g id="edge16" class="edge">
<title>Node88549&#45;&gt;Node88551</title>
<path fill="none" stroke="#191970" d="M478.732,-200C494.3133,-200 510.4034,-200 525.2319,-200"/>
<polygon fill="#191970" stroke="#191970" points="478.5848,-196.5001 468.5847,-200 478.5847,-203.5001 478.5848,-196.5001"/>
</g>
<!-- Node88550&#45;&gt;Node88541 -->
<g id="edge15" class="edge">
<title>Node88550&#45;&gt;Node88541</title>
<path fill="none" stroke="#191970" d="M650.1674,-170.0474C664.5307,-171.8487 679.463,-173.7214 692.8325,-175.3981"/>
<polygon fill="#191970" stroke="#191970" points="650.1976,-166.5239 639.8398,-168.7522 649.3265,-173.4694 650.1976,-166.5239"/>
</g>
<!-- Node88551&#45;&gt;Node88541 -->
<g id="edge17" class="edge">
<title>Node88551&#45;&gt;Node88541</title>
<path fill="none" stroke="#191970" d="M656.8909,-191.1094C669.0457,-189.585 681.368,-188.0397 692.5992,-186.6311"/>
<polygon fill="#191970" stroke="#191970" points="656.2346,-187.6642 646.7479,-192.3815 657.1057,-194.6098 656.2346,-187.6642"/>
</g>
<!-- Node88552&#45;&gt;Node88540 -->
<g id="edge19" class="edge">
<title>Node88552&#45;&gt;Node88540</title>
<path fill="none" stroke="#191970" d="M489.3745,-86C498.1515,-86 506.9621,-86 515.4983,-86"/>
<polygon fill="#191970" stroke="#191970" points="489.1051,-82.5001 479.105,-86 489.105,-89.5001 489.1051,-82.5001"/>
</g>
<!-- Node88554 -->
<g id="node14" class="node">
<title>Node88554</title>
<g id="a_node14"><a xlink:href="quickjs-libc_8c.html#adcca2b4a661355e6ff87a0def2339894" target="_top" xlink:title="js_init_module_os">
<polygon fill="none" stroke="#000000" points="351,-.5 351,-19.5 446,-19.5 446,-.5 351,-.5"/>
<text text-anchor="middle" x="398.5" y="-7.5" font-family="Helvetica,sans-Serif" font-size="10.00" fill="#000000">js_init_module_os</text>
</a>
</g>
</g>
<!-- Node88553&#45;&gt;Node88554 -->
<g id="edge21" class="edge">
<title>Node88553&#45;&gt;Node88554</title>
<path fill="none" stroke="#191970" d="M248.2277,-10C278.025,-10 319.142,-10 350.835,-10"/>
<polygon fill="#191970" stroke="#191970" points="248.1941,-6.5001 238.1941,-10 248.194,-13.5001 248.1941,-6.5001"/>
</g>
<!-- Node88544 -->
<g id="node15" class="node">
<title>Node88544</title>
<g id="a_node15"><a xlink:href="qjs_8cpp.html#a3c04138a5bfe5d72780bb7e82a18e627" target="_top" xlink:title="main">
<polygon fill="none" stroke="#000000" points="567,-.5 567,-19.5 605,-19.5 605,-.5 567,-.5"/>
<text text-anchor="middle" x="586" y="-7.5" font-family="Helvetica,sans-Serif" font-size="10.00" fill="#000000">main</text>
</a>
</g>
</g>
<!-- Node88554&#45;&gt;Node88544 -->
<g id="edge22" class="edge">
<title>Node88554&#45;&gt;Node88544</title>
<path fill="none" stroke="#191970" d="M456.6578,-10C494.3174,-10 540.9755,-10 566.7006,-10"/>
<polygon fill="#191970" stroke="#191970" points="456.2993,-6.5001 446.2993,-10 456.2993,-13.5001 456.2993,-6.5001"/>
</g>
</g>
</svg>
