<?xml version="1.0" encoding="UTF-8" standalone="no"?>
<!DOCTYPE svg PUBLIC "-//W3C//DTD SVG 1.1//EN"
 "http://www.w3.org/Graphics/SVG/1.1/DTD/svg11.dtd">
<!-- Generated by graphviz version 2.40.1 (20161225.0304)
 -->
<!-- Title: js_os_init Pages: 1 -->
<!--zoomable 641 -->
<svg id="main" version="1.1" xmlns="http://www.w3.org/2000/svg" xmlns:xlink="http://www.w3.org/1999/xlink" xml:space="preserve" onload="init(evt)">
<style type="text/css"><![CDATA[
.edge:hover path { stroke: red; }
.edge:hover polygon { stroke: red; fill: red; }
]]></style>
<script type="text/javascript"><![CDATA[
var edges = document.getElementsByTagName('g');
if (edges && edges.length) {
  for (var i=0;i<edges.length;i++) {
    if (edges[i].id.substr(0,4)=='edge') {
      edges[i].setAttribute('class','edge');
    }
  }
}
]]></script>
        <defs>
                <circle id="rim" cx="0" cy="0" r="7"/>
                <circle id="rim2" cx="0" cy="0" r="3.5"/>
                <g id="zoomPlus">
                        <use xlink:href="#rim" fill="#404040">
                                <set attributeName="fill" to="#808080" begin="zoomplus.mouseover" end="zoomplus.mouseout"/>
                        </use>
                        <path d="M-4,0h8M0,-4v8" fill="none" stroke="white" stroke-width="1.5" pointer-events="none"/>
                </g>
                <g id="zoomMin">
                        <use xlink:href="#rim" fill="#404040">
                                <set attributeName="fill" to="#808080" begin="zoomminus.mouseover" end="zoomminus.mouseout"/>
                        </use>
                        <path d="M-4,0h8" fill="none" stroke="white" stroke-width="1.5" pointer-events="none"/>
                </g>
                <g id="dirArrow">
                        <path fill="none" stroke="white" stroke-width="1.5" d="M0,-3.0v7 M-2.5,-0.5L0,-3.0L2.5,-0.5"/>
                </g>
               <g id="resetDef">
                       <use xlink:href="#rim2" fill="#404040">
                               <set attributeName="fill" to="#808080" begin="reset.mouseover" end="reset.mouseout"/>
                       </use>
               </g>
        </defs>

<script type="text/javascript">
var viewWidth = 683;
var viewHeight = 641;
var sectionId = 'dynsection-136';
</script>
<script xlink:href="svgpan.js"/>
<svg id="graph" class="graph">
<g id="viewport">
<title>js_os_init</title>
<!-- Node28870 -->
<g id="node1" class="node">
<title>Node28870</title>
<polygon fill="#bfbfbf" stroke="#000000" points="0,-399.5 0,-418.5 58,-418.5 58,-399.5 0,-399.5"/>
<text text-anchor="middle" x="29" y="-406.5" font-family="Helvetica,sans-Serif" font-size="10.00" fill="#000000">js_os_init</text>
</g>
<!-- Node28871 -->
<g id="node2" class="node">
<title>Node28871</title>
<g id="a_node2"><a xlink:href="quickjs_8c.html#af1866c7f8a91153f11602a2b521d9399" target="_top" xlink:title="JS_GetRuntime">
<polygon fill="none" stroke="#000000" points="281.5,-608.5 281.5,-627.5 367.5,-627.5 367.5,-608.5 281.5,-608.5"/>
<text text-anchor="middle" x="324.5" y="-615.5" font-family="Helvetica,sans-Serif" font-size="10.00" fill="#000000">JS_GetRuntime</text>
</a>
</g>
</g>
<!-- Node28870&#45;&gt;Node28871 -->
<g id="edge1" class="edge">
<title>Node28870&#45;&gt;Node28871</title>
<path fill="none" stroke="#191970" d="M30.8897,-418.7729C37.9643,-454.2878 64.0196,-575.6499 94,-599 144.0861,-638.0093 220.2267,-636.0811 271.1342,-628.9023"/>
<polygon fill="#191970" stroke="#191970" points="271.9215,-632.3228 281.2797,-627.3555 270.8664,-625.4028 271.9215,-632.3228"/>
</g>
<!-- Node28872 -->
<g id="node3" class="node">
<title>Node28872</title>
<g id="a_node3"><a xlink:href="quickjs_8c.html#a76d4772691a319f48dc636a0e7f6c1ed" target="_top" xlink:title="JS_NewCFunction2">
<polygon fill="none" stroke="#000000" points="104.5,-494.5 104.5,-513.5 208.5,-513.5 208.5,-494.5 104.5,-494.5"/>
<text text-anchor="middle" x="156.5" y="-501.5" font-family="Helvetica,sans-Serif" font-size="10.00" fill="#000000">JS_NewCFunction2</text>
</a>
</g>
</g>
<!-- Node28870&#45;&gt;Node28872 -->
<g id="edge2" class="edge">
<title>Node28870&#45;&gt;Node28872</title>
<path fill="none" stroke="#191970" d="M35.5022,-418.581C46.1264,-433.5825 68.5875,-462.6866 94,-480 100.0756,-484.1393 106.9643,-487.6983 113.8933,-490.711"/>
<polygon fill="#191970" stroke="#191970" points="112.7104,-494.0075 123.2945,-494.4838 115.3175,-487.5111 112.7104,-494.0075"/>
</g>
<!-- Node29305 -->
<g id="node8" class="node">
<title>Node29305</title>
<g id="a_node8"><a xlink:href="quickjs_8c.html#a9f0339d81c06451de278073572cc194e" target="_top" xlink:title="JS_NewClass">
<polygon fill="none" stroke="#000000" points="116.5,-133.5 116.5,-152.5 196.5,-152.5 196.5,-133.5 116.5,-133.5"/>
<text text-anchor="middle" x="156.5" y="-140.5" font-family="Helvetica,sans-Serif" font-size="10.00" fill="#000000">JS_NewClass</text>
</a>
</g>
</g>
<!-- Node28870&#45;&gt;Node29305 -->
<g id="edge7" class="edge">
<title>Node28870&#45;&gt;Node29305</title>
<path fill="none" stroke="#191970" d="M33.689,-399.2175C52.4742,-360.0265 122.4824,-213.9701 147.5228,-161.7289"/>
<polygon fill="#191970" stroke="#191970" points="150.7366,-163.1214 151.9028,-152.591 144.4242,-160.0958 150.7366,-163.1214"/>
</g>
<!-- Node29309 -->
<g id="node13" class="node">
<title>Node29309</title>
<g id="a_node13"><a xlink:href="quickjs_8c.html#a4f56d0a794368a8861c89819fc79cdb5" target="_top" xlink:title="JS_NewClassID">
<polygon fill="none" stroke="#000000" points="111.5,-95.5 111.5,-114.5 201.5,-114.5 201.5,-95.5 111.5,-95.5"/>
<text text-anchor="middle" x="156.5" y="-102.5" font-family="Helvetica,sans-Serif" font-size="10.00" fill="#000000">JS_NewClassID</text>
</a>
</g>
</g>
<!-- Node28870&#45;&gt;Node29309 -->
<g id="edge12" class="edge">
<title>Node28870&#45;&gt;Node29309</title>
<path fill="none" stroke="#191970" d="M29.9167,-399.3125C34.3643,-354.2734 55.0848,-165.7764 94,-124 96.4712,-121.3471 99.2999,-119.0605 102.3582,-117.09"/>
<polygon fill="#191970" stroke="#191970" points="104.2315,-120.0605 111.4791,-112.3324 100.9941,-113.8541 104.2315,-120.0605"/>
</g>
<!-- Node29051 -->
<g id="node14" class="node">
<title>Node29051</title>
<g id="a_node14"><a xlink:href="quickjs_8c.html#afc0d8ea75588216ec132a6e1655524a7" target="_top" xlink:title="JS_NewObject">
<polygon fill="none" stroke="#000000" points="283,-418.5 283,-437.5 366,-437.5 366,-418.5 283,-418.5"/>
<text text-anchor="middle" x="324.5" y="-425.5" font-family="Helvetica,sans-Serif" font-size="10.00" fill="#000000">JS_NewObject</text>
</a>
</g>
</g>
<!-- Node28870&#45;&gt;Node29051 -->
<g id="edge13" class="edge">
<title>Node28870&#45;&gt;Node29051</title>
<path fill="none" stroke="#191970" d="M58.1424,-410.8738C108.0721,-414.0842 210.5988,-420.6764 272.8726,-424.6805"/>
<polygon fill="#191970" stroke="#191970" points="272.6788,-428.1751 282.8828,-425.3241 273.128,-421.1896 272.6788,-428.1751"/>
</g>
<!-- Node29310 -->
<g id="node15" class="node">
<title>Node29310</title>
<g id="a_node15"><a xlink:href="quickjs-libc_8c.html#ac6c5f34cb0df6ab0d7579f0f20908a2c" target="_top" xlink:title="js_os_poll">
<polygon fill="none" stroke="#000000" points="126.5,-570.5 126.5,-589.5 186.5,-589.5 186.5,-570.5 126.5,-570.5"/>
<text text-anchor="middle" x="156.5" y="-577.5" font-family="Helvetica,sans-Serif" font-size="10.00" fill="#000000">js_os_poll</text>
</a>
</g>
</g>
<!-- Node28870&#45;&gt;Node29310 -->
<g id="edge15" class="edge">
<title>Node28870&#45;&gt;Node29310</title>
<path fill="none" stroke="#191970" d="M30.3106,-418.8243C34.4217,-445.7123 49.5516,-521.1494 94,-561 100.4334,-566.7679 108.5731,-570.7855 116.8338,-573.5837"/>
<polygon fill="#191970" stroke="#191970" points="115.9151,-576.9612 126.4917,-576.3403 117.8364,-570.23 115.9151,-576.9612"/>
</g>
<!-- Node29311 -->
<g id="node16" class="node">
<title>Node29311</title>
<g id="a_node16"><a xlink:href="quickjs_8c.html#a742ee8af627e4502758e503d152b0cd0" target="_top" xlink:title="JS_SetClassProto">
<polygon fill="none" stroke="#000000" points="107.5,-342.5 107.5,-361.5 205.5,-361.5 205.5,-342.5 107.5,-342.5"/>
<text text-anchor="middle" x="156.5" y="-349.5" font-family="Helvetica,sans-Serif" font-size="10.00" fill="#000000">JS_SetClassProto</text>
</a>
</g>
</g>
<!-- Node28870&#45;&gt;Node29311 -->
<g id="edge17" class="edge">
<title>Node28870&#45;&gt;Node29311</title>
<path fill="none" stroke="#191970" d="M46.6939,-399.3924C59.631,-392.522 77.6933,-383.2472 94,-376 102.4117,-372.2616 111.6003,-368.5394 120.2802,-365.1811"/>
<polygon fill="#191970" stroke="#191970" points="121.6924,-368.3886 129.7953,-361.5626 119.2042,-361.8457 121.6924,-368.3886"/>
</g>
<!-- Node29312 -->
<g id="node19" class="node">
<title>Node29312</title>
<g id="a_node19"><a xlink:href="quickjs_8c.html#ad4850b99c142ea2d6d1b276efebb62e0" target="_top" xlink:title="JS_SetConstructor">
<polygon fill="none" stroke="#000000" points="106.5,-19.5 106.5,-38.5 206.5,-38.5 206.5,-19.5 106.5,-19.5"/>
<text text-anchor="middle" x="156.5" y="-26.5" font-family="Helvetica,sans-Serif" font-size="10.00" fill="#000000">JS_SetConstructor</text>
</a>
</g>
</g>
<!-- Node28870&#45;&gt;Node29312 -->
<g id="edge20" class="edge">
<title>Node28870&#45;&gt;Node29312</title>
<path fill="none" stroke="#191970" d="M30.1195,-399.3671C35.7641,-351.841 62.0944,-142.3776 94,-86 103.434,-69.33 119.4787,-54.8503 132.9491,-44.6563"/>
<polygon fill="#191970" stroke="#191970" points="135.2793,-47.2906 141.3339,-38.5963 131.1789,-41.6172 135.2793,-47.2906"/>
</g>
<!-- Node29314 -->
<g id="node21" class="node">
<title>Node29314</title>
<g id="a_node21"><a xlink:href="quickjs_8c.html#acc3990661d2851b858601061a62cc7d6" target="_top" xlink:title="JS_SetModuleExport">
<polygon fill="none" stroke="#000000" points="270,-380.5 270,-399.5 379,-399.5 379,-380.5 270,-380.5"/>
<text text-anchor="middle" x="324.5" y="-387.5" font-family="Helvetica,sans-Serif" font-size="10.00" fill="#000000">JS_SetModuleExport</text>
</a>
</g>
</g>
<!-- Node28870&#45;&gt;Node29314 -->
<g id="edge22" class="edge">
<title>Node28870&#45;&gt;Node29314</title>
<path fill="none" stroke="#191970" d="M58.1424,-407.1262C104.6929,-404.1331 196.9618,-398.2004 259.7043,-394.1662"/>
<polygon fill="#191970" stroke="#191970" points="260.1406,-397.6455 269.8954,-393.511 259.6914,-390.6599 260.1406,-397.6455"/>
</g>
<!-- Node29315 -->
<g id="node23" class="node">
<title>Node29315</title>
<g id="a_node23"><a xlink:href="quickjs_8c.html#a04f1ec3f8d1f5c012280eb23e64a7b58" target="_top" xlink:title="JS_SetModuleExportList">
<polygon fill="none" stroke="#000000" points="94,-304.5 94,-323.5 219,-323.5 219,-304.5 94,-304.5"/>
<text text-anchor="middle" x="156.5" y="-311.5" font-family="Helvetica,sans-Serif" font-size="10.00" fill="#000000">JS_SetModuleExportList</text>
</a>
</g>
</g>
<!-- Node28870&#45;&gt;Node29315 -->
<g id="edge28" class="edge">
<title>Node28870&#45;&gt;Node29315</title>
<path fill="none" stroke="#191970" d="M34.6988,-399.2857C44.6697,-383.1319 66.8282,-350.7706 94,-333 97.1262,-330.9554 100.4826,-329.1224 103.9582,-327.4805"/>
<polygon fill="#191970" stroke="#191970" points="105.4738,-330.6407 113.3604,-323.5659 102.7833,-324.1784 105.4738,-330.6407"/>
</g>
<!-- Node29316 -->
<g id="node28" class="node">
<title>Node29316</title>
<g id="a_node28"><a xlink:href="quickjs_8c.html#ac00854b7f1f0f8567af964a2f8f2adb0" target="_top" xlink:title="JS_SetPropertyFunctionList">
<polygon fill="none" stroke="#ff0000" points="255,-456.5 255,-475.5 394,-475.5 394,-456.5 255,-456.5"/>
<text text-anchor="middle" x="324.5" y="-463.5" font-family="Helvetica,sans-Serif" font-size="10.00" fill="#000000">JS_SetPropertyFunctionList</text>
</a>
</g>
</g>
<!-- Node28870&#45;&gt;Node29316 -->
<g id="edge41" class="edge">
<title>Node28870&#45;&gt;Node29316</title>
<path fill="none" stroke="#191970" d="M53.7,-418.5017C65.7148,-422.8283 80.4558,-427.7067 94,-431 143.5451,-443.0471 200.1439,-451.713 244.8574,-457.4081"/>
<polygon fill="#191970" stroke="#191970" points="244.4334,-460.8823 254.7903,-458.6495 245.3016,-453.9363 244.4334,-460.8823"/>
</g>
<!-- Node29319 -->
<g id="node30" class="node">
<title>Node29319</title>
<g id="a_node30"><a xlink:href="quickjs-libc_8c.html#aff1e6131e8bf8b7eb25307623ad669e7" target="_top" xlink:title="js_worker_ctor">
<polygon fill="none" stroke="#ff0000" points="116.5,-532.5 116.5,-551.5 196.5,-551.5 196.5,-532.5 116.5,-532.5"/>
<text text-anchor="middle" x="156.5" y="-539.5" font-family="Helvetica,sans-Serif" font-size="10.00" fill="#000000">js_worker_ctor</text>
</a>
</g>
</g>
<!-- Node28870&#45;&gt;Node29319 -->
<g id="edge42" class="edge">
<title>Node28870&#45;&gt;Node29319</title>
<path fill="none" stroke="#191970" d="M31.7565,-418.568C38.5536,-440.4439 58.2162,-494.4246 94,-523 97.8412,-526.0674 102.1733,-528.6407 106.72,-530.7994"/>
<polygon fill="#191970" stroke="#191970" points="105.6833,-534.1559 116.2655,-534.6735 108.3157,-527.6697 105.6833,-534.1559"/>
</g>
<!-- Node28873 -->
<g id="node4" class="node">
<title>Node28873</title>
<g id="a_node4"><a xlink:href="quickjs_8c.html#a21cfe4c4fc9372dc0b95b37667cff0c9" target="_top" xlink:title="JS_NewCFunction3">
<polygon fill="none" stroke="#ff0000" points="272.5,-494.5 272.5,-513.5 376.5,-513.5 376.5,-494.5 272.5,-494.5"/>
<text text-anchor="middle" x="324.5" y="-501.5" font-family="Helvetica,sans-Serif" font-size="10.00" fill="#000000">JS_NewCFunction3</text>
</a>
</g>
</g>
<!-- Node28872&#45;&gt;Node28873 -->
<g id="edge3" class="edge">
<title>Node28872&#45;&gt;Node28873</title>
<path fill="none" stroke="#191970" d="M208.7353,-504C225.6443,-504 244.5672,-504 262.1352,-504"/>
<polygon fill="#191970" stroke="#191970" points="262.297,-507.5001 272.297,-504 262.2969,-500.5001 262.297,-507.5001"/>
</g>
<!-- Node28874 -->
<g id="node5" class="node">
<title>Node28874</title>
<g id="a_node5"><a xlink:href="quickjs_8c.html#a73738c650f11459db0d7af3dcdf8316b" target="_top" xlink:title="JS_NewObjectProtoClass">
<polygon fill="none" stroke="#ff0000" points="430,-494.5 430,-513.5 561,-513.5 561,-494.5 430,-494.5"/>
<text text-anchor="middle" x="495.5" y="-501.5" font-family="Helvetica,sans-Serif" font-size="10.00" fill="#000000">JS_NewObjectProtoClass</text>
</a>
</g>
</g>
<!-- Node28873&#45;&gt;Node28874 -->
<g id="edge4" class="edge">
<title>Node28873&#45;&gt;Node28874</title>
<path fill="none" stroke="#191970" d="M376.7348,-504C390.3811,-504 405.3667,-504 419.96,-504"/>
<polygon fill="#191970" stroke="#191970" points="419.9791,-507.5001 429.9791,-504 419.979,-500.5001 419.9791,-507.5001"/>
</g>
<!-- Node28958 -->
<g id="node6" class="node">
<title>Node28958</title>
<g id="a_node6"><a xlink:href="quickjs_8c.html#aa2ef5af1544a3012f91a80c98c326b8f" target="_top" xlink:title="JS_NewAtom">
<polygon fill="none" stroke="#ff0000" points="597.5,-456.5 597.5,-475.5 674.5,-475.5 674.5,-456.5 597.5,-456.5"/>
<text text-anchor="middle" x="636" y="-463.5" font-family="Helvetica,sans-Serif" font-size="10.00" fill="#000000">JS_NewAtom</text>
</a>
</g>
</g>
<!-- Node28873&#45;&gt;Node28958 -->
<g id="edge5" class="edge">
<title>Node28873&#45;&gt;Node28958</title>
<path fill="none" stroke="#191970" d="M337.2682,-513.6593C356.2718,-527.3655 393.6705,-551.8134 430,-561 486.4455,-575.2733 508.6058,-586.3904 561,-561 593.6153,-545.1946 616.3264,-507.564 627.6742,-484.6916"/>
<polygon fill="#191970" stroke="#191970" points="630.8504,-486.162 631.9608,-475.6255 624.5221,-483.1699 630.8504,-486.162"/>
</g>
<!-- Node28930 -->
<g id="node7" class="node">
<title>Node28930</title>
<g id="a_node7"><a xlink:href="quickjs_8c.html#ab7fc45a99935a1c0ba50b0216d9401a9" target="_top" xlink:title="JS_FreeAtom">
<polygon fill="none" stroke="#ff0000" points="457,-532.5 457,-551.5 534,-551.5 534,-532.5 457,-532.5"/>
<text text-anchor="middle" x="495.5" y="-539.5" font-family="Helvetica,sans-Serif" font-size="10.00" fill="#000000">JS_FreeAtom</text>
</a>
</g>
</g>
<!-- Node28873&#45;&gt;Node28930 -->
<g id="edge6" class="edge">
<title>Node28873&#45;&gt;Node28930</title>
<path fill="none" stroke="#191970" d="M367.6505,-513.589C391.7382,-518.9418 421.8254,-525.6279 446.7604,-531.169"/>
<polygon fill="#191970" stroke="#191970" points="446.2231,-534.6349 456.7442,-533.3876 447.7416,-527.8016 446.2231,-534.6349"/>
</g>
<!-- Node28961 -->
<g id="node9" class="node">
<title>Node28961</title>
<g id="a_node9"><a xlink:href="quickjs_8c.html#ac8c91ebeea0cf07e3079c49a16de739f" target="_top" xlink:title="__JS_FindAtom">
<polygon fill="none" stroke="#ff0000" points="281.5,-38.5 281.5,-57.5 367.5,-57.5 367.5,-38.5 281.5,-38.5"/>
<text text-anchor="middle" x="324.5" y="-45.5" font-family="Helvetica,sans-Serif" font-size="10.00" fill="#000000">__JS_FindAtom</text>
</a>
</g>
</g>
<!-- Node29305&#45;&gt;Node28961 -->
<g id="edge8" class="edge">
<title>Node29305&#45;&gt;Node28961</title>
<path fill="none" stroke="#191970" d="M196.5584,-135.4477C204.5045,-132.7204 212.4158,-129.0189 219,-124 242.8294,-105.8358 230.9163,-84.8257 255,-67 260.0806,-63.2396 265.8633,-60.2234 271.8731,-57.8042"/>
<polygon fill="#191970" stroke="#191970" points="273.1437,-61.0679 281.4355,-54.4728 270.8407,-54.4576 273.1437,-61.0679"/>
</g>
<!-- Node29306 -->
<g id="node10" class="node">
<title>Node29306</title>
<g id="a_node10"><a xlink:href="quickjs_8c.html#a128673f932e71b867730af75a44e3f97" target="_top" xlink:title="__JS_NewAtomInit">
<polygon fill="none" stroke="#ff0000" points="274,-152.5 274,-171.5 375,-171.5 375,-152.5 274,-152.5"/>
<text text-anchor="middle" x="324.5" y="-159.5" font-family="Helvetica,sans-Serif" font-size="10.00" fill="#000000">__JS_NewAtomInit</text>
</a>
</g>
</g>
<!-- Node29305&#45;&gt;Node29306 -->
<g id="edge9" class="edge">
<title>Node29305&#45;&gt;Node29306</title>
<path fill="none" stroke="#191970" d="M196.7402,-147.551C216.7751,-149.8168 241.418,-152.6038 263.6982,-155.1236"/>
<polygon fill="#191970" stroke="#191970" points="263.4137,-158.6137 273.7437,-156.2597 264.2004,-151.658 263.4137,-158.6137"/>
</g>
<!-- Node29307 -->
<g id="node11" class="node">
<title>Node29307</title>
<g id="a_node11"><a xlink:href="quickjs_8c.html#ab515cd66efd3e476d2c22d6a55f13194" target="_top" xlink:title="JS_NewClass1">
<polygon fill="none" stroke="#ff0000" points="282,-114.5 282,-133.5 367,-133.5 367,-114.5 282,-114.5"/>
<text text-anchor="middle" x="324.5" y="-121.5" font-family="Helvetica,sans-Serif" font-size="10.00" fill="#000000">JS_NewClass1</text>
</a>
</g>
</g>
<!-- Node29305&#45;&gt;Node29307 -->
<g id="edge10" class="edge">
<title>Node29305&#45;&gt;Node29307</title>
<path fill="none" stroke="#191970" d="M196.7402,-138.449C219.249,-135.9034 247.5738,-132.7 271.8302,-129.9567"/>
<polygon fill="#191970" stroke="#191970" points="272.4046,-133.4141 281.9479,-128.8124 271.6179,-126.4585 272.4046,-133.4141"/>
</g>
<!-- Node28940 -->
<g id="node12" class="node">
<title>Node28940</title>
<g id="a_node12"><a xlink:href="quickjs_8c.html#a5a0aca30abbb4d4ae86746541bf4cbc7" target="_top" xlink:title="JS_FreeAtomRT">
<polygon fill="none" stroke="#ff0000" points="279.5,-76.5 279.5,-95.5 369.5,-95.5 369.5,-76.5 279.5,-76.5"/>
<text text-anchor="middle" x="324.5" y="-83.5" font-family="Helvetica,sans-Serif" font-size="10.00" fill="#000000">JS_FreeAtomRT</text>
</a>
</g>
</g>
<!-- Node29305&#45;&gt;Node28940 -->
<g id="edge11" class="edge">
<title>Node29305&#45;&gt;Node28940</title>
<path fill="none" stroke="#191970" d="M192.2791,-133.4033C201.1285,-130.6814 210.5049,-127.4957 219,-124 235.7306,-117.1155 238.1738,-111.6474 255,-105 260.955,-102.6474 267.3073,-100.476 273.6598,-98.5073"/>
<polygon fill="#191970" stroke="#191970" points="274.9819,-101.7667 283.5855,-95.5838 273.0041,-95.0519 274.9819,-101.7667"/>
</g>
<!-- Node29051&#45;&gt;Node28874 -->
<g id="edge14" class="edge">
<title>Node29051&#45;&gt;Node28874</title>
<path fill="none" stroke="#191970" d="M366.0714,-435.4067C375.6585,-438.1693 385.5224,-441.9224 394,-447 413.9584,-458.9539 410.1346,-472.8921 430,-485 433.428,-487.0894 437.097,-488.9586 440.883,-490.6293"/>
<polygon fill="#191970" stroke="#191970" points="439.8766,-493.9941 450.4642,-494.3858 442.4318,-487.4771 439.8766,-493.9941"/>
</g>
<!-- Node29310&#45;&gt;Node28871 -->
<g id="edge16" class="edge">
<title>Node29310&#45;&gt;Node28871</title>
<path fill="none" stroke="#191970" d="M186.535,-586.7936C210.3233,-592.1743 244.1249,-599.8199 272.3163,-606.1965"/>
<polygon fill="#191970" stroke="#191970" points="271.894,-609.6894 282.4198,-608.4819 273.4384,-602.8619 271.894,-609.6894"/>
</g>
<!-- Node29164 -->
<g id="node17" class="node">
<title>Node29164</title>
<g id="a_node17"><a xlink:href="quickjs_8c.html#a0ec52a675282f321a6f42aa1298a53fe" target="_top" xlink:title="set_value">
<polygon fill="none" stroke="#000000" points="466,-304.5 466,-323.5 525,-323.5 525,-304.5 466,-304.5"/>
<text text-anchor="middle" x="495.5" y="-311.5" font-family="Helvetica,sans-Serif" font-size="10.00" fill="#000000">set_value</text>
</a>
</g>
</g>
<!-- Node29311&#45;&gt;Node29164 -->
<g id="edge18" class="edge">
<title>Node29311&#45;&gt;Node29164</title>
<path fill="none" stroke="#191970" d="M205.6825,-347.5559C253.7527,-343.0883 328.9829,-335.7664 394,-328 414.4171,-325.5611 437.0905,-322.4703 455.8198,-319.8136"/>
<polygon fill="#191970" stroke="#191970" points="456.3761,-323.2698 465.7798,-318.3892 455.385,-316.3403 456.3761,-323.2698"/>
</g>
<!-- Node28934 -->
<g id="node18" class="node">
<title>Node28934</title>
<g id="a_node18"><a xlink:href="quickjs_8h.html#afaa20c47565bc704c6c85f3d77254e7d" target="_top" xlink:title="JS_FreeValue">
<polygon fill="none" stroke="#ff0000" points="597,-342.5 597,-361.5 675,-361.5 675,-342.5 597,-342.5"/>
<text text-anchor="middle" x="636" y="-349.5" font-family="Helvetica,sans-Serif" font-size="10.00" fill="#000000">JS_FreeValue</text>
</a>
</g>
</g>
<!-- Node29164&#45;&gt;Node28934 -->
<g id="edge19" class="edge">
<title>Node29164&#45;&gt;Node28934</title>
<path fill="none" stroke="#191970" d="M525.2964,-322.0588C544.3501,-327.2121 569.4265,-333.9944 590.8941,-339.8006"/>
<polygon fill="#191970" stroke="#191970" points="590.2169,-343.2431 600.7839,-342.4754 592.0445,-336.4859 590.2169,-343.2431"/>
</g>
<!-- Node29313 -->
<g id="node20" class="node">
<title>Node29313</title>
<g id="a_node20"><a xlink:href="quickjs_8c.html#a945738a975fc3235a1d7858d48d9b274" target="_top" xlink:title="JS_SetConstructor2">
<polygon fill="none" stroke="#ff0000" points="272,-.5 272,-19.5 377,-19.5 377,-.5 272,-.5"/>
<text text-anchor="middle" x="324.5" y="-7.5" font-family="Helvetica,sans-Serif" font-size="10.00" fill="#000000">JS_SetConstructor2</text>
</a>
</g>
</g>
<!-- Node29312&#45;&gt;Node29313 -->
<g id="edge21" class="edge">
<title>Node29312&#45;&gt;Node29313</title>
<path fill="none" stroke="#191970" d="M206.9055,-23.2994C224.114,-21.3532 243.5746,-19.1523 261.6399,-17.1092"/>
<polygon fill="#191970" stroke="#191970" points="262.2542,-20.5621 271.7975,-15.9604 261.4675,-13.6064 262.2542,-20.5621"/>
</g>
<!-- Node29314&#45;&gt;Node28958 -->
<g id="edge23" class="edge">
<title>Node29314&#45;&gt;Node28958</title>
<path fill="none" stroke="#191970" d="M364.7067,-399.5402C411.7919,-410.7474 492.1185,-429.9749 561,-447 570.0015,-449.2249 579.6019,-451.6314 588.8237,-453.9598"/>
<polygon fill="#191970" stroke="#191970" points="588.0823,-457.3825 598.6355,-456.4435 589.8001,-450.5965 588.0823,-457.3825"/>
</g>
<!-- Node29314&#45;&gt;Node28930 -->
<g id="edge25" class="edge">
<title>Node29314&#45;&gt;Node28930</title>
<path fill="none" stroke="#191970" d="M379.0155,-399.0039C384.5243,-401.5688 389.6724,-404.838 394,-409 432.2964,-445.8306 391.9895,-485.8743 430,-523 434.8943,-527.7803 440.916,-531.3707 447.307,-534.0647"/>
<polygon fill="#191970" stroke="#191970" points="446.2515,-537.4034 456.8463,-537.4046 448.5647,-530.7967 446.2515,-537.4034"/>
</g>
<!-- Node29314&#45;&gt;Node29164 -->
<g id="edge26" class="edge">
<title>Node29314&#45;&gt;Node29164</title>
<path fill="none" stroke="#191970" d="M359.3848,-380.438C370.76,-376.6755 383.2267,-371.8404 394,-366 411.8197,-356.3396 412.2715,-347.8267 430,-338 438.2456,-333.4295 447.5329,-329.4195 456.466,-326.0517"/>
<polygon fill="#191970" stroke="#191970" points="457.7202,-329.3203 465.9543,-322.6532 455.3597,-322.7303 457.7202,-329.3203"/>
</g>
<!-- Node29314&#45;&gt;Node28934 -->
<g id="edge27" class="edge">
<title>Node29314&#45;&gt;Node28934</title>
<path fill="none" stroke="#191970" d="M372.4169,-380.4695C390.4192,-377.1266 411.0979,-373.5689 430,-371 483.3133,-363.7544 544.7718,-358.4825 586.5868,-355.3555"/>
<polygon fill="#191970" stroke="#191970" points="587.061,-358.8302 596.7776,-354.6068 586.548,-351.849 587.061,-358.8302"/>
</g>
<!-- Node29156 -->
<g id="node22" class="node">
<title>Node29156</title>
<g id="a_node22"><a xlink:href="quickjs_8c.html#af5a10beab08419072e00fedfe4e467af" target="_top" xlink:title="find_export_entry">
<polygon fill="none" stroke="#000000" points="449.5,-380.5 449.5,-399.5 541.5,-399.5 541.5,-380.5 449.5,-380.5"/>
<text text-anchor="middle" x="495.5" y="-387.5" font-family="Helvetica,sans-Serif" font-size="10.00" fill="#000000">find_export_entry</text>
</a>
</g>
</g>
<!-- Node29314&#45;&gt;Node29156 -->
<g id="edge24" class="edge">
<title>Node29314&#45;&gt;Node29156</title>
<path fill="none" stroke="#191970" d="M379.0756,-390C398.2974,-390 419.9291,-390 439.2837,-390"/>
<polygon fill="#191970" stroke="#191970" points="439.4713,-393.5001 449.4713,-390 439.4713,-386.5001 439.4713,-393.5001"/>
</g>
<!-- Node29315&#45;&gt;Node29051 -->
<g id="edge35" class="edge">
<title>Node29315&#45;&gt;Node29051</title>
<path fill="none" stroke="#191970" d="M203.8045,-323.6285C209.3044,-326.0769 214.5345,-329.148 219,-333 247.301,-357.4129 226.3568,-384.9894 255,-409 260.2814,-413.4272 266.5085,-416.8288 273.0296,-419.4413"/>
<polygon fill="#191970" stroke="#191970" points="272.1239,-422.83 282.7183,-422.7317 274.375,-416.2018 272.1239,-422.83"/>
</g>
<!-- Node29315&#45;&gt;Node29314 -->
<g id="edge40" class="edge">
<title>Node29315&#45;&gt;Node29314</title>
<path fill="none" stroke="#191970" d="M192.303,-323.5388C201.1519,-326.2622 210.522,-329.4631 219,-333 247.9911,-345.0948 279.4585,-362.7344 300.4112,-375.1804"/>
<polygon fill="#191970" stroke="#191970" points="298.8777,-378.3422 309.2515,-380.4948 302.4843,-372.3429 298.8777,-378.3422"/>
</g>
<!-- Node28968 -->
<g id="node24" class="node">
<title>Node28968</title>
<g id="a_node24"><a xlink:href="quickjs_8c.html#a0ee6a3654a6016393fac5e1c108f403a" target="_top" xlink:title="JS_NewString">
<polygon fill="none" stroke="#ff0000" points="284.5,-190.5 284.5,-209.5 364.5,-209.5 364.5,-190.5 284.5,-190.5"/>
<text text-anchor="middle" x="324.5" y="-197.5" font-family="Helvetica,sans-Serif" font-size="10.00" fill="#000000">JS_NewString</text>
</a>
</g>
</g>
<!-- Node29315&#45;&gt;Node28968 -->
<g id="edge29" class="edge">
<title>Node29315&#45;&gt;Node28968</title>
<path fill="none" stroke="#191970" d="M164.4783,-304.4821C180.1016,-286.3991 216.5726,-246.8479 255,-224 262.1765,-219.733 270.2226,-216.0798 278.2256,-213.0052"/>
<polygon fill="#191970" stroke="#191970" points="279.6699,-216.2057 287.9047,-209.5395 277.3101,-209.6155 279.6699,-216.2057"/>
</g>
<!-- Node28955 -->
<g id="node25" class="node">
<title>Node28955</title>
<g id="a_node25"><a xlink:href="quickjs_8h.html#a2050bc428da1c65ac7eb87c3fa3b0392" target="_top" xlink:title="JS_NewInt32">
<polygon fill="none" stroke="#000000" points="457.5,-228.5 457.5,-247.5 533.5,-247.5 533.5,-228.5 457.5,-228.5"/>
<text text-anchor="middle" x="495.5" y="-235.5" font-family="Helvetica,sans-Serif" font-size="10.00" fill="#000000">JS_NewInt32</text>
</a>
</g>
</g>
<!-- Node29315&#45;&gt;Node28955 -->
<g id="edge30" class="edge">
<title>Node29315&#45;&gt;Node28955</title>
<path fill="none" stroke="#191970" d="M168.708,-304.4842C186.5288,-291.1897 221.2315,-267.5094 255,-257 319.4044,-236.9561 397.9539,-234.6116 447.3641,-235.63"/>
<polygon fill="#191970" stroke="#191970" points="447.3618,-239.131 457.4498,-235.8932 447.5445,-232.1334 447.3618,-239.131"/>
</g>
<!-- Node29257 -->
<g id="node26" class="node">
<title>Node29257</title>
<g id="a_node26"><a xlink:href="quickjs_8h.html#a6acbc709e59969eac6775f9b253b438f" target="_top" xlink:title="JS_NewInt64">
<polygon fill="none" stroke="#000000" points="286.5,-266.5 286.5,-285.5 362.5,-285.5 362.5,-266.5 286.5,-266.5"/>
<text text-anchor="middle" x="324.5" y="-273.5" font-family="Helvetica,sans-Serif" font-size="10.00" fill="#000000">JS_NewInt64</text>
</a>
</g>
</g>
<!-- Node29315&#45;&gt;Node29257 -->
<g id="edge31" class="edge">
<title>Node29315&#45;&gt;Node29257</title>
<path fill="none" stroke="#191970" d="M198.8935,-304.411C222.5586,-299.0582 252.118,-292.3721 276.6154,-286.831"/>
<polygon fill="#191970" stroke="#191970" points="277.4427,-290.2324 286.4241,-284.6124 275.8983,-283.4049 277.4427,-290.2324"/>
</g>
<!-- Node29060 -->
<g id="node27" class="node">
<title>Node29060</title>
<g id="a_node27"><a xlink:href="quickjs_8h.html#a9bf98b18de88b4199910a43e933eb97d" target="_top" xlink:title="__JS_NewFloat64">
<polygon fill="none" stroke="#000000" points="447,-266.5 447,-285.5 544,-285.5 544,-266.5 447,-266.5"/>
<text text-anchor="middle" x="495.5" y="-273.5" font-family="Helvetica,sans-Serif" font-size="10.00" fill="#000000">__JS_NewFloat64</text>
</a>
</g>
</g>
<!-- Node29315&#45;&gt;Node29060 -->
<g id="edge34" class="edge">
<title>Node29315&#45;&gt;Node29060</title>
<path fill="none" stroke="#191970" d="M219.1967,-310.7886C267.1908,-307.8942 334.9569,-302.8657 394,-295 409.0162,-292.9995 425.1779,-290.2496 440.0929,-287.463"/>
<polygon fill="#191970" stroke="#191970" points="441.0232,-290.8487 450.1901,-285.5366 439.7113,-283.9727 441.0232,-290.8487"/>
</g>
<!-- Node29315&#45;&gt;Node29316 -->
<g id="edge36" class="edge">
<title>Node29315&#45;&gt;Node29316</title>
<path fill="none" stroke="#191970" d="M205.2584,-323.5122C210.3215,-325.9835 215.0495,-329.0917 219,-333 256.7722,-370.3681 216.7036,-410.1694 255,-447 256.4876,-448.4307 258.0722,-449.7559 259.735,-450.9832"/>
<polygon fill="#191970" stroke="#191970" points="258.2446,-454.1716 268.6151,-456.3401 261.8604,-448.1777 258.2446,-454.1716"/>
</g>
<!-- Node29257&#45;&gt;Node28955 -->
<g id="edge32" class="edge">
<title>Node29257&#45;&gt;Node28955</title>
<path fill="none" stroke="#191970" d="M362.8757,-267.4721C387.8478,-261.9227 420.6195,-254.6401 447.3376,-248.7027"/>
<polygon fill="#191970" stroke="#191970" points="448.2498,-252.0855 457.2523,-246.4995 446.7312,-245.2522 448.2498,-252.0855"/>
</g>
<!-- Node29257&#45;&gt;Node29060 -->
<g id="edge33" class="edge">
<title>Node29257&#45;&gt;Node29060</title>
<path fill="none" stroke="#191970" d="M362.8757,-276C384.5883,-276 412.1973,-276 436.5968,-276"/>
<polygon fill="#191970" stroke="#191970" points="436.8307,-279.5001 446.8307,-276 436.8307,-272.5001 436.8307,-279.5001"/>
</g>
<!-- Node29316&#45;&gt;Node28930 -->
<g id="edge39" class="edge">
<title>Node29316&#45;&gt;Node28930</title>
<path fill="none" stroke="#191970" d="M373.0136,-475.5765C380.323,-478.0512 387.5613,-481.1436 394,-485 413.9584,-496.9539 410.1346,-510.8921 430,-523 435.1816,-526.1581 440.9136,-528.8133 446.768,-531.0402"/>
<polygon fill="#191970" stroke="#191970" points="446.0662,-534.4981 456.6606,-534.397 448.3156,-527.8693 446.0662,-534.4981"/>
</g>
<!-- Node29317 -->
<g id="node29" class="node">
<title>Node29317</title>
<g id="a_node29"><a xlink:href="quickjs_8c.html#ae8e62d181b34d2e7bdda0b099c0880f5" target="_top" xlink:title="find_atom">
<polygon fill="none" stroke="#ff0000" points="466,-456.5 466,-475.5 525,-475.5 525,-456.5 466,-456.5"/>
<text text-anchor="middle" x="495.5" y="-463.5" font-family="Helvetica,sans-Serif" font-size="10.00" fill="#000000">find_atom</text>
</a>
</g>
</g>
<!-- Node29316&#45;&gt;Node29317 -->
<g id="edge37" class="edge">
<title>Node29316&#45;&gt;Node29317</title>
<path fill="none" stroke="#191970" d="M394.0522,-466C415.0195,-466 437.3133,-466 455.646,-466"/>
<polygon fill="#191970" stroke="#191970" points="455.6652,-469.5001 465.6652,-466 455.6652,-462.5001 455.6652,-469.5001"/>
</g>
<!-- Node29317&#45;&gt;Node28958 -->
<g id="edge38" class="edge">
<title>Node29317&#45;&gt;Node28958</title>
<path fill="none" stroke="#191970" d="M525.2964,-466C543.2818,-466 566.6336,-466 587.251,-466"/>
<polygon fill="#191970" stroke="#191970" points="587.4278,-469.5001 597.4277,-466 587.4277,-462.5001 587.4278,-469.5001"/>
</g>
<!-- Node29319&#45;&gt;Node28871 -->
<g id="edge45" class="edge">
<title>Node29319&#45;&gt;Node28871</title>
<path fill="none" stroke="#191970" d="M196.6169,-551.2841C204.3075,-553.8621 212.1049,-557.0655 219,-561 237.8519,-571.7572 236.3525,-582.8923 255,-594 262.1731,-598.2727 270.2175,-601.9288 278.2199,-605.0044"/>
<polygon fill="#191970" stroke="#191970" points="277.3041,-608.3941 287.8987,-608.4705 279.6642,-601.8039 277.3041,-608.3941"/>
</g>
<!-- Node29319&#45;&gt;Node28930 -->
<g id="edge43" class="edge">
<title>Node29319&#45;&gt;Node28930</title>
<path fill="none" stroke="#191970" d="M196.719,-542C259.1488,-542 379.1863,-542 446.5554,-542"/>
<polygon fill="#191970" stroke="#191970" points="446.8987,-545.5001 456.8987,-542 446.8986,-538.5001 446.8987,-545.5001"/>
</g>
<!-- Node29319&#45;&gt;Node28934 -->
<g id="edge44" class="edge">
<title>Node29319&#45;&gt;Node28934</title>
<path fill="none" stroke="#191970" d="M196.5985,-550.0377C287.1506,-567.2334 504.0116,-602.7661 561,-561 603.8558,-529.5915 578.895,-496.9532 597,-447 606.6879,-420.2702 619.4395,-389.9783 627.6787,-370.9343"/>
<polygon fill="#191970" stroke="#191970" points="630.9575,-372.1712 631.7436,-361.6056 624.5403,-369.3749 630.9575,-372.1712"/>
</g>
</g>
</svg>
        <g id="navigator" transform="translate(0 0)" fill="#404254">
                <rect fill="#f2f5e9" fill-opacity="0.5" stroke="#606060" stroke-width=".5" x="0" y="0" width="60" height="60"/>
                <use id="zoomplus" xlink:href="#zoomPlus" x="17" y="9" onmousedown="handleZoom(evt,'in')"/>
                <use id="zoomminus" xlink:href="#zoomMin" x="42" y="9" onmousedown="handleZoom(evt,'out')"/>
                <use id="reset" xlink:href="#resetDef" x="30" y="36" onmousedown="handleReset()"/>
                <g id="arrowUp" xlink:href="#dirArrow" transform="translate(30 24)" onmousedown="handlePan(0,-1)">
                  <use xlink:href="#rim" fill="#404040">
                        <set attributeName="fill" to="#808080" begin="arrowUp.mouseover" end="arrowUp.mouseout"/>
                  </use>
                  <path fill="none" stroke="white" stroke-width="1.5" d="M0,-3.0v7 M-2.5,-0.5L0,-3.0L2.5,-0.5"/>
                </g>
                <g id="arrowRight" xlink:href="#dirArrow" transform="rotate(90) translate(36 -43)" onmousedown="handlePan(1,0)">
                  <use xlink:href="#rim" fill="#404040">
                        <set attributeName="fill" to="#808080" begin="arrowRight.mouseover" end="arrowRight.mouseout"/>
                  </use>
                  <path fill="none" stroke="white" stroke-width="1.5" d="M0,-3.0v7 M-2.5,-0.5L0,-3.0L2.5,-0.5"/>
                </g>
                <g id="arrowDown" xlink:href="#dirArrow" transform="rotate(180) translate(-30 -48)" onmousedown="handlePan(0,1)">
                  <use xlink:href="#rim" fill="#404040">
                        <set attributeName="fill" to="#808080" begin="arrowDown.mouseover" end="arrowDown.mouseout"/>
                  </use>
                  <path fill="none" stroke="white" stroke-width="1.5" d="M0,-3.0v7 M-2.5,-0.5L0,-3.0L2.5,-0.5"/>
                </g>
                <g id="arrowLeft" xlink:href="#dirArrow" transform="rotate(270) translate(-36 17)" onmousedown="handlePan(-1,0)">
                  <use xlink:href="#rim" fill="#404040">
                        <set attributeName="fill" to="#808080" begin="arrowLeft.mouseover" end="arrowLeft.mouseout"/>
                  </use>
                  <path fill="none" stroke="white" stroke-width="1.5" d="M0,-3.0v7 M-2.5,-0.5L0,-3.0L2.5,-0.5"/>
                </g>
        </g>
        <svg viewBox="0 0 15 15" width="100%" height="30px" preserveAspectRatio="xMaxYMin meet">
         <g id="arrow_out" transform="scale(0.3 0.3)">
          <a xlink:href="quickjs-libc_8c_a066e7962ce24f22d5df20968a8baa346_cgraph_org.svg" target="_base">
           <rect id="button" ry="5" rx="5" y="6" x="6" height="38" width="38"
                fill="#f2f5e9" fill-opacity="0.5" stroke="#606060" stroke-width="1.0"/>
           <path id="arrow"
             d="M 11.500037,31.436501 C 11.940474,20.09759 22.043105,11.32322 32.158766,21.979434 L 37.068811,17.246167 C 37.068811,17.246167 37.088388,32 37.088388,32 L 22.160133,31.978069 C 22.160133,31.978069 26.997745,27.140456 26.997745,27.140456 C 18.528582,18.264221 13.291696,25.230495 11.500037,31.436501 z"
             style="fill:#404040;"/>
          </a>
         </g>
        </svg>
</svg>
