<?xml version="1.0" encoding="UTF-8" standalone="no"?>
<!DOCTYPE svg PUBLIC "-//W3C//DTD SVG 1.1//EN"
 "http://www.w3.org/Graphics/SVG/1.1/DTD/svg11.dtd">
<!-- Generated by graphviz version 2.40.1 (20161225.0304)
 -->
<!-- Title: JS_AddIntrinsicMapSet Pages: 1 -->
<svg width="544pt" height="28pt"
 viewBox="0.00 0.00 544.00 28.00" xmlns="http://www.w3.org/2000/svg" xmlns:xlink="http://www.w3.org/1999/xlink">
<g id="graph0" class="graph" transform="scale(1 1) rotate(0) translate(4 24)">
<title>JS_AddIntrinsicMapSet</title>
<!-- Node450586 -->
<g id="node1" class="node">
<title>Node450586</title>
<polygon fill="#bfbfbf" stroke="#000000" points="0,-.5 0,-19.5 119,-19.5 119,-.5 0,-.5"/>
<text text-anchor="middle" x="59.5" y="-7.5" font-family="Helvetica,sans-Serif" font-size="10.00" fill="#000000">JS_AddIntrinsicMapSet</text>
</g>
<!-- Node450587 -->
<g id="node2" class="node">
<title>Node450587</title>
<g id="a_node2"><a xlink:href="quickjs_8c.html#ad8aedb643b8753b7a15f6cb2df61945e" target="_top" xlink:title="JS_NewContext">
<polygon fill="none" stroke="#000000" points="155,-.5 155,-19.5 244,-19.5 244,-.5 155,-.5"/>
<text text-anchor="middle" x="199.5" y="-7.5" font-family="Helvetica,sans-Serif" font-size="10.00" fill="#000000">JS_NewContext</text>
</a>
</g>
</g>
<!-- Node450586&#45;&gt;Node450587 -->
<g id="edge1" class="edge">
<title>Node450586&#45;&gt;Node450587</title>
<path fill="none" stroke="#191970" d="M129.3758,-10C138.0049,-10 146.6364,-10 154.7459,-10"/>
<polygon fill="#191970" stroke="#191970" points="129.2787,-6.5001 119.2787,-10 129.2787,-13.5001 129.2787,-6.5001"/>
</g>
<!-- Node450588 -->
<g id="node3" class="node">
<title>Node450588</title>
<g id="a_node3"><a xlink:href="classqjs_1_1Context.html#a4392a23648acfc4bf6b445336efb5007" target="_top" xlink:title="qjs::Context::Context">
<polygon fill="none" stroke="#000000" points="280,-.5 280,-19.5 390,-19.5 390,-.5 280,-.5"/>
<text text-anchor="middle" x="335" y="-7.5" font-family="Helvetica,sans-Serif" font-size="10.00" fill="#000000">qjs::Context::Context</text>
</a>
</g>
</g>
<!-- Node450587&#45;&gt;Node450588 -->
<g id="edge2" class="edge">
<title>Node450587&#45;&gt;Node450588</title>
<path fill="none" stroke="#191970" d="M254.3476,-10C262.7739,-10 271.4767,-10 279.9083,-10"/>
<polygon fill="#191970" stroke="#191970" points="254.2433,-6.5001 244.2433,-10 254.2433,-13.5001 254.2433,-6.5001"/>
</g>
<!-- Node450589 -->
<g id="node4" class="node">
<title>Node450589</title>
<g id="a_node4"><a xlink:href="classqjs_1_1Context.html#af725fb8083d8c33a37198d6acaf1a836" target="_top" xlink:title="qjs::Context::Context">
<polygon fill="none" stroke="#ff0000" points="426,-.5 426,-19.5 536,-19.5 536,-.5 426,-.5"/>
<text text-anchor="middle" x="481" y="-7.5" font-family="Helvetica,sans-Serif" font-size="10.00" fill="#000000">qjs::Context::Context</text>
</a>
</g>
</g>
<!-- Node450588&#45;&gt;Node450589 -->
<g id="edge3" class="edge">
<title>Node450588&#45;&gt;Node450589</title>
<path fill="none" stroke="#191970" d="M400.4101,-10C408.8647,-10 417.4567,-10 425.7256,-10"/>
<polygon fill="#191970" stroke="#191970" points="400.1964,-6.5001 390.1963,-10 400.1963,-13.5001 400.1964,-6.5001"/>
</g>
</g>
</svg>
