<?xml version="1.0" encoding="UTF-8" standalone="no"?>
<!DOCTYPE svg PUBLIC "-//W3C//DTD SVG 1.1//EN"
 "http://www.w3.org/Graphics/SVG/1.1/DTD/svg11.dtd">
<!-- Generated by graphviz version 2.40.1 (20161225.0304)
 -->
<!-- Title: JS_RegExpDelete Pages: 1 -->
<!--zoomable 674 -->
<svg id="main" version="1.1" xmlns="http://www.w3.org/2000/svg" xmlns:xlink="http://www.w3.org/1999/xlink" xml:space="preserve" onload="init(evt)">
<style type="text/css"><![CDATA[
.edge:hover path { stroke: red; }
.edge:hover polygon { stroke: red; fill: red; }
]]></style>
<script type="text/javascript"><![CDATA[
var edges = document.getElementsByTagName('g');
if (edges && edges.length) {
  for (var i=0;i<edges.length;i++) {
    if (edges[i].id.substr(0,4)=='edge') {
      edges[i].setAttribute('class','edge');
    }
  }
}
]]></script>
        <defs>
                <circle id="rim" cx="0" cy="0" r="7"/>
                <circle id="rim2" cx="0" cy="0" r="3.5"/>
                <g id="zoomPlus">
                        <use xlink:href="#rim" fill="#404040">
                                <set attributeName="fill" to="#808080" begin="zoomplus.mouseover" end="zoomplus.mouseout"/>
                        </use>
                        <path d="M-4,0h8M0,-4v8" fill="none" stroke="white" stroke-width="1.5" pointer-events="none"/>
                </g>
                <g id="zoomMin">
                        <use xlink:href="#rim" fill="#404040">
                                <set attributeName="fill" to="#808080" begin="zoomminus.mouseover" end="zoomminus.mouseout"/>
                        </use>
                        <path d="M-4,0h8" fill="none" stroke="white" stroke-width="1.5" pointer-events="none"/>
                </g>
                <g id="dirArrow">
                        <path fill="none" stroke="white" stroke-width="1.5" d="M0,-3.0v7 M-2.5,-0.5L0,-3.0L2.5,-0.5"/>
                </g>
               <g id="resetDef">
                       <use xlink:href="#rim2" fill="#404040">
                               <set attributeName="fill" to="#808080" begin="reset.mouseover" end="reset.mouseout"/>
                       </use>
               </g>
        </defs>

<script type="text/javascript">
var viewWidth = 934;
var viewHeight = 674;
var sectionId = 'dynsection-1600';
</script>
<script xlink:href="svgpan.js"/>
<svg id="graph" class="graph">
<g id="viewport">
<title>JS_RegExpDelete</title>
<!-- Node426849 -->
<g id="node1" class="node">
<title>Node426849</title>
<polygon fill="#bfbfbf" stroke="#000000" points="0,-323.5 0,-342.5 98,-342.5 98,-323.5 0,-323.5"/>
<text text-anchor="middle" x="49" y="-330.5" font-family="Helvetica,sans-Serif" font-size="10.00" fill="#000000">JS_RegExpDelete</text>
</g>
<!-- Node426850 -->
<g id="node2" class="node">
<title>Node426850</title>
<g id="a_node2"><a xlink:href="quickjs_8c.html#a853f0924d441ea4225488f37c8b69f9a" target="_top" xlink:title="__attribute__">
<polygon fill="none" stroke="#000000" points="154,-646.5 154,-665.5 227,-665.5 227,-646.5 154,-646.5"/>
<text text-anchor="middle" x="190.5" y="-653.5" font-family="Helvetica,sans-Serif" font-size="10.00" fill="#000000">__attribute__</text>
</a>
</g>
</g>
<!-- Node426849&#45;&gt;Node426850 -->
<g id="edge1" class="edge">
<title>Node426849&#45;&gt;Node426850</title>
<path fill="none" stroke="#191970" d="M50.6177,-342.7784C58.454,-389.1308 93.7392,-586.377 134,-632 137.3947,-635.8468 141.5106,-639.0956 145.9565,-641.8351"/>
<polygon fill="#191970" stroke="#191970" points="144.3312,-644.9348 154.8099,-646.4992 147.5939,-638.7417 144.3312,-644.9348"/>
</g>
<!-- Node426851 -->
<g id="node3" class="node">
<title>Node426851</title>
<g id="a_node3"><a xlink:href="quickjs_8c.html#a80e54dcf9ac687d4ccc2f90273565f30" target="_top" xlink:title="js_free">
<polygon fill="none" stroke="#000000" points="326,-570.5 326,-589.5 372,-589.5 372,-570.5 326,-570.5"/>
<text text-anchor="middle" x="349" y="-577.5" font-family="Helvetica,sans-Serif" font-size="10.00" fill="#000000">js_free</text>
</a>
</g>
</g>
<!-- Node426849&#45;&gt;Node426851 -->
<g id="edge2" class="edge">
<title>Node426849&#45;&gt;Node426851</title>
<path fill="none" stroke="#191970" d="M50.5479,-342.6333C57.8155,-386.5354 90.0513,-566.9057 134,-599 189.2832,-639.3714 275.1511,-612.4486 319.8005,-593.7164"/>
<polygon fill="#191970" stroke="#191970" points="321.4133,-596.8319 329.1927,-589.6394 318.626,-590.4108 321.4133,-596.8319"/>
</g>
<!-- Node426853 -->
<g id="node5" class="node">
<title>Node426853</title>
<g id="a_node5"><a xlink:href="quickjs_8h.html#afaa20c47565bc704c6c85f3d77254e7d" target="_top" xlink:title="JS_FreeValue">
<polygon fill="none" stroke="#000000" points="471.5,-532.5 471.5,-551.5 549.5,-551.5 549.5,-532.5 471.5,-532.5"/>
<text text-anchor="middle" x="510.5" y="-539.5" font-family="Helvetica,sans-Serif" font-size="10.00" fill="#000000">JS_FreeValue</text>
</a>
</g>
</g>
<!-- Node426849&#45;&gt;Node426853 -->
<g id="edge4" class="edge">
<title>Node426849&#45;&gt;Node426853</title>
<path fill="none" stroke="#191970" d="M51.4158,-342.6759C58.7271,-369.843 83.2937,-447.2915 134,-485 184.9005,-522.8528 371.0541,-535.9852 461.0825,-540.1883"/>
<polygon fill="#191970" stroke="#191970" points="461.1632,-543.6954 471.3098,-540.6466 461.4766,-536.7024 461.1632,-543.6954"/>
</g>
<!-- Node426889 -->
<g id="node8" class="node">
<title>Node426889</title>
<g id="a_node8"><a xlink:href="quickjs_8c.html#a82de8d310598980dd9ab473ce2c8dd1c" target="_top" xlink:title="js_get_regexp">
<polygon fill="none" stroke="#000000" points="152,-342.5 152,-361.5 229,-361.5 229,-342.5 152,-342.5"/>
<text text-anchor="middle" x="190.5" y="-349.5" font-family="Helvetica,sans-Serif" font-size="10.00" fill="#000000">js_get_regexp</text>
</a>
</g>
</g>
<!-- Node426849&#45;&gt;Node426889 -->
<g id="edge8" class="edge">
<title>Node426849&#45;&gt;Node426889</title>
<path fill="none" stroke="#191970" d="M98.0927,-339.592C112.2236,-341.4894 127.6301,-343.5581 141.7408,-345.4528"/>
<polygon fill="#191970" stroke="#191970" points="141.3729,-348.9348 151.7497,-346.7968 142.3045,-341.997 141.3729,-348.9348"/>
</g>
<!-- Node426891 -->
<g id="node10" class="node">
<title>Node426891</title>
<g id="a_node10"><a xlink:href="quickjs_8h.html#a89b7c8686c7eee70b86be722ee4730ad" target="_top" xlink:title="JS_GetProperty">
<polygon fill="none" stroke="#000000" points="147.5,-456.5 147.5,-475.5 233.5,-475.5 233.5,-456.5 147.5,-456.5"/>
<text text-anchor="middle" x="190.5" y="-463.5" font-family="Helvetica,sans-Serif" font-size="10.00" fill="#000000">JS_GetProperty</text>
</a>
</g>
</g>
<!-- Node426849&#45;&gt;Node426891 -->
<g id="edge10" class="edge">
<title>Node426849&#45;&gt;Node426891</title>
<path fill="none" stroke="#191970" d="M53.6839,-342.8185C64.6305,-364.7414 94.0238,-418.0205 134,-447 136.6393,-448.9133 139.4846,-450.6434 142.4451,-452.2065"/>
<polygon fill="#191970" stroke="#191970" points="141.0344,-455.4101 151.5819,-456.4105 143.9604,-449.0509 141.0344,-455.4101"/>
</g>
<!-- Node426901 -->
<g id="node15" class="node">
<title>Node426901</title>
<g id="a_node15"><a xlink:href="quickjs_8h.html#a2050bc428da1c65ac7eb87c3fa3b0392" target="_top" xlink:title="JS_NewInt32">
<polygon fill="none" stroke="#000000" points="472.5,-380.5 472.5,-399.5 548.5,-399.5 548.5,-380.5 472.5,-380.5"/>
<text text-anchor="middle" x="510.5" y="-387.5" font-family="Helvetica,sans-Serif" font-size="10.00" fill="#000000">JS_NewInt32</text>
</a>
</g>
</g>
<!-- Node426849&#45;&gt;Node426901 -->
<g id="edge18" class="edge">
<title>Node426849&#45;&gt;Node426901</title>
<path fill="none" stroke="#191970" d="M65.5978,-342.6506C82.2709,-351.7983 109.0074,-365.0052 134,-371 249.2527,-398.6447 389.8513,-396.6856 462.2628,-393.1723"/>
<polygon fill="#191970" stroke="#191970" points="462.6347,-396.6579 472.4405,-392.646 462.2731,-389.6672 462.6347,-396.6579"/>
</g>
<!-- Node426900 -->
<g id="node16" class="node">
<title>Node426900</title>
<g id="a_node16"><a xlink:href="quickjs_8h.html#ad80a83d73e9b7d872b88fbf2943aebe9" target="_top" xlink:title="JS_IsException">
<polygon fill="none" stroke="#000000" points="147.5,-304.5 147.5,-323.5 233.5,-323.5 233.5,-304.5 147.5,-304.5"/>
<text text-anchor="middle" x="190.5" y="-311.5" font-family="Helvetica,sans-Serif" font-size="10.00" fill="#000000">JS_IsException</text>
</a>
</g>
</g>
<!-- Node426849&#45;&gt;Node426900 -->
<g id="edge17" class="edge">
<title>Node426849&#45;&gt;Node426900</title>
<path fill="none" stroke="#191970" d="M98.0927,-326.408C110.6895,-324.7166 124.3001,-322.889 137.1026,-321.17"/>
<polygon fill="#191970" stroke="#191970" points="137.7168,-324.619 147.162,-319.8192 136.7852,-317.6813 137.7168,-324.619"/>
</g>
<!-- Node427167 -->
<g id="node17" class="node">
<title>Node427167</title>
<g id="a_node17"><a xlink:href="quickjs_8h.html#af763b173e78debf2075670ca2c128a30" target="_top" xlink:title="JS_SetProperty">
<polygon fill="none" stroke="#ff0000" points="147.5,-266.5 147.5,-285.5 233.5,-285.5 233.5,-266.5 147.5,-266.5"/>
<text text-anchor="middle" x="190.5" y="-273.5" font-family="Helvetica,sans-Serif" font-size="10.00" fill="#000000">JS_SetProperty</text>
</a>
</g>
</g>
<!-- Node426849&#45;&gt;Node427167 -->
<g id="edge19" class="edge">
<title>Node426849&#45;&gt;Node427167</title>
<path fill="none" stroke="#191970" d="M69.0345,-323.3879C86.1146,-315.3522 111.4153,-303.8223 134,-295 139.4342,-292.8772 145.215,-290.768 150.9262,-288.7692"/>
<polygon fill="#191970" stroke="#191970" points="152.0708,-292.0769 160.3985,-285.527 149.8039,-285.4541 152.0708,-292.0769"/>
</g>
<!-- Node427283 -->
<g id="node18" class="node">
<title>Node427283</title>
<g id="a_node18"><a xlink:href="quickjs_8c.html#a07acd485a57197356906928a788a0644" target="_top" xlink:title="JS_ToLengthFree">
<polygon fill="none" stroke="#000000" points="143.5,-418.5 143.5,-437.5 237.5,-437.5 237.5,-418.5 143.5,-418.5"/>
<text text-anchor="middle" x="190.5" y="-425.5" font-family="Helvetica,sans-Serif" font-size="10.00" fill="#000000">JS_ToLengthFree</text>
</a>
</g>
</g>
<!-- Node426849&#45;&gt;Node427283 -->
<g id="edge20" class="edge">
<title>Node426849&#45;&gt;Node427283</title>
<path fill="none" stroke="#191970" d="M58.4701,-342.5497C73.4441,-357.2506 103.9801,-385.6446 134,-404 140.3135,-407.8603 147.3588,-411.3922 154.2745,-414.4898"/>
<polygon fill="#191970" stroke="#191970" points="152.9717,-417.7391 163.5437,-418.4347 155.7129,-411.2982 152.9717,-417.7391"/>
</g>
<!-- Node426923 -->
<g id="node20" class="node">
<title>Node426923</title>
<g id="a_node20"><a xlink:href="quickjs_8c.html#a7bcb8e1a20cbc8374a5f9ba4a2088cec" target="_top" xlink:title="JS_ToString">
<polygon fill="none" stroke="#ff0000" points="155,-228.5 155,-247.5 226,-247.5 226,-228.5 155,-228.5"/>
<text text-anchor="middle" x="190.5" y="-235.5" font-family="Helvetica,sans-Serif" font-size="10.00" fill="#000000">JS_ToString</text>
</a>
</g>
</g>
<!-- Node426849&#45;&gt;Node426923 -->
<g id="edge23" class="edge">
<title>Node426849&#45;&gt;Node426923</title>
<path fill="none" stroke="#191970" d="M57.2232,-323.4701C71.3978,-307.5882 102.0046,-275.617 134,-257 137.6226,-254.8921 141.5131,-252.9756 145.4961,-251.2428"/>
<polygon fill="#191970" stroke="#191970" points="146.8659,-254.4648 154.8749,-247.5289 144.2887,-247.9565 146.8659,-254.4648"/>
</g>
<!-- Node427286 -->
<g id="node21" class="node">
<title>Node427286</title>
<g id="a_node21"><a xlink:href="libregexp_8h.html#a55d8c60c9c812ae3e3e23e608b830ce3" target="_top" xlink:title="lre_exec">
<polygon fill="none" stroke="#000000" points="164,-190.5 164,-209.5 217,-209.5 217,-190.5 164,-190.5"/>
<text text-anchor="middle" x="190.5" y="-197.5" font-family="Helvetica,sans-Serif" font-size="10.00" fill="#000000">lre_exec</text>
</a>
</g>
</g>
<!-- Node426849&#45;&gt;Node427286 -->
<g id="edge24" class="edge">
<title>Node426849&#45;&gt;Node427286</title>
<path fill="none" stroke="#191970" d="M53.6839,-323.1815C64.6305,-301.2586 94.0238,-247.9795 134,-219 140.0485,-214.6153 147.1784,-211.1927 154.2988,-208.5382"/>
<polygon fill="#191970" stroke="#191970" points="155.4969,-211.8286 163.9003,-205.3763 153.3073,-205.1799 155.4969,-211.8286"/>
</g>
<!-- Node427294 -->
<g id="node24" class="node">
<title>Node427294</title>
<g id="a_node24"><a xlink:href="libregexp_8h.html#a901e8c0ab6941f09e79fc9d8a9494717" target="_top" xlink:title="lre_get_capture_count">
<polygon fill="none" stroke="#000000" points="134,-152.5 134,-171.5 247,-171.5 247,-152.5 134,-152.5"/>
<text text-anchor="middle" x="190.5" y="-159.5" font-family="Helvetica,sans-Serif" font-size="10.00" fill="#000000">lre_get_capture_count</text>
</a>
</g>
</g>
<!-- Node426849&#45;&gt;Node427294 -->
<g id="edge28" class="edge">
<title>Node426849&#45;&gt;Node427294</title>
<path fill="none" stroke="#191970" d="M51.74,-323.2082C59.7383,-296.4035 85.6041,-221.1594 134,-181 136.0557,-179.2942 138.2713,-177.7392 140.5935,-176.3219"/>
<polygon fill="#191970" stroke="#191970" points="142.6689,-179.1909 149.9673,-171.5108 139.4725,-172.9632 142.6689,-179.1909"/>
</g>
<!-- Node427295 -->
<g id="node25" class="node">
<title>Node427295</title>
<g id="a_node25"><a xlink:href="libregexp_8h.html#a3bf39330d9dde9c1c41f1a73504a7386" target="_top" xlink:title="lre_get_flags">
<polygon fill="none" stroke="#000000" points="154.5,-114.5 154.5,-133.5 226.5,-133.5 226.5,-114.5 154.5,-114.5"/>
<text text-anchor="middle" x="190.5" y="-121.5" font-family="Helvetica,sans-Serif" font-size="10.00" fill="#000000">lre_get_flags</text>
</a>
</g>
</g>
<!-- Node426849&#45;&gt;Node427295 -->
<g id="edge29" class="edge">
<title>Node426849&#45;&gt;Node427295</title>
<path fill="none" stroke="#191970" d="M50.5658,-323.0988C56.0141,-291.9155 77.0179,-194.745 134,-143 137.2321,-140.0649 140.9333,-137.5813 144.8613,-135.4799"/>
<polygon fill="#191970" stroke="#191970" points="146.6306,-138.5224 154.324,-131.238 143.7671,-132.1348 146.6306,-138.5224"/>
</g>
<!-- Node427176 -->
<g id="node26" class="node">
<title>Node427176</title>
<g id="a_node26"><a xlink:href="quickjs_8c.html#a6887ef15fd884e05ddf04ec291b5f3d2" target="_top" xlink:title="string_buffer_concat">
<polygon fill="none" stroke="#ff0000" points="138,-76.5 138,-95.5 243,-95.5 243,-76.5 138,-76.5"/>
<text text-anchor="middle" x="190.5" y="-83.5" font-family="Helvetica,sans-Serif" font-size="10.00" fill="#000000">string_buffer_concat</text>
</a>
</g>
</g>
<!-- Node426849&#45;&gt;Node427176 -->
<g id="edge30" class="edge">
<title>Node426849&#45;&gt;Node427176</title>
<path fill="none" stroke="#191970" d="M49.7313,-323.177C52.8578,-288.25 68.136,-168.7611 134,-105 135.6312,-103.4209 137.3976,-101.973 139.2643,-100.6452"/>
<polygon fill="#191970" stroke="#191970" points="141.107,-103.6224 147.981,-95.5602 137.5797,-97.576 141.107,-103.6224"/>
</g>
<!-- Node426930 -->
<g id="node27" class="node">
<title>Node426930</title>
<g id="a_node27"><a xlink:href="quickjs_8c.html#accfc3d1dcaa88c88402cb245ccaf4fdb" target="_top" xlink:title="string_buffer_end">
<polygon fill="none" stroke="#ff0000" points="144.5,-570.5 144.5,-589.5 236.5,-589.5 236.5,-570.5 144.5,-570.5"/>
<text text-anchor="middle" x="190.5" y="-577.5" font-family="Helvetica,sans-Serif" font-size="10.00" fill="#000000">string_buffer_end</text>
</a>
</g>
</g>
<!-- Node426849&#45;&gt;Node426930 -->
<g id="edge31" class="edge">
<title>Node426849&#45;&gt;Node426930</title>
<path fill="none" stroke="#191970" d="M49.7313,-342.823C52.8578,-377.75 68.136,-497.2389 134,-561 135.6312,-562.5791 137.3976,-564.027 139.2643,-565.3548"/>
<polygon fill="#191970" stroke="#191970" points="137.5797,-568.424 147.981,-570.4398 141.107,-562.3776 137.5797,-568.424"/>
</g>
<!-- Node426931 -->
<g id="node28" class="node">
<title>Node426931</title>
<g id="a_node28"><a xlink:href="quickjs_8c.html#a266b4993a59d9e34537386e62b9f3d4f" target="_top" xlink:title="string_buffer_free">
<polygon fill="none" stroke="#000000" points="144.5,-532.5 144.5,-551.5 236.5,-551.5 236.5,-532.5 144.5,-532.5"/>
<text text-anchor="middle" x="190.5" y="-539.5" font-family="Helvetica,sans-Serif" font-size="10.00" fill="#000000">string_buffer_free</text>
</a>
</g>
</g>
<!-- Node426849&#45;&gt;Node426931 -->
<g id="edge33" class="edge">
<title>Node426849&#45;&gt;Node426931</title>
<path fill="none" stroke="#191970" d="M50.9064,-342.8895C57.2316,-373.1808 80.2511,-465.7881 134,-518 137.9655,-521.8521 142.6439,-525.1285 147.5834,-527.9044"/>
<polygon fill="#191970" stroke="#191970" points="146.1418,-531.0959 156.659,-532.3767 149.236,-524.8169 146.1418,-531.0959"/>
</g>
<!-- Node426932 -->
<g id="node29" class="node">
<title>Node426932</title>
<g id="a_node29"><a xlink:href="quickjs_8c.html#a9c11961b0adafedd064b294612d0c2f3" target="_top" xlink:title="string_buffer_init">
<polygon fill="none" stroke="#ff0000" points="146,-38.5 146,-57.5 235,-57.5 235,-38.5 146,-38.5"/>
<text text-anchor="middle" x="190.5" y="-45.5" font-family="Helvetica,sans-Serif" font-size="10.00" fill="#000000">string_buffer_init</text>
</a>
</g>
</g>
<!-- Node426849&#45;&gt;Node426932 -->
<g id="edge35" class="edge">
<title>Node426849&#45;&gt;Node426932</title>
<path fill="none" stroke="#191970" d="M50.8662,-323.3836C59.3959,-280.3272 95.8961,-105.684 134,-67 135.4434,-65.5347 137.0032,-64.1823 138.6526,-62.9343"/>
<polygon fill="#191970" stroke="#191970" points="140.809,-65.7187 147.5231,-57.5228 137.1634,-59.7429 140.809,-65.7187"/>
</g>
<!-- Node427296 -->
<g id="node30" class="node">
<title>Node427296</title>
<g id="a_node30"><a xlink:href="quickjs_8c.html#ae94a3705c1c334ae8719767ae53719c2" target="_top" xlink:title="string_getc">
<polygon fill="none" stroke="#000000" points="158,-.5 158,-19.5 223,-19.5 223,-.5 158,-.5"/>
<text text-anchor="middle" x="190.5" y="-7.5" font-family="Helvetica,sans-Serif" font-size="10.00" fill="#000000">string_getc</text>
</a>
</g>
</g>
<!-- Node426849&#45;&gt;Node427296 -->
<g id="edge36" class="edge">
<title>Node426849&#45;&gt;Node427296</title>
<path fill="none" stroke="#191970" d="M50.4716,-323.3042C57.7607,-276.4499 91.3593,-73.907 134,-29 138.0629,-24.7212 143.1186,-21.4059 148.5233,-18.8371"/>
<polygon fill="#191970" stroke="#191970" points="149.8063,-22.0935 157.835,-15.1805 147.2476,-15.5779 149.8063,-22.0935"/>
</g>
<!-- Node426852 -->
<g id="node4" class="node">
<title>Node426852</title>
<g id="a_node4"><a xlink:href="quickjs_8c.html#a69e19dda8a93d613203e0baa06f0ed8d" target="_top" xlink:title="js_free_rt">
<polygon fill="none" stroke="#000000" points="869,-551.5 869,-570.5 926,-570.5 926,-551.5 869,-551.5"/>
<text text-anchor="middle" x="897.5" y="-558.5" font-family="Helvetica,sans-Serif" font-size="10.00" fill="#000000">js_free_rt</text>
</a>
</g>
</g>
<!-- Node426851&#45;&gt;Node426852 -->
<g id="edge3" class="edge">
<title>Node426851&#45;&gt;Node426852</title>
<path fill="none" stroke="#191970" d="M372.218,-579.1957C457.1826,-576.2526 751.7695,-566.0481 858.5019,-562.3509"/>
<polygon fill="#191970" stroke="#191970" points="858.9449,-565.8377 868.8178,-561.9936 858.7026,-558.8419 858.9449,-565.8377"/>
</g>
<!-- Node426854 -->
<g id="node6" class="node">
<title>Node426854</title>
<g id="a_node6"><a xlink:href="quickjs_8c.html#aa059f309c30fd5166d16c82a97973146" target="_top" xlink:title="__JS_FreeValue">
<polygon fill="none" stroke="#000000" points="606,-532.5 606,-551.5 695,-551.5 695,-532.5 606,-532.5"/>
<text text-anchor="middle" x="650.5" y="-539.5" font-family="Helvetica,sans-Serif" font-size="10.00" fill="#000000">__JS_FreeValue</text>
</a>
</g>
</g>
<!-- Node426853&#45;&gt;Node426854 -->
<g id="edge5" class="edge">
<title>Node426853&#45;&gt;Node426854</title>
<path fill="none" stroke="#191970" d="M549.8704,-542C563.9984,-542 580.2,-542 595.4155,-542"/>
<polygon fill="#191970" stroke="#191970" points="595.7543,-545.5001 605.7542,-542 595.7542,-538.5001 595.7543,-545.5001"/>
</g>
<!-- Node426855 -->
<g id="node7" class="node">
<title>Node426855</title>
<g id="a_node7"><a xlink:href="quickjs_8c.html#ab1ea3fad7d138be12144a38be4d36423" target="_top" xlink:title="__JS_FreeValueRT">
<polygon fill="none" stroke="#ff0000" points="731,-532.5 731,-551.5 833,-551.5 833,-532.5 731,-532.5"/>
<text text-anchor="middle" x="782" y="-539.5" font-family="Helvetica,sans-Serif" font-size="10.00" fill="#000000">__JS_FreeValueRT</text>
</a>
</g>
</g>
<!-- Node426854&#45;&gt;Node426855 -->
<g id="edge6" class="edge">
<title>Node426854&#45;&gt;Node426855</title>
<path fill="none" stroke="#191970" d="M695.0199,-542C703.2672,-542 712.0138,-542 720.6583,-542"/>
<polygon fill="#191970" stroke="#191970" points="720.7233,-545.5001 730.7233,-542 720.7232,-538.5001 720.7233,-545.5001"/>
</g>
<!-- Node426855&#45;&gt;Node426852 -->
<g id="edge7" class="edge">
<title>Node426855&#45;&gt;Node426852</title>
<path fill="none" stroke="#191970" d="M833.3326,-550.4443C841.8898,-551.852 850.6372,-553.291 858.8109,-554.6356"/>
<polygon fill="#191970" stroke="#191970" points="858.3643,-558.1091 868.7999,-556.2788 859.5006,-551.2019 858.3643,-558.1091"/>
</g>
<!-- Node426890 -->
<g id="node9" class="node">
<title>Node426890</title>
<g id="a_node9"><a xlink:href="quickjs_8c.html#ab0f713d7a2440dbb2673810323a9a78d" target="_top" xlink:title="JS_ThrowTypeErrorInvalid\lClass">
<polygon fill="none" stroke="#000000" points="283,-331 283,-361 415,-361 415,-331 283,-331"/>
<text text-anchor="start" x="291" y="-349" font-family="Helvetica,sans-Serif" font-size="10.00" fill="#000000">JS_ThrowTypeErrorInvalid</text>
<text text-anchor="middle" x="349" y="-338" font-family="Helvetica,sans-Serif" font-size="10.00" fill="#000000">Class</text>
</a>
</g>
</g>
<!-- Node426889&#45;&gt;Node426890 -->
<g id="edge9" class="edge">
<title>Node426889&#45;&gt;Node426890</title>
<path fill="none" stroke="#191970" d="M229.2735,-350.5322C242.3791,-350.0361 257.5035,-349.4636 272.4966,-348.896"/>
<polygon fill="#191970" stroke="#191970" points="272.9687,-352.3808 282.8291,-348.5049 272.7039,-345.3858 272.9687,-352.3808"/>
</g>
<!-- Node426892 -->
<g id="node11" class="node">
<title>Node426892</title>
<g id="a_node11"><a xlink:href="quickjs_8c.html#a5762c57ae0c9937e986040c01222833a" target="_top" xlink:title="JS_GetPropertyInternal">
<polygon fill="none" stroke="#ff0000" points="289.5,-456.5 289.5,-475.5 408.5,-475.5 408.5,-456.5 289.5,-456.5"/>
<text text-anchor="middle" x="349" y="-463.5" font-family="Helvetica,sans-Serif" font-size="10.00" fill="#000000">JS_GetPropertyInternal</text>
</a>
</g>
</g>
<!-- Node426891&#45;&gt;Node426892 -->
<g id="edge11" class="edge">
<title>Node426891&#45;&gt;Node426892</title>
<path fill="none" stroke="#191970" d="M233.8108,-466C247.871,-466 263.846,-466 279.3263,-466"/>
<polygon fill="#191970" stroke="#191970" points="279.4026,-469.5001 289.4026,-466 279.4025,-462.5001 279.4026,-469.5001"/>
</g>
<!-- Node426892&#45;&gt;Node426853 -->
<g id="edge15" class="edge">
<title>Node426892&#45;&gt;Node426853</title>
<path fill="none" stroke="#191970" d="M383.0679,-475.5267C393.7004,-479.24 405.2016,-484.055 415,-490 433.5566,-501.259 432.2237,-512.1114 451,-523 454.6408,-525.1114 458.5453,-527.0192 462.5499,-528.7368"/>
<polygon fill="#191970" stroke="#191970" points="461.4096,-532.0486 471.9984,-532.4053 463.9432,-525.5232 461.4096,-532.0486"/>
</g>
<!-- Node426893 -->
<g id="node12" class="node">
<title>Node426893</title>
<g id="a_node12"><a xlink:href="quickjs_8c.html#a288254c06a39c9fca740a7abdad2834e" target="_top" xlink:title="__JS_AtomIsTaggedInt">
<polygon fill="none" stroke="#000000" points="451,-494.5 451,-513.5 570,-513.5 570,-494.5 451,-494.5"/>
<text text-anchor="middle" x="510.5" y="-501.5" font-family="Helvetica,sans-Serif" font-size="10.00" fill="#000000">__JS_AtomIsTaggedInt</text>
</a>
</g>
</g>
<!-- Node426892&#45;&gt;Node426893 -->
<g id="edge12" class="edge">
<title>Node426892&#45;&gt;Node426893</title>
<path fill="none" stroke="#191970" d="M389.7533,-475.589C411.1609,-480.6261 437.5862,-486.8438 460.2525,-492.1771"/>
<polygon fill="#191970" stroke="#191970" points="459.5039,-495.5964 470.0398,-494.4799 461.1073,-488.7825 459.5039,-495.5964"/>
</g>
<!-- Node426894 -->
<g id="node13" class="node">
<title>Node426894</title>
<g id="a_node13"><a xlink:href="quickjs_8c.html#a89f38938cee8077ce1fbba07946ed185" target="_top" xlink:title="__JS_AtomToUInt32">
<polygon fill="none" stroke="#000000" points="456.5,-456.5 456.5,-475.5 564.5,-475.5 564.5,-456.5 456.5,-456.5"/>
<text text-anchor="middle" x="510.5" y="-463.5" font-family="Helvetica,sans-Serif" font-size="10.00" fill="#000000">__JS_AtomToUInt32</text>
</a>
</g>
</g>
<!-- Node426892&#45;&gt;Node426894 -->
<g id="edge13" class="edge">
<title>Node426892&#45;&gt;Node426894</title>
<path fill="none" stroke="#191970" d="M408.6778,-466C420.8923,-466 433.7985,-466 446.1681,-466"/>
<polygon fill="#191970" stroke="#191970" points="446.4053,-469.5001 456.4053,-466 446.4052,-462.5001 446.4053,-469.5001"/>
</g>
<!-- Node426895 -->
<g id="node14" class="node">
<title>Node426895</title>
<g id="a_node14"><a xlink:href="quickjs_8c.html#a06b76f5124fd985e35f4c652fd018d6d" target="_top" xlink:title="find_own_property">
<polygon fill="none" stroke="#ff0000" points="462.5,-418.5 462.5,-437.5 558.5,-437.5 558.5,-418.5 462.5,-418.5"/>
<text text-anchor="middle" x="510.5" y="-425.5" font-family="Helvetica,sans-Serif" font-size="10.00" fill="#000000">find_own_property</text>
</a>
</g>
</g>
<!-- Node426892&#45;&gt;Node426895 -->
<g id="edge14" class="edge">
<title>Node426892&#45;&gt;Node426895</title>
<path fill="none" stroke="#191970" d="M389.7533,-456.411C411.1609,-451.3739 437.5862,-445.1562 460.2525,-439.8229"/>
<polygon fill="#191970" stroke="#191970" points="461.1073,-443.2175 470.0398,-437.5201 459.5039,-436.4036 461.1073,-443.2175"/>
</g>
<!-- Node426892&#45;&gt;Node426901 -->
<g id="edge16" class="edge">
<title>Node426892&#45;&gt;Node426901</title>
<path fill="none" stroke="#191970" d="M394.3792,-456.4211C401.5554,-453.9361 408.6835,-450.8411 415,-447 434.8777,-434.9123 431.2984,-421.3726 451,-409 454.7694,-406.6328 458.8596,-404.5363 463.071,-402.6845"/>
<polygon fill="#191970" stroke="#191970" points="464.3823,-405.9298 472.4063,-399.0113 461.8192,-399.4159 464.3823,-405.9298"/>
</g>
<!-- Node427283&#45;&gt;Node426853 -->
<g id="edge21" class="edge">
<title>Node427283&#45;&gt;Node426853</title>
<path fill="none" stroke="#191970" d="M227.5631,-437.5617C234.3029,-440.0957 241.0694,-443.2119 247,-447 266.6063,-459.5231 262.915,-473.26 283,-485 312.9283,-502.4936 403.6927,-521.9334 461.1231,-532.9909"/>
<polygon fill="#191970" stroke="#191970" points="460.6084,-536.4557 471.0868,-534.8897 461.9189,-529.5795 460.6084,-536.4557"/>
</g>
<!-- Node427284 -->
<g id="node19" class="node">
<title>Node427284</title>
<g id="a_node19"><a xlink:href="quickjs_8c.html#a537e88d38784e3df2a19c72f8bd1d77e" target="_top" xlink:title="JS_ToInt64Clamp">
<polygon fill="none" stroke="#ff0000" points="301.5,-418.5 301.5,-437.5 396.5,-437.5 396.5,-418.5 301.5,-418.5"/>
<text text-anchor="middle" x="349" y="-425.5" font-family="Helvetica,sans-Serif" font-size="10.00" fill="#000000">JS_ToInt64Clamp</text>
</a>
</g>
</g>
<!-- Node427283&#45;&gt;Node427284 -->
<g id="edge22" class="edge">
<title>Node427283&#45;&gt;Node427284</title>
<path fill="none" stroke="#191970" d="M237.6261,-428C254.4081,-428 273.5035,-428 291.0852,-428"/>
<polygon fill="#191970" stroke="#191970" points="291.2332,-431.5001 301.2332,-428 291.2332,-424.5001 291.2332,-431.5001"/>
</g>
<!-- Node427287 -->
<g id="node22" class="node">
<title>Node427287</title>
<g id="a_node22"><a xlink:href="libregexp_8c.html#a2c44185f26ab7513cb353d16212acb83" target="_top" xlink:title="lre_exec_backtrack">
<polygon fill="none" stroke="#ff0000" points="298.5,-209.5 298.5,-228.5 399.5,-228.5 399.5,-209.5 298.5,-209.5"/>
<text text-anchor="middle" x="349" y="-216.5" font-family="Helvetica,sans-Serif" font-size="10.00" fill="#000000">lre_exec_backtrack</text>
</a>
</g>
</g>
<!-- Node427286&#45;&gt;Node427287 -->
<g id="edge25" class="edge">
<title>Node427286&#45;&gt;Node427287</title>
<path fill="none" stroke="#191970" d="M217.0293,-203.1802C236.4707,-205.5107 263.6588,-208.7698 288.3088,-211.7247"/>
<polygon fill="#191970" stroke="#191970" points="287.9805,-215.2103 298.326,-212.9255 288.8137,-208.2601 287.9805,-215.2103"/>
</g>
<!-- Node427293 -->
<g id="node23" class="node">
<title>Node427293</title>
<g id="a_node23"><a xlink:href="quickjs_8c.html#a770bcb52221b07905a94fcb36ac192cd" target="_top" xlink:title="lre_realloc">
<polygon fill="none" stroke="#000000" points="318.5,-171.5 318.5,-190.5 379.5,-190.5 379.5,-171.5 318.5,-171.5"/>
<text text-anchor="middle" x="349" y="-178.5" font-family="Helvetica,sans-Serif" font-size="10.00" fill="#000000">lre_realloc</text>
</a>
</g>
</g>
<!-- Node427286&#45;&gt;Node427293 -->
<g id="edge27" class="edge">
<title>Node427286&#45;&gt;Node427293</title>
<path fill="none" stroke="#191970" d="M217.0293,-196.8198C241.9101,-193.8373 279.4791,-189.3337 308.1778,-185.8935"/>
<polygon fill="#191970" stroke="#191970" points="308.7974,-189.3444 318.3097,-184.679 307.9642,-182.3941 308.7974,-189.3444"/>
</g>
<!-- Node427287&#45;&gt;Node427287 -->
<g id="edge26" class="edge">
<title>Node427287&#45;&gt;Node427287</title>
<path fill="none" stroke="#191970" d="M324.6476,-228.7571C312.8005,-237.5653 320.918,-247 349,-247 367.4288,-247 377.2596,-242.9368 378.4924,-237.6539"/>
<polygon fill="#191970" stroke="#191970" points="381.3855,-235.665 373.3524,-228.7571 375.3243,-239.1668 381.3855,-235.665"/>
</g>
<!-- Node426930&#45;&gt;Node426851 -->
<g id="edge32" class="edge">
<title>Node426930&#45;&gt;Node426851</title>
<path fill="none" stroke="#191970" d="M236.7708,-580C262.0129,-580 292.6878,-580 315.5846,-580"/>
<polygon fill="#191970" stroke="#191970" points="315.8255,-583.5001 325.8255,-580 315.8254,-576.5001 315.8255,-583.5001"/>
</g>
<!-- Node426931&#45;&gt;Node426851 -->
<g id="edge34" class="edge">
<title>Node426931&#45;&gt;Node426851</title>
<path fill="none" stroke="#191970" d="M230.4962,-551.589C256.8163,-557.8992 290.8645,-566.0622 315.7068,-572.018"/>
<polygon fill="#191970" stroke="#191970" points="315.2,-575.4957 325.7405,-574.4236 316.8321,-568.6886 315.2,-575.4957"/>
</g>
</g>
</svg>
        <g id="navigator" transform="translate(0 0)" fill="#404254">
                <rect fill="#f2f5e9" fill-opacity="0.5" stroke="#606060" stroke-width=".5" x="0" y="0" width="60" height="60"/>
                <use id="zoomplus" xlink:href="#zoomPlus" x="17" y="9" onmousedown="handleZoom(evt,'in')"/>
                <use id="zoomminus" xlink:href="#zoomMin" x="42" y="9" onmousedown="handleZoom(evt,'out')"/>
                <use id="reset" xlink:href="#resetDef" x="30" y="36" onmousedown="handleReset()"/>
                <g id="arrowUp" xlink:href="#dirArrow" transform="translate(30 24)" onmousedown="handlePan(0,-1)">
                  <use xlink:href="#rim" fill="#404040">
                        <set attributeName="fill" to="#808080" begin="arrowUp.mouseover" end="arrowUp.mouseout"/>
                  </use>
                  <path fill="none" stroke="white" stroke-width="1.5" d="M0,-3.0v7 M-2.5,-0.5L0,-3.0L2.5,-0.5"/>
                </g>
                <g id="arrowRight" xlink:href="#dirArrow" transform="rotate(90) translate(36 -43)" onmousedown="handlePan(1,0)">
                  <use xlink:href="#rim" fill="#404040">
                        <set attributeName="fill" to="#808080" begin="arrowRight.mouseover" end="arrowRight.mouseout"/>
                  </use>
                  <path fill="none" stroke="white" stroke-width="1.5" d="M0,-3.0v7 M-2.5,-0.5L0,-3.0L2.5,-0.5"/>
                </g>
                <g id="arrowDown" xlink:href="#dirArrow" transform="rotate(180) translate(-30 -48)" onmousedown="handlePan(0,1)">
                  <use xlink:href="#rim" fill="#404040">
                        <set attributeName="fill" to="#808080" begin="arrowDown.mouseover" end="arrowDown.mouseout"/>
                  </use>
                  <path fill="none" stroke="white" stroke-width="1.5" d="M0,-3.0v7 M-2.5,-0.5L0,-3.0L2.5,-0.5"/>
                </g>
                <g id="arrowLeft" xlink:href="#dirArrow" transform="rotate(270) translate(-36 17)" onmousedown="handlePan(-1,0)">
                  <use xlink:href="#rim" fill="#404040">
                        <set attributeName="fill" to="#808080" begin="arrowLeft.mouseover" end="arrowLeft.mouseout"/>
                  </use>
                  <path fill="none" stroke="white" stroke-width="1.5" d="M0,-3.0v7 M-2.5,-0.5L0,-3.0L2.5,-0.5"/>
                </g>
        </g>
        <svg viewBox="0 0 15 15" width="100%" height="30px" preserveAspectRatio="xMaxYMin meet">
         <g id="arrow_out" transform="scale(0.3 0.3)">
          <a xlink:href="quickjs_8c_a14fa3c10f581e1cd38b349913f47fb43_cgraph_org.svg" target="_base">
           <rect id="button" ry="5" rx="5" y="6" x="6" height="38" width="38"
                fill="#f2f5e9" fill-opacity="0.5" stroke="#606060" stroke-width="1.0"/>
           <path id="arrow"
             d="M 11.500037,31.436501 C 11.940474,20.09759 22.043105,11.32322 32.158766,21.979434 L 37.068811,17.246167 C 37.068811,17.246167 37.088388,32 37.088388,32 L 22.160133,31.978069 C 22.160133,31.978069 26.997745,27.140456 26.997745,27.140456 C 18.528582,18.264221 13.291696,25.230495 11.500037,31.436501 z"
             style="fill:#404040;"/>
          </a>
         </g>
        </svg>
</svg>
