<?xml version="1.0" encoding="UTF-8" standalone="no"?>
<!DOCTYPE svg PUBLIC "-//W3C//DTD SVG 1.1//EN"
 "http://www.w3.org/Graphics/SVG/1.1/DTD/svg11.dtd">
<!-- Generated by graphviz version 2.40.1 (20161225.0304)
 -->
<!-- Title: js_module_loader_so Pages: 1 -->
<svg width="466pt" height="66pt"
 viewBox="0.00 0.00 466.00 66.00" xmlns="http://www.w3.org/2000/svg" xmlns:xlink="http://www.w3.org/1999/xlink">
<g id="graph0" class="graph" transform="scale(1 1) rotate(0) translate(4 62)">
<title>js_module_loader_so</title>
<!-- Node1356 -->
<g id="node1" class="node">
<title>Node1356</title>
<polygon fill="#bfbfbf" stroke="#000000" points="0,-19.5 0,-38.5 108,-38.5 108,-19.5 0,-19.5"/>
<text text-anchor="middle" x="54" y="-26.5" font-family="Helvetica,sans-Serif" font-size="10.00" fill="#000000">js_module_loader_so</text>
</g>
<!-- Node1357 -->
<g id="node2" class="node">
<title>Node1357</title>
<g id="a_node2"><a xlink:href="quickjs-libc_8c.html#ad61d60681847f324c5ba4ad88c546f1e" target="_top" xlink:title="js_module_loader">
<polygon fill="none" stroke="#000000" points="144,-19.5 144,-38.5 236,-38.5 236,-19.5 144,-19.5"/>
<text text-anchor="middle" x="190" y="-26.5" font-family="Helvetica,sans-Serif" font-size="10.00" fill="#000000">js_module_loader</text>
</a>
</g>
</g>
<!-- Node1356&#45;&gt;Node1357 -->
<g id="edge1" class="edge">
<title>Node1356&#45;&gt;Node1357</title>
<path fill="none" stroke="#191970" d="M118.2469,-29C126.9159,-29 135.6666,-29 143.9329,-29"/>
<polygon fill="#191970" stroke="#191970" points="118.1416,-25.5001 108.1416,-29 118.1415,-32.5001 118.1416,-25.5001"/>
</g>
<!-- Node1358 -->
<g id="node3" class="node">
<title>Node1358</title>
<g id="a_node3"><a xlink:href="qjs_8cpp.html#a3c04138a5bfe5d72780bb7e82a18e627" target="_top" xlink:title="main">
<polygon fill="none" stroke="#000000" points="288,-38.5 288,-57.5 326,-57.5 326,-38.5 288,-38.5"/>
<text text-anchor="middle" x="307" y="-45.5" font-family="Helvetica,sans-Serif" font-size="10.00" fill="#000000">main</text>
</a>
</g>
</g>
<!-- Node1357&#45;&gt;Node1358 -->
<g id="edge2" class="edge">
<title>Node1357&#45;&gt;Node1358</title>
<path fill="none" stroke="#191970" d="M246.4969,-38.1747C261.4195,-40.598 276.5162,-43.0496 287.8966,-44.8977"/>
<polygon fill="#191970" stroke="#191970" points="246.6732,-34.6576 236.2415,-36.5093 245.5511,-41.5671 246.6732,-34.6576"/>
</g>
<!-- Node1359 -->
<g id="node4" class="node">
<title>Node1359</title>
<g id="a_node4"><a xlink:href="quickjs-libc_8c.html#a1fbb3adc15e7b967479fc1940e99b67a" target="_top" xlink:title="worker_func">
<polygon fill="none" stroke="#000000" points="272,-.5 272,-19.5 342,-19.5 342,-.5 272,-.5"/>
<text text-anchor="middle" x="307" y="-7.5" font-family="Helvetica,sans-Serif" font-size="10.00" fill="#000000">worker_func</text>
</a>
</g>
</g>
<!-- Node1357&#45;&gt;Node1359 -->
<g id="edge3" class="edge">
<title>Node1357&#45;&gt;Node1359</title>
<path fill="none" stroke="#191970" d="M246.387,-19.8431C255.0934,-18.4293 263.8623,-17.0053 271.9209,-15.6966"/>
<polygon fill="#191970" stroke="#191970" points="245.5511,-16.4329 236.2415,-21.4907 246.6732,-23.3424 245.5511,-16.4329"/>
</g>
<!-- Node1360 -->
<g id="node5" class="node">
<title>Node1360</title>
<g id="a_node5"><a xlink:href="quickjs-libc_8c.html#aff1e6131e8bf8b7eb25307623ad669e7" target="_top" xlink:title="js_worker_ctor">
<polygon fill="none" stroke="#ff0000" points="378,-.5 378,-19.5 458,-19.5 458,-.5 378,-.5"/>
<text text-anchor="middle" x="418" y="-7.5" font-family="Helvetica,sans-Serif" font-size="10.00" fill="#000000">js_worker_ctor</text>
</a>
</g>
</g>
<!-- Node1359&#45;&gt;Node1360 -->
<g id="edge4" class="edge">
<title>Node1359&#45;&gt;Node1360</title>
<path fill="none" stroke="#191970" d="M352.1986,-10C360.6394,-10 369.4096,-10 377.691,-10"/>
<polygon fill="#191970" stroke="#191970" points="352.1211,-6.5001 342.1211,-10 352.1211,-13.5001 352.1211,-6.5001"/>
</g>
</g>
</svg>
