<?xml version="1.0" encoding="UTF-8" standalone="no"?>
<!DOCTYPE svg PUBLIC "-//W3C//DTD SVG 1.1//EN"
 "http://www.w3.org/Graphics/SVG/1.1/DTD/svg11.dtd">
<!-- Generated by graphviz version 2.40.1 (20161225.0304)
 -->
<!-- Title: JS_NewAtomLen Pages: 1 -->
<svg width="721pt" height="707pt"
 viewBox="0.00 0.00 721.00 706.50" xmlns="http://www.w3.org/2000/svg" xmlns:xlink="http://www.w3.org/1999/xlink">
<g id="graph0" class="graph" transform="scale(1 1) rotate(0) translate(4 702.5)">
<title>JS_NewAtomLen</title>
<!-- Node18270 -->
<g id="node1" class="node">
<title>Node18270</title>
<polygon fill="#bfbfbf" stroke="#000000" points="0,-455.5 0,-474.5 93,-474.5 93,-455.5 0,-455.5"/>
<text text-anchor="middle" x="46.5" y="-462.5" font-family="Helvetica,sans-Serif" font-size="10.00" fill="#000000">JS_NewAtomLen</text>
</g>
<!-- Node18271 -->
<g id="node2" class="node">
<title>Node18271</title>
<g id="a_node2"><a xlink:href="quickjs_8c.html#aadfd9c31a6f69160c12e99b8d5eb5b3c" target="_top" xlink:title="js_atom_concat_str">
<polygon fill="none" stroke="#000000" points="129,-632.5 129,-651.5 231,-651.5 231,-632.5 129,-632.5"/>
<text text-anchor="middle" x="180" y="-639.5" font-family="Helvetica,sans-Serif" font-size="10.00" fill="#000000">js_atom_concat_str</text>
</a>
</g>
</g>
<!-- Node18270&#45;&gt;Node18271 -->
<g id="edge1" class="edge">
<title>Node18270&#45;&gt;Node18271</title>
<path fill="none" stroke="#191970" d="M59.9699,-482.8589C87.9148,-519.9095 151.3714,-604.043 172.787,-632.4367"/>
<polygon fill="#191970" stroke="#191970" points="62.4935,-480.3925 53.6775,-474.5163 56.9049,-484.6076 62.4935,-480.3925"/>
</g>
<!-- Node18311 -->
<g id="node7" class="node">
<title>Node18311</title>
<g id="a_node7"><a xlink:href="quickjs_8c.html#aa2ef5af1544a3012f91a80c98c326b8f" target="_top" xlink:title="JS_NewAtom">
<polygon fill="none" stroke="#000000" points="141.5,-316.5 141.5,-335.5 218.5,-335.5 218.5,-316.5 141.5,-316.5"/>
<text text-anchor="middle" x="180" y="-323.5" font-family="Helvetica,sans-Serif" font-size="10.00" fill="#000000">JS_NewAtom</text>
</a>
</g>
</g>
<!-- Node18270&#45;&gt;Node18311 -->
<g id="edge7" class="edge">
<title>Node18270&#45;&gt;Node18311</title>
<path fill="none" stroke="#191970" d="M62.8377,-447.9892C91.1398,-418.5211 148.4003,-358.9015 170.7598,-335.6209"/>
<polygon fill="#191970" stroke="#191970" points="60.0786,-445.8092 55.676,-455.446 65.1273,-450.6581 60.0786,-445.8092"/>
</g>
<!-- Node18894 -->
<g id="node27" class="node">
<title>Node18894</title>
<g id="a_node27"><a xlink:href="quickjs_8c.html#adab89942b11c3b3cbf3ecb9e763b0ab6" target="_top" xlink:title="json_parse_ident">
<polygon fill="none" stroke="#000000" points="135,-139.5 135,-158.5 225,-158.5 225,-139.5 135,-139.5"/>
<text text-anchor="middle" x="180" y="-146.5" font-family="Helvetica,sans-Serif" font-size="10.00" fill="#000000">json_parse_ident</text>
</a>
</g>
</g>
<!-- Node18270&#45;&gt;Node18894 -->
<g id="edge32" class="edge">
<title>Node18270&#45;&gt;Node18894</title>
<path fill="none" stroke="#191970" d="M54.6304,-445.7551C80.0187,-385.6598 157.2412,-202.8711 175.9065,-158.6894"/>
<polygon fill="#191970" stroke="#191970" points="51.3094,-444.6224 50.6418,-455.1962 57.7576,-447.3466 51.3094,-444.6224"/>
</g>
<!-- Node18897 -->
<g id="node29" class="node">
<title>Node18897</title>
<g id="a_node29"><a xlink:href="quickjs_8c.html#ad91865d0889d1420e3e70d5d497a9bdb" target="_top" xlink:title="parse_ident">
<polygon fill="none" stroke="#000000" points="146.5,-525.5 146.5,-544.5 213.5,-544.5 213.5,-525.5 146.5,-525.5"/>
<text text-anchor="middle" x="180" y="-532.5" font-family="Helvetica,sans-Serif" font-size="10.00" fill="#000000">parse_ident</text>
</a>
</g>
</g>
<!-- Node18270&#45;&gt;Node18897 -->
<g id="edge34" class="edge">
<title>Node18270&#45;&gt;Node18897</title>
<path fill="none" stroke="#191970" d="M73.8016,-479.3154C99.9755,-493.0396 138.7699,-513.3812 161.5097,-525.3047"/>
<polygon fill="#191970" stroke="#191970" points="75.2644,-476.1305 64.7827,-474.5864 72.0137,-482.33 75.2644,-476.1305"/>
</g>
<!-- Node18272 -->
<g id="node3" class="node">
<title>Node18272</title>
<g id="a_node3"><a xlink:href="quickjs_8c.html#a6bb36fa120270db7f4e19891b8a0bfe1" target="_top" xlink:title="get_private_setter_name">
<polygon fill="none" stroke="#000000" points="273.5,-670.5 273.5,-689.5 397.5,-689.5 397.5,-670.5 273.5,-670.5"/>
<text text-anchor="middle" x="335.5" y="-677.5" font-family="Helvetica,sans-Serif" font-size="10.00" fill="#000000">get_private_setter_name</text>
</a>
</g>
</g>
<!-- Node18271&#45;&gt;Node18272 -->
<g id="edge2" class="edge">
<title>Node18271&#45;&gt;Node18272</title>
<path fill="none" stroke="#191970" d="M228.9742,-653.968C250.7652,-659.2931 276.0672,-665.4762 296.543,-670.4799"/>
<polygon fill="#191970" stroke="#191970" points="229.7843,-650.563 219.2392,-651.589 228.1225,-657.3629 229.7843,-650.563"/>
</g>
<!-- Node18310 -->
<g id="node6" class="node">
<title>Node18310</title>
<g id="a_node6"><a xlink:href="quickjs_8c.html#aa38698096df1fd806b60ab8b209fa4a8" target="_top" xlink:title="js_atom_concat_num">
<polygon fill="none" stroke="#000000" points="280.5,-632.5 280.5,-651.5 390.5,-651.5 390.5,-632.5 280.5,-632.5"/>
<text text-anchor="middle" x="335.5" y="-639.5" font-family="Helvetica,sans-Serif" font-size="10.00" fill="#000000">js_atom_concat_num</text>
</a>
</g>
</g>
<!-- Node18271&#45;&gt;Node18310 -->
<g id="edge5" class="edge">
<title>Node18271&#45;&gt;Node18310</title>
<path fill="none" stroke="#191970" d="M241.5024,-642C254.3665,-642 267.8516,-642 280.4628,-642"/>
<polygon fill="#191970" stroke="#191970" points="241.3475,-638.5001 231.3475,-642 241.3474,-645.5001 241.3475,-638.5001"/>
</g>
<!-- Node18273 -->
<g id="node4" class="node">
<title>Node18273</title>
<g id="a_node4"><a xlink:href="quickjs_8c.html#a00eb789430243c24dab4a63ad6a79653" target="_top" xlink:title="js_parse_class">
<polygon fill="none" stroke="#ff0000" points="468.5,-629.5 468.5,-648.5 550.5,-648.5 550.5,-629.5 468.5,-629.5"/>
<text text-anchor="middle" x="509.5" y="-636.5" font-family="Helvetica,sans-Serif" font-size="10.00" fill="#000000">js_parse_class</text>
</a>
</g>
</g>
<!-- Node18272&#45;&gt;Node18273 -->
<g id="edge3" class="edge">
<title>Node18272&#45;&gt;Node18273</title>
<path fill="none" stroke="#191970" d="M385.7013,-668.1709C412.1697,-661.9342 444.2088,-654.3847 469.0614,-648.5286"/>
<polygon fill="#191970" stroke="#191970" points="384.7871,-664.7904 375.8564,-670.4907 386.3926,-671.6038 384.7871,-664.7904"/>
</g>
<!-- Node18307 -->
<g id="node5" class="node">
<title>Node18307</title>
<g id="a_node5"><a xlink:href="quickjs_8c.html#a7d2ad72913c8768cc7bceeb2693d53c4" target="_top" xlink:title="resolve_scope_private\l_field">
<polygon fill="none" stroke="#ff0000" points="452.5,-668 452.5,-698 566.5,-698 566.5,-668 452.5,-668"/>
<text text-anchor="start" x="460.5" y="-686" font-family="Helvetica,sans-Serif" font-size="10.00" fill="#000000">resolve_scope_private</text>
<text text-anchor="middle" x="509.5" y="-675" font-family="Helvetica,sans-Serif" font-size="10.00" fill="#000000">_field</text>
</a>
</g>
</g>
<!-- Node18272&#45;&gt;Node18307 -->
<g id="edge4" class="edge">
<title>Node18272&#45;&gt;Node18307</title>
<path fill="none" stroke="#191970" d="M407.9453,-681.2491C422.7259,-681.5039 438.0833,-681.7687 452.2453,-682.0129"/>
<polygon fill="#191970" stroke="#191970" points="407.8854,-677.7476 397.8265,-681.0746 407.7647,-684.7466 407.8854,-677.7476"/>
</g>
<!-- Node18310&#45;&gt;Node18273 -->
<g id="edge6" class="edge">
<title>Node18310&#45;&gt;Node18273</title>
<path fill="none" stroke="#191970" d="M400.7867,-640.8744C423.4297,-640.484 448.169,-640.0574 468.3195,-639.71"/>
<polygon fill="#191970" stroke="#191970" points="400.4928,-637.3788 390.5547,-641.0508 400.6136,-644.3778 400.4928,-637.3788"/>
</g>
<!-- Node18301 -->
<g id="node8" class="node">
<title>Node18301</title>
<g id="a_node8"><a xlink:href="quickjs_8c.html#a46a8a7e155cfd0af984f6725f060f0d6" target="_top" xlink:title="__JS_EvalInternal">
<polygon fill="none" stroke="#ff0000" points="461.5,-196.5 461.5,-215.5 557.5,-215.5 557.5,-196.5 461.5,-196.5"/>
<text text-anchor="middle" x="509.5" y="-203.5" font-family="Helvetica,sans-Serif" font-size="10.00" fill="#000000">__JS_EvalInternal</text>
</a>
</g>
</g>
<!-- Node18311&#45;&gt;Node18301 -->
<g id="edge8" class="edge">
<title>Node18311&#45;&gt;Node18301</title>
<path fill="none" stroke="#191970" d="M197.9698,-342.3435C214.5257,-356.2136 240.4774,-375.0853 267,-383 325.3464,-400.4114 351.0582,-413.077 404,-383 470.5637,-345.1841 499.5637,-246.9056 507.2877,-215.6758"/>
<polygon fill="#191970" stroke="#191970" points="200.0668,-339.5295 190.2154,-335.6308 195.4853,-344.822 200.0668,-339.5295"/>
</g>
<!-- Node18312 -->
<g id="node9" class="node">
<title>Node18312</title>
<g id="a_node9"><a xlink:href="classqjs_1_1Value.html#a7816587475ecf667433f9ea681df925b" target="_top" xlink:title="qjs::Value::add_getter">
<polygon fill="none" stroke="#000000" points="279.5,-556.5 279.5,-575.5 391.5,-575.5 391.5,-556.5 279.5,-556.5"/>
<text text-anchor="middle" x="335.5" y="-563.5" font-family="Helvetica,sans-Serif" font-size="10.00" fill="#000000">qjs::Value::add_getter</text>
</a>
</g>
</g>
<!-- Node18311&#45;&gt;Node18312 -->
<g id="edge9" class="edge">
<title>Node18311&#45;&gt;Node18312</title>
<path fill="none" stroke="#191970" d="M181.9344,-345.6931C187.2399,-388.7976 205.9668,-492.0312 267,-547 271.3101,-550.8818 276.3464,-553.9787 281.6971,-556.448"/>
<polygon fill="#191970" stroke="#191970" points="185.4017,-345.2048 180.813,-335.6553 178.445,-345.9821 185.4017,-345.2048"/>
</g>
<!-- Node18313 -->
<g id="node10" class="node">
<title>Node18313</title>
<g id="a_node10"><a xlink:href="classqjs_1_1Value.html#ac6bbb5f2ab1ed265b2b508325807e2fb" target="_top" xlink:title="qjs::Value::add_getter\l_setter">
<polygon fill="none" stroke="#000000" points="279.5,-507 279.5,-537 391.5,-537 391.5,-507 279.5,-507"/>
<text text-anchor="start" x="287.5" y="-525" font-family="Helvetica,sans-Serif" font-size="10.00" fill="#000000">qjs::Value::add_getter</text>
<text text-anchor="middle" x="335.5" y="-514" font-family="Helvetica,sans-Serif" font-size="10.00" fill="#000000">_setter</text>
</a>
</g>
</g>
<!-- Node18311&#45;&gt;Node18313 -->
<g id="edge10" class="edge">
<title>Node18311&#45;&gt;Node18313</title>
<path fill="none" stroke="#191970" d="M185.4339,-345.2769C195.9014,-379.2013 221.9047,-449.9535 267,-492 273.457,-498.0205 281.3169,-502.9593 289.3788,-506.9663"/>
<polygon fill="#191970" stroke="#191970" points="188.7749,-344.2322 182.5768,-335.6396 182.0636,-346.222 188.7749,-344.2322"/>
</g>
<!-- Node18314 -->
<g id="node11" class="node">
<title>Node18314</title>
<g id="a_node11"><a xlink:href="quickjs_8c.html#ae8e62d181b34d2e7bdda0b099c0880f5" target="_top" xlink:title="find_atom">
<polygon fill="none" stroke="#000000" points="306,-38.5 306,-57.5 365,-57.5 365,-38.5 306,-38.5"/>
<text text-anchor="middle" x="335.5" y="-45.5" font-family="Helvetica,sans-Serif" font-size="10.00" fill="#000000">find_atom</text>
</a>
</g>
</g>
<!-- Node18311&#45;&gt;Node18314 -->
<g id="edge11" class="edge">
<title>Node18311&#45;&gt;Node18314</title>
<path fill="none" stroke="#191970" d="M186.2165,-306.6984C205.3624,-247.3579 262.4222,-71.3392 267,-67 277.39,-57.1514 292.4287,-52.327 305.7698,-49.9957"/>
<polygon fill="#191970" stroke="#191970" points="182.8412,-305.7615 183.1039,-316.3531 189.5035,-307.9094 182.8412,-305.7615"/>
</g>
<!-- Node18333 -->
<g id="node13" class="node">
<title>Node18333</title>
<g id="a_node13"><a xlink:href="quickjs_8c.html#a369af749a1fb181216fe8a8b55f841b0" target="_top" xlink:title="JS_AddModuleExport">
<polygon fill="none" stroke="#000000" points="280,-430.5 280,-449.5 391,-449.5 391,-430.5 280,-430.5"/>
<text text-anchor="middle" x="335.5" y="-437.5" font-family="Helvetica,sans-Serif" font-size="10.00" fill="#000000">JS_AddModuleExport</text>
</a>
</g>
</g>
<!-- Node18311&#45;&gt;Node18333 -->
<g id="edge13" class="edge">
<title>Node18311&#45;&gt;Node18333</title>
<path fill="none" stroke="#191970" d="M192.8411,-343.5689C208.3556,-363.6552 236.2339,-396.2941 267,-416 276.4439,-422.0489 287.6006,-426.7927 298.1377,-430.4077"/>
<polygon fill="#191970" stroke="#191970" points="195.6139,-341.4329 186.7965,-335.5589 190.0264,-345.6495 195.6139,-341.4329"/>
</g>
<!-- Node18336 -->
<g id="node18" class="node">
<title>Node18336</title>
<g id="a_node18"><a xlink:href="quickjs_8c.html#a841f4cb887e4d9e03e94a0697255e578" target="_top" xlink:title="JS_DefinePropertyValueStr">
<polygon fill="none" stroke="#ff0000" points="267,-354.5 267,-373.5 404,-373.5 404,-354.5 267,-354.5"/>
<text text-anchor="middle" x="335.5" y="-361.5" font-family="Helvetica,sans-Serif" font-size="10.00" fill="#000000">JS_DefinePropertyValueStr</text>
</a>
</g>
</g>
<!-- Node18311&#45;&gt;Node18336 -->
<g id="edge20" class="edge">
<title>Node18311&#45;&gt;Node18336</title>
<path fill="none" stroke="#191970" d="M228.6152,-337.8802C250.5135,-343.2316 276.0166,-349.4639 296.6181,-354.4983"/>
<polygon fill="#191970" stroke="#191970" points="229.3831,-334.465 218.8381,-335.491 227.7214,-341.2649 229.3831,-334.465"/>
</g>
<!-- Node18357 -->
<g id="node19" class="node">
<title>Node18357</title>
<g id="a_node19"><a xlink:href="quickjs_8c.html#a04f589361a4fbc30d997402e92a50de2" target="_top" xlink:title="JS_GetPropertyStr">
<polygon fill="none" stroke="#ff0000" points="286,-316.5 286,-335.5 385,-335.5 385,-316.5 286,-316.5"/>
<text text-anchor="middle" x="335.5" y="-323.5" font-family="Helvetica,sans-Serif" font-size="10.00" fill="#000000">JS_GetPropertyStr</text>
</a>
</g>
</g>
<!-- Node18311&#45;&gt;Node18357 -->
<g id="edge21" class="edge">
<title>Node18311&#45;&gt;Node18357</title>
<path fill="none" stroke="#191970" d="M228.9406,-326C247.1251,-326 267.7585,-326 285.9933,-326"/>
<polygon fill="#191970" stroke="#191970" points="228.8381,-322.5001 218.8381,-326 228.8381,-329.5001 228.8381,-322.5001"/>
</g>
<!-- Node18371 -->
<g id="node20" class="node">
<title>Node18371</title>
<g id="a_node20"><a xlink:href="quickjs_8c.html#a90dd988b99a5bc7b2a4aaffd2de405a9" target="_top" xlink:title="js_host_resolve_imported\l_module">
<polygon fill="none" stroke="#ff0000" points="271.5,-267 271.5,-297 399.5,-297 399.5,-267 271.5,-267"/>
<text text-anchor="start" x="279.5" y="-285" font-family="Helvetica,sans-Serif" font-size="10.00" fill="#000000">js_host_resolve_imported</text>
<text text-anchor="middle" x="335.5" y="-274" font-family="Helvetica,sans-Serif" font-size="10.00" fill="#000000">_module</text>
</a>
</g>
</g>
<!-- Node18311&#45;&gt;Node18371 -->
<g id="edge22" class="edge">
<title>Node18311&#45;&gt;Node18371</title>
<path fill="none" stroke="#191970" d="M223.5109,-313.6882C241.7384,-308.5306 263.1033,-302.4852 282.2576,-297.0654"/>
<polygon fill="#191970" stroke="#191970" points="222.4104,-310.3621 213.7412,-316.4527 224.3164,-317.0977 222.4104,-310.3621"/>
</g>
<!-- Node18886 -->
<g id="node21" class="node">
<title>Node18886</title>
<g id="a_node21"><a xlink:href="quickjs_8c.html#a8020fd59ed57f7f299216ec1ebfcda01" target="_top" xlink:title="js_new_function_def">
<polygon fill="none" stroke="#ff0000" points="282.5,-76.5 282.5,-95.5 388.5,-95.5 388.5,-76.5 282.5,-76.5"/>
<text text-anchor="middle" x="335.5" y="-83.5" font-family="Helvetica,sans-Serif" font-size="10.00" fill="#000000">js_new_function_def</text>
</a>
</g>
</g>
<!-- Node18311&#45;&gt;Node18886 -->
<g id="edge23" class="edge">
<title>Node18311&#45;&gt;Node18886</title>
<path fill="none" stroke="#191970" d="M185.2378,-306.57C198.6876,-258.0217 235.5902,-133.2888 267,-105 271.4935,-100.953 276.7764,-97.7592 282.3819,-95.2402"/>
<polygon fill="#191970" stroke="#191970" points="181.7987,-305.8774 182.5354,-316.4466 188.5506,-307.7249 181.7987,-305.8774"/>
</g>
<!-- Node18890 -->
<g id="node22" class="node">
<title>Node18890</title>
<g id="a_node22"><a xlink:href="quickjs_8c.html#a27c3a725d4014a35b5bedcdf6e70dec7" target="_top" xlink:title="JS_NewAtomString">
<polygon fill="none" stroke="#ff0000" points="284,-228.5 284,-247.5 387,-247.5 387,-228.5 284,-228.5"/>
<text text-anchor="middle" x="335.5" y="-235.5" font-family="Helvetica,sans-Serif" font-size="10.00" fill="#000000">JS_NewAtomString</text>
</a>
</g>
</g>
<!-- Node18311&#45;&gt;Node18890 -->
<g id="edge25" class="edge">
<title>Node18311&#45;&gt;Node18890</title>
<path fill="none" stroke="#191970" d="M196.7825,-309.2596C213.3231,-293.6422 239.9774,-270.7451 267,-257 274.4801,-253.1952 282.8195,-250.0712 291.034,-247.5347"/>
<polygon fill="#191970" stroke="#191970" points="194.2836,-306.8071 189.5178,-316.2695 199.1443,-311.8444 194.2836,-306.8071"/>
</g>
<!-- Node18570 -->
<g id="node23" class="node">
<title>Node18570</title>
<g id="a_node23"><a xlink:href="quickjs_8c.html#a21cfe4c4fc9372dc0b95b37667cff0c9" target="_top" xlink:title="JS_NewCFunction3">
<polygon fill="none" stroke="#ff0000" points="283.5,-190.5 283.5,-209.5 387.5,-209.5 387.5,-190.5 283.5,-190.5"/>
<text text-anchor="middle" x="335.5" y="-197.5" font-family="Helvetica,sans-Serif" font-size="10.00" fill="#000000">JS_NewCFunction3</text>
</a>
</g>
</g>
<!-- Node18311&#45;&gt;Node18570 -->
<g id="edge26" class="edge">
<title>Node18311&#45;&gt;Node18570</title>
<path fill="none" stroke="#191970" d="M190.111,-307.4916C204.1886,-283.4705 231.9581,-241.9257 267,-219 272.8867,-215.1487 279.5479,-212.0705 286.3469,-209.6121"/>
<polygon fill="#191970" stroke="#191970" points="186.9873,-305.9045 185.0889,-316.3278 193.0731,-309.3634 186.9873,-305.9045"/>
</g>
<!-- Node18891 -->
<g id="node24" class="node">
<title>Node18891</title>
<g id="a_node24"><a xlink:href="quickjs_8c.html#ac29cc4ec49efa0f0308e494316ce5139" target="_top" xlink:title="JS_NewCModule">
<polygon fill="none" stroke="#ff0000" points="463,-506.5 463,-525.5 556,-525.5 556,-506.5 463,-506.5"/>
<text text-anchor="middle" x="509.5" y="-513.5" font-family="Helvetica,sans-Serif" font-size="10.00" fill="#000000">JS_NewCModule</text>
</a>
</g>
</g>
<!-- Node18311&#45;&gt;Node18891 -->
<g id="edge27" class="edge">
<title>Node18311&#45;&gt;Node18891</title>
<path fill="none" stroke="#191970" d="M187.0101,-344.9837C198.8228,-374.2275 225.5423,-429.951 267,-459 282.9827,-470.1989 396.9826,-493.9423 462.8345,-506.9731"/>
<polygon fill="#191970" stroke="#191970" points="190.2132,-343.5629 183.3329,-335.5061 183.6872,-346.095 190.2132,-343.5629"/>
</g>
<!-- Node18893 -->
<g id="node25" class="node">
<title>Node18893</title>
<g id="a_node25"><a xlink:href="quickjs_8c.html#acc3990661d2851b858601061a62cc7d6" target="_top" xlink:title="JS_SetModuleExport">
<polygon fill="none" stroke="#ff0000" points="281,-152.5 281,-171.5 390,-171.5 390,-152.5 281,-152.5"/>
<text text-anchor="middle" x="335.5" y="-159.5" font-family="Helvetica,sans-Serif" font-size="10.00" fill="#000000">JS_SetModuleExport</text>
</a>
</g>
</g>
<!-- Node18311&#45;&gt;Node18893 -->
<g id="edge30" class="edge">
<title>Node18311&#45;&gt;Node18893</title>
<path fill="none" stroke="#191970" d="M186.3601,-306.4013C197.5444,-275.0775 223.7403,-213.9185 267,-181 272.107,-177.1138 277.9656,-174.0224 284.0597,-171.5633"/>
<polygon fill="#191970" stroke="#191970" points="182.9533,-305.5468 183.0267,-316.1414 189.5762,-307.8134 182.9533,-305.5468"/>
</g>
<!-- Node18495 -->
<g id="node26" class="node">
<title>Node18495</title>
<g id="a_node26"><a xlink:href="quickjs_8c.html#a62617fe11025d2e5a545db069fc28e64" target="_top" xlink:title="JS_SetPropertyStr">
<polygon fill="none" stroke="#ff0000" points="286.5,-114.5 286.5,-133.5 384.5,-133.5 384.5,-114.5 286.5,-114.5"/>
<text text-anchor="middle" x="335.5" y="-121.5" font-family="Helvetica,sans-Serif" font-size="10.00" fill="#000000">JS_SetPropertyStr</text>
</a>
</g>
</g>
<!-- Node18311&#45;&gt;Node18495 -->
<g id="edge31" class="edge">
<title>Node18311&#45;&gt;Node18495</title>
<path fill="none" stroke="#191970" d="M183.7652,-306.1598C191.9594,-268.5358 215.0103,-186.6831 267,-143 272.6693,-138.2365 279.4439,-134.6622 286.4943,-131.9814"/>
<polygon fill="#191970" stroke="#191970" points="180.2609,-305.8262 181.6835,-316.3251 187.1186,-307.2306 180.2609,-305.8262"/>
</g>
<!-- Node18315 -->
<g id="node12" class="node">
<title>Node18315</title>
<g id="a_node12"><a xlink:href="quickjs_8c.html#ac00854b7f1f0f8567af964a2f8f2adb0" target="_top" xlink:title="JS_SetPropertyFunctionList">
<polygon fill="none" stroke="#ff0000" points="440,-38.5 440,-57.5 579,-57.5 579,-38.5 440,-38.5"/>
<text text-anchor="middle" x="509.5" y="-45.5" font-family="Helvetica,sans-Serif" font-size="10.00" fill="#000000">JS_SetPropertyFunctionList</text>
</a>
</g>
</g>
<!-- Node18314&#45;&gt;Node18315 -->
<g id="edge12" class="edge">
<title>Node18314&#45;&gt;Node18315</title>
<path fill="none" stroke="#191970" d="M375.1817,-48C394.3636,-48 417.9563,-48 439.9883,-48"/>
<polygon fill="#191970" stroke="#191970" points="375.0168,-44.5001 365.0167,-48 375.0167,-51.5001 375.0168,-44.5001"/>
</g>
<!-- Node18334 -->
<g id="node14" class="node">
<title>Node18334</title>
<g id="a_node14"><a xlink:href="classqjs_1_1Context_1_1Module.html#aa51896e065a04689c9dbe80a282805bb" target="_top" xlink:title="qjs::Context::Module::add">
<polygon fill="none" stroke="#000000" points="445,-392.5 445,-411.5 574,-411.5 574,-392.5 445,-392.5"/>
<text text-anchor="middle" x="509.5" y="-399.5" font-family="Helvetica,sans-Serif" font-size="10.00" fill="#000000">qjs::Context::Module::add</text>
</a>
</g>
</g>
<!-- Node18333&#45;&gt;Node18334 -->
<g id="edge14" class="edge">
<title>Node18333&#45;&gt;Node18334</title>
<path fill="none" stroke="#191970" d="M389.3144,-428.2474C413.918,-422.8742 442.6867,-416.5914 465.9082,-411.5201"/>
<polygon fill="#191970" stroke="#191970" points="388.4305,-424.8579 379.4075,-430.411 389.9241,-431.6967 388.4305,-424.8579"/>
</g>
<!-- Node18335 -->
<g id="node15" class="node">
<title>Node18335</title>
<g id="a_node15"><a xlink:href="quickjs_8c.html#ac7a9b88dd7ca1a70cd0ecd9a28905e25" target="_top" xlink:title="JS_AddModuleExportList">
<polygon fill="none" stroke="#000000" points="446,-430.5 446,-449.5 573,-449.5 573,-430.5 446,-430.5"/>
<text text-anchor="middle" x="509.5" y="-437.5" font-family="Helvetica,sans-Serif" font-size="10.00" fill="#000000">JS_AddModuleExportList</text>
</a>
</g>
</g>
<!-- Node18333&#45;&gt;Node18335 -->
<g id="edge15" class="edge">
<title>Node18333&#45;&gt;Node18335</title>
<path fill="none" stroke="#191970" d="M401.4286,-440C415.9415,-440 431.2867,-440 445.7132,-440"/>
<polygon fill="#191970" stroke="#191970" points="401.0331,-436.5001 391.0331,-440 401.0331,-443.5001 401.0331,-436.5001"/>
</g>
<!-- Node18329 -->
<g id="node16" class="node">
<title>Node18329</title>
<g id="a_node16"><a xlink:href="quickjs-libc_8c.html#adcca2b4a661355e6ff87a0def2339894" target="_top" xlink:title="js_init_module_os">
<polygon fill="none" stroke="#ff0000" points="616.5,-468.5 616.5,-487.5 711.5,-487.5 711.5,-468.5 616.5,-468.5"/>
<text text-anchor="middle" x="664" y="-475.5" font-family="Helvetica,sans-Serif" font-size="10.00" fill="#000000">js_init_module_os</text>
</a>
</g>
</g>
<!-- Node18333&#45;&gt;Node18329 -->
<g id="edge18" class="edge">
<title>Node18333&#45;&gt;Node18329</title>
<path fill="none" stroke="#191970" d="M392.3449,-451.3504C407.7614,-454.1509 424.4809,-456.9358 440,-459 500.5464,-467.0534 570.7791,-472.361 616.2276,-475.2702"/>
<polygon fill="#191970" stroke="#191970" points="392.8978,-447.8934 382.4278,-449.5153 391.624,-454.7765 392.8978,-447.8934"/>
</g>
<!-- Node18332 -->
<g id="node17" class="node">
<title>Node18332</title>
<g id="a_node17"><a xlink:href="quickjs-libc_8c.html#a0e65c67dfff872a664f8d29e7eae5a61" target="_top" xlink:title="js_init_module_std">
<polygon fill="none" stroke="#ff0000" points="615,-430.5 615,-449.5 713,-449.5 713,-430.5 615,-430.5"/>
<text text-anchor="middle" x="664" y="-437.5" font-family="Helvetica,sans-Serif" font-size="10.00" fill="#000000">js_init_module_std</text>
</a>
</g>
</g>
<!-- Node18333&#45;&gt;Node18332 -->
<g id="edge19" class="edge">
<title>Node18333&#45;&gt;Node18332</title>
<path fill="none" stroke="#191970" d="M381.1116,-426.9396C388.9991,-423.8708 396.9286,-420.2338 404,-416 422.6225,-404.8504 419.7714,-390.8686 440,-383 497.5753,-360.6041 519.8973,-365.0177 579,-383 609.5972,-392.3094 639.1898,-416.7074 654.0637,-430.3732"/>
<polygon fill="#191970" stroke="#191970" points="379.7772,-423.7005 371.5719,-430.403 382.1661,-430.2802 379.7772,-423.7005"/>
</g>
<!-- Node18335&#45;&gt;Node18329 -->
<g id="edge16" class="edge">
<title>Node18335&#45;&gt;Node18329</title>
<path fill="none" stroke="#191970" d="M558.4521,-452.04C580.0365,-457.3488 605.041,-463.4988 625.2935,-468.4799"/>
<polygon fill="#191970" stroke="#191970" points="559.0334,-448.5787 548.4869,-449.589 557.3615,-455.3762 559.0334,-448.5787"/>
</g>
<!-- Node18335&#45;&gt;Node18332 -->
<g id="edge17" class="edge">
<title>Node18335&#45;&gt;Node18332</title>
<path fill="none" stroke="#191970" d="M583.3368,-440C593.9298,-440 604.6085,-440 614.5741,-440"/>
<polygon fill="#191970" stroke="#191970" points="583.2331,-436.5001 573.2331,-440 583.233,-443.5001 583.2331,-436.5001"/>
</g>
<!-- Node18886&#45;&gt;Node18301 -->
<g id="edge24" class="edge">
<title>Node18886&#45;&gt;Node18301</title>
<path fill="none" stroke="#191970" d="M391.6112,-99.0513C395.9107,-100.8035 400.0927,-102.7779 404,-105 447.4212,-129.6939 486.4893,-176.1923 502.1909,-196.3136"/>
<polygon fill="#191970" stroke="#191970" points="392.6659,-95.7104 382.0722,-95.5605 390.2602,-102.284 392.6659,-95.7104"/>
</g>
<!-- Node18891&#45;&gt;Node18329 -->
<g id="edge28" class="edge">
<title>Node18891&#45;&gt;Node18329</title>
<path fill="none" stroke="#191970" d="M558.4521,-503.96C580.0365,-498.6512 605.041,-492.5012 625.2935,-487.5201"/>
<polygon fill="#191970" stroke="#191970" points="557.3615,-500.6238 548.4869,-506.411 559.0334,-507.4213 557.3615,-500.6238"/>
</g>
<!-- Node18891&#45;&gt;Node18332 -->
<g id="edge29" class="edge">
<title>Node18891&#45;&gt;Node18332</title>
<path fill="none" stroke="#191970" d="M534.5595,-501.3047C555.6544,-489.2169 586.8091,-472.0188 615,-459 622.2066,-455.6719 630.1742,-452.4115 637.5531,-449.5572"/>
<polygon fill="#191970" stroke="#191970" points="532.5317,-498.4339 525.6219,-506.4655 536.0321,-504.4959 532.5317,-498.4339"/>
</g>
<!-- Node18895 -->
<g id="node28" class="node">
<title>Node18895</title>
<g id="a_node28"><a xlink:href="quickjs_8c.html#a7fbd31397bde22dfa2b876b945f9afb4" target="_top" xlink:title="json_next_token">
<polygon fill="none" stroke="#ff0000" points="291.5,-.5 291.5,-19.5 379.5,-19.5 379.5,-.5 291.5,-.5"/>
<text text-anchor="middle" x="335.5" y="-7.5" font-family="Helvetica,sans-Serif" font-size="10.00" fill="#000000">json_next_token</text>
</a>
</g>
</g>
<!-- Node18894&#45;&gt;Node18895 -->
<g id="edge33" class="edge">
<title>Node18894&#45;&gt;Node18895</title>
<path fill="none" stroke="#191970" d="M188.584,-130.1452C201.6707,-103.5378 229.143,-55.2919 267,-29 274.1969,-24.0017 282.6708,-20.3144 291.1597,-17.5954"/>
<polygon fill="#191970" stroke="#191970" points="185.4155,-128.6584 184.2811,-139.1924 191.737,-131.665 185.4155,-128.6584"/>
</g>
<!-- Node18898 -->
<g id="node30" class="node">
<title>Node18898</title>
<g id="a_node30"><a xlink:href="quickjs_8c.html#a75a3798e2045f6e403c1ef467126d1fb" target="_top" xlink:title="next_token">
<polygon fill="none" stroke="#ff0000" points="303,-594.5 303,-613.5 368,-613.5 368,-594.5 303,-594.5"/>
<text text-anchor="middle" x="335.5" y="-601.5" font-family="Helvetica,sans-Serif" font-size="10.00" fill="#000000">next_token</text>
</a>
</g>
</g>
<!-- Node18897&#45;&gt;Node18898 -->
<g id="edge35" class="edge">
<title>Node18897&#45;&gt;Node18898</title>
<path fill="none" stroke="#191970" d="M202.9048,-550.2943C219.9913,-561.1662 244.2178,-575.4726 267,-585 278.3858,-589.7615 291.3287,-593.7023 302.8749,-596.7369"/>
<polygon fill="#191970" stroke="#191970" points="204.498,-547.1563 194.2015,-544.6599 200.6938,-553.0324 204.498,-547.1563"/>
</g>
<!-- Node18898&#45;&gt;Node18273 -->
<g id="edge36" class="edge">
<title>Node18898&#45;&gt;Node18273</title>
<path fill="none" stroke="#191970" d="M378.3222,-612.6137C405.7687,-618.1345 441.2,-625.2615 468.3195,-630.7166"/>
<polygon fill="#191970" stroke="#191970" points="378.7219,-609.124 368.2281,-610.5832 377.3415,-615.9866 378.7219,-609.124"/>
</g>
</g>
</svg>
