<?xml version="1.0" encoding="UTF-8" standalone="no"?>
<!DOCTYPE svg PUBLIC "-//W3C//DTD SVG 1.1//EN"
 "http://www.w3.org/Graphics/SVG/1.1/DTD/svg11.dtd">
<!-- Generated by graphviz version 2.40.1 (20161225.0304)
 -->
<!-- Title: JS_RunModule Pages: 1 -->
<svg width="496pt" height="46pt"
 viewBox="0.00 0.00 496.00 46.00" xmlns="http://www.w3.org/2000/svg" xmlns:xlink="http://www.w3.org/1999/xlink">
<g id="graph0" class="graph" transform="scale(1 1) rotate(0) translate(4 42)">
<title>JS_RunModule</title>
<!-- Node85117 -->
<g id="node1" class="node">
<title>Node85117</title>
<polygon fill="#bfbfbf" stroke="#000000" points="0,-.5 0,-19.5 83,-19.5 83,-.5 0,-.5"/>
<text text-anchor="middle" x="41.5" y="-7.5" font-family="Helvetica,sans-Serif" font-size="10.00" fill="#000000">JS_RunModule</text>
</g>
<!-- Node85118 -->
<g id="node2" class="node">
<title>Node85118</title>
<g id="a_node2"><a xlink:href="quickjs_8c.html#a6357b7fdae71c70c140e78e6c20cb5c2" target="_top" xlink:title="js_dynamic_import_job">
<polygon fill="none" stroke="#000000" points="119,-.5 119,-19.5 235,-19.5 235,-.5 119,-.5"/>
<text text-anchor="middle" x="177" y="-7.5" font-family="Helvetica,sans-Serif" font-size="10.00" fill="#000000">js_dynamic_import_job</text>
</a>
</g>
</g>
<!-- Node85117&#45;&gt;Node85118 -->
<g id="edge1" class="edge">
<title>Node85117&#45;&gt;Node85118</title>
<path fill="none" stroke="#191970" d="M93.4884,-10C101.7339,-10 110.3091,-10 118.6879,-10"/>
<polygon fill="#191970" stroke="#191970" points="93.2601,-6.5001 83.2601,-10 93.2601,-13.5001 93.2601,-6.5001"/>
</g>
<!-- Node85119 -->
<g id="node3" class="node">
<title>Node85119</title>
<g id="a_node3"><a xlink:href="quickjs_8c.html#a50e94675d1c4cf67c88e72169ea3c21a" target="_top" xlink:title="js_dynamic_import">
<polygon fill="none" stroke="#000000" points="271,-.5 271,-19.5 369,-19.5 369,-.5 271,-.5"/>
<text text-anchor="middle" x="320" y="-7.5" font-family="Helvetica,sans-Serif" font-size="10.00" fill="#000000">js_dynamic_import</text>
</a>
</g>
</g>
<!-- Node85118&#45;&gt;Node85119 -->
<g id="edge2" class="edge">
<title>Node85118&#45;&gt;Node85119</title>
<path fill="none" stroke="#191970" d="M245.1691,-10C253.7427,-10 262.3802,-10 270.5873,-10"/>
<polygon fill="#191970" stroke="#191970" points="245.1636,-6.5001 235.1636,-10 245.1635,-13.5001 245.1636,-6.5001"/>
</g>
<!-- Node85120 -->
<g id="node4" class="node">
<title>Node85120</title>
<g id="a_node4"><a xlink:href="quickjs_8c.html#ac2894ff4edcdb4e6841bcce9c76081e3" target="_top" xlink:title="JS_CallInternal">
<polygon fill="none" stroke="#ff0000" points="405,-.5 405,-19.5 488,-19.5 488,-.5 405,-.5"/>
<text text-anchor="middle" x="446.5" y="-7.5" font-family="Helvetica,sans-Serif" font-size="10.00" fill="#000000">JS_CallInternal</text>
</a>
</g>
</g>
<!-- Node85119&#45;&gt;Node85120 -->
<g id="edge3" class="edge">
<title>Node85119&#45;&gt;Node85120</title>
<path fill="none" stroke="#191970" d="M379.3441,-10C387.9969,-10 396.7476,-10 404.945,-10"/>
<polygon fill="#191970" stroke="#191970" points="379.2705,-6.5001 369.2704,-10 379.2704,-13.5001 379.2705,-6.5001"/>
</g>
<!-- Node85120&#45;&gt;Node85120 -->
<g id="edge4" class="edge">
<title>Node85120&#45;&gt;Node85120</title>
<path fill="none" stroke="#191970" d="M423.0626,-29.0292C424.341,-34.128 432.1535,-38 446.5,-38 468.8945,-38 475.368,-28.5653 465.9203,-19.7571"/>
<polygon fill="#191970" stroke="#191970" points="426.3158,-30.3243 427.0797,-19.7571 419.8927,-27.5415 426.3158,-30.3243"/>
</g>
</g>
</svg>
