<?xml version="1.0" encoding="UTF-8" standalone="no"?>
<!DOCTYPE svg PUBLIC "-//W3C//DTD SVG 1.1//EN"
 "http://www.w3.org/Graphics/SVG/1.1/DTD/svg11.dtd">
<!-- Generated by graphviz version 2.40.1 (20161225.0304)
 -->
<!-- Title: js_dynamic_import Pages: 1 -->
<!--zoomable 712 -->
<svg id="main" version="1.1" xmlns="http://www.w3.org/2000/svg" xmlns:xlink="http://www.w3.org/1999/xlink" xml:space="preserve" onload="init(evt)">
<style type="text/css"><![CDATA[
.edge:hover path { stroke: red; }
.edge:hover polygon { stroke: red; fill: red; }
]]></style>
<script type="text/javascript"><![CDATA[
var edges = document.getElementsByTagName('g');
if (edges && edges.length) {
  for (var i=0;i<edges.length;i++) {
    if (edges[i].id.substr(0,4)=='edge') {
      edges[i].setAttribute('class','edge');
    }
  }
}
]]></script>
        <defs>
                <circle id="rim" cx="0" cy="0" r="7"/>
                <circle id="rim2" cx="0" cy="0" r="3.5"/>
                <g id="zoomPlus">
                        <use xlink:href="#rim" fill="#404040">
                                <set attributeName="fill" to="#808080" begin="zoomplus.mouseover" end="zoomplus.mouseout"/>
                        </use>
                        <path d="M-4,0h8M0,-4v8" fill="none" stroke="white" stroke-width="1.5" pointer-events="none"/>
                </g>
                <g id="zoomMin">
                        <use xlink:href="#rim" fill="#404040">
                                <set attributeName="fill" to="#808080" begin="zoomminus.mouseover" end="zoomminus.mouseout"/>
                        </use>
                        <path d="M-4,0h8" fill="none" stroke="white" stroke-width="1.5" pointer-events="none"/>
                </g>
                <g id="dirArrow">
                        <path fill="none" stroke="white" stroke-width="1.5" d="M0,-3.0v7 M-2.5,-0.5L0,-3.0L2.5,-0.5"/>
                </g>
               <g id="resetDef">
                       <use xlink:href="#rim2" fill="#404040">
                               <set attributeName="fill" to="#808080" begin="reset.mouseover" end="reset.mouseout"/>
                       </use>
               </g>
        </defs>

<script type="text/javascript">
var viewWidth = 874;
var viewHeight = 712;
var sectionId = 'dynsection-78';
</script>
<script xlink:href="svgpan.js"/>
<svg id="graph" class="graph">
<g id="viewport">
<title>js_dynamic_import</title>
<!-- Node27737 -->
<g id="node1" class="node">
<title>Node27737</title>
<polygon fill="#bfbfbf" stroke="#000000" points="0,-361.5 0,-380.5 98,-380.5 98,-361.5 0,-361.5"/>
<text text-anchor="middle" x="49" y="-368.5" font-family="Helvetica,sans-Serif" font-size="10.00" fill="#000000">js_dynamic_import</text>
</g>
<!-- Node27738 -->
<g id="node2" class="node">
<title>Node27738</title>
<g id="a_node2"><a xlink:href="quickjs_8c.html#afa67965c1017685fc6783776d6d0d4d7" target="_top" xlink:title="JS_AtomToValue">
<polygon fill="none" stroke="#000000" points="159,-589.5 159,-608.5 252,-608.5 252,-589.5 159,-589.5"/>
<text text-anchor="middle" x="205.5" y="-596.5" font-family="Helvetica,sans-Serif" font-size="10.00" fill="#000000">JS_AtomToValue</text>
</a>
</g>
</g>
<!-- Node27737&#45;&gt;Node27738 -->
<g id="edge1" class="edge">
<title>Node27737&#45;&gt;Node27738</title>
<path fill="none" stroke="#191970" d="M50.941,-380.5206C57.5032,-410.5741 81.4505,-504.7589 134,-561 143.5598,-571.2314 156.5051,-579.2538 168.754,-585.2373"/>
<polygon fill="#191970" stroke="#191970" points="167.3669,-588.4515 177.9175,-589.4183 170.2726,-582.083 167.3669,-588.4515"/>
</g>
<!-- Node27767 -->
<g id="node8" class="node">
<title>Node27767</title>
<g id="a_node8"><a xlink:href="quickjs_8c.html#a6357b7fdae71c70c140e78e6c20cb5c2" target="_top" xlink:title="js_dynamic_import_job">
<polygon fill="none" stroke="#000000" points="147.5,-285.5 147.5,-304.5 263.5,-304.5 263.5,-285.5 147.5,-285.5"/>
<text text-anchor="middle" x="205.5" y="-292.5" font-family="Helvetica,sans-Serif" font-size="10.00" fill="#000000">js_dynamic_import_job</text>
</a>
</g>
</g>
<!-- Node27737&#45;&gt;Node27767 -->
<g id="edge7" class="edge">
<title>Node27737&#45;&gt;Node27767</title>
<path fill="none" stroke="#191970" d="M68.8208,-361.3745C96.1021,-348.1261 145.3978,-324.187 176.7354,-308.9687"/>
<polygon fill="#191970" stroke="#191970" points="178.3736,-312.0641 185.8401,-304.5473 175.3157,-305.7673 178.3736,-312.0641"/>
</g>
<!-- Node27839 -->
<g id="node12" class="node">
<title>Node27839</title>
<g id="a_node12"><a xlink:href="quickjs_8h.html#ad80a83d73e9b7d872b88fbf2943aebe9" target="_top" xlink:title="JS_IsException">
<polygon fill="none" stroke="#000000" points="645,-380.5 645,-399.5 731,-399.5 731,-380.5 645,-380.5"/>
<text text-anchor="middle" x="688" y="-387.5" font-family="Helvetica,sans-Serif" font-size="10.00" fill="#000000">JS_IsException</text>
</a>
</g>
</g>
<!-- Node27737&#45;&gt;Node27839 -->
<g id="edge40" class="edge">
<title>Node27737&#45;&gt;Node27839</title>
<path fill="none" stroke="#191970" d="M98.4017,-380.267C151.2719,-389.6779 237.7144,-403.6095 313,-409 434.4668,-417.6971 465.7482,-420.3057 587,-409 603.3218,-407.4781 620.937,-404.6014 636.815,-401.5384"/>
<polygon fill="#191970" stroke="#191970" points="637.8463,-404.9016 646.9672,-399.5109 636.4754,-398.0371 637.8463,-404.9016"/>
</g>
<!-- Node27828 -->
<g id="node13" class="node">
<title>Node27828</title>
<g id="a_node13"><a xlink:href="quickjs_8h.html#afaa20c47565bc704c6c85f3d77254e7d" target="_top" xlink:title="JS_FreeValue">
<polygon fill="none" stroke="#ff0000" points="649,-262.5 649,-281.5 727,-281.5 727,-262.5 649,-262.5"/>
<text text-anchor="middle" x="688" y="-269.5" font-family="Helvetica,sans-Serif" font-size="10.00" fill="#000000">JS_FreeValue</text>
</a>
</g>
</g>
<!-- Node27737&#45;&gt;Node27828 -->
<g id="edge38" class="edge">
<title>Node27737&#45;&gt;Node27828</title>
<path fill="none" stroke="#191970" d="M55.5084,-361.4824C81.9813,-323.7828 186.223,-184.9434 313,-143 356.8829,-128.4816 371.5036,-134.8409 417,-143 426.914,-144.7779 578.7695,-200.1943 587,-206 607.3673,-220.3669 602.527,-234.7842 623,-249 628.3556,-252.7188 634.3748,-255.8963 640.5327,-258.5945"/>
<polygon fill="#191970" stroke="#191970" points="639.6623,-262.0145 650.2482,-262.449 642.2437,-255.5079 639.6623,-262.0145"/>
</g>
<!-- Node27826 -->
<g id="node16" class="node">
<title>Node27826</title>
<g id="a_node16"><a xlink:href="quickjs_8c.html#ab7fc45a99935a1c0ba50b0216d9401a9" target="_top" xlink:title="JS_FreeAtom">
<polygon fill="none" stroke="#ff0000" points="789,-60.5 789,-79.5 866,-79.5 866,-60.5 789,-60.5"/>
<text text-anchor="middle" x="827.5" y="-67.5" font-family="Helvetica,sans-Serif" font-size="10.00" fill="#000000">JS_FreeAtom</text>
</a>
</g>
</g>
<!-- Node27737&#45;&gt;Node27826 -->
<g id="edge37" class="edge">
<title>Node27737&#45;&gt;Node27826</title>
<path fill="none" stroke="#191970" d="M50.2036,-361.4665C54.8271,-328.5659 74.2874,-218.3358 134,-155 211.6167,-72.6737 251.8542,-48 365,-48 365,-48 365,-48 520,-48 611.5768,-48 718.1041,-57.8277 778.6886,-64.3461"/>
<polygon fill="#191970" stroke="#191970" points="778.4096,-67.8363 788.7302,-65.4416 779.1688,-60.8776 778.4096,-67.8363"/>
</g>
<!-- Node28158 -->
<g id="node25" class="node">
<title>Node28158</title>
<g id="a_node25"><a xlink:href="quickjs_8c.html#a39d815a00b3ec1aed21699396fb43869" target="_top" xlink:title="JS_EnqueueJob">
<polygon fill="none" stroke="#000000" points="161.5,-532.5 161.5,-551.5 249.5,-551.5 249.5,-532.5 161.5,-532.5"/>
<text text-anchor="middle" x="205.5" y="-539.5" font-family="Helvetica,sans-Serif" font-size="10.00" fill="#000000">JS_EnqueueJob</text>
</a>
</g>
</g>
<!-- Node27737&#45;&gt;Node28158 -->
<g id="edge34" class="edge">
<title>Node27737&#45;&gt;Node28158</title>
<path fill="none" stroke="#191970" d="M55.0729,-380.8067C68.0717,-401.3858 100.1708,-450.0585 134,-485 148.9968,-500.4899 168.2051,-515.5871 182.9355,-526.3486"/>
<polygon fill="#191970" stroke="#191970" points="181.2844,-529.4714 191.4509,-532.4536 185.3631,-523.7824 181.2844,-529.4714"/>
</g>
<!-- Node28092 -->
<g id="node27" class="node">
<title>Node28092</title>
<g id="a_node27"><a xlink:href="quickjs_8c.html#a3d9d43172bb33e53a4843dd3a770e889" target="_top" xlink:title="JS_GetScriptOrModuleName">
<polygon fill="none" stroke="#ff0000" points="134,-.5 134,-19.5 277,-19.5 277,-.5 134,-.5"/>
<text text-anchor="middle" x="205.5" y="-7.5" font-family="Helvetica,sans-Serif" font-size="10.00" fill="#000000">JS_GetScriptOrModuleName</text>
</a>
</g>
</g>
<!-- Node27737&#45;&gt;Node28092 -->
<g id="edge39" class="edge">
<title>Node27737&#45;&gt;Node28092</title>
<path fill="none" stroke="#191970" d="M50.1919,-361.2722C56.4888,-311.3545 87.3654,-84.3598 134,-34 137.5781,-30.1361 141.7967,-26.8939 146.3662,-24.1734"/>
<polygon fill="#191970" stroke="#191970" points="148.1595,-27.1889 155.51,-19.5586 145.0055,-20.9397 148.1595,-27.1889"/>
</g>
<!-- Node28159 -->
<g id="node28" class="node">
<title>Node28159</title>
<g id="a_node28"><a xlink:href="quickjs_8c.html#a2287eaf81466a0d408341cdae08ed673" target="_top" xlink:title="JS_NewPromiseCapability">
<polygon fill="none" stroke="#000000" points="138.5,-456.5 138.5,-475.5 272.5,-475.5 272.5,-456.5 138.5,-456.5"/>
<text text-anchor="middle" x="205.5" y="-463.5" font-family="Helvetica,sans-Serif" font-size="10.00" fill="#000000">JS_NewPromiseCapability</text>
</a>
</g>
</g>
<!-- Node27737&#45;&gt;Node28159 -->
<g id="edge41" class="edge">
<title>Node27737&#45;&gt;Node28159</title>
<path fill="none" stroke="#191970" d="M58.0611,-380.5919C72.7193,-395.6084 103.1208,-424.7327 134,-442 141.7222,-446.3182 150.3492,-450.0288 158.8653,-453.1519"/>
<polygon fill="#191970" stroke="#191970" points="157.7843,-456.4813 168.379,-456.4292 160.0642,-449.863 157.7843,-456.4813"/>
</g>
<!-- Node27739 -->
<g id="node3" class="node">
<title>Node27739</title>
<g id="a_node3"><a xlink:href="quickjs_8c.html#a06ff303a11e6641cbf1f6634e6a61811" target="_top" xlink:title="__JS_AtomToValue">
<polygon fill="none" stroke="#000000" points="313,-608.5 313,-627.5 417,-627.5 417,-608.5 313,-608.5"/>
<text text-anchor="middle" x="365" y="-615.5" font-family="Helvetica,sans-Serif" font-size="10.00" fill="#000000">__JS_AtomToValue</text>
</a>
</g>
</g>
<!-- Node27738&#45;&gt;Node27739 -->
<g id="edge2" class="edge">
<title>Node27738&#45;&gt;Node27739</title>
<path fill="none" stroke="#191970" d="M252.0628,-604.5467C267.8251,-606.4243 285.6926,-608.5527 302.4887,-610.5535"/>
<polygon fill="#191970" stroke="#191970" points="302.4359,-614.0719 312.7798,-611.7794 303.264,-607.121 302.4359,-614.0719"/>
</g>
<!-- Node27740 -->
<g id="node4" class="node">
<title>Node27740</title>
<g id="a_node4"><a xlink:href="quickjs_8c.html#a288254c06a39c9fca740a7abdad2834e" target="_top" xlink:title="__JS_AtomIsTaggedInt">
<polygon fill="none" stroke="#000000" points="460.5,-684.5 460.5,-703.5 579.5,-703.5 579.5,-684.5 460.5,-684.5"/>
<text text-anchor="middle" x="520" y="-691.5" font-family="Helvetica,sans-Serif" font-size="10.00" fill="#000000">__JS_AtomIsTaggedInt</text>
</a>
</g>
</g>
<!-- Node27739&#45;&gt;Node27740 -->
<g id="edge3" class="edge">
<title>Node27739&#45;&gt;Node27740</title>
<path fill="none" stroke="#191970" d="M377.1409,-627.5586C393.5174,-640.0422 423.9864,-661.8496 453,-675 458.0932,-677.3085 463.5329,-679.403 469.0277,-681.2855"/>
<polygon fill="#191970" stroke="#191970" points="468.324,-684.7349 478.9149,-684.4455 470.4551,-678.0672 468.324,-684.7349"/>
</g>
<!-- Node27741 -->
<g id="node5" class="node">
<title>Node27741</title>
<g id="a_node5"><a xlink:href="quickjs_8c.html#a89f38938cee8077ce1fbba07946ed185" target="_top" xlink:title="__JS_AtomToUInt32">
<polygon fill="none" stroke="#000000" points="466,-646.5 466,-665.5 574,-665.5 574,-646.5 466,-646.5"/>
<text text-anchor="middle" x="520" y="-653.5" font-family="Helvetica,sans-Serif" font-size="10.00" fill="#000000">__JS_AtomToUInt32</text>
</a>
</g>
</g>
<!-- Node27739&#45;&gt;Node27741 -->
<g id="edge4" class="edge">
<title>Node27739&#45;&gt;Node27741</title>
<path fill="none" stroke="#191970" d="M404.113,-627.589C424.4748,-632.5809 449.5663,-638.7324 471.1887,-644.0334"/>
<polygon fill="#191970" stroke="#191970" points="470.6224,-647.4981 481.1682,-646.4799 472.2892,-640.6994 470.6224,-647.4981"/>
</g>
<!-- Node27742 -->
<g id="node6" class="node">
<title>Node27742</title>
<g id="a_node6"><a xlink:href="quickjs_8c.html#a0ee6a3654a6016393fac5e1c108f403a" target="_top" xlink:title="JS_NewString">
<polygon fill="none" stroke="#ff0000" points="480,-608.5 480,-627.5 560,-627.5 560,-608.5 480,-608.5"/>
<text text-anchor="middle" x="520" y="-615.5" font-family="Helvetica,sans-Serif" font-size="10.00" fill="#000000">JS_NewString</text>
</a>
</g>
</g>
<!-- Node27739&#45;&gt;Node27742 -->
<g id="edge5" class="edge">
<title>Node27739&#45;&gt;Node27742</title>
<path fill="none" stroke="#191970" d="M417.0439,-618C433.9409,-618 452.6539,-618 469.4408,-618"/>
<polygon fill="#191970" stroke="#191970" points="469.6108,-621.5001 479.6107,-618 469.6107,-614.5001 469.6108,-621.5001"/>
</g>
<!-- Node27766 -->
<g id="node7" class="node">
<title>Node27766</title>
<g id="a_node7"><a xlink:href="quickjs_8h.html#a775522f2d084fc8fa0fcb33f390006b4" target="_top" xlink:title="JS_DupValue">
<polygon fill="none" stroke="#000000" points="649.5,-494.5 649.5,-513.5 726.5,-513.5 726.5,-494.5 649.5,-494.5"/>
<text text-anchor="middle" x="688" y="-501.5" font-family="Helvetica,sans-Serif" font-size="10.00" fill="#000000">JS_DupValue</text>
</a>
</g>
</g>
<!-- Node27739&#45;&gt;Node27766 -->
<g id="edge6" class="edge">
<title>Node27739&#45;&gt;Node27766</title>
<path fill="none" stroke="#191970" d="M409.2475,-608.4444C454.6809,-597.9873 527.0246,-579.5317 587,-556 613.9442,-545.4283 643.1885,-529.8882 663.2407,-518.5504"/>
<polygon fill="#191970" stroke="#191970" points="665.0923,-521.5234 672.0304,-513.5164 661.6134,-515.4491 665.0923,-521.5234"/>
</g>
<!-- Node27768 -->
<g id="node9" class="node">
<title>Node27768</title>
<g id="a_node9"><a xlink:href="quickjs_8h.html#aa53b9197dc6d5770e3a080c1e335f7cb" target="_top" xlink:title="JS_IsString">
<polygon fill="none" stroke="#000000" points="331,-152.5 331,-171.5 399,-171.5 399,-152.5 331,-152.5"/>
<text text-anchor="middle" x="365" y="-159.5" font-family="Helvetica,sans-Serif" font-size="10.00" fill="#000000">JS_IsString</text>
</a>
</g>
</g>
<!-- Node27767&#45;&gt;Node27768 -->
<g id="edge8" class="edge">
<title>Node27767&#45;&gt;Node27768</title>
<path fill="none" stroke="#191970" d="M212.9224,-285.4083C229.18,-264.9112 269.9371,-216.2494 313,-186 318.3394,-182.2494 324.3584,-178.8445 330.3578,-175.8547"/>
<polygon fill="#191970" stroke="#191970" points="332.0881,-178.9096 339.6687,-171.5078 329.1269,-172.5667 332.0881,-178.9096"/>
</g>
<!-- Node27769 -->
<g id="node10" class="node">
<title>Node27769</title>
<g id="a_node10"><a xlink:href="quickjs_8h.html#af931f06630ab719b5f82a16eb27effd1" target="_top" xlink:title="JS_ToCString">
<polygon fill="none" stroke="#000000" points="326,-380.5 326,-399.5 404,-399.5 404,-380.5 326,-380.5"/>
<text text-anchor="middle" x="365" y="-387.5" font-family="Helvetica,sans-Serif" font-size="10.00" fill="#000000">JS_ToCString</text>
</a>
</g>
</g>
<!-- Node27767&#45;&gt;Node27769 -->
<g id="edge9" class="edge">
<title>Node27767&#45;&gt;Node27769</title>
<path fill="none" stroke="#191970" d="M218.6666,-304.6402C238.537,-318.9681 277.6301,-346.3059 313,-366 319.3036,-369.5099 326.2115,-372.9582 332.8747,-376.0979"/>
<polygon fill="#191970" stroke="#191970" points="331.8142,-379.462 342.3631,-380.4484 334.7318,-373.099 331.8142,-379.462"/>
</g>
<!-- Node27767&#45;&gt;Node27839 -->
<g id="edge30" class="edge">
<title>Node27767&#45;&gt;Node27839</title>
<path fill="none" stroke="#191970" d="M228.1599,-304.5215C249.6407,-313.1829 282.9962,-325.6959 313,-333 432.4547,-362.0798 465.664,-351.1852 587,-371 602.6005,-373.5476 619.4995,-376.6075 634.9298,-379.5199"/>
<polygon fill="#191970" stroke="#191970" points="634.3509,-382.9725 644.8292,-381.4056 635.6608,-376.0961 634.3509,-382.9725"/>
</g>
<!-- Node27767&#45;&gt;Node27828 -->
<g id="edge32" class="edge">
<title>Node27767&#45;&gt;Node27828</title>
<path fill="none" stroke="#191970" d="M263.7008,-292.2257C359.5376,-287.6573 548.8679,-278.6322 638.6012,-274.3548"/>
<polygon fill="#191970" stroke="#191970" points="638.9575,-277.8418 648.7794,-273.8696 638.6241,-270.8498 638.9575,-277.8418"/>
</g>
<!-- Node28128 -->
<g id="node14" class="node">
<title>Node28128</title>
<g id="a_node14"><a xlink:href="quickjs_8c.html#aa75a2b06808d8da661d4eb6698b17cab" target="_top" xlink:title="JS_RunModule">
<polygon fill="none" stroke="#000000" points="478.5,-126.5 478.5,-145.5 561.5,-145.5 561.5,-126.5 478.5,-126.5"/>
<text text-anchor="middle" x="520" y="-133.5" font-family="Helvetica,sans-Serif" font-size="10.00" fill="#000000">JS_RunModule</text>
</a>
</g>
</g>
<!-- Node27767&#45;&gt;Node28128 -->
<g id="edge14" class="edge">
<title>Node27767&#45;&gt;Node28128</title>
<path fill="none" stroke="#191970" d="M208.8784,-285.1609C219.1915,-256.8597 253.2562,-175.2141 313,-143 360.8617,-117.1928 424.4082,-119.432 468.4088,-125.5882"/>
<polygon fill="#191970" stroke="#191970" points="467.9077,-129.0522 478.3186,-127.0868 468.9543,-122.1309 467.9077,-129.0522"/>
</g>
<!-- Node27853 -->
<g id="node20" class="node">
<title>Node27853</title>
<g id="a_node20"><a xlink:href="quickjs_8c.html#ae0bc4f65da64810facb2cb9e476eda2e" target="_top" xlink:title="JS_FreeCString">
<polygon fill="none" stroke="#000000" points="477,-215.5 477,-234.5 563,-234.5 563,-215.5 477,-215.5"/>
<text text-anchor="middle" x="520" y="-222.5" font-family="Helvetica,sans-Serif" font-size="10.00" fill="#000000">JS_FreeCString</text>
</a>
</g>
</g>
<!-- Node27767&#45;&gt;Node27853 -->
<g id="edge24" class="edge">
<title>Node27767&#45;&gt;Node27853</title>
<path fill="none" stroke="#191970" d="M214.7251,-285.3464C232.0319,-268.02 271.3949,-232.2217 313,-219 363.4364,-202.9718 424.3099,-207.3597 466.9425,-213.9845"/>
<polygon fill="#191970" stroke="#191970" points="466.3938,-217.4412 476.8295,-215.6116 467.5306,-210.5341 466.3938,-217.4412"/>
</g>
<!-- Node28151 -->
<g id="node21" class="node">
<title>Node28151</title>
<g id="a_node21"><a xlink:href="quickjs_8c.html#a2f5aeb4e31e2001c555335ae5172165b" target="_top" xlink:title="js_get_module_ns">
<polygon fill="none" stroke="#ff0000" points="472.5,-494.5 472.5,-513.5 567.5,-513.5 567.5,-494.5 472.5,-494.5"/>
<text text-anchor="middle" x="520" y="-501.5" font-family="Helvetica,sans-Serif" font-size="10.00" fill="#000000">js_get_module_ns</text>
</a>
</g>
</g>
<!-- Node27767&#45;&gt;Node28151 -->
<g id="edge26" class="edge">
<title>Node27767&#45;&gt;Node28151</title>
<path fill="none" stroke="#191970" d="M212.735,-304.527C228.939,-325.4092 270.1028,-375.9787 313,-409 369.1024,-452.1864 387.4322,-458.2903 453,-485 458.8051,-487.3647 465.0067,-489.5509 471.2062,-491.5339"/>
<polygon fill="#191970" stroke="#191970" points="470.3036,-494.9176 480.8893,-494.4792 472.3406,-488.2205 470.3036,-494.9176"/>
</g>
<!-- Node28007 -->
<g id="node23" class="node">
<title>Node28007</title>
<g id="a_node23"><a xlink:href="quickjs_8c.html#a1a4c02a29525d5cb2085dd8bca3af350" target="_top" xlink:title="JS_Call">
<polygon fill="none" stroke="#ff0000" points="339.5,-304.5 339.5,-323.5 390.5,-323.5 390.5,-304.5 339.5,-304.5"/>
<text text-anchor="middle" x="365" y="-311.5" font-family="Helvetica,sans-Serif" font-size="10.00" fill="#000000">JS_Call</text>
</a>
</g>
</g>
<!-- Node27767&#45;&gt;Node28007 -->
<g id="edge31" class="edge">
<title>Node27767&#45;&gt;Node28007</title>
<path fill="none" stroke="#191970" d="M263.5344,-301.9132C285.4795,-304.5273 309.7995,-307.4244 329.1272,-309.7267"/>
<polygon fill="#191970" stroke="#191970" points="328.9605,-313.2316 339.3044,-310.9391 329.7886,-306.2807 328.9605,-313.2316"/>
</g>
<!-- Node28157 -->
<g id="node24" class="node">
<title>Node28157</title>
<g id="a_node24"><a xlink:href="quickjs_8c.html#a8551eaac7ef616910807cebdc515760d" target="_top" xlink:title="JS_GetException">
<polygon fill="none" stroke="#000000" points="318.5,-228.5 318.5,-247.5 411.5,-247.5 411.5,-228.5 318.5,-228.5"/>
<text text-anchor="middle" x="365" y="-235.5" font-family="Helvetica,sans-Serif" font-size="10.00" fill="#000000">JS_GetException</text>
</a>
</g>
</g>
<!-- Node27767&#45;&gt;Node28157 -->
<g id="edge33" class="edge">
<title>Node27767&#45;&gt;Node28157</title>
<path fill="none" stroke="#191970" d="M232.1967,-285.4595C258.6492,-276.0062 299.3537,-261.4598 328.7264,-250.963"/>
<polygon fill="#191970" stroke="#191970" points="329.9773,-254.2328 338.2162,-247.5716 327.6216,-247.6411 329.9773,-254.2328"/>
</g>
<!-- Node27770 -->
<g id="node11" class="node">
<title>Node27770</title>
<g id="a_node11"><a xlink:href="quickjs_8c.html#af49e67b73f845dc1f9c3ee648dd9f95c" target="_top" xlink:title="JS_ToCStringLen2">
<polygon fill="none" stroke="#ff0000" points="470.5,-380.5 470.5,-399.5 569.5,-399.5 569.5,-380.5 470.5,-380.5"/>
<text text-anchor="middle" x="520" y="-387.5" font-family="Helvetica,sans-Serif" font-size="10.00" fill="#000000">JS_ToCStringLen2</text>
</a>
</g>
</g>
<!-- Node27769&#45;&gt;Node27770 -->
<g id="edge10" class="edge">
<title>Node27769&#45;&gt;Node27770</title>
<path fill="none" stroke="#191970" d="M404.113,-390C421.063,-390 441.2905,-390 460.066,-390"/>
<polygon fill="#191970" stroke="#191970" points="460.3175,-393.5001 470.3175,-390 460.3174,-386.5001 460.3175,-393.5001"/>
</g>
<!-- Node27770&#45;&gt;Node27766 -->
<g id="edge12" class="edge">
<title>Node27770&#45;&gt;Node27766</title>
<path fill="none" stroke="#191970" d="M532.1983,-399.7147C545.8919,-410.7702 568.6013,-429.5594 587,-447 603.8842,-463.005 603.1471,-472.8717 623,-485 628.1419,-488.1412 633.83,-490.7862 639.6397,-493.0077"/>
<polygon fill="#191970" stroke="#191970" points="638.8622,-496.4406 649.4567,-496.3595 641.1241,-489.8161 638.8622,-496.4406"/>
</g>
<!-- Node27770&#45;&gt;Node27839 -->
<g id="edge11" class="edge">
<title>Node27770&#45;&gt;Node27839</title>
<path fill="none" stroke="#191970" d="M569.9507,-390C590.3054,-390 613.8711,-390 634.5693,-390"/>
<polygon fill="#191970" stroke="#191970" points="634.7853,-393.5001 644.7853,-390 634.7852,-386.5001 634.7853,-393.5001"/>
</g>
<!-- Node27770&#45;&gt;Node27828 -->
<g id="edge13" class="edge">
<title>Node27770&#45;&gt;Node27828</title>
<path fill="none" stroke="#191970" d="M533.7481,-380.3436C562.79,-359.9451 630.604,-312.3139 665.847,-287.5599"/>
<polygon fill="#191970" stroke="#191970" points="667.8904,-290.4017 674.0619,-281.7899 663.867,-284.6735 667.8904,-290.4017"/>
</g>
<!-- Node28128&#45;&gt;Node27766 -->
<g id="edge20" class="edge">
<title>Node28128&#45;&gt;Node27766</title>
<path fill="none" stroke="#191970" d="M533.4277,-145.6562C549.1676,-157.796 574.6662,-180.1984 587,-206 640.9224,-318.8024 541.7524,-389.9693 623,-485 627.5172,-490.2835 633.415,-494.14 639.8148,-496.9467"/>
<polygon fill="#191970" stroke="#191970" points="638.8532,-500.319 649.4479,-500.3518 641.1861,-493.7192 638.8532,-500.319"/>
</g>
<!-- Node28128&#45;&gt;Node27839 -->
<g id="edge22" class="edge">
<title>Node28128&#45;&gt;Node27839</title>
<path fill="none" stroke="#191970" d="M531.5164,-145.637C546.0279,-158.2686 571.0008,-181.6897 587,-206 609.5542,-240.2705 603.663,-254.8166 623,-291 638.812,-320.5873 660.8721,-352.6746 674.793,-372.0565"/>
<polygon fill="#191970" stroke="#191970" points="672.0316,-374.2106 680.7374,-380.2488 677.6972,-370.0995 672.0316,-374.2106"/>
</g>
<!-- Node28128&#45;&gt;Node27828 -->
<g id="edge23" class="edge">
<title>Node28128&#45;&gt;Node27828</title>
<path fill="none" stroke="#191970" d="M561.7003,-144.8576C570.8845,-148.365 579.9599,-153.2388 587,-160 617.7749,-189.5559 592.168,-219.5038 623,-249 627.7113,-253.5072 633.3604,-257.1377 639.3349,-260.0604"/>
<polygon fill="#191970" stroke="#191970" points="638.329,-263.4346 648.9032,-264.095 641.0488,-256.9846 638.329,-263.4346"/>
</g>
<!-- Node28129 -->
<g id="node15" class="node">
<title>Node28129</title>
<g id="a_node15"><a xlink:href="quickjs_8c.html#a90dd988b99a5bc7b2a4aaffd2de405a9" target="_top" xlink:title="js_host_resolve_imported\l_module">
<polygon fill="none" stroke="#ff0000" points="624,-77 624,-107 752,-107 752,-77 624,-77"/>
<text text-anchor="start" x="632" y="-95" font-family="Helvetica,sans-Serif" font-size="10.00" fill="#000000">js_host_resolve_imported</text>
<text text-anchor="middle" x="688" y="-84" font-family="Helvetica,sans-Serif" font-size="10.00" fill="#000000">_module</text>
</a>
</g>
</g>
<!-- Node28128&#45;&gt;Node28129 -->
<g id="edge15" class="edge">
<title>Node28128&#45;&gt;Node28129</title>
<path fill="none" stroke="#191970" d="M556.4535,-126.4527C575.1994,-121.543 598.656,-115.3996 620.5505,-109.6653"/>
<polygon fill="#191970" stroke="#191970" points="621.6908,-112.9848 630.4777,-107.0654 619.9172,-106.2132 621.6908,-112.9848"/>
</g>
<!-- Node28136 -->
<g id="node17" class="node">
<title>Node28136</title>
<g id="a_node17"><a xlink:href="quickjs_8c.html#a041f16b68daf31525cd76aa4794073ef" target="_top" xlink:title="js_resolve_module">
<polygon fill="none" stroke="#ff0000" points="639,-202.5 639,-221.5 737,-221.5 737,-202.5 639,-202.5"/>
<text text-anchor="middle" x="688" y="-209.5" font-family="Helvetica,sans-Serif" font-size="10.00" fill="#000000">js_resolve_module</text>
</a>
</g>
</g>
<!-- Node28128&#45;&gt;Node28136 -->
<g id="edge17" class="edge">
<title>Node28128&#45;&gt;Node28136</title>
<path fill="none" stroke="#191970" d="M554.9322,-145.5785C565.6294,-149.2723 577.1618,-154.063 587,-160 605.5836,-171.2144 604.0906,-182.3441 623,-193 626.9082,-195.2024 631.0954,-197.1703 635.3915,-198.9247"/>
<polygon fill="#191970" stroke="#191970" points="634.3113,-202.2567 644.9047,-202.4327 636.7332,-195.689 634.3113,-202.2567"/>
</g>
<!-- Node27824 -->
<g id="node18" class="node">
<title>Node27824</title>
<g id="a_node18"><a xlink:href="quickjs_8c.html#adcabee55726eddca24893a78515c7ba2" target="_top" xlink:title="js_free_modules">
<polygon fill="none" stroke="#ff0000" points="644,-164.5 644,-183.5 732,-183.5 732,-164.5 644,-164.5"/>
<text text-anchor="middle" x="688" y="-171.5" font-family="Helvetica,sans-Serif" font-size="10.00" fill="#000000">js_free_modules</text>
</a>
</g>
</g>
<!-- Node28128&#45;&gt;Node27824 -->
<g id="edge19" class="edge">
<title>Node28128&#45;&gt;Node27824</title>
<path fill="none" stroke="#191970" d="M561.5281,-145.3933C583.9737,-150.4702 611.9098,-156.7891 635.8131,-162.1958"/>
<polygon fill="#191970" stroke="#191970" points="635.2569,-165.6584 645.7827,-164.4509 636.8013,-158.8308 635.2569,-165.6584"/>
</g>
<!-- Node28138 -->
<g id="node19" class="node">
<title>Node28138</title>
<g id="a_node19"><a xlink:href="quickjs_8c.html#af38ab3d672d41db0fa7a75b5c24149e4" target="_top" xlink:title="JS_EvalFunction">
<polygon fill="none" stroke="#ff0000" points="642.5,-126.5 642.5,-145.5 733.5,-145.5 733.5,-126.5 642.5,-126.5"/>
<text text-anchor="middle" x="688" y="-133.5" font-family="Helvetica,sans-Serif" font-size="10.00" fill="#000000">JS_EvalFunction</text>
</a>
</g>
</g>
<!-- Node28128&#45;&gt;Node28138 -->
<g id="edge21" class="edge">
<title>Node28128&#45;&gt;Node28138</title>
<path fill="none" stroke="#191970" d="M561.5281,-136C582.8578,-136 609.1456,-136 632.2193,-136"/>
<polygon fill="#191970" stroke="#191970" points="632.2251,-139.5001 642.2251,-136 632.225,-132.5001 632.2251,-139.5001"/>
</g>
<!-- Node28129&#45;&gt;Node27826 -->
<g id="edge16" class="edge">
<title>Node28129&#45;&gt;Node27826</title>
<path fill="none" stroke="#191970" d="M752.034,-81.9014C761.0946,-80.4725 770.2848,-79.0232 778.9873,-77.6507"/>
<polygon fill="#191970" stroke="#191970" points="779.6097,-81.0959 788.9424,-76.0808 778.5192,-74.1814 779.6097,-81.0959"/>
</g>
<!-- Node28136&#45;&gt;Node28136 -->
<g id="edge18" class="edge">
<title>Node28136&#45;&gt;Node28136</title>
<path fill="none" stroke="#191970" d="M666.7302,-221.7571C656.3827,-230.5653 663.4727,-240 688,-240 703.7128,-240 712.2693,-236.128 713.6695,-231.0292"/>
<polygon fill="#191970" stroke="#191970" points="716.7189,-229.2911 709.2698,-221.7571 710.3948,-232.292 716.7189,-229.2911"/>
</g>
<!-- Node27853&#45;&gt;Node27828 -->
<g id="edge25" class="edge">
<title>Node27853&#45;&gt;Node27828</title>
<path fill="none" stroke="#191970" d="M553.9973,-234.5112C579.8712,-241.7497 615.6966,-251.7723 643.7955,-259.6333"/>
<polygon fill="#191970" stroke="#191970" points="643.1921,-263.0988 653.7654,-262.4224 645.0781,-256.3576 643.1921,-263.0988"/>
</g>
<!-- Node28151&#45;&gt;Node27766 -->
<g id="edge29" class="edge">
<title>Node28151&#45;&gt;Node27766</title>
<path fill="none" stroke="#191970" d="M567.6927,-504C590.0697,-504 616.7034,-504 639.2162,-504"/>
<polygon fill="#191970" stroke="#191970" points="639.2399,-507.5001 649.2399,-504 639.2398,-500.5001 639.2399,-507.5001"/>
</g>
<!-- Node28151&#45;&gt;Node27839 -->
<g id="edge28" class="edge">
<title>Node28151&#45;&gt;Node27839</title>
<path fill="none" stroke="#191970" d="M567.6014,-496.0158C574.6195,-493.3374 581.3704,-489.7647 587,-485 615.5292,-460.8541 594.5683,-433.2606 623,-409 626.7172,-405.8282 630.9406,-403.1854 635.4081,-400.9836"/>
<polygon fill="#191970" stroke="#191970" points="636.952,-404.1321 644.8366,-397.0551 634.2596,-397.6705 636.952,-404.1321"/>
</g>
<!-- Node27937 -->
<g id="node22" class="node">
<title>Node27937</title>
<g id="a_node22"><a xlink:href="quickjs_8h.html#a4e407128a9605afb77523e49e9a627fd" target="_top" xlink:title="JS_IsUndefined">
<polygon fill="none" stroke="#000000" points="645,-456.5 645,-475.5 731,-475.5 731,-456.5 645,-456.5"/>
<text text-anchor="middle" x="688" y="-463.5" font-family="Helvetica,sans-Serif" font-size="10.00" fill="#000000">JS_IsUndefined</text>
</a>
</g>
</g>
<!-- Node28151&#45;&gt;Node27937 -->
<g id="edge27" class="edge">
<title>Node28151&#45;&gt;Node27937</title>
<path fill="none" stroke="#191970" d="M562.3935,-494.411C584.7626,-489.3513 612.3982,-483.1004 636.0472,-477.7512"/>
<polygon fill="#191970" stroke="#191970" points="636.9299,-481.1401 645.9114,-475.5201 635.3856,-474.3125 636.9299,-481.1401"/>
</g>
<!-- Node28158&#45;&gt;Node27766 -->
<g id="edge35" class="edge">
<title>Node28158&#45;&gt;Node27766</title>
<path fill="none" stroke="#191970" d="M249.7213,-541.7482C320.9737,-540.9049 465.498,-537.3862 587,-523 604.1676,-520.9673 622.8079,-517.7516 639.347,-514.5395"/>
<polygon fill="#191970" stroke="#191970" points="640.2168,-517.9352 649.3414,-512.5507 638.8506,-511.0698 640.2168,-517.9352"/>
</g>
<!-- Node27799 -->
<g id="node26" class="node">
<title>Node27799</title>
<g id="a_node26"><a xlink:href="list_8h.html#a3a5d0733570b2fafc18f4c71a2968ea5" target="_top" xlink:title="list_add_tail">
<polygon fill="none" stroke="#ff0000" points="331,-570.5 331,-589.5 399,-589.5 399,-570.5 331,-570.5"/>
<text text-anchor="middle" x="365" y="-577.5" font-family="Helvetica,sans-Serif" font-size="10.00" fill="#000000">list_add_tail</text>
</a>
</g>
</g>
<!-- Node28158&#45;&gt;Node27799 -->
<g id="edge36" class="edge">
<title>Node28158&#45;&gt;Node27799</title>
<path fill="none" stroke="#191970" d="M245.7486,-551.589C268.7625,-557.0719 297.6478,-563.9537 321.2256,-569.571"/>
<polygon fill="#191970" stroke="#191970" points="320.4339,-572.9803 330.9728,-571.8932 322.0562,-566.1708 320.4339,-572.9803"/>
</g>
<!-- Node28160 -->
<g id="node29" class="node">
<title>Node28160</title>
<g id="a_node29"><a xlink:href="quickjs_8c.html#a28c0ccdd26317bc38d0a693f1dffe4dc" target="_top" xlink:title="js_new_promise_capability">
<polygon fill="none" stroke="#ff0000" points="453,-456.5 453,-475.5 587,-475.5 587,-456.5 453,-456.5"/>
<text text-anchor="middle" x="520" y="-463.5" font-family="Helvetica,sans-Serif" font-size="10.00" fill="#000000">js_new_promise_capability</text>
</a>
</g>
</g>
<!-- Node28159&#45;&gt;Node28160 -->
<g id="edge42" class="edge">
<title>Node28159&#45;&gt;Node28160</title>
<path fill="none" stroke="#191970" d="M272.5824,-466C322.3899,-466 390.426,-466 442.548,-466"/>
<polygon fill="#191970" stroke="#191970" points="442.7501,-469.5001 452.7501,-466 442.75,-462.5001 442.7501,-469.5001"/>
</g>
<!-- Node28160&#45;&gt;Node27766 -->
<g id="edge46" class="edge">
<title>Node28160&#45;&gt;Node27766</title>
<path fill="none" stroke="#191970" d="M562.3935,-475.589C585.8877,-480.9032 615.1914,-487.5314 639.584,-493.0488"/>
<polygon fill="#191970" stroke="#191970" points="638.8328,-496.4672 649.3586,-495.2597 640.3772,-489.6397 638.8328,-496.4672"/>
</g>
<!-- Node28160&#45;&gt;Node27839 -->
<g id="edge44" class="edge">
<title>Node28160&#45;&gt;Node27839</title>
<path fill="none" stroke="#191970" d="M554.9322,-456.4215C565.6294,-452.7277 577.1618,-447.937 587,-442 605.5836,-430.7856 604.0906,-419.6559 623,-409 626.9082,-406.7976 631.0954,-404.8297 635.3915,-403.0753"/>
<polygon fill="#191970" stroke="#191970" points="636.7332,-406.311 644.9047,-399.5673 634.3113,-399.7433 636.7332,-406.311"/>
</g>
<!-- Node28160&#45;&gt;Node27828 -->
<g id="edge47" class="edge">
<title>Node28160&#45;&gt;Node27828</title>
<path fill="none" stroke="#191970" d="M532.8641,-456.4987C546.948,-445.7799 569.8131,-427.4277 587,-409 623.5986,-369.7592 659.0946,-317.2557 676.6375,-290.0492"/>
<polygon fill="#191970" stroke="#191970" points="679.6361,-291.8565 682.0663,-281.5441 673.7356,-288.0902 679.6361,-291.8565"/>
</g>
<!-- Node28160&#45;&gt;Node27937 -->
<g id="edge45" class="edge">
<title>Node28160&#45;&gt;Node27937</title>
<path fill="none" stroke="#191970" d="M587.364,-466C603.0882,-466 619.6225,-466 634.6422,-466"/>
<polygon fill="#191970" stroke="#191970" points="634.77,-469.5001 644.7699,-466 634.7699,-462.5001 634.77,-469.5001"/>
</g>
<!-- Node28161 -->
<g id="node30" class="node">
<title>Node28161</title>
<g id="a_node30"><a xlink:href="quickjs_8c.html#ae8438ccbdb642a5efe75ee5553040c64" target="_top" xlink:title="js_promise_executor_new">
<polygon fill="none" stroke="#ff0000" points="623,-418.5 623,-437.5 753,-437.5 753,-418.5 623,-418.5"/>
<text text-anchor="middle" x="688" y="-425.5" font-family="Helvetica,sans-Serif" font-size="10.00" fill="#000000">js_promise_executor_new</text>
</a>
</g>
</g>
<!-- Node28160&#45;&gt;Node28161 -->
<g id="edge43" class="edge">
<title>Node28160&#45;&gt;Node28161</title>
<path fill="none" stroke="#191970" d="M562.3935,-456.411C584.7626,-451.3513 612.3982,-445.1004 636.0472,-439.7512"/>
<polygon fill="#191970" stroke="#191970" points="636.9299,-443.1401 645.9114,-437.5201 635.3856,-436.3125 636.9299,-443.1401"/>
</g>
</g>
</svg>
        <g id="navigator" transform="translate(0 0)" fill="#404254">
                <rect fill="#f2f5e9" fill-opacity="0.5" stroke="#606060" stroke-width=".5" x="0" y="0" width="60" height="60"/>
                <use id="zoomplus" xlink:href="#zoomPlus" x="17" y="9" onmousedown="handleZoom(evt,'in')"/>
                <use id="zoomminus" xlink:href="#zoomMin" x="42" y="9" onmousedown="handleZoom(evt,'out')"/>
                <use id="reset" xlink:href="#resetDef" x="30" y="36" onmousedown="handleReset()"/>
                <g id="arrowUp" xlink:href="#dirArrow" transform="translate(30 24)" onmousedown="handlePan(0,-1)">
                  <use xlink:href="#rim" fill="#404040">
                        <set attributeName="fill" to="#808080" begin="arrowUp.mouseover" end="arrowUp.mouseout"/>
                  </use>
                  <path fill="none" stroke="white" stroke-width="1.5" d="M0,-3.0v7 M-2.5,-0.5L0,-3.0L2.5,-0.5"/>
                </g>
                <g id="arrowRight" xlink:href="#dirArrow" transform="rotate(90) translate(36 -43)" onmousedown="handlePan(1,0)">
                  <use xlink:href="#rim" fill="#404040">
                        <set attributeName="fill" to="#808080" begin="arrowRight.mouseover" end="arrowRight.mouseout"/>
                  </use>
                  <path fill="none" stroke="white" stroke-width="1.5" d="M0,-3.0v7 M-2.5,-0.5L0,-3.0L2.5,-0.5"/>
                </g>
                <g id="arrowDown" xlink:href="#dirArrow" transform="rotate(180) translate(-30 -48)" onmousedown="handlePan(0,1)">
                  <use xlink:href="#rim" fill="#404040">
                        <set attributeName="fill" to="#808080" begin="arrowDown.mouseover" end="arrowDown.mouseout"/>
                  </use>
                  <path fill="none" stroke="white" stroke-width="1.5" d="M0,-3.0v7 M-2.5,-0.5L0,-3.0L2.5,-0.5"/>
                </g>
                <g id="arrowLeft" xlink:href="#dirArrow" transform="rotate(270) translate(-36 17)" onmousedown="handlePan(-1,0)">
                  <use xlink:href="#rim" fill="#404040">
                        <set attributeName="fill" to="#808080" begin="arrowLeft.mouseover" end="arrowLeft.mouseout"/>
                  </use>
                  <path fill="none" stroke="white" stroke-width="1.5" d="M0,-3.0v7 M-2.5,-0.5L0,-3.0L2.5,-0.5"/>
                </g>
        </g>
        <svg viewBox="0 0 15 15" width="100%" height="30px" preserveAspectRatio="xMaxYMin meet">
         <g id="arrow_out" transform="scale(0.3 0.3)">
          <a xlink:href="quickjs_8c_a50e94675d1c4cf67c88e72169ea3c21a_cgraph_org.svg" target="_base">
           <rect id="button" ry="5" rx="5" y="6" x="6" height="38" width="38"
                fill="#f2f5e9" fill-opacity="0.5" stroke="#606060" stroke-width="1.0"/>
           <path id="arrow"
             d="M 11.500037,31.436501 C 11.940474,20.09759 22.043105,11.32322 32.158766,21.979434 L 37.068811,17.246167 C 37.068811,17.246167 37.088388,32 37.088388,32 L 22.160133,31.978069 C 22.160133,31.978069 26.997745,27.140456 26.997745,27.140456 C 18.528582,18.264221 13.291696,25.230495 11.500037,31.436501 z"
             style="fill:#404040;"/>
          </a>
         </g>
        </svg>
</svg>
