<?xml version="1.0" encoding="UTF-8" standalone="no"?>
<!DOCTYPE svg PUBLIC "-//W3C//DTD SVG 1.1//EN"
 "http://www.w3.org/Graphics/SVG/1.1/DTD/svg11.dtd">
<!-- Generated by graphviz version 2.40.1 (20161225.0304)
 -->
<!-- Title: js_free_module_def Pages: 1 -->
<svg width="813pt" height="256pt"
 viewBox="0.00 0.00 813.00 256.00" xmlns="http://www.w3.org/2000/svg" xmlns:xlink="http://www.w3.org/1999/xlink">
<g id="graph0" class="graph" transform="scale(1 1) rotate(0) translate(4 252)">
<title>js_free_module_def</title>
<!-- Node25656 -->
<g id="node1" class="node">
<title>Node25656</title>
<polygon fill="#bfbfbf" stroke="#000000" points="0,-133.5 0,-152.5 101,-152.5 101,-133.5 0,-133.5"/>
<text text-anchor="middle" x="50.5" y="-140.5" font-family="Helvetica,sans-Serif" font-size="10.00" fill="#000000">js_free_module_def</text>
</g>
<!-- Node25657 -->
<g id="node2" class="node">
<title>Node25657</title>
<g id="a_node2"><a xlink:href="quickjs_8c.html#a46a8a7e155cfd0af984f6725f060f0d6" target="_top" xlink:title="__JS_EvalInternal">
<polygon fill="none" stroke="#000000" points="432,-228.5 432,-247.5 528,-247.5 528,-228.5 432,-228.5"/>
<text text-anchor="middle" x="480" y="-235.5" font-family="Helvetica,sans-Serif" font-size="10.00" fill="#000000">__JS_EvalInternal</text>
</a>
</g>
</g>
<!-- Node25656&#45;&gt;Node25657 -->
<g id="edge1" class="edge">
<title>Node25656&#45;&gt;Node25657</title>
<path fill="none" stroke="#191970" d="M85.8231,-156.0582C127.4167,-170.9559 198.848,-195.0525 262,-209 319.7874,-221.7627 387.515,-229.7017 431.9614,-233.9796"/>
<polygon fill="#191970" stroke="#191970" points="86.7589,-152.675 76.1645,-152.5716 84.382,-159.2591 86.7589,-152.675"/>
</g>
<!-- Node25663 -->
<g id="node5" class="node">
<title>Node25663</title>
<g id="a_node5"><a xlink:href="quickjs_8c.html#adcabee55726eddca24893a78515c7ba2" target="_top" xlink:title="js_free_modules">
<polygon fill="none" stroke="#000000" points="137.5,-133.5 137.5,-152.5 225.5,-152.5 225.5,-133.5 137.5,-133.5"/>
<text text-anchor="middle" x="181.5" y="-140.5" font-family="Helvetica,sans-Serif" font-size="10.00" fill="#000000">js_free_modules</text>
</a>
</g>
</g>
<!-- Node25656&#45;&gt;Node25663 -->
<g id="edge4" class="edge">
<title>Node25656&#45;&gt;Node25663</title>
<path fill="none" stroke="#191970" d="M111.3596,-143C120.1344,-143 129.0209,-143 137.3848,-143"/>
<polygon fill="#191970" stroke="#191970" points="111.1481,-139.5001 101.148,-143 111.148,-146.5001 111.1481,-139.5001"/>
</g>
<!-- Node25742 -->
<g id="node16" class="node">
<title>Node25742</title>
<g id="a_node16"><a xlink:href="quickjs_8c.html#a21c7b14be807f7ce7f71c19e2e80380c" target="_top" xlink:title="JS_ReadModule">
<polygon fill="none" stroke="#ff0000" points="137,-95.5 137,-114.5 226,-114.5 226,-95.5 137,-95.5"/>
<text text-anchor="middle" x="181.5" y="-102.5" font-family="Helvetica,sans-Serif" font-size="10.00" fill="#000000">JS_ReadModule</text>
</a>
</g>
</g>
<!-- Node25656&#45;&gt;Node25742 -->
<g id="edge16" class="edge">
<title>Node25656&#45;&gt;Node25742</title>
<path fill="none" stroke="#191970" d="M93.2148,-130.6094C111.1547,-125.4055 131.6996,-119.4459 148.4537,-114.5859"/>
<polygon fill="#191970" stroke="#191970" points="92.1858,-127.2636 83.5568,-133.411 94.136,-133.9864 92.1858,-127.2636"/>
</g>
<!-- Node25658 -->
<g id="node3" class="node">
<title>Node25658</title>
<g id="a_node3"><a xlink:href="quickjs_8c.html#acbcccb7ec58fd4a024ea1d01e5d04561" target="_top" xlink:title="JS_AddIntrinsicEval">
<polygon fill="none" stroke="#000000" points="575,-228.5 575,-247.5 680,-247.5 680,-228.5 575,-228.5"/>
<text text-anchor="middle" x="627.5" y="-235.5" font-family="Helvetica,sans-Serif" font-size="10.00" fill="#000000">JS_AddIntrinsicEval</text>
</a>
</g>
</g>
<!-- Node25657&#45;&gt;Node25658 -->
<g id="edge2" class="edge">
<title>Node25657&#45;&gt;Node25658</title>
<path fill="none" stroke="#191970" d="M538.6138,-238C550.5535,-238 563.0464,-238 574.7665,-238"/>
<polygon fill="#191970" stroke="#191970" points="538.2971,-234.5001 528.297,-238 538.297,-241.5001 538.2971,-234.5001"/>
</g>
<!-- Node25659 -->
<g id="node4" class="node">
<title>Node25659</title>
<g id="a_node4"><a xlink:href="quickjs_8c.html#ad8aedb643b8753b7a15f6cb2df61945e" target="_top" xlink:title="JS_NewContext">
<polygon fill="none" stroke="#ff0000" points="716,-228.5 716,-247.5 805,-247.5 805,-228.5 716,-228.5"/>
<text text-anchor="middle" x="760.5" y="-235.5" font-family="Helvetica,sans-Serif" font-size="10.00" fill="#000000">JS_NewContext</text>
</a>
</g>
</g>
<!-- Node25658&#45;&gt;Node25659 -->
<g id="edge3" class="edge">
<title>Node25658&#45;&gt;Node25659</title>
<path fill="none" stroke="#191970" d="M690.0996,-238C698.7114,-238 707.4107,-238 715.6171,-238"/>
<polygon fill="#191970" stroke="#191970" points="690.0652,-234.5001 680.0651,-238 690.0651,-241.5001 690.0652,-234.5001"/>
</g>
<!-- Node25664 -->
<g id="node6" class="node">
<title>Node25664</title>
<g id="a_node6"><a xlink:href="quickjs_8c.html#a1b4fe6eb1b7bcaec6713bd5ac2921f1b" target="_top" xlink:title="JS_FreeContext">
<polygon fill="none" stroke="#000000" points="279.5,-133.5 279.5,-152.5 367.5,-152.5 367.5,-133.5 279.5,-133.5"/>
<text text-anchor="middle" x="323.5" y="-140.5" font-family="Helvetica,sans-Serif" font-size="10.00" fill="#000000">JS_FreeContext</text>
</a>
</g>
</g>
<!-- Node25663&#45;&gt;Node25664 -->
<g id="edge5" class="edge">
<title>Node25663&#45;&gt;Node25664</title>
<path fill="none" stroke="#191970" d="M235.9116,-143C250.2855,-143 265.6202,-143 279.376,-143"/>
<polygon fill="#191970" stroke="#191970" points="235.6513,-139.5001 225.6513,-143 235.6513,-146.5001 235.6513,-139.5001"/>
</g>
<!-- Node25954 -->
<g id="node12" class="node">
<title>Node25954</title>
<g id="a_node12"><a xlink:href="quickjs_8c.html#aa75a2b06808d8da661d4eb6698b17cab" target="_top" xlink:title="JS_RunModule">
<polygon fill="none" stroke="#ff0000" points="282,-95.5 282,-114.5 365,-114.5 365,-95.5 282,-95.5"/>
<text text-anchor="middle" x="323.5" y="-102.5" font-family="Helvetica,sans-Serif" font-size="10.00" fill="#000000">JS_RunModule</text>
</a>
</g>
</g>
<!-- Node25663&#45;&gt;Node25954 -->
<g id="edge11" class="edge">
<title>Node25663&#45;&gt;Node25954</title>
<path fill="none" stroke="#191970" d="M226.9929,-130.8258C246.6284,-125.5713 269.2657,-119.5134 287.6789,-114.5859"/>
<polygon fill="#191970" stroke="#191970" points="226.0879,-127.4448 217.3326,-133.411 227.8975,-134.2069 226.0879,-127.4448"/>
</g>
<!-- Node25952 -->
<g id="node13" class="node">
<title>Node25952</title>
<g id="a_node13"><a xlink:href="quickjs_8c.html#a5d217acce00892ab2b50a1dcc1eb4cc8" target="_top" xlink:title="JS_EvalFunctionInternal">
<polygon fill="none" stroke="#ff0000" points="262,-180.5 262,-199.5 385,-199.5 385,-180.5 262,-180.5"/>
<text text-anchor="middle" x="323.5" y="-187.5" font-family="Helvetica,sans-Serif" font-size="10.00" fill="#000000">JS_EvalFunctionInternal</text>
</a>
</g>
</g>
<!-- Node25663&#45;&gt;Node25952 -->
<g id="edge12" class="edge">
<title>Node25663&#45;&gt;Node25952</title>
<path fill="none" stroke="#191970" d="M219.8666,-155.6988C243.2996,-163.4548 272.7939,-173.217 294.3195,-180.3417"/>
<polygon fill="#191970" stroke="#191970" points="220.8291,-152.3307 210.2358,-152.5112 218.6295,-158.9762 220.8291,-152.3307"/>
</g>
<!-- Node26399 -->
<g id="node14" class="node">
<title>Node26399</title>
<g id="a_node14"><a xlink:href="quickjs_8c.html#a3178c361614999c86711f292c035a706" target="_top" xlink:title="JS_ResolveModule">
<polygon fill="none" stroke="#000000" points="273,-38.5 273,-57.5 374,-57.5 374,-38.5 273,-38.5"/>
<text text-anchor="middle" x="323.5" y="-45.5" font-family="Helvetica,sans-Serif" font-size="10.00" fill="#000000">JS_ResolveModule</text>
</a>
</g>
</g>
<!-- Node25663&#45;&gt;Node26399 -->
<g id="edge14" class="edge">
<title>Node25663&#45;&gt;Node26399</title>
<path fill="none" stroke="#191970" d="M217.9219,-128.9504C220.7333,-127.4177 223.4617,-125.7664 226,-124 245.0956,-110.7112 243.9533,-100.6817 262,-86 275.6303,-74.9112 292.7454,-64.586 305.4574,-57.5056"/>
<polygon fill="#191970" stroke="#191970" points="216.2215,-125.8862 208.7905,-133.4381 219.309,-132.1685 216.2215,-125.8862"/>
</g>
<!-- Node25665 -->
<g id="node7" class="node">
<title>Node25665</title>
<g id="a_node7"><a xlink:href="classqjs_1_1Context.html#a5aeaa5a266944f0d9d515d2b8eac767f" target="_top" xlink:title="qjs::Context::~Context">
<polygon fill="none" stroke="#000000" points="422,-190.5 422,-209.5 538,-209.5 538,-190.5 422,-190.5"/>
<text text-anchor="middle" x="480" y="-197.5" font-family="Helvetica,sans-Serif" font-size="10.00" fill="#000000">qjs::Context::~Context</text>
</a>
</g>
</g>
<!-- Node25664&#45;&gt;Node25665 -->
<g id="edge6" class="edge">
<title>Node25664&#45;&gt;Node25665</title>
<path fill="none" stroke="#191970" d="M356.3131,-156.3559C375.1398,-163.8759 399.2807,-173.2782 421,-181 430.1254,-184.2443 440.1267,-187.5558 449.2601,-190.4863"/>
<polygon fill="#191970" stroke="#191970" points="357.5775,-153.092 346.9934,-152.6138 354.9692,-159.5879 357.5775,-153.092"/>
</g>
<!-- Node25666 -->
<g id="node8" class="node">
<title>Node25666</title>
<g id="a_node8"><a xlink:href="quickjs-libc_8c.html#a1fbb3adc15e7b967479fc1940e99b67a" target="_top" xlink:title="worker_func">
<polygon fill="none" stroke="#ff0000" points="445,-152.5 445,-171.5 515,-171.5 515,-152.5 445,-152.5"/>
<text text-anchor="middle" x="480" y="-159.5" font-family="Helvetica,sans-Serif" font-size="10.00" fill="#000000">worker_func</text>
</a>
</g>
</g>
<!-- Node25664&#45;&gt;Node25666 -->
<g id="edge7" class="edge">
<title>Node25664&#45;&gt;Node25666</title>
<path fill="none" stroke="#191970" d="M377.5377,-149.5605C399.8739,-152.2722 425.1298,-155.3384 444.9781,-157.7481"/>
<polygon fill="#191970" stroke="#191970" points="377.8594,-146.0739 367.5105,-148.3431 377.0157,-153.0229 377.8594,-146.0739"/>
</g>
<!-- Node25670 -->
<g id="node9" class="node">
<title>Node25670</title>
<g id="a_node9"><a xlink:href="quickjs_8c.html#af2bcf1faee5b5dd948692540d9cce73e" target="_top" xlink:title="js_autoinit_free">
<polygon fill="none" stroke="#ff0000" points="438.5,-114.5 438.5,-133.5 521.5,-133.5 521.5,-114.5 438.5,-114.5"/>
<text text-anchor="middle" x="480" y="-121.5" font-family="Helvetica,sans-Serif" font-size="10.00" fill="#000000">js_autoinit_free</text>
</a>
</g>
</g>
<!-- Node25664&#45;&gt;Node25670 -->
<g id="edge8" class="edge">
<title>Node25664&#45;&gt;Node25670</title>
<path fill="none" stroke="#191970" d="M377.687,-136.4214C397.6088,-134.0028 419.8359,-131.3043 438.4701,-129.042"/>
<polygon fill="#191970" stroke="#191970" points="377.0157,-132.9771 367.5105,-137.6569 377.8594,-139.9261 377.0157,-132.9771"/>
</g>
<!-- Node26398 -->
<g id="node10" class="node">
<title>Node26398</title>
<g id="a_node10"><a xlink:href="quickjs_8c.html#a7fc69d7fe9fa0f902d0d9a3640634711" target="_top" xlink:title="js_c_function_finalizer">
<polygon fill="none" stroke="#000000" points="423.5,-76.5 423.5,-95.5 536.5,-95.5 536.5,-76.5 423.5,-76.5"/>
<text text-anchor="middle" x="480" y="-83.5" font-family="Helvetica,sans-Serif" font-size="10.00" fill="#000000">js_c_function_finalizer</text>
</a>
</g>
</g>
<!-- Node25664&#45;&gt;Node26398 -->
<g id="edge9" class="edge">
<title>Node25664&#45;&gt;Node26398</title>
<path fill="none" stroke="#191970" d="M368.0155,-130.3285C373.7889,-128.3705 379.5763,-126.2461 385,-124 401.715,-117.0777 404.3265,-112.0216 421,-105 429.2316,-101.5335 438.3274,-98.3175 446.8618,-95.5541"/>
<polygon fill="#191970" stroke="#191970" points="366.8085,-127.0404 358.379,-133.4586 368.9712,-133.698 366.8085,-127.0404"/>
</g>
<!-- Node26329 -->
<g id="node11" class="node">
<title>Node26329</title>
<g id="a_node11"><a xlink:href="quickjs_8c.html#adc4a49d7eb1cc1ec4b3a8c37ab8cb075" target="_top" xlink:title="free_function_bytecode">
<polygon fill="none" stroke="#ff0000" points="421,-38.5 421,-57.5 539,-57.5 539,-38.5 421,-38.5"/>
<text text-anchor="middle" x="480" y="-45.5" font-family="Helvetica,sans-Serif" font-size="10.00" fill="#000000">free_function_bytecode</text>
</a>
</g>
</g>
<!-- Node25664&#45;&gt;Node26329 -->
<g id="edge10" class="edge">
<title>Node25664&#45;&gt;Node26329</title>
<path fill="none" stroke="#191970" d="M377.0142,-129.1749C379.8214,-127.6276 382.5075,-125.9089 385,-124 408.7883,-105.782 397.3206,-85.3593 421,-67 426.0176,-63.1097 431.8562,-60.0034 437.8709,-57.5264"/>
<polygon fill="#191970" stroke="#191970" points="375.2765,-126.1247 367.7252,-133.5563 378.2627,-132.4558 375.2765,-126.1247"/>
</g>
<!-- Node25952&#45;&gt;Node25657 -->
<g id="edge13" class="edge">
<title>Node25952&#45;&gt;Node25657</title>
<path fill="none" stroke="#191970" d="M364.5006,-202.5753C390.8586,-210.6595 424.5712,-220.9995 448.7603,-228.4185"/>
<polygon fill="#191970" stroke="#191970" points="365.3807,-199.1843 354.794,-199.5982 363.3281,-205.8766 365.3807,-199.1843"/>
</g>
<!-- Node25748 -->
<g id="node15" class="node">
<title>Node25748</title>
<g id="a_node15"><a xlink:href="quickjs-libc_8c.html#ab1b439d304c2125490b47ef262b5df67" target="_top" xlink:title="js_std_eval_binary">
<polygon fill="none" stroke="#000000" points="431,-.5 431,-19.5 529,-19.5 529,-.5 431,-.5"/>
<text text-anchor="middle" x="480" y="-7.5" font-family="Helvetica,sans-Serif" font-size="10.00" fill="#000000">js_std_eval_binary</text>
</a>
</g>
</g>
<!-- Node26399&#45;&gt;Node25748 -->
<g id="edge15" class="edge">
<title>Node26399&#45;&gt;Node25748</title>
<path fill="none" stroke="#191970" d="M372.7892,-36.032C394.7203,-30.7069 420.1849,-24.5238 440.7924,-19.5201"/>
<polygon fill="#191970" stroke="#191970" points="371.8833,-32.6502 362.9916,-38.411 373.5351,-39.4525 371.8833,-32.6502"/>
</g>
</g>
</svg>
