<?xml version="1.0" encoding="UTF-8" standalone="no"?>
<!DOCTYPE svg PUBLIC "-//W3C//DTD SVG 1.1//EN"
 "http://www.w3.org/Graphics/SVG/1.1/DTD/svg11.dtd">
<!-- Generated by graphviz version 2.40.1 (20161225.0304)
 -->
<!-- Title: find_own_property Pages: 1 -->
<svg width="226pt" height="66pt"
 viewBox="0.00 0.00 226.00 66.00" xmlns="http://www.w3.org/2000/svg" xmlns:xlink="http://www.w3.org/1999/xlink">
<g id="graph0" class="graph" transform="scale(1 1) rotate(0) translate(4 62)">
<title>find_own_property</title>
<!-- Node147869 -->
<g id="node1" class="node">
<title>Node147869</title>
<polygon fill="#bfbfbf" stroke="#000000" points="0,-19.5 0,-38.5 96,-38.5 96,-19.5 0,-19.5"/>
<text text-anchor="middle" x="48" y="-26.5" font-family="Helvetica,sans-Serif" font-size="10.00" fill="#000000">find_own_property</text>
</g>
<!-- Node147870 -->
<g id="node2" class="node">
<title>Node147870</title>
<g id="a_node2"><a xlink:href="quickjs_8c.html#a643df594b75933007bcdbb071b5ea8c5" target="_top" xlink:title="get_shape_prop">
<polygon fill="none" stroke="#000000" points="132,-38.5 132,-57.5 218,-57.5 218,-38.5 132,-38.5"/>
<text text-anchor="middle" x="175" y="-45.5" font-family="Helvetica,sans-Serif" font-size="10.00" fill="#000000">get_shape_prop</text>
</a>
</g>
</g>
<!-- Node147869&#45;&gt;Node147870 -->
<g id="edge1" class="edge">
<title>Node147869&#45;&gt;Node147870</title>
<path fill="none" stroke="#191970" d="M96.0133,-36.1831C104.495,-37.452 113.3694,-38.7797 121.9794,-40.0678"/>
<polygon fill="#191970" stroke="#191970" points="121.5183,-43.5377 131.9261,-41.5559 122.554,-36.6147 121.5183,-43.5377"/>
</g>
<!-- Node147871 -->
<g id="node3" class="node">
<title>Node147871</title>
<g id="a_node3"><a xlink:href="quickjs_8c.html#acab22c2945c4d609e57a2484feb68a96" target="_top" xlink:title="prop_hash_end">
<polygon fill="none" stroke="#000000" points="133.5,-.5 133.5,-19.5 216.5,-19.5 216.5,-.5 133.5,-.5"/>
<text text-anchor="middle" x="175" y="-7.5" font-family="Helvetica,sans-Serif" font-size="10.00" fill="#000000">prop_hash_end</text>
</a>
</g>
</g>
<!-- Node147869&#45;&gt;Node147871 -->
<g id="edge2" class="edge">
<title>Node147869&#45;&gt;Node147871</title>
<path fill="none" stroke="#191970" d="M96.0133,-21.8169C104.8934,-20.4884 114.204,-19.0955 123.1909,-17.751"/>
<polygon fill="#191970" stroke="#191970" points="123.7877,-21.2007 133.1598,-16.2596 122.752,-14.2778 123.7877,-21.2007"/>
</g>
</g>
</svg>
