<?xml version="1.0" encoding="UTF-8" standalone="no"?>
<!DOCTYPE svg PUBLIC "-//W3C//DTD SVG 1.1//EN"
 "http://www.w3.org/Graphics/SVG/1.1/DTD/svg11.dtd">
<!-- Generated by graphviz version 2.40.1 (20161225.0304)
 -->
<!-- Title: prop_hash_end Pages: 1 -->
<!--zoomable 709 -->
<svg id="main" version="1.1" xmlns="http://www.w3.org/2000/svg" xmlns:xlink="http://www.w3.org/1999/xlink" xml:space="preserve" onload="init(evt)">
<style type="text/css"><![CDATA[
.edge:hover path { stroke: red; }
.edge:hover polygon { stroke: red; fill: red; }
]]></style>
<script type="text/javascript"><![CDATA[
var edges = document.getElementsByTagName('g');
if (edges && edges.length) {
  for (var i=0;i<edges.length;i++) {
    if (edges[i].id.substr(0,4)=='edge') {
      edges[i].setAttribute('class','edge');
    }
  }
}
]]></script>
        <defs>
                <circle id="rim" cx="0" cy="0" r="7"/>
                <circle id="rim2" cx="0" cy="0" r="3.5"/>
                <g id="zoomPlus">
                        <use xlink:href="#rim" fill="#404040">
                                <set attributeName="fill" to="#808080" begin="zoomplus.mouseover" end="zoomplus.mouseout"/>
                        </use>
                        <path d="M-4,0h8M0,-4v8" fill="none" stroke="white" stroke-width="1.5" pointer-events="none"/>
                </g>
                <g id="zoomMin">
                        <use xlink:href="#rim" fill="#404040">
                                <set attributeName="fill" to="#808080" begin="zoomminus.mouseover" end="zoomminus.mouseout"/>
                        </use>
                        <path d="M-4,0h8" fill="none" stroke="white" stroke-width="1.5" pointer-events="none"/>
                </g>
                <g id="dirArrow">
                        <path fill="none" stroke="white" stroke-width="1.5" d="M0,-3.0v7 M-2.5,-0.5L0,-3.0L2.5,-0.5"/>
                </g>
               <g id="resetDef">
                       <use xlink:href="#rim2" fill="#404040">
                               <set attributeName="fill" to="#808080" begin="reset.mouseover" end="reset.mouseout"/>
                       </use>
               </g>
        </defs>

<script type="text/javascript">
var viewWidth = 995;
var viewHeight = 709;
var sectionId = 'dynsection-361';
</script>
<script xlink:href="svgpan.js"/>
<svg id="graph" class="graph">
<g id="viewport">
<title>prop_hash_end</title>
<!-- Node118398 -->
<g id="node1" class="node">
<title>Node118398</title>
<polygon fill="#bfbfbf" stroke="#000000" points="0,-168.5 0,-187.5 83,-187.5 83,-168.5 0,-168.5"/>
<text text-anchor="middle" x="41.5" y="-175.5" font-family="Helvetica,sans-Serif" font-size="10.00" fill="#000000">prop_hash_end</text>
</g>
<!-- Node118399 -->
<g id="node2" class="node">
<title>Node118399</title>
<g id="a_node2"><a xlink:href="quickjs_8c.html#a3cadcaa2bd1e3f9359f1c006f396cfa0" target="_top" xlink:title="add_shape_property">
<polygon fill="none" stroke="#000000" points="405,-187.5 405,-206.5 509,-206.5 509,-187.5 405,-187.5"/>
<text text-anchor="middle" x="457" y="-194.5" font-family="Helvetica,sans-Serif" font-size="10.00" fill="#000000">add_shape_property</text>
</a>
</g>
</g>
<!-- Node118398&#45;&gt;Node118399 -->
<g id="edge1" class="edge">
<title>Node118398&#45;&gt;Node118399</title>
<path fill="none" stroke="#191970" d="M58.5841,-194.9342C73.228,-208.1742 95.6101,-225.5438 119,-233 231.4495,-268.8466 374.4955,-226.7102 431.6972,-206.5603"/>
<polygon fill="#191970" stroke="#191970" points="60.5919,-192.0182 50.9071,-187.7221 55.799,-197.12 60.5919,-192.0182"/>
</g>
<!-- Node119034 -->
<g id="node11" class="node">
<title>Node119034</title>
<g id="a_node11"><a xlink:href="quickjs_8c.html#ab638a184d14e8b02ab3ea38b393c7cad" target="_top" xlink:title="compact_properties">
<polygon fill="none" stroke="#000000" points="267,-149.5 267,-168.5 369,-168.5 369,-149.5 267,-149.5"/>
<text text-anchor="middle" x="318" y="-156.5" font-family="Helvetica,sans-Serif" font-size="10.00" fill="#000000">compact_properties</text>
</a>
</g>
</g>
<!-- Node118398&#45;&gt;Node119034 -->
<g id="edge10" class="edge">
<title>Node118398&#45;&gt;Node119034</title>
<path fill="none" stroke="#191970" d="M93.3725,-174.4355C142.9099,-171.0315 217.1335,-165.9312 266.535,-162.5365"/>
<polygon fill="#191970" stroke="#191970" points="92.9307,-170.9575 83.1942,-175.1349 93.4107,-177.9411 92.9307,-170.9575"/>
</g>
<!-- Node118402 -->
<g id="node12" class="node">
<title>Node118402</title>
<g id="a_node12"><a xlink:href="quickjs_8c.html#a2b9a2014cb970af5b5b7dde00afbdffa" target="_top" xlink:title="delete_property">
<polygon fill="none" stroke="#ff0000" points="415.5,-130.5 415.5,-149.5 498.5,-149.5 498.5,-130.5 415.5,-130.5"/>
<text text-anchor="middle" x="457" y="-137.5" font-family="Helvetica,sans-Serif" font-size="10.00" fill="#000000">delete_property</text>
</a>
</g>
</g>
<!-- Node118398&#45;&gt;Node118402 -->
<g id="edge12" class="edge">
<title>Node118398&#45;&gt;Node118402</title>
<path fill="none" stroke="#191970" d="M93.1935,-166.9086C101.7964,-165.1833 110.6384,-163.4834 119,-162 184.4781,-150.3838 200.6804,-144.9022 267,-140 317.9894,-136.231 376.8864,-137.026 415.423,-138.24"/>
<polygon fill="#191970" stroke="#191970" points="92.3477,-163.5089 83.2473,-168.9342 93.7447,-170.3681 92.3477,-163.5089"/>
</g>
<!-- Node119035 -->
<g id="node13" class="node">
<title>Node119035</title>
<g id="a_node13"><a xlink:href="quickjs_8c.html#a06b76f5124fd985e35f4c652fd018d6d" target="_top" xlink:title="find_own_property">
<polygon fill="none" stroke="#000000" points="409,-396.5 409,-415.5 505,-415.5 505,-396.5 409,-396.5"/>
<text text-anchor="middle" x="457" y="-403.5" font-family="Helvetica,sans-Serif" font-size="10.00" fill="#000000">find_own_property</text>
</a>
</g>
</g>
<!-- Node118398&#45;&gt;Node119035 -->
<g id="edge13" class="edge">
<title>Node118398&#45;&gt;Node119035</title>
<path fill="none" stroke="#191970" d="M56.4868,-195.6576C71.1424,-212.1067 94.7376,-236.5066 119,-253 223.4083,-323.9762 366.0708,-375.9559 427.2085,-396.4225"/>
<polygon fill="#191970" stroke="#191970" points="58.8955,-193.0947 49.6816,-187.8645 53.6228,-197.699 58.8955,-193.0947"/>
</g>
<!-- Node119040 -->
<g id="node25" class="node">
<title>Node119040</title>
<g id="a_node25"><a xlink:href="quickjs_8c.html#afdc6d90129958f6258bae1505495869f" target="_top" xlink:title="find_own_property1">
<polygon fill="none" stroke="#ff0000" points="566.5,-35.5 566.5,-54.5 667.5,-54.5 667.5,-35.5 566.5,-35.5"/>
<text text-anchor="middle" x="617" y="-42.5" font-family="Helvetica,sans-Serif" font-size="10.00" fill="#000000">find_own_property1</text>
</a>
</g>
</g>
<!-- Node118398&#45;&gt;Node119040 -->
<g id="edge32" class="edge">
<title>Node118398&#45;&gt;Node119040</title>
<path fill="none" stroke="#191970" d="M48.1095,-158.9925C58.5141,-132.3361 81.4842,-84.7851 119,-64 270.7423,20.0707 490.2712,-15.8927 578.3256,-35.4376"/>
<polygon fill="#191970" stroke="#191970" points="44.8193,-157.7988 44.6256,-168.3919 51.3829,-160.2316 44.8193,-157.7988"/>
</g>
<!-- Node119045 -->
<g id="node28" class="node">
<title>Node119045</title>
<g id="a_node28"><a xlink:href="quickjs_8c.html#a7da0cfa6f27af0e1b9599d7f359edbe2" target="_top" xlink:title="get_alloc_from_shape">
<polygon fill="none" stroke="#ff0000" points="119,-187.5 119,-206.5 231,-206.5 231,-187.5 119,-187.5"/>
<text text-anchor="middle" x="175" y="-194.5" font-family="Helvetica,sans-Serif" font-size="10.00" fill="#000000">get_alloc_from_shape</text>
</a>
</g>
</g>
<!-- Node118398&#45;&gt;Node119045 -->
<g id="edge37" class="edge">
<title>Node118398&#45;&gt;Node119045</title>
<path fill="none" stroke="#191970" d="M93.0784,-185.3408C101.5043,-186.5399 110.2706,-187.7876 118.8011,-189.0017"/>
<polygon fill="#191970" stroke="#191970" points="93.4019,-181.8516 83.0084,-183.9076 92.4155,-188.7818 93.4019,-181.8516"/>
</g>
<!-- Node119155 -->
<g id="node29" class="node">
<title>Node119155</title>
<g id="a_node29"><a xlink:href="quickjs_8c.html#aa80740ff93b724ea7e0c280826f4a25a" target="_top" xlink:title="resize_properties">
<polygon fill="none" stroke="#ff0000" points="272.5,-187.5 272.5,-206.5 363.5,-206.5 363.5,-187.5 272.5,-187.5"/>
<text text-anchor="middle" x="318" y="-194.5" font-family="Helvetica,sans-Serif" font-size="10.00" fill="#000000">resize_properties</text>
</a>
</g>
</g>
<!-- Node118398&#45;&gt;Node119155 -->
<g id="edge43" class="edge">
<title>Node118398&#45;&gt;Node119155</title>
<path fill="none" stroke="#191970" d="M64.8479,-192.9498C79.7071,-201.5563 99.7209,-211.5278 119,-216 176.4737,-229.3321 245.3699,-216.5789 285.1735,-206.5058"/>
<polygon fill="#191970" stroke="#191970" points="66.261,-189.7156 55.8872,-187.5628 62.6543,-195.7149 66.261,-189.7156"/>
</g>
<!-- Node119156 -->
<g id="node30" class="node">
<title>Node119156</title>
<g id="a_node30"><a xlink:href="quickjs_8c.html#a1030d2020be7d911eb62869f21cc3b70" target="_top" xlink:title="js_new_shape2">
<polygon fill="none" stroke="#ff0000" points="133,-73.5 133,-92.5 217,-92.5 217,-73.5 133,-73.5"/>
<text text-anchor="middle" x="175" y="-80.5" font-family="Helvetica,sans-Serif" font-size="10.00" fill="#000000">js_new_shape2</text>
</a>
</g>
</g>
<!-- Node118398&#45;&gt;Node119156 -->
<g id="edge41" class="edge">
<title>Node118398&#45;&gt;Node119156</title>
<path fill="none" stroke="#191970" d="M57.0796,-160.7247C71.8441,-145.1282 95.2404,-122.3391 119,-107 127.7976,-101.3203 138.1657,-96.4443 147.5739,-92.5997"/>
<polygon fill="#191970" stroke="#191970" points="54.4274,-158.4372 50.1893,-168.1474 59.5578,-163.1995 54.4274,-158.4372"/>
</g>
<!-- Node118400 -->
<g id="node3" class="node">
<title>Node118400</title>
<g id="a_node3"><a xlink:href="quickjs_8c.html#a74547db03bf739a52c83a326b32db997" target="_top" xlink:title="add_property">
<polygon fill="none" stroke="#ff0000" points="580.5,-187.5 580.5,-206.5 653.5,-206.5 653.5,-187.5 580.5,-187.5"/>
<text text-anchor="middle" x="617" y="-194.5" font-family="Helvetica,sans-Serif" font-size="10.00" fill="#000000">add_property</text>
</a>
</g>
</g>
<!-- Node118399&#45;&gt;Node118400 -->
<g id="edge2" class="edge">
<title>Node118399&#45;&gt;Node118400</title>
<path fill="none" stroke="#191970" d="M519.6199,-197C540.1284,-197 562.2382,-197 580.1986,-197"/>
<polygon fill="#191970" stroke="#191970" points="519.39,-193.5001 509.39,-197 519.3899,-200.5001 519.39,-193.5001"/>
</g>
<!-- Node118646 -->
<g id="node10" class="node">
<title>Node118646</title>
<g id="a_node10"><a xlink:href="quickjs_8c.html#a7efb53c2f76fd5cc0e584449437ec09c" target="_top" xlink:title="JS_AddIntrinsicBasicObjects">
<polygon fill="none" stroke="#ff0000" points="545,-73.5 545,-92.5 689,-92.5 689,-73.5 545,-73.5"/>
<text text-anchor="middle" x="617" y="-80.5" font-family="Helvetica,sans-Serif" font-size="10.00" fill="#000000">JS_AddIntrinsicBasicObjects</text>
</a>
</g>
</g>
<!-- Node118399&#45;&gt;Node118646 -->
<g id="edge9" class="edge">
<title>Node118399&#45;&gt;Node118646</title>
<path fill="none" stroke="#191970" d="M481.4898,-181.6317C490.6666,-175.2469 500.8378,-167.3733 509,-159 528.6208,-138.8717 522.5127,-123.8655 545,-107 553.3273,-100.7545 563.3717,-96.0781 573.2804,-92.5972"/>
<polygon fill="#191970" stroke="#191970" points="479.4481,-178.7867 473.0942,-187.2648 483.3483,-184.5995 479.4481,-178.7867"/>
</g>
<!-- Node119010 -->
<g id="node4" class="node">
<title>Node119010</title>
<g id="a_node4"><a xlink:href="quickjs_8c.html#a6a21784a40b8684f2e779bd460dd13b2" target="_top" xlink:title="JS_AddBrand">
<polygon fill="none" stroke="#ff0000" points="753.5,-185.5 753.5,-204.5 830.5,-204.5 830.5,-185.5 753.5,-185.5"/>
<text text-anchor="middle" x="792" y="-192.5" font-family="Helvetica,sans-Serif" font-size="10.00" fill="#000000">JS_AddBrand</text>
</a>
</g>
</g>
<!-- Node118400&#45;&gt;Node119010 -->
<g id="edge3" class="edge">
<title>Node118400&#45;&gt;Node119010</title>
<path fill="none" stroke="#191970" d="M664.0085,-196.4628C691.9297,-196.1437 726.9078,-195.7439 753.239,-195.443"/>
<polygon fill="#191970" stroke="#191970" points="663.6451,-192.9666 653.6857,-196.5807 663.7251,-199.9661 663.6451,-192.9666"/>
</g>
<!-- Node119011 -->
<g id="node5" class="node">
<title>Node119011</title>
<g id="a_node5"><a xlink:href="quickjs_8c.html#a7128998511654840928b9df9d4c55b3c" target="_top" xlink:title="JS_DefineAutoInitProperty">
<polygon fill="none" stroke="#ff0000" points="725.5,-529.5 725.5,-548.5 858.5,-548.5 858.5,-529.5 725.5,-529.5"/>
<text text-anchor="middle" x="792" y="-536.5" font-family="Helvetica,sans-Serif" font-size="10.00" fill="#000000">JS_DefineAutoInitProperty</text>
</a>
</g>
</g>
<!-- Node118400&#45;&gt;Node119011 -->
<g id="edge4" class="edge">
<title>Node118400&#45;&gt;Node119011</title>
<path fill="none" stroke="#191970" d="M663.758,-201.1409C673.2501,-204.0516 682.3491,-208.6901 689,-216 755.087,-288.6359 689.8728,-342.2965 725,-434 739.6967,-472.3674 769.4844,-511.6216 783.8669,-529.3119"/>
<polygon fill="#191970" stroke="#191970" points="664.3568,-197.6839 653.8102,-198.6936 662.6845,-204.4813 664.3568,-197.6839"/>
</g>
<!-- Node119012 -->
<g id="node6" class="node">
<title>Node119012</title>
<g id="a_node6"><a xlink:href="quickjs_8c.html#a4e5684e94183b342edf8cf73f1c23d65" target="_top" xlink:title="JS_DefineGlobalVar">
<polygon fill="none" stroke="#ff0000" points="739.5,-142.5 739.5,-161.5 844.5,-161.5 844.5,-142.5 739.5,-142.5"/>
<text text-anchor="middle" x="792" y="-149.5" font-family="Helvetica,sans-Serif" font-size="10.00" fill="#000000">JS_DefineGlobalVar</text>
</a>
</g>
</g>
<!-- Node118400&#45;&gt;Node119012 -->
<g id="edge5" class="edge">
<title>Node118400&#45;&gt;Node119012</title>
<path fill="none" stroke="#191970" d="M663.4427,-185.0576C691.9951,-177.7155 728.0902,-168.434 754.7598,-161.576"/>
<polygon fill="#191970" stroke="#191970" points="662.499,-181.6863 653.6857,-187.5665 664.2423,-188.4658 662.499,-181.6863"/>
</g>
<!-- Node119013 -->
<g id="node7" class="node">
<title>Node119013</title>
<g id="a_node7"><a xlink:href="quickjs_8c.html#a3865abec9986277dbff58ea314f3d82e" target="_top" xlink:title="JS_DefinePrivateField">
<polygon fill="none" stroke="#ff0000" points="735,-405.5 735,-424.5 849,-424.5 849,-405.5 735,-405.5"/>
<text text-anchor="middle" x="792" y="-412.5" font-family="Helvetica,sans-Serif" font-size="10.00" fill="#000000">JS_DefinePrivateField</text>
</a>
</g>
</g>
<!-- Node118400&#45;&gt;Node119013 -->
<g id="edge6" class="edge">
<title>Node118400&#45;&gt;Node119013</title>
<path fill="none" stroke="#191970" d="M663.2756,-202.3543C672.6269,-205.2149 681.7885,-209.5264 689,-216 722.2911,-245.8845 704.8649,-270.0505 725,-310 743.5892,-346.8824 771.7358,-387.1782 784.8305,-405.2632"/>
<polygon fill="#191970" stroke="#191970" points="664.0906,-198.9502 653.5356,-199.8687 662.3596,-205.7328 664.0906,-198.9502"/>
</g>
<!-- Node118404 -->
<g id="node8" class="node">
<title>Node118404</title>
<g id="a_node8"><a xlink:href="quickjs_8c.html#ad7f03358a8088ca920ab308225c6b2e6" target="_top" xlink:title="JS_SetPropertyInternal">
<polygon fill="none" stroke="#ff0000" points="733,-281.5 733,-300.5 851,-300.5 851,-281.5 733,-281.5"/>
<text text-anchor="middle" x="792" y="-288.5" font-family="Helvetica,sans-Serif" font-size="10.00" fill="#000000">JS_SetPropertyInternal</text>
</a>
</g>
</g>
<!-- Node118400&#45;&gt;Node118404 -->
<g id="edge7" class="edge">
<title>Node118400&#45;&gt;Node118404</title>
<path fill="none" stroke="#191970" d="M663.4994,-206.5517C672.1815,-209.0896 681.0256,-212.2098 689,-216 726.3597,-233.7569 764.0984,-265.5909 781.7279,-281.4615"/>
<polygon fill="#191970" stroke="#191970" points="664.3882,-203.1664 653.8208,-203.9291 662.5573,-209.9227 664.3882,-203.1664"/>
</g>
<!-- Node119009 -->
<g id="node9" class="node">
<title>Node119009</title>
<g id="a_node9"><a xlink:href="quickjs_8c.html#ad50f89a3ee5e8b29b31bb62cf8ea0d82" target="_top" xlink:title="JS_SetGlobalVar">
<polygon fill="none" stroke="#ff0000" points="895,-424.5 895,-443.5 987,-443.5 987,-424.5 895,-424.5"/>
<text text-anchor="middle" x="941" y="-431.5" font-family="Helvetica,sans-Serif" font-size="10.00" fill="#000000">JS_SetGlobalVar</text>
</a>
</g>
</g>
<!-- Node118404&#45;&gt;Node119009 -->
<g id="edge8" class="edge">
<title>Node118404&#45;&gt;Node119009</title>
<path fill="none" stroke="#191970" d="M809.4702,-307.7667C840.9446,-337.9736 906.2083,-400.6093 931.0794,-424.4789"/>
<polygon fill="#191970" stroke="#191970" points="811.8798,-305.2281 802.2414,-300.829 807.0327,-310.2785 811.8798,-305.2281"/>
</g>
<!-- Node119034&#45;&gt;Node118402 -->
<g id="edge11" class="edge">
<title>Node119034&#45;&gt;Node118402</title>
<path fill="none" stroke="#191970" d="M379.4553,-150.5996C391.6019,-148.9393 404.0807,-147.2336 415.3808,-145.689"/>
<polygon fill="#191970" stroke="#191970" points="378.7974,-147.1569 369.3635,-151.9791 379.7455,-154.0924 378.7974,-147.1569"/>
</g>
<!-- Node119035&#45;&gt;Node119010 -->
<g id="edge20" class="edge">
<title>Node119035&#45;&gt;Node119010</title>
<path fill="none" stroke="#191970" d="M462.0867,-386.3376C477.5345,-327.3608 524.1181,-155.0867 545,-140 596.8772,-102.52 629.0007,-117.7269 689,-140 708.7947,-147.3482 706.7549,-160.3725 725,-171 735.1427,-176.908 746.9842,-181.7361 757.867,-185.4724"/>
<polygon fill="#191970" stroke="#191970" points="458.6369,-385.697 459.5032,-396.2563 465.4109,-387.4615 458.6369,-385.697"/>
</g>
<!-- Node119035&#45;&gt;Node119011 -->
<g id="edge27" class="edge">
<title>Node119035&#45;&gt;Node119011</title>
<path fill="none" stroke="#191970" d="M467.9616,-424.3916C482.501,-446.9847 510.406,-484.576 545,-503 600.8432,-532.7409 673.3286,-540.2678 725.3103,-541.2451"/>
<polygon fill="#191970" stroke="#191970" points="470.824,-422.3668 462.5681,-415.7266 464.8811,-426.0659 470.824,-422.3668"/>
</g>
<!-- Node119035&#45;&gt;Node119013 -->
<g id="edge17" class="edge">
<title>Node119035&#45;&gt;Node119013</title>
<path fill="none" stroke="#191970" d="M470.6517,-423.6179C486.2871,-442.2097 513.8039,-470.3936 545,-482 604.9831,-504.3165 627.6424,-500.2002 689,-482 727.2443,-470.6558 764.5753,-440.1346 781.9207,-424.5059"/>
<polygon fill="#191970" stroke="#191970" points="473.1704,-421.1673 464.1497,-415.6105 467.7362,-425.5798 473.1704,-421.1673"/>
</g>
<!-- Node119035&#45;&gt;Node118404 -->
<g id="edge23" class="edge">
<title>Node119035&#45;&gt;Node118404</title>
<path fill="none" stroke="#191970" d="M486.2746,-392.0486C503.1902,-384.3202 525.0154,-374.9082 545,-368 607.5587,-346.3748 625.9638,-350.191 689,-330 716.8606,-321.076 748.21,-308.8884 768.9263,-300.5259"/>
<polygon fill="#191970" stroke="#191970" points="484.5379,-388.9957 476.9334,-396.3728 487.4785,-395.3481 484.5379,-388.9957"/>
</g>
<!-- Node119035&#45;&gt;Node119009 -->
<g id="edge31" class="edge">
<title>Node119035&#45;&gt;Node119009</title>
<path fill="none" stroke="#191970" d="M463.9751,-424.941C475.7672,-454.0201 502.5858,-509.0182 545,-535 613.7728,-577.1283 644.5123,-552.8786 725,-558 784.4354,-561.7819 806.5439,-586.1997 859,-558 905.6016,-532.9476 930.1504,-468.5031 938.082,-443.8203"/>
<polygon fill="#191970" stroke="#191970" points="467.1923,-423.5568 460.3095,-415.5021 460.6671,-426.0909 467.1923,-423.5568"/>
</g>
<!-- Node118801 -->
<g id="node14" class="node">
<title>Node118801</title>
<g id="a_node14"><a xlink:href="quickjs_8c.html#adb1fc78e06c842a22d4fa3bf3fb75f70" target="_top" xlink:title="get_func_name">
<polygon fill="none" stroke="#ff0000" points="575.5,-643.5 575.5,-662.5 658.5,-662.5 658.5,-643.5 575.5,-643.5"/>
<text text-anchor="middle" x="617" y="-650.5" font-family="Helvetica,sans-Serif" font-size="10.00" fill="#000000">get_func_name</text>
</a>
</g>
</g>
<!-- Node119035&#45;&gt;Node118801 -->
<g id="edge14" class="edge">
<title>Node119035&#45;&gt;Node118801</title>
<path fill="none" stroke="#191970" d="M459.1849,-425.6422C465.0089,-468.6774 484.8107,-571.9824 545,-629 553.322,-636.8835 564.3033,-642.1806 575.1751,-645.7386"/>
<polygon fill="#191970" stroke="#191970" points="462.6466,-425.1168 457.9396,-415.625 455.7001,-425.9804 462.6466,-425.1168"/>
</g>
<!-- Node118544 -->
<g id="node15" class="node">
<title>Node118544</title>
<g id="a_node15"><a xlink:href="quickjs_8c.html#a5762c57ae0c9937e986040c01222833a" target="_top" xlink:title="JS_GetPropertyInternal">
<polygon fill="none" stroke="#ff0000" points="557.5,-681.5 557.5,-700.5 676.5,-700.5 676.5,-681.5 557.5,-681.5"/>
<text text-anchor="middle" x="617" y="-688.5" font-family="Helvetica,sans-Serif" font-size="10.00" fill="#000000">JS_GetPropertyInternal</text>
</a>
</g>
</g>
<!-- Node119035&#45;&gt;Node118544 -->
<g id="edge15" class="edge">
<title>Node119035&#45;&gt;Node118544</title>
<path fill="none" stroke="#191970" d="M460.971,-425.636C472.5595,-481.0834 507.8696,-637.0851 545,-672 549.0498,-675.8081 553.7705,-678.873 558.8224,-681.3369"/>
<polygon fill="#191970" stroke="#191970" points="464.366,-424.7688 458.9209,-415.6803 457.5099,-426.1808 464.366,-424.7688"/>
</g>
<!-- Node118988 -->
<g id="node16" class="node">
<title>Node118988</title>
<g id="a_node16"><a xlink:href="quickjs_8c.html#a0e8d8152892d3235c94ec6df17c87d13" target="_top" xlink:title="JS_GetGlobalVar">
<polygon fill="none" stroke="#ff0000" points="746,-643.5 746,-662.5 838,-662.5 838,-643.5 746,-643.5"/>
<text text-anchor="middle" x="792" y="-650.5" font-family="Helvetica,sans-Serif" font-size="10.00" fill="#000000">JS_GetGlobalVar</text>
</a>
</g>
</g>
<!-- Node119035&#45;&gt;Node118988 -->
<g id="edge29" class="edge">
<title>Node119035&#45;&gt;Node118988</title>
<path fill="none" stroke="#191970" d="M460.6096,-425.6834C468.6425,-463.6961 491.663,-547.3041 545,-591 560.5613,-603.7484 678.8381,-629.707 745.9166,-643.649"/>
<polygon fill="#191970" stroke="#191970" points="464.0359,-424.9677 458.6542,-415.8415 457.1702,-426.3319 464.0359,-424.9677"/>
</g>
<!-- Node119036 -->
<g id="node17" class="node">
<title>Node119036</title>
<g id="a_node17"><a xlink:href="quickjs_8c.html#a7bf4f251e0ec8d1b895c8f02120c4987" target="_top" xlink:title="JS_GetPrivateField">
<polygon fill="none" stroke="#ff0000" points="566.5,-453.5 566.5,-472.5 667.5,-472.5 667.5,-453.5 566.5,-453.5"/>
<text text-anchor="middle" x="617" y="-460.5" font-family="Helvetica,sans-Serif" font-size="10.00" fill="#000000">JS_GetPrivateField</text>
</a>
</g>
</g>
<!-- Node119035&#45;&gt;Node119036 -->
<g id="edge18" class="edge">
<title>Node119035&#45;&gt;Node119036</title>
<path fill="none" stroke="#191970" d="M486.2746,-419.9514C503.1902,-427.6798 525.0154,-437.0918 545,-444 555.1413,-447.5056 566.2751,-450.7353 576.6918,-453.4995"/>
<polygon fill="#191970" stroke="#191970" points="487.4785,-416.6519 476.9334,-415.6272 484.5379,-423.0043 487.4785,-416.6519"/>
</g>
<!-- Node119037 -->
<g id="node18" class="node">
<title>Node119037</title>
<g id="a_node18"><a xlink:href="quickjs_8c.html#aeadd1b317a296e3b9fd4ebc0261f7559" target="_top" xlink:title="JS_SetPrivateField">
<polygon fill="none" stroke="#ff0000" points="566.5,-415.5 566.5,-434.5 667.5,-434.5 667.5,-415.5 566.5,-415.5"/>
<text text-anchor="middle" x="617" y="-422.5" font-family="Helvetica,sans-Serif" font-size="10.00" fill="#000000">JS_SetPrivateField</text>
</a>
</g>
</g>
<!-- Node119035&#45;&gt;Node119037 -->
<g id="edge19" class="edge">
<title>Node119035&#45;&gt;Node119037</title>
<path fill="none" stroke="#191970" d="M515.2079,-412.9122C531.9258,-414.8974 550.0181,-417.0459 566.2479,-418.9732"/>
<polygon fill="#191970" stroke="#191970" points="515.3483,-409.4043 505.0053,-411.7006 514.5228,-416.3555 515.3483,-409.4043"/>
</g>
<!-- Node119038 -->
<g id="node19" class="node">
<title>Node119038</title>
<g id="a_node19"><a xlink:href="quickjs_8c.html#aa71518153e2e2604f0f9caad36af8476" target="_top" xlink:title="JS_CheckBrand">
<polygon fill="none" stroke="#ff0000" points="573,-377.5 573,-396.5 661,-396.5 661,-377.5 573,-377.5"/>
<text text-anchor="middle" x="617" y="-384.5" font-family="Helvetica,sans-Serif" font-size="10.00" fill="#000000">JS_CheckBrand</text>
</a>
</g>
</g>
<!-- Node119035&#45;&gt;Node119038 -->
<g id="edge21" class="edge">
<title>Node119035&#45;&gt;Node119038</title>
<path fill="none" stroke="#191970" d="M515.0795,-399.1031C534.1393,-396.8397 554.9978,-394.3628 572.8524,-392.2425"/>
<polygon fill="#191970" stroke="#191970" points="514.5228,-395.6445 505.0053,-400.2994 515.3483,-402.5957 514.5228,-395.6445"/>
</g>
<!-- Node118555 -->
<g id="node20" class="node">
<title>Node118555</title>
<g id="a_node20"><a xlink:href="quickjs_8c.html#ad13892c0a0f11781b566808876658099" target="_top" xlink:title="JS_GetOwnPropertyInternal">
<polygon fill="none" stroke="#ff0000" points="547.5,-301.5 547.5,-320.5 686.5,-320.5 686.5,-301.5 547.5,-301.5"/>
<text text-anchor="middle" x="617" y="-308.5" font-family="Helvetica,sans-Serif" font-size="10.00" fill="#000000">JS_GetOwnPropertyInternal</text>
</a>
</g>
</g>
<!-- Node119035&#45;&gt;Node118555 -->
<g id="edge22" class="edge">
<title>Node119035&#45;&gt;Node118555</title>
<path fill="none" stroke="#191970" d="M473.8103,-389.3307C490.6001,-373.474 517.7641,-349.8902 545,-335 555.8675,-329.0586 568.4617,-324.2446 580.0493,-320.531"/>
<polygon fill="#191970" stroke="#191970" points="471.2216,-386.9645 466.4465,-396.4222 476.0773,-392.0066 471.2216,-386.9645"/>
</g>
<!-- Node118634 -->
<g id="node21" class="node">
<title>Node118634</title>
<g id="a_node21"><a xlink:href="quickjs_8c.html#ab50618f1bf78e444caa6da0e3e2785d7" target="_top" xlink:title="JS_DefineProperty">
<polygon fill="none" stroke="#ff0000" points="567.5,-149.5 567.5,-168.5 666.5,-168.5 666.5,-149.5 567.5,-149.5"/>
<text text-anchor="middle" x="617" y="-156.5" font-family="Helvetica,sans-Serif" font-size="10.00" fill="#000000">JS_DefineProperty</text>
</a>
</g>
</g>
<!-- Node119035&#45;&gt;Node118634 -->
<g id="edge24" class="edge">
<title>Node119035&#45;&gt;Node118634</title>
<path fill="none" stroke="#191970" d="M458.675,-386.5275C463.5314,-342.5075 481.6067,-234.7578 545,-178 551.3568,-172.3085 559.2216,-168.2889 567.3942,-165.4573"/>
<polygon fill="#191970" stroke="#191970" points="455.1902,-386.2021 457.6861,-396.4987 462.156,-386.893 455.1902,-386.2021"/>
</g>
<!-- Node119039 -->
<g id="node23" class="node">
<title>Node119039</title>
<g id="a_node23"><a xlink:href="quickjs_8c.html#a03feb143bf5c7905bc161a16b8f99a13" target="_top" xlink:title="js_object_has_name">
<polygon fill="none" stroke="#ff0000" points="564,-263.5 564,-282.5 670,-282.5 670,-263.5 564,-263.5"/>
<text text-anchor="middle" x="617" y="-270.5" font-family="Helvetica,sans-Serif" font-size="10.00" fill="#000000">js_object_has_name</text>
</a>
</g>
</g>
<!-- Node119035&#45;&gt;Node119039 -->
<g id="edge28" class="edge">
<title>Node119035&#45;&gt;Node119039</title>
<path fill="none" stroke="#191970" d="M466.3294,-387.3128C480.031,-361.8225 508.0292,-316.5248 545,-292 550.8175,-288.1409 557.3843,-285.0645 564.1255,-282.6123"/>
<polygon fill="#191970" stroke="#191970" points="463.1528,-385.8354 461.6413,-396.3219 469.3623,-389.0668 463.1528,-385.8354"/>
</g>
<!-- Node118578 -->
<g id="node24" class="node">
<title>Node118578</title>
<g id="a_node24"><a xlink:href="quickjs_8c.html#a541a07ee8f5d72f230f97472ec9e42dd" target="_top" xlink:title="JS_GetGlobalVarRef">
<polygon fill="none" stroke="#ff0000" points="563,-225.5 563,-244.5 671,-244.5 671,-225.5 563,-225.5"/>
<text text-anchor="middle" x="617" y="-232.5" font-family="Helvetica,sans-Serif" font-size="10.00" fill="#000000">JS_GetGlobalVarRef</text>
</a>
</g>
</g>
<!-- Node119035&#45;&gt;Node118578 -->
<g id="edge30" class="edge">
<title>Node119035&#45;&gt;Node118578</title>
<path fill="none" stroke="#191970" d="M462.722,-386.769C473.3968,-354.2954 499.4885,-288.7422 545,-254 550.3435,-249.9209 556.4869,-246.715 562.8848,-244.1959"/>
<polygon fill="#191970" stroke="#191970" points="459.3477,-385.8319 459.6871,-396.4213 466.0254,-387.9315 459.3477,-385.8319"/>
</g>
<!-- Node118544&#45;&gt;Node118988 -->
<g id="edge16" class="edge">
<title>Node118544&#45;&gt;Node118988</title>
<path fill="none" stroke="#191970" d="M671.1237,-679.2474C695.8687,-673.8742 724.8028,-667.5914 748.1577,-662.5201"/>
<polygon fill="#191970" stroke="#191970" points="670.1894,-675.8686 661.1599,-681.411 671.6749,-682.7092 670.1894,-675.8686"/>
</g>
<!-- Node118634&#45;&gt;Node118404 -->
<g id="edge25" class="edge">
<title>Node118634&#45;&gt;Node118404</title>
<path fill="none" stroke="#191970" d="M676.0107,-171.5099C680.5416,-173.3834 684.93,-175.5335 689,-178 700.8048,-185.154 761.4229,-255.2804 783.7397,-281.3263"/>
<polygon fill="#191970" stroke="#191970" points="677.16,-168.2034 666.5664,-168.0396 674.7457,-174.7739 677.16,-168.2034"/>
</g>
<!-- Node118771 -->
<g id="node22" class="node">
<title>Node118771</title>
<g id="a_node22"><a xlink:href="quickjs_8c.html#afda32fadaf7f938b5d1a2458a596a4b9" target="_top" xlink:title="JS_DefineGlobalFunction">
<polygon fill="none" stroke="#ff0000" points="728,-95.5 728,-114.5 856,-114.5 856,-95.5 728,-95.5"/>
<text text-anchor="middle" x="792" y="-102.5" font-family="Helvetica,sans-Serif" font-size="10.00" fill="#000000">JS_DefineGlobalFunction</text>
</a>
</g>
</g>
<!-- Node118634&#45;&gt;Node118771 -->
<g id="edge26" class="edge">
<title>Node118634&#45;&gt;Node118771</title>
<path fill="none" stroke="#191970" d="M657.6967,-146.4422C689.2686,-136.7 732.3605,-123.4031 761.1313,-114.5252"/>
<polygon fill="#191970" stroke="#191970" points="656.4071,-143.1772 647.8837,-149.4702 658.4711,-149.866 656.4071,-143.1772"/>
</g>
<!-- Node119040&#45;&gt;Node119012 -->
<g id="edge35" class="edge">
<title>Node119040&#45;&gt;Node119012</title>
<path fill="none" stroke="#191970" d="M677.1468,-56.9109C681.3472,-58.9178 685.3546,-61.262 689,-64 713.8658,-82.6762 701.4794,-103.6557 725,-124 734.3442,-132.0823 746.3528,-138.0799 757.6165,-142.4044"/>
<polygon fill="#191970" stroke="#191970" points="678.2884,-53.5961 667.7084,-53.0341 675.6287,-60.0711 678.2884,-53.5961"/>
</g>
<!-- Node119040&#45;&gt;Node118771 -->
<g id="edge36" class="edge">
<title>Node119040&#45;&gt;Node118771</title>
<path fill="none" stroke="#191970" d="M666.3812,-57.1844C674,-59.3078 681.7435,-61.608 689,-64 717.5154,-73.3997 749.5254,-86.5684 770.1822,-95.4221"/>
<polygon fill="#191970" stroke="#191970" points="667.0562,-53.7411 656.4887,-54.5022 665.2243,-60.4972 667.0562,-53.7411"/>
</g>
<!-- Node119041 -->
<g id="node26" class="node">
<title>Node119041</title>
<g id="a_node26"><a xlink:href="quickjs_8c.html#a2bb0a2ca3b8320f3ff778c65034fce49" target="_top" xlink:title="is_backtrace_needed">
<polygon fill="none" stroke="#ff0000" points="737.5,-.5 737.5,-19.5 846.5,-19.5 846.5,-.5 737.5,-.5"/>
<text text-anchor="middle" x="792" y="-7.5" font-family="Helvetica,sans-Serif" font-size="10.00" fill="#000000">is_backtrace_needed</text>
</a>
</g>
</g>
<!-- Node119040&#45;&gt;Node119041 -->
<g id="edge33" class="edge">
<title>Node119040&#45;&gt;Node119041</title>
<path fill="none" stroke="#191970" d="M674.916,-33.4168C697.3976,-28.9205 722.8323,-23.8335 744.2383,-19.5523"/>
<polygon fill="#191970" stroke="#191970" points="673.9389,-30.0428 664.8195,-35.4361 675.3118,-36.9069 673.9389,-30.0428"/>
</g>
<!-- Node119042 -->
<g id="node27" class="node">
<title>Node119042</title>
<g id="a_node27"><a xlink:href="quickjs_8c.html#aa1646c78b429295983c0fb114f932d49" target="_top" xlink:title="JS_CheckDefineGlobalVar">
<polygon fill="none" stroke="#ff0000" points="725,-38.5 725,-57.5 859,-57.5 859,-38.5 725,-38.5"/>
<text text-anchor="middle" x="792" y="-45.5" font-family="Helvetica,sans-Serif" font-size="10.00" fill="#000000">JS_CheckDefineGlobalVar</text>
</a>
</g>
</g>
<!-- Node119040&#45;&gt;Node119042 -->
<g id="edge34" class="edge">
<title>Node119040&#45;&gt;Node119042</title>
<path fill="none" stroke="#191970" d="M677.907,-46.0441C693.0789,-46.3042 709.4294,-46.5845 724.8819,-46.8494"/>
<polygon fill="#191970" stroke="#191970" points="677.6758,-42.5397 667.6173,-45.8677 677.5558,-49.5387 677.6758,-42.5397"/>
</g>
<!-- Node119045&#45;&gt;Node119034 -->
<g id="edge40" class="edge">
<title>Node119045&#45;&gt;Node119034</title>
<path fill="none" stroke="#191970" d="M220.8133,-184.8258C240.5871,-179.5713 263.3838,-173.5134 281.9266,-168.5859"/>
<polygon fill="#191970" stroke="#191970" points="219.8506,-181.4601 211.0849,-187.411 221.6484,-188.2253 219.8506,-181.4601"/>
</g>
<!-- Node119045&#45;&gt;Node119155 -->
<g id="edge38" class="edge">
<title>Node119045&#45;&gt;Node119155</title>
<path fill="none" stroke="#191970" d="M241.4318,-197C251.8376,-197 262.3871,-197 272.1931,-197"/>
<polygon fill="#191970" stroke="#191970" points="241.107,-193.5001 231.107,-197 241.1069,-200.5001 241.107,-193.5001"/>
</g>
<!-- Node119155&#45;&gt;Node118399 -->
<g id="edge39" class="edge">
<title>Node119155&#45;&gt;Node118399</title>
<path fill="none" stroke="#191970" d="M373.581,-197C383.8232,-197 394.486,-197 404.6296,-197"/>
<polygon fill="#191970" stroke="#191970" points="373.5138,-193.5001 363.5138,-197 373.5138,-200.5001 373.5138,-193.5001"/>
</g>
<!-- Node119156&#45;&gt;Node118646 -->
<g id="edge42" class="edge">
<title>Node119156&#45;&gt;Node118646</title>
<path fill="none" stroke="#191970" d="M227.564,-83C306.4091,-83 455.5254,-83 544.6099,-83"/>
<polygon fill="#191970" stroke="#191970" points="227.3809,-79.5001 217.3808,-83 227.3808,-86.5001 227.3809,-79.5001"/>
</g>
</g>
</svg>
        <g id="navigator" transform="translate(0 0)" fill="#404254">
                <rect fill="#f2f5e9" fill-opacity="0.5" stroke="#606060" stroke-width=".5" x="0" y="0" width="60" height="60"/>
                <use id="zoomplus" xlink:href="#zoomPlus" x="17" y="9" onmousedown="handleZoom(evt,'in')"/>
                <use id="zoomminus" xlink:href="#zoomMin" x="42" y="9" onmousedown="handleZoom(evt,'out')"/>
                <use id="reset" xlink:href="#resetDef" x="30" y="36" onmousedown="handleReset()"/>
                <g id="arrowUp" xlink:href="#dirArrow" transform="translate(30 24)" onmousedown="handlePan(0,-1)">
                  <use xlink:href="#rim" fill="#404040">
                        <set attributeName="fill" to="#808080" begin="arrowUp.mouseover" end="arrowUp.mouseout"/>
                  </use>
                  <path fill="none" stroke="white" stroke-width="1.5" d="M0,-3.0v7 M-2.5,-0.5L0,-3.0L2.5,-0.5"/>
                </g>
                <g id="arrowRight" xlink:href="#dirArrow" transform="rotate(90) translate(36 -43)" onmousedown="handlePan(1,0)">
                  <use xlink:href="#rim" fill="#404040">
                        <set attributeName="fill" to="#808080" begin="arrowRight.mouseover" end="arrowRight.mouseout"/>
                  </use>
                  <path fill="none" stroke="white" stroke-width="1.5" d="M0,-3.0v7 M-2.5,-0.5L0,-3.0L2.5,-0.5"/>
                </g>
                <g id="arrowDown" xlink:href="#dirArrow" transform="rotate(180) translate(-30 -48)" onmousedown="handlePan(0,1)">
                  <use xlink:href="#rim" fill="#404040">
                        <set attributeName="fill" to="#808080" begin="arrowDown.mouseover" end="arrowDown.mouseout"/>
                  </use>
                  <path fill="none" stroke="white" stroke-width="1.5" d="M0,-3.0v7 M-2.5,-0.5L0,-3.0L2.5,-0.5"/>
                </g>
                <g id="arrowLeft" xlink:href="#dirArrow" transform="rotate(270) translate(-36 17)" onmousedown="handlePan(-1,0)">
                  <use xlink:href="#rim" fill="#404040">
                        <set attributeName="fill" to="#808080" begin="arrowLeft.mouseover" end="arrowLeft.mouseout"/>
                  </use>
                  <path fill="none" stroke="white" stroke-width="1.5" d="M0,-3.0v7 M-2.5,-0.5L0,-3.0L2.5,-0.5"/>
                </g>
        </g>
        <svg viewBox="0 0 15 15" width="100%" height="30px" preserveAspectRatio="xMaxYMin meet">
         <g id="arrow_out" transform="scale(0.3 0.3)">
          <a xlink:href="quickjs_8c_acab22c2945c4d609e57a2484feb68a96_icgraph_org.svg" target="_base">
           <rect id="button" ry="5" rx="5" y="6" x="6" height="38" width="38"
                fill="#f2f5e9" fill-opacity="0.5" stroke="#606060" stroke-width="1.0"/>
           <path id="arrow"
             d="M 11.500037,31.436501 C 11.940474,20.09759 22.043105,11.32322 32.158766,21.979434 L 37.068811,17.246167 C 37.068811,17.246167 37.088388,32 37.088388,32 L 22.160133,31.978069 C 22.160133,31.978069 26.997745,27.140456 26.997745,27.140456 C 18.528582,18.264221 13.291696,25.230495 11.500037,31.436501 z"
             style="fill:#404040;"/>
          </a>
         </g>
        </svg>
</svg>
