<?xml version="1.0" encoding="UTF-8" standalone="no"?>
<!DOCTYPE svg PUBLIC "-//W3C//DTD SVG 1.1//EN"
 "http://www.w3.org/Graphics/SVG/1.1/DTD/svg11.dtd">
<!-- Generated by graphviz version 2.40.1 (20161225.0304)
 -->
<!-- Title: JS_AddIntrinsicEval Pages: 1 -->
<svg width="530pt" height="28pt"
 viewBox="0.00 0.00 530.00 28.00" xmlns="http://www.w3.org/2000/svg" xmlns:xlink="http://www.w3.org/1999/xlink">
<g id="graph0" class="graph" transform="scale(1 1) rotate(0) translate(4 24)">
<title>JS_AddIntrinsicEval</title>
<!-- Node7307 -->
<g id="node1" class="node">
<title>Node7307</title>
<polygon fill="#bfbfbf" stroke="#000000" points="0,-.5 0,-19.5 105,-19.5 105,-.5 0,-.5"/>
<text text-anchor="middle" x="52.5" y="-7.5" font-family="Helvetica,sans-Serif" font-size="10.00" fill="#000000">JS_AddIntrinsicEval</text>
</g>
<!-- Node7308 -->
<g id="node2" class="node">
<title>Node7308</title>
<g id="a_node2"><a xlink:href="quickjs_8c.html#ad8aedb643b8753b7a15f6cb2df61945e" target="_top" xlink:title="JS_NewContext">
<polygon fill="none" stroke="#000000" points="141,-.5 141,-19.5 230,-19.5 230,-.5 141,-.5"/>
<text text-anchor="middle" x="185.5" y="-7.5" font-family="Helvetica,sans-Serif" font-size="10.00" fill="#000000">JS_NewContext</text>
</a>
</g>
</g>
<!-- Node7307&#45;&gt;Node7308 -->
<g id="edge1" class="edge">
<title>Node7307&#45;&gt;Node7308</title>
<path fill="none" stroke="#191970" d="M115.0996,-10C123.7114,-10 132.4107,-10 140.6171,-10"/>
<polygon fill="#191970" stroke="#191970" points="115.0652,-6.5001 105.0651,-10 115.0651,-13.5001 115.0652,-6.5001"/>
</g>
<!-- Node7309 -->
<g id="node3" class="node">
<title>Node7309</title>
<g id="a_node3"><a xlink:href="classqjs_1_1Context.html#a4392a23648acfc4bf6b445336efb5007" target="_top" xlink:title="qjs::Context::Context">
<polygon fill="none" stroke="#000000" points="266,-.5 266,-19.5 376,-19.5 376,-.5 266,-.5"/>
<text text-anchor="middle" x="321" y="-7.5" font-family="Helvetica,sans-Serif" font-size="10.00" fill="#000000">qjs::Context::Context</text>
</a>
</g>
</g>
<!-- Node7308&#45;&gt;Node7309 -->
<g id="edge2" class="edge">
<title>Node7308&#45;&gt;Node7309</title>
<path fill="none" stroke="#191970" d="M240.3476,-10C248.7739,-10 257.4767,-10 265.9083,-10"/>
<polygon fill="#191970" stroke="#191970" points="240.2433,-6.5001 230.2433,-10 240.2433,-13.5001 240.2433,-6.5001"/>
</g>
<!-- Node7310 -->
<g id="node4" class="node">
<title>Node7310</title>
<g id="a_node4"><a xlink:href="classqjs_1_1Context.html#af725fb8083d8c33a37198d6acaf1a836" target="_top" xlink:title="qjs::Context::Context">
<polygon fill="none" stroke="#ff0000" points="412,-.5 412,-19.5 522,-19.5 522,-.5 412,-.5"/>
<text text-anchor="middle" x="467" y="-7.5" font-family="Helvetica,sans-Serif" font-size="10.00" fill="#000000">qjs::Context::Context</text>
</a>
</g>
</g>
<!-- Node7309&#45;&gt;Node7310 -->
<g id="edge3" class="edge">
<title>Node7309&#45;&gt;Node7310</title>
<path fill="none" stroke="#191970" d="M386.4101,-10C394.8647,-10 403.4567,-10 411.7256,-10"/>
<polygon fill="#191970" stroke="#191970" points="386.1964,-6.5001 376.1963,-10 386.1963,-13.5001 386.1964,-6.5001"/>
</g>
</g>
</svg>
