<?xml version="1.0" encoding="UTF-8" standalone="no"?>
<!DOCTYPE svg PUBLIC "-//W3C//DTD SVG 1.1//EN"
 "http://www.w3.org/Graphics/SVG/1.1/DTD/svg11.dtd">
<!-- Generated by graphviz version 2.40.1 (20161225.0304)
 -->
<!-- Title: __JS_FreeValue Pages: 1 -->
<svg width="716pt" height="1078pt"
 viewBox="0.00 0.00 716.00 1077.87" xmlns="http://www.w3.org/2000/svg" xmlns:xlink="http://www.w3.org/1999/xlink">
<g id="graph0" class="graph" transform="scale(1 1) rotate(0) translate(4 1073.8685)">
<title>__JS_FreeValue</title>
<!-- Node152519 -->
<g id="node1" class="node">
<title>Node152519</title>
<polygon fill="#bfbfbf" stroke="#000000" points="0,-515.3685 0,-534.3685 89,-534.3685 89,-515.3685 0,-515.3685"/>
<text text-anchor="middle" x="44.5" y="-522.3685" font-family="Helvetica,sans-Serif" font-size="10.00" fill="#000000">__JS_FreeValue</text>
</g>
<!-- Node152520 -->
<g id="node2" class="node">
<title>Node152520</title>
<g id="a_node2"><a xlink:href="quickjs_8h.html#afaa20c47565bc704c6c85f3d77254e7d" target="_top" xlink:title="JS_FreeValue">
<polygon fill="none" stroke="#ff0000" points="125,-515.3685 125,-534.3685 203,-534.3685 203,-515.3685 125,-515.3685"/>
<text text-anchor="middle" x="164" y="-522.3685" font-family="Helvetica,sans-Serif" font-size="10.00" fill="#000000">JS_FreeValue</text>
</a>
</g>
</g>
<!-- Node152519&#45;&gt;Node152520 -->
<g id="edge1" class="edge">
<title>Node152519&#45;&gt;Node152520</title>
<path fill="none" stroke="#191970" d="M99.6015,-524.8685C108.1058,-524.8685 116.7365,-524.8685 124.7988,-524.8685"/>
<polygon fill="#191970" stroke="#191970" points="99.3374,-521.3686 89.3374,-524.8685 99.3373,-528.3686 99.3374,-521.3686"/>
</g>
<!-- Node152521 -->
<g id="node3" class="node">
<title>Node152521</title>
<g id="a_node3"><a xlink:href="namespaceqjs_1_1detail.html#a03413dce82c10c7e7680a1c64caae2c9" target="_top" xlink:title="Helper function to convert and then free JSValue. ">
<polygon fill="none" stroke="#000000" points="246.5,-1050.3685 246.5,-1069.3685 364.5,-1069.3685 364.5,-1050.3685 246.5,-1050.3685"/>
<text text-anchor="middle" x="305.5" y="-1057.3685" font-family="Helvetica,sans-Serif" font-size="10.00" fill="#000000">qjs::detail::unwrap_free</text>
</a>
</g>
</g>
<!-- Node152520&#45;&gt;Node152521 -->
<g id="edge2" class="edge">
<title>Node152520&#45;&gt;Node152521</title>
<path fill="none" stroke="#191970" d="M165.618,-544.7636C173.1202,-634.9473 205.5737,-1002.6352 239,-1040.8685 242.3193,-1044.6651 246.3393,-1047.7273 250.7409,-1050.194"/>
<polygon fill="#191970" stroke="#191970" points="169.1034,-544.4414 164.7942,-534.7625 162.1271,-545.0161 169.1034,-544.4414"/>
</g>
<!-- Node152522 -->
<g id="node4" class="node">
<title>Node152522</title>
<g id="a_node4"><a xlink:href="structqjs_1_1js__traits_3_01ctor__wrapper_3_01T_00_01Args_8_8_8_01_4_01_4.html#ac3e4ebb181720971396c1bf6008a997b" target="_top" xlink:title="qjs::js_traits\&lt; ctor\l_wrapper\&lt; T, Args...\l \&gt; \&gt;::wrap">
<polygon fill="none" stroke="#000000" points="252,-990.3685 252,-1031.3685 359,-1031.3685 359,-990.3685 252,-990.3685"/>
<text text-anchor="start" x="260" y="-1019.3685" font-family="Helvetica,sans-Serif" font-size="10.00" fill="#000000">qjs::js_traits&lt; ctor</text>
<text text-anchor="start" x="260" y="-1008.3685" font-family="Helvetica,sans-Serif" font-size="10.00" fill="#000000">_wrapper&lt; T, Args...</text>
<text text-anchor="middle" x="305.5" y="-997.3685" font-family="Helvetica,sans-Serif" font-size="10.00" fill="#000000"> &gt; &gt;::wrap</text>
</a>
</g>
</g>
<!-- Node152520&#45;&gt;Node152522 -->
<g id="edge3" class="edge">
<title>Node152520&#45;&gt;Node152522</title>
<path fill="none" stroke="#191970" d="M164.8332,-545.0214C168.4605,-623.9052 185.191,-910.8174 239,-980.8685 242.5491,-985.4889 246.9699,-989.4174 251.8345,-992.7536"/>
<polygon fill="#191970" stroke="#191970" points="168.3099,-544.412 164.3749,-534.5751 161.3166,-544.7189 168.3099,-544.412"/>
</g>
<!-- Node152523 -->
<g id="node5" class="node">
<title>Node152523</title>
<g id="a_node5"><a xlink:href="classqjs_1_1Value.html#acffffa8a01df1832830c23631bdfcd6c" target="_top" xlink:title="qjs::Value::~Value">
<polygon fill="none" stroke="#000000" points="257,-952.3685 257,-971.3685 354,-971.3685 354,-952.3685 257,-952.3685"/>
<text text-anchor="middle" x="305.5" y="-959.3685" font-family="Helvetica,sans-Serif" font-size="10.00" fill="#000000">qjs::Value::~Value</text>
</a>
</g>
</g>
<!-- Node152520&#45;&gt;Node152523 -->
<g id="edge4" class="edge">
<title>Node152520&#45;&gt;Node152523</title>
<path fill="none" stroke="#191970" d="M165.0297,-544.6455C169.2515,-618.497 187.5171,-876.9984 239,-937.8685 244.3899,-944.2411 251.6084,-948.9216 259.3038,-952.3594"/>
<polygon fill="#191970" stroke="#191970" points="168.5123,-544.23 164.4698,-534.4367 161.5228,-544.6134 168.5123,-544.23"/>
</g>
<!-- Node152524 -->
<g id="node6" class="node">
<title>Node152524</title>
<g id="a_node6"><a xlink:href="quickjs-libc_8c.html#a5cc3e22713f1916d49867f60a7375505" target="_top" xlink:title="js_module_set_import_meta">
<polygon fill="none" stroke="#000000" points="408,-582.3685 408,-601.3685 547,-601.3685 547,-582.3685 408,-582.3685"/>
<text text-anchor="middle" x="477.5" y="-589.3685" font-family="Helvetica,sans-Serif" font-size="10.00" fill="#000000">js_module_set_import_meta</text>
</a>
</g>
</g>
<!-- Node152520&#45;&gt;Node152524 -->
<g id="edge5" class="edge">
<title>Node152520&#45;&gt;Node152524</title>
<path fill="none" stroke="#191970" d="M168.8229,-544.6547C180.1122,-589.1576 209.5375,-694.8236 239,-714.8685 287.8725,-748.119 318.2927,-739.5595 372,-714.8685 424.4007,-690.7782 460.5303,-626.3962 472.8461,-601.7001"/>
<polygon fill="#191970" stroke="#191970" points="172.1683,-543.6047 166.3544,-534.7475 165.376,-545.2971 172.1683,-543.6047"/>
</g>
<!-- Node152525 -->
<g id="node7" class="node">
<title>Node152525</title>
<g id="a_node7"><a xlink:href="quickjs-libc_8c.html#ad61d60681847f324c5ba4ad88c546f1e" target="_top" xlink:title="js_module_loader">
<polygon fill="none" stroke="#ff0000" points="599.5,-629.3685 599.5,-648.3685 691.5,-648.3685 691.5,-629.3685 599.5,-629.3685"/>
<text text-anchor="middle" x="645.5" y="-636.3685" font-family="Helvetica,sans-Serif" font-size="10.00" fill="#000000">js_module_loader</text>
</a>
</g>
</g>
<!-- Node152520&#45;&gt;Node152525 -->
<g id="edge8" class="edge">
<title>Node152520&#45;&gt;Node152525</title>
<path fill="none" stroke="#191970" d="M167.8884,-544.4922C177.9113,-592.862 206.154,-715.5751 239,-738.8685 370.6079,-832.2006 579.6521,-688.4584 632.858,-648.6306"/>
<polygon fill="#191970" stroke="#191970" points="171.3046,-543.7276 165.8843,-534.6243 164.4447,-545.1208 171.3046,-543.7276"/>
</g>
<!-- Node152531 -->
<g id="node8" class="node">
<title>Node152531</title>
<g id="a_node8"><a xlink:href="quickjs-libc_8c.html#ab1b439d304c2125490b47ef262b5df67" target="_top" xlink:title="js_std_eval_binary">
<polygon fill="none" stroke="#000000" points="596.5,-496.3685 596.5,-515.3685 694.5,-515.3685 694.5,-496.3685 596.5,-496.3685"/>
<text text-anchor="middle" x="645.5" y="-503.3685" font-family="Helvetica,sans-Serif" font-size="10.00" fill="#000000">js_std_eval_binary</text>
</a>
</g>
</g>
<!-- Node152520&#45;&gt;Node152531 -->
<g id="edge33" class="edge">
<title>Node152520&#45;&gt;Node152531</title>
<path fill="none" stroke="#191970" d="M213.6237,-522.9103C306.1879,-519.2577 504.1332,-511.4468 596.3424,-507.8082"/>
<polygon fill="#191970" stroke="#191970" points="213.2574,-519.4219 203.4032,-523.3136 213.5334,-526.4165 213.2574,-519.4219"/>
</g>
<!-- Node152532 -->
<g id="node9" class="node">
<title>Node152532</title>
<g id="a_node9"><a xlink:href="quickjs-libc_8c.html#ad94572b16428965bd7780a285c188c77" target="_top" xlink:title="get_bool_option">
<polygon fill="none" stroke="#ff0000" points="263,-876.3685 263,-895.3685 348,-895.3685 348,-876.3685 263,-876.3685"/>
<text text-anchor="middle" x="305.5" y="-883.3685" font-family="Helvetica,sans-Serif" font-size="10.00" fill="#000000">get_bool_option</text>
</a>
</g>
</g>
<!-- Node152520&#45;&gt;Node152532 -->
<g id="edge9" class="edge">
<title>Node152520&#45;&gt;Node152532</title>
<path fill="none" stroke="#191970" d="M165.9149,-544.6577C172.5502,-609.411 196.5069,-813.5864 239,-861.8685 245.3251,-869.0552 253.9693,-874.0906 262.9323,-877.6184"/>
<polygon fill="#191970" stroke="#191970" points="169.3836,-544.1683 164.9068,-534.5658 162.4182,-544.8642 169.3836,-544.1683"/>
</g>
<!-- Node152534 -->
<g id="node10" class="node">
<title>Node152534</title>
<g id="a_node10"><a xlink:href="quickjs-libc_8c.html#a0b92fee4bb5dda499a0b6d86da0e8be8" target="_top" xlink:title="js_os_exec">
<polygon fill="none" stroke="#000000" points="612.5,-876.3685 612.5,-895.3685 678.5,-895.3685 678.5,-876.3685 612.5,-876.3685"/>
<text text-anchor="middle" x="645.5" y="-883.3685" font-family="Helvetica,sans-Serif" font-size="10.00" fill="#000000">js_os_exec</text>
</a>
</g>
</g>
<!-- Node152520&#45;&gt;Node152534 -->
<g id="edge21" class="edge">
<title>Node152520&#45;&gt;Node152534</title>
<path fill="none" stroke="#191970" d="M164.7498,-545.018C167.8835,-616.8321 182.5318,-858.4559 239,-904.8685 295.4219,-951.2429 525.847,-910.3191 612.4184,-892.8566"/>
<polygon fill="#191970" stroke="#191970" points="168.2323,-544.5153 164.3283,-534.666 161.2381,-544.8002 168.2323,-544.5153"/>
</g>
<!-- Node152535 -->
<g id="node11" class="node">
<title>Node152535</title>
<g id="a_node11"><a xlink:href="quickjs-libc_8c.html#a7aebce2172c6aa4a6645aef600a69e6b" target="_top" xlink:title="js_std_urlGet">
<polygon fill="none" stroke="#000000" points="440.5,-838.3685 440.5,-857.3685 514.5,-857.3685 514.5,-838.3685 440.5,-838.3685"/>
<text text-anchor="middle" x="477.5" y="-845.3685" font-family="Helvetica,sans-Serif" font-size="10.00" fill="#000000">js_std_urlGet</text>
</a>
</g>
</g>
<!-- Node152520&#45;&gt;Node152535 -->
<g id="edge13" class="edge">
<title>Node152520&#45;&gt;Node152535</title>
<path fill="none" stroke="#191970" d="M166.137,-544.404C173.077,-604.0452 196.9961,-781.9531 239,-818.8685 294.7691,-867.8815 388.2894,-862.7561 440.101,-855.0827"/>
<polygon fill="#191970" stroke="#191970" points="169.609,-543.9586 165.0065,-534.4157 162.6535,-544.7459 169.609,-543.9586"/>
</g>
<!-- Node152536 -->
<g id="node12" class="node">
<title>Node152536</title>
<g id="a_node12"><a xlink:href="quickjs-libc_8c.html#a4f611dfcb682754b3f25bb3e06f61ab5" target="_top" xlink:title="js_new_std_file">
<polygon fill="none" stroke="#ff0000" points="263.5,-686.3685 263.5,-705.3685 347.5,-705.3685 347.5,-686.3685 263.5,-686.3685"/>
<text text-anchor="middle" x="305.5" y="-693.3685" font-family="Helvetica,sans-Serif" font-size="10.00" fill="#000000">js_new_std_file</text>
</a>
</g>
</g>
<!-- Node152520&#45;&gt;Node152536 -->
<g id="edge12" class="edge">
<title>Node152520&#45;&gt;Node152536</title>
<path fill="none" stroke="#191970" d="M168.2057,-544.382C176.2145,-576.7892 196.7585,-641.6225 239,-676.8685 246.0067,-682.7148 254.7141,-686.7644 263.4949,-689.5689"/>
<polygon fill="#191970" stroke="#191970" points="171.5527,-543.3218 165.8807,-534.3732 164.7343,-544.9058 171.5527,-543.3218"/>
</g>
<!-- Node152543 -->
<g id="node13" class="node">
<title>Node152543</title>
<g id="a_node13"><a xlink:href="quickjs-libc_8c.html#a786f04aebbd56e14572bc82c0920be2c" target="_top" xlink:title="js_os_setReadHandler">
<polygon fill="none" stroke="#000000" points="247.5,-648.3685 247.5,-667.3685 363.5,-667.3685 363.5,-648.3685 247.5,-648.3685"/>
<text text-anchor="middle" x="305.5" y="-655.3685" font-family="Helvetica,sans-Serif" font-size="10.00" fill="#000000">js_os_setReadHandler</text>
</a>
</g>
</g>
<!-- Node152520&#45;&gt;Node152543 -->
<g id="edge14" class="edge">
<title>Node152520&#45;&gt;Node152543</title>
<path fill="none" stroke="#191970" d="M171.4272,-543.7908C182.3778,-569.222 205.2712,-614.0901 239,-638.8685 244.3221,-642.7783 250.4269,-645.8851 256.7324,-648.3535"/>
<polygon fill="#191970" stroke="#191970" points="174.6376,-542.3951 167.584,-534.4895 168.1681,-545.0683 174.6376,-542.3951"/>
</g>
<!-- Node152544 -->
<g id="node14" class="node">
<title>Node152544</title>
<g id="a_node14"><a xlink:href="quickjs-libc_8c.html#a87465e0686e72ba005afdf9f31a1cbf7" target="_top" xlink:title="js_os_signal">
<polygon fill="none" stroke="#000000" points="270,-610.3685 270,-629.3685 341,-629.3685 341,-610.3685 270,-610.3685"/>
<text text-anchor="middle" x="305.5" y="-617.3685" font-family="Helvetica,sans-Serif" font-size="10.00" fill="#000000">js_os_signal</text>
</a>
</g>
</g>
<!-- Node152520&#45;&gt;Node152544 -->
<g id="edge15" class="edge">
<title>Node152520&#45;&gt;Node152544</title>
<path fill="none" stroke="#191970" d="M177.161,-542.7805C190.7855,-560.0817 213.6078,-585.8142 239,-600.8685 248.3988,-606.4407 259.5185,-610.4523 269.9479,-613.3086"/>
<polygon fill="#191970" stroke="#191970" points="179.7636,-540.422 170.9098,-534.6029 174.2024,-544.6732 179.7636,-540.422"/>
</g>
<!-- Node152545 -->
<g id="node15" class="node">
<title>Node152545</title>
<g id="a_node15"><a xlink:href="quickjs-libc_8c.html#acd6d7f2e207ed1d263e55bed721a7288" target="_top" xlink:title="js_os_setTimeout">
<polygon fill="none" stroke="#000000" points="258.5,-572.3685 258.5,-591.3685 352.5,-591.3685 352.5,-572.3685 258.5,-572.3685"/>
<text text-anchor="middle" x="305.5" y="-579.3685" font-family="Helvetica,sans-Serif" font-size="10.00" fill="#000000">js_os_setTimeout</text>
</a>
</g>
</g>
<!-- Node152520&#45;&gt;Node152545 -->
<g id="edge16" class="edge">
<title>Node152520&#45;&gt;Node152545</title>
<path fill="none" stroke="#191970" d="M189.7092,-539.4316C203.9344,-547.094 222.1063,-556.2453 239,-562.8685 248.0548,-566.4184 258.0371,-569.624 267.4535,-572.3478"/>
<polygon fill="#191970" stroke="#191970" points="191.0072,-536.1518 180.5558,-534.4141 187.6424,-542.2901 191.0072,-536.1518"/>
</g>
<!-- Node152546 -->
<g id="node16" class="node">
<title>Node152546</title>
<g id="a_node16"><a xlink:href="quickjs-libc_8c.html#abb1cbe3fdf905e81f603a3a0bfce475a" target="_top" xlink:title="call_handler">
<polygon fill="none" stroke="#000000" points="611.5,-325.3685 611.5,-344.3685 679.5,-344.3685 679.5,-325.3685 611.5,-325.3685"/>
<text text-anchor="middle" x="645.5" y="-332.3685" font-family="Helvetica,sans-Serif" font-size="10.00" fill="#000000">call_handler</text>
</a>
</g>
</g>
<!-- Node152520&#45;&gt;Node152546 -->
<g id="edge17" class="edge">
<title>Node152520&#45;&gt;Node152546</title>
<path fill="none" stroke="#191970" d="M166.8039,-504.9682C174.9631,-450.2327 200.5763,-299.5866 239,-270.8685 364.0365,-177.4153 571.7625,-290.1129 629.9368,-325.1351"/>
<polygon fill="#191970" stroke="#191970" points="163.3041,-504.7146 165.3294,-515.114 170.2313,-505.7213 163.3041,-504.7146"/>
</g>
<!-- Node152547 -->
<g id="node17" class="node">
<title>Node152547</title>
<g id="a_node17"><a xlink:href="quickjs-libc_8c.html#a9fa4c190ba56314c7ed9b00bbc7ad0f9" target="_top" xlink:title="handle_posted_message">
<polygon fill="none" stroke="#000000" points="583,-135.3685 583,-154.3685 708,-154.3685 708,-135.3685 583,-135.3685"/>
<text text-anchor="middle" x="645.5" y="-142.3685" font-family="Helvetica,sans-Serif" font-size="10.00" fill="#000000">handle_posted_message</text>
</a>
</g>
</g>
<!-- Node152520&#45;&gt;Node152547 -->
<g id="edge18" class="edge">
<title>Node152520&#45;&gt;Node152547</title>
<path fill="none" stroke="#191970" d="M164.3487,-505.1945C166.1425,-429.5191 176.8737,-158.8399 239,-106.8685 294.6573,-60.3087 521.3176,-112.5345 609.8397,-135.3112"/>
<polygon fill="#191970" stroke="#191970" points="160.8484,-505.1798 164.1374,-515.2512 167.8468,-505.327 160.8484,-505.1798"/>
</g>
<!-- Node152548 -->
<g id="node18" class="node">
<title>Node152548</title>
<g id="a_node18"><a xlink:href="quickjs-libc_8c.html#afc77720d4d1c0b90749ce275a4a16f74" target="_top" xlink:title="build_envp">
<polygon fill="none" stroke="#000000" points="446,-800.3685 446,-819.3685 509,-819.3685 509,-800.3685 446,-800.3685"/>
<text text-anchor="middle" x="477.5" y="-807.3685" font-family="Helvetica,sans-Serif" font-size="10.00" fill="#000000">build_envp</text>
</a>
</g>
</g>
<!-- Node152520&#45;&gt;Node152548 -->
<g id="edge19" class="edge">
<title>Node152520&#45;&gt;Node152548</title>
<path fill="none" stroke="#191970" d="M166.8165,-544.7382C175.0928,-600.129 201.1571,-754.2752 239,-785.8685 297.9402,-835.0749 395.8036,-825.8208 445.8718,-816.8131"/>
<polygon fill="#191970" stroke="#191970" points="170.2295,-543.8871 165.3226,-534.497 163.3028,-544.8975 170.2295,-543.8871"/>
</g>
<!-- Node152549 -->
<g id="node19" class="node">
<title>Node152549</title>
<g id="a_node19"><a xlink:href="quickjs-libc_8c.html#a8129754877bdfb4d22f64dae5ba8e778" target="_top" xlink:title="js_worker_ctor_internal">
<polygon fill="none" stroke="#000000" points="247,-382.3685 247,-401.3685 364,-401.3685 364,-382.3685 247,-382.3685"/>
<text text-anchor="middle" x="305.5" y="-389.3685" font-family="Helvetica,sans-Serif" font-size="10.00" fill="#000000">js_worker_ctor_internal</text>
</a>
</g>
</g>
<!-- Node152520&#45;&gt;Node152549 -->
<g id="edge22" class="edge">
<title>Node152520&#45;&gt;Node152549</title>
<path fill="none" stroke="#191970" d="M171.4272,-505.9461C182.3778,-480.515 205.2712,-435.6469 239,-410.8685 244.3221,-406.9586 250.4269,-403.8518 256.7324,-401.3834"/>
<polygon fill="#191970" stroke="#191970" points="168.1681,-504.6687 167.584,-515.2474 174.6376,-507.3419 168.1681,-504.6687"/>
</g>
<!-- Node152528 -->
<g id="node20" class="node">
<title>Node152528</title>
<g id="a_node20"><a xlink:href="quickjs-libc_8c.html#aff1e6131e8bf8b7eb25307623ad669e7" target="_top" xlink:title="js_worker_ctor">
<polygon fill="none" stroke="#ff0000" points="437.5,-382.3685 437.5,-401.3685 517.5,-401.3685 517.5,-382.3685 437.5,-382.3685"/>
<text text-anchor="middle" x="477.5" y="-389.3685" font-family="Helvetica,sans-Serif" font-size="10.00" fill="#000000">js_worker_ctor</text>
</a>
</g>
</g>
<!-- Node152520&#45;&gt;Node152528 -->
<g id="edge24" class="edge">
<title>Node152520&#45;&gt;Node152528</title>
<path fill="none" stroke="#191970" d="M167.4334,-505.3409C176.7505,-454.8355 204.1652,-322.0807 239,-296.8685 286.885,-262.2109 316.8154,-275.6839 372,-296.8685 417.5602,-314.3584 455.7551,-361.6231 470.7236,-382.1422"/>
<polygon fill="#191970" stroke="#191970" points="163.9666,-504.8439 165.6346,-515.3066 170.8553,-506.0874 163.9666,-504.8439"/>
</g>
<!-- Node152550 -->
<g id="node21" class="node">
<title>Node152550</title>
<g id="a_node21"><a xlink:href="quickjs-libc_8c.html#a0a99fb986f4b8862e7e44dcb16a9dc96" target="_top" xlink:title="js_worker_set_onmessage">
<polygon fill="none" stroke="#000000" points="239,-344.3685 239,-363.3685 372,-363.3685 372,-344.3685 239,-344.3685"/>
<text text-anchor="middle" x="305.5" y="-351.3685" font-family="Helvetica,sans-Serif" font-size="10.00" fill="#000000">js_worker_set_onmessage</text>
</a>
</g>
</g>
<!-- Node152520&#45;&gt;Node152550 -->
<g id="edge25" class="edge">
<title>Node152520&#45;&gt;Node152550</title>
<path fill="none" stroke="#191970" d="M168.2057,-505.3549C176.2145,-472.9477 196.7585,-408.1145 239,-372.8685 243.6097,-369.0222 248.9555,-365.9536 254.574,-363.5056"/>
<polygon fill="#191970" stroke="#191970" points="164.7343,-504.8311 165.8807,-515.3638 171.5527,-506.4151 164.7343,-504.8311"/>
</g>
<!-- Node152551 -->
<g id="node22" class="node">
<title>Node152551</title>
<g id="a_node22"><a xlink:href="quickjs-libc_8c.html#ad04466feec6822a3b838baf229f6dfa0" target="_top" xlink:title="js_std_add_helpers">
<polygon fill="none" stroke="#ff0000" points="255,-306.3685 255,-325.3685 356,-325.3685 356,-306.3685 255,-306.3685"/>
<text text-anchor="middle" x="305.5" y="-313.3685" font-family="Helvetica,sans-Serif" font-size="10.00" fill="#000000">js_std_add_helpers</text>
</a>
</g>
</g>
<!-- Node152520&#45;&gt;Node152551 -->
<g id="edge26" class="edge">
<title>Node152520&#45;&gt;Node152551</title>
<path fill="none" stroke="#191970" d="M166.1036,-504.9282C171.254,-466.3121 188.0521,-381.0687 239,-334.8685 243.6252,-330.6743 249.1152,-327.4 254.9278,-324.845"/>
<polygon fill="#191970" stroke="#191970" points="162.5729,-504.9744 164.8542,-515.3207 169.5229,-505.81 162.5729,-504.9744"/>
</g>
<!-- Node152552 -->
<g id="node23" class="node">
<title>Node152552</title>
<g id="a_node23"><a xlink:href="quickjs-libc_8c.html#a410cd5dce0fb0e6a978ed313963f3962" target="_top" xlink:title="js_std_dump_error1">
<polygon fill="none" stroke="#ff0000" points="254.5,-420.3685 254.5,-439.3685 356.5,-439.3685 356.5,-420.3685 254.5,-420.3685"/>
<text text-anchor="middle" x="305.5" y="-427.3685" font-family="Helvetica,sans-Serif" font-size="10.00" fill="#000000">js_std_dump_error1</text>
</a>
</g>
</g>
<!-- Node152520&#45;&gt;Node152552 -->
<g id="edge27" class="edge">
<title>Node152520&#45;&gt;Node152552</title>
<path fill="none" stroke="#191970" d="M178.6938,-507.3182C192.7629,-491.4734 215.3007,-468.4698 239,-453.8685 248.7184,-447.8809 260.152,-443.0763 270.772,-439.3854"/>
<polygon fill="#191970" stroke="#191970" points="175.6951,-505.4346 171.7953,-515.2856 180.9871,-510.0166 175.6951,-505.4346"/>
</g>
<!-- Node152553 -->
<g id="node24" class="node">
<title>Node152553</title>
<g id="a_node24"><a xlink:href="quickjs-libc_8c.html#a82bb7888d024e97e430d98653e97a7bc" target="_top" xlink:title="js_std_dump_error">
<polygon fill="none" stroke="#ff0000" points="429,-420.3685 429,-439.3685 526,-439.3685 526,-420.3685 429,-420.3685"/>
<text text-anchor="middle" x="477.5" y="-427.3685" font-family="Helvetica,sans-Serif" font-size="10.00" fill="#000000">js_std_dump_error</text>
</a>
</g>
</g>
<!-- Node152520&#45;&gt;Node152553 -->
<g id="edge32" class="edge">
<title>Node152520&#45;&gt;Node152553</title>
<path fill="none" stroke="#191970" d="M192.8172,-510.8939C206.5884,-504.5523 223.4294,-497.2788 239,-491.8685 304.8722,-468.98 383.5507,-450.1031 432.0222,-439.4085"/>
<polygon fill="#191970" stroke="#191970" points="190.9659,-507.896 183.3943,-515.3069 193.9348,-514.2353 190.9659,-507.896"/>
</g>
<!-- Node152556 -->
<g id="node25" class="node">
<title>Node152556</title>
<g id="a_node25"><a xlink:href="quickjs_8c.html#a0cc5b21552a1c8bf455b480dac55ecba" target="_top" xlink:title="JS_ExecutePendingJob">
<polygon fill="none" stroke="#ff0000" points="245,-192.3685 245,-211.3685 366,-211.3685 366,-192.3685 245,-192.3685"/>
<text text-anchor="middle" x="305.5" y="-199.3685" font-family="Helvetica,sans-Serif" font-size="10.00" fill="#000000">JS_ExecutePendingJob</text>
</a>
</g>
</g>
<!-- Node152520&#45;&gt;Node152556 -->
<g id="edge34" class="edge">
<title>Node152520&#45;&gt;Node152556</title>
<path fill="none" stroke="#191970" d="M166.4778,-505.4024C174.4084,-445.9147 200.8972,-268.0106 239,-225.8685 244.7622,-219.4954 252.3453,-214.8132 260.3226,-211.3736"/>
<polygon fill="#191970" stroke="#191970" points="163.0018,-504.9915 165.1775,-515.3605 169.9429,-505.8979 163.0018,-504.9915"/>
</g>
<!-- Node152557 -->
<g id="node26" class="node">
<title>Node152557</title>
<g id="a_node26"><a xlink:href="quickjs_8c.html#a0ec52a675282f321a6f42aa1298a53fe" target="_top" xlink:title="set_value">
<polygon fill="none" stroke="#ff0000" points="276,-154.3685 276,-173.3685 335,-173.3685 335,-154.3685 276,-154.3685"/>
<text text-anchor="middle" x="305.5" y="-161.3685" font-family="Helvetica,sans-Serif" font-size="10.00" fill="#000000">set_value</text>
</a>
</g>
</g>
<!-- Node152520&#45;&gt;Node152557 -->
<g id="edge35" class="edge">
<title>Node152520&#45;&gt;Node152557</title>
<path fill="none" stroke="#191970" d="M165.7049,-505.1049C171.7504,-439.5158 194.2406,-230.5126 239,-182.8685 248.4544,-172.8047 262.8342,-167.9484 275.8063,-165.6519"/>
<polygon fill="#191970" stroke="#191970" points="162.1977,-505.0299 164.7926,-515.3021 169.1699,-505.6538 162.1977,-505.0299"/>
</g>
<!-- Node153140 -->
<g id="node27" class="node">
<title>Node153140</title>
<g id="a_node27"><a xlink:href="quickjs_8c.html#a1b4fe6eb1b7bcaec6713bd5ac2921f1b" target="_top" xlink:title="JS_FreeContext">
<polygon fill="none" stroke="#ff0000" points="261.5,-116.3685 261.5,-135.3685 349.5,-135.3685 349.5,-116.3685 261.5,-116.3685"/>
<text text-anchor="middle" x="305.5" y="-123.3685" font-family="Helvetica,sans-Serif" font-size="10.00" fill="#000000">JS_FreeContext</text>
</a>
</g>
</g>
<!-- Node152520&#45;&gt;Node153140 -->
<g id="edge36" class="edge">
<title>Node152520&#45;&gt;Node153140</title>
<path fill="none" stroke="#191970" d="M165.2262,-505.2226C169.9895,-435.1316 189.515,-198.6646 239,-144.8685 244.9341,-138.4174 252.8912,-134.1005 261.2352,-131.2252"/>
<polygon fill="#191970" stroke="#191970" points="161.7259,-505.1142 164.5653,-515.3214 168.7109,-505.5714 161.7259,-505.1142"/>
</g>
<!-- Node152908 -->
<g id="node28" class="node">
<title>Node152908</title>
<g id="a_node28"><a xlink:href="quickjs_8c.html#ab4e100a9cde5f7ec87c92f5e766dbbab" target="_top" xlink:title="JS_AtomIsNumericIndex1">
<polygon fill="none" stroke="#ff0000" points="240,-40.3685 240,-59.3685 371,-59.3685 371,-40.3685 240,-40.3685"/>
<text text-anchor="middle" x="305.5" y="-47.3685" font-family="Helvetica,sans-Serif" font-size="10.00" fill="#000000">JS_AtomIsNumericIndex1</text>
</a>
</g>
</g>
<!-- Node152520&#45;&gt;Node152908 -->
<g id="edge37" class="edge">
<title>Node152520&#45;&gt;Node152908</title>
<path fill="none" stroke="#191970" d="M164.7083,-504.8108C167.8652,-426.3185 183.063,-141.0095 239,-73.8685 244.2638,-67.5503 251.3274,-62.8954 258.8881,-59.4658"/>
<polygon fill="#191970" stroke="#191970" points="161.1956,-505.0807 164.3134,-515.2064 168.1906,-505.3465 161.1956,-505.0807"/>
</g>
<!-- Node152909 -->
<g id="node29" class="node">
<title>Node152909</title>
<g id="a_node29"><a xlink:href="quickjs_8c.html#add3eea1f6d626963ade3c28a1fd563d1" target="_top" xlink:title="JS_AtomIsNumericIndex">
<polygon fill="none" stroke="#ff0000" points="414.5,-21.3685 414.5,-40.3685 540.5,-40.3685 540.5,-21.3685 414.5,-21.3685"/>
<text text-anchor="middle" x="477.5" y="-28.3685" font-family="Helvetica,sans-Serif" font-size="10.00" fill="#000000">JS_AtomIsNumericIndex</text>
</a>
</g>
</g>
<!-- Node152520&#45;&gt;Node152909 -->
<g id="edge39" class="edge">
<title>Node152520&#45;&gt;Node152909</title>
<path fill="none" stroke="#191970" d="M165.5009,-505.0617C172.3832,-416.8309 202.1712,-62.5279 239,-30.8685 299.4435,21.0911 403.8415,-5.0917 451.9138,-21.2777"/>
<polygon fill="#191970" stroke="#191970" points="161.992,-505.0443 164.7139,-515.2835 168.9713,-505.5817 161.992,-505.0443"/>
</g>
<!-- Node152931 -->
<g id="node30" class="node">
<title>Node152931</title>
<g id="a_node30"><a xlink:href="quickjs_8c.html#a4b66ebf3abee5d29490343fbe360ec5a" target="_top" xlink:title="JS_AtomToCString">
<polygon fill="none" stroke="#ff0000" points="255,-534.3685 255,-553.3685 356,-553.3685 356,-534.3685 255,-534.3685"/>
<text text-anchor="middle" x="305.5" y="-541.3685" font-family="Helvetica,sans-Serif" font-size="10.00" fill="#000000">JS_AtomToCString</text>
</a>
</g>
</g>
<!-- Node152520&#45;&gt;Node152931 -->
<g id="edge40" class="edge">
<title>Node152520&#45;&gt;Node152931</title>
<path fill="none" stroke="#191970" d="M213.1122,-531.463C226.6295,-533.2781 241.3127,-535.2497 254.9116,-537.0757"/>
<polygon fill="#191970" stroke="#191970" points="213.4169,-527.9726 203.0401,-530.1106 212.4853,-534.9104 213.4169,-527.9726"/>
</g>
<!-- Node152524&#45;&gt;Node152525 -->
<g id="edge6" class="edge">
<title>Node152524&#45;&gt;Node152525</title>
<path fill="none" stroke="#191970" d="M521.4473,-604.1632C549.4988,-612.011 585.3309,-622.0354 611.2654,-629.2909"/>
<polygon fill="#191970" stroke="#191970" points="522.0705,-600.7033 511.4973,-601.3796 520.1846,-607.4444 522.0705,-600.7033"/>
</g>
<!-- Node152524&#45;&gt;Node152531 -->
<g id="edge7" class="edge">
<title>Node152524&#45;&gt;Node152531</title>
<path fill="none" stroke="#191970" d="M505.1511,-577.7137C539.5142,-560.1231 597.2249,-530.5807 626.7958,-515.4432"/>
<polygon fill="#191970" stroke="#191970" points="503.4275,-574.6641 496.1208,-582.3364 506.6172,-580.8951 503.4275,-574.6641"/>
</g>
<!-- Node152532&#45;&gt;Node152534 -->
<g id="edge10" class="edge">
<title>Node152532&#45;&gt;Node152534</title>
<path fill="none" stroke="#191970" d="M358.2864,-885.8685C429.2409,-885.8685 553.2818,-885.8685 612.3755,-885.8685"/>
<polygon fill="#191970" stroke="#191970" points="358.217,-882.3686 348.217,-885.8685 358.2169,-889.3686 358.217,-882.3686"/>
</g>
<!-- Node152532&#45;&gt;Node152535 -->
<g id="edge11" class="edge">
<title>Node152532&#45;&gt;Node152535</title>
<path fill="none" stroke="#191970" d="M357.9549,-874.2796C384.6058,-868.3916 416.3534,-861.3776 440.4316,-856.058"/>
<polygon fill="#191970" stroke="#191970" points="357.0263,-870.9003 348.0169,-876.4752 358.5365,-877.7354 357.0263,-870.9003"/>
</g>
<!-- Node152548&#45;&gt;Node152534 -->
<g id="edge20" class="edge">
<title>Node152548&#45;&gt;Node152534</title>
<path fill="none" stroke="#191970" d="M519.1132,-819.3649C528.4435,-822.0093 538.1848,-825.1858 547,-828.8685 578.9036,-842.1967 613.2181,-863.9389 631.7388,-876.3632"/>
<polygon fill="#191970" stroke="#191970" points="519.7793,-815.9197 509.2136,-816.7053 517.9631,-822.68 519.7793,-815.9197"/>
</g>
<!-- Node152549&#45;&gt;Node152528 -->
<g id="edge23" class="edge">
<title>Node152549&#45;&gt;Node152528</title>
<path fill="none" stroke="#191970" d="M374.2677,-391.8685C395.7167,-391.8685 418.657,-391.8685 437.4517,-391.8685"/>
<polygon fill="#191970" stroke="#191970" points="374.2116,-388.3686 364.2116,-391.8685 374.2115,-395.3686 374.2116,-388.3686"/>
</g>
<!-- Node152552&#45;&gt;Node152553 -->
<g id="edge28" class="edge">
<title>Node152552&#45;&gt;Node152553</title>
<path fill="none" stroke="#191970" d="M366.7817,-429.8685C387.1828,-429.8685 409.612,-429.8685 428.9166,-429.8685"/>
<polygon fill="#191970" stroke="#191970" points="366.64,-426.3686 356.64,-429.8685 366.6399,-433.3686 366.64,-426.3686"/>
</g>
<!-- Node152553&#45;&gt;Node152531 -->
<g id="edge31" class="edge">
<title>Node152553&#45;&gt;Node152531</title>
<path fill="none" stroke="#191970" d="M508.1423,-443.7305C541.8369,-458.9732 595.0769,-483.058 624.3954,-496.3212"/>
<polygon fill="#191970" stroke="#191970" points="509.331,-440.4268 498.7773,-439.4939 506.4458,-446.8045 509.331,-440.4268"/>
</g>
<!-- Node152553&#45;&gt;Node152546 -->
<g id="edge29" class="edge">
<title>Node152553&#45;&gt;Node152546</title>
<path fill="none" stroke="#191970" d="M532.3486,-417.0698C537.4014,-415.2392 542.3601,-413.1789 547,-410.8685 583.1559,-392.8643 619.0484,-360.6107 635.77,-344.5319"/>
<polygon fill="#191970" stroke="#191970" points="530.9641,-413.8415 522.5749,-420.3124 533.1684,-420.4854 530.9641,-413.8415"/>
</g>
<!-- Node152553&#45;&gt;Node152547 -->
<g id="edge30" class="edge">
<title>Node152553&#45;&gt;Node152547</title>
<path fill="none" stroke="#191970" d="M535.5709,-418.8073C539.7086,-416.6136 543.5869,-413.9944 547,-410.8685 549.5705,-408.5143 624.6992,-202.0984 641.9799,-154.5572"/>
<polygon fill="#191970" stroke="#191970" points="533.9078,-415.7157 526.1781,-422.9615 536.7392,-422.1175 533.9078,-415.7157"/>
</g>
<!-- Node152908&#45;&gt;Node152909 -->
<g id="edge38" class="edge">
<title>Node152908&#45;&gt;Node152909</title>
<path fill="none" stroke="#191970" d="M381.1386,-41.513C392.2559,-40.285 403.6076,-39.031 414.4359,-37.8348"/>
<polygon fill="#191970" stroke="#191970" points="380.5717,-38.0543 371.0165,-42.6312 381.3403,-45.012 380.5717,-38.0543"/>
</g>
<!-- Node152931&#45;&gt;Node152524 -->
<g id="edge42" class="edge">
<title>Node152931&#45;&gt;Node152524</title>
<path fill="none" stroke="#191970" d="M349.7976,-556.2306C378.8762,-564.3455 416.3472,-574.8026 443.1662,-582.2869"/>
<polygon fill="#191970" stroke="#191970" points="350.4662,-552.7835 339.8934,-553.4666 348.5845,-559.5259 350.4662,-552.7835"/>
</g>
<!-- Node152931&#45;&gt;Node152548 -->
<g id="edge41" class="edge">
<title>Node152931&#45;&gt;Node152548</title>
<path fill="none" stroke="#191970" d="M365.5495,-558.0309C367.8264,-559.489 369.9906,-561.0965 372,-562.8685 410.9949,-597.2572 462.1072,-759.159 474.6367,-800.3278"/>
<polygon fill="#191970" stroke="#191970" points="366.7714,-554.7168 356.2984,-553.1149 363.4866,-560.8982 366.7714,-554.7168"/>
</g>
<!-- Node152931&#45;&gt;Node152528 -->
<g id="edge43" class="edge">
<title>Node152931&#45;&gt;Node152528</title>
<path fill="none" stroke="#191970" d="M317.4506,-525.5659C339.136,-492.8678 384.8587,-426.3805 408,-410.8685 416.7279,-405.018 427.2109,-400.9612 437.3575,-398.151"/>
<polygon fill="#191970" stroke="#191970" points="314.3546,-523.9035 311.7763,-534.1798 320.2003,-527.7543 314.3546,-523.9035"/>
</g>
</g>
</svg>
