<?xml version="1.0" encoding="UTF-8" standalone="no"?>
<!DOCTYPE svg PUBLIC "-//W3C//DTD SVG 1.1//EN"
 "http://www.w3.org/Graphics/SVG/1.1/DTD/svg11.dtd">
<!-- Generated by graphviz version 2.40.1 (20161225.0304)
 -->
<!-- Title: add_shape_property Pages: 1 -->
<svg width="573pt" height="598pt"
 viewBox="0.00 0.00 573.00 598.00" xmlns="http://www.w3.org/2000/svg" xmlns:xlink="http://www.w3.org/1999/xlink">
<g id="graph0" class="graph" transform="scale(1 1) rotate(0) translate(4 594)">
<title>add_shape_property</title>
<!-- Node129351 -->
<g id="node1" class="node">
<title>Node129351</title>
<polygon fill="#bfbfbf" stroke="#000000" points="0,-437.5 0,-456.5 104,-456.5 104,-437.5 0,-437.5"/>
<text text-anchor="middle" x="52" y="-444.5" font-family="Helvetica,sans-Serif" font-size="10.00" fill="#000000">add_shape_property</text>
</g>
<!-- Node129352 -->
<g id="node2" class="node">
<title>Node129352</title>
<g id="a_node2"><a xlink:href="quickjs_8c.html#a288254c06a39c9fca740a7abdad2834e" target="_top" xlink:title="__JS_AtomIsTaggedInt">
<polygon fill="none" stroke="#000000" points="140,-570.5 140,-589.5 259,-589.5 259,-570.5 140,-570.5"/>
<text text-anchor="middle" x="199.5" y="-577.5" font-family="Helvetica,sans-Serif" font-size="10.00" fill="#000000">__JS_AtomIsTaggedInt</text>
</a>
</g>
</g>
<!-- Node129351&#45;&gt;Node129352 -->
<g id="edge1" class="edge">
<title>Node129351&#45;&gt;Node129352</title>
<path fill="none" stroke="#191970" d="M56.7414,-456.5313C68.0667,-478.3298 98.8447,-532.1592 140,-561 142.8389,-562.9895 145.8967,-564.7783 149.0743,-566.3857"/>
<polygon fill="#191970" stroke="#191970" points="147.7038,-569.6066 158.265,-570.4508 150.5354,-563.2048 147.7038,-569.6066"/>
</g>
<!-- Node129353 -->
<g id="node3" class="node">
<title>Node129353</title>
<g id="a_node3"><a xlink:href="quickjs_8c.html#a643df594b75933007bcdbb071b5ea8c5" target="_top" xlink:title="get_shape_prop">
<polygon fill="none" stroke="#000000" points="156.5,-532.5 156.5,-551.5 242.5,-551.5 242.5,-532.5 156.5,-532.5"/>
<text text-anchor="middle" x="199.5" y="-539.5" font-family="Helvetica,sans-Serif" font-size="10.00" fill="#000000">get_shape_prop</text>
</a>
</g>
</g>
<!-- Node129351&#45;&gt;Node129353 -->
<g id="edge2" class="edge">
<title>Node129351&#45;&gt;Node129353</title>
<path fill="none" stroke="#191970" d="M60.5554,-456.5658C75.2921,-472.5007 107.068,-504.5478 140,-523 143.883,-525.1757 148.0505,-527.1422 152.3114,-528.9106"/>
<polygon fill="#191970" stroke="#191970" points="151.1229,-532.203 161.7143,-532.4698 153.601,-525.6563 151.1229,-532.203"/>
</g>
<!-- Node129354 -->
<g id="node4" class="node">
<title>Node129354</title>
<g id="a_node4"><a xlink:href="quickjs_8c.html#abbf44eaeace1104a6bef718fbf5700fe" target="_top" xlink:title="JS_DupAtom">
<polygon fill="none" stroke="#000000" points="162,-494.5 162,-513.5 237,-513.5 237,-494.5 162,-494.5"/>
<text text-anchor="middle" x="199.5" y="-501.5" font-family="Helvetica,sans-Serif" font-size="10.00" fill="#000000">JS_DupAtom</text>
</a>
</g>
</g>
<!-- Node129351&#45;&gt;Node129354 -->
<g id="edge3" class="edge">
<title>Node129351&#45;&gt;Node129354</title>
<path fill="none" stroke="#191970" d="M72.7446,-456.6466C90.4292,-464.7033 116.6238,-476.2448 140,-485 145.6598,-487.1198 151.6753,-489.2171 157.6235,-491.2013"/>
<polygon fill="#191970" stroke="#191970" points="156.9033,-494.6477 167.4956,-494.4178 159.0718,-487.992 156.9033,-494.6477"/>
</g>
<!-- Node129356 -->
<g id="node6" class="node">
<title>Node129356</title>
<g id="a_node6"><a xlink:href="quickjs_8c.html#a82dbe63adeac7849406fd48d96f39f7b" target="_top" xlink:title="js_shape_hash_link">
<polygon fill="none" stroke="#000000" points="148.5,-456.5 148.5,-475.5 250.5,-475.5 250.5,-456.5 148.5,-456.5"/>
<text text-anchor="middle" x="199.5" y="-463.5" font-family="Helvetica,sans-Serif" font-size="10.00" fill="#000000">js_shape_hash_link</text>
</a>
</g>
</g>
<!-- Node129351&#45;&gt;Node129356 -->
<g id="edge5" class="edge">
<title>Node129351&#45;&gt;Node129356</title>
<path fill="none" stroke="#191970" d="M104.003,-453.6987C115.1651,-455.1365 127.0572,-456.6684 138.5242,-458.1455"/>
<polygon fill="#191970" stroke="#191970" points="138.0977,-461.6194 148.4629,-459.4257 138.992,-454.6767 138.0977,-461.6194"/>
</g>
<!-- Node129358 -->
<g id="node8" class="node">
<title>Node129358</title>
<g id="a_node8"><a xlink:href="quickjs_8c.html#ae5e76f4be6214208cc91f10a192fc810" target="_top" xlink:title="js_shape_hash_unlink">
<polygon fill="none" stroke="#000000" points="143,-418.5 143,-437.5 256,-437.5 256,-418.5 143,-418.5"/>
<text text-anchor="middle" x="199.5" y="-425.5" font-family="Helvetica,sans-Serif" font-size="10.00" fill="#000000">js_shape_hash_unlink</text>
</a>
</g>
</g>
<!-- Node129351&#45;&gt;Node129358 -->
<g id="edge7" class="edge">
<title>Node129351&#45;&gt;Node129358</title>
<path fill="none" stroke="#191970" d="M104.003,-440.3013C113.3598,-439.096 123.2296,-437.8247 132.932,-436.5749"/>
<polygon fill="#191970" stroke="#191970" points="133.4829,-440.0329 142.9538,-435.2839 132.5885,-433.0903 133.4829,-440.0329"/>
</g>
<!-- Node129359 -->
<g id="node9" class="node">
<title>Node129359</title>
<g id="a_node9"><a xlink:href="quickjs_8c.html#acab22c2945c4d609e57a2484feb68a96" target="_top" xlink:title="prop_hash_end">
<polygon fill="none" stroke="#000000" points="462.5,-342.5 462.5,-361.5 545.5,-361.5 545.5,-342.5 462.5,-342.5"/>
<text text-anchor="middle" x="504" y="-349.5" font-family="Helvetica,sans-Serif" font-size="10.00" fill="#000000">prop_hash_end</text>
</a>
</g>
</g>
<!-- Node129351&#45;&gt;Node129359 -->
<g id="edge9" class="edge">
<title>Node129351&#45;&gt;Node129359</title>
<path fill="none" stroke="#191970" d="M70.3767,-437.436C87.8388,-428.7447 115.0612,-416.2113 140,-409 248.6416,-377.5853 380.8417,-362.375 452.2385,-355.9706"/>
<polygon fill="#191970" stroke="#191970" points="452.6643,-359.4468 462.3212,-355.0887 452.0543,-352.4734 452.6643,-359.4468"/>
</g>
<!-- Node129360 -->
<g id="node10" class="node">
<title>Node129360</title>
<g id="a_node10"><a xlink:href="quickjs_8c.html#aa80740ff93b724ea7e0c280826f4a25a" target="_top" xlink:title="resize_properties">
<polygon fill="none" stroke="#000000" points="154,-209.5 154,-228.5 245,-228.5 245,-209.5 154,-209.5"/>
<text text-anchor="middle" x="199.5" y="-216.5" font-family="Helvetica,sans-Serif" font-size="10.00" fill="#000000">resize_properties</text>
</a>
</g>
</g>
<!-- Node129351&#45;&gt;Node129360 -->
<g id="edge10" class="edge">
<title>Node129351&#45;&gt;Node129360</title>
<path fill="none" stroke="#191970" d="M58.1501,-437.4934C80.5469,-402.8733 157.9919,-283.1616 187.7373,-237.1824"/>
<polygon fill="#191970" stroke="#191970" points="190.8305,-238.8445 193.3236,-228.5472 184.9532,-235.0423 190.8305,-238.8445"/>
</g>
<!-- Node129375 -->
<g id="node24" class="node">
<title>Node129375</title>
<g id="a_node24"><a xlink:href="quickjs_8c.html#a11f047846c1027dc6066a5f1b2ef292a" target="_top" xlink:title="shape_hash">
<polygon fill="none" stroke="#000000" points="165,-171.5 165,-190.5 234,-190.5 234,-171.5 165,-171.5"/>
<text text-anchor="middle" x="199.5" y="-178.5" font-family="Helvetica,sans-Serif" font-size="10.00" fill="#000000">shape_hash</text>
</a>
</g>
</g>
<!-- Node129351&#45;&gt;Node129375 -->
<g id="edge26" class="edge">
<title>Node129351&#45;&gt;Node129375</title>
<path fill="none" stroke="#191970" d="M52.4931,-437.3564C54.887,-400.7977 68.3469,-269.3156 140,-200 144.3438,-195.7979 149.6164,-192.5249 155.2076,-189.9757"/>
<polygon fill="#191970" stroke="#191970" points="156.7018,-193.1523 164.81,-186.3325 154.2187,-186.6075 156.7018,-193.1523"/>
</g>
<!-- Node129355 -->
<g id="node5" class="node">
<title>Node129355</title>
<g id="a_node5"><a xlink:href="quickjs_8c.html#a7f6796ee7a195631366f57c713a33f65" target="_top" xlink:title="__JS_AtomIsConst">
<polygon fill="none" stroke="#000000" points="300,-494.5 300,-513.5 402,-513.5 402,-494.5 300,-494.5"/>
<text text-anchor="middle" x="351" y="-501.5" font-family="Helvetica,sans-Serif" font-size="10.00" fill="#000000">__JS_AtomIsConst</text>
</a>
</g>
</g>
<!-- Node129354&#45;&gt;Node129355 -->
<g id="edge4" class="edge">
<title>Node129354&#45;&gt;Node129355</title>
<path fill="none" stroke="#191970" d="M237.339,-504C253.1641,-504 271.9634,-504 289.671,-504"/>
<polygon fill="#191970" stroke="#191970" points="289.94,-507.5001 299.94,-504 289.94,-500.5001 289.94,-507.5001"/>
</g>
<!-- Node129357 -->
<g id="node7" class="node">
<title>Node129357</title>
<g id="a_node7"><a xlink:href="quickjs_8c.html#a8291bf195606b5d1b0faed795b6dc3ff" target="_top" xlink:title="get_shape_hash">
<polygon fill="none" stroke="#000000" points="307,-437.5 307,-456.5 395,-456.5 395,-437.5 307,-437.5"/>
<text text-anchor="middle" x="351" y="-444.5" font-family="Helvetica,sans-Serif" font-size="10.00" fill="#000000">get_shape_hash</text>
</a>
</g>
</g>
<!-- Node129356&#45;&gt;Node129357 -->
<g id="edge6" class="edge">
<title>Node129356&#45;&gt;Node129357</title>
<path fill="none" stroke="#191970" d="M250.791,-459.5675C265.5773,-457.7131 281.7566,-455.684 296.7179,-453.8077"/>
<polygon fill="#191970" stroke="#191970" points="297.3624,-457.2543 306.8491,-452.5371 296.4913,-450.3087 297.3624,-457.2543"/>
</g>
<!-- Node129358&#45;&gt;Node129357 -->
<g id="edge8" class="edge">
<title>Node129358&#45;&gt;Node129357</title>
<path fill="none" stroke="#191970" d="M256.344,-435.129C269.4619,-436.7741 283.3877,-438.5206 296.4071,-440.1534"/>
<polygon fill="#191970" stroke="#191970" points="296.2634,-443.6627 306.6213,-441.4344 297.1346,-436.7171 296.2634,-443.6627"/>
</g>
<!-- Node129360&#45;&gt;Node129359 -->
<g id="edge25" class="edge">
<title>Node129360&#45;&gt;Node129359</title>
<path fill="none" stroke="#191970" d="M204.1137,-228.5111C215.7211,-251.2557 248.5611,-308.7012 295,-333 343.7146,-358.4895 407.6187,-360.5307 451.8784,-357.9106"/>
<polygon fill="#191970" stroke="#191970" points="452.3924,-361.3834 462.1264,-357.2002 451.9083,-354.4002 452.3924,-361.3834"/>
</g>
<!-- Node129361 -->
<g id="node11" class="node">
<title>Node129361</title>
<g id="a_node11"><a xlink:href="quickjs_8c.html#a7da0cfa6f27af0e1b9599d7f359edbe2" target="_top" xlink:title="get_alloc_from_shape">
<polygon fill="none" stroke="#000000" points="295,-304.5 295,-323.5 407,-323.5 407,-304.5 295,-304.5"/>
<text text-anchor="middle" x="351" y="-311.5" font-family="Helvetica,sans-Serif" font-size="10.00" fill="#000000">get_alloc_from_shape</text>
</a>
</g>
</g>
<!-- Node129360&#45;&gt;Node129361 -->
<g id="edge11" class="edge">
<title>Node129360&#45;&gt;Node129361</title>
<path fill="none" stroke="#191970" d="M209.2566,-228.7041C225.6676,-244.5537 260.4059,-276.1173 295,-295 298.9073,-297.1328 303.0976,-299.0881 307.3628,-300.865"/>
<polygon fill="#191970" stroke="#191970" points="306.1491,-304.1481 316.739,-304.4693 308.6608,-297.6142 306.1491,-304.1481"/>
</g>
<!-- Node129362 -->
<g id="node12" class="node">
<title>Node129362</title>
<g id="a_node12"><a xlink:href="quickjs_8c.html#a8b6c89e0f589df709eb31a92b7fac32a" target="_top" xlink:title="get_shape_from_alloc">
<polygon fill="none" stroke="#000000" points="295,-266.5 295,-285.5 407,-285.5 407,-266.5 295,-266.5"/>
<text text-anchor="middle" x="351" y="-273.5" font-family="Helvetica,sans-Serif" font-size="10.00" fill="#000000">get_shape_from_alloc</text>
</a>
</g>
</g>
<!-- Node129360&#45;&gt;Node129362 -->
<g id="edge13" class="edge">
<title>Node129360&#45;&gt;Node129362</title>
<path fill="none" stroke="#191970" d="M222.5287,-228.5501C241.7923,-236.4454 270.0506,-247.8107 295,-257 300.5545,-259.0458 306.4476,-261.1339 312.245,-263.1414"/>
<polygon fill="#191970" stroke="#191970" points="311.2401,-266.4967 321.8346,-266.4221 313.506,-259.8735 311.2401,-266.4967"/>
</g>
<!-- Node129363 -->
<g id="node13" class="node">
<title>Node129363</title>
<g id="a_node13"><a xlink:href="quickjs_8c.html#ab54e821a9b1b55dc16c4494bd410b698" target="_top" xlink:title="get_shape_size">
<polygon fill="none" stroke="#000000" points="308.5,-228.5 308.5,-247.5 393.5,-247.5 393.5,-228.5 308.5,-228.5"/>
<text text-anchor="middle" x="351" y="-235.5" font-family="Helvetica,sans-Serif" font-size="10.00" fill="#000000">get_shape_size</text>
</a>
</g>
</g>
<!-- Node129360&#45;&gt;Node129363 -->
<g id="edge14" class="edge">
<title>Node129360&#45;&gt;Node129363</title>
<path fill="none" stroke="#191970" d="M245.3661,-224.7522C262.1107,-226.8522 281.1753,-229.2431 298.4564,-231.4104"/>
<polygon fill="#191970" stroke="#191970" points="298.0362,-234.885 308.3941,-232.6567 298.9073,-227.9394 298.0362,-234.885"/>
</g>
<!-- Node129364 -->
<g id="node14" class="node">
<title>Node129364</title>
<g id="a_node14"><a xlink:href="quickjs_8c.html#a80e54dcf9ac687d4ccc2f90273565f30" target="_top" xlink:title="js_free">
<polygon fill="none" stroke="#000000" points="328,-190.5 328,-209.5 374,-209.5 374,-190.5 328,-190.5"/>
<text text-anchor="middle" x="351" y="-197.5" font-family="Helvetica,sans-Serif" font-size="10.00" fill="#000000">js_free</text>
</a>
</g>
</g>
<!-- Node129360&#45;&gt;Node129364 -->
<g id="edge15" class="edge">
<title>Node129360&#45;&gt;Node129364</title>
<path fill="none" stroke="#191970" d="M245.3661,-213.2478C268.6111,-210.3326 296.3274,-206.8566 317.5362,-204.1968"/>
<polygon fill="#191970" stroke="#191970" points="318.1889,-207.6424 327.6757,-202.9252 317.3178,-200.6968 318.1889,-207.6424"/>
</g>
<!-- Node129366 -->
<g id="node16" class="node">
<title>Node129366</title>
<g id="a_node16"><a xlink:href="quickjs_8c.html#a78b7f6b85f2739b551ff54f16156128b" target="_top" xlink:title="js_malloc">
<polygon fill="none" stroke="#000000" points="322,-152.5 322,-171.5 380,-171.5 380,-152.5 322,-152.5"/>
<text text-anchor="middle" x="351" y="-159.5" font-family="Helvetica,sans-Serif" font-size="10.00" fill="#000000">js_malloc</text>
</a>
</g>
</g>
<!-- Node129360&#45;&gt;Node129366 -->
<g id="edge17" class="edge">
<title>Node129360&#45;&gt;Node129366</title>
<path fill="none" stroke="#191970" d="M232.9221,-209.4684C241.5288,-206.7047 250.7009,-203.483 259,-200 275.6821,-192.9988 278.3816,-188.1511 295,-181 300.4977,-178.6343 306.3955,-176.3607 312.2261,-174.26"/>
<polygon fill="#191970" stroke="#191970" points="313.5948,-177.4898 321.8927,-170.9022 311.2978,-170.8774 313.5948,-177.4898"/>
</g>
<!-- Node129370 -->
<g id="node19" class="node">
<title>Node129370</title>
<g id="a_node19"><a xlink:href="quickjs_8c.html#afc4635015897c24a35aa18566311c298" target="_top" xlink:title="js_realloc">
<polygon fill="none" stroke="#000000" points="322,-114.5 322,-133.5 380,-133.5 380,-114.5 322,-114.5"/>
<text text-anchor="middle" x="351" y="-121.5" font-family="Helvetica,sans-Serif" font-size="10.00" fill="#000000">js_realloc</text>
</a>
</g>
</g>
<!-- Node129360&#45;&gt;Node129370 -->
<g id="edge20" class="edge">
<title>Node129360&#45;&gt;Node129370</title>
<path fill="none" stroke="#191970" d="M242.2929,-209.3889C248.2499,-206.927 254.0248,-203.8476 259,-200 282.7019,-181.6698 271.464,-161.5428 295,-143 300.0806,-138.9973 306.052,-135.8139 312.1682,-133.2891"/>
<polygon fill="#191970" stroke="#191970" points="313.5582,-136.509 321.7912,-129.8405 311.1967,-129.9194 313.5582,-136.509"/>
</g>
<!-- Node129371 -->
<g id="node20" class="node">
<title>Node129371</title>
<g id="a_node20"><a xlink:href="list_8h.html#a3a5d0733570b2fafc18f4c71a2968ea5" target="_top" xlink:title="list_add_tail">
<polygon fill="none" stroke="#000000" points="317,-76.5 317,-95.5 385,-95.5 385,-76.5 317,-76.5"/>
<text text-anchor="middle" x="351" y="-83.5" font-family="Helvetica,sans-Serif" font-size="10.00" fill="#000000">list_add_tail</text>
</a>
</g>
</g>
<!-- Node129360&#45;&gt;Node129371 -->
<g id="edge21" class="edge">
<title>Node129360&#45;&gt;Node129371</title>
<path fill="none" stroke="#191970" d="M244.8376,-209.4246C250.0239,-206.9675 254.9083,-203.8799 259,-200 291.7642,-168.932 262.5168,-136.3617 295,-105 298.596,-101.5281 302.8498,-98.6896 307.381,-96.3691"/>
<polygon fill="#191970" stroke="#191970" points="309.1192,-99.4332 316.9499,-92.2966 306.3779,-92.9923 309.1192,-99.4332"/>
</g>
<!-- Node129373 -->
<g id="node22" class="node">
<title>Node129373</title>
<g id="a_node22"><a xlink:href="list_8h.html#ab60d5d18869ebeb5d6ab694289576fa7" target="_top" xlink:title="list_del">
<polygon fill="none" stroke="#000000" points="327.5,-38.5 327.5,-57.5 374.5,-57.5 374.5,-38.5 327.5,-38.5"/>
<text text-anchor="middle" x="351" y="-45.5" font-family="Helvetica,sans-Serif" font-size="10.00" fill="#000000">list_del</text>
</a>
</g>
</g>
<!-- Node129360&#45;&gt;Node129373 -->
<g id="edge23" class="edge">
<title>Node129360&#45;&gt;Node129373</title>
<path fill="none" stroke="#191970" d="M245.2086,-209.7971C250.3342,-207.2791 255.103,-204.0754 259,-200 301.3223,-155.74 253.0778,-111.6392 295,-67 301.0113,-60.5991 309.2569,-56.3544 317.5728,-53.5397"/>
<polygon fill="#191970" stroke="#191970" points="318.5428,-56.9028 327.2376,-50.8488 316.6652,-50.1593 318.5428,-56.9028"/>
</g>
<!-- Node129374 -->
<g id="node23" class="node">
<title>Node129374</title>
<g id="a_node23"><a xlink:href="cutils_8h.html#a94f155fcce337a2b9d4719ed8042cbbe" target="_top" xlink:title="max_int">
<polygon fill="none" stroke="#000000" points="325.5,-.5 325.5,-19.5 376.5,-19.5 376.5,-.5 325.5,-.5"/>
<text text-anchor="middle" x="351" y="-7.5" font-family="Helvetica,sans-Serif" font-size="10.00" fill="#000000">max_int</text>
</a>
</g>
</g>
<!-- Node129360&#45;&gt;Node129374 -->
<g id="edge24" class="edge">
<title>Node129360&#45;&gt;Node129374</title>
<path fill="none" stroke="#191970" d="M245.1382,-210.1514C250.3402,-207.5784 255.1477,-204.265 259,-200 311.0587,-142.3642 243.4622,-87.1022 295,-29 300.4129,-22.8976 307.8601,-18.753 315.5575,-15.9387"/>
<polygon fill="#191970" stroke="#191970" points="316.7202,-19.2444 325.3069,-13.0381 314.7241,-12.5351 316.7202,-19.2444"/>
</g>
<!-- Node129361&#45;&gt;Node129359 -->
<g id="edge12" class="edge">
<title>Node129361&#45;&gt;Node129359</title>
<path fill="none" stroke="#191970" d="M389.6084,-323.589C409.7074,-328.5809 434.4751,-334.7324 455.8185,-340.0334"/>
<polygon fill="#191970" stroke="#191970" points="455.1204,-343.4662 465.6693,-342.4799 456.8078,-336.6726 455.1204,-343.4662"/>
</g>
<!-- Node129365 -->
<g id="node15" class="node">
<title>Node129365</title>
<g id="a_node15"><a xlink:href="quickjs_8c.html#a69e19dda8a93d613203e0baa06f0ed8d" target="_top" xlink:title="js_free_rt">
<polygon fill="none" stroke="#000000" points="475.5,-190.5 475.5,-209.5 532.5,-209.5 532.5,-190.5 475.5,-190.5"/>
<text text-anchor="middle" x="504" y="-197.5" font-family="Helvetica,sans-Serif" font-size="10.00" fill="#000000">js_free_rt</text>
</a>
</g>
</g>
<!-- Node129364&#45;&gt;Node129365 -->
<g id="edge16" class="edge">
<title>Node129364&#45;&gt;Node129365</title>
<path fill="none" stroke="#191970" d="M374.2374,-200C398.3601,-200 436.51,-200 465.2133,-200"/>
<polygon fill="#191970" stroke="#191970" points="465.3173,-203.5001 475.3173,-200 465.3172,-196.5001 465.3173,-203.5001"/>
</g>
<!-- Node129367 -->
<g id="node17" class="node">
<title>Node129367</title>
<g id="a_node17"><a xlink:href="quickjs_8c.html#a4b710876403548c1ad3edc7a7719c559" target="_top" xlink:title="js_malloc_rt">
<polygon fill="none" stroke="#000000" points="469.5,-152.5 469.5,-171.5 538.5,-171.5 538.5,-152.5 469.5,-152.5"/>
<text text-anchor="middle" x="504" y="-159.5" font-family="Helvetica,sans-Serif" font-size="10.00" fill="#000000">js_malloc_rt</text>
</a>
</g>
</g>
<!-- Node129366&#45;&gt;Node129367 -->
<g id="edge18" class="edge">
<title>Node129366&#45;&gt;Node129367</title>
<path fill="none" stroke="#191970" d="M380.1383,-162C402.4658,-162 433.6674,-162 459.168,-162"/>
<polygon fill="#191970" stroke="#191970" points="459.3455,-165.5001 469.3454,-162 459.3454,-158.5001 459.3455,-165.5001"/>
</g>
<!-- Node129368 -->
<g id="node18" class="node">
<title>Node129368</title>
<g id="a_node18"><a xlink:href="quickjs_8c.html#a344d6c0e45d9bf3861fd9269724045a2" target="_top" xlink:title="JS_ThrowOutOfMemory">
<polygon fill="none" stroke="#ff0000" points="443,-114.5 443,-133.5 565,-133.5 565,-114.5 443,-114.5"/>
<text text-anchor="middle" x="504" y="-121.5" font-family="Helvetica,sans-Serif" font-size="10.00" fill="#000000">JS_ThrowOutOfMemory</text>
</a>
</g>
</g>
<!-- Node129366&#45;&gt;Node129368 -->
<g id="edge19" class="edge">
<title>Node129366&#45;&gt;Node129368</title>
<path fill="none" stroke="#191970" d="M380.1383,-154.763C401.4751,-149.4637 430.9161,-142.1516 455.7413,-135.9858"/>
<polygon fill="#191970" stroke="#191970" points="456.8448,-139.3182 465.7062,-133.5109 455.1574,-132.5246 456.8448,-139.3182"/>
</g>
<!-- Node129372 -->
<g id="node21" class="node">
<title>Node129372</title>
<g id="a_node21"><a xlink:href="list_8h.html#a16286d5bff74a27aec51a3134ffc7b43" target="_top" xlink:title="__list_add">
<polygon fill="none" stroke="#000000" points="473.5,-76.5 473.5,-95.5 534.5,-95.5 534.5,-76.5 473.5,-76.5"/>
<text text-anchor="middle" x="504" y="-83.5" font-family="Helvetica,sans-Serif" font-size="10.00" fill="#000000">__list_add</text>
</a>
</g>
</g>
<!-- Node129371&#45;&gt;Node129372 -->
<g id="edge22" class="edge">
<title>Node129371&#45;&gt;Node129372</title>
<path fill="none" stroke="#191970" d="M385.3362,-86C408.4636,-86 439.0679,-86 463.4032,-86"/>
<polygon fill="#191970" stroke="#191970" points="463.4088,-89.5001 473.4088,-86 463.4087,-82.5001 463.4088,-89.5001"/>
</g>
</g>
</svg>
