<?xml version="1.0" encoding="UTF-8" standalone="no"?>
<!DOCTYPE svg PUBLIC "-//W3C//DTD SVG 1.1//EN"
 "http://www.w3.org/Graphics/SVG/1.1/DTD/svg11.dtd">
<!-- Generated by graphviz version 2.40.1 (20161225.0304)
 -->
<!-- Title: JS_GetGlobalVarRef Pages: 1 -->
<!--zoomable 446 -->
<svg id="main" version="1.1" xmlns="http://www.w3.org/2000/svg" xmlns:xlink="http://www.w3.org/1999/xlink" xml:space="preserve" onload="init(evt)">
<style type="text/css"><![CDATA[
.edge:hover path { stroke: red; }
.edge:hover polygon { stroke: red; fill: red; }
]]></style>
<script type="text/javascript"><![CDATA[
var edges = document.getElementsByTagName('g');
if (edges && edges.length) {
  for (var i=0;i<edges.length;i++) {
    if (edges[i].id.substr(0,4)=='edge') {
      edges[i].setAttribute('class','edge');
    }
  }
}
]]></script>
        <defs>
                <circle id="rim" cx="0" cy="0" r="7"/>
                <circle id="rim2" cx="0" cy="0" r="3.5"/>
                <g id="zoomPlus">
                        <use xlink:href="#rim" fill="#404040">
                                <set attributeName="fill" to="#808080" begin="zoomplus.mouseover" end="zoomplus.mouseout"/>
                        </use>
                        <path d="M-4,0h8M0,-4v8" fill="none" stroke="white" stroke-width="1.5" pointer-events="none"/>
                </g>
                <g id="zoomMin">
                        <use xlink:href="#rim" fill="#404040">
                                <set attributeName="fill" to="#808080" begin="zoomminus.mouseover" end="zoomminus.mouseout"/>
                        </use>
                        <path d="M-4,0h8" fill="none" stroke="white" stroke-width="1.5" pointer-events="none"/>
                </g>
                <g id="dirArrow">
                        <path fill="none" stroke="white" stroke-width="1.5" d="M0,-3.0v7 M-2.5,-0.5L0,-3.0L2.5,-0.5"/>
                </g>
               <g id="resetDef">
                       <use xlink:href="#rim2" fill="#404040">
                               <set attributeName="fill" to="#808080" begin="reset.mouseover" end="reset.mouseout"/>
                       </use>
               </g>
        </defs>

<script type="text/javascript">
var viewWidth = 1012;
var viewHeight = 446;
var sectionId = 'dynsection-638';
</script>
<script xlink:href="svgpan.js"/>
<svg id="graph" class="graph">
<g id="viewport">
<title>JS_GetGlobalVarRef</title>
<!-- Node218276 -->
<g id="node1" class="node">
<title>Node218276</title>
<polygon fill="#bfbfbf" stroke="#000000" points="0,-171.5 0,-190.5 108,-190.5 108,-171.5 0,-171.5"/>
<text text-anchor="middle" x="54" y="-178.5" font-family="Helvetica,sans-Serif" font-size="10.00" fill="#000000">JS_GetGlobalVarRef</text>
</g>
<!-- Node218277 -->
<g id="node2" class="node">
<title>Node218277</title>
<g id="a_node2"><a xlink:href="quickjs_8c.html#a06b76f5124fd985e35f4c652fd018d6d" target="_top" xlink:title="find_own_property">
<polygon fill="none" stroke="#000000" points="544,-266.5 544,-285.5 640,-285.5 640,-266.5 544,-266.5"/>
<text text-anchor="middle" x="592" y="-273.5" font-family="Helvetica,sans-Serif" font-size="10.00" fill="#000000">find_own_property</text>
</a>
</g>
</g>
<!-- Node218276&#45;&gt;Node218277 -->
<g id="edge1" class="edge">
<title>Node218276&#45;&gt;Node218277</title>
<path fill="none" stroke="#191970" d="M97.4176,-190.5325C112.1761,-193.675 128.7828,-197.1042 144,-200 283.4469,-226.5365 448.1926,-253.3157 533.7823,-266.8866"/>
<polygon fill="#191970" stroke="#191970" points="533.3965,-270.3691 543.8207,-268.4753 534.4907,-263.4551 533.3965,-270.3691"/>
</g>
<!-- Node218280 -->
<g id="node5" class="node">
<title>Node218280</title>
<g id="a_node5"><a xlink:href="quickjs_8c.html#afa67965c1017685fc6783776d6d0d4d7" target="_top" xlink:title="JS_AtomToValue">
<polygon fill="none" stroke="#000000" points="171,-342.5 171,-361.5 264,-361.5 264,-342.5 171,-342.5"/>
<text text-anchor="middle" x="217.5" y="-349.5" font-family="Helvetica,sans-Serif" font-size="10.00" fill="#000000">JS_AtomToValue</text>
</a>
</g>
</g>
<!-- Node218276&#45;&gt;Node218280 -->
<g id="edge4" class="edge">
<title>Node218276&#45;&gt;Node218280</title>
<path fill="none" stroke="#191970" d="M57.287,-190.8752C66.5477,-217.1903 95.3909,-289.6063 144,-328 149.3789,-332.2485 155.5362,-335.757 161.9475,-338.6517"/>
<polygon fill="#191970" stroke="#191970" points="160.8771,-341.9934 171.4613,-342.4683 163.4834,-335.4966 160.8771,-341.9934"/>
</g>
<!-- Node218284 -->
<g id="node9" class="node">
<title>Node218284</title>
<g id="a_node9"><a xlink:href="quickjs_8h.html#a775522f2d084fc8fa0fcb33f390006b4" target="_top" xlink:title="JS_DupValue">
<polygon fill="none" stroke="#000000" points="553.5,-304.5 553.5,-323.5 630.5,-323.5 630.5,-304.5 553.5,-304.5"/>
<text text-anchor="middle" x="592" y="-311.5" font-family="Helvetica,sans-Serif" font-size="10.00" fill="#000000">JS_DupValue</text>
</a>
</g>
</g>
<!-- Node218276&#45;&gt;Node218284 -->
<g id="edge10" class="edge">
<title>Node218276&#45;&gt;Node218284</title>
<path fill="none" stroke="#191970" d="M70.4219,-190.6105C88.0955,-200.6161 117.2748,-216.1723 144,-226 283.7946,-277.4068 459.7458,-300.7598 543.4514,-309.5456"/>
<polygon fill="#191970" stroke="#191970" points="543.1295,-313.0309 553.4345,-310.5699 543.844,-306.0675 543.1295,-313.0309"/>
</g>
<!-- Node218309 -->
<g id="node11" class="node">
<title>Node218309</title>
<g id="a_node11"><a xlink:href="quickjs_8c.html#a9d6d0a9704951d01c128975e0d2213f8" target="_top" xlink:title="JS_HasProperty">
<polygon fill="none" stroke="#000000" points="173,-171.5 173,-190.5 262,-190.5 262,-171.5 173,-171.5"/>
<text text-anchor="middle" x="217.5" y="-178.5" font-family="Helvetica,sans-Serif" font-size="10.00" fill="#000000">JS_HasProperty</text>
</a>
</g>
</g>
<!-- Node218276&#45;&gt;Node218309 -->
<g id="edge11" class="edge">
<title>Node218276&#45;&gt;Node218309</title>
<path fill="none" stroke="#191970" d="M108.4431,-181C125.9154,-181 145.2678,-181 162.7611,-181"/>
<polygon fill="#191970" stroke="#191970" points="162.8179,-184.5001 172.8178,-181 162.8178,-177.5001 162.8179,-184.5001"/>
</g>
<!-- Node218582 -->
<g id="node18" class="node">
<title>Node218582</title>
<g id="a_node18"><a xlink:href="quickjs_8h.html#aaab426b47c95d00479b7355b1cf7f56c" target="_top" xlink:title="JS_IsUninitialized">
<polygon fill="none" stroke="#000000" points="544.5,-114.5 544.5,-133.5 639.5,-133.5 639.5,-114.5 544.5,-114.5"/>
<text text-anchor="middle" x="592" y="-121.5" font-family="Helvetica,sans-Serif" font-size="10.00" fill="#000000">JS_IsUninitialized</text>
</a>
</g>
</g>
<!-- Node218276&#45;&gt;Node218582 -->
<g id="edge31" class="edge">
<title>Node218276&#45;&gt;Node218582</title>
<path fill="none" stroke="#191970" d="M94.1306,-171.4207C109.6351,-168.0115 127.5693,-164.4217 144,-162 283.3223,-141.4651 448.7791,-131.0006 534.3363,-126.6114"/>
<polygon fill="#191970" stroke="#191970" points="534.5557,-130.1049 544.3669,-126.106 534.2034,-123.1137 534.5557,-130.1049"/>
</g>
<!-- Node218583 -->
<g id="node19" class="node">
<title>Node218583</title>
<g id="a_node19"><a xlink:href="quickjs_8c.html#a75ac132a3af4de01e1fadeb0bede6ee7" target="_top" xlink:title="JS_ThrowReferenceErrorUninitialized">
<polygon fill="none" stroke="#ff0000" points="502,-38.5 502,-57.5 682,-57.5 682,-38.5 502,-38.5"/>
<text text-anchor="middle" x="592" y="-45.5" font-family="Helvetica,sans-Serif" font-size="10.00" fill="#000000">JS_ThrowReferenceErrorUninitialized</text>
</a>
</g>
</g>
<!-- Node218276&#45;&gt;Node218583 -->
<g id="edge32" class="edge">
<title>Node218276&#45;&gt;Node218583</title>
<path fill="none" stroke="#191970" d="M74.5873,-171.4442C92.7354,-163.1182 119.9556,-150.8666 144,-141 224.4156,-108.0016 242.2769,-91.4305 327,-72 380.603,-59.7066 441.6594,-53.6567 491.6451,-50.702"/>
<polygon fill="#191970" stroke="#191970" points="492.0231,-54.1865 501.8125,-50.1344 491.6329,-47.1973 492.0231,-54.1865"/>
</g>
<!-- Node218468 -->
<g id="node20" class="node">
<title>Node218468</title>
<g id="a_node20"><a xlink:href="quickjs_8c.html#adba489eac6c2332de312326782457940" target="_top" xlink:title="JS_ThrowTypeErrorReadOnly">
<polygon fill="none" stroke="#ff0000" points="144,-.5 144,-19.5 291,-19.5 291,-.5 144,-.5"/>
<text text-anchor="middle" x="217.5" y="-7.5" font-family="Helvetica,sans-Serif" font-size="10.00" fill="#000000">JS_ThrowTypeErrorReadOnly</text>
</a>
</g>
</g>
<!-- Node218276&#45;&gt;Node218468 -->
<g id="edge33" class="edge">
<title>Node218276&#45;&gt;Node218468</title>
<path fill="none" stroke="#191970" d="M57.287,-171.1248C66.5477,-144.8097 95.3909,-72.3937 144,-34 149.3789,-29.7515 155.5362,-26.243 161.9475,-23.3483"/>
<polygon fill="#191970" stroke="#191970" points="163.4834,-26.5034 171.4613,-19.5317 160.8771,-20.0066 163.4834,-26.5034"/>
</g>
<!-- Node218278 -->
<g id="node3" class="node">
<title>Node218278</title>
<g id="a_node3"><a xlink:href="quickjs_8c.html#a643df594b75933007bcdbb071b5ea8c5" target="_top" xlink:title="get_shape_prop">
<polygon fill="none" stroke="#000000" points="740.5,-266.5 740.5,-285.5 826.5,-285.5 826.5,-266.5 740.5,-266.5"/>
<text text-anchor="middle" x="783.5" y="-273.5" font-family="Helvetica,sans-Serif" font-size="10.00" fill="#000000">get_shape_prop</text>
</a>
</g>
</g>
<!-- Node218277&#45;&gt;Node218278 -->
<g id="edge2" class="edge">
<title>Node218277&#45;&gt;Node218278</title>
<path fill="none" stroke="#191970" d="M640.3235,-276C667.7573,-276 702.1401,-276 730.3357,-276"/>
<polygon fill="#191970" stroke="#191970" points="730.4193,-279.5001 740.4192,-276 730.4192,-272.5001 730.4193,-279.5001"/>
</g>
<!-- Node218279 -->
<g id="node4" class="node">
<title>Node218279</title>
<g id="a_node4"><a xlink:href="quickjs_8c.html#acab22c2945c4d609e57a2484feb68a96" target="_top" xlink:title="prop_hash_end">
<polygon fill="none" stroke="#000000" points="742,-304.5 742,-323.5 825,-323.5 825,-304.5 742,-304.5"/>
<text text-anchor="middle" x="783.5" y="-311.5" font-family="Helvetica,sans-Serif" font-size="10.00" fill="#000000">prop_hash_end</text>
</a>
</g>
</g>
<!-- Node218277&#45;&gt;Node218279 -->
<g id="edge3" class="edge">
<title>Node218277&#45;&gt;Node218279</title>
<path fill="none" stroke="#191970" d="M640.3235,-285.589C668.152,-291.1111 703.1309,-298.0521 731.5489,-303.6912"/>
<polygon fill="#191970" stroke="#191970" points="731.2064,-307.1914 741.6964,-305.7048 732.5689,-300.3252 731.2064,-307.1914"/>
</g>
<!-- Node218281 -->
<g id="node6" class="node">
<title>Node218281</title>
<g id="a_node6"><a xlink:href="quickjs_8c.html#a06ff303a11e6641cbf1f6634e6a61811" target="_top" xlink:title="__JS_AtomToValue">
<polygon fill="none" stroke="#000000" points="344.5,-342.5 344.5,-361.5 448.5,-361.5 448.5,-342.5 344.5,-342.5"/>
<text text-anchor="middle" x="396.5" y="-349.5" font-family="Helvetica,sans-Serif" font-size="10.00" fill="#000000">__JS_AtomToValue</text>
</a>
</g>
</g>
<!-- Node218280&#45;&gt;Node218281 -->
<g id="edge5" class="edge">
<title>Node218280&#45;&gt;Node218281</title>
<path fill="none" stroke="#191970" d="M264.0629,-352C285.5387,-352 311.3371,-352 334.4363,-352"/>
<polygon fill="#191970" stroke="#191970" points="334.491,-355.5001 344.491,-352 334.4909,-348.5001 334.491,-355.5001"/>
</g>
<!-- Node218282 -->
<g id="node7" class="node">
<title>Node218282</title>
<g id="a_node7"><a xlink:href="quickjs_8c.html#a288254c06a39c9fca740a7abdad2834e" target="_top" xlink:title="__JS_AtomIsTaggedInt">
<polygon fill="none" stroke="#000000" points="885,-190.5 885,-209.5 1004,-209.5 1004,-190.5 885,-190.5"/>
<text text-anchor="middle" x="944.5" y="-197.5" font-family="Helvetica,sans-Serif" font-size="10.00" fill="#000000">__JS_AtomIsTaggedInt</text>
</a>
</g>
</g>
<!-- Node218281&#45;&gt;Node218282 -->
<g id="edge6" class="edge">
<title>Node218281&#45;&gt;Node218282</title>
<path fill="none" stroke="#191970" d="M448.529,-357.0088C553.8852,-366.025 787.662,-379.9633 849,-333 891.1874,-300.6993 847.4898,-256.631 885,-219 886.4641,-217.5312 888.0415,-216.1758 889.7071,-214.9251"/>
<polygon fill="#191970" stroke="#191970" points="891.9159,-217.6792 898.6542,-209.5033 888.288,-211.6926 891.9159,-217.6792"/>
</g>
<!-- Node218283 -->
<g id="node8" class="node">
<title>Node218283</title>
<g id="a_node8"><a xlink:href="quickjs_8c.html#a89f38938cee8077ce1fbba07946ed185" target="_top" xlink:title="__JS_AtomToUInt32">
<polygon fill="none" stroke="#000000" points="890.5,-228.5 890.5,-247.5 998.5,-247.5 998.5,-228.5 890.5,-228.5"/>
<text text-anchor="middle" x="944.5" y="-235.5" font-family="Helvetica,sans-Serif" font-size="10.00" fill="#000000">__JS_AtomToUInt32</text>
</a>
</g>
</g>
<!-- Node218281&#45;&gt;Node218283 -->
<g id="edge7" class="edge">
<title>Node218281&#45;&gt;Node218283</title>
<path fill="none" stroke="#191970" d="M424.4392,-361.5295C498.4685,-385.0304 703.9237,-438.7654 849,-366 894.6688,-343.0941 924.0733,-286.8427 936.9655,-257.1196"/>
<polygon fill="#191970" stroke="#191970" points="940.2285,-258.388 940.8365,-247.8106 933.7651,-255.7002 940.2285,-258.388"/>
</g>
<!-- Node218281&#45;&gt;Node218284 -->
<g id="edge8" class="edge">
<title>Node218281&#45;&gt;Node218284</title>
<path fill="none" stroke="#191970" d="M445.5806,-342.46C475.428,-336.6585 513.4035,-329.2771 543.1999,-323.4854"/>
<polygon fill="#191970" stroke="#191970" points="544.2229,-326.8522 553.3714,-321.5084 542.8873,-319.9808 544.2229,-326.8522"/>
</g>
<!-- Node218285 -->
<g id="node10" class="node">
<title>Node218285</title>
<g id="a_node10"><a xlink:href="quickjs_8c.html#a0ee6a3654a6016393fac5e1c108f403a" target="_top" xlink:title="JS_NewString">
<polygon fill="none" stroke="#ff0000" points="552,-418.5 552,-437.5 632,-437.5 632,-418.5 552,-418.5"/>
<text text-anchor="middle" x="592" y="-425.5" font-family="Helvetica,sans-Serif" font-size="10.00" fill="#000000">JS_NewString</text>
</a>
</g>
</g>
<!-- Node218281&#45;&gt;Node218285 -->
<g id="edge9" class="edge">
<title>Node218281&#45;&gt;Node218285</title>
<path fill="none" stroke="#191970" d="M413.2164,-361.5302C433.6424,-372.8687 469.5024,-391.7948 502,-404 514.6667,-408.7573 528.6677,-412.9686 541.7777,-416.4827"/>
<polygon fill="#191970" stroke="#191970" points="541.0338,-419.9055 551.5925,-419.0315 542.7933,-413.1303 541.0338,-419.9055"/>
</g>
<!-- Node218309&#45;&gt;Node218284 -->
<g id="edge21" class="edge">
<title>Node218309&#45;&gt;Node218284</title>
<path fill="none" stroke="#191970" d="M237.7663,-190.543C283.8018,-211.9019 400.1641,-264.1017 502,-295 515.1516,-298.9904 529.6322,-302.4451 543.0618,-305.2734"/>
<polygon fill="#191970" stroke="#191970" points="542.5903,-308.749 553.0873,-307.3125 543.9856,-301.8895 542.5903,-308.749"/>
</g>
<!-- Node218310 -->
<g id="node12" class="node">
<title>Node218310</title>
<g id="a_node12"><a xlink:href="quickjs_8c.html#add3eea1f6d626963ade3c28a1fd563d1" target="_top" xlink:title="JS_AtomIsNumericIndex">
<polygon fill="none" stroke="#000000" points="529,-152.5 529,-171.5 655,-171.5 655,-152.5 529,-152.5"/>
<text text-anchor="middle" x="592" y="-159.5" font-family="Helvetica,sans-Serif" font-size="10.00" fill="#000000">JS_AtomIsNumericIndex</text>
</a>
</g>
</g>
<!-- Node218309&#45;&gt;Node218310 -->
<g id="edge12" class="edge">
<title>Node218309&#45;&gt;Node218310</title>
<path fill="none" stroke="#191970" d="M262.3015,-178.727C325.7545,-175.5078 442.5409,-169.5827 518.7168,-165.718"/>
<polygon fill="#191970" stroke="#191970" points="518.9134,-169.2126 528.7232,-165.2103 518.5586,-162.2216 518.9134,-169.2126"/>
</g>
<!-- Node218314 -->
<g id="node14" class="node">
<title>Node218314</title>
<g id="a_node14"><a xlink:href="quickjs_8h.html#afaa20c47565bc704c6c85f3d77254e7d" target="_top" xlink:title="JS_FreeValue">
<polygon fill="none" stroke="#ff0000" points="905.5,-38.5 905.5,-57.5 983.5,-57.5 983.5,-38.5 905.5,-38.5"/>
<text text-anchor="middle" x="944.5" y="-45.5" font-family="Helvetica,sans-Serif" font-size="10.00" fill="#000000">JS_FreeValue</text>
</a>
</g>
</g>
<!-- Node218309&#45;&gt;Node218314 -->
<g id="edge22" class="edge">
<title>Node218309&#45;&gt;Node218314</title>
<path fill="none" stroke="#191970" d="M251.0753,-171.412C304.1431,-156.3977 410.7555,-126.8025 502,-105 581.5246,-85.9979 606.9327,-99.4057 682,-67 699.8844,-59.2795 699.4106,-47.8216 718,-42 776.9292,-23.5452 848.7562,-29.9799 895.5042,-37.7186"/>
<polygon fill="#191970" stroke="#191970" points="894.9229,-41.1699 905.3745,-39.4338 896.1214,-34.2733 894.9229,-41.1699"/>
</g>
<!-- Node218581 -->
<g id="node17" class="node">
<title>Node218581</title>
<g id="a_node17"><a xlink:href="quickjs_8c.html#ad13892c0a0f11781b566808876658099" target="_top" xlink:title="JS_GetOwnPropertyInternal">
<polygon fill="none" stroke="#ff0000" points="327,-190.5 327,-209.5 466,-209.5 466,-190.5 327,-190.5"/>
<text text-anchor="middle" x="396.5" y="-197.5" font-family="Helvetica,sans-Serif" font-size="10.00" fill="#000000">JS_GetOwnPropertyInternal</text>
</a>
</g>
</g>
<!-- Node218309&#45;&gt;Node218581 -->
<g id="edge23" class="edge">
<title>Node218309&#45;&gt;Node218581</title>
<path fill="none" stroke="#191970" d="M262.2075,-185.7455C278.7973,-187.5064 298.1534,-189.561 316.9205,-191.553"/>
<polygon fill="#191970" stroke="#191970" points="316.649,-195.0438 326.9626,-192.6189 317.388,-188.0829 316.649,-195.0438"/>
</g>
<!-- Node218311 -->
<g id="node13" class="node">
<title>Node218311</title>
<g id="a_node13"><a xlink:href="quickjs_8c.html#ab4e100a9cde5f7ec87c92f5e766dbbab" target="_top" xlink:title="JS_AtomIsNumericIndex1">
<polygon fill="none" stroke="#ff0000" points="718,-114.5 718,-133.5 849,-133.5 849,-114.5 718,-114.5"/>
<text text-anchor="middle" x="783.5" y="-121.5" font-family="Helvetica,sans-Serif" font-size="10.00" fill="#000000">JS_AtomIsNumericIndex1</text>
</a>
</g>
</g>
<!-- Node218310&#45;&gt;Node218311 -->
<g id="edge13" class="edge">
<title>Node218310&#45;&gt;Node218311</title>
<path fill="none" stroke="#191970" d="M640.3235,-152.411C666.1632,-147.2835 698.1678,-140.9328 725.3606,-135.5368"/>
<polygon fill="#191970" stroke="#191970" points="726.3965,-138.8996 735.524,-133.5201 725.0339,-132.0334 726.3965,-138.8996"/>
</g>
<!-- Node218310&#45;&gt;Node218314 -->
<g id="edge18" class="edge">
<title>Node218310&#45;&gt;Node218314</title>
<path fill="none" stroke="#191970" d="M655.2972,-155.5636C664.805,-152.6921 674.0673,-148.6538 682,-143 707.3245,-124.9506 692.191,-100.3496 718,-83 770.8718,-47.4579 846.2076,-42.6834 895.2261,-44.0933"/>
<polygon fill="#191970" stroke="#191970" points="895.142,-47.5925 905.2691,-44.4791 895.4108,-40.5977 895.142,-47.5925"/>
</g>
<!-- Node218348 -->
<g id="node15" class="node">
<title>Node218348</title>
<g id="a_node15"><a xlink:href="quickjs_8h.html#ad80a83d73e9b7d872b88fbf2943aebe9" target="_top" xlink:title="JS_IsException">
<polygon fill="none" stroke="#000000" points="901.5,-95.5 901.5,-114.5 987.5,-114.5 987.5,-95.5 901.5,-95.5"/>
<text text-anchor="middle" x="944.5" y="-102.5" font-family="Helvetica,sans-Serif" font-size="10.00" fill="#000000">JS_IsException</text>
</a>
</g>
</g>
<!-- Node218310&#45;&gt;Node218348 -->
<g id="edge19" class="edge">
<title>Node218310&#45;&gt;Node218348</title>
<path fill="none" stroke="#191970" d="M655.2558,-153.7372C664.5656,-151.0912 673.7781,-147.6015 682,-143 702.3012,-131.638 696.6287,-114.1925 718,-105 773.8651,-80.9706 844.8939,-85.9741 892.3774,-93.7018"/>
<polygon fill="#191970" stroke="#191970" points="891.9847,-97.1856 902.4341,-95.4364 893.1746,-90.2875 891.9847,-97.1856"/>
</g>
<!-- Node218478 -->
<g id="node16" class="node">
<title>Node218478</title>
<g id="a_node16"><a xlink:href="quickjs_8h.html#a4e407128a9605afb77523e49e9a627fd" target="_top" xlink:title="JS_IsUndefined">
<polygon fill="none" stroke="#000000" points="740.5,-152.5 740.5,-171.5 826.5,-171.5 826.5,-152.5 740.5,-152.5"/>
<text text-anchor="middle" x="783.5" y="-159.5" font-family="Helvetica,sans-Serif" font-size="10.00" fill="#000000">JS_IsUndefined</text>
</a>
</g>
</g>
<!-- Node218310&#45;&gt;Node218478 -->
<g id="edge20" class="edge">
<title>Node218310&#45;&gt;Node218478</title>
<path fill="none" stroke="#191970" d="M655.235,-162C679.5297,-162 706.9934,-162 730.2569,-162"/>
<polygon fill="#191970" stroke="#191970" points="730.2849,-165.5001 740.2849,-162 730.2848,-158.5001 730.2849,-165.5001"/>
</g>
<!-- Node218311&#45;&gt;Node218282 -->
<g id="edge14" class="edge">
<title>Node218311&#45;&gt;Node218282</title>
<path fill="none" stroke="#191970" d="M822.5248,-133.5444C831.3824,-136.1964 840.6394,-139.3641 849,-143 875.4769,-154.5145 903.6058,-172.0249 922.4235,-184.5982"/>
<polygon fill="#191970" stroke="#191970" points="920.6251,-187.6075 930.8653,-190.326 924.5554,-181.815 920.6251,-187.6075"/>
</g>
<!-- Node218311&#45;&gt;Node218283 -->
<g id="edge15" class="edge">
<title>Node218311&#45;&gt;Node218283</title>
<path fill="none" stroke="#191970" d="M833.3925,-133.5069C839.0371,-135.976 844.4024,-139.0851 849,-143 877.4566,-167.2313 856.8702,-194.39 885,-219 886.9281,-220.6868 889.0071,-222.2242 891.1926,-223.6252"/>
<polygon fill="#191970" stroke="#191970" points="889.5907,-226.7376 900.0572,-228.3813 892.9002,-220.5693 889.5907,-226.7376"/>
</g>
<!-- Node218311&#45;&gt;Node218314 -->
<g id="edge16" class="edge">
<title>Node218311&#45;&gt;Node218314</title>
<path fill="none" stroke="#191970" d="M803.8908,-114.3745C831.9565,-101.1261 882.6696,-77.187 914.9083,-61.9687"/>
<polygon fill="#191970" stroke="#191970" points="916.7258,-64.9812 924.2748,-57.5473 913.7376,-58.6511 916.7258,-64.9812"/>
</g>
<!-- Node218311&#45;&gt;Node218348 -->
<g id="edge17" class="edge">
<title>Node218311&#45;&gt;Node218348</title>
<path fill="none" stroke="#191970" d="M849.4494,-116.2172C863.428,-114.5675 878.0121,-112.8464 891.4393,-111.2618"/>
<polygon fill="#191970" stroke="#191970" points="891.9316,-114.7281 901.4525,-110.0801 891.1112,-107.7763 891.9316,-114.7281"/>
</g>
<!-- Node218581&#45;&gt;Node218277 -->
<g id="edge26" class="edge">
<title>Node218581&#45;&gt;Node218277</title>
<path fill="none" stroke="#191970" d="M431.3848,-209.562C442.76,-213.3245 455.2267,-218.1596 466,-224 483.8197,-233.6604 483.8446,-242.9863 502,-252 511.9805,-256.9551 523.1087,-260.9815 534.0436,-264.2201"/>
<polygon fill="#191970" stroke="#191970" points="533.4216,-267.6796 543.9931,-266.977 535.2908,-260.9338 533.4216,-267.6796"/>
</g>
<!-- Node218581&#45;&gt;Node218282 -->
<g id="edge24" class="edge">
<title>Node218581&#45;&gt;Node218282</title>
<path fill="none" stroke="#191970" d="M466.1827,-200C571.3601,-200 769.527,-200 874.7463,-200"/>
<polygon fill="#191970" stroke="#191970" points="874.9415,-203.5001 884.9415,-200 874.9415,-196.5001 874.9415,-203.5001"/>
</g>
<!-- Node218581&#45;&gt;Node218283 -->
<g id="edge25" class="edge">
<title>Node218581&#45;&gt;Node218283</title>
<path fill="none" stroke="#191970" d="M462.2557,-209.5289C475.3992,-211.2068 489.1224,-212.7982 502,-214 636.1554,-226.5203 793.8479,-233.1422 880.0891,-236.0764"/>
<polygon fill="#191970" stroke="#191970" points="880.1343,-239.5798 890.2457,-236.4161 880.3683,-232.5837 880.1343,-239.5798"/>
</g>
<!-- Node218581&#45;&gt;Node218284 -->
<g id="edge28" class="edge">
<title>Node218581&#45;&gt;Node218284</title>
<path fill="none" stroke="#191970" d="M407.375,-209.6201C421.0896,-221.7707 445.3722,-243.3462 466,-262 482.0988,-276.5582 482.6978,-285.0734 502,-295 514.6848,-301.5235 529.4742,-305.8077 543.3554,-308.6212"/>
<polygon fill="#191970" stroke="#191970" points="542.7949,-312.0766 553.2595,-310.4209 544.0464,-305.1894 542.7949,-312.0766"/>
</g>
<!-- Node218581&#45;&gt;Node218310 -->
<g id="edge27" class="edge">
<title>Node218581&#45;&gt;Node218310</title>
<path fill="none" stroke="#191970" d="M445.5806,-190.46C472.0741,-185.3104 504.9717,-178.916 532.8688,-173.4935"/>
<polygon fill="#191970" stroke="#191970" points="533.7508,-176.8877 542.8992,-171.5439 532.4151,-170.0163 533.7508,-176.8877"/>
</g>
<!-- Node218581&#45;&gt;Node218582 -->
<g id="edge29" class="edge">
<title>Node218581&#45;&gt;Node218582</title>
<path fill="none" stroke="#191970" d="M410.8916,-190.4778C430.6364,-177.8305 467.6026,-155.6225 502,-143 512.2155,-139.2513 523.3692,-136.1521 534.2379,-133.6222"/>
<polygon fill="#191970" stroke="#191970" points="535.0871,-137.0192 544.1041,-131.4566 533.5863,-130.182 535.0871,-137.0192"/>
</g>
<!-- Node218581&#45;&gt;Node218583 -->
<g id="edge30" class="edge">
<title>Node218581&#45;&gt;Node218583</title>
<path fill="none" stroke="#191970" d="M406.1957,-190.2382C424.2245,-172.3275 464.4896,-133.446 502,-105 522.6753,-89.3209 547.7198,-73.7077 566.1349,-62.7973"/>
<polygon fill="#191970" stroke="#191970" points="567.989,-65.7675 574.8479,-57.6924 564.4504,-59.7278 567.989,-65.7675"/>
</g>
</g>
</svg>
        <g id="navigator" transform="translate(0 0)" fill="#404254">
                <rect fill="#f2f5e9" fill-opacity="0.5" stroke="#606060" stroke-width=".5" x="0" y="0" width="60" height="60"/>
                <use id="zoomplus" xlink:href="#zoomPlus" x="17" y="9" onmousedown="handleZoom(evt,'in')"/>
                <use id="zoomminus" xlink:href="#zoomMin" x="42" y="9" onmousedown="handleZoom(evt,'out')"/>
                <use id="reset" xlink:href="#resetDef" x="30" y="36" onmousedown="handleReset()"/>
                <g id="arrowUp" xlink:href="#dirArrow" transform="translate(30 24)" onmousedown="handlePan(0,-1)">
                  <use xlink:href="#rim" fill="#404040">
                        <set attributeName="fill" to="#808080" begin="arrowUp.mouseover" end="arrowUp.mouseout"/>
                  </use>
                  <path fill="none" stroke="white" stroke-width="1.5" d="M0,-3.0v7 M-2.5,-0.5L0,-3.0L2.5,-0.5"/>
                </g>
                <g id="arrowRight" xlink:href="#dirArrow" transform="rotate(90) translate(36 -43)" onmousedown="handlePan(1,0)">
                  <use xlink:href="#rim" fill="#404040">
                        <set attributeName="fill" to="#808080" begin="arrowRight.mouseover" end="arrowRight.mouseout"/>
                  </use>
                  <path fill="none" stroke="white" stroke-width="1.5" d="M0,-3.0v7 M-2.5,-0.5L0,-3.0L2.5,-0.5"/>
                </g>
                <g id="arrowDown" xlink:href="#dirArrow" transform="rotate(180) translate(-30 -48)" onmousedown="handlePan(0,1)">
                  <use xlink:href="#rim" fill="#404040">
                        <set attributeName="fill" to="#808080" begin="arrowDown.mouseover" end="arrowDown.mouseout"/>
                  </use>
                  <path fill="none" stroke="white" stroke-width="1.5" d="M0,-3.0v7 M-2.5,-0.5L0,-3.0L2.5,-0.5"/>
                </g>
                <g id="arrowLeft" xlink:href="#dirArrow" transform="rotate(270) translate(-36 17)" onmousedown="handlePan(-1,0)">
                  <use xlink:href="#rim" fill="#404040">
                        <set attributeName="fill" to="#808080" begin="arrowLeft.mouseover" end="arrowLeft.mouseout"/>
                  </use>
                  <path fill="none" stroke="white" stroke-width="1.5" d="M0,-3.0v7 M-2.5,-0.5L0,-3.0L2.5,-0.5"/>
                </g>
        </g>
        <svg viewBox="0 0 15 15" width="100%" height="30px" preserveAspectRatio="xMaxYMin meet">
         <g id="arrow_out" transform="scale(0.3 0.3)">
          <a xlink:href="quickjs_8c_a541a07ee8f5d72f230f97472ec9e42dd_cgraph_org.svg" target="_base">
           <rect id="button" ry="5" rx="5" y="6" x="6" height="38" width="38"
                fill="#f2f5e9" fill-opacity="0.5" stroke="#606060" stroke-width="1.0"/>
           <path id="arrow"
             d="M 11.500037,31.436501 C 11.940474,20.09759 22.043105,11.32322 32.158766,21.979434 L 37.068811,17.246167 C 37.068811,17.246167 37.088388,32 37.088388,32 L 22.160133,31.978069 C 22.160133,31.978069 26.997745,27.140456 26.997745,27.140456 C 18.528582,18.264221 13.291696,25.230495 11.500037,31.436501 z"
             style="fill:#404040;"/>
          </a>
         </g>
        </svg>
</svg>
