<?xml version="1.0" encoding="UTF-8" standalone="no"?>
<!DOCTYPE svg PUBLIC "-//W3C//DTD SVG 1.1//EN"
 "http://www.w3.org/Graphics/SVG/1.1/DTD/svg11.dtd">
<!-- Generated by graphviz version 2.40.1 (20161225.0304)
 -->
<!-- Title: JS_NewAtom Pages: 1 -->
<svg width="618pt" height="656pt"
 viewBox="0.00 0.00 618.00 656.43" xmlns="http://www.w3.org/2000/svg" xmlns:xlink="http://www.w3.org/1999/xlink">
<g id="graph0" class="graph" transform="scale(1 1) rotate(0) translate(4 652.4309)">
<title>JS_NewAtom</title>
<!-- Node18957 -->
<g id="node1" class="node">
<title>Node18957</title>
<polygon fill="#bfbfbf" stroke="#000000" points="0,-364.5 0,-383.5 77,-383.5 77,-364.5 0,-364.5"/>
<text text-anchor="middle" x="38.5" y="-371.5" font-family="Helvetica,sans-Serif" font-size="10.00" fill="#000000">JS_NewAtom</text>
</g>
<!-- Node18958 -->
<g id="node2" class="node">
<title>Node18958</title>
<g id="a_node2"><a xlink:href="quickjs_8c.html#a46a8a7e155cfd0af984f6725f060f0d6" target="_top" xlink:title="__JS_EvalInternal">
<polygon fill="none" stroke="#000000" points="311,-614.5 311,-633.5 407,-633.5 407,-614.5 311,-614.5"/>
<text text-anchor="middle" x="359" y="-621.5" font-family="Helvetica,sans-Serif" font-size="10.00" fill="#000000">__JS_EvalInternal</text>
</a>
</g>
</g>
<!-- Node18957&#45;&gt;Node18958 -->
<g id="edge1" class="edge">
<title>Node18957&#45;&gt;Node18958</title>
<path fill="none" stroke="#191970" d="M41.5551,-393.6786C50.1896,-446.491 76.5344,-589.2281 113,-617 176.2222,-665.1495 277.4363,-647.027 328.0608,-633.5162"/>
<polygon fill="#191970" stroke="#191970" points="44.9767,-392.9095 39.9435,-383.5866 38.0643,-394.0135 44.9767,-392.9095"/>
</g>
<!-- Node18964 -->
<g id="node4" class="node">
<title>Node18964</title>
<g id="a_node4"><a xlink:href="classqjs_1_1Value.html#a7816587475ecf667433f9ea681df925b" target="_top" xlink:title="qjs::Value::add_getter">
<polygon fill="none" stroke="#000000" points="125.5,-588.5 125.5,-607.5 237.5,-607.5 237.5,-588.5 125.5,-588.5"/>
<text text-anchor="middle" x="181.5" y="-595.5" font-family="Helvetica,sans-Serif" font-size="10.00" fill="#000000">qjs::Value::add_getter</text>
</a>
</g>
</g>
<!-- Node18957&#45;&gt;Node18964 -->
<g id="edge3" class="edge">
<title>Node18957&#45;&gt;Node18964</title>
<path fill="none" stroke="#191970" d="M39.8484,-393.872C43.7097,-434.7107 58.3661,-528.4699 113,-579 117.1677,-582.8547 122.0494,-585.9376 127.2538,-588.4015"/>
<polygon fill="#191970" stroke="#191970" points="43.331,-393.5153 39.0214,-383.8366 36.3546,-394.0903 43.331,-393.5153"/>
</g>
<!-- Node18965 -->
<g id="node5" class="node">
<title>Node18965</title>
<g id="a_node5"><a xlink:href="classqjs_1_1Value.html#ac6bbb5f2ab1ed265b2b508325807e2fb" target="_top" xlink:title="qjs::Value::add_getter\l_setter">
<polygon fill="none" stroke="#000000" points="125.5,-539 125.5,-569 237.5,-569 237.5,-539 125.5,-539"/>
<text text-anchor="start" x="133.5" y="-557" font-family="Helvetica,sans-Serif" font-size="10.00" fill="#000000">qjs::Value::add_getter</text>
<text text-anchor="middle" x="181.5" y="-546" font-family="Helvetica,sans-Serif" font-size="10.00" fill="#000000">_setter</text>
</a>
</g>
</g>
<!-- Node18957&#45;&gt;Node18965 -->
<g id="edge4" class="edge">
<title>Node18957&#45;&gt;Node18965</title>
<path fill="none" stroke="#191970" d="M42.8091,-393.5614C50.9578,-426.1118 71.6421,-491.5126 113,-529 117.2209,-532.8259 122.0745,-536.0793 127.2079,-538.8431"/>
<polygon fill="#191970" stroke="#191970" points="46.1417,-392.4449 40.4362,-383.5175 39.3292,-394.0544 46.1417,-392.4449"/>
</g>
<!-- Node18966 -->
<g id="node6" class="node">
<title>Node18966</title>
<g id="a_node6"><a xlink:href="quickjs_8c.html#ae8e62d181b34d2e7bdda0b099c0880f5" target="_top" xlink:title="find_atom">
<polygon fill="none" stroke="#000000" points="152,-386.5 152,-405.5 211,-405.5 211,-386.5 152,-386.5"/>
<text text-anchor="middle" x="181.5" y="-393.5" font-family="Helvetica,sans-Serif" font-size="10.00" fill="#000000">find_atom</text>
</a>
</g>
</g>
<!-- Node18957&#45;&gt;Node18966 -->
<g id="edge5" class="edge">
<title>Node18957&#45;&gt;Node18966</title>
<path fill="none" stroke="#191970" d="M87.1355,-381.4824C108.6139,-384.7868 133.169,-388.5645 151.8459,-391.4378"/>
<polygon fill="#191970" stroke="#191970" points="87.6138,-378.0149 77.1979,-379.9535 86.5493,-384.9335 87.6138,-378.0149"/>
</g>
<!-- Node18985 -->
<g id="node10" class="node">
<title>Node18985</title>
<g id="a_node10"><a xlink:href="quickjs_8c.html#a369af749a1fb181216fe8a8b55f841b0" target="_top" xlink:title="JS_AddModuleExport">
<polygon fill="none" stroke="#000000" points="126,-424.5 126,-443.5 237,-443.5 237,-424.5 126,-424.5"/>
<text text-anchor="middle" x="181.5" y="-431.5" font-family="Helvetica,sans-Serif" font-size="10.00" fill="#000000">JS_AddModuleExport</text>
</a>
</g>
</g>
<!-- Node18957&#45;&gt;Node18985 -->
<g id="edge9" class="edge">
<title>Node18957&#45;&gt;Node18985</title>
<path fill="none" stroke="#191970" d="M62.0891,-388.8346C76.4058,-397.3627 95.2793,-407.7813 113,-415 121.915,-418.6316 131.7565,-421.814 141.1324,-424.4839"/>
<polygon fill="#191970" stroke="#191970" points="63.761,-385.7552 53.3969,-383.5561 60.1276,-391.7384 63.761,-385.7552"/>
</g>
<!-- Node18988 -->
<g id="node15" class="node">
<title>Node18988</title>
<g id="a_node15"><a xlink:href="quickjs_8c.html#a841f4cb887e4d9e03e94a0697255e578" target="_top" xlink:title="JS_DefinePropertyValueStr">
<polygon fill="none" stroke="#000000" points="113,-222.5 113,-241.5 250,-241.5 250,-222.5 113,-222.5"/>
<text text-anchor="middle" x="181.5" y="-229.5" font-family="Helvetica,sans-Serif" font-size="10.00" fill="#000000">JS_DefinePropertyValueStr</text>
</a>
</g>
</g>
<!-- Node18957&#45;&gt;Node18988 -->
<g id="edge16" class="edge">
<title>Node18957&#45;&gt;Node18988</title>
<path fill="none" stroke="#191970" d="M44.9621,-354.7318C55.0967,-327.4867 77.3385,-278.0194 113,-251 118.1151,-247.1245 123.9785,-244.0394 130.0752,-241.5837"/>
<polygon fill="#191970" stroke="#191970" points="41.6117,-353.7077 41.5632,-364.3024 48.2081,-356.0504 41.6117,-353.7077"/>
</g>
<!-- Node19009 -->
<g id="node22" class="node">
<title>Node19009</title>
<g id="a_node22"><a xlink:href="quickjs_8c.html#a04f589361a4fbc30d997402e92a50de2" target="_top" xlink:title="JS_GetPropertyStr">
<polygon fill="none" stroke="#ff0000" points="132,-184.5 132,-203.5 231,-203.5 231,-184.5 132,-184.5"/>
<text text-anchor="middle" x="181.5" y="-191.5" font-family="Helvetica,sans-Serif" font-size="10.00" fill="#000000">JS_GetPropertyStr</text>
</a>
</g>
</g>
<!-- Node18957&#45;&gt;Node19009 -->
<g id="edge26" class="edge">
<title>Node18957&#45;&gt;Node19009</title>
<path fill="none" stroke="#191970" d="M42.0574,-354.2536C49.2351,-320.2338 68.7056,-250.6116 113,-213 118.4563,-208.3669 124.9564,-204.8579 131.7471,-202.2015"/>
<polygon fill="#191970" stroke="#191970" points="38.5716,-353.8408 40.0763,-364.3282 45.4401,-355.1914 38.5716,-353.8408"/>
</g>
<!-- Node19023 -->
<g id="node24" class="node">
<title>Node19023</title>
<g id="a_node24"><a xlink:href="quickjs_8c.html#a90dd988b99a5bc7b2a4aaffd2de405a9" target="_top" xlink:title="js_host_resolve_imported\l_module">
<polygon fill="none" stroke="#ff0000" points="117.5,-337 117.5,-367 245.5,-367 245.5,-337 117.5,-337"/>
<text text-anchor="start" x="125.5" y="-355" font-family="Helvetica,sans-Serif" font-size="10.00" fill="#000000">js_host_resolve_imported</text>
<text text-anchor="middle" x="181.5" y="-344" font-family="Helvetica,sans-Serif" font-size="10.00" fill="#000000">_module</text>
</a>
</g>
</g>
<!-- Node18957&#45;&gt;Node19023 -->
<g id="edge29" class="edge">
<title>Node18957&#45;&gt;Node19023</title>
<path fill="none" stroke="#191970" d="M87.0944,-366.5239C96.8456,-365.0238 107.2324,-363.4258 117.4162,-361.859"/>
<polygon fill="#191970" stroke="#191970" points="86.5493,-363.0665 77.1979,-368.0465 87.6138,-369.9851 86.5493,-363.0665"/>
</g>
<!-- Node19572 -->
<g id="node25" class="node">
<title>Node19572</title>
<g id="a_node25"><a xlink:href="quickjs_8c.html#a8020fd59ed57f7f299216ec1ebfcda01" target="_top" xlink:title="js_new_function_def">
<polygon fill="none" stroke="#ff0000" points="128.5,-500.5 128.5,-519.5 234.5,-519.5 234.5,-500.5 128.5,-500.5"/>
<text text-anchor="middle" x="181.5" y="-507.5" font-family="Helvetica,sans-Serif" font-size="10.00" fill="#000000">js_new_function_def</text>
</a>
</g>
</g>
<!-- Node18957&#45;&gt;Node19572 -->
<g id="edge30" class="edge">
<title>Node18957&#45;&gt;Node19572</title>
<path fill="none" stroke="#191970" d="M46.462,-393.0129C57.7619,-417.7975 80.7247,-460.9297 113,-486 121.0608,-492.2614 130.8784,-496.9632 140.534,-500.4655"/>
<polygon fill="#191970" stroke="#191970" points="49.5636,-391.3708 42.34,-383.6203 43.1537,-394.1839 49.5636,-391.3708"/>
</g>
<!-- Node19576 -->
<g id="node26" class="node">
<title>Node19576</title>
<g id="a_node26"><a xlink:href="quickjs_8c.html#a27c3a725d4014a35b5bedcdf6e70dec7" target="_top" xlink:title="JS_NewAtomString">
<polygon fill="none" stroke="#ff0000" points="130,-260.5 130,-279.5 233,-279.5 233,-260.5 130,-260.5"/>
<text text-anchor="middle" x="181.5" y="-267.5" font-family="Helvetica,sans-Serif" font-size="10.00" fill="#000000">JS_NewAtomString</text>
</a>
</g>
</g>
<!-- Node18957&#45;&gt;Node19576 -->
<g id="edge32" class="edge">
<title>Node18957&#45;&gt;Node19576</title>
<path fill="none" stroke="#191970" d="M51.1115,-356.015C64.5672,-338.0322 87.4331,-310.7138 113,-294 122.2817,-287.9323 133.2764,-283.2002 143.7098,-279.6025"/>
<polygon fill="#191970" stroke="#191970" points="48.0193,-354.3162 44.9684,-364.4623 53.6806,-358.4333 48.0193,-354.3162"/>
</g>
<!-- Node19250 -->
<g id="node27" class="node">
<title>Node19250</title>
<g id="a_node27"><a xlink:href="quickjs_8c.html#a21cfe4c4fc9372dc0b95b37667cff0c9" target="_top" xlink:title="JS_NewCFunction3">
<polygon fill="none" stroke="#ff0000" points="307,-304.5 307,-323.5 411,-323.5 411,-304.5 307,-304.5"/>
<text text-anchor="middle" x="359" y="-311.5" font-family="Helvetica,sans-Serif" font-size="10.00" fill="#000000">JS_NewCFunction3</text>
</a>
</g>
</g>
<!-- Node18957&#45;&gt;Node19250 -->
<g id="edge33" class="edge">
<title>Node18957&#45;&gt;Node19250</title>
<path fill="none" stroke="#191970" d="M58.2924,-357.962C72.5778,-347.3846 92.8278,-334.3507 113,-328 177.4689,-307.7037 256.0655,-307.1277 306.7933,-309.6611"/>
<polygon fill="#191970" stroke="#191970" points="56.0291,-355.2869 50.2224,-364.1488 60.2881,-360.8422 56.0291,-355.2869"/>
</g>
<!-- Node19577 -->
<g id="node28" class="node">
<title>Node19577</title>
<g id="a_node28"><a xlink:href="quickjs_8c.html#ac29cc4ec49efa0f0308e494316ce5139" target="_top" xlink:title="JS_NewCModule">
<polygon fill="none" stroke="#ff0000" points="312.5,-570.5 312.5,-589.5 405.5,-589.5 405.5,-570.5 312.5,-570.5"/>
<text text-anchor="middle" x="359" y="-577.5" font-family="Helvetica,sans-Serif" font-size="10.00" fill="#000000">JS_NewCModule</text>
</a>
</g>
</g>
<!-- Node18957&#45;&gt;Node19577 -->
<g id="edge35" class="edge">
<title>Node18957&#45;&gt;Node19577</title>
<path fill="none" stroke="#191970" d="M50.9395,-392.1062C64.2583,-410.1395 87.0172,-437.3318 113,-453 167.1108,-485.63 199.9913,-452.3759 250,-491 275.2181,-510.4771 261.6188,-532.485 286,-553 295.2021,-560.7429 306.8291,-566.3654 318.0825,-570.406"/>
<polygon fill="#191970" stroke="#191970" points="53.5333,-389.7165 44.868,-383.6204 47.8404,-393.7897 53.5333,-389.7165"/>
</g>
<!-- Node19579 -->
<g id="node29" class="node">
<title>Node19579</title>
<g id="a_node29"><a xlink:href="quickjs_8c.html#acc3990661d2851b858601061a62cc7d6" target="_top" xlink:title="JS_SetModuleExport">
<polygon fill="none" stroke="#ff0000" points="127,-146.5 127,-165.5 236,-165.5 236,-146.5 127,-146.5"/>
<text text-anchor="middle" x="181.5" y="-153.5" font-family="Helvetica,sans-Serif" font-size="10.00" fill="#000000">JS_SetModuleExport</text>
</a>
</g>
</g>
<!-- Node18957&#45;&gt;Node19579 -->
<g id="edge38" class="edge">
<title>Node18957&#45;&gt;Node19579</title>
<path fill="none" stroke="#191970" d="M40.0656,-354.4413C44.3204,-314.6389 59.6536,-223.8641 113,-175 117.1863,-171.1655 122.0798,-168.0955 127.2913,-165.6391"/>
<polygon fill="#191970" stroke="#191970" points="36.5767,-354.1593 39.1201,-364.4443 43.5457,-354.8181 36.5767,-354.1593"/>
</g>
<!-- Node19147 -->
<g id="node30" class="node">
<title>Node19147</title>
<g id="a_node30"><a xlink:href="quickjs_8c.html#a62617fe11025d2e5a545db069fc28e64" target="_top" xlink:title="JS_SetPropertyStr">
<polygon fill="none" stroke="#ff0000" points="132.5,-108.5 132.5,-127.5 230.5,-127.5 230.5,-108.5 132.5,-108.5"/>
<text text-anchor="middle" x="181.5" y="-115.5" font-family="Helvetica,sans-Serif" font-size="10.00" fill="#000000">JS_SetPropertyStr</text>
</a>
</g>
</g>
<!-- Node18957&#45;&gt;Node19147 -->
<g id="edge39" class="edge">
<title>Node18957&#45;&gt;Node19147</title>
<path fill="none" stroke="#191970" d="M42.2034,-354.234C52.173,-303.0341 80.997,-167.9331 113,-137 118.413,-131.768 125.1356,-127.9506 132.2364,-125.1707"/>
<polygon fill="#191970" stroke="#191970" points="38.7134,-353.8501 40.2717,-364.3297 45.5887,-355.1657 38.7134,-353.8501"/>
</g>
<!-- Node18959 -->
<g id="node3" class="node">
<title>Node18959</title>
<g id="a_node3"><a xlink:href="quickjs_8c.html#acbcccb7ec58fd4a024ea1d01e5d04561" target="_top" xlink:title="JS_AddIntrinsicEval">
<polygon fill="none" stroke="#ff0000" points="486.5,-614.5 486.5,-633.5 591.5,-633.5 591.5,-614.5 486.5,-614.5"/>
<text text-anchor="middle" x="539" y="-621.5" font-family="Helvetica,sans-Serif" font-size="10.00" fill="#000000">JS_AddIntrinsicEval</text>
</a>
</g>
</g>
<!-- Node18958&#45;&gt;Node18959 -->
<g id="edge2" class="edge">
<title>Node18958&#45;&gt;Node18959</title>
<path fill="none" stroke="#191970" d="M417.5005,-624C439.6163,-624 464.6362,-624 486.1989,-624"/>
<polygon fill="#191970" stroke="#191970" points="417.2367,-620.5001 407.2367,-624 417.2367,-627.5001 417.2367,-620.5001"/>
</g>
<!-- Node18967 -->
<g id="node7" class="node">
<title>Node18967</title>
<g id="a_node7"><a xlink:href="quickjs_8c.html#ac00854b7f1f0f8567af964a2f8f2adb0" target="_top" xlink:title="JS_SetPropertyFunctionList">
<polygon fill="none" stroke="#ff0000" points="289.5,-380.5 289.5,-399.5 428.5,-399.5 428.5,-380.5 289.5,-380.5"/>
<text text-anchor="middle" x="359" y="-387.5" font-family="Helvetica,sans-Serif" font-size="10.00" fill="#000000">JS_SetPropertyFunctionList</text>
</a>
</g>
</g>
<!-- Node18966&#45;&gt;Node18967 -->
<g id="edge6" class="edge">
<title>Node18966&#45;&gt;Node18967</title>
<path fill="none" stroke="#191970" d="M221.2168,-394.6575C241.2696,-393.9796 266.1898,-393.1372 289.3011,-392.356"/>
<polygon fill="#191970" stroke="#191970" points="221.0855,-391.1598 211.2095,-394.9957 221.3221,-398.1558 221.0855,-391.1598"/>
</g>
<!-- Node18970 -->
<g id="node8" class="node">
<title>Node18970</title>
<g id="a_node8"><a xlink:href="quickjs_8c.html#a4c9489297c684663f30e517204a9ec14" target="_top" xlink:title="JS_AddIntrinsicBaseObjects">
<polygon fill="none" stroke="#ff0000" points="468,-285.5 468,-304.5 610,-304.5 610,-285.5 468,-285.5"/>
<text text-anchor="middle" x="539" y="-292.5" font-family="Helvetica,sans-Serif" font-size="10.00" fill="#000000">JS_AddIntrinsicBaseObjects</text>
</a>
</g>
</g>
<!-- Node18967&#45;&gt;Node18970 -->
<g id="edge7" class="edge">
<title>Node18967&#45;&gt;Node18970</title>
<path fill="none" stroke="#191970" d="M386.5277,-375.4715C423.8252,-355.7867 489.3741,-321.1914 520.9694,-304.5162"/>
<polygon fill="#191970" stroke="#191970" points="384.4601,-372.6051 377.2499,-380.3681 387.7275,-378.7958 384.4601,-372.6051"/>
</g>
<!-- Node18977 -->
<g id="node9" class="node">
<title>Node18977</title>
<g id="a_node9"><a xlink:href="quickjs_8c.html#a3afdbdd7b58ef7e1dcc178c362071b3d" target="_top" xlink:title="JS_AddIntrinsicProxy">
<polygon fill="none" stroke="#ff0000" points="483.5,-361.5 483.5,-380.5 594.5,-380.5 594.5,-361.5 483.5,-361.5"/>
<text text-anchor="middle" x="539" y="-368.5" font-family="Helvetica,sans-Serif" font-size="10.00" fill="#000000">JS_AddIntrinsicProxy</text>
</a>
</g>
</g>
<!-- Node18967&#45;&gt;Node18977 -->
<g id="edge8" class="edge">
<title>Node18967&#45;&gt;Node18977</title>
<path fill="none" stroke="#191970" d="M438.8782,-381.5684C453.8523,-379.9878 469.205,-378.3672 483.2498,-376.8847"/>
<polygon fill="#191970" stroke="#191970" points="438.17,-378.1236 428.5927,-382.6541 438.9049,-385.085 438.17,-378.1236"/>
</g>
<!-- Node18986 -->
<g id="node11" class="node">
<title>Node18986</title>
<g id="a_node11"><a xlink:href="classqjs_1_1Context_1_1Module.html#aa51896e065a04689c9dbe80a282805bb" target="_top" xlink:title="qjs::Context::Module::add">
<polygon fill="none" stroke="#000000" points="294.5,-494.5 294.5,-513.5 423.5,-513.5 423.5,-494.5 294.5,-494.5"/>
<text text-anchor="middle" x="359" y="-501.5" font-family="Helvetica,sans-Serif" font-size="10.00" fill="#000000">qjs::Context::Module::add</text>
</a>
</g>
</g>
<!-- Node18985&#45;&gt;Node18986 -->
<g id="edge10" class="edge">
<title>Node18985&#45;&gt;Node18986</title>
<path fill="none" stroke="#191970" d="M224.9394,-446.9564C233.4526,-450.1203 242.1652,-453.8185 250,-458 267.6443,-467.4169 267.9829,-476.3176 286,-485 293.9043,-488.8091 302.6714,-491.9258 311.3084,-494.4516"/>
<polygon fill="#191970" stroke="#191970" points="226.0646,-443.6419 215.4698,-443.6138 223.7345,-450.2428 226.0646,-443.6419"/>
</g>
<!-- Node18987 -->
<g id="node12" class="node">
<title>Node18987</title>
<g id="a_node12"><a xlink:href="quickjs_8c.html#ac7a9b88dd7ca1a70cd0ecd9a28905e25" target="_top" xlink:title="JS_AddModuleExportList">
<polygon fill="none" stroke="#000000" points="295.5,-456.5 295.5,-475.5 422.5,-475.5 422.5,-456.5 295.5,-456.5"/>
<text text-anchor="middle" x="359" y="-463.5" font-family="Helvetica,sans-Serif" font-size="10.00" fill="#000000">JS_AddModuleExportList</text>
</a>
</g>
</g>
<!-- Node18985&#45;&gt;Node18987 -->
<g id="edge11" class="edge">
<title>Node18985&#45;&gt;Node18987</title>
<path fill="none" stroke="#191970" d="M244.3258,-445.3263C264.5323,-448.9692 286.7042,-452.9664 306.1216,-456.467"/>
<polygon fill="#191970" stroke="#191970" points="244.7376,-441.8442 234.2753,-443.5144 243.4956,-448.7332 244.7376,-441.8442"/>
</g>
<!-- Node18981 -->
<g id="node13" class="node">
<title>Node18981</title>
<g id="a_node13"><a xlink:href="quickjs-libc_8c.html#adcca2b4a661355e6ff87a0def2339894" target="_top" xlink:title="js_init_module_os">
<polygon fill="none" stroke="#ff0000" points="491.5,-532.5 491.5,-551.5 586.5,-551.5 586.5,-532.5 491.5,-532.5"/>
<text text-anchor="middle" x="539" y="-539.5" font-family="Helvetica,sans-Serif" font-size="10.00" fill="#000000">js_init_module_os</text>
</a>
</g>
</g>
<!-- Node18985&#45;&gt;Node18981 -->
<g id="edge14" class="edge">
<title>Node18985&#45;&gt;Node18981</title>
<path fill="none" stroke="#191970" d="M233.643,-447.627C239.52,-450.4723 245.134,-453.893 250,-458 275.2366,-479.2998 258.1969,-505.1798 286,-523 348.1155,-562.8125 437.2575,-558.6606 491.4673,-551.0319"/>
<polygon fill="#191970" stroke="#191970" points="234.8316,-444.3286 224.2609,-443.6133 232.0783,-450.7645 234.8316,-444.3286"/>
</g>
<!-- Node18984 -->
<g id="node14" class="node">
<title>Node18984</title>
<g id="a_node14"><a xlink:href="quickjs-libc_8c.html#a0e65c67dfff872a664f8d29e7eae5a61" target="_top" xlink:title="js_init_module_std">
<polygon fill="none" stroke="#ff0000" points="490,-456.5 490,-475.5 588,-475.5 588,-456.5 490,-456.5"/>
<text text-anchor="middle" x="539" y="-463.5" font-family="Helvetica,sans-Serif" font-size="10.00" fill="#000000">js_init_module_std</text>
</a>
</g>
</g>
<!-- Node18985&#45;&gt;Node18984 -->
<g id="edge15" class="edge">
<title>Node18985&#45;&gt;Node18984</title>
<path fill="none" stroke="#191970" d="M247.5337,-435.1966C298.1508,-436.6529 369.6642,-439.8758 432,-447 451.9634,-449.2816 473.835,-452.9531 492.5721,-456.4633"/>
<polygon fill="#191970" stroke="#191970" points="247.4712,-431.6937 237.3796,-434.9201 247.2805,-438.6911 247.4712,-431.6937"/>
</g>
<!-- Node18987&#45;&gt;Node18981 -->
<g id="edge12" class="edge">
<title>Node18987&#45;&gt;Node18981</title>
<path fill="none" stroke="#191970" d="M412.2061,-478.2817C418.9466,-480.2937 425.6885,-482.5371 432,-485 466.1176,-498.3134 503.2879,-519.8615 523.5997,-532.2998"/>
<polygon fill="#191970" stroke="#191970" points="412.9571,-474.8568 402.3818,-475.5007 411.0505,-481.5921 412.9571,-474.8568"/>
</g>
<!-- Node18987&#45;&gt;Node18984 -->
<g id="edge13" class="edge">
<title>Node18987&#45;&gt;Node18984</title>
<path fill="none" stroke="#191970" d="M432.9303,-466C452.0972,-466 472.2691,-466 489.8151,-466"/>
<polygon fill="#191970" stroke="#191970" points="432.7146,-462.5001 422.7146,-466 432.7145,-469.5001 432.7146,-462.5001"/>
</g>
<!-- Node18988&#45;&gt;Node18970 -->
<g id="edge18" class="edge">
<title>Node18988&#45;&gt;Node18970</title>
<path fill="none" stroke="#191970" d="M227.8073,-243.9804C245.8882,-248.421 266.8414,-253.2766 286,-257 347.0407,-268.863 416.9835,-279.1156 467.836,-285.9712"/>
<polygon fill="#191970" stroke="#191970" points="228.6364,-240.5801 218.0875,-241.566 226.9488,-247.3736 228.6364,-240.5801"/>
</g>
<!-- Node18988&#45;&gt;Node18977 -->
<g id="edge19" class="edge">
<title>Node18988&#45;&gt;Node18977</title>
<path fill="none" stroke="#191970" d="M243.7406,-246.3477C245.9426,-247.7568 248.0411,-249.3031 250,-251 280.0845,-277.06 254.389,-308.8144 286,-333 316.0726,-356.0085 418.3125,-365.2249 483.2511,-368.8146"/>
<polygon fill="#191970" stroke="#191970" points="245.2786,-243.2011 234.8108,-241.5652 241.9737,-249.3718 245.2786,-243.2011"/>
</g>
<!-- Node18989 -->
<g id="node16" class="node">
<title>Node18989</title>
<g id="a_node16"><a xlink:href="quickjs-libc_8c.html#a9fa4c190ba56314c7ed9b00bbc7ad0f9" target="_top" xlink:title="handle_posted_message">
<polygon fill="none" stroke="#000000" points="296.5,-190.5 296.5,-209.5 421.5,-209.5 421.5,-190.5 296.5,-190.5"/>
<text text-anchor="middle" x="359" y="-197.5" font-family="Helvetica,sans-Serif" font-size="10.00" fill="#000000">handle_posted_message</text>
</a>
</g>
</g>
<!-- Node18988&#45;&gt;Node18989 -->
<g id="edge17" class="edge">
<title>Node18988&#45;&gt;Node18989</title>
<path fill="none" stroke="#191970" d="M244.3258,-220.6737C264.5323,-217.0308 286.7042,-213.0336 306.1216,-209.533"/>
<polygon fill="#191970" stroke="#191970" points="243.4956,-217.2668 234.2753,-222.4856 244.7376,-224.1558 243.4956,-217.2668"/>
</g>
<!-- Node18990 -->
<g id="node17" class="node">
<title>Node18990</title>
<g id="a_node17"><a xlink:href="quickjs-libc_8c.html#a5cc3e22713f1916d49867f60a7375505" target="_top" xlink:title="js_module_set_import_meta">
<polygon fill="none" stroke="#ff0000" points="289.5,-152.5 289.5,-171.5 428.5,-171.5 428.5,-152.5 289.5,-152.5"/>
<text text-anchor="middle" x="359" y="-159.5" font-family="Helvetica,sans-Serif" font-size="10.00" fill="#000000">js_module_set_import_meta</text>
</a>
</g>
</g>
<!-- Node18988&#45;&gt;Node18990 -->
<g id="edge20" class="edge">
<title>Node18988&#45;&gt;Node18990</title>
<path fill="none" stroke="#191970" d="M236.7482,-219.0933C241.3382,-217.3004 245.8169,-215.2777 250,-213 268.8009,-202.763 267.118,-191.0868 286,-181 293.1616,-177.1743 301.1361,-174.0872 309.1097,-171.6053"/>
<polygon fill="#191970" stroke="#191970" points="235.4905,-215.8256 227.229,-222.4588 237.8238,-222.4253 235.4905,-215.8256"/>
</g>
<!-- Node18995 -->
<g id="node18" class="node">
<title>Node18995</title>
<g id="a_node18"><a xlink:href="quickjs_8c.html#acd5457d29e9641ae5e3a1d778f94bd0e" target="_top" xlink:title="JS_NewGlobalCConstructor2">
<polygon fill="none" stroke="#ff0000" points="286,-228.5 286,-247.5 432,-247.5 432,-228.5 286,-228.5"/>
<text text-anchor="middle" x="359" y="-235.5" font-family="Helvetica,sans-Serif" font-size="10.00" fill="#000000">JS_NewGlobalCConstructor2</text>
</a>
</g>
</g>
<!-- Node18988&#45;&gt;Node18995 -->
<g id="edge21" class="edge">
<title>Node18988&#45;&gt;Node18995</title>
<path fill="none" stroke="#191970" d="M260.3805,-234.6664C268.854,-234.9528 277.4489,-235.2433 285.8513,-235.5274"/>
<polygon fill="#191970" stroke="#191970" points="260.2387,-231.1597 250.1261,-234.3198 260.0022,-238.1557 260.2387,-231.1597"/>
</g>
<!-- Node18998 -->
<g id="node19" class="node">
<title>Node18998</title>
<g id="a_node19"><a xlink:href="quickjs-libc_8c.html#a0142166ddf6e134f89207c3ee3c7572c" target="_top" xlink:title="js_os_stat">
<polygon fill="none" stroke="#000000" points="328,-76.5 328,-95.5 390,-95.5 390,-76.5 328,-76.5"/>
<text text-anchor="middle" x="359" y="-83.5" font-family="Helvetica,sans-Serif" font-size="10.00" fill="#000000">js_os_stat</text>
</a>
</g>
</g>
<!-- Node18988&#45;&gt;Node18998 -->
<g id="edge23" class="edge">
<title>Node18988&#45;&gt;Node18998</title>
<path fill="none" stroke="#191970" d="M244.6183,-217.3528C246.5139,-216.0239 248.3165,-214.5764 250,-213 285.3972,-179.8543 251.3925,-143.9695 286,-110 297.1394,-99.066 313.3447,-93.1133 327.6587,-89.8725"/>
<polygon fill="#191970" stroke="#191970" points="242.7005,-214.4187 235.7943,-222.4533 246.2036,-220.4791 242.7005,-214.4187"/>
</g>
<!-- Node18999 -->
<g id="node20" class="node">
<title>Node18999</title>
<g id="a_node20"><a xlink:href="quickjs_8c.html#a9eb2d90f27f684820f9de13189502b7c" target="_top" xlink:title="js_regexp_exec">
<polygon fill="none" stroke="#ff0000" points="316.5,-38.5 316.5,-57.5 401.5,-57.5 401.5,-38.5 316.5,-38.5"/>
<text text-anchor="middle" x="359" y="-45.5" font-family="Helvetica,sans-Serif" font-size="10.00" fill="#000000">js_regexp_exec</text>
</a>
</g>
</g>
<!-- Node18988&#45;&gt;Node18999 -->
<g id="edge24" class="edge">
<title>Node18988&#45;&gt;Node18999</title>
<path fill="none" stroke="#191970" d="M245.9554,-216.6676C247.376,-215.529 248.7288,-214.3084 250,-213 296.5718,-165.0664 239.0475,-114.5608 286,-67 294.0963,-58.7988 305.2524,-53.9908 316.408,-51.2123"/>
<polygon fill="#191970" stroke="#191970" points="243.6781,-213.9715 237.1712,-222.3328 247.4721,-219.8542 243.6781,-213.9715"/>
</g>
<!-- Node19008 -->
<g id="node21" class="node">
<title>Node19008</title>
<g id="a_node21"><a xlink:href="quickjs-libc_8c.html#a7aebce2172c6aa4a6645aef600a69e6b" target="_top" xlink:title="js_std_urlGet">
<polygon fill="none" stroke="#000000" points="502,-57.5 502,-76.5 576,-76.5 576,-57.5 502,-57.5"/>
<text text-anchor="middle" x="539" y="-64.5" font-family="Helvetica,sans-Serif" font-size="10.00" fill="#000000">js_std_urlGet</text>
</a>
</g>
</g>
<!-- Node18988&#45;&gt;Node19008 -->
<g id="edge25" class="edge">
<title>Node18988&#45;&gt;Node19008</title>
<path fill="none" stroke="#191970" d="M242.8285,-217.9693C245.3499,-216.4768 247.7567,-214.8259 250,-213 277.1328,-190.9158 258.692,-164.8672 286,-143 338.3384,-101.0894 367.9032,-124.6826 432,-105 460.4554,-96.262 492.5693,-84.6114 514.1257,-76.5241"/>
<polygon fill="#191970" stroke="#191970" points="241.2523,-214.8443 233.8848,-222.4581 244.3923,-221.1005 241.2523,-214.8443"/>
</g>
<!-- Node18995&#45;&gt;Node18970 -->
<g id="edge22" class="edge">
<title>Node18995&#45;&gt;Node18970</title>
<path fill="none" stroke="#191970" d="M398.9656,-250.6558C432.1463,-261.163 478.6263,-275.8816 508.7738,-285.4284"/>
<polygon fill="#191970" stroke="#191970" points="399.718,-247.2228 389.128,-247.5405 397.6047,-253.8962 399.718,-247.2228"/>
</g>
<!-- Node19010 -->
<g id="node23" class="node">
<title>Node19010</title>
<g id="a_node23"><a xlink:href="quickjs-libc_8c.html#ad94572b16428965bd7780a285c188c77" target="_top" xlink:title="get_bool_option">
<polygon fill="none" stroke="#ff0000" points="316.5,-.5 316.5,-19.5 401.5,-19.5 401.5,-.5 316.5,-.5"/>
<text text-anchor="middle" x="359" y="-7.5" font-family="Helvetica,sans-Serif" font-size="10.00" fill="#000000">get_bool_option</text>
</a>
</g>
</g>
<!-- Node19009&#45;&gt;Node19010 -->
<g id="edge27" class="edge">
<title>Node19009&#45;&gt;Node19010</title>
<path fill="none" stroke="#191970" d="M240.3038,-182.584C243.8467,-180.4587 247.1311,-177.9528 250,-175 296.5718,-127.0664 239.0475,-76.5608 286,-29 294.0963,-20.7988 305.2524,-15.9908 316.408,-13.2123"/>
<polygon fill="#191970" stroke="#191970" points="238.4911,-179.5747 231.0542,-187.1207 241.5737,-185.8594 238.4911,-179.5747"/>
</g>
<!-- Node19010&#45;&gt;Node19008 -->
<g id="edge28" class="edge">
<title>Node19010&#45;&gt;Node19008</title>
<path fill="none" stroke="#191970" d="M407.9146,-22.1059C415.994,-24.2844 424.2569,-26.6223 432,-29 460.4554,-37.738 492.5693,-49.3886 514.1257,-57.4759"/>
<polygon fill="#191970" stroke="#191970" points="408.7602,-18.7093 398.1977,-19.5357 406.9702,-25.4765 408.7602,-18.7093"/>
</g>
<!-- Node19572&#45;&gt;Node18958 -->
<g id="edge31" class="edge">
<title>Node19572&#45;&gt;Node18958</title>
<path fill="none" stroke="#191970" d="M241.2206,-524.0323C244.3284,-525.7917 247.2836,-527.7717 250,-530 276.7433,-551.9373 259.7669,-576.4552 286,-599 293.9246,-605.8105 303.7971,-610.7917 313.6948,-614.4261"/>
<polygon fill="#191970" stroke="#191970" points="242.6563,-520.8389 232.1301,-519.635 239.6081,-527.1403 242.6563,-520.8389"/>
</g>
<!-- Node19250&#45;&gt;Node18970 -->
<g id="edge34" class="edge">
<title>Node19250&#45;&gt;Node18970</title>
<path fill="none" stroke="#191970" d="M421.2812,-307.4259C436.3391,-305.8364 452.5442,-304.1259 467.9703,-302.4976"/>
<polygon fill="#191970" stroke="#191970" points="420.6408,-303.9739 411.0635,-308.5044 421.3756,-310.9353 420.6408,-303.9739"/>
</g>
<!-- Node19577&#45;&gt;Node18981 -->
<g id="edge36" class="edge">
<title>Node19577&#45;&gt;Node18981</title>
<path fill="none" stroke="#191970" d="M414.331,-568.319C439.8574,-562.9301 469.7761,-556.6139 493.905,-551.5201"/>
<polygon fill="#191970" stroke="#191970" points="413.483,-564.9208 404.4216,-570.411 414.9289,-571.7699 413.483,-564.9208"/>
</g>
<!-- Node19577&#45;&gt;Node18984 -->
<g id="edge37" class="edge">
<title>Node19577&#45;&gt;Node18984</title>
<path fill="none" stroke="#191970" d="M382.8134,-564.9182C420.4384,-541.089 492.5709,-495.4051 523.8791,-475.5766"/>
<polygon fill="#191970" stroke="#191970" points="380.6126,-562.1691 374.0371,-570.4765 384.358,-568.0828 380.6126,-562.1691"/>
</g>
</g>
</svg>
