<?xml version="1.0" encoding="UTF-8" standalone="no"?>
<!DOCTYPE svg PUBLIC "-//W3C//DTD SVG 1.1//EN"
 "http://www.w3.org/Graphics/SVG/1.1/DTD/svg11.dtd">
<!-- Generated by graphviz version 2.40.1 (20161225.0304)
 -->
<!-- Title: JS_NewObjectProtoClass Pages: 1 -->
<!--zoomable 438 -->
<svg id="main" version="1.1" xmlns="http://www.w3.org/2000/svg" xmlns:xlink="http://www.w3.org/1999/xlink" xml:space="preserve" onload="init(evt)">
<style type="text/css"><![CDATA[
.edge:hover path { stroke: red; }
.edge:hover polygon { stroke: red; fill: red; }
]]></style>
<script type="text/javascript"><![CDATA[
var edges = document.getElementsByTagName('g');
if (edges && edges.length) {
  for (var i=0;i<edges.length;i++) {
    if (edges[i].id.substr(0,4)=='edge') {
      edges[i].setAttribute('class','edge');
    }
  }
}
]]></script>
        <defs>
                <circle id="rim" cx="0" cy="0" r="7"/>
                <circle id="rim2" cx="0" cy="0" r="3.5"/>
                <g id="zoomPlus">
                        <use xlink:href="#rim" fill="#404040">
                                <set attributeName="fill" to="#808080" begin="zoomplus.mouseover" end="zoomplus.mouseout"/>
                        </use>
                        <path d="M-4,0h8M0,-4v8" fill="none" stroke="white" stroke-width="1.5" pointer-events="none"/>
                </g>
                <g id="zoomMin">
                        <use xlink:href="#rim" fill="#404040">
                                <set attributeName="fill" to="#808080" begin="zoomminus.mouseover" end="zoomminus.mouseout"/>
                        </use>
                        <path d="M-4,0h8" fill="none" stroke="white" stroke-width="1.5" pointer-events="none"/>
                </g>
                <g id="dirArrow">
                        <path fill="none" stroke="white" stroke-width="1.5" d="M0,-3.0v7 M-2.5,-0.5L0,-3.0L2.5,-0.5"/>
                </g>
               <g id="resetDef">
                       <use xlink:href="#rim2" fill="#404040">
                               <set attributeName="fill" to="#808080" begin="reset.mouseover" end="reset.mouseout"/>
                       </use>
               </g>
        </defs>

<script type="text/javascript">
var viewWidth = 869;
var viewHeight = 438;
var sectionId = 'dynsection-400';
</script>
<script xlink:href="svgpan.js"/>
<svg id="graph" class="graph">
<g id="viewport">
<title>JS_NewObjectProtoClass</title>
<!-- Node132622 -->
<g id="node1" class="node">
<title>Node132622</title>
<polygon fill="#bfbfbf" stroke="#000000" points="0,-206.8859 0,-225.8859 131,-225.8859 131,-206.8859 0,-206.8859"/>
<text text-anchor="middle" x="65.5" y="-213.8859" font-family="Helvetica,sans-Serif" font-size="10.00" fill="#000000">JS_NewObjectProtoClass</text>
</g>
<!-- Node132623 -->
<g id="node2" class="node">
<title>Node132623</title>
<g id="a_node2"><a xlink:href="quickjs_8c.html#aad24bdf2bcbb0ce55462fe6074dac8a5" target="_top" xlink:title="find_hashed_shape_proto">
<polygon fill="none" stroke="#000000" points="448,-396.8859 448,-415.8859 576,-415.8859 576,-396.8859 448,-396.8859"/>
<text text-anchor="middle" x="512" y="-403.8859" font-family="Helvetica,sans-Serif" font-size="10.00" fill="#000000">find_hashed_shape_proto</text>
</a>
</g>
</g>
<!-- Node132622&#45;&gt;Node132623 -->
<g id="edge1" class="edge">
<title>Node132622&#45;&gt;Node132623</title>
<path fill="none" stroke="#191970" d="M76.6934,-225.9299C94.7088,-240.9072 131.7001,-270.1044 167,-288.3859 266.5183,-339.9254 393.3929,-376.6145 462.1888,-394.3435"/>
<polygon fill="#191970" stroke="#191970" points="461.3527,-397.7422 471.9074,-396.8212 463.082,-390.9592 461.3527,-397.7422"/>
</g>
<!-- Node132627 -->
<g id="node6" class="node">
<title>Node132627</title>
<g id="a_node6"><a xlink:href="quickjs_8c.html#aab0be018b8f7bdcff45226f502c3f820" target="_top" xlink:title="get_proto_obj">
<polygon fill="none" stroke="#000000" points="196,-111.8859 196,-130.8859 271,-130.8859 271,-111.8859 196,-111.8859"/>
<text text-anchor="middle" x="233.5" y="-118.8859" font-family="Helvetica,sans-Serif" font-size="10.00" fill="#000000">get_proto_obj</text>
</a>
</g>
</g>
<!-- Node132622&#45;&gt;Node132627 -->
<g id="edge5" class="edge">
<title>Node132622&#45;&gt;Node132627</title>
<path fill="none" stroke="#191970" d="M75.609,-206.7856C92.9618,-190.8 130.1224,-158.6801 167,-140.3859 172.9983,-137.4102 179.5389,-134.8294 186.1009,-132.6125"/>
<polygon fill="#191970" stroke="#191970" points="187.1693,-135.9457 195.6696,-129.6215 185.0808,-129.2645 187.1693,-135.9457"/>
</g>
<!-- Node132628 -->
<g id="node7" class="node">
<title>Node132628</title>
<g id="a_node7"><a xlink:href="quickjs_8c.html#aed229eb80b3b03a2275471dee93c69d6" target="_top" xlink:title="js_dup_shape">
<polygon fill="none" stroke="#000000" points="473.5,-358.8859 473.5,-377.8859 550.5,-377.8859 550.5,-358.8859 473.5,-358.8859"/>
<text text-anchor="middle" x="512" y="-365.8859" font-family="Helvetica,sans-Serif" font-size="10.00" fill="#000000">js_dup_shape</text>
</a>
</g>
</g>
<!-- Node132622&#45;&gt;Node132628 -->
<g id="edge6" class="edge">
<title>Node132622&#45;&gt;Node132628</title>
<path fill="none" stroke="#191970" d="M93.4306,-225.8941C170.6403,-252.1783 387.0226,-325.8403 474.5497,-355.6368"/>
<polygon fill="#191970" stroke="#191970" points="473.4855,-358.9717 484.08,-358.8812 475.7414,-352.3452 473.4855,-358.9717"/>
</g>
<!-- Node132629 -->
<g id="node8" class="node">
<title>Node132629</title>
<g id="a_node8"><a xlink:href="quickjs_8c.html#ad6926e49955be5e10423f6df8d8cff3e" target="_top" xlink:title="js_new_shape">
<polygon fill="none" stroke="#000000" points="194,-206.8859 194,-225.8859 273,-225.8859 273,-206.8859 194,-206.8859"/>
<text text-anchor="middle" x="233.5" y="-213.8859" font-family="Helvetica,sans-Serif" font-size="10.00" fill="#000000">js_new_shape</text>
</a>
</g>
</g>
<!-- Node132622&#45;&gt;Node132629 -->
<g id="edge7" class="edge">
<title>Node132622&#45;&gt;Node132629</title>
<path fill="none" stroke="#191970" d="M131.4159,-216.3859C148.7597,-216.3859 167.1834,-216.3859 183.5359,-216.3859"/>
<polygon fill="#191970" stroke="#191970" points="183.9506,-219.8859 193.9506,-216.3859 183.9505,-212.8859 183.9506,-219.8859"/>
</g>
<!-- Node132645 -->
<g id="node18" class="node">
<title>Node132645</title>
<g id="a_node18"><a xlink:href="quickjs_8c.html#a030c2e98b1775a7e3bdd13be1400b1fe" target="_top" xlink:title="JS_NewObjectFromShape">
<polygon fill="none" stroke="#000000" points="167,-149.8859 167,-168.8859 300,-168.8859 300,-149.8859 167,-149.8859"/>
<text text-anchor="middle" x="233.5" y="-156.8859" font-family="Helvetica,sans-Serif" font-size="10.00" fill="#000000">JS_NewObjectFromShape</text>
</a>
</g>
</g>
<!-- Node132622&#45;&gt;Node132645 -->
<g id="edge20" class="edge">
<title>Node132622&#45;&gt;Node132645</title>
<path fill="none" stroke="#191970" d="M93.6194,-206.8453C121.6028,-197.351 164.7285,-182.7191 195.6962,-172.2121"/>
<polygon fill="#191970" stroke="#191970" points="196.9436,-175.485 205.2888,-168.9575 194.6945,-168.8561 196.9436,-175.485"/>
</g>
<!-- Node132624 -->
<g id="node3" class="node">
<title>Node132624</title>
<g id="a_node3"><a xlink:href="quickjs_8c.html#a8291bf195606b5d1b0faed795b6dc3ff" target="_top" xlink:title="get_shape_hash">
<polygon fill="none" stroke="#000000" points="773,-396.8859 773,-415.8859 861,-415.8859 861,-396.8859 773,-396.8859"/>
<text text-anchor="middle" x="817" y="-403.8859" font-family="Helvetica,sans-Serif" font-size="10.00" fill="#000000">get_shape_hash</text>
</a>
</g>
</g>
<!-- Node132623&#45;&gt;Node132624 -->
<g id="edge2" class="edge">
<title>Node132623&#45;&gt;Node132624</title>
<path fill="none" stroke="#191970" d="M552.6217,-415.8967C570.6911,-419.6618 592.2949,-423.5305 612,-425.3859 667.3109,-430.5938 681.8216,-431.8484 737,-425.3859 749.406,-423.9328 762.6774,-421.2534 774.7732,-418.3557"/>
<polygon fill="#191970" stroke="#191970" points="775.7618,-421.7163 784.6124,-415.8924 774.0617,-414.9259 775.7618,-421.7163"/>
</g>
<!-- Node132625 -->
<g id="node4" class="node">
<title>Node132625</title>
<g id="a_node4"><a xlink:href="quickjs_8c.html#afeaafcef811076df11d1552bcc7f6a2a" target="_top" xlink:title="shape_initial_hash">
<polygon fill="none" stroke="#000000" points="626,-358.8859 626,-377.8859 723,-377.8859 723,-358.8859 626,-358.8859"/>
<text text-anchor="middle" x="674.5" y="-365.8859" font-family="Helvetica,sans-Serif" font-size="10.00" fill="#000000">shape_initial_hash</text>
</a>
</g>
</g>
<!-- Node132623&#45;&gt;Node132625 -->
<g id="edge3" class="edge">
<title>Node132623&#45;&gt;Node132625</title>
<path fill="none" stroke="#191970" d="M553.0056,-396.7968C574.5458,-391.7597 601.1347,-385.542 623.9414,-380.2088"/>
<polygon fill="#191970" stroke="#191970" points="624.8489,-383.5911 633.7893,-377.9059 623.255,-376.775 624.8489,-383.5911"/>
</g>
<!-- Node132626 -->
<g id="node5" class="node">
<title>Node132626</title>
<g id="a_node5"><a xlink:href="quickjs_8c.html#a11f047846c1027dc6066a5f1b2ef292a" target="_top" xlink:title="shape_hash">
<polygon fill="none" stroke="#000000" points="782.5,-358.8859 782.5,-377.8859 851.5,-377.8859 851.5,-358.8859 782.5,-358.8859"/>
<text text-anchor="middle" x="817" y="-365.8859" font-family="Helvetica,sans-Serif" font-size="10.00" fill="#000000">shape_hash</text>
</a>
</g>
</g>
<!-- Node132625&#45;&gt;Node132626 -->
<g id="edge4" class="edge">
<title>Node132625&#45;&gt;Node132626</title>
<path fill="none" stroke="#191970" d="M723.1419,-368.3859C738.8642,-368.3859 756.225,-368.3859 771.6957,-368.3859"/>
<polygon fill="#191970" stroke="#191970" points="772.0608,-371.8859 782.0608,-368.3859 772.0607,-364.8859 772.0608,-371.8859"/>
</g>
<!-- Node132630 -->
<g id="node9" class="node">
<title>Node132630</title>
<g id="a_node9"><a xlink:href="quickjs_8c.html#a1030d2020be7d911eb62869f21cc3b70" target="_top" xlink:title="js_new_shape2">
<polygon fill="none" stroke="#000000" points="470,-187.8859 470,-206.8859 554,-206.8859 554,-187.8859 470,-187.8859"/>
<text text-anchor="middle" x="512" y="-194.8859" font-family="Helvetica,sans-Serif" font-size="10.00" fill="#000000">js_new_shape2</text>
</a>
</g>
</g>
<!-- Node132629&#45;&gt;Node132630 -->
<g id="edge8" class="edge">
<title>Node132629&#45;&gt;Node132630</title>
<path fill="none" stroke="#191970" d="M273.1065,-213.6838C322.0616,-210.3439 405.5215,-204.6501 459.7021,-200.9538"/>
<polygon fill="#191970" stroke="#191970" points="460.0573,-204.4378 469.7958,-200.2651 459.5808,-197.454 460.0573,-204.4378"/>
</g>
<!-- Node132630&#45;&gt;Node132625 -->
<g id="edge19" class="edge">
<title>Node132630&#45;&gt;Node132625</title>
<path fill="none" stroke="#191970" d="M536.9238,-206.9615C550.2217,-213.2234 565.8837,-222.6282 576,-235.3859 609.0128,-277.0184 574.2278,-312.0178 612,-349.3859 613.4815,-350.8515 615.0722,-352.2045 616.749,-353.4537"/>
<polygon fill="#191970" stroke="#191970" points="615.3702,-356.7092 625.7416,-358.8736 618.9836,-350.7139 615.3702,-356.7092"/>
</g>
<!-- Node132631 -->
<g id="node10" class="node">
<title>Node132631</title>
<g id="a_node10"><a xlink:href="quickjs_8c.html#a9780456a71703c53244b88831bc8fb7a" target="_top" xlink:title="add_gc_object">
<polygon fill="none" stroke="#ff0000" points="634.5,-16.8859 634.5,-35.8859 714.5,-35.8859 714.5,-16.8859 634.5,-16.8859"/>
<text text-anchor="middle" x="674.5" y="-23.8859" font-family="Helvetica,sans-Serif" font-size="10.00" fill="#000000">add_gc_object</text>
</a>
</g>
</g>
<!-- Node132630&#45;&gt;Node132631 -->
<g id="edge9" class="edge">
<title>Node132630&#45;&gt;Node132631</title>
<path fill="none" stroke="#191970" d="M536.9238,-187.8102C550.2217,-181.5483 565.8837,-172.1435 576,-159.3859 609.0128,-117.7533 574.2278,-82.7539 612,-45.3859 615.7339,-41.6919 620.1622,-38.7127 624.9116,-36.3105"/>
<polygon fill="#191970" stroke="#191970" points="626.4675,-39.4536 634.3425,-32.3659 623.7664,-32.9957 626.4675,-39.4536"/>
</g>
<!-- Node132634 -->
<g id="node11" class="node">
<title>Node132634</title>
<g id="a_node11"><a xlink:href="quickjs_8c.html#a8b6c89e0f589df709eb31a92b7fac32a" target="_top" xlink:title="get_shape_from_alloc">
<polygon fill="none" stroke="#000000" points="618.5,-54.8859 618.5,-73.8859 730.5,-73.8859 730.5,-54.8859 618.5,-54.8859"/>
<text text-anchor="middle" x="674.5" y="-61.8859" font-family="Helvetica,sans-Serif" font-size="10.00" fill="#000000">get_shape_from_alloc</text>
</a>
</g>
</g>
<!-- Node132630&#45;&gt;Node132634 -->
<g id="edge10" class="edge">
<title>Node132630&#45;&gt;Node132634</title>
<path fill="none" stroke="#191970" d="M535.03,-187.8575C548.3621,-181.4112 564.6892,-171.8061 576,-159.3859 601.1655,-131.7519 583.699,-107.7988 612,-83.3859 613.9536,-81.7006 616.0537,-80.1648 618.2586,-78.7653"/>
<polygon fill="#191970" stroke="#191970" points="620.0085,-81.7989 627.1955,-74.0144 616.7227,-75.618 620.0085,-81.7989"/>
</g>
<!-- Node132635 -->
<g id="node12" class="node">
<title>Node132635</title>
<g id="a_node12"><a xlink:href="quickjs_8c.html#ab54e821a9b1b55dc16c4494bd410b698" target="_top" xlink:title="get_shape_size">
<polygon fill="none" stroke="#000000" points="632,-168.8859 632,-187.8859 717,-187.8859 717,-168.8859 632,-168.8859"/>
<text text-anchor="middle" x="674.5" y="-175.8859" font-family="Helvetica,sans-Serif" font-size="10.00" fill="#000000">get_shape_size</text>
</a>
</g>
</g>
<!-- Node132630&#45;&gt;Node132635 -->
<g id="edge11" class="edge">
<title>Node132630&#45;&gt;Node132635</title>
<path fill="none" stroke="#191970" d="M554.2708,-192.4434C574.891,-190.0324 599.901,-187.1082 621.7587,-184.5525"/>
<polygon fill="#191970" stroke="#191970" points="622.3505,-188.0073 631.8764,-183.3695 621.5375,-181.0546 622.3505,-188.0073"/>
</g>
<!-- Node132636 -->
<g id="node13" class="node">
<title>Node132636</title>
<g id="a_node13"><a xlink:href="quickjs_8h.html#a775522f2d084fc8fa0fcb33f390006b4" target="_top" xlink:title="JS_DupValue">
<polygon fill="none" stroke="#000000" points="636,-130.8859 636,-149.8859 713,-149.8859 713,-130.8859 636,-130.8859"/>
<text text-anchor="middle" x="674.5" y="-137.8859" font-family="Helvetica,sans-Serif" font-size="10.00" fill="#000000">JS_DupValue</text>
</a>
</g>
</g>
<!-- Node132630&#45;&gt;Node132636 -->
<g id="edge12" class="edge">
<title>Node132630&#45;&gt;Node132636</title>
<path fill="none" stroke="#191970" d="M535.6766,-187.8675C555.8358,-179.889 585.6369,-168.3904 612,-159.3859 618.4175,-157.1939 625.2471,-154.9893 631.946,-152.8975"/>
<polygon fill="#191970" stroke="#191970" points="633.0741,-156.2125 641.604,-149.9282 631.017,-149.5215 633.0741,-156.2125"/>
</g>
<!-- Node132637 -->
<g id="node14" class="node">
<title>Node132637</title>
<g id="a_node14"><a xlink:href="quickjs_8c.html#a78b7f6b85f2739b551ff54f16156128b" target="_top" xlink:title="js_malloc">
<polygon fill="none" stroke="#ff0000" points="645.5,-92.8859 645.5,-111.8859 703.5,-111.8859 703.5,-92.8859 645.5,-92.8859"/>
<text text-anchor="middle" x="674.5" y="-99.8859" font-family="Helvetica,sans-Serif" font-size="10.00" fill="#000000">js_malloc</text>
</a>
</g>
</g>
<!-- Node132630&#45;&gt;Node132637 -->
<g id="edge13" class="edge">
<title>Node132630&#45;&gt;Node132637</title>
<path fill="none" stroke="#191970" d="M531.0918,-187.8547C544.305,-180.8371 561.9673,-170.5976 576,-159.3859 594.1756,-144.864 592.2125,-133.6206 612,-121.3859 619.2006,-116.9337 627.5162,-113.4624 635.6842,-110.7786"/>
<polygon fill="#191970" stroke="#191970" points="636.8903,-114.0719 645.4893,-107.8825 634.9074,-107.3586 636.8903,-114.0719"/>
</g>
<!-- Node132641 -->
<g id="node15" class="node">
<title>Node132641</title>
<g id="a_node15"><a xlink:href="quickjs_8c.html#a82dbe63adeac7849406fd48d96f39f7b" target="_top" xlink:title="js_shape_hash_link">
<polygon fill="none" stroke="#000000" points="623.5,-320.8859 623.5,-339.8859 725.5,-339.8859 725.5,-320.8859 623.5,-320.8859"/>
<text text-anchor="middle" x="674.5" y="-327.8859" font-family="Helvetica,sans-Serif" font-size="10.00" fill="#000000">js_shape_hash_link</text>
</a>
</g>
</g>
<!-- Node132630&#45;&gt;Node132641 -->
<g id="edge14" class="edge">
<title>Node132630&#45;&gt;Node132641</title>
<path fill="none" stroke="#191970" d="M531.0918,-206.917C544.305,-213.9346 561.9673,-224.1741 576,-235.3859 594.1756,-249.9077 595.3942,-257.0922 612,-273.3859 626.2739,-287.3915 643.0464,-302.6249 655.6207,-313.8172"/>
<polygon fill="#191970" stroke="#191970" points="653.4016,-316.5272 663.2091,-320.5351 658.0416,-311.2859 653.4016,-316.5272"/>
</g>
<!-- Node132642 -->
<g id="node16" class="node">
<title>Node132642</title>
<g id="a_node16"><a xlink:href="quickjs_8c.html#acab22c2945c4d609e57a2484feb68a96" target="_top" xlink:title="prop_hash_end">
<polygon fill="none" stroke="#000000" points="633,-244.8859 633,-263.8859 716,-263.8859 716,-244.8859 633,-244.8859"/>
<text text-anchor="middle" x="674.5" y="-251.8859" font-family="Helvetica,sans-Serif" font-size="10.00" fill="#000000">prop_hash_end</text>
</a>
</g>
</g>
<!-- Node132630&#45;&gt;Node132642 -->
<g id="edge16" class="edge">
<title>Node132630&#45;&gt;Node132642</title>
<path fill="none" stroke="#191970" d="M535.6766,-206.9042C555.8358,-214.8827 585.6369,-226.3813 612,-235.3859 618.4175,-237.5778 625.2471,-239.7824 631.946,-241.8742"/>
<polygon fill="#191970" stroke="#191970" points="631.017,-245.2502 641.604,-244.8435 633.0741,-238.5592 631.017,-245.2502"/>
</g>
<!-- Node132643 -->
<g id="node17" class="node">
<title>Node132643</title>
<g id="a_node17"><a xlink:href="quickjs_8c.html#ac05a95a74726df4e854747a64d7d0407" target="_top" xlink:title="resize_shape_hash">
<polygon fill="none" stroke="#ff0000" points="624,-206.8859 624,-225.8859 725,-225.8859 725,-206.8859 624,-206.8859"/>
<text text-anchor="middle" x="674.5" y="-213.8859" font-family="Helvetica,sans-Serif" font-size="10.00" fill="#000000">resize_shape_hash</text>
</a>
</g>
</g>
<!-- Node132630&#45;&gt;Node132643 -->
<g id="edge17" class="edge">
<title>Node132630&#45;&gt;Node132643</title>
<path fill="none" stroke="#191970" d="M554.2708,-202.3283C572.3689,-204.4444 593.8485,-206.9558 613.6105,-209.2665"/>
<polygon fill="#191970" stroke="#191970" points="613.4223,-212.7682 623.7611,-210.4533 614.2353,-205.8156 613.4223,-212.7682"/>
</g>
<!-- Node132641&#45;&gt;Node132624 -->
<g id="edge15" class="edge">
<title>Node132641&#45;&gt;Node132624</title>
<path fill="none" stroke="#191970" d="M716.8166,-339.9758C723.8335,-342.4727 730.8265,-345.5688 737,-349.3859 756.7875,-361.6206 753.9317,-374.0579 773,-387.3859 775.5106,-389.1406 778.209,-390.7836 780.9892,-392.3107"/>
<polygon fill="#191970" stroke="#191970" points="779.5047,-395.4812 790.0186,-396.7884 782.6147,-389.21 779.5047,-395.4812"/>
</g>
<!-- Node132643&#45;&gt;Node132624 -->
<g id="edge18" class="edge">
<title>Node132643&#45;&gt;Node132624</title>
<path fill="none" stroke="#191970" d="M724.1565,-225.9312C728.9346,-228.4018 733.3507,-231.5007 737,-235.3859 784.531,-285.9878 728.3892,-334.1916 773,-387.3859 774.0025,-388.5812 775.0942,-389.7035 776.2566,-390.7568"/>
<polygon fill="#191970" stroke="#191970" points="774.5704,-393.8505 784.7595,-396.7546 778.6053,-388.1304 774.5704,-393.8505"/>
</g>
<!-- Node132645&#45;&gt;Node132631 -->
<g id="edge21" class="edge">
<title>Node132645&#45;&gt;Node132631</title>
<path fill="none" stroke="#191970" d="M285.4604,-149.8647C290.7677,-147.3926 295.7573,-144.2867 300,-140.3859 333.2387,-109.826 299.5776,-72.0716 336,-45.3859 422.888,18.2748 558.5274,.6296 628.819,-14.6101"/>
<polygon fill="#191970" stroke="#191970" points="628.178,-18.0533 638.7021,-16.8312 629.7129,-11.2236 628.178,-18.0533"/>
</g>
<!-- Node132646 -->
<g id="node19" class="node">
<title>Node132646</title>
<g id="a_node19"><a xlink:href="quickjs_8c.html#a74547db03bf739a52c83a326b32db997" target="_top" xlink:title="add_property">
<polygon fill="none" stroke="#000000" points="337.5,-244.8859 337.5,-263.8859 410.5,-263.8859 410.5,-244.8859 337.5,-244.8859"/>
<text text-anchor="middle" x="374" y="-251.8859" font-family="Helvetica,sans-Serif" font-size="10.00" fill="#000000">add_property</text>
</a>
</g>
</g>
<!-- Node132645&#45;&gt;Node132646 -->
<g id="edge22" class="edge">
<title>Node132645&#45;&gt;Node132646</title>
<path fill="none" stroke="#191970" d="M251.6826,-168.8984C265.2805,-176.2209 284.176,-186.8423 300,-197.3859 319.1781,-210.1642 339.8674,-226.3203 354.4803,-238.1665"/>
<polygon fill="#191970" stroke="#191970" points="352.3689,-240.9611 362.3247,-244.5851 356.8018,-235.5436 352.3689,-240.9611"/>
</g>
<!-- Node132661 -->
<g id="node23" class="node">
<title>Node132661</title>
<g id="a_node23"><a xlink:href="quickjs_8c.html#a3a9f27520d96cf58aa5bd7359e9cddee" target="_top" xlink:title="js_free_shape">
<polygon fill="none" stroke="#ff0000" points="473.5,-92.8859 473.5,-111.8859 550.5,-111.8859 550.5,-92.8859 473.5,-92.8859"/>
<text text-anchor="middle" x="512" y="-99.8859" font-family="Helvetica,sans-Serif" font-size="10.00" fill="#000000">js_free_shape</text>
</a>
</g>
</g>
<!-- Node132645&#45;&gt;Node132661 -->
<g id="edge40" class="edge">
<title>Node132645&#45;&gt;Node132661</title>
<path fill="none" stroke="#191970" d="M271.9374,-149.8695C281.2498,-147.1644 291.0865,-143.9663 300,-140.3859 316.7879,-133.6423 318.6982,-126.6732 336,-121.3859 377.7311,-108.6331 427.3113,-104.1818 463.197,-102.7464"/>
<polygon fill="#191970" stroke="#191970" points="463.526,-106.2374 473.4031,-102.4044 463.2915,-99.2414 463.526,-106.2374"/>
</g>
<!-- Node132655 -->
<g id="node24" class="node">
<title>Node132655</title>
<g id="a_node24"><a xlink:href="quickjs_8c.html#a80e54dcf9ac687d4ccc2f90273565f30" target="_top" xlink:title="js_free">
<polygon fill="none" stroke="#ff0000" points="351,-168.8859 351,-187.8859 397,-187.8859 397,-168.8859 351,-168.8859"/>
<text text-anchor="middle" x="374" y="-175.8859" font-family="Helvetica,sans-Serif" font-size="10.00" fill="#000000">js_free</text>
</a>
</g>
</g>
<!-- Node132645&#45;&gt;Node132655 -->
<g id="edge39" class="edge">
<title>Node132645&#45;&gt;Node132655</title>
<path fill="none" stroke="#191970" d="M300.0469,-168.3851C314.2003,-170.2991 328.5547,-172.2402 340.8035,-173.8966"/>
<polygon fill="#191970" stroke="#191970" points="340.5888,-177.3994 350.9677,-175.2712 341.5269,-170.4625 340.5888,-177.3994"/>
</g>
<!-- Node132688 -->
<g id="node25" class="node">
<title>Node132688</title>
<g id="a_node25"><a xlink:href="quickjs_8h.html#a2050bc428da1c65ac7eb87c3fa3b0392" target="_top" xlink:title="JS_NewInt32">
<polygon fill="none" stroke="#000000" points="336,-130.8859 336,-149.8859 412,-149.8859 412,-130.8859 336,-130.8859"/>
<text text-anchor="middle" x="374" y="-137.8859" font-family="Helvetica,sans-Serif" font-size="10.00" fill="#000000">JS_NewInt32</text>
</a>
</g>
</g>
<!-- Node132645&#45;&gt;Node132688 -->
<g id="edge41" class="edge">
<title>Node132645&#45;&gt;Node132688</title>
<path fill="none" stroke="#191970" d="M300.0469,-150.3866C308.6247,-149.2266 317.2764,-148.0567 325.4884,-146.9461"/>
<polygon fill="#191970" stroke="#191970" points="326.1757,-150.3851 335.6165,-145.5765 325.2376,-143.4483 326.1757,-150.3851"/>
</g>
<!-- Node132689 -->
<g id="node26" class="node">
<title>Node132689</title>
<g id="a_node26"><a xlink:href="quickjs_8c.html#a85321334e4bec66bfc03451897a03a3b" target="_top" xlink:title="js_trigger_gc">
<polygon fill="none" stroke="#000000" points="338,-54.8859 338,-73.8859 410,-73.8859 410,-54.8859 338,-54.8859"/>
<text text-anchor="middle" x="374" y="-61.8859" font-family="Helvetica,sans-Serif" font-size="10.00" fill="#000000">js_trigger_gc</text>
</a>
</g>
</g>
<!-- Node132645&#45;&gt;Node132689 -->
<g id="edge42" class="edge">
<title>Node132645&#45;&gt;Node132689</title>
<path fill="none" stroke="#191970" d="M282.1829,-149.754C288.5011,-147.3033 294.632,-144.2325 300,-140.3859 322.8484,-124.0129 315.7086,-107.8379 336,-88.3859 339.3215,-85.2017 343.1291,-82.211 347.0226,-79.4937"/>
<polygon fill="#191970" stroke="#191970" points="349.0182,-82.3715 355.5279,-74.0125 345.2262,-76.4875 349.0182,-82.3715"/>
</g>
<!-- Node132646&#45;&gt;Node132628 -->
<g id="edge36" class="edge">
<title>Node132646&#45;&gt;Node132628</title>
<path fill="none" stroke="#191970" d="M379.4689,-263.9294C390.3092,-282.0561 416.2415,-321.6791 448,-344.3859 453.7074,-348.4666 460.1923,-351.9425 466.7912,-354.8754"/>
<polygon fill="#191970" stroke="#191970" points="465.8808,-358.2827 476.4634,-358.791 468.5076,-351.7942 465.8808,-358.2827"/>
</g>
<!-- Node132646&#45;&gt;Node132641 -->
<g id="edge38" class="edge">
<title>Node132646&#45;&gt;Node132641</title>
<path fill="none" stroke="#191970" d="M410.5008,-263.7947C422.4486,-266.8646 435.7877,-270.2814 448,-273.3859 509.563,-289.0354 580.5952,-306.876 626.4556,-318.3661"/>
<polygon fill="#191970" stroke="#191970" points="625.8632,-321.8258 636.414,-320.8604 627.564,-315.0355 625.8632,-321.8258"/>
</g>
<!-- Node132647 -->
<g id="node20" class="node">
<title>Node132647</title>
<g id="a_node20"><a xlink:href="quickjs_8c.html#a3cadcaa2bd1e3f9359f1c006f396cfa0" target="_top" xlink:title="add_shape_property">
<polygon fill="none" stroke="#ff0000" points="460,-244.8859 460,-263.8859 564,-263.8859 564,-244.8859 460,-244.8859"/>
<text text-anchor="middle" x="512" y="-251.8859" font-family="Helvetica,sans-Serif" font-size="10.00" fill="#000000">add_shape_property</text>
</a>
</g>
</g>
<!-- Node132646&#45;&gt;Node132647 -->
<g id="edge23" class="edge">
<title>Node132646&#45;&gt;Node132647</title>
<path fill="none" stroke="#191970" d="M410.6192,-254.3859C422.6453,-254.3859 436.3687,-254.3859 449.7502,-254.3859"/>
<polygon fill="#191970" stroke="#191970" points="449.8827,-257.886 459.8827,-254.3859 449.8826,-250.886 449.8827,-257.886"/>
</g>
<!-- Node132659 -->
<g id="node21" class="node">
<title>Node132659</title>
<g id="a_node21"><a xlink:href="quickjs_8c.html#ac0c5dbb01d6082796c44b1c7f7c170f1" target="_top" xlink:title="find_hashed_shape_prop">
<polygon fill="none" stroke="#000000" points="612,-396.8859 612,-415.8859 737,-415.8859 737,-396.8859 612,-396.8859"/>
<text text-anchor="middle" x="674.5" y="-403.8859" font-family="Helvetica,sans-Serif" font-size="10.00" fill="#000000">find_hashed_shape_prop</text>
</a>
</g>
</g>
<!-- Node132646&#45;&gt;Node132659 -->
<g id="edge27" class="edge">
<title>Node132646&#45;&gt;Node132659</title>
<path fill="none" stroke="#191970" d="M386.5302,-264.0439C400.8097,-274.7191 425.1372,-291.9175 448,-303.3859 502.034,-330.4902 525.3923,-316.3225 576,-349.3859 595.4763,-362.1102 592.2125,-375.1511 612,-387.3859 615.3761,-389.4733 618.9973,-391.3452 622.7335,-393.0213"/>
<polygon fill="#191970" stroke="#191970" points="621.5985,-396.3367 632.1834,-396.796 624.1951,-389.8362 621.5985,-396.3367"/>
</g>
<!-- Node132660 -->
<g id="node22" class="node">
<title>Node132660</title>
<g id="a_node22"><a xlink:href="quickjs_8c.html#a8e34657169da77ae6a386311351ed3de" target="_top" xlink:title="js_clone_shape">
<polygon fill="none" stroke="#ff0000" points="470,-130.8859 470,-149.8859 554,-149.8859 554,-130.8859 470,-130.8859"/>
<text text-anchor="middle" x="512" y="-137.8859" font-family="Helvetica,sans-Serif" font-size="10.00" fill="#000000">js_clone_shape</text>
</a>
</g>
</g>
<!-- Node132646&#45;&gt;Node132660 -->
<g id="edge30" class="edge">
<title>Node132646&#45;&gt;Node132660</title>
<path fill="none" stroke="#191970" d="M381.9515,-244.7085C394.7993,-229.443 421.3827,-199.3555 448,-178.3859 459.133,-169.615 472.4741,-161.3845 484.0878,-154.8412"/>
<polygon fill="#191970" stroke="#191970" points="485.8713,-157.8549 492.9561,-149.9773 482.5051,-151.7174 485.8713,-157.8549"/>
</g>
<!-- Node132646&#45;&gt;Node132661 -->
<g id="edge37" class="edge">
<title>Node132646&#45;&gt;Node132661</title>
<path fill="none" stroke="#191970" d="M381.1809,-244.5747C389.1826,-233.4326 402.2727,-214.5661 412,-197.3859 430.4149,-164.8616 419.6193,-145.7061 448,-121.3859 452.6233,-117.424 458.044,-114.2881 463.7403,-111.8059"/>
<polygon fill="#191970" stroke="#191970" points="465.3192,-114.9544 473.4946,-108.2155 462.9011,-108.3853 465.3192,-114.9544"/>
</g>
<!-- Node132647&#45;&gt;Node132626 -->
<g id="edge26" class="edge">
<title>Node132647&#45;&gt;Node132626</title>
<path fill="none" stroke="#191970" d="M558.1468,-263.9264C614.2992,-275.9072 705.5123,-296.6725 737,-311.3859 759.8132,-322.0458 782.9241,-339.3715 798.3999,-352.1271"/>
<polygon fill="#191970" stroke="#191970" points="796.2605,-354.9014 806.1616,-358.6721 800.773,-349.55 796.2605,-354.9014"/>
</g>
<!-- Node132647&#45;&gt;Node132641 -->
<g id="edge24" class="edge">
<title>Node132647&#45;&gt;Node132641</title>
<path fill="none" stroke="#191970" d="M543.1194,-263.9241C553.8521,-267.7633 565.7465,-272.6517 576,-278.3859 593.6913,-288.2795 594.3478,-296.4227 612,-306.3859 619.1963,-310.4475 627.2158,-314.1042 635.0462,-317.2676"/>
<polygon fill="#191970" stroke="#191970" points="633.8459,-320.5558 644.4359,-320.8756 636.3568,-314.0216 633.8459,-320.5558"/>
</g>
<!-- Node132647&#45;&gt;Node132642 -->
<g id="edge25" class="edge">
<title>Node132647&#45;&gt;Node132642</title>
<path fill="none" stroke="#191970" d="M564.3105,-254.3859C583.0204,-254.3859 604.0853,-254.3859 622.7478,-254.3859"/>
<polygon fill="#191970" stroke="#191970" points="622.8386,-257.886 632.8385,-254.3859 622.8385,-250.886 622.8386,-257.886"/>
</g>
<!-- Node132659&#45;&gt;Node132624 -->
<g id="edge28" class="edge">
<title>Node132659&#45;&gt;Node132624</title>
<path fill="none" stroke="#191970" d="M737.0026,-406.3859C745.6153,-406.3859 754.4011,-406.3859 762.8463,-406.3859"/>
<polygon fill="#191970" stroke="#191970" points="762.9443,-409.886 772.9443,-406.3859 762.9442,-402.886 762.9443,-409.886"/>
</g>
<!-- Node132659&#45;&gt;Node132626 -->
<g id="edge29" class="edge">
<title>Node132659&#45;&gt;Node132626</title>
<path fill="none" stroke="#191970" d="M710.4588,-396.7968C729.2207,-391.7937 752.3504,-385.6257 772.2595,-380.3167"/>
<polygon fill="#191970" stroke="#191970" points="773.2774,-383.6676 782.038,-377.7091 771.4738,-376.9039 773.2774,-383.6676"/>
</g>
<!-- Node132660&#45;&gt;Node132631 -->
<g id="edge31" class="edge">
<title>Node132660&#45;&gt;Node132631</title>
<path fill="none" stroke="#191970" d="M554.1722,-133.3488C562.0458,-130.5866 569.7513,-126.7406 576,-121.3859 604.3807,-97.0656 583.699,-69.7988 612,-45.3859 615.8724,-42.0455 620.3198,-39.2923 625.0196,-37.0232"/>
<polygon fill="#191970" stroke="#191970" points="626.3561,-40.2581 634.2835,-33.2291 623.703,-33.7803 626.3561,-40.2581"/>
</g>
<!-- Node132660&#45;&gt;Node132634 -->
<g id="edge32" class="edge">
<title>Node132660&#45;&gt;Node132634</title>
<path fill="none" stroke="#191970" d="M554.3212,-131.2515C561.8439,-128.6855 569.3817,-125.4481 576,-121.3859 595.8274,-109.2158 592.2125,-95.6206 612,-83.3859 615.3761,-81.2984 618.9973,-79.4265 622.7335,-77.7504"/>
<polygon fill="#191970" stroke="#191970" points="624.1951,-80.9355 632.1834,-73.9758 621.5985,-74.435 624.1951,-80.9355"/>
</g>
<!-- Node132660&#45;&gt;Node132635 -->
<g id="edge33" class="edge">
<title>Node132660&#45;&gt;Node132635</title>
<path fill="none" stroke="#191970" d="M553.0056,-149.9749C574.5458,-155.012 601.1347,-161.2297 623.9414,-166.5629"/>
<polygon fill="#191970" stroke="#191970" points="623.255,-169.9968 633.7893,-168.8658 624.8489,-163.1806 623.255,-169.9968"/>
</g>
<!-- Node132660&#45;&gt;Node132636 -->
<g id="edge34" class="edge">
<title>Node132660&#45;&gt;Node132636</title>
<path fill="none" stroke="#191970" d="M554.2708,-140.3859C576.126,-140.3859 602.9125,-140.3859 625.6504,-140.3859"/>
<polygon fill="#191970" stroke="#191970" points="625.7805,-143.886 635.7804,-140.3859 625.7804,-136.886 625.7805,-143.886"/>
</g>
<!-- Node132660&#45;&gt;Node132637 -->
<g id="edge35" class="edge">
<title>Node132660&#45;&gt;Node132637</title>
<path fill="none" stroke="#191970" d="M553.0056,-130.7968C578.2924,-124.8836 610.5368,-117.3434 635.4522,-111.517"/>
<polygon fill="#191970" stroke="#191970" points="636.3555,-114.9003 645.2958,-109.2151 634.7615,-108.0842 636.3555,-114.9003"/>
</g>
<!-- Node132690 -->
<g id="node27" class="node">
<title>Node132690</title>
<g id="a_node27"><a xlink:href="quickjs_8c.html#aeeea589ee4cec4bbc3145210f4cf6e42" target="_top" xlink:title="JS_RunGC">
<polygon fill="none" stroke="#ff0000" points="478.5,-54.8859 478.5,-73.8859 545.5,-73.8859 545.5,-54.8859 478.5,-54.8859"/>
<text text-anchor="middle" x="512" y="-61.8859" font-family="Helvetica,sans-Serif" font-size="10.00" fill="#000000">JS_RunGC</text>
</a>
</g>
</g>
<!-- Node132689&#45;&gt;Node132690 -->
<g id="edge43" class="edge">
<title>Node132689&#45;&gt;Node132690</title>
<path fill="none" stroke="#191970" d="M410.2579,-64.3859C428.0461,-64.3859 449.6139,-64.3859 468.3056,-64.3859"/>
<polygon fill="#191970" stroke="#191970" points="468.3518,-67.886 478.3517,-64.3859 468.3517,-60.886 468.3518,-67.886"/>
</g>
</g>
</svg>
        <g id="navigator" transform="translate(0 0)" fill="#404254">
                <rect fill="#f2f5e9" fill-opacity="0.5" stroke="#606060" stroke-width=".5" x="0" y="0" width="60" height="60"/>
                <use id="zoomplus" xlink:href="#zoomPlus" x="17" y="9" onmousedown="handleZoom(evt,'in')"/>
                <use id="zoomminus" xlink:href="#zoomMin" x="42" y="9" onmousedown="handleZoom(evt,'out')"/>
                <use id="reset" xlink:href="#resetDef" x="30" y="36" onmousedown="handleReset()"/>
                <g id="arrowUp" xlink:href="#dirArrow" transform="translate(30 24)" onmousedown="handlePan(0,-1)">
                  <use xlink:href="#rim" fill="#404040">
                        <set attributeName="fill" to="#808080" begin="arrowUp.mouseover" end="arrowUp.mouseout"/>
                  </use>
                  <path fill="none" stroke="white" stroke-width="1.5" d="M0,-3.0v7 M-2.5,-0.5L0,-3.0L2.5,-0.5"/>
                </g>
                <g id="arrowRight" xlink:href="#dirArrow" transform="rotate(90) translate(36 -43)" onmousedown="handlePan(1,0)">
                  <use xlink:href="#rim" fill="#404040">
                        <set attributeName="fill" to="#808080" begin="arrowRight.mouseover" end="arrowRight.mouseout"/>
                  </use>
                  <path fill="none" stroke="white" stroke-width="1.5" d="M0,-3.0v7 M-2.5,-0.5L0,-3.0L2.5,-0.5"/>
                </g>
                <g id="arrowDown" xlink:href="#dirArrow" transform="rotate(180) translate(-30 -48)" onmousedown="handlePan(0,1)">
                  <use xlink:href="#rim" fill="#404040">
                        <set attributeName="fill" to="#808080" begin="arrowDown.mouseover" end="arrowDown.mouseout"/>
                  </use>
                  <path fill="none" stroke="white" stroke-width="1.5" d="M0,-3.0v7 M-2.5,-0.5L0,-3.0L2.5,-0.5"/>
                </g>
                <g id="arrowLeft" xlink:href="#dirArrow" transform="rotate(270) translate(-36 17)" onmousedown="handlePan(-1,0)">
                  <use xlink:href="#rim" fill="#404040">
                        <set attributeName="fill" to="#808080" begin="arrowLeft.mouseover" end="arrowLeft.mouseout"/>
                  </use>
                  <path fill="none" stroke="white" stroke-width="1.5" d="M0,-3.0v7 M-2.5,-0.5L0,-3.0L2.5,-0.5"/>
                </g>
        </g>
        <svg viewBox="0 0 15 15" width="100%" height="30px" preserveAspectRatio="xMaxYMin meet">
         <g id="arrow_out" transform="scale(0.3 0.3)">
          <a xlink:href="quickjs_8c_a73738c650f11459db0d7af3dcdf8316b_cgraph_org.svg" target="_base">
           <rect id="button" ry="5" rx="5" y="6" x="6" height="38" width="38"
                fill="#f2f5e9" fill-opacity="0.5" stroke="#606060" stroke-width="1.0"/>
           <path id="arrow"
             d="M 11.500037,31.436501 C 11.940474,20.09759 22.043105,11.32322 32.158766,21.979434 L 37.068811,17.246167 C 37.068811,17.246167 37.088388,32 37.088388,32 L 22.160133,31.978069 C 22.160133,31.978069 26.997745,27.140456 26.997745,27.140456 C 18.528582,18.264221 13.291696,25.230495 11.500037,31.436501 z"
             style="fill:#404040;"/>
          </a>
         </g>
        </svg>
</svg>
