<?xml version="1.0" encoding="UTF-8" standalone="no"?>
<!DOCTYPE svg PUBLIC "-//W3C//DTD SVG 1.1//EN"
 "http://www.w3.org/Graphics/SVG/1.1/DTD/svg11.dtd">
<!-- Generated by graphviz version 2.40.1 (20161225.0304)
 -->
<!-- Title: __JS_EvalInternal Pages: 1 -->
<svg width="516pt" height="28pt"
 viewBox="0.00 0.00 516.00 28.00" xmlns="http://www.w3.org/2000/svg" xmlns:xlink="http://www.w3.org/1999/xlink">
<g id="graph0" class="graph" transform="scale(1 1) rotate(0) translate(4 24)">
<title>__JS_EvalInternal</title>
<!-- Node355771 -->
<g id="node1" class="node">
<title>Node355771</title>
<polygon fill="#bfbfbf" stroke="#000000" points="0,-.5 0,-19.5 96,-19.5 96,-.5 0,-.5"/>
<text text-anchor="middle" x="48" y="-7.5" font-family="Helvetica,sans-Serif" font-size="10.00" fill="#000000">__JS_EvalInternal</text>
</g>
<!-- Node355772 -->
<g id="node2" class="node">
<title>Node355772</title>
<g id="a_node2"><a xlink:href="quickjs_8c.html#acbcccb7ec58fd4a024ea1d01e5d04561" target="_top" xlink:title="JS_AddIntrinsicEval">
<polygon fill="none" stroke="#000000" points="132,-.5 132,-19.5 237,-19.5 237,-.5 132,-.5"/>
<text text-anchor="middle" x="184.5" y="-7.5" font-family="Helvetica,sans-Serif" font-size="10.00" fill="#000000">JS_AddIntrinsicEval</text>
</a>
</g>
</g>
<!-- Node355771&#45;&gt;Node355772 -->
<g id="edge1" class="edge">
<title>Node355771&#45;&gt;Node355772</title>
<path fill="none" stroke="#191970" d="M106.2837,-10C114.726,-10 123.3763,-10 131.7026,-10"/>
<polygon fill="#191970" stroke="#191970" points="106.1248,-6.5001 96.1248,-10 106.1248,-13.5001 106.1248,-6.5001"/>
</g>
<!-- Node355773 -->
<g id="node3" class="node">
<title>Node355773</title>
<g id="a_node3"><a xlink:href="quickjs_8c.html#ad8aedb643b8753b7a15f6cb2df61945e" target="_top" xlink:title="JS_NewContext">
<polygon fill="none" stroke="#000000" points="273,-.5 273,-19.5 362,-19.5 362,-.5 273,-.5"/>
<text text-anchor="middle" x="317.5" y="-7.5" font-family="Helvetica,sans-Serif" font-size="10.00" fill="#000000">JS_NewContext</text>
</a>
</g>
</g>
<!-- Node355772&#45;&gt;Node355773 -->
<g id="edge2" class="edge">
<title>Node355772&#45;&gt;Node355773</title>
<path fill="none" stroke="#191970" d="M247.0996,-10C255.7114,-10 264.4107,-10 272.6171,-10"/>
<polygon fill="#191970" stroke="#191970" points="247.0652,-6.5001 237.0651,-10 247.0651,-13.5001 247.0652,-6.5001"/>
</g>
<!-- Node355774 -->
<g id="node4" class="node">
<title>Node355774</title>
<g id="a_node4"><a xlink:href="classqjs_1_1Context.html#a4392a23648acfc4bf6b445336efb5007" target="_top" xlink:title="qjs::Context::Context">
<polygon fill="none" stroke="#ff0000" points="398,-.5 398,-19.5 508,-19.5 508,-.5 398,-.5"/>
<text text-anchor="middle" x="453" y="-7.5" font-family="Helvetica,sans-Serif" font-size="10.00" fill="#000000">qjs::Context::Context</text>
</a>
</g>
</g>
<!-- Node355773&#45;&gt;Node355774 -->
<g id="edge3" class="edge">
<title>Node355773&#45;&gt;Node355774</title>
<path fill="none" stroke="#191970" d="M372.3476,-10C380.7739,-10 389.4767,-10 397.9083,-10"/>
<polygon fill="#191970" stroke="#191970" points="372.2433,-6.5001 362.2433,-10 372.2433,-13.5001 372.2433,-6.5001"/>
</g>
</g>
</svg>
