<?xml version="1.0" encoding="UTF-8" standalone="no"?>
<!DOCTYPE svg PUBLIC "-//W3C//DTD SVG 1.1//EN"
 "http://www.w3.org/Graphics/SVG/1.1/DTD/svg11.dtd">
<!-- Generated by graphviz version 2.40.1 (20161225.0304)
 -->
<!-- Title: JS_SetPropertyUint32 Pages: 1 -->
<!--zoomable 463 -->
<svg id="main" version="1.1" xmlns="http://www.w3.org/2000/svg" xmlns:xlink="http://www.w3.org/1999/xlink" xml:space="preserve" onload="init(evt)">
<style type="text/css"><![CDATA[
.edge:hover path { stroke: red; }
.edge:hover polygon { stroke: red; fill: red; }
]]></style>
<script type="text/javascript"><![CDATA[
var edges = document.getElementsByTagName('g');
if (edges && edges.length) {
  for (var i=0;i<edges.length;i++) {
    if (edges[i].id.substr(0,4)=='edge') {
      edges[i].setAttribute('class','edge');
    }
  }
}
]]></script>
        <defs>
                <circle id="rim" cx="0" cy="0" r="7"/>
                <circle id="rim2" cx="0" cy="0" r="3.5"/>
                <g id="zoomPlus">
                        <use xlink:href="#rim" fill="#404040">
                                <set attributeName="fill" to="#808080" begin="zoomplus.mouseover" end="zoomplus.mouseout"/>
                        </use>
                        <path d="M-4,0h8M0,-4v8" fill="none" stroke="white" stroke-width="1.5" pointer-events="none"/>
                </g>
                <g id="zoomMin">
                        <use xlink:href="#rim" fill="#404040">
                                <set attributeName="fill" to="#808080" begin="zoomminus.mouseover" end="zoomminus.mouseout"/>
                        </use>
                        <path d="M-4,0h8" fill="none" stroke="white" stroke-width="1.5" pointer-events="none"/>
                </g>
                <g id="dirArrow">
                        <path fill="none" stroke="white" stroke-width="1.5" d="M0,-3.0v7 M-2.5,-0.5L0,-3.0L2.5,-0.5"/>
                </g>
               <g id="resetDef">
                       <use xlink:href="#rim2" fill="#404040">
                               <set attributeName="fill" to="#808080" begin="reset.mouseover" end="reset.mouseout"/>
                       </use>
               </g>
        </defs>

<script type="text/javascript">
var viewWidth = 783;
var viewHeight = 463;
var sectionId = 'dynsection-178';
</script>
<script xlink:href="svgpan.js"/>
<svg id="graph" class="graph">
<g id="viewport">
<title>JS_SetPropertyUint32</title>
<!-- Node61158 -->
<g id="node1" class="node">
<title>Node61158</title>
<polygon fill="#bfbfbf" stroke="#000000" points="0,-157 0,-176 114,-176 114,-157 0,-157"/>
<text text-anchor="middle" x="57" y="-164" font-family="Helvetica,sans-Serif" font-size="10.00" fill="#000000">JS_SetPropertyUint32</text>
</g>
<!-- Node61159 -->
<g id="node2" class="node">
<title>Node61159</title>
<g id="a_node2"><a xlink:href="quickjs_8c.html#a68c7842d6b1ef577bc4625aec4ede310" target="_top" xlink:title="js_array_constructor">
<polygon fill="none" stroke="#000000" points="352.5,-340 352.5,-359 457.5,-359 457.5,-340 352.5,-340"/>
<text text-anchor="middle" x="405" y="-347" font-family="Helvetica,sans-Serif" font-size="10.00" fill="#000000">js_array_constructor</text>
</a>
</g>
</g>
<!-- Node61158&#45;&gt;Node61159 -->
<g id="edge1" class="edge">
<title>Node61158&#45;&gt;Node61159</title>
<path fill="none" stroke="#191970" d="M67.155,-185.1482C81.9815,-210.5928 111.9745,-255.8372 150,-280.5 212.3349,-320.9295 297.8923,-337.8216 352.3192,-344.7757"/>
<polygon fill="#191970" stroke="#191970" points="70.0388,-183.1374 62.069,-176.1565 63.9459,-186.5838 70.0388,-183.1374"/>
</g>
<!-- Node61171 -->
<g id="node11" class="node">
<title>Node61171</title>
<g id="a_node11"><a xlink:href="quickjs-libc_8c.html#ad04466feec6822a3b838baf229f6dfa0" target="_top" xlink:title="js_std_add_helpers">
<polygon fill="none" stroke="#000000" points="175.5,-176 175.5,-195 276.5,-195 276.5,-176 175.5,-176"/>
<text text-anchor="middle" x="226" y="-183" font-family="Helvetica,sans-Serif" font-size="10.00" fill="#000000">js_std_add_helpers</text>
</a>
</g>
</g>
<!-- Node61158&#45;&gt;Node61171 -->
<g id="edge10" class="edge">
<title>Node61158&#45;&gt;Node61171</title>
<path fill="none" stroke="#191970" d="M124.6096,-174.1011C141.5398,-176.0045 159.413,-178.0139 175.3588,-179.8066"/>
<polygon fill="#191970" stroke="#191970" points="124.5441,-170.5718 114.2157,-172.9325 123.762,-177.5279 124.5441,-170.5718"/>
</g>
<!-- Node61176 -->
<g id="node15" class="node">
<title>Node61176</title>
<g id="a_node15"><a xlink:href="quickjs_8c.html#acf0e1803a9586d86d752b002a89fb8ed" target="_top" xlink:title="js_typed_array_constructor_obj">
<polygon fill="none" stroke="#000000" points="150,-252 150,-271 302,-271 302,-252 150,-252"/>
<text text-anchor="middle" x="226" y="-259" font-family="Helvetica,sans-Serif" font-size="10.00" fill="#000000">js_typed_array_constructor_obj</text>
</a>
</g>
</g>
<!-- Node61158&#45;&gt;Node61176 -->
<g id="edge14" class="edge">
<title>Node61158&#45;&gt;Node61176</title>
<path fill="none" stroke="#191970" d="M72.8658,-183.2576C90.2139,-200.6037 119.6161,-227.2543 150,-242.5 157.6583,-246.3427 166.15,-249.4448 174.6012,-251.938"/>
<polygon fill="#191970" stroke="#191970" points="75.2777,-180.7181 65.783,-176.0169 70.2737,-185.613 75.2777,-180.7181"/>
</g>
<!-- Node61193 -->
<g id="node20" class="node">
<title>Node61193</title>
<g id="a_node20"><a xlink:href="quickjs_8c.html#a19e15727ea84a3735a3850b18da03330" target="_top" xlink:title="js_typed_array_constructor_ta">
<polygon fill="none" stroke="#000000" points="152,-214 152,-233 300,-233 300,-214 152,-214"/>
<text text-anchor="middle" x="226" y="-221" font-family="Helvetica,sans-Serif" font-size="10.00" fill="#000000">js_typed_array_constructor_ta</text>
</a>
</g>
</g>
<!-- Node61158&#45;&gt;Node61193 -->
<g id="edge21" class="edge">
<title>Node61158&#45;&gt;Node61193</title>
<path fill="none" stroke="#191970" d="M87.4823,-180.2441C105.4423,-188.0156 128.7417,-197.5391 150,-204.5 160.5987,-207.9705 172.2052,-211.1671 183.0865,-213.9092"/>
<polygon fill="#191970" stroke="#191970" points="88.6647,-176.941 78.1007,-176.1342 85.8559,-183.3527 88.6647,-176.941"/>
</g>
<!-- Node61194 -->
<g id="node21" class="node">
<title>Node61194</title>
<g id="a_node21"><a xlink:href="quickjs_8c.html#a36967d647cc965999043c6cfdeb9e943" target="_top" xlink:title="js_typed_array_of">
<polygon fill="none" stroke="#000000" points="179,-138 179,-157 273,-157 273,-138 179,-138"/>
<text text-anchor="middle" x="226" y="-145" font-family="Helvetica,sans-Serif" font-size="10.00" fill="#000000">js_typed_array_of</text>
</a>
</g>
</g>
<!-- Node61158&#45;&gt;Node61194 -->
<g id="edge23" class="edge">
<title>Node61158&#45;&gt;Node61194</title>
<path fill="none" stroke="#191970" d="M124.2532,-158.939C142.5717,-156.8795 162.0196,-154.6931 178.9521,-152.7894"/>
<polygon fill="#191970" stroke="#191970" points="123.762,-155.4721 114.2157,-160.0675 124.5441,-162.4282 123.762,-155.4721"/>
</g>
<!-- Node61195 -->
<g id="node22" class="node">
<title>Node61195</title>
<g id="a_node22"><a xlink:href="quickjs_8c.html#a28f4d08e4321e751cebe37ea7259fe3c" target="_top" xlink:title="js_typed_array_set\l_internal">
<polygon fill="none" stroke="#000000" points="176.5,-88.5 176.5,-118.5 275.5,-118.5 275.5,-88.5 176.5,-88.5"/>
<text text-anchor="start" x="184.5" y="-106.5" font-family="Helvetica,sans-Serif" font-size="10.00" fill="#000000">js_typed_array_set</text>
<text text-anchor="middle" x="226" y="-95.5" font-family="Helvetica,sans-Serif" font-size="10.00" fill="#000000">_internal</text>
</a>
</g>
</g>
<!-- Node61158&#45;&gt;Node61195 -->
<g id="edge24" class="edge">
<title>Node61158&#45;&gt;Node61195</title>
<path fill="none" stroke="#191970" d="M88.7556,-152.8796C106.6281,-145.377 129.4235,-136.0775 150,-128.5 159.124,-125.14 168.9406,-121.7483 178.389,-118.5935"/>
<polygon fill="#191970" stroke="#191970" points="87.2283,-149.7253 79.3782,-156.8406 89.9521,-156.1736 87.2283,-149.7253"/>
</g>
<!-- Node61197 -->
<g id="node24" class="node">
<title>Node61197</title>
<g id="a_node24"><a xlink:href="quickjs_8c.html#ae34b58b803dc65ed20305c6201ca711b" target="_top" xlink:title="remainingElementsCount_add">
<polygon fill="none" stroke="#000000" points="152.5,-50 152.5,-69 299.5,-69 299.5,-50 152.5,-50"/>
<text text-anchor="middle" x="226" y="-57" font-family="Helvetica,sans-Serif" font-size="10.00" fill="#000000">remainingElementsCount_add</text>
</a>
</g>
</g>
<!-- Node61158&#45;&gt;Node61197 -->
<g id="edge26" class="edge">
<title>Node61158&#45;&gt;Node61197</title>
<path fill="none" stroke="#191970" d="M70.768,-148.8597C87.3915,-128.7847 117.229,-96.4616 150,-78.5 157.0367,-74.6432 164.8667,-71.555 172.7506,-69.0859"/>
<polygon fill="#191970" stroke="#191970" points="67.85,-146.9023 64.2896,-156.881 73.2957,-151.3006 67.85,-146.9023"/>
</g>
<!-- Node61200 -->
<g id="node27" class="node">
<title>Node61200</title>
<g id="a_node27"><a xlink:href="structqjs_1_1js__property__traits_3_01uint32__t_01_4.html#a80956064f81774837d511e8321056418" target="_top" xlink:title="qjs::js_property_traits\l\&lt; uint32_t \&gt;::set_property">
<polygon fill="none" stroke="#000000" points="161.5,-.5 161.5,-30.5 290.5,-30.5 290.5,-.5 161.5,-.5"/>
<text text-anchor="start" x="169.5" y="-18.5" font-family="Helvetica,sans-Serif" font-size="10.00" fill="#000000">qjs::js_property_traits</text>
<text text-anchor="middle" x="226" y="-7.5" font-family="Helvetica,sans-Serif" font-size="10.00" fill="#000000">&lt; uint32_t &gt;::set_property</text>
</a>
</g>
</g>
<!-- Node61158&#45;&gt;Node61200 -->
<g id="edge30" class="edge">
<title>Node61158&#45;&gt;Node61200</title>
<path fill="none" stroke="#191970" d="M66.0515,-147.7284C80.2168,-120.2752 110.1763,-69.3157 150,-40.5 155.2889,-36.673 161.1975,-33.4086 167.32,-30.6292"/>
<polygon fill="#191970" stroke="#191970" points="62.9095,-146.1864 61.5583,-156.6947 69.1676,-149.3225 62.9095,-146.1864"/>
</g>
<!-- Node61160 -->
<g id="node3" class="node">
<title>Node61160</title>
<g id="a_node3"><a xlink:href="quickjs_8c.html#a4c9489297c684663f30e517204a9ec14" target="_top" xlink:title="JS_AddIntrinsicBaseObjects">
<polygon fill="none" stroke="#000000" points="508,-321 508,-340 650,-340 650,-321 508,-321"/>
<text text-anchor="middle" x="579" y="-328" font-family="Helvetica,sans-Serif" font-size="10.00" fill="#000000">JS_AddIntrinsicBaseObjects</text>
</a>
</g>
</g>
<!-- Node61159&#45;&gt;Node61160 -->
<g id="edge2" class="edge">
<title>Node61159&#45;&gt;Node61160</title>
<path fill="none" stroke="#191970" d="M467.8945,-342.6322C480.872,-341.2151 494.6264,-339.7132 507.8726,-338.2668"/>
<polygon fill="#191970" stroke="#191970" points="467.2389,-339.1829 457.6779,-343.7478 467.9988,-346.1415 467.2389,-339.1829"/>
</g>
<!-- Node61165 -->
<g id="node5" class="node">
<title>Node61165</title>
<g id="a_node5"><a xlink:href="quickjs_8c.html#a5e32da9a43002cb96dcbd62a1a340144" target="_top" xlink:title="js_array_from">
<polygon fill="none" stroke="#000000" points="541,-359 541,-378 617,-378 617,-359 541,-359"/>
<text text-anchor="middle" x="579" y="-366" font-family="Helvetica,sans-Serif" font-size="10.00" fill="#000000">js_array_from</text>
</a>
</g>
</g>
<!-- Node61159&#45;&gt;Node61165 -->
<g id="edge4" class="edge">
<title>Node61159&#45;&gt;Node61165</title>
<path fill="none" stroke="#191970" d="M467.6214,-356.338C492.1195,-359.013 519.423,-361.9945 540.8654,-364.3359"/>
<polygon fill="#191970" stroke="#191970" points="467.9988,-352.8585 457.6779,-355.2522 467.2389,-359.8171 467.9988,-352.8585"/>
</g>
<!-- Node61166 -->
<g id="node6" class="node">
<title>Node61166</title>
<g id="a_node6"><a xlink:href="quickjs_8c.html#a3b818b1ca9d2d4aaa9b55b1cc54c1bc4" target="_top" xlink:title="JS_ArraySpeciesCreate">
<polygon fill="none" stroke="#000000" points="518,-397 518,-416 640,-416 640,-397 518,-397"/>
<text text-anchor="middle" x="579" y="-404" font-family="Helvetica,sans-Serif" font-size="10.00" fill="#000000">JS_ArraySpeciesCreate</text>
</a>
</g>
</g>
<!-- Node61159&#45;&gt;Node61166 -->
<g id="edge5" class="edge">
<title>Node61159&#45;&gt;Node61166</title>
<path fill="none" stroke="#191970" d="M438.5124,-362.752C458.5239,-370.4418 484.5336,-380.0487 508,-387.5 518.5807,-390.8597 530.1699,-394.1302 540.8601,-396.9842"/>
<polygon fill="#191970" stroke="#191970" points="439.5136,-359.3864 428.9245,-359.0381 436.9852,-365.9139 439.5136,-359.3864"/>
</g>
<!-- Node61161 -->
<g id="node4" class="node">
<title>Node61161</title>
<g id="a_node4"><a xlink:href="quickjs_8c.html#ad8aedb643b8753b7a15f6cb2df61945e" target="_top" xlink:title="JS_NewContext">
<polygon fill="none" stroke="#ff0000" points="686,-239 686,-258 775,-258 775,-239 686,-239"/>
<text text-anchor="middle" x="730.5" y="-246" font-family="Helvetica,sans-Serif" font-size="10.00" fill="#000000">JS_NewContext</text>
</a>
</g>
</g>
<!-- Node61160&#45;&gt;Node61161 -->
<g id="edge3" class="edge">
<title>Node61160&#45;&gt;Node61161</title>
<path fill="none" stroke="#191970" d="M635.2781,-317.7248C640.3575,-315.8929 645.3382,-313.8257 650,-311.5 678.5844,-297.2394 706.77,-271.8865 720.9859,-258.0901"/>
<polygon fill="#191970" stroke="#191970" points="633.8492,-314.5105 625.4466,-320.9639 636.0396,-321.1589 633.8492,-314.5105"/>
</g>
<!-- Node61167 -->
<g id="node7" class="node">
<title>Node61167</title>
<g id="a_node7"><a xlink:href="quickjs_8c.html#aaa85fa359f7aa8985f0299147272adef" target="_top" xlink:title="js_array_concat">
<polygon fill="none" stroke="#000000" points="687.5,-435 687.5,-454 773.5,-454 773.5,-435 687.5,-435"/>
<text text-anchor="middle" x="730.5" y="-442" font-family="Helvetica,sans-Serif" font-size="10.00" fill="#000000">js_array_concat</text>
</a>
</g>
</g>
<!-- Node61166&#45;&gt;Node61167 -->
<g id="edge6" class="edge">
<title>Node61166&#45;&gt;Node61167</title>
<path fill="none" stroke="#191970" d="M627.0016,-418.54C648.1668,-423.8488 672.6858,-429.9988 692.5451,-434.9799"/>
<polygon fill="#191970" stroke="#191970" points="627.7809,-415.1271 617.2298,-416.089 626.0779,-421.9168 627.7809,-415.1271"/>
</g>
<!-- Node61168 -->
<g id="node8" class="node">
<title>Node61168</title>
<g id="a_node8"><a xlink:href="quickjs_8c.html#aa0bbf08a7e91459c68a312fba7016c6d" target="_top" xlink:title="js_array_every">
<polygon fill="none" stroke="#000000" points="690.5,-299 690.5,-318 770.5,-318 770.5,-299 690.5,-299"/>
<text text-anchor="middle" x="730.5" y="-306" font-family="Helvetica,sans-Serif" font-size="10.00" fill="#000000">js_array_every</text>
</a>
</g>
</g>
<!-- Node61166&#45;&gt;Node61168 -->
<g id="edge7" class="edge">
<title>Node61166&#45;&gt;Node61168</title>
<path fill="none" stroke="#191970" d="M638.4601,-393.2979C642.4726,-391.59 646.3612,-389.6662 650,-387.5 669.9905,-375.5999 669.4357,-365.8358 686,-349.5 697.2193,-338.4355 710.5688,-326.261 719.7004,-318.0759"/>
<polygon fill="#191970" stroke="#191970" points="637.046,-390.0908 628.9322,-396.9037 639.5237,-396.6376 637.046,-390.0908"/>
</g>
<!-- Node61169 -->
<g id="node9" class="node">
<title>Node61169</title>
<g id="a_node9"><a xlink:href="quickjs_8c.html#a12e173fe76ae1141ef47318f9d0cbea7" target="_top" xlink:title="js_array_flatten">
<polygon fill="none" stroke="#000000" points="689,-397 689,-416 772,-416 772,-397 689,-397"/>
<text text-anchor="middle" x="730.5" y="-404" font-family="Helvetica,sans-Serif" font-size="10.00" fill="#000000">js_array_flatten</text>
</a>
</g>
</g>
<!-- Node61166&#45;&gt;Node61169 -->
<g id="edge8" class="edge">
<title>Node61166&#45;&gt;Node61169</title>
<path fill="none" stroke="#191970" d="M650.5685,-406.5C663.598,-406.5 676.793,-406.5 688.6052,-406.5"/>
<polygon fill="#191970" stroke="#191970" points="650.1842,-403.0001 640.1842,-406.5 650.1841,-410.0001 650.1842,-403.0001"/>
</g>
<!-- Node61170 -->
<g id="node10" class="node">
<title>Node61170</title>
<g id="a_node10"><a xlink:href="quickjs_8c.html#a70b7ec8358ab99b905686d5bf80950cc" target="_top" xlink:title="js_array_slice">
<polygon fill="none" stroke="#000000" points="692,-359 692,-378 769,-378 769,-359 692,-359"/>
<text text-anchor="middle" x="730.5" y="-366" font-family="Helvetica,sans-Serif" font-size="10.00" fill="#000000">js_array_slice</text>
</a>
</g>
</g>
<!-- Node61166&#45;&gt;Node61170 -->
<g id="edge9" class="edge">
<title>Node61166&#45;&gt;Node61170</title>
<path fill="none" stroke="#191970" d="M627.0016,-394.46C648.1668,-389.1512 672.6858,-383.0012 692.5451,-378.0201"/>
<polygon fill="#191970" stroke="#191970" points="626.0779,-391.0832 617.2298,-396.911 627.7809,-397.8729 626.0779,-391.0832"/>
</g>
<!-- Node61164 -->
<g id="node12" class="node">
<title>Node61164</title>
<g id="a_node12"><a xlink:href="qjs_8cpp.html#a3c04138a5bfe5d72780bb7e82a18e627" target="_top" xlink:title="main">
<polygon fill="none" stroke="#000000" points="386,-138 386,-157 424,-157 424,-138 386,-138"/>
<text text-anchor="middle" x="405" y="-145" font-family="Helvetica,sans-Serif" font-size="10.00" fill="#000000">main</text>
</a>
</g>
</g>
<!-- Node61171&#45;&gt;Node61164 -->
<g id="edge11" class="edge">
<title>Node61171&#45;&gt;Node61164</title>
<path fill="none" stroke="#191970" d="M281.4057,-173.7379C316.8917,-166.2046 360.7853,-156.8864 385.5672,-151.6254"/>
<polygon fill="#191970" stroke="#191970" points="280.2244,-170.4106 271.1693,-175.911 281.6781,-177.258 280.2244,-170.4106"/>
</g>
<!-- Node61172 -->
<g id="node13" class="node">
<title>Node61172</title>
<g id="a_node13"><a xlink:href="quickjs-libc_8c.html#a1fbb3adc15e7b967479fc1940e99b67a" target="_top" xlink:title="worker_func">
<polygon fill="none" stroke="#000000" points="370,-176 370,-195 440,-195 440,-176 370,-176"/>
<text text-anchor="middle" x="405" y="-183" font-family="Helvetica,sans-Serif" font-size="10.00" fill="#000000">worker_func</text>
</a>
</g>
</g>
<!-- Node61171&#45;&gt;Node61172 -->
<g id="edge12" class="edge">
<title>Node61171&#45;&gt;Node61172</title>
<path fill="none" stroke="#191970" d="M287.1787,-185.5C314.7968,-185.5 346.4264,-185.5 369.9556,-185.5"/>
<polygon fill="#191970" stroke="#191970" points="286.8154,-182.0001 276.8154,-185.5 286.8154,-189.0001 286.8154,-182.0001"/>
</g>
<!-- Node61173 -->
<g id="node14" class="node">
<title>Node61173</title>
<g id="a_node14"><a xlink:href="quickjs-libc_8c.html#aff1e6131e8bf8b7eb25307623ad669e7" target="_top" xlink:title="js_worker_ctor">
<polygon fill="none" stroke="#ff0000" points="539,-157 539,-176 619,-176 619,-157 539,-157"/>
<text text-anchor="middle" x="579" y="-164" font-family="Helvetica,sans-Serif" font-size="10.00" fill="#000000">js_worker_ctor</text>
</a>
</g>
</g>
<!-- Node61172&#45;&gt;Node61173 -->
<g id="edge13" class="edge">
<title>Node61172&#45;&gt;Node61173</title>
<path fill="none" stroke="#191970" d="M450.3504,-180.5479C477.8151,-177.5489 512.5278,-173.7585 538.9717,-170.8709"/>
<polygon fill="#191970" stroke="#191970" points="449.7725,-177.0902 440.2115,-181.6551 450.5324,-184.0488 449.7725,-177.0902"/>
</g>
<!-- Node61177 -->
<g id="node16" class="node">
<title>Node61177</title>
<g id="a_node16"><a xlink:href="quickjs_8c.html#a3be661c1eaa7a31184410667862635a2" target="_top" xlink:title="js_typed_array_constructor">
<polygon fill="none" stroke="#000000" points="338,-233 338,-252 472,-252 472,-233 338,-233"/>
<text text-anchor="middle" x="405" y="-240" font-family="Helvetica,sans-Serif" font-size="10.00" fill="#000000">js_typed_array_constructor</text>
</a>
</g>
</g>
<!-- Node61176&#45;&gt;Node61177 -->
<g id="edge15" class="edge">
<title>Node61176&#45;&gt;Node61177</title>
<path fill="none" stroke="#191970" d="M312.2645,-252.3434C320.8942,-251.4274 329.5641,-250.5072 337.9527,-249.6168"/>
<polygon fill="#191970" stroke="#191970" points="311.7463,-248.8787 302.1717,-253.4147 312.4853,-255.8396 311.7463,-248.8787"/>
</g>
<!-- Node61178 -->
<g id="node17" class="node">
<title>Node61178</title>
<g id="a_node17"><a xlink:href="quickjs_8c.html#a177d09828596bfe6df4bd90b2e93989d" target="_top" xlink:title="JS_AddIntrinsicTypedArrays">
<polygon fill="none" stroke="#000000" points="508.5,-195 508.5,-214 649.5,-214 649.5,-195 508.5,-195"/>
<text text-anchor="middle" x="579" y="-202" font-family="Helvetica,sans-Serif" font-size="10.00" fill="#000000">JS_AddIntrinsicTypedArrays</text>
</a>
</g>
</g>
<!-- Node61177&#45;&gt;Node61178 -->
<g id="edge16" class="edge">
<title>Node61177&#45;&gt;Node61178</title>
<path fill="none" stroke="#191970" d="M458.8144,-230.7474C483.418,-225.3742 512.1867,-219.0914 535.4082,-214.0201"/>
<polygon fill="#191970" stroke="#191970" points="457.9305,-227.3579 448.9075,-232.911 459.4241,-234.1967 457.9305,-227.3579"/>
</g>
<!-- Node61179 -->
<g id="node18" class="node">
<title>Node61179</title>
<g id="a_node18"><a xlink:href="quickjs_8c.html#a00910faacc776e3c2c225aa117aab450" target="_top" xlink:title="JS_ReadTypedArray">
<polygon fill="none" stroke="#ff0000" points="525.5,-233 525.5,-252 632.5,-252 632.5,-233 525.5,-233"/>
<text text-anchor="middle" x="579" y="-240" font-family="Helvetica,sans-Serif" font-size="10.00" fill="#000000">JS_ReadTypedArray</text>
</a>
</g>
</g>
<!-- Node61177&#45;&gt;Node61179 -->
<g id="edge18" class="edge">
<title>Node61177&#45;&gt;Node61179</title>
<path fill="none" stroke="#191970" d="M482.6903,-242.5C497.1122,-242.5 511.8793,-242.5 525.3819,-242.5"/>
<polygon fill="#191970" stroke="#191970" points="482.273,-239.0001 472.2729,-242.5 482.2729,-246.0001 482.273,-239.0001"/>
</g>
<!-- Node61190 -->
<g id="node19" class="node">
<title>Node61190</title>
<g id="a_node19"><a xlink:href="quickjs_8c.html#ae5a8e884ec4a3364f63ebfeae6b08bdc" target="_top" xlink:title="js_typed_array___species\lCreate">
<polygon fill="none" stroke="#ff0000" points="514,-271.5 514,-301.5 644,-301.5 644,-271.5 514,-271.5"/>
<text text-anchor="start" x="522" y="-289.5" font-family="Helvetica,sans-Serif" font-size="10.00" fill="#000000">js_typed_array___species</text>
<text text-anchor="middle" x="579" y="-278.5" font-family="Helvetica,sans-Serif" font-size="10.00" fill="#000000">Create</text>
</a>
</g>
</g>
<!-- Node61177&#45;&gt;Node61190 -->
<g id="edge19" class="edge">
<title>Node61177&#45;&gt;Node61190</title>
<path fill="none" stroke="#191970" d="M452.5579,-254.5261C473.1972,-259.7453 497.5933,-265.9144 519.4233,-271.4346"/>
<polygon fill="#191970" stroke="#191970" points="453.3083,-251.1058 442.7554,-252.0473 451.5922,-257.8922 453.3083,-251.1058"/>
</g>
<!-- Node61178&#45;&gt;Node61161 -->
<g id="edge17" class="edge">
<title>Node61178&#45;&gt;Node61161</title>
<path fill="none" stroke="#191970" d="M625.6729,-216.7073C633.7983,-218.9131 642.1564,-221.2335 650,-223.5 666.8708,-228.375 685.6132,-234.1728 700.7656,-238.9572"/>
<polygon fill="#191970" stroke="#191970" points="626.4933,-213.3036 615.9273,-214.0848 624.6743,-220.0631 626.4933,-213.3036"/>
</g>
<!-- Node61190&#45;&gt;Node61168 -->
<g id="edge20" class="edge">
<title>Node61190&#45;&gt;Node61168</title>
<path fill="none" stroke="#191970" d="M654.133,-297.4104C666.6458,-299.2274 679.1811,-301.0478 690.373,-302.673"/>
<polygon fill="#191970" stroke="#191970" points="654.5281,-293.9311 644.1289,-295.9577 653.5221,-300.8585 654.5281,-293.9311"/>
</g>
<!-- Node61193&#45;&gt;Node61177 -->
<g id="edge22" class="edge">
<title>Node61193&#45;&gt;Node61177</title>
<path fill="none" stroke="#191970" d="M310.1304,-232.43C319.4212,-233.4162 328.7895,-234.4106 337.8328,-235.3705"/>
<polygon fill="#191970" stroke="#191970" points="310.4119,-228.9403 300.0983,-231.3652 309.6729,-235.9012 310.4119,-228.9403"/>
</g>
<!-- Node61196 -->
<g id="node23" class="node">
<title>Node61196</title>
<g id="a_node23"><a xlink:href="quickjs_8c.html#af7649a967804b86dcc5e5e66df32769e" target="_top" xlink:title="js_typed_array_set">
<polygon fill="none" stroke="#000000" points="355.5,-94 355.5,-113 454.5,-113 454.5,-94 355.5,-94"/>
<text text-anchor="middle" x="405" y="-101" font-family="Helvetica,sans-Serif" font-size="10.00" fill="#000000">js_typed_array_set</text>
</a>
</g>
</g>
<!-- Node61195&#45;&gt;Node61196 -->
<g id="edge25" class="edge">
<title>Node61195&#45;&gt;Node61196</title>
<path fill="none" stroke="#191970" d="M285.9994,-103.5C308.5474,-103.5 333.908,-103.5 355.4059,-103.5"/>
<polygon fill="#191970" stroke="#191970" points="285.8615,-100.0001 275.8615,-103.5 285.8614,-107.0001 285.8615,-100.0001"/>
</g>
<!-- Node61198 -->
<g id="node25" class="node">
<title>Node61198</title>
<g id="a_node25"><a xlink:href="quickjs_8c.html#a7a5c4f3ad3260974d9a0c75120ce5647" target="_top" xlink:title="js_promise_all">
<polygon fill="none" stroke="#000000" points="539.5,-31 539.5,-50 618.5,-50 618.5,-31 539.5,-31"/>
<text text-anchor="middle" x="579" y="-38" font-family="Helvetica,sans-Serif" font-size="10.00" fill="#000000">js_promise_all</text>
</a>
</g>
</g>
<!-- Node61197&#45;&gt;Node61198 -->
<g id="edge27" class="edge">
<title>Node61197&#45;&gt;Node61198</title>
<path fill="none" stroke="#191970" d="M309.6113,-54.9997C382.2035,-51.0924 484.113,-45.6072 539.456,-42.6284"/>
<polygon fill="#191970" stroke="#191970" points="309.3681,-51.5076 299.5707,-55.5401 309.7444,-58.4975 309.3681,-51.5076"/>
</g>
<!-- Node61199 -->
<g id="node26" class="node">
<title>Node61199</title>
<g id="a_node26"><a xlink:href="quickjs_8c.html#a0bfdeb7e158aebcb79b7c9367a60be80" target="_top" xlink:title="js_promise_all_resolve\l_element">
<polygon fill="none" stroke="#000000" points="347,-3.5 347,-33.5 463,-33.5 463,-3.5 347,-3.5"/>
<text text-anchor="start" x="355" y="-21.5" font-family="Helvetica,sans-Serif" font-size="10.00" fill="#000000">js_promise_all_resolve</text>
<text text-anchor="middle" x="405" y="-10.5" font-family="Helvetica,sans-Serif" font-size="10.00" fill="#000000">_element</text>
</a>
</g>
</g>
<!-- Node61197&#45;&gt;Node61199 -->
<g id="edge28" class="edge">
<title>Node61197&#45;&gt;Node61199</title>
<path fill="none" stroke="#191970" d="M277.5008,-47.7037C299.1482,-42.7454 324.4378,-36.9528 346.7601,-31.8399"/>
<polygon fill="#191970" stroke="#191970" points="276.4822,-44.3463 267.5161,-49.9907 278.0452,-51.1696 276.4822,-44.3463"/>
</g>
<!-- Node61199&#45;&gt;Node61198 -->
<g id="edge29" class="edge">
<title>Node61199&#45;&gt;Node61198</title>
<path fill="none" stroke="#191970" d="M473.5404,-27.166C495.8688,-29.9892 519.8978,-33.0273 539.3713,-35.4895"/>
<polygon fill="#191970" stroke="#191970" points="473.7836,-23.669 463.4235,-25.8869 472.9055,-30.6137 473.7836,-23.669"/>
</g>
</g>
</svg>
        <g id="navigator" transform="translate(0 0)" fill="#404254">
                <rect fill="#f2f5e9" fill-opacity="0.5" stroke="#606060" stroke-width=".5" x="0" y="0" width="60" height="60"/>
                <use id="zoomplus" xlink:href="#zoomPlus" x="17" y="9" onmousedown="handleZoom(evt,'in')"/>
                <use id="zoomminus" xlink:href="#zoomMin" x="42" y="9" onmousedown="handleZoom(evt,'out')"/>
                <use id="reset" xlink:href="#resetDef" x="30" y="36" onmousedown="handleReset()"/>
                <g id="arrowUp" xlink:href="#dirArrow" transform="translate(30 24)" onmousedown="handlePan(0,-1)">
                  <use xlink:href="#rim" fill="#404040">
                        <set attributeName="fill" to="#808080" begin="arrowUp.mouseover" end="arrowUp.mouseout"/>
                  </use>
                  <path fill="none" stroke="white" stroke-width="1.5" d="M0,-3.0v7 M-2.5,-0.5L0,-3.0L2.5,-0.5"/>
                </g>
                <g id="arrowRight" xlink:href="#dirArrow" transform="rotate(90) translate(36 -43)" onmousedown="handlePan(1,0)">
                  <use xlink:href="#rim" fill="#404040">
                        <set attributeName="fill" to="#808080" begin="arrowRight.mouseover" end="arrowRight.mouseout"/>
                  </use>
                  <path fill="none" stroke="white" stroke-width="1.5" d="M0,-3.0v7 M-2.5,-0.5L0,-3.0L2.5,-0.5"/>
                </g>
                <g id="arrowDown" xlink:href="#dirArrow" transform="rotate(180) translate(-30 -48)" onmousedown="handlePan(0,1)">
                  <use xlink:href="#rim" fill="#404040">
                        <set attributeName="fill" to="#808080" begin="arrowDown.mouseover" end="arrowDown.mouseout"/>
                  </use>
                  <path fill="none" stroke="white" stroke-width="1.5" d="M0,-3.0v7 M-2.5,-0.5L0,-3.0L2.5,-0.5"/>
                </g>
                <g id="arrowLeft" xlink:href="#dirArrow" transform="rotate(270) translate(-36 17)" onmousedown="handlePan(-1,0)">
                  <use xlink:href="#rim" fill="#404040">
                        <set attributeName="fill" to="#808080" begin="arrowLeft.mouseover" end="arrowLeft.mouseout"/>
                  </use>
                  <path fill="none" stroke="white" stroke-width="1.5" d="M0,-3.0v7 M-2.5,-0.5L0,-3.0L2.5,-0.5"/>
                </g>
        </g>
        <svg viewBox="0 0 15 15" width="100%" height="30px" preserveAspectRatio="xMaxYMin meet">
         <g id="arrow_out" transform="scale(0.3 0.3)">
          <a xlink:href="quickjs_8h_aae909eaec829081b270012adfcd717a4_icgraph_org.svg" target="_base">
           <rect id="button" ry="5" rx="5" y="6" x="6" height="38" width="38"
                fill="#f2f5e9" fill-opacity="0.5" stroke="#606060" stroke-width="1.0"/>
           <path id="arrow"
             d="M 11.500037,31.436501 C 11.940474,20.09759 22.043105,11.32322 32.158766,21.979434 L 37.068811,17.246167 C 37.068811,17.246167 37.088388,32 37.088388,32 L 22.160133,31.978069 C 22.160133,31.978069 26.997745,27.140456 26.997745,27.140456 C 18.528582,18.264221 13.291696,25.230495 11.500037,31.436501 z"
             style="fill:#404040;"/>
          </a>
         </g>
        </svg>
</svg>
