<?xml version="1.0" encoding="UTF-8" standalone="no"?>
<!DOCTYPE svg PUBLIC "-//W3C//DTD SVG 1.1//EN"
 "http://www.w3.org/Graphics/SVG/1.1/DTD/svg11.dtd">
<!-- Generated by graphviz version 2.40.1 (20161225.0304)
 -->
<!-- Title: JS_DeletePropertyInt64 Pages: 1 -->
<svg width="829pt" height="762pt"
 viewBox="0.00 0.00 829.00 762.00" xmlns="http://www.w3.org/2000/svg" xmlns:xlink="http://www.w3.org/1999/xlink">
<g id="graph0" class="graph" transform="scale(1 1) rotate(0) translate(4 758)">
<title>JS_DeletePropertyInt64</title>
<!-- Node222428 -->
<g id="node1" class="node">
<title>Node222428</title>
<polygon fill="#bfbfbf" stroke="#000000" points="0,-582.5 0,-601.5 121,-601.5 121,-582.5 0,-582.5"/>
<text text-anchor="middle" x="60.5" y="-589.5" font-family="Helvetica,sans-Serif" font-size="10.00" fill="#000000">JS_DeletePropertyInt64</text>
</g>
<!-- Node222429 -->
<g id="node2" class="node">
<title>Node222429</title>
<g id="a_node2"><a xlink:href="quickjs_8c.html#a877fcb7651d95b411ce70e62b7f4a1f0" target="_top" xlink:title="__JS_AtomFromUInt32">
<polygon fill="none" stroke="#000000" points="575.5,-658.5 575.5,-677.5 694.5,-677.5 694.5,-658.5 575.5,-658.5"/>
<text text-anchor="middle" x="635" y="-665.5" font-family="Helvetica,sans-Serif" font-size="10.00" fill="#000000">__JS_AtomFromUInt32</text>
</a>
</g>
</g>
<!-- Node222428&#45;&gt;Node222429 -->
<g id="edge1" class="edge">
<title>Node222428&#45;&gt;Node222429</title>
<path fill="none" stroke="#191970" d="M121.1665,-600.0255C228.6801,-614.2484 451.992,-643.7901 565.5088,-658.8071"/>
<polygon fill="#191970" stroke="#191970" points="565.1081,-662.2845 575.4807,-660.1263 566.0261,-655.3449 565.1081,-662.2845"/>
</g>
<!-- Node222430 -->
<g id="node3" class="node">
<title>Node222430</title>
<g id="a_node3"><a xlink:href="quickjs_8c.html#a2b88ed25233c441cbed7b0a027c9ee2f" target="_top" xlink:title="JS_DeleteProperty">
<polygon fill="none" stroke="#000000" points="157,-468.5 157,-487.5 256,-487.5 256,-468.5 157,-468.5"/>
<text text-anchor="middle" x="206.5" y="-475.5" font-family="Helvetica,sans-Serif" font-size="10.00" fill="#000000">JS_DeleteProperty</text>
</a>
</g>
</g>
<!-- Node222428&#45;&gt;Node222430 -->
<g id="edge2" class="edge">
<title>Node222428&#45;&gt;Node222430</title>
<path fill="none" stroke="#191970" d="M72.6968,-582.4765C97.7546,-562.9108 155.2579,-518.0109 186.089,-493.9374"/>
<polygon fill="#191970" stroke="#191970" points="188.3006,-496.6511 194.0285,-487.738 183.9925,-491.1338 188.3006,-496.6511"/>
</g>
<!-- Node222483 -->
<g id="node12" class="node">
<title>Node222483</title>
<g id="a_node12"><a xlink:href="quickjs_8c.html#ab7fc45a99935a1c0ba50b0216d9401a9" target="_top" xlink:title="JS_FreeAtom">
<polygon fill="none" stroke="#ff0000" points="434.5,-.5 434.5,-19.5 511.5,-19.5 511.5,-.5 434.5,-.5"/>
<text text-anchor="middle" x="473" y="-7.5" font-family="Helvetica,sans-Serif" font-size="10.00" fill="#000000">JS_FreeAtom</text>
</a>
</g>
</g>
<!-- Node222428&#45;&gt;Node222483 -->
<g id="edge30" class="edge">
<title>Node222428&#45;&gt;Node222483</title>
<path fill="none" stroke="#191970" d="M64.8149,-582.3562C86.1067,-535.2101 183.3197,-325.0283 292,-171 337.9199,-105.9196 346.5314,-83.775 411,-37 418.1715,-31.7968 426.5029,-27.3149 434.6871,-23.5812"/>
<polygon fill="#191970" stroke="#191970" points="436.3249,-26.6877 444.1487,-19.5435 433.5774,-20.2494 436.3249,-26.6877"/>
</g>
<!-- Node222860 -->
<g id="node22" class="node">
<title>Node222860</title>
<g id="a_node22"><a xlink:href="quickjs_8c.html#aa641af3a921335927dab07dc83285917" target="_top" xlink:title="JS_NewAtomInt64">
<polygon fill="none" stroke="#000000" points="423.5,-696.5 423.5,-715.5 522.5,-715.5 522.5,-696.5 423.5,-696.5"/>
<text text-anchor="middle" x="473" y="-703.5" font-family="Helvetica,sans-Serif" font-size="10.00" fill="#000000">JS_NewAtomInt64</text>
</a>
</g>
</g>
<!-- Node222428&#45;&gt;Node222860 -->
<g id="edge31" class="edge">
<title>Node222428&#45;&gt;Node222860</title>
<path fill="none" stroke="#191970" d="M67.1411,-601.543C81.1571,-620.7925 115.877,-663.9709 157,-682 240.2247,-718.4873 347.595,-717.8834 413.3127,-712.8609"/>
<polygon fill="#191970" stroke="#191970" points="413.8136,-716.3316 423.4923,-712.0219 413.2385,-709.3552 413.8136,-716.3316"/>
</g>
<!-- Node222431 -->
<g id="node4" class="node">
<title>Node222431</title>
<g id="a_node4"><a xlink:href="quickjs_8c.html#a2b9a2014cb970af5b5b7dde00afbdffa" target="_top" xlink:title="delete_property">
<polygon fill="none" stroke="#000000" points="292,-180.5 292,-199.5 375,-199.5 375,-180.5 292,-180.5"/>
<text text-anchor="middle" x="333.5" y="-187.5" font-family="Helvetica,sans-Serif" font-size="10.00" fill="#000000">delete_property</text>
</a>
</g>
</g>
<!-- Node222430&#45;&gt;Node222431 -->
<g id="edge3" class="edge">
<title>Node222430&#45;&gt;Node222431</title>
<path fill="none" stroke="#191970" d="M210.7255,-468.4177C228.8804,-427.2476 300.4531,-264.941 325.104,-209.0398"/>
<polygon fill="#191970" stroke="#191970" points="328.4262,-210.1804 329.2586,-199.6183 322.0213,-207.3559 328.4262,-210.1804"/>
</g>
<!-- Node222484 -->
<g id="node13" class="node">
<title>Node222484</title>
<g id="a_node13"><a xlink:href="quickjs_8h.html#afaa20c47565bc704c6c85f3d77254e7d" target="_top" xlink:title="JS_FreeValue">
<polygon fill="none" stroke="#ff0000" points="596,-373.5 596,-392.5 674,-392.5 674,-373.5 596,-373.5"/>
<text text-anchor="middle" x="635" y="-380.5" font-family="Helvetica,sans-Serif" font-size="10.00" fill="#000000">JS_FreeValue</text>
</a>
</g>
</g>
<!-- Node222430&#45;&gt;Node222484 -->
<g id="edge18" class="edge">
<title>Node222430&#45;&gt;Node222484</title>
<path fill="none" stroke="#191970" d="M221.0865,-468.4677C253.5537,-447.8891 334.9312,-399.8063 411,-383 469.9563,-369.9744 539.7915,-372.7483 585.6252,-376.9485"/>
<polygon fill="#191970" stroke="#191970" points="585.3053,-380.4339 595.5975,-377.9198 585.9839,-373.4668 585.3053,-380.4339"/>
</g>
<!-- Node222497 -->
<g id="node14" class="node">
<title>Node222497</title>
<g id="a_node14"><a xlink:href="quickjs_8c.html#a686cf78f8b0361621ee2ba6182195c31" target="_top" xlink:title="is_strict_mode">
<polygon fill="none" stroke="#000000" points="293.5,-449.5 293.5,-468.5 373.5,-468.5 373.5,-449.5 293.5,-449.5"/>
<text text-anchor="middle" x="333.5" y="-456.5" font-family="Helvetica,sans-Serif" font-size="10.00" fill="#000000">is_strict_mode</text>
</a>
</g>
</g>
<!-- Node222430&#45;&gt;Node222497 -->
<g id="edge17" class="edge">
<title>Node222430&#45;&gt;Node222497</title>
<path fill="none" stroke="#191970" d="M256.3293,-470.5452C265.12,-469.2301 274.2776,-467.86 283.0843,-466.5425"/>
<polygon fill="#191970" stroke="#191970" points="283.8462,-469.9676 293.2183,-465.0264 282.8105,-463.0446 283.8462,-469.9676"/>
</g>
<!-- Node222498 -->
<g id="node15" class="node">
<title>Node222498</title>
<g id="a_node15"><a xlink:href="quickjs_8h.html#ad80a83d73e9b7d872b88fbf2943aebe9" target="_top" xlink:title="JS_IsException">
<polygon fill="none" stroke="#000000" points="592,-582.5 592,-601.5 678,-601.5 678,-582.5 592,-582.5"/>
<text text-anchor="middle" x="635" y="-589.5" font-family="Helvetica,sans-Serif" font-size="10.00" fill="#000000">JS_IsException</text>
</a>
</g>
</g>
<!-- Node222430&#45;&gt;Node222498 -->
<g id="edge19" class="edge">
<title>Node222430&#45;&gt;Node222498</title>
<path fill="none" stroke="#191970" d="M216.4649,-487.6322C244.3273,-513.8063 326.5447,-585.9522 411,-611 473.2681,-629.4675 549.2368,-615.8964 594.7812,-604.1365"/>
<polygon fill="#191970" stroke="#191970" points="595.8194,-607.4819 604.5736,-601.514 594.0085,-600.7201 595.8194,-607.4819"/>
</g>
<!-- Node222499 -->
<g id="node16" class="node">
<title>Node222499</title>
<g id="a_node16"><a xlink:href="quickjs_8c.html#a710289a14c2810467e5b448d3c28bd55" target="_top" xlink:title="JS_ToObject">
<polygon fill="none" stroke="#000000" points="296.5,-487.5 296.5,-506.5 370.5,-506.5 370.5,-487.5 296.5,-487.5"/>
<text text-anchor="middle" x="333.5" y="-494.5" font-family="Helvetica,sans-Serif" font-size="10.00" fill="#000000">JS_ToObject</text>
</a>
</g>
</g>
<!-- Node222430&#45;&gt;Node222499 -->
<g id="edge20" class="edge">
<title>Node222430&#45;&gt;Node222499</title>
<path fill="none" stroke="#191970" d="M256.3293,-485.4548C266.2318,-486.9363 276.6,-488.4874 286.4076,-489.9547"/>
<polygon fill="#191970" stroke="#191970" points="285.9744,-493.4287 296.3822,-491.4469 287.0102,-486.5058 285.9744,-493.4287"/>
</g>
<!-- Node222432 -->
<g id="node5" class="node">
<title>Node222432</title>
<g id="a_node5"><a xlink:href="quickjs_8c.html#ab638a184d14e8b02ab3ea38b393c7cad" target="_top" xlink:title="compact_properties">
<polygon fill="none" stroke="#ff0000" points="422,-114.5 422,-133.5 524,-133.5 524,-114.5 422,-114.5"/>
<text text-anchor="middle" x="473" y="-121.5" font-family="Helvetica,sans-Serif" font-size="10.00" fill="#000000">compact_properties</text>
</a>
</g>
</g>
<!-- Node222431&#45;&gt;Node222432 -->
<g id="edge4" class="edge">
<title>Node222431&#45;&gt;Node222432</title>
<path fill="none" stroke="#191970" d="M346.9344,-180.4302C361.9599,-170.0727 387.3059,-153.6169 411,-143 416.0085,-140.7558 421.3577,-138.6773 426.7364,-136.7828"/>
<polygon fill="#191970" stroke="#191970" points="427.9977,-140.0519 436.3825,-133.5754 425.7889,-133.4095 427.9977,-140.0519"/>
</g>
<!-- Node222434 -->
<g id="node6" class="node">
<title>Node222434</title>
<g id="a_node6"><a xlink:href="quickjs_8c.html#acab22c2945c4d609e57a2484feb68a96" target="_top" xlink:title="prop_hash_end">
<polygon fill="none" stroke="#000000" points="593.5,-158.5 593.5,-177.5 676.5,-177.5 676.5,-158.5 593.5,-158.5"/>
<text text-anchor="middle" x="635" y="-165.5" font-family="Helvetica,sans-Serif" font-size="10.00" fill="#000000">prop_hash_end</text>
</a>
</g>
</g>
<!-- Node222431&#45;&gt;Node222434 -->
<g id="edge16" class="edge">
<title>Node222431&#45;&gt;Node222434</title>
<path fill="none" stroke="#191970" d="M375.326,-191.277C386.882,-191.576 399.4259,-191.8507 411,-192 466.1065,-192.7109 480.2707,-198.4756 535,-192 554.4162,-189.7027 575.5196,-184.9792 593.3138,-180.3256"/>
<polygon fill="#191970" stroke="#191970" points="594.6274,-183.5964 603.3706,-177.6125 592.8042,-176.838 594.6274,-183.5964"/>
</g>
<!-- Node222447 -->
<g id="node7" class="node">
<title>Node222447</title>
<g id="a_node7"><a xlink:href="quickjs_8c.html#ac93c982cb636a5430b191d104083af3e" target="_top" xlink:title="convert_fast_array\l_to_array">
<polygon fill="none" stroke="#ff0000" points="424,-153 424,-183 522,-183 522,-153 424,-153"/>
<text text-anchor="start" x="432" y="-171" font-family="Helvetica,sans-Serif" font-size="10.00" fill="#000000">convert_fast_array</text>
<text text-anchor="middle" x="473" y="-160" font-family="Helvetica,sans-Serif" font-size="10.00" fill="#000000">_to_array</text>
</a>
</g>
</g>
<!-- Node222431&#45;&gt;Node222447 -->
<g id="edge6" class="edge">
<title>Node222431&#45;&gt;Node222447</title>
<path fill="none" stroke="#191970" d="M375.3546,-183.3993C387.3866,-181.5018 400.7445,-179.3951 413.6202,-177.3646"/>
<polygon fill="#191970" stroke="#191970" points="414.4757,-180.773 423.8083,-175.7578 413.3851,-173.8584 414.4757,-180.773"/>
</g>
<!-- Node222492 -->
<g id="node8" class="node">
<title>Node222492</title>
<g id="a_node8"><a xlink:href="quickjs_8c.html#a3dd8e78607dbc729614deacf55901b95" target="_top" xlink:title="js_shape_prepare_update">
<polygon fill="none" stroke="#ff0000" points="571,-76.5 571,-95.5 699,-95.5 699,-76.5 571,-76.5"/>
<text text-anchor="middle" x="635" y="-83.5" font-family="Helvetica,sans-Serif" font-size="10.00" fill="#000000">js_shape_prepare_update</text>
</a>
</g>
</g>
<!-- Node222431&#45;&gt;Node222492 -->
<g id="edge15" class="edge">
<title>Node222431&#45;&gt;Node222492</title>
<path fill="none" stroke="#191970" d="M338.821,-180.4726C349.6623,-162.1122 376.2522,-122.1323 411,-105 457.2121,-82.2153 515.3311,-77.8774 560.7873,-79.02"/>
<polygon fill="#191970" stroke="#191970" points="560.7583,-82.5209 570.873,-79.3676 560.9995,-75.5251 560.7583,-82.5209"/>
</g>
<!-- Node222451 -->
<g id="node9" class="node">
<title>Node222451</title>
<g id="a_node9"><a xlink:href="quickjs_8c.html#a643df594b75933007bcdbb071b5ea8c5" target="_top" xlink:title="get_shape_prop">
<polygon fill="none" stroke="#000000" points="735,-57.5 735,-76.5 821,-76.5 821,-57.5 735,-57.5"/>
<text text-anchor="middle" x="778" y="-64.5" font-family="Helvetica,sans-Serif" font-size="10.00" fill="#000000">get_shape_prop</text>
</a>
</g>
</g>
<!-- Node222431&#45;&gt;Node222451 -->
<g id="edge11" class="edge">
<title>Node222431&#45;&gt;Node222451</title>
<path fill="none" stroke="#191970" d="M336.6532,-180.4411C344.7609,-157.5904 368.7185,-99.9269 411,-76 513.5104,-17.9898 659.2761,-39.045 732.4217,-55.242"/>
<polygon fill="#191970" stroke="#191970" points="731.7205,-58.6719 742.2488,-57.4865 733.2792,-51.8476 731.7205,-58.6719"/>
</g>
<!-- Node222488 -->
<g id="node10" class="node">
<title>Node222488</title>
<g id="a_node10"><a xlink:href="quickjs_8c.html#af4274494e2e45f9018154ffcbb7e89e4" target="_top" xlink:title="free_property">
<polygon fill="none" stroke="#ff0000" points="436,-278.5 436,-297.5 510,-297.5 510,-278.5 436,-278.5"/>
<text text-anchor="middle" x="473" y="-285.5" font-family="Helvetica,sans-Serif" font-size="10.00" fill="#000000">free_property</text>
</a>
</g>
</g>
<!-- Node222431&#45;&gt;Node222488 -->
<g id="edge10" class="edge">
<title>Node222431&#45;&gt;Node222488</title>
<path fill="none" stroke="#191970" d="M340.2705,-199.5254C352.5157,-216.0675 379.9701,-250.1384 411,-269 415.7499,-271.8873 420.974,-274.3676 426.3126,-276.4905"/>
<polygon fill="#191970" stroke="#191970" points="425.3734,-279.8715 435.968,-279.9365 427.7263,-273.2788 425.3734,-279.8715"/>
</g>
<!-- Node222493 -->
<g id="node11" class="node">
<title>Node222493</title>
<g id="a_node11"><a xlink:href="quickjs_8c.html#aae16c5cdefab4e9dd9866993a7f0150e" target="_top" xlink:title="JS_AtomIsArrayIndex">
<polygon fill="none" stroke="#ff0000" points="416.5,-240.5 416.5,-259.5 529.5,-259.5 529.5,-240.5 416.5,-240.5"/>
<text text-anchor="middle" x="473" y="-247.5" font-family="Helvetica,sans-Serif" font-size="10.00" fill="#000000">JS_AtomIsArrayIndex</text>
</a>
</g>
</g>
<!-- Node222431&#45;&gt;Node222493 -->
<g id="edge12" class="edge">
<title>Node222431&#45;&gt;Node222493</title>
<path fill="none" stroke="#191970" d="M353.0896,-199.533C368.6632,-207.0062 391.0675,-217.5234 411,-226 419.5662,-229.6429 428.8883,-233.3724 437.64,-236.7725"/>
<polygon fill="#191970" stroke="#191970" points="436.6178,-240.1291 447.2078,-240.449 439.1287,-233.595 436.6178,-240.1291"/>
</g>
<!-- Node222431&#45;&gt;Node222483 -->
<g id="edge13" class="edge">
<title>Node222431&#45;&gt;Node222483</title>
<path fill="none" stroke="#191970" d="M337.3111,-180.1118C349.3552,-149.2868 387.2058,-55.7055 411,-34 415.3702,-30.0134 420.4755,-26.6611 425.8463,-23.849"/>
<polygon fill="#191970" stroke="#191970" points="427.4336,-26.9714 435.053,-19.6096 424.5058,-20.6131 427.4336,-26.9714"/>
</g>
<!-- Node222431&#45;&gt;Node222484 -->
<g id="edge14" class="edge">
<title>Node222431&#45;&gt;Node222484</title>
<path fill="none" stroke="#191970" d="M337.3225,-199.7422C346.5538,-222.0306 372.2049,-277.1124 411,-307 414.8117,-309.9365 533.1662,-349.329 596.2582,-370.2087"/>
<polygon fill="#191970" stroke="#191970" points="595.2903,-373.575 605.8836,-373.3924 597.4886,-366.9291 595.2903,-373.575"/>
</g>
<!-- Node222432&#45;&gt;Node222434 -->
<g id="edge5" class="edge">
<title>Node222432&#45;&gt;Node222434</title>
<path fill="none" stroke="#191970" d="M508.1516,-133.5473C532.1401,-140.0627 564.1281,-148.7508 589.9796,-155.7722"/>
<polygon fill="#191970" stroke="#191970" points="589.3492,-159.2278 599.917,-158.4713 591.184,-152.4725 589.3492,-159.2278"/>
</g>
<!-- Node222447&#45;&gt;Node222429 -->
<g id="edge7" class="edge">
<title>Node222447&#45;&gt;Node222429</title>
<path fill="none" stroke="#191970" d="M494.0656,-183.0875C508.2364,-194.5094 525.9284,-211.5252 535,-231 606.6327,-384.7797 494.3486,-459.6593 571,-611 579.7407,-628.2577 596.111,-642.6883 610.1065,-652.712"/>
<polygon fill="#191970" stroke="#191970" points="608.1873,-655.6395 618.4244,-658.3696 612.1242,-649.8514 608.1873,-655.6395"/>
</g>
<!-- Node222447&#45;&gt;Node222492 -->
<g id="edge8" class="edge">
<title>Node222447&#45;&gt;Node222492</title>
<path fill="none" stroke="#191970" d="M512.7066,-152.9164C520.1914,-149.8129 527.8959,-146.4376 535,-143 561.7095,-130.0755 591.0771,-112.968 611.0336,-100.8779"/>
<polygon fill="#191970" stroke="#191970" points="613.0499,-103.7476 619.7592,-95.5478 609.4009,-97.7739 613.0499,-103.7476"/>
</g>
<!-- Node222492&#45;&gt;Node222451 -->
<g id="edge9" class="edge">
<title>Node222492&#45;&gt;Node222451</title>
<path fill="none" stroke="#191970" d="M699.3884,-77.4449C707.9264,-76.3105 716.601,-75.1579 724.9187,-74.0528"/>
<polygon fill="#191970" stroke="#191970" points="725.4025,-77.5193 734.8544,-72.7326 724.4805,-70.5803 725.4025,-77.5193"/>
</g>
<!-- Node222499&#45;&gt;Node222498 -->
<g id="edge24" class="edge">
<title>Node222499&#45;&gt;Node222498</title>
<path fill="none" stroke="#191970" d="M350.5921,-506.66C366.0027,-515.0567 389.4826,-527.0839 411,-535 467.8953,-555.9314 535.6486,-572.0088 581.6304,-581.6718"/>
<polygon fill="#191970" stroke="#191970" points="581.1734,-585.1513 591.6756,-583.7535 582.5939,-578.297 581.1734,-585.1513"/>
</g>
<!-- Node222500 -->
<g id="node17" class="node">
<title>Node222500</title>
<g id="a_node17"><a xlink:href="quickjs_8c.html#a0a8765bd4012467d9139bc24aabcb3ca" target="_top" xlink:title="JS_DefinePropertyValue">
<polygon fill="none" stroke="#ff0000" points="411,-392.5 411,-411.5 535,-411.5 535,-392.5 411,-392.5"/>
<text text-anchor="middle" x="473" y="-399.5" font-family="Helvetica,sans-Serif" font-size="10.00" fill="#000000">JS_DefinePropertyValue</text>
</a>
</g>
</g>
<!-- Node222499&#45;&gt;Node222500 -->
<g id="edge21" class="edge">
<title>Node222499&#45;&gt;Node222500</title>
<path fill="none" stroke="#191970" d="M360.3416,-487.4832C365.5428,-484.901 370.7047,-481.7552 375,-478 397.5576,-458.2787 387.191,-439.1909 411,-421 413.4699,-419.1129 416.1281,-417.4119 418.9054,-415.8787"/>
<polygon fill="#191970" stroke="#191970" points="420.553,-418.9713 428.0959,-411.5312 417.5596,-412.6436 420.553,-418.9713"/>
</g>
<!-- Node222463 -->
<g id="node18" class="node">
<title>Node222463</title>
<g id="a_node18"><a xlink:href="quickjs_8h.html#a775522f2d084fc8fa0fcb33f390006b4" target="_top" xlink:title="JS_DupValue">
<polygon fill="none" stroke="#000000" points="434.5,-468.5 434.5,-487.5 511.5,-487.5 511.5,-468.5 434.5,-468.5"/>
<text text-anchor="middle" x="473" y="-475.5" font-family="Helvetica,sans-Serif" font-size="10.00" fill="#000000">JS_DupValue</text>
</a>
</g>
</g>
<!-- Node222499&#45;&gt;Node222463 -->
<g id="edge23" class="edge">
<title>Node222499&#45;&gt;Node222463</title>
<path fill="none" stroke="#191970" d="M370.5172,-491.9582C386.9811,-489.7158 406.5918,-487.0448 424.2291,-484.6426"/>
<polygon fill="#191970" stroke="#191970" points="424.9108,-488.0822 434.347,-483.2646 423.9661,-481.1462 424.9108,-488.0822"/>
</g>
<!-- Node222550 -->
<g id="node19" class="node">
<title>Node222550</title>
<g id="a_node19"><a xlink:href="quickjs_8h.html#a2050bc428da1c65ac7eb87c3fa3b0392" target="_top" xlink:title="JS_NewInt32">
<polygon fill="none" stroke="#000000" points="435,-430.5 435,-449.5 511,-449.5 511,-430.5 435,-430.5"/>
<text text-anchor="middle" x="473" y="-437.5" font-family="Helvetica,sans-Serif" font-size="10.00" fill="#000000">JS_NewInt32</text>
</a>
</g>
</g>
<!-- Node222499&#45;&gt;Node222550 -->
<g id="edge25" class="edge">
<title>Node222499&#45;&gt;Node222550</title>
<path fill="none" stroke="#191970" d="M355.1479,-487.3673C361.573,-484.4335 368.6017,-481.15 375,-478 391.2312,-470.009 394.2771,-465.9032 411,-459 416.4665,-456.7434 422.3002,-454.6129 428.1202,-452.6517"/>
<polygon fill="#191970" stroke="#191970" points="429.3917,-455.9193 437.8347,-449.5187 427.2431,-449.2571 429.3917,-455.9193"/>
</g>
<!-- Node222620 -->
<g id="node20" class="node">
<title>Node222620</title>
<g id="a_node20"><a xlink:href="quickjs_8c.html#a659dc0db7e440fd6eb012d613627faa3" target="_top" xlink:title="JS_NewObjectClass">
<polygon fill="none" stroke="#ff0000" points="419,-582.5 419,-601.5 527,-601.5 527,-582.5 419,-582.5"/>
<text text-anchor="middle" x="473" y="-589.5" font-family="Helvetica,sans-Serif" font-size="10.00" fill="#000000">JS_NewObjectClass</text>
</a>
</g>
</g>
<!-- Node222499&#45;&gt;Node222620 -->
<g id="edge26" class="edge">
<title>Node222499&#45;&gt;Node222620</title>
<path fill="none" stroke="#191970" d="M342.1101,-506.9776C355.5161,-521.989 382.783,-550.486 411,-568 417.4724,-572.0174 424.7285,-575.5585 431.9339,-578.6019"/>
<polygon fill="#191970" stroke="#191970" points="431.0632,-582.0212 441.6497,-582.4416 433.636,-575.5111 431.0632,-582.0212"/>
</g>
<!-- Node222859 -->
<g id="node21" class="node">
<title>Node222859</title>
<g id="a_node21"><a xlink:href="quickjs_8c.html#a5cfd8b63940fcb5151b4df41e32dc68c" target="_top" xlink:title="JS_SetObjectData">
<polygon fill="none" stroke="#000000" points="424,-506.5 424,-525.5 522,-525.5 522,-506.5 424,-506.5"/>
<text text-anchor="middle" x="473" y="-513.5" font-family="Helvetica,sans-Serif" font-size="10.00" fill="#000000">JS_SetObjectData</text>
</a>
</g>
</g>
<!-- Node222499&#45;&gt;Node222859 -->
<g id="edge27" class="edge">
<title>Node222499&#45;&gt;Node222859</title>
<path fill="none" stroke="#191970" d="M370.5172,-502.0418C383.8306,-503.8551 399.2017,-505.9486 413.923,-507.9537"/>
<polygon fill="#191970" stroke="#191970" points="413.5968,-511.4415 423.9777,-509.3231 414.5415,-504.5055 413.5968,-511.4415"/>
</g>
<!-- Node222500&#45;&gt;Node222484 -->
<g id="edge22" class="edge">
<title>Node222500&#45;&gt;Node222484</title>
<path fill="none" stroke="#191970" d="M535.1701,-394.7084C551.8586,-392.7512 569.676,-390.6615 585.5706,-388.7973"/>
<polygon fill="#191970" stroke="#191970" points="586.1826,-392.2496 595.7068,-387.6085 585.3671,-385.2972 586.1826,-392.2496"/>
</g>
<!-- Node222859&#45;&gt;Node222484 -->
<g id="edge28" class="edge">
<title>Node222859&#45;&gt;Node222484</title>
<path fill="none" stroke="#191970" d="M515.4284,-506.4529C522.2651,-503.958 529.0443,-500.8515 535,-497 574.4017,-471.5193 607.4107,-426.2614 623.8299,-401.1153"/>
<polygon fill="#191970" stroke="#191970" points="626.8681,-402.8603 629.2891,-392.5458 620.9643,-399.0993 626.8681,-402.8603"/>
</g>
<!-- Node222859&#45;&gt;Node222498 -->
<g id="edge29" class="edge">
<title>Node222859&#45;&gt;Node222498</title>
<path fill="none" stroke="#191970" d="M499.5109,-525.5275C510.5935,-529.6992 523.5352,-534.8192 535,-540 560.7079,-551.6172 589.1751,-566.6413 609.1407,-577.5508"/>
<polygon fill="#191970" stroke="#191970" points="607.4938,-580.6394 617.9422,-582.3945 610.8688,-574.5067 607.4938,-580.6394"/>
</g>
<!-- Node222860&#45;&gt;Node222429 -->
<g id="edge32" class="edge">
<title>Node222860&#45;&gt;Node222429</title>
<path fill="none" stroke="#191970" d="M513.8794,-696.411C535.3534,-691.3739 561.8605,-685.1562 584.597,-679.8229"/>
<polygon fill="#191970" stroke="#191970" points="585.4781,-683.2113 594.4145,-677.5201 583.8795,-676.3963 585.4781,-683.2113"/>
</g>
<!-- Node222860&#45;&gt;Node222498 -->
<g id="edge34" class="edge">
<title>Node222860&#45;&gt;Node222498</title>
<path fill="none" stroke="#191970" d="M486.5334,-696.4765C514.4562,-676.8271 578.6884,-631.6267 612.7891,-607.6299"/>
<polygon fill="#191970" stroke="#191970" points="614.9979,-610.3553 621.1617,-601.738 610.9694,-604.6307 614.9979,-610.3553"/>
</g>
<!-- Node222583 -->
<g id="node23" class="node">
<title>Node222583</title>
<g id="a_node23"><a xlink:href="quickjs_8c.html#acd08798ec15cc37c60d2e7d70007c6a8" target="_top" xlink:title="__JS_NewAtom">
<polygon fill="none" stroke="#ff0000" points="591,-734.5 591,-753.5 679,-753.5 679,-734.5 591,-734.5"/>
<text text-anchor="middle" x="635" y="-741.5" font-family="Helvetica,sans-Serif" font-size="10.00" fill="#000000">__JS_NewAtom</text>
</a>
</g>
</g>
<!-- Node222860&#45;&gt;Node222583 -->
<g id="edge33" class="edge">
<title>Node222860&#45;&gt;Node222583</title>
<path fill="none" stroke="#191970" d="M513.8794,-715.589C535.3534,-720.6261 561.8605,-726.8438 584.597,-732.1771"/>
<polygon fill="#191970" stroke="#191970" points="583.8795,-735.6037 594.4145,-734.4799 585.4781,-728.7887 583.8795,-735.6037"/>
</g>
<!-- Node222527 -->
<g id="node24" class="node">
<title>Node222527</title>
<g id="a_node24"><a xlink:href="quickjs_8c.html#a0ee6a3654a6016393fac5e1c108f403a" target="_top" xlink:title="JS_NewString">
<polygon fill="none" stroke="#ff0000" points="595,-696.5 595,-715.5 675,-715.5 675,-696.5 595,-696.5"/>
<text text-anchor="middle" x="635" y="-703.5" font-family="Helvetica,sans-Serif" font-size="10.00" fill="#000000">JS_NewString</text>
</a>
</g>
</g>
<!-- Node222860&#45;&gt;Node222527 -->
<g id="edge35" class="edge">
<title>Node222860&#45;&gt;Node222527</title>
<path fill="none" stroke="#191970" d="M522.9272,-706C542.64,-706 565.2468,-706 584.9697,-706"/>
<polygon fill="#191970" stroke="#191970" points="584.99,-709.5001 594.99,-706 584.9899,-702.5001 584.99,-709.5001"/>
</g>
</g>
</svg>
