<?xml version="1.0" encoding="UTF-8" standalone="no"?>
<!DOCTYPE svg PUBLIC "-//W3C//DTD SVG 1.1//EN"
 "http://www.w3.org/Graphics/SVG/1.1/DTD/svg11.dtd">
<!-- Generated by graphviz version 2.40.1 (20161225.0304)
 -->
<!-- Title: JS_RunModule Pages: 1 -->
<!--zoomable 663 -->
<svg id="main" version="1.1" xmlns="http://www.w3.org/2000/svg" xmlns:xlink="http://www.w3.org/1999/xlink" xml:space="preserve" onload="init(evt)">
<style type="text/css"><![CDATA[
.edge:hover path { stroke: red; }
.edge:hover polygon { stroke: red; fill: red; }
]]></style>
<script type="text/javascript"><![CDATA[
var edges = document.getElementsByTagName('g');
if (edges && edges.length) {
  for (var i=0;i<edges.length;i++) {
    if (edges[i].id.substr(0,4)=='edge') {
      edges[i].setAttribute('class','edge');
    }
  }
}
]]></script>
        <defs>
                <circle id="rim" cx="0" cy="0" r="7"/>
                <circle id="rim2" cx="0" cy="0" r="3.5"/>
                <g id="zoomPlus">
                        <use xlink:href="#rim" fill="#404040">
                                <set attributeName="fill" to="#808080" begin="zoomplus.mouseover" end="zoomplus.mouseout"/>
                        </use>
                        <path d="M-4,0h8M0,-4v8" fill="none" stroke="white" stroke-width="1.5" pointer-events="none"/>
                </g>
                <g id="zoomMin">
                        <use xlink:href="#rim" fill="#404040">
                                <set attributeName="fill" to="#808080" begin="zoomminus.mouseover" end="zoomminus.mouseout"/>
                        </use>
                        <path d="M-4,0h8" fill="none" stroke="white" stroke-width="1.5" pointer-events="none"/>
                </g>
                <g id="dirArrow">
                        <path fill="none" stroke="white" stroke-width="1.5" d="M0,-3.0v7 M-2.5,-0.5L0,-3.0L2.5,-0.5"/>
                </g>
               <g id="resetDef">
                       <use xlink:href="#rim2" fill="#404040">
                               <set attributeName="fill" to="#808080" begin="reset.mouseover" end="reset.mouseout"/>
                       </use>
               </g>
        </defs>

<script type="text/javascript">
var viewWidth = 1017;
var viewHeight = 663;
var sectionId = 'dynsection-1148';
</script>
<script xlink:href="svgpan.js"/>
<svg id="graph" class="graph">
<g id="viewport">
<title>JS_RunModule</title>
<!-- Node344102 -->
<g id="node1" class="node">
<title>Node344102</title>
<polygon fill="#bfbfbf" stroke="#000000" points="0,-365.5 0,-384.5 83,-384.5 83,-365.5 0,-365.5"/>
<text text-anchor="middle" x="41.5" y="-372.5" font-family="Helvetica,sans-Serif" font-size="10.00" fill="#000000">JS_RunModule</text>
</g>
<!-- Node344103 -->
<g id="node2" class="node">
<title>Node344103</title>
<g id="a_node2"><a xlink:href="quickjs_8h.html#a775522f2d084fc8fa0fcb33f390006b4" target="_top" xlink:title="JS_DupValue">
<polygon fill="none" stroke="#000000" points="633.5,-601.5 633.5,-620.5 710.5,-620.5 710.5,-601.5 633.5,-601.5"/>
<text text-anchor="middle" x="672" y="-608.5" font-family="Helvetica,sans-Serif" font-size="10.00" fill="#000000">JS_DupValue</text>
</a>
</g>
</g>
<!-- Node344102&#45;&gt;Node344103 -->
<g id="edge1" class="edge">
<title>Node344102&#45;&gt;Node344103</title>
<path fill="none" stroke="#191970" d="M43.5464,-384.6274C51.8347,-422.6428 84.1366,-561.4818 119,-587 198.2101,-644.9776 503.1751,-625.7039 623.1317,-615.5535"/>
<polygon fill="#191970" stroke="#191970" points="623.476,-619.0369 633.1387,-614.6914 622.8751,-612.0627 623.476,-619.0369"/>
</g>
<!-- Node344104 -->
<g id="node3" class="node">
<title>Node344104</title>
<g id="a_node3"><a xlink:href="quickjs_8c.html#af38ab3d672d41db0fa7a75b5c24149e4" target="_top" xlink:title="JS_EvalFunction">
<polygon fill="none" stroke="#000000" points="122.5,-365.5 122.5,-384.5 213.5,-384.5 213.5,-365.5 122.5,-365.5"/>
<text text-anchor="middle" x="168" y="-372.5" font-family="Helvetica,sans-Serif" font-size="10.00" fill="#000000">JS_EvalFunction</text>
</a>
</g>
</g>
<!-- Node344102&#45;&gt;Node344104 -->
<g id="edge2" class="edge">
<title>Node344102&#45;&gt;Node344104</title>
<path fill="none" stroke="#191970" d="M83.2714,-375C92.5652,-375 102.561,-375 112.3134,-375"/>
<polygon fill="#191970" stroke="#191970" points="112.3488,-378.5001 122.3488,-375 112.3487,-371.5001 112.3488,-378.5001"/>
</g>
<!-- Node344111 -->
<g id="node6" class="node">
<title>Node344111</title>
<g id="a_node6"><a xlink:href="quickjs_8h.html#afaa20c47565bc704c6c85f3d77254e7d" target="_top" xlink:title="JS_FreeValue">
<polygon fill="none" stroke="#ff0000" points="801.5,-402.5 801.5,-421.5 879.5,-421.5 879.5,-402.5 801.5,-402.5"/>
<text text-anchor="middle" x="840.5" y="-409.5" font-family="Helvetica,sans-Serif" font-size="10.00" fill="#000000">JS_FreeValue</text>
</a>
</g>
</g>
<!-- Node344102&#45;&gt;Node344111 -->
<g id="edge25" class="edge">
<title>Node344102&#45;&gt;Node344111</title>
<path fill="none" stroke="#191970" d="M47.8684,-384.55C75.0869,-424.1012 186.2396,-573 317,-573 317,-573 317,-573 483.5,-573 608.6719,-573 651.1788,-575.2475 758,-510 790.5699,-490.1059 816.5456,-452.8471 830.1325,-430.4433"/>
<polygon fill="#191970" stroke="#191970" points="833.2921,-431.9742 835.3316,-421.5775 827.2538,-428.4331 833.2921,-431.9742"/>
</g>
<!-- Node344192 -->
<g id="node7" class="node">
<title>Node344192</title>
<g id="a_node7"><a xlink:href="quickjs_8h.html#ad80a83d73e9b7d872b88fbf2943aebe9" target="_top" xlink:title="JS_IsException">
<polygon fill="none" stroke="#000000" points="923,-313.5 923,-332.5 1009,-332.5 1009,-313.5 923,-313.5"/>
<text text-anchor="middle" x="966" y="-320.5" font-family="Helvetica,sans-Serif" font-size="10.00" fill="#000000">JS_IsException</text>
</a>
</g>
</g>
<!-- Node344102&#45;&gt;Node344192 -->
<g id="edge35" class="edge">
<title>Node344102&#45;&gt;Node344192</title>
<path fill="none" stroke="#191970" d="M43.2331,-384.6588C50.7716,-425.5826 81.9968,-584.0395 119,-616 186.5163,-674.3152 227.7861,-649 317,-649 317,-649 317,-649 672,-649 794.0937,-649 819.3212,-579.6191 887,-478 917.8516,-431.6767 945.221,-371.7307 958.136,-341.7756"/>
<polygon fill="#191970" stroke="#191970" points="961.387,-343.0743 962.0833,-332.5023 954.9462,-340.3326 961.387,-343.0743"/>
</g>
<!-- Node344126 -->
<g id="node12" class="node">
<title>Node344126</title>
<g id="a_node12"><a xlink:href="quickjs_8c.html#adcabee55726eddca24893a78515c7ba2" target="_top" xlink:title="js_free_modules">
<polygon fill="none" stroke="#ff0000" points="439.5,-223.5 439.5,-242.5 527.5,-242.5 527.5,-223.5 439.5,-223.5"/>
<text text-anchor="middle" x="483.5" y="-230.5" font-family="Helvetica,sans-Serif" font-size="10.00" fill="#000000">js_free_modules</text>
</a>
</g>
</g>
<!-- Node344102&#45;&gt;Node344126 -->
<g id="edge24" class="edge">
<title>Node344102&#45;&gt;Node344126</title>
<path fill="none" stroke="#191970" d="M71.1872,-365.4625C148.6262,-340.5839 356.8,-273.7045 444.1099,-245.6547"/>
<polygon fill="#191970" stroke="#191970" points="445.2014,-248.9803 453.6516,-242.5893 443.0603,-242.3158 445.2014,-248.9803"/>
</g>
<!-- Node344524 -->
<g id="node13" class="node">
<title>Node344524</title>
<g id="a_node13"><a xlink:href="quickjs_8c.html#a90dd988b99a5bc7b2a4aaffd2de405a9" target="_top" xlink:title="js_host_resolve_imported\l_module">
<polygon fill="none" stroke="#000000" points="419.5,-98 419.5,-128 547.5,-128 547.5,-98 419.5,-98"/>
<text text-anchor="start" x="427.5" y="-116" font-family="Helvetica,sans-Serif" font-size="10.00" fill="#000000">js_host_resolve_imported</text>
<text text-anchor="middle" x="483.5" y="-105" font-family="Helvetica,sans-Serif" font-size="10.00" fill="#000000">_module</text>
</a>
</g>
</g>
<!-- Node344102&#45;&gt;Node344524 -->
<g id="edge26" class="edge">
<title>Node344102&#45;&gt;Node344524</title>
<path fill="none" stroke="#191970" d="M42.8819,-365.3777C47.6233,-335.9541 65.9735,-246.3729 119,-200 200.0141,-129.1514 328.5285,-113.5383 409.3264,-111.359"/>
<polygon fill="#191970" stroke="#191970" points="409.4989,-114.8563 419.4242,-111.1499 409.3538,-107.8578 409.4989,-114.8563"/>
</g>
<!-- Node344531 -->
<g id="node21" class="node">
<title>Node344531</title>
<g id="a_node21"><a xlink:href="quickjs_8c.html#a041f16b68daf31525cd76aa4794073ef" target="_top" xlink:title="js_resolve_module">
<polygon fill="none" stroke="#000000" points="119,-209.5 119,-228.5 217,-228.5 217,-209.5 119,-209.5"/>
<text text-anchor="middle" x="168" y="-216.5" font-family="Helvetica,sans-Serif" font-size="10.00" fill="#000000">js_resolve_module</text>
</a>
</g>
</g>
<!-- Node344102&#45;&gt;Node344531 -->
<g id="edge36" class="edge">
<title>Node344102&#45;&gt;Node344531</title>
<path fill="none" stroke="#191970" d="M49.4131,-365.2415C70.2673,-339.5242 126.9578,-269.6133 153.6884,-236.649"/>
<polygon fill="#191970" stroke="#191970" points="156.5099,-238.7265 160.0898,-228.7548 151.0728,-234.3176 156.5099,-238.7265"/>
</g>
<!-- Node344105 -->
<g id="node4" class="node">
<title>Node344105</title>
<g id="a_node4"><a xlink:href="quickjs_8c.html#a5d217acce00892ab2b50a1dcc1eb4cc8" target="_top" xlink:title="JS_EvalFunctionInternal">
<polygon fill="none" stroke="#000000" points="255.5,-365.5 255.5,-384.5 378.5,-384.5 378.5,-365.5 255.5,-365.5"/>
<text text-anchor="middle" x="317" y="-372.5" font-family="Helvetica,sans-Serif" font-size="10.00" fill="#000000">JS_EvalFunctionInternal</text>
</a>
</g>
</g>
<!-- Node344104&#45;&gt;Node344105 -->
<g id="edge3" class="edge">
<title>Node344104&#45;&gt;Node344105</title>
<path fill="none" stroke="#191970" d="M213.5145,-375C223.5023,-375 234.3134,-375 245.0537,-375"/>
<polygon fill="#191970" stroke="#191970" points="245.3003,-378.5001 255.3003,-375 245.3002,-371.5001 245.3003,-378.5001"/>
</g>
<!-- Node344106 -->
<g id="node5" class="node">
<title>Node344106</title>
<g id="a_node5"><a xlink:href="quickjs_8c.html#aab4130a4c3108a127681be821818528a" target="_top" xlink:title="js_closure">
<polygon fill="none" stroke="#ff0000" points="641.5,-373.5 641.5,-392.5 702.5,-392.5 702.5,-373.5 641.5,-373.5"/>
<text text-anchor="middle" x="672" y="-380.5" font-family="Helvetica,sans-Serif" font-size="10.00" fill="#000000">js_closure</text>
</a>
</g>
</g>
<!-- Node344105&#45;&gt;Node344106 -->
<g id="edge4" class="edge">
<title>Node344105&#45;&gt;Node344106</title>
<path fill="none" stroke="#191970" d="M378.554,-381.4147C391.2526,-382.492 404.5492,-383.4408 417,-384 492.5601,-387.3933 580.8404,-385.812 631.2091,-384.3846"/>
<polygon fill="#191970" stroke="#191970" points="631.4715,-387.8785 641.3636,-384.0842 631.2644,-380.8816 631.4715,-387.8785"/>
</g>
<!-- Node344105&#45;&gt;Node344111 -->
<g id="edge9" class="edge">
<title>Node344105&#45;&gt;Node344111</title>
<path fill="none" stroke="#191970" d="M349.5595,-384.6024C368.9581,-389.8729 394.172,-395.9431 417,-399 551.4921,-417.0095 712.0549,-415.8146 791.2839,-413.7406"/>
<polygon fill="#191970" stroke="#191970" points="791.5552,-417.2345 801.454,-413.4576 791.3605,-410.2372 791.5552,-417.2345"/>
</g>
<!-- Node344105&#45;&gt;Node344192 -->
<g id="edge22" class="edge">
<title>Node344105&#45;&gt;Node344192</title>
<path fill="none" stroke="#191970" d="M328.0188,-365.3017C345.4713,-350.6187 381.1801,-323.2669 417,-312 592.6617,-256.747 815.8017,-291.1387 914.7594,-311.3507"/>
<polygon fill="#191970" stroke="#191970" points="914.2879,-314.8275 924.7913,-313.4387 915.7143,-307.9743 914.2879,-314.8275"/>
</g>
<!-- Node344223 -->
<g id="node8" class="node">
<title>Node344223</title>
<g id="a_node8"><a xlink:href="quickjs_8c.html#a75f6ee5e4235a7dc99889f3d2eb2c147" target="_top" xlink:title="JS_CallFree">
<polygon fill="none" stroke="#ff0000" points="636.5,-449.5 636.5,-468.5 707.5,-468.5 707.5,-449.5 636.5,-449.5"/>
<text text-anchor="middle" x="672" y="-456.5" font-family="Helvetica,sans-Serif" font-size="10.00" fill="#000000">JS_CallFree</text>
</a>
</g>
</g>
<!-- Node344105&#45;&gt;Node344223 -->
<g id="edge7" class="edge">
<title>Node344105&#45;&gt;Node344223</title>
<path fill="none" stroke="#191970" d="M324.8517,-384.5121C340.2888,-402.3832 376.6217,-440.4794 417,-455 486.7223,-480.0731 574.2546,-474.0755 626.5198,-466.9143"/>
<polygon fill="#191970" stroke="#191970" points="627.0896,-470.3685 636.4869,-465.4755 626.0894,-463.4403 627.0896,-470.3685"/>
</g>
<!-- Node344519 -->
<g id="node9" class="node">
<title>Node344519</title>
<g id="a_node9"><a xlink:href="quickjs_8c.html#a2d91a9da16cf07ff3b9ec053b870c335" target="_top" xlink:title="js_create_module_function">
<polygon fill="none" stroke="#ff0000" points="417,-337.5 417,-356.5 550,-356.5 550,-337.5 417,-337.5"/>
<text text-anchor="middle" x="483.5" y="-344.5" font-family="Helvetica,sans-Serif" font-size="10.00" fill="#000000">js_create_module_function</text>
</a>
</g>
</g>
<!-- Node344105&#45;&gt;Node344519 -->
<g id="edge10" class="edge">
<title>Node344105&#45;&gt;Node344519</title>
<path fill="none" stroke="#191970" d="M373.8342,-365.4423C387.631,-363.1221 402.5077,-360.6203 416.7177,-358.2307"/>
<polygon fill="#191970" stroke="#191970" points="417.6409,-361.6246 426.922,-356.5146 416.48,-354.7216 417.6409,-361.6246"/>
</g>
<!-- Node344522 -->
<g id="node10" class="node">
<title>Node344522</title>
<g id="a_node10"><a xlink:href="quickjs_8c.html#a89e4f0ec49cdd0029ab50c0509ccc445" target="_top" xlink:title="js_instantiate_module">
<polygon fill="none" stroke="#ff0000" points="616.5,-313.5 616.5,-332.5 727.5,-332.5 727.5,-313.5 616.5,-313.5"/>
<text text-anchor="middle" x="672" y="-320.5" font-family="Helvetica,sans-Serif" font-size="10.00" fill="#000000">js_instantiate_module</text>
</a>
</g>
</g>
<!-- Node344105&#45;&gt;Node344522 -->
<g id="edge12" class="edge">
<title>Node344105&#45;&gt;Node344522</title>
<path fill="none" stroke="#191970" d="M332.1878,-365.3642C351.1696,-353.9257 385.057,-335.4618 417,-328 480.0608,-313.2691 554.2944,-313.7376 606.3537,-316.8466"/>
<polygon fill="#191970" stroke="#191970" points="606.2551,-320.3475 616.4601,-317.5 606.7067,-313.3621 606.2551,-320.3475"/>
</g>
<!-- Node344523 -->
<g id="node11" class="node">
<title>Node344523</title>
<g id="a_node11"><a xlink:href="quickjs_8c.html#a8caed40cacf996391536c97ef916af21" target="_top" xlink:title="js_evaluate_module">
<polygon fill="none" stroke="#ff0000" points="432,-507.5 432,-526.5 535,-526.5 535,-507.5 432,-507.5"/>
<text text-anchor="middle" x="483.5" y="-514.5" font-family="Helvetica,sans-Serif" font-size="10.00" fill="#000000">js_evaluate_module</text>
</a>
</g>
</g>
<!-- Node344105&#45;&gt;Node344523 -->
<g id="edge16" class="edge">
<title>Node344105&#45;&gt;Node344523</title>
<path fill="none" stroke="#191970" d="M322.7254,-384.7359C336.3046,-407.0262 372.6692,-462.2095 417,-493 423.0297,-497.188 429.8719,-500.7291 436.8179,-503.697"/>
<polygon fill="#191970" stroke="#191970" points="435.6993,-507.0176 446.2874,-507.3958 438.2462,-500.4973 435.6993,-507.0176"/>
</g>
<!-- Node344105&#45;&gt;Node344126 -->
<g id="edge23" class="edge">
<title>Node344105&#45;&gt;Node344126</title>
<path fill="none" stroke="#191970" d="M330.1035,-365.3149C343.8621,-354.7191 365.5965,-336.7331 381,-318 400.994,-293.6843 392.761,-277.0869 417,-257 421.9616,-252.8883 427.685,-249.4537 433.649,-246.5914"/>
<polygon fill="#191970" stroke="#191970" points="435.314,-249.6866 443.1442,-242.5494 432.5722,-243.2459 435.314,-249.6866"/>
</g>
<!-- Node344106&#45;&gt;Node344111 -->
<g id="edge5" class="edge">
<title>Node344106&#45;&gt;Node344111</title>
<path fill="none" stroke="#191970" d="M702.5141,-388.2517C727.2861,-392.5151 762.6956,-398.6093 791.4416,-403.5567"/>
<polygon fill="#191970" stroke="#191970" points="790.8544,-407.007 801.3031,-405.254 792.0417,-400.1084 790.8544,-407.007"/>
</g>
<!-- Node344106&#45;&gt;Node344192 -->
<g id="edge6" class="edge">
<title>Node344106&#45;&gt;Node344192</title>
<path fill="none" stroke="#191970" d="M702.6311,-376.7487C752.4366,-366.5844 851.5753,-346.352 912.9984,-333.8167"/>
<polygon fill="#191970" stroke="#191970" points="913.7928,-337.2268 922.891,-331.7978 912.393,-330.3681 913.7928,-337.2268"/>
</g>
<!-- Node344223&#45;&gt;Node344111 -->
<g id="edge8" class="edge">
<title>Node344223&#45;&gt;Node344111</title>
<path fill="none" stroke="#191970" d="M706.0985,-449.4888C732.0494,-442.2503 767.9814,-432.2277 796.1639,-424.3667"/>
<polygon fill="#191970" stroke="#191970" points="797.4715,-427.6357 806.1635,-421.5776 795.5908,-420.8931 797.4715,-427.6357"/>
</g>
<!-- Node344519&#45;&gt;Node344519 -->
<g id="edge11" class="edge">
<title>Node344519&#45;&gt;Node344519</title>
<path fill="none" stroke="#191970" d="M457.9146,-356.7571C445.4676,-365.5653 453.9961,-375 483.5,-375 503.3229,-375 513.6772,-370.741 514.5629,-365.2746"/>
<polygon fill="#191970" stroke="#191970" points="517.4382,-363.2749 509.0854,-356.7571 511.5505,-367.0611 517.4382,-363.2749"/>
</g>
<!-- Node344522&#45;&gt;Node344111 -->
<g id="edge13" class="edge">
<title>Node344522&#45;&gt;Node344111</title>
<path fill="none" stroke="#191970" d="M693.4461,-332.6303C710.9922,-340.6506 736.3536,-352.5676 758,-364 777.843,-374.4799 799.7786,-387.3042 816.0401,-397.0599"/>
<polygon fill="#191970" stroke="#191970" points="814.5304,-400.2368 824.9003,-402.4085 818.148,-394.2441 814.5304,-400.2368"/>
</g>
<!-- Node344522&#45;&gt;Node344192 -->
<g id="edge15" class="edge">
<title>Node344522&#45;&gt;Node344192</title>
<path fill="none" stroke="#191970" d="M727.6448,-323C780.8638,-323 860.5498,-323 912.9032,-323"/>
<polygon fill="#191970" stroke="#191970" points="912.9935,-326.5001 922.9935,-323 912.9935,-319.5001 912.9935,-326.5001"/>
</g>
<!-- Node344522&#45;&gt;Node344522 -->
<g id="edge14" class="edge">
<title>Node344522&#45;&gt;Node344522</title>
<path fill="none" stroke="#191970" d="M646.1063,-332.7571C633.5094,-341.5653 642.1406,-351 672,-351 692.0618,-351 702.5408,-346.741 703.4371,-341.2746"/>
<polygon fill="#191970" stroke="#191970" points="706.2819,-339.2291 697.8937,-332.7571 700.415,-343.0475 706.2819,-339.2291"/>
</g>
<!-- Node344523&#45;&gt;Node344103 -->
<g id="edge17" class="edge">
<title>Node344523&#45;&gt;Node344103</title>
<path fill="none" stroke="#191970" d="M502.6117,-526.5305C535.918,-543.1395 604.7486,-577.4635 643.636,-596.8556"/>
<polygon fill="#191970" stroke="#191970" points="642.3267,-600.1137 652.8377,-601.4443 645.4506,-593.8494 642.3267,-600.1137"/>
</g>
<!-- Node344523&#45;&gt;Node344111 -->
<g id="edge20" class="edge">
<title>Node344523&#45;&gt;Node344111</title>
<path fill="none" stroke="#191970" d="M535.002,-517.6683C591.8543,-516.6232 684.9844,-509.5559 758,-478 784.3817,-466.5984 809.375,-444.4289 824.7964,-428.944"/>
<polygon fill="#191970" stroke="#191970" points="827.5117,-431.1709 831.945,-421.5482 822.4785,-426.306 827.5117,-431.1709"/>
</g>
<!-- Node344523&#45;&gt;Node344192 -->
<g id="edge19" class="edge">
<title>Node344523&#45;&gt;Node344192</title>
<path fill="none" stroke="#191970" d="M535.0696,-523.5026C591.1791,-528.796 682.9128,-532.2021 758,-510 822.4709,-490.937 837.5512,-476.5491 887,-431 916.453,-403.8697 942.0598,-364.3095 955.6464,-341.359"/>
<polygon fill="#191970" stroke="#191970" points="958.7224,-343.0315 960.7094,-332.6246 952.6663,-339.5209 958.7224,-343.0315"/>
</g>
<!-- Node344523&#45;&gt;Node344223 -->
<g id="edge21" class="edge">
<title>Node344523&#45;&gt;Node344223</title>
<path fill="none" stroke="#191970" d="M511.2268,-507.4012C531.7845,-500.3824 560.5365,-490.7713 586,-483 599.114,-478.9977 613.4328,-474.8959 626.5581,-471.2412"/>
<polygon fill="#191970" stroke="#191970" points="627.6164,-474.58 636.3228,-468.5426 625.7517,-467.8329 627.6164,-474.58"/>
</g>
<!-- Node344523&#45;&gt;Node344523 -->
<g id="edge18" class="edge">
<title>Node344523&#45;&gt;Node344523</title>
<path fill="none" stroke="#191970" d="M457.9146,-526.7571C445.4676,-535.5653 453.9961,-545 483.5,-545 503.3229,-545 513.6772,-540.741 514.5629,-535.2746"/>
<polygon fill="#191970" stroke="#191970" points="517.4382,-533.2749 509.0854,-526.7571 511.5505,-537.0611 517.4382,-533.2749"/>
</g>
<!-- Node344525 -->
<g id="node14" class="node">
<title>Node344525</title>
<g id="a_node14"><a xlink:href="quickjs_8c.html#a412ab329319b697a75481a981199fa73" target="_top" xlink:title="js_default_module_normalize_name">
<polygon fill="none" stroke="#000000" points="586,-152.5 586,-171.5 758,-171.5 758,-152.5 586,-152.5"/>
<text text-anchor="middle" x="672" y="-159.5" font-family="Helvetica,sans-Serif" font-size="10.00" fill="#000000">js_default_module_normalize_name</text>
</a>
</g>
</g>
<!-- Node344524&#45;&gt;Node344525 -->
<g id="edge27" class="edge">
<title>Node344524&#45;&gt;Node344525</title>
<path fill="none" stroke="#191970" d="M532.3238,-128.0177C549.2528,-133.0309 568.3989,-138.4854 586,-143 595.6643,-145.4789 605.989,-147.9284 616.0098,-150.2026"/>
<polygon fill="#191970" stroke="#191970" points="615.3706,-153.646 625.8934,-152.4129 616.8983,-146.8147 615.3706,-153.646"/>
</g>
<!-- Node344475 -->
<g id="node16" class="node">
<title>Node344475</title>
<g id="a_node16"><a xlink:href="quickjs_8c.html#a0a31a11db1d2054a132f4879d1f3c8cc" target="_top" xlink:title="js_find_loaded_module">
<polygon fill="none" stroke="#000000" points="614,-114.5 614,-133.5 730,-133.5 730,-114.5 614,-114.5"/>
<text text-anchor="middle" x="672" y="-121.5" font-family="Helvetica,sans-Serif" font-size="10.00" fill="#000000">js_find_loaded_module</text>
</a>
</g>
</g>
<!-- Node344524&#45;&gt;Node344475 -->
<g id="edge29" class="edge">
<title>Node344524&#45;&gt;Node344475</title>
<path fill="none" stroke="#191970" d="M547.5805,-116.7394C565.6815,-117.7957 585.4421,-118.9489 603.7769,-120.0188"/>
<polygon fill="#191970" stroke="#191970" points="603.6097,-123.5149 613.7966,-120.6035 604.0176,-116.5268 603.6097,-123.5149"/>
</g>
<!-- Node344132 -->
<g id="node17" class="node">
<title>Node344132</title>
<g id="a_node17"><a xlink:href="quickjs_8c.html#a80e54dcf9ac687d4ccc2f90273565f30" target="_top" xlink:title="js_free">
<polygon fill="none" stroke="#ff0000" points="649,-38.5 649,-57.5 695,-57.5 695,-38.5 649,-38.5"/>
<text text-anchor="middle" x="672" y="-45.5" font-family="Helvetica,sans-Serif" font-size="10.00" fill="#000000">js_free</text>
</a>
</g>
</g>
<!-- Node344524&#45;&gt;Node344132 -->
<g id="edge30" class="edge">
<title>Node344524&#45;&gt;Node344132</title>
<path fill="none" stroke="#191970" d="M512.9089,-97.8648C533.0601,-87.9803 560.6316,-75.3966 586,-67 603.0281,-61.3639 622.5081,-56.9036 638.6176,-53.7249"/>
<polygon fill="#191970" stroke="#191970" points="639.4843,-57.123 648.6575,-51.8217 638.1805,-50.2455 639.4843,-57.123"/>
</g>
<!-- Node344133 -->
<g id="node18" class="node">
<title>Node344133</title>
<g id="a_node18"><a xlink:href="quickjs_8c.html#ab7fc45a99935a1c0ba50b0216d9401a9" target="_top" xlink:title="JS_FreeAtom">
<polygon fill="none" stroke="#ff0000" points="633.5,-.5 633.5,-19.5 710.5,-19.5 710.5,-.5 633.5,-.5"/>
<text text-anchor="middle" x="672" y="-7.5" font-family="Helvetica,sans-Serif" font-size="10.00" fill="#000000">JS_FreeAtom</text>
</a>
</g>
</g>
<!-- Node344524&#45;&gt;Node344133 -->
<g id="edge31" class="edge">
<title>Node344524&#45;&gt;Node344133</title>
<path fill="none" stroke="#191970" d="M497.5456,-97.718C515.9724,-78.6335 550.1941,-46.3838 586,-29 597.6134,-23.3617 610.9208,-19.3758 623.5416,-16.5656"/>
<polygon fill="#191970" stroke="#191970" points="624.3642,-19.9702 633.4706,-14.555 622.9748,-13.1095 624.3642,-19.9702"/>
</g>
<!-- Node344528 -->
<g id="node19" class="node">
<title>Node344528</title>
<g id="a_node19"><a xlink:href="quickjs_8c.html#aa2ef5af1544a3012f91a80c98c326b8f" target="_top" xlink:title="JS_NewAtom">
<polygon fill="none" stroke="#000000" points="633.5,-76.5 633.5,-95.5 710.5,-95.5 710.5,-76.5 633.5,-76.5"/>
<text text-anchor="middle" x="672" y="-83.5" font-family="Helvetica,sans-Serif" font-size="10.00" fill="#000000">JS_NewAtom</text>
</a>
</g>
</g>
<!-- Node344524&#45;&gt;Node344528 -->
<g id="edge32" class="edge">
<title>Node344524&#45;&gt;Node344528</title>
<path fill="none" stroke="#191970" d="M547.5805,-103.8214C572.4043,-100.2657 600.3495,-96.2629 623.4578,-92.953"/>
<polygon fill="#191970" stroke="#191970" points="623.9704,-96.4154 633.3731,-91.5328 622.9778,-89.4861 623.9704,-96.4154"/>
</g>
<!-- Node344526 -->
<g id="node15" class="node">
<title>Node344526</title>
<g id="a_node15"><a xlink:href="quickjs_8c.html#a23d33b08918485b2208e6af7ad22c5a6" target="_top" xlink:title="js_strdup">
<polygon fill="none" stroke="#ff0000" points="812.5,-152.5 812.5,-171.5 868.5,-171.5 868.5,-152.5 812.5,-152.5"/>
<text text-anchor="middle" x="840.5" y="-159.5" font-family="Helvetica,sans-Serif" font-size="10.00" fill="#000000">js_strdup</text>
</a>
</g>
</g>
<!-- Node344525&#45;&gt;Node344526 -->
<g id="edge28" class="edge">
<title>Node344525&#45;&gt;Node344526</title>
<path fill="none" stroke="#191970" d="M758.2244,-162C773.6859,-162 789.0587,-162 802.2583,-162"/>
<polygon fill="#191970" stroke="#191970" points="802.3384,-165.5001 812.3384,-162 802.3384,-158.5001 802.3384,-165.5001"/>
</g>
<!-- Node344529 -->
<g id="node20" class="node">
<title>Node344529</title>
<g id="a_node20"><a xlink:href="quickjs_8c.html#a522741f41afb1d0da0aa55968cd8579e" target="_top" xlink:title="JS_NewAtomLen">
<polygon fill="none" stroke="#ff0000" points="794,-95.5 794,-114.5 887,-114.5 887,-95.5 794,-95.5"/>
<text text-anchor="middle" x="840.5" y="-102.5" font-family="Helvetica,sans-Serif" font-size="10.00" fill="#000000">JS_NewAtomLen</text>
</a>
</g>
</g>
<!-- Node344528&#45;&gt;Node344529 -->
<g id="edge33" class="edge">
<title>Node344528&#45;&gt;Node344529</title>
<path fill="none" stroke="#191970" d="M710.6573,-90.359C732.3366,-92.8035 759.7795,-95.898 783.8454,-98.6116"/>
<polygon fill="#191970" stroke="#191970" points="783.5967,-102.1057 793.926,-99.7483 784.3811,-95.1498 783.5967,-102.1057"/>
</g>
<!-- Node344529&#45;&gt;Node344192 -->
<g id="edge34" class="edge">
<title>Node344529&#45;&gt;Node344192</title>
<path fill="none" stroke="#191970" d="M855.9197,-114.7783C865.8359,-121.6901 878.4234,-131.7091 887,-143 926.1166,-194.4967 950.6089,-268.3796 960.6948,-303.2929"/>
<polygon fill="#191970" stroke="#191970" points="957.3968,-304.4953 963.4635,-313.1813 964.1376,-302.6079 957.3968,-304.4953"/>
</g>
<!-- Node344531&#45;&gt;Node344531 -->
<g id="edge44" class="edge">
<title>Node344531&#45;&gt;Node344531</title>
<path fill="none" stroke="#191970" d="M148.5797,-228.7571C139.132,-237.5653 145.6055,-247 168,-247 182.3465,-247 190.159,-243.128 191.4374,-238.0292"/>
<polygon fill="#191970" stroke="#191970" points="194.6073,-236.5415 187.4203,-228.7571 188.1842,-239.3243 194.6073,-236.5415"/>
</g>
<!-- Node344532 -->
<g id="node22" class="node">
<title>Node344532</title>
<g id="a_node22"><a xlink:href="quickjs_8c.html#a5b9215d5347fb8696212caf3f8ebfad0" target="_top" xlink:title="js_host_resolve_imported\l_module_atom">
<polygon fill="none" stroke="#000000" points="253,-171 253,-201 381,-201 381,-171 253,-171"/>
<text text-anchor="start" x="261" y="-189" font-family="Helvetica,sans-Serif" font-size="10.00" fill="#000000">js_host_resolve_imported</text>
<text text-anchor="middle" x="317" y="-178" font-family="Helvetica,sans-Serif" font-size="10.00" fill="#000000">_module_atom</text>
</a>
</g>
</g>
<!-- Node344531&#45;&gt;Node344532 -->
<g id="edge37" class="edge">
<title>Node344531&#45;&gt;Node344532</title>
<path fill="none" stroke="#191970" d="M211.097,-209.455C221.0992,-207.2398 232.0257,-204.8198 242.9397,-202.4026"/>
<polygon fill="#191970" stroke="#191970" points="243.9258,-205.7691 252.9323,-200.1895 242.4121,-198.9347 243.9258,-205.7691"/>
</g>
<!-- Node344532&#45;&gt;Node344524 -->
<g id="edge43" class="edge">
<title>Node344532&#45;&gt;Node344524</title>
<path fill="none" stroke="#191970" d="M351.4989,-170.8744C377.0606,-159.6671 412.0901,-144.3088 439.6402,-132.2298"/>
<polygon fill="#191970" stroke="#191970" points="441.2923,-135.3272 449.0453,-128.1063 438.4815,-128.9163 441.2923,-135.3272"/>
</g>
<!-- Node344508 -->
<g id="node23" class="node">
<title>Node344508</title>
<g id="a_node23"><a xlink:href="quickjs_8c.html#a4b66ebf3abee5d29490343fbe360ec5a" target="_top" xlink:title="JS_AtomToCString">
<polygon fill="none" stroke="#ff0000" points="621.5,-190.5 621.5,-209.5 722.5,-209.5 722.5,-190.5 621.5,-190.5"/>
<text text-anchor="middle" x="672" y="-197.5" font-family="Helvetica,sans-Serif" font-size="10.00" fill="#000000">JS_AtomToCString</text>
</a>
</g>
</g>
<!-- Node344532&#45;&gt;Node344508 -->
<g id="edge38" class="edge">
<title>Node344532&#45;&gt;Node344508</title>
<path fill="none" stroke="#191970" d="M381.2129,-178.6239C393.096,-177.5305 405.4117,-176.578 417,-176 476.0377,-173.0555 491.1674,-170.2681 550,-176 563.2404,-177.29 592.0115,-182.9011 618.2892,-188.3734"/>
<polygon fill="#191970" stroke="#191970" points="617.6949,-191.8249 628.2008,-190.4547 619.1335,-184.9743 617.6949,-191.8249"/>
</g>
<!-- Node344249 -->
<g id="node24" class="node">
<title>Node344249</title>
<g id="a_node24"><a xlink:href="quickjs_8c.html#ae0bc4f65da64810facb2cb9e476eda2e" target="_top" xlink:title="JS_FreeCString">
<polygon fill="none" stroke="#000000" points="440.5,-185.5 440.5,-204.5 526.5,-204.5 526.5,-185.5 440.5,-185.5"/>
<text text-anchor="middle" x="483.5" y="-192.5" font-family="Helvetica,sans-Serif" font-size="10.00" fill="#000000">JS_FreeCString</text>
</a>
</g>
</g>
<!-- Node344532&#45;&gt;Node344249 -->
<g id="edge41" class="edge">
<title>Node344532&#45;&gt;Node344249</title>
<path fill="none" stroke="#191970" d="M381.3732,-189.4796C397.4332,-190.3477 414.4826,-191.2693 429.9561,-192.1057"/>
<polygon fill="#191970" stroke="#191970" points="430.2109,-195.6245 440.3853,-192.6695 430.5888,-188.6347 430.2109,-195.6245"/>
</g>
<!-- Node344508&#45;&gt;Node344111 -->
<g id="edge39" class="edge">
<title>Node344508&#45;&gt;Node344111</title>
<path fill="none" stroke="#191970" d="M722.5322,-206.2605C735.2243,-209.8177 748.0485,-215.3646 758,-224 810.1896,-269.2874 830.6464,-353.7969 837.5023,-392.1535"/>
<polygon fill="#191970" stroke="#191970" points="834.0601,-392.7902 839.1525,-402.081 840.9653,-391.6424 834.0601,-392.7902"/>
</g>
<!-- Node344508&#45;&gt;Node344192 -->
<g id="edge40" class="edge">
<title>Node344508&#45;&gt;Node344192</title>
<path fill="none" stroke="#191970" d="M722.6975,-208.9095C767.6051,-218.1082 834.0622,-234.9761 887,-262 910.1791,-273.8326 933.3516,-292.7766 948.5474,-306.4154"/>
<polygon fill="#191970" stroke="#191970" points="946.3854,-309.1819 956.1183,-313.3678 951.1201,-304.026 946.3854,-309.1819"/>
</g>
<!-- Node344249&#45;&gt;Node344111 -->
<g id="edge42" class="edge">
<title>Node344249&#45;&gt;Node344111</title>
<path fill="none" stroke="#191970" d="M526.8256,-204.1168C584.4014,-217.921 687.0981,-248.5835 758,-304 790.2073,-329.173 816.6066,-369.7381 830.3082,-393.3326"/>
<polygon fill="#191970" stroke="#191970" points="827.4153,-395.3275 835.3827,-402.3111 833.5093,-391.8832 827.4153,-395.3275"/>
</g>
</g>
</svg>
        <g id="navigator" transform="translate(0 0)" fill="#404254">
                <rect fill="#f2f5e9" fill-opacity="0.5" stroke="#606060" stroke-width=".5" x="0" y="0" width="60" height="60"/>
                <use id="zoomplus" xlink:href="#zoomPlus" x="17" y="9" onmousedown="handleZoom(evt,'in')"/>
                <use id="zoomminus" xlink:href="#zoomMin" x="42" y="9" onmousedown="handleZoom(evt,'out')"/>
                <use id="reset" xlink:href="#resetDef" x="30" y="36" onmousedown="handleReset()"/>
                <g id="arrowUp" xlink:href="#dirArrow" transform="translate(30 24)" onmousedown="handlePan(0,-1)">
                  <use xlink:href="#rim" fill="#404040">
                        <set attributeName="fill" to="#808080" begin="arrowUp.mouseover" end="arrowUp.mouseout"/>
                  </use>
                  <path fill="none" stroke="white" stroke-width="1.5" d="M0,-3.0v7 M-2.5,-0.5L0,-3.0L2.5,-0.5"/>
                </g>
                <g id="arrowRight" xlink:href="#dirArrow" transform="rotate(90) translate(36 -43)" onmousedown="handlePan(1,0)">
                  <use xlink:href="#rim" fill="#404040">
                        <set attributeName="fill" to="#808080" begin="arrowRight.mouseover" end="arrowRight.mouseout"/>
                  </use>
                  <path fill="none" stroke="white" stroke-width="1.5" d="M0,-3.0v7 M-2.5,-0.5L0,-3.0L2.5,-0.5"/>
                </g>
                <g id="arrowDown" xlink:href="#dirArrow" transform="rotate(180) translate(-30 -48)" onmousedown="handlePan(0,1)">
                  <use xlink:href="#rim" fill="#404040">
                        <set attributeName="fill" to="#808080" begin="arrowDown.mouseover" end="arrowDown.mouseout"/>
                  </use>
                  <path fill="none" stroke="white" stroke-width="1.5" d="M0,-3.0v7 M-2.5,-0.5L0,-3.0L2.5,-0.5"/>
                </g>
                <g id="arrowLeft" xlink:href="#dirArrow" transform="rotate(270) translate(-36 17)" onmousedown="handlePan(-1,0)">
                  <use xlink:href="#rim" fill="#404040">
                        <set attributeName="fill" to="#808080" begin="arrowLeft.mouseover" end="arrowLeft.mouseout"/>
                  </use>
                  <path fill="none" stroke="white" stroke-width="1.5" d="M0,-3.0v7 M-2.5,-0.5L0,-3.0L2.5,-0.5"/>
                </g>
        </g>
        <svg viewBox="0 0 15 15" width="100%" height="30px" preserveAspectRatio="xMaxYMin meet">
         <g id="arrow_out" transform="scale(0.3 0.3)">
          <a xlink:href="quickjs_8c_aa75a2b06808d8da661d4eb6698b17cab_cgraph_org.svg" target="_base">
           <rect id="button" ry="5" rx="5" y="6" x="6" height="38" width="38"
                fill="#f2f5e9" fill-opacity="0.5" stroke="#606060" stroke-width="1.0"/>
           <path id="arrow"
             d="M 11.500037,31.436501 C 11.940474,20.09759 22.043105,11.32322 32.158766,21.979434 L 37.068811,17.246167 C 37.068811,17.246167 37.088388,32 37.088388,32 L 22.160133,31.978069 C 22.160133,31.978069 26.997745,27.140456 26.997745,27.140456 C 18.528582,18.264221 13.291696,25.230495 11.500037,31.436501 z"
             style="fill:#404040;"/>
          </a>
         </g>
        </svg>
</svg>
