<?xml version="1.0" encoding="UTF-8" standalone="no"?>
<!DOCTYPE svg PUBLIC "-//W3C//DTD SVG 1.1//EN"
 "http://www.w3.org/Graphics/SVG/1.1/DTD/svg11.dtd">
<!-- Generated by graphviz version 2.40.1 (20161225.0304)
 -->
<!-- Title: js_default_module_normalize_name Pages: 1 -->
<svg width="761pt" height="71pt"
 viewBox="0.00 0.00 761.00 70.50" xmlns="http://www.w3.org/2000/svg" xmlns:xlink="http://www.w3.org/1999/xlink">
<g id="graph0" class="graph" transform="scale(1 1) rotate(0) translate(4 66.5)">
<title>js_default_module_normalize_name</title>
<!-- Node328790 -->
<g id="node1" class="node">
<title>Node328790</title>
<polygon fill="#bfbfbf" stroke="#000000" points="0,-6 0,-25 172,-25 172,-6 0,-6"/>
<text text-anchor="middle" x="86" y="-13" font-family="Helvetica,sans-Serif" font-size="10.00" fill="#000000">js_default_module_normalize_name</text>
</g>
<!-- Node328791 -->
<g id="node2" class="node">
<title>Node328791</title>
<g id="a_node2"><a xlink:href="quickjs_8c.html#a90dd988b99a5bc7b2a4aaffd2de405a9" target="_top" xlink:title="js_host_resolve_imported\l_module">
<polygon fill="none" stroke="#000000" points="208,-.5 208,-30.5 336,-30.5 336,-.5 208,-.5"/>
<text text-anchor="start" x="216" y="-18.5" font-family="Helvetica,sans-Serif" font-size="10.00" fill="#000000">js_host_resolve_imported</text>
<text text-anchor="middle" x="272" y="-7.5" font-family="Helvetica,sans-Serif" font-size="10.00" fill="#000000">_module</text>
</a>
</g>
</g>
<!-- Node328790&#45;&gt;Node328791 -->
<g id="edge1" class="edge">
<title>Node328790&#45;&gt;Node328791</title>
<path fill="none" stroke="#191970" d="M182.3146,-15.5C190.9363,-15.5 199.5199,-15.5 207.7686,-15.5"/>
<polygon fill="#191970" stroke="#191970" points="182.1939,-12.0001 172.1939,-15.5 182.1939,-19.0001 182.1939,-12.0001"/>
</g>
<!-- Node328792 -->
<g id="node3" class="node">
<title>Node328792</title>
<g id="a_node3"><a xlink:href="quickjs_8c.html#a5b9215d5347fb8696212caf3f8ebfad0" target="_top" xlink:title="js_host_resolve_imported\l_module_atom">
<polygon fill="none" stroke="#000000" points="372,-22.5 372,-52.5 500,-52.5 500,-22.5 372,-22.5"/>
<text text-anchor="start" x="380" y="-40.5" font-family="Helvetica,sans-Serif" font-size="10.00" fill="#000000">js_host_resolve_imported</text>
<text text-anchor="middle" x="436" y="-29.5" font-family="Helvetica,sans-Serif" font-size="10.00" fill="#000000">_module_atom</text>
</a>
</g>
</g>
<!-- Node328791&#45;&gt;Node328792 -->
<g id="edge2" class="edge">
<title>Node328791&#45;&gt;Node328792</title>
<path fill="none" stroke="#191970" d="M346.2859,-25.4652C354.8158,-26.6094 363.4581,-27.7688 371.8391,-28.8931"/>
<polygon fill="#191970" stroke="#191970" points="346.723,-21.9926 336.3464,-24.1318 345.7923,-28.9304 346.723,-21.9926"/>
</g>
<!-- Node328794 -->
<g id="node5" class="node">
<title>Node328794</title>
<g id="a_node5"><a xlink:href="quickjs_8c.html#aa75a2b06808d8da661d4eb6698b17cab" target="_top" xlink:title="JS_RunModule">
<polygon fill="none" stroke="#ff0000" points="670,-3 670,-22 753,-22 753,-3 670,-3"/>
<text text-anchor="middle" x="711.5" y="-10" font-family="Helvetica,sans-Serif" font-size="10.00" fill="#000000">JS_RunModule</text>
</a>
</g>
</g>
<!-- Node328791&#45;&gt;Node328794 -->
<g id="edge6" class="edge">
<title>Node328791&#45;&gt;Node328794</title>
<path fill="none" stroke="#191970" d="M346.1773,-13.0266C354.8813,-12.8098 363.6367,-12.6254 372,-12.5 479.4078,-10.8892 605.9513,-11.5719 669.948,-12.099"/>
<polygon fill="#191970" stroke="#191970" points="345.914,-9.5322 336.0097,-13.2942 346.0983,-16.5297 345.914,-9.5322"/>
</g>
<!-- Node328793 -->
<g id="node4" class="node">
<title>Node328793</title>
<g id="a_node4"><a xlink:href="quickjs_8c.html#a041f16b68daf31525cd76aa4794073ef" target="_top" xlink:title="js_resolve_module">
<polygon fill="none" stroke="#ff0000" points="536,-25 536,-44 634,-44 634,-25 536,-25"/>
<text text-anchor="middle" x="585" y="-32" font-family="Helvetica,sans-Serif" font-size="10.00" fill="#000000">js_resolve_module</text>
</a>
</g>
</g>
<!-- Node328792&#45;&gt;Node328793 -->
<g id="edge3" class="edge">
<title>Node328792&#45;&gt;Node328793</title>
<path fill="none" stroke="#191970" d="M510.2289,-36.0055C518.9224,-35.8304 527.6207,-35.6553 535.8505,-35.4896"/>
<polygon fill="#191970" stroke="#191970" points="509.9816,-32.5096 500.0541,-36.2103 510.1226,-39.5082 509.9816,-32.5096"/>
</g>
<!-- Node328793&#45;&gt;Node328793 -->
<g id="edge4" class="edge">
<title>Node328793&#45;&gt;Node328793</title>
<path fill="none" stroke="#191970" d="M561.5626,-53.5292C562.841,-58.628 570.6535,-62.5 585,-62.5 607.3945,-62.5 613.868,-53.0653 604.4203,-44.2571"/>
<polygon fill="#191970" stroke="#191970" points="564.8158,-54.8243 565.5797,-44.2571 558.3927,-52.0415 564.8158,-54.8243"/>
</g>
<!-- Node328793&#45;&gt;Node328794 -->
<g id="edge5" class="edge">
<title>Node328793&#45;&gt;Node328794</title>
<path fill="none" stroke="#191970" d="M644.3441,-24.1793C652.9969,-22.6744 661.7476,-21.1526 669.945,-19.7269"/>
<polygon fill="#191970" stroke="#191970" points="643.5228,-20.7695 634.2704,-25.9312 644.7223,-27.666 643.5228,-20.7695"/>
</g>
</g>
</svg>
