<?xml version="1.0" encoding="UTF-8" standalone="no"?>
<!DOCTYPE svg PUBLIC "-//W3C//DTD SVG 1.1//EN"
 "http://www.w3.org/Graphics/SVG/1.1/DTD/svg11.dtd">
<!-- Generated by graphviz version 2.40.1 (20161225.0304)
 -->
<!-- Title: JS_GetScriptOrModuleName Pages: 1 -->
<svg width="444pt" height="66pt"
 viewBox="0.00 0.00 444.00 66.00" xmlns="http://www.w3.org/2000/svg" xmlns:xlink="http://www.w3.org/1999/xlink">
<g id="graph0" class="graph" transform="scale(1 1) rotate(0) translate(4 62)">
<title>JS_GetScriptOrModuleName</title>
<!-- Node84072 -->
<g id="node1" class="node">
<title>Node84072</title>
<polygon fill="#bfbfbf" stroke="#000000" points="0,-19.5 0,-38.5 143,-38.5 143,-19.5 0,-19.5"/>
<text text-anchor="middle" x="71.5" y="-26.5" font-family="Helvetica,sans-Serif" font-size="10.00" fill="#000000">JS_GetScriptOrModuleName</text>
</g>
<!-- Node84073 -->
<g id="node2" class="node">
<title>Node84073</title>
<g id="a_node2"><a xlink:href="quickjs_8c.html#a76e95dd1ab1d7cb4b9407d2ad41ee119" target="_top" xlink:title="js_class_has_bytecode">
<polygon fill="none" stroke="#000000" points="179,-38.5 179,-57.5 298,-57.5 298,-38.5 179,-38.5"/>
<text text-anchor="middle" x="238.5" y="-45.5" font-family="Helvetica,sans-Serif" font-size="10.00" fill="#000000">js_class_has_bytecode</text>
</a>
</g>
</g>
<!-- Node84072&#45;&gt;Node84073 -->
<g id="edge1" class="edge">
<title>Node84072&#45;&gt;Node84073</title>
<path fill="none" stroke="#191970" d="M143.2922,-37.168C151.7141,-38.1261 160.298,-39.1028 168.6922,-40.0578"/>
<polygon fill="#191970" stroke="#191970" points="168.4818,-43.5564 178.8134,-41.2093 169.2732,-36.6012 168.4818,-43.5564"/>
</g>
<!-- Node84074 -->
<g id="node3" class="node">
<title>Node84074</title>
<g id="a_node3"><a xlink:href="quickjs_8c.html#abbf44eaeace1104a6bef718fbf5700fe" target="_top" xlink:title="JS_DupAtom">
<polygon fill="none" stroke="#000000" points="201,-.5 201,-19.5 276,-19.5 276,-.5 201,-.5"/>
<text text-anchor="middle" x="238.5" y="-7.5" font-family="Helvetica,sans-Serif" font-size="10.00" fill="#000000">JS_DupAtom</text>
</a>
</g>
</g>
<!-- Node84072&#45;&gt;Node84074 -->
<g id="edge2" class="edge">
<title>Node84072&#45;&gt;Node84074</title>
<path fill="none" stroke="#191970" d="M143.2922,-20.832C159.227,-19.0191 175.7421,-17.1401 190.454,-15.4663"/>
<polygon fill="#191970" stroke="#191970" points="191.2735,-18.8957 200.8137,-14.2877 190.4821,-11.9406 191.2735,-18.8957"/>
</g>
<!-- Node84075 -->
<g id="node4" class="node">
<title>Node84075</title>
<g id="a_node4"><a xlink:href="quickjs_8c.html#a7f6796ee7a195631366f57c713a33f65" target="_top" xlink:title="__JS_AtomIsConst">
<polygon fill="none" stroke="#000000" points="334,-.5 334,-19.5 436,-19.5 436,-.5 334,-.5"/>
<text text-anchor="middle" x="385" y="-7.5" font-family="Helvetica,sans-Serif" font-size="10.00" fill="#000000">__JS_AtomIsConst</text>
</a>
</g>
</g>
<!-- Node84074&#45;&gt;Node84075 -->
<g id="edge3" class="edge">
<title>Node84074&#45;&gt;Node84075</title>
<path fill="none" stroke="#191970" d="M276.2274,-10C290.6233,-10 307.4345,-10 323.4754,-10"/>
<polygon fill="#191970" stroke="#191970" points="323.8723,-13.5001 333.8723,-10 323.8723,-6.5001 323.8723,-13.5001"/>
</g>
</g>
</svg>
