<?xml version="1.0" encoding="UTF-8" standalone="no"?>
<!DOCTYPE svg PUBLIC "-//W3C//DTD SVG 1.1//EN"
 "http://www.w3.org/Graphics/SVG/1.1/DTD/svg11.dtd">
<!-- Generated by graphviz version 2.40.1 (20161225.0304)
 -->
<!-- Title: JS_NewAtom Pages: 1 -->
<!--zoomable 674 -->
<svg id="main" version="1.1" xmlns="http://www.w3.org/2000/svg" xmlns:xlink="http://www.w3.org/1999/xlink" xml:space="preserve" onload="init(evt)">
<style type="text/css"><![CDATA[
.edge:hover path { stroke: red; }
.edge:hover polygon { stroke: red; fill: red; }
]]></style>
<script type="text/javascript"><![CDATA[
var edges = document.getElementsByTagName('g');
if (edges && edges.length) {
  for (var i=0;i<edges.length;i++) {
    if (edges[i].id.substr(0,4)=='edge') {
      edges[i].setAttribute('class','edge');
    }
  }
}
]]></script>
        <defs>
                <circle id="rim" cx="0" cy="0" r="7"/>
                <circle id="rim2" cx="0" cy="0" r="3.5"/>
                <g id="zoomPlus">
                        <use xlink:href="#rim" fill="#404040">
                                <set attributeName="fill" to="#808080" begin="zoomplus.mouseover" end="zoomplus.mouseout"/>
                        </use>
                        <path d="M-4,0h8M0,-4v8" fill="none" stroke="white" stroke-width="1.5" pointer-events="none"/>
                </g>
                <g id="zoomMin">
                        <use xlink:href="#rim" fill="#404040">
                                <set attributeName="fill" to="#808080" begin="zoomminus.mouseover" end="zoomminus.mouseout"/>
                        </use>
                        <path d="M-4,0h8" fill="none" stroke="white" stroke-width="1.5" pointer-events="none"/>
                </g>
                <g id="dirArrow">
                        <path fill="none" stroke="white" stroke-width="1.5" d="M0,-3.0v7 M-2.5,-0.5L0,-3.0L2.5,-0.5"/>
                </g>
               <g id="resetDef">
                       <use xlink:href="#rim2" fill="#404040">
                               <set attributeName="fill" to="#808080" begin="reset.mouseover" end="reset.mouseout"/>
                       </use>
               </g>
        </defs>

<script type="text/javascript">
var viewWidth = 618;
var viewHeight = 674;
var sectionId = 'dynsection-251';
</script>
<script xlink:href="svgpan.js"/>
<svg id="graph" class="graph">
<g id="viewport">
<title>JS_NewAtom</title>
<!-- Node84797 -->
<g id="node1" class="node">
<title>Node84797</title>
<polygon fill="#bfbfbf" stroke="#000000" points="0,-377.5 0,-396.5 77,-396.5 77,-377.5 0,-377.5"/>
<text text-anchor="middle" x="38.5" y="-384.5" font-family="Helvetica,sans-Serif" font-size="10.00" fill="#000000">JS_NewAtom</text>
</g>
<!-- Node84798 -->
<g id="node2" class="node">
<title>Node84798</title>
<g id="a_node2"><a xlink:href="quickjs_8c.html#a46a8a7e155cfd0af984f6725f060f0d6" target="_top" xlink:title="__JS_EvalInternal">
<polygon fill="none" stroke="#000000" points="311,-636.5 311,-655.5 407,-655.5 407,-636.5 311,-636.5"/>
<text text-anchor="middle" x="359" y="-643.5" font-family="Helvetica,sans-Serif" font-size="10.00" fill="#000000">__JS_EvalInternal</text>
</a>
</g>
</g>
<!-- Node84797&#45;&gt;Node84798 -->
<g id="edge1" class="edge">
<title>Node84797&#45;&gt;Node84798</title>
<path fill="none" stroke="#191970" d="M41.6098,-406.6082C50.3829,-459.2419 77.0473,-601.5673 113,-630 172.9217,-677.3884 268.8808,-666.471 321.4894,-655.5179"/>
<polygon fill="#191970" stroke="#191970" points="45.0338,-405.8581 39.9709,-396.5513 38.1249,-406.984 45.0338,-405.8581"/>
</g>
<!-- Node84804 -->
<g id="node4" class="node">
<title>Node84804</title>
<g id="a_node4"><a xlink:href="classqjs_1_1Value.html#a7816587475ecf667433f9ea681df925b" target="_top" xlink:title="qjs::Value::add_getter">
<polygon fill="none" stroke="#000000" points="125.5,-601.5 125.5,-620.5 237.5,-620.5 237.5,-601.5 125.5,-601.5"/>
<text text-anchor="middle" x="181.5" y="-608.5" font-family="Helvetica,sans-Serif" font-size="10.00" fill="#000000">qjs::Value::add_getter</text>
</a>
</g>
</g>
<!-- Node84797&#45;&gt;Node84804 -->
<g id="edge3" class="edge">
<title>Node84797&#45;&gt;Node84804</title>
<path fill="none" stroke="#191970" d="M39.8484,-406.872C43.7097,-447.7107 58.3661,-541.4699 113,-592 117.1677,-595.8547 122.0494,-598.9376 127.2538,-601.4015"/>
<polygon fill="#191970" stroke="#191970" points="43.331,-406.5153 39.0214,-396.8366 36.3546,-407.0903 43.331,-406.5153"/>
</g>
<!-- Node84805 -->
<g id="node5" class="node">
<title>Node84805</title>
<g id="a_node5"><a xlink:href="classqjs_1_1Value.html#ac6bbb5f2ab1ed265b2b508325807e2fb" target="_top" xlink:title="qjs::Value::add_getter\l_setter">
<polygon fill="none" stroke="#000000" points="125.5,-552 125.5,-582 237.5,-582 237.5,-552 125.5,-552"/>
<text text-anchor="start" x="133.5" y="-570" font-family="Helvetica,sans-Serif" font-size="10.00" fill="#000000">qjs::Value::add_getter</text>
<text text-anchor="middle" x="181.5" y="-559" font-family="Helvetica,sans-Serif" font-size="10.00" fill="#000000">_setter</text>
</a>
</g>
</g>
<!-- Node84797&#45;&gt;Node84805 -->
<g id="edge4" class="edge">
<title>Node84797&#45;&gt;Node84805</title>
<path fill="none" stroke="#191970" d="M42.8091,-406.5614C50.9578,-439.1118 71.6421,-504.5126 113,-542 117.2209,-545.8259 122.0745,-549.0793 127.2079,-551.8431"/>
<polygon fill="#191970" stroke="#191970" points="46.1417,-405.4449 40.4362,-396.5175 39.3292,-407.0544 46.1417,-405.4449"/>
</g>
<!-- Node84806 -->
<g id="node6" class="node">
<title>Node84806</title>
<g id="a_node6"><a xlink:href="quickjs_8c.html#ae8e62d181b34d2e7bdda0b099c0880f5" target="_top" xlink:title="find_atom">
<polygon fill="none" stroke="#000000" points="152,-399.5 152,-418.5 211,-418.5 211,-399.5 152,-399.5"/>
<text text-anchor="middle" x="181.5" y="-406.5" font-family="Helvetica,sans-Serif" font-size="10.00" fill="#000000">find_atom</text>
</a>
</g>
</g>
<!-- Node84797&#45;&gt;Node84806 -->
<g id="edge5" class="edge">
<title>Node84797&#45;&gt;Node84806</title>
<path fill="none" stroke="#191970" d="M87.1355,-394.4824C108.6139,-397.7868 133.169,-401.5645 151.8459,-404.4378"/>
<polygon fill="#191970" stroke="#191970" points="87.6138,-391.0149 77.1979,-392.9535 86.5493,-397.9335 87.6138,-391.0149"/>
</g>
<!-- Node84825 -->
<g id="node10" class="node">
<title>Node84825</title>
<g id="a_node10"><a xlink:href="quickjs_8c.html#a369af749a1fb181216fe8a8b55f841b0" target="_top" xlink:title="JS_AddModuleExport">
<polygon fill="none" stroke="#000000" points="126,-437.5 126,-456.5 237,-456.5 237,-437.5 126,-437.5"/>
<text text-anchor="middle" x="181.5" y="-444.5" font-family="Helvetica,sans-Serif" font-size="10.00" fill="#000000">JS_AddModuleExport</text>
</a>
</g>
</g>
<!-- Node84797&#45;&gt;Node84825 -->
<g id="edge9" class="edge">
<title>Node84797&#45;&gt;Node84825</title>
<path fill="none" stroke="#191970" d="M62.0891,-401.8346C76.4058,-410.3627 95.2793,-420.7813 113,-428 121.915,-431.6316 131.7565,-434.814 141.1324,-437.4839"/>
<polygon fill="#191970" stroke="#191970" points="63.761,-398.7552 53.3969,-396.5561 60.1276,-404.7384 63.761,-398.7552"/>
</g>
<!-- Node84828 -->
<g id="node15" class="node">
<title>Node84828</title>
<g id="a_node15"><a xlink:href="quickjs_8c.html#a841f4cb887e4d9e03e94a0697255e578" target="_top" xlink:title="JS_DefinePropertyValueStr">
<polygon fill="none" stroke="#000000" points="113,-299.5 113,-318.5 250,-318.5 250,-299.5 113,-299.5"/>
<text text-anchor="middle" x="181.5" y="-306.5" font-family="Helvetica,sans-Serif" font-size="10.00" fill="#000000">JS_DefinePropertyValueStr</text>
</a>
</g>
</g>
<!-- Node84797&#45;&gt;Node84828 -->
<g id="edge16" class="edge">
<title>Node84797&#45;&gt;Node84828</title>
<path fill="none" stroke="#191970" d="M61.8251,-371.6286C76.3074,-362.3297 95.4444,-350.479 113,-341 128.1304,-332.8304 145.7129,-324.6425 159.276,-318.5943"/>
<polygon fill="#191970" stroke="#191970" points="59.5316,-368.9442 53.0437,-377.3202 63.3389,-374.8183 59.5316,-368.9442"/>
</g>
<!-- Node84849 -->
<g id="node22" class="node">
<title>Node84849</title>
<g id="a_node22"><a xlink:href="quickjs_8c.html#a04f589361a4fbc30d997402e92a50de2" target="_top" xlink:title="JS_GetPropertyStr">
<polygon fill="none" stroke="#ff0000" points="132,-185.5 132,-204.5 231,-204.5 231,-185.5 132,-185.5"/>
<text text-anchor="middle" x="181.5" y="-192.5" font-family="Helvetica,sans-Serif" font-size="10.00" fill="#000000">JS_GetPropertyStr</text>
</a>
</g>
</g>
<!-- Node84797&#45;&gt;Node84849 -->
<g id="edge26" class="edge">
<title>Node84797&#45;&gt;Node84849</title>
<path fill="none" stroke="#191970" d="M41.3379,-367.3135C47.5718,-331.3894 65.8612,-255.1248 113,-214 118.4868,-209.2132 125.083,-205.6236 131.9858,-202.9336"/>
<polygon fill="#191970" stroke="#191970" points="37.8377,-367.0371 39.7162,-377.464 44.7501,-368.1414 37.8377,-367.0371"/>
</g>
<!-- Node84863 -->
<g id="node24" class="node">
<title>Node84863</title>
<g id="a_node24"><a xlink:href="quickjs_8c.html#a90dd988b99a5bc7b2a4aaffd2de405a9" target="_top" xlink:title="js_host_resolve_imported\l_module">
<polygon fill="none" stroke="#ff0000" points="117.5,-350 117.5,-380 245.5,-380 245.5,-350 117.5,-350"/>
<text text-anchor="start" x="125.5" y="-368" font-family="Helvetica,sans-Serif" font-size="10.00" fill="#000000">js_host_resolve_imported</text>
<text text-anchor="middle" x="181.5" y="-357" font-family="Helvetica,sans-Serif" font-size="10.00" fill="#000000">_module</text>
</a>
</g>
</g>
<!-- Node84797&#45;&gt;Node84863 -->
<g id="edge28" class="edge">
<title>Node84797&#45;&gt;Node84863</title>
<path fill="none" stroke="#191970" d="M87.0944,-379.5239C96.8456,-378.0238 107.2324,-376.4258 117.4162,-374.859"/>
<polygon fill="#191970" stroke="#191970" points="86.5493,-376.0665 77.1979,-381.0465 87.6138,-382.9851 86.5493,-376.0665"/>
</g>
<!-- Node85412 -->
<g id="node25" class="node">
<title>Node85412</title>
<g id="a_node25"><a xlink:href="quickjs_8c.html#a8020fd59ed57f7f299216ec1ebfcda01" target="_top" xlink:title="js_new_function_def">
<polygon fill="none" stroke="#ff0000" points="128.5,-513.5 128.5,-532.5 234.5,-532.5 234.5,-513.5 128.5,-513.5"/>
<text text-anchor="middle" x="181.5" y="-520.5" font-family="Helvetica,sans-Serif" font-size="10.00" fill="#000000">js_new_function_def</text>
</a>
</g>
</g>
<!-- Node84797&#45;&gt;Node85412 -->
<g id="edge29" class="edge">
<title>Node84797&#45;&gt;Node85412</title>
<path fill="none" stroke="#191970" d="M46.462,-406.0129C57.7619,-430.7975 80.7247,-473.9297 113,-499 121.0608,-505.2614 130.8784,-509.9632 140.534,-513.4655"/>
<polygon fill="#191970" stroke="#191970" points="49.5636,-404.3708 42.34,-396.6203 43.1537,-407.1839 49.5636,-404.3708"/>
</g>
<!-- Node85416 -->
<g id="node26" class="node">
<title>Node85416</title>
<g id="a_node26"><a xlink:href="quickjs_8c.html#a27c3a725d4014a35b5bedcdf6e70dec7" target="_top" xlink:title="JS_NewAtomString">
<polygon fill="none" stroke="#ff0000" points="130,-261.5 130,-280.5 233,-280.5 233,-261.5 130,-261.5"/>
<text text-anchor="middle" x="181.5" y="-268.5" font-family="Helvetica,sans-Serif" font-size="10.00" fill="#000000">JS_NewAtomString</text>
</a>
</g>
</g>
<!-- Node84797&#45;&gt;Node85416 -->
<g id="edge31" class="edge">
<title>Node84797&#45;&gt;Node85416</title>
<path fill="none" stroke="#191970" d="M47.9473,-368.3343C60.0459,-346.3198 83.0749,-310.1759 113,-290 118.7304,-286.1365 125.2316,-283.0541 131.8921,-280.5959"/>
<polygon fill="#191970" stroke="#191970" points="44.7614,-366.8717 43.1721,-377.3467 50.9468,-370.149 44.7614,-366.8717"/>
</g>
<!-- Node84988 -->
<g id="node27" class="node">
<title>Node84988</title>
<g id="a_node27"><a xlink:href="quickjs_8c.html#a21cfe4c4fc9372dc0b95b37667cff0c9" target="_top" xlink:title="JS_NewCFunction3">
<polygon fill="none" stroke="#ff0000" points="129.5,-223.5 129.5,-242.5 233.5,-242.5 233.5,-223.5 129.5,-223.5"/>
<text text-anchor="middle" x="181.5" y="-230.5" font-family="Helvetica,sans-Serif" font-size="10.00" fill="#000000">JS_NewCFunction3</text>
</a>
</g>
</g>
<!-- Node84797&#45;&gt;Node84988 -->
<g id="edge32" class="edge">
<title>Node84797&#45;&gt;Node84988</title>
<path fill="none" stroke="#191970" d="M43.8918,-367.5734C53.0856,-338.0976 74.6286,-282.3096 113,-252 117.9391,-248.0986 123.6289,-244.9976 129.5743,-242.5329"/>
<polygon fill="#191970" stroke="#191970" points="40.4435,-366.8918 40.9635,-377.4739 47.1561,-368.8773 40.4435,-366.8918"/>
</g>
<!-- Node85417 -->
<g id="node28" class="node">
<title>Node85417</title>
<g id="a_node28"><a xlink:href="quickjs_8c.html#ac29cc4ec49efa0f0308e494316ce5139" target="_top" xlink:title="JS_NewCModule">
<polygon fill="none" stroke="#ff0000" points="312.5,-592.5 312.5,-611.5 405.5,-611.5 405.5,-592.5 312.5,-592.5"/>
<text text-anchor="middle" x="359" y="-599.5" font-family="Helvetica,sans-Serif" font-size="10.00" fill="#000000">JS_NewCModule</text>
</a>
</g>
</g>
<!-- Node84797&#45;&gt;Node85417 -->
<g id="edge34" class="edge">
<title>Node84797&#45;&gt;Node85417</title>
<path fill="none" stroke="#191970" d="M50.9395,-405.1062C64.2583,-423.1395 87.0172,-450.3318 113,-466 167.1108,-498.63 201.9531,-462.9612 250,-504 279.3393,-529.0599 256.4619,-558.1748 286,-583 293.519,-589.3193 302.898,-593.5667 312.4018,-596.4138"/>
<polygon fill="#191970" stroke="#191970" points="53.5333,-402.7165 44.868,-396.6204 47.8404,-406.7897 53.5333,-402.7165"/>
</g>
<!-- Node85419 -->
<g id="node29" class="node">
<title>Node85419</title>
<g id="a_node29"><a xlink:href="quickjs_8c.html#acc3990661d2851b858601061a62cc7d6" target="_top" xlink:title="JS_SetModuleExport">
<polygon fill="none" stroke="#ff0000" points="127,-147.5 127,-166.5 236,-166.5 236,-147.5 127,-147.5"/>
<text text-anchor="middle" x="181.5" y="-154.5" font-family="Helvetica,sans-Serif" font-size="10.00" fill="#000000">JS_SetModuleExport</text>
</a>
</g>
</g>
<!-- Node84797&#45;&gt;Node85419 -->
<g id="edge37" class="edge">
<title>Node84797&#45;&gt;Node85419</title>
<path fill="none" stroke="#191970" d="M39.6096,-367.1429C43.0333,-325.4505 56.9297,-228.3371 113,-176 117.15,-172.1263 122.0204,-169.0312 127.2181,-166.56"/>
<polygon fill="#191970" stroke="#191970" points="36.1021,-367.1294 38.8953,-377.3494 43.085,-367.6182 36.1021,-367.1294"/>
</g>
<!-- Node85134 -->
<g id="node30" class="node">
<title>Node85134</title>
<g id="a_node30"><a xlink:href="quickjs_8c.html#a62617fe11025d2e5a545db069fc28e64" target="_top" xlink:title="JS_SetPropertyStr">
<polygon fill="none" stroke="#ff0000" points="132.5,-109.5 132.5,-128.5 230.5,-128.5 230.5,-109.5 132.5,-109.5"/>
<text text-anchor="middle" x="181.5" y="-116.5" font-family="Helvetica,sans-Serif" font-size="10.00" fill="#000000">JS_SetPropertyStr</text>
</a>
</g>
</g>
<!-- Node84797&#45;&gt;Node85134 -->
<g id="edge38" class="edge">
<title>Node84797&#45;&gt;Node85134</title>
<path fill="none" stroke="#191970" d="M41.8736,-367.299C51.3164,-314.3589 79.524,-170.8082 113,-138 118.3766,-132.7306 125.0802,-128.8937 132.1732,-126.1057"/>
<polygon fill="#191970" stroke="#191970" points="38.3806,-366.9557 40.1035,-377.4095 45.2757,-368.1629 38.3806,-366.9557"/>
</g>
<!-- Node84799 -->
<g id="node3" class="node">
<title>Node84799</title>
<g id="a_node3"><a xlink:href="quickjs_8c.html#acbcccb7ec58fd4a024ea1d01e5d04561" target="_top" xlink:title="JS_AddIntrinsicEval">
<polygon fill="none" stroke="#ff0000" points="486.5,-636.5 486.5,-655.5 591.5,-655.5 591.5,-636.5 486.5,-636.5"/>
<text text-anchor="middle" x="539" y="-643.5" font-family="Helvetica,sans-Serif" font-size="10.00" fill="#000000">JS_AddIntrinsicEval</text>
</a>
</g>
</g>
<!-- Node84798&#45;&gt;Node84799 -->
<g id="edge2" class="edge">
<title>Node84798&#45;&gt;Node84799</title>
<path fill="none" stroke="#191970" d="M417.5005,-646C439.6163,-646 464.6362,-646 486.1989,-646"/>
<polygon fill="#191970" stroke="#191970" points="417.2367,-642.5001 407.2367,-646 417.2367,-649.5001 417.2367,-642.5001"/>
</g>
<!-- Node84807 -->
<g id="node7" class="node">
<title>Node84807</title>
<g id="a_node7"><a xlink:href="quickjs_8c.html#ac00854b7f1f0f8567af964a2f8f2adb0" target="_top" xlink:title="JS_SetPropertyFunctionList">
<polygon fill="none" stroke="#ff0000" points="289.5,-402.5 289.5,-421.5 428.5,-421.5 428.5,-402.5 289.5,-402.5"/>
<text text-anchor="middle" x="359" y="-409.5" font-family="Helvetica,sans-Serif" font-size="10.00" fill="#000000">JS_SetPropertyFunctionList</text>
</a>
</g>
</g>
<!-- Node84806&#45;&gt;Node84807 -->
<g id="edge6" class="edge">
<title>Node84806&#45;&gt;Node84807</title>
<path fill="none" stroke="#191970" d="M221.2168,-409.6713C241.2696,-410.0102 266.1898,-410.4314 289.3011,-410.822"/>
<polygon fill="#191970" stroke="#191970" points="221.2673,-406.1717 211.2095,-409.5021 221.1489,-413.1707 221.2673,-406.1717"/>
</g>
<!-- Node84816 -->
<g id="node8" class="node">
<title>Node84816</title>
<g id="a_node8"><a xlink:href="quickjs_8c.html#a3afdbdd7b58ef7e1dcc178c362071b3d" target="_top" xlink:title="JS_AddIntrinsicProxy">
<polygon fill="none" stroke="#ff0000" points="483.5,-373.5 483.5,-392.5 594.5,-392.5 594.5,-373.5 483.5,-373.5"/>
<text text-anchor="middle" x="539" y="-380.5" font-family="Helvetica,sans-Serif" font-size="10.00" fill="#000000">JS_AddIntrinsicProxy</text>
</a>
</g>
</g>
<!-- Node84807&#45;&gt;Node84816 -->
<g id="edge7" class="edge">
<title>Node84807&#45;&gt;Node84816</title>
<path fill="none" stroke="#191970" d="M428.3922,-400.8202C446.5662,-397.8921 465.9251,-394.7732 483.2834,-391.9766"/>
<polygon fill="#191970" stroke="#191970" points="427.7535,-397.3778 418.4376,-402.4239 428.867,-404.2887 427.7535,-397.3778"/>
</g>
<!-- Node84822 -->
<g id="node9" class="node">
<title>Node84822</title>
<g id="a_node9"><a xlink:href="quickjs_8c.html#a4c9489297c684663f30e517204a9ec14" target="_top" xlink:title="JS_AddIntrinsicBaseObjects">
<polygon fill="none" stroke="#ff0000" points="468,-316.5 468,-335.5 610,-335.5 610,-316.5 468,-316.5"/>
<text text-anchor="middle" x="539" y="-323.5" font-family="Helvetica,sans-Serif" font-size="10.00" fill="#000000">JS_AddIntrinsicBaseObjects</text>
</a>
</g>
</g>
<!-- Node84807&#45;&gt;Node84822 -->
<g id="edge8" class="edge">
<title>Node84807&#45;&gt;Node84822</title>
<path fill="none" stroke="#191970" d="M388.1555,-398.0701C424.9148,-380.5074 487.1413,-350.7769 518.9597,-335.5748"/>
<polygon fill="#191970" stroke="#191970" points="386.4651,-394.9988 378.9509,-402.4679 389.4828,-401.3149 386.4651,-394.9988"/>
</g>
<!-- Node84826 -->
<g id="node11" class="node">
<title>Node84826</title>
<g id="a_node11"><a xlink:href="classqjs_1_1Context_1_1Module.html#aa51896e065a04689c9dbe80a282805bb" target="_top" xlink:title="qjs::Context::Module::add">
<polygon fill="none" stroke="#000000" points="294.5,-554.5 294.5,-573.5 423.5,-573.5 423.5,-554.5 294.5,-554.5"/>
<text text-anchor="middle" x="359" y="-561.5" font-family="Helvetica,sans-Serif" font-size="10.00" fill="#000000">qjs::Context::Module::add</text>
</a>
</g>
</g>
<!-- Node84825&#45;&gt;Node84826 -->
<g id="edge10" class="edge">
<title>Node84825&#45;&gt;Node84826</title>
<path fill="none" stroke="#191970" d="M233.9708,-460.6224C239.7476,-463.4655 245.248,-466.8869 250,-471 276.1534,-493.6372 259.6286,-517.6171 286,-540 293.425,-546.302 302.5514,-550.9615 311.805,-554.4027"/>
<polygon fill="#191970" stroke="#191970" points="235.3,-457.384 224.7332,-456.6144 232.5138,-463.8056 235.3,-457.384"/>
</g>
<!-- Node84809 -->
<g id="node12" class="node">
<title>Node84809</title>
<g id="a_node12"><a xlink:href="quickjs-libc_8c.html#a0e65c67dfff872a664f8d29e7eae5a61" target="_top" xlink:title="js_init_module_std">
<polygon fill="none" stroke="#ff0000" points="490,-516.5 490,-535.5 588,-535.5 588,-516.5 490,-516.5"/>
<text text-anchor="middle" x="539" y="-523.5" font-family="Helvetica,sans-Serif" font-size="10.00" fill="#000000">js_init_module_std</text>
</a>
</g>
</g>
<!-- Node84825&#45;&gt;Node84809 -->
<g id="edge11" class="edge">
<title>Node84825&#45;&gt;Node84809</title>
<path fill="none" stroke="#191970" d="M228.0345,-460.1103C235.6498,-463.1439 243.2489,-466.7561 250,-471 269.1568,-483.0423 265.4341,-497.5636 286,-507 351.6561,-537.1254 437.0216,-536.4503 489.8986,-532.0743"/>
<polygon fill="#191970" stroke="#191970" points="229.0358,-456.7492 218.4424,-456.5732 226.6139,-463.3169 229.0358,-456.7492"/>
</g>
<!-- Node84811 -->
<g id="node13" class="node">
<title>Node84811</title>
<g id="a_node13"><a xlink:href="quickjs-libc_8c.html#adcca2b4a661355e6ff87a0def2339894" target="_top" xlink:title="js_init_module_os">
<polygon fill="none" stroke="#ff0000" points="491.5,-478.5 491.5,-497.5 586.5,-497.5 586.5,-478.5 491.5,-478.5"/>
<text text-anchor="middle" x="539" y="-485.5" font-family="Helvetica,sans-Serif" font-size="10.00" fill="#000000">js_init_module_os</text>
</a>
</g>
</g>
<!-- Node84825&#45;&gt;Node84811 -->
<g id="edge12" class="edge">
<title>Node84825&#45;&gt;Node84811</title>
<path fill="none" stroke="#191970" d="M247.5233,-451.2033C298.1349,-454.811 369.646,-460.7421 432,-469 451.5453,-471.5885 472.9631,-475.2297 491.4679,-478.6328"/>
<polygon fill="#191970" stroke="#191970" points="247.5908,-447.6995 237.3703,-450.4907 247.1007,-454.6823 247.5908,-447.6995"/>
</g>
<!-- Node84827 -->
<g id="node14" class="node">
<title>Node84827</title>
<g id="a_node14"><a xlink:href="quickjs_8c.html#ac7a9b88dd7ca1a70cd0ecd9a28905e25" target="_top" xlink:title="JS_AddModuleExportList">
<polygon fill="none" stroke="#000000" points="295.5,-478.5 295.5,-497.5 422.5,-497.5 422.5,-478.5 295.5,-478.5"/>
<text text-anchor="middle" x="359" y="-485.5" font-family="Helvetica,sans-Serif" font-size="10.00" fill="#000000">JS_AddModuleExportList</text>
</a>
</g>
</g>
<!-- Node84825&#45;&gt;Node84827 -->
<g id="edge13" class="edge">
<title>Node84825&#45;&gt;Node84827</title>
<path fill="none" stroke="#191970" d="M232.7111,-458.8291C259.7119,-465.0658 292.3954,-472.6153 317.748,-478.4714"/>
<polygon fill="#191970" stroke="#191970" points="233.1994,-455.3497 222.6682,-456.5093 231.6239,-462.1702 233.1994,-455.3497"/>
</g>
<!-- Node84827&#45;&gt;Node84809 -->
<g id="edge14" class="edge">
<title>Node84827&#45;&gt;Node84809</title>
<path fill="none" stroke="#191970" d="M414.331,-499.681C439.8574,-505.0699 469.7761,-511.3861 493.905,-516.4799"/>
<polygon fill="#191970" stroke="#191970" points="414.9289,-496.2301 404.4216,-497.589 413.483,-503.0792 414.9289,-496.2301"/>
</g>
<!-- Node84827&#45;&gt;Node84811 -->
<g id="edge15" class="edge">
<title>Node84827&#45;&gt;Node84811</title>
<path fill="none" stroke="#191970" d="M432.8963,-488C452.5919,-488 473.3512,-488 491.2336,-488"/>
<polygon fill="#191970" stroke="#191970" points="432.7146,-484.5001 422.7146,-488 432.7145,-491.5001 432.7146,-484.5001"/>
</g>
<!-- Node84828&#45;&gt;Node84816 -->
<g id="edge24" class="edge">
<title>Node84828&#45;&gt;Node84816</title>
<path fill="none" stroke="#191970" d="M211.7423,-322.8728C239.812,-335.6568 278.3796,-352.9528 286,-355 352.3652,-372.8285 431.4543,-379.329 483.3235,-381.6853"/>
<polygon fill="#191970" stroke="#191970" points="212.8699,-319.5402 202.3194,-318.5715 209.963,-325.9081 212.8699,-319.5402"/>
</g>
<!-- Node84828&#45;&gt;Node84822 -->
<g id="edge25" class="edge">
<title>Node84828&#45;&gt;Node84822</title>
<path fill="none" stroke="#191970" d="M260.4062,-310.4696C309.7508,-311.649 374.6158,-313.6726 432,-317 443.6317,-317.6745 455.9616,-318.556 467.9554,-319.5034"/>
<polygon fill="#191970" stroke="#191970" points="260.1991,-306.9639 250.1204,-310.2306 260.0364,-313.962 260.1991,-306.9639"/>
</g>
<!-- Node84829 -->
<g id="node16" class="node">
<title>Node84829</title>
<g id="a_node16"><a xlink:href="quickjs-libc_8c.html#a5cc3e22713f1916d49867f60a7375505" target="_top" xlink:title="js_module_set_import_meta">
<polygon fill="none" stroke="#ff0000" points="289.5,-212.5 289.5,-231.5 428.5,-231.5 428.5,-212.5 289.5,-212.5"/>
<text text-anchor="middle" x="359" y="-219.5" font-family="Helvetica,sans-Serif" font-size="10.00" fill="#000000">js_module_set_import_meta</text>
</a>
</g>
</g>
<!-- Node84828&#45;&gt;Node84829 -->
<g id="edge17" class="edge">
<title>Node84828&#45;&gt;Node84829</title>
<path fill="none" stroke="#191970" d="M240.8303,-295.3622C244.0358,-293.7676 247.119,-291.9874 250,-290 272.2443,-274.6552 263.634,-256.1669 286,-241 291.7445,-237.1045 298.2394,-234.0076 304.9277,-231.5456"/>
<polygon fill="#191970" stroke="#191970" points="239.3275,-292.1987 231.5399,-299.3823 242.1075,-298.6231 239.3275,-292.1987"/>
</g>
<!-- Node84834 -->
<g id="node17" class="node">
<title>Node84834</title>
<g id="a_node17"><a xlink:href="quickjs-libc_8c.html#a7aebce2172c6aa4a6645aef600a69e6b" target="_top" xlink:title="js_std_urlGet">
<polygon fill="none" stroke="#000000" points="322,-174.5 322,-193.5 396,-193.5 396,-174.5 322,-174.5"/>
<text text-anchor="middle" x="359" y="-181.5" font-family="Helvetica,sans-Serif" font-size="10.00" fill="#000000">js_std_urlGet</text>
</a>
</g>
</g>
<!-- Node84828&#45;&gt;Node84834 -->
<g id="edge18" class="edge">
<title>Node84828&#45;&gt;Node84834</title>
<path fill="none" stroke="#191970" d="M244.3802,-294.3138C246.3531,-292.9963 248.2355,-291.5618 250,-290 281.3354,-262.2655 254.4445,-230.4838 286,-203 295.8753,-194.3989 309.1745,-189.6183 321.7157,-186.9857"/>
<polygon fill="#191970" stroke="#191970" points="242.2916,-291.4694 235.236,-299.3731 245.6805,-297.5944 242.2916,-291.4694"/>
</g>
<!-- Node84835 -->
<g id="node18" class="node">
<title>Node84835</title>
<g id="a_node18"><a xlink:href="quickjs-libc_8c.html#a9fa4c190ba56314c7ed9b00bbc7ad0f9" target="_top" xlink:title="handle_posted_message">
<polygon fill="none" stroke="#000000" points="296.5,-136.5 296.5,-155.5 421.5,-155.5 421.5,-136.5 296.5,-136.5"/>
<text text-anchor="middle" x="359" y="-143.5" font-family="Helvetica,sans-Serif" font-size="10.00" fill="#000000">handle_posted_message</text>
</a>
</g>
</g>
<!-- Node84828&#45;&gt;Node84835 -->
<g id="edge19" class="edge">
<title>Node84828&#45;&gt;Node84835</title>
<path fill="none" stroke="#191970" d="M245.3836,-293.9888C247.008,-292.7598 248.553,-291.4328 250,-290 291.0811,-249.3212 244.5959,-205.35 286,-165 289.9391,-161.1612 294.5506,-158.0706 299.5078,-155.586"/>
<polygon fill="#191970" stroke="#191970" points="243.3612,-291.1239 236.6864,-299.3517 247.0353,-297.0822 243.3612,-291.1239"/>
</g>
<!-- Node84836 -->
<g id="node19" class="node">
<title>Node84836</title>
<g id="a_node19"><a xlink:href="quickjs-libc_8c.html#a0142166ddf6e134f89207c3ee3c7572c" target="_top" xlink:title="js_os_stat">
<polygon fill="none" stroke="#000000" points="328,-98.5 328,-117.5 390,-117.5 390,-98.5 328,-98.5"/>
<text text-anchor="middle" x="359" y="-105.5" font-family="Helvetica,sans-Serif" font-size="10.00" fill="#000000">js_os_stat</text>
</a>
</g>
</g>
<!-- Node84828&#45;&gt;Node84836 -->
<g id="edge20" class="edge">
<title>Node84828&#45;&gt;Node84836</title>
<path fill="none" stroke="#191970" d="M245.9981,-293.7086C247.4063,-292.558 248.7449,-291.3238 250,-290 301.0466,-236.1628 234.5258,-180.4285 286,-127 296.8124,-115.7771 313.3465,-110.8824 327.9465,-108.8578"/>
<polygon fill="#191970" stroke="#191970" points="243.7163,-291.0192 237.2682,-299.4258 247.5514,-296.8751 243.7163,-291.0192"/>
</g>
<!-- Node84837 -->
<g id="node20" class="node">
<title>Node84837</title>
<g id="a_node20"><a xlink:href="quickjs_8c.html#acd5457d29e9641ae5e3a1d778f94bd0e" target="_top" xlink:title="JS_NewGlobalCConstructor2">
<polygon fill="none" stroke="#ff0000" points="286,-326.5 286,-345.5 432,-345.5 432,-326.5 286,-326.5"/>
<text text-anchor="middle" x="359" y="-333.5" font-family="Helvetica,sans-Serif" font-size="10.00" fill="#000000">JS_NewGlobalCConstructor2</text>
</a>
</g>
</g>
<!-- Node84828&#45;&gt;Node84837 -->
<g id="edge21" class="edge">
<title>Node84828&#45;&gt;Node84837</title>
<path fill="none" stroke="#191970" d="M254.1615,-320.0527C268.1699,-322.1836 282.7317,-324.3986 296.387,-326.4758"/>
<polygon fill="#191970" stroke="#191970" points="254.4925,-316.5629 244.0799,-318.5192 253.4398,-323.4833 254.4925,-316.5629"/>
</g>
<!-- Node84840 -->
<g id="node21" class="node">
<title>Node84840</title>
<g id="a_node21"><a xlink:href="quickjs_8c.html#a9eb2d90f27f684820f9de13189502b7c" target="_top" xlink:title="js_regexp_exec">
<polygon fill="none" stroke="#ff0000" points="316.5,-250.5 316.5,-269.5 401.5,-269.5 401.5,-250.5 316.5,-250.5"/>
<text text-anchor="middle" x="359" y="-257.5" font-family="Helvetica,sans-Serif" font-size="10.00" fill="#000000">js_regexp_exec</text>
</a>
</g>
</g>
<!-- Node84828&#45;&gt;Node84840 -->
<g id="edge23" class="edge">
<title>Node84828&#45;&gt;Node84840</title>
<path fill="none" stroke="#191970" d="M226.0927,-296.6899C256.5688,-288.2768 296.367,-277.2902 324.4422,-269.5399"/>
<polygon fill="#191970" stroke="#191970" points="224.8532,-293.4011 216.1452,-299.436 226.716,-300.1487 224.8532,-293.4011"/>
</g>
<!-- Node84837&#45;&gt;Node84822 -->
<g id="edge22" class="edge">
<title>Node84837&#45;&gt;Node84822</title>
<path fill="none" stroke="#191970" d="M442.2254,-331.3764C450.8029,-330.8998 459.463,-330.4187 467.8915,-329.9505"/>
<polygon fill="#191970" stroke="#191970" points="442.0033,-327.8832 432.2129,-331.9326 442.3917,-334.8724 442.0033,-327.8832"/>
</g>
<!-- Node84850 -->
<g id="node23" class="node">
<title>Node84850</title>
<g id="a_node23"><a xlink:href="structqjs_1_1js__traits_3_01ctor__wrapper_3_01T_00_01Args_8_8_8_01_4_01_4.html#ac3e4ebb181720971396c1bf6008a997b" target="_top" xlink:title="qjs::js_traits\&lt; ctor\l_wrapper\&lt; T, Args...\l \&gt; \&gt;::wrap">
<polygon fill="none" stroke="#000000" points="305.5,-.5 305.5,-41.5 412.5,-41.5 412.5,-.5 305.5,-.5"/>
<text text-anchor="start" x="313.5" y="-29.5" font-family="Helvetica,sans-Serif" font-size="10.00" fill="#000000">qjs::js_traits&lt; ctor</text>
<text text-anchor="start" x="313.5" y="-18.5" font-family="Helvetica,sans-Serif" font-size="10.00" fill="#000000">_wrapper&lt; T, Args...</text>
<text text-anchor="middle" x="359" y="-7.5" font-family="Helvetica,sans-Serif" font-size="10.00" fill="#000000"> &gt; &gt;::wrap</text>
</a>
</g>
</g>
<!-- Node84849&#45;&gt;Node84850 -->
<g id="edge27" class="edge">
<title>Node84849&#45;&gt;Node84850</title>
<path fill="none" stroke="#191970" d="M240.3153,-183.3172C243.8299,-181.2526 247.1068,-178.8334 250,-176 289.7819,-137.0405 249.8067,-98.3142 286,-56 291.3901,-49.6983 298.1732,-44.4423 305.4208,-40.0846"/>
<polygon fill="#191970" stroke="#191970" points="238.6414,-180.239 231.172,-187.7529 241.6968,-186.537 238.6414,-180.239"/>
</g>
<!-- Node85412&#45;&gt;Node84798 -->
<g id="edge30" class="edge">
<title>Node85412&#45;&gt;Node84798</title>
<path fill="none" stroke="#191970" d="M241.7917,-537.1379C244.7045,-538.8711 247.466,-540.8165 250,-543 278.9242,-567.9232 257.655,-595.42 286,-621 293.5583,-627.821 303.0628,-632.7955 312.6916,-636.4185"/>
<polygon fill="#191970" stroke="#191970" points="243.1816,-533.9191 232.6757,-532.5488 240.034,-540.1716 243.1816,-533.9191"/>
</g>
<!-- Node84988&#45;&gt;Node84822 -->
<g id="edge33" class="edge">
<title>Node84988&#45;&gt;Node84822</title>
<path fill="none" stroke="#191970" d="M242.6044,-219.9486C245.2601,-218.2025 247.7487,-216.2292 250,-214 291.0811,-173.3212 239.8078,-123.7664 286,-89 337.8452,-49.9789 377.4879,-53.8007 432,-89 515.4362,-142.876 534.4886,-279.1832 538.1972,-316.4541"/>
<polygon fill="#191970" stroke="#191970" points="240.7771,-216.9575 233.6399,-224.7877 244.1023,-223.1174 240.7771,-216.9575"/>
</g>
<!-- Node85417&#45;&gt;Node84809 -->
<g id="edge35" class="edge">
<title>Node85417&#45;&gt;Node84809</title>
<path fill="none" stroke="#191970" d="M412.2061,-589.7183C418.9466,-587.7063 425.6885,-585.4629 432,-583 466.1176,-569.6866 503.2879,-548.1385 523.5997,-535.7002"/>
<polygon fill="#191970" stroke="#191970" points="411.0505,-586.4079 402.3818,-592.4993 412.9571,-593.1432 411.0505,-586.4079"/>
</g>
<!-- Node85417&#45;&gt;Node84811 -->
<g id="edge36" class="edge">
<title>Node85417&#45;&gt;Node84811</title>
<path fill="none" stroke="#191970" d="M415.2245,-592.8824C421.2809,-590.3426 427.0351,-587.1104 432,-583 460.7895,-559.1651 439.2923,-530.9334 468,-507 474.6646,-501.4438 482.7981,-497.4987 491.15,-494.7009"/>
<polygon fill="#191970" stroke="#191970" points="413.7779,-589.682 405.5284,-596.3301 416.1231,-596.2775 413.7779,-589.682"/>
</g>
</g>
</svg>
        <g id="navigator" transform="translate(0 0)" fill="#404254">
                <rect fill="#f2f5e9" fill-opacity="0.5" stroke="#606060" stroke-width=".5" x="0" y="0" width="60" height="60"/>
                <use id="zoomplus" xlink:href="#zoomPlus" x="17" y="9" onmousedown="handleZoom(evt,'in')"/>
                <use id="zoomminus" xlink:href="#zoomMin" x="42" y="9" onmousedown="handleZoom(evt,'out')"/>
                <use id="reset" xlink:href="#resetDef" x="30" y="36" onmousedown="handleReset()"/>
                <g id="arrowUp" xlink:href="#dirArrow" transform="translate(30 24)" onmousedown="handlePan(0,-1)">
                  <use xlink:href="#rim" fill="#404040">
                        <set attributeName="fill" to="#808080" begin="arrowUp.mouseover" end="arrowUp.mouseout"/>
                  </use>
                  <path fill="none" stroke="white" stroke-width="1.5" d="M0,-3.0v7 M-2.5,-0.5L0,-3.0L2.5,-0.5"/>
                </g>
                <g id="arrowRight" xlink:href="#dirArrow" transform="rotate(90) translate(36 -43)" onmousedown="handlePan(1,0)">
                  <use xlink:href="#rim" fill="#404040">
                        <set attributeName="fill" to="#808080" begin="arrowRight.mouseover" end="arrowRight.mouseout"/>
                  </use>
                  <path fill="none" stroke="white" stroke-width="1.5" d="M0,-3.0v7 M-2.5,-0.5L0,-3.0L2.5,-0.5"/>
                </g>
                <g id="arrowDown" xlink:href="#dirArrow" transform="rotate(180) translate(-30 -48)" onmousedown="handlePan(0,1)">
                  <use xlink:href="#rim" fill="#404040">
                        <set attributeName="fill" to="#808080" begin="arrowDown.mouseover" end="arrowDown.mouseout"/>
                  </use>
                  <path fill="none" stroke="white" stroke-width="1.5" d="M0,-3.0v7 M-2.5,-0.5L0,-3.0L2.5,-0.5"/>
                </g>
                <g id="arrowLeft" xlink:href="#dirArrow" transform="rotate(270) translate(-36 17)" onmousedown="handlePan(-1,0)">
                  <use xlink:href="#rim" fill="#404040">
                        <set attributeName="fill" to="#808080" begin="arrowLeft.mouseover" end="arrowLeft.mouseout"/>
                  </use>
                  <path fill="none" stroke="white" stroke-width="1.5" d="M0,-3.0v7 M-2.5,-0.5L0,-3.0L2.5,-0.5"/>
                </g>
        </g>
        <svg viewBox="0 0 15 15" width="100%" height="30px" preserveAspectRatio="xMaxYMin meet">
         <g id="arrow_out" transform="scale(0.3 0.3)">
          <a xlink:href="quickjs_8c_aa2ef5af1544a3012f91a80c98c326b8f_icgraph_org.svg" target="_base">
           <rect id="button" ry="5" rx="5" y="6" x="6" height="38" width="38"
                fill="#f2f5e9" fill-opacity="0.5" stroke="#606060" stroke-width="1.0"/>
           <path id="arrow"
             d="M 11.500037,31.436501 C 11.940474,20.09759 22.043105,11.32322 32.158766,21.979434 L 37.068811,17.246167 C 37.068811,17.246167 37.088388,32 37.088388,32 L 22.160133,31.978069 C 22.160133,31.978069 26.997745,27.140456 26.997745,27.140456 C 18.528582,18.264221 13.291696,25.230495 11.500037,31.436501 z"
             style="fill:#404040;"/>
          </a>
         </g>
        </svg>
</svg>
