<?xml version="1.0" encoding="UTF-8" standalone="no"?>
<!DOCTYPE svg PUBLIC "-//W3C//DTD SVG 1.1//EN"
 "http://www.w3.org/Graphics/SVG/1.1/DTD/svg11.dtd">
<!-- Generated by graphviz version 2.40.1 (20161225.0304)
 -->
<!-- Title: js_function_proto_caller Pages: 1 -->
<svg width="576pt" height="28pt"
 viewBox="0.00 0.00 576.00 28.00" xmlns="http://www.w3.org/2000/svg" xmlns:xlink="http://www.w3.org/1999/xlink">
<g id="graph0" class="graph" transform="scale(1 1) rotate(0) translate(4 24)">
<title>js_function_proto_caller</title>
<!-- Node270071 -->
<g id="node1" class="node">
<title>Node270071</title>
<polygon fill="#bfbfbf" stroke="#000000" points="0,-.5 0,-19.5 119,-19.5 119,-.5 0,-.5"/>
<text text-anchor="middle" x="59.5" y="-7.5" font-family="Helvetica,sans-Serif" font-size="10.00" fill="#000000">js_function_proto_caller</text>
</g>
<!-- Node270072 -->
<g id="node2" class="node">
<title>Node270072</title>
<g id="a_node2"><a xlink:href="quickjs_8c.html#a4c9489297c684663f30e517204a9ec14" target="_top" xlink:title="JS_AddIntrinsicBaseObjects">
<polygon fill="none" stroke="#000000" points="155,-.5 155,-19.5 297,-19.5 297,-.5 155,-.5"/>
<text text-anchor="middle" x="226" y="-7.5" font-family="Helvetica,sans-Serif" font-size="10.00" fill="#000000">JS_AddIntrinsicBaseObjects</text>
</a>
</g>
</g>
<!-- Node270071&#45;&gt;Node270072 -->
<g id="edge1" class="edge">
<title>Node270071&#45;&gt;Node270072</title>
<path fill="none" stroke="#191970" d="M129.316,-10C137.7553,-10 146.3836,-10 154.8419,-10"/>
<polygon fill="#191970" stroke="#191970" points="129.1401,-6.5001 119.14,-10 129.14,-13.5001 129.1401,-6.5001"/>
</g>
<!-- Node270073 -->
<g id="node3" class="node">
<title>Node270073</title>
<g id="a_node3"><a xlink:href="quickjs_8c.html#ad8aedb643b8753b7a15f6cb2df61945e" target="_top" xlink:title="JS_NewContext">
<polygon fill="none" stroke="#000000" points="333,-.5 333,-19.5 422,-19.5 422,-.5 333,-.5"/>
<text text-anchor="middle" x="377.5" y="-7.5" font-family="Helvetica,sans-Serif" font-size="10.00" fill="#000000">JS_NewContext</text>
</a>
</g>
</g>
<!-- Node270072&#45;&gt;Node270073 -->
<g id="edge2" class="edge">
<title>Node270072&#45;&gt;Node270073</title>
<path fill="none" stroke="#191970" d="M307.5534,-10C316.2595,-10 324.8628,-10 332.8995,-10"/>
<polygon fill="#191970" stroke="#191970" points="307.3138,-6.5001 297.3138,-10 307.3137,-13.5001 307.3138,-6.5001"/>
</g>
<!-- Node270074 -->
<g id="node4" class="node">
<title>Node270074</title>
<g id="a_node4"><a xlink:href="classqjs_1_1Context.html#a4392a23648acfc4bf6b445336efb5007" target="_top" xlink:title="qjs::Context::Context">
<polygon fill="none" stroke="#ff0000" points="458,-.5 458,-19.5 568,-19.5 568,-.5 458,-.5"/>
<text text-anchor="middle" x="513" y="-7.5" font-family="Helvetica,sans-Serif" font-size="10.00" fill="#000000">qjs::Context::Context</text>
</a>
</g>
</g>
<!-- Node270073&#45;&gt;Node270074 -->
<g id="edge3" class="edge">
<title>Node270073&#45;&gt;Node270074</title>
<path fill="none" stroke="#191970" d="M432.3476,-10C440.7739,-10 449.4767,-10 457.9083,-10"/>
<polygon fill="#191970" stroke="#191970" points="432.2433,-6.5001 422.2433,-10 432.2433,-13.5001 432.2433,-6.5001"/>
</g>
</g>
</svg>
