<?xml version="1.0" encoding="UTF-8" standalone="no"?>
<!DOCTYPE svg PUBLIC "-//W3C//DTD SVG 1.1//EN"
 "http://www.w3.org/Graphics/SVG/1.1/DTD/svg11.dtd">
<!-- Generated by graphviz version 2.40.1 (20161225.0304)
 -->
<!-- Title: js_build_mapped_arguments Pages: 1 -->
<!--zoomable 716 -->
<svg id="main" version="1.1" xmlns="http://www.w3.org/2000/svg" xmlns:xlink="http://www.w3.org/1999/xlink" xml:space="preserve" onload="init(evt)">
<style type="text/css"><![CDATA[
.edge:hover path { stroke: red; }
.edge:hover polygon { stroke: red; fill: red; }
]]></style>
<script type="text/javascript"><![CDATA[
var edges = document.getElementsByTagName('g');
if (edges && edges.length) {
  for (var i=0;i<edges.length;i++) {
    if (edges[i].id.substr(0,4)=='edge') {
      edges[i].setAttribute('class','edge');
    }
  }
}
]]></script>
        <defs>
                <circle id="rim" cx="0" cy="0" r="7"/>
                <circle id="rim2" cx="0" cy="0" r="3.5"/>
                <g id="zoomPlus">
                        <use xlink:href="#rim" fill="#404040">
                                <set attributeName="fill" to="#808080" begin="zoomplus.mouseover" end="zoomplus.mouseout"/>
                        </use>
                        <path d="M-4,0h8M0,-4v8" fill="none" stroke="white" stroke-width="1.5" pointer-events="none"/>
                </g>
                <g id="zoomMin">
                        <use xlink:href="#rim" fill="#404040">
                                <set attributeName="fill" to="#808080" begin="zoomminus.mouseover" end="zoomminus.mouseout"/>
                        </use>
                        <path d="M-4,0h8" fill="none" stroke="white" stroke-width="1.5" pointer-events="none"/>
                </g>
                <g id="dirArrow">
                        <path fill="none" stroke="white" stroke-width="1.5" d="M0,-3.0v7 M-2.5,-0.5L0,-3.0L2.5,-0.5"/>
                </g>
               <g id="resetDef">
                       <use xlink:href="#rim2" fill="#404040">
                               <set attributeName="fill" to="#808080" begin="reset.mouseover" end="reset.mouseout"/>
                       </use>
               </g>
        </defs>

<script type="text/javascript">
var viewWidth = 919;
var viewHeight = 716;
var sectionId = 'dynsection-795';
</script>
<script xlink:href="svgpan.js"/>
<svg id="graph" class="graph">
<g id="viewport">
<title>js_build_mapped_arguments</title>
<!-- Node271585 -->
<g id="node1" class="node">
<title>Node271585</title>
<polygon fill="#bfbfbf" stroke="#000000" points="0,-460.1682 0,-479.1682 140,-479.1682 140,-460.1682 0,-460.1682"/>
<text text-anchor="middle" x="70" y="-467.1682" font-family="Helvetica,sans-Serif" font-size="10.00" fill="#000000">js_build_mapped_arguments</text>
</g>
<!-- Node271586 -->
<g id="node2" class="node">
<title>Node271586</title>
<g id="a_node2"><a xlink:href="quickjs_8c.html#a877fcb7651d95b411ce70e62b7f4a1f0" target="_top" xlink:title="__JS_AtomFromUInt32">
<polygon fill="none" stroke="#000000" points="192.5,-688.1682 192.5,-707.1682 311.5,-707.1682 311.5,-688.1682 192.5,-688.1682"/>
<text text-anchor="middle" x="252" y="-695.1682" font-family="Helvetica,sans-Serif" font-size="10.00" fill="#000000">__JS_AtomFromUInt32</text>
</a>
</g>
</g>
<!-- Node271585&#45;&gt;Node271586 -->
<g id="edge1" class="edge">
<title>Node271585&#45;&gt;Node271586</title>
<path fill="none" stroke="#191970" d="M72.23,-479.4424C80.1889,-512.0986 110.2975,-618.47 176,-673.6682 180.9362,-677.8152 186.5932,-681.2477 192.5451,-684.0884"/>
<polygon fill="#191970" stroke="#191970" points="191.5038,-687.4468 202.0795,-688.0828 194.2087,-680.9905 191.5038,-687.4468"/>
</g>
<!-- Node271587 -->
<g id="node3" class="node">
<title>Node271587</title>
<g id="a_node3"><a xlink:href="quickjs_8c.html#a74547db03bf739a52c83a326b32db997" target="_top" xlink:title="add_property">
<polygon fill="none" stroke="#000000" points="215.5,-156.1682 215.5,-175.1682 288.5,-175.1682 288.5,-156.1682 215.5,-156.1682"/>
<text text-anchor="middle" x="252" y="-163.1682" font-family="Helvetica,sans-Serif" font-size="10.00" fill="#000000">add_property</text>
</a>
</g>
</g>
<!-- Node271585&#45;&gt;Node271587 -->
<g id="edge2" class="edge">
<title>Node271585&#45;&gt;Node271587</title>
<path fill="none" stroke="#191970" d="M75.8493,-459.8978C101.7893,-416.5696 206.6668,-241.3896 241.0353,-183.9829"/>
<polygon fill="#191970" stroke="#191970" points="244.1295,-185.6283 246.2632,-175.2505 238.1235,-182.0326 244.1295,-185.6283"/>
</g>
<!-- Node271616 -->
<g id="node19" class="node">
<title>Node271616</title>
<g id="a_node19"><a xlink:href="quickjs_8h.html#a775522f2d084fc8fa0fcb33f390006b4" target="_top" xlink:title="JS_DupValue">
<polygon fill="none" stroke="#000000" points="546,-441.1682 546,-460.1682 623,-460.1682 623,-441.1682 546,-441.1682"/>
<text text-anchor="middle" x="584.5" y="-448.1682" font-family="Helvetica,sans-Serif" font-size="10.00" fill="#000000">JS_DupValue</text>
</a>
</g>
</g>
<!-- Node271585&#45;&gt;Node271616 -->
<g id="edge45" class="edge">
<title>Node271585&#45;&gt;Node271616</title>
<path fill="none" stroke="#191970" d="M132.6503,-460.1378C146.87,-458.3248 161.9288,-456.6799 176,-455.6682 305.5557,-446.353 458.8044,-447.8067 535.5455,-449.3889"/>
<polygon fill="#191970" stroke="#191970" points="535.7825,-452.8947 545.8558,-449.6118 535.9339,-445.8963 535.7825,-452.8947"/>
</g>
<!-- Node271634 -->
<g id="node22" class="node">
<title>Node271634</title>
<g id="a_node22"><a xlink:href="quickjs_8c.html#a9e7b4bccf927d811b0f99b40b08c0472" target="_top" xlink:title="free_var_ref">
<polygon fill="none" stroke="#ff0000" points="550.5,-555.1682 550.5,-574.1682 618.5,-574.1682 618.5,-555.1682 550.5,-555.1682"/>
<text text-anchor="middle" x="584.5" y="-562.1682" font-family="Helvetica,sans-Serif" font-size="10.00" fill="#000000">free_var_ref</text>
</a>
</g>
</g>
<!-- Node271585&#45;&gt;Node271634 -->
<g id="edge31" class="edge">
<title>Node271585&#45;&gt;Node271634</title>
<path fill="none" stroke="#191970" d="M78.7428,-479.3856C95.5224,-497.248 134.2948,-534.8279 176,-549.6682 301.7994,-594.4322 463.3425,-581.499 540.1357,-571.499"/>
<polygon fill="#191970" stroke="#191970" points="540.9548,-574.9203 550.3965,-570.1137 540.0182,-567.9832 540.9548,-574.9203"/>
</g>
<!-- Node271645 -->
<g id="node23" class="node">
<title>Node271645</title>
<g id="a_node23"><a xlink:href="quickjs_8c.html#a37fe43b6649456a848bd54846450b995" target="_top" xlink:title="get_var_ref">
<polygon fill="none" stroke="#000000" points="219.5,-384.1682 219.5,-403.1682 284.5,-403.1682 284.5,-384.1682 219.5,-384.1682"/>
<text text-anchor="middle" x="252" y="-391.1682" font-family="Helvetica,sans-Serif" font-size="10.00" fill="#000000">get_var_ref</text>
</a>
</g>
</g>
<!-- Node271585&#45;&gt;Node271645 -->
<g id="edge32" class="edge">
<title>Node271585&#45;&gt;Node271645</title>
<path fill="none" stroke="#191970" d="M87.6328,-459.998C108.372,-448.8657 144.0326,-430.4725 176,-417.6682 186.7193,-413.3746 198.5262,-409.3299 209.5726,-405.8281"/>
<polygon fill="#191970" stroke="#191970" points="210.931,-409.0716 219.4504,-402.7732 208.8627,-402.3841 210.931,-409.0716"/>
</g>
<!-- Node271646 -->
<g id="node24" class="node">
<title>Node271646</title>
<g id="a_node24"><a xlink:href="quickjs_8c.html#a0a8765bd4012467d9139bc24aabcb3ca" target="_top" xlink:title="JS_DefinePropertyValue">
<polygon fill="none" stroke="#000000" points="190,-498.1682 190,-517.1682 314,-517.1682 314,-498.1682 190,-498.1682"/>
<text text-anchor="middle" x="252" y="-505.1682" font-family="Helvetica,sans-Serif" font-size="10.00" fill="#000000">JS_DefinePropertyValue</text>
</a>
</g>
</g>
<!-- Node271585&#45;&gt;Node271646 -->
<g id="edge34" class="edge">
<title>Node271585&#45;&gt;Node271646</title>
<path fill="none" stroke="#191970" d="M115.9263,-479.2572C140.3759,-484.362 170.6331,-490.6795 196.403,-496.06"/>
<polygon fill="#191970" stroke="#191970" points="195.8997,-499.5303 206.404,-498.1481 197.3304,-492.6781 195.8997,-499.5303"/>
</g>
<!-- Node271637 -->
<g id="node26" class="node">
<title>Node271637</title>
<g id="a_node26"><a xlink:href="quickjs_8h.html#afaa20c47565bc704c6c85f3d77254e7d" target="_top" xlink:title="JS_FreeValue">
<polygon fill="none" stroke="#ff0000" points="545.5,-593.1682 545.5,-612.1682 623.5,-612.1682 623.5,-593.1682 545.5,-593.1682"/>
<text text-anchor="middle" x="584.5" y="-600.1682" font-family="Helvetica,sans-Serif" font-size="10.00" fill="#000000">JS_FreeValue</text>
</a>
</g>
</g>
<!-- Node271585&#45;&gt;Node271637 -->
<g id="edge46" class="edge">
<title>Node271585&#45;&gt;Node271637</title>
<path fill="none" stroke="#191970" d="M75.9512,-479.3853C90.0977,-501.4825 128.1596,-555.3103 176,-577.6682 295.0503,-633.3053 455.2936,-621.601 535.0747,-610.8177"/>
<polygon fill="#191970" stroke="#191970" points="535.9077,-614.2351 545.3231,-609.377 534.9332,-607.3033 535.9077,-614.2351"/>
</g>
<!-- Node271670 -->
<g id="node27" class="node">
<title>Node271670</title>
<g id="a_node27"><a xlink:href="quickjs_8h.html#ad80a83d73e9b7d872b88fbf2943aebe9" target="_top" xlink:title="JS_IsException">
<polygon fill="none" stroke="#000000" points="541.5,-517.1682 541.5,-536.1682 627.5,-536.1682 627.5,-517.1682 541.5,-517.1682"/>
<text text-anchor="middle" x="584.5" y="-524.1682" font-family="Helvetica,sans-Serif" font-size="10.00" fill="#000000">JS_IsException</text>
</a>
</g>
</g>
<!-- Node271585&#45;&gt;Node271670 -->
<g id="edge47" class="edge">
<title>Node271585&#45;&gt;Node271670</title>
<path fill="none" stroke="#191970" d="M82.8365,-479.328C101.94,-493.0351 139.5281,-517.4839 176,-526.6682 300.067,-557.9105 452.1323,-545.1206 531.1257,-534.842"/>
<polygon fill="#191970" stroke="#191970" points="531.868,-538.2739 541.3146,-533.4769 530.9384,-531.3359 531.868,-538.2739"/>
</g>
<!-- Node271712 -->
<g id="node28" class="node">
<title>Node271712</title>
<g id="a_node28"><a xlink:href="quickjs_8h.html#a2050bc428da1c65ac7eb87c3fa3b0392" target="_top" xlink:title="JS_NewInt32">
<polygon fill="none" stroke="#000000" points="546.5,-479.1682 546.5,-498.1682 622.5,-498.1682 622.5,-479.1682 546.5,-479.1682"/>
<text text-anchor="middle" x="584.5" y="-486.1682" font-family="Helvetica,sans-Serif" font-size="10.00" fill="#000000">JS_NewInt32</text>
</a>
</g>
</g>
<!-- Node271585&#45;&gt;Node271712 -->
<g id="edge48" class="edge">
<title>Node271585&#45;&gt;Node271712</title>
<path fill="none" stroke="#191970" d="M140.1915,-472.2603C246.3679,-476.1813 445.0904,-483.5199 536.3885,-486.8914"/>
<polygon fill="#191970" stroke="#191970" points="536.3318,-490.3916 546.4542,-487.2632 536.5902,-483.3964 536.3318,-490.3916"/>
</g>
<!-- Node271829 -->
<g id="node29" class="node">
<title>Node271829</title>
<g id="a_node29"><a xlink:href="quickjs_8c.html#a12aed667595f49667e0095f0a028e0d4" target="_top" xlink:title="JS_DefinePropertyValueUint32">
<polygon fill="none" stroke="#ff0000" points="176,-80.1682 176,-99.1682 328,-99.1682 328,-80.1682 176,-80.1682"/>
<text text-anchor="middle" x="252" y="-87.1682" font-family="Helvetica,sans-Serif" font-size="10.00" fill="#000000">JS_DefinePropertyValueUint32</text>
</a>
</g>
</g>
<!-- Node271585&#45;&gt;Node271829 -->
<g id="edge44" class="edge">
<title>Node271585&#45;&gt;Node271829</title>
<path fill="none" stroke="#191970" d="M71.5432,-459.8552C79.9851,-407.3799 122.1695,-160.3552 176,-108.6682 177.5083,-107.2199 179.1096,-105.877 180.7873,-104.6322"/>
<polygon fill="#191970" stroke="#191970" points="183.0099,-107.3769 189.7349,-99.19 179.3723,-101.3963 183.0099,-107.3769"/>
</g>
<!-- Node271791 -->
<g id="node30" class="node">
<title>Node271791</title>
<g id="a_node30"><a xlink:href="quickjs_8c.html#a73738c650f11459db0d7af3dcdf8316b" target="_top" xlink:title="JS_NewObjectProtoClass">
<polygon fill="none" stroke="#ff0000" points="186.5,-118.1682 186.5,-137.1682 317.5,-137.1682 317.5,-118.1682 186.5,-118.1682"/>
<text text-anchor="middle" x="252" y="-125.1682" font-family="Helvetica,sans-Serif" font-size="10.00" fill="#000000">JS_NewObjectProtoClass</text>
</a>
</g>
</g>
<!-- Node271585&#45;&gt;Node271791 -->
<g id="edge49" class="edge">
<title>Node271585&#45;&gt;Node271791</title>
<path fill="none" stroke="#191970" d="M71.8845,-459.929C81.544,-410.971 126.9566,-192.2962 176,-146.6682 177.531,-145.2438 179.1522,-143.922 180.8472,-142.6956"/>
<polygon fill="#191970" stroke="#191970" points="183.0627,-145.4499 189.8626,-137.325 179.4801,-139.4361 183.0627,-145.4499"/>
</g>
<!-- Node271588 -->
<g id="node4" class="node">
<title>Node271588</title>
<g id="a_node4"><a xlink:href="quickjs_8c.html#a3cadcaa2bd1e3f9359f1c006f396cfa0" target="_top" xlink:title="add_shape_property">
<polygon fill="none" stroke="#000000" points="374.5,-175.1682 374.5,-194.1682 478.5,-194.1682 478.5,-175.1682 374.5,-175.1682"/>
<text text-anchor="middle" x="426.5" y="-182.1682" font-family="Helvetica,sans-Serif" font-size="10.00" fill="#000000">add_shape_property</text>
</a>
</g>
</g>
<!-- Node271587&#45;&gt;Node271588 -->
<g id="edge3" class="edge">
<title>Node271587&#45;&gt;Node271588</title>
<path fill="none" stroke="#191970" d="M288.5809,-169.6512C310.4524,-172.0326 338.8247,-175.1218 364.1444,-177.8787"/>
<polygon fill="#191970" stroke="#191970" points="364.0909,-181.3935 374.4111,-178.9966 364.8487,-174.4346 364.0909,-181.3935"/>
</g>
<!-- Node271593 -->
<g id="node8" class="node">
<title>Node271593</title>
<g id="a_node8"><a xlink:href="quickjs_8c.html#a82dbe63adeac7849406fd48d96f39f7b" target="_top" xlink:title="js_shape_hash_link">
<polygon fill="none" stroke="#000000" points="533.5,-61.1682 533.5,-80.1682 635.5,-80.1682 635.5,-61.1682 533.5,-61.1682"/>
<text text-anchor="middle" x="584.5" y="-68.1682" font-family="Helvetica,sans-Serif" font-size="10.00" fill="#000000">js_shape_hash_link</text>
</a>
</g>
</g>
<!-- Node271587&#45;&gt;Node271593 -->
<g id="edge30" class="edge">
<title>Node271587&#45;&gt;Node271593</title>
<path fill="none" stroke="#191970" d="M288.503,-158.4221C301.2087,-155.4093 315.4239,-151.4781 328,-146.6682 344.8979,-140.2053 347.128,-134.1985 364,-127.6682 416.6217,-107.3009 479.0959,-91.9283 524.0858,-82.311"/>
<polygon fill="#191970" stroke="#191970" points="524.9171,-85.7128 533.9818,-80.228 523.4753,-78.8629 524.9171,-85.7128"/>
</g>
<!-- Node271613 -->
<g id="node16" class="node">
<title>Node271613</title>
<g id="a_node16"><a xlink:href="quickjs_8c.html#ac0c5dbb01d6082796c44b1c7f7c170f1" target="_top" xlink:title="find_hashed_shape_prop">
<polygon fill="none" stroke="#000000" points="364,-61.1682 364,-80.1682 489,-80.1682 489,-61.1682 364,-61.1682"/>
<text text-anchor="middle" x="426.5" y="-68.1682" font-family="Helvetica,sans-Serif" font-size="10.00" fill="#000000">find_hashed_shape_prop</text>
</a>
</g>
</g>
<!-- Node271587&#45;&gt;Node271613 -->
<g id="edge18" class="edge">
<title>Node271587&#45;&gt;Node271613</title>
<path fill="none" stroke="#191970" d="M288.6454,-161.9596C301.9257,-159.2692 316.4789,-154.637 328,-146.6682 351.118,-130.6781 341.8968,-112.034 364,-94.6682 369.1582,-90.6155 375.0797,-87.1832 381.1773,-84.2949"/>
<polygon fill="#191970" stroke="#191970" points="382.988,-87.3282 390.8196,-80.1926 380.2476,-80.8869 382.988,-87.3282"/>
</g>
<!-- Node271614 -->
<g id="node17" class="node">
<title>Node271614</title>
<g id="a_node17"><a xlink:href="quickjs_8c.html#a8e34657169da77ae6a386311351ed3de" target="_top" xlink:title="js_clone_shape">
<polygon fill="none" stroke="#ff0000" points="384.5,-289.1682 384.5,-308.1682 468.5,-308.1682 468.5,-289.1682 384.5,-289.1682"/>
<text text-anchor="middle" x="426.5" y="-296.1682" font-family="Helvetica,sans-Serif" font-size="10.00" fill="#000000">js_clone_shape</text>
</a>
</g>
</g>
<!-- Node271587&#45;&gt;Node271614 -->
<g id="edge21" class="edge">
<title>Node271587&#45;&gt;Node271614</title>
<path fill="none" stroke="#191970" d="M264.5496,-175.2332C294.2119,-197.8411 368.9015,-254.7679 405.5543,-282.7038"/>
<polygon fill="#191970" stroke="#191970" points="403.5184,-285.5528 413.5933,-288.831 407.7617,-279.9855 403.5184,-285.5528"/>
</g>
<!-- Node271617 -->
<g id="node20" class="node">
<title>Node271617</title>
<g id="a_node20"><a xlink:href="quickjs_8c.html#aed229eb80b3b03a2275471dee93c69d6" target="_top" xlink:title="js_dup_shape">
<polygon fill="none" stroke="#000000" points="388,-23.1682 388,-42.1682 465,-42.1682 465,-23.1682 388,-23.1682"/>
<text text-anchor="middle" x="426.5" y="-30.1682" font-family="Helvetica,sans-Serif" font-size="10.00" fill="#000000">js_dup_shape</text>
</a>
</g>
</g>
<!-- Node271587&#45;&gt;Node271617 -->
<g id="edge28" class="edge">
<title>Node271587&#45;&gt;Node271617</title>
<path fill="none" stroke="#191970" d="M288.6037,-163.6094C302.3444,-161.1514 317.2262,-156.2474 328,-146.6682 361.7432,-116.6663 331.0195,-82.5065 364,-51.6682 368.1419,-47.7953 373.0501,-44.7104 378.2672,-42.2536"/>
<polygon fill="#191970" stroke="#191970" points="379.8634,-45.387 387.8928,-38.4748 377.3054,-38.8711 379.8634,-45.387"/>
</g>
<!-- Node271618 -->
<g id="node21" class="node">
<title>Node271618</title>
<g id="a_node21"><a xlink:href="quickjs_8c.html#a3a9f27520d96cf58aa5bd7359e9cddee" target="_top" xlink:title="js_free_shape">
<polygon fill="none" stroke="#ff0000" points="388,-137.1682 388,-156.1682 465,-156.1682 465,-137.1682 388,-137.1682"/>
<text text-anchor="middle" x="426.5" y="-144.1682" font-family="Helvetica,sans-Serif" font-size="10.00" fill="#000000">js_free_shape</text>
</a>
</g>
</g>
<!-- Node271587&#45;&gt;Node271618 -->
<g id="edge29" class="edge">
<title>Node271587&#45;&gt;Node271618</title>
<path fill="none" stroke="#191970" d="M288.5809,-161.6851C314.4824,-158.8649 349.501,-155.052 377.7697,-151.974"/>
<polygon fill="#191970" stroke="#191970" points="378.2874,-155.4384 387.8498,-150.8765 377.5296,-148.4796 378.2874,-155.4384"/>
</g>
<!-- Node271589 -->
<g id="node5" class="node">
<title>Node271589</title>
<g id="a_node5"><a xlink:href="quickjs_8c.html#a288254c06a39c9fca740a7abdad2834e" target="_top" xlink:title="__JS_AtomIsTaggedInt">
<polygon fill="none" stroke="#000000" points="525,-289.1682 525,-308.1682 644,-308.1682 644,-289.1682 525,-289.1682"/>
<text text-anchor="middle" x="584.5" y="-296.1682" font-family="Helvetica,sans-Serif" font-size="10.00" fill="#000000">__JS_AtomIsTaggedInt</text>
</a>
</g>
</g>
<!-- Node271588&#45;&gt;Node271589 -->
<g id="edge4" class="edge">
<title>Node271588&#45;&gt;Node271589</title>
<path fill="none" stroke="#191970" d="M439.6992,-194.1917C466.9326,-213.841 529.5788,-259.0414 562.8375,-283.0383"/>
<polygon fill="#191970" stroke="#191970" points="560.846,-285.9172 571.0034,-288.9301 564.9418,-280.2406 560.846,-285.9172"/>
</g>
<!-- Node271590 -->
<g id="node6" class="node">
<title>Node271590</title>
<g id="a_node6"><a xlink:href="quickjs_8c.html#a643df594b75933007bcdbb071b5ea8c5" target="_top" xlink:title="get_shape_prop">
<polygon fill="none" stroke="#000000" points="541.5,-365.1682 541.5,-384.1682 627.5,-384.1682 627.5,-365.1682 541.5,-365.1682"/>
<text text-anchor="middle" x="584.5" y="-372.1682" font-family="Helvetica,sans-Serif" font-size="10.00" fill="#000000">get_shape_prop</text>
</a>
</g>
</g>
<!-- Node271588&#45;&gt;Node271590 -->
<g id="edge5" class="edge">
<title>Node271588&#45;&gt;Node271590</title>
<path fill="none" stroke="#191970" d="M433.5368,-194.3676C445.6308,-211.2462 470.8118,-247.3146 489,-279.6682 507.3157,-312.2484 496.8702,-331.0582 525,-355.6682 527.2188,-357.6094 529.6375,-359.3525 532.1885,-360.9179"/>
<polygon fill="#191970" stroke="#191970" points="530.7791,-364.1286 541.2735,-365.584 533.9772,-357.9019 530.7791,-364.1286"/>
</g>
<!-- Node271591 -->
<g id="node7" class="node">
<title>Node271591</title>
<g id="a_node7"><a xlink:href="quickjs_8c.html#abbf44eaeace1104a6bef718fbf5700fe" target="_top" xlink:title="JS_DupAtom">
<polygon fill="none" stroke="#ff0000" points="547,-213.1682 547,-232.1682 622,-232.1682 622,-213.1682 547,-213.1682"/>
<text text-anchor="middle" x="584.5" y="-220.1682" font-family="Helvetica,sans-Serif" font-size="10.00" fill="#000000">JS_DupAtom</text>
</a>
</g>
</g>
<!-- Node271588&#45;&gt;Node271591 -->
<g id="edge6" class="edge">
<title>Node271588&#45;&gt;Node271591</title>
<path fill="none" stroke="#191970" d="M466.3701,-194.2572C487.7748,-199.4051 514.3069,-205.7863 536.8004,-211.1961"/>
<polygon fill="#191970" stroke="#191970" points="536.277,-214.6699 546.8182,-213.6054 537.9139,-207.864 536.277,-214.6699"/>
</g>
<!-- Node271588&#45;&gt;Node271593 -->
<g id="edge7" class="edge">
<title>Node271588&#45;&gt;Node271593</title>
<path fill="none" stroke="#191970" d="M473.8045,-175.0397C479.3044,-172.5912 484.5345,-169.5202 489,-165.6682 517.301,-141.2553 496.8702,-114.2781 525,-89.6682 526.9281,-87.9813 529.0071,-86.444 531.1926,-85.043"/>
<polygon fill="#191970" stroke="#191970" points="532.9002,-88.0988 540.0572,-80.2868 529.5907,-81.9306 532.9002,-88.0988"/>
</g>
<!-- Node271595 -->
<g id="node10" class="node">
<title>Node271595</title>
<g id="a_node10"><a xlink:href="quickjs_8c.html#ae5e76f4be6214208cc91f10a192fc810" target="_top" xlink:title="js_shape_hash_unlink">
<polygon fill="none" stroke="#000000" points="528,-99.1682 528,-118.1682 641,-118.1682 641,-99.1682 528,-99.1682"/>
<text text-anchor="middle" x="584.5" y="-106.1682" font-family="Helvetica,sans-Serif" font-size="10.00" fill="#000000">js_shape_hash_unlink</text>
</a>
</g>
</g>
<!-- Node271588&#45;&gt;Node271595 -->
<g id="edge9" class="edge">
<title>Node271588&#45;&gt;Node271595</title>
<path fill="none" stroke="#191970" d="M467.2763,-175.1615C474.7523,-172.6224 482.3019,-169.4902 489,-165.6682 507.8519,-154.9109 506.6411,-144.2467 525,-132.6682 531.2829,-128.7057 538.33,-125.179 545.3169,-122.13"/>
<polygon fill="#191970" stroke="#191970" points="546.8039,-125.3032 554.7296,-118.2722 544.1493,-118.826 546.8039,-125.3032"/>
</g>
<!-- Node271596 -->
<g id="node11" class="node">
<title>Node271596</title>
<g id="a_node11"><a xlink:href="quickjs_8c.html#acab22c2945c4d609e57a2484feb68a96" target="_top" xlink:title="prop_hash_end">
<polygon fill="none" stroke="#000000" points="828,-175.1682 828,-194.1682 911,-194.1682 911,-175.1682 828,-175.1682"/>
<text text-anchor="middle" x="869.5" y="-182.1682" font-family="Helvetica,sans-Serif" font-size="10.00" fill="#000000">prop_hash_end</text>
</a>
</g>
</g>
<!-- Node271588&#45;&gt;Node271596 -->
<g id="edge11" class="edge">
<title>Node271588&#45;&gt;Node271596</title>
<path fill="none" stroke="#191970" d="M466.5049,-175.1576C484.3019,-171.3925 505.5826,-167.5238 525,-165.6682 628.6498,-155.7628 750.3745,-168.0692 817.8397,-176.9902"/>
<polygon fill="#191970" stroke="#191970" points="817.4125,-180.4642 827.7909,-178.3338 818.3492,-173.5271 817.4125,-180.4642"/>
</g>
<!-- Node271597 -->
<g id="node12" class="node">
<title>Node271597</title>
<g id="a_node12"><a xlink:href="quickjs_8c.html#aa80740ff93b724ea7e0c280826f4a25a" target="_top" xlink:title="resize_properties">
<polygon fill="none" stroke="#ff0000" points="539,-175.1682 539,-194.1682 630,-194.1682 630,-175.1682 539,-175.1682"/>
<text text-anchor="middle" x="584.5" y="-182.1682" font-family="Helvetica,sans-Serif" font-size="10.00" fill="#000000">resize_properties</text>
</a>
</g>
</g>
<!-- Node271588&#45;&gt;Node271597 -->
<g id="edge12" class="edge">
<title>Node271588&#45;&gt;Node271597</title>
<path fill="none" stroke="#191970" d="M478.673,-184.6682C494.5998,-184.6682 512.1773,-184.6682 528.3555,-184.6682"/>
<polygon fill="#191970" stroke="#191970" points="528.7535,-188.1683 538.7534,-184.6682 528.7534,-181.1683 528.7535,-188.1683"/>
</g>
<!-- Node271612 -->
<g id="node15" class="node">
<title>Node271612</title>
<g id="a_node15"><a xlink:href="quickjs_8c.html#a11f047846c1027dc6066a5f1b2ef292a" target="_top" xlink:title="shape_hash">
<polygon fill="none" stroke="#000000" points="550,-23.1682 550,-42.1682 619,-42.1682 619,-23.1682 550,-23.1682"/>
<text text-anchor="middle" x="584.5" y="-30.1682" font-family="Helvetica,sans-Serif" font-size="10.00" fill="#000000">shape_hash</text>
</a>
</g>
</g>
<!-- Node271588&#45;&gt;Node271612 -->
<g id="edge17" class="edge">
<title>Node271588&#45;&gt;Node271612</title>
<path fill="none" stroke="#191970" d="M475.2584,-175.1559C480.3215,-172.6847 485.0495,-169.5764 489,-165.6682 526.7722,-128.3001 487.4898,-89.2992 525,-51.6682 529.3157,-47.3386 534.6161,-43.9944 540.2581,-41.4117"/>
<polygon fill="#191970" stroke="#191970" points="541.8453,-44.5536 549.9624,-37.7445 539.3708,-38.0055 541.8453,-44.5536"/>
</g>
<!-- Node271594 -->
<g id="node9" class="node">
<title>Node271594</title>
<g id="a_node9"><a xlink:href="quickjs_8c.html#a8291bf195606b5d1b0faed795b6dc3ff" target="_top" xlink:title="get_shape_hash">
<polygon fill="none" stroke="#000000" points="692,-61.1682 692,-80.1682 780,-80.1682 780,-61.1682 692,-61.1682"/>
<text text-anchor="middle" x="736" y="-68.1682" font-family="Helvetica,sans-Serif" font-size="10.00" fill="#000000">get_shape_hash</text>
</a>
</g>
</g>
<!-- Node271593&#45;&gt;Node271594 -->
<g id="edge8" class="edge">
<title>Node271593&#45;&gt;Node271594</title>
<path fill="none" stroke="#191970" d="M635.791,-70.6682C650.5773,-70.6682 666.7566,-70.6682 681.7179,-70.6682"/>
<polygon fill="#191970" stroke="#191970" points="681.8491,-74.1683 691.8491,-70.6682 681.8491,-67.1683 681.8491,-74.1683"/>
</g>
<!-- Node271595&#45;&gt;Node271594 -->
<g id="edge10" class="edge">
<title>Node271595&#45;&gt;Node271594</title>
<path fill="none" stroke="#191970" d="M622.7298,-99.0792C642.6319,-94.0872 667.1567,-87.9358 688.2909,-82.6348"/>
<polygon fill="#191970" stroke="#191970" points="689.1971,-86.016 698.0451,-80.1882 687.494,-79.2263 689.1971,-86.016"/>
</g>
<!-- Node271597&#45;&gt;Node271596 -->
<g id="edge16" class="edge">
<title>Node271597&#45;&gt;Node271596</title>
<path fill="none" stroke="#191970" d="M630.2902,-184.6682C681.4779,-184.6682 764.1884,-184.6682 817.6994,-184.6682"/>
<polygon fill="#191970" stroke="#191970" points="817.9943,-188.1683 827.9942,-184.6682 817.9942,-181.1683 817.9943,-188.1683"/>
</g>
<!-- Node271598 -->
<g id="node13" class="node">
<title>Node271598</title>
<g id="a_node13"><a xlink:href="quickjs_8c.html#a7da0cfa6f27af0e1b9599d7f359edbe2" target="_top" xlink:title="get_alloc_from_shape">
<polygon fill="none" stroke="#000000" points="680,-213.1682 680,-232.1682 792,-232.1682 792,-213.1682 680,-213.1682"/>
<text text-anchor="middle" x="736" y="-220.1682" font-family="Helvetica,sans-Serif" font-size="10.00" fill="#000000">get_alloc_from_shape</text>
</a>
</g>
</g>
<!-- Node271597&#45;&gt;Node271598 -->
<g id="edge13" class="edge">
<title>Node271597&#45;&gt;Node271598</title>
<path fill="none" stroke="#191970" d="M622.7298,-194.2572C642.6319,-199.2491 667.1567,-205.4005 688.2909,-210.7015"/>
<polygon fill="#191970" stroke="#191970" points="687.494,-214.11 698.0451,-213.1481 689.1971,-207.3203 687.494,-214.11"/>
</g>
<!-- Node271608 -->
<g id="node14" class="node">
<title>Node271608</title>
<g id="a_node14"><a xlink:href="list_8h.html#a3a5d0733570b2fafc18f4c71a2968ea5" target="_top" xlink:title="list_add_tail">
<polygon fill="none" stroke="#ff0000" points="702,-327.1682 702,-346.1682 770,-346.1682 770,-327.1682 702,-327.1682"/>
<text text-anchor="middle" x="736" y="-334.1682" font-family="Helvetica,sans-Serif" font-size="10.00" fill="#000000">list_add_tail</text>
</a>
</g>
</g>
<!-- Node271597&#45;&gt;Node271608 -->
<g id="edge15" class="edge">
<title>Node271597&#45;&gt;Node271608</title>
<path fill="none" stroke="#191970" d="M626.5316,-194.2176C632.7249,-196.6958 638.7712,-199.7964 644,-203.6682 665.4709,-219.5665 705.8629,-285.3302 725.1777,-318.0322"/>
<polygon fill="#191970" stroke="#191970" points="722.3743,-320.1709 730.451,-327.0279 728.4132,-316.6309 722.3743,-320.1709"/>
</g>
<!-- Node271598&#45;&gt;Node271596 -->
<g id="edge14" class="edge">
<title>Node271598&#45;&gt;Node271596</title>
<path fill="none" stroke="#191970" d="M769.6877,-213.0792C786.7632,-208.2187 807.7004,-202.259 825.9816,-197.0554"/>
<polygon fill="#191970" stroke="#191970" points="827.1634,-200.3581 835.8231,-194.2541 825.2469,-193.6256 827.1634,-200.3581"/>
</g>
<!-- Node271613&#45;&gt;Node271594 -->
<g id="edge19" class="edge">
<title>Node271613&#45;&gt;Node271594</title>
<path fill="none" stroke="#191970" d="M468.8166,-61.0783C475.8335,-58.5813 482.8265,-55.4853 489,-51.6682 508.7875,-39.4334 503.6287,-22.8606 525,-13.6682 573.5851,7.2298 593.1322,.8128 644,-13.6682 671.9541,-21.6261 699.7164,-40.7785 717.3123,-54.6913"/>
<polygon fill="#191970" stroke="#191970" points="715.1265,-57.4251 725.0898,-61.0283 719.5481,-51.9983 715.1265,-57.4251"/>
</g>
<!-- Node271613&#45;&gt;Node271612 -->
<g id="edge20" class="edge">
<title>Node271613&#45;&gt;Node271612</title>
<path fill="none" stroke="#191970" d="M466.3701,-61.0792C488.7472,-55.6973 516.7281,-48.9677 539.8401,-43.4091"/>
<polygon fill="#191970" stroke="#191970" points="540.8425,-46.7679 549.7468,-41.0265 539.2056,-39.962 540.8425,-46.7679"/>
</g>
<!-- Node271614&#45;&gt;Node271590 -->
<g id="edge25" class="edge">
<title>Node271614&#45;&gt;Node271590</title>
<path fill="none" stroke="#191970" d="M440.6686,-308.182C459.3578,-320.4188 493.5656,-341.7492 525,-355.6682 530.0196,-357.8908 535.3807,-359.9774 540.752,-361.8948"/>
<polygon fill="#191970" stroke="#191970" points="539.7654,-365.256 550.3598,-365.1563 542.0156,-358.6275 539.7654,-365.256"/>
</g>
<!-- Node271614&#45;&gt;Node271591 -->
<g id="edge26" class="edge">
<title>Node271614&#45;&gt;Node271591</title>
<path fill="none" stroke="#191970" d="M443.3167,-289.1131C462.7161,-278.2504 495.7082,-260.2643 525,-246.6682 532.9153,-242.9942 541.5583,-239.3212 549.7425,-235.9927"/>
<polygon fill="#191970" stroke="#191970" points="551.0821,-239.2266 559.068,-232.2641 548.4833,-232.7268 551.0821,-239.2266"/>
</g>
<!-- Node271614&#45;&gt;Node271598 -->
<g id="edge24" class="edge">
<title>Node271614&#45;&gt;Node271598</title>
<path fill="none" stroke="#191970" d="M465.385,-289.1197C521.6731,-275.2977 625.8151,-249.7249 687.1931,-234.6531"/>
<polygon fill="#191970" stroke="#191970" points="688.1538,-238.0212 697.0306,-232.2374 686.4845,-231.2232 688.1538,-238.0212"/>
</g>
<!-- Node271615 -->
<g id="node18" class="node">
<title>Node271615</title>
<g id="a_node18"><a xlink:href="quickjs_8c.html#a9780456a71703c53244b88831bc8fb7a" target="_top" xlink:title="add_gc_object">
<polygon fill="none" stroke="#000000" points="544.5,-327.1682 544.5,-346.1682 624.5,-346.1682 624.5,-327.1682 544.5,-327.1682"/>
<text text-anchor="middle" x="584.5" y="-334.1682" font-family="Helvetica,sans-Serif" font-size="10.00" fill="#000000">add_gc_object</text>
</a>
</g>
</g>
<!-- Node271614&#45;&gt;Node271615 -->
<g id="edge22" class="edge">
<title>Node271614&#45;&gt;Node271615</title>
<path fill="none" stroke="#191970" d="M466.3701,-308.2572C487.2199,-313.2717 512.9346,-319.4562 535.0429,-324.7734"/>
<polygon fill="#191970" stroke="#191970" points="534.3754,-328.2126 544.9166,-327.1481 536.0123,-321.4067 534.3754,-328.2126"/>
</g>
<!-- Node271614&#45;&gt;Node271616 -->
<g id="edge27" class="edge">
<title>Node271614&#45;&gt;Node271616</title>
<path fill="none" stroke="#191970" d="M436.5569,-308.3893C454.3665,-325.5995 492.6272,-362.5508 525,-393.6682 539.0775,-407.1997 555.0588,-422.5065 566.9114,-433.8484"/>
<polygon fill="#191970" stroke="#191970" points="564.7379,-436.6128 574.3833,-440.9964 569.5769,-431.5546 564.7379,-436.6128"/>
</g>
<!-- Node271615&#45;&gt;Node271608 -->
<g id="edge23" class="edge">
<title>Node271615&#45;&gt;Node271608</title>
<path fill="none" stroke="#191970" d="M624.7015,-336.6682C645.343,-336.6682 670.539,-336.6682 691.7344,-336.6682"/>
<polygon fill="#191970" stroke="#191970" points="691.7806,-340.1683 701.7805,-336.6682 691.7805,-333.1683 691.7806,-340.1683"/>
</g>
<!-- Node271645&#45;&gt;Node271608 -->
<g id="edge33" class="edge">
<title>Node271645&#45;&gt;Node271608</title>
<path fill="none" stroke="#191970" d="M284.5794,-399.5597C352.8426,-410.6384 515.2174,-430.3297 644,-393.6682 671.9541,-385.7103 699.7164,-366.5579 717.3123,-352.645"/>
<polygon fill="#191970" stroke="#191970" points="719.5481,-355.338 725.0898,-346.308 715.1265,-349.9112 719.5481,-355.338"/>
</g>
<!-- Node271647 -->
<g id="node25" class="node">
<title>Node271647</title>
<g id="a_node25"><a xlink:href="quickjs_8c.html#ab50618f1bf78e444caa6da0e3e2785d7" target="_top" xlink:title="JS_DefineProperty">
<polygon fill="none" stroke="#ff0000" points="377,-498.1682 377,-517.1682 476,-517.1682 476,-498.1682 377,-498.1682"/>
<text text-anchor="middle" x="426.5" y="-505.1682" font-family="Helvetica,sans-Serif" font-size="10.00" fill="#000000">JS_DefineProperty</text>
</a>
</g>
</g>
<!-- Node271646&#45;&gt;Node271647 -->
<g id="edge35" class="edge">
<title>Node271646&#45;&gt;Node271647</title>
<path fill="none" stroke="#191970" d="M314.0135,-507.6682C331.0496,-507.6682 349.4903,-507.6682 366.4158,-507.6682"/>
<polygon fill="#191970" stroke="#191970" points="366.7325,-511.1683 376.7325,-507.6682 366.7324,-504.1683 366.7325,-511.1683"/>
</g>
<!-- Node271646&#45;&gt;Node271637 -->
<g id="edge43" class="edge">
<title>Node271646&#45;&gt;Node271637</title>
<path fill="none" stroke="#191970" d="M285.4037,-517.2121C346.024,-534.5321 474.0786,-571.1192 541.2693,-590.3165"/>
<polygon fill="#191970" stroke="#191970" points="540.5417,-593.7486 551.1185,-593.1306 542.4648,-587.018 540.5417,-593.7486"/>
</g>
<!-- Node271647&#45;&gt;Node271589 -->
<g id="edge36" class="edge">
<title>Node271647&#45;&gt;Node271589</title>
<path fill="none" stroke="#191970" d="M428.6765,-498.144C436.2279,-467.2623 464.2269,-368.9405 525,-317.6682 527.0306,-315.955 529.2175,-314.3958 531.5121,-312.9766"/>
<polygon fill="#191970" stroke="#191970" points="533.5248,-315.8758 540.7944,-308.1684 530.3051,-309.6602 533.5248,-315.8758"/>
</g>
<!-- Node271647&#45;&gt;Node271590 -->
<g id="edge38" class="edge">
<title>Node271647&#45;&gt;Node271590</title>
<path fill="none" stroke="#191970" d="M437.863,-498.1031C464.6072,-475.5906 531.7778,-419.0482 565.1129,-390.9877"/>
<polygon fill="#191970" stroke="#191970" points="567.4173,-393.6229 572.8137,-384.5054 562.9093,-388.2676 567.4173,-393.6229"/>
</g>
<!-- Node271647&#45;&gt;Node271616 -->
<g id="edge39" class="edge">
<title>Node271647&#45;&gt;Node271616</title>
<path fill="none" stroke="#191970" d="M450.2383,-498.0569C470.0989,-490.1253 499.2407,-478.7409 525,-469.6682 531.0408,-467.5405 537.4614,-465.3833 543.7649,-463.3233"/>
<polygon fill="#191970" stroke="#191970" points="545.0585,-466.5838 553.5026,-460.1847 542.911,-459.9213 545.0585,-466.5838"/>
</g>
<!-- Node271647&#45;&gt;Node271634 -->
<g id="edge37" class="edge">
<title>Node271647&#45;&gt;Node271634</title>
<path fill="none" stroke="#191970" d="M450.2383,-517.2794C470.0989,-525.211 499.2407,-536.5954 525,-545.6682 531.0408,-547.7958 537.4614,-549.9531 543.7649,-552.013"/>
<polygon fill="#191970" stroke="#191970" points="542.911,-555.415 553.5026,-555.1517 545.0585,-548.7526 542.911,-555.415"/>
</g>
<!-- Node271647&#45;&gt;Node271637 -->
<g id="edge40" class="edge">
<title>Node271647&#45;&gt;Node271637</title>
<path fill="none" stroke="#191970" d="M436.5865,-517.4215C453.5467,-533.3418 489.4236,-565.0049 525,-583.6682 529.2192,-585.8815 533.7427,-587.8948 538.342,-589.7115"/>
<polygon fill="#191970" stroke="#191970" points="537.2215,-593.0283 547.8154,-593.1655 539.6193,-586.4517 537.2215,-593.0283"/>
</g>
<!-- Node271647&#45;&gt;Node271670 -->
<g id="edge41" class="edge">
<title>Node271647&#45;&gt;Node271670</title>
<path fill="none" stroke="#191970" d="M476.0587,-513.6277C493.5345,-515.7293 513.2532,-518.1005 531.0373,-520.2391"/>
<polygon fill="#191970" stroke="#191970" points="530.9068,-523.7485 541.2532,-521.4676 531.7426,-516.7986 530.9068,-523.7485"/>
</g>
<!-- Node271647&#45;&gt;Node271712 -->
<g id="edge42" class="edge">
<title>Node271647&#45;&gt;Node271712</title>
<path fill="none" stroke="#191970" d="M476.0587,-501.7086C495.3137,-499.3931 517.2917,-496.7502 536.4047,-494.4518"/>
<polygon fill="#191970" stroke="#191970" points="536.8892,-497.9188 546.3997,-493.2498 536.0534,-490.9689 536.8892,-497.9188"/>
</g>
<!-- Node271791&#45;&gt;Node271617 -->
<g id="edge50" class="edge">
<title>Node271791&#45;&gt;Node271617</title>
<path fill="none" stroke="#191970" d="M310.1215,-118.1512C316.4834,-115.6808 322.6003,-112.574 328,-108.6682 352.2773,-91.1071 340.1706,-69.8323 364,-51.6682 368.3406,-48.3595 373.258,-45.6233 378.3819,-43.3614"/>
<polygon fill="#191970" stroke="#191970" points="379.657,-46.621 387.7479,-39.7808 377.1574,-40.0825 379.657,-46.621"/>
</g>
</g>
</svg>
        <g id="navigator" transform="translate(0 0)" fill="#404254">
                <rect fill="#f2f5e9" fill-opacity="0.5" stroke="#606060" stroke-width=".5" x="0" y="0" width="60" height="60"/>
                <use id="zoomplus" xlink:href="#zoomPlus" x="17" y="9" onmousedown="handleZoom(evt,'in')"/>
                <use id="zoomminus" xlink:href="#zoomMin" x="42" y="9" onmousedown="handleZoom(evt,'out')"/>
                <use id="reset" xlink:href="#resetDef" x="30" y="36" onmousedown="handleReset()"/>
                <g id="arrowUp" xlink:href="#dirArrow" transform="translate(30 24)" onmousedown="handlePan(0,-1)">
                  <use xlink:href="#rim" fill="#404040">
                        <set attributeName="fill" to="#808080" begin="arrowUp.mouseover" end="arrowUp.mouseout"/>
                  </use>
                  <path fill="none" stroke="white" stroke-width="1.5" d="M0,-3.0v7 M-2.5,-0.5L0,-3.0L2.5,-0.5"/>
                </g>
                <g id="arrowRight" xlink:href="#dirArrow" transform="rotate(90) translate(36 -43)" onmousedown="handlePan(1,0)">
                  <use xlink:href="#rim" fill="#404040">
                        <set attributeName="fill" to="#808080" begin="arrowRight.mouseover" end="arrowRight.mouseout"/>
                  </use>
                  <path fill="none" stroke="white" stroke-width="1.5" d="M0,-3.0v7 M-2.5,-0.5L0,-3.0L2.5,-0.5"/>
                </g>
                <g id="arrowDown" xlink:href="#dirArrow" transform="rotate(180) translate(-30 -48)" onmousedown="handlePan(0,1)">
                  <use xlink:href="#rim" fill="#404040">
                        <set attributeName="fill" to="#808080" begin="arrowDown.mouseover" end="arrowDown.mouseout"/>
                  </use>
                  <path fill="none" stroke="white" stroke-width="1.5" d="M0,-3.0v7 M-2.5,-0.5L0,-3.0L2.5,-0.5"/>
                </g>
                <g id="arrowLeft" xlink:href="#dirArrow" transform="rotate(270) translate(-36 17)" onmousedown="handlePan(-1,0)">
                  <use xlink:href="#rim" fill="#404040">
                        <set attributeName="fill" to="#808080" begin="arrowLeft.mouseover" end="arrowLeft.mouseout"/>
                  </use>
                  <path fill="none" stroke="white" stroke-width="1.5" d="M0,-3.0v7 M-2.5,-0.5L0,-3.0L2.5,-0.5"/>
                </g>
        </g>
        <svg viewBox="0 0 15 15" width="100%" height="30px" preserveAspectRatio="xMaxYMin meet">
         <g id="arrow_out" transform="scale(0.3 0.3)">
          <a xlink:href="quickjs_8c_a1c459034f2971c4abc3a8d6d4693ef5f_cgraph_org.svg" target="_base">
           <rect id="button" ry="5" rx="5" y="6" x="6" height="38" width="38"
                fill="#f2f5e9" fill-opacity="0.5" stroke="#606060" stroke-width="1.0"/>
           <path id="arrow"
             d="M 11.500037,31.436501 C 11.940474,20.09759 22.043105,11.32322 32.158766,21.979434 L 37.068811,17.246167 C 37.068811,17.246167 37.088388,32 37.088388,32 L 22.160133,31.978069 C 22.160133,31.978069 26.997745,27.140456 26.997745,27.140456 C 18.528582,18.264221 13.291696,25.230495 11.500037,31.436501 z"
             style="fill:#404040;"/>
          </a>
         </g>
        </svg>
</svg>
