<?xml version="1.0" encoding="UTF-8" standalone="no"?>
<!DOCTYPE svg PUBLIC "-//W3C//DTD SVG 1.1//EN"
 "http://www.w3.org/Graphics/SVG/1.1/DTD/svg11.dtd">
<!-- Generated by graphviz version 2.40.1 (20161225.0304)
 -->
<!-- Title: js_array_buffer_slice Pages: 1 -->
<!--zoomable 572 -->
<svg id="main" version="1.1" xmlns="http://www.w3.org/2000/svg" xmlns:xlink="http://www.w3.org/1999/xlink" xml:space="preserve" onload="init(evt)">
<style type="text/css"><![CDATA[
.edge:hover path { stroke: red; }
.edge:hover polygon { stroke: red; fill: red; }
]]></style>
<script type="text/javascript"><![CDATA[
var edges = document.getElementsByTagName('g');
if (edges && edges.length) {
  for (var i=0;i<edges.length;i++) {
    if (edges[i].id.substr(0,4)=='edge') {
      edges[i].setAttribute('class','edge');
    }
  }
}
]]></script>
        <defs>
                <circle id="rim" cx="0" cy="0" r="7"/>
                <circle id="rim2" cx="0" cy="0" r="3.5"/>
                <g id="zoomPlus">
                        <use xlink:href="#rim" fill="#404040">
                                <set attributeName="fill" to="#808080" begin="zoomplus.mouseover" end="zoomplus.mouseout"/>
                        </use>
                        <path d="M-4,0h8M0,-4v8" fill="none" stroke="white" stroke-width="1.5" pointer-events="none"/>
                </g>
                <g id="zoomMin">
                        <use xlink:href="#rim" fill="#404040">
                                <set attributeName="fill" to="#808080" begin="zoomminus.mouseover" end="zoomminus.mouseout"/>
                        </use>
                        <path d="M-4,0h8" fill="none" stroke="white" stroke-width="1.5" pointer-events="none"/>
                </g>
                <g id="dirArrow">
                        <path fill="none" stroke="white" stroke-width="1.5" d="M0,-3.0v7 M-2.5,-0.5L0,-3.0L2.5,-0.5"/>
                </g>
               <g id="resetDef">
                       <use xlink:href="#rim2" fill="#404040">
                               <set attributeName="fill" to="#808080" begin="reset.mouseover" end="reset.mouseout"/>
                       </use>
               </g>
        </defs>

<script type="text/javascript">
var viewWidth = 825;
var viewHeight = 572;
var sectionId = 'dynsection-1846';
</script>
<script xlink:href="svgpan.js"/>
<svg id="graph" class="graph">
<g id="viewport">
<title>js_array_buffer_slice</title>
<!-- Node475302 -->
<g id="node1" class="node">
<title>Node475302</title>
<polygon fill="#bfbfbf" stroke="#000000" points="0,-202.5 0,-221.5 107,-221.5 107,-202.5 0,-202.5"/>
<text text-anchor="middle" x="53.5" y="-209.5" font-family="Helvetica,sans-Serif" font-size="10.00" fill="#000000">js_array_buffer_slice</text>
</g>
<!-- Node475303 -->
<g id="node2" class="node">
<title>Node475303</title>
<g id="a_node2"><a xlink:href="quickjs_8c.html#a26d438ccdb07d84370683eb01eda3013" target="_top" xlink:title="js_array_buffer_constructor2">
<polygon fill="none" stroke="#000000" points="146,-373.5 146,-392.5 286,-392.5 286,-373.5 146,-373.5"/>
<text text-anchor="middle" x="216" y="-380.5" font-family="Helvetica,sans-Serif" font-size="10.00" fill="#000000">js_array_buffer_constructor2</text>
</a>
</g>
</g>
<!-- Node475302&#45;&gt;Node475303 -->
<g id="edge1" class="edge">
<title>Node475302&#45;&gt;Node475303</title>
<path fill="none" stroke="#191970" d="M58.3995,-221.7185C70.3122,-244.6136 102.7907,-302.8062 143,-340 155.4579,-351.5236 171.5141,-361.3942 185.3948,-368.7611"/>
<polygon fill="#191970" stroke="#191970" points="184.0878,-372.0234 194.586,-373.4508 187.2693,-365.7882 184.0878,-372.0234"/>
</g>
<!-- Node475308 -->
<g id="node7" class="node">
<title>Node475308</title>
<g id="a_node7"><a xlink:href="quickjs_8h.html#afaa20c47565bc704c6c85f3d77254e7d" target="_top" xlink:title="JS_FreeValue">
<polygon fill="none" stroke="#ff0000" points="698,-420.5 698,-439.5 776,-439.5 776,-420.5 698,-420.5"/>
<text text-anchor="middle" x="737" y="-427.5" font-family="Helvetica,sans-Serif" font-size="10.00" fill="#000000">JS_FreeValue</text>
</a>
</g>
</g>
<!-- Node475302&#45;&gt;Node475308 -->
<g id="edge19" class="edge">
<title>Node475302&#45;&gt;Node475308</title>
<path fill="none" stroke="#191970" d="M55.0971,-221.6294C60.7929,-252.8339 83.0678,-352.032 143,-402 226.1815,-471.3519 518.866,-533.0205 621,-497 640.3759,-490.1665 639.6012,-478.9272 657,-468 671.7403,-458.7425 689.0875,-450.2418 703.8538,-443.6388"/>
<polygon fill="#191970" stroke="#191970" points="705.3694,-446.7961 713.1313,-439.5848 702.5665,-440.3818 705.3694,-446.7961"/>
</g>
<!-- Node475357 -->
<g id="node9" class="node">
<title>Node475357</title>
<g id="a_node9"><a xlink:href="quickjs_8h.html#ad80a83d73e9b7d872b88fbf2943aebe9" target="_top" xlink:title="JS_IsException">
<polygon fill="none" stroke="#000000" points="694,-126.5 694,-145.5 780,-145.5 780,-126.5 694,-126.5"/>
<text text-anchor="middle" x="737" y="-133.5" font-family="Helvetica,sans-Serif" font-size="10.00" fill="#000000">JS_IsException</text>
</a>
</g>
</g>
<!-- Node475302&#45;&gt;Node475357 -->
<g id="edge20" class="edge">
<title>Node475302&#45;&gt;Node475357</title>
<path fill="none" stroke="#191970" d="M92.9542,-202.4696C108.4723,-199.0249 126.4946,-195.3977 143,-193 353.901,-162.363 409.4394,-180.6904 621,-155 641.6153,-152.4966 664.1705,-148.9812 683.8659,-145.654"/>
<polygon fill="#191970" stroke="#191970" points="684.6144,-149.0768 693.8793,-143.9375 683.4317,-142.1774 684.6144,-149.0768"/>
</g>
<!-- Node475511 -->
<g id="node11" class="node">
<title>Node475511</title>
<g id="a_node11"><a xlink:href="quickjs_8h.html#a4e407128a9605afb77523e49e9a627fd" target="_top" xlink:title="JS_IsUndefined">
<polygon fill="none" stroke="#000000" points="694,-354.5 694,-373.5 780,-373.5 780,-354.5 694,-354.5"/>
<text text-anchor="middle" x="737" y="-361.5" font-family="Helvetica,sans-Serif" font-size="10.00" fill="#000000">JS_IsUndefined</text>
</a>
</g>
</g>
<!-- Node475302&#45;&gt;Node475511 -->
<g id="edge21" class="edge">
<title>Node475302&#45;&gt;Node475511</title>
<path fill="none" stroke="#191970" d="M60.6017,-221.5663C74.3024,-239.1977 106.2924,-276.5204 143,-293 337.9528,-380.5224 409.2568,-316.163 621,-345 641.5768,-347.8023 664.1241,-351.379 683.824,-354.6716"/>
<polygon fill="#191970" stroke="#191970" points="683.3977,-358.149 693.8407,-356.3619 684.5625,-351.2466 683.3977,-358.149"/>
</g>
<!-- Node475673 -->
<g id="node16" class="node">
<title>Node475673</title>
<g id="a_node16"><a xlink:href="quickjs_8c.html#a28704096ee67c5b0ab1bd60ce050e36a" target="_top" xlink:title="JS_CallConstructor">
<polygon fill="none" stroke="#ff0000" points="165,-240.5 165,-259.5 267,-259.5 267,-240.5 165,-240.5"/>
<text text-anchor="middle" x="216" y="-247.5" font-family="Helvetica,sans-Serif" font-size="10.00" fill="#000000">JS_CallConstructor</text>
</a>
</g>
</g>
<!-- Node475302&#45;&gt;Node475673 -->
<g id="edge18" class="edge">
<title>Node475302&#45;&gt;Node475673</title>
<path fill="none" stroke="#191970" d="M94.5056,-221.589C116.0458,-226.6261 142.6347,-232.8438 165.4414,-238.1771"/>
<polygon fill="#191970" stroke="#191970" points="164.755,-241.6109 175.2893,-240.4799 166.3489,-234.7948 164.755,-241.6109"/>
</g>
<!-- Node475571 -->
<g id="node17" class="node">
<title>Node475571</title>
<g id="a_node17"><a xlink:href="quickjs_8h.html#a6acbc709e59969eac6775f9b253b438f" target="_top" xlink:title="JS_NewInt64">
<polygon fill="none" stroke="#ff0000" points="178,-202.5 178,-221.5 254,-221.5 254,-202.5 178,-202.5"/>
<text text-anchor="middle" x="216" y="-209.5" font-family="Helvetica,sans-Serif" font-size="10.00" fill="#000000">JS_NewInt64</text>
</a>
</g>
</g>
<!-- Node475302&#45;&gt;Node475571 -->
<g id="edge22" class="edge">
<title>Node475302&#45;&gt;Node475571</title>
<path fill="none" stroke="#191970" d="M107.1589,-212C126.6594,-212 148.5659,-212 167.5861,-212"/>
<polygon fill="#191970" stroke="#191970" points="167.8224,-215.5001 177.8224,-212 167.8223,-208.5001 167.8224,-215.5001"/>
</g>
<!-- Node475523 -->
<g id="node18" class="node">
<title>Node475523</title>
<g id="a_node18"><a xlink:href="quickjs_8c.html#a24be89a128d1cd7c0908604815b2b854" target="_top" xlink:title="js_same_value">
<polygon fill="none" stroke="#ff0000" points="354,-41.5 354,-60.5 436,-60.5 436,-41.5 354,-41.5"/>
<text text-anchor="middle" x="395" y="-48.5" font-family="Helvetica,sans-Serif" font-size="10.00" fill="#000000">js_same_value</text>
</a>
</g>
</g>
<!-- Node475302&#45;&gt;Node475523 -->
<g id="edge23" class="edge">
<title>Node475302&#45;&gt;Node475523</title>
<path fill="none" stroke="#191970" d="M56.082,-202.3499C63.8814,-175.3292 89.9885,-98.82 143,-67 204.2646,-30.2261 289.6723,-33.7939 343.6434,-41.2399"/>
<polygon fill="#191970" stroke="#191970" points="343.2685,-44.7224 353.672,-42.7181 344.2893,-37.7972 343.2685,-44.7224"/>
</g>
<!-- Node475737 -->
<g id="node19" class="node">
<title>Node475737</title>
<g id="a_node19"><a xlink:href="quickjs_8c.html#ab5d3dff6327702516a514e1f616ec149" target="_top" xlink:title="JS_SpeciesConstructor">
<polygon fill="none" stroke="#000000" points="501,-240.5 501,-259.5 621,-259.5 621,-240.5 501,-240.5"/>
<text text-anchor="middle" x="561" y="-247.5" font-family="Helvetica,sans-Serif" font-size="10.00" fill="#000000">JS_SpeciesConstructor</text>
</a>
</g>
</g>
<!-- Node475302&#45;&gt;Node475737 -->
<g id="edge25" class="edge">
<title>Node475302&#45;&gt;Node475737</title>
<path fill="none" stroke="#191970" d="M64.0633,-221.6354C79.8504,-235.312 111.1648,-259.7233 143,-269 272.9895,-306.8785 435.2664,-279.5306 513.9142,-261.855"/>
<polygon fill="#191970" stroke="#191970" points="515.0292,-265.1901 523.9914,-259.5395 513.4615,-258.3679 515.0292,-265.1901"/>
</g>
<!-- Node475536 -->
<g id="node23" class="node">
<title>Node475536</title>
<g id="a_node23"><a xlink:href="quickjs_8c.html#a033dd3ebd29c4eb9f0baff1dd0fec0b1" target="_top" xlink:title="JS_ThrowTypeErrorDetached\lArrayBuffer">
<polygon fill="none" stroke="#000000" points="143,-77 143,-107 289,-107 289,-77 143,-77"/>
<text text-anchor="start" x="151" y="-95" font-family="Helvetica,sans-Serif" font-size="10.00" fill="#000000">JS_ThrowTypeErrorDetached</text>
<text text-anchor="middle" x="216" y="-84" font-family="Helvetica,sans-Serif" font-size="10.00" fill="#000000">ArrayBuffer</text>
</a>
</g>
</g>
<!-- Node475302&#45;&gt;Node475536 -->
<g id="edge35" class="edge">
<title>Node475302&#45;&gt;Node475536</title>
<path fill="none" stroke="#191970" d="M60.8884,-202.3448C75.0671,-184.3778 107.8216,-145.5055 143,-122 148.9528,-118.0225 155.5166,-114.4189 162.1941,-111.2022"/>
<polygon fill="#191970" stroke="#191970" points="163.6651,-114.3783 171.3234,-107.057 160.771,-108.0045 163.6651,-114.3783"/>
</g>
<!-- Node475738 -->
<g id="node24" class="node">
<title>Node475738</title>
<g id="a_node24"><a xlink:href="quickjs_8c.html#a537e88d38784e3df2a19c72f8bd1d77e" target="_top" xlink:title="JS_ToInt64Clamp">
<polygon fill="none" stroke="#000000" points="347.5,-126.5 347.5,-145.5 442.5,-145.5 442.5,-126.5 347.5,-126.5"/>
<text text-anchor="middle" x="395" y="-133.5" font-family="Helvetica,sans-Serif" font-size="10.00" fill="#000000">JS_ToInt64Clamp</text>
</a>
</g>
</g>
<!-- Node475302&#45;&gt;Node475738 -->
<g id="edge36" class="edge">
<title>Node475302&#45;&gt;Node475738</title>
<path fill="none" stroke="#191970" d="M66.0016,-202.3542C82.5806,-190.1457 113.2281,-169.5579 143,-160 207.3359,-139.3458 285.2906,-134.8439 337.2994,-134.5427"/>
<polygon fill="#191970" stroke="#191970" points="337.3462,-138.0428 347.3435,-134.535 337.3407,-131.0428 337.3462,-138.0428"/>
</g>
<!-- Node475740 -->
<g id="node27" class="node">
<title>Node475740</title>
<g id="a_node27"><a xlink:href="cutils_8h.html#a054531b4195cff9db238ff3c218f44ca" target="_top" xlink:title="max_int64">
<polygon fill="none" stroke="#000000" points="185,-.5 185,-19.5 247,-19.5 247,-.5 185,-.5"/>
<text text-anchor="middle" x="216" y="-7.5" font-family="Helvetica,sans-Serif" font-size="10.00" fill="#000000">max_int64</text>
</a>
</g>
</g>
<!-- Node475302&#45;&gt;Node475740 -->
<g id="edge41" class="edge">
<title>Node475302&#45;&gt;Node475740</title>
<path fill="none" stroke="#191970" d="M55.6,-202.2749C62.5266,-172.5258 87.4506,-81.869 143,-34 152.0672,-26.1865 163.7452,-20.9018 175.0902,-17.3333"/>
<polygon fill="#191970" stroke="#191970" points="176.1962,-20.6588 184.9005,-14.6185 174.3292,-13.9124 176.1962,-20.6588"/>
</g>
<!-- Node475304 -->
<g id="node3" class="node">
<title>Node475304</title>
<g id="a_node3"><a xlink:href="quickjs_8c.html#a06f84cf8ea00e2baf1a9b94f1a319b18" target="_top" xlink:title="js_array_buffer_constructor3">
<polygon fill="none" stroke="#000000" points="325,-373.5 325,-392.5 465,-392.5 465,-373.5 325,-373.5"/>
<text text-anchor="middle" x="395" y="-380.5" font-family="Helvetica,sans-Serif" font-size="10.00" fill="#000000">js_array_buffer_constructor3</text>
</a>
</g>
</g>
<!-- Node475303&#45;&gt;Node475304 -->
<g id="edge2" class="edge">
<title>Node475303&#45;&gt;Node475304</title>
<path fill="none" stroke="#191970" d="M286.2318,-383C295.5825,-383 305.2277,-383 314.7326,-383"/>
<polygon fill="#191970" stroke="#191970" points="314.9708,-386.5001 324.9707,-383 314.9707,-379.5001 314.9708,-386.5001"/>
</g>
<!-- Node475736 -->
<g id="node15" class="node">
<title>Node475736</title>
<g id="a_node15"><a xlink:href="quickjs_8c.html#a4e2ed26457b779e5bd73472de8be124c" target="_top" xlink:title="js_array_buffer_free">
<polygon fill="none" stroke="#000000" points="343.5,-544.5 343.5,-563.5 446.5,-563.5 446.5,-544.5 343.5,-544.5"/>
<text text-anchor="middle" x="395" y="-551.5" font-family="Helvetica,sans-Serif" font-size="10.00" fill="#000000">js_array_buffer_free</text>
</a>
</g>
</g>
<!-- Node475303&#45;&gt;Node475736 -->
<g id="edge16" class="edge">
<title>Node475303&#45;&gt;Node475736</title>
<path fill="none" stroke="#191970" d="M226.1367,-392.6837C255.4274,-420.6653 340.4426,-501.8809 377.4472,-537.2317"/>
<polygon fill="#191970" stroke="#191970" points="375.326,-540.0457 384.9745,-544.4226 380.1613,-534.9841 375.326,-540.0457"/>
</g>
<!-- Node475305 -->
<g id="node4" class="node">
<title>Node475305</title>
<g id="a_node4"><a xlink:href="list_8h.html#a663527a4d757540b2177bef0db1ce5c0" target="_top" xlink:title="init_list_head">
<polygon fill="none" stroke="#000000" points="524,-354.5 524,-373.5 598,-373.5 598,-354.5 524,-354.5"/>
<text text-anchor="middle" x="561" y="-361.5" font-family="Helvetica,sans-Serif" font-size="10.00" fill="#000000">init_list_head</text>
</a>
</g>
</g>
<!-- Node475304&#45;&gt;Node475305 -->
<g id="edge3" class="edge">
<title>Node475304&#45;&gt;Node475305</title>
<path fill="none" stroke="#191970" d="M465.3989,-374.9423C481.7687,-373.0686 498.808,-371.1184 513.8894,-369.3922"/>
<polygon fill="#191970" stroke="#191970" points="514.4481,-372.8512 523.9852,-368.2366 513.6521,-365.8966 514.4481,-372.8512"/>
</g>
<!-- Node475306 -->
<g id="node5" class="node">
<title>Node475306</title>
<g id="a_node5"><a xlink:href="quickjs_8c.html#a93dbf502b17d1328c524401335f60499" target="_top" xlink:title="js_create_from_ctor">
<polygon fill="none" stroke="#ff0000" points="509.5,-278.5 509.5,-297.5 612.5,-297.5 612.5,-278.5 509.5,-278.5"/>
<text text-anchor="middle" x="561" y="-285.5" font-family="Helvetica,sans-Serif" font-size="10.00" fill="#000000">js_create_from_ctor</text>
</a>
</g>
</g>
<!-- Node475304&#45;&gt;Node475306 -->
<g id="edge4" class="edge">
<title>Node475304&#45;&gt;Node475306</title>
<path fill="none" stroke="#191970" d="M411.8305,-373.3681C440.9126,-356.7247 500.7508,-322.48 535.1453,-302.7963"/>
<polygon fill="#191970" stroke="#191970" points="537.1842,-305.6622 544.125,-297.6574 533.7073,-299.5867 537.1842,-305.6622"/>
</g>
<!-- Node475304&#45;&gt;Node475308 -->
<g id="edge13" class="edge">
<title>Node475304&#45;&gt;Node475308</title>
<path fill="none" stroke="#191970" d="M415.5835,-392.5161C436.5616,-401.6988 470.2905,-415.0568 501,-421 564.568,-433.3024 639.5108,-433.8519 687.6076,-432.4669"/>
<polygon fill="#191970" stroke="#191970" points="687.8662,-435.9604 697.7462,-432.1347 687.6369,-428.9642 687.8662,-435.9604"/>
</g>
<!-- Node475304&#45;&gt;Node475357 -->
<g id="edge14" class="edge">
<title>Node475304&#45;&gt;Node475357</title>
<path fill="none" stroke="#191970" d="M399.1763,-373.2605C411.0914,-346.5894 447.848,-271.6551 501,-231 545.9997,-196.5804 572.4953,-217.2742 621,-188 639.5829,-176.7846 637.8241,-165.1683 657,-155 665.243,-150.629 674.4916,-147.2515 683.6951,-144.645"/>
<polygon fill="#191970" stroke="#191970" points="684.793,-147.977 693.6143,-142.1088 683.059,-141.1951 684.793,-147.977"/>
</g>
<!-- Node475329 -->
<g id="node12" class="node">
<title>Node475329</title>
<g id="a_node12"><a xlink:href="quickjs_8c.html#a80e54dcf9ac687d4ccc2f90273565f30" target="_top" xlink:title="js_free">
<polygon fill="none" stroke="#000000" points="538,-468.5 538,-487.5 584,-487.5 584,-468.5 538,-468.5"/>
<text text-anchor="middle" x="561" y="-475.5" font-family="Helvetica,sans-Serif" font-size="10.00" fill="#000000">js_free</text>
</a>
</g>
</g>
<!-- Node475304&#45;&gt;Node475329 -->
<g id="edge11" class="edge">
<title>Node475304&#45;&gt;Node475329</title>
<path fill="none" stroke="#191970" d="M407.5126,-392.6538C426.8101,-407.2421 465.3433,-435.194 501,-454 509.6722,-458.5739 519.4155,-462.8218 528.4881,-466.4333"/>
<polygon fill="#191970" stroke="#191970" points="527.3972,-469.7636 537.9871,-470.0876 529.9107,-463.2304 527.3972,-469.7636"/>
</g>
<!-- Node475575 -->
<g id="node14" class="node">
<title>Node475575</title>
<g id="a_node14"><a xlink:href="quickjs_8c.html#a0ddf716409e51648f0d59e7521150d19" target="_top" xlink:title="JS_SetOpaque">
<polygon fill="none" stroke="#000000" points="519.5,-392.5 519.5,-411.5 602.5,-411.5 602.5,-392.5 519.5,-392.5"/>
<text text-anchor="middle" x="561" y="-399.5" font-family="Helvetica,sans-Serif" font-size="10.00" fill="#000000">JS_SetOpaque</text>
</a>
</g>
</g>
<!-- Node475304&#45;&gt;Node475575 -->
<g id="edge15" class="edge">
<title>Node475304&#45;&gt;Node475575</title>
<path fill="none" stroke="#191970" d="M465.3989,-391.0577C480.0456,-392.7341 495.2282,-394.4719 509.0648,-396.0556"/>
<polygon fill="#191970" stroke="#191970" points="509.0191,-399.5731 519.3522,-397.2331 509.8151,-392.6185 509.0191,-399.5731"/>
</g>
<!-- Node475307 -->
<g id="node6" class="node">
<title>Node475307</title>
<g id="a_node6"><a xlink:href="quickjs_8h.html#a775522f2d084fc8fa0fcb33f390006b4" target="_top" xlink:title="JS_DupValue">
<polygon fill="none" stroke="#000000" points="698.5,-88.5 698.5,-107.5 775.5,-107.5 775.5,-88.5 698.5,-88.5"/>
<text text-anchor="middle" x="737" y="-95.5" font-family="Helvetica,sans-Serif" font-size="10.00" fill="#000000">JS_DupValue</text>
</a>
</g>
</g>
<!-- Node475306&#45;&gt;Node475307 -->
<g id="edge5" class="edge">
<title>Node475306&#45;&gt;Node475307</title>
<path fill="none" stroke="#191970" d="M608.3954,-278.3652C613.0916,-275.9135 617.4314,-272.8434 621,-269 668.2379,-218.1244 607.9248,-166.1058 657,-117 665.3511,-108.6437 676.6632,-103.7046 688.1492,-100.8465"/>
<polygon fill="#191970" stroke="#191970" points="689.0962,-104.2266 698.2177,-98.837 687.726,-97.362 689.0962,-104.2266"/>
</g>
<!-- Node475306&#45;&gt;Node475308 -->
<g id="edge6" class="edge">
<title>Node475306&#45;&gt;Node475308</title>
<path fill="none" stroke="#191970" d="M571.3489,-297.5208C583.434,-308.7097 603.9437,-327.9201 621,-345 637.4391,-361.4618 638.7908,-368.5203 657,-383 672.7661,-395.537 692.2176,-407.0403 707.9925,-415.5285"/>
<polygon fill="#191970" stroke="#191970" points="706.7933,-418.8522 717.2736,-420.4062 710.0499,-412.6558 706.7933,-418.8522"/>
</g>
<!-- Node475348 -->
<g id="node8" class="node">
<title>Node475348</title>
<g id="a_node8"><a xlink:href="quickjs_8h.html#a89b7c8686c7eee70b86be722ee4730ad" target="_top" xlink:title="JS_GetProperty">
<polygon fill="none" stroke="#ff0000" points="694,-278.5 694,-297.5 780,-297.5 780,-278.5 694,-278.5"/>
<text text-anchor="middle" x="737" y="-285.5" font-family="Helvetica,sans-Serif" font-size="10.00" fill="#000000">JS_GetProperty</text>
</a>
</g>
</g>
<!-- Node475306&#45;&gt;Node475348 -->
<g id="edge7" class="edge">
<title>Node475306&#45;&gt;Node475348</title>
<path fill="none" stroke="#191970" d="M612.8539,-288C635.1883,-288 661.2826,-288 683.7681,-288"/>
<polygon fill="#191970" stroke="#191970" points="683.8188,-291.5001 693.8188,-288 683.8188,-284.5001 683.8188,-291.5001"/>
</g>
<!-- Node475306&#45;&gt;Node475357 -->
<g id="edge8" class="edge">
<title>Node475306&#45;&gt;Node475357</title>
<path fill="none" stroke="#191970" d="M607.5263,-278.3986C612.4965,-275.9444 617.1384,-272.8646 621,-269 658.5557,-231.4143 618.0888,-191.1805 657,-155 664.4487,-148.0741 673.9481,-143.5316 683.7797,-140.5824"/>
<polygon fill="#191970" stroke="#191970" points="684.7936,-143.9371 693.6585,-138.135 683.1102,-137.1425 684.7936,-143.9371"/>
</g>
<!-- Node475585 -->
<g id="node10" class="node">
<title>Node475585</title>
<g id="a_node10"><a xlink:href="quickjs_8h.html#a3d68fe446df2d9c7d1900b16371bff5b" target="_top" xlink:title="JS_IsObject">
<polygon fill="none" stroke="#000000" points="701.5,-316.5 701.5,-335.5 772.5,-335.5 772.5,-316.5 701.5,-316.5"/>
<text text-anchor="middle" x="737" y="-323.5" font-family="Helvetica,sans-Serif" font-size="10.00" fill="#000000">JS_IsObject</text>
</a>
</g>
</g>
<!-- Node475306&#45;&gt;Node475585 -->
<g id="edge9" class="edge">
<title>Node475306&#45;&gt;Node475585</title>
<path fill="none" stroke="#191970" d="M605.4122,-297.589C631.779,-303.2818 665.1303,-310.4827 691.6588,-316.2104"/>
<polygon fill="#191970" stroke="#191970" points="690.9498,-319.6379 701.4632,-318.3273 692.4271,-312.7956 690.9498,-319.6379"/>
</g>
<!-- Node475306&#45;&gt;Node475511 -->
<g id="edge10" class="edge">
<title>Node475306&#45;&gt;Node475511</title>
<path fill="none" stroke="#191970" d="M591.0232,-297.5713C600.9413,-301.3596 611.7868,-306.208 621,-312 639.3756,-323.552 637.8241,-334.8317 657,-345 665.243,-349.371 674.4916,-352.7485 683.6951,-355.355"/>
<polygon fill="#191970" stroke="#191970" points="683.059,-358.8049 693.6143,-357.8912 684.793,-352.023 683.059,-358.8049"/>
</g>
<!-- Node475321 -->
<g id="node13" class="node">
<title>Node475321</title>
<g id="a_node13"><a xlink:href="quickjs_8c.html#a69e19dda8a93d613203e0baa06f0ed8d" target="_top" xlink:title="js_free_rt">
<polygon fill="none" stroke="#000000" points="708.5,-477.5 708.5,-496.5 765.5,-496.5 765.5,-477.5 708.5,-477.5"/>
<text text-anchor="middle" x="737" y="-484.5" font-family="Helvetica,sans-Serif" font-size="10.00" fill="#000000">js_free_rt</text>
</a>
</g>
</g>
<!-- Node475329&#45;&gt;Node475321 -->
<g id="edge12" class="edge">
<title>Node475329&#45;&gt;Node475321</title>
<path fill="none" stroke="#191970" d="M584.0089,-479.1766C612.9726,-480.6577 663.1587,-483.224 698.1225,-485.0119"/>
<polygon fill="#191970" stroke="#191970" points="698.2786,-488.5244 708.4443,-485.5398 698.6361,-481.5335 698.2786,-488.5244"/>
</g>
<!-- Node475736&#45;&gt;Node475321 -->
<g id="edge17" class="edge">
<title>Node475736&#45;&gt;Node475321</title>
<path fill="none" stroke="#191970" d="M446.7726,-552.1659C492.9799,-549.6659 562.2263,-543.7858 621,-530 651.0066,-522.9617 683.8216,-510.3029 706.8682,-500.5362"/>
<polygon fill="#191970" stroke="#191970" points="708.3128,-503.7248 716.1105,-496.5523 705.5419,-497.2966 708.3128,-503.7248"/>
</g>
<!-- Node475523&#45;&gt;Node475307 -->
<g id="edge24" class="edge">
<title>Node475523&#45;&gt;Node475307</title>
<path fill="none" stroke="#191970" d="M436.2532,-56.6693C499.7069,-65.3895 620.9836,-82.0562 688.5317,-91.3391"/>
<polygon fill="#191970" stroke="#191970" points="688.1111,-94.8142 698.4945,-92.7083 689.0642,-87.8793 688.1111,-94.8142"/>
</g>
<!-- Node475737&#45;&gt;Node475307 -->
<g id="edge26" class="edge">
<title>Node475737&#45;&gt;Node475307</title>
<path fill="none" stroke="#191970" d="M566.7773,-240.2704C583.4677,-212.4703 632.1439,-133.6203 657,-117 666.2672,-110.8034 677.325,-106.6193 688.2186,-103.7964"/>
<polygon fill="#191970" stroke="#191970" points="689.1331,-107.1783 698.1207,-101.5681 687.5963,-100.349 689.1331,-107.1783"/>
</g>
<!-- Node475737&#45;&gt;Node475308 -->
<g id="edge27" class="edge">
<title>Node475737&#45;&gt;Node475308</title>
<path fill="none" stroke="#191970" d="M607.5263,-259.6014C612.4965,-262.0556 617.1384,-265.1354 621,-269 658.5557,-306.5857 623.8908,-341.4441 657,-383 668.5544,-397.5022 685.8926,-408.4652 701.4771,-416.1397"/>
<polygon fill="#191970" stroke="#191970" points="700.3415,-419.4708 710.8867,-420.4955 703.2821,-413.1184 700.3415,-419.4708"/>
</g>
<!-- Node475737&#45;&gt;Node475348 -->
<g id="edge28" class="edge">
<title>Node475737&#45;&gt;Node475348</title>
<path fill="none" stroke="#191970" d="M605.4122,-259.589C629.2197,-264.7293 658.7215,-271.099 683.7534,-276.5036"/>
<polygon fill="#191970" stroke="#191970" points="683.3054,-279.9874 693.8188,-278.6768 684.7827,-273.1451 683.3054,-279.9874"/>
</g>
<!-- Node475737&#45;&gt;Node475357 -->
<g id="edge30" class="edge">
<title>Node475737&#45;&gt;Node475357</title>
<path fill="none" stroke="#191970" d="M597.0689,-240.4165C605.6175,-236.9043 614.2127,-232.2101 621,-226 647.1028,-202.117 629.2103,-176.8971 657,-155 664.7393,-148.9017 674.121,-144.7107 683.6967,-141.8417"/>
<polygon fill="#191970" stroke="#191970" points="684.8539,-145.1591 693.6852,-139.306 683.1314,-138.3743 684.8539,-145.1591"/>
</g>
<!-- Node475737&#45;&gt;Node475585 -->
<g id="edge32" class="edge">
<title>Node475737&#45;&gt;Node475585</title>
<path fill="none" stroke="#191970" d="M600.9925,-259.5369C607.9399,-262.0551 614.8883,-265.1721 621,-269 640.7165,-281.3488 636.8431,-295.3839 657,-307 667.4272,-313.009 679.6625,-317.1208 691.3844,-319.9333"/>
<polygon fill="#191970" stroke="#191970" points="690.9853,-323.4267 701.4949,-322.0855 692.4427,-316.5801 690.9853,-323.4267"/>
</g>
<!-- Node475737&#45;&gt;Node475511 -->
<g id="edge33" class="edge">
<title>Node475737&#45;&gt;Node475511</title>
<path fill="none" stroke="#191970" d="M605.8139,-259.5738C611.3149,-262.032 616.5546,-265.1203 621,-269 649.1595,-293.576 627.9566,-321.4752 657,-345 664.8204,-351.3345 674.4007,-355.621 684.1785,-358.5071"/>
<polygon fill="#191970" stroke="#191970" points="683.4141,-361.9237 693.9642,-360.9504 685.1099,-355.1322 683.4141,-361.9237"/>
</g>
<!-- Node475713 -->
<g id="node20" class="node">
<title>Node475713</title>
<g id="a_node20"><a xlink:href="quickjs_8c.html#afa39b15865cb50fc2383e76e33b2de1a" target="_top" xlink:title="JS_IsConstructor">
<polygon fill="none" stroke="#000000" points="690.5,-202.5 690.5,-221.5 783.5,-221.5 783.5,-202.5 690.5,-202.5"/>
<text text-anchor="middle" x="737" y="-209.5" font-family="Helvetica,sans-Serif" font-size="10.00" fill="#000000">JS_IsConstructor</text>
</a>
</g>
</g>
<!-- Node475737&#45;&gt;Node475713 -->
<g id="edge29" class="edge">
<title>Node475737&#45;&gt;Node475713</title>
<path fill="none" stroke="#191970" d="M605.4122,-240.411C628.9512,-235.3287 658.0567,-229.0446 682.9048,-223.6797"/>
<polygon fill="#191970" stroke="#191970" points="683.8711,-227.0518 692.9071,-221.5201 682.3937,-220.2094 683.8711,-227.0518"/>
</g>
<!-- Node475509 -->
<g id="node21" class="node">
<title>Node475509</title>
<g id="a_node21"><a xlink:href="quickjs_8h.html#a149f24b67e745bad93573b3b4c80db4c" target="_top" xlink:title="JS_IsNull">
<polygon fill="none" stroke="#000000" points="707.5,-164.5 707.5,-183.5 766.5,-183.5 766.5,-164.5 707.5,-164.5"/>
<text text-anchor="middle" x="737" y="-171.5" font-family="Helvetica,sans-Serif" font-size="10.00" fill="#000000">JS_IsNull</text>
</a>
</g>
</g>
<!-- Node475737&#45;&gt;Node475509 -->
<g id="edge31" class="edge">
<title>Node475737&#45;&gt;Node475509</title>
<path fill="none" stroke="#191970" d="M591.0232,-240.4287C600.9413,-236.6404 611.7868,-231.792 621,-226 639.3756,-214.448 637.8241,-203.1683 657,-193 669.3616,-186.4451 683.9847,-182.1244 697.3254,-179.2879"/>
<polygon fill="#191970" stroke="#191970" points="698.0541,-182.712 707.2185,-177.3957 696.7391,-175.8367 698.0541,-182.712"/>
</g>
<!-- Node475544 -->
<g id="node22" class="node">
<title>Node475544</title>
<g id="a_node22"><a xlink:href="quickjs_8c.html#a726b00d108e0a0f4d958c36c2e426a64" target="_top" xlink:title="JS_ThrowTypeErrorNotAnObject">
<polygon fill="none" stroke="#000000" points="657,-240.5 657,-259.5 817,-259.5 817,-240.5 657,-240.5"/>
<text text-anchor="middle" x="737" y="-247.5" font-family="Helvetica,sans-Serif" font-size="10.00" fill="#000000">JS_ThrowTypeErrorNotAnObject</text>
</a>
</g>
</g>
<!-- Node475737&#45;&gt;Node475544 -->
<g id="edge34" class="edge">
<title>Node475737&#45;&gt;Node475544</title>
<path fill="none" stroke="#191970" d="M621.077,-250C629.3796,-250 638.0522,-250 646.7541,-250"/>
<polygon fill="#191970" stroke="#191970" points="646.9624,-253.5001 656.9624,-250 646.9623,-246.5001 646.9624,-253.5001"/>
</g>
<!-- Node475738&#45;&gt;Node475307 -->
<g id="edge37" class="edge">
<title>Node475738&#45;&gt;Node475307</title>
<path fill="none" stroke="#191970" d="M442.6015,-126.4527C460.8105,-123.068 481.81,-119.4864 501,-117 565.5617,-108.635 640.5678,-103.3481 688.3842,-100.5323"/>
<polygon fill="#191970" stroke="#191970" points="688.6736,-104.0215 698.4557,-99.9521 688.271,-97.0331 688.6736,-104.0215"/>
</g>
<!-- Node475739 -->
<g id="node25" class="node">
<title>Node475739</title>
<g id="a_node25"><a xlink:href="quickjs_8c.html#a8c94da482e7e46bf333be67ff97e58c1" target="_top" xlink:title="JS_ToInt64SatFree">
<polygon fill="none" stroke="#000000" points="510.5,-126.5 510.5,-145.5 611.5,-145.5 611.5,-126.5 510.5,-126.5"/>
<text text-anchor="middle" x="561" y="-133.5" font-family="Helvetica,sans-Serif" font-size="10.00" fill="#000000">JS_ToInt64SatFree</text>
</a>
</g>
</g>
<!-- Node475738&#45;&gt;Node475739 -->
<g id="edge38" class="edge">
<title>Node475738&#45;&gt;Node475739</title>
<path fill="none" stroke="#191970" d="M442.5689,-136C460.5165,-136 481.185,-136 500.1808,-136"/>
<polygon fill="#191970" stroke="#191970" points="500.2352,-139.5001 510.2351,-136 500.2351,-132.5001 500.2352,-139.5001"/>
</g>
<!-- Node475739&#45;&gt;Node475357 -->
<g id="edge39" class="edge">
<title>Node475739&#45;&gt;Node475357</title>
<path fill="none" stroke="#191970" d="M611.9065,-136C634.4445,-136 660.9558,-136 683.7577,-136"/>
<polygon fill="#191970" stroke="#191970" points="683.9456,-139.5001 693.9456,-136 683.9455,-132.5001 683.9456,-139.5001"/>
</g>
<!-- Node475365 -->
<g id="node26" class="node">
<title>Node475365</title>
<g id="a_node26"><a xlink:href="quickjs_8c.html#ae738291483438efefca5c9fa4d269504" target="_top" xlink:title="JS_ToNumberFree">
<polygon fill="none" stroke="#ff0000" points="687.5,-50.5 687.5,-69.5 786.5,-69.5 786.5,-50.5 687.5,-50.5"/>
<text text-anchor="middle" x="737" y="-57.5" font-family="Helvetica,sans-Serif" font-size="10.00" fill="#000000">JS_ToNumberFree</text>
</a>
</g>
</g>
<!-- Node475739&#45;&gt;Node475365 -->
<g id="edge40" class="edge">
<title>Node475739&#45;&gt;Node475365</title>
<path fill="none" stroke="#191970" d="M574.3069,-126.3131C592.2411,-113.6876 625.5562,-91.7233 657,-79 663.4014,-76.4098 670.2402,-74.12 677.1224,-72.1096"/>
<polygon fill="#191970" stroke="#191970" points="678.4653,-75.3712 687.1909,-69.3617 676.6222,-68.6182 678.4653,-75.3712"/>
</g>
</g>
</svg>
        <g id="navigator" transform="translate(0 0)" fill="#404254">
                <rect fill="#f2f5e9" fill-opacity="0.5" stroke="#606060" stroke-width=".5" x="0" y="0" width="60" height="60"/>
                <use id="zoomplus" xlink:href="#zoomPlus" x="17" y="9" onmousedown="handleZoom(evt,'in')"/>
                <use id="zoomminus" xlink:href="#zoomMin" x="42" y="9" onmousedown="handleZoom(evt,'out')"/>
                <use id="reset" xlink:href="#resetDef" x="30" y="36" onmousedown="handleReset()"/>
                <g id="arrowUp" xlink:href="#dirArrow" transform="translate(30 24)" onmousedown="handlePan(0,-1)">
                  <use xlink:href="#rim" fill="#404040">
                        <set attributeName="fill" to="#808080" begin="arrowUp.mouseover" end="arrowUp.mouseout"/>
                  </use>
                  <path fill="none" stroke="white" stroke-width="1.5" d="M0,-3.0v7 M-2.5,-0.5L0,-3.0L2.5,-0.5"/>
                </g>
                <g id="arrowRight" xlink:href="#dirArrow" transform="rotate(90) translate(36 -43)" onmousedown="handlePan(1,0)">
                  <use xlink:href="#rim" fill="#404040">
                        <set attributeName="fill" to="#808080" begin="arrowRight.mouseover" end="arrowRight.mouseout"/>
                  </use>
                  <path fill="none" stroke="white" stroke-width="1.5" d="M0,-3.0v7 M-2.5,-0.5L0,-3.0L2.5,-0.5"/>
                </g>
                <g id="arrowDown" xlink:href="#dirArrow" transform="rotate(180) translate(-30 -48)" onmousedown="handlePan(0,1)">
                  <use xlink:href="#rim" fill="#404040">
                        <set attributeName="fill" to="#808080" begin="arrowDown.mouseover" end="arrowDown.mouseout"/>
                  </use>
                  <path fill="none" stroke="white" stroke-width="1.5" d="M0,-3.0v7 M-2.5,-0.5L0,-3.0L2.5,-0.5"/>
                </g>
                <g id="arrowLeft" xlink:href="#dirArrow" transform="rotate(270) translate(-36 17)" onmousedown="handlePan(-1,0)">
                  <use xlink:href="#rim" fill="#404040">
                        <set attributeName="fill" to="#808080" begin="arrowLeft.mouseover" end="arrowLeft.mouseout"/>
                  </use>
                  <path fill="none" stroke="white" stroke-width="1.5" d="M0,-3.0v7 M-2.5,-0.5L0,-3.0L2.5,-0.5"/>
                </g>
        </g>
        <svg viewBox="0 0 15 15" width="100%" height="30px" preserveAspectRatio="xMaxYMin meet">
         <g id="arrow_out" transform="scale(0.3 0.3)">
          <a xlink:href="quickjs_8c_a8160f52fd4197ade647faa287b34862e_cgraph_org.svg" target="_base">
           <rect id="button" ry="5" rx="5" y="6" x="6" height="38" width="38"
                fill="#f2f5e9" fill-opacity="0.5" stroke="#606060" stroke-width="1.0"/>
           <path id="arrow"
             d="M 11.500037,31.436501 C 11.940474,20.09759 22.043105,11.32322 32.158766,21.979434 L 37.068811,17.246167 C 37.068811,17.246167 37.088388,32 37.088388,32 L 22.160133,31.978069 C 22.160133,31.978069 26.997745,27.140456 26.997745,27.140456 C 18.528582,18.264221 13.291696,25.230495 11.500037,31.436501 z"
             style="fill:#404040;"/>
          </a>
         </g>
        </svg>
</svg>
