<?xml version="1.0" encoding="UTF-8" standalone="no"?>
<!DOCTYPE svg PUBLIC "-//W3C//DTD SVG 1.1//EN"
 "http://www.w3.org/Graphics/SVG/1.1/DTD/svg11.dtd">
<!-- Generated by graphviz version 2.40.1 (20161225.0304)
 -->
<!-- Title: JS_GetModuleName Pages: 1 -->
<!--zoomable 85 -->
<svg id="main" version="1.1" xmlns="http://www.w3.org/2000/svg" xmlns:xlink="http://www.w3.org/1999/xlink" xml:space="preserve" onload="init(evt)">
<style type="text/css"><![CDATA[
.edge:hover path { stroke: red; }
.edge:hover polygon { stroke: red; fill: red; }
]]></style>
<script type="text/javascript"><![CDATA[
var edges = document.getElementsByTagName('g');
if (edges && edges.length) {
  for (var i=0;i<edges.length;i++) {
    if (edges[i].id.substr(0,4)=='edge') {
      edges[i].setAttribute('class','edge');
    }
  }
}
]]></script>
        <defs>
                <circle id="rim" cx="0" cy="0" r="7"/>
                <circle id="rim2" cx="0" cy="0" r="3.5"/>
                <g id="zoomPlus">
                        <use xlink:href="#rim" fill="#404040">
                                <set attributeName="fill" to="#808080" begin="zoomplus.mouseover" end="zoomplus.mouseout"/>
                        </use>
                        <path d="M-4,0h8M0,-4v8" fill="none" stroke="white" stroke-width="1.5" pointer-events="none"/>
                </g>
                <g id="zoomMin">
                        <use xlink:href="#rim" fill="#404040">
                                <set attributeName="fill" to="#808080" begin="zoomminus.mouseover" end="zoomminus.mouseout"/>
                        </use>
                        <path d="M-4,0h8" fill="none" stroke="white" stroke-width="1.5" pointer-events="none"/>
                </g>
                <g id="dirArrow">
                        <path fill="none" stroke="white" stroke-width="1.5" d="M0,-3.0v7 M-2.5,-0.5L0,-3.0L2.5,-0.5"/>
                </g>
               <g id="resetDef">
                       <use xlink:href="#rim2" fill="#404040">
                               <set attributeName="fill" to="#808080" begin="reset.mouseover" end="reset.mouseout"/>
                       </use>
               </g>
        </defs>

<script type="text/javascript">
var viewWidth = 530;
var viewHeight = 85;
var sectionId = 'dynsection-245';
</script>
<script xlink:href="svgpan.js"/>
<svg id="graph" class="graph">
<g id="viewport">
<title>JS_GetModuleName</title>
<!-- Node81942 -->
<g id="node1" class="node">
<title>Node81942</title>
<polygon fill="#bfbfbf" stroke="#000000" points="0,-19.5 0,-38.5 107,-38.5 107,-19.5 0,-19.5"/>
<text text-anchor="middle" x="53.5" y="-26.5" font-family="Helvetica,sans-Serif" font-size="10.00" fill="#000000">JS_GetModuleName</text>
</g>
<!-- Node81943 -->
<g id="node2" class="node">
<title>Node81943</title>
<g id="a_node2"><a xlink:href="quickjs-libc_8c.html#a5cc3e22713f1916d49867f60a7375505" target="_top" xlink:title="js_module_set_import_meta">
<polygon fill="none" stroke="#000000" points="143,-19.5 143,-38.5 282,-38.5 282,-19.5 143,-19.5"/>
<text text-anchor="middle" x="212.5" y="-26.5" font-family="Helvetica,sans-Serif" font-size="10.00" fill="#000000">js_module_set_import_meta</text>
</a>
</g>
</g>
<!-- Node81942&#45;&gt;Node81943 -->
<g id="edge1" class="edge">
<title>Node81942&#45;&gt;Node81943</title>
<path fill="none" stroke="#191970" d="M117.4249,-29C125.8206,-29 134.4575,-29 142.941,-29"/>
<polygon fill="#191970" stroke="#191970" points="117.3302,-25.5001 107.3301,-29 117.3301,-32.5001 117.3302,-25.5001"/>
</g>
<!-- Node81944 -->
<g id="node3" class="node">
<title>Node81944</title>
<g id="a_node3"><a xlink:href="quickjs-libc_8c.html#ad61d60681847f324c5ba4ad88c546f1e" target="_top" xlink:title="js_module_loader">
<polygon fill="none" stroke="#000000" points="321,-38.5 321,-57.5 413,-57.5 413,-38.5 321,-38.5"/>
<text text-anchor="middle" x="367" y="-45.5" font-family="Helvetica,sans-Serif" font-size="10.00" fill="#000000">js_module_loader</text>
</a>
</g>
</g>
<!-- Node81943&#45;&gt;Node81944 -->
<g id="edge2" class="edge">
<title>Node81943&#45;&gt;Node81944</title>
<path fill="none" stroke="#191970" d="M292.2592,-38.8086C302.0468,-40.0122 311.7806,-41.2093 320.8313,-42.3223"/>
<polygon fill="#191970" stroke="#191970" points="292.4189,-35.3019 282.0665,-37.5551 291.5645,-42.2496 292.4189,-35.3019"/>
</g>
<!-- Node81950 -->
<g id="node6" class="node">
<title>Node81950</title>
<g id="a_node6"><a xlink:href="quickjs-libc_8c.html#ab1b439d304c2125490b47ef262b5df67" target="_top" xlink:title="js_std_eval_binary">
<polygon fill="none" stroke="#000000" points="318,-.5 318,-19.5 416,-19.5 416,-.5 318,-.5"/>
<text text-anchor="middle" x="367" y="-7.5" font-family="Helvetica,sans-Serif" font-size="10.00" fill="#000000">js_std_eval_binary</text>
</a>
</g>
</g>
<!-- Node81943&#45;&gt;Node81950 -->
<g id="edge5" class="edge">
<title>Node81943&#45;&gt;Node81950</title>
<path fill="none" stroke="#191970" d="M292.2366,-19.1942C300.9061,-18.1281 309.5337,-17.0671 317.6821,-16.065"/>
<polygon fill="#191970" stroke="#191970" points="291.5645,-15.7504 282.0665,-20.4449 292.4189,-22.6981 291.5645,-15.7504"/>
</g>
<!-- Node81945 -->
<g id="node4" class="node">
<title>Node81945</title>
<g id="a_node4"><a xlink:href="qjs_8cpp.html#a3c04138a5bfe5d72780bb7e82a18e627" target="_top" xlink:title="main">
<polygon fill="none" stroke="#000000" points="468,-57.5 468,-76.5 506,-76.5 506,-57.5 468,-57.5"/>
<text text-anchor="middle" x="487" y="-64.5" font-family="Helvetica,sans-Serif" font-size="10.00" fill="#000000">main</text>
</a>
</g>
</g>
<!-- Node81944&#45;&gt;Node81945 -->
<g id="edge3" class="edge">
<title>Node81944&#45;&gt;Node81945</title>
<path fill="none" stroke="#191970" d="M423.0009,-56.8668C439.1271,-59.4201 455.6402,-62.0347 467.853,-63.9684"/>
<polygon fill="#191970" stroke="#191970" points="423.4763,-53.3986 413.0519,-55.2916 422.3815,-60.3124 423.4763,-53.3986"/>
</g>
<!-- Node81946 -->
<g id="node5" class="node">
<title>Node81946</title>
<g id="a_node5"><a xlink:href="quickjs-libc_8c.html#a1fbb3adc15e7b967479fc1940e99b67a" target="_top" xlink:title="worker_func">
<polygon fill="none" stroke="#ff0000" points="452,-19.5 452,-38.5 522,-38.5 522,-19.5 452,-19.5"/>
<text text-anchor="middle" x="487" y="-26.5" font-family="Helvetica,sans-Serif" font-size="10.00" fill="#000000">worker_func</text>
</a>
</g>
</g>
<!-- Node81944&#45;&gt;Node81946 -->
<g id="edge4" class="edge">
<title>Node81944&#45;&gt;Node81946</title>
<path fill="none" stroke="#191970" d="M423.1055,-39.1166C432.842,-37.575 442.7158,-36.0117 451.6957,-34.5899"/>
<polygon fill="#191970" stroke="#191970" points="422.3815,-35.6876 413.0519,-40.7084 423.4763,-42.6014 422.3815,-35.6876"/>
</g>
</g>
</svg>
        <g id="navigator" transform="translate(0 0)" fill="#404254">
                <rect fill="#f2f5e9" fill-opacity="0.5" stroke="#606060" stroke-width=".5" x="0" y="0" width="60" height="60"/>
                <use id="zoomplus" xlink:href="#zoomPlus" x="17" y="9" onmousedown="handleZoom(evt,'in')"/>
                <use id="zoomminus" xlink:href="#zoomMin" x="42" y="9" onmousedown="handleZoom(evt,'out')"/>
                <use id="reset" xlink:href="#resetDef" x="30" y="36" onmousedown="handleReset()"/>
                <g id="arrowUp" xlink:href="#dirArrow" transform="translate(30 24)" onmousedown="handlePan(0,-1)">
                  <use xlink:href="#rim" fill="#404040">
                        <set attributeName="fill" to="#808080" begin="arrowUp.mouseover" end="arrowUp.mouseout"/>
                  </use>
                  <path fill="none" stroke="white" stroke-width="1.5" d="M0,-3.0v7 M-2.5,-0.5L0,-3.0L2.5,-0.5"/>
                </g>
                <g id="arrowRight" xlink:href="#dirArrow" transform="rotate(90) translate(36 -43)" onmousedown="handlePan(1,0)">
                  <use xlink:href="#rim" fill="#404040">
                        <set attributeName="fill" to="#808080" begin="arrowRight.mouseover" end="arrowRight.mouseout"/>
                  </use>
                  <path fill="none" stroke="white" stroke-width="1.5" d="M0,-3.0v7 M-2.5,-0.5L0,-3.0L2.5,-0.5"/>
                </g>
                <g id="arrowDown" xlink:href="#dirArrow" transform="rotate(180) translate(-30 -48)" onmousedown="handlePan(0,1)">
                  <use xlink:href="#rim" fill="#404040">
                        <set attributeName="fill" to="#808080" begin="arrowDown.mouseover" end="arrowDown.mouseout"/>
                  </use>
                  <path fill="none" stroke="white" stroke-width="1.5" d="M0,-3.0v7 M-2.5,-0.5L0,-3.0L2.5,-0.5"/>
                </g>
                <g id="arrowLeft" xlink:href="#dirArrow" transform="rotate(270) translate(-36 17)" onmousedown="handlePan(-1,0)">
                  <use xlink:href="#rim" fill="#404040">
                        <set attributeName="fill" to="#808080" begin="arrowLeft.mouseover" end="arrowLeft.mouseout"/>
                  </use>
                  <path fill="none" stroke="white" stroke-width="1.5" d="M0,-3.0v7 M-2.5,-0.5L0,-3.0L2.5,-0.5"/>
                </g>
        </g>
        <svg viewBox="0 0 15 15" width="100%" height="30px" preserveAspectRatio="xMaxYMin meet">
         <g id="arrow_out" transform="scale(0.3 0.3)">
          <a xlink:href="quickjs_8h_a59db307289b1a0f8c16278c121fc43c1_icgraph_org.svg" target="_base">
           <rect id="button" ry="5" rx="5" y="6" x="6" height="38" width="38"
                fill="#f2f5e9" fill-opacity="0.5" stroke="#606060" stroke-width="1.0"/>
           <path id="arrow"
             d="M 11.500037,31.436501 C 11.940474,20.09759 22.043105,11.32322 32.158766,21.979434 L 37.068811,17.246167 C 37.068811,17.246167 37.088388,32 37.088388,32 L 22.160133,31.978069 C 22.160133,31.978069 26.997745,27.140456 26.997745,27.140456 C 18.528582,18.264221 13.291696,25.230495 11.500037,31.436501 z"
             style="fill:#404040;"/>
          </a>
         </g>
        </svg>
</svg>
