<?xml version="1.0" encoding="UTF-8" standalone="no"?>
<!DOCTYPE svg PUBLIC "-//W3C//DTD SVG 1.1//EN"
 "http://www.w3.org/Graphics/SVG/1.1/DTD/svg11.dtd">
<!-- Generated by graphviz version 2.40.1 (20161225.0304)
 -->
<!-- Title: js_array_reverse Pages: 1 -->
<!--zoomable 844 -->
<svg id="main" version="1.1" xmlns="http://www.w3.org/2000/svg" xmlns:xlink="http://www.w3.org/1999/xlink" xml:space="preserve" onload="init(evt)">
<style type="text/css"><![CDATA[
.edge:hover path { stroke: red; }
.edge:hover polygon { stroke: red; fill: red; }
]]></style>
<script type="text/javascript"><![CDATA[
var edges = document.getElementsByTagName('g');
if (edges && edges.length) {
  for (var i=0;i<edges.length;i++) {
    if (edges[i].id.substr(0,4)=='edge') {
      edges[i].setAttribute('class','edge');
    }
  }
}
]]></script>
        <defs>
                <circle id="rim" cx="0" cy="0" r="7"/>
                <circle id="rim2" cx="0" cy="0" r="3.5"/>
                <g id="zoomPlus">
                        <use xlink:href="#rim" fill="#404040">
                                <set attributeName="fill" to="#808080" begin="zoomplus.mouseover" end="zoomplus.mouseout"/>
                        </use>
                        <path d="M-4,0h8M0,-4v8" fill="none" stroke="white" stroke-width="1.5" pointer-events="none"/>
                </g>
                <g id="zoomMin">
                        <use xlink:href="#rim" fill="#404040">
                                <set attributeName="fill" to="#808080" begin="zoomminus.mouseover" end="zoomminus.mouseout"/>
                        </use>
                        <path d="M-4,0h8" fill="none" stroke="white" stroke-width="1.5" pointer-events="none"/>
                </g>
                <g id="dirArrow">
                        <path fill="none" stroke="white" stroke-width="1.5" d="M0,-3.0v7 M-2.5,-0.5L0,-3.0L2.5,-0.5"/>
                </g>
               <g id="resetDef">
                       <use xlink:href="#rim2" fill="#404040">
                               <set attributeName="fill" to="#808080" begin="reset.mouseover" end="reset.mouseout"/>
                       </use>
               </g>
        </defs>

<script type="text/javascript">
var viewWidth = 714;
var viewHeight = 844;
var sectionId = 'dynsection-1484';
</script>
<script xlink:href="svgpan.js"/>
<svg id="graph" class="graph">
<g id="viewport">
<title>js_array_reverse</title>
<!-- Node398591 -->
<g id="node1" class="node">
<title>Node398591</title>
<polygon fill="#bfbfbf" stroke="#000000" points="0,-504.2311 0,-523.2311 89,-523.2311 89,-504.2311 0,-504.2311"/>
<text text-anchor="middle" x="44.5" y="-511.2311" font-family="Helvetica,sans-Serif" font-size="10.00" fill="#000000">js_array_reverse</text>
</g>
<!-- Node398592 -->
<g id="node2" class="node">
<title>Node398592</title>
<g id="a_node2"><a xlink:href="quickjs_8c.html#a70e21308fe3760cd95dd1dbb1a8755e6" target="_top" xlink:title="JS_DeletePropertyInt64">
<polygon fill="none" stroke="#000000" points="125,-466.2311 125,-485.2311 246,-485.2311 246,-466.2311 125,-466.2311"/>
<text text-anchor="middle" x="185.5" y="-473.2311" font-family="Helvetica,sans-Serif" font-size="10.00" fill="#000000">JS_DeletePropertyInt64</text>
</a>
</g>
</g>
<!-- Node398591&#45;&gt;Node398592 -->
<g id="edge1" class="edge">
<title>Node398591&#45;&gt;Node398592</title>
<path fill="none" stroke="#191970" d="M80.0803,-504.1421C98.282,-499.2367 120.6384,-493.2115 140.0723,-487.974"/>
<polygon fill="#191970" stroke="#191970" points="141.1864,-491.2987 149.9311,-485.317 139.3648,-484.5399 141.1864,-491.2987"/>
</g>
<!-- Node398648 -->
<g id="node7" class="node">
<title>Node398648</title>
<g id="a_node7"><a xlink:href="quickjs_8h.html#afaa20c47565bc704c6c85f3d77254e7d" target="_top" xlink:title="JS_FreeValue">
<polygon fill="none" stroke="#ff0000" points="607.5,-694.2311 607.5,-713.2311 685.5,-713.2311 685.5,-694.2311 607.5,-694.2311"/>
<text text-anchor="middle" x="646.5" y="-701.2311" font-family="Helvetica,sans-Serif" font-size="10.00" fill="#000000">JS_FreeValue</text>
</a>
</g>
</g>
<!-- Node398591&#45;&gt;Node398648 -->
<g id="edge19" class="edge">
<title>Node398591&#45;&gt;Node398648</title>
<path fill="none" stroke="#191970" d="M52.3478,-523.3782C89.6383,-568.3427 254.8237,-757.812 440,-820.7311 486.7106,-836.6024 508.0701,-845.0376 551,-820.7311 578.0618,-805.409 567.5998,-785.0363 587,-760.7311 598.8911,-745.8335 614.5237,-731.0016 626.7811,-720.2032"/>
<polygon fill="#191970" stroke="#191970" points="629.3565,-722.6038 634.6403,-713.4206 624.783,-717.3044 629.3565,-722.6038"/>
</g>
<!-- Node398663 -->
<g id="node10" class="node">
<title>Node398663</title>
<g id="a_node10"><a xlink:href="quickjs_8c.html#a710289a14c2810467e5b448d3c28bd55" target="_top" xlink:title="JS_ToObject">
<polygon fill="none" stroke="#ff0000" points="458.5,-200.2311 458.5,-219.2311 532.5,-219.2311 532.5,-200.2311 458.5,-200.2311"/>
<text text-anchor="middle" x="495.5" y="-207.2311" font-family="Helvetica,sans-Serif" font-size="10.00" fill="#000000">JS_ToObject</text>
</a>
</g>
</g>
<!-- Node398591&#45;&gt;Node398663 -->
<g id="edge36" class="edge">
<title>Node398591&#45;&gt;Node398663</title>
<path fill="none" stroke="#191970" d="M54.9948,-504.1783C98.8107,-464.7433 272.6506,-312.7079 440,-227.7311 443.5069,-225.9504 447.2267,-224.2957 451.0143,-222.7699"/>
<polygon fill="#191970" stroke="#191970" points="452.3351,-226.0129 460.4857,-219.244 449.8929,-219.4527 452.3351,-226.0129"/>
</g>
<!-- Node398833 -->
<g id="node15" class="node">
<title>Node398833</title>
<g id="a_node15"><a xlink:href="quickjs_8c.html#a4e7bf9ce9c03f0cac9529a14161183e0" target="_top" xlink:title="js_get_fast_array">
<polygon fill="none" stroke="#000000" points="139.5,-504.2311 139.5,-523.2311 231.5,-523.2311 231.5,-504.2311 139.5,-504.2311"/>
<text text-anchor="middle" x="185.5" y="-511.2311" font-family="Helvetica,sans-Serif" font-size="10.00" fill="#000000">js_get_fast_array</text>
</a>
</g>
</g>
<!-- Node398591&#45;&gt;Node398833 -->
<g id="edge20" class="edge">
<title>Node398591&#45;&gt;Node398833</title>
<path fill="none" stroke="#191970" d="M89.1133,-513.7311C101.8432,-513.7311 115.8808,-513.7311 129.2111,-513.7311"/>
<polygon fill="#191970" stroke="#191970" points="129.2337,-517.2312 139.2337,-513.7311 129.2337,-510.2312 129.2337,-517.2312"/>
</g>
<!-- Node399025 -->
<g id="node16" class="node">
<title>Node399025</title>
<g id="a_node16"><a xlink:href="quickjs_8c.html#a5f848f76409193212a44e6221e430919" target="_top" xlink:title="js_get_length64">
<polygon fill="none" stroke="#000000" points="300.5,-542.2311 300.5,-561.2311 385.5,-561.2311 385.5,-542.2311 300.5,-542.2311"/>
<text text-anchor="middle" x="343" y="-549.2311" font-family="Helvetica,sans-Serif" font-size="10.00" fill="#000000">js_get_length64</text>
</a>
</g>
</g>
<!-- Node398591&#45;&gt;Node399025 -->
<g id="edge21" class="edge">
<title>Node398591&#45;&gt;Node399025</title>
<path fill="none" stroke="#191970" d="M79.944,-523.2668C93.8961,-526.7122 110.1134,-530.3385 125,-532.7311 180.9079,-541.7168 245.6135,-546.6798 289.9198,-549.2584"/>
<polygon fill="#191970" stroke="#191970" points="289.987,-552.7676 300.1675,-549.8334 290.3793,-545.7786 289.987,-552.7676"/>
</g>
<!-- Node399029 -->
<g id="node20" class="node">
<title>Node399029</title>
<g id="a_node20"><a xlink:href="quickjs_8c.html#a51b06daa618640e531fe808770553b96" target="_top" xlink:title="JS_SetPropertyInt64">
<polygon fill="none" stroke="#000000" points="289.5,-580.2311 289.5,-599.2311 396.5,-599.2311 396.5,-580.2311 289.5,-580.2311"/>
<text text-anchor="middle" x="343" y="-587.2311" font-family="Helvetica,sans-Serif" font-size="10.00" fill="#000000">JS_SetPropertyInt64</text>
</a>
</g>
</g>
<!-- Node398591&#45;&gt;Node399029 -->
<g id="edge27" class="edge">
<title>Node398591&#45;&gt;Node399029</title>
<path fill="none" stroke="#191970" d="M60.8868,-523.3844C76.7622,-532.3166 101.7782,-545.3019 125,-552.7311 175.5418,-568.9007 235.0633,-578.3961 279.1305,-583.7105"/>
<polygon fill="#191970" stroke="#191970" points="278.7973,-587.1953 289.1355,-584.8775 279.6084,-580.2424 278.7973,-587.1953"/>
</g>
<!-- Node399030 -->
<g id="node23" class="node">
<title>Node399030</title>
<g id="a_node23"><a xlink:href="quickjs_8c.html#a14674e74168715dc5a3a391910982e5d" target="_top" xlink:title="JS_TryGetPropertyInt64">
<polygon fill="none" stroke="#000000" points="282,-162.2311 282,-181.2311 404,-181.2311 404,-162.2311 282,-162.2311"/>
<text text-anchor="middle" x="343" y="-169.2311" font-family="Helvetica,sans-Serif" font-size="10.00" fill="#000000">JS_TryGetPropertyInt64</text>
</a>
</g>
</g>
<!-- Node398591&#45;&gt;Node399030 -->
<g id="edge37" class="edge">
<title>Node398591&#45;&gt;Node399030</title>
<path fill="none" stroke="#191970" d="M46.0955,-504.1295C51.7056,-472.8846 73.0634,-372.5121 125,-309.7311 175.8859,-248.2202 261.5773,-205.4707 308.95,-185.1722"/>
<polygon fill="#191970" stroke="#191970" points="310.3079,-188.3982 318.1714,-181.2978 307.5964,-181.9446 310.3079,-188.3982"/>
</g>
<!-- Node398593 -->
<g id="node3" class="node">
<title>Node398593</title>
<g id="a_node3"><a xlink:href="quickjs_8c.html#a877fcb7651d95b411ce70e62b7f4a1f0" target="_top" xlink:title="__JS_AtomFromUInt32">
<polygon fill="none" stroke="#000000" points="587,-10.2311 587,-29.2311 706,-29.2311 706,-10.2311 587,-10.2311"/>
<text text-anchor="middle" x="646.5" y="-17.2311" font-family="Helvetica,sans-Serif" font-size="10.00" fill="#000000">__JS_AtomFromUInt32</text>
</a>
</g>
</g>
<!-- Node398592&#45;&gt;Node398593 -->
<g id="edge2" class="edge">
<title>Node398592&#45;&gt;Node398593</title>
<path fill="none" stroke="#191970" d="M186.6367,-466.1065C193.293,-411.1757 228.7658,-137.5566 282,-74.7311 357.2614,14.0904 509.615,4.4516 591.495,-8.5667"/>
<polygon fill="#191970" stroke="#191970" points="590.9234,-12.0196 601.3619,-10.2064 592.0709,-5.1143 590.9234,-12.0196"/>
</g>
<!-- Node398594 -->
<g id="node4" class="node">
<title>Node398594</title>
<g id="a_node4"><a xlink:href="quickjs_8c.html#a2b88ed25233c441cbed7b0a027c9ee2f" target="_top" xlink:title="JS_DeleteProperty">
<polygon fill="none" stroke="#000000" points="293.5,-466.2311 293.5,-485.2311 392.5,-485.2311 392.5,-466.2311 293.5,-466.2311"/>
<text text-anchor="middle" x="343" y="-473.2311" font-family="Helvetica,sans-Serif" font-size="10.00" fill="#000000">JS_DeleteProperty</text>
</a>
</g>
</g>
<!-- Node398592&#45;&gt;Node398594 -->
<g id="edge3" class="edge">
<title>Node398592&#45;&gt;Node398594</title>
<path fill="none" stroke="#191970" d="M246.3936,-475.7311C258.5666,-475.7311 271.3405,-475.7311 283.4669,-475.7311"/>
<polygon fill="#191970" stroke="#191970" points="283.4734,-479.2312 293.4733,-475.7311 283.4733,-472.2312 283.4734,-479.2312"/>
</g>
<!-- Node398647 -->
<g id="node6" class="node">
<title>Node398647</title>
<g id="a_node6"><a xlink:href="quickjs_8c.html#ab7fc45a99935a1c0ba50b0216d9401a9" target="_top" xlink:title="JS_FreeAtom">
<polygon fill="none" stroke="#ff0000" points="608,-542.2311 608,-561.2311 685,-561.2311 685,-542.2311 608,-542.2311"/>
<text text-anchor="middle" x="646.5" y="-549.2311" font-family="Helvetica,sans-Serif" font-size="10.00" fill="#000000">JS_FreeAtom</text>
</a>
</g>
</g>
<!-- Node398592&#45;&gt;Node398647 -->
<g id="edge13" class="edge">
<title>Node398592&#45;&gt;Node398647</title>
<path fill="none" stroke="#191970" d="M232.0598,-485.282C247.8847,-488.4259 265.6894,-491.8512 282,-494.7311 394.6404,-514.6194 527.5039,-534.4979 597.5616,-544.702"/>
<polygon fill="#191970" stroke="#191970" points="597.4437,-548.2215 607.843,-546.1957 598.4501,-541.2943 597.4437,-548.2215"/>
</g>
<!-- Node399024 -->
<g id="node12" class="node">
<title>Node399024</title>
<g id="a_node12"><a xlink:href="quickjs_8c.html#aa641af3a921335927dab07dc83285917" target="_top" xlink:title="JS_NewAtomInt64">
<polygon fill="none" stroke="#000000" points="446,-48.2311 446,-67.2311 545,-67.2311 545,-48.2311 446,-48.2311"/>
<text text-anchor="middle" x="495.5" y="-55.2311" font-family="Helvetica,sans-Serif" font-size="10.00" fill="#000000">JS_NewAtomInt64</text>
</a>
</g>
</g>
<!-- Node398592&#45;&gt;Node399024 -->
<g id="edge14" class="edge">
<title>Node398592&#45;&gt;Node399024</title>
<path fill="none" stroke="#191970" d="M187.2459,-466.1559C196.1875,-417.9986 238.138,-202.6171 282,-152.7311 321.8904,-107.3622 387.6107,-82.6304 435.6152,-69.8779"/>
<polygon fill="#191970" stroke="#191970" points="436.7509,-73.2003 445.5743,-67.3353 435.0193,-66.4178 436.7509,-73.2003"/>
</g>
<!-- Node398595 -->
<g id="node5" class="node">
<title>Node398595</title>
<g id="a_node5"><a xlink:href="quickjs_8c.html#a2b9a2014cb970af5b5b7dde00afbdffa" target="_top" xlink:title="delete_property">
<polygon fill="none" stroke="#ff0000" points="454,-618.2311 454,-637.2311 537,-637.2311 537,-618.2311 454,-618.2311"/>
<text text-anchor="middle" x="495.5" y="-625.2311" font-family="Helvetica,sans-Serif" font-size="10.00" fill="#000000">delete_property</text>
</a>
</g>
</g>
<!-- Node398594&#45;&gt;Node398595 -->
<g id="edge4" class="edge">
<title>Node398594&#45;&gt;Node398595</title>
<path fill="none" stroke="#191970" d="M353.5188,-485.2492C365.8028,-496.4356 386.6521,-515.6436 404,-532.7311 431.1221,-559.4462 461.6063,-591.5281 479.6474,-610.7395"/>
<polygon fill="#191970" stroke="#191970" points="477.1808,-613.226 486.5714,-618.1318 482.2898,-608.4407 477.1808,-613.226"/>
</g>
<!-- Node398594&#45;&gt;Node398648 -->
<g id="edge8" class="edge">
<title>Node398594&#45;&gt;Node398648</title>
<path fill="none" stroke="#191970" d="M356.8243,-485.2989C370.6354,-495.5361 391.5534,-512.9919 404,-532.7311 432.3396,-577.6753 401.7489,-609.8534 440,-646.7311 451.4608,-657.7804 539.9646,-679.5474 597.3277,-692.7528"/>
<polygon fill="#191970" stroke="#191970" points="596.7713,-696.2158 607.3,-695.0346 598.3327,-689.3922 596.7713,-696.2158"/>
</g>
<!-- Node398661 -->
<g id="node8" class="node">
<title>Node398661</title>
<g id="a_node8"><a xlink:href="quickjs_8c.html#a686cf78f8b0361621ee2ba6182195c31" target="_top" xlink:title="is_strict_mode">
<polygon fill="none" stroke="#000000" points="455.5,-466.2311 455.5,-485.2311 535.5,-485.2311 535.5,-466.2311 455.5,-466.2311"/>
<text text-anchor="middle" x="495.5" y="-473.2311" font-family="Helvetica,sans-Serif" font-size="10.00" fill="#000000">is_strict_mode</text>
</a>
</g>
</g>
<!-- Node398594&#45;&gt;Node398661 -->
<g id="edge7" class="edge">
<title>Node398594&#45;&gt;Node398661</title>
<path fill="none" stroke="#191970" d="M392.5124,-475.7311C409.3657,-475.7311 428.2143,-475.7311 445.1338,-475.7311"/>
<polygon fill="#191970" stroke="#191970" points="445.3842,-479.2312 455.3841,-475.7311 445.3841,-472.2312 445.3842,-479.2312"/>
</g>
<!-- Node398662 -->
<g id="node9" class="node">
<title>Node398662</title>
<g id="a_node9"><a xlink:href="quickjs_8h.html#ad80a83d73e9b7d872b88fbf2943aebe9" target="_top" xlink:title="JS_IsException">
<polygon fill="none" stroke="#000000" points="603.5,-200.2311 603.5,-219.2311 689.5,-219.2311 689.5,-200.2311 603.5,-200.2311"/>
<text text-anchor="middle" x="646.5" y="-207.2311" font-family="Helvetica,sans-Serif" font-size="10.00" fill="#000000">JS_IsException</text>
</a>
</g>
</g>
<!-- Node398594&#45;&gt;Node398662 -->
<g id="edge9" class="edge">
<title>Node398594&#45;&gt;Node398662</title>
<path fill="none" stroke="#191970" d="M347.3613,-466C365.1621,-426.3579 431.7608,-278.8031 440,-271.7311 463.0815,-251.9194 540.0862,-232.2739 593.2432,-220.5688"/>
<polygon fill="#191970" stroke="#191970" points="594.1731,-223.9485 603.203,-218.4066 592.6881,-217.1078 594.1731,-223.9485"/>
</g>
<!-- Node398594&#45;&gt;Node398663 -->
<g id="edge10" class="edge">
<title>Node398594&#45;&gt;Node398663</title>
<path fill="none" stroke="#191970" d="M347.5685,-466.1436C358.1147,-443.8576 384.7288,-386.7286 404,-337.7311 421.903,-292.2121 406.7325,-269.5887 440,-233.7311 443.5242,-229.9325 447.7526,-226.7065 452.2827,-223.9736"/>
<polygon fill="#191970" stroke="#191970" points="454.0033,-227.0238 461.2603,-219.3046 450.7735,-220.8135 454.0033,-227.0238"/>
</g>
<!-- Node398595&#45;&gt;Node398647 -->
<g id="edge5" class="edge">
<title>Node398595&#45;&gt;Node398647</title>
<path fill="none" stroke="#191970" d="M518.9356,-618.1519C528.9123,-613.9314 540.6191,-608.789 551,-603.7311 575.1003,-591.9887 601.8494,-577.2727 620.8926,-566.4954"/>
<polygon fill="#191970" stroke="#191970" points="622.8768,-569.3933 629.8349,-561.4036 619.413,-563.3103 622.8768,-569.3933"/>
</g>
<!-- Node398595&#45;&gt;Node398648 -->
<g id="edge6" class="edge">
<title>Node398595&#45;&gt;Node398648</title>
<path fill="none" stroke="#191970" d="M518.9356,-637.3103C528.9123,-641.5308 540.6191,-646.6732 551,-651.7311 575.1003,-663.4735 601.8494,-678.1895 620.8926,-688.9668"/>
<polygon fill="#191970" stroke="#191970" points="619.413,-692.1519 629.8349,-694.0586 622.8768,-686.0689 619.413,-692.1519"/>
</g>
<!-- Node398663&#45;&gt;Node398662 -->
<g id="edge11" class="edge">
<title>Node398663&#45;&gt;Node398662</title>
<path fill="none" stroke="#191970" d="M532.8259,-209.7311C551.0468,-209.7311 573.2931,-209.7311 593.2589,-209.7311"/>
<polygon fill="#191970" stroke="#191970" points="593.4584,-213.2312 603.4584,-209.7311 593.4583,-206.2312 593.4584,-213.2312"/>
</g>
<!-- Node398726 -->
<g id="node11" class="node">
<title>Node398726</title>
<g id="a_node11"><a xlink:href="quickjs_8h.html#a2050bc428da1c65ac7eb87c3fa3b0392" target="_top" xlink:title="JS_NewInt32">
<polygon fill="none" stroke="#000000" points="608.5,-352.2311 608.5,-371.2311 684.5,-371.2311 684.5,-352.2311 608.5,-352.2311"/>
<text text-anchor="middle" x="646.5" y="-359.2311" font-family="Helvetica,sans-Serif" font-size="10.00" fill="#000000">JS_NewInt32</text>
</a>
</g>
</g>
<!-- Node398663&#45;&gt;Node398726 -->
<g id="edge12" class="edge">
<title>Node398663&#45;&gt;Node398726</title>
<path fill="none" stroke="#191970" d="M499.4549,-219.3856C509.9452,-243.7986 540.8689,-308.4818 587,-342.7311 590.6744,-345.4591 594.7544,-347.804 599.0064,-349.8181"/>
<polygon fill="#191970" stroke="#191970" points="597.9188,-353.1551 608.4987,-353.7187 600.5795,-346.6805 597.9188,-353.1551"/>
</g>
<!-- Node399024&#45;&gt;Node398593 -->
<g id="edge15" class="edge">
<title>Node399024&#45;&gt;Node398593</title>
<path fill="none" stroke="#191970" d="M533.6037,-48.1421C553.44,-43.1502 577.8839,-36.9987 598.9483,-31.6977"/>
<polygon fill="#191970" stroke="#191970" points="599.8269,-35.0859 608.6703,-29.2512 598.1185,-28.2975 599.8269,-35.0859"/>
</g>
<!-- Node399024&#45;&gt;Node398662 -->
<g id="edge17" class="edge">
<title>Node399024&#45;&gt;Node398662</title>
<path fill="none" stroke="#191970" d="M525.3205,-67.2856C534.1251,-70.9572 543.4238,-75.7414 551,-81.7311 590.3228,-112.8192 621.7358,-163.8389 636.7983,-191.1314"/>
<polygon fill="#191970" stroke="#191970" points="633.7688,-192.8877 641.5923,-200.0322 639.9317,-189.5683 633.7688,-192.8877"/>
</g>
<!-- Node398752 -->
<g id="node13" class="node">
<title>Node398752</title>
<g id="a_node13"><a xlink:href="quickjs_8c.html#acd08798ec15cc37c60d2e7d70007c6a8" target="_top" xlink:title="__JS_NewAtom">
<polygon fill="none" stroke="#ff0000" points="602.5,-48.2311 602.5,-67.2311 690.5,-67.2311 690.5,-48.2311 602.5,-48.2311"/>
<text text-anchor="middle" x="646.5" y="-55.2311" font-family="Helvetica,sans-Serif" font-size="10.00" fill="#000000">__JS_NewAtom</text>
</a>
</g>
</g>
<!-- Node399024&#45;&gt;Node398752 -->
<g id="edge16" class="edge">
<title>Node399024&#45;&gt;Node398752</title>
<path fill="none" stroke="#191970" d="M545.3615,-57.7311C560.2981,-57.7311 576.7539,-57.7311 591.9744,-57.7311"/>
<polygon fill="#191970" stroke="#191970" points="592.2805,-61.2312 602.2805,-57.7311 592.2804,-54.2312 592.2805,-61.2312"/>
</g>
<!-- Node398691 -->
<g id="node14" class="node">
<title>Node398691</title>
<g id="a_node14"><a xlink:href="quickjs_8c.html#a0ee6a3654a6016393fac5e1c108f403a" target="_top" xlink:title="JS_NewString">
<polygon fill="none" stroke="#ff0000" points="606.5,-86.2311 606.5,-105.2311 686.5,-105.2311 686.5,-86.2311 606.5,-86.2311"/>
<text text-anchor="middle" x="646.5" y="-93.2311" font-family="Helvetica,sans-Serif" font-size="10.00" fill="#000000">JS_NewString</text>
</a>
</g>
</g>
<!-- Node399024&#45;&gt;Node398691 -->
<g id="edge18" class="edge">
<title>Node399024&#45;&gt;Node398691</title>
<path fill="none" stroke="#191970" d="M533.6037,-67.3201C553.44,-72.312 577.8839,-78.4635 598.9483,-83.7645"/>
<polygon fill="#191970" stroke="#191970" points="598.1185,-87.1647 608.6703,-86.2111 599.8269,-80.3763 598.1185,-87.1647"/>
</g>
<!-- Node399025&#45;&gt;Node398662 -->
<g id="edge23" class="edge">
<title>Node399025&#45;&gt;Node398662</title>
<path fill="none" stroke="#191970" d="M357.8451,-542.0752C372.0385,-532.0142 392.8755,-514.9141 404,-494.7311 445.2771,-419.8432 384.4842,-370.7695 440,-305.7311 474.0448,-265.8466 503.5138,-287.9773 551,-265.7311 576.7266,-253.6788 604.5825,-236.8749 623.532,-224.8245"/>
<polygon fill="#191970" stroke="#191970" points="625.5536,-227.6857 632.0707,-219.3324 621.7668,-221.7984 625.5536,-227.6857"/>
</g>
<!-- Node398722 -->
<g id="node17" class="node">
<title>Node398722</title>
<g id="a_node17"><a xlink:href="quickjs_8h.html#a89b7c8686c7eee70b86be722ee4730ad" target="_top" xlink:title="JS_GetProperty">
<polygon fill="none" stroke="#ff0000" points="603.5,-314.2311 603.5,-333.2311 689.5,-333.2311 689.5,-314.2311 603.5,-314.2311"/>
<text text-anchor="middle" x="646.5" y="-321.2311" font-family="Helvetica,sans-Serif" font-size="10.00" fill="#000000">JS_GetProperty</text>
</a>
</g>
</g>
<!-- Node399025&#45;&gt;Node398722 -->
<g id="edge22" class="edge">
<title>Node399025&#45;&gt;Node398722</title>
<path fill="none" stroke="#191970" d="M357.3893,-542.1574C371.4404,-532.0393 392.3581,-514.7879 404,-494.7311 438.8517,-434.6885 387.5779,-388.2467 440,-342.7311 481.5751,-306.6334 547.1729,-306.8842 593.2537,-312.9373"/>
<polygon fill="#191970" stroke="#191970" points="592.9575,-316.4307 603.3553,-314.397 593.9587,-309.5027 592.9575,-316.4307"/>
</g>
<!-- Node399026 -->
<g id="node18" class="node">
<title>Node399026</title>
<g id="a_node18"><a xlink:href="quickjs_8c.html#a07acd485a57197356906928a788a0644" target="_top" xlink:title="JS_ToLengthFree">
<polygon fill="none" stroke="#000000" points="448.5,-770.2311 448.5,-789.2311 542.5,-789.2311 542.5,-770.2311 448.5,-770.2311"/>
<text text-anchor="middle" x="495.5" y="-777.2311" font-family="Helvetica,sans-Serif" font-size="10.00" fill="#000000">JS_ToLengthFree</text>
</a>
</g>
</g>
<!-- Node399025&#45;&gt;Node399026 -->
<g id="edge24" class="edge">
<title>Node399025&#45;&gt;Node399026</title>
<path fill="none" stroke="#191970" d="M385.5659,-558.4367C392.5198,-561.2383 399.0548,-565.1835 404,-570.7311 461.1903,-634.8882 383.7097,-695.7829 440,-760.7311 441.1464,-762.0539 442.3891,-763.2847 443.7099,-764.4299"/>
<polygon fill="#191970" stroke="#191970" points="441.7721,-767.3448 452.0031,-770.0975 445.7217,-761.5655 441.7721,-767.3448"/>
</g>
<!-- Node399026&#45;&gt;Node398648 -->
<g id="edge25" class="edge">
<title>Node399026&#45;&gt;Node398648</title>
<path fill="none" stroke="#191970" d="M527.0637,-770.1971C535.0056,-767.4539 543.4229,-764.2426 551,-760.7311 577.0454,-748.6607 605.0483,-731.3857 623.9509,-719.0222"/>
<polygon fill="#191970" stroke="#191970" points="626.0468,-721.8321 632.4508,-713.3917 622.1811,-715.9963 626.0468,-721.8321"/>
</g>
<!-- Node399027 -->
<g id="node19" class="node">
<title>Node399027</title>
<g id="a_node19"><a xlink:href="quickjs_8c.html#a537e88d38784e3df2a19c72f8bd1d77e" target="_top" xlink:title="JS_ToInt64Clamp">
<polygon fill="none" stroke="#ff0000" points="599,-770.2311 599,-789.2311 694,-789.2311 694,-770.2311 599,-770.2311"/>
<text text-anchor="middle" x="646.5" y="-777.2311" font-family="Helvetica,sans-Serif" font-size="10.00" fill="#000000">JS_ToInt64Clamp</text>
</a>
</g>
</g>
<!-- Node399026&#45;&gt;Node399027 -->
<g id="edge26" class="edge">
<title>Node399026&#45;&gt;Node399027</title>
<path fill="none" stroke="#191970" d="M542.863,-779.7311C557.3395,-779.7311 573.4264,-779.7311 588.5238,-779.7311"/>
<polygon fill="#191970" stroke="#191970" points="588.7859,-783.2312 598.7858,-779.7311 588.7858,-776.2312 588.7859,-783.2312"/>
</g>
<!-- Node399029&#45;&gt;Node398647 -->
<g id="edge28" class="edge">
<title>Node399029&#45;&gt;Node398647</title>
<path fill="none" stroke="#191970" d="M396.9266,-583.9679C438.9491,-579.3659 498.7377,-572.5753 551,-565.7311 566.2548,-563.7333 582.8512,-561.3678 597.8648,-559.1552"/>
<polygon fill="#191970" stroke="#191970" points="598.5927,-562.5856 607.9699,-557.6543 597.5642,-555.6616 598.5927,-562.5856"/>
</g>
<!-- Node399029&#45;&gt;Node398648 -->
<g id="edge29" class="edge">
<title>Node399029&#45;&gt;Node398648</title>
<path fill="none" stroke="#191970" d="M343.9734,-599.553C348.01,-634.3294 366.8317,-752.025 440,-798.7311 481.5834,-825.2754 505.6812,-818.2242 551,-798.7311 572.3713,-789.5386 570.5954,-777.2273 587,-760.7311 600.7687,-746.8855 616.7706,-731.5995 628.7096,-720.3456"/>
<polygon fill="#191970" stroke="#191970" points="631.355,-722.6628 636.2486,-713.2658 626.5631,-717.56 631.355,-722.6628"/>
</g>
<!-- Node399029&#45;&gt;Node398726 -->
<g id="edge31" class="edge">
<title>Node399029&#45;&gt;Node398726</title>
<path fill="none" stroke="#191970" d="M378.799,-580.1785C423.1992,-566.9133 499.3333,-539.3752 551,-494.7311 590.0791,-460.9637 621.7911,-408.1351 636.9091,-380.3099"/>
<polygon fill="#191970" stroke="#191970" points="640.1102,-381.7446 641.711,-371.2714 633.9284,-378.4604 640.1102,-381.7446"/>
</g>
<!-- Node399029&#45;&gt;Node399024 -->
<g id="edge30" class="edge">
<title>Node399029&#45;&gt;Node399024</title>
<path fill="none" stroke="#191970" d="M392.5986,-580.1853C396.9308,-577.7076 400.855,-574.6071 404,-570.7311 457.4446,-504.8635 419.4348,-273.0229 440,-190.7311 450.6097,-148.2761 472.6283,-101.7511 485.514,-76.5345"/>
<polygon fill="#191970" stroke="#191970" points="488.7598,-77.8787 490.2663,-67.3915 482.5487,-74.6503 488.7598,-77.8787"/>
</g>
<!-- Node398881 -->
<g id="node21" class="node">
<title>Node398881</title>
<g id="a_node21"><a xlink:href="quickjs_8h.html#af763b173e78debf2075670ca2c128a30" target="_top" xlink:title="JS_SetProperty">
<polygon fill="none" stroke="#ff0000" points="452.5,-694.2311 452.5,-713.2311 538.5,-713.2311 538.5,-694.2311 452.5,-694.2311"/>
<text text-anchor="middle" x="495.5" y="-701.2311" font-family="Helvetica,sans-Serif" font-size="10.00" fill="#000000">JS_SetProperty</text>
</a>
</g>
</g>
<!-- Node399029&#45;&gt;Node398881 -->
<g id="edge32" class="edge">
<title>Node399029&#45;&gt;Node398881</title>
<path fill="none" stroke="#191970" d="M351.2299,-599.2748C366.9671,-617.0559 403.0593,-655.6307 440,-679.7311 445.8481,-683.5464 452.404,-686.9994 458.9051,-690.0206"/>
<polygon fill="#191970" stroke="#191970" points="457.7374,-693.33 468.302,-694.1302 460.5423,-686.9165 457.7374,-693.33"/>
</g>
<!-- Node398895 -->
<g id="node22" class="node">
<title>Node398895</title>
<g id="a_node22"><a xlink:href="quickjs_8c.html#aee75cc1546e19479e3ccda58f3b50a96" target="_top" xlink:title="JS_SetPropertyValue">
<polygon fill="none" stroke="#ff0000" points="440.5,-732.2311 440.5,-751.2311 550.5,-751.2311 550.5,-732.2311 440.5,-732.2311"/>
<text text-anchor="middle" x="495.5" y="-739.2311" font-family="Helvetica,sans-Serif" font-size="10.00" fill="#000000">JS_SetPropertyValue</text>
</a>
</g>
</g>
<!-- Node399029&#45;&gt;Node398895 -->
<g id="edge33" class="edge">
<title>Node399029&#45;&gt;Node398895</title>
<path fill="none" stroke="#191970" d="M347.4005,-599.3243C359.0092,-623.5934 392.842,-687.967 440,-722.7311 442.6233,-724.6649 445.4579,-726.4122 448.4101,-727.9893"/>
<polygon fill="#191970" stroke="#191970" points="446.9818,-731.185 457.5254,-732.2265 449.9326,-724.8373 446.9818,-731.185"/>
</g>
<!-- Node398895&#45;&gt;Node398647 -->
<g id="edge34" class="edge">
<title>Node398895&#45;&gt;Node398647</title>
<path fill="none" stroke="#191970" d="M535.3206,-732.1349C540.953,-729.6672 546.3874,-726.5821 551,-722.7311 600.9126,-681.06 629.5434,-606.2349 640.8374,-571.0341"/>
<polygon fill="#191970" stroke="#191970" points="644.1868,-572.0498 643.7902,-561.4624 637.4978,-569.9862 644.1868,-572.0498"/>
</g>
<!-- Node398895&#45;&gt;Node398648 -->
<g id="edge35" class="edge">
<title>Node398895&#45;&gt;Node398648</title>
<path fill="none" stroke="#191970" d="M533.6037,-732.1421C553.44,-727.1502 577.8839,-720.9987 598.9483,-715.6977"/>
<polygon fill="#191970" stroke="#191970" points="599.8269,-719.0859 608.6703,-713.2512 598.1185,-712.2975 599.8269,-719.0859"/>
</g>
<!-- Node399030&#45;&gt;Node398593 -->
<g id="edge38" class="edge">
<title>Node399030&#45;&gt;Node398593</title>
<path fill="none" stroke="#191970" d="M346.646,-162.1878C356.8834,-136.8677 388.55,-67.9307 440,-38.7311 481.0749,-15.4197 534.2782,-11.0103 576.394,-12.2521"/>
<polygon fill="#191970" stroke="#191970" points="576.4382,-15.7567 586.5725,-12.6671 576.7235,-8.7625 576.4382,-15.7567"/>
</g>
<!-- Node399030&#45;&gt;Node398647 -->
<g id="edge39" class="edge">
<title>Node399030&#45;&gt;Node398647</title>
<path fill="none" stroke="#191970" d="M344.7491,-181.6681C351.1101,-214.8818 376.0868,-323.1818 440,-380.7311 478.7502,-415.6229 509.1427,-387.6348 551,-418.7311 592.6614,-449.6819 623.4733,-504.1349 637.7202,-532.8238"/>
<polygon fill="#191970" stroke="#191970" points="634.7141,-534.648 642.2091,-542.1364 641.0198,-531.6085 634.7141,-534.648"/>
</g>
<!-- Node399030&#45;&gt;Node398662 -->
<g id="edge48" class="edge">
<title>Node399030&#45;&gt;Node398662</title>
<path fill="none" stroke="#191970" d="M355.942,-162.0703C373.7671,-149.4287 407.3837,-127.9222 440,-119.7311 487.8475,-107.7149 505.1472,-101.5296 551,-119.7311 587.4772,-134.2109 618.106,-169.9565 634.24,-191.7911"/>
<polygon fill="#191970" stroke="#191970" points="631.3972,-193.833 640.0606,-199.932 637.0915,-189.7616 631.3972,-193.833"/>
</g>
<!-- Node399030&#45;&gt;Node398726 -->
<g id="edge50" class="edge">
<title>Node399030&#45;&gt;Node398726</title>
<path fill="none" stroke="#191970" d="M404.1544,-169.6738C457.5364,-169.2136 529.7053,-172.2542 551,-190.7311 603.4371,-236.2295 539.8236,-291.7984 587,-342.7311 590.3689,-346.3682 594.4322,-349.3122 598.8344,-351.6947"/>
<polygon fill="#191970" stroke="#191970" points="597.6705,-355.0066 608.2327,-355.8385 600.4946,-348.6015 597.6705,-355.0066"/>
</g>
<!-- Node399030&#45;&gt;Node399024 -->
<g id="edge49" class="edge">
<title>Node399030&#45;&gt;Node399024</title>
<path fill="none" stroke="#191970" d="M352.4379,-162.1901C372.8615,-141.6765 420.8562,-94.2206 440,-81.7311 445.8481,-77.9158 452.404,-74.4628 458.9051,-71.4416"/>
<polygon fill="#191970" stroke="#191970" points="460.5423,-74.5457 468.302,-67.332 457.7374,-68.1322 460.5423,-74.5457"/>
</g>
<!-- Node399030&#45;&gt;Node398722 -->
<g id="edge40" class="edge">
<title>Node399030&#45;&gt;Node398722</title>
<path fill="none" stroke="#191970" d="M365.9836,-162.1217C406.6639,-146.7546 492.5567,-121.8377 551,-157.7311 581.1483,-176.2469 569.5924,-197.9297 587,-228.7311 602.4814,-256.1242 622.1413,-286.81 634.5263,-305.7026"/>
<polygon fill="#191970" stroke="#191970" points="631.6991,-307.7732 640.1254,-314.1957 637.5434,-303.9203 631.6991,-307.7732"/>
</g>
<!-- Node398748 -->
<g id="node24" class="node">
<title>Node398748</title>
<g id="a_node24"><a xlink:href="quickjs_8c.html#a90d6e607f6917d817c1e997bd2e6ed07" target="_top" xlink:title="JS_GetPropertyValue">
<polygon fill="none" stroke="#ff0000" points="440,-352.2311 440,-371.2311 551,-371.2311 551,-352.2311 440,-352.2311"/>
<text text-anchor="middle" x="495.5" y="-359.2311" font-family="Helvetica,sans-Serif" font-size="10.00" fill="#000000">JS_GetPropertyValue</text>
</a>
</g>
</g>
<!-- Node399030&#45;&gt;Node398748 -->
<g id="edge41" class="edge">
<title>Node399030&#45;&gt;Node398748</title>
<path fill="none" stroke="#191970" d="M350.7722,-181.4144C375.0365,-211.6454 449.6414,-304.5958 481.1834,-343.894"/>
<polygon fill="#191970" stroke="#191970" points="478.5716,-346.2316 487.5606,-351.8394 484.0307,-341.8499 478.5716,-346.2316"/>
</g>
<!-- Node398864 -->
<g id="node25" class="node">
<title>Node398864</title>
<g id="a_node25"><a xlink:href="quickjs_8c.html#a9d6d0a9704951d01c128975e0d2213f8" target="_top" xlink:title="JS_HasProperty">
<polygon fill="none" stroke="#ff0000" points="451,-428.2311 451,-447.2311 540,-447.2311 540,-428.2311 451,-428.2311"/>
<text text-anchor="middle" x="495.5" y="-435.2311" font-family="Helvetica,sans-Serif" font-size="10.00" fill="#000000">JS_HasProperty</text>
</a>
</g>
</g>
<!-- Node399030&#45;&gt;Node398864 -->
<g id="edge46" class="edge">
<title>Node399030&#45;&gt;Node398864</title>
<path fill="none" stroke="#191970" d="M344.2278,-181.4708C349.2265,-217.2518 371.1728,-343.025 440,-413.7311 443.7035,-417.5357 448.11,-420.7738 452.7972,-423.5207"/>
<polygon fill="#191970" stroke="#191970" points="451.5447,-426.8101 462.0456,-428.2175 454.7144,-420.5688 451.5447,-426.8101"/>
</g>
<!-- Node398748&#45;&gt;Node398647 -->
<g id="edge42" class="edge">
<title>Node398748&#45;&gt;Node398647</title>
<path fill="none" stroke="#191970" d="M527.2167,-371.3505C535.5919,-374.9318 544.1848,-379.6512 551,-385.7311 598.0136,-427.6727 627.7525,-498.4753 640.0315,-532.433"/>
<polygon fill="#191970" stroke="#191970" points="636.8001,-533.7957 643.4044,-542.0803 643.4079,-531.4855 636.8001,-533.7957"/>
</g>
<!-- Node398748&#45;&gt;Node398648 -->
<g id="edge43" class="edge">
<title>Node398748&#45;&gt;Node398648</title>
<path fill="none" stroke="#191970" d="M508.5719,-371.5949C521.3406,-381.9386 540.3604,-399.3619 551,-418.7311 584.4246,-479.5797 564.7263,-504.9768 587,-570.7311 601.1945,-612.6348 623.7667,-659.3619 636.6433,-684.7618"/>
<polygon fill="#191970" stroke="#191970" points="633.6906,-686.6744 641.3663,-693.9775 639.9202,-683.4818 633.6906,-686.6744"/>
</g>
<!-- Node398748&#45;&gt;Node398726 -->
<g id="edge45" class="edge">
<title>Node398748&#45;&gt;Node398726</title>
<path fill="none" stroke="#191970" d="M551.2978,-361.7311C566.7246,-361.7311 583.3313,-361.7311 598.2873,-361.7311"/>
<polygon fill="#191970" stroke="#191970" points="598.343,-365.2312 608.343,-361.7311 598.3429,-358.2312 598.343,-365.2312"/>
</g>
<!-- Node398748&#45;&gt;Node398722 -->
<g id="edge44" class="edge">
<title>Node398748&#45;&gt;Node398722</title>
<path fill="none" stroke="#191970" d="M533.6037,-352.1421C553.44,-347.1502 577.8839,-340.9987 598.9483,-335.6977"/>
<polygon fill="#191970" stroke="#191970" points="599.8269,-339.0859 608.6703,-333.2512 598.1185,-332.2975 599.8269,-339.0859"/>
</g>
<!-- Node398864&#45;&gt;Node398648 -->
<g id="edge47" class="edge">
<title>Node398864&#45;&gt;Node398648</title>
<path fill="none" stroke="#191970" d="M537.7353,-447.3395C542.6409,-449.7915 547.2292,-452.8689 551,-456.7311 588.1179,-494.7491 568.1201,-521.0656 587,-570.7311 602.7999,-612.2942 624.9551,-659.4862 637.2886,-684.9807"/>
<polygon fill="#191970" stroke="#191970" points="634.2591,-686.7538 641.7848,-694.2113 640.5522,-683.6884 634.2591,-686.7538"/>
</g>
</g>
</svg>
        <g id="navigator" transform="translate(0 0)" fill="#404254">
                <rect fill="#f2f5e9" fill-opacity="0.5" stroke="#606060" stroke-width=".5" x="0" y="0" width="60" height="60"/>
                <use id="zoomplus" xlink:href="#zoomPlus" x="17" y="9" onmousedown="handleZoom(evt,'in')"/>
                <use id="zoomminus" xlink:href="#zoomMin" x="42" y="9" onmousedown="handleZoom(evt,'out')"/>
                <use id="reset" xlink:href="#resetDef" x="30" y="36" onmousedown="handleReset()"/>
                <g id="arrowUp" xlink:href="#dirArrow" transform="translate(30 24)" onmousedown="handlePan(0,-1)">
                  <use xlink:href="#rim" fill="#404040">
                        <set attributeName="fill" to="#808080" begin="arrowUp.mouseover" end="arrowUp.mouseout"/>
                  </use>
                  <path fill="none" stroke="white" stroke-width="1.5" d="M0,-3.0v7 M-2.5,-0.5L0,-3.0L2.5,-0.5"/>
                </g>
                <g id="arrowRight" xlink:href="#dirArrow" transform="rotate(90) translate(36 -43)" onmousedown="handlePan(1,0)">
                  <use xlink:href="#rim" fill="#404040">
                        <set attributeName="fill" to="#808080" begin="arrowRight.mouseover" end="arrowRight.mouseout"/>
                  </use>
                  <path fill="none" stroke="white" stroke-width="1.5" d="M0,-3.0v7 M-2.5,-0.5L0,-3.0L2.5,-0.5"/>
                </g>
                <g id="arrowDown" xlink:href="#dirArrow" transform="rotate(180) translate(-30 -48)" onmousedown="handlePan(0,1)">
                  <use xlink:href="#rim" fill="#404040">
                        <set attributeName="fill" to="#808080" begin="arrowDown.mouseover" end="arrowDown.mouseout"/>
                  </use>
                  <path fill="none" stroke="white" stroke-width="1.5" d="M0,-3.0v7 M-2.5,-0.5L0,-3.0L2.5,-0.5"/>
                </g>
                <g id="arrowLeft" xlink:href="#dirArrow" transform="rotate(270) translate(-36 17)" onmousedown="handlePan(-1,0)">
                  <use xlink:href="#rim" fill="#404040">
                        <set attributeName="fill" to="#808080" begin="arrowLeft.mouseover" end="arrowLeft.mouseout"/>
                  </use>
                  <path fill="none" stroke="white" stroke-width="1.5" d="M0,-3.0v7 M-2.5,-0.5L0,-3.0L2.5,-0.5"/>
                </g>
        </g>
        <svg viewBox="0 0 15 15" width="100%" height="30px" preserveAspectRatio="xMaxYMin meet">
         <g id="arrow_out" transform="scale(0.3 0.3)">
          <a xlink:href="quickjs_8c_a8235fb13f196d6ef5002daed858b7eeb_cgraph_org.svg" target="_base">
           <rect id="button" ry="5" rx="5" y="6" x="6" height="38" width="38"
                fill="#f2f5e9" fill-opacity="0.5" stroke="#606060" stroke-width="1.0"/>
           <path id="arrow"
             d="M 11.500037,31.436501 C 11.940474,20.09759 22.043105,11.32322 32.158766,21.979434 L 37.068811,17.246167 C 37.068811,17.246167 37.088388,32 37.088388,32 L 22.160133,31.978069 C 22.160133,31.978069 26.997745,27.140456 26.997745,27.140456 C 18.528582,18.264221 13.291696,25.230495 11.500037,31.436501 z"
             style="fill:#404040;"/>
          </a>
         </g>
        </svg>
</svg>
