<?xml version="1.0" encoding="UTF-8" standalone="no"?>
<!DOCTYPE svg PUBLIC "-//W3C//DTD SVG 1.1//EN"
 "http://www.w3.org/Graphics/SVG/1.1/DTD/svg11.dtd">
<!-- Generated by graphviz version 2.40.1 (20161225.0304)
 -->
<!-- Title: JS_SetProperty Pages: 1 -->
<!--zoomable 832 -->
<svg id="main" version="1.1" xmlns="http://www.w3.org/2000/svg" xmlns:xlink="http://www.w3.org/1999/xlink" xml:space="preserve" onload="init(evt)">
<style type="text/css"><![CDATA[
.edge:hover path { stroke: red; }
.edge:hover polygon { stroke: red; fill: red; }
]]></style>
<script type="text/javascript"><![CDATA[
var edges = document.getElementsByTagName('g');
if (edges && edges.length) {
  for (var i=0;i<edges.length;i++) {
    if (edges[i].id.substr(0,4)=='edge') {
      edges[i].setAttribute('class','edge');
    }
  }
}
]]></script>
        <defs>
                <circle id="rim" cx="0" cy="0" r="7"/>
                <circle id="rim2" cx="0" cy="0" r="3.5"/>
                <g id="zoomPlus">
                        <use xlink:href="#rim" fill="#404040">
                                <set attributeName="fill" to="#808080" begin="zoomplus.mouseover" end="zoomplus.mouseout"/>
                        </use>
                        <path d="M-4,0h8M0,-4v8" fill="none" stroke="white" stroke-width="1.5" pointer-events="none"/>
                </g>
                <g id="zoomMin">
                        <use xlink:href="#rim" fill="#404040">
                                <set attributeName="fill" to="#808080" begin="zoomminus.mouseover" end="zoomminus.mouseout"/>
                        </use>
                        <path d="M-4,0h8" fill="none" stroke="white" stroke-width="1.5" pointer-events="none"/>
                </g>
                <g id="dirArrow">
                        <path fill="none" stroke="white" stroke-width="1.5" d="M0,-3.0v7 M-2.5,-0.5L0,-3.0L2.5,-0.5"/>
                </g>
               <g id="resetDef">
                       <use xlink:href="#rim2" fill="#404040">
                               <set attributeName="fill" to="#808080" begin="reset.mouseover" end="reset.mouseout"/>
                       </use>
               </g>
        </defs>

<script type="text/javascript">
var viewWidth = 728;
var viewHeight = 832;
var sectionId = 'dynsection-176';
</script>
<script xlink:href="svgpan.js"/>
<svg id="graph" class="graph">
<g id="viewport">
<title>JS_SetProperty</title>
<!-- Node60119 -->
<g id="node1" class="node">
<title>Node60119</title>
<polygon fill="#bfbfbf" stroke="#000000" points="0,-321.2041 0,-340.2041 86,-340.2041 86,-321.2041 0,-321.2041"/>
<text text-anchor="middle" x="43" y="-328.2041" font-family="Helvetica,sans-Serif" font-size="10.00" fill="#000000">JS_SetProperty</text>
</g>
<!-- Node60120 -->
<g id="node2" class="node">
<title>Node60120</title>
<g id="a_node2"><a xlink:href="quickjs_8c.html#aaa85fa359f7aa8985f0299147272adef" target="_top" xlink:title="js_array_concat">
<polygon fill="none" stroke="#000000" points="492,-525.2041 492,-544.2041 578,-544.2041 578,-525.2041 492,-525.2041"/>
<text text-anchor="middle" x="535" y="-532.2041" font-family="Helvetica,sans-Serif" font-size="10.00" fill="#000000">js_array_concat</text>
</a>
</g>
</g>
<!-- Node60119&#45;&gt;Node60120 -->
<g id="edge1" class="edge">
<title>Node60119&#45;&gt;Node60120</title>
<path fill="none" stroke="#191970" d="M46.7825,-350.2477C57.0016,-400.7921 86.781,-533.6339 122,-558.7041 239.6755,-642.4697 303.8336,-577.8767 447,-558.7041 467.5613,-555.9506 490.1227,-549.7305 507.2532,-544.3128"/>
<polygon fill="#191970" stroke="#191970" points="50.1832,-349.4027 44.8057,-340.274 43.3168,-350.7637 50.1832,-349.4027"/>
</g>
<!-- Node60121 -->
<g id="node3" class="node">
<title>Node60121</title>
<g id="a_node3"><a xlink:href="quickjs_8c.html#a68c7842d6b1ef577bc4625aec4ede310" target="_top" xlink:title="js_array_constructor">
<polygon fill="none" stroke="#000000" points="143,-660.2041 143,-679.2041 248,-679.2041 248,-660.2041 143,-660.2041"/>
<text text-anchor="middle" x="195.5" y="-667.2041" font-family="Helvetica,sans-Serif" font-size="10.00" fill="#000000">js_array_constructor</text>
</a>
</g>
</g>
<!-- Node60119&#45;&gt;Node60121 -->
<g id="edge2" class="edge">
<title>Node60119&#45;&gt;Node60121</title>
<path fill="none" stroke="#191970" d="M45.7735,-350.2866C52.8184,-395.455 74.3282,-509.3646 122,-591.7041 138.5014,-620.2055 167.3206,-646.5821 183.536,-660.1473"/>
<polygon fill="#191970" stroke="#191970" points="49.2275,-349.7176 44.287,-340.3452 42.3044,-350.7529 49.2275,-349.7176"/>
</g>
<!-- Node60127 -->
<g id="node6" class="node">
<title>Node60127</title>
<g id="a_node6"><a xlink:href="quickjs_8c.html#a5e32da9a43002cb96dcbd62a1a340144" target="_top" xlink:title="js_array_from">
<polygon fill="none" stroke="#000000" points="633.5,-715.2041 633.5,-734.2041 709.5,-734.2041 709.5,-715.2041 633.5,-715.2041"/>
<text text-anchor="middle" x="671.5" y="-722.2041" font-family="Helvetica,sans-Serif" font-size="10.00" fill="#000000">js_array_from</text>
</a>
</g>
</g>
<!-- Node60119&#45;&gt;Node60127 -->
<g id="edge11" class="edge">
<title>Node60119&#45;&gt;Node60127</title>
<path fill="none" stroke="#191970" d="M45.1005,-350.2091C52.606,-416.8465 79.9133,-634.3528 122,-688.7041 251.0372,-855.3443 385.4507,-843.3275 587,-781.7041 617.4604,-772.3908 646.8614,-747.9944 661.6336,-734.3299"/>
<polygon fill="#191970" stroke="#191970" points="48.574,-349.7751 43.9977,-340.2195 41.6162,-350.5432 48.574,-349.7751"/>
</g>
<!-- Node60131 -->
<g id="node10" class="node">
<title>Node60131</title>
<g id="a_node10"><a xlink:href="quickjs_8c.html#a70b7ec8358ab99b905686d5bf80950cc" target="_top" xlink:title="js_array_slice">
<polygon fill="none" stroke="#000000" points="496.5,-454.2041 496.5,-473.2041 573.5,-473.2041 573.5,-454.2041 496.5,-454.2041"/>
<text text-anchor="middle" x="535" y="-461.2041" font-family="Helvetica,sans-Serif" font-size="10.00" fill="#000000">js_array_slice</text>
</a>
</g>
</g>
<!-- Node60119&#45;&gt;Node60131 -->
<g id="edge19" class="edge">
<title>Node60119&#45;&gt;Node60131</title>
<path fill="none" stroke="#191970" d="M51.2961,-349.4921C63.1162,-373.7276 87.2866,-414.9867 122,-433.7041 245.0755,-500.066 419.5356,-482.9062 496.2553,-470.8316"/>
<polygon fill="#191970" stroke="#191970" points="54.3906,-347.8465 46.9918,-340.2631 48.0467,-350.8053 54.3906,-347.8465"/>
</g>
<!-- Node60132 -->
<g id="node11" class="node">
<title>Node60132</title>
<g id="a_node11"><a xlink:href="quickjs_8c.html#aed64f4c93145310216f62d7548856b8d" target="_top" xlink:title="js_array_of">
<polygon fill="none" stroke="#000000" points="163,-492.2041 163,-511.2041 228,-511.2041 228,-492.2041 163,-492.2041"/>
<text text-anchor="middle" x="195.5" y="-499.2041" font-family="Helvetica,sans-Serif" font-size="10.00" fill="#000000">js_array_of</text>
</a>
</g>
</g>
<!-- Node60119&#45;&gt;Node60132 -->
<g id="edge12" class="edge">
<title>Node60119&#45;&gt;Node60132</title>
<path fill="none" stroke="#191970" d="M48.3465,-350.3319C57.8982,-381.7476 80.8517,-443.2809 122,-477.7041 133.5313,-487.3508 149.0411,-493.1503 162.841,-496.6226"/>
<polygon fill="#191970" stroke="#191970" points="51.663,-349.2011 45.519,-340.5696 44.9393,-351.1485 51.663,-349.2011"/>
</g>
<!-- Node60133 -->
<g id="node12" class="node">
<title>Node60133</title>
<g id="a_node12"><a xlink:href="quickjs_8c.html#a01281ea66186a034a0e9021ee8c9f945" target="_top" xlink:title="js_array_pop">
<polygon fill="none" stroke="#000000" points="340,-154.2041 340,-173.2041 412,-173.2041 412,-154.2041 340,-154.2041"/>
<text text-anchor="middle" x="376" y="-161.2041" font-family="Helvetica,sans-Serif" font-size="10.00" fill="#000000">js_array_pop</text>
</a>
</g>
</g>
<!-- Node60119&#45;&gt;Node60133 -->
<g id="edge13" class="edge">
<title>Node60119&#45;&gt;Node60133</title>
<path fill="none" stroke="#191970" d="M46.7491,-311.0276C54.325,-277.3226 74.9189,-209.2305 122,-178.7041 188.7168,-135.4463 287.1868,-145.604 339.7733,-155.4477"/>
<polygon fill="#191970" stroke="#191970" points="43.2773,-310.5315 44.6596,-321.0358 50.1296,-311.9622 43.2773,-310.5315"/>
</g>
<!-- Node60137 -->
<g id="node15" class="node">
<title>Node60137</title>
<g id="a_node15"><a xlink:href="quickjs_8c.html#a3d640b89712ebda808c0c3eca9849674" target="_top" xlink:title="js_array_push">
<polygon fill="none" stroke="#000000" points="337.5,-273.2041 337.5,-292.2041 414.5,-292.2041 414.5,-273.2041 337.5,-273.2041"/>
<text text-anchor="middle" x="376" y="-280.2041" font-family="Helvetica,sans-Serif" font-size="10.00" fill="#000000">js_array_push</text>
</a>
</g>
</g>
<!-- Node60119&#45;&gt;Node60137 -->
<g id="edge17" class="edge">
<title>Node60119&#45;&gt;Node60137</title>
<path fill="none" stroke="#191970" d="M55.0233,-312.8798C68.7288,-294.3264 93.025,-266.3788 122,-254.7041 202.2419,-222.3729 307.615,-255.5423 353.2759,-273.1853"/>
<polygon fill="#191970" stroke="#191970" points="52.1075,-310.9408 49.1718,-321.1208 57.8151,-314.9935 52.1075,-310.9408"/>
</g>
<!-- Node60138 -->
<g id="node16" class="node">
<title>Node60138</title>
<g id="a_node16"><a xlink:href="quickjs_8c.html#a3b754d750c7f3123e85f4a2e748de023" target="_top" xlink:title="JS_CopyDataProperties">
<polygon fill="none" stroke="#000000" points="134.5,-530.2041 134.5,-549.2041 256.5,-549.2041 256.5,-530.2041 134.5,-530.2041"/>
<text text-anchor="middle" x="195.5" y="-537.2041" font-family="Helvetica,sans-Serif" font-size="10.00" fill="#000000">JS_CopyDataProperties</text>
</a>
</g>
</g>
<!-- Node60119&#45;&gt;Node60138 -->
<g id="edge20" class="edge">
<title>Node60119&#45;&gt;Node60138</title>
<path fill="none" stroke="#191970" d="M45.378,-350.2829C51.1349,-388.902 69.4538,-475.0933 122,-520.7041 126.479,-524.5919 131.6544,-527.7 137.143,-530.1823"/>
<polygon fill="#191970" stroke="#191970" points="48.8388,-349.7571 44.0196,-340.3218 41.903,-350.7031 48.8388,-349.7571"/>
</g>
<!-- Node60659 -->
<g id="node21" class="node">
<title>Node60659</title>
<g id="a_node21"><a xlink:href="quickjs_8c.html#af55de7fe1d3513a7230dfbfc1cbeec62" target="_top" xlink:title="js_regexp_compile">
<polygon fill="none" stroke="#000000" points="146.5,-340.2041 146.5,-359.2041 244.5,-359.2041 244.5,-340.2041 146.5,-340.2041"/>
<text text-anchor="middle" x="195.5" y="-347.2041" font-family="Helvetica,sans-Serif" font-size="10.00" fill="#000000">js_regexp_compile</text>
</a>
</g>
</g>
<!-- Node60119&#45;&gt;Node60659 -->
<g id="edge29" class="edge">
<title>Node60119&#45;&gt;Node60659</title>
<path fill="none" stroke="#191970" d="M96.2253,-337.3354C112.5493,-339.3692 130.4269,-341.5966 146.4579,-343.5939"/>
<polygon fill="#191970" stroke="#191970" points="96.6485,-333.8612 86.2925,-336.0979 95.783,-340.8075 96.6485,-333.8612"/>
</g>
<!-- Node60334 -->
<g id="node22" class="node">
<title>Node60334</title>
<g id="a_node22"><a xlink:href="quickjs_8c.html#a9eb2d90f27f684820f9de13189502b7c" target="_top" xlink:title="js_regexp_exec">
<polygon fill="none" stroke="#ff0000" points="153,-302.2041 153,-321.2041 238,-321.2041 238,-302.2041 153,-302.2041"/>
<text text-anchor="middle" x="195.5" y="-309.2041" font-family="Helvetica,sans-Serif" font-size="10.00" fill="#000000">js_regexp_exec</text>
</a>
</g>
</g>
<!-- Node60119&#45;&gt;Node60334 -->
<g id="edge30" class="edge">
<title>Node60119&#45;&gt;Node60334</title>
<path fill="none" stroke="#191970" d="M96.3424,-324.0581C114.8569,-321.7514 135.3576,-319.1972 152.8904,-317.0128"/>
<polygon fill="#191970" stroke="#191970" points="95.783,-320.6007 86.2925,-325.3103 96.6485,-327.547 95.783,-320.6007"/>
</g>
<!-- Node60337 -->
<g id="node23" class="node">
<title>Node60337</title>
<g id="a_node23"><a xlink:href="quickjs_8c.html#aeb6df5fcffc6fecfac1e9b0d709e99c5" target="_top" xlink:title="js_regexp_string_iterator_next">
<polygon fill="none" stroke="#000000" points="122,-264.2041 122,-283.2041 269,-283.2041 269,-264.2041 122,-264.2041"/>
<text text-anchor="middle" x="195.5" y="-271.2041" font-family="Helvetica,sans-Serif" font-size="10.00" fill="#000000">js_regexp_string_iterator_next</text>
</a>
</g>
</g>
<!-- Node60119&#45;&gt;Node60337 -->
<g id="edge31" class="edge">
<title>Node60119&#45;&gt;Node60337</title>
<path fill="none" stroke="#191970" d="M69.67,-316.264C84.7231,-308.5272 104.0607,-299.2657 122,-292.7041 131.7785,-289.1274 142.5213,-285.9488 152.7019,-283.2633"/>
<polygon fill="#191970" stroke="#191970" points="67.6933,-313.348 60.4545,-321.0843 70.9377,-319.5507 67.6933,-313.348"/>
</g>
<!-- Node60338 -->
<g id="node24" class="node">
<title>Node60338</title>
<g id="a_node24"><a xlink:href="quickjs_8c.html#a41fc4304b39616e7be3500fe6ec881c2" target="_top" xlink:title="js_regexp_Symbol_match">
<polygon fill="none" stroke="#000000" points="311.5,-416.2041 311.5,-435.2041 440.5,-435.2041 440.5,-416.2041 311.5,-416.2041"/>
<text text-anchor="middle" x="376" y="-423.2041" font-family="Helvetica,sans-Serif" font-size="10.00" fill="#000000">js_regexp_Symbol_match</text>
</a>
</g>
</g>
<!-- Node60119&#45;&gt;Node60338 -->
<g id="edge32" class="edge">
<title>Node60119&#45;&gt;Node60338</title>
<path fill="none" stroke="#191970" d="M55.4179,-348.4004C69.3118,-366.6006 93.6302,-394.0228 122,-406.7041 182.1525,-433.5921 258.3288,-435.6173 311.499,-432.6129"/>
<polygon fill="#191970" stroke="#191970" points="58.21,-346.2893 49.4626,-340.3115 52.5729,-350.4395 58.21,-346.2893"/>
</g>
<!-- Node60232 -->
<g id="node25" class="node">
<title>Node60232</title>
<g id="a_node25"><a xlink:href="quickjs_8c.html#ace9b3fda4db2506ca054f0c7aaf41880" target="_top" xlink:title="js_regexp_Symbol_matchAll">
<polygon fill="none" stroke="#000000" points="125.5,-188.2041 125.5,-207.2041 265.5,-207.2041 265.5,-188.2041 125.5,-188.2041"/>
<text text-anchor="middle" x="195.5" y="-195.2041" font-family="Helvetica,sans-Serif" font-size="10.00" fill="#000000">js_regexp_Symbol_matchAll</text>
</a>
</g>
</g>
<!-- Node60119&#45;&gt;Node60232 -->
<g id="edge33" class="edge">
<title>Node60119&#45;&gt;Node60232</title>
<path fill="none" stroke="#191970" d="M51.9801,-311.7411C64.4124,-287.4597 89.1083,-245.6671 122,-221.7041 130.5711,-215.4597 140.8516,-210.7837 150.9703,-207.3028"/>
<polygon fill="#191970" stroke="#191970" points="48.7106,-310.457 47.4147,-320.9723 54.9851,-313.5602 48.7106,-310.457"/>
</g>
<!-- Node60174 -->
<g id="node26" class="node">
<title>Node60174</title>
<g id="a_node26"><a xlink:href="quickjs_8c.html#a6a77bcdb9f7f18c13c108c99a198708b" target="_top" xlink:title="js_regexp_Symbol_replace">
<polygon fill="none" stroke="#000000" points="309,-36.2041 309,-55.2041 443,-55.2041 443,-36.2041 309,-36.2041"/>
<text text-anchor="middle" x="376" y="-43.2041" font-family="Helvetica,sans-Serif" font-size="10.00" fill="#000000">js_regexp_Symbol_replace</text>
</a>
</g>
</g>
<!-- Node60119&#45;&gt;Node60174 -->
<g id="edge34" class="edge">
<title>Node60119&#45;&gt;Node60174</title>
<path fill="none" stroke="#191970" d="M45.0275,-311.0601C51.8253,-249.4922 76.0104,-62.27 122,-26.7041 192.4857,27.8057 309.3749,-15.2661 355.9496,-36.0758"/>
<polygon fill="#191970" stroke="#191970" points="41.5448,-310.713 43.9592,-321.029 48.5049,-311.4589 41.5448,-310.713"/>
</g>
<!-- Node60339 -->
<g id="node27" class="node">
<title>Node60339</title>
<g id="a_node27"><a xlink:href="quickjs_8c.html#af315d0f35b4b11e5957b904c98bf1c0d" target="_top" xlink:title="js_regexp_Symbol_search">
<polygon fill="none" stroke="#000000" points="130,-112.2041 130,-131.2041 261,-131.2041 261,-112.2041 130,-112.2041"/>
<text text-anchor="middle" x="195.5" y="-119.2041" font-family="Helvetica,sans-Serif" font-size="10.00" fill="#000000">js_regexp_Symbol_search</text>
</a>
</g>
</g>
<!-- Node60119&#45;&gt;Node60339 -->
<g id="edge35" class="edge">
<title>Node60119&#45;&gt;Node60339</title>
<path fill="none" stroke="#191970" d="M45.9634,-310.8951C52.625,-273.284 72.2811,-191.2308 122,-145.7041 128.93,-139.3584 137.5656,-134.6886 146.4559,-131.2526"/>
<polygon fill="#191970" stroke="#191970" points="42.4624,-310.6158 44.2943,-321.0511 49.3697,-311.7511 42.4624,-310.6158"/>
</g>
<!-- Node60233 -->
<g id="node28" class="node">
<title>Node60233</title>
<g id="a_node28"><a xlink:href="quickjs_8c.html#a79872a6d9d139e36d5d1894d16132024" target="_top" xlink:title="js_regexp_Symbol_split">
<polygon fill="none" stroke="#000000" points="316,-221.2041 316,-240.2041 436,-240.2041 436,-221.2041 316,-221.2041"/>
<text text-anchor="middle" x="376" y="-228.2041" font-family="Helvetica,sans-Serif" font-size="10.00" fill="#000000">js_regexp_Symbol_split</text>
</a>
</g>
</g>
<!-- Node60119&#45;&gt;Node60233 -->
<g id="edge36" class="edge">
<title>Node60119&#45;&gt;Node60233</title>
<path fill="none" stroke="#191970" d="M46.7825,-311.1605C57.0016,-260.6161 86.781,-127.7743 122,-102.7041 175.2255,-64.8163 214.1362,-67.23 269,-102.7041 301.7417,-123.8744 279.8944,-152.8728 305,-182.7041 319.0835,-199.4386 340.4036,-212.7815 356.0058,-221.11"/>
<polygon fill="#191970" stroke="#191970" points="43.3168,-310.6445 44.8057,-321.1342 50.1832,-312.0055 43.3168,-310.6445"/>
</g>
<!-- Node60526 -->
<g id="node29" class="node">
<title>Node60526</title>
<g id="a_node29"><a xlink:href="quickjs_8c.html#a14fa3c10f581e1cd38b349913f47fb43" target="_top" xlink:title="JS_RegExpDelete">
<polygon fill="none" stroke="#000000" points="146.5,-36.2041 146.5,-55.2041 244.5,-55.2041 244.5,-36.2041 146.5,-36.2041"/>
<text text-anchor="middle" x="195.5" y="-43.2041" font-family="Helvetica,sans-Serif" font-size="10.00" fill="#000000">JS_RegExpDelete</text>
</a>
</g>
</g>
<!-- Node60119&#45;&gt;Node60526 -->
<g id="edge37" class="edge">
<title>Node60119&#45;&gt;Node60526</title>
<path fill="none" stroke="#191970" d="M46.5617,-310.8497C56.7405,-256.154 87.4554,-105.0065 122,-69.7041 128.6657,-62.8922 137.2876,-58.0127 146.2679,-54.5177"/>
<polygon fill="#191970" stroke="#191970" points="43.0651,-310.514 44.7074,-320.9808 49.9507,-311.7744 43.0651,-310.514"/>
</g>
<!-- Node60435 -->
<g id="node30" class="node">
<title>Node60435</title>
<g id="a_node30"><a xlink:href="quickjs_8c.html#a51b06daa618640e531fe808770553b96" target="_top" xlink:title="JS_SetPropertyInt64">
<polygon fill="none" stroke="#ff0000" points="142,-378.2041 142,-397.2041 249,-397.2041 249,-378.2041 142,-378.2041"/>
<text text-anchor="middle" x="195.5" y="-385.2041" font-family="Helvetica,sans-Serif" font-size="10.00" fill="#000000">JS_SetPropertyInt64</text>
</a>
</g>
</g>
<!-- Node60119&#45;&gt;Node60435 -->
<g id="edge39" class="edge">
<title>Node60119&#45;&gt;Node60435</title>
<path fill="none" stroke="#191970" d="M69.67,-345.1442C84.7231,-352.881 104.0607,-362.1424 122,-368.7041 131.7785,-372.2808 142.5213,-375.4593 152.7019,-378.1449"/>
<polygon fill="#191970" stroke="#191970" points="70.9377,-341.8574 60.4545,-340.3238 67.6933,-348.0602 70.9377,-341.8574"/>
</g>
<!-- Node60122 -->
<g id="node4" class="node">
<title>Node60122</title>
<g id="a_node4"><a xlink:href="quickjs_8c.html#a4c9489297c684663f30e517204a9ec14" target="_top" xlink:title="JS_AddIntrinsicBaseObjects">
<polygon fill="none" stroke="#000000" points="305,-753.2041 305,-772.2041 447,-772.2041 447,-753.2041 305,-753.2041"/>
<text text-anchor="middle" x="376" y="-760.2041" font-family="Helvetica,sans-Serif" font-size="10.00" fill="#000000">JS_AddIntrinsicBaseObjects</text>
</a>
</g>
</g>
<!-- Node60121&#45;&gt;Node60122 -->
<g id="edge3" class="edge">
<title>Node60121&#45;&gt;Node60122</title>
<path fill="none" stroke="#191970" d="M216.7529,-685.2327C238.2034,-700.3817 272.6882,-723.3291 305,-738.7041 316.8668,-744.3507 330.4214,-749.2775 342.485,-753.1735"/>
<polygon fill="#191970" stroke="#191970" points="218.5727,-682.2313 208.4022,-679.2626 214.5015,-687.9257 218.5727,-682.2313"/>
</g>
<!-- Node60121&#45;&gt;Node60127 -->
<g id="edge5" class="edge">
<title>Node60121&#45;&gt;Node60127</title>
<path fill="none" stroke="#191970" d="M232.8199,-682.3805C253.7844,-688.9648 280.5705,-696.4945 305,-700.7041 423.608,-721.1419 566.5516,-724.4888 633.4678,-724.8368"/>
<polygon fill="#191970" stroke="#191970" points="233.6228,-678.9626 223.0317,-679.2429 231.486,-685.6285 233.6228,-678.9626"/>
</g>
<!-- Node60128 -->
<g id="node7" class="node">
<title>Node60128</title>
<g id="a_node7"><a xlink:href="quickjs_8c.html#a3b818b1ca9d2d4aaa9b55b1cc54c1bc4" target="_top" xlink:title="JS_ArraySpeciesCreate">
<polygon fill="none" stroke="#000000" points="315,-606.2041 315,-625.2041 437,-625.2041 437,-606.2041 315,-606.2041"/>
<text text-anchor="middle" x="376" y="-613.2041" font-family="Helvetica,sans-Serif" font-size="10.00" fill="#000000">JS_ArraySpeciesCreate</text>
</a>
</g>
</g>
<!-- Node60121&#45;&gt;Node60128 -->
<g id="edge6" class="edge">
<title>Node60121&#45;&gt;Node60128</title>
<path fill="none" stroke="#191970" d="M237.0535,-657.2726C269.6548,-647.5193 314.3576,-634.1456 344.1611,-625.2293"/>
<polygon fill="#191970" stroke="#191970" points="235.9316,-653.9549 227.3543,-660.1743 237.9379,-660.6612 235.9316,-653.9549"/>
</g>
<!-- Node60123 -->
<g id="node5" class="node">
<title>Node60123</title>
<g id="a_node5"><a xlink:href="quickjs_8c.html#ad8aedb643b8753b7a15f6cb2df61945e" target="_top" xlink:title="JS_NewContext">
<polygon fill="none" stroke="#ff0000" points="490.5,-753.2041 490.5,-772.2041 579.5,-772.2041 579.5,-753.2041 490.5,-753.2041"/>
<text text-anchor="middle" x="535" y="-760.2041" font-family="Helvetica,sans-Serif" font-size="10.00" fill="#000000">JS_NewContext</text>
</a>
</g>
</g>
<!-- Node60122&#45;&gt;Node60123 -->
<g id="edge4" class="edge">
<title>Node60122&#45;&gt;Node60123</title>
<path fill="none" stroke="#191970" d="M457.1684,-762.7041C468.6061,-762.7041 479.9977,-762.7041 490.3957,-762.7041"/>
<polygon fill="#191970" stroke="#191970" points="457.1291,-759.2042 447.1291,-762.7041 457.129,-766.2042 457.1291,-759.2042"/>
</g>
<!-- Node60128&#45;&gt;Node60120 -->
<g id="edge7" class="edge">
<title>Node60128&#45;&gt;Node60120</title>
<path fill="none" stroke="#191970" d="M423.2826,-602.8059C431.4572,-599.7201 439.6743,-596.0354 447,-591.7041 465.6837,-580.6574 464.9303,-570.729 483,-558.7041 491.4431,-553.0854 501.4133,-548.134 510.3532,-544.2102"/>
<polygon fill="#191970" stroke="#191970" points="422.0329,-599.5352 413.7616,-606.1561 424.3564,-606.1383 422.0329,-599.5352"/>
</g>
<!-- Node60129 -->
<g id="node8" class="node">
<title>Node60129</title>
<g id="a_node8"><a xlink:href="quickjs_8c.html#aa0bbf08a7e91459c68a312fba7016c6d" target="_top" xlink:title="js_array_every">
<polygon fill="none" stroke="#000000" points="631.5,-620.2041 631.5,-639.2041 711.5,-639.2041 711.5,-620.2041 631.5,-620.2041"/>
<text text-anchor="middle" x="671.5" y="-627.2041" font-family="Helvetica,sans-Serif" font-size="10.00" fill="#000000">js_array_every</text>
</a>
</g>
</g>
<!-- Node60128&#45;&gt;Node60129 -->
<g id="edge8" class="edge">
<title>Node60128&#45;&gt;Node60129</title>
<path fill="none" stroke="#191970" d="M416.0925,-603.5002C458.8199,-592.2662 528.2641,-579.1049 587,-591.7041 612.3213,-597.1357 639.2149,-610.7652 655.6879,-620.1329"/>
<polygon fill="#191970" stroke="#191970" points="415.0811,-600.148 406.3507,-606.1506 416.9188,-606.9025 415.0811,-600.148"/>
</g>
<!-- Node60130 -->
<g id="node9" class="node">
<title>Node60130</title>
<g id="a_node9"><a xlink:href="quickjs_8c.html#a12e173fe76ae1141ef47318f9d0cbea7" target="_top" xlink:title="js_array_flatten">
<polygon fill="none" stroke="#000000" points="493.5,-601.2041 493.5,-620.2041 576.5,-620.2041 576.5,-601.2041 493.5,-601.2041"/>
<text text-anchor="middle" x="535" y="-608.2041" font-family="Helvetica,sans-Serif" font-size="10.00" fill="#000000">js_array_flatten</text>
</a>
</g>
</g>
<!-- Node60128&#45;&gt;Node60130 -->
<g id="edge9" class="edge">
<title>Node60128&#45;&gt;Node60130</title>
<path fill="none" stroke="#191970" d="M447.236,-613.464C462.9185,-612.9708 479.0346,-612.464 493.1077,-612.0215"/>
<polygon fill="#191970" stroke="#191970" points="446.9038,-609.9726 437.0188,-613.7853 447.1239,-616.9691 446.9038,-609.9726"/>
</g>
<!-- Node60128&#45;&gt;Node60131 -->
<g id="edge10" class="edge">
<title>Node60128&#45;&gt;Node60131</title>
<path fill="none" stroke="#191970" d="M397.8486,-599.9429C412.3852,-589.0376 431.5709,-573.8191 447,-558.7041 464.8046,-541.2619 466.1714,-534.0898 483,-515.7041 496.9647,-500.4473 514.0788,-483.6764 524.7642,-473.4173"/>
<polygon fill="#191970" stroke="#191970" points="395.4329,-597.3763 389.4735,-606.1362 399.5949,-603.0046 395.4329,-597.3763"/>
</g>
<!-- Node60134 -->
<g id="node13" class="node">
<title>Node60134</title>
<g id="a_node13"><a xlink:href="quickjs_8c.html#a60d84dd116a9d7d912d08f298a4734dd" target="_top" xlink:title="js_json_to_str">
<polygon fill="none" stroke="#000000" points="496.5,-273.2041 496.5,-292.2041 573.5,-292.2041 573.5,-273.2041 496.5,-273.2041"/>
<text text-anchor="middle" x="535" y="-280.2041" font-family="Helvetica,sans-Serif" font-size="10.00" fill="#000000">js_json_to_str</text>
</a>
</g>
</g>
<!-- Node60133&#45;&gt;Node60134 -->
<g id="edge14" class="edge">
<title>Node60133&#45;&gt;Node60134</title>
<path fill="none" stroke="#191970" d="M399.4915,-178.8674C413.4896,-188.0794 431.4938,-200.2389 447,-211.7041 475.4117,-232.7115 507.3753,-259.2786 523.8496,-273.2013"/>
<polygon fill="#191970" stroke="#191970" points="401.2232,-175.818 390.9377,-173.2764 397.3933,-181.6774 401.2232,-175.818"/>
</g>
<!-- Node60134&#45;&gt;Node60134 -->
<g id="edge15" class="edge">
<title>Node60134&#45;&gt;Node60134</title>
<path fill="none" stroke="#191970" d="M509.7025,-301.7333C511.0824,-306.8321 519.5149,-310.7041 535,-310.7041 559.1719,-310.7041 566.1591,-301.2694 555.9615,-292.4611"/>
<polygon fill="#191970" stroke="#191970" points="512.9728,-303.0023 514.0385,-292.4611 506.6319,-300.037 512.9728,-303.0023"/>
</g>
<!-- Node60135 -->
<g id="node14" class="node">
<title>Node60135</title>
<g id="a_node14"><a xlink:href="quickjs_8c.html#a343a343b16bc3c9875050e99ee0d2884" target="_top" xlink:title="JS_JSONStringify">
<polygon fill="none" stroke="#ff0000" points="623,-305.2041 623,-324.2041 720,-324.2041 720,-305.2041 623,-305.2041"/>
<text text-anchor="middle" x="671.5" y="-312.2041" font-family="Helvetica,sans-Serif" font-size="10.00" fill="#000000">JS_JSONStringify</text>
</a>
</g>
</g>
<!-- Node60134&#45;&gt;Node60135 -->
<g id="edge16" class="edge">
<title>Node60134&#45;&gt;Node60135</title>
<path fill="none" stroke="#191970" d="M583.6371,-294.1062C599.0586,-297.7215 615.94,-301.679 630.7477,-305.1504"/>
<polygon fill="#191970" stroke="#191970" points="584.2852,-290.6633 573.7503,-291.7884 582.6875,-297.4785 584.2852,-290.6633"/>
</g>
<!-- Node60137&#45;&gt;Node60134 -->
<g id="edge18" class="edge">
<title>Node60137&#45;&gt;Node60134</title>
<path fill="none" stroke="#191970" d="M425.0951,-282.7041C447.9727,-282.7041 474.8053,-282.7041 496.2305,-282.7041"/>
<polygon fill="#191970" stroke="#191970" points="424.8958,-279.2042 414.8958,-282.7041 424.8957,-286.2042 424.8958,-279.2042"/>
</g>
<!-- Node60139 -->
<g id="node17" class="node">
<title>Node60139</title>
<g id="a_node17"><a xlink:href="quickjs_8c.html#ac2894ff4edcdb4e6841bcce9c76081e3" target="_top" xlink:title="JS_CallInternal">
<polygon fill="none" stroke="#ff0000" points="334.5,-654.2041 334.5,-673.2041 417.5,-673.2041 417.5,-654.2041 334.5,-654.2041"/>
<text text-anchor="middle" x="376" y="-661.2041" font-family="Helvetica,sans-Serif" font-size="10.00" fill="#000000">JS_CallInternal</text>
</a>
</g>
</g>
<!-- Node60138&#45;&gt;Node60139 -->
<g id="edge21" class="edge">
<title>Node60138&#45;&gt;Node60139</title>
<path fill="none" stroke="#191970" d="M211.4791,-556.6186C231.6829,-577.2416 268.2799,-612.1306 305,-634.7041 317.9311,-642.6534 333.4249,-649.2736 346.6348,-654.1722"/>
<polygon fill="#191970" stroke="#191970" points="213.8018,-553.9853 204.338,-549.2223 208.7659,-558.8475 213.8018,-553.9853"/>
</g>
<!-- Node60422 -->
<g id="node20" class="node">
<title>Node60422</title>
<g id="a_node20"><a xlink:href="quickjs_8c.html#ae69502aeeec991fb0bf5a9657aaa7453" target="_top" xlink:title="js_object_assign">
<polygon fill="none" stroke="#000000" points="331.5,-530.2041 331.5,-549.2041 420.5,-549.2041 420.5,-530.2041 331.5,-530.2041"/>
<text text-anchor="middle" x="376" y="-537.2041" font-family="Helvetica,sans-Serif" font-size="10.00" fill="#000000">js_object_assign</text>
</a>
</g>
</g>
<!-- Node60138&#45;&gt;Node60422 -->
<g id="edge28" class="edge">
<title>Node60138&#45;&gt;Node60422</title>
<path fill="none" stroke="#191970" d="M266.8358,-539.7041C288.6505,-539.7041 312.0089,-539.7041 331.4978,-539.7041"/>
<polygon fill="#191970" stroke="#191970" points="266.6091,-536.2042 256.6091,-539.7041 266.609,-543.2042 266.6091,-536.2042"/>
</g>
<!-- Node60139&#45;&gt;Node60139 -->
<g id="edge27" class="edge">
<title>Node60139&#45;&gt;Node60139</title>
<path fill="none" stroke="#191970" d="M346.5076,-682.358C347.7404,-687.6409 357.5712,-691.7041 376,-691.7041 404.082,-691.7041 412.1995,-682.2694 400.3524,-673.4611"/>
<polygon fill="#191970" stroke="#191970" points="349.6757,-683.8709 351.6476,-673.4611 343.6145,-680.3691 349.6757,-683.8709"/>
</g>
<!-- Node60140 -->
<g id="node18" class="node">
<title>Node60140</title>
<g id="a_node18"><a xlink:href="quickjs_8c.html#ade71a22dc56e7371392393df663b28b3" target="_top" xlink:title="async_func_resume">
<polygon fill="none" stroke="#ff0000" points="483,-639.2041 483,-658.2041 587,-658.2041 587,-639.2041 483,-639.2041"/>
<text text-anchor="middle" x="535" y="-646.2041" font-family="Helvetica,sans-Serif" font-size="10.00" fill="#000000">async_func_resume</text>
</a>
</g>
</g>
<!-- Node60139&#45;&gt;Node60140 -->
<g id="edge22" class="edge">
<title>Node60139&#45;&gt;Node60140</title>
<path fill="none" stroke="#191970" d="M427.9048,-658.8074C445.5693,-657.1409 465.3089,-655.2787 482.9822,-653.6114"/>
<polygon fill="#191970" stroke="#191970" points="427.4024,-655.3392 417.7754,-659.763 428.0599,-662.3082 427.4024,-655.3392"/>
</g>
<!-- Node60155 -->
<g id="node19" class="node">
<title>Node60155</title>
<g id="a_node19"><a xlink:href="quickjs_8c.html#a1a4c02a29525d5cb2085dd8bca3af350" target="_top" xlink:title="JS_Call">
<polygon fill="none" stroke="#ff0000" points="509.5,-677.2041 509.5,-696.2041 560.5,-696.2041 560.5,-677.2041 509.5,-677.2041"/>
<text text-anchor="middle" x="535" y="-684.2041" font-family="Helvetica,sans-Serif" font-size="10.00" fill="#000000">JS_Call</text>
</a>
</g>
</g>
<!-- Node60139&#45;&gt;Node60155 -->
<g id="edge23" class="edge">
<title>Node60139&#45;&gt;Node60155</title>
<path fill="none" stroke="#191970" d="M427.9619,-664.8442C455.2548,-668.0227 487.4883,-673.1046 509.3987,-677.8819"/>
<polygon fill="#191970" stroke="#191970" points="428.0981,-661.3382 417.7754,-663.7238 427.3328,-668.2962 428.0981,-661.3382"/>
</g>
<!-- Node60155&#45;&gt;Node60127 -->
<g id="edge25" class="edge">
<title>Node60155&#45;&gt;Node60127</title>
<path fill="none" stroke="#191970" d="M570.3135,-696.535C590.9048,-702.2673 616.7573,-709.4644 637.1764,-715.1488"/>
<polygon fill="#191970" stroke="#191970" points="571.247,-693.1618 560.6746,-693.8516 569.3696,-699.9054 571.247,-693.1618"/>
</g>
<!-- Node60155&#45;&gt;Node60129 -->
<g id="edge24" class="edge">
<title>Node60155&#45;&gt;Node60129</title>
<path fill="none" stroke="#191970" d="M569.9573,-674.3251C575.6793,-672.1861 581.5249,-669.9321 587,-667.7041 609.1995,-658.6706 634.1826,-647.2798 651.1888,-639.3359"/>
<polygon fill="#191970" stroke="#191970" points="568.7089,-671.055 560.5314,-677.7914 571.1249,-677.6248 568.7089,-671.055"/>
</g>
<!-- Node60155&#45;&gt;Node60139 -->
<g id="edge26" class="edge">
<title>Node60155&#45;&gt;Node60139</title>
<path fill="none" stroke="#191970" d="M499.3418,-687.2852C470.8166,-684.6286 431.3348,-678.7844 404.7937,-673.2093"/>
<polygon fill="#191970" stroke="#191970" points="499.0556,-690.7734 509.311,-688.1134 499.6351,-683.7975 499.0556,-690.7734"/>
</g>
<!-- Node60526&#45;&gt;Node60174 -->
<g id="edge38" class="edge">
<title>Node60526&#45;&gt;Node60174</title>
<path fill="none" stroke="#191970" d="M255.2619,-45.7041C272.4158,-45.7041 291.2349,-45.7041 308.8045,-45.7041"/>
<polygon fill="#191970" stroke="#191970" points="254.8225,-42.2042 244.8224,-45.7041 254.8224,-49.2042 254.8225,-42.2042"/>
</g>
<!-- Node60435&#45;&gt;Node60131 -->
<g id="edge41" class="edge">
<title>Node60435&#45;&gt;Node60131</title>
<path fill="none" stroke="#191970" d="M259.0961,-383.9466C311,-382.8841 385.5368,-385.9881 447,-406.7041 477.8762,-417.1108 508.5978,-440.8321 524.2854,-454.1604"/>
<polygon fill="#191970" stroke="#191970" points="258.9324,-380.4496 249.0276,-384.2107 259.116,-387.4472 258.9324,-380.4496"/>
</g>
<!-- Node60435&#45;&gt;Node60135 -->
<g id="edge42" class="edge">
<title>Node60435&#45;&gt;Node60135</title>
<path fill="none" stroke="#191970" d="M259.072,-377.9546C355.3256,-363.193 535.9871,-335.4865 622.6675,-322.1931"/>
<polygon fill="#191970" stroke="#191970" points="258.5318,-374.4964 249.178,-379.472 259.593,-381.4155 258.5318,-374.4964"/>
</g>
<!-- Node60435&#45;&gt;Node60137 -->
<g id="edge40" class="edge">
<title>Node60435&#45;&gt;Node60137</title>
<path fill="none" stroke="#191970" d="M257.537,-374.5565C261.5269,-372.8378 265.3874,-370.8965 269,-368.7041 289.4467,-356.2951 286.8064,-344.2296 305,-328.7041 321.8703,-314.3079 343.5409,-300.8906 358.4796,-292.306"/>
<polygon fill="#191970" stroke="#191970" points="256.1445,-371.3416 248.0489,-378.1761 258.6396,-377.8819 256.1445,-371.3416"/>
</g>
<!-- Node60435&#45;&gt;Node60338 -->
<g id="edge43" class="edge">
<title>Node60435&#45;&gt;Node60338</title>
<path fill="none" stroke="#191970" d="M250.9847,-399.3851C276.582,-404.774 306.5838,-411.0901 330.7798,-416.184"/>
<polygon fill="#191970" stroke="#191970" points="251.5543,-395.9283 241.0478,-397.2931 250.1122,-402.7782 251.5543,-395.9283"/>
</g>
<!-- Node60435&#45;&gt;Node60174 -->
<g id="edge44" class="edge">
<title>Node60435&#45;&gt;Node60174</title>
<path fill="none" stroke="#191970" d="M258.2205,-377.3518C262.2089,-374.9913 265.8708,-372.1409 269,-368.7041 336.8855,-294.1463 266.5941,-237.9365 305,-144.7041 320.0647,-108.1337 351.0053,-72.1655 366.5898,-55.4331"/>
<polygon fill="#191970" stroke="#191970" points="256.5356,-374.2785 249.0476,-381.774 259.5754,-380.5841 256.5356,-374.2785"/>
</g>
<!-- Node60435&#45;&gt;Node60233 -->
<g id="edge45" class="edge">
<title>Node60435&#45;&gt;Node60233</title>
<path fill="none" stroke="#191970" d="M258.515,-376.2223C262.2991,-374.1096 265.8442,-371.6248 269,-368.7041 305.2063,-335.1947 271.9908,-300.367 305,-263.7041 314.7316,-252.8953 328.7318,-245.3569 341.7321,-240.2434"/>
<polygon fill="#191970" stroke="#191970" points="256.9083,-373.1096 249.3229,-380.5063 259.8654,-379.4544 256.9083,-373.1096"/>
</g>
</g>
</svg>
        <g id="navigator" transform="translate(0 0)" fill="#404254">
                <rect fill="#f2f5e9" fill-opacity="0.5" stroke="#606060" stroke-width=".5" x="0" y="0" width="60" height="60"/>
                <use id="zoomplus" xlink:href="#zoomPlus" x="17" y="9" onmousedown="handleZoom(evt,'in')"/>
                <use id="zoomminus" xlink:href="#zoomMin" x="42" y="9" onmousedown="handleZoom(evt,'out')"/>
                <use id="reset" xlink:href="#resetDef" x="30" y="36" onmousedown="handleReset()"/>
                <g id="arrowUp" xlink:href="#dirArrow" transform="translate(30 24)" onmousedown="handlePan(0,-1)">
                  <use xlink:href="#rim" fill="#404040">
                        <set attributeName="fill" to="#808080" begin="arrowUp.mouseover" end="arrowUp.mouseout"/>
                  </use>
                  <path fill="none" stroke="white" stroke-width="1.5" d="M0,-3.0v7 M-2.5,-0.5L0,-3.0L2.5,-0.5"/>
                </g>
                <g id="arrowRight" xlink:href="#dirArrow" transform="rotate(90) translate(36 -43)" onmousedown="handlePan(1,0)">
                  <use xlink:href="#rim" fill="#404040">
                        <set attributeName="fill" to="#808080" begin="arrowRight.mouseover" end="arrowRight.mouseout"/>
                  </use>
                  <path fill="none" stroke="white" stroke-width="1.5" d="M0,-3.0v7 M-2.5,-0.5L0,-3.0L2.5,-0.5"/>
                </g>
                <g id="arrowDown" xlink:href="#dirArrow" transform="rotate(180) translate(-30 -48)" onmousedown="handlePan(0,1)">
                  <use xlink:href="#rim" fill="#404040">
                        <set attributeName="fill" to="#808080" begin="arrowDown.mouseover" end="arrowDown.mouseout"/>
                  </use>
                  <path fill="none" stroke="white" stroke-width="1.5" d="M0,-3.0v7 M-2.5,-0.5L0,-3.0L2.5,-0.5"/>
                </g>
                <g id="arrowLeft" xlink:href="#dirArrow" transform="rotate(270) translate(-36 17)" onmousedown="handlePan(-1,0)">
                  <use xlink:href="#rim" fill="#404040">
                        <set attributeName="fill" to="#808080" begin="arrowLeft.mouseover" end="arrowLeft.mouseout"/>
                  </use>
                  <path fill="none" stroke="white" stroke-width="1.5" d="M0,-3.0v7 M-2.5,-0.5L0,-3.0L2.5,-0.5"/>
                </g>
        </g>
        <svg viewBox="0 0 15 15" width="100%" height="30px" preserveAspectRatio="xMaxYMin meet">
         <g id="arrow_out" transform="scale(0.3 0.3)">
          <a xlink:href="quickjs_8h_af763b173e78debf2075670ca2c128a30_icgraph_org.svg" target="_base">
           <rect id="button" ry="5" rx="5" y="6" x="6" height="38" width="38"
                fill="#f2f5e9" fill-opacity="0.5" stroke="#606060" stroke-width="1.0"/>
           <path id="arrow"
             d="M 11.500037,31.436501 C 11.940474,20.09759 22.043105,11.32322 32.158766,21.979434 L 37.068811,17.246167 C 37.068811,17.246167 37.088388,32 37.088388,32 L 22.160133,31.978069 C 22.160133,31.978069 26.997745,27.140456 26.997745,27.140456 C 18.528582,18.264221 13.291696,25.230495 11.500037,31.436501 z"
             style="fill:#404040;"/>
          </a>
         </g>
        </svg>
</svg>
