<?xml version="1.0" encoding="UTF-8" standalone="no"?>
<!DOCTYPE svg PUBLIC "-//W3C//DTD SVG 1.1//EN"
 "http://www.w3.org/Graphics/SVG/1.1/DTD/svg11.dtd">
<!-- Generated by graphviz version 2.40.1 (20161225.0304)
 -->
<!-- Title: JS_ToPropertyKey Pages: 1 -->
<svg width="898pt" height="916pt"
 viewBox="0.00 0.00 898.00 916.06" xmlns="http://www.w3.org/2000/svg" xmlns:xlink="http://www.w3.org/1999/xlink">
<g id="graph0" class="graph" transform="scale(1 1) rotate(0) translate(4 912.0629)">
<title>JS_ToPropertyKey</title>
<!-- Node255519 -->
<g id="node1" class="node">
<title>Node255519</title>
<polygon fill="#bfbfbf" stroke="#000000" points="0,-676.5 0,-695.5 99,-695.5 99,-676.5 0,-676.5"/>
<text text-anchor="middle" x="49.5" y="-683.5" font-family="Helvetica,sans-Serif" font-size="10.00" fill="#000000">JS_ToPropertyKey</text>
</g>
<!-- Node255520 -->
<g id="node2" class="node">
<title>Node255520</title>
<g id="a_node2"><a xlink:href="quickjs_8c.html#ac2894ff4edcdb4e6841bcce9c76081e3" target="_top" xlink:title="JS_CallInternal">
<polygon fill="none" stroke="#000000" points="463.5,-752.5 463.5,-771.5 546.5,-771.5 546.5,-752.5 463.5,-752.5"/>
<text text-anchor="middle" x="505" y="-759.5" font-family="Helvetica,sans-Serif" font-size="10.00" fill="#000000">JS_CallInternal</text>
</a>
</g>
</g>
<!-- Node255519&#45;&gt;Node255520 -->
<g id="edge1" class="edge">
<title>Node255519&#45;&gt;Node255520</title>
<path fill="none" stroke="#191970" d="M61.4661,-703.9833C90.3509,-745.5456 168.6027,-847.563 264,-885 331.0238,-911.3023 362.8118,-919.5145 426,-885 471.6601,-860.0596 494.8515,-796.189 502.2797,-771.7304"/>
<polygon fill="#191970" stroke="#191970" points="64.3024,-701.9302 55.7735,-695.6446 58.5211,-705.877 64.3024,-701.9302"/>
</g>
<!-- Node256123 -->
<g id="node9" class="node">
<title>Node256123</title>
<g id="a_node9"><a xlink:href="quickjs_8c.html#a859d5c989a2aaecef1653b3ac279e108" target="_top" xlink:title="JS_ValueToAtom">
<polygon fill="none" stroke="#000000" points="135,-467.5 135,-486.5 228,-486.5 228,-467.5 135,-467.5"/>
<text text-anchor="middle" x="181.5" y="-474.5" font-family="Helvetica,sans-Serif" font-size="10.00" fill="#000000">JS_ValueToAtom</text>
</a>
</g>
</g>
<!-- Node255519&#45;&gt;Node256123 -->
<g id="edge12" class="edge">
<title>Node255519&#45;&gt;Node256123</title>
<path fill="none" stroke="#191970" d="M60.9154,-667.9257C87.9116,-625.1816 154.9525,-519.0335 175.4499,-486.5793"/>
<polygon fill="#191970" stroke="#191970" points="57.8955,-666.1527 55.5148,-676.4766 63.814,-669.8907 57.8955,-666.1527"/>
</g>
<!-- Node255520&#45;&gt;Node255520 -->
<g id="edge11" class="edge">
<title>Node255520&#45;&gt;Node255520</title>
<path fill="none" stroke="#191970" d="M477.7475,-780.6539C478.8867,-785.9368 487.9708,-790 505,-790 530.9492,-790 538.4502,-780.5653 527.5028,-771.7571"/>
<polygon fill="#191970" stroke="#191970" points="480.8752,-782.227 482.4972,-771.7571 474.7001,-778.9303 480.8752,-782.227"/>
</g>
<!-- Node255521 -->
<g id="node3" class="node">
<title>Node255521</title>
<g id="a_node3"><a xlink:href="quickjs_8c.html#ade71a22dc56e7371392393df663b28b3" target="_top" xlink:title="async_func_resume">
<polygon fill="none" stroke="#ff0000" points="599,-809.5 599,-828.5 703,-828.5 703,-809.5 599,-809.5"/>
<text text-anchor="middle" x="651" y="-816.5" font-family="Helvetica,sans-Serif" font-size="10.00" fill="#000000">async_func_resume</text>
</a>
</g>
</g>
<!-- Node255520&#45;&gt;Node255521 -->
<g id="edge2" class="edge">
<title>Node255520&#45;&gt;Node255521</title>
<path fill="none" stroke="#191970" d="M532.0268,-776.428C547.0551,-784.0848 566.2554,-793.2735 584,-800 593.2706,-803.5142 603.4764,-806.7265 613.0672,-809.4698"/>
<polygon fill="#191970" stroke="#191970" points="533.3006,-773.1464 522.8107,-771.659 530.0834,-779.3633 533.3006,-773.1464"/>
</g>
<!-- Node255540 -->
<g id="node5" class="node">
<title>Node255540</title>
<g id="a_node5"><a xlink:href="quickjs_8c.html#a1a4c02a29525d5cb2085dd8bca3af350" target="_top" xlink:title="JS_Call">
<polygon fill="none" stroke="#ff0000" points="625.5,-771.5 625.5,-790.5 676.5,-790.5 676.5,-771.5 625.5,-771.5"/>
<text text-anchor="middle" x="651" y="-778.5" font-family="Helvetica,sans-Serif" font-size="10.00" fill="#000000">JS_Call</text>
</a>
</g>
</g>
<!-- Node255520&#45;&gt;Node255540 -->
<g id="edge4" class="edge">
<title>Node255520&#45;&gt;Node255540</title>
<path fill="none" stroke="#191970" d="M556.8855,-762.2597C580.0545,-764.6948 606.3282,-768.5139 625.2159,-772.3517"/>
<polygon fill="#191970" stroke="#191970" points="557.1317,-758.7671 546.8377,-761.274 556.4482,-765.7337 557.1317,-758.7671"/>
</g>
<!-- Node255621 -->
<g id="node6" class="node">
<title>Node255621</title>
<g id="a_node6"><a xlink:href="quickjs_8c.html#ad35594576a14c10812efaf958c99af8a" target="_top" xlink:title="JS_CallConstructorInternal">
<polygon fill="none" stroke="#ff0000" points="584,-733.5 584,-752.5 718,-752.5 718,-733.5 584,-733.5"/>
<text text-anchor="middle" x="651" y="-740.5" font-family="Helvetica,sans-Serif" font-size="10.00" fill="#000000">JS_CallConstructorInternal</text>
</a>
</g>
</g>
<!-- Node255520&#45;&gt;Node255621 -->
<g id="edge6" class="edge">
<title>Node255520&#45;&gt;Node255621</title>
<path fill="none" stroke="#191970" d="M545.3093,-750.6459C557.2334,-748.5933 570.624,-746.643 583.7641,-745.0186"/>
<polygon fill="#191970" stroke="#191970" points="544.466,-747.2417 535.2513,-752.4705 545.7155,-754.1293 544.466,-747.2417"/>
</g>
<!-- Node255635 -->
<g id="node7" class="node">
<title>Node255635</title>
<g id="a_node7"><a xlink:href="quickjs_8c.html#a75f6ee5e4235a7dc99889f3d2eb2c147" target="_top" xlink:title="JS_CallFree">
<polygon fill="none" stroke="#ff0000" points="615.5,-695.5 615.5,-714.5 686.5,-714.5 686.5,-695.5 615.5,-695.5"/>
<text text-anchor="middle" x="651" y="-702.5" font-family="Helvetica,sans-Serif" font-size="10.00" fill="#000000">JS_CallFree</text>
</a>
</g>
</g>
<!-- Node255520&#45;&gt;Node255635 -->
<g id="edge8" class="edge">
<title>Node255520&#45;&gt;Node255635</title>
<path fill="none" stroke="#191970" d="M521.1784,-746.2906C536.898,-735.8973 561.6079,-723.4882 584,-715 593.9489,-711.2287 604.975,-707.805 615.162,-705.3012"/>
<polygon fill="#191970" stroke="#191970" points="518.7105,-743.7556 512.6535,-752.4484 522.8093,-749.4301 518.7105,-743.7556"/>
</g>
<!-- Node255522 -->
<g id="node4" class="node">
<title>Node255522</title>
<g id="a_node4"><a xlink:href="quickjs_8c.html#ac90552b1f1659acb3dae9a4c62479a30" target="_top" xlink:title="js_generator_function_call">
<polygon fill="none" stroke="#ff0000" points="757,-809.5 757,-828.5 887,-828.5 887,-809.5 757,-809.5"/>
<text text-anchor="middle" x="822" y="-816.5" font-family="Helvetica,sans-Serif" font-size="10.00" fill="#000000">js_generator_function_call</text>
</a>
</g>
</g>
<!-- Node255521&#45;&gt;Node255522 -->
<g id="edge3" class="edge">
<title>Node255521&#45;&gt;Node255522</title>
<path fill="none" stroke="#191970" d="M713.3438,-819C727.4823,-819 742.5344,-819 756.7881,-819"/>
<polygon fill="#191970" stroke="#191970" points="713.2348,-815.5001 703.2348,-819 713.2348,-822.5001 713.2348,-815.5001"/>
</g>
<!-- Node255540&#45;&gt;Node255520 -->
<g id="edge5" class="edge">
<title>Node255540&#45;&gt;Node255520</title>
<path fill="none" stroke="#191970" d="M615.184,-782.2411C590.6578,-780.275 558.4919,-775.9859 535.2513,-771.5295"/>
<polygon fill="#191970" stroke="#191970" points="614.9607,-785.734 625.1792,-782.9352 615.4457,-778.7508 614.9607,-785.734"/>
</g>
<!-- Node255621&#45;&gt;Node255520 -->
<g id="edge7" class="edge">
<title>Node255621&#45;&gt;Node255520</title>
<path fill="none" stroke="#191970" d="M610.7749,-754.3396C590.8978,-757.7641 566.9292,-760.9052 546.8377,-762.726"/>
<polygon fill="#191970" stroke="#191970" points="611.54,-757.758 620.7542,-752.5285 610.2899,-750.8705 611.54,-757.758"/>
</g>
<!-- Node255635&#45;&gt;Node255520 -->
<g id="edge9" class="edge">
<title>Node255635&#45;&gt;Node255520</title>
<path fill="none" stroke="#191970" d="M628.7849,-718.1125C615.5895,-722.6601 598.6301,-727.4541 584,-733 568.9148,-738.7184 552.7777,-746.2162 539.0461,-752.4006"/>
<polygon fill="#191970" stroke="#191970" points="630.2984,-721.2835 638.444,-714.5085 627.8513,-714.7251 630.2984,-721.2835"/>
</g>
<!-- Node255864 -->
<g id="node8" class="node">
<title>Node255864</title>
<g id="a_node8"><a xlink:href="quickjs_8c.html#a438b354d69a8f0674195b0cdc19dd686" target="_top" xlink:title="js_proxy_get_own_property\l_names">
<polygon fill="none" stroke="#000000" points="754,-652 754,-682 890,-682 890,-652 754,-652"/>
<text text-anchor="start" x="762" y="-670" font-family="Helvetica,sans-Serif" font-size="10.00" fill="#000000">js_proxy_get_own_property</text>
<text text-anchor="middle" x="822" y="-659" font-family="Helvetica,sans-Serif" font-size="10.00" fill="#000000">_names</text>
</a>
</g>
</g>
<!-- Node255635&#45;&gt;Node255864 -->
<g id="edge10" class="edge">
<title>Node255635&#45;&gt;Node255864</title>
<path fill="none" stroke="#191970" d="M696.8857,-694.8032C714.5578,-690.876 735.1285,-686.3048 754.4239,-682.0169"/>
<polygon fill="#191970" stroke="#191970" points="695.8498,-691.4479 686.8472,-697.034 697.3684,-698.2812 695.8498,-691.4479"/>
</g>
<!-- Node256123&#45;&gt;Node255520 -->
<g id="edge13" class="edge">
<title>Node256123&#45;&gt;Node255520</title>
<path fill="none" stroke="#191970" d="M182.665,-497.1738C187.2757,-569.0711 206.8716,-810.9436 264,-857 320.0529,-902.1893 360.8134,-887.573 426,-857 464.4531,-838.9652 490.6823,-791.9985 500.5936,-771.6424"/>
<polygon fill="#191970" stroke="#191970" points="186.1351,-496.577 182.0303,-486.8097 179.1482,-497.0049 186.1351,-496.577"/>
</g>
<!-- Node256123&#45;&gt;Node255864 -->
<g id="edge35" class="edge">
<title>Node256123&#45;&gt;Node255864</title>
<path fill="none" stroke="#191970" d="M189.3547,-495.9304C201.2904,-522.0933 226.6293,-568.606 264,-591 305.3558,-615.782 614.2564,-647.4944 753.8589,-660.7447"/>
<polygon fill="#191970" stroke="#191970" points="192.5276,-494.4504 185.3132,-486.6912 186.1143,-497.2557 192.5276,-494.4504"/>
</g>
<!-- Node256021 -->
<g id="node10" class="node">
<title>Node256021</title>
<g id="a_node10"><a xlink:href="quickjs_8c.html#a4da0393f32562bb05dff7ef63fff68f9" target="_top" xlink:title="js_date_Symbol_toPrimitive">
<polygon fill="none" stroke="#000000" points="276,-562.5 276,-581.5 414,-581.5 414,-562.5 276,-562.5"/>
<text text-anchor="middle" x="345" y="-569.5" font-family="Helvetica,sans-Serif" font-size="10.00" fill="#000000">js_date_Symbol_toPrimitive</text>
</a>
</g>
</g>
<!-- Node256123&#45;&gt;Node256021 -->
<g id="edge14" class="edge">
<title>Node256123&#45;&gt;Node256021</title>
<path fill="none" stroke="#191970" d="M195.5487,-494.381C210.6311,-511.8583 236.201,-538.2648 264,-553 271.2744,-556.8559 279.3251,-559.9367 287.4457,-562.3963"/>
<polygon fill="#191970" stroke="#191970" points="198.1339,-492.0169 189.0233,-486.6088 192.7729,-496.518 198.1339,-492.0169"/>
</g>
<!-- Node255741 -->
<g id="node11" class="node">
<title>Node255741</title>
<g id="a_node11"><a xlink:href="quickjs_8c.html#a116b8bb41915b573650c477a55d8e46d" target="_top" xlink:title="JS_DefineObjectNameComputed">
<polygon fill="none" stroke="#ff0000" points="264,-828.5 264,-847.5 426,-847.5 426,-828.5 264,-828.5"/>
<text text-anchor="middle" x="345" y="-835.5" font-family="Helvetica,sans-Serif" font-size="10.00" fill="#000000">JS_DefineObjectNameComputed</text>
</a>
</g>
</g>
<!-- Node256123&#45;&gt;Node255741 -->
<g id="edge15" class="edge">
<title>Node256123&#45;&gt;Node255741</title>
<path fill="none" stroke="#191970" d="M183.5779,-496.8666C190.8702,-562.7824 217.4074,-772.7002 264,-819 267.7909,-822.7671 272.1781,-825.8422 276.9099,-828.3466"/>
<polygon fill="#191970" stroke="#191970" points="187.0247,-496.1845 182.4724,-486.6175 180.0651,-496.9353 187.0247,-496.1845"/>
</g>
<!-- Node255752 -->
<g id="node12" class="node">
<title>Node255752</title>
<g id="a_node12"><a xlink:href="quickjs_8c.html#a0c61bd5a64c743e81188bb528b78e715" target="_top" xlink:title="JS_DefinePropertyValueValue">
<polygon fill="none" stroke="#ff0000" points="270.5,-790.5 270.5,-809.5 419.5,-809.5 419.5,-790.5 270.5,-790.5"/>
<text text-anchor="middle" x="345" y="-797.5" font-family="Helvetica,sans-Serif" font-size="10.00" fill="#000000">JS_DefinePropertyValueValue</text>
</a>
</g>
</g>
<!-- Node256123&#45;&gt;Node255752 -->
<g id="edge17" class="edge">
<title>Node256123&#45;&gt;Node255752</title>
<path fill="none" stroke="#191970" d="M184.2394,-497.0111C193.0033,-558.1315 222.2454,-740.6655 264,-781 267.9477,-784.8134 272.5082,-787.9134 277.4125,-790.4277"/>
<polygon fill="#191970" stroke="#191970" points="187.659,-496.1932 182.8023,-486.7771 180.727,-497.1667 187.659,-496.1932"/>
</g>
<!-- Node255853 -->
<g id="node13" class="node">
<title>Node255853</title>
<g id="a_node13"><a xlink:href="quickjs_8c.html#a90d6e607f6917d817c1e997bd2e6ed07" target="_top" xlink:title="JS_GetPropertyValue">
<polygon fill="none" stroke="#ff0000" points="289.5,-752.5 289.5,-771.5 400.5,-771.5 400.5,-752.5 289.5,-752.5"/>
<text text-anchor="middle" x="345" y="-759.5" font-family="Helvetica,sans-Serif" font-size="10.00" fill="#000000">JS_GetPropertyValue</text>
</a>
</g>
</g>
<!-- Node256123&#45;&gt;Node255853 -->
<g id="edge19" class="edge">
<title>Node256123&#45;&gt;Node255853</title>
<path fill="none" stroke="#191970" d="M185.0006,-496.6728C195.2702,-552.2187 226.9387,-708.4581 264,-743 271.0795,-749.5982 280.0016,-754.0442 289.3168,-757.0124"/>
<polygon fill="#191970" stroke="#191970" points="188.4197,-495.912 183.188,-486.699 181.5326,-497.1637 188.4197,-495.912"/>
</g>
<!-- Node255825 -->
<g id="node14" class="node">
<title>Node255825</title>
<g id="a_node14"><a xlink:href="quickjs_8c.html#ad47910027b4f50d5ff3239df19de556d" target="_top" xlink:title="js_object___defineGetter__">
<polygon fill="none" stroke="#000000" points="277.5,-524.5 277.5,-543.5 412.5,-543.5 412.5,-524.5 277.5,-524.5"/>
<text text-anchor="middle" x="345" y="-531.5" font-family="Helvetica,sans-Serif" font-size="10.00" fill="#000000">js_object___defineGetter__</text>
</a>
</g>
</g>
<!-- Node256123&#45;&gt;Node255825 -->
<g id="edge21" class="edge">
<title>Node256123&#45;&gt;Node255825</title>
<path fill="none" stroke="#191970" d="M208.6077,-491.1663C224.4372,-499.0094 244.9811,-508.4638 264,-515 274.5182,-518.6148 286.0371,-521.7739 297.0031,-524.4246"/>
<polygon fill="#191970" stroke="#191970" points="209.9216,-487.909 199.4166,-486.5316 206.7698,-494.1593 209.9216,-487.909"/>
</g>
<!-- Node255826 -->
<g id="node15" class="node">
<title>Node255826</title>
<g id="a_node15"><a xlink:href="quickjs_8c.html#a26abea9136a3d8e9a861aefb51626b4e" target="_top" xlink:title="js_object___lookupGetter__">
<polygon fill="none" stroke="#000000" points="276.5,-486.5 276.5,-505.5 413.5,-505.5 413.5,-486.5 276.5,-486.5"/>
<text text-anchor="middle" x="345" y="-493.5" font-family="Helvetica,sans-Serif" font-size="10.00" fill="#000000">js_object___lookupGetter__</text>
</a>
</g>
</g>
<!-- Node256123&#45;&gt;Node255826 -->
<g id="edge22" class="edge">
<title>Node256123&#45;&gt;Node255826</title>
<path fill="none" stroke="#191970" d="M238.3833,-483.6103C250.5858,-485.0283 263.6053,-486.5413 276.2036,-488.0053"/>
<polygon fill="#191970" stroke="#191970" points="238.6897,-480.1224 228.3525,-482.4446 237.8817,-487.0756 238.6897,-480.1224"/>
</g>
<!-- Node255682 -->
<g id="node16" class="node">
<title>Node255682</title>
<g id="a_node16"><a xlink:href="quickjs_8c.html#aca3b864ab833c3c9034cee730e49cedb" target="_top" xlink:title="js_object_defineProperty">
<polygon fill="none" stroke="#000000" points="283,-448.5 283,-467.5 407,-467.5 407,-448.5 283,-448.5"/>
<text text-anchor="middle" x="345" y="-455.5" font-family="Helvetica,sans-Serif" font-size="10.00" fill="#000000">js_object_defineProperty</text>
</a>
</g>
</g>
<!-- Node256123&#45;&gt;Node255682 -->
<g id="edge23" class="edge">
<title>Node256123&#45;&gt;Node255682</title>
<path fill="none" stroke="#191970" d="M238.5595,-470.3692C252.8873,-468.7042 268.3318,-466.9095 282.8926,-465.2174"/>
<polygon fill="#191970" stroke="#191970" points="237.8817,-466.9244 228.3525,-471.5554 238.6897,-473.8776 237.8817,-466.9244"/>
</g>
<!-- Node255803 -->
<g id="node17" class="node">
<title>Node255803</title>
<g id="a_node17"><a xlink:href="quickjs_8c.html#a5f75fb513884286c86db6863663f262a" target="_top" xlink:title="js_object_getOwnProperty\lDescriptor">
<polygon fill="none" stroke="#ff0000" points="279.5,-399 279.5,-429 410.5,-429 410.5,-399 279.5,-399"/>
<text text-anchor="start" x="287.5" y="-417" font-family="Helvetica,sans-Serif" font-size="10.00" fill="#000000">js_object_getOwnProperty</text>
<text text-anchor="middle" x="345" y="-406" font-family="Helvetica,sans-Serif" font-size="10.00" fill="#000000">Descriptor</text>
</a>
</g>
</g>
<!-- Node256123&#45;&gt;Node255803 -->
<g id="edge24" class="edge">
<title>Node256123&#45;&gt;Node255803</title>
<path fill="none" stroke="#191970" d="M209.7203,-462.8752C225.4744,-455.2772 245.5836,-446.0479 264,-439 273.0716,-435.5283 282.8496,-432.185 292.3666,-429.1347"/>
<polygon fill="#191970" stroke="#191970" points="207.9799,-459.83 200.528,-467.3612 211.05,-466.1208 207.9799,-459.83"/>
</g>
<!-- Node255829 -->
<g id="node18" class="node">
<title>Node255829</title>
<g id="a_node18"><a xlink:href="quickjs_8c.html#ad61ef444b51b69a8a4cb9e3cac990c8d" target="_top" xlink:title="js_object_hasOwnProperty">
<polygon fill="none" stroke="#000000" points="278,-360.5 278,-379.5 412,-379.5 412,-360.5 278,-360.5"/>
<text text-anchor="middle" x="345" y="-367.5" font-family="Helvetica,sans-Serif" font-size="10.00" fill="#000000">js_object_hasOwnProperty</text>
</a>
</g>
</g>
<!-- Node256123&#45;&gt;Node255829 -->
<g id="edge25" class="edge">
<title>Node256123&#45;&gt;Node255829</title>
<path fill="none" stroke="#191970" d="M193.4072,-458.9654C207.7242,-438.7573 233.6536,-406.5377 264,-389 270.7532,-385.0972 278.2615,-381.9955 285.9058,-379.5306"/>
<polygon fill="#191970" stroke="#191970" points="190.4523,-457.0855 187.672,-467.3091 196.2209,-461.0507 190.4523,-457.0855"/>
</g>
<!-- Node255831 -->
<g id="node19" class="node">
<title>Node255831</title>
<g id="a_node19"><a xlink:href="quickjs_8c.html#acc70b8dea6a26f839c651835b7104c92" target="_top" xlink:title="js_object_propertyIsEnumerable">
<polygon fill="none" stroke="#000000" points="267,-322.5 267,-341.5 423,-341.5 423,-322.5 267,-322.5"/>
<text text-anchor="middle" x="345" y="-329.5" font-family="Helvetica,sans-Serif" font-size="10.00" fill="#000000">js_object_propertyIsEnumerable</text>
</a>
</g>
</g>
<!-- Node256123&#45;&gt;Node255831 -->
<g id="edge26" class="edge">
<title>Node256123&#45;&gt;Node255831</title>
<path fill="none" stroke="#191970" d="M188.6317,-457.8303C200.0722,-429.8265 225.2529,-378.1238 264,-351 269.5615,-347.1068 275.8112,-344.0027 282.3088,-341.5292"/>
<polygon fill="#191970" stroke="#191970" points="185.3099,-456.7144 184.9201,-467.3021 191.8274,-459.2684 185.3099,-456.7144"/>
</g>
<!-- Node255822 -->
<g id="node20" class="node">
<title>Node255822</title>
<g id="a_node20"><a xlink:href="quickjs_8c.html#a9b6302f1a5bc5d5d8f1951777433e516" target="_top" xlink:title="js_operator_delete">
<polygon fill="none" stroke="#000000" points="297,-714.5 297,-733.5 393,-733.5 393,-714.5 297,-714.5"/>
<text text-anchor="middle" x="345" y="-721.5" font-family="Helvetica,sans-Serif" font-size="10.00" fill="#000000">js_operator_delete</text>
</a>
</g>
</g>
<!-- Node256123&#45;&gt;Node255822 -->
<g id="edge27" class="edge">
<title>Node256123&#45;&gt;Node255822</title>
<path fill="none" stroke="#191970" d="M182.5574,-496.5641C186.0446,-540.7742 200.9253,-648.8924 264,-705 273.0655,-713.0641 284.9027,-717.8818 296.7166,-720.7153"/>
<polygon fill="#191970" stroke="#191970" points="186.0469,-496.2896 181.8814,-486.548 179.0628,-496.761 186.0469,-496.2896"/>
</g>
<!-- Node255871 -->
<g id="node21" class="node">
<title>Node255871</title>
<g id="a_node21"><a xlink:href="quickjs_8c.html#a3756e0f1dc63bd8e463e6d4febc6e503" target="_top" xlink:title="js_operator_in">
<polygon fill="none" stroke="#000000" points="306.5,-676.5 306.5,-695.5 383.5,-695.5 383.5,-676.5 306.5,-676.5"/>
<text text-anchor="middle" x="345" y="-683.5" font-family="Helvetica,sans-Serif" font-size="10.00" fill="#000000">js_operator_in</text>
</a>
</g>
</g>
<!-- Node256123&#45;&gt;Node255871 -->
<g id="edge29" class="edge">
<title>Node256123&#45;&gt;Node255871</title>
<path fill="none" stroke="#191970" d="M184.1742,-496.7014C190.5271,-535.5396 210.2377,-622.1034 264,-667 275.7519,-676.814 291.6591,-681.7583 306.2655,-684.183"/>
<polygon fill="#191970" stroke="#191970" points="187.6152,-496.0475 182.6634,-486.6811 180.6934,-497.0912 187.6152,-496.0475"/>
</g>
<!-- Node256124 -->
<g id="node22" class="node">
<title>Node256124</title>
<g id="a_node22"><a xlink:href="quickjs_8c.html#a736435f0774c85e09f2817c97ec47bbf" target="_top" xlink:title="js_parse_from_clause">
<polygon fill="none" stroke="#ff0000" points="289,-246.5 289,-265.5 401,-265.5 401,-246.5 289,-246.5"/>
<text text-anchor="middle" x="345" y="-253.5" font-family="Helvetica,sans-Serif" font-size="10.00" fill="#000000">js_parse_from_clause</text>
</a>
</g>
</g>
<!-- Node256123&#45;&gt;Node256124 -->
<g id="edge31" class="edge">
<title>Node256123&#45;&gt;Node256124</title>
<path fill="none" stroke="#191970" d="M184.1334,-457.1149C190.4425,-417.4851 210.122,-328.3261 264,-280 271.0969,-273.6344 279.8118,-268.9541 288.8656,-265.5137"/>
<polygon fill="#191970" stroke="#191970" points="180.6557,-456.7077 182.6633,-467.1106 187.5812,-457.7263 180.6557,-456.7077"/>
</g>
<!-- Node256125 -->
<g id="node23" class="node">
<title>Node256125</title>
<g id="a_node23"><a xlink:href="quickjs_8c.html#aa24f7964f6d938a05c3c3c03af5a01e9" target="_top" xlink:title="js_parse_import">
<polygon fill="none" stroke="#ff0000" points="462,-265.5 462,-284.5 548,-284.5 548,-265.5 462,-265.5"/>
<text text-anchor="middle" x="505" y="-272.5" font-family="Helvetica,sans-Serif" font-size="10.00" fill="#000000">js_parse_import</text>
</a>
</g>
</g>
<!-- Node256123&#45;&gt;Node256125 -->
<g id="edge33" class="edge">
<title>Node256123&#45;&gt;Node256125</title>
<path fill="none" stroke="#191970" d="M185.3207,-457.2574C193.2452,-422.0512 214.9868,-348.7776 264,-313 294.7481,-290.5552 401.1327,-280.8951 461.7785,-277.1317"/>
<polygon fill="#191970" stroke="#191970" points="181.8513,-456.7481 183.2162,-467.2546 188.7012,-458.1901 181.8513,-456.7481"/>
</g>
<!-- Node255714 -->
<g id="node24" class="node">
<title>Node255714</title>
<g id="a_node24"><a xlink:href="quickjs_8c.html#a42234753f3193f37ce45b3c0ca4c25cd" target="_top" xlink:title="js_parse_property_name">
<polygon fill="none" stroke="#ff0000" points="283.5,-208.5 283.5,-227.5 406.5,-227.5 406.5,-208.5 283.5,-208.5"/>
<text text-anchor="middle" x="345" y="-215.5" font-family="Helvetica,sans-Serif" font-size="10.00" fill="#000000">js_parse_property_name</text>
</a>
</g>
</g>
<!-- Node256123&#45;&gt;Node255714 -->
<g id="edge34" class="edge">
<title>Node256123&#45;&gt;Node255714</title>
<path fill="none" stroke="#191970" d="M185.6447,-457.5659C197.0174,-406.0118 230.1254,-267.6246 264,-237 269.5716,-231.9629 276.2218,-228.1883 283.2825,-225.3709"/>
<polygon fill="#191970" stroke="#191970" points="182.2035,-456.9198 183.5006,-467.4349 189.0439,-458.4059 182.2035,-456.9198"/>
</g>
<!-- Node255824 -->
<g id="node25" class="node">
<title>Node255824</title>
<g id="a_node25"><a xlink:href="quickjs_8c.html#ae9c76f2d0eacc35d9df11d9f81039cde" target="_top" xlink:title="js_reflect_deleteProperty">
<polygon fill="none" stroke="#000000" points="282.5,-170.5 282.5,-189.5 407.5,-189.5 407.5,-170.5 282.5,-170.5"/>
<text text-anchor="middle" x="345" y="-177.5" font-family="Helvetica,sans-Serif" font-size="10.00" fill="#000000">js_reflect_deleteProperty</text>
</a>
</g>
</g>
<!-- Node256123&#45;&gt;Node255824 -->
<g id="edge36" class="edge">
<title>Node256123&#45;&gt;Node255824</title>
<path fill="none" stroke="#191970" d="M184.6789,-457.5783C194.3917,-400.5723 225.38,-235.4396 264,-199 269.2529,-194.0436 275.5438,-190.2986 282.2669,-187.4807"/>
<polygon fill="#191970" stroke="#191970" points="181.2226,-457.0271 183.0241,-467.4676 188.1266,-458.1824 181.2226,-457.0271"/>
</g>
<!-- Node256106 -->
<g id="node26" class="node">
<title>Node256106</title>
<g id="a_node26"><a xlink:href="quickjs_8c.html#a6730c3163c357445c0182c52d5a53ca4" target="_top" xlink:title="js_reflect_get">
<polygon fill="none" stroke="#000000" points="307.5,-132.5 307.5,-151.5 382.5,-151.5 382.5,-132.5 307.5,-132.5"/>
<text text-anchor="middle" x="345" y="-139.5" font-family="Helvetica,sans-Serif" font-size="10.00" fill="#000000">js_reflect_get</text>
</a>
</g>
</g>
<!-- Node256123&#45;&gt;Node256106 -->
<g id="edge37" class="edge">
<title>Node256123&#45;&gt;Node256106</title>
<path fill="none" stroke="#191970" d="M183.9607,-457.4325C192.1787,-395.1772 220.6293,-203.3009 264,-161 275.3744,-149.9062 291.929,-144.8382 307.1121,-142.6657"/>
<polygon fill="#191970" stroke="#191970" points="180.4724,-457.1173 182.6626,-467.4832 187.4148,-458.014 180.4724,-457.1173"/>
</g>
<!-- Node255873 -->
<g id="node27" class="node">
<title>Node255873</title>
<g id="a_node27"><a xlink:href="quickjs_8c.html#ab34237416a7483c22a564155a240224b" target="_top" xlink:title="js_reflect_has">
<polygon fill="none" stroke="#000000" points="306.5,-94.5 306.5,-113.5 383.5,-113.5 383.5,-94.5 306.5,-94.5"/>
<text text-anchor="middle" x="345" y="-101.5" font-family="Helvetica,sans-Serif" font-size="10.00" fill="#000000">js_reflect_has</text>
</a>
</g>
</g>
<!-- Node256123&#45;&gt;Node255873 -->
<g id="edge38" class="edge">
<title>Node256123&#45;&gt;Node255873</title>
<path fill="none" stroke="#191970" d="M183.3855,-457.3089C190.217,-390.0963 215.8419,-171.2274 264,-123 275.0227,-111.9614 291.1613,-106.855 306.1374,-104.6402"/>
<polygon fill="#191970" stroke="#191970" points="179.8899,-457.0927 182.3879,-467.3889 186.8559,-457.7822 179.8899,-457.0927"/>
</g>
<!-- Node255639 -->
<g id="node28" class="node">
<title>Node255639</title>
<g id="a_node28"><a xlink:href="quickjs_8c.html#af047bcc4352c7d76f5e85bb5985bcd97" target="_top" xlink:title="js_reflect_set">
<polygon fill="none" stroke="#000000" points="307.5,-56.5 307.5,-75.5 382.5,-75.5 382.5,-56.5 307.5,-56.5"/>
<text text-anchor="middle" x="345" y="-63.5" font-family="Helvetica,sans-Serif" font-size="10.00" fill="#000000">js_reflect_set</text>
</a>
</g>
</g>
<!-- Node256123&#45;&gt;Node255639 -->
<g id="edge39" class="edge">
<title>Node256123&#45;&gt;Node255639</title>
<path fill="none" stroke="#191970" d="M182.9213,-457.1085C188.4716,-385.0662 211.0478,-139.1827 264,-85 275.2061,-73.5335 291.9227,-68.4385 307.2644,-66.3455"/>
<polygon fill="#191970" stroke="#191970" points="179.4027,-457.2286 182.1503,-467.461 186.3834,-457.7486 179.4027,-457.2286"/>
</g>
<!-- Node255673 -->
<g id="node29" class="node">
<title>Node255673</title>
<g id="a_node29"><a xlink:href="quickjs_8c.html#aee75cc1546e19479e3ccda58f3b50a96" target="_top" xlink:title="JS_SetPropertyValue">
<polygon fill="none" stroke="#ff0000" points="290,-638.5 290,-657.5 400,-657.5 400,-638.5 290,-638.5"/>
<text text-anchor="middle" x="345" y="-645.5" font-family="Helvetica,sans-Serif" font-size="10.00" fill="#000000">JS_SetPropertyValue</text>
</a>
</g>
</g>
<!-- Node256123&#45;&gt;Node255673 -->
<g id="edge40" class="edge">
<title>Node256123&#45;&gt;Node255673</title>
<path fill="none" stroke="#191970" d="M187.0796,-496.3128C197.1683,-527.7856 221.4455,-590.0278 264,-624 271.9089,-630.3139 281.4389,-634.9677 291.1414,-638.3977"/>
<polygon fill="#191970" stroke="#191970" points="190.3685,-495.0991 184.0962,-486.5605 183.6748,-497.1469 190.3685,-495.0991"/>
</g>
<!-- Node255770 -->
<g id="node30" class="node">
<title>Node255770</title>
<g id="a_node30"><a xlink:href="quickjs_8c.html#a756c1ab5dee9a6dd07723d7a075e2a53" target="_top" xlink:title="json_parse_value">
<polygon fill="none" stroke="#ff0000" points="299,-.5 299,-19.5 391,-19.5 391,-.5 299,-.5"/>
<text text-anchor="middle" x="345" y="-7.5" font-family="Helvetica,sans-Serif" font-size="10.00" fill="#000000">json_parse_value</text>
</a>
</g>
</g>
<!-- Node256123&#45;&gt;Node255770 -->
<g id="edge42" class="edge">
<title>Node256123&#45;&gt;Node255770</title>
<path fill="none" stroke="#191970" d="M182.8926,-457.4965C188.6035,-382.3722 212.4083,-112.667 264,-47 274.3153,-33.8705 290.3433,-25.2338 305.428,-19.6359"/>
<polygon fill="#191970" stroke="#191970" points="179.4019,-457.2428 182.1549,-467.4737 186.3829,-457.7591 179.4019,-457.2428"/>
</g>
<!-- Node255741&#45;&gt;Node255520 -->
<g id="edge16" class="edge">
<title>Node255741&#45;&gt;Node255520</title>
<path fill="none" stroke="#191970" d="M409.0301,-825.5038C414.8711,-823.6134 420.6114,-821.4564 426,-819 453.0848,-806.6533 480.2678,-784.3419 494.6122,-771.603"/>
<polygon fill="#191970" stroke="#191970" points="407.7384,-822.2363 399.1493,-828.4394 409.732,-828.9464 407.7384,-822.2363"/>
</g>
<!-- Node255752&#45;&gt;Node255520 -->
<g id="edge18" class="edge">
<title>Node255752&#45;&gt;Node255520</title>
<path fill="none" stroke="#191970" d="M395.6724,-788.1601C405.7242,-785.7984 416.1979,-783.3283 426,-781 438.901,-777.9356 452.9792,-774.5599 465.6306,-771.5146"/>
<polygon fill="#191970" stroke="#191970" points="394.7377,-784.7842 385.8018,-790.4764 396.337,-791.5991 394.7377,-784.7842"/>
</g>
<!-- Node255853&#45;&gt;Node255520 -->
<g id="edge20" class="edge">
<title>Node255853&#45;&gt;Node255520</title>
<path fill="none" stroke="#191970" d="M410.8513,-762C428.6497,-762 447.4131,-762 463.4651,-762"/>
<polygon fill="#191970" stroke="#191970" points="410.5112,-758.5001 400.5112,-762 410.5112,-765.5001 410.5112,-758.5001"/>
</g>
<!-- Node255822&#45;&gt;Node255520 -->
<g id="edge28" class="edge">
<title>Node255822&#45;&gt;Node255520</title>
<path fill="none" stroke="#191970" d="M395.6724,-735.8399C405.7242,-738.2016 416.1979,-740.6717 426,-743 438.901,-746.0644 452.9792,-749.4401 465.6306,-752.4854"/>
<polygon fill="#191970" stroke="#191970" points="396.337,-732.4009 385.8018,-733.5236 394.7377,-739.2158 396.337,-732.4009"/>
</g>
<!-- Node255871&#45;&gt;Node255520 -->
<g id="edge30" class="edge">
<title>Node255871&#45;&gt;Node255520</title>
<path fill="none" stroke="#191970" d="M393.441,-694.0761C404.4228,-696.7994 415.8368,-700.367 426,-705 453.0848,-717.3467 480.2678,-739.6581 494.6122,-752.397"/>
<polygon fill="#191970" stroke="#191970" points="394.0544,-690.6261 383.5255,-691.8063 392.4923,-697.4496 394.0544,-690.6261"/>
</g>
<!-- Node256124&#45;&gt;Node256125 -->
<g id="edge32" class="edge">
<title>Node256124&#45;&gt;Node256125</title>
<path fill="none" stroke="#191970" d="M411.3443,-263.8784C428.4265,-265.9069 446.3647,-268.0371 461.9182,-269.884"/>
<polygon fill="#191970" stroke="#191970" points="411.753,-260.4024 401.41,-262.6987 410.9275,-267.3536 411.753,-260.4024"/>
</g>
<!-- Node255673&#45;&gt;Node255520 -->
<g id="edge41" class="edge">
<title>Node255673&#45;&gt;Node255520</title>
<path fill="none" stroke="#191970" d="M409.7739,-659.1041C415.4616,-661.2816 420.9629,-663.8857 426,-667 461.7603,-689.1097 489.071,-733.0512 499.9085,-752.4342"/>
<polygon fill="#191970" stroke="#191970" points="410.6695,-655.7124 400.0753,-655.8277 408.429,-662.3442 410.6695,-655.7124"/>
</g>
<!-- Node255770&#45;&gt;Node255770 -->
<g id="edge43" class="edge">
<title>Node255770&#45;&gt;Node255770</title>
<path fill="none" stroke="#191970" d="M315.0599,-28.2746C315.9135,-33.741 325.8936,-38 345,-38 373.4375,-38 381.6577,-28.5653 369.6606,-19.7571"/>
<polygon fill="#191970" stroke="#191970" points="318.0458,-30.1007 320.3394,-19.7571 312.096,-26.4128 318.0458,-30.1007"/>
</g>
</g>
</svg>
