<?xml version="1.0" encoding="UTF-8" standalone="no"?>
<!DOCTYPE svg PUBLIC "-//W3C//DTD SVG 1.1//EN"
 "http://www.w3.org/Graphics/SVG/1.1/DTD/svg11.dtd">
<!-- Generated by graphviz version 2.40.1 (20161225.0304)
 -->
<!-- Title: JS_Eval Pages: 1 -->
<svg width="443pt" height="157pt"
 viewBox="0.00 0.00 443.00 157.42" xmlns="http://www.w3.org/2000/svg" xmlns:xlink="http://www.w3.org/1999/xlink">
<g id="graph0" class="graph" transform="scale(1 1) rotate(0) translate(4 153.425)">
<title>JS_Eval</title>
<!-- Node71589 -->
<g id="node1" class="node">
<title>Node71589</title>
<polygon fill="#bfbfbf" stroke="#000000" points="0,-57.5 0,-76.5 53,-76.5 53,-57.5 0,-57.5"/>
<text text-anchor="middle" x="26.5" y="-64.5" font-family="Helvetica,sans-Serif" font-size="10.00" fill="#000000">JS_Eval</text>
</g>
<!-- Node71590 -->
<g id="node2" class="node">
<title>Node71590</title>
<g id="a_node2"><a xlink:href="classqjs_1_1Context.html#aeafa4cad50424999587a30d7d3994251" target="_top" xlink:title="qjs::Context::eval">
<polygon fill="none" stroke="#000000" points="89,-114.5 89,-133.5 183,-133.5 183,-114.5 89,-114.5"/>
<text text-anchor="middle" x="136" y="-121.5" font-family="Helvetica,sans-Serif" font-size="10.00" fill="#000000">qjs::Context::eval</text>
</a>
</g>
</g>
<!-- Node71589&#45;&gt;Node71590 -->
<g id="edge1" class="edge">
<title>Node71589&#45;&gt;Node71590</title>
<path fill="none" stroke="#191970" d="M49.3934,-82.1483C61.0038,-89.5112 75.4776,-98.2121 89,-105 95.7646,-108.3957 103.2884,-111.6541 110.2979,-114.4843"/>
<polygon fill="#191970" stroke="#191970" points="51.071,-79.0657 40.7689,-76.5925 47.2801,-84.9504 51.071,-79.0657"/>
</g>
<!-- Node71593 -->
<g id="node5" class="node">
<title>Node71593</title>
<g id="a_node5"><a xlink:href="quickjs-libc_8c.html#a55f6cd4bbd0e676992642d066fd1d9fd" target="_top" xlink:title="js_evalScript">
<polygon fill="none" stroke="#000000" points="99.5,-.5 99.5,-19.5 172.5,-19.5 172.5,-.5 99.5,-.5"/>
<text text-anchor="middle" x="136" y="-7.5" font-family="Helvetica,sans-Serif" font-size="10.00" fill="#000000">js_evalScript</text>
</a>
</g>
</g>
<!-- Node71589&#45;&gt;Node71593 -->
<g id="edge5" class="edge">
<title>Node71589&#45;&gt;Node71593</title>
<path fill="none" stroke="#191970" d="M53.6117,-52.5817C64.5816,-46.7749 77.377,-40.0357 89,-34 98.2694,-29.1865 108.6035,-23.9008 117.2159,-19.5179"/>
<polygon fill="#191970" stroke="#191970" points="51.7125,-49.6271 44.5169,-57.4037 54.9914,-55.8117 51.7125,-49.6271"/>
</g>
<!-- Node71594 -->
<g id="node6" class="node">
<title>Node71594</title>
<g id="a_node6"><a xlink:href="quickjs-libc_8c.html#acedf696011fa506afce358928ffa1522" target="_top" xlink:title="js_loadScript">
<polygon fill="none" stroke="#000000" points="99.5,-76.5 99.5,-95.5 172.5,-95.5 172.5,-76.5 99.5,-76.5"/>
<text text-anchor="middle" x="136" y="-83.5" font-family="Helvetica,sans-Serif" font-size="10.00" fill="#000000">js_loadScript</text>
</a>
</g>
</g>
<!-- Node71589&#45;&gt;Node71594 -->
<g id="edge6" class="edge">
<title>Node71589&#45;&gt;Node71594</title>
<path fill="none" stroke="#191970" d="M62.9248,-73.3203C74.6546,-75.3556 87.6528,-77.611 99.3954,-79.6485"/>
<polygon fill="#191970" stroke="#191970" points="63.4581,-69.8606 53.0069,-71.5994 62.2613,-76.7575 63.4581,-69.8606"/>
</g>
<!-- Node71600 -->
<g id="node9" class="node">
<title>Node71600</title>
<g id="a_node9"><a xlink:href="quickjs-libc_8c.html#ad61d60681847f324c5ba4ad88c546f1e" target="_top" xlink:title="js_module_loader">
<polygon fill="none" stroke="#000000" points="228,-38.5 228,-57.5 320,-57.5 320,-38.5 228,-38.5"/>
<text text-anchor="middle" x="274" y="-45.5" font-family="Helvetica,sans-Serif" font-size="10.00" fill="#000000">js_module_loader</text>
</a>
</g>
</g>
<!-- Node71589&#45;&gt;Node71600 -->
<g id="edge10" class="edge">
<title>Node71589&#45;&gt;Node71600</title>
<path fill="none" stroke="#191970" d="M63.6732,-64.1463C107.4863,-60.7829 180.3161,-55.1919 227.7397,-51.5513"/>
<polygon fill="#191970" stroke="#191970" points="63.1607,-60.6753 53.458,-64.9305 63.6966,-67.6547 63.1607,-60.6753"/>
</g>
<!-- Node71591 -->
<g id="node3" class="node">
<title>Node71591</title>
<g id="a_node3"><a xlink:href="qjs_8cpp.html#a3c04138a5bfe5d72780bb7e82a18e627" target="_top" xlink:title="main">
<polygon fill="none" stroke="#000000" points="381,-95.5 381,-114.5 419,-114.5 419,-95.5 381,-95.5"/>
<text text-anchor="middle" x="400" y="-102.5" font-family="Helvetica,sans-Serif" font-size="10.00" fill="#000000">main</text>
</a>
</g>
</g>
<!-- Node71590&#45;&gt;Node71591 -->
<g id="edge2" class="edge">
<title>Node71590&#45;&gt;Node71591</title>
<path fill="none" stroke="#191970" d="M177.0314,-136.0386C216.5157,-145.7593 277.6273,-155.8831 329,-143 350.8331,-137.5248 373.2864,-123.9065 386.9443,-114.5532"/>
<polygon fill="#191970" stroke="#191970" points="177.7887,-132.6196 167.2326,-133.5247 176.0491,-139.4001 177.7887,-132.6196"/>
</g>
<!-- Node71592 -->
<g id="node4" class="node">
<title>Node71592</title>
<g id="a_node4"><a xlink:href="classqjs_1_1Context.html#a003bfbb1ead4106d2f1fad18cedbdad1" target="_top" xlink:title="qjs::Context::evalFile">
<polygon fill="none" stroke="#000000" points="219,-114.5 219,-133.5 329,-133.5 329,-114.5 219,-114.5"/>
<text text-anchor="middle" x="274" y="-121.5" font-family="Helvetica,sans-Serif" font-size="10.00" fill="#000000">qjs::Context::evalFile</text>
</a>
</g>
</g>
<!-- Node71590&#45;&gt;Node71592 -->
<g id="edge3" class="edge">
<title>Node71590&#45;&gt;Node71592</title>
<path fill="none" stroke="#191970" d="M193.1799,-124C201.5649,-124 210.1899,-124 218.5396,-124"/>
<polygon fill="#191970" stroke="#191970" points="193.1058,-120.5001 183.1058,-124 193.1058,-127.5001 193.1058,-120.5001"/>
</g>
<!-- Node71592&#45;&gt;Node71591 -->
<g id="edge4" class="edge">
<title>Node71592&#45;&gt;Node71591</title>
<path fill="none" stroke="#191970" d="M339.2955,-114.1538C354.5769,-111.8495 369.6779,-109.5724 380.9958,-107.8657"/>
<polygon fill="#191970" stroke="#191970" points="338.6317,-110.7143 329.2654,-115.6663 339.6756,-117.636 338.6317,-110.7143"/>
</g>
<!-- Node71595 -->
<g id="node7" class="node">
<title>Node71595</title>
<g id="a_node7"><a xlink:href="quickjs-libc_8c.html#ad04466feec6822a3b838baf229f6dfa0" target="_top" xlink:title="js_std_add_helpers">
<polygon fill="none" stroke="#000000" points="223.5,-76.5 223.5,-95.5 324.5,-95.5 324.5,-76.5 223.5,-76.5"/>
<text text-anchor="middle" x="274" y="-83.5" font-family="Helvetica,sans-Serif" font-size="10.00" fill="#000000">js_std_add_helpers</text>
</a>
</g>
</g>
<!-- Node71594&#45;&gt;Node71595 -->
<g id="edge7" class="edge">
<title>Node71594&#45;&gt;Node71595</title>
<path fill="none" stroke="#191970" d="M182.8108,-86C195.8888,-86 210.157,-86 223.4411,-86"/>
<polygon fill="#191970" stroke="#191970" points="182.6192,-82.5001 172.6192,-86 182.6191,-89.5001 182.6192,-82.5001"/>
</g>
<!-- Node71595&#45;&gt;Node71591 -->
<g id="edge8" class="edge">
<title>Node71595&#45;&gt;Node71591</title>
<path fill="none" stroke="#191970" d="M334.8711,-95.179C351.6002,-97.7016 368.5296,-100.2545 380.9339,-102.125"/>
<polygon fill="#191970" stroke="#191970" points="334.9331,-91.6488 324.523,-93.6185 333.8893,-98.5706 334.9331,-91.6488"/>
</g>
<!-- Node71596 -->
<g id="node8" class="node">
<title>Node71596</title>
<g id="a_node8"><a xlink:href="quickjs-libc_8c.html#a1fbb3adc15e7b967479fc1940e99b67a" target="_top" xlink:title="worker_func">
<polygon fill="none" stroke="#ff0000" points="365,-57.5 365,-76.5 435,-76.5 435,-57.5 365,-57.5"/>
<text text-anchor="middle" x="400" y="-64.5" font-family="Helvetica,sans-Serif" font-size="10.00" fill="#000000">worker_func</text>
</a>
</g>
</g>
<!-- Node71595&#45;&gt;Node71596 -->
<g id="edge9" class="edge">
<title>Node71595&#45;&gt;Node71596</title>
<path fill="none" stroke="#191970" d="M334.476,-76.8806C344.926,-75.3048 355.4687,-73.715 364.9517,-72.2851"/>
<polygon fill="#191970" stroke="#191970" points="333.8893,-73.4294 324.523,-78.3815 334.9331,-80.3512 333.8893,-73.4294"/>
</g>
<!-- Node71600&#45;&gt;Node71591 -->
<g id="edge11" class="edge">
<title>Node71600&#45;&gt;Node71591</title>
<path fill="none" stroke="#191970" d="M314.004,-60.9814C319.0991,-62.8792 324.2052,-64.9045 329,-67 331.7223,-68.1897 362.1386,-84.5566 382.2673,-95.4187"/>
<polygon fill="#191970" stroke="#191970" points="314.8985,-57.584 304.304,-57.5041 312.5363,-64.1734 314.8985,-57.584"/>
</g>
<!-- Node71600&#45;&gt;Node71596 -->
<g id="edge12" class="edge">
<title>Node71600&#45;&gt;Node71596</title>
<path fill="none" stroke="#191970" d="M330.3898,-56.5032C342.1203,-58.2721 354.1598,-60.0876 364.8575,-61.7007"/>
<polygon fill="#191970" stroke="#191970" points="330.6124,-52.9973 320.2023,-54.967 329.5686,-59.919 330.6124,-52.9973"/>
</g>
</g>
</svg>
