<?xml version="1.0" encoding="UTF-8" standalone="no"?>
<!DOCTYPE svg PUBLIC "-//W3C//DTD SVG 1.1//EN"
 "http://www.w3.org/Graphics/SVG/1.1/DTD/svg11.dtd">
<!-- Generated by graphviz version 2.40.1 (20161225.0304)
 -->
<!-- Title: js_regexp_constructor Pages: 1 -->
<svg width="549pt" height="28pt"
 viewBox="0.00 0.00 549.00 28.00" xmlns="http://www.w3.org/2000/svg" xmlns:xlink="http://www.w3.org/1999/xlink">
<g id="graph0" class="graph" transform="scale(1 1) rotate(0) translate(4 24)">
<title>js_regexp_constructor</title>
<!-- Node424851 -->
<g id="node1" class="node">
<title>Node424851</title>
<polygon fill="#bfbfbf" stroke="#000000" points="0,-.5 0,-19.5 113,-19.5 113,-.5 0,-.5"/>
<text text-anchor="middle" x="56.5" y="-7.5" font-family="Helvetica,sans-Serif" font-size="10.00" fill="#000000">js_regexp_constructor</text>
</g>
<!-- Node424852 -->
<g id="node2" class="node">
<title>Node424852</title>
<g id="a_node2"><a xlink:href="quickjs_8c.html#aafc8241682ce24b6d72e0f237ee85a51" target="_top" xlink:title="JS_AddIntrinsicRegExp">
<polygon fill="none" stroke="#000000" points="149,-.5 149,-19.5 270,-19.5 270,-.5 149,-.5"/>
<text text-anchor="middle" x="209.5" y="-7.5" font-family="Helvetica,sans-Serif" font-size="10.00" fill="#000000">JS_AddIntrinsicRegExp</text>
</a>
</g>
</g>
<!-- Node424851&#45;&gt;Node424852 -->
<g id="edge1" class="edge">
<title>Node424851&#45;&gt;Node424852</title>
<path fill="none" stroke="#191970" d="M123.2882,-10C131.782,-10 140.4381,-10 148.8286,-10"/>
<polygon fill="#191970" stroke="#191970" points="123.0369,-6.5001 113.0369,-10 123.0368,-13.5001 123.0369,-6.5001"/>
</g>
<!-- Node424853 -->
<g id="node3" class="node">
<title>Node424853</title>
<g id="a_node3"><a xlink:href="quickjs_8c.html#ad8aedb643b8753b7a15f6cb2df61945e" target="_top" xlink:title="JS_NewContext">
<polygon fill="none" stroke="#000000" points="306,-.5 306,-19.5 395,-19.5 395,-.5 306,-.5"/>
<text text-anchor="middle" x="350.5" y="-7.5" font-family="Helvetica,sans-Serif" font-size="10.00" fill="#000000">JS_NewContext</text>
</a>
</g>
</g>
<!-- Node424852&#45;&gt;Node424853 -->
<g id="edge2" class="edge">
<title>Node424852&#45;&gt;Node424853</title>
<path fill="none" stroke="#191970" d="M280.2517,-10C288.9114,-10 297.5661,-10 305.693,-10"/>
<polygon fill="#191970" stroke="#191970" points="280.115,-6.5001 270.115,-10 280.1149,-13.5001 280.115,-6.5001"/>
</g>
<!-- Node424854 -->
<g id="node4" class="node">
<title>Node424854</title>
<g id="a_node4"><a xlink:href="classqjs_1_1Context.html#a4392a23648acfc4bf6b445336efb5007" target="_top" xlink:title="qjs::Context::Context">
<polygon fill="none" stroke="#ff0000" points="431,-.5 431,-19.5 541,-19.5 541,-.5 431,-.5"/>
<text text-anchor="middle" x="486" y="-7.5" font-family="Helvetica,sans-Serif" font-size="10.00" fill="#000000">qjs::Context::Context</text>
</a>
</g>
</g>
<!-- Node424853&#45;&gt;Node424854 -->
<g id="edge3" class="edge">
<title>Node424853&#45;&gt;Node424854</title>
<path fill="none" stroke="#191970" d="M405.3476,-10C413.7739,-10 422.4767,-10 430.9083,-10"/>
<polygon fill="#191970" stroke="#191970" points="405.2433,-6.5001 395.2433,-10 405.2433,-13.5001 405.2433,-6.5001"/>
</g>
</g>
</svg>
