<?xml version="1.0" encoding="UTF-8" standalone="no"?>
<!DOCTYPE svg PUBLIC "-//W3C//DTD SVG 1.1//EN"
 "http://www.w3.org/Graphics/SVG/1.1/DTD/svg11.dtd">
<!-- Generated by graphviz version 2.40.1 (20161225.0304)
 -->
<!-- Title: js_typed_array_constructor_obj Pages: 1 -->
<svg width="995pt" height="808pt"
 viewBox="0.00 0.00 995.00 807.67" xmlns="http://www.w3.org/2000/svg" xmlns:xlink="http://www.w3.org/1999/xlink">
<g id="graph0" class="graph" transform="scale(1 1) rotate(0) translate(4 803.671)">
<title>js_typed_array_constructor_obj</title>
<!-- Node483065 -->
<g id="node1" class="node">
<title>Node483065</title>
<polygon fill="#bfbfbf" stroke="#000000" points="0,-368.7262 0,-387.7262 152,-387.7262 152,-368.7262 0,-368.7262"/>
<text text-anchor="middle" x="76" y="-375.7262" font-family="Helvetica,sans-Serif" font-size="10.00" fill="#000000">js_typed_array_constructor_obj</text>
</g>
<!-- Node483066 -->
<g id="node2" class="node">
<title>Node483066</title>
<g id="a_node2"><a xlink:href="quickjs_8c.html#aca93646daffcd067d273c79efa6dda37" target="_top" xlink:title="js_array_buffer_constructor1">
<polygon fill="none" stroke="#000000" points="188,-634.7262 188,-653.7262 328,-653.7262 328,-634.7262 188,-634.7262"/>
<text text-anchor="middle" x="258" y="-641.7262" font-family="Helvetica,sans-Serif" font-size="10.00" fill="#000000">js_array_buffer_constructor1</text>
</a>
</g>
</g>
<!-- Node483065&#45;&gt;Node483066 -->
<g id="edge1" class="edge">
<title>Node483065&#45;&gt;Node483066</title>
<path fill="none" stroke="#191970" d="M77.7165,-388.1719C84.532,-424.6721 113.0518,-552.6365 188,-620.2262 192.4617,-624.2499 197.6293,-627.6044 203.096,-630.4"/>
<polygon fill="#191970" stroke="#191970" points="201.9481,-633.7202 212.5066,-634.5964 204.799,-627.3271 201.9481,-633.7202"/>
</g>
<!-- Node483070 -->
<g id="node5" class="node">
<title>Node483070</title>
<g id="a_node5"><a xlink:href="quickjs_8c.html#a93dbf502b17d1328c524401335f60499" target="_top" xlink:title="js_create_from_ctor">
<polygon fill="none" stroke="#ff0000" points="739,-710.7262 739,-729.7262 842,-729.7262 842,-710.7262 739,-710.7262"/>
<text text-anchor="middle" x="790.5" y="-717.7262" font-family="Helvetica,sans-Serif" font-size="10.00" fill="#000000">js_create_from_ctor</text>
</a>
</g>
</g>
<!-- Node483065&#45;&gt;Node483070 -->
<g id="edge26" class="edge">
<title>Node483065&#45;&gt;Node483070</title>
<path fill="none" stroke="#191970" d="M76.4214,-387.9032C78.786,-429.1524 93.9731,-591.4574 188,-663.2262 271.5349,-726.9868 592.4,-725.9057 728.6901,-722.3862"/>
<polygon fill="#191970" stroke="#191970" points="729.0575,-725.8776 738.9587,-722.1073 728.8673,-718.8802 729.0575,-725.8776"/>
</g>
<!-- Node483071 -->
<g id="node6" class="node">
<title>Node483071</title>
<g id="a_node6"><a xlink:href="quickjs_8h.html#a775522f2d084fc8fa0fcb33f390006b4" target="_top" xlink:title="JS_DupValue">
<polygon fill="none" stroke="#000000" points="905.5,-710.7262 905.5,-729.7262 982.5,-729.7262 982.5,-710.7262 905.5,-710.7262"/>
<text text-anchor="middle" x="944" y="-717.7262" font-family="Helvetica,sans-Serif" font-size="10.00" fill="#000000">JS_DupValue</text>
</a>
</g>
</g>
<!-- Node483065&#45;&gt;Node483071 -->
<g id="edge27" class="edge">
<title>Node483065&#45;&gt;Node483071</title>
<path fill="none" stroke="#191970" d="M76.2347,-387.8241C77.8351,-431.0816 90.3406,-609.6478 188,-698.2262 271.3578,-773.8329 321.4616,-758.2262 434,-758.2262 434,-758.2262 434,-758.2262 610,-758.2262 723.6475,-758.2262 752.7184,-756.7934 865,-739.2262 876.3106,-737.4566 888.3894,-734.8995 899.6126,-732.232"/>
<polygon fill="#191970" stroke="#191970" points="900.7561,-735.5553 909.6324,-729.7707 899.0862,-728.7574 900.7561,-735.5553"/>
</g>
<!-- Node483072 -->
<g id="node7" class="node">
<title>Node483072</title>
<g id="a_node7"><a xlink:href="quickjs_8h.html#afaa20c47565bc704c6c85f3d77254e7d" target="_top" xlink:title="JS_FreeValue">
<polygon fill="none" stroke="#ff0000" points="905,-292.7262 905,-311.7262 983,-311.7262 983,-292.7262 905,-292.7262"/>
<text text-anchor="middle" x="944" y="-299.7262" font-family="Helvetica,sans-Serif" font-size="10.00" fill="#000000">JS_FreeValue</text>
</a>
</g>
</g>
<!-- Node483065&#45;&gt;Node483072 -->
<g id="edge28" class="edge">
<title>Node483065&#45;&gt;Node483072</title>
<path fill="none" stroke="#191970" d="M77.7161,-368.426C86.9064,-317.1276 131.9829,-80.2153 188,-36.2262 274.2451,31.5003 324.341,-17.2262 434,-17.2262 434,-17.2262 434,-17.2262 610,-17.2262 724.0639,-17.2262 777.2,26.5868 865,-46.2262 902.3527,-77.203 931.2981,-227.7545 940.7264,-282.3778"/>
<polygon fill="#191970" stroke="#191970" points="937.3197,-283.2238 942.438,-292.5002 944.2217,-282.0566 937.3197,-283.2238"/>
</g>
<!-- Node483112 -->
<g id="node8" class="node">
<title>Node483112</title>
<g id="a_node8"><a xlink:href="quickjs_8h.html#a89b7c8686c7eee70b86be722ee4730ad" target="_top" xlink:title="JS_GetProperty">
<polygon fill="none" stroke="#ff0000" points="901,-444.7262 901,-463.7262 987,-463.7262 987,-444.7262 901,-444.7262"/>
<text text-anchor="middle" x="944" y="-451.7262" font-family="Helvetica,sans-Serif" font-size="10.00" fill="#000000">JS_GetProperty</text>
</a>
</g>
</g>
<!-- Node483065&#45;&gt;Node483112 -->
<g id="edge36" class="edge">
<title>Node483065&#45;&gt;Node483112</title>
<path fill="none" stroke="#191970" d="M98.758,-368.6785C214.4141,-320.8298 736.5478,-113.0852 865,-207.2262 907.8558,-238.6347 884.8273,-270.6144 901,-321.2262 913.9263,-361.6785 929.2739,-408.9759 937.6919,-434.8565"/>
<polygon fill="#191970" stroke="#191970" points="934.4251,-436.1286 940.8481,-444.5545 941.0815,-433.9623 934.4251,-436.1286"/>
</g>
<!-- Node483121 -->
<g id="node9" class="node">
<title>Node483121</title>
<g id="a_node9"><a xlink:href="quickjs_8h.html#ad80a83d73e9b7d872b88fbf2943aebe9" target="_top" xlink:title="JS_IsException">
<polygon fill="none" stroke="#000000" points="901,-558.7262 901,-577.7262 987,-577.7262 987,-558.7262 901,-558.7262"/>
<text text-anchor="middle" x="944" y="-565.7262" font-family="Helvetica,sans-Serif" font-size="10.00" fill="#000000">JS_IsException</text>
</a>
</g>
</g>
<!-- Node483065&#45;&gt;Node483121 -->
<g id="edge39" class="edge">
<title>Node483065&#45;&gt;Node483121</title>
<path fill="none" stroke="#191970" d="M83.413,-387.7328C117.9705,-430.8836 268.5722,-606.2262 434,-606.2262 434,-606.2262 434,-606.2262 610,-606.2262 723.7543,-606.2262 752.4059,-600.4315 865,-584.2262 873.6547,-582.9806 882.791,-581.3898 891.6581,-579.6966"/>
<polygon fill="#191970" stroke="#191970" points="892.3803,-583.1217 901.515,-577.7543 891.027,-576.2537 892.3803,-583.1217"/>
</g>
<!-- Node483275 -->
<g id="node10" class="node">
<title>Node483275</title>
<g id="a_node10"><a xlink:href="quickjs_8h.html#a4e407128a9605afb77523e49e9a627fd" target="_top" xlink:title="JS_IsUndefined">
<polygon fill="none" stroke="#000000" points="901,-767.7262 901,-786.7262 987,-786.7262 987,-767.7262 901,-767.7262"/>
<text text-anchor="middle" x="944" y="-774.7262" font-family="Helvetica,sans-Serif" font-size="10.00" fill="#000000">JS_IsUndefined</text>
</a>
</g>
</g>
<!-- Node483065&#45;&gt;Node483275 -->
<g id="edge41" class="edge">
<title>Node483065&#45;&gt;Node483275</title>
<path fill="none" stroke="#191970" d="M77.6163,-387.8079C86.6317,-440.1414 132.3084,-690.9451 188,-742.2262 270.3445,-818.0494 322.0635,-796.2262 434,-796.2262 434,-796.2262 434,-796.2262 610,-796.2262 709.2349,-796.2262 824.7871,-787.7627 890.6715,-782.1331"/>
<polygon fill="#191970" stroke="#191970" points="891.1481,-785.605 900.809,-781.2556 890.5444,-778.6311 891.1481,-785.605"/>
</g>
<!-- Node483501 -->
<g id="node12" class="node">
<title>Node483501</title>
<g id="a_node12"><a xlink:href="quickjs_8c.html#a54596af885c45bf0281d53985349e9ef" target="_top" xlink:title="js_array_from_iterator">
<polygon fill="none" stroke="#000000" points="554.5,-368.7262 554.5,-387.7262 665.5,-387.7262 665.5,-368.7262 554.5,-368.7262"/>
<text text-anchor="middle" x="610" y="-375.7262" font-family="Helvetica,sans-Serif" font-size="10.00" fill="#000000">js_array_from_iterator</text>
</a>
</g>
</g>
<!-- Node483065&#45;&gt;Node483501 -->
<g id="edge13" class="edge">
<title>Node483065&#45;&gt;Node483501</title>
<path fill="none" stroke="#191970" d="M152.2254,-378.2262C257.2908,-378.2262 444.855,-378.2262 544.1448,-378.2262"/>
<polygon fill="#191970" stroke="#191970" points="544.347,-381.7263 554.347,-378.2262 544.3469,-374.7263 544.347,-381.7263"/>
</g>
<!-- Node483502 -->
<g id="node17" class="node">
<title>Node483502</title>
<g id="a_node17"><a xlink:href="quickjs_8c.html#a5f848f76409193212a44e6221e430919" target="_top" xlink:title="js_get_length64">
<polygon fill="none" stroke="#000000" points="391.5,-501.7262 391.5,-520.7262 476.5,-520.7262 476.5,-501.7262 391.5,-501.7262"/>
<text text-anchor="middle" x="434" y="-508.7262" font-family="Helvetica,sans-Serif" font-size="10.00" fill="#000000">js_get_length64</text>
</a>
</g>
</g>
<!-- Node483065&#45;&gt;Node483502 -->
<g id="edge29" class="edge">
<title>Node483065&#45;&gt;Node483502</title>
<path fill="none" stroke="#191970" d="M101.7465,-387.7913C164.6798,-411.1715 326.4094,-471.2554 398.4547,-498.0209"/>
<polygon fill="#191970" stroke="#191970" points="397.4129,-501.3675 408.0058,-501.5692 399.8507,-494.8057 397.4129,-501.3675"/>
</g>
<!-- Node483196 -->
<g id="node20" class="node">
<title>Node483196</title>
<g id="a_node20"><a xlink:href="quickjs_8c.html#aeb97957655d979e9fe56c955da2b2d4b" target="_top" xlink:title="JS_GetPropertyUint32">
<polygon fill="none" stroke="#ff0000" points="200.5,-121.7262 200.5,-140.7262 315.5,-140.7262 315.5,-121.7262 200.5,-121.7262"/>
<text text-anchor="middle" x="258" y="-128.7262" font-family="Helvetica,sans-Serif" font-size="10.00" fill="#000000">JS_GetPropertyUint32</text>
</a>
</g>
</g>
<!-- Node483065&#45;&gt;Node483196 -->
<g id="edge37" class="edge">
<title>Node483065&#45;&gt;Node483196</title>
<path fill="none" stroke="#191970" d="M77.7679,-368.6899C84.7625,-333.7219 113.8283,-211.3951 188,-150.2262 190.0401,-148.5437 192.2166,-147.0094 194.4933,-145.6103"/>
<polygon fill="#191970" stroke="#191970" points="196.4172,-148.5559 203.6953,-140.8565 193.2043,-142.3368 196.4172,-148.5559"/>
</g>
<!-- Node483273 -->
<g id="node22" class="node">
<title>Node483273</title>
<g id="a_node22"><a xlink:href="quickjs_8h.html#a149f24b67e745bad93573b3b4c80db4c" target="_top" xlink:title="JS_IsNull">
<polygon fill="none" stroke="#000000" points="228.5,-83.7262 228.5,-102.7262 287.5,-102.7262 287.5,-83.7262 228.5,-83.7262"/>
<text text-anchor="middle" x="258" y="-90.7262" font-family="Helvetica,sans-Serif" font-size="10.00" fill="#000000">JS_IsNull</text>
</a>
</g>
</g>
<!-- Node483065&#45;&gt;Node483273 -->
<g id="edge40" class="edge">
<title>Node483065&#45;&gt;Node483273</title>
<path fill="none" stroke="#191970" d="M77.0663,-368.4959C81.8443,-329.7423 104.8381,-184.9677 188,-112.2262 196.4904,-104.7997 207.6098,-100.2441 218.4788,-97.4596"/>
<polygon fill="#191970" stroke="#191970" points="219.2546,-100.8729 228.3075,-95.3687 217.7981,-94.0261 219.2546,-100.8729"/>
</g>
<!-- Node483506 -->
<g id="node23" class="node">
<title>Node483506</title>
<g id="a_node23"><a xlink:href="quickjs_8c.html#aae909eaec829081b270012adfcd717a4" target="_top" xlink:title="JS_SetPropertyUint32">
<polygon fill="none" stroke="#000000" points="201,-45.7262 201,-64.7262 315,-64.7262 315,-45.7262 201,-45.7262"/>
<text text-anchor="middle" x="258" y="-52.7262" font-family="Helvetica,sans-Serif" font-size="10.00" fill="#000000">JS_SetPropertyUint32</text>
</a>
</g>
</g>
<!-- Node483065&#45;&gt;Node483506 -->
<g id="edge42" class="edge">
<title>Node483065&#45;&gt;Node483506</title>
<path fill="none" stroke="#191970" d="M76.4921,-368.5967C79.1652,-326.7411 95.496,-158.9326 188,-74.2262 189.6978,-72.6715 191.5101,-71.242 193.4118,-69.9277"/>
<polygon fill="#191970" stroke="#191970" points="195.3049,-72.877 202.2456,-64.8721 191.8279,-66.8016 195.3049,-72.877"/>
</g>
<!-- Node483507 -->
<g id="node25" class="node">
<title>Node483507</title>
<g id="a_node25"><a xlink:href="quickjs_8c.html#aa74340c43f57c6a6d9210a7cbb191e71" target="_top" xlink:title="typed_array_init">
<polygon fill="none" stroke="#000000" points="215,-159.7262 215,-178.7262 301,-178.7262 301,-159.7262 215,-159.7262"/>
<text text-anchor="middle" x="258" y="-166.7262" font-family="Helvetica,sans-Serif" font-size="10.00" fill="#000000">typed_array_init</text>
</a>
</g>
</g>
<!-- Node483065&#45;&gt;Node483507 -->
<g id="edge46" class="edge">
<title>Node483065&#45;&gt;Node483507</title>
<path fill="none" stroke="#191970" d="M79.1479,-368.5687C89.5475,-338.1557 125.7336,-243.4095 188,-193.2262 193.2422,-189.0013 199.2715,-185.5005 205.5462,-182.6042"/>
<polygon fill="#191970" stroke="#191970" points="206.9329,-185.8184 214.8515,-178.7796 204.2717,-179.344 206.9329,-185.8184"/>
</g>
<!-- Node483067 -->
<g id="node3" class="node">
<title>Node483067</title>
<g id="a_node3"><a xlink:href="quickjs_8c.html#a26d438ccdb07d84370683eb01eda3013" target="_top" xlink:title="js_array_buffer_constructor2">
<polygon fill="none" stroke="#000000" points="364,-634.7262 364,-653.7262 504,-653.7262 504,-634.7262 364,-634.7262"/>
<text text-anchor="middle" x="434" y="-641.7262" font-family="Helvetica,sans-Serif" font-size="10.00" fill="#000000">js_array_buffer_constructor2</text>
</a>
</g>
</g>
<!-- Node483066&#45;&gt;Node483067 -->
<g id="edge2" class="edge">
<title>Node483066&#45;&gt;Node483067</title>
<path fill="none" stroke="#191970" d="M328.0656,-644.2262C336.5403,-644.2262 345.2467,-644.2262 353.8522,-644.2262"/>
<polygon fill="#191970" stroke="#191970" points="353.888,-647.7263 363.888,-644.2262 353.8879,-640.7263 353.888,-647.7263"/>
</g>
<!-- Node483068 -->
<g id="node4" class="node">
<title>Node483068</title>
<g id="a_node4"><a xlink:href="quickjs_8c.html#a06f84cf8ea00e2baf1a9b94f1a319b18" target="_top" xlink:title="js_array_buffer_constructor3">
<polygon fill="none" stroke="#ff0000" points="540,-634.7262 540,-653.7262 680,-653.7262 680,-634.7262 540,-634.7262"/>
<text text-anchor="middle" x="610" y="-641.7262" font-family="Helvetica,sans-Serif" font-size="10.00" fill="#000000">js_array_buffer_constructor3</text>
</a>
</g>
</g>
<!-- Node483067&#45;&gt;Node483068 -->
<g id="edge3" class="edge">
<title>Node483067&#45;&gt;Node483068</title>
<path fill="none" stroke="#191970" d="M504.0656,-644.2262C512.5403,-644.2262 521.2467,-644.2262 529.8522,-644.2262"/>
<polygon fill="#191970" stroke="#191970" points="529.888,-647.7263 539.888,-644.2262 529.8879,-640.7263 529.888,-647.7263"/>
</g>
<!-- Node483500 -->
<g id="node11" class="node">
<title>Node483500</title>
<g id="a_node11"><a xlink:href="quickjs_8c.html#a4e2ed26457b779e5bd73472de8be124c" target="_top" xlink:title="js_array_buffer_free">
<polygon fill="none" stroke="#ff0000" points="558.5,-672.7262 558.5,-691.7262 661.5,-691.7262 661.5,-672.7262 558.5,-672.7262"/>
<text text-anchor="middle" x="610" y="-679.7262" font-family="Helvetica,sans-Serif" font-size="10.00" fill="#000000">js_array_buffer_free</text>
</a>
</g>
</g>
<!-- Node483067&#45;&gt;Node483500 -->
<g id="edge12" class="edge">
<title>Node483067&#45;&gt;Node483500</title>
<path fill="none" stroke="#191970" d="M478.4122,-653.8152C501.9512,-658.8975 531.0567,-665.1817 555.9048,-670.5466"/>
<polygon fill="#191970" stroke="#191970" points="555.3937,-674.0168 565.9071,-672.7062 556.8711,-667.1745 555.3937,-674.0168"/>
</g>
<!-- Node483068&#45;&gt;Node483070 -->
<g id="edge4" class="edge">
<title>Node483068&#45;&gt;Node483070</title>
<path fill="none" stroke="#191970" d="M658.862,-653.7677C666.2241,-656.2469 673.5147,-659.3499 680,-663.2262 699.9693,-675.162 695.9398,-689.4439 716,-701.2262 720.1686,-703.6747 724.6489,-705.8106 729.2693,-707.6735"/>
<polygon fill="#191970" stroke="#191970" points="728.3003,-711.0442 738.8948,-711.1263 730.6639,-704.4553 728.3003,-711.0442"/>
</g>
<!-- Node483068&#45;&gt;Node483072 -->
<g id="edge10" class="edge">
<title>Node483068&#45;&gt;Node483072</title>
<path fill="none" stroke="#191970" d="M619.4231,-634.6367C634.7191,-618.4784 664.7709,-584.1563 680,-549.2262 714.3491,-470.4417 656.5613,-421.3061 716,-359.2262 763.0442,-310.0917 799.1096,-341.1321 865,-324.2262 876.7327,-321.2159 889.3923,-317.7766 901.067,-314.526"/>
<polygon fill="#191970" stroke="#191970" points="902.3414,-317.8037 911.0248,-311.7334 900.4512,-311.0637 902.3414,-317.8037"/>
</g>
<!-- Node483068&#45;&gt;Node483121 -->
<g id="edge11" class="edge">
<title>Node483068&#45;&gt;Node483121</title>
<path fill="none" stroke="#191970" d="M680.1255,-646.6505C732.4736,-646.3289 805.0105,-641.3111 865,-620.2262 887.5319,-612.3068 909.9627,-596.5998 925.1335,-584.5112"/>
<polygon fill="#191970" stroke="#191970" points="927.6735,-586.9538 933.1728,-577.898 923.2265,-581.5479 927.6735,-586.9538"/>
</g>
<!-- Node483070&#45;&gt;Node483071 -->
<g id="edge5" class="edge">
<title>Node483070&#45;&gt;Node483071</title>
<path fill="none" stroke="#191970" d="M842.0403,-720.2262C859.2065,-720.2262 878.2654,-720.2262 895.2161,-720.2262"/>
<polygon fill="#191970" stroke="#191970" points="895.4621,-723.7263 905.4621,-720.2262 895.462,-716.7263 895.4621,-723.7263"/>
</g>
<!-- Node483070&#45;&gt;Node483072 -->
<g id="edge6" class="edge">
<title>Node483070&#45;&gt;Node483072</title>
<path fill="none" stroke="#191970" d="M842.254,-715.5004C850.8751,-712.5205 858.9619,-708.0032 865,-701.2262 904.681,-656.6893 887.7725,-493.3911 901,-435.2262 910.4172,-393.8161 927.0533,-346.8704 936.638,-321.3083"/>
<polygon fill="#191970" stroke="#191970" points="939.9931,-322.332 940.2724,-311.7408 933.4493,-319.8461 939.9931,-322.332"/>
</g>
<!-- Node483070&#45;&gt;Node483112 -->
<g id="edge7" class="edge">
<title>Node483070&#45;&gt;Node483112</title>
<path fill="none" stroke="#191970" d="M842.1106,-714.8781C850.64,-711.9449 858.7307,-707.604 865,-701.2262 913.6677,-651.7165 878.5824,-614.9317 901,-549.2262 910.3159,-521.9214 924.6962,-491.7982 934.2258,-472.9461"/>
<polygon fill="#191970" stroke="#191970" points="937.3874,-474.4509 938.8363,-463.9556 931.1587,-471.2567 937.3874,-474.4509"/>
</g>
<!-- Node483070&#45;&gt;Node483121 -->
<g id="edge8" class="edge">
<title>Node483070&#45;&gt;Node483121</title>
<path fill="none" stroke="#191970" d="M842.2033,-712.701C850.335,-709.9721 858.2663,-706.2634 865,-701.2262 904.2637,-671.8545 927.7052,-616.7281 937.9217,-587.5232"/>
<polygon fill="#191970" stroke="#191970" points="941.2435,-588.6258 941.0922,-578.032 934.6041,-586.4079 941.2435,-588.6258"/>
</g>
<!-- Node483070&#45;&gt;Node483275 -->
<g id="edge9" class="edge">
<title>Node483070&#45;&gt;Node483275</title>
<path fill="none" stroke="#191970" d="M816.1924,-729.7667C841.5392,-739.1789 880.4828,-753.64 908.7216,-764.1261"/>
<polygon fill="#191970" stroke="#191970" points="907.6308,-767.4545 918.2237,-767.6546 910.0676,-760.8923 907.6308,-767.4545"/>
</g>
<!-- Node483501&#45;&gt;Node483072 -->
<g id="edge15" class="edge">
<title>Node483501&#45;&gt;Node483072</title>
<path fill="none" stroke="#191970" d="M612.4652,-368.4362C620.7811,-337.7616 650.995,-243.412 716,-207.2262 773.8615,-175.017 805.0444,-179.1066 865,-207.2262 898.4962,-222.9362 922.717,-260.5999 934.956,-283.5042"/>
<polygon fill="#191970" stroke="#191970" points="931.9279,-285.2703 939.5936,-292.5838 938.1618,-282.0862 931.9279,-285.2703"/>
</g>
<!-- Node483501&#45;&gt;Node483112 -->
<g id="edge19" class="edge">
<title>Node483501&#45;&gt;Node483112</title>
<path fill="none" stroke="#191970" d="M623.5939,-387.9317C643.0242,-401.2259 680.3419,-424.6529 716,-435.2262 773.8856,-452.3904 843.4133,-455.8702 890.3498,-455.8648"/>
<polygon fill="#191970" stroke="#191970" points="890.6163,-459.3635 900.5968,-455.8082 890.5776,-452.3636 890.6163,-459.3635"/>
</g>
<!-- Node483501&#45;&gt;Node483121 -->
<g id="edge20" class="edge">
<title>Node483501&#45;&gt;Node483121</title>
<path fill="none" stroke="#191970" d="M620.8998,-387.7799C639.5266,-403.8181 679.0592,-436.6171 716,-459.2262 781.892,-499.5546 865.005,-535.9726 910.4767,-554.7807"/>
<polygon fill="#191970" stroke="#191970" points="909.2765,-558.0714 919.8566,-558.631 911.9347,-551.5957 909.2765,-558.0714"/>
</g>
<!-- Node483333 -->
<g id="node13" class="node">
<title>Node483333</title>
<g id="a_node13"><a xlink:href="quickjs_8c.html#aa44ddb5f94a842c9c5152a17032de580" target="_top" xlink:title="JS_CreateDataPropertyUint32">
<polygon fill="none" stroke="#ff0000" points="716,-216.7262 716,-235.7262 865,-235.7262 865,-216.7262 716,-216.7262"/>
<text text-anchor="middle" x="790.5" y="-223.7262" font-family="Helvetica,sans-Serif" font-size="10.00" fill="#000000">JS_CreateDataPropertyUint32</text>
</a>
</g>
</g>
<!-- Node483501&#45;&gt;Node483333 -->
<g id="edge14" class="edge">
<title>Node483501&#45;&gt;Node483333</title>
<path fill="none" stroke="#191970" d="M614.8919,-368.4059C627.7727,-343.6041 665.1646,-278.0834 716,-245.2262 719.3105,-243.0865 722.8487,-241.1876 726.5178,-239.5024"/>
<polygon fill="#191970" stroke="#191970" points="727.8876,-242.724 735.8533,-235.7384 725.2699,-236.2318 727.8876,-242.724"/>
</g>
<!-- Node483347 -->
<g id="node14" class="node">
<title>Node483347</title>
<g id="a_node14"><a xlink:href="quickjs_8c.html#aa049793cc8648d35fe81876a2543ca4e" target="_top" xlink:title="JS_GetIterator2">
<polygon fill="none" stroke="#ff0000" points="747.5,-368.7262 747.5,-387.7262 833.5,-387.7262 833.5,-368.7262 747.5,-368.7262"/>
<text text-anchor="middle" x="790.5" y="-375.7262" font-family="Helvetica,sans-Serif" font-size="10.00" fill="#000000">JS_GetIterator2</text>
</a>
</g>
</g>
<!-- Node483501&#45;&gt;Node483347 -->
<g id="edge16" class="edge">
<title>Node483501&#45;&gt;Node483347</title>
<path fill="none" stroke="#191970" d="M665.6288,-378.2262C688.4448,-378.2262 714.7405,-378.2262 737.2992,-378.2262"/>
<polygon fill="#191970" stroke="#191970" points="737.3751,-381.7263 747.3751,-378.2262 737.3751,-374.7263 737.3751,-381.7263"/>
</g>
<!-- Node483352 -->
<g id="node15" class="node">
<title>Node483352</title>
<g id="a_node15"><a xlink:href="quickjs_8c.html#a44f6eee98516c994a594533cfa8618ed" target="_top" xlink:title="JS_IteratorNext">
<polygon fill="none" stroke="#ff0000" points="747.5,-406.7262 747.5,-425.7262 833.5,-425.7262 833.5,-406.7262 747.5,-406.7262"/>
<text text-anchor="middle" x="790.5" y="-413.7262" font-family="Helvetica,sans-Serif" font-size="10.00" fill="#000000">JS_IteratorNext</text>
</a>
</g>
</g>
<!-- Node483501&#45;&gt;Node483352 -->
<g id="edge21" class="edge">
<title>Node483501&#45;&gt;Node483352</title>
<path fill="none" stroke="#191970" d="M655.5478,-387.8152C680.4413,-393.056 711.4052,-399.5747 737.3922,-405.0456"/>
<polygon fill="#191970" stroke="#191970" points="736.9455,-408.5283 747.4521,-407.1635 738.3877,-401.6784 736.9455,-408.5283"/>
</g>
<!-- Node483336 -->
<g id="node16" class="node">
<title>Node483336</title>
<g id="a_node16"><a xlink:href="quickjs_8c.html#ad4ba09e4c7ab9f28c144182e1aacf1f6" target="_top" xlink:title="JS_NewArray">
<polygon fill="none" stroke="#ff0000" points="752,-254.7262 752,-273.7262 829,-273.7262 829,-254.7262 752,-254.7262"/>
<text text-anchor="middle" x="790.5" y="-261.7262" font-family="Helvetica,sans-Serif" font-size="10.00" fill="#000000">JS_NewArray</text>
</a>
</g>
</g>
<!-- Node483501&#45;&gt;Node483336 -->
<g id="edge25" class="edge">
<title>Node483501&#45;&gt;Node483336</title>
<path fill="none" stroke="#191970" d="M618.702,-368.6734C635.7136,-350.5309 675.2865,-310.8821 716,-288.2262 724.1095,-283.7135 733.1945,-279.9004 742.1574,-276.7349"/>
<polygon fill="#191970" stroke="#191970" points="743.3877,-280.0146 751.783,-273.5517 741.1898,-273.3685 743.3877,-280.0146"/>
</g>
<!-- Node483347&#45;&gt;Node483072 -->
<g id="edge17" class="edge">
<title>Node483347&#45;&gt;Node483072</title>
<path fill="none" stroke="#191970" d="M826.8825,-368.6614C839.2587,-364.8473 852.991,-359.9813 865,-354.2262 886.0425,-344.142 908.067,-329.2297 923.499,-317.957"/>
<polygon fill="#191970" stroke="#191970" points="925.8335,-320.5826 931.7661,-311.8044 921.6543,-314.967 925.8335,-320.5826"/>
</g>
<!-- Node483347&#45;&gt;Node483121 -->
<g id="edge18" class="edge">
<title>Node483347&#45;&gt;Node483121</title>
<path fill="none" stroke="#191970" d="M833.751,-382.5223C844.8716,-385.332 856.1749,-389.8851 865,-397.2262 866.5929,-398.5513 915.2137,-505.0334 935.3732,-549.2775"/>
<polygon fill="#191970" stroke="#191970" points="932.3038,-550.9826 939.6341,-558.6323 938.6742,-548.081 932.3038,-550.9826"/>
</g>
<!-- Node483352&#45;&gt;Node483072 -->
<g id="edge22" class="edge">
<title>Node483352&#45;&gt;Node483072</title>
<path fill="none" stroke="#191970" d="M833.7517,-410.0292C844.5092,-407.2204 855.6335,-403.1431 865,-397.2262 895.8243,-377.7545 920.5422,-342.2613 933.6743,-320.6047"/>
<polygon fill="#191970" stroke="#191970" points="936.8357,-322.1324 938.8731,-311.7353 930.7967,-318.5926 936.8357,-322.1324"/>
</g>
<!-- Node483352&#45;&gt;Node483112 -->
<g id="edge23" class="edge">
<title>Node483352&#45;&gt;Node483112</title>
<path fill="none" stroke="#191970" d="M829.2345,-425.8152C849.3993,-430.8072 874.2479,-436.9586 895.6611,-442.2596"/>
<polygon fill="#191970" stroke="#191970" points="894.9959,-445.7005 905.544,-444.7062 896.6781,-438.9056 894.9959,-445.7005"/>
</g>
<!-- Node483352&#45;&gt;Node483121 -->
<g id="edge24" class="edge">
<title>Node483352&#45;&gt;Node483121</title>
<path fill="none" stroke="#191970" d="M803.1362,-425.7585C818.379,-437.4752 844.508,-458.2667 865,-478.2262 889.3001,-501.8949 914.7155,-531.9521 929.9537,-550.64"/>
<polygon fill="#191970" stroke="#191970" points="927.3743,-553.0166 936.383,-558.5929 932.818,-548.6158 927.3743,-553.0166"/>
</g>
<!-- Node483502&#45;&gt;Node483112 -->
<g id="edge30" class="edge">
<title>Node483502&#45;&gt;Node483112</title>
<path fill="none" stroke="#191970" d="M476.6051,-506.4645C569.3017,-496.1043 789.1066,-471.5378 890.7523,-460.1774"/>
<polygon fill="#191970" stroke="#191970" points="891.2476,-463.644 900.7969,-459.0548 890.47,-456.6873 891.2476,-463.644"/>
</g>
<!-- Node483502&#45;&gt;Node483121 -->
<g id="edge31" class="edge">
<title>Node483502&#45;&gt;Node483121</title>
<path fill="none" stroke="#191970" d="M454.9897,-520.8567C476.0032,-529.9891 509.509,-543.1847 540,-549.2262 663.7607,-573.7482 812.8175,-573.2072 890.6907,-570.7053"/>
<polygon fill="#191970" stroke="#191970" points="890.8672,-574.2014 900.7405,-570.3585 890.6257,-567.2055 890.8672,-574.2014"/>
</g>
<!-- Node483503 -->
<g id="node18" class="node">
<title>Node483503</title>
<g id="a_node18"><a xlink:href="quickjs_8c.html#a07acd485a57197356906928a788a0644" target="_top" xlink:title="JS_ToLengthFree">
<polygon fill="none" stroke="#000000" points="563,-520.7262 563,-539.7262 657,-539.7262 657,-520.7262 563,-520.7262"/>
<text text-anchor="middle" x="610" y="-527.7262" font-family="Helvetica,sans-Serif" font-size="10.00" fill="#000000">JS_ToLengthFree</text>
</a>
</g>
</g>
<!-- Node483502&#45;&gt;Node483503 -->
<g id="edge32" class="edge">
<title>Node483502&#45;&gt;Node483503</title>
<path fill="none" stroke="#191970" d="M476.6047,-515.8256C499.4948,-518.2967 528.0278,-521.377 552.8236,-524.0538"/>
<polygon fill="#191970" stroke="#191970" points="552.5173,-527.541 562.8352,-525.1346 553.2687,-520.5814 552.5173,-527.541"/>
</g>
<!-- Node483503&#45;&gt;Node483072 -->
<g id="edge33" class="edge">
<title>Node483503&#45;&gt;Node483072</title>
<path fill="none" stroke="#191970" d="M615.1447,-520.5736C626.7957,-498.6873 656.0464,-443.5903 680,-397.2262 696.2396,-365.7933 686.8637,-346.2968 716,-326.2262 768.6341,-289.9692 844.9451,-289.7544 894.5209,-294.6316"/>
<polygon fill="#191970" stroke="#191970" points="894.3555,-298.1342 904.6759,-295.7385 895.1141,-291.1754 894.3555,-298.1342"/>
</g>
<!-- Node483504 -->
<g id="node19" class="node">
<title>Node483504</title>
<g id="a_node19"><a xlink:href="quickjs_8c.html#a537e88d38784e3df2a19c72f8bd1d77e" target="_top" xlink:title="JS_ToInt64Clamp">
<polygon fill="none" stroke="#ff0000" points="743,-672.7262 743,-691.7262 838,-691.7262 838,-672.7262 743,-672.7262"/>
<text text-anchor="middle" x="790.5" y="-679.7262" font-family="Helvetica,sans-Serif" font-size="10.00" fill="#000000">JS_ToInt64Clamp</text>
</a>
</g>
</g>
<!-- Node483503&#45;&gt;Node483504 -->
<g id="edge34" class="edge">
<title>Node483503&#45;&gt;Node483504</title>
<path fill="none" stroke="#191970" d="M621.2911,-539.7345C651.4272,-565.1123 734.0114,-634.6569 771.5188,-666.2421"/>
<polygon fill="#191970" stroke="#191970" points="769.3096,-668.9573 779.2132,-672.7215 773.8185,-663.6029 769.3096,-668.9573"/>
</g>
<!-- Node483504&#45;&gt;Node483071 -->
<g id="edge35" class="edge">
<title>Node483504&#45;&gt;Node483071</title>
<path fill="none" stroke="#191970" d="M829.2345,-691.8152C849.3993,-696.8072 874.2479,-702.9586 895.6611,-708.2596"/>
<polygon fill="#191970" stroke="#191970" points="894.9959,-711.7005 905.544,-710.7062 896.6781,-704.9056 894.9959,-711.7005"/>
</g>
<!-- Node483198 -->
<g id="node21" class="node">
<title>Node483198</title>
<g id="a_node21"><a xlink:href="quickjs_8h.html#a88259aa0da61ac754402c64ccecee116" target="_top" xlink:title="JS_NewUint32">
<polygon fill="none" stroke="#ff0000" points="392.5,-83.7262 392.5,-102.7262 475.5,-102.7262 475.5,-83.7262 392.5,-83.7262"/>
<text text-anchor="middle" x="434" y="-90.7262" font-family="Helvetica,sans-Serif" font-size="10.00" fill="#000000">JS_NewUint32</text>
</a>
</g>
</g>
<!-- Node483196&#45;&gt;Node483198 -->
<g id="edge38" class="edge">
<title>Node483196&#45;&gt;Node483198</title>
<path fill="none" stroke="#191970" d="M302.4122,-121.6372C326.775,-116.3771 357.1008,-109.8295 382.4976,-104.3461"/>
<polygon fill="#191970" stroke="#191970" points="383.2892,-107.7559 392.3253,-102.2242 381.8119,-100.9135 383.2892,-107.7559"/>
</g>
<!-- Node483506&#45;&gt;Node483198 -->
<g id="edge43" class="edge">
<title>Node483506&#45;&gt;Node483198</title>
<path fill="none" stroke="#191970" d="M302.4122,-64.8152C326.775,-70.0754 357.1008,-76.623 382.4976,-82.1064"/>
<polygon fill="#191970" stroke="#191970" points="381.8119,-85.5389 392.3253,-84.2283 383.2892,-78.6966 381.8119,-85.5389"/>
</g>
<!-- Node483289 -->
<g id="node24" class="node">
<title>Node483289</title>
<g id="a_node24"><a xlink:href="quickjs_8c.html#aee75cc1546e19479e3ccda58f3b50a96" target="_top" xlink:title="JS_SetPropertyValue">
<polygon fill="none" stroke="#ff0000" points="555,-45.7262 555,-64.7262 665,-64.7262 665,-45.7262 555,-45.7262"/>
<text text-anchor="middle" x="610" y="-52.7262" font-family="Helvetica,sans-Serif" font-size="10.00" fill="#000000">JS_SetPropertyValue</text>
</a>
</g>
</g>
<!-- Node483506&#45;&gt;Node483289 -->
<g id="edge44" class="edge">
<title>Node483506&#45;&gt;Node483289</title>
<path fill="none" stroke="#191970" d="M315.3383,-55.2262C378.1181,-55.2262 478.6026,-55.2262 544.4572,-55.2262"/>
<polygon fill="#191970" stroke="#191970" points="544.718,-58.7263 554.718,-55.2262 544.718,-51.7263 544.718,-58.7263"/>
</g>
<!-- Node483289&#45;&gt;Node483072 -->
<g id="edge45" class="edge">
<title>Node483289&#45;&gt;Node483072</title>
<path fill="none" stroke="#191970" d="M665.0968,-49.7675C721.4942,-47.2479 808.6383,-52.2567 865,-98.2262 923.1089,-145.6208 938.5761,-241.2517 942.6117,-282.5245"/>
<polygon fill="#191970" stroke="#191970" points="939.137,-282.9718 943.4728,-292.6389 946.1118,-282.378 939.137,-282.9718"/>
</g>
<!-- Node483507&#45;&gt;Node483072 -->
<g id="edge47" class="edge">
<title>Node483507&#45;&gt;Node483072</title>
<path fill="none" stroke="#191970" d="M301.2033,-165.9349C407.3505,-157.874 675.2695,-137.6917 716,-136.2262 782.1794,-133.8451 809.0095,-100.8646 865,-136.2262 916.8455,-168.97 935.3675,-246.0628 941.3827,-282.4953"/>
<polygon fill="#191970" stroke="#191970" points="937.9242,-283.0335 942.871,-292.4025 944.8465,-281.9935 937.9242,-283.0335"/>
</g>
<!-- Node483103 -->
<g id="node26" class="node">
<title>Node483103</title>
<g id="a_node26"><a xlink:href="list_8h.html#a3a5d0733570b2fafc18f4c71a2968ea5" target="_top" xlink:title="list_add_tail">
<polygon fill="none" stroke="#ff0000" points="400,-121.7262 400,-140.7262 468,-140.7262 468,-121.7262 400,-121.7262"/>
<text text-anchor="middle" x="434" y="-128.7262" font-family="Helvetica,sans-Serif" font-size="10.00" fill="#000000">list_add_tail</text>
</a>
</g>
</g>
<!-- Node483507&#45;&gt;Node483103 -->
<g id="edge48" class="edge">
<title>Node483507&#45;&gt;Node483103</title>
<path fill="none" stroke="#191970" d="M301.0544,-159.9304C328.0357,-154.1049 362.7226,-146.6157 389.8998,-140.7479"/>
<polygon fill="#191970" stroke="#191970" points="390.8802,-144.1169 399.9163,-138.5852 389.4028,-137.2746 390.8802,-144.1169"/>
</g>
</g>
</svg>
