<?xml version="1.0" encoding="UTF-8" standalone="no"?>
<!DOCTYPE svg PUBLIC "-//W3C//DTD SVG 1.1//EN"
 "http://www.w3.org/Graphics/SVG/1.1/DTD/svg11.dtd">
<!-- Generated by graphviz version 2.40.1 (20161225.0304)
 -->
<!-- Title: JS_ToCString Pages: 1 -->
<svg width="456pt" height="1092pt"
 viewBox="0.00 0.00 456.00 1092.00" xmlns="http://www.w3.org/2000/svg" xmlns:xlink="http://www.w3.org/1999/xlink">
<g id="graph0" class="graph" transform="scale(1 1) rotate(0) translate(4 1088)">
<title>JS_ToCString</title>
<!-- Node50139 -->
<g id="node1" class="node">
<title>Node50139</title>
<polygon fill="#bfbfbf" stroke="#000000" points="0,-532.5 0,-551.5 78,-551.5 78,-532.5 0,-532.5"/>
<text text-anchor="middle" x="39" y="-539.5" font-family="Helvetica,sans-Serif" font-size="10.00" fill="#000000">JS_ToCString</text>
</g>
<!-- Node50140 -->
<g id="node2" class="node">
<title>Node50140</title>
<g id="a_node2"><a xlink:href="quickjs_8c.html#acf2f211c47aeb52306aa1467fc034915" target="_top" xlink:title="__attribute">
<polygon fill="none" stroke="#000000" points="141,-1064.5 141,-1083.5 203,-1083.5 203,-1064.5 141,-1064.5"/>
<text text-anchor="middle" x="172" y="-1071.5" font-family="Helvetica,sans-Serif" font-size="10.00" fill="#000000">__attribute</text>
</a>
</g>
</g>
<!-- Node50139&#45;&gt;Node50140 -->
<g id="edge1" class="edge">
<title>Node50139&#45;&gt;Node50140</title>
<path fill="none" stroke="#191970" d="M39.3819,-561.7657C41.3747,-645.6909 52.985,-971.7903 114,-1050 120.636,-1058.5061 130.8135,-1064.0226 140.8009,-1067.5895"/>
<polygon fill="#191970" stroke="#191970" points="42.8771,-561.5033 39.1604,-551.5818 35.8788,-561.6556 42.8771,-561.5033"/>
</g>
<!-- Node50141 -->
<g id="node3" class="node">
<title>Node50141</title>
<g id="a_node3"><a xlink:href="quickjs-libc_8c.html#afc77720d4d1c0b90749ce275a4a16f74" target="_top" xlink:title="build_envp">
<polygon fill="none" stroke="#000000" points="274.5,-988.5 274.5,-1007.5 337.5,-1007.5 337.5,-988.5 274.5,-988.5"/>
<text text-anchor="middle" x="306" y="-995.5" font-family="Helvetica,sans-Serif" font-size="10.00" fill="#000000">build_envp</text>
</a>
</g>
</g>
<!-- Node50139&#45;&gt;Node50141 -->
<g id="edge2" class="edge">
<title>Node50139&#45;&gt;Node50141</title>
<path fill="none" stroke="#191970" d="M39.3509,-561.8636C41.1619,-639.5339 51.9735,-921.2473 114,-979 157.2687,-1019.2874 232.1403,-1013.0538 274.4698,-1005.2969"/>
<polygon fill="#191970" stroke="#191970" points="42.8442,-561.4983 39.1375,-551.5731 35.8457,-561.6436 42.8442,-561.4983"/>
</g>
<!-- Node50142 -->
<g id="node4" class="node">
<title>Node50142</title>
<g id="a_node4"><a xlink:href="quickjs-libc_8c.html#a0b92fee4bb5dda499a0b6d86da0e8be8" target="_top" xlink:title="js_os_exec">
<polygon fill="none" stroke="#000000" points="382,-1007.5 382,-1026.5 448,-1026.5 448,-1007.5 382,-1007.5"/>
<text text-anchor="middle" x="415" y="-1014.5" font-family="Helvetica,sans-Serif" font-size="10.00" fill="#000000">js_os_exec</text>
</a>
</g>
</g>
<!-- Node50139&#45;&gt;Node50142 -->
<g id="edge12" class="edge">
<title>Node50139&#45;&gt;Node50142</title>
<path fill="none" stroke="#191970" d="M40.7446,-562.0286C48.379,-647.4608 79.9862,-978.4335 114,-1009 190.9865,-1078.184 328.9444,-1045.1347 387.5048,-1026.6079"/>
<polygon fill="#191970" stroke="#191970" points="44.2125,-561.5103 39.8459,-551.8572 37.2397,-562.1264 44.2125,-561.5103"/>
</g>
<!-- Node50143 -->
<g id="node5" class="node">
<title>Node50143</title>
<g id="a_node5"><a xlink:href="quickjs_8c.html#adb1fc78e06c842a22d4fa3bf3fb75f70" target="_top" xlink:title="get_func_name">
<polygon fill="none" stroke="#ff0000" points="130.5,-950.5 130.5,-969.5 213.5,-969.5 213.5,-950.5 130.5,-950.5"/>
<text text-anchor="middle" x="172" y="-957.5" font-family="Helvetica,sans-Serif" font-size="10.00" fill="#000000">get_func_name</text>
</a>
</g>
</g>
<!-- Node50139&#45;&gt;Node50143 -->
<g id="edge4" class="edge">
<title>Node50139&#45;&gt;Node50143</title>
<path fill="none" stroke="#191970" d="M40.0988,-561.6277C44.5184,-633.7833 63.2658,-883.1565 114,-941 118.4018,-946.0186 124.1496,-949.7178 130.3145,-952.443"/>
<polygon fill="#191970" stroke="#191970" points="43.5917,-561.4022 39.5098,-551.6253 36.6038,-561.8138 43.5917,-561.4022"/>
</g>
<!-- Node50734 -->
<g id="node6" class="node">
<title>Node50734</title>
<g id="a_node6"><a xlink:href="quickjs_8c.html#a4b66ebf3abee5d29490343fbe360ec5a" target="_top" xlink:title="JS_AtomToCString">
<polygon fill="none" stroke="#ff0000" points="121.5,-912.5 121.5,-931.5 222.5,-931.5 222.5,-912.5 121.5,-912.5"/>
<text text-anchor="middle" x="172" y="-919.5" font-family="Helvetica,sans-Serif" font-size="10.00" fill="#000000">JS_AtomToCString</text>
</a>
</g>
</g>
<!-- Node50139&#45;&gt;Node50734 -->
<g id="edge5" class="edge">
<title>Node50139&#45;&gt;Node50734</title>
<path fill="none" stroke="#191970" d="M40.7286,-561.5109C46.9863,-628.1513 70.4176,-845.5209 114,-898 119.2217,-904.2876 126.3619,-908.951 133.8485,-912.4022"/>
<polygon fill="#191970" stroke="#191970" points="44.2111,-561.1592 39.8144,-551.5197 37.2403,-561.7971 44.2111,-561.1592"/>
</g>
<!-- Node50162 -->
<g id="node7" class="node">
<title>Node50162</title>
<g id="a_node7"><a xlink:href="quickjs-libc_8c.html#aff1e6131e8bf8b7eb25307623ad669e7" target="_top" xlink:title="js_worker_ctor">
<polygon fill="none" stroke="#ff0000" points="266,-893.5 266,-912.5 346,-912.5 346,-893.5 266,-893.5"/>
<text text-anchor="middle" x="306" y="-900.5" font-family="Helvetica,sans-Serif" font-size="10.00" fill="#000000">js_worker_ctor</text>
</a>
</g>
</g>
<!-- Node50139&#45;&gt;Node50162 -->
<g id="edge32" class="edge">
<title>Node50139&#45;&gt;Node50162</title>
<path fill="none" stroke="#191970" d="M40.846,-562.0387C47.1303,-625.7877 69.7982,-822.2232 114,-865 135.1824,-885.4996 215.8429,-895.6669 265.6312,-900.0911"/>
<polygon fill="#191970" stroke="#191970" points="44.2979,-561.3678 39.8617,-551.7464 37.3296,-562.0342 44.2979,-561.3678"/>
</g>
<!-- Node50737 -->
<g id="node8" class="node">
<title>Node50737</title>
<g id="a_node8"><a xlink:href="quickjs-libc_8c.html#a2e5a713d49edeef87d8ed87471679f39" target="_top" xlink:title="js_dump_obj">
<polygon fill="none" stroke="#ff0000" points="136.5,-836.5 136.5,-855.5 207.5,-855.5 207.5,-836.5 136.5,-836.5"/>
<text text-anchor="middle" x="172" y="-843.5" font-family="Helvetica,sans-Serif" font-size="10.00" fill="#000000">js_dump_obj</text>
</a>
</g>
</g>
<!-- Node50139&#45;&gt;Node50737 -->
<g id="edge8" class="edge">
<title>Node50139&#45;&gt;Node50737</title>
<path fill="none" stroke="#191970" d="M41.7132,-561.7329C50.0506,-619.6787 76.9901,-787.7299 114,-827 119.9592,-833.3231 128.0516,-837.5449 136.2991,-840.3627"/>
<polygon fill="#191970" stroke="#191970" points="45.1582,-561.0961 40.2963,-551.6826 38.2267,-562.0733 45.1582,-561.0961"/>
</g>
<!-- Node50180 -->
<g id="node9" class="node">
<title>Node50180</title>
<g id="a_node9"><a xlink:href="quickjs_8c.html#a6357b7fdae71c70c140e78e6c20cb5c2" target="_top" xlink:title="js_dynamic_import_job">
<polygon fill="none" stroke="#ff0000" points="114,-798.5 114,-817.5 230,-817.5 230,-798.5 114,-798.5"/>
<text text-anchor="middle" x="172" y="-805.5" font-family="Helvetica,sans-Serif" font-size="10.00" fill="#000000">js_dynamic_import_job</text>
</a>
</g>
</g>
<!-- Node50139&#45;&gt;Node50180 -->
<g id="edge9" class="edge">
<title>Node50139&#45;&gt;Node50180</title>
<path fill="none" stroke="#191970" d="M42.5844,-561.8182C52.4638,-614.4186 81.5153,-755.8002 114,-789 117.7793,-792.8625 122.3548,-795.9402 127.2591,-798.3923"/>
<polygon fill="#191970" stroke="#191970" points="45.9832,-560.9495 40.7255,-551.7513 39.0996,-562.2206 45.9832,-560.9495"/>
</g>
<!-- Node50738 -->
<g id="node10" class="node">
<title>Node50738</title>
<g id="a_node10"><a xlink:href="quickjs-libc_8c.html#acedf696011fa506afce358928ffa1522" target="_top" xlink:title="js_loadScript">
<polygon fill="none" stroke="#ff0000" points="135.5,-760.5 135.5,-779.5 208.5,-779.5 208.5,-760.5 135.5,-760.5"/>
<text text-anchor="middle" x="172" y="-767.5" font-family="Helvetica,sans-Serif" font-size="10.00" fill="#000000">js_loadScript</text>
</a>
</g>
</g>
<!-- Node50139&#45;&gt;Node50738 -->
<g id="edge10" class="edge">
<title>Node50139&#45;&gt;Node50738</title>
<path fill="none" stroke="#191970" d="M40.4686,-562.0492C44.5634,-603.2912 59.6855,-698.1838 114,-751 119.9253,-756.7618 127.6243,-760.7764 135.466,-763.5736"/>
<polygon fill="#191970" stroke="#191970" points="43.9406,-561.5761 39.5826,-551.9191 36.9672,-562.186 43.9406,-561.5761"/>
</g>
<!-- Node50739 -->
<g id="node11" class="node">
<title>Node50739</title>
<g id="a_node11"><a xlink:href="quickjs-libc_8c.html#ac1ad39478b2076e2113aff65595b0686" target="_top" xlink:title="js_os_chdir">
<polygon fill="none" stroke="#000000" points="139,-722.5 139,-741.5 205,-741.5 205,-722.5 139,-722.5"/>
<text text-anchor="middle" x="172" y="-729.5" font-family="Helvetica,sans-Serif" font-size="10.00" fill="#000000">js_os_chdir</text>
</a>
</g>
</g>
<!-- Node50139&#45;&gt;Node50739 -->
<g id="edge11" class="edge">
<title>Node50139&#45;&gt;Node50739</title>
<path fill="none" stroke="#191970" d="M42.2477,-561.7623C49.0904,-597.1533 68.2971,-671.5184 114,-713 120.9045,-719.2668 129.9157,-723.4703 138.7694,-726.2885"/>
<polygon fill="#191970" stroke="#191970" points="45.6585,-560.9542 40.4425,-551.7323 38.7692,-562.1941 45.6585,-560.9542"/>
</g>
<!-- Node50577 -->
<g id="node12" class="node">
<title>Node50577</title>
<g id="a_node12"><a xlink:href="quickjs-libc_8c.html#a099dfd009335bf5592dc120829085f7d" target="_top" xlink:title="js_os_mkdir">
<polygon fill="none" stroke="#000000" points="137.5,-684.5 137.5,-703.5 206.5,-703.5 206.5,-684.5 137.5,-684.5"/>
<text text-anchor="middle" x="172" y="-691.5" font-family="Helvetica,sans-Serif" font-size="10.00" fill="#000000">js_os_mkdir</text>
</a>
</g>
</g>
<!-- Node50139&#45;&gt;Node50577 -->
<g id="edge13" class="edge">
<title>Node50139&#45;&gt;Node50577</title>
<path fill="none" stroke="#191970" d="M44.8623,-561.3508C54.5813,-590.2217 76.743,-644.4409 114,-675 120.7179,-680.5102 129.083,-684.4399 137.3507,-687.2361"/>
<polygon fill="#191970" stroke="#191970" points="48.1305,-560.0805 41.7411,-551.6291 41.4656,-562.2203 48.1305,-560.0805"/>
</g>
<!-- Node50578 -->
<g id="node13" class="node">
<title>Node50578</title>
<g id="a_node13"><a xlink:href="quickjs-libc_8c.html#a2922177e3824293f14633957b7b30a32" target="_top" xlink:title="js_os_open">
<polygon fill="none" stroke="#000000" points="139,-646.5 139,-665.5 205,-665.5 205,-646.5 139,-646.5"/>
<text text-anchor="middle" x="172" y="-653.5" font-family="Helvetica,sans-Serif" font-size="10.00" fill="#000000">js_os_open</text>
</a>
</g>
</g>
<!-- Node50139&#45;&gt;Node50578 -->
<g id="edge14" class="edge">
<title>Node50139&#45;&gt;Node50578</title>
<path fill="none" stroke="#191970" d="M48.9875,-560.3756C61.4958,-581.738 84.8652,-616.6572 114,-637 121.3846,-642.1562 130.2596,-645.983 138.8211,-648.7947"/>
<polygon fill="#191970" stroke="#191970" points="51.9985,-558.5898 44.023,-551.6154 45.9085,-562.0412 51.9985,-558.5898"/>
</g>
<!-- Node50357 -->
<g id="node14" class="node">
<title>Node50357</title>
<g id="a_node14"><a xlink:href="quickjs-libc_8c.html#a64270f007df853e9d2f443383d26ec60" target="_top" xlink:title="js_os_readdir">
<polygon fill="none" stroke="#000000" points="135,-608.5 135,-627.5 209,-627.5 209,-608.5 135,-608.5"/>
<text text-anchor="middle" x="172" y="-615.5" font-family="Helvetica,sans-Serif" font-size="10.00" fill="#000000">js_os_readdir</text>
</a>
</g>
</g>
<!-- Node50139&#45;&gt;Node50357 -->
<g id="edge15" class="edge">
<title>Node50139&#45;&gt;Node50357</title>
<path fill="none" stroke="#191970" d="M57.0939,-558.524C71.5959,-571.0533 92.9355,-587.9473 114,-599 121.0371,-602.6924 128.929,-605.8521 136.571,-608.4743"/>
<polygon fill="#191970" stroke="#191970" points="59.2115,-555.7246 49.3993,-551.7284 54.5778,-560.9714 59.2115,-555.7246"/>
</g>
<!-- Node50396 -->
<g id="node15" class="node">
<title>Node50396</title>
<g id="a_node15"><a xlink:href="quickjs-libc_8c.html#a2173b95ca89b7de47e5bf9d5866877b9" target="_top" xlink:title="js_os_readlink">
<polygon fill="none" stroke="#000000" points="132.5,-570.5 132.5,-589.5 211.5,-589.5 211.5,-570.5 132.5,-570.5"/>
<text text-anchor="middle" x="172" y="-577.5" font-family="Helvetica,sans-Serif" font-size="10.00" fill="#000000">js_os_readlink</text>
</a>
</g>
</g>
<!-- Node50139&#45;&gt;Node50396 -->
<g id="edge16" class="edge">
<title>Node50139&#45;&gt;Node50396</title>
<path fill="none" stroke="#191970" d="M82.3669,-554.3906C100.5807,-559.5945 121.4393,-565.5541 138.4492,-570.4141"/>
<polygon fill="#191970" stroke="#191970" points="83.1383,-550.971 72.5615,-551.589 81.2152,-557.7016 83.1383,-550.971"/>
</g>
<!-- Node50397 -->
<g id="node16" class="node">
<title>Node50397</title>
<g id="a_node16"><a xlink:href="quickjs-libc_8c.html#a02dc6b1cce70abfcd4bd5c862584e0a4" target="_top" xlink:title="js_os_realpath">
<polygon fill="none" stroke="#000000" points="132,-532.5 132,-551.5 212,-551.5 212,-532.5 132,-532.5"/>
<text text-anchor="middle" x="172" y="-539.5" font-family="Helvetica,sans-Serif" font-size="10.00" fill="#000000">js_os_realpath</text>
</a>
</g>
</g>
<!-- Node50139&#45;&gt;Node50397 -->
<g id="edge17" class="edge">
<title>Node50139&#45;&gt;Node50397</title>
<path fill="none" stroke="#191970" d="M88.3454,-542C102.631,-542 118.0502,-542 131.7121,-542"/>
<polygon fill="#191970" stroke="#191970" points="88.1851,-538.5001 78.185,-542 88.185,-545.5001 88.1851,-538.5001"/>
</g>
<!-- Node50740 -->
<g id="node17" class="node">
<title>Node50740</title>
<g id="a_node17"><a xlink:href="quickjs-libc_8c.html#a035efc25eebcd5ed71b7bec13c987a97" target="_top" xlink:title="js_os_remove">
<polygon fill="none" stroke="#000000" points="133.5,-494.5 133.5,-513.5 210.5,-513.5 210.5,-494.5 133.5,-494.5"/>
<text text-anchor="middle" x="172" y="-501.5" font-family="Helvetica,sans-Serif" font-size="10.00" fill="#000000">js_os_remove</text>
</a>
</g>
</g>
<!-- Node50139&#45;&gt;Node50740 -->
<g id="edge18" class="edge">
<title>Node50139&#45;&gt;Node50740</title>
<path fill="none" stroke="#191970" d="M82.3669,-529.6094C100.5807,-524.4055 121.4393,-518.4459 138.4492,-513.5859"/>
<polygon fill="#191970" stroke="#191970" points="81.2152,-526.2984 72.5615,-532.411 83.1383,-533.029 81.2152,-526.2984"/>
</g>
<!-- Node50741 -->
<g id="node18" class="node">
<title>Node50741</title>
<g id="a_node18"><a xlink:href="quickjs-libc_8c.html#afbac9287534f93e943312dd80d152c71" target="_top" xlink:title="js_os_rename">
<polygon fill="none" stroke="#000000" points="133.5,-456.5 133.5,-475.5 210.5,-475.5 210.5,-456.5 133.5,-456.5"/>
<text text-anchor="middle" x="172" y="-463.5" font-family="Helvetica,sans-Serif" font-size="10.00" fill="#000000">js_os_rename</text>
</a>
</g>
</g>
<!-- Node50139&#45;&gt;Node50741 -->
<g id="edge19" class="edge">
<title>Node50139&#45;&gt;Node50741</title>
<path fill="none" stroke="#191970" d="M57.0939,-525.476C71.5959,-512.9467 92.9355,-496.0527 114,-485 121.0371,-481.3076 128.929,-478.1479 136.571,-475.5257"/>
<polygon fill="#191970" stroke="#191970" points="54.5778,-523.0286 49.3993,-532.2716 59.2115,-528.2754 54.5778,-523.0286"/>
</g>
<!-- Node50340 -->
<g id="node19" class="node">
<title>Node50340</title>
<g id="a_node19"><a xlink:href="quickjs-libc_8c.html#a0142166ddf6e134f89207c3ee3c7572c" target="_top" xlink:title="js_os_stat">
<polygon fill="none" stroke="#000000" points="141,-418.5 141,-437.5 203,-437.5 203,-418.5 141,-418.5"/>
<text text-anchor="middle" x="172" y="-425.5" font-family="Helvetica,sans-Serif" font-size="10.00" fill="#000000">js_os_stat</text>
</a>
</g>
</g>
<!-- Node50139&#45;&gt;Node50340 -->
<g id="edge20" class="edge">
<title>Node50139&#45;&gt;Node50340</title>
<path fill="none" stroke="#191970" d="M48.9875,-523.6244C61.4958,-502.262 84.8652,-467.3428 114,-447 121.9927,-441.4192 131.7314,-437.3958 140.9289,-434.5311"/>
<polygon fill="#191970" stroke="#191970" points="45.9085,-521.9588 44.023,-532.3846 51.9985,-525.4102 45.9085,-521.9588"/>
</g>
<!-- Node50742 -->
<g id="node20" class="node">
<title>Node50742</title>
<g id="a_node20"><a xlink:href="quickjs-libc_8c.html#a47def20f58a05f6fbdbb3b4cfe92a5b1" target="_top" xlink:title="js_os_symlink">
<polygon fill="none" stroke="#000000" points="132.5,-380.5 132.5,-399.5 211.5,-399.5 211.5,-380.5 132.5,-380.5"/>
<text text-anchor="middle" x="172" y="-387.5" font-family="Helvetica,sans-Serif" font-size="10.00" fill="#000000">js_os_symlink</text>
</a>
</g>
</g>
<!-- Node50139&#45;&gt;Node50742 -->
<g id="edge21" class="edge">
<title>Node50139&#45;&gt;Node50742</title>
<path fill="none" stroke="#191970" d="M44.8623,-522.6492C54.5813,-493.7783 76.743,-439.5591 114,-409 119.3252,-404.6321 125.6854,-401.2574 132.2116,-398.6531"/>
<polygon fill="#191970" stroke="#191970" points="41.4656,-521.7797 41.7411,-532.3709 48.1305,-523.9195 41.4656,-521.7797"/>
</g>
<!-- Node50617 -->
<g id="node21" class="node">
<title>Node50617</title>
<g id="a_node21"><a xlink:href="quickjs-libc_8c.html#a75a026899e6e503ad72d190af515069e" target="_top" xlink:title="js_os_utimes">
<polygon fill="none" stroke="#000000" points="135,-342.5 135,-361.5 209,-361.5 209,-342.5 135,-342.5"/>
<text text-anchor="middle" x="172" y="-349.5" font-family="Helvetica,sans-Serif" font-size="10.00" fill="#000000">js_os_utimes</text>
</a>
</g>
</g>
<!-- Node50139&#45;&gt;Node50617 -->
<g id="edge22" class="edge">
<title>Node50139&#45;&gt;Node50617</title>
<path fill="none" stroke="#191970" d="M42.2477,-522.2377C49.0904,-486.8467 68.2971,-412.4816 114,-371 119.8845,-365.659 127.2993,-361.8167 134.8426,-359.0534"/>
<polygon fill="#191970" stroke="#191970" points="38.7692,-521.8059 40.4425,-532.2677 45.6585,-523.0458 38.7692,-521.8059"/>
</g>
<!-- Node50743 -->
<g id="node22" class="node">
<title>Node50743</title>
<g id="a_node22"><a xlink:href="quickjs_8c.html#abb21478f7d3d0ff964efbe82a673daef" target="_top" xlink:title="js_parseFloat">
<polygon fill="none" stroke="#000000" points="134.5,-304.5 134.5,-323.5 209.5,-323.5 209.5,-304.5 134.5,-304.5"/>
<text text-anchor="middle" x="172" y="-311.5" font-family="Helvetica,sans-Serif" font-size="10.00" fill="#000000">js_parseFloat</text>
</a>
</g>
</g>
<!-- Node50139&#45;&gt;Node50743 -->
<g id="edge23" class="edge">
<title>Node50139&#45;&gt;Node50743</title>
<path fill="none" stroke="#191970" d="M40.4686,-521.9508C44.5634,-480.7088 59.6855,-385.8162 114,-333 119.6214,-327.5336 126.8393,-323.6399 134.2609,-320.8664"/>
<polygon fill="#191970" stroke="#191970" points="36.9672,-521.814 39.5826,-532.0809 43.9406,-522.4239 36.9672,-521.814"/>
</g>
<!-- Node50583 -->
<g id="node23" class="node">
<title>Node50583</title>
<g id="a_node23"><a xlink:href="quickjs_8c.html#aed39bc2ad38569d153500dc6ae23cd6c" target="_top" xlink:title="js_parseInt">
<polygon fill="none" stroke="#000000" points="139.5,-266.5 139.5,-285.5 204.5,-285.5 204.5,-266.5 139.5,-266.5"/>
<text text-anchor="middle" x="172" y="-273.5" font-family="Helvetica,sans-Serif" font-size="10.00" fill="#000000">js_parseInt</text>
</a>
</g>
</g>
<!-- Node50139&#45;&gt;Node50583 -->
<g id="edge24" class="edge">
<title>Node50139&#45;&gt;Node50583</title>
<path fill="none" stroke="#191970" d="M42.5844,-522.1818C52.4638,-469.5814 81.5153,-328.1998 114,-295 120.8176,-288.0323 130.2258,-283.6188 139.4821,-280.8235"/>
<polygon fill="#191970" stroke="#191970" points="39.0996,-521.7794 40.7255,-532.2487 45.9832,-523.0505 39.0996,-521.7794"/>
</g>
<!-- Node50550 -->
<g id="node24" class="node">
<title>Node50550</title>
<g id="a_node24"><a xlink:href="quickjs-libc_8c.html#a2abec3aeee82a6dd3dd063725bbeecfe" target="_top" xlink:title="js_printf_internal">
<polygon fill="none" stroke="#ff0000" points="128,-228.5 128,-247.5 216,-247.5 216,-228.5 128,-228.5"/>
<text text-anchor="middle" x="172" y="-235.5" font-family="Helvetica,sans-Serif" font-size="10.00" fill="#000000">js_printf_internal</text>
</a>
</g>
</g>
<!-- Node50139&#45;&gt;Node50550 -->
<g id="edge25" class="edge">
<title>Node50139&#45;&gt;Node50550</title>
<path fill="none" stroke="#191970" d="M41.7132,-522.2671C50.0506,-464.3213 76.9901,-296.2701 114,-257 117.9243,-252.836 122.7738,-249.5833 127.9834,-247.0427"/>
<polygon fill="#191970" stroke="#191970" points="38.2267,-521.9267 40.2963,-532.3174 45.1582,-522.9039 38.2267,-521.9267"/>
</g>
<!-- Node50292 -->
<g id="node25" class="node">
<title>Node50292</title>
<g id="a_node25"><a xlink:href="quickjs-libc_8c.html#a51bfedac363e39a4273635aa7810425a" target="_top" xlink:title="js_std_fdopen">
<polygon fill="none" stroke="#000000" points="133.5,-190.5 133.5,-209.5 210.5,-209.5 210.5,-190.5 133.5,-190.5"/>
<text text-anchor="middle" x="172" y="-197.5" font-family="Helvetica,sans-Serif" font-size="10.00" fill="#000000">js_std_fdopen</text>
</a>
</g>
</g>
<!-- Node50139&#45;&gt;Node50292 -->
<g id="edge26" class="edge">
<title>Node50139&#45;&gt;Node50292</title>
<path fill="none" stroke="#191970" d="M41.0648,-522.1741C48.0131,-459.0709 72.4695,-264.3748 114,-219 119.2225,-213.2941 126.1827,-209.2974 133.465,-206.4991"/>
<polygon fill="#191970" stroke="#191970" points="37.5588,-522.0432 39.9709,-532.3598 44.5188,-522.7907 37.5588,-522.0432"/>
</g>
<!-- Node50744 -->
<g id="node26" class="node">
<title>Node50744</title>
<g id="a_node26"><a xlink:href="quickjs-libc_8c.html#a1e9ea68a66c0e646ba3250625a52a3e2" target="_top" xlink:title="js_std_getenv">
<polygon fill="none" stroke="#000000" points="133.5,-152.5 133.5,-171.5 210.5,-171.5 210.5,-152.5 133.5,-152.5"/>
<text text-anchor="middle" x="172" y="-159.5" font-family="Helvetica,sans-Serif" font-size="10.00" fill="#000000">js_std_getenv</text>
</a>
</g>
</g>
<!-- Node50139&#45;&gt;Node50744 -->
<g id="edge27" class="edge">
<title>Node50139&#45;&gt;Node50744</title>
<path fill="none" stroke="#191970" d="M40.5458,-522.0922C46.2061,-454.1145 67.9205,-232.5384 114,-181 119.1556,-175.2336 126.0871,-171.2109 133.3625,-168.4063"/>
<polygon fill="#191970" stroke="#191970" points="37.039,-522.0359 39.723,-532.2851 44.0163,-522.5992 37.039,-522.0359"/>
</g>
<!-- Node50745 -->
<g id="node27" class="node">
<title>Node50745</title>
<g id="a_node27"><a xlink:href="quickjs-libc_8c.html#a879319bb5089c26a9e2f19e9fc9c0a73" target="_top" xlink:title="js_std_loadFile">
<polygon fill="none" stroke="#000000" points="131,-114.5 131,-133.5 213,-133.5 213,-114.5 131,-114.5"/>
<text text-anchor="middle" x="172" y="-121.5" font-family="Helvetica,sans-Serif" font-size="10.00" fill="#000000">js_std_loadFile</text>
</a>
</g>
</g>
<!-- Node50139&#45;&gt;Node50745 -->
<g id="edge28" class="edge">
<title>Node50139&#45;&gt;Node50745</title>
<path fill="none" stroke="#191970" d="M40.0988,-522.3723C44.5184,-450.2167 63.2658,-200.8435 114,-143 118.5415,-137.8221 124.5159,-134.0487 130.9029,-131.3004"/>
<polygon fill="#191970" stroke="#191970" points="36.6038,-522.1862 39.5098,-532.3747 43.5917,-522.5978 36.6038,-522.1862"/>
</g>
<!-- Node50293 -->
<g id="node28" class="node">
<title>Node50293</title>
<g id="a_node28"><a xlink:href="quickjs-libc_8c.html#a7af79ae13a636de55a6d58309c0cfa1e" target="_top" xlink:title="js_std_open">
<polygon fill="none" stroke="#000000" points="137.5,-76.5 137.5,-95.5 206.5,-95.5 206.5,-76.5 137.5,-76.5"/>
<text text-anchor="middle" x="172" y="-83.5" font-family="Helvetica,sans-Serif" font-size="10.00" fill="#000000">js_std_open</text>
</a>
</g>
</g>
<!-- Node50139&#45;&gt;Node50293 -->
<g id="edge29" class="edge">
<title>Node50139&#45;&gt;Node50293</title>
<path fill="none" stroke="#191970" d="M39.7625,-522.0152C43.0891,-445.0611 58.7416,-169.017 114,-105 120.0236,-98.0217 128.6516,-93.592 137.4183,-90.7847"/>
<polygon fill="#191970" stroke="#191970" points="36.2561,-522.102 39.344,-532.2369 43.2503,-522.3885 36.2561,-522.102"/>
</g>
<!-- Node50294 -->
<g id="node29" class="node">
<title>Node50294</title>
<g id="a_node29"><a xlink:href="quickjs-libc_8c.html#af872be4f158af25e3b412e2be297abcf" target="_top" xlink:title="js_std_popen">
<polygon fill="none" stroke="#000000" points="135,-38.5 135,-57.5 209,-57.5 209,-38.5 135,-38.5"/>
<text text-anchor="middle" x="172" y="-45.5" font-family="Helvetica,sans-Serif" font-size="10.00" fill="#000000">js_std_popen</text>
</a>
</g>
</g>
<!-- Node50139&#45;&gt;Node50294 -->
<g id="edge30" class="edge">
<title>Node50139&#45;&gt;Node50294</title>
<path fill="none" stroke="#191970" d="M39.4645,-521.8683C41.737,-440.5439 54.154,-137.2759 114,-67 119.4272,-60.6269 127.0282,-56.3779 134.9444,-53.5488"/>
<polygon fill="#191970" stroke="#191970" points="35.957,-522.1157 39.1984,-532.2025 42.9547,-522.2959 35.957,-522.1157"/>
</g>
<!-- Node50341 -->
<g id="node30" class="node">
<title>Node50341</title>
<g id="a_node30"><a xlink:href="quickjs-libc_8c.html#a7aebce2172c6aa4a6645aef600a69e6b" target="_top" xlink:title="js_std_urlGet">
<polygon fill="none" stroke="#000000" points="135,-.5 135,-19.5 209,-19.5 209,-.5 135,-.5"/>
<text text-anchor="middle" x="172" y="-7.5" font-family="Helvetica,sans-Serif" font-size="10.00" fill="#000000">js_std_urlGet</text>
</a>
</g>
</g>
<!-- Node50139&#45;&gt;Node50341 -->
<g id="edge31" class="edge">
<title>Node50139&#45;&gt;Node50341</title>
<path fill="none" stroke="#191970" d="M39.1996,-522.1794C40.4463,-437.3486 49.4386,-105.6969 114,-29 119.3907,-22.596 126.9777,-18.3351 134.892,-15.5045"/>
<polygon fill="#191970" stroke="#191970" points="35.6989,-522.2206 39.0721,-532.2641 42.6983,-522.3091 35.6989,-522.2206"/>
</g>
<!-- Node50141&#45;&gt;Node50142 -->
<g id="edge3" class="edge">
<title>Node50141&#45;&gt;Node50142</title>
<path fill="none" stroke="#191970" d="M347.5919,-1005.25C358.8549,-1007.2132 370.8983,-1009.3125 381.6438,-1011.1856"/>
<polygon fill="#191970" stroke="#191970" points="347.9798,-1001.7649 337.5273,-1003.4956 346.7777,-1008.6609 347.9798,-1001.7649"/>
</g>
<!-- Node50734&#45;&gt;Node50141 -->
<g id="edge6" class="edge">
<title>Node50734&#45;&gt;Node50141</title>
<path fill="none" stroke="#191970" d="M217.1374,-935.1579C221.5664,-936.9302 225.9249,-938.8783 230,-941 255.4544,-954.253 281.4169,-975.8228 295.4374,-988.2812"/>
<polygon fill="#191970" stroke="#191970" points="218.0046,-931.7469 207.4114,-931.5594 215.5755,-938.312 218.0046,-931.7469"/>
</g>
<!-- Node50734&#45;&gt;Node50162 -->
<g id="edge7" class="edge">
<title>Node50734&#45;&gt;Node50162</title>
<path fill="none" stroke="#191970" d="M232.8018,-913.3789C243.9552,-911.7974 255.3398,-910.1832 265.7047,-908.7135"/>
<polygon fill="#191970" stroke="#191970" points="232.0692,-909.9476 222.6597,-914.8169 233.052,-916.8783 232.0692,-909.9476"/>
</g>
</g>
</svg>
