<?xml version="1.0" encoding="UTF-8" standalone="no"?>
<!DOCTYPE svg PUBLIC "-//W3C//DTD SVG 1.1//EN"
 "http://www.w3.org/Graphics/SVG/1.1/DTD/svg11.dtd">
<!-- Generated by graphviz version 2.40.1 (20161225.0304)
 -->
<!-- Title: resize_properties Pages: 1 -->
<svg width="514pt" height="370pt"
 viewBox="0.00 0.00 514.00 370.00" xmlns="http://www.w3.org/2000/svg" xmlns:xlink="http://www.w3.org/1999/xlink">
<g id="graph0" class="graph" transform="scale(1 1) rotate(0) translate(4 366)">
<title>resize_properties</title>
<!-- Node128075 -->
<g id="node1" class="node">
<title>Node128075</title>
<polygon fill="#bfbfbf" stroke="#000000" points="0,-171.5 0,-190.5 91,-190.5 91,-171.5 0,-171.5"/>
<text text-anchor="middle" x="45.5" y="-178.5" font-family="Helvetica,sans-Serif" font-size="10.00" fill="#000000">resize_properties</text>
</g>
<!-- Node128076 -->
<g id="node2" class="node">
<title>Node128076</title>
<g id="a_node2"><a xlink:href="quickjs_8c.html#a7da0cfa6f27af0e1b9599d7f359edbe2" target="_top" xlink:title="get_alloc_from_shape">
<polygon fill="none" stroke="#000000" points="127,-342.5 127,-361.5 239,-361.5 239,-342.5 127,-342.5"/>
<text text-anchor="middle" x="183" y="-349.5" font-family="Helvetica,sans-Serif" font-size="10.00" fill="#000000">get_alloc_from_shape</text>
</a>
</g>
</g>
<!-- Node128075&#45;&gt;Node128076 -->
<g id="edge1" class="edge">
<title>Node128075&#45;&gt;Node128076</title>
<path fill="none" stroke="#191970" d="M48.3884,-190.6443C56.5554,-216.3863 82.1793,-287.5059 127,-328 131.3744,-331.9521 136.4984,-335.3209 141.8382,-338.1731"/>
<polygon fill="#191970" stroke="#191970" points="140.4003,-341.3649 150.9344,-342.4972 143.4056,-335.0428 140.4003,-341.3649"/>
</g>
<!-- Node128077 -->
<g id="node3" class="node">
<title>Node128077</title>
<g id="a_node3"><a xlink:href="quickjs_8c.html#acab22c2945c4d609e57a2484feb68a96" target="_top" xlink:title="prop_hash_end">
<polygon fill="none" stroke="#000000" points="294.5,-323.5 294.5,-342.5 377.5,-342.5 377.5,-323.5 294.5,-323.5"/>
<text text-anchor="middle" x="336" y="-330.5" font-family="Helvetica,sans-Serif" font-size="10.00" fill="#000000">prop_hash_end</text>
</a>
</g>
</g>
<!-- Node128075&#45;&gt;Node128077 -->
<g id="edge16" class="edge">
<title>Node128075&#45;&gt;Node128077</title>
<path fill="none" stroke="#191970" d="M49.3085,-190.5649C58.7455,-212.9207 85.4924,-268.6872 127,-295 174.3915,-325.0428 239.2753,-332.7976 284.119,-334.1453"/>
<polygon fill="#191970" stroke="#191970" points="284.1464,-337.6465 294.2157,-334.3511 284.2892,-330.6479 284.1464,-337.6465"/>
</g>
<!-- Node128078 -->
<g id="node4" class="node">
<title>Node128078</title>
<g id="a_node4"><a xlink:href="quickjs_8c.html#a8b6c89e0f589df709eb31a92b7fac32a" target="_top" xlink:title="get_shape_from_alloc">
<polygon fill="none" stroke="#000000" points="127,-266.5 127,-285.5 239,-285.5 239,-266.5 127,-266.5"/>
<text text-anchor="middle" x="183" y="-273.5" font-family="Helvetica,sans-Serif" font-size="10.00" fill="#000000">get_shape_from_alloc</text>
</a>
</g>
</g>
<!-- Node128075&#45;&gt;Node128078 -->
<g id="edge3" class="edge">
<title>Node128075&#45;&gt;Node128078</title>
<path fill="none" stroke="#191970" d="M53.3029,-190.5416C66.7734,-206.4408 95.9471,-238.4368 127,-257 130.4216,-259.0454 134.0935,-260.9074 137.8611,-262.5946"/>
<polygon fill="#191970" stroke="#191970" points="136.7528,-265.9219 147.3353,-266.4334 139.3816,-259.4342 136.7528,-265.9219"/>
</g>
<!-- Node128079 -->
<g id="node5" class="node">
<title>Node128079</title>
<g id="a_node5"><a xlink:href="quickjs_8c.html#ab54e821a9b1b55dc16c4494bd410b698" target="_top" xlink:title="get_shape_size">
<polygon fill="none" stroke="#000000" points="140.5,-228.5 140.5,-247.5 225.5,-247.5 225.5,-228.5 140.5,-228.5"/>
<text text-anchor="middle" x="183" y="-235.5" font-family="Helvetica,sans-Serif" font-size="10.00" fill="#000000">get_shape_size</text>
</a>
</g>
</g>
<!-- Node128075&#45;&gt;Node128079 -->
<g id="edge4" class="edge">
<title>Node128075&#45;&gt;Node128079</title>
<path fill="none" stroke="#191970" d="M64.3437,-190.5024C80.6987,-198.576 105.1228,-210.2189 127,-219 132.1807,-221.0794 137.687,-223.1327 143.147,-225.0771"/>
<polygon fill="#191970" stroke="#191970" points="142.2495,-228.4703 152.8443,-228.4415 144.544,-221.857 142.2495,-228.4703"/>
</g>
<!-- Node128080 -->
<g id="node6" class="node">
<title>Node128080</title>
<g id="a_node6"><a xlink:href="quickjs_8c.html#a80e54dcf9ac687d4ccc2f90273565f30" target="_top" xlink:title="js_free">
<polygon fill="none" stroke="#000000" points="160,-190.5 160,-209.5 206,-209.5 206,-190.5 160,-190.5"/>
<text text-anchor="middle" x="183" y="-197.5" font-family="Helvetica,sans-Serif" font-size="10.00" fill="#000000">js_free</text>
</a>
</g>
</g>
<!-- Node128075&#45;&gt;Node128080 -->
<g id="edge5" class="edge">
<title>Node128075&#45;&gt;Node128080</title>
<path fill="none" stroke="#191970" d="M91.2855,-187.3267C110.3059,-189.955 131.9758,-192.9494 149.4745,-195.3674"/>
<polygon fill="#191970" stroke="#191970" points="149.3848,-198.8882 159.7698,-196.79 150.343,-191.9541 149.3848,-198.8882"/>
</g>
<!-- Node128082 -->
<g id="node8" class="node">
<title>Node128082</title>
<g id="a_node8"><a xlink:href="quickjs_8c.html#a78b7f6b85f2739b551ff54f16156128b" target="_top" xlink:title="js_malloc">
<polygon fill="none" stroke="#000000" points="154,-152.5 154,-171.5 212,-171.5 212,-152.5 154,-152.5"/>
<text text-anchor="middle" x="183" y="-159.5" font-family="Helvetica,sans-Serif" font-size="10.00" fill="#000000">js_malloc</text>
</a>
</g>
</g>
<!-- Node128075&#45;&gt;Node128082 -->
<g id="edge7" class="edge">
<title>Node128075&#45;&gt;Node128082</title>
<path fill="none" stroke="#191970" d="M91.2855,-174.6733C108.204,-172.3355 127.2186,-169.708 143.5294,-167.4541"/>
<polygon fill="#191970" stroke="#191970" points="144.3815,-170.8697 153.8082,-166.0338 143.4233,-163.9356 144.3815,-170.8697"/>
</g>
<!-- Node128086 -->
<g id="node12" class="node">
<title>Node128086</title>
<g id="a_node12"><a xlink:href="quickjs_8c.html#afc4635015897c24a35aa18566311c298" target="_top" xlink:title="js_realloc">
<polygon fill="none" stroke="#000000" points="154,-114.5 154,-133.5 212,-133.5 212,-114.5 154,-114.5"/>
<text text-anchor="middle" x="183" y="-121.5" font-family="Helvetica,sans-Serif" font-size="10.00" fill="#000000">js_realloc</text>
</a>
</g>
</g>
<!-- Node128075&#45;&gt;Node128086 -->
<g id="edge11" class="edge">
<title>Node128075&#45;&gt;Node128086</title>
<path fill="none" stroke="#191970" d="M64.3437,-171.4976C80.6987,-163.424 105.1228,-151.7811 127,-143 132.4933,-140.7951 138.3528,-138.6196 144.1348,-136.5721"/>
<polygon fill="#191970" stroke="#191970" points="145.404,-139.8367 153.7141,-133.2646 143.1194,-133.22 145.404,-139.8367"/>
</g>
<!-- Node128087 -->
<g id="node13" class="node">
<title>Node128087</title>
<g id="a_node13"><a xlink:href="list_8h.html#a3a5d0733570b2fafc18f4c71a2968ea5" target="_top" xlink:title="list_add_tail">
<polygon fill="none" stroke="#000000" points="149,-76.5 149,-95.5 217,-95.5 217,-76.5 149,-76.5"/>
<text text-anchor="middle" x="183" y="-83.5" font-family="Helvetica,sans-Serif" font-size="10.00" fill="#000000">list_add_tail</text>
</a>
</g>
</g>
<!-- Node128075&#45;&gt;Node128087 -->
<g id="edge12" class="edge">
<title>Node128075&#45;&gt;Node128087</title>
<path fill="none" stroke="#191970" d="M53.3029,-171.4584C66.7734,-155.5592 95.9471,-123.5632 127,-105 130.8718,-102.6855 135.0642,-100.6057 139.353,-98.7484"/>
<polygon fill="#191970" stroke="#191970" points="140.7819,-101.9475 148.8091,-95.0327 138.2218,-95.4324 140.7819,-101.9475"/>
</g>
<!-- Node128089 -->
<g id="node15" class="node">
<title>Node128089</title>
<g id="a_node15"><a xlink:href="list_8h.html#ab60d5d18869ebeb5d6ab694289576fa7" target="_top" xlink:title="list_del">
<polygon fill="none" stroke="#000000" points="159.5,-38.5 159.5,-57.5 206.5,-57.5 206.5,-38.5 159.5,-38.5"/>
<text text-anchor="middle" x="183" y="-45.5" font-family="Helvetica,sans-Serif" font-size="10.00" fill="#000000">list_del</text>
</a>
</g>
</g>
<!-- Node128075&#45;&gt;Node128089 -->
<g id="edge14" class="edge">
<title>Node128075&#45;&gt;Node128089</title>
<path fill="none" stroke="#191970" d="M49.885,-171.1851C60.1637,-149.2696 87.931,-96.0046 127,-67 133.6654,-62.0516 141.7071,-58.3337 149.5906,-55.5625"/>
<polygon fill="#191970" stroke="#191970" points="150.8562,-58.8348 159.3764,-52.5374 148.7887,-52.147 150.8562,-58.8348"/>
</g>
<!-- Node128090 -->
<g id="node16" class="node">
<title>Node128090</title>
<g id="a_node16"><a xlink:href="cutils_8h.html#a94f155fcce337a2b9d4719ed8042cbbe" target="_top" xlink:title="max_int">
<polygon fill="none" stroke="#000000" points="157.5,-.5 157.5,-19.5 208.5,-19.5 208.5,-.5 157.5,-.5"/>
<text text-anchor="middle" x="183" y="-7.5" font-family="Helvetica,sans-Serif" font-size="10.00" fill="#000000">max_int</text>
</a>
</g>
</g>
<!-- Node128075&#45;&gt;Node128090 -->
<g id="edge15" class="edge">
<title>Node128075&#45;&gt;Node128090</title>
<path fill="none" stroke="#191970" d="M48.0093,-171.2187C55.3771,-144.4408 79.4797,-69.2587 127,-29 132.8701,-24.0269 140.1021,-20.3372 147.3956,-17.6057"/>
<polygon fill="#191970" stroke="#191970" points="148.8032,-20.83 157.2574,-14.4443 146.6663,-14.1642 148.8032,-20.83"/>
</g>
<!-- Node128076&#45;&gt;Node128077 -->
<g id="edge2" class="edge">
<title>Node128076&#45;&gt;Node128077</title>
<path fill="none" stroke="#191970" d="M239.1028,-345.033C253.7892,-343.2092 269.5576,-341.251 284.0188,-339.4552"/>
<polygon fill="#191970" stroke="#191970" points="284.7913,-342.8862 294.2837,-338.1805 283.9286,-335.9396 284.7913,-342.8862"/>
</g>
<!-- Node128081 -->
<g id="node7" class="node">
<title>Node128081</title>
<g id="a_node7"><a xlink:href="quickjs_8c.html#a69e19dda8a93d613203e0baa06f0ed8d" target="_top" xlink:title="js_free_rt">
<polygon fill="none" stroke="#000000" points="307.5,-190.5 307.5,-209.5 364.5,-209.5 364.5,-190.5 307.5,-190.5"/>
<text text-anchor="middle" x="336" y="-197.5" font-family="Helvetica,sans-Serif" font-size="10.00" fill="#000000">js_free_rt</text>
</a>
</g>
</g>
<!-- Node128080&#45;&gt;Node128081 -->
<g id="edge6" class="edge">
<title>Node128080&#45;&gt;Node128081</title>
<path fill="none" stroke="#191970" d="M206.2374,-200C230.3601,-200 268.51,-200 297.2133,-200"/>
<polygon fill="#191970" stroke="#191970" points="297.3173,-203.5001 307.3173,-200 297.3172,-196.5001 297.3173,-203.5001"/>
</g>
<!-- Node128083 -->
<g id="node9" class="node">
<title>Node128083</title>
<g id="a_node9"><a xlink:href="quickjs_8c.html#a4b710876403548c1ad3edc7a7719c559" target="_top" xlink:title="js_malloc_rt">
<polygon fill="none" stroke="#000000" points="301.5,-152.5 301.5,-171.5 370.5,-171.5 370.5,-152.5 301.5,-152.5"/>
<text text-anchor="middle" x="336" y="-159.5" font-family="Helvetica,sans-Serif" font-size="10.00" fill="#000000">js_malloc_rt</text>
</a>
</g>
</g>
<!-- Node128082&#45;&gt;Node128083 -->
<g id="edge8" class="edge">
<title>Node128082&#45;&gt;Node128083</title>
<path fill="none" stroke="#191970" d="M212.1383,-162C234.4658,-162 265.6674,-162 291.168,-162"/>
<polygon fill="#191970" stroke="#191970" points="291.3455,-165.5001 301.3454,-162 291.3454,-158.5001 291.3455,-165.5001"/>
</g>
<!-- Node128084 -->
<g id="node10" class="node">
<title>Node128084</title>
<g id="a_node10"><a xlink:href="quickjs_8c.html#a344d6c0e45d9bf3861fd9269724045a2" target="_top" xlink:title="JS_ThrowOutOfMemory">
<polygon fill="none" stroke="#000000" points="275,-114.5 275,-133.5 397,-133.5 397,-114.5 275,-114.5"/>
<text text-anchor="middle" x="336" y="-121.5" font-family="Helvetica,sans-Serif" font-size="10.00" fill="#000000">JS_ThrowOutOfMemory</text>
</a>
</g>
</g>
<!-- Node128082&#45;&gt;Node128084 -->
<g id="edge9" class="edge">
<title>Node128082&#45;&gt;Node128084</title>
<path fill="none" stroke="#191970" d="M212.1383,-154.763C233.4751,-149.4637 262.9161,-142.1516 287.7413,-135.9858"/>
<polygon fill="#191970" stroke="#191970" points="288.8448,-139.3182 297.7062,-133.5109 287.1574,-132.5246 288.8448,-139.3182"/>
</g>
<!-- Node128085 -->
<g id="node11" class="node">
<title>Node128085</title>
<g id="a_node11"><a xlink:href="quickjs_8c.html#a853f0924d441ea4225488f37c8b69f9a" target="_top" xlink:title="__attribute__">
<polygon fill="none" stroke="#000000" points="433,-114.5 433,-133.5 506,-133.5 506,-114.5 433,-114.5"/>
<text text-anchor="middle" x="469.5" y="-121.5" font-family="Helvetica,sans-Serif" font-size="10.00" fill="#000000">__attribute__</text>
</a>
</g>
</g>
<!-- Node128084&#45;&gt;Node128085 -->
<g id="edge10" class="edge">
<title>Node128084&#45;&gt;Node128085</title>
<path fill="none" stroke="#191970" d="M397.2799,-124C405.8587,-124 414.5588,-124 422.8083,-124"/>
<polygon fill="#191970" stroke="#191970" points="422.9737,-127.5001 432.9737,-124 422.9736,-120.5001 422.9737,-127.5001"/>
</g>
<!-- Node128088 -->
<g id="node14" class="node">
<title>Node128088</title>
<g id="a_node14"><a xlink:href="list_8h.html#a16286d5bff74a27aec51a3134ffc7b43" target="_top" xlink:title="__list_add">
<polygon fill="none" stroke="#000000" points="305.5,-76.5 305.5,-95.5 366.5,-95.5 366.5,-76.5 305.5,-76.5"/>
<text text-anchor="middle" x="336" y="-83.5" font-family="Helvetica,sans-Serif" font-size="10.00" fill="#000000">__list_add</text>
</a>
</g>
</g>
<!-- Node128087&#45;&gt;Node128088 -->
<g id="edge13" class="edge">
<title>Node128087&#45;&gt;Node128088</title>
<path fill="none" stroke="#191970" d="M217.3362,-86C240.4636,-86 271.0679,-86 295.4032,-86"/>
<polygon fill="#191970" stroke="#191970" points="295.4088,-89.5001 305.4088,-86 295.4087,-82.5001 295.4088,-89.5001"/>
</g>
</g>
</svg>
