<?xml version="1.0" encoding="UTF-8" standalone="no"?>
<!DOCTYPE svg PUBLIC "-//W3C//DTD SVG 1.1//EN"
 "http://www.w3.org/Graphics/SVG/1.1/DTD/svg11.dtd">
<!-- Generated by graphviz version 2.40.1 (20161225.0304)
 -->
<!-- Title: JS_EvalInternal Pages: 1 -->
<!--zoomable 370 -->
<svg id="main" version="1.1" xmlns="http://www.w3.org/2000/svg" xmlns:xlink="http://www.w3.org/1999/xlink" xml:space="preserve" onload="init(evt)">
<style type="text/css"><![CDATA[
.edge:hover path { stroke: red; }
.edge:hover polygon { stroke: red; fill: red; }
]]></style>
<script type="text/javascript"><![CDATA[
var edges = document.getElementsByTagName('g');
if (edges && edges.length) {
  for (var i=0;i<edges.length;i++) {
    if (edges[i].id.substr(0,4)=='edge') {
      edges[i].setAttribute('class','edge');
    }
  }
}
]]></script>
        <defs>
                <circle id="rim" cx="0" cy="0" r="7"/>
                <circle id="rim2" cx="0" cy="0" r="3.5"/>
                <g id="zoomPlus">
                        <use xlink:href="#rim" fill="#404040">
                                <set attributeName="fill" to="#808080" begin="zoomplus.mouseover" end="zoomplus.mouseout"/>
                        </use>
                        <path d="M-4,0h8M0,-4v8" fill="none" stroke="white" stroke-width="1.5" pointer-events="none"/>
                </g>
                <g id="zoomMin">
                        <use xlink:href="#rim" fill="#404040">
                                <set attributeName="fill" to="#808080" begin="zoomminus.mouseover" end="zoomminus.mouseout"/>
                        </use>
                        <path d="M-4,0h8" fill="none" stroke="white" stroke-width="1.5" pointer-events="none"/>
                </g>
                <g id="dirArrow">
                        <path fill="none" stroke="white" stroke-width="1.5" d="M0,-3.0v7 M-2.5,-0.5L0,-3.0L2.5,-0.5"/>
                </g>
               <g id="resetDef">
                       <use xlink:href="#rim2" fill="#404040">
                               <set attributeName="fill" to="#808080" begin="reset.mouseover" end="reset.mouseout"/>
                       </use>
               </g>
        </defs>

<script type="text/javascript">
var viewWidth = 650;
var viewHeight = 370;
var sectionId = 'dynsection-71';
</script>
<script xlink:href="svgpan.js"/>
<svg id="graph" class="graph">
<g id="viewport">
<title>JS_EvalInternal</title>
<!-- Node25007 -->
<g id="node1" class="node">
<title>Node25007</title>
<polygon fill="#bfbfbf" stroke="#000000" points="0,-152.5 0,-171.5 86,-171.5 86,-152.5 0,-152.5"/>
<text text-anchor="middle" x="43" y="-159.5" font-family="Helvetica,sans-Serif" font-size="10.00" fill="#000000">JS_EvalInternal</text>
</g>
<!-- Node25008 -->
<g id="node2" class="node">
<title>Node25008</title>
<g id="a_node2"><a xlink:href="quickjs_8c.html#a8f9200abd5af97fd0411fe053cb021e0" target="_top" xlink:title="JS_Eval">
<polygon fill="none" stroke="#000000" points="136.5,-266.5 136.5,-285.5 189.5,-285.5 189.5,-266.5 136.5,-266.5"/>
<text text-anchor="middle" x="163" y="-273.5" font-family="Helvetica,sans-Serif" font-size="10.00" fill="#000000">JS_Eval</text>
</a>
</g>
</g>
<!-- Node25007&#45;&gt;Node25008 -->
<g id="edge1" class="edge">
<title>Node25007&#45;&gt;Node25008</title>
<path fill="none" stroke="#191970" d="M60.7176,-178.8317C86.1959,-203.0361 132.3591,-246.8912 152.7948,-266.305"/>
<polygon fill="#191970" stroke="#191970" points="62.8918,-176.0696 53.2311,-171.7196 58.0705,-181.1446 62.8918,-176.0696"/>
</g>
<!-- Node25020 -->
<g id="node11" class="node">
<title>Node25020</title>
<g id="a_node11"><a xlink:href="quickjs_8c.html#a97231fb89bb56fdeddd9f5ba17b0e1ff" target="_top" xlink:title="JS_EvalObject">
<polygon fill="none" stroke="#000000" points="122,-57.5 122,-76.5 204,-76.5 204,-57.5 122,-57.5"/>
<text text-anchor="middle" x="163" y="-64.5" font-family="Helvetica,sans-Serif" font-size="10.00" fill="#000000">JS_EvalObject</text>
</a>
</g>
</g>
<!-- Node25007&#45;&gt;Node25020 -->
<g id="edge14" class="edge">
<title>Node25007&#45;&gt;Node25020</title>
<path fill="none" stroke="#191970" d="M63.5198,-145.7552C88.6355,-125.8719 130.3476,-92.8498 150.856,-76.614"/>
<polygon fill="#191970" stroke="#191970" points="61.0581,-143.2399 55.3901,-152.1911 65.4031,-148.7282 61.0581,-143.2399"/>
</g>
<!-- Node25009 -->
<g id="node3" class="node">
<title>Node25009</title>
<g id="a_node3"><a xlink:href="classqjs_1_1Context.html#aeafa4cad50424999587a30d7d3994251" target="_top" xlink:title="qjs::Context::eval">
<polygon fill="none" stroke="#000000" points="252,-228.5 252,-247.5 346,-247.5 346,-228.5 252,-228.5"/>
<text text-anchor="middle" x="299" y="-235.5" font-family="Helvetica,sans-Serif" font-size="10.00" fill="#000000">qjs::Context::eval</text>
</a>
</g>
</g>
<!-- Node25008&#45;&gt;Node25009 -->
<g id="edge2" class="edge">
<title>Node25008&#45;&gt;Node25009</title>
<path fill="none" stroke="#191970" d="M199.3743,-265.8366C219.6804,-260.1628 244.8274,-253.1365 264.7761,-247.5626"/>
<polygon fill="#191970" stroke="#191970" points="198.2342,-262.521 189.545,-268.583 200.118,-269.2628 198.2342,-262.521"/>
</g>
<!-- Node25012 -->
<g id="node6" class="node">
<title>Node25012</title>
<g id="a_node6"><a xlink:href="quickjs-libc_8c.html#acedf696011fa506afce358928ffa1522" target="_top" xlink:title="js_loadScript">
<polygon fill="none" stroke="#000000" points="262.5,-266.5 262.5,-285.5 335.5,-285.5 335.5,-266.5 262.5,-266.5"/>
<text text-anchor="middle" x="299" y="-273.5" font-family="Helvetica,sans-Serif" font-size="10.00" fill="#000000">js_loadScript</text>
</a>
</g>
</g>
<!-- Node25008&#45;&gt;Node25012 -->
<g id="edge6" class="edge">
<title>Node25008&#45;&gt;Node25012</title>
<path fill="none" stroke="#191970" d="M199.5795,-276C219.08,-276 242.9995,-276 262.4895,-276"/>
<polygon fill="#191970" stroke="#191970" points="199.5451,-272.5001 189.545,-276 199.545,-279.5001 199.5451,-272.5001"/>
</g>
<!-- Node25018 -->
<g id="node9" class="node">
<title>Node25018</title>
<g id="a_node9"><a xlink:href="quickjs-libc_8c.html#ad61d60681847f324c5ba4ad88c546f1e" target="_top" xlink:title="js_module_loader">
<polygon fill="none" stroke="#000000" points="419,-304.5 419,-323.5 511,-323.5 511,-304.5 419,-304.5"/>
<text text-anchor="middle" x="465" y="-311.5" font-family="Helvetica,sans-Serif" font-size="10.00" fill="#000000">js_module_loader</text>
</a>
</g>
</g>
<!-- Node25008&#45;&gt;Node25018 -->
<g id="edge10" class="edge">
<title>Node25008&#45;&gt;Node25018</title>
<path fill="none" stroke="#191970" d="M199.3259,-286.2124C212.0947,-289.4687 226.5994,-292.795 240,-295 301.31,-305.0882 372.9514,-309.9677 418.6287,-312.2212"/>
<polygon fill="#191970" stroke="#191970" points="200.0728,-282.79 189.512,-283.6387 198.2971,-289.561 200.0728,-282.79"/>
</g>
<!-- Node25019 -->
<g id="node10" class="node">
<title>Node25019</title>
<g id="a_node10"><a xlink:href="quickjs-libc_8c.html#a55f6cd4bbd0e676992642d066fd1d9fd" target="_top" xlink:title="js_evalScript">
<polygon fill="none" stroke="#000000" points="262.5,-342.5 262.5,-361.5 335.5,-361.5 335.5,-342.5 262.5,-342.5"/>
<text text-anchor="middle" x="299" y="-349.5" font-family="Helvetica,sans-Serif" font-size="10.00" fill="#000000">js_evalScript</text>
</a>
</g>
</g>
<!-- Node25008&#45;&gt;Node25019 -->
<g id="edge13" class="edge">
<title>Node25008&#45;&gt;Node25019</title>
<path fill="none" stroke="#191970" d="M183.6878,-291.7028C198.7828,-302.7226 220.0134,-317.3354 240,-328 250.1464,-333.414 261.7861,-338.39 272.0313,-342.3905"/>
<polygon fill="#191970" stroke="#191970" points="185.6841,-288.8259 175.565,-285.6868 181.5179,-294.4511 185.6841,-288.8259"/>
</g>
<!-- Node25010 -->
<g id="node4" class="node">
<title>Node25010</title>
<g id="a_node4"><a xlink:href="qjs_8cpp.html#a3c04138a5bfe5d72780bb7e82a18e627" target="_top" xlink:title="main">
<polygon fill="none" stroke="#000000" points="588,-237.5 588,-256.5 626,-256.5 626,-237.5 588,-237.5"/>
<text text-anchor="middle" x="607" y="-244.5" font-family="Helvetica,sans-Serif" font-size="10.00" fill="#000000">main</text>
</a>
</g>
</g>
<!-- Node25009&#45;&gt;Node25010 -->
<g id="edge3" class="edge">
<title>Node25009&#45;&gt;Node25010</title>
<path fill="none" stroke="#191970" d="M356.1639,-239.6704C426.6117,-241.7289 542.555,-245.1169 587.9417,-246.4431"/>
<polygon fill="#191970" stroke="#191970" points="356.2118,-236.1704 346.1138,-239.3767 356.0073,-243.1674 356.2118,-236.1704"/>
</g>
<!-- Node25011 -->
<g id="node5" class="node">
<title>Node25011</title>
<g id="a_node5"><a xlink:href="classqjs_1_1Context.html#a003bfbb1ead4106d2f1fad18cedbdad1" target="_top" xlink:title="qjs::Context::evalFile">
<polygon fill="none" stroke="#000000" points="410,-190.5 410,-209.5 520,-209.5 520,-190.5 410,-190.5"/>
<text text-anchor="middle" x="465" y="-197.5" font-family="Helvetica,sans-Serif" font-size="10.00" fill="#000000">qjs::Context::evalFile</text>
</a>
</g>
</g>
<!-- Node25009&#45;&gt;Node25011 -->
<g id="edge4" class="edge">
<title>Node25009&#45;&gt;Node25011</title>
<path fill="none" stroke="#191970" d="M350.6534,-226.1757C374.0564,-220.8184 401.3571,-214.5689 423.4124,-209.5201"/>
<polygon fill="#191970" stroke="#191970" points="349.8556,-222.7677 340.8888,-228.411 351.4177,-229.5912 349.8556,-222.7677"/>
</g>
<!-- Node25011&#45;&gt;Node25010 -->
<g id="edge5" class="edge">
<title>Node25011&#45;&gt;Node25010</title>
<path fill="none" stroke="#191970" d="M503.3915,-212.7071C530.7231,-221.7534 566.2906,-233.5257 587.8446,-240.6598"/>
<polygon fill="#191970" stroke="#191970" points="504.3291,-209.3307 493.7358,-209.5112 502.1295,-215.9762 504.3291,-209.3307"/>
</g>
<!-- Node25013 -->
<g id="node7" class="node">
<title>Node25013</title>
<g id="a_node7"><a xlink:href="quickjs-libc_8c.html#ad04466feec6822a3b838baf229f6dfa0" target="_top" xlink:title="js_std_add_helpers">
<polygon fill="none" stroke="#000000" points="414.5,-266.5 414.5,-285.5 515.5,-285.5 515.5,-266.5 414.5,-266.5"/>
<text text-anchor="middle" x="465" y="-273.5" font-family="Helvetica,sans-Serif" font-size="10.00" fill="#000000">js_std_add_helpers</text>
</a>
</g>
</g>
<!-- Node25012&#45;&gt;Node25013 -->
<g id="edge7" class="edge">
<title>Node25012&#45;&gt;Node25013</title>
<path fill="none" stroke="#191970" d="M345.9752,-276C367.3324,-276 392.6379,-276 414.4126,-276"/>
<polygon fill="#191970" stroke="#191970" points="345.8408,-272.5001 335.8408,-276 345.8407,-279.5001 345.8408,-272.5001"/>
</g>
<!-- Node25013&#45;&gt;Node25010 -->
<g id="edge8" class="edge">
<title>Node25013&#45;&gt;Node25010</title>
<path fill="none" stroke="#191970" d="M521.779,-264.4043C545.2363,-259.6137 570.8531,-254.3821 587.8123,-250.9186"/>
<polygon fill="#191970" stroke="#191970" points="520.9871,-260.9937 511.8897,-266.4239 522.3878,-267.8521 520.9871,-260.9937"/>
</g>
<!-- Node25014 -->
<g id="node8" class="node">
<title>Node25014</title>
<g id="a_node8"><a xlink:href="quickjs-libc_8c.html#a1fbb3adc15e7b967479fc1940e99b67a" target="_top" xlink:title="worker_func">
<polygon fill="none" stroke="#ff0000" points="572,-294.5 572,-313.5 642,-313.5 642,-294.5 572,-294.5"/>
<text text-anchor="middle" x="607" y="-301.5" font-family="Helvetica,sans-Serif" font-size="10.00" fill="#000000">worker_func</text>
</a>
</g>
</g>
<!-- Node25013&#45;&gt;Node25014 -->
<g id="edge9" class="edge">
<title>Node25013&#45;&gt;Node25014</title>
<path fill="none" stroke="#191970" d="M523.514,-287.538C539.8854,-290.7661 557.1712,-294.1746 571.7407,-297.0475"/>
<polygon fill="#191970" stroke="#191970" points="523.9594,-284.0585 513.4712,-285.5577 522.6051,-290.9262 523.9594,-284.0585"/>
</g>
<!-- Node25018&#45;&gt;Node25010 -->
<g id="edge11" class="edge">
<title>Node25018&#45;&gt;Node25010</title>
<path fill="none" stroke="#191970" d="M519.3604,-301.4728C525.0743,-299.5614 530.7196,-297.4088 536,-295 558.4714,-284.7491 581.6537,-267.6097 595.1763,-256.8256"/>
<polygon fill="#191970" stroke="#191970" points="518.2429,-298.1549 509.7318,-304.4646 520.32,-304.8397 518.2429,-298.1549"/>
</g>
<!-- Node25018&#45;&gt;Node25014 -->
<g id="edge12" class="edge">
<title>Node25018&#45;&gt;Node25014</title>
<path fill="none" stroke="#191970" d="M521.516,-310.02C538.5396,-308.8212 556.7235,-307.5406 571.9245,-306.4701"/>
<polygon fill="#191970" stroke="#191970" points="520.8327,-306.5594 511.1033,-310.7533 521.3245,-313.5421 520.8327,-306.5594"/>
</g>
<!-- Node25021 -->
<g id="node12" class="node">
<title>Node25021</title>
<g id="a_node12"><a xlink:href="quickjs_8c.html#ac2894ff4edcdb4e6841bcce9c76081e3" target="_top" xlink:title="JS_CallInternal">
<polygon fill="none" stroke="#000000" points="257.5,-76.5 257.5,-95.5 340.5,-95.5 340.5,-76.5 257.5,-76.5"/>
<text text-anchor="middle" x="299" y="-83.5" font-family="Helvetica,sans-Serif" font-size="10.00" fill="#000000">JS_CallInternal</text>
</a>
</g>
</g>
<!-- Node25020&#45;&gt;Node25021 -->
<g id="edge15" class="edge">
<title>Node25020&#45;&gt;Node25021</title>
<path fill="none" stroke="#191970" d="M214.3302,-74.1711C228.5848,-76.1626 243.881,-78.2996 257.497,-80.2018"/>
<polygon fill="#191970" stroke="#191970" points="214.5617,-70.6696 204.1736,-72.7522 213.5931,-77.6022 214.5617,-70.6696"/>
</g>
<!-- Node25394 -->
<g id="node17" class="node">
<title>Node25394</title>
<g id="a_node17"><a xlink:href="quickjs_8c.html#a43064473b2e303ee40f4c1c7a87e85da" target="_top" xlink:title="js_function_constructor">
<polygon fill="none" stroke="#ff0000" points="240,-38.5 240,-57.5 358,-57.5 358,-38.5 240,-38.5"/>
<text text-anchor="middle" x="299" y="-45.5" font-family="Helvetica,sans-Serif" font-size="10.00" fill="#000000">js_function_constructor</text>
</a>
</g>
</g>
<!-- Node25020&#45;&gt;Node25394 -->
<g id="edge24" class="edge">
<title>Node25020&#45;&gt;Node25394</title>
<path fill="none" stroke="#191970" d="M214.1918,-59.8482C222.5838,-58.6758 231.3401,-57.4525 239.9047,-56.256"/>
<polygon fill="#191970" stroke="#191970" points="213.5931,-56.3978 204.1736,-61.2478 214.5617,-63.3304 213.5931,-56.3978"/>
</g>
<!-- Node25617 -->
<g id="node19" class="node">
<title>Node25617</title>
<g id="a_node19"><a xlink:href="quickjs_8c.html#aa760a09841b95bbc8ab2859780713705" target="_top" xlink:title="js_global_eval">
<polygon fill="none" stroke="#000000" points="260,-.5 260,-19.5 338,-19.5 338,-.5 260,-.5"/>
<text text-anchor="middle" x="299" y="-7.5" font-family="Helvetica,sans-Serif" font-size="10.00" fill="#000000">js_global_eval</text>
</a>
</g>
</g>
<!-- Node25020&#45;&gt;Node25617 -->
<g id="edge26" class="edge">
<title>Node25020&#45;&gt;Node25617</title>
<path fill="none" stroke="#191970" d="M189.3966,-52.7726C204.0607,-45.1759 222.773,-35.9806 240,-29 248.4774,-25.5648 257.8297,-22.3162 266.5413,-19.5089"/>
<polygon fill="#191970" stroke="#191970" points="187.6286,-49.7476 180.4011,-57.4944 190.8821,-55.9456 187.6286,-49.7476"/>
</g>
<!-- Node25021&#45;&gt;Node25021 -->
<g id="edge23" class="edge">
<title>Node25021&#45;&gt;Node25021</title>
<path fill="none" stroke="#191970" d="M273.7025,-105.0292C275.0824,-110.128 283.5149,-114 299,-114 323.1719,-114 330.1591,-104.5653 319.9615,-95.7571"/>
<polygon fill="#191970" stroke="#191970" points="276.9728,-106.2982 278.0385,-95.7571 270.6319,-103.3329 276.9728,-106.2982"/>
</g>
<!-- Node25022 -->
<g id="node13" class="node">
<title>Node25022</title>
<g id="a_node13"><a xlink:href="quickjs_8c.html#ade71a22dc56e7371392393df663b28b3" target="_top" xlink:title="async_func_resume">
<polygon fill="none" stroke="#ff0000" points="413,-114.5 413,-133.5 517,-133.5 517,-114.5 413,-114.5"/>
<text text-anchor="middle" x="465" y="-121.5" font-family="Helvetica,sans-Serif" font-size="10.00" fill="#000000">async_func_resume</text>
</a>
</g>
</g>
<!-- Node25021&#45;&gt;Node25022 -->
<g id="edge16" class="edge">
<title>Node25021&#45;&gt;Node25022</title>
<path fill="none" stroke="#191970" d="M350.6534,-97.8243C374.0564,-103.1816 401.3571,-109.4311 423.4124,-114.4799"/>
<polygon fill="#191970" stroke="#191970" points="351.4177,-94.4088 340.8888,-95.589 349.8556,-101.2323 351.4177,-94.4088"/>
</g>
<!-- Node25036 -->
<g id="node14" class="node">
<title>Node25036</title>
<g id="a_node14"><a xlink:href="quickjs_8c.html#a1a4c02a29525d5cb2085dd8bca3af350" target="_top" xlink:title="JS_Call">
<polygon fill="none" stroke="#ff0000" points="439.5,-76.5 439.5,-95.5 490.5,-95.5 490.5,-76.5 439.5,-76.5"/>
<text text-anchor="middle" x="465" y="-83.5" font-family="Helvetica,sans-Serif" font-size="10.00" fill="#000000">JS_Call</text>
</a>
</g>
</g>
<!-- Node25021&#45;&gt;Node25036 -->
<g id="edge17" class="edge">
<title>Node25021&#45;&gt;Node25036</title>
<path fill="none" stroke="#191970" d="M350.985,-79.6876C380.3235,-78.8214 415.7006,-79.2411 439.1878,-80.9466"/>
<polygon fill="#191970" stroke="#191970" points="350.7577,-76.1934 340.8888,-80.0476 351.0072,-83.1889 350.7577,-76.1934"/>
</g>
<!-- Node25117 -->
<g id="node15" class="node">
<title>Node25117</title>
<g id="a_node15"><a xlink:href="quickjs_8c.html#ad35594576a14c10812efaf958c99af8a" target="_top" xlink:title="JS_CallConstructorInternal">
<polygon fill="none" stroke="#ff0000" points="398,-38.5 398,-57.5 532,-57.5 532,-38.5 398,-38.5"/>
<text text-anchor="middle" x="465" y="-45.5" font-family="Helvetica,sans-Serif" font-size="10.00" fill="#000000">JS_CallConstructorInternal</text>
</a>
</g>
</g>
<!-- Node25021&#45;&gt;Node25117 -->
<g id="edge19" class="edge">
<title>Node25021&#45;&gt;Node25117</title>
<path fill="none" stroke="#191970" d="M330.0131,-73.5019C349.1022,-67.9742 374.3327,-61.7848 397.8105,-56.7408"/>
<polygon fill="#191970" stroke="#191970" points="328.9281,-70.1733 320.3618,-76.4076 330.9462,-76.8761 328.9281,-70.1733"/>
</g>
<!-- Node25131 -->
<g id="node16" class="node">
<title>Node25131</title>
<g id="a_node16"><a xlink:href="quickjs_8c.html#a75f6ee5e4235a7dc99889f3d2eb2c147" target="_top" xlink:title="JS_CallFree">
<polygon fill="none" stroke="#ff0000" points="429.5,-152.5 429.5,-171.5 500.5,-171.5 500.5,-152.5 429.5,-152.5"/>
<text text-anchor="middle" x="465" y="-159.5" font-family="Helvetica,sans-Serif" font-size="10.00" fill="#000000">JS_CallFree</text>
</a>
</g>
</g>
<!-- Node25021&#45;&gt;Node25131 -->
<g id="edge21" class="edge">
<title>Node25021&#45;&gt;Node25131</title>
<path fill="none" stroke="#191970" d="M331.8073,-100.7873C349.5757,-111.3298 372.2848,-124.7947 394,-134 412.6795,-141.9185 435.5444,-147.3301 450.1898,-152.4506"/>
<polygon fill="#191970" stroke="#191970" points="333.3867,-97.6551 322.9973,-95.5786 329.8242,-103.6808 333.3867,-97.6551"/>
</g>
<!-- Node25036&#45;&gt;Node25021 -->
<g id="edge18" class="edge">
<title>Node25036&#45;&gt;Node25021</title>
<path fill="none" stroke="#191970" d="M429.0401,-91.6754C403.1232,-93.009 368.0709,-93.1013 340.8888,-91.9524"/>
<polygon fill="#191970" stroke="#191970" points="429.4206,-95.1587 439.1878,-91.0534 428.9924,-88.1718 429.4206,-95.1587"/>
</g>
<!-- Node25117&#45;&gt;Node25021 -->
<g id="edge20" class="edge">
<title>Node25117&#45;&gt;Node25021</title>
<path fill="none" stroke="#191970" d="M434.1089,-60.4628C407.8436,-68.0751 369.8875,-76.9509 340.8888,-82.3634"/>
<polygon fill="#191970" stroke="#191970" points="435.3389,-63.7476 443.9023,-57.5092 433.3176,-57.0458 435.3389,-63.7476"/>
</g>
<!-- Node25131&#45;&gt;Node25021 -->
<g id="edge22" class="edge">
<title>Node25131&#45;&gt;Node25021</title>
<path fill="none" stroke="#191970" d="M419.3984,-160.6486C410.8154,-158.3387 402.0218,-155.4005 394,-152 358.5828,-136.9862 320.5216,-110.6414 305.5646,-95.5425"/>
<polygon fill="#191970" stroke="#191970" points="418.7747,-164.0988 429.3186,-163.0615 420.4292,-157.2971 418.7747,-164.0988"/>
</g>
<!-- Node25049 -->
<g id="node18" class="node">
<title>Node25049</title>
<g id="a_node18"><a xlink:href="quickjs_8c.html#a4c9489297c684663f30e517204a9ec14" target="_top" xlink:title="JS_AddIntrinsicBaseObjects">
<polygon fill="none" stroke="#ff0000" points="394,-.5 394,-19.5 536,-19.5 536,-.5 394,-.5"/>
<text text-anchor="middle" x="465" y="-7.5" font-family="Helvetica,sans-Serif" font-size="10.00" fill="#000000">JS_AddIntrinsicBaseObjects</text>
</a>
</g>
</g>
<!-- Node25394&#45;&gt;Node25049 -->
<g id="edge25" class="edge">
<title>Node25394&#45;&gt;Node25049</title>
<path fill="none" stroke="#191970" d="M350.6534,-36.1757C374.0564,-30.8184 401.3571,-24.5689 423.4124,-19.5201"/>
<polygon fill="#191970" stroke="#191970" points="349.8556,-32.7677 340.8888,-38.411 351.4177,-39.5912 349.8556,-32.7677"/>
</g>
<!-- Node25617&#45;&gt;Node25049 -->
<g id="edge27" class="edge">
<title>Node25617&#45;&gt;Node25049</title>
<path fill="none" stroke="#191970" d="M348.4,-10C362.6436,-10 378.4755,-10 393.7638,-10"/>
<polygon fill="#191970" stroke="#191970" points="348.3397,-6.5001 338.3397,-10 348.3396,-13.5001 348.3397,-6.5001"/>
</g>
</g>
</svg>
        <g id="navigator" transform="translate(0 0)" fill="#404254">
                <rect fill="#f2f5e9" fill-opacity="0.5" stroke="#606060" stroke-width=".5" x="0" y="0" width="60" height="60"/>
                <use id="zoomplus" xlink:href="#zoomPlus" x="17" y="9" onmousedown="handleZoom(evt,'in')"/>
                <use id="zoomminus" xlink:href="#zoomMin" x="42" y="9" onmousedown="handleZoom(evt,'out')"/>
                <use id="reset" xlink:href="#resetDef" x="30" y="36" onmousedown="handleReset()"/>
                <g id="arrowUp" xlink:href="#dirArrow" transform="translate(30 24)" onmousedown="handlePan(0,-1)">
                  <use xlink:href="#rim" fill="#404040">
                        <set attributeName="fill" to="#808080" begin="arrowUp.mouseover" end="arrowUp.mouseout"/>
                  </use>
                  <path fill="none" stroke="white" stroke-width="1.5" d="M0,-3.0v7 M-2.5,-0.5L0,-3.0L2.5,-0.5"/>
                </g>
                <g id="arrowRight" xlink:href="#dirArrow" transform="rotate(90) translate(36 -43)" onmousedown="handlePan(1,0)">
                  <use xlink:href="#rim" fill="#404040">
                        <set attributeName="fill" to="#808080" begin="arrowRight.mouseover" end="arrowRight.mouseout"/>
                  </use>
                  <path fill="none" stroke="white" stroke-width="1.5" d="M0,-3.0v7 M-2.5,-0.5L0,-3.0L2.5,-0.5"/>
                </g>
                <g id="arrowDown" xlink:href="#dirArrow" transform="rotate(180) translate(-30 -48)" onmousedown="handlePan(0,1)">
                  <use xlink:href="#rim" fill="#404040">
                        <set attributeName="fill" to="#808080" begin="arrowDown.mouseover" end="arrowDown.mouseout"/>
                  </use>
                  <path fill="none" stroke="white" stroke-width="1.5" d="M0,-3.0v7 M-2.5,-0.5L0,-3.0L2.5,-0.5"/>
                </g>
                <g id="arrowLeft" xlink:href="#dirArrow" transform="rotate(270) translate(-36 17)" onmousedown="handlePan(-1,0)">
                  <use xlink:href="#rim" fill="#404040">
                        <set attributeName="fill" to="#808080" begin="arrowLeft.mouseover" end="arrowLeft.mouseout"/>
                  </use>
                  <path fill="none" stroke="white" stroke-width="1.5" d="M0,-3.0v7 M-2.5,-0.5L0,-3.0L2.5,-0.5"/>
                </g>
        </g>
        <svg viewBox="0 0 15 15" width="100%" height="30px" preserveAspectRatio="xMaxYMin meet">
         <g id="arrow_out" transform="scale(0.3 0.3)">
          <a xlink:href="quickjs_8c_a0800e3e7b9763c0dddb2f3f85df25635_icgraph_org.svg" target="_base">
           <rect id="button" ry="5" rx="5" y="6" x="6" height="38" width="38"
                fill="#f2f5e9" fill-opacity="0.5" stroke="#606060" stroke-width="1.0"/>
           <path id="arrow"
             d="M 11.500037,31.436501 C 11.940474,20.09759 22.043105,11.32322 32.158766,21.979434 L 37.068811,17.246167 C 37.068811,17.246167 37.088388,32 37.088388,32 L 22.160133,31.978069 C 22.160133,31.978069 26.997745,27.140456 26.997745,27.140456 C 18.528582,18.264221 13.291696,25.230495 11.500037,31.436501 z"
             style="fill:#404040;"/>
          </a>
         </g>
        </svg>
</svg>
