<?xml version="1.0" encoding="UTF-8" standalone="no"?>
<!DOCTYPE svg PUBLIC "-//W3C//DTD SVG 1.1//EN"
 "http://www.w3.org/Graphics/SVG/1.1/DTD/svg11.dtd">
<!-- Generated by graphviz version 2.40.1 (20161225.0304)
 -->
<!-- Title: js_evaluate_module Pages: 1 -->
<!--zoomable 85 -->
<svg id="main" version="1.1" xmlns="http://www.w3.org/2000/svg" xmlns:xlink="http://www.w3.org/1999/xlink" xml:space="preserve" onload="init(evt)">
<style type="text/css"><![CDATA[
.edge:hover path { stroke: red; }
.edge:hover polygon { stroke: red; fill: red; }
]]></style>
<script type="text/javascript"><![CDATA[
var edges = document.getElementsByTagName('g');
if (edges && edges.length) {
  for (var i=0;i<edges.length;i++) {
    if (edges[i].id.substr(0,4)=='edge') {
      edges[i].setAttribute('class','edge');
    }
  }
}
]]></script>
        <defs>
                <circle id="rim" cx="0" cy="0" r="7"/>
                <circle id="rim2" cx="0" cy="0" r="3.5"/>
                <g id="zoomPlus">
                        <use xlink:href="#rim" fill="#404040">
                                <set attributeName="fill" to="#808080" begin="zoomplus.mouseover" end="zoomplus.mouseout"/>
                        </use>
                        <path d="M-4,0h8M0,-4v8" fill="none" stroke="white" stroke-width="1.5" pointer-events="none"/>
                </g>
                <g id="zoomMin">
                        <use xlink:href="#rim" fill="#404040">
                                <set attributeName="fill" to="#808080" begin="zoomminus.mouseover" end="zoomminus.mouseout"/>
                        </use>
                        <path d="M-4,0h8" fill="none" stroke="white" stroke-width="1.5" pointer-events="none"/>
                </g>
                <g id="dirArrow">
                        <path fill="none" stroke="white" stroke-width="1.5" d="M0,-3.0v7 M-2.5,-0.5L0,-3.0L2.5,-0.5"/>
                </g>
               <g id="resetDef">
                       <use xlink:href="#rim2" fill="#404040">
                               <set attributeName="fill" to="#808080" begin="reset.mouseover" end="reset.mouseout"/>
                       </use>
               </g>
        </defs>

<script type="text/javascript">
var viewWidth = 536;
var viewHeight = 85;
var sectionId = 'dynsection-1153';
</script>
<script xlink:href="svgpan.js"/>
<svg id="graph" class="graph">
<g id="viewport">
<title>js_evaluate_module</title>
<!-- Node346609 -->
<g id="node1" class="node">
<title>Node346609</title>
<polygon fill="#bfbfbf" stroke="#000000" points="0,-19.5 0,-38.5 103,-38.5 103,-19.5 0,-19.5"/>
<text text-anchor="middle" x="51.5" y="-26.5" font-family="Helvetica,sans-Serif" font-size="10.00" fill="#000000">js_evaluate_module</text>
</g>
<!-- Node346609&#45;&gt;Node346609 -->
<g id="edge6" class="edge">
<title>Node346609&#45;&gt;Node346609</title>
<path fill="none" stroke="#191970" d="M23.8742,-47.6539C25.0289,-52.9368 34.2375,-57 51.5,-57 77.8047,-57 85.4084,-47.5653 74.3111,-38.7571"/>
<polygon fill="#191970" stroke="#191970" points="27.0076,-49.2176 28.6889,-38.7571 20.8512,-45.886 27.0076,-49.2176"/>
</g>
<!-- Node346610 -->
<g id="node2" class="node">
<title>Node346610</title>
<g id="a_node2"><a xlink:href="quickjs_8c.html#a5d217acce00892ab2b50a1dcc1eb4cc8" target="_top" xlink:title="JS_EvalFunctionInternal">
<polygon fill="none" stroke="#000000" points="139,-19.5 139,-38.5 262,-38.5 262,-19.5 139,-19.5"/>
<text text-anchor="middle" x="200.5" y="-26.5" font-family="Helvetica,sans-Serif" font-size="10.00" fill="#000000">JS_EvalFunctionInternal</text>
</a>
</g>
</g>
<!-- Node346609&#45;&gt;Node346610 -->
<g id="edge1" class="edge">
<title>Node346609&#45;&gt;Node346610</title>
<path fill="none" stroke="#191970" d="M113.352,-29C121.7946,-29 130.4605,-29 138.8987,-29"/>
<polygon fill="#191970" stroke="#191970" points="113.1948,-25.5001 103.1948,-29 113.1948,-32.5001 113.1948,-25.5001"/>
</g>
<!-- Node346611 -->
<g id="node3" class="node">
<title>Node346611</title>
<g id="a_node3"><a xlink:href="quickjs_8c.html#af38ab3d672d41db0fa7a75b5c24149e4" target="_top" xlink:title="JS_EvalFunction">
<polygon fill="none" stroke="#000000" points="300.5,-38.5 300.5,-57.5 391.5,-57.5 391.5,-38.5 300.5,-38.5"/>
<text text-anchor="middle" x="346" y="-45.5" font-family="Helvetica,sans-Serif" font-size="10.00" fill="#000000">JS_EvalFunction</text>
</a>
</g>
</g>
<!-- Node346610&#45;&gt;Node346611 -->
<g id="edge2" class="edge">
<title>Node346610&#45;&gt;Node346611</title>
<path fill="none" stroke="#191970" d="M272.3947,-38.3883C281.8196,-39.6191 291.2636,-40.8523 300.094,-42.0054"/>
<polygon fill="#191970" stroke="#191970" points="272.5741,-34.8821 262.2051,-37.0577 271.6677,-41.8232 272.5741,-34.8821"/>
</g>
<!-- Node346792 -->
<g id="node6" class="node">
<title>Node346792</title>
<g id="a_node6"><a xlink:href="quickjs_8c.html#a46a8a7e155cfd0af984f6725f060f0d6" target="_top" xlink:title="__JS_EvalInternal">
<polygon fill="none" stroke="#ff0000" points="298,-.5 298,-19.5 394,-19.5 394,-.5 298,-.5"/>
<text text-anchor="middle" x="346" y="-7.5" font-family="Helvetica,sans-Serif" font-size="10.00" fill="#000000">__JS_EvalInternal</text>
</a>
</g>
</g>
<!-- Node346610&#45;&gt;Node346792 -->
<g id="edge5" class="edge">
<title>Node346610&#45;&gt;Node346792</title>
<path fill="none" stroke="#191970" d="M272.336,-19.6194C280.9978,-18.4883 289.6769,-17.3549 297.8821,-16.2834"/>
<polygon fill="#191970" stroke="#191970" points="271.6677,-16.1768 262.2051,-20.9423 272.5741,-23.1179 271.6677,-16.1768"/>
</g>
<!-- Node346612 -->
<g id="node4" class="node">
<title>Node346612</title>
<g id="a_node4"><a xlink:href="quickjs-libc_8c.html#ab1b439d304c2125490b47ef262b5df67" target="_top" xlink:title="js_std_eval_binary">
<polygon fill="none" stroke="#000000" points="430,-57.5 430,-76.5 528,-76.5 528,-57.5 430,-57.5"/>
<text text-anchor="middle" x="479" y="-64.5" font-family="Helvetica,sans-Serif" font-size="10.00" fill="#000000">js_std_eval_binary</text>
</a>
</g>
</g>
<!-- Node346611&#45;&gt;Node346612 -->
<g id="edge3" class="edge">
<title>Node346611&#45;&gt;Node346612</title>
<path fill="none" stroke="#191970" d="M401.778,-55.9683C411.1389,-57.3056 420.791,-58.6844 429.9657,-59.9951"/>
<polygon fill="#191970" stroke="#191970" points="402.1656,-52.4882 391.7711,-54.5387 401.1755,-59.4178 402.1656,-52.4882"/>
</g>
<!-- Node346613 -->
<g id="node5" class="node">
<title>Node346613</title>
<g id="a_node5"><a xlink:href="quickjs_8c.html#aa75a2b06808d8da661d4eb6698b17cab" target="_top" xlink:title="JS_RunModule">
<polygon fill="none" stroke="#ff0000" points="437.5,-19.5 437.5,-38.5 520.5,-38.5 520.5,-19.5 437.5,-19.5"/>
<text text-anchor="middle" x="479" y="-26.5" font-family="Helvetica,sans-Serif" font-size="10.00" fill="#000000">JS_RunModule</text>
</a>
</g>
</g>
<!-- Node346611&#45;&gt;Node346613 -->
<g id="edge4" class="edge">
<title>Node346611&#45;&gt;Node346613</title>
<path fill="none" stroke="#191970" d="M401.9748,-40.0036C413.7624,-38.3197 426.0027,-36.571 437.1632,-34.9767"/>
<polygon fill="#191970" stroke="#191970" points="401.1755,-36.5822 391.7711,-41.4613 402.1656,-43.5118 401.1755,-36.5822"/>
</g>
</g>
</svg>
        <g id="navigator" transform="translate(0 0)" fill="#404254">
                <rect fill="#f2f5e9" fill-opacity="0.5" stroke="#606060" stroke-width=".5" x="0" y="0" width="60" height="60"/>
                <use id="zoomplus" xlink:href="#zoomPlus" x="17" y="9" onmousedown="handleZoom(evt,'in')"/>
                <use id="zoomminus" xlink:href="#zoomMin" x="42" y="9" onmousedown="handleZoom(evt,'out')"/>
                <use id="reset" xlink:href="#resetDef" x="30" y="36" onmousedown="handleReset()"/>
                <g id="arrowUp" xlink:href="#dirArrow" transform="translate(30 24)" onmousedown="handlePan(0,-1)">
                  <use xlink:href="#rim" fill="#404040">
                        <set attributeName="fill" to="#808080" begin="arrowUp.mouseover" end="arrowUp.mouseout"/>
                  </use>
                  <path fill="none" stroke="white" stroke-width="1.5" d="M0,-3.0v7 M-2.5,-0.5L0,-3.0L2.5,-0.5"/>
                </g>
                <g id="arrowRight" xlink:href="#dirArrow" transform="rotate(90) translate(36 -43)" onmousedown="handlePan(1,0)">
                  <use xlink:href="#rim" fill="#404040">
                        <set attributeName="fill" to="#808080" begin="arrowRight.mouseover" end="arrowRight.mouseout"/>
                  </use>
                  <path fill="none" stroke="white" stroke-width="1.5" d="M0,-3.0v7 M-2.5,-0.5L0,-3.0L2.5,-0.5"/>
                </g>
                <g id="arrowDown" xlink:href="#dirArrow" transform="rotate(180) translate(-30 -48)" onmousedown="handlePan(0,1)">
                  <use xlink:href="#rim" fill="#404040">
                        <set attributeName="fill" to="#808080" begin="arrowDown.mouseover" end="arrowDown.mouseout"/>
                  </use>
                  <path fill="none" stroke="white" stroke-width="1.5" d="M0,-3.0v7 M-2.5,-0.5L0,-3.0L2.5,-0.5"/>
                </g>
                <g id="arrowLeft" xlink:href="#dirArrow" transform="rotate(270) translate(-36 17)" onmousedown="handlePan(-1,0)">
                  <use xlink:href="#rim" fill="#404040">
                        <set attributeName="fill" to="#808080" begin="arrowLeft.mouseover" end="arrowLeft.mouseout"/>
                  </use>
                  <path fill="none" stroke="white" stroke-width="1.5" d="M0,-3.0v7 M-2.5,-0.5L0,-3.0L2.5,-0.5"/>
                </g>
        </g>
        <svg viewBox="0 0 15 15" width="100%" height="30px" preserveAspectRatio="xMaxYMin meet">
         <g id="arrow_out" transform="scale(0.3 0.3)">
          <a xlink:href="quickjs_8c_a8caed40cacf996391536c97ef916af21_icgraph_org.svg" target="_base">
           <rect id="button" ry="5" rx="5" y="6" x="6" height="38" width="38"
                fill="#f2f5e9" fill-opacity="0.5" stroke="#606060" stroke-width="1.0"/>
           <path id="arrow"
             d="M 11.500037,31.436501 C 11.940474,20.09759 22.043105,11.32322 32.158766,21.979434 L 37.068811,17.246167 C 37.068811,17.246167 37.088388,32 37.088388,32 L 22.160133,31.978069 C 22.160133,31.978069 26.997745,27.140456 26.997745,27.140456 C 18.528582,18.264221 13.291696,25.230495 11.500037,31.436501 z"
             style="fill:#404040;"/>
          </a>
         </g>
        </svg>
</svg>
