<?xml version="1.0" encoding="UTF-8" standalone="no"?>
<!DOCTYPE svg PUBLIC "-//W3C//DTD SVG 1.1//EN"
 "http://www.w3.org/Graphics/SVG/1.1/DTD/svg11.dtd">
<!-- Generated by graphviz version 2.40.1 (20161225.0304)
 -->
<!-- Title: js_array_concat Pages: 1 -->
<svg width="583pt" height="1265pt"
 viewBox="0.00 0.00 583.00 1264.74" xmlns="http://www.w3.org/2000/svg" xmlns:xlink="http://www.w3.org/1999/xlink">
<g id="graph0" class="graph" transform="scale(1 1) rotate(0) translate(4 1260.7407)">
<title>js_array_concat</title>
<!-- Node392801 -->
<g id="node1" class="node">
<title>Node392801</title>
<polygon fill="#bfbfbf" stroke="#000000" points="0,-513.5 0,-532.5 86,-532.5 86,-513.5 0,-513.5"/>
<text text-anchor="middle" x="43" y="-520.5" font-family="Helvetica,sans-Serif" font-size="10.00" fill="#000000">js_array_concat</text>
</g>
<!-- Node392802 -->
<g id="node2" class="node">
<title>Node392802</title>
<g id="a_node2"><a xlink:href="quickjs_8c.html#a3b818b1ca9d2d4aaa9b55b1cc54c1bc4" target="_top" xlink:title="JS_ArraySpeciesCreate">
<polygon fill="none" stroke="#000000" points="134,-874.5 134,-893.5 256,-893.5 256,-874.5 134,-874.5"/>
<text text-anchor="middle" x="195" y="-881.5" font-family="Helvetica,sans-Serif" font-size="10.00" fill="#000000">JS_ArraySpeciesCreate</text>
</a>
</g>
</g>
<!-- Node392801&#45;&gt;Node392802 -->
<g id="edge1" class="edge">
<title>Node392801&#45;&gt;Node392802</title>
<path fill="none" stroke="#191970" d="M47.0656,-532.6559C67.5035,-581.1958 159.1366,-798.8244 186.9619,-864.9094"/>
<polygon fill="#191970" stroke="#191970" points="183.8861,-866.6239 190.9924,-874.482 190.3375,-863.9074 183.8861,-866.6239"/>
</g>
<!-- Node392805 -->
<g id="node4" class="node">
<title>Node392805</title>
<g id="a_node4"><a xlink:href="quickjs_8h.html#a775522f2d084fc8fa0fcb33f390006b4" target="_top" xlink:title="JS_DupValue">
<polygon fill="none" stroke="#000000" points="493.5,-874.5 493.5,-893.5 570.5,-893.5 570.5,-874.5 493.5,-874.5"/>
<text text-anchor="middle" x="532" y="-881.5" font-family="Helvetica,sans-Serif" font-size="10.00" fill="#000000">JS_DupValue</text>
</a>
</g>
</g>
<!-- Node392801&#45;&gt;Node392805 -->
<g id="edge26" class="edge">
<title>Node392801&#45;&gt;Node392805</title>
<path fill="none" stroke="#191970" d="M43.6268,-532.6593C47.7739,-594.5628 72.6285,-935.8759 122,-1026 173.8866,-1120.7153 203.0076,-1148.741 304,-1187 365.9275,-1210.46 403.3167,-1230.783 453,-1187 548.4562,-1102.88 412.9756,-1005.0213 489,-903 489.7955,-901.9325 490.6642,-900.9238 491.5936,-899.9709"/>
<polygon fill="#191970" stroke="#191970" points="493.9279,-902.5902 499.6976,-893.7042 489.6458,-897.0527 493.9279,-902.5902"/>
</g>
<!-- Node392806 -->
<g id="node5" class="node">
<title>Node392806</title>
<g id="a_node5"><a xlink:href="quickjs_8h.html#afaa20c47565bc704c6c85f3d77254e7d" target="_top" xlink:title="JS_FreeValue">
<polygon fill="none" stroke="#ff0000" points="493,-342.5 493,-361.5 571,-361.5 571,-342.5 493,-342.5"/>
<text text-anchor="middle" x="532" y="-349.5" font-family="Helvetica,sans-Serif" font-size="10.00" fill="#000000">JS_FreeValue</text>
</a>
</g>
</g>
<!-- Node392801&#45;&gt;Node392806 -->
<g id="edge27" class="edge">
<title>Node392801&#45;&gt;Node392806</title>
<path fill="none" stroke="#191970" d="M49.8636,-513.2468C76.8614,-475.8508 180.3533,-341.401 304,-295 366.0003,-271.7331 389.9853,-274.64 453,-295 477.4419,-302.8972 500.6877,-321.4858 515.5541,-335.3008"/>
<polygon fill="#191970" stroke="#191970" points="513.2765,-337.9667 522.9054,-342.3865 518.1343,-332.9267 513.2765,-337.9667"/>
</g>
<!-- Node392855 -->
<g id="node6" class="node">
<title>Node392855</title>
<g id="a_node6"><a xlink:href="quickjs_8h.html#ad80a83d73e9b7d872b88fbf2943aebe9" target="_top" xlink:title="JS_IsException">
<polygon fill="none" stroke="#000000" points="489,-912.5 489,-931.5 575,-931.5 575,-912.5 489,-912.5"/>
<text text-anchor="middle" x="532" y="-919.5" font-family="Helvetica,sans-Serif" font-size="10.00" fill="#000000">JS_IsException</text>
</a>
</g>
</g>
<!-- Node392801&#45;&gt;Node392855 -->
<g id="edge41" class="edge">
<title>Node392801&#45;&gt;Node392855</title>
<path fill="none" stroke="#191970" d="M43.1354,-532.651C44.2603,-600.9947 53.8204,-1012.0737 122,-1112 208.687,-1239.0514 330.8226,-1306.4312 453,-1213 497.1448,-1179.2417 522.405,-1001.3177 529.7403,-941.5791"/>
<polygon fill="#191970" stroke="#191970" points="533.2249,-941.9163 530.9355,-931.5718 526.2742,-941.0861 533.2249,-941.9163"/>
</g>
<!-- Node393119 -->
<g id="node7" class="node">
<title>Node393119</title>
<g id="a_node7"><a xlink:href="quickjs_8h.html#af763b173e78debf2075670ca2c128a30" target="_top" xlink:title="JS_SetProperty">
<polygon fill="none" stroke="#ff0000" points="489,-684.5 489,-703.5 575,-703.5 575,-684.5 489,-684.5"/>
<text text-anchor="middle" x="532" y="-691.5" font-family="Helvetica,sans-Serif" font-size="10.00" fill="#000000">JS_SetProperty</text>
</a>
</g>
</g>
<!-- Node392801&#45;&gt;Node393119 -->
<g id="edge44" class="edge">
<title>Node392801&#45;&gt;Node393119</title>
<path fill="none" stroke="#191970" d="M86.1346,-528.1355C163.2719,-538.6182 328.4261,-567.0207 453,-630 476.9242,-642.0951 500.2666,-662.3644 515.2971,-676.8522"/>
<polygon fill="#191970" stroke="#191970" points="513.1723,-679.6734 522.7432,-684.2174 518.095,-674.6967 513.1723,-679.6734"/>
</g>
<!-- Node393238 -->
<g id="node17" class="node">
<title>Node393238</title>
<g id="a_node17"><a xlink:href="quickjs_8c.html#a57a83f0615206965524d78bf89bbf777" target="_top" xlink:title="JS_DefinePropertyValueInt64">
<polygon fill="none" stroke="#000000" points="122,-.5 122,-19.5 268,-19.5 268,-.5 122,-.5"/>
<text text-anchor="middle" x="195" y="-7.5" font-family="Helvetica,sans-Serif" font-size="10.00" fill="#000000">JS_DefinePropertyValueInt64</text>
</a>
</g>
</g>
<!-- Node392801&#45;&gt;Node393238 -->
<g id="edge20" class="edge">
<title>Node392801&#45;&gt;Node393238</title>
<path fill="none" stroke="#191970" d="M43.2339,-513.3167C44.9209,-451.3021 57.0887,-110.0311 122,-34 125.1888,-30.2649 128.97,-27.1078 133.1073,-24.4396"/>
<polygon fill="#191970" stroke="#191970" points="134.8905,-27.4543 142.0241,-19.6209 131.5626,-21.296 134.8905,-27.4543"/>
</g>
<!-- Node393071 -->
<g id="node20" class="node">
<title>Node393071</title>
<g id="a_node20"><a xlink:href="quickjs_8h.html#a6acbc709e59969eac6775f9b253b438f" target="_top" xlink:title="JS_NewInt64">
<polygon fill="none" stroke="#ff0000" points="340.5,-38.5 340.5,-57.5 416.5,-57.5 416.5,-38.5 340.5,-38.5"/>
<text text-anchor="middle" x="378.5" y="-45.5" font-family="Helvetica,sans-Serif" font-size="10.00" fill="#000000">JS_NewInt64</text>
</a>
</g>
</g>
<!-- Node392801&#45;&gt;Node393071 -->
<g id="edge43" class="edge">
<title>Node392801&#45;&gt;Node393071</title>
<path fill="none" stroke="#191970" d="M43.1743,-513.1131C44.4557,-452.751 54.3855,-134.4037 122,-72 177.9647,-20.3483 272.9596,-26.7901 330.3039,-36.896"/>
<polygon fill="#191970" stroke="#191970" points="329.7369,-40.3505 340.2092,-38.7441 331.0209,-33.4692 329.7369,-40.3505"/>
</g>
<!-- Node392856 -->
<g id="node21" class="node">
<title>Node392856</title>
<g id="a_node21"><a xlink:href="quickjs_8h.html#a2050bc428da1c65ac7eb87c3fa3b0392" target="_top" xlink:title="JS_NewInt32">
<polygon fill="none" stroke="#000000" points="494,-152.5 494,-171.5 570,-171.5 570,-152.5 494,-152.5"/>
<text text-anchor="middle" x="532" y="-159.5" font-family="Helvetica,sans-Serif" font-size="10.00" fill="#000000">JS_NewInt32</text>
</a>
</g>
</g>
<!-- Node392801&#45;&gt;Node392856 -->
<g id="edge42" class="edge">
<title>Node392801&#45;&gt;Node392856</title>
<path fill="none" stroke="#191970" d="M44.2685,-513.3101C50.5777,-466.4839 79.9606,-264.052 122,-219 215.5214,-118.7769 397.2994,-136.2616 483.8927,-151.687"/>
<polygon fill="#191970" stroke="#191970" points="483.499,-155.1734 493.9687,-153.5499 484.7717,-148.2901 483.499,-155.1734"/>
</g>
<!-- Node393239 -->
<g id="node22" class="node">
<title>Node393239</title>
<g id="a_node22"><a xlink:href="quickjs_8c.html#a5f848f76409193212a44e6221e430919" target="_top" xlink:title="js_get_length64">
<polygon fill="none" stroke="#000000" points="152.5,-475.5 152.5,-494.5 237.5,-494.5 237.5,-475.5 152.5,-475.5"/>
<text text-anchor="middle" x="195" y="-482.5" font-family="Helvetica,sans-Serif" font-size="10.00" fill="#000000">js_get_length64</text>
</a>
</g>
</g>
<!-- Node392801&#45;&gt;Node393239 -->
<g id="edge28" class="edge">
<title>Node392801&#45;&gt;Node393239</title>
<path fill="none" stroke="#191970" d="M81.356,-513.411C101.3237,-508.4191 125.9295,-502.2676 147.1334,-496.9666"/>
<polygon fill="#191970" stroke="#191970" points="148.0673,-500.341 156.9198,-494.5201 146.3695,-493.55 148.0673,-500.341"/>
</g>
<!-- Node393243 -->
<g id="node24" class="node">
<title>Node393243</title>
<g id="a_node24"><a xlink:href="quickjs_8c.html#a8c41d5cf05e42294d414a1ac8b069874" target="_top" xlink:title="JS_isConcatSpreadable">
<polygon fill="none" stroke="#000000" points="134,-646.5 134,-665.5 256,-665.5 256,-646.5 134,-646.5"/>
<text text-anchor="middle" x="195" y="-653.5" font-family="Helvetica,sans-Serif" font-size="10.00" fill="#000000">JS_isConcatSpreadable</text>
</a>
</g>
</g>
<!-- Node392801&#45;&gt;Node393243 -->
<g id="edge33" class="edge">
<title>Node392801&#45;&gt;Node393243</title>
<path fill="none" stroke="#191970" d="M53.9315,-532.565C79.5511,-554.9822 143.733,-611.1414 175.9397,-639.3222"/>
<polygon fill="#191970" stroke="#191970" points="173.9269,-642.2117 183.7575,-646.1628 178.5365,-636.9437 173.9269,-642.2117"/>
</g>
<!-- Node393075 -->
<g id="node26" class="node">
<title>Node393075</title>
<g id="a_node26"><a xlink:href="quickjs_8c.html#a710289a14c2810467e5b448d3c28bd55" target="_top" xlink:title="JS_ToObject">
<polygon fill="none" stroke="#ff0000" points="341.5,-1158.5 341.5,-1177.5 415.5,-1177.5 415.5,-1158.5 341.5,-1158.5"/>
<text text-anchor="middle" x="378.5" y="-1165.5" font-family="Helvetica,sans-Serif" font-size="10.00" fill="#000000">JS_ToObject</text>
</a>
</g>
</g>
<!-- Node392801&#45;&gt;Node393075 -->
<g id="edge45" class="edge">
<title>Node392801&#45;&gt;Node393075</title>
<path fill="none" stroke="#191970" d="M43.4861,-532.5731C46.0324,-576.7848 60.1823,-764.9329 122,-903 177.5771,-1027.1289 191.1238,-1073.1333 304,-1149 312.1399,-1154.471 321.7445,-1158.3667 331.3024,-1161.1406"/>
<polygon fill="#191970" stroke="#191970" points="330.6291,-1164.5806 341.1825,-1163.6443 332.3486,-1157.795 330.6291,-1164.5806"/>
</g>
<!-- Node393244 -->
<g id="node27" class="node">
<title>Node393244</title>
<g id="a_node27"><a xlink:href="quickjs_8c.html#a14674e74168715dc5a3a391910982e5d" target="_top" xlink:title="JS_TryGetPropertyInt64">
<polygon fill="none" stroke="#ff0000" points="134,-228.5 134,-247.5 256,-247.5 256,-228.5 134,-228.5"/>
<text text-anchor="middle" x="195" y="-235.5" font-family="Helvetica,sans-Serif" font-size="10.00" fill="#000000">JS_TryGetPropertyInt64</text>
</a>
</g>
</g>
<!-- Node392801&#45;&gt;Node393244 -->
<g id="edge49" class="edge">
<title>Node392801&#45;&gt;Node393244</title>
<path fill="none" stroke="#191970" d="M44.7092,-513.2785C52.4001,-470.5476 85.0365,-299.8509 122,-262 125.8449,-258.0628 130.3461,-254.7713 135.1922,-252.0196"/>
<polygon fill="#191970" stroke="#191970" points="136.7598,-255.1493 144.2205,-247.6268 133.6971,-248.8548 136.7598,-255.1493"/>
</g>
<!-- Node392803 -->
<g id="node3" class="node">
<title>Node392803</title>
<g id="a_node3"><a xlink:href="quickjs_8c.html#a68c7842d6b1ef577bc4625aec4ede310" target="_top" xlink:title="js_array_constructor">
<polygon fill="none" stroke="#ff0000" points="326,-874.5 326,-893.5 431,-893.5 431,-874.5 326,-874.5"/>
<text text-anchor="middle" x="378.5" y="-881.5" font-family="Helvetica,sans-Serif" font-size="10.00" fill="#000000">js_array_constructor</text>
</a>
</g>
</g>
<!-- Node392802&#45;&gt;Node392803 -->
<g id="edge2" class="edge">
<title>Node392802&#45;&gt;Node392803</title>
<path fill="none" stroke="#191970" d="M256.1028,-884C275.2803,-884 296.4759,-884 315.7644,-884"/>
<polygon fill="#191970" stroke="#191970" points="315.9566,-887.5001 325.9566,-884 315.9565,-880.5001 315.9566,-887.5001"/>
</g>
<!-- Node392802&#45;&gt;Node392806 -->
<g id="edge8" class="edge">
<title>Node392802&#45;&gt;Node392806</title>
<path fill="none" stroke="#191970" d="M208.7812,-874.3476C228.8323,-860.7362 267.6333,-836.0034 304,-822 367.2965,-797.6269 407.826,-839.5945 453,-789 503.897,-731.9957 468.988,-520.7531 489,-447 496.555,-419.1565 511.3667,-389.1652 521.473,-370.4896"/>
<polygon fill="#191970" stroke="#191970" points="524.6157,-372.039 526.3965,-361.5949 518.4914,-368.6489 524.6157,-372.039"/>
</g>
<!-- Node392802&#45;&gt;Node392855 -->
<g id="edge14" class="edge">
<title>Node392802&#45;&gt;Node392855</title>
<path fill="none" stroke="#191970" d="M198.438,-893.8794C208.9287,-922.2792 243.551,-1004.0825 304,-1035 362.9581,-1065.155 394.2714,-1065.5996 453,-1035 491.0434,-1015.1781 514.5375,-967.7318 525.209,-941.0515"/>
<polygon fill="#191970" stroke="#191970" points="528.5058,-942.2287 528.785,-931.6376 521.962,-939.743 528.5058,-942.2287"/>
</g>
<!-- Node393172 -->
<g id="node8" class="node">
<title>Node393172</title>
<g id="a_node8"><a xlink:href="quickjs_8c.html#a28704096ee67c5b0ab1bd60ce050e36a" target="_top" xlink:title="JS_CallConstructor">
<polygon fill="none" stroke="#ff0000" points="327.5,-968.5 327.5,-987.5 429.5,-987.5 429.5,-968.5 327.5,-968.5"/>
<text text-anchor="middle" x="378.5" y="-975.5" font-family="Helvetica,sans-Serif" font-size="10.00" fill="#000000">JS_CallConstructor</text>
</a>
</g>
</g>
<!-- Node392802&#45;&gt;Node393172 -->
<g id="edge7" class="edge">
<title>Node392802&#45;&gt;Node393172</title>
<path fill="none" stroke="#191970" d="M205.9628,-893.5383C224.7553,-909.4085 264.8876,-941.2421 304,-959 309.3724,-961.4392 315.1108,-963.6025 320.9284,-965.5125"/>
<polygon fill="#191970" stroke="#191970" points="320.1579,-968.9363 330.7434,-968.4918 322.1911,-962.2381 320.1579,-968.9363"/>
</g>
<!-- Node392844 -->
<g id="node9" class="node">
<title>Node392844</title>
<g id="a_node9"><a xlink:href="quickjs_8c.html#a83e9d1851a3e2cd176944272b583143c" target="_top" xlink:title="JS_GetFunctionRealm">
<polygon fill="none" stroke="#ff0000" points="320.5,-912.5 320.5,-931.5 436.5,-931.5 436.5,-912.5 320.5,-912.5"/>
<text text-anchor="middle" x="378.5" y="-919.5" font-family="Helvetica,sans-Serif" font-size="10.00" fill="#000000">JS_GetFunctionRealm</text>
</a>
</g>
</g>
<!-- Node392802&#45;&gt;Node392844 -->
<g id="edge9" class="edge">
<title>Node392802&#45;&gt;Node392844</title>
<path fill="none" stroke="#191970" d="M241.3048,-893.589C265.9559,-898.6939 296.4625,-905.0113 322.4447,-910.3918"/>
<polygon fill="#191970" stroke="#191970" points="322.0262,-913.8793 332.5282,-912.4799 323.4457,-907.0248 322.0262,-913.8793"/>
</g>
<!-- Node392846 -->
<g id="node10" class="node">
<title>Node392846</title>
<g id="a_node10"><a xlink:href="quickjs_8h.html#a89b7c8686c7eee70b86be722ee4730ad" target="_top" xlink:title="JS_GetProperty">
<polygon fill="none" stroke="#ff0000" points="489,-456.5 489,-475.5 575,-475.5 575,-456.5 489,-456.5"/>
<text text-anchor="middle" x="532" y="-463.5" font-family="Helvetica,sans-Serif" font-size="10.00" fill="#000000">JS_GetProperty</text>
</a>
</g>
</g>
<!-- Node392802&#45;&gt;Node392846 -->
<g id="edge11" class="edge">
<title>Node392802&#45;&gt;Node392846</title>
<path fill="none" stroke="#191970" d="M247.3588,-874.4815C318.5061,-861.0891 438.5711,-836.6832 453,-822 459.0804,-815.8124 512.6898,-559.1094 527.9582,-485.5253"/>
<polygon fill="#191970" stroke="#191970" points="531.3924,-486.2017 529.9949,-475.6994 524.5381,-484.7809 531.3924,-486.2017"/>
</g>
<!-- Node393236 -->
<g id="node11" class="node">
<title>Node393236</title>
<g id="a_node11"><a xlink:href="quickjs_8c.html#a1fc2c29e89230a9792fd36ae50b270e4" target="_top" xlink:title="JS_IsArray">
<polygon fill="none" stroke="#ff0000" points="346,-722.5 346,-741.5 411,-741.5 411,-722.5 346,-722.5"/>
<text text-anchor="middle" x="378.5" y="-729.5" font-family="Helvetica,sans-Serif" font-size="10.00" fill="#000000">JS_IsArray</text>
</a>
</g>
</g>
<!-- Node392802&#45;&gt;Node393236 -->
<g id="edge12" class="edge">
<title>Node392802&#45;&gt;Node393236</title>
<path fill="none" stroke="#191970" d="M200.1077,-874.1813C213.5345,-849.383 252.3755,-783.8701 304,-751 313.5688,-744.9074 324.9946,-740.7661 335.9901,-737.9519"/>
<polygon fill="#191970" stroke="#191970" points="336.9132,-741.3318 345.9014,-735.7226 335.377,-734.5024 336.9132,-741.3318"/>
</g>
<!-- Node393212 -->
<g id="node12" class="node">
<title>Node393212</title>
<g id="a_node12"><a xlink:href="quickjs_8c.html#afa39b15865cb50fc2383e76e33b2de1a" target="_top" xlink:title="JS_IsConstructor">
<polygon fill="none" stroke="#000000" points="332,-1120.5 332,-1139.5 425,-1139.5 425,-1120.5 332,-1120.5"/>
<text text-anchor="middle" x="378.5" y="-1127.5" font-family="Helvetica,sans-Serif" font-size="10.00" fill="#000000">JS_IsConstructor</text>
</a>
</g>
</g>
<!-- Node392802&#45;&gt;Node393212 -->
<g id="edge13" class="edge">
<title>Node392802&#45;&gt;Node393212</title>
<path fill="none" stroke="#191970" d="M199.9104,-893.5698C211.8551,-916.9162 243.2633,-978.7124 268,-1031 284.6738,-1066.2446 274.1496,-1085.9172 304,-1111 309.2869,-1115.4425 315.4794,-1118.8653 321.9957,-1121.4993"/>
<polygon fill="#191970" stroke="#191970" points="321.1122,-1124.8961 331.7067,-1124.8207 323.3776,-1118.2728 321.1122,-1124.8961"/>
</g>
<!-- Node393009 -->
<g id="node13" class="node">
<title>Node393009</title>
<g id="a_node13"><a xlink:href="quickjs_8h.html#a149f24b67e745bad93573b3b4c80db4c" target="_top" xlink:title="JS_IsNull">
<polygon fill="none" stroke="#000000" points="349,-1082.5 349,-1101.5 408,-1101.5 408,-1082.5 349,-1082.5"/>
<text text-anchor="middle" x="378.5" y="-1089.5" font-family="Helvetica,sans-Serif" font-size="10.00" fill="#000000">JS_IsNull</text>
</a>
</g>
</g>
<!-- Node392802&#45;&gt;Node393009 -->
<g id="edge15" class="edge">
<title>Node392802&#45;&gt;Node393009</title>
<path fill="none" stroke="#191970" d="M199.6266,-893.7599C216.0895,-928.1333 272.5197,-1042.8633 304,-1068 314.038,-1076.0153 326.8211,-1081.3836 338.9533,-1084.9668"/>
<polygon fill="#191970" stroke="#191970" points="338.3562,-1088.4284 348.9167,-1087.5759 340.1295,-1081.6568 338.3562,-1088.4284"/>
</g>
<!-- Node393084 -->
<g id="node14" class="node">
<title>Node393084</title>
<g id="a_node14"><a xlink:href="quickjs_8h.html#a3d68fe446df2d9c7d1900b16371bff5b" target="_top" xlink:title="JS_IsObject">
<polygon fill="none" stroke="#000000" points="343,-684.5 343,-703.5 414,-703.5 414,-684.5 343,-684.5"/>
<text text-anchor="middle" x="378.5" y="-691.5" font-family="Helvetica,sans-Serif" font-size="10.00" fill="#000000">JS_IsObject</text>
</a>
</g>
</g>
<!-- Node392802&#45;&gt;Node393084 -->
<g id="edge16" class="edge">
<title>Node392802&#45;&gt;Node393084</title>
<path fill="none" stroke="#191970" d="M198.1948,-874.4601C208.4652,-845.3131 243.5387,-756.7609 304,-713 312.4341,-706.8955 322.6448,-702.7471 332.7666,-699.9295"/>
<polygon fill="#191970" stroke="#191970" points="333.8781,-703.2625 342.7896,-697.5323 332.2497,-696.4545 333.8781,-703.2625"/>
</g>
<!-- Node393010 -->
<g id="node15" class="node">
<title>Node393010</title>
<g id="a_node15"><a xlink:href="quickjs_8h.html#a4e407128a9605afb77523e49e9a627fd" target="_top" xlink:title="JS_IsUndefined">
<polygon fill="none" stroke="#000000" points="335.5,-760.5 335.5,-779.5 421.5,-779.5 421.5,-760.5 335.5,-760.5"/>
<text text-anchor="middle" x="378.5" y="-767.5" font-family="Helvetica,sans-Serif" font-size="10.00" fill="#000000">JS_IsUndefined</text>
</a>
</g>
</g>
<!-- Node392802&#45;&gt;Node393010 -->
<g id="edge17" class="edge">
<title>Node392802&#45;&gt;Node393010</title>
<path fill="none" stroke="#191970" d="M204.0067,-874.4636C221.5996,-856.349 262.4558,-816.7459 304,-794 312.0528,-789.591 321.0441,-785.8376 329.9177,-782.7008"/>
<polygon fill="#191970" stroke="#191970" points="331.0617,-786.0089 339.4503,-779.5372 328.8569,-779.3652 331.0617,-786.0089"/>
</g>
<!-- Node393022 -->
<g id="node16" class="node">
<title>Node393022</title>
<g id="a_node16"><a xlink:href="quickjs_8c.html#a24be89a128d1cd7c0908604815b2b854" target="_top" xlink:title="js_same_value">
<polygon fill="none" stroke="#ff0000" points="337.5,-1006.5 337.5,-1025.5 419.5,-1025.5 419.5,-1006.5 337.5,-1006.5"/>
<text text-anchor="middle" x="378.5" y="-1013.5" font-family="Helvetica,sans-Serif" font-size="10.00" fill="#000000">js_same_value</text>
</a>
</g>
</g>
<!-- Node392802&#45;&gt;Node393022 -->
<g id="edge18" class="edge">
<title>Node392802&#45;&gt;Node393022</title>
<path fill="none" stroke="#191970" d="M201.3728,-893.5936C216.4521,-915.5077 256.634,-969.4657 304,-997 311.299,-1001.243 319.539,-1004.5491 327.8095,-1007.1224"/>
<polygon fill="#191970" stroke="#191970" points="326.9051,-1010.5037 337.4778,-1009.8188 328.7856,-1003.761 326.9051,-1010.5037"/>
</g>
<!-- Node392803&#45;&gt;Node392805 -->
<g id="edge3" class="edge">
<title>Node392803&#45;&gt;Node392805</title>
<path fill="none" stroke="#191970" d="M431.326,-884C447.9727,-884 466.2878,-884 482.6805,-884"/>
<polygon fill="#191970" stroke="#191970" points="483.1384,-887.5001 493.1384,-884 483.1383,-880.5001 483.1384,-887.5001"/>
</g>
<!-- Node392803&#45;&gt;Node392806 -->
<g id="edge4" class="edge">
<title>Node392803&#45;&gt;Node392806</title>
<path fill="none" stroke="#191970" d="M396.7648,-874.4248C414.4629,-864.0711 440.4193,-845.8031 453,-822 531.2382,-673.9711 445.8958,-608.7894 489,-447 496.4273,-419.1222 511.2703,-389.1393 521.4183,-370.4749"/>
<polygon fill="#191970" stroke="#191970" points="524.5604,-372.0264 526.3646,-361.5863 518.4437,-368.6225 524.5604,-372.0264"/>
</g>
<!-- Node392803&#45;&gt;Node392855 -->
<g id="edge5" class="edge">
<title>Node392803&#45;&gt;Node392855</title>
<path fill="none" stroke="#191970" d="M417.2345,-893.589C437.3993,-898.5809 462.2479,-904.7324 483.6611,-910.0334"/>
<polygon fill="#191970" stroke="#191970" points="482.9959,-913.4743 493.544,-912.4799 484.6781,-906.6794 482.9959,-913.4743"/>
</g>
<!-- Node392803&#45;&gt;Node393119 -->
<g id="edge6" class="edge">
<title>Node392803&#45;&gt;Node393119</title>
<path fill="none" stroke="#191970" d="M427.6147,-874.4712C436.7781,-871.0316 445.7411,-866.3554 453,-860 498.5035,-820.1603 519.9275,-748.3479 527.988,-713.7237"/>
<polygon fill="#191970" stroke="#191970" points="531.4241,-714.3943 530.1491,-703.8764 524.5868,-712.8937 531.4241,-714.3943"/>
</g>
<!-- Node392844&#45;&gt;Node392844 -->
<g id="edge10" class="edge">
<title>Node392844&#45;&gt;Node392844</title>
<path fill="none" stroke="#191970" d="M355.0724,-931.7571C343.6752,-940.5653 351.4844,-950 378.5,-950 396.229,-950 405.6865,-945.9368 406.8725,-940.6539"/>
<polygon fill="#191970" stroke="#191970" points="409.8449,-938.7974 401.9276,-931.7571 403.7265,-942.1981 409.8449,-938.7974"/>
</g>
<!-- Node393022&#45;&gt;Node392805 -->
<g id="edge19" class="edge">
<title>Node393022&#45;&gt;Node392805</title>
<path fill="none" stroke="#191970" d="M419.7575,-1012.651C431.6263,-1009.9156 443.8277,-1005.1653 453,-997 486.4148,-967.2538 458.1721,-935.4195 489,-903 490.2373,-901.6988 491.5795,-900.481 492.9994,-899.3417"/>
<polygon fill="#191970" stroke="#191970" points="495.304,-902.019 501.7928,-893.6436 491.4973,-896.1445 495.304,-902.019"/>
</g>
<!-- Node393070 -->
<g id="node18" class="node">
<title>Node393070</title>
<g id="a_node18"><a xlink:href="quickjs_8c.html#a0c61bd5a64c743e81188bb528b78e715" target="_top" xlink:title="JS_DefinePropertyValueValue">
<polygon fill="none" stroke="#ff0000" points="304,-.5 304,-19.5 453,-19.5 453,-.5 304,-.5"/>
<text text-anchor="middle" x="378.5" y="-7.5" font-family="Helvetica,sans-Serif" font-size="10.00" fill="#000000">JS_DefinePropertyValueValue</text>
</a>
</g>
</g>
<!-- Node393238&#45;&gt;Node393070 -->
<g id="edge21" class="edge">
<title>Node393238&#45;&gt;Node393070</title>
<path fill="none" stroke="#191970" d="M268.0513,-10C276.528,-10 285.227,-10 293.8421,-10"/>
<polygon fill="#191970" stroke="#191970" points="293.8987,-13.5001 303.8987,-10 293.8986,-6.5001 293.8987,-13.5001"/>
</g>
<!-- Node393238&#45;&gt;Node393071 -->
<g id="edge24" class="edge">
<title>Node393238&#45;&gt;Node393071</title>
<path fill="none" stroke="#191970" d="M241.3048,-19.589C268.5381,-25.2286 302.9178,-32.3481 330.4486,-38.0493"/>
<polygon fill="#191970" stroke="#191970" points="329.7537,-41.4796 340.2558,-40.0802 331.1733,-34.625 329.7537,-41.4796"/>
</g>
<!-- Node393070&#45;&gt;Node392806 -->
<g id="edge23" class="edge">
<title>Node393070&#45;&gt;Node392806</title>
<path fill="none" stroke="#191970" d="M440.118,-19.6212C444.8651,-22.1107 449.2571,-25.1924 453,-29 501.6677,-78.5097 472.5343,-113.5564 489,-181 502.4437,-236.0658 518.9362,-300.936 527.0335,-332.6179"/>
<polygon fill="#191970" stroke="#191970" points="523.659,-333.5494 529.5288,-342.3696 530.4406,-331.8141 523.659,-333.5494"/>
</g>
<!-- Node392828 -->
<g id="node19" class="node">
<title>Node392828</title>
<g id="a_node19"><a xlink:href="quickjs_8c.html#ab7fc45a99935a1c0ba50b0216d9401a9" target="_top" xlink:title="JS_FreeAtom">
<polygon fill="none" stroke="#ff0000" points="493.5,-114.5 493.5,-133.5 570.5,-133.5 570.5,-114.5 493.5,-114.5"/>
<text text-anchor="middle" x="532" y="-121.5" font-family="Helvetica,sans-Serif" font-size="10.00" fill="#000000">JS_FreeAtom</text>
</a>
</g>
</g>
<!-- Node393070&#45;&gt;Node392828 -->
<g id="edge22" class="edge">
<title>Node393070&#45;&gt;Node392828</title>
<path fill="none" stroke="#191970" d="M433.0714,-19.6301C440.0682,-22.0796 446.9061,-25.1505 453,-29 483.8243,-48.4717 508.5422,-83.9649 521.6743,-105.6215"/>
<polygon fill="#191970" stroke="#191970" points="518.7967,-107.6336 526.8731,-114.4909 524.8357,-104.0938 518.7967,-107.6336"/>
</g>
<!-- Node393071&#45;&gt;Node392856 -->
<g id="edge25" class="edge">
<title>Node393071&#45;&gt;Node392856</title>
<path fill="none" stroke="#191970" d="M416.6475,-54.1533C429.3084,-57.6978 442.7681,-63.2659 453,-72 479.9094,-94.9703 463.3259,-118.6567 489,-143 490.6361,-144.5513 492.4198,-145.989 494.3002,-147.3197"/>
<polygon fill="#191970" stroke="#191970" points="492.6203,-150.3926 503.0059,-152.4877 496.1936,-144.3733 492.6203,-150.3926"/>
</g>
<!-- Node393239&#45;&gt;Node392855 -->
<g id="edge30" class="edge">
<title>Node393239&#45;&gt;Node392855</title>
<path fill="none" stroke="#191970" d="M232.6429,-494.5137C290.5098,-511.2719 400.1574,-551.9158 453,-630 521.5914,-731.3558 415.6265,-805.0505 489,-903 489.7982,-904.0655 490.6693,-905.0724 491.6007,-906.0238"/>
<polygon fill="#191970" stroke="#191970" points="489.659,-908.9463 499.7147,-912.283 493.9345,-903.4038 489.659,-908.9463"/>
</g>
<!-- Node393239&#45;&gt;Node392846 -->
<g id="edge29" class="edge">
<title>Node393239&#45;&gt;Node392846</title>
<path fill="none" stroke="#191970" d="M237.6813,-482.5936C298.9607,-479.1387 411.8215,-472.7756 478.5666,-469.0126"/>
<polygon fill="#191970" stroke="#191970" points="479.0808,-472.4892 488.8679,-468.4318 478.6867,-465.5003 479.0808,-472.4892"/>
</g>
<!-- Node393240 -->
<g id="node23" class="node">
<title>Node393240</title>
<g id="a_node23"><a xlink:href="quickjs_8c.html#a07acd485a57197356906928a788a0644" target="_top" xlink:title="JS_ToLengthFree">
<polygon fill="none" stroke="#ff0000" points="331.5,-380.5 331.5,-399.5 425.5,-399.5 425.5,-380.5 331.5,-380.5"/>
<text text-anchor="middle" x="378.5" y="-387.5" font-family="Helvetica,sans-Serif" font-size="10.00" fill="#000000">JS_ToLengthFree</text>
</a>
</g>
</g>
<!-- Node393239&#45;&gt;Node393240 -->
<g id="edge31" class="edge">
<title>Node393239&#45;&gt;Node393240</title>
<path fill="none" stroke="#191970" d="M205.9382,-475.3261C224.6944,-459.2318 264.7748,-426.956 304,-409 309.4426,-406.5086 315.2645,-404.307 321.1657,-402.3701"/>
<polygon fill="#191970" stroke="#191970" points="322.5626,-405.6041 331.119,-399.3561 320.5338,-398.9046 322.5626,-405.6041"/>
</g>
<!-- Node393240&#45;&gt;Node392806 -->
<g id="edge32" class="edge">
<title>Node393240&#45;&gt;Node392806</title>
<path fill="none" stroke="#191970" d="M417.2345,-380.411C437.3993,-375.4191 462.2479,-369.2676 483.6611,-363.9666"/>
<polygon fill="#191970" stroke="#191970" points="484.6781,-367.3206 493.544,-361.5201 482.9959,-360.5257 484.6781,-367.3206"/>
</g>
<!-- Node393243&#45;&gt;Node392855 -->
<g id="edge36" class="edge">
<title>Node393243&#45;&gt;Node392855</title>
<path fill="none" stroke="#191970" d="M229.8652,-646.4876C284.93,-633.7886 392.0229,-618.8902 453,-675 528.4915,-744.4657 426.4529,-821.6839 489,-903 489.933,-904.213 490.96,-905.3502 492.0622,-906.4162"/>
<polygon fill="#191970" stroke="#191970" points="490.1108,-909.3264 500.2293,-912.4677 494.2782,-903.7021 490.1108,-909.3264"/>
</g>
<!-- Node393243&#45;&gt;Node392846 -->
<g id="edge34" class="edge">
<title>Node393243&#45;&gt;Node392846</title>
<path fill="none" stroke="#191970" d="M212.1752,-646.3167C267.275,-615.2515 439.8433,-517.9578 505.9111,-480.7089"/>
<polygon fill="#191970" stroke="#191970" points="507.8674,-483.6239 514.8594,-475.6638 504.4295,-477.5263 507.8674,-483.6239"/>
</g>
<!-- Node393243&#45;&gt;Node393236 -->
<g id="edge35" class="edge">
<title>Node393243&#45;&gt;Node393236</title>
<path fill="none" stroke="#191970" d="M210.7054,-665.7074C231.4154,-678.1535 269.3005,-699.71 304,-713 314.1074,-716.8712 325.2862,-720.1962 335.8436,-722.9327"/>
<polygon fill="#191970" stroke="#191970" points="335.1722,-726.372 345.72,-725.3746 336.8524,-719.5766 335.1722,-726.372"/>
</g>
<!-- Node393243&#45;&gt;Node393084 -->
<g id="edge37" class="edge">
<title>Node393243&#45;&gt;Node393084</title>
<path fill="none" stroke="#191970" d="M241.3048,-665.589C269.3891,-671.4048 305.0735,-678.7945 333.0091,-684.5795"/>
<polygon fill="#191970" stroke="#191970" points="332.4202,-688.0318 342.9222,-686.6324 333.8397,-681.1772 332.4202,-688.0318"/>
</g>
<!-- Node393243&#45;&gt;Node393010 -->
<g id="edge38" class="edge">
<title>Node393243&#45;&gt;Node393010</title>
<path fill="none" stroke="#191970" d="M203.2342,-665.7366C220.1008,-685.0393 260.6568,-728.2533 304,-751 310.7388,-754.5366 318.1714,-757.4403 325.6544,-759.8176"/>
<polygon fill="#191970" stroke="#191970" points="324.8881,-763.2393 335.4665,-762.6486 326.8287,-756.5136 324.8881,-763.2393"/>
</g>
<!-- Node393011 -->
<g id="node25" class="node">
<title>Node393011</title>
<g id="a_node25"><a xlink:href="quickjs_8c.html#a2bf30c9cddfe98a32535843202495069" target="_top" xlink:title="JS_ToBoolFree">
<polygon fill="none" stroke="#000000" points="336.5,-418.5 336.5,-437.5 420.5,-437.5 420.5,-418.5 336.5,-418.5"/>
<text text-anchor="middle" x="378.5" y="-425.5" font-family="Helvetica,sans-Serif" font-size="10.00" fill="#000000">JS_ToBoolFree</text>
</a>
</g>
</g>
<!-- Node393243&#45;&gt;Node393011 -->
<g id="edge39" class="edge">
<title>Node393243&#45;&gt;Node393011</title>
<path fill="none" stroke="#191970" d="M202.6511,-646.4934C230.6309,-611.7284 327.6686,-491.1583 364.3278,-445.6091"/>
<polygon fill="#191970" stroke="#191970" points="367.2729,-447.532 370.8162,-437.5472 361.8197,-443.1431 367.2729,-447.532"/>
</g>
<!-- Node393011&#45;&gt;Node392806 -->
<g id="edge40" class="edge">
<title>Node393011&#45;&gt;Node392806</title>
<path fill="none" stroke="#191970" d="M420.8345,-420.1256C431.6044,-417.3395 442.964,-413.6925 453,-409 475.7511,-398.3623 498.6902,-380.886 513.9435,-368.0845"/>
<polygon fill="#191970" stroke="#191970" points="516.2725,-370.6979 521.5769,-361.5266 511.7109,-365.3883 516.2725,-370.6979"/>
</g>
<!-- Node393075&#45;&gt;Node392805 -->
<g id="edge46" class="edge">
<title>Node393075&#45;&gt;Node392805</title>
<path fill="none" stroke="#191970" d="M415.506,-1166.9031C429.1305,-1164.5776 443.5309,-1159.5132 453,-1149 526.9506,-1066.8959 422.1264,-990.9642 489,-903 489.9261,-901.7818 490.9473,-900.6401 492.0445,-899.5702"/>
<polygon fill="#191970" stroke="#191970" points="494.2615,-902.2832 500.1907,-893.5028 490.0801,-896.6693 494.2615,-902.2832"/>
</g>
<!-- Node393075&#45;&gt;Node392855 -->
<g id="edge47" class="edge">
<title>Node393075&#45;&gt;Node392855</title>
<path fill="none" stroke="#191970" d="M415.6726,-1165.7166C428.8352,-1163.1907 442.8732,-1158.2988 453,-1149 514.3561,-1092.6606 528.0602,-986.1575 531.1204,-941.9812"/>
<polygon fill="#191970" stroke="#191970" points="534.6181,-942.1213 531.702,-931.9357 527.6298,-941.7167 534.6181,-942.1213"/>
</g>
<!-- Node393075&#45;&gt;Node392856 -->
<g id="edge48" class="edge">
<title>Node393075&#45;&gt;Node392856</title>
<path fill="none" stroke="#191970" d="M415.6787,-1167.4458C429.4975,-1165.2198 443.9906,-1160.0823 453,-1149 510.2484,-1078.5794 475.8667,-422.7996 489,-333 497.2027,-276.9135 516.036,-212.4992 525.8298,-181.1477"/>
<polygon fill="#191970" stroke="#191970" points="529.2011,-182.0951 528.8848,-171.505 522.528,-179.9809 529.2011,-182.0951"/>
</g>
<!-- Node393244&#45;&gt;Node392855 -->
<g id="edge62" class="edge">
<title>Node393244&#45;&gt;Node392855</title>
<path fill="none" stroke="#191970" d="M197.6191,-247.6651C206.8343,-280.0188 240.6747,-385.917 304,-447 356.797,-497.9275 410.9961,-457.8601 453,-518 551.4059,-658.8946 388.5883,-763.5277 489,-903 489.7779,-904.0805 490.6312,-905.1004 491.5472,-906.0631"/>
<polygon fill="#191970" stroke="#191970" points="489.5594,-908.9523 499.585,-912.3783 493.884,-903.448 489.5594,-908.9523"/>
</g>
<!-- Node393244&#45;&gt;Node392846 -->
<g id="edge52" class="edge">
<title>Node393244&#45;&gt;Node392846</title>
<path fill="none" stroke="#191970" d="M203.2342,-247.7366C220.1008,-267.0393 260.6568,-310.2533 304,-333 364.5146,-364.7584 395.2208,-334.5009 453,-371 483.8243,-390.4717 508.5422,-425.9649 521.6743,-447.6215"/>
<polygon fill="#191970" stroke="#191970" points="518.7967,-449.6336 526.8731,-456.4909 524.8357,-446.0938 518.7967,-449.6336"/>
</g>
<!-- Node393244&#45;&gt;Node392828 -->
<g id="edge51" class="edge">
<title>Node393244&#45;&gt;Node392828</title>
<path fill="none" stroke="#191970" d="M204.4946,-228.448C222.2718,-211.2008 262.5424,-175.0699 304,-158 362.611,-133.8673 435.9675,-126.5813 483.391,-124.5338"/>
<polygon fill="#191970" stroke="#191970" points="483.5317,-128.0311 493.3952,-124.1632 483.2724,-121.0359 483.5317,-128.0311"/>
</g>
<!-- Node393244&#45;&gt;Node392856 -->
<g id="edge63" class="edge">
<title>Node393244&#45;&gt;Node392856</title>
<path fill="none" stroke="#191970" d="M209.0238,-228.3007C229.0576,-215.0138 267.4949,-191.5955 304,-181 364.1116,-163.5528 436.6102,-160.3858 483.4693,-160.5293"/>
<polygon fill="#191970" stroke="#191970" points="483.616,-164.0306 493.6448,-160.614 483.6743,-157.0308 483.616,-164.0306"/>
</g>
<!-- Node392909 -->
<g id="node28" class="node">
<title>Node392909</title>
<g id="a_node28"><a xlink:href="quickjs_8c.html#a877fcb7651d95b411ce70e62b7f4a1f0" target="_top" xlink:title="__JS_AtomFromUInt32">
<polygon fill="none" stroke="#000000" points="319,-228.5 319,-247.5 438,-247.5 438,-228.5 319,-228.5"/>
<text text-anchor="middle" x="378.5" y="-235.5" font-family="Helvetica,sans-Serif" font-size="10.00" fill="#000000">__JS_AtomFromUInt32</text>
</a>
</g>
</g>
<!-- Node393244&#45;&gt;Node392909 -->
<g id="edge50" class="edge">
<title>Node393244&#45;&gt;Node392909</title>
<path fill="none" stroke="#191970" d="M256.1028,-238C273.0106,-238 291.4871,-238 308.8423,-238"/>
<polygon fill="#191970" stroke="#191970" points="308.911,-241.5001 318.9109,-238 308.9109,-234.5001 308.911,-241.5001"/>
</g>
<!-- Node392931 -->
<g id="node29" class="node">
<title>Node392931</title>
<g id="a_node29"><a xlink:href="quickjs_8c.html#a90d6e607f6917d817c1e997bd2e6ed07" target="_top" xlink:title="JS_GetPropertyValue">
<polygon fill="none" stroke="#ff0000" points="323,-190.5 323,-209.5 434,-209.5 434,-190.5 323,-190.5"/>
<text text-anchor="middle" x="378.5" y="-197.5" font-family="Helvetica,sans-Serif" font-size="10.00" fill="#000000">JS_GetPropertyValue</text>
</a>
</g>
</g>
<!-- Node393244&#45;&gt;Node392931 -->
<g id="edge53" class="edge">
<title>Node393244&#45;&gt;Node392931</title>
<path fill="none" stroke="#191970" d="M241.3048,-228.411C265.9559,-223.3061 296.4625,-216.9887 322.4447,-211.6082"/>
<polygon fill="#191970" stroke="#191970" points="323.4457,-214.9752 332.5282,-209.5201 322.0262,-208.1207 323.4457,-214.9752"/>
</g>
<!-- Node393101 -->
<g id="node30" class="node">
<title>Node393101</title>
<g id="a_node30"><a xlink:href="quickjs_8c.html#a9d6d0a9704951d01c128975e0d2213f8" target="_top" xlink:title="JS_HasProperty">
<polygon fill="none" stroke="#ff0000" points="334,-304.5 334,-323.5 423,-323.5 423,-304.5 334,-304.5"/>
<text text-anchor="middle" x="378.5" y="-311.5" font-family="Helvetica,sans-Serif" font-size="10.00" fill="#000000">JS_HasProperty</text>
</a>
</g>
</g>
<!-- Node393244&#45;&gt;Node393101 -->
<g id="edge59" class="edge">
<title>Node393244&#45;&gt;Node393101</title>
<path fill="none" stroke="#191970" d="M218.2404,-247.6255C250.642,-261.0452 309.5279,-285.4339 346.1876,-300.6172"/>
<polygon fill="#191970" stroke="#191970" points="344.8701,-303.8598 355.4483,-304.4527 347.5486,-297.3925 344.8701,-303.8598"/>
</g>
<!-- Node392931&#45;&gt;Node392805 -->
<g id="edge54" class="edge">
<title>Node392931&#45;&gt;Node392805</title>
<path fill="none" stroke="#191970" d="M434.3427,-205.8621C441.4892,-208.8415 448.0308,-213.0633 453,-219 488.3242,-261.2018 480.2565,-658.6646 489,-713 498.0055,-768.9632 516.4802,-833.4326 526.0142,-864.824"/>
<polygon fill="#191970" stroke="#191970" points="522.6987,-865.9503 528.9835,-874.4799 529.3895,-863.8928 522.6987,-865.9503"/>
</g>
<!-- Node392931&#45;&gt;Node392806 -->
<g id="edge56" class="edge">
<title>Node392931&#45;&gt;Node392806</title>
<path fill="none" stroke="#191970" d="M434.0564,-208.9002C440.8227,-211.465 447.3352,-214.7623 453,-219 492.2637,-248.3717 515.7052,-303.4981 525.9217,-332.703"/>
<polygon fill="#191970" stroke="#191970" points="522.6041,-333.8183 529.0922,-342.1942 529.2435,-331.6004 522.6041,-333.8183"/>
</g>
<!-- Node392931&#45;&gt;Node392846 -->
<g id="edge57" class="edge">
<title>Node392931&#45;&gt;Node392846</title>
<path fill="none" stroke="#191970" d="M434.2701,-206.9094C441.2475,-209.7616 447.76,-213.6693 453,-219 501.6677,-268.5097 466.5824,-305.2946 489,-371 498.3159,-398.3048 512.6962,-428.4281 522.2258,-447.2801"/>
<polygon fill="#191970" stroke="#191970" points="519.1587,-448.9695 526.8363,-456.2706 525.3874,-445.7753 519.1587,-448.9695"/>
</g>
<!-- Node392931&#45;&gt;Node392828 -->
<g id="edge55" class="edge">
<title>Node392931&#45;&gt;Node392828</title>
<path fill="none" stroke="#191970" d="M396.3248,-190.3848C418.03,-178.7744 455.8959,-158.8343 489,-143 492.6238,-141.2667 496.4437,-139.4975 500.2502,-137.7704"/>
<polygon fill="#191970" stroke="#191970" points="501.8634,-140.8831 509.5657,-133.6081 499.0078,-134.4921 501.8634,-140.8831"/>
</g>
<!-- Node392931&#45;&gt;Node392856 -->
<g id="edge58" class="edge">
<title>Node392931&#45;&gt;Node392856</title>
<path fill="none" stroke="#191970" d="M417.2345,-190.411C437.4759,-185.4001 462.4369,-179.2208 483.9052,-173.9062"/>
<polygon fill="#191970" stroke="#191970" points="484.9437,-177.2548 493.8096,-171.4543 483.2615,-170.46 484.9437,-177.2548"/>
</g>
<!-- Node393101&#45;&gt;Node392805 -->
<g id="edge60" class="edge">
<title>Node393101&#45;&gt;Node392805</title>
<path fill="none" stroke="#191970" d="M398.7121,-323.519C416.2613,-332.9435 440.7285,-349.1277 453,-371 490.3924,-437.6469 475.6484,-637.7555 489,-713 498.9033,-768.8113 516.977,-833.3485 526.2204,-864.7891"/>
<polygon fill="#191970" stroke="#191970" points="522.8909,-865.872 529.0938,-874.4612 529.601,-863.8785 522.8909,-865.872"/>
</g>
<!-- Node393101&#45;&gt;Node392806 -->
<g id="edge61" class="edge">
<title>Node393101&#45;&gt;Node392806</title>
<path fill="none" stroke="#191970" d="M417.2345,-323.589C437.3993,-328.5809 462.2479,-334.7324 483.6611,-340.0334"/>
<polygon fill="#191970" stroke="#191970" points="482.9959,-343.4743 493.544,-342.4799 484.6781,-336.6794 482.9959,-343.4743"/>
</g>
</g>
</svg>
