<?xml version="1.0" encoding="UTF-8" standalone="no"?>
<!DOCTYPE svg PUBLIC "-//W3C//DTD SVG 1.1//EN"
 "http://www.w3.org/Graphics/SVG/1.1/DTD/svg11.dtd">
<!-- Generated by graphviz version 2.40.1 (20161225.0304)
 -->
<!-- Title: JS_AddIntrinsicJSON Pages: 1 -->
<svg width="538pt" height="28pt"
 viewBox="0.00 0.00 538.00 28.00" xmlns="http://www.w3.org/2000/svg" xmlns:xlink="http://www.w3.org/1999/xlink">
<g id="graph0" class="graph" transform="scale(1 1) rotate(0) translate(4 24)">
<title>JS_AddIntrinsicJSON</title>
<!-- Node437600 -->
<g id="node1" class="node">
<title>Node437600</title>
<polygon fill="#bfbfbf" stroke="#000000" points="0,-.5 0,-19.5 113,-19.5 113,-.5 0,-.5"/>
<text text-anchor="middle" x="56.5" y="-7.5" font-family="Helvetica,sans-Serif" font-size="10.00" fill="#000000">JS_AddIntrinsicJSON</text>
</g>
<!-- Node437601 -->
<g id="node2" class="node">
<title>Node437601</title>
<g id="a_node2"><a xlink:href="quickjs_8c.html#ad8aedb643b8753b7a15f6cb2df61945e" target="_top" xlink:title="JS_NewContext">
<polygon fill="none" stroke="#000000" points="149,-.5 149,-19.5 238,-19.5 238,-.5 149,-.5"/>
<text text-anchor="middle" x="193.5" y="-7.5" font-family="Helvetica,sans-Serif" font-size="10.00" fill="#000000">JS_NewContext</text>
</a>
</g>
</g>
<!-- Node437600&#45;&gt;Node437601 -->
<g id="edge1" class="edge">
<title>Node437600&#45;&gt;Node437601</title>
<path fill="none" stroke="#191970" d="M123.1743,-10C131.8734,-10 140.6118,-10 148.8277,-10"/>
<polygon fill="#191970" stroke="#191970" points="123.0141,-6.5001 113.0141,-10 123.0141,-13.5001 123.0141,-6.5001"/>
</g>
<!-- Node437602 -->
<g id="node3" class="node">
<title>Node437602</title>
<g id="a_node3"><a xlink:href="classqjs_1_1Context.html#a4392a23648acfc4bf6b445336efb5007" target="_top" xlink:title="qjs::Context::Context">
<polygon fill="none" stroke="#000000" points="274,-.5 274,-19.5 384,-19.5 384,-.5 274,-.5"/>
<text text-anchor="middle" x="329" y="-7.5" font-family="Helvetica,sans-Serif" font-size="10.00" fill="#000000">qjs::Context::Context</text>
</a>
</g>
</g>
<!-- Node437601&#45;&gt;Node437602 -->
<g id="edge2" class="edge">
<title>Node437601&#45;&gt;Node437602</title>
<path fill="none" stroke="#191970" d="M248.3476,-10C256.7739,-10 265.4767,-10 273.9083,-10"/>
<polygon fill="#191970" stroke="#191970" points="248.2433,-6.5001 238.2433,-10 248.2433,-13.5001 248.2433,-6.5001"/>
</g>
<!-- Node437603 -->
<g id="node4" class="node">
<title>Node437603</title>
<g id="a_node4"><a xlink:href="classqjs_1_1Context.html#af725fb8083d8c33a37198d6acaf1a836" target="_top" xlink:title="qjs::Context::Context">
<polygon fill="none" stroke="#ff0000" points="420,-.5 420,-19.5 530,-19.5 530,-.5 420,-.5"/>
<text text-anchor="middle" x="475" y="-7.5" font-family="Helvetica,sans-Serif" font-size="10.00" fill="#000000">qjs::Context::Context</text>
</a>
</g>
</g>
<!-- Node437602&#45;&gt;Node437603 -->
<g id="edge3" class="edge">
<title>Node437602&#45;&gt;Node437603</title>
<path fill="none" stroke="#191970" d="M394.4101,-10C402.8647,-10 411.4567,-10 419.7256,-10"/>
<polygon fill="#191970" stroke="#191970" points="394.1964,-6.5001 384.1963,-10 394.1963,-13.5001 394.1964,-6.5001"/>
</g>
</g>
</svg>
