<?xml version="1.0" encoding="UTF-8" standalone="no"?>
<!DOCTYPE svg PUBLIC "-//W3C//DTD SVG 1.1//EN"
 "http://www.w3.org/Graphics/SVG/1.1/DTD/svg11.dtd">
<!-- Generated by graphviz version 2.40.1 (20161225.0304)
 -->
<!-- Title: __JS_FreeAtom Pages: 1 -->
<!--zoomable 1028 -->
<svg id="main" version="1.1" xmlns="http://www.w3.org/2000/svg" xmlns:xlink="http://www.w3.org/1999/xlink" xml:space="preserve" onload="init(evt)">
<style type="text/css"><![CDATA[
.edge:hover path { stroke: red; }
.edge:hover polygon { stroke: red; fill: red; }
]]></style>
<script type="text/javascript"><![CDATA[
var edges = document.getElementsByTagName('g');
if (edges && edges.length) {
  for (var i=0;i<edges.length;i++) {
    if (edges[i].id.substr(0,4)=='edge') {
      edges[i].setAttribute('class','edge');
    }
  }
}
]]></script>
        <defs>
                <circle id="rim" cx="0" cy="0" r="7"/>
                <circle id="rim2" cx="0" cy="0" r="3.5"/>
                <g id="zoomPlus">
                        <use xlink:href="#rim" fill="#404040">
                                <set attributeName="fill" to="#808080" begin="zoomplus.mouseover" end="zoomplus.mouseout"/>
                        </use>
                        <path d="M-4,0h8M0,-4v8" fill="none" stroke="white" stroke-width="1.5" pointer-events="none"/>
                </g>
                <g id="zoomMin">
                        <use xlink:href="#rim" fill="#404040">
                                <set attributeName="fill" to="#808080" begin="zoomminus.mouseover" end="zoomminus.mouseout"/>
                        </use>
                        <path d="M-4,0h8" fill="none" stroke="white" stroke-width="1.5" pointer-events="none"/>
                </g>
                <g id="dirArrow">
                        <path fill="none" stroke="white" stroke-width="1.5" d="M0,-3.0v7 M-2.5,-0.5L0,-3.0L2.5,-0.5"/>
                </g>
               <g id="resetDef">
                       <use xlink:href="#rim2" fill="#404040">
                               <set attributeName="fill" to="#808080" begin="reset.mouseover" end="reset.mouseout"/>
                       </use>
               </g>
        </defs>

<script type="text/javascript">
var viewWidth = 625;
var viewHeight = 1028;
var sectionId = 'dynsection-245';
</script>
<script xlink:href="svgpan.js"/>
<svg id="graph" class="graph">
<g id="viewport">
<title>__JS_FreeAtom</title>
<!-- Node82633 -->
<g id="node1" class="node">
<title>Node82633</title>
<polygon fill="#bfbfbf" stroke="#000000" points="0,-475.5 0,-494.5 87,-494.5 87,-475.5 0,-475.5"/>
<text text-anchor="middle" x="43.5" y="-482.5" font-family="Helvetica,sans-Serif" font-size="10.00" fill="#000000">__JS_FreeAtom</text>
</g>
<!-- Node82634 -->
<g id="node2" class="node">
<title>Node82634</title>
<g id="a_node2"><a xlink:href="quickjs_8c.html#ab7fc45a99935a1c0ba50b0216d9401a9" target="_top" xlink:title="JS_FreeAtom">
<polygon fill="none" stroke="#ff0000" points="129.5,-494.5 129.5,-513.5 206.5,-513.5 206.5,-494.5 129.5,-494.5"/>
<text text-anchor="middle" x="168" y="-501.5" font-family="Helvetica,sans-Serif" font-size="10.00" fill="#000000">JS_FreeAtom</text>
</a>
</g>
</g>
<!-- Node82633&#45;&gt;Node82634 -->
<g id="edge1" class="edge">
<title>Node82633&#45;&gt;Node82634</title>
<path fill="none" stroke="#191970" d="M97.2226,-493.1986C107.9949,-494.8426 119.1145,-496.5396 129.258,-498.0876"/>
<polygon fill="#191970" stroke="#191970" points="97.4577,-489.6941 87.0441,-491.6453 96.4016,-496.6139 97.4577,-489.6941"/>
</g>
<!-- Node83396 -->
<g id="node30" class="node">
<title>Node83396</title>
<g id="a_node30"><a xlink:href="quickjs_8c.html#a5a0aca30abbb4d4ae86746541bf4cbc7" target="_top" xlink:title="JS_FreeAtomRT">
<polygon fill="none" stroke="#ff0000" points="123,-456.5 123,-475.5 213,-475.5 213,-456.5 123,-456.5"/>
<text text-anchor="middle" x="168" y="-463.5" font-family="Helvetica,sans-Serif" font-size="10.00" fill="#000000">JS_FreeAtomRT</text>
</a>
</g>
</g>
<!-- Node82633&#45;&gt;Node83396 -->
<g id="edge43" class="edge">
<title>Node82633&#45;&gt;Node83396</title>
<path fill="none" stroke="#191970" d="M96.9303,-476.846C105.4742,-475.5421 114.2443,-474.2037 122.5793,-472.9317"/>
<polygon fill="#191970" stroke="#191970" points="96.4016,-473.3861 87.0441,-478.3547 97.4577,-480.3059 96.4016,-473.3861"/>
</g>
<!-- Node82635 -->
<g id="node3" class="node">
<title>Node82635</title>
<g id="a_node3"><a xlink:href="classqjs_1_1Value.html#ac6bbb5f2ab1ed265b2b508325807e2fb" target="_top" xlink:title="qjs::Value::add_getter\l_setter">
<polygon fill="none" stroke="#000000" points="274,-989 274,-1019 386,-1019 386,-989 274,-989"/>
<text text-anchor="start" x="282" y="-1007" font-family="Helvetica,sans-Serif" font-size="10.00" fill="#000000">qjs::Value::add_getter</text>
<text text-anchor="middle" x="330" y="-996" font-family="Helvetica,sans-Serif" font-size="10.00" fill="#000000">_setter</text>
</a>
</g>
</g>
<!-- Node82634&#45;&gt;Node82635 -->
<g id="edge2" class="edge">
<title>Node82634&#45;&gt;Node82635</title>
<path fill="none" stroke="#191970" d="M168.704,-524.1734C171.9462,-605.6605 188.0008,-909.4742 249,-979 255.6001,-986.5227 264.409,-991.8128 273.7876,-995.5258"/>
<polygon fill="#191970" stroke="#191970" points="172.188,-523.6797 168.3148,-513.8183 165.1929,-523.9427 172.188,-523.6797"/>
</g>
<!-- Node82636 -->
<g id="node4" class="node">
<title>Node82636</title>
<g id="a_node4"><a xlink:href="classqjs_1_1Value.html#a7816587475ecf667433f9ea681df925b" target="_top" xlink:title="qjs::Value::add_getter">
<polygon fill="none" stroke="#000000" points="274,-950.5 274,-969.5 386,-969.5 386,-950.5 274,-950.5"/>
<text text-anchor="middle" x="330" y="-957.5" font-family="Helvetica,sans-Serif" font-size="10.00" fill="#000000">qjs::Value::add_getter</text>
</a>
</g>
</g>
<!-- Node82634&#45;&gt;Node82636 -->
<g id="edge3" class="edge">
<title>Node82634&#45;&gt;Node82636</title>
<path fill="none" stroke="#191970" d="M168.8939,-524.1463C172.7472,-601.6987 190.4885,-879.6639 249,-941 255.68,-948.0024 264.4116,-952.641 273.6635,-955.6733"/>
<polygon fill="#191970" stroke="#191970" points="172.3752,-523.6672 168.4066,-513.8438 165.383,-523.998 172.3752,-523.6672"/>
</g>
<!-- Node82637 -->
<g id="node5" class="node">
<title>Node82637</title>
<g id="a_node5"><a xlink:href="quickjs-libc_8c.html#a5cc3e22713f1916d49867f60a7375505" target="_top" xlink:title="js_module_set_import_meta">
<polygon fill="none" stroke="#ff0000" points="462.5,-893.5 462.5,-912.5 601.5,-912.5 601.5,-893.5 462.5,-893.5"/>
<text text-anchor="middle" x="532" y="-900.5" font-family="Helvetica,sans-Serif" font-size="10.00" fill="#000000">js_module_set_import_meta</text>
</a>
</g>
</g>
<!-- Node82634&#45;&gt;Node82637 -->
<g id="edge4" class="edge">
<title>Node82634&#45;&gt;Node82637</title>
<path fill="none" stroke="#191970" d="M169.5306,-523.7985C175.2531,-592.3605 197.7424,-818.03 249,-865 279.244,-892.7141 388.661,-900.4765 462.2426,-902.5013"/>
<polygon fill="#191970" stroke="#191970" points="172.9961,-523.228 168.7035,-513.5418 166.0187,-523.7908 172.9961,-523.228"/>
</g>
<!-- Node82645 -->
<g id="node6" class="node">
<title>Node82645</title>
<g id="a_node6"><a xlink:href="quickjs-libc_8c.html#afc77720d4d1c0b90749ce275a4a16f74" target="_top" xlink:title="build_envp">
<polygon fill="none" stroke="#ff0000" points="298.5,-836.5 298.5,-855.5 361.5,-855.5 361.5,-836.5 298.5,-836.5"/>
<text text-anchor="middle" x="330" y="-843.5" font-family="Helvetica,sans-Serif" font-size="10.00" fill="#000000">build_envp</text>
</a>
</g>
</g>
<!-- Node82634&#45;&gt;Node82645 -->
<g id="edge5" class="edge">
<title>Node82634&#45;&gt;Node82645</title>
<path fill="none" stroke="#191970" d="M170.2988,-523.9922C178.0117,-587.6002 204.9871,-783.6556 249,-827 261.8643,-839.6689 281.4777,-844.4958 298.1822,-846.1184"/>
<polygon fill="#191970" stroke="#191970" points="173.7345,-523.2423 169.083,-513.7232 166.7831,-524.0654 173.7345,-523.2423"/>
</g>
<!-- Node82641 -->
<g id="node7" class="node">
<title>Node82641</title>
<g id="a_node7"><a xlink:href="quickjs-libc_8c.html#aff1e6131e8bf8b7eb25307623ad669e7" target="_top" xlink:title="js_worker_ctor">
<polygon fill="none" stroke="#ff0000" points="290,-798.5 290,-817.5 370,-817.5 370,-798.5 290,-798.5"/>
<text text-anchor="middle" x="330" y="-805.5" font-family="Helvetica,sans-Serif" font-size="10.00" fill="#000000">js_worker_ctor</text>
</a>
</g>
</g>
<!-- Node82634&#45;&gt;Node82641 -->
<g id="edge6" class="edge">
<title>Node82634&#45;&gt;Node82641</title>
<path fill="none" stroke="#191970" d="M170.9979,-523.9012C180.1907,-582.3161 209.7566,-751.5405 249,-789 259.8662,-799.3723 275.2718,-804.4528 289.7352,-806.8293"/>
<polygon fill="#191970" stroke="#191970" points="174.4184,-523.1168 169.4342,-513.7676 167.5003,-524.1844 174.4184,-523.1168"/>
</g>
<!-- Node82647 -->
<g id="node8" class="node">
<title>Node82647</title>
<g id="a_node8"><a xlink:href="quickjs_8c.html#a27c3a725d4014a35b5bedcdf6e70dec7" target="_top" xlink:title="JS_NewAtomString">
<polygon fill="none" stroke="#ff0000" points="278.5,-760.5 278.5,-779.5 381.5,-779.5 381.5,-760.5 278.5,-760.5"/>
<text text-anchor="middle" x="330" y="-767.5" font-family="Helvetica,sans-Serif" font-size="10.00" fill="#000000">JS_NewAtomString</text>
</a>
</g>
</g>
<!-- Node82634&#45;&gt;Node82647 -->
<g id="edge7" class="edge">
<title>Node82634&#45;&gt;Node82647</title>
<path fill="none" stroke="#191970" d="M171.8647,-523.6344C182.6305,-576.3818 214.4496,-719.3155 249,-751 257.0906,-758.4195 267.5163,-763.1083 278.1776,-766.0337"/>
<polygon fill="#191970" stroke="#191970" points="175.242,-522.675 169.8422,-513.5595 168.3789,-524.0528 175.242,-522.675"/>
</g>
<!-- Node82653 -->
<g id="node9" class="node">
<title>Node82653</title>
<g id="a_node9"><a xlink:href="quickjs_8c.html#a21cfe4c4fc9372dc0b95b37667cff0c9" target="_top" xlink:title="JS_NewCFunction3">
<polygon fill="none" stroke="#ff0000" points="278,-722.5 278,-741.5 382,-741.5 382,-722.5 278,-722.5"/>
<text text-anchor="middle" x="330" y="-729.5" font-family="Helvetica,sans-Serif" font-size="10.00" fill="#000000">JS_NewCFunction3</text>
</a>
</g>
</g>
<!-- Node82634&#45;&gt;Node82653 -->
<g id="edge8" class="edge">
<title>Node82634&#45;&gt;Node82653</title>
<path fill="none" stroke="#191970" d="M169.6455,-523.6261C174.2228,-565.2041 190.8978,-662.4776 249,-713 257.0658,-720.0136 267.2367,-724.56 277.6218,-727.4796"/>
<polygon fill="#191970" stroke="#191970" points="173.1288,-523.2839 168.6689,-513.6734 166.1622,-523.9675 173.1288,-523.2839"/>
</g>
<!-- Node82667 -->
<g id="node10" class="node">
<title>Node82667</title>
<g id="a_node10"><a xlink:href="quickjs_8c.html#a6a21784a40b8684f2e779bd460dd13b2" target="_top" xlink:title="JS_AddBrand">
<polygon fill="none" stroke="#000000" points="291.5,-532.5 291.5,-551.5 368.5,-551.5 368.5,-532.5 291.5,-532.5"/>
<text text-anchor="middle" x="330" y="-539.5" font-family="Helvetica,sans-Serif" font-size="10.00" fill="#000000">JS_AddBrand</text>
</a>
</g>
</g>
<!-- Node82634&#45;&gt;Node82667 -->
<g id="edge9" class="edge">
<title>Node82634&#45;&gt;Node82667</title>
<path fill="none" stroke="#191970" d="M216.72,-515.4281C240.568,-521.0221 268.8795,-527.6631 291.2332,-532.9065"/>
<polygon fill="#191970" stroke="#191970" points="217.3381,-511.9782 206.803,-513.1019 215.7395,-518.7932 217.3381,-511.9782"/>
</g>
<!-- Node82668 -->
<g id="node11" class="node">
<title>Node82668</title>
<g id="a_node11"><a xlink:href="quickjs_8c.html#ac2894ff4edcdb4e6841bcce9c76081e3" target="_top" xlink:title="JS_CallInternal">
<polygon fill="none" stroke="#ff0000" points="490.5,-551.5 490.5,-570.5 573.5,-570.5 573.5,-551.5 490.5,-551.5"/>
<text text-anchor="middle" x="532" y="-558.5" font-family="Helvetica,sans-Serif" font-size="10.00" fill="#000000">JS_CallInternal</text>
</a>
</g>
</g>
<!-- Node82634&#45;&gt;Node82668 -->
<g id="edge41" class="edge">
<title>Node82634&#45;&gt;Node82668</title>
<path fill="none" stroke="#191970" d="M184.9432,-520.7066C200.2377,-534.5263 224.1024,-553.1178 249,-561 331.2053,-587.0251 433.7022,-577.3674 490.0346,-568.7201"/>
<polygon fill="#191970" stroke="#191970" points="187.0669,-517.9002 177.3759,-513.6182 182.2815,-523.009 187.0669,-517.9002"/>
</g>
<!-- Node83246 -->
<g id="node12" class="node">
<title>Node83246</title>
<g id="a_node12"><a xlink:href="quickjs_8c.html#a6b42cd922447e1eb6bfc52761895a174" target="_top" xlink:title="js_free_prop_enum">
<polygon fill="none" stroke="#ff0000" points="280.5,-266.5 280.5,-285.5 379.5,-285.5 379.5,-266.5 280.5,-266.5"/>
<text text-anchor="middle" x="330" y="-273.5" font-family="Helvetica,sans-Serif" font-size="10.00" fill="#000000">js_free_prop_enum</text>
</a>
</g>
</g>
<!-- Node82634&#45;&gt;Node83246 -->
<g id="edge12" class="edge">
<title>Node82634&#45;&gt;Node83246</title>
<path fill="none" stroke="#191970" d="M209.8464,-488.3637C210.9744,-487.3132 212.0314,-486.1935 213,-485 265.7836,-419.9586 192.6755,-362.0003 249,-300 257.1856,-290.9895 268.5779,-285.299 280.2371,-281.7227"/>
<polygon fill="#191970" stroke="#191970" points="207.6221,-485.6524 201.5548,-494.3379 211.7142,-491.3318 207.6221,-485.6524"/>
</g>
<!-- Node82976 -->
<g id="node13" class="node">
<title>Node82976</title>
<g id="a_node13"><a xlink:href="quickjs_8c.html#a176ac5ff56a118a0b1b2566798d28823" target="_top" xlink:title="JS_GetOwnPropertyNamesInternal">
<polygon fill="none" stroke="#ff0000" points="447,-247.5 447,-266.5 617,-266.5 617,-247.5 447,-247.5"/>
<text text-anchor="middle" x="532" y="-254.5" font-family="Helvetica,sans-Serif" font-size="10.00" fill="#000000">JS_GetOwnPropertyNamesInternal</text>
</a>
</g>
</g>
<!-- Node82634&#45;&gt;Node82976 -->
<g id="edge14" class="edge">
<title>Node82634&#45;&gt;Node82976</title>
<path fill="none" stroke="#191970" d="M209.9018,-488.4078C211.0142,-487.3449 212.0528,-486.2105 213,-485 276.2178,-404.2042 171.0068,-323.6447 249,-257 323.1449,-193.6436 452.4556,-228.5391 506.8037,-247.4111"/>
<polygon fill="#191970" stroke="#191970" points="207.6741,-485.7012 201.6776,-494.4358 211.8122,-491.347 207.6741,-485.7012"/>
</g>
<!-- Node82971 -->
<g id="node14" class="node">
<title>Node82971</title>
<g id="a_node14"><a xlink:href="quickjs_8c.html#a90d6e607f6917d817c1e997bd2e6ed07" target="_top" xlink:title="JS_GetPropertyValue">
<polygon fill="none" stroke="#ff0000" points="274.5,-418.5 274.5,-437.5 385.5,-437.5 385.5,-418.5 274.5,-418.5"/>
<text text-anchor="middle" x="330" y="-425.5" font-family="Helvetica,sans-Serif" font-size="10.00" fill="#000000">JS_GetPropertyValue</text>
</a>
</g>
</g>
<!-- Node82634&#45;&gt;Node82971 -->
<g id="edge15" class="edge">
<title>Node82634&#45;&gt;Node82971</title>
<path fill="none" stroke="#191970" d="M204.1858,-490.04C207.2373,-488.4701 210.2169,-486.7868 213,-485 231.265,-473.2739 230.1102,-462.6905 249,-452 259.8497,-445.8597 272.4244,-441.151 284.3824,-437.6003"/>
<polygon fill="#191970" stroke="#191970" points="202.4921,-486.9691 194.9398,-494.3997 205.4775,-493.3005 202.4921,-486.9691"/>
</g>
<!-- Node82981 -->
<g id="node15" class="node">
<title>Node82981</title>
<g id="a_node15"><a xlink:href="quickjs_8c.html#a14674e74168715dc5a3a391910982e5d" target="_top" xlink:title="JS_TryGetPropertyInt64">
<polygon fill="none" stroke="#ff0000" points="471,-447.5 471,-466.5 593,-466.5 593,-447.5 471,-447.5"/>
<text text-anchor="middle" x="532" y="-454.5" font-family="Helvetica,sans-Serif" font-size="10.00" fill="#000000">JS_TryGetPropertyInt64</text>
</a>
</g>
</g>
<!-- Node82634&#45;&gt;Node82981 -->
<g id="edge19" class="edge">
<title>Node82634&#45;&gt;Node82981</title>
<path fill="none" stroke="#191970" d="M213.8631,-492.1333C225.2825,-489.4856 237.5383,-486.9028 249,-485 324.9802,-472.3864 413.4481,-464.7482 470.9701,-460.7055"/>
<polygon fill="#191970" stroke="#191970" points="213.0017,-488.7405 204.0842,-494.4613 214.6229,-495.5502 213.0017,-488.7405"/>
</g>
<!-- Node83000 -->
<g id="node16" class="node">
<title>Node83000</title>
<g id="a_node16"><a xlink:href="quickjs_8c.html#a7bb763b31e1c40a04aa0c1d5db0f1191" target="_top" xlink:title="JS_GetPropertyInt64">
<polygon fill="none" stroke="#ff0000" points="478,-399.5 478,-418.5 586,-418.5 586,-399.5 478,-399.5"/>
<text text-anchor="middle" x="532" y="-406.5" font-family="Helvetica,sans-Serif" font-size="10.00" fill="#000000">JS_GetPropertyInt64</text>
</a>
</g>
</g>
<!-- Node82634&#45;&gt;Node83000 -->
<g id="edge20" class="edge">
<title>Node82634&#45;&gt;Node83000</title>
<path fill="none" stroke="#191970" d="M208.2666,-488.9388C209.9407,-487.719 211.5303,-486.408 213,-485 239.9888,-459.1438 217.4172,-428.9866 249,-409 328.5051,-358.6867 447.4226,-383.6468 502.2988,-399.4183"/>
<polygon fill="#191970" stroke="#191970" points="206.1166,-486.1478 199.3552,-494.3047 209.7275,-492.1446 206.1166,-486.1478"/>
</g>
<!-- Node83002 -->
<g id="node17" class="node">
<title>Node83002</title>
<g id="a_node17"><a xlink:href="quickjs_8c.html#a04f589361a4fbc30d997402e92a50de2" target="_top" xlink:title="JS_GetPropertyStr">
<polygon fill="none" stroke="#ff0000" points="280.5,-190.5 280.5,-209.5 379.5,-209.5 379.5,-190.5 280.5,-190.5"/>
<text text-anchor="middle" x="330" y="-197.5" font-family="Helvetica,sans-Serif" font-size="10.00" fill="#000000">JS_GetPropertyStr</text>
</a>
</g>
</g>
<!-- Node82634&#45;&gt;Node83002 -->
<g id="edge21" class="edge">
<title>Node82634&#45;&gt;Node83002</title>
<path fill="none" stroke="#191970" d="M209.9326,-488.4316C211.0363,-487.362 212.0647,-486.2197 213,-485 284.2547,-392.0766 172.68,-312.8102 249,-224 257.0298,-214.6561 268.5109,-208.8602 280.314,-205.2899"/>
<polygon fill="#191970" stroke="#191970" points="207.7031,-485.7273 201.7458,-494.4886 211.8665,-491.3546 207.7031,-485.7273"/>
</g>
<!-- Node83247 -->
<g id="node18" class="node">
<title>Node83247</title>
<g id="a_node18"><a xlink:href="quickjs_8c.html#a2b9a2014cb970af5b5b7dde00afbdffa" target="_top" xlink:title="delete_property">
<polygon fill="none" stroke="#ff0000" points="288.5,-152.5 288.5,-171.5 371.5,-171.5 371.5,-152.5 288.5,-152.5"/>
<text text-anchor="middle" x="330" y="-159.5" font-family="Helvetica,sans-Serif" font-size="10.00" fill="#000000">delete_property</text>
</a>
</g>
</g>
<!-- Node82634&#45;&gt;Node83247 -->
<g id="edge22" class="edge">
<title>Node82634&#45;&gt;Node83247</title>
<path fill="none" stroke="#191970" d="M210.3895,-488.0279C211.3233,-487.0759 212.1975,-486.0677 213,-485 294.7501,-376.2437 158.3569,-282.4635 249,-181 258.9118,-169.9051 273.96,-164.6623 288.4069,-162.3587"/>
<polygon fill="#191970" stroke="#191970" points="208.0514,-485.4106 202.2572,-494.2807 212.3182,-490.9599 208.0514,-485.4106"/>
</g>
<!-- Node82818 -->
<g id="node19" class="node">
<title>Node82818</title>
<g id="a_node19"><a xlink:href="quickjs_8c.html#ad55fe6f65ecb58e327ac9e9b4ab475f5" target="_top" xlink:title="set_array_length">
<polygon fill="none" stroke="#ff0000" points="487.5,-133.5 487.5,-152.5 576.5,-152.5 576.5,-133.5 487.5,-133.5"/>
<text text-anchor="middle" x="532" y="-140.5" font-family="Helvetica,sans-Serif" font-size="10.00" fill="#000000">set_array_length</text>
</a>
</g>
</g>
<!-- Node82634&#45;&gt;Node82818 -->
<g id="edge24" class="edge">
<title>Node82634&#45;&gt;Node82818</title>
<path fill="none" stroke="#191970" d="M210.4079,-488.0416C211.3364,-487.0856 212.2044,-486.0729 213,-485 258.5198,-423.6164 192.2049,-194.1304 249,-143 321.8469,-77.4187 453.022,-114.052 507.3751,-133.4166"/>
<polygon fill="#191970" stroke="#191970" points="208.0687,-485.4262 202.3025,-494.3145 212.353,-490.962 208.0687,-485.4262"/>
</g>
<!-- Node82796 -->
<g id="node20" class="node">
<title>Node82796</title>
<g id="a_node20"><a xlink:href="quickjs_8c.html#aee75cc1546e19479e3ccda58f3b50a96" target="_top" xlink:title="JS_SetPropertyValue">
<polygon fill="none" stroke="#ff0000" points="275,-342.5 275,-361.5 385,-361.5 385,-342.5 275,-342.5"/>
<text text-anchor="middle" x="330" y="-349.5" font-family="Helvetica,sans-Serif" font-size="10.00" fill="#000000">JS_SetPropertyValue</text>
</a>
</g>
</g>
<!-- Node82634&#45;&gt;Node82796 -->
<g id="edge25" class="edge">
<title>Node82634&#45;&gt;Node82796</title>
<path fill="none" stroke="#191970" d="M208.6385,-489.0354C210.1978,-487.7918 211.6631,-486.4492 213,-485 247.5941,-447.5019 212.3709,-411.513 249,-376 256.1605,-369.0577 265.2321,-364.1101 274.6943,-360.5874"/>
<polygon fill="#191970" stroke="#191970" points="206.7281,-486.1027 200.2179,-494.4614 210.5197,-491.9869 206.7281,-486.1027"/>
</g>
<!-- Node82776 -->
<g id="node21" class="node">
<title>Node82776</title>
<g id="a_node21"><a xlink:href="quickjs_8c.html#a51b06daa618640e531fe808770553b96" target="_top" xlink:title="JS_SetPropertyInt64">
<polygon fill="none" stroke="#ff0000" points="478.5,-323.5 478.5,-342.5 585.5,-342.5 585.5,-323.5 478.5,-323.5"/>
<text text-anchor="middle" x="532" y="-330.5" font-family="Helvetica,sans-Serif" font-size="10.00" fill="#000000">JS_SetPropertyInt64</text>
</a>
</g>
</g>
<!-- Node82634&#45;&gt;Node82776 -->
<g id="edge28" class="edge">
<title>Node82634&#45;&gt;Node82776</title>
<path fill="none" stroke="#191970" d="M209.3067,-488.7373C210.6312,-487.5793 211.8707,-486.3356 213,-485 257.8263,-431.9872 194.5457,-376.0637 249,-333 324.9189,-272.9616 451.5804,-305.3261 505.9309,-323.433"/>
<polygon fill="#191970" stroke="#191970" points="207.2212,-485.9237 200.9655,-494.4745 211.1882,-491.6911 207.2212,-485.9237"/>
</g>
<!-- Node82956 -->
<g id="node22" class="node">
<title>Node82956</title>
<g id="a_node22"><a xlink:href="quickjs_8c.html#a62617fe11025d2e5a545db069fc28e64" target="_top" xlink:title="JS_SetPropertyStr">
<polygon fill="none" stroke="#ff0000" points="281,-76.5 281,-95.5 379,-95.5 379,-76.5 281,-76.5"/>
<text text-anchor="middle" x="330" y="-83.5" font-family="Helvetica,sans-Serif" font-size="10.00" fill="#000000">JS_SetPropertyStr</text>
</a>
</g>
</g>
<!-- Node82634&#45;&gt;Node82956 -->
<g id="edge29" class="edge">
<title>Node82634&#45;&gt;Node82956</title>
<path fill="none" stroke="#191970" d="M210.4209,-488.0512C211.3456,-487.0924 212.2093,-486.0765 213,-485 262.5571,-417.5275 195.7615,-174.6073 249,-110 257.0214,-100.2657 268.7946,-94.3631 280.8936,-90.8164"/>
<polygon fill="#191970" stroke="#191970" points="208.081,-485.437 202.3346,-494.3382 212.3776,-490.9633 208.081,-485.437"/>
</g>
<!-- Node82849 -->
<g id="node23" class="node">
<title>Node82849</title>
<g id="a_node23"><a xlink:href="quickjs_8c.html#a0c61bd5a64c743e81188bb528b78e715" target="_top" xlink:title="JS_DefinePropertyValueValue">
<polygon fill="none" stroke="#ff0000" points="255.5,-494.5 255.5,-513.5 404.5,-513.5 404.5,-494.5 255.5,-494.5"/>
<text text-anchor="middle" x="330" y="-501.5" font-family="Helvetica,sans-Serif" font-size="10.00" fill="#000000">JS_DefinePropertyValueValue</text>
</a>
</g>
</g>
<!-- Node82634&#45;&gt;Node82849 -->
<g id="edge30" class="edge">
<title>Node82634&#45;&gt;Node82849</title>
<path fill="none" stroke="#191970" d="M217.0853,-504C229.1539,-504 242.3477,-504 255.3236,-504"/>
<polygon fill="#191970" stroke="#191970" points="216.8031,-500.5001 206.803,-504 216.803,-507.5001 216.8031,-500.5001"/>
</g>
<!-- Node82879 -->
<g id="node24" class="node">
<title>Node82879</title>
<g id="a_node24"><a xlink:href="quickjs_8c.html#a841f4cb887e4d9e03e94a0697255e578" target="_top" xlink:title="JS_DefinePropertyValueStr">
<polygon fill="none" stroke="#ff0000" points="261.5,-912.5 261.5,-931.5 398.5,-931.5 398.5,-912.5 261.5,-912.5"/>
<text text-anchor="middle" x="330" y="-919.5" font-family="Helvetica,sans-Serif" font-size="10.00" fill="#000000">JS_DefinePropertyValueStr</text>
</a>
</g>
</g>
<!-- Node82634&#45;&gt;Node82879 -->
<g id="edge32" class="edge">
<title>Node82634&#45;&gt;Node82879</title>
<path fill="none" stroke="#191970" d="M169.4313,-523.888C175.0057,-595.933 197.5504,-841.9635 249,-898 254.7532,-904.2662 262.0573,-908.9249 269.9142,-912.3829"/>
<polygon fill="#191970" stroke="#191970" points="172.8932,-523.2468 168.6561,-513.5362 165.9128,-523.7697 172.8932,-523.2468"/>
</g>
<!-- Node82884 -->
<g id="node25" class="node">
<title>Node82884</title>
<g id="a_node25"><a xlink:href="quickjs_8c.html#a116b8bb41915b573650c477a55d8e46d" target="_top" xlink:title="JS_DefineObjectNameComputed">
<polygon fill="none" stroke="#ff0000" points="249,-684.5 249,-703.5 411,-703.5 411,-684.5 249,-684.5"/>
<text text-anchor="middle" x="330" y="-691.5" font-family="Helvetica,sans-Serif" font-size="10.00" fill="#000000">JS_DefineObjectNameComputed</text>
</a>
</g>
</g>
<!-- Node82634&#45;&gt;Node82884 -->
<g id="edge34" class="edge">
<title>Node82634&#45;&gt;Node82884</title>
<path fill="none" stroke="#191970" d="M171.5388,-523.6821C179.059,-559.5564 200.1138,-635.5151 249,-675 253.7194,-678.8118 259.0705,-681.8843 264.719,-684.3575"/>
<polygon fill="#191970" stroke="#191970" points="174.9096,-522.682 169.5546,-513.5401 168.0398,-524.0261 174.9096,-522.682"/>
</g>
<!-- Node82916 -->
<g id="node26" class="node">
<title>Node82916</title>
<g id="a_node26"><a xlink:href="quickjs_8c.html#a70e21308fe3760cd95dd1dbb1a8755e6" target="_top" xlink:title="JS_DeletePropertyInt64">
<polygon fill="none" stroke="#ff0000" points="269.5,-38.5 269.5,-57.5 390.5,-57.5 390.5,-38.5 269.5,-38.5"/>
<text text-anchor="middle" x="330" y="-45.5" font-family="Helvetica,sans-Serif" font-size="10.00" fill="#000000">JS_DeletePropertyInt64</text>
</a>
</g>
</g>
<!-- Node82634&#45;&gt;Node82916 -->
<g id="edge36" class="edge">
<title>Node82634&#45;&gt;Node82916</title>
<path fill="none" stroke="#191970" d="M210.4348,-488.0614C211.3556,-487.0997 212.2146,-486.0803 213,-485 267.8218,-409.5884 188.0051,-137.5122 249,-67 254.4808,-60.664 261.6359,-56.2237 269.4253,-53.1453"/>
<polygon fill="#191970" stroke="#191970" points="208.0942,-485.4485 202.369,-494.3633 212.4039,-490.9646 208.0942,-485.4485"/>
</g>
<!-- Node82984 -->
<g id="node27" class="node">
<title>Node82984</title>
<g id="a_node27"><a xlink:href="quickjs_8c.html#a3756e0f1dc63bd8e463e6d4febc6e503" target="_top" xlink:title="js_operator_in">
<polygon fill="none" stroke="#000000" points="291.5,-646.5 291.5,-665.5 368.5,-665.5 368.5,-646.5 291.5,-646.5"/>
<text text-anchor="middle" x="330" y="-653.5" font-family="Helvetica,sans-Serif" font-size="10.00" fill="#000000">js_operator_in</text>
</a>
</g>
</g>
<!-- Node82634&#45;&gt;Node82984 -->
<g id="edge37" class="edge">
<title>Node82634&#45;&gt;Node82984</title>
<path fill="none" stroke="#191970" d="M174.3033,-523.3975C184.8727,-552.7356 209.0305,-608.0357 249,-637 261.1639,-645.8147 276.8128,-650.6032 291.1076,-653.182"/>
<polygon fill="#191970" stroke="#191970" points="177.5845,-522.1763 171.02,-513.8603 170.9658,-524.455 177.5845,-522.1763"/>
</g>
<!-- Node82917 -->
<g id="node28" class="node">
<title>Node82917</title>
<g id="a_node28"><a xlink:href="quickjs_8c.html#a9b6302f1a5bc5d5d8f1951777433e516" target="_top" xlink:title="js_operator_delete">
<polygon fill="none" stroke="#000000" points="282,-608.5 282,-627.5 378,-627.5 378,-608.5 282,-608.5"/>
<text text-anchor="middle" x="330" y="-615.5" font-family="Helvetica,sans-Serif" font-size="10.00" fill="#000000">js_operator_delete</text>
</a>
</g>
</g>
<!-- Node82634&#45;&gt;Node82917 -->
<g id="edge39" class="edge">
<title>Node82634&#45;&gt;Node82917</title>
<path fill="none" stroke="#191970" d="M179.7059,-522.1416C193.7768,-542.5286 219.2478,-575.2215 249,-594 258.9224,-600.2626 270.5534,-604.9549 281.8562,-608.4466"/>
<polygon fill="#191970" stroke="#191970" points="182.545,-520.0911 174.0687,-513.7347 176.7311,-523.9896 182.545,-520.0911"/>
</g>
<!-- Node83248 -->
<g id="node29" class="node">
<title>Node83248</title>
<g id="a_node29"><a xlink:href="quickjs_8c.html#a7cd95e5ed87d4b27630af7944855779f" target="_top" xlink:title="free_token">
<polygon fill="none" stroke="#ff0000" points="299,-.5 299,-19.5 361,-19.5 361,-.5 299,-.5"/>
<text text-anchor="middle" x="330" y="-7.5" font-family="Helvetica,sans-Serif" font-size="10.00" fill="#000000">free_token</text>
</a>
</g>
</g>
<!-- Node82634&#45;&gt;Node83248 -->
<g id="edge42" class="edge">
<title>Node82634&#45;&gt;Node83248</title>
<path fill="none" stroke="#191970" d="M210.445,-488.0688C211.3628,-487.1049 212.2185,-486.0831 213,-485 272.477,-402.5686 182.7737,-106.1137 249,-29 261.1398,-14.8644 281.6126,-10.1504 298.9378,-8.952"/>
<polygon fill="#191970" stroke="#191970" points="208.1039,-485.4568 202.3941,-494.3815 212.4231,-490.9654 208.1039,-485.4568"/>
</g>
<!-- Node82667&#45;&gt;Node82668 -->
<g id="edge10" class="edge">
<title>Node82667&#45;&gt;Node82668</title>
<path fill="none" stroke="#191970" d="M379.1484,-546.6229C413.2182,-549.8275 458.0891,-554.048 490.3904,-557.0862"/>
<polygon fill="#191970" stroke="#191970" points="379.2315,-543.1153 368.9476,-545.6634 378.5759,-550.0846 379.2315,-543.1153"/>
</g>
<!-- Node82668&#45;&gt;Node82668 -->
<g id="edge11" class="edge">
<title>Node82668&#45;&gt;Node82668</title>
<path fill="none" stroke="#191970" d="M494.125,-578.5043C494.1312,-584.3356 506.7562,-589 532,-589 567.9023,-589 578.2804,-579.5653 563.1341,-570.7571"/>
<polygon fill="#191970" stroke="#191970" points="496.9422,-580.5986 500.8659,-570.7571 491.6614,-576.0036 496.9422,-580.5986"/>
</g>
<!-- Node83246&#45;&gt;Node82976 -->
<g id="edge13" class="edge">
<title>Node83246&#45;&gt;Node82976</title>
<path fill="none" stroke="#191970" d="M389.9004,-270.3658C407.7097,-268.6907 427.5745,-266.8222 446.6729,-265.0258"/>
<polygon fill="#191970" stroke="#191970" points="389.3017,-266.9066 379.6735,-271.3277 389.9573,-273.8758 389.3017,-266.9066"/>
</g>
<!-- Node82971&#45;&gt;Node82668 -->
<g id="edge18" class="edge">
<title>Node82971&#45;&gt;Node82668</title>
<path fill="none" stroke="#191970" d="M352.9699,-443.1237C394.861,-470.7055 482.5522,-528.4428 517.3329,-551.3429"/>
<polygon fill="#191970" stroke="#191970" points="354.8043,-440.141 344.5273,-437.565 350.9548,-445.9875 354.8043,-440.141"/>
</g>
<!-- Node82971&#45;&gt;Node82981 -->
<g id="edge16" class="edge">
<title>Node82971&#45;&gt;Node82981</title>
<path fill="none" stroke="#191970" d="M395.8538,-437.4543C419.9512,-440.9138 447.0981,-444.8111 470.7744,-448.2102"/>
<polygon fill="#191970" stroke="#191970" points="396.128,-433.9578 385.7321,-436.0011 395.1332,-440.8868 396.128,-433.9578"/>
</g>
<!-- Node82971&#45;&gt;Node83000 -->
<g id="edge17" class="edge">
<title>Node82971&#45;&gt;Node83000</title>
<path fill="none" stroke="#191970" d="M395.7139,-421.819C422.2821,-419.32 452.576,-416.4706 477.8449,-414.0938"/>
<polygon fill="#191970" stroke="#191970" points="395.3604,-418.3367 385.7321,-422.7579 396.016,-425.3059 395.3604,-418.3367"/>
</g>
<!-- Node83247&#45;&gt;Node82818 -->
<g id="edge23" class="edge">
<title>Node83247&#45;&gt;Node82818</title>
<path fill="none" stroke="#191970" d="M382.1048,-157.0991C414.722,-154.0311 456.3061,-150.1197 487.3967,-147.1954"/>
<polygon fill="#191970" stroke="#191970" points="381.4828,-153.642 371.8545,-158.0632 382.1384,-160.6113 381.4828,-153.642"/>
</g>
<!-- Node82796&#45;&gt;Node82668 -->
<g id="edge26" class="edge">
<title>Node82796&#45;&gt;Node82668</title>
<path fill="none" stroke="#191970" d="M357.1805,-366.7144C374.1881,-376.9145 395.6968,-391.738 411,-409 433.4248,-434.2952 426.8334,-448.8702 447,-476 469.6593,-506.4831 503.0616,-536.5848 520.479,-551.4402"/>
<polygon fill="#191970" stroke="#191970" points="358.6685,-363.5312 348.2629,-361.5372 355.1538,-369.5849 358.6685,-363.5312"/>
</g>
<!-- Node82796&#45;&gt;Node82776 -->
<g id="edge27" class="edge">
<title>Node82796&#45;&gt;Node82776</title>
<path fill="none" stroke="#191970" d="M395.2693,-345.8608C422.091,-343.338 452.772,-340.4521 478.2656,-338.0542"/>
<polygon fill="#191970" stroke="#191970" points="394.8257,-342.387 385.1974,-346.8082 395.4812,-349.3562 394.8257,-342.387"/>
</g>
<!-- Node82849&#45;&gt;Node82668 -->
<g id="edge31" class="edge">
<title>Node82849&#45;&gt;Node82668</title>
<path fill="none" stroke="#191970" d="M383.3457,-515.9217C392.5962,-518.1576 402.0994,-520.5621 411,-523 443.0668,-531.7833 479.4026,-543.4258 503.8148,-551.4988"/>
<polygon fill="#191970" stroke="#191970" points="383.986,-512.4764 373.4475,-513.568 382.3666,-519.2865 383.986,-512.4764"/>
</g>
<!-- Node82879&#45;&gt;Node82637 -->
<g id="edge33" class="edge">
<title>Node82879&#45;&gt;Node82637</title>
<path fill="none" stroke="#191970" d="M408.9471,-914.5743C426.6176,-912.9122 445.2349,-911.1611 462.4897,-909.5381"/>
<polygon fill="#191970" stroke="#191970" points="408.2981,-911.1198 398.6699,-915.541 408.9537,-918.089 408.2981,-911.1198"/>
</g>
<!-- Node82884&#45;&gt;Node82668 -->
<g id="edge35" class="edge">
<title>Node82884&#45;&gt;Node82668</title>
<path fill="none" stroke="#191970" d="M397.3984,-681.1354C402.1103,-679.3476 406.6937,-677.3136 411,-675 462.1036,-647.544 507.5515,-592.9249 524.721,-570.723"/>
<polygon fill="#191970" stroke="#191970" points="395.934,-677.9365 387.5936,-684.4701 398.1881,-684.5636 395.934,-677.9365"/>
</g>
<!-- Node82984&#45;&gt;Node82668 -->
<g id="edge38" class="edge">
<title>Node82984&#45;&gt;Node82668</title>
<path fill="none" stroke="#191970" d="M378.558,-647.3633C389.4496,-644.6739 400.7953,-641.2618 411,-637 453.8059,-619.1229 498.6388,-586.8107 519.6968,-570.6911"/>
<polygon fill="#191970" stroke="#191970" points="377.6847,-643.9727 368.7289,-649.6336 379.2601,-650.7932 377.6847,-643.9727"/>
</g>
<!-- Node82917&#45;&gt;Node82668 -->
<g id="edge40" class="edge">
<title>Node82917&#45;&gt;Node82668</title>
<path fill="none" stroke="#191970" d="M373.8907,-605.615C411.1857,-595.0912 463.9556,-580.2007 498.0794,-570.5716"/>
<polygon fill="#191970" stroke="#191970" points="372.4839,-602.3752 363.8103,-608.4595 374.385,-609.1121 372.4839,-602.3752"/>
</g>
</g>
</svg>
        <g id="navigator" transform="translate(0 0)" fill="#404254">
                <rect fill="#f2f5e9" fill-opacity="0.5" stroke="#606060" stroke-width=".5" x="0" y="0" width="60" height="60"/>
                <use id="zoomplus" xlink:href="#zoomPlus" x="17" y="9" onmousedown="handleZoom(evt,'in')"/>
                <use id="zoomminus" xlink:href="#zoomMin" x="42" y="9" onmousedown="handleZoom(evt,'out')"/>
                <use id="reset" xlink:href="#resetDef" x="30" y="36" onmousedown="handleReset()"/>
                <g id="arrowUp" xlink:href="#dirArrow" transform="translate(30 24)" onmousedown="handlePan(0,-1)">
                  <use xlink:href="#rim" fill="#404040">
                        <set attributeName="fill" to="#808080" begin="arrowUp.mouseover" end="arrowUp.mouseout"/>
                  </use>
                  <path fill="none" stroke="white" stroke-width="1.5" d="M0,-3.0v7 M-2.5,-0.5L0,-3.0L2.5,-0.5"/>
                </g>
                <g id="arrowRight" xlink:href="#dirArrow" transform="rotate(90) translate(36 -43)" onmousedown="handlePan(1,0)">
                  <use xlink:href="#rim" fill="#404040">
                        <set attributeName="fill" to="#808080" begin="arrowRight.mouseover" end="arrowRight.mouseout"/>
                  </use>
                  <path fill="none" stroke="white" stroke-width="1.5" d="M0,-3.0v7 M-2.5,-0.5L0,-3.0L2.5,-0.5"/>
                </g>
                <g id="arrowDown" xlink:href="#dirArrow" transform="rotate(180) translate(-30 -48)" onmousedown="handlePan(0,1)">
                  <use xlink:href="#rim" fill="#404040">
                        <set attributeName="fill" to="#808080" begin="arrowDown.mouseover" end="arrowDown.mouseout"/>
                  </use>
                  <path fill="none" stroke="white" stroke-width="1.5" d="M0,-3.0v7 M-2.5,-0.5L0,-3.0L2.5,-0.5"/>
                </g>
                <g id="arrowLeft" xlink:href="#dirArrow" transform="rotate(270) translate(-36 17)" onmousedown="handlePan(-1,0)">
                  <use xlink:href="#rim" fill="#404040">
                        <set attributeName="fill" to="#808080" begin="arrowLeft.mouseover" end="arrowLeft.mouseout"/>
                  </use>
                  <path fill="none" stroke="white" stroke-width="1.5" d="M0,-3.0v7 M-2.5,-0.5L0,-3.0L2.5,-0.5"/>
                </g>
        </g>
        <svg viewBox="0 0 15 15" width="100%" height="30px" preserveAspectRatio="xMaxYMin meet">
         <g id="arrow_out" transform="scale(0.3 0.3)">
          <a xlink:href="quickjs_8c_a0bbd9e3ecd55e3ea6c9d44bfda382095_icgraph_org.svg" target="_base">
           <rect id="button" ry="5" rx="5" y="6" x="6" height="38" width="38"
                fill="#f2f5e9" fill-opacity="0.5" stroke="#606060" stroke-width="1.0"/>
           <path id="arrow"
             d="M 11.500037,31.436501 C 11.940474,20.09759 22.043105,11.32322 32.158766,21.979434 L 37.068811,17.246167 C 37.068811,17.246167 37.088388,32 37.088388,32 L 22.160133,31.978069 C 22.160133,31.978069 26.997745,27.140456 26.997745,27.140456 C 18.528582,18.264221 13.291696,25.230495 11.500037,31.436501 z"
             style="fill:#404040;"/>
          </a>
         </g>
        </svg>
</svg>
