<?xml version="1.0" encoding="UTF-8" standalone="no"?>
<!DOCTYPE svg PUBLIC "-//W3C//DTD SVG 1.1//EN"
 "http://www.w3.org/Graphics/SVG/1.1/DTD/svg11.dtd">
<!-- Generated by graphviz version 2.40.1 (20161225.0304)
 -->
<!-- Title: js_find_loaded_module Pages: 1 -->
<!--zoomable 143 -->
<svg id="main" version="1.1" xmlns="http://www.w3.org/2000/svg" xmlns:xlink="http://www.w3.org/1999/xlink" xml:space="preserve" onload="init(evt)">
<style type="text/css"><![CDATA[
.edge:hover path { stroke: red; }
.edge:hover polygon { stroke: red; fill: red; }
]]></style>
<script type="text/javascript"><![CDATA[
var edges = document.getElementsByTagName('g');
if (edges && edges.length) {
  for (var i=0;i<edges.length;i++) {
    if (edges[i].id.substr(0,4)=='edge') {
      edges[i].setAttribute('class','edge');
    }
  }
}
]]></script>
        <defs>
                <circle id="rim" cx="0" cy="0" r="7"/>
                <circle id="rim2" cx="0" cy="0" r="3.5"/>
                <g id="zoomPlus">
                        <use xlink:href="#rim" fill="#404040">
                                <set attributeName="fill" to="#808080" begin="zoomplus.mouseover" end="zoomplus.mouseout"/>
                        </use>
                        <path d="M-4,0h8M0,-4v8" fill="none" stroke="white" stroke-width="1.5" pointer-events="none"/>
                </g>
                <g id="zoomMin">
                        <use xlink:href="#rim" fill="#404040">
                                <set attributeName="fill" to="#808080" begin="zoomminus.mouseover" end="zoomminus.mouseout"/>
                        </use>
                        <path d="M-4,0h8" fill="none" stroke="white" stroke-width="1.5" pointer-events="none"/>
                </g>
                <g id="dirArrow">
                        <path fill="none" stroke="white" stroke-width="1.5" d="M0,-3.0v7 M-2.5,-0.5L0,-3.0L2.5,-0.5"/>
                </g>
               <g id="resetDef">
                       <use xlink:href="#rim2" fill="#404040">
                               <set attributeName="fill" to="#808080" begin="reset.mouseover" end="reset.mouseout"/>
                       </use>
               </g>
        </defs>

<script type="text/javascript">
var viewWidth = 705;
var viewHeight = 143;
var sectionId = 'dynsection-1108';
</script>
<script xlink:href="svgpan.js"/>
<svg id="graph" class="graph">
<g id="viewport">
<title>js_find_loaded_module</title>
<!-- Node329400 -->
<g id="node1" class="node">
<title>Node329400</title>
<polygon fill="#bfbfbf" stroke="#000000" points="0,-28.5 0,-47.5 116,-47.5 116,-28.5 0,-28.5"/>
<text text-anchor="middle" x="58" y="-35.5" font-family="Helvetica,sans-Serif" font-size="10.00" fill="#000000">js_find_loaded_module</text>
</g>
<!-- Node329401 -->
<g id="node2" class="node">
<title>Node329401</title>
<g id="a_node2"><a xlink:href="quickjs_8c.html#a90dd988b99a5bc7b2a4aaffd2de405a9" target="_top" xlink:title="js_host_resolve_imported\l_module">
<polygon fill="none" stroke="#000000" points="152,-51 152,-81 280,-81 280,-51 152,-51"/>
<text text-anchor="start" x="160" y="-69" font-family="Helvetica,sans-Serif" font-size="10.00" fill="#000000">js_host_resolve_imported</text>
<text text-anchor="middle" x="216" y="-58" font-family="Helvetica,sans-Serif" font-size="10.00" fill="#000000">_module</text>
</a>
</g>
</g>
<!-- Node329400&#45;&gt;Node329401 -->
<g id="edge1" class="edge">
<title>Node329400&#45;&gt;Node329401</title>
<path fill="none" stroke="#191970" d="M122.0599,-49.3524C131.9156,-51.099 142.0933,-52.9026 151.9489,-54.6492"/>
<polygon fill="#191970" stroke="#191970" points="122.3901,-45.8564 111.9327,-47.5577 121.1685,-52.749 122.3901,-45.8564"/>
</g>
<!-- Node330009 -->
<g id="node6" class="node">
<title>Node330009</title>
<g id="a_node6"><a xlink:href="quickjs_8c.html#a2c15f4e9fa1344bb2d7caca8e21b34f4" target="_top" xlink:title="js_import_meta">
<polygon fill="none" stroke="#000000" points="174.5,-6.5 174.5,-25.5 257.5,-25.5 257.5,-6.5 174.5,-6.5"/>
<text text-anchor="middle" x="216" y="-13.5" font-family="Helvetica,sans-Serif" font-size="10.00" fill="#000000">js_import_meta</text>
</a>
</g>
</g>
<!-- Node329400&#45;&gt;Node330009 -->
<g id="edge7" class="edge">
<title>Node329400&#45;&gt;Node330009</title>
<path fill="none" stroke="#191970" d="M126.3948,-28.4767C142.6389,-26.2148 159.4922,-23.8682 174.14,-21.8286"/>
<polygon fill="#191970" stroke="#191970" points="125.8062,-25.0248 116.3845,-29.8705 126.7716,-31.9579 125.8062,-25.0248"/>
</g>
<!-- Node329402 -->
<g id="node3" class="node">
<title>Node329402</title>
<g id="a_node3"><a xlink:href="quickjs_8c.html#a5b9215d5347fb8696212caf3f8ebfad0" target="_top" xlink:title="js_host_resolve_imported\l_module_atom">
<polygon fill="none" stroke="#000000" points="316,-95 316,-125 444,-125 444,-95 316,-95"/>
<text text-anchor="start" x="324" y="-113" font-family="Helvetica,sans-Serif" font-size="10.00" fill="#000000">js_host_resolve_imported</text>
<text text-anchor="middle" x="380" y="-102" font-family="Helvetica,sans-Serif" font-size="10.00" fill="#000000">_module_atom</text>
</a>
</g>
</g>
<!-- Node329401&#45;&gt;Node329402 -->
<g id="edge2" class="edge">
<title>Node329401&#45;&gt;Node329402</title>
<path fill="none" stroke="#191970" d="M281.9836,-83.7029C295.9096,-87.4392 310.4769,-91.3475 323.9932,-94.9738"/>
<polygon fill="#191970" stroke="#191970" points="282.5462,-80.2301 271.9808,-81.0192 280.7323,-86.991 282.5462,-80.2301"/>
</g>
<!-- Node329404 -->
<g id="node5" class="node">
<title>Node329404</title>
<g id="a_node5"><a xlink:href="quickjs_8c.html#aa75a2b06808d8da661d4eb6698b17cab" target="_top" xlink:title="JS_RunModule">
<polygon fill="none" stroke="#ff0000" points="614,-75.5 614,-94.5 697,-94.5 697,-75.5 614,-75.5"/>
<text text-anchor="middle" x="655.5" y="-82.5" font-family="Helvetica,sans-Serif" font-size="10.00" fill="#000000">JS_RunModule</text>
</a>
</g>
</g>
<!-- Node329401&#45;&gt;Node329404 -->
<g id="edge6" class="edge">
<title>Node329401&#45;&gt;Node329404</title>
<path fill="none" stroke="#191970" d="M290.5696,-69.2237C383.6181,-73.2463 539.5151,-79.9859 613.7532,-83.1952"/>
<polygon fill="#191970" stroke="#191970" points="290.5196,-65.7184 280.3778,-68.7831 290.2172,-72.7118 290.5196,-65.7184"/>
</g>
<!-- Node329403 -->
<g id="node4" class="node">
<title>Node329403</title>
<g id="a_node4"><a xlink:href="quickjs_8c.html#a041f16b68daf31525cd76aa4794073ef" target="_top" xlink:title="js_resolve_module">
<polygon fill="none" stroke="#ff0000" points="480,-97.5 480,-116.5 578,-116.5 578,-97.5 480,-97.5"/>
<text text-anchor="middle" x="529" y="-104.5" font-family="Helvetica,sans-Serif" font-size="10.00" fill="#000000">js_resolve_module</text>
</a>
</g>
</g>
<!-- Node329402&#45;&gt;Node329403 -->
<g id="edge3" class="edge">
<title>Node329402&#45;&gt;Node329403</title>
<path fill="none" stroke="#191970" d="M454.2289,-108.5055C462.9224,-108.3304 471.6207,-108.1553 479.8505,-107.9896"/>
<polygon fill="#191970" stroke="#191970" points="453.9816,-105.0096 444.0541,-108.7103 454.1226,-112.0082 453.9816,-105.0096"/>
</g>
<!-- Node329403&#45;&gt;Node329403 -->
<g id="edge4" class="edge">
<title>Node329403&#45;&gt;Node329403</title>
<path fill="none" stroke="#191970" d="M505.5626,-126.0292C506.841,-131.128 514.6535,-135 529,-135 551.3945,-135 557.868,-125.5653 548.4203,-116.7571"/>
<polygon fill="#191970" stroke="#191970" points="508.8158,-127.3243 509.5797,-116.7571 502.3927,-124.5415 508.8158,-127.3243"/>
</g>
<!-- Node329403&#45;&gt;Node329404 -->
<g id="edge5" class="edge">
<title>Node329403&#45;&gt;Node329404</title>
<path fill="none" stroke="#191970" d="M588.3441,-96.6793C596.9969,-95.1744 605.7476,-93.6526 613.945,-92.2269"/>
<polygon fill="#191970" stroke="#191970" points="587.5228,-93.2695 578.2704,-98.4312 588.7223,-100.166 587.5228,-93.2695"/>
</g>
<!-- Node329407 -->
<g id="node7" class="node">
<title>Node329407</title>
<g id="a_node7"><a xlink:href="quickjs_8c.html#ac2894ff4edcdb4e6841bcce9c76081e3" target="_top" xlink:title="JS_CallInternal">
<polygon fill="none" stroke="#ff0000" points="338.5,-.5 338.5,-19.5 421.5,-19.5 421.5,-.5 338.5,-.5"/>
<text text-anchor="middle" x="380" y="-7.5" font-family="Helvetica,sans-Serif" font-size="10.00" fill="#000000">JS_CallInternal</text>
</a>
</g>
</g>
<!-- Node330009&#45;&gt;Node329407 -->
<g id="edge8" class="edge">
<title>Node330009&#45;&gt;Node329407</title>
<path fill="none" stroke="#191970" d="M267.9506,-14.0994C290.636,-13.2694 316.8823,-12.3092 338.2679,-11.5268"/>
<polygon fill="#191970" stroke="#191970" points="267.6738,-10.6071 257.8085,-14.4704 267.9298,-17.6024 267.6738,-10.6071"/>
</g>
<!-- Node329407&#45;&gt;Node329407 -->
<g id="edge9" class="edge">
<title>Node329407&#45;&gt;Node329407</title>
<path fill="none" stroke="#191970" d="M352.3742,-28.6539C353.5289,-33.9368 362.7375,-38 380,-38 406.3047,-38 413.9084,-28.5653 402.8111,-19.7571"/>
<polygon fill="#191970" stroke="#191970" points="355.5076,-30.2176 357.1889,-19.7571 349.3512,-26.886 355.5076,-30.2176"/>
</g>
</g>
</svg>
        <g id="navigator" transform="translate(0 0)" fill="#404254">
                <rect fill="#f2f5e9" fill-opacity="0.5" stroke="#606060" stroke-width=".5" x="0" y="0" width="60" height="60"/>
                <use id="zoomplus" xlink:href="#zoomPlus" x="17" y="9" onmousedown="handleZoom(evt,'in')"/>
                <use id="zoomminus" xlink:href="#zoomMin" x="42" y="9" onmousedown="handleZoom(evt,'out')"/>
                <use id="reset" xlink:href="#resetDef" x="30" y="36" onmousedown="handleReset()"/>
                <g id="arrowUp" xlink:href="#dirArrow" transform="translate(30 24)" onmousedown="handlePan(0,-1)">
                  <use xlink:href="#rim" fill="#404040">
                        <set attributeName="fill" to="#808080" begin="arrowUp.mouseover" end="arrowUp.mouseout"/>
                  </use>
                  <path fill="none" stroke="white" stroke-width="1.5" d="M0,-3.0v7 M-2.5,-0.5L0,-3.0L2.5,-0.5"/>
                </g>
                <g id="arrowRight" xlink:href="#dirArrow" transform="rotate(90) translate(36 -43)" onmousedown="handlePan(1,0)">
                  <use xlink:href="#rim" fill="#404040">
                        <set attributeName="fill" to="#808080" begin="arrowRight.mouseover" end="arrowRight.mouseout"/>
                  </use>
                  <path fill="none" stroke="white" stroke-width="1.5" d="M0,-3.0v7 M-2.5,-0.5L0,-3.0L2.5,-0.5"/>
                </g>
                <g id="arrowDown" xlink:href="#dirArrow" transform="rotate(180) translate(-30 -48)" onmousedown="handlePan(0,1)">
                  <use xlink:href="#rim" fill="#404040">
                        <set attributeName="fill" to="#808080" begin="arrowDown.mouseover" end="arrowDown.mouseout"/>
                  </use>
                  <path fill="none" stroke="white" stroke-width="1.5" d="M0,-3.0v7 M-2.5,-0.5L0,-3.0L2.5,-0.5"/>
                </g>
                <g id="arrowLeft" xlink:href="#dirArrow" transform="rotate(270) translate(-36 17)" onmousedown="handlePan(-1,0)">
                  <use xlink:href="#rim" fill="#404040">
                        <set attributeName="fill" to="#808080" begin="arrowLeft.mouseover" end="arrowLeft.mouseout"/>
                  </use>
                  <path fill="none" stroke="white" stroke-width="1.5" d="M0,-3.0v7 M-2.5,-0.5L0,-3.0L2.5,-0.5"/>
                </g>
        </g>
        <svg viewBox="0 0 15 15" width="100%" height="30px" preserveAspectRatio="xMaxYMin meet">
         <g id="arrow_out" transform="scale(0.3 0.3)">
          <a xlink:href="quickjs_8c_a0a31a11db1d2054a132f4879d1f3c8cc_icgraph_org.svg" target="_base">
           <rect id="button" ry="5" rx="5" y="6" x="6" height="38" width="38"
                fill="#f2f5e9" fill-opacity="0.5" stroke="#606060" stroke-width="1.0"/>
           <path id="arrow"
             d="M 11.500037,31.436501 C 11.940474,20.09759 22.043105,11.32322 32.158766,21.979434 L 37.068811,17.246167 C 37.068811,17.246167 37.088388,32 37.088388,32 L 22.160133,31.978069 C 22.160133,31.978069 26.997745,27.140456 26.997745,27.140456 C 18.528582,18.264221 13.291696,25.230495 11.500037,31.436501 z"
             style="fill:#404040;"/>
          </a>
         </g>
        </svg>
</svg>
