<?xml version="1.0" encoding="UTF-8" standalone="no"?>
<!DOCTYPE svg PUBLIC "-//W3C//DTD SVG 1.1//EN"
 "http://www.w3.org/Graphics/SVG/1.1/DTD/svg11.dtd">
<!-- Generated by graphviz version 2.40.1 (20161225.0304)
 -->
<!-- Title: seal_template_obj Pages: 1 -->
<svg width="675pt" height="155pt"
 viewBox="0.00 0.00 675.00 154.71" xmlns="http://www.w3.org/2000/svg" xmlns:xlink="http://www.w3.org/1999/xlink">
<g id="graph0" class="graph" transform="scale(1 1) rotate(0) translate(4 150.7146)">
<title>seal_template_obj</title>
<!-- Node313591 -->
<g id="node1" class="node">
<title>Node313591</title>
<polygon fill="#bfbfbf" stroke="#000000" points="0,-95.5 0,-114.5 95,-114.5 95,-95.5 0,-95.5"/>
<text text-anchor="middle" x="47.5" y="-102.5" font-family="Helvetica,sans-Serif" font-size="10.00" fill="#000000">seal_template_obj</text>
</g>
<!-- Node313592 -->
<g id="node2" class="node">
<title>Node313592</title>
<g id="a_node2"><a xlink:href="quickjs_8c.html#afdc6d90129958f6258bae1505495869f" target="_top" xlink:title="find_own_property1">
<polygon fill="none" stroke="#000000" points="131,-117.5 131,-136.5 232,-136.5 232,-117.5 131,-117.5"/>
<text text-anchor="middle" x="181.5" y="-124.5" font-family="Helvetica,sans-Serif" font-size="10.00" fill="#000000">find_own_property1</text>
</a>
</g>
</g>
<!-- Node313591&#45;&gt;Node313592 -->
<g id="edge1" class="edge">
<title>Node313591&#45;&gt;Node313592</title>
<path fill="none" stroke="#191970" d="M95.1207,-112.8183C103.4472,-114.1854 112.2106,-115.6241 120.8329,-117.0397"/>
<polygon fill="#191970" stroke="#191970" points="120.4203,-120.5188 130.8553,-118.6852 121.5544,-113.6112 120.4203,-120.5188"/>
</g>
<!-- Node313595 -->
<g id="node5" class="node">
<title>Node313595</title>
<g id="a_node5"><a xlink:href="quickjs_8c.html#a6d48937f79966a773376cc24834c663f" target="_top" xlink:title="js_update_property\l_flags">
<polygon fill="none" stroke="#000000" points="132,-68 132,-98 231,-98 231,-68 132,-68"/>
<text text-anchor="start" x="140" y="-86" font-family="Helvetica,sans-Serif" font-size="10.00" fill="#000000">js_update_property</text>
<text text-anchor="middle" x="181.5" y="-75" font-family="Helvetica,sans-Serif" font-size="10.00" fill="#000000">_flags</text>
</a>
</g>
</g>
<!-- Node313591&#45;&gt;Node313595 -->
<g id="edge4" class="edge">
<title>Node313591&#45;&gt;Node313595</title>
<path fill="none" stroke="#191970" d="M95.1207,-97.1817C103.7563,-95.7639 112.8619,-94.2689 121.7926,-92.8027"/>
<polygon fill="#191970" stroke="#191970" points="122.4662,-96.2391 131.767,-91.1651 121.332,-89.3315 122.4662,-96.2391"/>
</g>
<!-- Node313593 -->
<g id="node3" class="node">
<title>Node313593</title>
<g id="a_node3"><a xlink:href="quickjs_8c.html#a643df594b75933007bcdbb071b5ea8c5" target="_top" xlink:title="get_shape_prop">
<polygon fill="none" stroke="#000000" points="581,-114.5 581,-133.5 667,-133.5 667,-114.5 581,-114.5"/>
<text text-anchor="middle" x="624" y="-121.5" font-family="Helvetica,sans-Serif" font-size="10.00" fill="#000000">get_shape_prop</text>
</a>
</g>
</g>
<!-- Node313592&#45;&gt;Node313593 -->
<g id="edge2" class="edge">
<title>Node313592&#45;&gt;Node313593</title>
<path fill="none" stroke="#191970" d="M224.4028,-136.5375C238.2444,-139.1835 253.7042,-141.689 268,-143 375.1378,-152.8254 500.9159,-140.5476 570.6239,-131.6532"/>
<polygon fill="#191970" stroke="#191970" points="571.4419,-135.0763 580.9058,-130.3137 570.5374,-128.135 571.4419,-135.0763"/>
</g>
<!-- Node313594 -->
<g id="node4" class="node">
<title>Node313594</title>
<g id="a_node4"><a xlink:href="quickjs_8c.html#acab22c2945c4d609e57a2484feb68a96" target="_top" xlink:title="prop_hash_end">
<polygon fill="none" stroke="#000000" points="290.5,-114.5 290.5,-133.5 373.5,-133.5 373.5,-114.5 290.5,-114.5"/>
<text text-anchor="middle" x="332" y="-121.5" font-family="Helvetica,sans-Serif" font-size="10.00" fill="#000000">prop_hash_end</text>
</a>
</g>
</g>
<!-- Node313592&#45;&gt;Node313594 -->
<g id="edge3" class="edge">
<title>Node313592&#45;&gt;Node313594</title>
<path fill="none" stroke="#191970" d="M232.033,-125.9927C247.5841,-125.6827 264.7195,-125.3411 280.3448,-125.0297"/>
<polygon fill="#191970" stroke="#191970" points="280.4348,-128.5287 290.363,-124.83 280.2952,-121.5301 280.4348,-128.5287"/>
</g>
<!-- Node313596 -->
<g id="node6" class="node">
<title>Node313596</title>
<g id="a_node6"><a xlink:href="quickjs_8c.html#a3dd8e78607dbc729614deacf55901b95" target="_top" xlink:title="js_shape_prepare_update">
<polygon fill="none" stroke="#000000" points="268,-73.5 268,-92.5 396,-92.5 396,-73.5 268,-73.5"/>
<text text-anchor="middle" x="332" y="-80.5" font-family="Helvetica,sans-Serif" font-size="10.00" fill="#000000">js_shape_prepare_update</text>
</a>
</g>
</g>
<!-- Node313595&#45;&gt;Node313596 -->
<g id="edge5" class="edge">
<title>Node313595&#45;&gt;Node313596</title>
<path fill="none" stroke="#191970" d="M231.1964,-83C239.7189,-83 248.7377,-83 257.7376,-83"/>
<polygon fill="#191970" stroke="#191970" points="257.8633,-86.5001 267.8633,-83 257.8632,-79.5001 257.8633,-86.5001"/>
</g>
<!-- Node313596&#45;&gt;Node313593 -->
<g id="edge6" class="edge">
<title>Node313596&#45;&gt;Node313593</title>
<path fill="none" stroke="#191970" d="M370.2625,-92.5275C388.8065,-96.8601 411.4595,-101.7359 432,-105 478.6139,-112.4075 532.0824,-117.4168 570.7373,-120.4238"/>
<polygon fill="#191970" stroke="#191970" points="570.4935,-123.9152 580.7297,-121.1822 571.0233,-116.9353 570.4935,-123.9152"/>
</g>
<!-- Node313597 -->
<g id="node7" class="node">
<title>Node313597</title>
<g id="a_node7"><a xlink:href="quickjs_8c.html#a8e34657169da77ae6a386311351ed3de" target="_top" xlink:title="js_clone_shape">
<polygon fill="none" stroke="#ff0000" points="446.5,-76.5 446.5,-95.5 530.5,-95.5 530.5,-76.5 446.5,-76.5"/>
<text text-anchor="middle" x="488.5" y="-83.5" font-family="Helvetica,sans-Serif" font-size="10.00" fill="#000000">js_clone_shape</text>
</a>
</g>
</g>
<!-- Node313596&#45;&gt;Node313597 -->
<g id="edge7" class="edge">
<title>Node313596&#45;&gt;Node313597</title>
<path fill="none" stroke="#191970" d="M396.1061,-84.2289C409.4276,-84.4842 423.3148,-84.7504 436.1533,-84.9965"/>
<polygon fill="#191970" stroke="#191970" points="436.1287,-88.4966 446.194,-85.189 436.2629,-81.4979 436.1287,-88.4966"/>
</g>
<!-- Node313611 -->
<g id="node8" class="node">
<title>Node313611</title>
<g id="a_node8"><a xlink:href="quickjs_8c.html#a3a9f27520d96cf58aa5bd7359e9cddee" target="_top" xlink:title="js_free_shape">
<polygon fill="none" stroke="#ff0000" points="450,-38.5 450,-57.5 527,-57.5 527,-38.5 450,-38.5"/>
<text text-anchor="middle" x="488.5" y="-45.5" font-family="Helvetica,sans-Serif" font-size="10.00" fill="#000000">js_free_shape</text>
</a>
</g>
</g>
<!-- Node313596&#45;&gt;Node313611 -->
<g id="edge9" class="edge">
<title>Node313596&#45;&gt;Node313611</title>
<path fill="none" stroke="#191970" d="M374.7643,-73.4361C394.908,-68.9311 419.032,-63.536 439.8689,-58.876"/>
<polygon fill="#191970" stroke="#191970" points="440.807,-62.2527 449.802,-56.6545 439.2792,-55.4215 440.807,-62.2527"/>
</g>
<!-- Node313641 -->
<g id="node9" class="node">
<title>Node313641</title>
<g id="a_node9"><a xlink:href="quickjs_8c.html#ae5e76f4be6214208cc91f10a192fc810" target="_top" xlink:title="js_shape_hash_unlink">
<polygon fill="none" stroke="#ff0000" points="432,-.5 432,-19.5 545,-19.5 545,-.5 432,-.5"/>
<text text-anchor="middle" x="488.5" y="-7.5" font-family="Helvetica,sans-Serif" font-size="10.00" fill="#000000">js_shape_hash_unlink</text>
</a>
</g>
</g>
<!-- Node313596&#45;&gt;Node313641 -->
<g id="edge10" class="edge">
<title>Node313596&#45;&gt;Node313641</title>
<path fill="none" stroke="#191970" d="M347.8579,-73.3364C367.2317,-61.7912 401.2347,-42.3631 432,-29 436.9833,-26.8355 442.2989,-24.7596 447.601,-22.8272"/>
<polygon fill="#191970" stroke="#191970" points="448.7746,-26.1247 457.0552,-19.5154 446.4604,-19.5183 448.7746,-26.1247"/>
</g>
<!-- Node313597&#45;&gt;Node313593 -->
<g id="edge8" class="edge">
<title>Node313597&#45;&gt;Node313593</title>
<path fill="none" stroke="#191970" d="M522.6924,-95.589C540.1039,-100.4719 561.4715,-106.4643 580.0871,-111.685"/>
<polygon fill="#191970" stroke="#191970" points="579.2449,-115.0837 589.8186,-114.4141 581.1351,-108.3438 579.2449,-115.0837"/>
</g>
</g>
</svg>
