<?xml version="1.0" encoding="UTF-8" standalone="no"?>
<!DOCTYPE svg PUBLIC "-//W3C//DTD SVG 1.1//EN"
 "http://www.w3.org/Graphics/SVG/1.1/DTD/svg11.dtd">
<!-- Generated by graphviz version 2.40.1 (20161225.0304)
 -->
<!-- Title: JS_AddIntrinsicPromise Pages: 1 -->
<svg width="547pt" height="28pt"
 viewBox="0.00 0.00 547.00 28.00" xmlns="http://www.w3.org/2000/svg" xmlns:xlink="http://www.w3.org/1999/xlink">
<g id="graph0" class="graph" transform="scale(1 1) rotate(0) translate(4 24)">
<title>JS_AddIntrinsicPromise</title>
<!-- Node11059 -->
<g id="node1" class="node">
<title>Node11059</title>
<polygon fill="#bfbfbf" stroke="#000000" points="0,-.5 0,-19.5 122,-19.5 122,-.5 0,-.5"/>
<text text-anchor="middle" x="61" y="-7.5" font-family="Helvetica,sans-Serif" font-size="10.00" fill="#000000">JS_AddIntrinsicPromise</text>
</g>
<!-- Node11060 -->
<g id="node2" class="node">
<title>Node11060</title>
<g id="a_node2"><a xlink:href="quickjs_8c.html#ad8aedb643b8753b7a15f6cb2df61945e" target="_top" xlink:title="JS_NewContext">
<polygon fill="none" stroke="#000000" points="158,-.5 158,-19.5 247,-19.5 247,-.5 158,-.5"/>
<text text-anchor="middle" x="202.5" y="-7.5" font-family="Helvetica,sans-Serif" font-size="10.00" fill="#000000">JS_NewContext</text>
</a>
</g>
</g>
<!-- Node11059&#45;&gt;Node11060 -->
<g id="edge1" class="edge">
<title>Node11059&#45;&gt;Node11060</title>
<path fill="none" stroke="#191970" d="M132.3807,-10C141.0398,-10 149.6863,-10 157.8014,-10"/>
<polygon fill="#191970" stroke="#191970" points="132.241,-6.5001 122.241,-10 132.241,-13.5001 132.241,-6.5001"/>
</g>
<!-- Node11061 -->
<g id="node3" class="node">
<title>Node11061</title>
<g id="a_node3"><a xlink:href="classqjs_1_1Context.html#a4392a23648acfc4bf6b445336efb5007" target="_top" xlink:title="qjs::Context::Context">
<polygon fill="none" stroke="#000000" points="283,-.5 283,-19.5 393,-19.5 393,-.5 283,-.5"/>
<text text-anchor="middle" x="338" y="-7.5" font-family="Helvetica,sans-Serif" font-size="10.00" fill="#000000">qjs::Context::Context</text>
</a>
</g>
</g>
<!-- Node11060&#45;&gt;Node11061 -->
<g id="edge2" class="edge">
<title>Node11060&#45;&gt;Node11061</title>
<path fill="none" stroke="#191970" d="M257.3476,-10C265.7739,-10 274.4767,-10 282.9083,-10"/>
<polygon fill="#191970" stroke="#191970" points="257.2433,-6.5001 247.2433,-10 257.2433,-13.5001 257.2433,-6.5001"/>
</g>
<!-- Node11062 -->
<g id="node4" class="node">
<title>Node11062</title>
<g id="a_node4"><a xlink:href="classqjs_1_1Context.html#af725fb8083d8c33a37198d6acaf1a836" target="_top" xlink:title="qjs::Context::Context">
<polygon fill="none" stroke="#ff0000" points="429,-.5 429,-19.5 539,-19.5 539,-.5 429,-.5"/>
<text text-anchor="middle" x="484" y="-7.5" font-family="Helvetica,sans-Serif" font-size="10.00" fill="#000000">qjs::Context::Context</text>
</a>
</g>
</g>
<!-- Node11061&#45;&gt;Node11062 -->
<g id="edge3" class="edge">
<title>Node11061&#45;&gt;Node11062</title>
<path fill="none" stroke="#191970" d="M403.4101,-10C411.8647,-10 420.4567,-10 428.7256,-10"/>
<polygon fill="#191970" stroke="#191970" points="403.1964,-6.5001 393.1963,-10 403.1963,-13.5001 403.1964,-6.5001"/>
</g>
</g>
</svg>
