<?xml version="1.0" encoding="UTF-8" standalone="no"?>
<!DOCTYPE svg PUBLIC "-//W3C//DTD SVG 1.1//EN"
 "http://www.w3.org/Graphics/SVG/1.1/DTD/svg11.dtd">
<!-- Generated by graphviz version 2.40.1 (20161225.0304)
 -->
<!-- Title: JS_IsHTMLDDA Pages: 1 -->
<svg width="489pt" height="142pt"
 viewBox="0.00 0.00 489.00 142.00" xmlns="http://www.w3.org/2000/svg" xmlns:xlink="http://www.w3.org/1999/xlink">
<g id="graph0" class="graph" transform="scale(1 1) rotate(0) translate(4 138)">
<title>JS_IsHTMLDDA</title>
<!-- Node228666 -->
<g id="node1" class="node">
<title>Node228666</title>
<polygon fill="#bfbfbf" stroke="#000000" points="0,-38.5 0,-57.5 91,-57.5 91,-38.5 0,-38.5"/>
<text text-anchor="middle" x="45.5" y="-45.5" font-family="Helvetica,sans-Serif" font-size="10.00" fill="#000000">JS_IsHTMLDDA</text>
</g>
<!-- Node228667 -->
<g id="node2" class="node">
<title>Node228667</title>
<g id="a_node2"><a xlink:href="quickjs_8c.html#a404705cd4008db4015ea19f234721fc2" target="_top" xlink:title="js_eq_slow">
<polygon fill="none" stroke="#000000" points="127,-38.5 127,-57.5 192,-57.5 192,-38.5 127,-38.5"/>
<text text-anchor="middle" x="159.5" y="-45.5" font-family="Helvetica,sans-Serif" font-size="10.00" fill="#000000">js_eq_slow</text>
</a>
</g>
</g>
<!-- Node228666&#45;&gt;Node228667 -->
<g id="edge1" class="edge">
<title>Node228666&#45;&gt;Node228667</title>
<path fill="none" stroke="#191970" d="M101.3598,-48C110.0601,-48 118.7959,-48 126.7558,-48"/>
<polygon fill="#191970" stroke="#191970" points="101.2113,-44.5001 91.2113,-48 101.2113,-51.5001 101.2113,-44.5001"/>
</g>
<!-- Node228668 -->
<g id="node3" class="node">
<title>Node228668</title>
<g id="a_node3"><a xlink:href="quickjs_8c.html#ac2894ff4edcdb4e6841bcce9c76081e3" target="_top" xlink:title="JS_CallInternal">
<polygon fill="none" stroke="#000000" points="228,-38.5 228,-57.5 311,-57.5 311,-38.5 228,-38.5"/>
<text text-anchor="middle" x="269.5" y="-45.5" font-family="Helvetica,sans-Serif" font-size="10.00" fill="#000000">JS_CallInternal</text>
</a>
</g>
</g>
<!-- Node228667&#45;&gt;Node228668 -->
<g id="edge2" class="edge">
<title>Node228667&#45;&gt;Node228668</title>
<path fill="none" stroke="#191970" d="M202.4607,-48C210.7674,-48 219.4594,-48 227.7274,-48"/>
<polygon fill="#191970" stroke="#191970" points="202.2058,-44.5001 192.2058,-48 202.2058,-51.5001 202.2058,-44.5001"/>
</g>
<!-- Node228668&#45;&gt;Node228668 -->
<g id="edge10" class="edge">
<title>Node228668&#45;&gt;Node228668</title>
<path fill="none" stroke="#191970" d="M249.1306,-67.4C250.491,-72.3146 257.2808,-76 269.5,-76 289.0508,-76 294.7022,-66.5653 286.4542,-57.7571"/>
<polygon fill="#191970" stroke="#191970" points="252.5065,-68.3518 252.5458,-57.7571 245.9081,-66.0149 252.5065,-68.3518"/>
</g>
<!-- Node228669 -->
<g id="node4" class="node">
<title>Node228669</title>
<g id="a_node4"><a xlink:href="quickjs_8c.html#ade71a22dc56e7371392393df663b28b3" target="_top" xlink:title="async_func_resume">
<polygon fill="none" stroke="#ff0000" points="362,-114.5 362,-133.5 466,-133.5 466,-114.5 362,-114.5"/>
<text text-anchor="middle" x="414" y="-121.5" font-family="Helvetica,sans-Serif" font-size="10.00" fill="#000000">async_func_resume</text>
</a>
</g>
</g>
<!-- Node228668&#45;&gt;Node228669 -->
<g id="edge3" class="edge">
<title>Node228668&#45;&gt;Node228669</title>
<path fill="none" stroke="#191970" d="M288.1674,-64.7317C303.1367,-77.3741 325.1804,-94.3186 347,-105 354.7101,-108.7743 363.2971,-111.9165 371.6815,-114.487"/>
<polygon fill="#191970" stroke="#191970" points="290.08,-61.7585 280.2264,-57.8651 285.5014,-67.0535 290.08,-61.7585"/>
</g>
<!-- Node228688 -->
<g id="node5" class="node">
<title>Node228688</title>
<g id="a_node5"><a xlink:href="quickjs_8c.html#a1a4c02a29525d5cb2085dd8bca3af350" target="_top" xlink:title="JS_Call">
<polygon fill="none" stroke="#ff0000" points="388.5,-76.5 388.5,-95.5 439.5,-95.5 439.5,-76.5 388.5,-76.5"/>
<text text-anchor="middle" x="414" y="-83.5" font-family="Helvetica,sans-Serif" font-size="10.00" fill="#000000">JS_Call</text>
</a>
</g>
</g>
<!-- Node228668&#45;&gt;Node228688 -->
<g id="edge4" class="edge">
<title>Node228668&#45;&gt;Node228688</title>
<path fill="none" stroke="#191970" d="M321.3524,-55.1309C347.197,-61.291 376.8346,-69.6885 395.4855,-76.4368"/>
<polygon fill="#191970" stroke="#191970" points="321.8269,-51.6484 311.2954,-52.8052 320.2497,-58.4684 321.8269,-51.6484"/>
</g>
<!-- Node228769 -->
<g id="node6" class="node">
<title>Node228769</title>
<g id="a_node6"><a xlink:href="quickjs_8c.html#ad35594576a14c10812efaf958c99af8a" target="_top" xlink:title="JS_CallConstructorInternal">
<polygon fill="none" stroke="#ff0000" points="347,-38.5 347,-57.5 481,-57.5 481,-38.5 347,-38.5"/>
<text text-anchor="middle" x="414" y="-45.5" font-family="Helvetica,sans-Serif" font-size="10.00" fill="#000000">JS_CallConstructorInternal</text>
</a>
</g>
</g>
<!-- Node228668&#45;&gt;Node228769 -->
<g id="edge6" class="edge">
<title>Node228668&#45;&gt;Node228769</title>
<path fill="none" stroke="#191970" d="M321.5209,-41.4909C329.7845,-41.2892 338.4321,-41.2142 346.9815,-41.2658"/>
<polygon fill="#191970" stroke="#191970" points="321.1798,-37.9998 311.2954,-41.814 321.401,-44.9963 321.1798,-37.9998"/>
</g>
<!-- Node228783 -->
<g id="node7" class="node">
<title>Node228783</title>
<g id="a_node7"><a xlink:href="quickjs_8c.html#a75f6ee5e4235a7dc99889f3d2eb2c147" target="_top" xlink:title="JS_CallFree">
<polygon fill="none" stroke="#ff0000" points="378.5,-.5 378.5,-19.5 449.5,-19.5 449.5,-.5 378.5,-.5"/>
<text text-anchor="middle" x="414" y="-7.5" font-family="Helvetica,sans-Serif" font-size="10.00" fill="#000000">JS_CallFree</text>
</a>
</g>
</g>
<!-- Node228668&#45;&gt;Node228783 -->
<g id="edge8" class="edge">
<title>Node228668&#45;&gt;Node228783</title>
<path fill="none" stroke="#191970" d="M297.6305,-35.1263C320.6733,-27.5295 353.4179,-18.7723 378.3055,-13.4723"/>
<polygon fill="#191970" stroke="#191970" points="296.4119,-31.8441 288.095,-38.4076 298.6897,-38.4632 296.4119,-31.8441"/>
</g>
<!-- Node228688&#45;&gt;Node228668 -->
<g id="edge5" class="edge">
<title>Node228688&#45;&gt;Node228668</title>
<path fill="none" stroke="#191970" d="M378.4088,-82.5497C349.8289,-76.469 310.8374,-65.8129 288.095,-57.5924"/>
<polygon fill="#191970" stroke="#191970" points="377.923,-86.0222 388.4179,-84.57 379.3081,-79.1605 377.923,-86.0222"/>
</g>
<!-- Node228769&#45;&gt;Node228668 -->
<g id="edge7" class="edge">
<title>Node228769&#45;&gt;Node228668</title>
<path fill="none" stroke="#191970" d="M336.7059,-54.7354C327.9651,-54.6845 319.3232,-54.5014 311.2954,-54.186"/>
<polygon fill="#191970" stroke="#191970" points="336.9819,-58.2354 346.9815,-54.7342 336.981,-51.2354 336.9819,-58.2354"/>
</g>
<!-- Node228783&#45;&gt;Node228668 -->
<g id="edge9" class="edge">
<title>Node228783&#45;&gt;Node228668</title>
<path fill="none" stroke="#191970" d="M385.7961,-22.8979C364.5982,-29.8825 335.2201,-37.8432 311.2954,-43.1948"/>
<polygon fill="#191970" stroke="#191970" points="387.1689,-26.127 395.4855,-19.5632 384.8909,-19.508 387.1689,-26.127"/>
</g>
</g>
</svg>
