<?xml version="1.0" encoding="UTF-8" standalone="no"?>
<!DOCTYPE svg PUBLIC "-//W3C//DTD SVG 1.1//EN"
 "http://www.w3.org/Graphics/SVG/1.1/DTD/svg11.dtd">
<!-- Generated by graphviz version 2.40.1 (20161225.0304)
 -->
<!-- Title: js_host_resolve_imported_module Pages: 1 -->
<!--zoomable 351 -->
<svg id="main" version="1.1" xmlns="http://www.w3.org/2000/svg" xmlns:xlink="http://www.w3.org/1999/xlink" xml:space="preserve" onload="init(evt)">
<style type="text/css"><![CDATA[
.edge:hover path { stroke: red; }
.edge:hover polygon { stroke: red; fill: red; }
]]></style>
<script type="text/javascript"><![CDATA[
var edges = document.getElementsByTagName('g');
if (edges && edges.length) {
  for (var i=0;i<edges.length;i++) {
    if (edges[i].id.substr(0,4)=='edge') {
      edges[i].setAttribute('class','edge');
    }
  }
}
]]></script>
        <defs>
                <circle id="rim" cx="0" cy="0" r="7"/>
                <circle id="rim2" cx="0" cy="0" r="3.5"/>
                <g id="zoomPlus">
                        <use xlink:href="#rim" fill="#404040">
                                <set attributeName="fill" to="#808080" begin="zoomplus.mouseover" end="zoomplus.mouseout"/>
                        </use>
                        <path d="M-4,0h8M0,-4v8" fill="none" stroke="white" stroke-width="1.5" pointer-events="none"/>
                </g>
                <g id="zoomMin">
                        <use xlink:href="#rim" fill="#404040">
                                <set attributeName="fill" to="#808080" begin="zoomminus.mouseover" end="zoomminus.mouseout"/>
                        </use>
                        <path d="M-4,0h8" fill="none" stroke="white" stroke-width="1.5" pointer-events="none"/>
                </g>
                <g id="dirArrow">
                        <path fill="none" stroke="white" stroke-width="1.5" d="M0,-3.0v7 M-2.5,-0.5L0,-3.0L2.5,-0.5"/>
                </g>
               <g id="resetDef">
                       <use xlink:href="#rim2" fill="#404040">
                               <set attributeName="fill" to="#808080" begin="reset.mouseover" end="reset.mouseout"/>
                       </use>
               </g>
        </defs>

<script type="text/javascript">
var viewWidth = 750;
var viewHeight = 351;
var sectionId = 'dynsection-1109';
</script>
<script xlink:href="svgpan.js"/>
<svg id="graph" class="graph">
<g id="viewport">
<title>js_host_resolve_imported_module</title>
<!-- Node330010 -->
<g id="node1" class="node">
<title>Node330010</title>
<polygon fill="#bfbfbf" stroke="#000000" points="0,-242 0,-272 128,-272 128,-242 0,-242"/>
<text text-anchor="start" x="8" y="-260" font-family="Helvetica,sans-Serif" font-size="10.00" fill="#000000">js_host_resolve_imported</text>
<text text-anchor="middle" x="64" y="-249" font-family="Helvetica,sans-Serif" font-size="10.00" fill="#000000">_module</text>
</g>
<!-- Node330011 -->
<g id="node2" class="node">
<title>Node330011</title>
<g id="a_node2"><a xlink:href="quickjs_8c.html#a412ab329319b697a75481a981199fa73" target="_top" xlink:title="js_default_module_normalize_name">
<polygon fill="none" stroke="#000000" points="164,-323.5 164,-342.5 336,-342.5 336,-323.5 164,-323.5"/>
<text text-anchor="middle" x="250" y="-330.5" font-family="Helvetica,sans-Serif" font-size="10.00" fill="#000000">js_default_module_normalize_name</text>
</a>
</g>
</g>
<!-- Node330010&#45;&gt;Node330011 -->
<g id="edge1" class="edge">
<title>Node330010&#45;&gt;Node330011</title>
<path fill="none" stroke="#191970" d="M86.0688,-272.1715C105.7167,-285.0325 135.6562,-303.0797 164,-314 170.7685,-316.6078 177.9815,-318.9015 185.242,-320.908"/>
<polygon fill="#191970" stroke="#191970" points="184.5766,-324.3511 195.1346,-323.4687 186.3308,-317.5744 184.5766,-324.3511"/>
</g>
<!-- Node330014 -->
<g id="node5" class="node">
<title>Node330014</title>
<g id="a_node5"><a xlink:href="quickjs_8c.html#a0a31a11db1d2054a132f4879d1f3c8cc" target="_top" xlink:title="js_find_loaded_module">
<polygon fill="none" stroke="#000000" points="192,-285.5 192,-304.5 308,-304.5 308,-285.5 192,-285.5"/>
<text text-anchor="middle" x="250" y="-292.5" font-family="Helvetica,sans-Serif" font-size="10.00" fill="#000000">js_find_loaded_module</text>
</a>
</g>
</g>
<!-- Node330010&#45;&gt;Node330014 -->
<g id="edge4" class="edge">
<title>Node330010&#45;&gt;Node330014</title>
<path fill="none" stroke="#191970" d="M128.0106,-270.0774C149.3231,-274.4316 172.8923,-279.2468 193.5863,-283.4746"/>
<polygon fill="#191970" stroke="#191970" points="192.9935,-286.9257 203.4917,-285.4983 194.3947,-280.0674 192.9935,-286.9257"/>
</g>
<!-- Node330015 -->
<g id="node6" class="node">
<title>Node330015</title>
<g id="a_node6"><a xlink:href="quickjs_8c.html#a80e54dcf9ac687d4ccc2f90273565f30" target="_top" xlink:title="js_free">
<polygon fill="none" stroke="#000000" points="395.5,-266.5 395.5,-285.5 441.5,-285.5 441.5,-266.5 395.5,-266.5"/>
<text text-anchor="middle" x="418.5" y="-273.5" font-family="Helvetica,sans-Serif" font-size="10.00" fill="#000000">js_free</text>
</a>
</g>
</g>
<!-- Node330010&#45;&gt;Node330015 -->
<g id="edge5" class="edge">
<title>Node330010&#45;&gt;Node330015</title>
<path fill="none" stroke="#191970" d="M128.1973,-260.4408C203.7068,-264.4878 326.1957,-271.0528 384.96,-274.2024"/>
<polygon fill="#191970" stroke="#191970" points="384.9923,-277.709 395.1653,-274.7493 385.367,-270.7191 384.9923,-277.709"/>
</g>
<!-- Node330017 -->
<g id="node8" class="node">
<title>Node330017</title>
<g id="a_node8"><a xlink:href="quickjs_8c.html#ab7fc45a99935a1c0ba50b0216d9401a9" target="_top" xlink:title="JS_FreeAtom">
<polygon fill="none" stroke="#000000" points="211.5,-209.5 211.5,-228.5 288.5,-228.5 288.5,-209.5 211.5,-209.5"/>
<text text-anchor="middle" x="250" y="-216.5" font-family="Helvetica,sans-Serif" font-size="10.00" fill="#000000">JS_FreeAtom</text>
</a>
</g>
</g>
<!-- Node330010&#45;&gt;Node330017 -->
<g id="edge7" class="edge">
<title>Node330010&#45;&gt;Node330017</title>
<path fill="none" stroke="#191970" d="M128.0106,-243.9226C152.0684,-239.0075 179.0018,-233.505 201.4292,-228.9231"/>
<polygon fill="#191970" stroke="#191970" points="202.2931,-232.319 211.3901,-226.888 200.8919,-225.4606 202.2931,-232.319"/>
</g>
<!-- Node330022 -->
<g id="node12" class="node">
<title>Node330022</title>
<g id="a_node12"><a xlink:href="quickjs_8c.html#aa2ef5af1544a3012f91a80c98c326b8f" target="_top" xlink:title="JS_NewAtom">
<polygon fill="none" stroke="#000000" points="211.5,-133.5 211.5,-152.5 288.5,-152.5 288.5,-133.5 211.5,-133.5"/>
<text text-anchor="middle" x="250" y="-140.5" font-family="Helvetica,sans-Serif" font-size="10.00" fill="#000000">JS_NewAtom</text>
</a>
</g>
</g>
<!-- Node330010&#45;&gt;Node330022 -->
<g id="edge12" class="edge">
<title>Node330010&#45;&gt;Node330022</title>
<path fill="none" stroke="#191970" d="M88.6994,-241.8617C124.4404,-219.9559 190.1766,-179.666 225.6953,-157.8964"/>
<polygon fill="#191970" stroke="#191970" points="227.7534,-160.7401 234.4505,-152.5304 224.0955,-154.7719 227.7534,-160.7401"/>
</g>
<!-- Node330012 -->
<g id="node3" class="node">
<title>Node330012</title>
<g id="a_node3"><a xlink:href="quickjs_8c.html#a23d33b08918485b2208e6af7ad22c5a6" target="_top" xlink:title="js_strdup">
<polygon fill="none" stroke="#000000" points="390.5,-323.5 390.5,-342.5 446.5,-342.5 446.5,-323.5 390.5,-323.5"/>
<text text-anchor="middle" x="418.5" y="-330.5" font-family="Helvetica,sans-Serif" font-size="10.00" fill="#000000">js_strdup</text>
</a>
</g>
</g>
<!-- Node330011&#45;&gt;Node330012 -->
<g id="edge2" class="edge">
<title>Node330011&#45;&gt;Node330012</title>
<path fill="none" stroke="#191970" d="M336.2244,-333C351.6859,-333 367.0587,-333 380.2583,-333"/>
<polygon fill="#191970" stroke="#191970" points="380.3384,-336.5001 390.3384,-333 380.3384,-329.5001 380.3384,-336.5001"/>
</g>
<!-- Node330013 -->
<g id="node4" class="node">
<title>Node330013</title>
<g id="a_node4"><a xlink:href="quickjs_8c.html#a3ac482a1947e8b15aabcd775444929b3" target="_top" xlink:title="js_strndup">
<polygon fill="none" stroke="#000000" points="521.5,-323.5 521.5,-342.5 583.5,-342.5 583.5,-323.5 521.5,-323.5"/>
<text text-anchor="middle" x="552.5" y="-330.5" font-family="Helvetica,sans-Serif" font-size="10.00" fill="#000000">js_strndup</text>
</a>
</g>
</g>
<!-- Node330012&#45;&gt;Node330013 -->
<g id="edge3" class="edge">
<title>Node330012&#45;&gt;Node330013</title>
<path fill="none" stroke="#191970" d="M446.5908,-333C465.2361,-333 490.0336,-333 510.9463,-333"/>
<polygon fill="#191970" stroke="#191970" points="511.1649,-336.5001 521.1649,-333 511.1649,-329.5001 511.1649,-336.5001"/>
</g>
<!-- Node330016 -->
<g id="node7" class="node">
<title>Node330016</title>
<g id="a_node7"><a xlink:href="quickjs_8c.html#a69e19dda8a93d613203e0baa06f0ed8d" target="_top" xlink:title="js_free_rt">
<polygon fill="none" stroke="#000000" points="662.5,-247.5 662.5,-266.5 719.5,-266.5 719.5,-247.5 662.5,-247.5"/>
<text text-anchor="middle" x="691" y="-254.5" font-family="Helvetica,sans-Serif" font-size="10.00" fill="#000000">js_free_rt</text>
</a>
</g>
</g>
<!-- Node330015&#45;&gt;Node330016 -->
<g id="edge6" class="edge">
<title>Node330015&#45;&gt;Node330016</title>
<path fill="none" stroke="#191970" d="M441.7332,-274.3801C488.5032,-271.119 594.4454,-263.7322 652.0081,-259.7187"/>
<polygon fill="#191970" stroke="#191970" points="652.4358,-263.1975 662.1681,-259.0103 651.9488,-256.2144 652.4358,-263.1975"/>
</g>
<!-- Node330018 -->
<g id="node9" class="node">
<title>Node330018</title>
<g id="a_node9"><a xlink:href="quickjs_8c.html#a7f6796ee7a195631366f57c713a33f65" target="_top" xlink:title="__JS_AtomIsConst">
<polygon fill="none" stroke="#000000" points="640,-114.5 640,-133.5 742,-133.5 742,-114.5 640,-114.5"/>
<text text-anchor="middle" x="691" y="-121.5" font-family="Helvetica,sans-Serif" font-size="10.00" fill="#000000">__JS_AtomIsConst</text>
</a>
</g>
</g>
<!-- Node330017&#45;&gt;Node330018 -->
<g id="edge8" class="edge">
<title>Node330017&#45;&gt;Node330018</title>
<path fill="none" stroke="#191970" d="M288.6069,-217.1423C367.9442,-212.9534 546.6719,-201.5031 604,-181 629.7721,-171.7827 655.5257,-153.4973 672.2473,-140.1136"/>
<polygon fill="#191970" stroke="#191970" points="674.6222,-142.692 680.1207,-133.6356 670.1747,-137.2865 674.6222,-142.692"/>
</g>
<!-- Node330019 -->
<g id="node10" class="node">
<title>Node330019</title>
<g id="a_node10"><a xlink:href="quickjs_8c.html#a0bbd9e3ecd55e3ea6c9d44bfda382095" target="_top" xlink:title="__JS_FreeAtom">
<polygon fill="none" stroke="#000000" points="375,-228.5 375,-247.5 462,-247.5 462,-228.5 375,-228.5"/>
<text text-anchor="middle" x="418.5" y="-235.5" font-family="Helvetica,sans-Serif" font-size="10.00" fill="#000000">__JS_FreeAtom</text>
</a>
</g>
</g>
<!-- Node330017&#45;&gt;Node330019 -->
<g id="edge9" class="edge">
<title>Node330017&#45;&gt;Node330019</title>
<path fill="none" stroke="#191970" d="M288.6573,-223.359C311.2873,-225.9107 340.1976,-229.1707 364.9914,-231.9664"/>
<polygon fill="#191970" stroke="#191970" points="364.6486,-235.4498 374.9778,-233.0925 365.433,-228.4939 364.6486,-235.4498"/>
</g>
<!-- Node330020 -->
<g id="node11" class="node">
<title>Node330020</title>
<g id="a_node11"><a xlink:href="quickjs_8c.html#a58c8965dad50b15b75918a09f3d9dc7c" target="_top" xlink:title="JS_FreeAtomStruct">
<polygon fill="none" stroke="#ff0000" points="501,-228.5 501,-247.5 604,-247.5 604,-228.5 501,-228.5"/>
<text text-anchor="middle" x="552.5" y="-235.5" font-family="Helvetica,sans-Serif" font-size="10.00" fill="#000000">JS_FreeAtomStruct</text>
</a>
</g>
</g>
<!-- Node330019&#45;&gt;Node330020 -->
<g id="edge10" class="edge">
<title>Node330019&#45;&gt;Node330020</title>
<path fill="none" stroke="#191970" d="M462.006,-238C471.1943,-238 481.0576,-238 490.7722,-238"/>
<polygon fill="#191970" stroke="#191970" points="490.8075,-241.5001 500.8074,-238 490.8074,-234.5001 490.8075,-241.5001"/>
</g>
<!-- Node330020&#45;&gt;Node330016 -->
<g id="edge11" class="edge">
<title>Node330020&#45;&gt;Node330016</title>
<path fill="none" stroke="#191970" d="M604.0723,-245.0749C620.0694,-247.2694 637.4153,-249.649 652.374,-251.7011"/>
<polygon fill="#191970" stroke="#191970" points="651.9198,-255.1715 662.3027,-253.0632 652.8712,-248.2365 651.9198,-255.1715"/>
</g>
<!-- Node330023 -->
<g id="node13" class="node">
<title>Node330023</title>
<g id="a_node13"><a xlink:href="quickjs_8c.html#a522741f41afb1d0da0aa55968cd8579e" target="_top" xlink:title="JS_NewAtomLen">
<polygon fill="none" stroke="#000000" points="372,-95.5 372,-114.5 465,-114.5 465,-95.5 372,-95.5"/>
<text text-anchor="middle" x="418.5" y="-102.5" font-family="Helvetica,sans-Serif" font-size="10.00" fill="#000000">JS_NewAtomLen</text>
</a>
</g>
</g>
<!-- Node330022&#45;&gt;Node330023 -->
<g id="edge13" class="edge">
<title>Node330022&#45;&gt;Node330023</title>
<path fill="none" stroke="#191970" d="M288.6573,-134.282C311.6289,-129.1015 341.0718,-122.4615 366.1113,-116.8147"/>
<polygon fill="#191970" stroke="#191970" points="367.1967,-120.1579 376.1817,-114.5436 365.6567,-113.3294 367.1967,-120.1579"/>
</g>
<!-- Node330024 -->
<g id="node14" class="node">
<title>Node330024</title>
<g id="a_node14"><a xlink:href="quickjs_8c.html#ac8c91ebeea0cf07e3079c49a16de739f" target="_top" xlink:title="__JS_FindAtom">
<polygon fill="none" stroke="#ff0000" points="509.5,-.5 509.5,-19.5 595.5,-19.5 595.5,-.5 509.5,-.5"/>
<text text-anchor="middle" x="552.5" y="-7.5" font-family="Helvetica,sans-Serif" font-size="10.00" fill="#000000">__JS_FindAtom</text>
</a>
</g>
</g>
<!-- Node330023&#45;&gt;Node330024 -->
<g id="edge14" class="edge">
<title>Node330023&#45;&gt;Node330024</title>
<path fill="none" stroke="#191970" d="M426.7007,-95.2997C440.5502,-79.4555 470.0997,-47.8995 501,-29 504.1961,-27.0452 507.625,-25.2427 511.14,-23.5918"/>
<polygon fill="#191970" stroke="#191970" points="512.7223,-26.722 520.5441,-19.5756 509.973,-20.2844 512.7223,-26.722"/>
</g>
<!-- Node330026 -->
<g id="node15" class="node">
<title>Node330026</title>
<g id="a_node15"><a xlink:href="quickjs_8c.html#ab3ca6381d29dea396b12acd7f755c51a" target="_top" xlink:title="is_digit">
<polygon fill="none" stroke="#000000" points="529,-152.5 529,-171.5 576,-171.5 576,-152.5 529,-152.5"/>
<text text-anchor="middle" x="552.5" y="-159.5" font-family="Helvetica,sans-Serif" font-size="10.00" fill="#000000">is_digit</text>
</a>
</g>
</g>
<!-- Node330023&#45;&gt;Node330026 -->
<g id="edge16" class="edge">
<title>Node330023&#45;&gt;Node330026</title>
<path fill="none" stroke="#191970" d="M438.3121,-114.6555C454.9048,-122.6136 479.2909,-134.0119 501,-143 506.894,-145.4403 513.2267,-147.9034 519.3658,-150.2106"/>
<polygon fill="#191970" stroke="#191970" points="518.1693,-153.4998 528.7626,-153.6822 520.5952,-146.9335 518.1693,-153.4998"/>
</g>
<!-- Node330027 -->
<g id="node16" class="node">
<title>Node330027</title>
<g id="a_node16"><a xlink:href="quickjs_8h.html#ad80a83d73e9b7d872b88fbf2943aebe9" target="_top" xlink:title="JS_IsException">
<polygon fill="none" stroke="#000000" points="509.5,-114.5 509.5,-133.5 595.5,-133.5 595.5,-114.5 509.5,-114.5"/>
<text text-anchor="middle" x="552.5" y="-121.5" font-family="Helvetica,sans-Serif" font-size="10.00" fill="#000000">JS_IsException</text>
</a>
</g>
</g>
<!-- Node330023&#45;&gt;Node330027 -->
<g id="edge17" class="edge">
<title>Node330023&#45;&gt;Node330027</title>
<path fill="none" stroke="#191970" d="M465.3667,-111.6453C476.3455,-113.202 488.1195,-114.8714 499.3505,-116.4639"/>
<polygon fill="#191970" stroke="#191970" points="499.0813,-119.9606 509.4736,-117.8992 500.0641,-113.03 499.0813,-119.9606"/>
</g>
<!-- Node330028 -->
<g id="node17" class="node">
<title>Node330028</title>
<g id="a_node17"><a xlink:href="quickjs_8c.html#a33fd643aff7f70e649d246385cd99b00" target="_top" xlink:title="JS_NewAtomStr">
<polygon fill="none" stroke="#ff0000" points="507.5,-76.5 507.5,-95.5 597.5,-95.5 597.5,-76.5 507.5,-76.5"/>
<text text-anchor="middle" x="552.5" y="-83.5" font-family="Helvetica,sans-Serif" font-size="10.00" fill="#000000">JS_NewAtomStr</text>
</a>
</g>
</g>
<!-- Node330023&#45;&gt;Node330028 -->
<g id="edge18" class="edge">
<title>Node330023&#45;&gt;Node330028</title>
<path fill="none" stroke="#191970" d="M465.3667,-98.3547C475.6616,-96.895 486.6556,-95.3362 497.2455,-93.8346"/>
<polygon fill="#191970" stroke="#191970" points="497.8292,-97.2869 507.2388,-92.4176 496.8465,-90.3562 497.8292,-97.2869"/>
</g>
<!-- Node330043 -->
<g id="node18" class="node">
<title>Node330043</title>
<g id="a_node18"><a xlink:href="quickjs_8c.html#ac34cc554aab1e98c45a7f845fff64385" target="_top" xlink:title="JS_NewStringLen">
<polygon fill="none" stroke="#ff0000" points="505,-38.5 505,-57.5 600,-57.5 600,-38.5 505,-38.5"/>
<text text-anchor="middle" x="552.5" y="-45.5" font-family="Helvetica,sans-Serif" font-size="10.00" fill="#000000">JS_NewStringLen</text>
</a>
</g>
</g>
<!-- Node330023&#45;&gt;Node330043 -->
<g id="edge19" class="edge">
<title>Node330023&#45;&gt;Node330043</title>
<path fill="none" stroke="#191970" d="M438.3121,-95.3445C454.9048,-87.3864 479.2909,-75.9881 501,-67 505.7754,-65.0228 510.8389,-63.0307 515.854,-61.1186"/>
<polygon fill="#191970" stroke="#191970" points="517.2111,-64.3478 525.3503,-57.5652 514.7579,-57.7918 517.2111,-64.3478"/>
</g>
<!-- Node330024&#45;&gt;Node330018 -->
<g id="edge15" class="edge">
<title>Node330024&#45;&gt;Node330018</title>
<path fill="none" stroke="#191970" d="M585.5128,-19.5162C591.92,-22.0864 598.3828,-25.2277 604,-29 635.3752,-50.0704 663.2389,-84.7203 678.5549,-105.8396"/>
<polygon fill="#191970" stroke="#191970" points="675.8662,-108.0991 684.5008,-114.2387 681.5795,-104.0546 675.8662,-108.0991"/>
</g>
</g>
</svg>
        <g id="navigator" transform="translate(0 0)" fill="#404254">
                <rect fill="#f2f5e9" fill-opacity="0.5" stroke="#606060" stroke-width=".5" x="0" y="0" width="60" height="60"/>
                <use id="zoomplus" xlink:href="#zoomPlus" x="17" y="9" onmousedown="handleZoom(evt,'in')"/>
                <use id="zoomminus" xlink:href="#zoomMin" x="42" y="9" onmousedown="handleZoom(evt,'out')"/>
                <use id="reset" xlink:href="#resetDef" x="30" y="36" onmousedown="handleReset()"/>
                <g id="arrowUp" xlink:href="#dirArrow" transform="translate(30 24)" onmousedown="handlePan(0,-1)">
                  <use xlink:href="#rim" fill="#404040">
                        <set attributeName="fill" to="#808080" begin="arrowUp.mouseover" end="arrowUp.mouseout"/>
                  </use>
                  <path fill="none" stroke="white" stroke-width="1.5" d="M0,-3.0v7 M-2.5,-0.5L0,-3.0L2.5,-0.5"/>
                </g>
                <g id="arrowRight" xlink:href="#dirArrow" transform="rotate(90) translate(36 -43)" onmousedown="handlePan(1,0)">
                  <use xlink:href="#rim" fill="#404040">
                        <set attributeName="fill" to="#808080" begin="arrowRight.mouseover" end="arrowRight.mouseout"/>
                  </use>
                  <path fill="none" stroke="white" stroke-width="1.5" d="M0,-3.0v7 M-2.5,-0.5L0,-3.0L2.5,-0.5"/>
                </g>
                <g id="arrowDown" xlink:href="#dirArrow" transform="rotate(180) translate(-30 -48)" onmousedown="handlePan(0,1)">
                  <use xlink:href="#rim" fill="#404040">
                        <set attributeName="fill" to="#808080" begin="arrowDown.mouseover" end="arrowDown.mouseout"/>
                  </use>
                  <path fill="none" stroke="white" stroke-width="1.5" d="M0,-3.0v7 M-2.5,-0.5L0,-3.0L2.5,-0.5"/>
                </g>
                <g id="arrowLeft" xlink:href="#dirArrow" transform="rotate(270) translate(-36 17)" onmousedown="handlePan(-1,0)">
                  <use xlink:href="#rim" fill="#404040">
                        <set attributeName="fill" to="#808080" begin="arrowLeft.mouseover" end="arrowLeft.mouseout"/>
                  </use>
                  <path fill="none" stroke="white" stroke-width="1.5" d="M0,-3.0v7 M-2.5,-0.5L0,-3.0L2.5,-0.5"/>
                </g>
        </g>
        <svg viewBox="0 0 15 15" width="100%" height="30px" preserveAspectRatio="xMaxYMin meet">
         <g id="arrow_out" transform="scale(0.3 0.3)">
          <a xlink:href="quickjs_8c_a90dd988b99a5bc7b2a4aaffd2de405a9_cgraph_org.svg" target="_base">
           <rect id="button" ry="5" rx="5" y="6" x="6" height="38" width="38"
                fill="#f2f5e9" fill-opacity="0.5" stroke="#606060" stroke-width="1.0"/>
           <path id="arrow"
             d="M 11.500037,31.436501 C 11.940474,20.09759 22.043105,11.32322 32.158766,21.979434 L 37.068811,17.246167 C 37.068811,17.246167 37.088388,32 37.088388,32 L 22.160133,31.978069 C 22.160133,31.978069 26.997745,27.140456 26.997745,27.140456 C 18.528582,18.264221 13.291696,25.230495 11.500037,31.436501 z"
             style="fill:#404040;"/>
          </a>
         </g>
        </svg>
</svg>
