<?xml version="1.0" encoding="UTF-8" standalone="no"?>
<!DOCTYPE svg PUBLIC "-//W3C//DTD SVG 1.1//EN"
 "http://www.w3.org/Graphics/SVG/1.1/DTD/svg11.dtd">
<!-- Generated by graphviz version 2.40.1 (20161225.0304)
 -->
<!-- Title: JS_SetPropertyFunctionList Pages: 1 -->
<!--zoomable 521 -->
<svg id="main" version="1.1" xmlns="http://www.w3.org/2000/svg" xmlns:xlink="http://www.w3.org/1999/xlink" xml:space="preserve" onload="init(evt)">
<style type="text/css"><![CDATA[
.edge:hover path { stroke: red; }
.edge:hover polygon { stroke: red; fill: red; }
]]></style>
<script type="text/javascript"><![CDATA[
var edges = document.getElementsByTagName('g');
if (edges && edges.length) {
  for (var i=0;i<edges.length;i++) {
    if (edges[i].id.substr(0,4)=='edge') {
      edges[i].setAttribute('class','edge');
    }
  }
}
]]></script>
        <defs>
                <circle id="rim" cx="0" cy="0" r="7"/>
                <circle id="rim2" cx="0" cy="0" r="3.5"/>
                <g id="zoomPlus">
                        <use xlink:href="#rim" fill="#404040">
                                <set attributeName="fill" to="#808080" begin="zoomplus.mouseover" end="zoomplus.mouseout"/>
                        </use>
                        <path d="M-4,0h8M0,-4v8" fill="none" stroke="white" stroke-width="1.5" pointer-events="none"/>
                </g>
                <g id="zoomMin">
                        <use xlink:href="#rim" fill="#404040">
                                <set attributeName="fill" to="#808080" begin="zoomminus.mouseover" end="zoomminus.mouseout"/>
                        </use>
                        <path d="M-4,0h8" fill="none" stroke="white" stroke-width="1.5" pointer-events="none"/>
                </g>
                <g id="dirArrow">
                        <path fill="none" stroke="white" stroke-width="1.5" d="M0,-3.0v7 M-2.5,-0.5L0,-3.0L2.5,-0.5"/>
                </g>
               <g id="resetDef">
                       <use xlink:href="#rim2" fill="#404040">
                               <set attributeName="fill" to="#808080" begin="reset.mouseover" end="reset.mouseout"/>
                       </use>
               </g>
        </defs>

<script type="text/javascript">
var viewWidth = 724;
var viewHeight = 521;
var sectionId = 'dynsection-1372';
</script>
<script xlink:href="svgpan.js"/>
<svg id="graph" class="graph">
<g id="viewport">
<title>JS_SetPropertyFunctionList</title>
<!-- Node367088 -->
<g id="node1" class="node">
<title>Node367088</title>
<polygon fill="#bfbfbf" stroke="#000000" points="0,-246.5309 0,-265.5309 139,-265.5309 139,-246.5309 0,-246.5309"/>
<text text-anchor="middle" x="69.5" y="-253.5309" font-family="Helvetica,sans-Serif" font-size="10.00" fill="#000000">JS_SetPropertyFunctionList</text>
</g>
<!-- Node367089 -->
<g id="node2" class="node">
<title>Node367089</title>
<g id="a_node2"><a xlink:href="quickjs_8c.html#ae022a327d9fa7079ad2f1d179ba5bdf0" target="_top" xlink:title="JS_AddIntrinsicAtomics">
<polygon fill="none" stroke="#000000" points="191.5,-493.5309 191.5,-512.5309 313.5,-512.5309 313.5,-493.5309 191.5,-493.5309"/>
<text text-anchor="middle" x="252.5" y="-500.5309" font-family="Helvetica,sans-Serif" font-size="10.00" fill="#000000">JS_AddIntrinsicAtomics</text>
</a>
</g>
</g>
<!-- Node367088&#45;&gt;Node367089 -->
<g id="edge1" class="edge">
<title>Node367088&#45;&gt;Node367089</title>
<path fill="none" stroke="#191970" d="M73.2,-275.5609C82.4064,-318.7578 110.4197,-423.0028 175,-479.0309 182.3411,-485.3999 191.3551,-490.0791 200.6068,-493.5168"/>
<polygon fill="#191970" stroke="#191970" points="76.6265,-274.8465 71.2116,-265.74 69.7657,-276.2357 76.6265,-274.8465"/>
</g>
<!-- Node367090 -->
<g id="node3" class="node">
<title>Node367090</title>
<g id="a_node3"><a xlink:href="quickjs_8c.html#a177d09828596bfe6df4bd90b2e93989d" target="_top" xlink:title="JS_AddIntrinsicTypedArrays">
<polygon fill="none" stroke="#000000" points="366.5,-455.5309 366.5,-474.5309 507.5,-474.5309 507.5,-455.5309 366.5,-455.5309"/>
<text text-anchor="middle" x="437" y="-462.5309" font-family="Helvetica,sans-Serif" font-size="10.00" fill="#000000">JS_AddIntrinsicTypedArrays</text>
</a>
</g>
</g>
<!-- Node367088&#45;&gt;Node367090 -->
<g id="edge23" class="edge">
<title>Node367088&#45;&gt;Node367090</title>
<path fill="none" stroke="#191970" d="M74.514,-275.5296C85.4879,-313.8338 115.5402,-398.518 175,-437.0309 231.6323,-473.7124 309.9819,-477.4195 366.2226,-473.9727"/>
<polygon fill="#191970" stroke="#191970" points="77.8219,-274.3564 71.812,-265.6311 71.069,-276.1998 77.8219,-274.3564"/>
</g>
<!-- Node367095 -->
<g id="node5" class="node">
<title>Node367095</title>
<g id="a_node5"><a xlink:href="quickjs_8c.html#a4c9489297c684663f30e517204a9ec14" target="_top" xlink:title="JS_AddIntrinsicBaseObjects">
<polygon fill="none" stroke="#000000" points="366,-417.5309 366,-436.5309 508,-436.5309 508,-417.5309 366,-417.5309"/>
<text text-anchor="middle" x="437" y="-424.5309" font-family="Helvetica,sans-Serif" font-size="10.00" fill="#000000">JS_AddIntrinsicBaseObjects</text>
</a>
</g>
</g>
<!-- Node367088&#45;&gt;Node367095 -->
<g id="edge4" class="edge">
<title>Node367088&#45;&gt;Node367095</title>
<path fill="none" stroke="#191970" d="M76.4553,-275.3726C89.7217,-309.0836 122.1227,-377.88 175,-408.0309 237.3977,-443.6104 322.1874,-442.6022 378.1982,-436.559"/>
<polygon fill="#191970" stroke="#191970" points="79.629,-273.8698 72.8187,-265.7538 73.0814,-276.3454 79.629,-273.8698"/>
</g>
<!-- Node367096 -->
<g id="node6" class="node">
<title>Node367096</title>
<g id="a_node6"><a xlink:href="quickjs_8c.html#a7efb53c2f76fd5cc0e584449437ec09c" target="_top" xlink:title="JS_AddIntrinsicBasicObjects">
<polygon fill="none" stroke="#000000" points="180.5,-379.5309 180.5,-398.5309 324.5,-398.5309 324.5,-379.5309 180.5,-379.5309"/>
<text text-anchor="middle" x="252.5" y="-386.5309" font-family="Helvetica,sans-Serif" font-size="10.00" fill="#000000">JS_AddIntrinsicBasicObjects</text>
</a>
</g>
</g>
<!-- Node367088&#45;&gt;Node367096 -->
<g id="edge6" class="edge">
<title>Node367088&#45;&gt;Node367096</title>
<path fill="none" stroke="#191970" d="M82.2591,-274.0145C100.2709,-298.124 135.4065,-340.7008 175,-365.0309 185.0805,-371.2254 196.8898,-375.9387 208.208,-379.4759"/>
<polygon fill="#191970" stroke="#191970" points="84.948,-271.7621 76.2207,-265.755 79.2971,-275.8934 84.948,-271.7621"/>
</g>
<!-- Node367098 -->
<g id="node8" class="node">
<title>Node367098</title>
<g id="a_node8"><a xlink:href="quickjs_8c.html#a8ecbf5799518b7bfc3fefd47c7a0dd4e" target="_top" xlink:title="JS_AddIntrinsicDate">
<polygon fill="none" stroke="#000000" points="383.5,-341.5309 383.5,-360.5309 490.5,-360.5309 490.5,-341.5309 383.5,-341.5309"/>
<text text-anchor="middle" x="437" y="-348.5309" font-family="Helvetica,sans-Serif" font-size="10.00" fill="#000000">JS_AddIntrinsicDate</text>
</a>
</g>
</g>
<!-- Node367088&#45;&gt;Node367098 -->
<g id="edge9" class="edge">
<title>Node367088&#45;&gt;Node367098</title>
<path fill="none" stroke="#191970" d="M96.2157,-270.0674C117.1429,-280.5325 147.2598,-294.4453 175,-303.0309 245.4603,-324.8384 329.8256,-338.1047 383.4171,-345.0076"/>
<polygon fill="#191970" stroke="#191970" points="97.7896,-266.9412 87.2887,-265.5332 94.6196,-273.1823 97.7896,-266.9412"/>
</g>
<!-- Node367099 -->
<g id="node9" class="node">
<title>Node367099</title>
<g id="a_node9"><a xlink:href="quickjs_8c.html#ac43d15fc0b5d1b90ae3c92779ab12725" target="_top" xlink:title="JS_AddIntrinsicJSON">
<polygon fill="none" stroke="#000000" points="380.5,-303.5309 380.5,-322.5309 493.5,-322.5309 493.5,-303.5309 380.5,-303.5309"/>
<text text-anchor="middle" x="437" y="-310.5309" font-family="Helvetica,sans-Serif" font-size="10.00" fill="#000000">JS_AddIntrinsicJSON</text>
</a>
</g>
</g>
<!-- Node367088&#45;&gt;Node367099 -->
<g id="edge11" class="edge">
<title>Node367088&#45;&gt;Node367099</title>
<path fill="none" stroke="#191970" d="M119.4292,-267.8338C136.9388,-271.7287 156.781,-275.8688 175,-279.0309 245.3864,-291.2473 327.1058,-301.1839 380.3148,-307.0928"/>
<polygon fill="#191970" stroke="#191970" points="119.9441,-264.3622 109.4192,-265.5782 118.4052,-271.1909 119.9441,-264.3622"/>
</g>
<!-- Node367100 -->
<g id="node10" class="node">
<title>Node367100</title>
<g id="a_node10"><a xlink:href="quickjs_8c.html#a4497f8c7cf2ec38da989910ae8b1f042" target="_top" xlink:title="JS_AddIntrinsicMapSet">
<polygon fill="none" stroke="#000000" points="377.5,-265.5309 377.5,-284.5309 496.5,-284.5309 496.5,-265.5309 377.5,-265.5309"/>
<text text-anchor="middle" x="437" y="-272.5309" font-family="Helvetica,sans-Serif" font-size="10.00" fill="#000000">JS_AddIntrinsicMapSet</text>
</a>
</g>
</g>
<!-- Node367088&#45;&gt;Node367100 -->
<g id="edge13" class="edge">
<title>Node367088&#45;&gt;Node367100</title>
<path fill="none" stroke="#191970" d="M149.3905,-260.1613C218.0302,-263.71 315.46,-268.7472 377.4449,-271.9519"/>
<polygon fill="#191970" stroke="#191970" points="149.2234,-256.6481 139.056,-259.627 148.8619,-263.6387 149.2234,-256.6481"/>
</g>
<!-- Node367101 -->
<g id="node11" class="node">
<title>Node367101</title>
<g id="a_node11"><a xlink:href="quickjs_8c.html#a2e66fcf1bc1d19f346317f10ee590621" target="_top" xlink:title="JS_AddIntrinsicPromise">
<polygon fill="none" stroke="#000000" points="191.5,-227.5309 191.5,-246.5309 313.5,-246.5309 313.5,-227.5309 191.5,-227.5309"/>
<text text-anchor="middle" x="252.5" y="-234.5309" font-family="Helvetica,sans-Serif" font-size="10.00" fill="#000000">JS_AddIntrinsicPromise</text>
</a>
</g>
</g>
<!-- Node367088&#45;&gt;Node367101 -->
<g id="edge15" class="edge">
<title>Node367088&#45;&gt;Node367101</title>
<path fill="none" stroke="#191970" d="M149.3727,-247.7381C163.4517,-246.2764 177.9039,-244.7759 191.3669,-243.3781"/>
<polygon fill="#191970" stroke="#191970" points="148.7916,-244.2795 139.2065,-248.7936 149.5145,-251.2421 148.7916,-244.2795"/>
</g>
<!-- Node367102 -->
<g id="node12" class="node">
<title>Node367102</title>
<g id="a_node12"><a xlink:href="quickjs_8c.html#a3afdbdd7b58ef7e1dcc178c362071b3d" target="_top" xlink:title="JS_AddIntrinsicProxy">
<polygon fill="none" stroke="#000000" points="197,-189.5309 197,-208.5309 308,-208.5309 308,-189.5309 197,-189.5309"/>
<text text-anchor="middle" x="252.5" y="-196.5309" font-family="Helvetica,sans-Serif" font-size="10.00" fill="#000000">JS_AddIntrinsicProxy</text>
</a>
</g>
</g>
<!-- Node367088&#45;&gt;Node367102 -->
<g id="edge17" class="edge">
<title>Node367088&#45;&gt;Node367102</title>
<path fill="none" stroke="#191970" d="M103.5165,-242.7477C124.0405,-234.9923 150.8146,-225.3291 175,-218.0309 186.2732,-214.6291 198.6043,-211.3916 210.0479,-208.5844"/>
<polygon fill="#191970" stroke="#191970" points="102.0789,-239.55 93.9819,-246.3829 104.5727,-246.0907 102.0789,-239.55"/>
</g>
<!-- Node367103 -->
<g id="node13" class="node">
<title>Node367103</title>
<g id="a_node13"><a xlink:href="quickjs_8c.html#aafc8241682ce24b6d72e0f237ee85a51" target="_top" xlink:title="JS_AddIntrinsicRegExp">
<polygon fill="none" stroke="#000000" points="192,-151.5309 192,-170.5309 313,-170.5309 313,-151.5309 192,-151.5309"/>
<text text-anchor="middle" x="252.5" y="-158.5309" font-family="Helvetica,sans-Serif" font-size="10.00" fill="#000000">JS_AddIntrinsicRegExp</text>
</a>
</g>
</g>
<!-- Node367088&#45;&gt;Node367103 -->
<g id="edge19" class="edge">
<title>Node367088&#45;&gt;Node367103</title>
<path fill="none" stroke="#191970" d="M87.6963,-239.5308C107.6973,-222.2478 141.4626,-195.5072 175,-180.0309 183.3019,-176.1999 192.4743,-173.0814 201.5166,-170.5626"/>
<polygon fill="#191970" stroke="#191970" points="85.2016,-237.0639 80.0079,-246.2984 89.8268,-242.3183 85.2016,-237.0639"/>
</g>
<!-- Node367104 -->
<g id="node14" class="node">
<title>Node367104</title>
<g id="a_node14"><a xlink:href="quickjs_8c.html#abd9525850b564b2c2d2cb6ddfd89b1c6" target="_top" xlink:title="JS_AddIntrinsicStringNormalize">
<polygon fill="none" stroke="#000000" points="175,-113.5309 175,-132.5309 330,-132.5309 330,-113.5309 175,-113.5309"/>
<text text-anchor="middle" x="252.5" y="-120.5309" font-family="Helvetica,sans-Serif" font-size="10.00" fill="#000000">JS_AddIntrinsicStringNormalize</text>
</a>
</g>
</g>
<!-- Node367088&#45;&gt;Node367104 -->
<g id="edge21" class="edge">
<title>Node367088&#45;&gt;Node367104</title>
<path fill="none" stroke="#191970" d="M81.0989,-237.9497C98.3939,-212.5103 133.4041,-166.5292 175,-142.0309 181.5653,-138.1642 188.8868,-135.082 196.3365,-132.6257"/>
<polygon fill="#191970" stroke="#191970" points="78.161,-236.047 75.5492,-246.3149 83.9941,-239.9169 78.161,-236.047"/>
</g>
<!-- Node367105 -->
<g id="node15" class="node">
<title>Node367105</title>
<g id="a_node15"><a xlink:href="quickjs-libc_8c.html#a066e7962ce24f22d5df20968a8baa346" target="_top" xlink:title="js_os_init">
<polygon fill="none" stroke="#000000" points="408,-56.5309 408,-75.5309 466,-75.5309 466,-56.5309 408,-56.5309"/>
<text text-anchor="middle" x="437" y="-63.5309" font-family="Helvetica,sans-Serif" font-size="10.00" fill="#000000">js_os_init</text>
</a>
</g>
</g>
<!-- Node367088&#45;&gt;Node367105 -->
<g id="edge24" class="edge">
<title>Node367088&#45;&gt;Node367105</title>
<path fill="none" stroke="#191970" d="M76.6808,-237.0687C90.3004,-203.9521 123.2364,-136.0562 175,-104.0309 213.5,-80.2116 347.8968,-70.5489 407.8004,-67.3602"/>
<polygon fill="#191970" stroke="#191970" points="73.37,-235.9232 72.9383,-246.5093 79.8773,-238.503 73.37,-235.9232"/>
</g>
<!-- Node367107 -->
<g id="node18" class="node">
<title>Node367107</title>
<g id="a_node18"><a xlink:href="quickjs_8c.html#a04f1ec3f8d1f5c012280eb23e64a7b58" target="_top" xlink:title="JS_SetModuleExportList">
<polygon fill="none" stroke="#000000" points="190,-37.5309 190,-56.5309 315,-56.5309 315,-37.5309 190,-37.5309"/>
<text text-anchor="middle" x="252.5" y="-44.5309" font-family="Helvetica,sans-Serif" font-size="10.00" fill="#000000">JS_SetModuleExportList</text>
</a>
</g>
</g>
<!-- Node367088&#45;&gt;Node367107 -->
<g id="edge27" class="edge">
<title>Node367088&#45;&gt;Node367107</title>
<path fill="none" stroke="#191970" d="M75.2498,-236.5552C87.3645,-198.9052 119.1039,-115.9017 175,-71.0309 182.9085,-64.6824 192.4988,-60.0064 202.1993,-56.5645"/>
<polygon fill="#191970" stroke="#191970" points="71.8474,-235.7108 72.2316,-246.2986 78.5339,-237.7821 71.8474,-235.7108"/>
</g>
<!-- Node367108 -->
<g id="node19" class="node">
<title>Node367108</title>
<g id="a_node19"><a xlink:href="quickjs-libc_8c.html#a08cea1a0226b7603e6969e2208d99d55" target="_top" xlink:title="js_std_init">
<polygon fill="none" stroke="#000000" points="406.5,-18.5309 406.5,-37.5309 467.5,-37.5309 467.5,-18.5309 406.5,-18.5309"/>
<text text-anchor="middle" x="437" y="-25.5309" font-family="Helvetica,sans-Serif" font-size="10.00" fill="#000000">js_std_init</text>
</a>
</g>
</g>
<!-- Node367088&#45;&gt;Node367108 -->
<g id="edge32" class="edge">
<title>Node367088&#45;&gt;Node367108</title>
<path fill="none" stroke="#191970" d="M71.7032,-236.1348C78.0201,-189.8811 100.8045,-75.4527 175,-28.0309 247.4371,18.267 355.7218,-3.7968 407.4404,-18.5171"/>
<polygon fill="#191970" stroke="#191970" points="68.1946,-235.9869 70.4307,-246.343 75.1408,-236.8528 68.1946,-235.9869"/>
</g>
<!-- Node367089&#45;&gt;Node367090 -->
<g id="edge2" class="edge">
<title>Node367089&#45;&gt;Node367090</title>
<path fill="none" stroke="#191970" d="M308.8672,-491.4214C335.1074,-486.0169 365.936,-479.6674 390.7776,-474.551"/>
<polygon fill="#191970" stroke="#191970" points="308.1455,-487.9965 299.0571,-493.4419 309.5576,-494.8526 308.1455,-487.9965"/>
</g>
<!-- Node367091 -->
<g id="node4" class="node">
<title>Node367091</title>
<g id="a_node4"><a xlink:href="quickjs_8c.html#ad8aedb643b8753b7a15f6cb2df61945e" target="_top" xlink:title="JS_NewContext">
<polygon fill="none" stroke="#ff0000" points="548.5,-284.5309 548.5,-303.5309 637.5,-303.5309 637.5,-284.5309 548.5,-284.5309"/>
<text text-anchor="middle" x="593" y="-291.5309" font-family="Helvetica,sans-Serif" font-size="10.00" fill="#000000">JS_NewContext</text>
</a>
</g>
</g>
<!-- Node367090&#45;&gt;Node367091 -->
<g id="edge3" class="edge">
<title>Node367090&#45;&gt;Node367091</title>
<path fill="none" stroke="#191970" d="M500.6377,-450.9361C503.2172,-449.4603 505.6868,-447.8306 508,-446.0309 557.8738,-407.2281 582.9672,-330.4721 590.5001,-303.5962"/>
<polygon fill="#191970" stroke="#191970" points="498.9684,-447.856 491.5127,-455.3836 502.0353,-454.1484 498.9684,-447.856"/>
</g>
<!-- Node367095&#45;&gt;Node367091 -->
<g id="edge5" class="edge">
<title>Node367095&#45;&gt;Node367091</title>
<path fill="none" stroke="#191970" d="M498.6555,-413.4073C501.9183,-411.8095 505.0593,-410.0247 508,-408.0309 549.0724,-380.1847 578.0483,-325.7881 588.603,-303.6999"/>
<polygon fill="#191970" stroke="#191970" points="497.0316,-410.2946 489.2025,-417.4329 499.7743,-416.7349 497.0316,-410.2946"/>
</g>
<!-- Node367097 -->
<g id="node7" class="node">
<title>Node367097</title>
<g id="a_node7"><a xlink:href="quickjs_8c.html#a442ff496ba00319ad39eb0a129b9eb8b" target="_top" xlink:title="JS_NewContextRaw">
<polygon fill="none" stroke="#000000" points="382.5,-379.5309 382.5,-398.5309 491.5,-398.5309 491.5,-379.5309 382.5,-379.5309"/>
<text text-anchor="middle" x="437" y="-386.5309" font-family="Helvetica,sans-Serif" font-size="10.00" fill="#000000">JS_NewContextRaw</text>
</a>
</g>
</g>
<!-- Node367096&#45;&gt;Node367097 -->
<g id="edge7" class="edge">
<title>Node367096&#45;&gt;Node367097</title>
<path fill="none" stroke="#191970" d="M335.0746,-389.0309C351.0935,-389.0309 367.5059,-389.0309 382.3509,-389.0309"/>
<polygon fill="#191970" stroke="#191970" points="334.6252,-385.531 324.6252,-389.0309 334.6252,-392.531 334.6252,-385.531"/>
</g>
<!-- Node367097&#45;&gt;Node367091 -->
<g id="edge8" class="edge">
<title>Node367097&#45;&gt;Node367091</title>
<path fill="none" stroke="#191970" d="M494.7107,-376.0936C499.3132,-374.3124 503.801,-372.3004 508,-370.0309 540.5652,-352.4296 570.9094,-319.9903 584.901,-303.7821"/>
<polygon fill="#191970" stroke="#191970" points="493.4421,-372.8293 485.158,-379.4342 495.7529,-379.4369 493.4421,-372.8293"/>
</g>
<!-- Node367098&#45;&gt;Node367091 -->
<g id="edge10" class="edge">
<title>Node367098&#45;&gt;Node367091</title>
<path fill="none" stroke="#191970" d="M486.8201,-338.7771C493.9838,-336.7036 501.2205,-334.4362 508,-332.0309 531.1558,-323.8153 556.7799,-311.9592 573.7779,-303.6821"/>
<polygon fill="#191970" stroke="#191970" points="485.836,-335.4179 477.1462,-341.4792 487.7192,-342.1599 485.836,-335.4179"/>
</g>
<!-- Node367099&#45;&gt;Node367091 -->
<g id="edge12" class="edge">
<title>Node367099&#45;&gt;Node367091</title>
<path fill="none" stroke="#191970" d="M503.9991,-304.8708C518.9549,-303.0492 534.4612,-301.1606 548.2591,-299.4801"/>
<polygon fill="#191970" stroke="#191970" points="503.2643,-301.4343 493.7609,-306.1177 504.1107,-308.383 503.2643,-301.4343"/>
</g>
<!-- Node367100&#45;&gt;Node367091 -->
<g id="edge14" class="edge">
<title>Node367100&#45;&gt;Node367091</title>
<path fill="none" stroke="#191970" d="M506.9494,-283.5504C520.9154,-285.2514 535.2294,-286.9947 548.0746,-288.5592"/>
<polygon fill="#191970" stroke="#191970" points="507.2174,-280.0572 496.8675,-282.3225 506.371,-287.0059 507.2174,-280.0572"/>
</g>
<!-- Node367101&#45;&gt;Node367091 -->
<g id="edge16" class="edge">
<title>Node367101&#45;&gt;Node367091</title>
<path fill="none" stroke="#191970" d="M323.6805,-235.7892C375.5267,-236.4536 447.0498,-240.6419 508,-256.0309 532.9195,-262.3227 559.6737,-275.4577 576.3707,-284.5082"/>
<polygon fill="#191970" stroke="#191970" points="323.6127,-232.2885 313.5825,-235.701 323.5516,-239.2883 323.6127,-232.2885"/>
</g>
<!-- Node367102&#45;&gt;Node367091 -->
<g id="edge18" class="edge">
<title>Node367102&#45;&gt;Node367091</title>
<path fill="none" stroke="#191970" d="M318.301,-199.0726C371.2487,-201.1352 446.6728,-208.7219 508,-233.0309 538.3941,-245.0786 568.0692,-270.3417 583.01,-284.2798"/>
<polygon fill="#191970" stroke="#191970" points="318.1329,-195.5652 308.0219,-198.7305 317.8999,-202.5613 318.1329,-195.5652"/>
</g>
<!-- Node367103&#45;&gt;Node367091 -->
<g id="edge20" class="edge">
<title>Node367103&#45;&gt;Node367091</title>
<path fill="none" stroke="#191970" d="M323.3162,-158.4674C377.0102,-159.4513 451.0304,-167.2804 508,-198.0309 546.591,-218.8612 576.1232,-264.4815 587.6859,-284.4032"/>
<polygon fill="#191970" stroke="#191970" points="323.2351,-154.9664 313.1979,-158.3582 323.1595,-161.966 323.2351,-154.9664"/>
</g>
<!-- Node367104&#45;&gt;Node367091 -->
<g id="edge22" class="edge">
<title>Node367104&#45;&gt;Node367091</title>
<path fill="none" stroke="#191970" d="M340.5402,-116.2096C393.0195,-116.3383 458.7801,-124.2324 508,-156.0309 556.9245,-187.6385 582.304,-258.3584 590.2271,-284.2729"/>
<polygon fill="#191970" stroke="#191970" points="340.2052,-112.7118 330.2302,-116.2826 340.2548,-119.7116 340.2052,-112.7118"/>
</g>
<!-- Node367106 -->
<g id="node16" class="node">
<title>Node367106</title>
<g id="a_node16"><a xlink:href="quickjs-libc_8c.html#adcca2b4a661355e6ff87a0def2339894" target="_top" xlink:title="js_init_module_os">
<polygon fill="none" stroke="#000000" points="545.5,-56.5309 545.5,-75.5309 640.5,-75.5309 640.5,-56.5309 545.5,-56.5309"/>
<text text-anchor="middle" x="593" y="-63.5309" font-family="Helvetica,sans-Serif" font-size="10.00" fill="#000000">js_init_module_os</text>
</a>
</g>
</g>
<!-- Node367105&#45;&gt;Node367106 -->
<g id="edge25" class="edge">
<title>Node367105&#45;&gt;Node367106</title>
<path fill="none" stroke="#191970" d="M476.4946,-66.0309C497.444,-66.0309 523.3401,-66.0309 545.3937,-66.0309"/>
<polygon fill="#191970" stroke="#191970" points="476.3424,-62.531 466.3424,-66.0309 476.3424,-69.531 476.3424,-62.531"/>
</g>
<!-- Node367094 -->
<g id="node17" class="node">
<title>Node367094</title>
<g id="a_node17"><a xlink:href="qjs_8cpp.html#a3c04138a5bfe5d72780bb7e82a18e627" target="_top" xlink:title="main">
<polygon fill="none" stroke="#000000" points="678,-37.5309 678,-56.5309 716,-56.5309 716,-37.5309 678,-37.5309"/>
<text text-anchor="middle" x="697" y="-44.5309" font-family="Helvetica,sans-Serif" font-size="10.00" fill="#000000">main</text>
</a>
</g>
</g>
<!-- Node367106&#45;&gt;Node367094 -->
<g id="edge26" class="edge">
<title>Node367106&#45;&gt;Node367094</title>
<path fill="none" stroke="#191970" d="M650.6062,-55.5067C660.4365,-53.7108 669.9964,-51.9643 677.8585,-50.5279"/>
<polygon fill="#191970" stroke="#191970" points="649.9468,-52.0692 640.7386,-57.3094 651.2049,-58.9552 649.9468,-52.0692"/>
</g>
<!-- Node367107&#45;&gt;Node367105 -->
<g id="edge31" class="edge">
<title>Node367107&#45;&gt;Node367105</title>
<path fill="none" stroke="#191970" d="M325.2869,-54.5266C354.1143,-57.4953 385.5983,-60.7375 407.7734,-63.0211"/>
<polygon fill="#191970" stroke="#191970" points="325.5267,-51.0328 315.2207,-53.49 324.8096,-57.996 325.5267,-51.0328"/>
</g>
<!-- Node367107&#45;&gt;Node367108 -->
<g id="edge28" class="edge">
<title>Node367107&#45;&gt;Node367108</title>
<path fill="none" stroke="#191970" d="M325.4531,-39.5181C353.5905,-36.6205 384.2351,-33.4647 406.2722,-31.1953"/>
<polygon fill="#191970" stroke="#191970" points="324.8096,-36.0658 315.2207,-40.5719 325.5267,-43.029 324.8096,-36.0658"/>
</g>
<!-- Node367109 -->
<g id="node20" class="node">
<title>Node367109</title>
<g id="a_node20"><a xlink:href="quickjs-libc_8c.html#a0e65c67dfff872a664f8d29e7eae5a61" target="_top" xlink:title="js_init_module_std">
<polygon fill="none" stroke="#000000" points="544,-18.5309 544,-37.5309 642,-37.5309 642,-18.5309 544,-18.5309"/>
<text text-anchor="middle" x="593" y="-25.5309" font-family="Helvetica,sans-Serif" font-size="10.00" fill="#000000">js_init_module_std</text>
</a>
</g>
</g>
<!-- Node367108&#45;&gt;Node367109 -->
<g id="edge29" class="edge">
<title>Node367108&#45;&gt;Node367109</title>
<path fill="none" stroke="#191970" d="M477.9426,-28.0309C498.1278,-28.0309 522.6265,-28.0309 543.8213,-28.0309"/>
<polygon fill="#191970" stroke="#191970" points="477.8206,-24.531 467.8206,-28.0309 477.8205,-31.531 477.8206,-24.531"/>
</g>
<!-- Node367109&#45;&gt;Node367094 -->
<g id="edge30" class="edge">
<title>Node367109&#45;&gt;Node367094</title>
<path fill="none" stroke="#191970" d="M652.2897,-38.8627C661.4732,-40.5404 670.3472,-42.1616 677.7353,-43.5114"/>
<polygon fill="#191970" stroke="#191970" points="652.7252,-35.3844 642.2589,-37.0301 651.4671,-42.2704 652.7252,-35.3844"/>
</g>
</g>
</svg>
        <g id="navigator" transform="translate(0 0)" fill="#404254">
                <rect fill="#f2f5e9" fill-opacity="0.5" stroke="#606060" stroke-width=".5" x="0" y="0" width="60" height="60"/>
                <use id="zoomplus" xlink:href="#zoomPlus" x="17" y="9" onmousedown="handleZoom(evt,'in')"/>
                <use id="zoomminus" xlink:href="#zoomMin" x="42" y="9" onmousedown="handleZoom(evt,'out')"/>
                <use id="reset" xlink:href="#resetDef" x="30" y="36" onmousedown="handleReset()"/>
                <g id="arrowUp" xlink:href="#dirArrow" transform="translate(30 24)" onmousedown="handlePan(0,-1)">
                  <use xlink:href="#rim" fill="#404040">
                        <set attributeName="fill" to="#808080" begin="arrowUp.mouseover" end="arrowUp.mouseout"/>
                  </use>
                  <path fill="none" stroke="white" stroke-width="1.5" d="M0,-3.0v7 M-2.5,-0.5L0,-3.0L2.5,-0.5"/>
                </g>
                <g id="arrowRight" xlink:href="#dirArrow" transform="rotate(90) translate(36 -43)" onmousedown="handlePan(1,0)">
                  <use xlink:href="#rim" fill="#404040">
                        <set attributeName="fill" to="#808080" begin="arrowRight.mouseover" end="arrowRight.mouseout"/>
                  </use>
                  <path fill="none" stroke="white" stroke-width="1.5" d="M0,-3.0v7 M-2.5,-0.5L0,-3.0L2.5,-0.5"/>
                </g>
                <g id="arrowDown" xlink:href="#dirArrow" transform="rotate(180) translate(-30 -48)" onmousedown="handlePan(0,1)">
                  <use xlink:href="#rim" fill="#404040">
                        <set attributeName="fill" to="#808080" begin="arrowDown.mouseover" end="arrowDown.mouseout"/>
                  </use>
                  <path fill="none" stroke="white" stroke-width="1.5" d="M0,-3.0v7 M-2.5,-0.5L0,-3.0L2.5,-0.5"/>
                </g>
                <g id="arrowLeft" xlink:href="#dirArrow" transform="rotate(270) translate(-36 17)" onmousedown="handlePan(-1,0)">
                  <use xlink:href="#rim" fill="#404040">
                        <set attributeName="fill" to="#808080" begin="arrowLeft.mouseover" end="arrowLeft.mouseout"/>
                  </use>
                  <path fill="none" stroke="white" stroke-width="1.5" d="M0,-3.0v7 M-2.5,-0.5L0,-3.0L2.5,-0.5"/>
                </g>
        </g>
        <svg viewBox="0 0 15 15" width="100%" height="30px" preserveAspectRatio="xMaxYMin meet">
         <g id="arrow_out" transform="scale(0.3 0.3)">
          <a xlink:href="quickjs_8c_ac00854b7f1f0f8567af964a2f8f2adb0_icgraph_org.svg" target="_base">
           <rect id="button" ry="5" rx="5" y="6" x="6" height="38" width="38"
                fill="#f2f5e9" fill-opacity="0.5" stroke="#606060" stroke-width="1.0"/>
           <path id="arrow"
             d="M 11.500037,31.436501 C 11.940474,20.09759 22.043105,11.32322 32.158766,21.979434 L 37.068811,17.246167 C 37.068811,17.246167 37.088388,32 37.088388,32 L 22.160133,31.978069 C 22.160133,31.978069 26.997745,27.140456 26.997745,27.140456 C 18.528582,18.264221 13.291696,25.230495 11.500037,31.436501 z"
             style="fill:#404040;"/>
          </a>
         </g>
        </svg>
</svg>
