<?xml version="1.0" encoding="UTF-8" standalone="no"?>
<!DOCTYPE svg PUBLIC "-//W3C//DTD SVG 1.1//EN"
 "http://www.w3.org/Graphics/SVG/1.1/DTD/svg11.dtd">
<!-- Generated by graphviz version 2.40.1 (20161225.0304)
 -->
<!-- Title: JS_IsRegisteredClass Pages: 1 -->
<!--zoomable 176 -->
<svg id="main" version="1.1" xmlns="http://www.w3.org/2000/svg" xmlns:xlink="http://www.w3.org/1999/xlink" xml:space="preserve" onload="init(evt)">
<style type="text/css"><![CDATA[
.edge:hover path { stroke: red; }
.edge:hover polygon { stroke: red; fill: red; }
]]></style>
<script type="text/javascript"><![CDATA[
var edges = document.getElementsByTagName('g');
if (edges && edges.length) {
  for (var i=0;i<edges.length;i++) {
    if (edges[i].id.substr(0,4)=='edge') {
      edges[i].setAttribute('class','edge');
    }
  }
}
]]></script>
        <defs>
                <circle id="rim" cx="0" cy="0" r="7"/>
                <circle id="rim2" cx="0" cy="0" r="3.5"/>
                <g id="zoomPlus">
                        <use xlink:href="#rim" fill="#404040">
                                <set attributeName="fill" to="#808080" begin="zoomplus.mouseover" end="zoomplus.mouseout"/>
                        </use>
                        <path d="M-4,0h8M0,-4v8" fill="none" stroke="white" stroke-width="1.5" pointer-events="none"/>
                </g>
                <g id="zoomMin">
                        <use xlink:href="#rim" fill="#404040">
                                <set attributeName="fill" to="#808080" begin="zoomminus.mouseover" end="zoomminus.mouseout"/>
                        </use>
                        <path d="M-4,0h8" fill="none" stroke="white" stroke-width="1.5" pointer-events="none"/>
                </g>
                <g id="dirArrow">
                        <path fill="none" stroke="white" stroke-width="1.5" d="M0,-3.0v7 M-2.5,-0.5L0,-3.0L2.5,-0.5"/>
                </g>
               <g id="resetDef">
                       <use xlink:href="#rim2" fill="#404040">
                               <set attributeName="fill" to="#808080" begin="reset.mouseover" end="reset.mouseout"/>
                       </use>
               </g>
        </defs>

<script type="text/javascript">
var viewWidth = 602;
var viewHeight = 176;
var sectionId = 'dynsection-290';
</script>
<script xlink:href="svgpan.js"/>
<svg id="graph" class="graph">
<g id="viewport">
<title>JS_IsRegisteredClass</title>
<!-- Node97522 -->
<g id="node1" class="node">
<title>Node97522</title>
<polygon fill="#bfbfbf" stroke="#000000" points="0,-85 0,-104 115,-104 115,-85 0,-85"/>
<text text-anchor="middle" x="57.5" y="-92" font-family="Helvetica,sans-Serif" font-size="10.00" fill="#000000">JS_IsRegisteredClass</text>
</g>
<!-- Node97523 -->
<g id="node2" class="node">
<title>Node97523</title>
<g id="a_node2"><a xlink:href="quickjs_8c.html#a2e66fcf1bc1d19f346317f10ee590621" target="_top" xlink:title="JS_AddIntrinsicPromise">
<polygon fill="none" stroke="#000000" points="156.5,-148 156.5,-167 278.5,-167 278.5,-148 156.5,-148"/>
<text text-anchor="middle" x="217.5" y="-155" font-family="Helvetica,sans-Serif" font-size="10.00" fill="#000000">JS_AddIntrinsicPromise</text>
</a>
</g>
</g>
<!-- Node97522&#45;&gt;Node97523 -->
<g id="edge1" class="edge">
<title>Node97522&#45;&gt;Node97523</title>
<path fill="none" stroke="#191970" d="M84.7142,-108.7375C103.1051,-118.0004 128.1154,-129.9104 151,-138.5 160.3303,-142.0021 170.6009,-145.2305 180.2211,-147.9946"/>
<polygon fill="#191970" stroke="#191970" points="86.2455,-105.5896 75.7467,-104.1665 83.0665,-111.8261 86.2455,-105.5896"/>
</g>
<!-- Node97528 -->
<g id="node5" class="node">
<title>Node97528</title>
<g id="a_node5"><a xlink:href="quickjs_8c.html#a3afdbdd7b58ef7e1dcc178c362071b3d" target="_top" xlink:title="JS_AddIntrinsicProxy">
<polygon fill="none" stroke="#000000" points="162,-110 162,-129 273,-129 273,-110 162,-110"/>
<text text-anchor="middle" x="217.5" y="-117" font-family="Helvetica,sans-Serif" font-size="10.00" fill="#000000">JS_AddIntrinsicProxy</text>
</a>
</g>
</g>
<!-- Node97522&#45;&gt;Node97528 -->
<g id="edge4" class="edge">
<title>Node97522&#45;&gt;Node97528</title>
<path fill="none" stroke="#191970" d="M125.3916,-105.1081C137.5867,-107.0135 150.1662,-108.9791 161.9608,-110.822"/>
<polygon fill="#191970" stroke="#191970" points="125.6841,-101.6114 115.2637,-103.5256 124.6034,-108.5275 125.6841,-101.6114"/>
</g>
<!-- Node97529 -->
<g id="node6" class="node">
<title>Node97529</title>
<g id="a_node6"><a xlink:href="structqjs_1_1js__traits_3_01std_1_1shared__ptr_3_01T_01_4_01_4.html#af3558afeef079826c58411353c8ccce0" target="_top" xlink:title="Register class in QuickJS context. ">
<polygon fill="none" stroke="#000000" points="167,-50 167,-91 268,-91 268,-50 167,-50"/>
<text text-anchor="start" x="175" y="-79" font-family="Helvetica,sans-Serif" font-size="10.00" fill="#000000">qjs::js_traits&lt; std</text>
<text text-anchor="start" x="175" y="-68" font-family="Helvetica,sans-Serif" font-size="10.00" fill="#000000">::shared_ptr&lt; T &gt; &gt;</text>
<text text-anchor="middle" x="217.5" y="-57" font-family="Helvetica,sans-Serif" font-size="10.00" fill="#000000">::register_class</text>
</a>
</g>
</g>
<!-- Node97522&#45;&gt;Node97529 -->
<g id="edge6" class="edge">
<title>Node97522&#45;&gt;Node97529</title>
<path fill="none" stroke="#191970" d="M125.3162,-84.3276C139.2793,-82.2331 153.7495,-80.0626 166.9711,-78.0793"/>
<polygon fill="#191970" stroke="#191970" points="124.6338,-80.8907 115.2637,-85.8354 125.6723,-87.8132 124.6338,-80.8907"/>
</g>
<!-- Node97531 -->
<g id="node8" class="node">
<title>Node97531</title>
<g id="a_node8"><a xlink:href="structqjs_1_1js__traits_3_01detail_1_1function_01_4.html#afe383c63f389edaf9f878cd30062d37f" target="_top" xlink:title="qjs::js_traits\&lt; detail\l::function \&gt;::register_class">
<polygon fill="none" stroke="#000000" points="151,-.5 151,-30.5 284,-30.5 284,-.5 151,-.5"/>
<text text-anchor="start" x="159" y="-18.5" font-family="Helvetica,sans-Serif" font-size="10.00" fill="#000000">qjs::js_traits&lt; detail</text>
<text text-anchor="middle" x="217.5" y="-7.5" font-family="Helvetica,sans-Serif" font-size="10.00" fill="#000000">::function &gt;::register_class</text>
</a>
</g>
</g>
<!-- Node97522&#45;&gt;Node97531 -->
<g id="edge8" class="edge">
<title>Node97522&#45;&gt;Node97531</title>
<path fill="none" stroke="#191970" d="M80.9673,-79.5023C99.5363,-67.9929 126.3547,-52.1528 151,-40.5 158.3593,-37.0204 166.344,-33.6733 174.1426,-30.6216"/>
<polygon fill="#191970" stroke="#191970" points="78.9289,-76.6491 72.3123,-84.9239 82.645,-82.5814 78.9289,-76.6491"/>
</g>
<!-- Node97524 -->
<g id="node3" class="node">
<title>Node97524</title>
<g id="a_node3"><a xlink:href="quickjs_8c.html#ad8aedb643b8753b7a15f6cb2df61945e" target="_top" xlink:title="JS_NewContext">
<polygon fill="none" stroke="#000000" points="339.5,-110 339.5,-129 428.5,-129 428.5,-110 339.5,-110"/>
<text text-anchor="middle" x="384" y="-117" font-family="Helvetica,sans-Serif" font-size="10.00" fill="#000000">JS_NewContext</text>
</a>
</g>
</g>
<!-- Node97523&#45;&gt;Node97524 -->
<g id="edge2" class="edge">
<title>Node97523&#45;&gt;Node97524</title>
<path fill="none" stroke="#191970" d="M269.309,-145.6757C292.7825,-140.3184 320.1654,-134.0689 342.2871,-129.0201"/>
<polygon fill="#191970" stroke="#191970" points="268.4855,-142.2736 259.515,-147.911 270.0431,-149.0981 268.4855,-142.2736"/>
</g>
<!-- Node97525 -->
<g id="node4" class="node">
<title>Node97525</title>
<g id="a_node4"><a xlink:href="classqjs_1_1Context.html#a4392a23648acfc4bf6b445336efb5007" target="_top" xlink:title="qjs::Context::Context">
<polygon fill="none" stroke="#ff0000" points="484,-58 484,-77 594,-77 594,-58 484,-58"/>
<text text-anchor="middle" x="539" y="-65" font-family="Helvetica,sans-Serif" font-size="10.00" fill="#000000">qjs::Context::Context</text>
</a>
</g>
</g>
<!-- Node97524&#45;&gt;Node97525 -->
<g id="edge3" class="edge">
<title>Node97524&#45;&gt;Node97525</title>
<path fill="none" stroke="#191970" d="M422.0563,-106.7327C449.3842,-97.5647 485.6335,-85.4036 510.4888,-77.065"/>
<polygon fill="#191970" stroke="#191970" points="420.7969,-103.4635 412.4294,-109.9624 423.0233,-110.1 420.7969,-103.4635"/>
</g>
<!-- Node97528&#45;&gt;Node97524 -->
<g id="edge5" class="edge">
<title>Node97528&#45;&gt;Node97524</title>
<path fill="none" stroke="#191970" d="M283.6319,-119.5C302.3079,-119.5 322.1851,-119.5 339.281,-119.5"/>
<polygon fill="#191970" stroke="#191970" points="283.4053,-116.0001 273.4053,-119.5 283.4052,-123.0001 283.4053,-116.0001"/>
</g>
<!-- Node97530 -->
<g id="node7" class="node">
<title>Node97530</title>
<g id="a_node7"><a xlink:href="structqjs_1_1js__traits_3_01std_1_1shared__ptr_3_01T_01_4_01_4.html#a046f811ae16e0cb24170a8425f3e8780" target="_top" xlink:title="Create a JSValue from std::shared_ptr&lt;T&gt;. ">
<polygon fill="none" stroke="#000000" points="320,-55.5 320,-85.5 448,-85.5 448,-55.5 320,-55.5"/>
<text text-anchor="start" x="328" y="-73.5" font-family="Helvetica,sans-Serif" font-size="10.00" fill="#000000">qjs::js_traits&lt; std</text>
<text text-anchor="middle" x="384" y="-62.5" font-family="Helvetica,sans-Serif" font-size="10.00" fill="#000000">::shared_ptr&lt; T &gt; &gt;::wrap</text>
</a>
</g>
</g>
<!-- Node97529&#45;&gt;Node97530 -->
<g id="edge7" class="edge">
<title>Node97529&#45;&gt;Node97530</title>
<path fill="none" stroke="#191970" d="M278.4831,-70.5C291.969,-70.5 306.2964,-70.5 319.9021,-70.5"/>
<polygon fill="#191970" stroke="#191970" points="278.3602,-67.0001 268.3602,-70.5 278.3602,-74.0001 278.3602,-67.0001"/>
</g>
<!-- Node97532 -->
<g id="node9" class="node">
<title>Node97532</title>
<g id="a_node9"><a xlink:href="classqjs_1_1Context.html#aae629cc551168d549a405db5c762b61e" target="_top" xlink:title="qjs::Context::init">
<polygon fill="none" stroke="#000000" points="339.5,-12 339.5,-31 428.5,-31 428.5,-12 339.5,-12"/>
<text text-anchor="middle" x="384" y="-19" font-family="Helvetica,sans-Serif" font-size="10.00" fill="#000000">qjs::Context::init</text>
</a>
</g>
</g>
<!-- Node97531&#45;&gt;Node97532 -->
<g id="edge9" class="edge">
<title>Node97531&#45;&gt;Node97532</title>
<path fill="none" stroke="#191970" d="M294.2985,-18.2675C309.669,-18.8214 325.3347,-19.3859 339.1826,-19.885"/>
<polygon fill="#191970" stroke="#191970" points="294.3821,-14.7684 284.2626,-17.9059 294.13,-21.7638 294.3821,-14.7684"/>
</g>
<!-- Node97532&#45;&gt;Node97525 -->
<g id="edge10" class="edge">
<title>Node97532&#45;&gt;Node97525</title>
<path fill="none" stroke="#191970" d="M425.8866,-33.9309C451.3829,-41.4975 483.4506,-51.0144 506.925,-57.981"/>
<polygon fill="#191970" stroke="#191970" points="426.6986,-30.521 416.1161,-31.0312 424.707,-37.2318 426.6986,-30.521"/>
</g>
</g>
</svg>
        <g id="navigator" transform="translate(0 0)" fill="#404254">
                <rect fill="#f2f5e9" fill-opacity="0.5" stroke="#606060" stroke-width=".5" x="0" y="0" width="60" height="60"/>
                <use id="zoomplus" xlink:href="#zoomPlus" x="17" y="9" onmousedown="handleZoom(evt,'in')"/>
                <use id="zoomminus" xlink:href="#zoomMin" x="42" y="9" onmousedown="handleZoom(evt,'out')"/>
                <use id="reset" xlink:href="#resetDef" x="30" y="36" onmousedown="handleReset()"/>
                <g id="arrowUp" xlink:href="#dirArrow" transform="translate(30 24)" onmousedown="handlePan(0,-1)">
                  <use xlink:href="#rim" fill="#404040">
                        <set attributeName="fill" to="#808080" begin="arrowUp.mouseover" end="arrowUp.mouseout"/>
                  </use>
                  <path fill="none" stroke="white" stroke-width="1.5" d="M0,-3.0v7 M-2.5,-0.5L0,-3.0L2.5,-0.5"/>
                </g>
                <g id="arrowRight" xlink:href="#dirArrow" transform="rotate(90) translate(36 -43)" onmousedown="handlePan(1,0)">
                  <use xlink:href="#rim" fill="#404040">
                        <set attributeName="fill" to="#808080" begin="arrowRight.mouseover" end="arrowRight.mouseout"/>
                  </use>
                  <path fill="none" stroke="white" stroke-width="1.5" d="M0,-3.0v7 M-2.5,-0.5L0,-3.0L2.5,-0.5"/>
                </g>
                <g id="arrowDown" xlink:href="#dirArrow" transform="rotate(180) translate(-30 -48)" onmousedown="handlePan(0,1)">
                  <use xlink:href="#rim" fill="#404040">
                        <set attributeName="fill" to="#808080" begin="arrowDown.mouseover" end="arrowDown.mouseout"/>
                  </use>
                  <path fill="none" stroke="white" stroke-width="1.5" d="M0,-3.0v7 M-2.5,-0.5L0,-3.0L2.5,-0.5"/>
                </g>
                <g id="arrowLeft" xlink:href="#dirArrow" transform="rotate(270) translate(-36 17)" onmousedown="handlePan(-1,0)">
                  <use xlink:href="#rim" fill="#404040">
                        <set attributeName="fill" to="#808080" begin="arrowLeft.mouseover" end="arrowLeft.mouseout"/>
                  </use>
                  <path fill="none" stroke="white" stroke-width="1.5" d="M0,-3.0v7 M-2.5,-0.5L0,-3.0L2.5,-0.5"/>
                </g>
        </g>
        <svg viewBox="0 0 15 15" width="100%" height="30px" preserveAspectRatio="xMaxYMin meet">
         <g id="arrow_out" transform="scale(0.3 0.3)">
          <a xlink:href="quickjs_8c_a3f0ebc39396c0cd909ec04585f92b1b9_icgraph_org.svg" target="_base">
           <rect id="button" ry="5" rx="5" y="6" x="6" height="38" width="38"
                fill="#f2f5e9" fill-opacity="0.5" stroke="#606060" stroke-width="1.0"/>
           <path id="arrow"
             d="M 11.500037,31.436501 C 11.940474,20.09759 22.043105,11.32322 32.158766,21.979434 L 37.068811,17.246167 C 37.068811,17.246167 37.088388,32 37.088388,32 L 22.160133,31.978069 C 22.160133,31.978069 26.997745,27.140456 26.997745,27.140456 C 18.528582,18.264221 13.291696,25.230495 11.500037,31.436501 z"
             style="fill:#404040;"/>
          </a>
         </g>
        </svg>
</svg>
