<?xml version="1.0" encoding="UTF-8" standalone="no"?>
<!DOCTYPE svg PUBLIC "-//W3C//DTD SVG 1.1//EN"
 "http://www.w3.org/Graphics/SVG/1.1/DTD/svg11.dtd">
<!-- Generated by graphviz version 2.40.1 (20161225.0304)
 -->
<!-- Title: find_own_property1 Pages: 1 -->
<svg width="231pt" height="66pt"
 viewBox="0.00 0.00 231.00 66.00" xmlns="http://www.w3.org/2000/svg" xmlns:xlink="http://www.w3.org/1999/xlink">
<g id="graph0" class="graph" transform="scale(1 1) rotate(0) translate(4 62)">
<title>find_own_property1</title>
<!-- Node147253 -->
<g id="node1" class="node">
<title>Node147253</title>
<polygon fill="#bfbfbf" stroke="#000000" points="0,-19.5 0,-38.5 101,-38.5 101,-19.5 0,-19.5"/>
<text text-anchor="middle" x="50.5" y="-26.5" font-family="Helvetica,sans-Serif" font-size="10.00" fill="#000000">find_own_property1</text>
</g>
<!-- Node147254 -->
<g id="node2" class="node">
<title>Node147254</title>
<g id="a_node2"><a xlink:href="quickjs_8c.html#a643df594b75933007bcdbb071b5ea8c5" target="_top" xlink:title="get_shape_prop">
<polygon fill="none" stroke="#000000" points="137,-38.5 137,-57.5 223,-57.5 223,-38.5 137,-38.5"/>
<text text-anchor="middle" x="180" y="-45.5" font-family="Helvetica,sans-Serif" font-size="10.00" fill="#000000">get_shape_prop</text>
</a>
</g>
</g>
<!-- Node147253&#45;&gt;Node147254 -->
<g id="edge1" class="edge">
<title>Node147253&#45;&gt;Node147254</title>
<path fill="none" stroke="#191970" d="M101.3101,-36.4548C109.6727,-37.6817 118.3609,-38.9564 126.7804,-40.1917"/>
<polygon fill="#191970" stroke="#191970" points="126.4748,-43.6843 136.877,-41.6731 127.491,-36.7584 126.4748,-43.6843"/>
</g>
<!-- Node147255 -->
<g id="node3" class="node">
<title>Node147255</title>
<g id="a_node3"><a xlink:href="quickjs_8c.html#acab22c2945c4d609e57a2484feb68a96" target="_top" xlink:title="prop_hash_end">
<polygon fill="none" stroke="#000000" points="138.5,-.5 138.5,-19.5 221.5,-19.5 221.5,-.5 138.5,-.5"/>
<text text-anchor="middle" x="180" y="-7.5" font-family="Helvetica,sans-Serif" font-size="10.00" fill="#000000">prop_hash_end</text>
</a>
</g>
</g>
<!-- Node147253&#45;&gt;Node147255 -->
<g id="edge2" class="edge">
<title>Node147253&#45;&gt;Node147255</title>
<path fill="none" stroke="#191970" d="M101.3101,-21.5452C110.0702,-20.26 119.1876,-18.9223 127.979,-17.6324"/>
<polygon fill="#191970" stroke="#191970" points="128.7228,-21.0609 138.1088,-16.1462 127.7066,-14.135 128.7228,-21.0609"/>
</g>
</g>
</svg>
