<?xml version="1.0" encoding="UTF-8" standalone="no"?>
<!DOCTYPE svg PUBLIC "-//W3C//DTD SVG 1.1//EN"
 "http://www.w3.org/Graphics/SVG/1.1/DTD/svg11.dtd">
<!-- Generated by graphviz version 2.40.1 (20161225.0304)
 -->
<!-- Title: JS_NewContextRaw Pages: 1 -->
<svg width="534pt" height="28pt"
 viewBox="0.00 0.00 534.00 28.00" xmlns="http://www.w3.org/2000/svg" xmlns:xlink="http://www.w3.org/1999/xlink">
<g id="graph0" class="graph" transform="scale(1 1) rotate(0) translate(4 24)">
<title>JS_NewContextRaw</title>
<!-- Node5748 -->
<g id="node1" class="node">
<title>Node5748</title>
<polygon fill="#bfbfbf" stroke="#000000" points="0,-.5 0,-19.5 109,-19.5 109,-.5 0,-.5"/>
<text text-anchor="middle" x="54.5" y="-7.5" font-family="Helvetica,sans-Serif" font-size="10.00" fill="#000000">JS_NewContextRaw</text>
</g>
<!-- Node5749 -->
<g id="node2" class="node">
<title>Node5749</title>
<g id="a_node2"><a xlink:href="quickjs_8c.html#ad8aedb643b8753b7a15f6cb2df61945e" target="_top" xlink:title="JS_NewContext">
<polygon fill="none" stroke="#000000" points="145,-.5 145,-19.5 234,-19.5 234,-.5 145,-.5"/>
<text text-anchor="middle" x="189.5" y="-7.5" font-family="Helvetica,sans-Serif" font-size="10.00" fill="#000000">JS_NewContext</text>
</a>
</g>
</g>
<!-- Node5748&#45;&gt;Node5749 -->
<g id="edge1" class="edge">
<title>Node5748&#45;&gt;Node5749</title>
<path fill="none" stroke="#191970" d="M119.1206,-10C127.7784,-10 136.4993,-10 144.7125,-10"/>
<polygon fill="#191970" stroke="#191970" points="119.0206,-6.5001 109.0205,-10 119.0205,-13.5001 119.0206,-6.5001"/>
</g>
<!-- Node5750 -->
<g id="node3" class="node">
<title>Node5750</title>
<g id="a_node3"><a xlink:href="classqjs_1_1Context.html#a4392a23648acfc4bf6b445336efb5007" target="_top" xlink:title="qjs::Context::Context">
<polygon fill="none" stroke="#000000" points="270,-.5 270,-19.5 380,-19.5 380,-.5 270,-.5"/>
<text text-anchor="middle" x="325" y="-7.5" font-family="Helvetica,sans-Serif" font-size="10.00" fill="#000000">qjs::Context::Context</text>
</a>
</g>
</g>
<!-- Node5749&#45;&gt;Node5750 -->
<g id="edge2" class="edge">
<title>Node5749&#45;&gt;Node5750</title>
<path fill="none" stroke="#191970" d="M244.3476,-10C252.7739,-10 261.4767,-10 269.9083,-10"/>
<polygon fill="#191970" stroke="#191970" points="244.2433,-6.5001 234.2433,-10 244.2433,-13.5001 244.2433,-6.5001"/>
</g>
<!-- Node5751 -->
<g id="node4" class="node">
<title>Node5751</title>
<g id="a_node4"><a xlink:href="classqjs_1_1Context.html#af725fb8083d8c33a37198d6acaf1a836" target="_top" xlink:title="qjs::Context::Context">
<polygon fill="none" stroke="#ff0000" points="416,-.5 416,-19.5 526,-19.5 526,-.5 416,-.5"/>
<text text-anchor="middle" x="471" y="-7.5" font-family="Helvetica,sans-Serif" font-size="10.00" fill="#000000">qjs::Context::Context</text>
</a>
</g>
</g>
<!-- Node5750&#45;&gt;Node5751 -->
<g id="edge3" class="edge">
<title>Node5750&#45;&gt;Node5751</title>
<path fill="none" stroke="#191970" d="M390.4101,-10C398.8647,-10 407.4567,-10 415.7256,-10"/>
<polygon fill="#191970" stroke="#191970" points="390.1964,-6.5001 380.1963,-10 390.1963,-13.5001 390.1964,-6.5001"/>
</g>
</g>
</svg>
