<?xml version="1.0" encoding="UTF-8" standalone="no"?>
<!DOCTYPE svg PUBLIC "-//W3C//DTD SVG 1.1//EN"
 "http://www.w3.org/Graphics/SVG/1.1/DTD/svg11.dtd">
<!-- Generated by graphviz version 2.40.1 (20161225.0304)
 -->
<!-- Title: JS_DefineAutoInitProperty Pages: 1 -->
<svg width="852pt" height="541pt"
 viewBox="0.00 0.00 852.00 541.13" xmlns="http://www.w3.org/2000/svg" xmlns:xlink="http://www.w3.org/1999/xlink">
<g id="graph0" class="graph" transform="scale(1 1) rotate(0) translate(4 537.1301)">
<title>JS_DefineAutoInitProperty</title>
<!-- Node205455 -->
<g id="node1" class="node">
<title>Node205455</title>
<polygon fill="#bfbfbf" stroke="#000000" points="0,-342.5 0,-361.5 133,-361.5 133,-342.5 0,-342.5"/>
<text text-anchor="middle" x="66.5" y="-349.5" font-family="Helvetica,sans-Serif" font-size="10.00" fill="#000000">JS_DefineAutoInitProperty</text>
</g>
<!-- Node205456 -->
<g id="node2" class="node">
<title>Node205456</title>
<g id="a_node2"><a xlink:href="quickjs_8c.html#a74547db03bf739a52c83a326b32db997" target="_top" xlink:title="add_property">
<polygon fill="none" stroke="#000000" points="175.5,-342.5 175.5,-361.5 248.5,-361.5 248.5,-342.5 175.5,-342.5"/>
<text text-anchor="middle" x="212" y="-349.5" font-family="Helvetica,sans-Serif" font-size="10.00" fill="#000000">add_property</text>
</a>
</g>
</g>
<!-- Node205455&#45;&gt;Node205456 -->
<g id="edge1" class="edge">
<title>Node205455&#45;&gt;Node205456</title>
<path fill="none" stroke="#191970" d="M133.2882,-352C144.0447,-352 154.9762,-352 165.1336,-352"/>
<polygon fill="#191970" stroke="#191970" points="165.3987,-355.5001 175.3987,-352 165.3987,-348.5001 165.3987,-355.5001"/>
</g>
<!-- Node205514 -->
<g id="node24" class="node">
<title>Node205514</title>
<g id="a_node24"><a xlink:href="quickjs_8c.html#a06b76f5124fd985e35f4c652fd018d6d" target="_top" xlink:title="find_own_property">
<polygon fill="none" stroke="#000000" points="463.5,-494.5 463.5,-513.5 559.5,-513.5 559.5,-494.5 463.5,-494.5"/>
<text text-anchor="middle" x="511.5" y="-501.5" font-family="Helvetica,sans-Serif" font-size="10.00" fill="#000000">find_own_property</text>
</a>
</g>
</g>
<!-- Node205455&#45;&gt;Node205514 -->
<g id="edge38" class="edge">
<title>Node205455&#45;&gt;Node205514</title>
<path fill="none" stroke="#191970" d="M78.2118,-361.6046C110.0338,-387.0769 201.7062,-456.3579 291,-485 344.1208,-502.0391 407.9125,-505.8623 453.1844,-505.9796"/>
<polygon fill="#191970" stroke="#191970" points="453.425,-509.4789 463.4128,-505.944 453.4006,-502.4789 453.425,-509.4789"/>
</g>
<!-- Node205515 -->
<g id="node25" class="node">
<title>Node205515</title>
<g id="a_node25"><a xlink:href="quickjs_8c.html#a2814982d965920b44b14bef36ba18bba" target="_top" xlink:title="JS_DupContext">
<polygon fill="none" stroke="#000000" points="169,-304.5 169,-323.5 255,-323.5 255,-304.5 169,-304.5"/>
<text text-anchor="middle" x="212" y="-311.5" font-family="Helvetica,sans-Serif" font-size="10.00" fill="#000000">JS_DupContext</text>
</a>
</g>
</g>
<!-- Node205455&#45;&gt;Node205515 -->
<g id="edge41" class="edge">
<title>Node205455&#45;&gt;Node205515</title>
<path fill="none" stroke="#191970" d="M103.2158,-342.411C122.1566,-337.4642 145.4572,-331.3789 165.6285,-326.1108"/>
<polygon fill="#191970" stroke="#191970" points="166.7572,-329.4335 175.5482,-323.5201 164.9883,-322.6606 166.7572,-329.4335"/>
</g>
<!-- Node205457 -->
<g id="node3" class="node">
<title>Node205457</title>
<g id="a_node3"><a xlink:href="quickjs_8c.html#a3cadcaa2bd1e3f9359f1c006f396cfa0" target="_top" xlink:title="add_shape_property">
<polygon fill="none" stroke="#000000" points="301.5,-342.5 301.5,-361.5 405.5,-361.5 405.5,-342.5 301.5,-342.5"/>
<text text-anchor="middle" x="353.5" y="-349.5" font-family="Helvetica,sans-Serif" font-size="10.00" fill="#000000">add_shape_property</text>
</a>
</g>
</g>
<!-- Node205456&#45;&gt;Node205457 -->
<g id="edge2" class="edge">
<title>Node205456&#45;&gt;Node205457</title>
<path fill="none" stroke="#191970" d="M248.8081,-352C261.7231,-352 276.6157,-352 291.0419,-352"/>
<polygon fill="#191970" stroke="#191970" points="291.4292,-355.5001 301.4291,-352 291.4291,-348.5001 291.4292,-355.5001"/>
</g>
<!-- Node205462 -->
<g id="node7" class="node">
<title>Node205462</title>
<g id="a_node7"><a xlink:href="quickjs_8c.html#a82dbe63adeac7849406fd48d96f39f7b" target="_top" xlink:title="js_shape_hash_link">
<polygon fill="none" stroke="#000000" points="460.5,-418.5 460.5,-437.5 562.5,-437.5 562.5,-418.5 460.5,-418.5"/>
<text text-anchor="middle" x="511.5" y="-425.5" font-family="Helvetica,sans-Serif" font-size="10.00" fill="#000000">js_shape_hash_link</text>
</a>
</g>
</g>
<!-- Node205456&#45;&gt;Node205462 -->
<g id="edge37" class="edge">
<title>Node205456&#45;&gt;Node205462</title>
<path fill="none" stroke="#191970" d="M248.7246,-361.3191C302.9155,-375.0704 404.3173,-400.8017 464.069,-415.9641"/>
<polygon fill="#191970" stroke="#191970" points="463.4501,-419.4179 474.0038,-418.4851 465.1718,-412.6329 463.4501,-419.4179"/>
</g>
<!-- Node205482 -->
<g id="node17" class="node">
<title>Node205482</title>
<g id="a_node17"><a xlink:href="quickjs_8c.html#ac0c5dbb01d6082796c44b1c7f7c170f1" target="_top" xlink:title="find_hashed_shape_prop">
<polygon fill="none" stroke="#000000" points="291,-456.5 291,-475.5 416,-475.5 416,-456.5 291,-456.5"/>
<text text-anchor="middle" x="353.5" y="-463.5" font-family="Helvetica,sans-Serif" font-size="10.00" fill="#000000">find_hashed_shape_prop</text>
</a>
</g>
</g>
<!-- Node205456&#45;&gt;Node205482 -->
<g id="edge19" class="edge">
<title>Node205456&#45;&gt;Node205482</title>
<path fill="none" stroke="#191970" d="M221.8605,-361.6254C236.4638,-375.7008 264.9287,-402.4562 291,-423 303.4479,-432.8087 318.0021,-442.8966 329.9324,-450.8342"/>
<polygon fill="#191970" stroke="#191970" points="328.1872,-453.8755 338.4658,-456.4447 332.0329,-448.0264 328.1872,-453.8755"/>
</g>
<!-- Node205483 -->
<g id="node18" class="node">
<title>Node205483</title>
<g id="a_node18"><a xlink:href="quickjs_8c.html#a8e34657169da77ae6a386311351ed3de" target="_top" xlink:title="js_clone_shape">
<polygon fill="none" stroke="#000000" points="469.5,-152.5 469.5,-171.5 553.5,-171.5 553.5,-152.5 469.5,-152.5"/>
<text text-anchor="middle" x="511.5" y="-159.5" font-family="Helvetica,sans-Serif" font-size="10.00" fill="#000000">js_clone_shape</text>
</a>
</g>
</g>
<!-- Node205456&#45;&gt;Node205483 -->
<g id="edge22" class="edge">
<title>Node205456&#45;&gt;Node205483</title>
<path fill="none" stroke="#191970" d="M241.5228,-342.3485C246.4141,-339.8419 251.1413,-336.7585 255,-333 281.7739,-306.9214 264.5538,-283.4109 291,-257 337.4943,-210.5678 410.3383,-185.297 459.4509,-172.7326"/>
<polygon fill="#191970" stroke="#191970" points="460.3777,-176.1089 469.2473,-170.3139 458.6998,-169.313 460.3777,-176.1089"/>
</g>
<!-- Node205486 -->
<g id="node21" class="node">
<title>Node205486</title>
<g id="a_node21"><a xlink:href="quickjs_8c.html#aed229eb80b3b03a2275471dee93c69d6" target="_top" xlink:title="js_dup_shape">
<polygon fill="none" stroke="#000000" points="315,-266.5 315,-285.5 392,-285.5 392,-266.5 315,-266.5"/>
<text text-anchor="middle" x="353.5" y="-273.5" font-family="Helvetica,sans-Serif" font-size="10.00" fill="#000000">js_dup_shape</text>
</a>
</g>
</g>
<!-- Node205456&#45;&gt;Node205486 -->
<g id="edge31" class="edge">
<title>Node205456&#45;&gt;Node205486</title>
<path fill="none" stroke="#191970" d="M238.3627,-342.3316C244.0819,-339.7018 249.931,-336.5749 255,-333 274.012,-319.5918 271.2125,-307.2347 291,-295 295.4086,-292.2742 300.235,-289.916 305.1897,-287.8812"/>
<polygon fill="#191970" stroke="#191970" points="306.6174,-291.0856 314.7995,-284.3549 304.2059,-284.514 306.6174,-291.0856"/>
</g>
<!-- Node205487 -->
<g id="node22" class="node">
<title>Node205487</title>
<g id="a_node22"><a xlink:href="quickjs_8c.html#a3a9f27520d96cf58aa5bd7359e9cddee" target="_top" xlink:title="js_free_shape">
<polygon fill="none" stroke="#000000" points="315,-304.5 315,-323.5 392,-323.5 392,-304.5 315,-304.5"/>
<text text-anchor="middle" x="353.5" y="-311.5" font-family="Helvetica,sans-Serif" font-size="10.00" fill="#000000">js_free_shape</text>
</a>
</g>
</g>
<!-- Node205456&#45;&gt;Node205487 -->
<g id="edge32" class="edge">
<title>Node205456&#45;&gt;Node205487</title>
<path fill="none" stroke="#191970" d="M247.7064,-342.411C265.9727,-337.5056 288.4084,-331.4804 307.9112,-326.2429"/>
<polygon fill="#191970" stroke="#191970" points="309.055,-329.5599 317.805,-323.5859 307.2394,-322.7994 309.055,-329.5599"/>
</g>
<!-- Node205458 -->
<g id="node4" class="node">
<title>Node205458</title>
<g id="a_node4"><a xlink:href="quickjs_8c.html#a288254c06a39c9fca740a7abdad2834e" target="_top" xlink:title="__JS_AtomIsTaggedInt">
<polygon fill="none" stroke="#000000" points="452,-266.5 452,-285.5 571,-285.5 571,-266.5 452,-266.5"/>
<text text-anchor="middle" x="511.5" y="-273.5" font-family="Helvetica,sans-Serif" font-size="10.00" fill="#000000">__JS_AtomIsTaggedInt</text>
</a>
</g>
</g>
<!-- Node205457&#45;&gt;Node205458 -->
<g id="edge3" class="edge">
<title>Node205457&#45;&gt;Node205458</title>
<path fill="none" stroke="#191970" d="M394.2763,-342.4934C401.7523,-339.9542 409.3019,-336.8221 416,-333 434.8519,-322.2428 433.6411,-311.5786 452,-300 458.2829,-296.0375 465.33,-292.5109 472.3169,-289.4618"/>
<polygon fill="#191970" stroke="#191970" points="473.8039,-292.635 481.7296,-285.6041 471.1493,-286.1579 473.8039,-292.635"/>
</g>
<!-- Node205459 -->
<g id="node5" class="node">
<title>Node205459</title>
<g id="a_node5"><a xlink:href="quickjs_8c.html#a643df594b75933007bcdbb071b5ea8c5" target="_top" xlink:title="get_shape_prop">
<polygon fill="none" stroke="#000000" points="620.5,-304.5 620.5,-323.5 706.5,-323.5 706.5,-304.5 620.5,-304.5"/>
<text text-anchor="middle" x="663.5" y="-311.5" font-family="Helvetica,sans-Serif" font-size="10.00" fill="#000000">get_shape_prop</text>
</a>
</g>
</g>
<!-- Node205457&#45;&gt;Node205459 -->
<g id="edge4" class="edge">
<title>Node205457&#45;&gt;Node205459</title>
<path fill="none" stroke="#191970" d="M405.7367,-345.5968C462.5471,-338.6329 552.8783,-327.5601 610.1298,-320.5421"/>
<polygon fill="#191970" stroke="#191970" points="610.5702,-324.0145 620.0701,-319.3237 609.7185,-317.0665 610.5702,-324.0145"/>
</g>
<!-- Node205460 -->
<g id="node6" class="node">
<title>Node205460</title>
<g id="a_node6"><a xlink:href="quickjs_8c.html#abbf44eaeace1104a6bef718fbf5700fe" target="_top" xlink:title="JS_DupAtom">
<polygon fill="none" stroke="#ff0000" points="626,-.5 626,-19.5 701,-19.5 701,-.5 626,-.5"/>
<text text-anchor="middle" x="663.5" y="-7.5" font-family="Helvetica,sans-Serif" font-size="10.00" fill="#000000">JS_DupAtom</text>
</a>
</g>
</g>
<!-- Node205457&#45;&gt;Node205460 -->
<g id="edge5" class="edge">
<title>Node205457&#45;&gt;Node205460</title>
<path fill="none" stroke="#191970" d="M403.6367,-342.4574C408.265,-339.983 412.5153,-336.8824 416,-333 473.4091,-269.0386 406.2041,-215.7297 452,-143 497.5657,-70.6359 531.1201,-68.4339 607,-29 611.0347,-26.9032 615.3488,-24.9665 619.7275,-23.1966"/>
<polygon fill="#191970" stroke="#191970" points="621.2007,-26.3822 629.333,-19.5914 618.7408,-19.8286 621.2007,-26.3822"/>
</g>
<!-- Node205457&#45;&gt;Node205462 -->
<g id="edge6" class="edge">
<title>Node205457&#45;&gt;Node205462</title>
<path fill="none" stroke="#191970" d="M370.3167,-361.555C389.7161,-372.4177 422.7082,-390.4039 452,-404 459.9153,-407.6739 468.5583,-411.3469 476.7425,-414.6754"/>
<polygon fill="#191970" stroke="#191970" points="475.4833,-417.9413 486.068,-418.404 478.0821,-411.4416 475.4833,-417.9413"/>
</g>
<!-- Node205464 -->
<g id="node9" class="node">
<title>Node205464</title>
<g id="a_node9"><a xlink:href="quickjs_8c.html#ae5e76f4be6214208cc91f10a192fc810" target="_top" xlink:title="js_shape_hash_unlink">
<polygon fill="none" stroke="#000000" points="607,-342.5 607,-361.5 720,-361.5 720,-342.5 607,-342.5"/>
<text text-anchor="middle" x="663.5" y="-349.5" font-family="Helvetica,sans-Serif" font-size="10.00" fill="#000000">js_shape_hash_unlink</text>
</a>
</g>
</g>
<!-- Node205457&#45;&gt;Node205464 -->
<g id="edge8" class="edge">
<title>Node205457&#45;&gt;Node205464</title>
<path fill="none" stroke="#191970" d="M405.7367,-352C458.3148,-352 539.6052,-352 596.8111,-352"/>
<polygon fill="#191970" stroke="#191970" points="596.8434,-355.5001 606.8434,-352 596.8433,-348.5001 596.8434,-355.5001"/>
</g>
<!-- Node205465 -->
<g id="node10" class="node">
<title>Node205465</title>
<g id="a_node10"><a xlink:href="quickjs_8c.html#acab22c2945c4d609e57a2484feb68a96" target="_top" xlink:title="prop_hash_end">
<polygon fill="none" stroke="#000000" points="758.5,-323.5 758.5,-342.5 841.5,-342.5 841.5,-323.5 758.5,-323.5"/>
<text text-anchor="middle" x="800" y="-330.5" font-family="Helvetica,sans-Serif" font-size="10.00" fill="#000000">prop_hash_end</text>
</a>
</g>
</g>
<!-- Node205457&#45;&gt;Node205465 -->
<g id="edge10" class="edge">
<title>Node205457&#45;&gt;Node205465</title>
<path fill="none" stroke="#191970" d="M395.902,-361.5553C464.8211,-375.4557 605.0148,-396.9212 720,-371 739.9988,-366.4917 760.866,-356.372 776.2725,-347.7087"/>
<polygon fill="#191970" stroke="#191970" points="778.223,-350.6231 785.103,-342.566 774.7002,-344.5742 778.223,-350.6231"/>
</g>
<!-- Node205466 -->
<g id="node11" class="node">
<title>Node205466</title>
<g id="a_node11"><a xlink:href="quickjs_8c.html#aa80740ff93b724ea7e0c280826f4a25a" target="_top" xlink:title="resize_properties">
<polygon fill="none" stroke="#ff0000" points="466,-190.5 466,-209.5 557,-209.5 557,-190.5 466,-190.5"/>
<text text-anchor="middle" x="511.5" y="-197.5" font-family="Helvetica,sans-Serif" font-size="10.00" fill="#000000">resize_properties</text>
</a>
</g>
</g>
<!-- Node205457&#45;&gt;Node205466 -->
<g id="edge11" class="edge">
<title>Node205457&#45;&gt;Node205466</title>
<path fill="none" stroke="#191970" d="M402.2584,-342.4878C407.3215,-340.0165 412.0495,-336.9083 416,-333 453.7722,-295.6319 414.4898,-256.631 452,-219 453.6172,-217.3776 455.3727,-215.8936 457.2325,-214.5361"/>
<polygon fill="#191970" stroke="#191970" points="459.1399,-217.4741 465.9511,-209.3587 455.5657,-211.4554 459.1399,-217.4741"/>
</g>
<!-- Node205481 -->
<g id="node16" class="node">
<title>Node205481</title>
<g id="a_node16"><a xlink:href="quickjs_8c.html#a11f047846c1027dc6066a5f1b2ef292a" target="_top" xlink:title="shape_hash">
<polygon fill="none" stroke="#000000" points="477,-456.5 477,-475.5 546,-475.5 546,-456.5 477,-456.5"/>
<text text-anchor="middle" x="511.5" y="-463.5" font-family="Helvetica,sans-Serif" font-size="10.00" fill="#000000">shape_hash</text>
</a>
</g>
</g>
<!-- Node205457&#45;&gt;Node205481 -->
<g id="edge18" class="edge">
<title>Node205457&#45;&gt;Node205481</title>
<path fill="none" stroke="#191970" d="M360.8369,-361.5661C375.8915,-380.5622 412.2208,-423.2523 452,-447 456.7718,-449.8487 462.0176,-452.3183 467.3565,-454.4464"/>
<polygon fill="#191970" stroke="#191970" points="466.3902,-457.8185 476.9846,-457.9163 468.7636,-451.2331 466.3902,-457.8185"/>
</g>
<!-- Node205463 -->
<g id="node8" class="node">
<title>Node205463</title>
<g id="a_node8"><a xlink:href="quickjs_8c.html#a8291bf195606b5d1b0faed795b6dc3ff" target="_top" xlink:title="get_shape_hash">
<polygon fill="none" stroke="#000000" points="756,-456.5 756,-475.5 844,-475.5 844,-456.5 756,-456.5"/>
<text text-anchor="middle" x="800" y="-463.5" font-family="Helvetica,sans-Serif" font-size="10.00" fill="#000000">get_shape_hash</text>
</a>
</g>
</g>
<!-- Node205462&#45;&gt;Node205463 -->
<g id="edge7" class="edge">
<title>Node205462&#45;&gt;Node205463</title>
<path fill="none" stroke="#191970" d="M562.7456,-434.7499C614.206,-441.528 693.1954,-451.9321 745.7099,-458.8491"/>
<polygon fill="#191970" stroke="#191970" points="745.4724,-462.348 755.8438,-460.1839 746.3865,-455.4079 745.4724,-462.348"/>
</g>
<!-- Node205464&#45;&gt;Node205463 -->
<g id="edge9" class="edge">
<title>Node205464&#45;&gt;Node205463</title>
<path fill="none" stroke="#191970" d="M675.1379,-361.7196C698.6096,-381.3223 751.8328,-425.7724 780.6298,-449.8227"/>
<polygon fill="#191970" stroke="#191970" points="778.4727,-452.5812 788.3915,-456.305 782.9598,-447.2085 778.4727,-452.5812"/>
</g>
<!-- Node205466&#45;&gt;Node205465 -->
<g id="edge17" class="edge">
<title>Node205466&#45;&gt;Node205465</title>
<path fill="none" stroke="#191970" d="M556.4109,-209.5702C608.8992,-221.2225 692.1318,-241.2903 720,-257 746.5746,-271.9805 771.043,-297.731 785.7428,-315.0563"/>
<polygon fill="#191970" stroke="#191970" points="783.4356,-317.7596 792.4989,-323.2467 788.8356,-313.3053 783.4356,-317.7596"/>
</g>
<!-- Node205467 -->
<g id="node12" class="node">
<title>Node205467</title>
<g id="a_node12"><a xlink:href="quickjs_8c.html#a7da0cfa6f27af0e1b9599d7f359edbe2" target="_top" xlink:title="get_alloc_from_shape">
<polygon fill="none" stroke="#000000" points="607.5,-266.5 607.5,-285.5 719.5,-285.5 719.5,-266.5 607.5,-266.5"/>
<text text-anchor="middle" x="663.5" y="-273.5" font-family="Helvetica,sans-Serif" font-size="10.00" fill="#000000">get_alloc_from_shape</text>
</a>
</g>
</g>
<!-- Node205466&#45;&gt;Node205467 -->
<g id="edge12" class="edge">
<title>Node205466&#45;&gt;Node205467</title>
<path fill="none" stroke="#191970" d="M550.0016,-209.5947C557.2215,-212.136 564.5274,-215.2465 571,-219 589.7763,-229.8886 588.7478,-240.2541 607,-252 612.9611,-255.8362 619.6388,-259.2991 626.2583,-262.3237"/>
<polygon fill="#191970" stroke="#191970" points="625.2552,-265.7021 635.8247,-266.4341 628.0186,-259.2706 625.2552,-265.7021"/>
</g>
<!-- Node205468 -->
<g id="node13" class="node">
<title>Node205468</title>
<g id="a_node13"><a xlink:href="quickjs_8c.html#a8b6c89e0f589df709eb31a92b7fac32a" target="_top" xlink:title="get_shape_from_alloc">
<polygon fill="none" stroke="#000000" points="607.5,-152.5 607.5,-171.5 719.5,-171.5 719.5,-152.5 607.5,-152.5"/>
<text text-anchor="middle" x="663.5" y="-159.5" font-family="Helvetica,sans-Serif" font-size="10.00" fill="#000000">get_shape_from_alloc</text>
</a>
</g>
</g>
<!-- Node205466&#45;&gt;Node205468 -->
<g id="edge14" class="edge">
<title>Node205466&#45;&gt;Node205468</title>
<path fill="none" stroke="#191970" d="M549.856,-190.411C569.8237,-185.4191 594.4295,-179.2676 615.6334,-173.9666"/>
<polygon fill="#191970" stroke="#191970" points="616.5673,-177.341 625.4198,-171.5201 614.8695,-170.55 616.5673,-177.341"/>
</g>
<!-- Node205469 -->
<g id="node14" class="node">
<title>Node205469</title>
<g id="a_node14"><a xlink:href="quickjs_8c.html#ab54e821a9b1b55dc16c4494bd410b698" target="_top" xlink:title="get_shape_size">
<polygon fill="none" stroke="#000000" points="621,-114.5 621,-133.5 706,-133.5 706,-114.5 621,-114.5"/>
<text text-anchor="middle" x="663.5" y="-121.5" font-family="Helvetica,sans-Serif" font-size="10.00" fill="#000000">get_shape_size</text>
</a>
</g>
</g>
<!-- Node205466&#45;&gt;Node205469 -->
<g id="edge15" class="edge">
<title>Node205466&#45;&gt;Node205469</title>
<path fill="none" stroke="#191970" d="M551.1591,-190.4273C558.0487,-187.9127 564.9392,-184.8062 571,-181 590.7016,-168.6274 587.3937,-155.5231 607,-143 610.1507,-140.9876 613.5372,-139.1648 617.0303,-137.5181"/>
<polygon fill="#191970" stroke="#191970" points="618.576,-140.6651 626.4369,-133.5617 615.862,-134.2126 618.576,-140.6651"/>
</g>
<!-- Node205472 -->
<g id="node15" class="node">
<title>Node205472</title>
<g id="a_node15"><a xlink:href="quickjs_8c.html#a78b7f6b85f2739b551ff54f16156128b" target="_top" xlink:title="js_malloc">
<polygon fill="none" stroke="#ff0000" points="634.5,-190.5 634.5,-209.5 692.5,-209.5 692.5,-190.5 634.5,-190.5"/>
<text text-anchor="middle" x="663.5" y="-197.5" font-family="Helvetica,sans-Serif" font-size="10.00" fill="#000000">js_malloc</text>
</a>
</g>
</g>
<!-- Node205466&#45;&gt;Node205472 -->
<g id="edge16" class="edge">
<title>Node205466&#45;&gt;Node205472</title>
<path fill="none" stroke="#191970" d="M557.105,-200C578.4023,-200 603.5122,-200 623.9887,-200"/>
<polygon fill="#191970" stroke="#191970" points="624.2295,-203.5001 634.2294,-200 624.2294,-196.5001 624.2295,-203.5001"/>
</g>
<!-- Node205467&#45;&gt;Node205465 -->
<g id="edge13" class="edge">
<title>Node205467&#45;&gt;Node205465</title>
<path fill="none" stroke="#191970" d="M694.2383,-285.5978C702.664,-288.4283 711.7479,-291.6664 720,-295 737.6594,-302.1339 756.959,-311.2607 772.1771,-318.7816"/>
<polygon fill="#191970" stroke="#191970" points="771.02,-322.1161 781.5299,-323.455 774.1489,-315.8542 771.02,-322.1161"/>
</g>
<!-- Node205482&#45;&gt;Node205463 -->
<g id="edge20" class="edge">
<title>Node205482&#45;&gt;Node205463</title>
<path fill="none" stroke="#191970" d="M365.3078,-475.65C382.9094,-489.3447 417.6528,-513.7783 452,-523 567.0999,-553.9024 708.3731,-504.8502 769.463,-479.5706"/>
<polygon fill="#191970" stroke="#191970" points="771.0492,-482.7001 778.9017,-475.5876 768.3277,-476.2508 771.0492,-482.7001"/>
</g>
<!-- Node205482&#45;&gt;Node205481 -->
<g id="edge21" class="edge">
<title>Node205482&#45;&gt;Node205481</title>
<path fill="none" stroke="#191970" d="M416.3998,-466C433.1809,-466 450.9741,-466 466.5744,-466"/>
<polygon fill="#191970" stroke="#191970" points="466.9849,-469.5001 476.9849,-466 466.9849,-462.5001 466.9849,-469.5001"/>
</g>
<!-- Node205483&#45;&gt;Node205459 -->
<g id="edge26" class="edge">
<title>Node205483&#45;&gt;Node205459</title>
<path fill="none" stroke="#191970" d="M553.7396,-169.8642C560.1246,-172.5539 566.1771,-176.1616 571,-181 608.5102,-218.631 569.7789,-257.083 607,-295 608.4409,-296.4678 609.9985,-297.8222 611.6462,-299.072"/>
<polygon fill="#191970" stroke="#191970" points="610.1526,-302.2611 620.5105,-304.4896 613.8031,-296.2882 610.1526,-302.2611"/>
</g>
<!-- Node205483&#45;&gt;Node205460 -->
<g id="edge28" class="edge">
<title>Node205483&#45;&gt;Node205460</title>
<path fill="none" stroke="#191970" d="M518.7322,-152.3387C530.021,-137.2173 552.4586,-106.9966 571,-81 587.3221,-58.1152 584.5351,-45.8953 607,-29 609.9878,-26.7529 613.2575,-24.7617 616.67,-22.9988"/>
<polygon fill="#191970" stroke="#191970" points="618.2449,-26.1286 625.941,-18.847 615.3838,-19.7399 618.2449,-26.1286"/>
</g>
<!-- Node205483&#45;&gt;Node205467 -->
<g id="edge24" class="edge">
<title>Node205483&#45;&gt;Node205467</title>
<path fill="none" stroke="#191970" d="M551.1591,-171.5727C558.0487,-174.0873 564.9392,-177.1938 571,-181 590.7016,-193.3726 590.8101,-202.2931 607,-219 620.2357,-232.6583 635.4201,-247.9568 646.712,-259.2631"/>
<polygon fill="#191970" stroke="#191970" points="644.2888,-261.7897 653.8358,-266.3836 649.2374,-256.8387 644.2888,-261.7897"/>
</g>
<!-- Node205483&#45;&gt;Node205468 -->
<g id="edge25" class="edge">
<title>Node205483&#45;&gt;Node205468</title>
<path fill="none" stroke="#191970" d="M553.8405,-162C567.3298,-162 582.5921,-162 597.3503,-162"/>
<polygon fill="#191970" stroke="#191970" points="597.4591,-165.5001 607.4591,-162 597.459,-158.5001 597.4591,-165.5001"/>
</g>
<!-- Node205483&#45;&gt;Node205469 -->
<g id="edge27" class="edge">
<title>Node205483&#45;&gt;Node205469</title>
<path fill="none" stroke="#191970" d="M549.856,-152.411C569.8237,-147.4191 594.4295,-141.2676 615.6334,-135.9666"/>
<polygon fill="#191970" stroke="#191970" points="616.5673,-139.341 625.4198,-133.5201 614.8695,-132.55 616.5673,-139.341"/>
</g>
<!-- Node205483&#45;&gt;Node205472 -->
<g id="edge30" class="edge">
<title>Node205483&#45;&gt;Node205472</title>
<path fill="none" stroke="#191970" d="M549.856,-171.589C572.6858,-177.2964 601.5785,-184.5196 624.5178,-190.2545"/>
<polygon fill="#191970" stroke="#191970" points="623.7213,-193.663 634.2716,-192.6929 625.4191,-186.872 623.7213,-193.663"/>
</g>
<!-- Node205484 -->
<g id="node19" class="node">
<title>Node205484</title>
<g id="a_node19"><a xlink:href="quickjs_8c.html#a9780456a71703c53244b88831bc8fb7a" target="_top" xlink:title="add_gc_object">
<polygon fill="none" stroke="#ff0000" points="623.5,-38.5 623.5,-57.5 703.5,-57.5 703.5,-38.5 623.5,-38.5"/>
<text text-anchor="middle" x="663.5" y="-45.5" font-family="Helvetica,sans-Serif" font-size="10.00" fill="#000000">add_gc_object</text>
</a>
</g>
</g>
<!-- Node205483&#45;&gt;Node205484 -->
<g id="edge23" class="edge">
<title>Node205483&#45;&gt;Node205484</title>
<path fill="none" stroke="#191970" d="M518.5752,-152.4727C533.1027,-133.5463 568.2081,-90.9755 607,-67 610.3218,-64.9469 613.8919,-63.0863 617.5649,-61.406"/>
<polygon fill="#191970" stroke="#191970" points="618.9099,-64.6374 626.8243,-57.5937 616.2449,-58.1645 618.9099,-64.6374"/>
</g>
<!-- Node205485 -->
<g id="node20" class="node">
<title>Node205485</title>
<g id="a_node20"><a xlink:href="quickjs_8h.html#a775522f2d084fc8fa0fcb33f390006b4" target="_top" xlink:title="JS_DupValue">
<polygon fill="none" stroke="#000000" points="625,-76.5 625,-95.5 702,-95.5 702,-76.5 625,-76.5"/>
<text text-anchor="middle" x="663.5" y="-83.5" font-family="Helvetica,sans-Serif" font-size="10.00" fill="#000000">JS_DupValue</text>
</a>
</g>
</g>
<!-- Node205483&#45;&gt;Node205485 -->
<g id="edge29" class="edge">
<title>Node205483&#45;&gt;Node205485</title>
<path fill="none" stroke="#191970" d="M525.5372,-152.3134C543.71,-140.085 576.6546,-118.9631 607,-105 611.6404,-102.8648 616.5918,-100.8466 621.5618,-98.9797"/>
<polygon fill="#191970" stroke="#191970" points="622.8254,-102.245 631.0653,-95.585 620.4706,-95.6529 622.8254,-102.245"/>
</g>
<!-- Node205488 -->
<g id="node23" class="node">
<title>Node205488</title>
<g id="a_node23"><a xlink:href="quickjs_8c.html#a6f921a6312ada5c7da7b485e24d37f54" target="_top" xlink:title="js_free_shape0">
<polygon fill="none" stroke="#ff0000" points="470,-228.5 470,-247.5 553,-247.5 553,-228.5 470,-228.5"/>
<text text-anchor="middle" x="511.5" y="-235.5" font-family="Helvetica,sans-Serif" font-size="10.00" fill="#000000">js_free_shape0</text>
</a>
</g>
</g>
<!-- Node205487&#45;&gt;Node205488 -->
<g id="edge33" class="edge">
<title>Node205487&#45;&gt;Node205488</title>
<path fill="none" stroke="#191970" d="M392.2005,-305.6451C400.4055,-302.9561 408.7655,-299.4732 416,-295 435.7875,-282.7653 432.2984,-269.3726 452,-257 455.3145,-254.9185 458.8772,-253.0462 462.5521,-251.3656"/>
<polygon fill="#191970" stroke="#191970" points="463.9061,-254.5933 471.8409,-247.5727 461.2598,-248.1128 463.9061,-254.5933"/>
</g>
<!-- Node205488&#45;&gt;Node205459 -->
<g id="edge35" class="edge">
<title>Node205488&#45;&gt;Node205459</title>
<path fill="none" stroke="#191970" d="M551.1591,-247.5727C558.0487,-250.0873 564.9392,-253.1938 571,-257 590.7016,-269.3726 587.3937,-282.4769 607,-295 610.1507,-297.0124 613.5372,-298.8352 617.0303,-300.4819"/>
<polygon fill="#191970" stroke="#191970" points="615.862,-303.7874 626.4369,-304.4383 618.576,-297.3349 615.862,-303.7874"/>
</g>
<!-- Node205488&#45;&gt;Node205464 -->
<g id="edge36" class="edge">
<title>Node205488&#45;&gt;Node205464</title>
<path fill="none" stroke="#191970" d="M553.1962,-246.4442C559.644,-249.0668 565.8584,-252.5018 571,-257 599.1298,-281.61 579.0594,-308.1754 607,-333 608.76,-334.5637 610.6534,-335.9996 612.6426,-337.318"/>
<polygon fill="#191970" stroke="#191970" points="611.4104,-340.6342 621.8608,-342.3779 614.7788,-334.4978 611.4104,-340.6342"/>
</g>
<!-- Node205488&#45;&gt;Node205467 -->
<g id="edge34" class="edge">
<title>Node205488&#45;&gt;Node205467</title>
<path fill="none" stroke="#191970" d="M549.856,-247.589C569.8237,-252.5809 594.4295,-258.7324 615.6334,-264.0334"/>
<polygon fill="#191970" stroke="#191970" points="614.8695,-267.45 625.4198,-266.4799 616.5673,-260.659 614.8695,-267.45"/>
</g>
<!-- Node205514&#45;&gt;Node205459 -->
<g id="edge39" class="edge">
<title>Node205514&#45;&gt;Node205459</title>
<path fill="none" stroke="#191970" d="M558.2127,-494.4679C562.981,-492.0001 567.3893,-488.8982 571,-485 618.1764,-434.0673 560.2149,-384.2923 607,-333 608.3861,-331.4804 609.8975,-330.0822 611.5065,-328.7957"/>
<polygon fill="#191970" stroke="#191970" points="613.6716,-331.5668 620.235,-323.2497 609.9176,-325.6585 613.6716,-331.5668"/>
</g>
<!-- Node205514&#45;&gt;Node205465 -->
<g id="edge40" class="edge">
<title>Node205514&#45;&gt;Node205465</title>
<path fill="none" stroke="#191970" d="M545.263,-494.4382C553.7787,-491.6955 562.8223,-488.4914 571,-485 640.3214,-455.4038 658.3012,-447.2972 720,-404 743.5585,-387.4678 767.9134,-364.9302 783.4659,-349.7181"/>
<polygon fill="#191970" stroke="#191970" points="786.1079,-352.0273 790.7456,-342.5014 781.1797,-347.056 786.1079,-352.0273"/>
</g>
</g>
</svg>
