<?xml version="1.0" encoding="UTF-8" standalone="no"?>
<!DOCTYPE svg PUBLIC "-//W3C//DTD SVG 1.1//EN"
 "http://www.w3.org/Graphics/SVG/1.1/DTD/svg11.dtd">
<!-- Generated by graphviz version 2.40.1 (20161225.0304)
 -->
<!-- Title: JS_FlattenIntoArray Pages: 1 -->
<!--zoomable 1085 -->
<svg id="main" version="1.1" xmlns="http://www.w3.org/2000/svg" xmlns:xlink="http://www.w3.org/1999/xlink" xml:space="preserve" onload="init(evt)">
<style type="text/css"><![CDATA[
.edge:hover path { stroke: red; }
.edge:hover polygon { stroke: red; fill: red; }
]]></style>
<script type="text/javascript"><![CDATA[
var edges = document.getElementsByTagName('g');
if (edges && edges.length) {
  for (var i=0;i<edges.length;i++) {
    if (edges[i].id.substr(0,4)=='edge') {
      edges[i].setAttribute('class','edge');
    }
  }
}
]]></script>
        <defs>
                <circle id="rim" cx="0" cy="0" r="7"/>
                <circle id="rim2" cx="0" cy="0" r="3.5"/>
                <g id="zoomPlus">
                        <use xlink:href="#rim" fill="#404040">
                                <set attributeName="fill" to="#808080" begin="zoomplus.mouseover" end="zoomplus.mouseout"/>
                        </use>
                        <path d="M-4,0h8M0,-4v8" fill="none" stroke="white" stroke-width="1.5" pointer-events="none"/>
                </g>
                <g id="zoomMin">
                        <use xlink:href="#rim" fill="#404040">
                                <set attributeName="fill" to="#808080" begin="zoomminus.mouseover" end="zoomminus.mouseout"/>
                        </use>
                        <path d="M-4,0h8" fill="none" stroke="white" stroke-width="1.5" pointer-events="none"/>
                </g>
                <g id="dirArrow">
                        <path fill="none" stroke="white" stroke-width="1.5" d="M0,-3.0v7 M-2.5,-0.5L0,-3.0L2.5,-0.5"/>
                </g>
               <g id="resetDef">
                       <use xlink:href="#rim2" fill="#404040">
                               <set attributeName="fill" to="#808080" begin="reset.mouseover" end="reset.mouseout"/>
                       </use>
               </g>
        </defs>

<script type="text/javascript">
var viewWidth = 849;
var viewHeight = 1085;
var sectionId = 'dynsection-1487';
</script>
<script xlink:href="svgpan.js"/>
<svg id="graph" class="graph">
<g id="viewport">
<title>JS_FlattenIntoArray</title>
<!-- Node399924 -->
<g id="node1" class="node">
<title>Node399924</title>
<polygon fill="#bfbfbf" stroke="#000000" points="0,-171.5 0,-190.5 104,-190.5 104,-171.5 0,-171.5"/>
<text text-anchor="middle" x="52" y="-178.5" font-family="Helvetica,sans-Serif" font-size="10.00" fill="#000000">JS_FlattenIntoArray</text>
</g>
<!-- Node399924&#45;&gt;Node399924 -->
<g id="edge41" class="edge">
<title>Node399924&#45;&gt;Node399924</title>
<path fill="none" stroke="#191970" d="M33.5045,-190.7571C24.5067,-199.5653 30.6719,-209 52,-209 65.6633,-209 73.1038,-205.128 74.3213,-200.0292"/>
<polygon fill="#191970" stroke="#191970" points="77.5452,-198.6661 70.4955,-190.7571 71.0744,-201.3361 77.5452,-198.6661"/>
</g>
<!-- Node399925 -->
<g id="node2" class="node">
<title>Node399925</title>
<g id="a_node2"><a xlink:href="quickjs_8c.html#a1a4c02a29525d5cb2085dd8bca3af350" target="_top" xlink:title="JS_Call">
<polygon fill="none" stroke="#000000" points="147,-437.5 147,-456.5 198,-456.5 198,-437.5 147,-437.5"/>
<text text-anchor="middle" x="172.5" y="-444.5" font-family="Helvetica,sans-Serif" font-size="10.00" fill="#000000">JS_Call</text>
</a>
</g>
</g>
<!-- Node399924&#45;&gt;Node399925 -->
<g id="edge1" class="edge">
<title>Node399924&#45;&gt;Node399925</title>
<path fill="none" stroke="#191970" d="M56.4316,-190.7825C74.1854,-229.9735 140.35,-376.0299 164.0157,-428.2711"/>
<polygon fill="#191970" stroke="#191970" points="160.8406,-429.7443 168.1552,-437.409 167.2169,-426.8558 160.8406,-429.7443"/>
</g>
<!-- Node399979 -->
<g id="node10" class="node">
<title>Node399979</title>
<g id="a_node10"><a xlink:href="quickjs_8h.html#afaa20c47565bc704c6c85f3d77254e7d" target="_top" xlink:title="JS_FreeValue">
<polygon fill="none" stroke="#ff0000" points="763,-608.5 763,-627.5 841,-627.5 841,-608.5 763,-608.5"/>
<text text-anchor="middle" x="802" y="-615.5" font-family="Helvetica,sans-Serif" font-size="10.00" fill="#000000">JS_FreeValue</text>
</a>
</g>
</g>
<!-- Node399924&#45;&gt;Node399979 -->
<g id="edge42" class="edge">
<title>Node399924&#45;&gt;Node399979</title>
<path fill="none" stroke="#191970" d="M62.0274,-171.435C95.0972,-140.9393 204.8359,-48 314,-48 314,-48 314,-48 497.5,-48 607.3904,-48 661.0976,-52.0638 727,-140 782.6975,-214.3194 798.1327,-516.8839 801.3046,-597.9416"/>
<polygon fill="#191970" stroke="#191970" points="797.8182,-598.3769 801.6869,-608.2402 804.8134,-598.1172 797.8182,-598.3769"/>
</g>
<!-- Node399997 -->
<g id="node11" class="node">
<title>Node399997</title>
<g id="a_node11"><a xlink:href="quickjs_8h.html#ad80a83d73e9b7d872b88fbf2943aebe9" target="_top" xlink:title="JS_IsException">
<polygon fill="none" stroke="#000000" points="624.5,-931.5 624.5,-950.5 710.5,-950.5 710.5,-931.5 624.5,-931.5"/>
<text text-anchor="middle" x="667.5" y="-938.5" font-family="Helvetica,sans-Serif" font-size="10.00" fill="#000000">JS_IsException</text>
</a>
</g>
</g>
<!-- Node399924&#45;&gt;Node399997 -->
<g id="edge50" class="edge">
<title>Node399924&#45;&gt;Node399997</title>
<path fill="none" stroke="#191970" d="M52.1518,-190.8147C53.2861,-245.0078 62.7378,-512.4461 140,-712 169.8219,-789.0245 189.5014,-803.4243 241,-868 313.311,-958.673 316.1551,-1009.893 423,-1055 484.0083,-1080.756 511.9936,-1083.011 572,-1055 583.1257,-1049.8065 630.4462,-989.3878 654.0289,-958.6825"/>
<polygon fill="#191970" stroke="#191970" points="656.9626,-960.608 660.2611,-950.5397 651.4039,-956.3535 656.9626,-960.608"/>
</g>
<!-- Node400049 -->
<g id="node22" class="node">
<title>Node400049</title>
<g id="a_node22"><a xlink:href="quickjs_8h.html#a4e407128a9605afb77523e49e9a627fd" target="_top" xlink:title="JS_IsUndefined">
<polygon fill="none" stroke="#000000" points="454.5,-114.5 454.5,-133.5 540.5,-133.5 540.5,-114.5 454.5,-114.5"/>
<text text-anchor="middle" x="497.5" y="-121.5" font-family="Helvetica,sans-Serif" font-size="10.00" fill="#000000">JS_IsUndefined</text>
</a>
</g>
</g>
<!-- Node399924&#45;&gt;Node400049 -->
<g id="edge51" class="edge">
<title>Node399924&#45;&gt;Node400049</title>
<path fill="none" stroke="#191970" d="M104.4145,-174.2938C189.8402,-163.3639 358.172,-141.8265 444.1797,-130.8221"/>
<polygon fill="#191970" stroke="#191970" points="444.7743,-134.2747 454.2492,-129.5338 443.8858,-127.3313 444.7743,-134.2747"/>
</g>
<!-- Node400356 -->
<g id="node23" class="node">
<title>Node400356</title>
<g id="a_node23"><a xlink:href="quickjs_8c.html#a57a83f0615206965524d78bf89bbf777" target="_top" xlink:title="JS_DefinePropertyValueInt64">
<polygon fill="none" stroke="#000000" points="241,-171.5 241,-190.5 387,-190.5 387,-171.5 241,-171.5"/>
<text text-anchor="middle" x="314" y="-178.5" font-family="Helvetica,sans-Serif" font-size="10.00" fill="#000000">JS_DefinePropertyValueInt64</text>
</a>
</g>
</g>
<!-- Node399924&#45;&gt;Node400356 -->
<g id="edge36" class="edge">
<title>Node399924&#45;&gt;Node400356</title>
<path fill="none" stroke="#191970" d="M104.076,-181C140.1967,-181 189.0805,-181 230.5878,-181"/>
<polygon fill="#191970" stroke="#191970" points="230.6932,-184.5001 240.6932,-181 230.6931,-177.5001 230.6932,-184.5001"/>
</g>
<!-- Node400197 -->
<g id="node24" class="node">
<title>Node400197</title>
<g id="a_node24"><a xlink:href="quickjs_8h.html#a6acbc709e59969eac6775f9b253b438f" target="_top" xlink:title="JS_NewInt64">
<polygon fill="none" stroke="#000000" points="459.5,-76.5 459.5,-95.5 535.5,-95.5 535.5,-76.5 459.5,-76.5"/>
<text text-anchor="middle" x="497.5" y="-83.5" font-family="Helvetica,sans-Serif" font-size="10.00" fill="#000000">JS_NewInt64</text>
</a>
</g>
</g>
<!-- Node399924&#45;&gt;Node400197 -->
<g id="edge52" class="edge">
<title>Node399924&#45;&gt;Node400197</title>
<path fill="none" stroke="#191970" d="M96.756,-171.4561C181.1238,-153.4652 362.9783,-114.6859 449.661,-96.2014"/>
<polygon fill="#191970" stroke="#191970" points="450.4476,-99.6124 459.4978,-94.1037 448.9877,-92.7663 450.4476,-99.6124"/>
</g>
<!-- Node400357 -->
<g id="node25" class="node">
<title>Node400357</title>
<g id="a_node25"><a xlink:href="quickjs_8c.html#a5f848f76409193212a44e6221e430919" target="_top" xlink:title="js_get_length64">
<polygon fill="none" stroke="#000000" points="455,-874.5 455,-893.5 540,-893.5 540,-874.5 455,-874.5"/>
<text text-anchor="middle" x="497.5" y="-881.5" font-family="Helvetica,sans-Serif" font-size="10.00" fill="#000000">js_get_length64</text>
</a>
</g>
</g>
<!-- Node399924&#45;&gt;Node400357 -->
<g id="edge43" class="edge">
<title>Node399924&#45;&gt;Node400357</title>
<path fill="none" stroke="#191970" d="M53.385,-190.5446C64.2033,-263.7617 137.4842,-735.909 241,-827 297.4193,-876.6473 387.4502,-886.0008 444.4662,-886.3607"/>
<polygon fill="#191970" stroke="#191970" points="444.7229,-889.86 454.7126,-886.3309 444.7025,-882.8601 444.7229,-889.86"/>
</g>
<!-- Node400361 -->
<g id="node27" class="node">
<title>Node400361</title>
<g id="a_node27"><a xlink:href="quickjs_8c.html#a1fc2c29e89230a9792fd36ae50b270e4" target="_top" xlink:title="JS_IsArray">
<polygon fill="none" stroke="#000000" points="140,-.5 140,-19.5 205,-19.5 205,-.5 140,-.5"/>
<text text-anchor="middle" x="172.5" y="-7.5" font-family="Helvetica,sans-Serif" font-size="10.00" fill="#000000">JS_IsArray</text>
</a>
</g>
</g>
<!-- Node399924&#45;&gt;Node400361 -->
<g id="edge48" class="edge">
<title>Node399924&#45;&gt;Node400361</title>
<path fill="none" stroke="#191970" d="M56.2065,-171.1977C67.2407,-146.2529 99.0169,-79.149 140,-34 142.6047,-31.1306 145.5988,-28.3818 148.6931,-25.8353"/>
<polygon fill="#191970" stroke="#191970" points="151.0482,-28.4428 156.9186,-19.623 146.8294,-22.8569 151.0482,-28.4428"/>
</g>
<!-- Node400363 -->
<g id="node29" class="node">
<title>Node400363</title>
<g id="a_node29"><a xlink:href="quickjs_8c.html#a14674e74168715dc5a3a391910982e5d" target="_top" xlink:title="JS_TryGetPropertyInt64">
<polygon fill="none" stroke="#000000" points="253,-798.5 253,-817.5 375,-817.5 375,-798.5 253,-798.5"/>
<text text-anchor="middle" x="314" y="-805.5" font-family="Helvetica,sans-Serif" font-size="10.00" fill="#000000">JS_TryGetPropertyInt64</text>
</a>
</g>
</g>
<!-- Node399924&#45;&gt;Node400363 -->
<g id="edge53" class="edge">
<title>Node399924&#45;&gt;Node400363</title>
<path fill="none" stroke="#191970" d="M54.3139,-190.5528C63.2858,-227.048 97.4023,-360.897 140,-466 191.9614,-594.2064 274.1129,-739.4495 303.2873,-789.7337"/>
<polygon fill="#191970" stroke="#191970" points="300.3319,-791.6138 308.3912,-798.4912 306.3798,-788.0891 300.3319,-791.6138"/>
</g>
<!-- Node399926 -->
<g id="node3" class="node">
<title>Node399926</title>
<g id="a_node3"><a xlink:href="quickjs_8c.html#ac2894ff4edcdb4e6841bcce9c76081e3" target="_top" xlink:title="JS_CallInternal">
<polygon fill="none" stroke="#ff0000" points="272.5,-437.5 272.5,-456.5 355.5,-456.5 355.5,-437.5 272.5,-437.5"/>
<text text-anchor="middle" x="314" y="-444.5" font-family="Helvetica,sans-Serif" font-size="10.00" fill="#000000">JS_CallInternal</text>
</a>
</g>
</g>
<!-- Node399925&#45;&gt;Node399926 -->
<g id="edge2" class="edge">
<title>Node399925&#45;&gt;Node399926</title>
<path fill="none" stroke="#191970" d="M198.1246,-441.6599C216.0004,-440.3463 240.4723,-439.9506 262.3217,-440.4729"/>
<polygon fill="#191970" stroke="#191970" points="262.3641,-443.9758 272.4687,-440.7901 262.5829,-436.9792 262.3641,-443.9758"/>
</g>
<!-- Node399926&#45;&gt;Node399925 -->
<g id="edge17" class="edge">
<title>Node399926&#45;&gt;Node399925</title>
<path fill="none" stroke="#191970" d="M272.4687,-453.2099C252.0574,-454.0082 227.7101,-453.9215 208.1538,-452.9498"/>
<polygon fill="#191970" stroke="#191970" points="208.3186,-449.4534 198.1246,-452.3401 207.8937,-456.4405 208.3186,-449.4534"/>
</g>
<!-- Node399926&#45;&gt;Node399926 -->
<g id="edge18" class="edge">
<title>Node399926&#45;&gt;Node399926</title>
<path fill="none" stroke="#191970" d="M292.4219,-456.7571C281.9245,-465.5653 289.1172,-475 314,-475 329.9406,-475 338.6211,-471.128 340.0416,-466.0292"/>
<polygon fill="#191970" stroke="#191970" points="343.0692,-464.2493 335.5781,-456.7571 336.762,-467.2855 343.0692,-464.2493"/>
</g>
<!-- Node399927 -->
<g id="node4" class="node">
<title>Node399927</title>
<g id="a_node4"><a xlink:href="quickjs_8c.html#a853f0924d441ea4225488f37c8b69f9a" target="_top" xlink:title="__attribute__">
<polygon fill="none" stroke="#000000" points="461,-342.5 461,-361.5 534,-361.5 534,-342.5 461,-342.5"/>
<text text-anchor="middle" x="497.5" y="-349.5" font-family="Helvetica,sans-Serif" font-size="10.00" fill="#000000">__attribute__</text>
</a>
</g>
</g>
<!-- Node399926&#45;&gt;Node399927 -->
<g id="edge3" class="edge">
<title>Node399926&#45;&gt;Node399927</title>
<path fill="none" stroke="#191970" d="M324.9382,-437.3261C343.6944,-421.2318 383.7748,-388.956 423,-371 431.8276,-366.959 441.653,-363.6805 451.1965,-361.0574"/>
<polygon fill="#191970" stroke="#191970" points="452.1636,-364.4229 460.9862,-358.5567 450.431,-357.6406 452.1636,-364.4229"/>
</g>
<!-- Node399928 -->
<g id="node5" class="node">
<title>Node399928</title>
<g id="a_node5"><a xlink:href="quickjs_8c.html#a877fcb7651d95b411ce70e62b7f4a1f0" target="_top" xlink:title="__JS_AtomFromUInt32">
<polygon fill="none" stroke="#000000" points="608,-1026.5 608,-1045.5 727,-1045.5 727,-1026.5 608,-1026.5"/>
<text text-anchor="middle" x="667.5" y="-1033.5" font-family="Helvetica,sans-Serif" font-size="10.00" fill="#000000">__JS_AtomFromUInt32</text>
</a>
</g>
</g>
<!-- Node399926&#45;&gt;Node399928 -->
<g id="edge4" class="edge">
<title>Node399926&#45;&gt;Node399928</title>
<path fill="none" stroke="#191970" d="M316.0989,-456.8736C330.5509,-524.7845 414.9796,-920.3185 423,-930 467.4797,-983.6918 544.3205,-1010.9027 600.0078,-1024.2037"/>
<polygon fill="#191970" stroke="#191970" points="599.2683,-1027.6249 609.798,-1026.4518 600.835,-1020.8024 599.2683,-1027.6249"/>
</g>
<!-- Node399929 -->
<g id="node6" class="node">
<title>Node399929</title>
<g id="a_node6"><a xlink:href="quickjs_8h.html#a9bf98b18de88b4199910a43e933eb97d" target="_top" xlink:title="__JS_NewFloat64">
<polygon fill="none" stroke="#000000" points="619,-190.5 619,-209.5 716,-209.5 716,-190.5 619,-190.5"/>
<text text-anchor="middle" x="667.5" y="-197.5" font-family="Helvetica,sans-Serif" font-size="10.00" fill="#000000">__JS_NewFloat64</text>
</a>
</g>
</g>
<!-- Node399926&#45;&gt;Node399929 -->
<g id="edge5" class="edge">
<title>Node399926&#45;&gt;Node399929</title>
<path fill="none" stroke="#191970" d="M315.6802,-437.2578C322.1957,-402.7121 349.2016,-285.344 423,-233 477.0431,-194.6681 555.0461,-190.6114 608.3216,-193.4039"/>
<polygon fill="#191970" stroke="#191970" points="608.4344,-196.9176 618.6326,-194.0456 608.8693,-189.9311 608.4344,-196.9176"/>
</g>
<!-- Node399930 -->
<g id="node7" class="node">
<title>Node399930</title>
<g id="a_node7"><a xlink:href="quickjs_8c.html#a74547db03bf739a52c83a326b32db997" target="_top" xlink:title="add_property">
<polygon fill="none" stroke="#ff0000" points="461,-418.5 461,-437.5 534,-437.5 534,-418.5 461,-418.5"/>
<text text-anchor="middle" x="497.5" y="-425.5" font-family="Helvetica,sans-Serif" font-size="10.00" fill="#000000">add_property</text>
</a>
</g>
</g>
<!-- Node399926&#45;&gt;Node399930 -->
<g id="edge6" class="edge">
<title>Node399926&#45;&gt;Node399930</title>
<path fill="none" stroke="#191970" d="M355.639,-442.6886C384.016,-439.7504 421.6183,-435.857 450.9795,-432.8168"/>
<polygon fill="#191970" stroke="#191970" points="451.4063,-436.2915 460.9926,-431.7801 450.6853,-429.3287 451.4063,-436.2915"/>
</g>
<!-- Node399987 -->
<g id="node8" class="node">
<title>Node399987</title>
<g id="a_node8"><a xlink:href="quickjs_8c.html#a4956f45ffd2849b96dc051277264f87a" target="_top" xlink:title="build_arg_list">
<polygon fill="none" stroke="#ff0000" points="460.5,-722.5 460.5,-741.5 534.5,-741.5 534.5,-722.5 460.5,-722.5"/>
<text text-anchor="middle" x="497.5" y="-729.5" font-family="Helvetica,sans-Serif" font-size="10.00" fill="#000000">build_arg_list</text>
</a>
</g>
</g>
<!-- Node399926&#45;&gt;Node399987 -->
<g id="edge7" class="edge">
<title>Node399926&#45;&gt;Node399987</title>
<path fill="none" stroke="#191970" d="M317.089,-456.7205C327.7901,-489.3691 365.7805,-597.1316 423,-670 437.468,-688.4248 458.2328,-705.1461 474.167,-716.5676"/>
<polygon fill="#191970" stroke="#191970" points="472.247,-719.4957 482.4516,-722.3448 476.251,-713.7539 472.247,-719.4957"/>
</g>
<!-- Node399988 -->
<g id="node9" class="node">
<title>Node399988</title>
<g id="a_node9"><a xlink:href="quickjs_8c.html#ac864482356b3efc2d0b0a509fcfa4c7c" target="_top" xlink:title="free_arg_list">
<polygon fill="none" stroke="#ff0000" points="632.5,-646.5 632.5,-665.5 702.5,-665.5 702.5,-646.5 632.5,-646.5"/>
<text text-anchor="middle" x="667.5" y="-653.5" font-family="Helvetica,sans-Serif" font-size="10.00" fill="#000000">free_arg_list</text>
</a>
</g>
</g>
<!-- Node399926&#45;&gt;Node399988 -->
<g id="edge15" class="edge">
<title>Node399926&#45;&gt;Node399988</title>
<path fill="none" stroke="#191970" d="M316.174,-456.6975C323.9815,-488.9913 353.8903,-593.3096 423,-637 483.5602,-675.2856 570.1523,-671.4472 622.3837,-664.3217"/>
<polygon fill="#191970" stroke="#191970" points="622.9654,-667.774 632.354,-662.8643 621.9529,-660.8476 622.9654,-667.774"/>
</g>
<!-- Node399926&#45;&gt;Node399979 -->
<g id="edge23" class="edge">
<title>Node399926&#45;&gt;Node399979</title>
<path fill="none" stroke="#191970" d="M338.8431,-456.5986C360.7645,-464.8421 393.697,-476.6783 423,-485 556.9717,-523.0464 602.2223,-499.1414 727,-561 748.3129,-571.5659 769.6186,-588.5262 784.045,-601.2036"/>
<polygon fill="#191970" stroke="#191970" points="781.9197,-603.9998 791.6922,-608.0923 786.6048,-598.7988 781.9197,-603.9998"/>
</g>
<!-- Node399926&#45;&gt;Node399997 -->
<g id="edge33" class="edge">
<title>Node399926&#45;&gt;Node399997</title>
<path fill="none" stroke="#191970" d="M315.9733,-456.5749C329.2488,-520.8019 405.5388,-886.8899 423,-903 436.8517,-915.7799 546.6096,-928.8955 614.2747,-935.8809"/>
<polygon fill="#191970" stroke="#191970" points="614.0405,-939.3751 624.3439,-936.9073 614.7504,-932.4112 614.0405,-939.3751"/>
</g>
<!-- Node400084 -->
<g id="node12" class="node">
<title>Node400084</title>
<g id="a_node12"><a xlink:href="quickjs_8c.html#a61c8dfb5e807af1b6ff7d8ca61576dda" target="_top" xlink:title="build_backtrace">
<polygon fill="none" stroke="#ff0000" points="455,-304.5 455,-323.5 540,-323.5 540,-304.5 455,-304.5"/>
<text text-anchor="middle" x="497.5" y="-311.5" font-family="Helvetica,sans-Serif" font-size="10.00" fill="#000000">build_backtrace</text>
</a>
</g>
</g>
<!-- Node399926&#45;&gt;Node400084 -->
<g id="edge11" class="edge">
<title>Node399926&#45;&gt;Node400084</title>
<path fill="none" stroke="#191970" d="M320.3511,-437.3198C335.3848,-415.2081 375.4774,-360.7654 423,-333 429.807,-329.023 437.4386,-325.8697 445.152,-323.3718"/>
<polygon fill="#191970" stroke="#191970" points="446.2786,-326.6894 454.9101,-320.5455 444.3311,-319.9657 446.2786,-326.6894"/>
</g>
<!-- Node399998 -->
<g id="node13" class="node">
<title>Node399998</title>
<g id="a_node13"><a xlink:href="quickjs_8h.html#a2050bc428da1c65ac7eb87c3fa3b0392" target="_top" xlink:title="JS_NewInt32">
<polygon fill="none" stroke="#000000" points="629.5,-304.5 629.5,-323.5 705.5,-323.5 705.5,-304.5 629.5,-304.5"/>
<text text-anchor="middle" x="667.5" y="-311.5" font-family="Helvetica,sans-Serif" font-size="10.00" fill="#000000">JS_NewInt32</text>
</a>
</g>
</g>
<!-- Node399926&#45;&gt;Node399998 -->
<g id="edge35" class="edge">
<title>Node399926&#45;&gt;Node399998</title>
<path fill="none" stroke="#191970" d="M316.0477,-437.0938C323.4556,-404.14 352.2485,-297.9784 423,-257 480.3045,-223.81 508.1603,-239.3969 572,-257 600.7933,-264.9394 629.6586,-284.0957 647.9959,-298.0145"/>
<polygon fill="#191970" stroke="#191970" points="646.0718,-300.9529 656.1058,-304.3545 650.3832,-295.4381 646.0718,-300.9529"/>
</g>
<!-- Node400172 -->
<g id="node14" class="node">
<title>Node400172</title>
<g id="a_node14"><a xlink:href="quickjs_8c.html#a344894112559c2ba75043fd10bcfa02f" target="_top" xlink:title="close_lexical_var">
<polygon fill="none" stroke="#ff0000" points="451.5,-380.5 451.5,-399.5 543.5,-399.5 543.5,-380.5 451.5,-380.5"/>
<text text-anchor="middle" x="497.5" y="-387.5" font-family="Helvetica,sans-Serif" font-size="10.00" fill="#000000">close_lexical_var</text>
</a>
</g>
</g>
<!-- Node399926&#45;&gt;Node400172 -->
<g id="edge13" class="edge">
<title>Node399926&#45;&gt;Node400172</title>
<path fill="none" stroke="#191970" d="M339.3452,-437.4709C361.3084,-429.3805 394.0247,-417.7281 423,-409 430.9051,-406.6188 439.3392,-404.2791 447.5853,-402.0999"/>
<polygon fill="#191970" stroke="#191970" points="448.7004,-405.4266 457.5022,-399.5293 446.9439,-398.6505 448.7004,-405.4266"/>
</g>
<!-- Node400173 -->
<g id="node15" class="node">
<title>Node400173</title>
<g id="a_node15"><a xlink:href="quickjs_8c.html#a1782043fce951bd4f0d91c7796b31e24" target="_top" xlink:title="close_var_refs">
<polygon fill="none" stroke="#ff0000" points="457.5,-266.5 457.5,-285.5 537.5,-285.5 537.5,-266.5 457.5,-266.5"/>
<text text-anchor="middle" x="497.5" y="-273.5" font-family="Helvetica,sans-Serif" font-size="10.00" fill="#000000">close_var_refs</text>
</a>
</g>
</g>
<!-- Node399926&#45;&gt;Node400173 -->
<g id="edge14" class="edge">
<title>Node399926&#45;&gt;Node400173</title>
<path fill="none" stroke="#191970" d="M318.0058,-437.3815C329.7705,-410.3654 366.9554,-333.2761 423,-295 430.368,-289.968 438.9675,-286.2684 447.6531,-283.5485"/>
<polygon fill="#191970" stroke="#191970" points="448.7114,-286.8877 457.4349,-280.8751 446.866,-280.1353 448.7114,-286.8877"/>
</g>
<!-- Node399976 -->
<g id="node16" class="node">
<title>Node399976</title>
<g id="a_node16"><a xlink:href="quickjs_8c.html#a9e7b4bccf927d811b0f99b40b08c0472" target="_top" xlink:title="free_var_ref">
<polygon fill="none" stroke="#ff0000" points="463.5,-456.5 463.5,-475.5 531.5,-475.5 531.5,-456.5 463.5,-456.5"/>
<text text-anchor="middle" x="497.5" y="-463.5" font-family="Helvetica,sans-Serif" font-size="10.00" fill="#000000">free_var_ref</text>
</a>
</g>
</g>
<!-- Node399926&#45;&gt;Node399976 -->
<g id="edge16" class="edge">
<title>Node399926&#45;&gt;Node399976</title>
<path fill="none" stroke="#191970" d="M355.639,-451.3114C384.7727,-454.328 423.6304,-458.3514 453.3105,-461.4245"/>
<polygon fill="#191970" stroke="#191970" points="453.0877,-464.9201 463.395,-462.4687 453.8087,-457.9573 453.0877,-464.9201"/>
</g>
<!-- Node400196 -->
<g id="node17" class="node">
<title>Node400196</title>
<g id="a_node17"><a xlink:href="quickjs_8c.html#a0c61bd5a64c743e81188bb528b78e715" target="_top" xlink:title="JS_DefinePropertyValueValue">
<polygon fill="none" stroke="#ff0000" points="423,-152.5 423,-171.5 572,-171.5 572,-152.5 423,-152.5"/>
<text text-anchor="middle" x="497.5" y="-159.5" font-family="Helvetica,sans-Serif" font-size="10.00" fill="#000000">JS_DefinePropertyValueValue</text>
</a>
</g>
</g>
<!-- Node399926&#45;&gt;Node400196 -->
<g id="edge19" class="edge">
<title>Node399926&#45;&gt;Node400196</title>
<path fill="none" stroke="#191970" d="M315.1422,-437.3052C320.1334,-399.3192 343.4717,-259.1168 423,-186 427.4218,-181.9347 432.5378,-178.5577 437.9763,-175.7526"/>
<polygon fill="#191970" stroke="#191970" points="439.6691,-178.8297 447.368,-171.5511 436.8105,-172.4399 439.6691,-178.8297"/>
</g>
<!-- Node399978 -->
<g id="node18" class="node">
<title>Node399978</title>
<g id="a_node18"><a xlink:href="quickjs_8c.html#ab7fc45a99935a1c0ba50b0216d9401a9" target="_top" xlink:title="JS_FreeAtom">
<polygon fill="none" stroke="#ff0000" points="629,-570.5 629,-589.5 706,-589.5 706,-570.5 629,-570.5"/>
<text text-anchor="middle" x="667.5" y="-577.5" font-family="Helvetica,sans-Serif" font-size="10.00" fill="#000000">JS_FreeAtom</text>
</a>
</g>
</g>
<!-- Node399926&#45;&gt;Node399978 -->
<g id="edge22" class="edge">
<title>Node399926&#45;&gt;Node399978</title>
<path fill="none" stroke="#191970" d="M325.9836,-456.7331C345.2797,-471.9431 384.9365,-501.3276 423,-518 487.9215,-546.4366 568.4817,-563.6985 618.9566,-572.5491"/>
<polygon fill="#191970" stroke="#191970" points="618.4982,-576.0215 628.9455,-574.2595 619.6797,-569.1219 618.4982,-576.0215"/>
</g>
<!-- Node399990 -->
<g id="node19" class="node">
<title>Node399990</title>
<g id="a_node19"><a xlink:href="quickjs_8h.html#a89b7c8686c7eee70b86be722ee4730ad" target="_top" xlink:title="JS_GetProperty">
<polygon fill="none" stroke="#ff0000" points="624.5,-836.5 624.5,-855.5 710.5,-855.5 710.5,-836.5 624.5,-836.5"/>
<text text-anchor="middle" x="667.5" y="-843.5" font-family="Helvetica,sans-Serif" font-size="10.00" fill="#000000">JS_GetProperty</text>
</a>
</g>
</g>
<!-- Node399926&#45;&gt;Node399990 -->
<g id="edge24" class="edge">
<title>Node399926&#45;&gt;Node399990</title>
<path fill="none" stroke="#191970" d="M314.3561,-456.6581C316.4452,-498.633 330.5098,-666.867 423,-751 473.5551,-796.987 508.892,-762.7703 572,-789 598.8144,-800.1449 627.0821,-817.8668 645.8417,-830.592"/>
<polygon fill="#191970" stroke="#191970" points="644.0206,-833.5878 654.2391,-836.3868 647.9964,-827.8264 644.0206,-833.5878"/>
</g>
<!-- Node400056 -->
<g id="node20" class="node">
<title>Node400056</title>
<g id="a_node20"><a xlink:href="quickjs_8c.html#a90d6e607f6917d817c1e997bd2e6ed07" target="_top" xlink:title="JS_GetPropertyValue">
<polygon fill="none" stroke="#ff0000" points="442,-608.5 442,-627.5 553,-627.5 553,-608.5 442,-608.5"/>
<text text-anchor="middle" x="497.5" y="-615.5" font-family="Helvetica,sans-Serif" font-size="10.00" fill="#000000">JS_GetPropertyValue</text>
</a>
</g>
</g>
<!-- Node399926&#45;&gt;Node400056 -->
<g id="edge25" class="edge">
<title>Node399926&#45;&gt;Node400056</title>
<path fill="none" stroke="#191970" d="M318.3954,-456.5037C330.9055,-482.5136 369.3002,-555.4842 423,-594 428.9972,-598.3015 435.803,-601.858 442.8044,-604.7921"/>
<polygon fill="#191970" stroke="#191970" points="441.8237,-608.1629 452.4154,-608.4188 444.2951,-601.6136 441.8237,-608.1629"/>
</g>
<!-- Node400228 -->
<g id="node21" class="node">
<title>Node400228</title>
<g id="a_node21"><a xlink:href="quickjs_8c.html#a9d6d0a9704951d01c128975e0d2213f8" target="_top" xlink:title="JS_HasProperty">
<polygon fill="none" stroke="#ff0000" points="453,-798.5 453,-817.5 542,-817.5 542,-798.5 453,-798.5"/>
<text text-anchor="middle" x="497.5" y="-805.5" font-family="Helvetica,sans-Serif" font-size="10.00" fill="#000000">JS_HasProperty</text>
</a>
</g>
</g>
<!-- Node399926&#45;&gt;Node400228 -->
<g id="edge31" class="edge">
<title>Node399926&#45;&gt;Node400228</title>
<path fill="none" stroke="#191970" d="M315.912,-456.7624C325.8997,-506.8524 373.5116,-734.5696 423,-784 428.6784,-789.6717 435.7022,-794.0039 443.1482,-797.3127"/>
<polygon fill="#191970" stroke="#191970" points="442.1458,-800.6765 452.7363,-800.9802 444.6468,-794.1385 442.1458,-800.6765"/>
</g>
<!-- Node399926&#45;&gt;Node400049 -->
<g id="edge34" class="edge">
<title>Node399926&#45;&gt;Node400049</title>
<path fill="none" stroke="#191970" d="M316.209,-437.2105C327.0655,-389.9168 376.1328,-185.6324 423,-143 429.1072,-137.4446 436.6123,-133.4645 444.4831,-130.6229"/>
<polygon fill="#191970" stroke="#191970" points="445.6334,-133.9317 454.1959,-127.6919 443.6111,-127.2302 445.6334,-133.9317"/>
</g>
<!-- Node399987&#45;&gt;Node399988 -->
<g id="edge8" class="edge">
<title>Node399987&#45;&gt;Node399988</title>
<path fill="none" stroke="#191970" d="M531.7403,-722.4404C544.5643,-718.479 559.1367,-713.5165 572,-708 597.0839,-697.2427 624.2941,-682.051 643.2289,-670.8644"/>
<polygon fill="#191970" stroke="#191970" points="645.2817,-673.7149 652.0672,-665.5781 641.6885,-667.7075 645.2817,-673.7149"/>
</g>
<!-- Node399987&#45;&gt;Node399997 -->
<g id="edge10" class="edge">
<title>Node399987&#45;&gt;Node399997</title>
<path fill="none" stroke="#191970" d="M515.7191,-741.5895C532.6218,-751.3729 557.3153,-768.0693 572,-789 602.516,-832.4958 575.669,-860.8358 608,-903 615.4413,-912.7045 626.1201,-920.6166 636.3826,-926.6594"/>
<polygon fill="#191970" stroke="#191970" points="634.7496,-929.7556 645.2021,-931.4866 638.1105,-923.6151 634.7496,-929.7556"/>
</g>
<!-- Node399988&#45;&gt;Node399979 -->
<g id="edge9" class="edge">
<title>Node399988&#45;&gt;Node399979</title>
<path fill="none" stroke="#191970" d="M701.44,-646.411C718.7231,-641.5281 739.9329,-635.5357 758.4112,-630.315"/>
<polygon fill="#191970" stroke="#191970" points="759.3992,-633.673 768.0708,-627.5859 757.4959,-626.9367 759.3992,-633.673"/>
</g>
<!-- Node400084&#45;&gt;Node399998 -->
<g id="edge12" class="edge">
<title>Node400084&#45;&gt;Node399998</title>
<path fill="none" stroke="#191970" d="M540.3982,-314C564.3246,-314 594.2054,-314 618.9821,-314"/>
<polygon fill="#191970" stroke="#191970" points="619.256,-317.5001 629.256,-314 619.256,-310.5001 619.256,-317.5001"/>
</g>
<!-- Node400196&#45;&gt;Node399979 -->
<g id="edge21" class="edge">
<title>Node400196&#45;&gt;Node399979</title>
<path fill="none" stroke="#191970" d="M535.5293,-152.4804C586.0998,-142.31 675.1191,-133.4648 727,-181 789.4876,-238.2535 799.9671,-520.3265 801.6761,-598.1071"/>
<polygon fill="#191970" stroke="#191970" points="798.1826,-598.4822 801.8758,-608.4125 805.1813,-598.3465 798.1826,-598.4822"/>
</g>
<!-- Node400196&#45;&gt;Node399978 -->
<g id="edge20" class="edge">
<title>Node400196&#45;&gt;Node399978</title>
<path fill="none" stroke="#191970" d="M507.1555,-171.6531C522.8977,-187.9027 554.1271,-222.3533 572,-257 627.322,-364.2418 655.509,-508.469 664.3604,-560.3715"/>
<polygon fill="#191970" stroke="#191970" points="660.9104,-560.9617 665.9996,-570.2542 667.816,-559.8163 660.9104,-560.9617"/>
</g>
<!-- Node400056&#45;&gt;Node399929 -->
<g id="edge26" class="edge">
<title>Node400056&#45;&gt;Node399929</title>
<path fill="none" stroke="#191970" d="M504.4807,-608.1959C519.3155,-586.8754 554.084,-534.2449 572,-485 601.3845,-404.2323 576.6481,-375.0245 608,-295 619.4083,-265.8807 639.9405,-235.8843 653.6459,-217.5868"/>
<polygon fill="#191970" stroke="#191970" points="656.4601,-219.6686 659.7558,-209.5993 650.9002,-215.4156 656.4601,-219.6686"/>
</g>
<!-- Node400056&#45;&gt;Node399979 -->
<g id="edge28" class="edge">
<title>Node400056&#45;&gt;Node399979</title>
<path fill="none" stroke="#191970" d="M553.35,-618C610.4492,-618 698.2787,-618 752.8266,-618"/>
<polygon fill="#191970" stroke="#191970" points="752.9415,-621.5001 762.9415,-618 752.9414,-614.5001 752.9415,-621.5001"/>
</g>
<!-- Node400056&#45;&gt;Node399998 -->
<g id="edge30" class="edge">
<title>Node400056&#45;&gt;Node399998</title>
<path fill="none" stroke="#191970" d="M513.1823,-608.3962C529.799,-597.5152 555.8245,-578.3588 572,-556 624.849,-482.9488 653.3462,-376.6761 663.3345,-333.4117"/>
<polygon fill="#191970" stroke="#191970" points="666.7598,-334.1319 665.526,-323.6092 659.9285,-332.6046 666.7598,-334.1319"/>
</g>
<!-- Node400056&#45;&gt;Node399978 -->
<g id="edge27" class="edge">
<title>Node400056&#45;&gt;Node399978</title>
<path fill="none" stroke="#191970" d="M540.3982,-608.411C564.345,-603.0582 594.2563,-596.3721 619.0454,-590.831"/>
<polygon fill="#191970" stroke="#191970" points="619.9752,-594.2096 628.9709,-588.6124 618.4481,-587.3782 619.9752,-594.2096"/>
</g>
<!-- Node400056&#45;&gt;Node399990 -->
<g id="edge29" class="edge">
<title>Node400056&#45;&gt;Node399990</title>
<path fill="none" stroke="#191970" d="M505.2512,-627.6051C518.9455,-644.6359 548.2195,-681.3181 572,-713 602.3962,-753.4957 636.7282,-802.028 654.803,-827.8076"/>
<polygon fill="#191970" stroke="#191970" points="652.0881,-830.0325 660.6892,-836.2189 657.8233,-826.019 652.0881,-830.0325"/>
</g>
<!-- Node400228&#45;&gt;Node399979 -->
<g id="edge32" class="edge">
<title>Node400228&#45;&gt;Node399979</title>
<path fill="none" stroke="#191970" d="M515.8167,-798.3958C555.3242,-777.4639 651.11,-725.5435 727,-675 746.4576,-662.0411 767.5698,-645.7822 782.4222,-633.9491"/>
<polygon fill="#191970" stroke="#191970" points="784.7809,-636.5438 790.3839,-627.5518 780.3963,-631.0871 784.7809,-636.5438"/>
</g>
<!-- Node400356&#45;&gt;Node400196 -->
<g id="edge37" class="edge">
<title>Node400356&#45;&gt;Node400196</title>
<path fill="none" stroke="#191970" d="M387.0513,-173.4361C395.528,-172.5584 404.227,-171.6577 412.8421,-170.7657"/>
<polygon fill="#191970" stroke="#191970" points="413.3123,-174.2358 422.8987,-169.7244 412.5913,-167.273 413.3123,-174.2358"/>
</g>
<!-- Node400356&#45;&gt;Node400197 -->
<g id="edge38" class="edge">
<title>Node400356&#45;&gt;Node400197</title>
<path fill="none" stroke="#191970" d="M358.3247,-171.49C368.3711,-168.0059 378.5555,-163.3063 387,-157 409.522,-140.1808 399.9199,-121.0447 423,-105 430.8903,-99.5149 440.2345,-95.6122 449.591,-92.8357"/>
<polygon fill="#191970" stroke="#191970" points="450.479,-96.2213 459.2854,-90.3309 448.7278,-89.4439 450.479,-96.2213"/>
</g>
<!-- Node400197&#45;&gt;Node399929 -->
<g id="edge40" class="edge">
<title>Node400197&#45;&gt;Node399929</title>
<path fill="none" stroke="#191970" d="M535.7505,-91.6653C547.8693,-94.5104 560.9719,-98.7406 572,-105 606.8575,-124.7845 637.8456,-160.6576 654.522,-182.2099"/>
<polygon fill="#191970" stroke="#191970" points="651.7535,-184.3517 660.5726,-190.2231 657.3399,-180.1335 651.7535,-184.3517"/>
</g>
<!-- Node400197&#45;&gt;Node399998 -->
<g id="edge39" class="edge">
<title>Node400197&#45;&gt;Node399998</title>
<path fill="none" stroke="#191970" d="M535.587,-88.2758C548.5404,-90.8276 562.2032,-95.7386 572,-105 610.6109,-141.5009 585.7195,-170.7642 608,-219 621.1246,-247.4139 641.2419,-277.6211 654.3858,-296.154"/>
<polygon fill="#191970" stroke="#191970" points="651.6995,-298.413 660.3833,-304.4828 657.38,-294.3225 651.6995,-298.413"/>
</g>
<!-- Node400357&#45;&gt;Node399997 -->
<g id="edge45" class="edge">
<title>Node400357&#45;&gt;Node399997</title>
<path fill="none" stroke="#191970" d="M527.6338,-893.5486C541.2125,-897.8922 557.4349,-903.1381 572,-908 591.334,-914.4538 612.7915,-921.8475 630.4616,-927.9983"/>
<polygon fill="#191970" stroke="#191970" points="629.7884,-931.4702 640.3832,-931.4596 632.0942,-924.8609 629.7884,-931.4702"/>
</g>
<!-- Node400357&#45;&gt;Node399990 -->
<g id="edge44" class="edge">
<title>Node400357&#45;&gt;Node399990</title>
<path fill="none" stroke="#191970" d="M540.3982,-874.411C563.0336,-869.3513 590.9982,-863.1004 614.9287,-857.7512"/>
<polygon fill="#191970" stroke="#191970" points="615.9147,-861.1173 624.9103,-855.5201 614.3876,-854.2859 615.9147,-861.1173"/>
</g>
<!-- Node400358 -->
<g id="node26" class="node">
<title>Node400358</title>
<g id="a_node26"><a xlink:href="quickjs_8c.html#a07acd485a57197356906928a788a0644" target="_top" xlink:title="JS_ToLengthFree">
<polygon fill="none" stroke="#ff0000" points="620.5,-874.5 620.5,-893.5 714.5,-893.5 714.5,-874.5 620.5,-874.5"/>
<text text-anchor="middle" x="667.5" y="-881.5" font-family="Helvetica,sans-Serif" font-size="10.00" fill="#000000">JS_ToLengthFree</text>
</a>
</g>
</g>
<!-- Node400357&#45;&gt;Node400358 -->
<g id="edge46" class="edge">
<title>Node400357&#45;&gt;Node400358</title>
<path fill="none" stroke="#191970" d="M540.3982,-884C561.5521,-884 587.3603,-884 610.1804,-884"/>
<polygon fill="#191970" stroke="#191970" points="610.4277,-887.5001 620.4277,-884 610.4276,-880.5001 610.4277,-887.5001"/>
</g>
<!-- Node400358&#45;&gt;Node399979 -->
<g id="edge47" class="edge">
<title>Node400358&#45;&gt;Node399979</title>
<path fill="none" stroke="#191970" d="M713.6833,-874.3918C718.6044,-871.9388 723.1937,-868.8612 727,-865 759.6086,-831.9218 788.5834,-690.4649 798.4291,-637.8314"/>
<polygon fill="#191970" stroke="#191970" points="801.9151,-638.2261 800.2813,-627.758 795.0305,-636.9602 801.9151,-638.2261"/>
</g>
<!-- Node400362 -->
<g id="node28" class="node">
<title>Node400362</title>
<g id="a_node28"><a xlink:href="quickjs_8c.html#a91b2b06caf6cc28b1edf48334b95b51a" target="_top" xlink:title="js_proxy_isArray">
<polygon fill="none" stroke="#ff0000" points="269.5,-.5 269.5,-19.5 358.5,-19.5 358.5,-.5 269.5,-.5"/>
<text text-anchor="middle" x="314" y="-7.5" font-family="Helvetica,sans-Serif" font-size="10.00" fill="#000000">js_proxy_isArray</text>
</a>
</g>
</g>
<!-- Node400361&#45;&gt;Node400362 -->
<g id="edge49" class="edge">
<title>Node400361&#45;&gt;Node400362</title>
<path fill="none" stroke="#191970" d="M205.3186,-10C221.2945,-10 240.934,-10 259.103,-10"/>
<polygon fill="#191970" stroke="#191970" points="259.3014,-13.5001 269.3014,-10 259.3013,-6.5001 259.3014,-13.5001"/>
</g>
<!-- Node400363&#45;&gt;Node399928 -->
<g id="edge54" class="edge">
<title>Node400363&#45;&gt;Node399928</title>
<path fill="none" stroke="#191970" d="M314.7117,-817.6765C318.1204,-856.103 336.4141,-998.5679 423,-1055 489.0726,-1098.0626 587.5415,-1068.8581 636.9295,-1049.423"/>
<polygon fill="#191970" stroke="#191970" points="638.4634,-1052.5777 646.4115,-1045.5721 635.8294,-1046.0922 638.4634,-1052.5777"/>
</g>
<!-- Node400363&#45;&gt;Node399997 -->
<g id="edge59" class="edge">
<title>Node400363&#45;&gt;Node399997</title>
<path fill="none" stroke="#191970" d="M318.6328,-817.792C331.1994,-843.0511 368.6751,-910.2307 423,-936 483.7764,-964.8296 562.9757,-959.8893 614.5149,-951.9365"/>
<polygon fill="#191970" stroke="#191970" points="615.1355,-955.3816 624.4402,-950.3149 614.0067,-948.4732 615.1355,-955.3816"/>
</g>
<!-- Node400363&#45;&gt;Node399998 -->
<g id="edge63" class="edge">
<title>Node400363&#45;&gt;Node399998</title>
<path fill="none" stroke="#191970" d="M317.2876,-798.3815C328.3371,-767.0402 366.6354,-666.0255 423,-599 476.6657,-535.1839 517.4271,-548.042 572,-485 613.971,-436.5156 645.9311,-366.6651 659.8525,-333.2407"/>
<polygon fill="#191970" stroke="#191970" points="663.191,-334.323 663.7284,-323.7418 656.7098,-331.6783 663.191,-334.323"/>
</g>
<!-- Node400363&#45;&gt;Node399978 -->
<g id="edge55" class="edge">
<title>Node400363&#45;&gt;Node399978</title>
<path fill="none" stroke="#191970" d="M323.2616,-798.5C341.2901,-780.3467 382.8587,-740.126 423,-713 484.5942,-671.3769 506.9362,-672.9586 572,-637 596.6889,-623.3553 624.3009,-606.7206 643.459,-594.9524"/>
<polygon fill="#191970" stroke="#191970" points="645.4615,-597.8295 652.135,-589.6006 641.7865,-591.8718 645.4615,-597.8295"/>
</g>
<!-- Node400363&#45;&gt;Node399990 -->
<g id="edge56" class="edge">
<title>Node400363&#45;&gt;Node399990</title>
<path fill="none" stroke="#191970" d="M362.6852,-817.505C381.473,-820.905 403.1787,-824.508 423,-827 488.4673,-835.2307 564.2745,-840.4592 613.91,-843.304"/>
<polygon fill="#191970" stroke="#191970" points="613.9109,-846.8095 624.0913,-843.8751 614.303,-839.8205 613.9109,-846.8095"/>
</g>
<!-- Node400363&#45;&gt;Node400056 -->
<g id="edge57" class="edge">
<title>Node400363&#45;&gt;Node400056</title>
<path fill="none" stroke="#191970" d="M321.4065,-798.1967C338.3107,-776.0815 381.4891,-721.0435 423,-680 439.9044,-663.286 460.8395,-646.1378 476.2086,-634.1248"/>
<polygon fill="#191970" stroke="#191970" points="478.7679,-636.5704 484.5419,-627.6872 474.4885,-631.0308 478.7679,-636.5704"/>
</g>
<!-- Node400363&#45;&gt;Node400228 -->
<g id="edge58" class="edge">
<title>Node400363&#45;&gt;Node400228</title>
<path fill="none" stroke="#191970" d="M375.1028,-808C396.9645,-808 421.4489,-808 442.7409,-808"/>
<polygon fill="#191970" stroke="#191970" points="442.9115,-811.5001 452.9114,-808 442.9114,-804.5001 442.9115,-811.5001"/>
</g>
<!-- Node400364 -->
<g id="node30" class="node">
<title>Node400364</title>
<g id="a_node30"><a xlink:href="quickjs_8c.html#aa641af3a921335927dab07dc83285917" target="_top" xlink:title="JS_NewAtomInt64">
<polygon fill="none" stroke="#ff0000" points="448,-1026.5 448,-1045.5 547,-1045.5 547,-1026.5 448,-1026.5"/>
<text text-anchor="middle" x="497.5" y="-1033.5" font-family="Helvetica,sans-Serif" font-size="10.00" fill="#000000">JS_NewAtomInt64</text>
</a>
</g>
</g>
<!-- Node400363&#45;&gt;Node400364 -->
<g id="edge60" class="edge">
<title>Node400363&#45;&gt;Node400364</title>
<path fill="none" stroke="#191970" d="M316.3932,-817.763C324.8939,-850.3837 356.7388,-956.6559 423,-1012 427.9963,-1016.1731 433.7315,-1019.6248 439.7542,-1022.4789"/>
<polygon fill="#191970" stroke="#191970" points="438.813,-1025.8782 449.3901,-1026.49 441.5031,-1019.4157 438.813,-1025.8782"/>
</g>
<!-- Node400364&#45;&gt;Node399928 -->
<g id="edge61" class="edge">
<title>Node400364&#45;&gt;Node399928</title>
<path fill="none" stroke="#191970" d="M547.128,-1036C562.8729,-1036 580.5886,-1036 597.488,-1036"/>
<polygon fill="#191970" stroke="#191970" points="597.88,-1039.5001 607.8799,-1036 597.8799,-1032.5001 597.88,-1039.5001"/>
</g>
<!-- Node400364&#45;&gt;Node399997 -->
<g id="edge62" class="edge">
<title>Node400364&#45;&gt;Node399997</title>
<path fill="none" stroke="#191970" d="M514.736,-1026.3681C544.5961,-1009.6816 606.1167,-975.3024 641.2956,-955.6437"/>
<polygon fill="#191970" stroke="#191970" points="643.449,-958.4497 650.4711,-950.5162 640.0342,-952.3391 643.449,-958.4497"/>
</g>
</g>
</svg>
        <g id="navigator" transform="translate(0 0)" fill="#404254">
                <rect fill="#f2f5e9" fill-opacity="0.5" stroke="#606060" stroke-width=".5" x="0" y="0" width="60" height="60"/>
                <use id="zoomplus" xlink:href="#zoomPlus" x="17" y="9" onmousedown="handleZoom(evt,'in')"/>
                <use id="zoomminus" xlink:href="#zoomMin" x="42" y="9" onmousedown="handleZoom(evt,'out')"/>
                <use id="reset" xlink:href="#resetDef" x="30" y="36" onmousedown="handleReset()"/>
                <g id="arrowUp" xlink:href="#dirArrow" transform="translate(30 24)" onmousedown="handlePan(0,-1)">
                  <use xlink:href="#rim" fill="#404040">
                        <set attributeName="fill" to="#808080" begin="arrowUp.mouseover" end="arrowUp.mouseout"/>
                  </use>
                  <path fill="none" stroke="white" stroke-width="1.5" d="M0,-3.0v7 M-2.5,-0.5L0,-3.0L2.5,-0.5"/>
                </g>
                <g id="arrowRight" xlink:href="#dirArrow" transform="rotate(90) translate(36 -43)" onmousedown="handlePan(1,0)">
                  <use xlink:href="#rim" fill="#404040">
                        <set attributeName="fill" to="#808080" begin="arrowRight.mouseover" end="arrowRight.mouseout"/>
                  </use>
                  <path fill="none" stroke="white" stroke-width="1.5" d="M0,-3.0v7 M-2.5,-0.5L0,-3.0L2.5,-0.5"/>
                </g>
                <g id="arrowDown" xlink:href="#dirArrow" transform="rotate(180) translate(-30 -48)" onmousedown="handlePan(0,1)">
                  <use xlink:href="#rim" fill="#404040">
                        <set attributeName="fill" to="#808080" begin="arrowDown.mouseover" end="arrowDown.mouseout"/>
                  </use>
                  <path fill="none" stroke="white" stroke-width="1.5" d="M0,-3.0v7 M-2.5,-0.5L0,-3.0L2.5,-0.5"/>
                </g>
                <g id="arrowLeft" xlink:href="#dirArrow" transform="rotate(270) translate(-36 17)" onmousedown="handlePan(-1,0)">
                  <use xlink:href="#rim" fill="#404040">
                        <set attributeName="fill" to="#808080" begin="arrowLeft.mouseover" end="arrowLeft.mouseout"/>
                  </use>
                  <path fill="none" stroke="white" stroke-width="1.5" d="M0,-3.0v7 M-2.5,-0.5L0,-3.0L2.5,-0.5"/>
                </g>
        </g>
        <svg viewBox="0 0 15 15" width="100%" height="30px" preserveAspectRatio="xMaxYMin meet">
         <g id="arrow_out" transform="scale(0.3 0.3)">
          <a xlink:href="quickjs_8c_ad90c33b4aae1181151bda4a98ac2ef23_cgraph_org.svg" target="_base">
           <rect id="button" ry="5" rx="5" y="6" x="6" height="38" width="38"
                fill="#f2f5e9" fill-opacity="0.5" stroke="#606060" stroke-width="1.0"/>
           <path id="arrow"
             d="M 11.500037,31.436501 C 11.940474,20.09759 22.043105,11.32322 32.158766,21.979434 L 37.068811,17.246167 C 37.068811,17.246167 37.088388,32 37.088388,32 L 22.160133,31.978069 C 22.160133,31.978069 26.997745,27.140456 26.997745,27.140456 C 18.528582,18.264221 13.291696,25.230495 11.500037,31.436501 z"
             style="fill:#404040;"/>
          </a>
         </g>
        </svg>
</svg>
