<?xml version="1.0" encoding="UTF-8" standalone="no"?>
<!DOCTYPE svg PUBLIC "-//W3C//DTD SVG 1.1//EN"
 "http://www.w3.org/Graphics/SVG/1.1/DTD/svg11.dtd">
<!-- Generated by graphviz version 2.40.1 (20161225.0304)
 -->
<!-- Title: JS_CopyDataProperties Pages: 1 -->
<svg width="996pt" height="1279pt"
 viewBox="0.00 0.00 996.00 1278.85" xmlns="http://www.w3.org/2000/svg" xmlns:xlink="http://www.w3.org/1999/xlink">
<g id="graph0" class="graph" transform="scale(1 1) rotate(0) translate(4 1274.8497)">
<title>JS_CopyDataProperties</title>
<!-- Node290719 -->
<g id="node1" class="node">
<title>Node290719</title>
<polygon fill="#bfbfbf" stroke="#000000" points="0,-468.2916 0,-487.2916 122,-487.2916 122,-468.2916 0,-468.2916"/>
<text text-anchor="middle" x="61" y="-475.2916" font-family="Helvetica,sans-Serif" font-size="10.00" fill="#000000">JS_CopyDataProperties</text>
</g>
<!-- Node290720 -->
<g id="node2" class="node">
<title>Node290720</title>
<g id="a_node2"><a xlink:href="quickjs_8c.html#a0a8765bd4012467d9139bc24aabcb3ca" target="_top" xlink:title="JS_DefinePropertyValue">
<polygon fill="none" stroke="#000000" points="303,-1171.2916 303,-1190.2916 427,-1190.2916 427,-1171.2916 303,-1171.2916"/>
<text text-anchor="middle" x="365" y="-1178.2916" font-family="Helvetica,sans-Serif" font-size="10.00" fill="#000000">JS_DefinePropertyValue</text>
</a>
</g>
</g>
<!-- Node290719&#45;&gt;Node290720 -->
<g id="edge1" class="edge">
<title>Node290719&#45;&gt;Node290720</title>
<path fill="none" stroke="#191970" d="M61.6884,-487.6436C67.3613,-567.5337 107.4548,-1107.567 158,-1156.7916 196.5136,-1194.299 260.0606,-1196.3499 306.6031,-1191.4689"/>
<polygon fill="#191970" stroke="#191970" points="307.0364,-1194.9421 316.557,-1190.2938 306.2156,-1187.9904 307.0364,-1194.9421"/>
</g>
<!-- Node290785 -->
<g id="node15" class="node">
<title>Node290785</title>
<g id="a_node15"><a xlink:href="quickjs_8h.html#ad80a83d73e9b7d872b88fbf2943aebe9" target="_top" xlink:title="JS_IsException">
<polygon fill="none" stroke="#000000" points="885.5,-962.2916 885.5,-981.2916 971.5,-981.2916 971.5,-962.2916 885.5,-962.2916"/>
<text text-anchor="middle" x="928.5" y="-969.2916" font-family="Helvetica,sans-Serif" font-size="10.00" fill="#000000">JS_IsException</text>
</a>
</g>
</g>
<!-- Node290719&#45;&gt;Node290785 -->
<g id="edge51" class="edge">
<title>Node290719&#45;&gt;Node290785</title>
<path fill="none" stroke="#191970" d="M63.1139,-487.4486C81.2833,-569.2265 214.0965,-1142.7916 365,-1142.7916 365,-1142.7916 365,-1142.7916 555.5,-1142.7916 683.8562,-1142.7916 721.6723,-1126.6779 833,-1062.7916 866.7182,-1043.4422 897.71,-1009.7423 914.7657,-989.2307"/>
<polygon fill="#191970" stroke="#191970" points="917.5979,-991.2953 921.1894,-981.3278 912.166,-986.8801 917.5979,-991.2953"/>
</g>
<!-- Node291073 -->
<g id="node25" class="node">
<title>Node291073</title>
<g id="a_node25"><a xlink:href="quickjs_8c.html#a6b42cd922447e1eb6bfc52761895a174" target="_top" xlink:title="js_free_prop_enum">
<polygon fill="none" stroke="#ff0000" points="506,-1247.2916 506,-1266.2916 605,-1266.2916 605,-1247.2916 506,-1247.2916"/>
<text text-anchor="middle" x="555.5" y="-1254.2916" font-family="Helvetica,sans-Serif" font-size="10.00" fill="#000000">js_free_prop_enum</text>
</a>
</g>
</g>
<!-- Node290719&#45;&gt;Node291073 -->
<g id="edge39" class="edge">
<title>Node290719&#45;&gt;Node291073</title>
<path fill="none" stroke="#191970" d="M61.6431,-487.5463C67.1012,-569.0168 106.7186,-1134.6251 158,-1187.7916 246.0515,-1279.0799 408.4213,-1275.7468 495.9167,-1265.9774"/>
<polygon fill="#191970" stroke="#191970" points="496.4279,-1269.4414 505.9482,-1264.7921 495.6065,-1262.4898 496.4279,-1269.4414"/>
</g>
<!-- Node290987 -->
<g id="node26" class="node">
<title>Node290987</title>
<g id="a_node26"><a xlink:href="quickjs_8c.html#ad13892c0a0f11781b566808876658099" target="_top" xlink:title="JS_GetOwnPropertyInternal">
<polygon fill="none" stroke="#ff0000" points="486,-145.2916 486,-164.2916 625,-164.2916 625,-145.2916 486,-145.2916"/>
<text text-anchor="middle" x="555.5" y="-152.2916" font-family="Helvetica,sans-Serif" font-size="10.00" fill="#000000">JS_GetOwnPropertyInternal</text>
</a>
</g>
</g>
<!-- Node290719&#45;&gt;Node290987 -->
<g id="edge40" class="edge">
<title>Node290719&#45;&gt;Node290987</title>
<path fill="none" stroke="#191970" d="M73.8899,-468.2455C92.2051,-454.831 126.9857,-429.9057 158,-410.7916 195.0813,-387.9386 207.1994,-387.094 244,-363.7916 356.3608,-292.6441 371.6622,-255.7165 486,-187.7916 497.8702,-180.7399 511.4856,-174.0026 523.5016,-168.4755"/>
<polygon fill="#191970" stroke="#191970" points="525.0501,-171.6168 532.7313,-164.3195 522.176,-165.234 525.0501,-171.6168"/>
</g>
<!-- Node291074 -->
<g id="node27" class="node">
<title>Node291074</title>
<g id="a_node27"><a xlink:href="quickjs_8c.html#a176ac5ff56a118a0b1b2566798d28823" target="_top" xlink:title="JS_GetOwnPropertyNamesInternal">
<polygon fill="none" stroke="#ff0000" points="280,-468.2916 280,-487.2916 450,-487.2916 450,-468.2916 280,-468.2916"/>
<text text-anchor="middle" x="365" y="-475.2916" font-family="Helvetica,sans-Serif" font-size="10.00" fill="#000000">JS_GetOwnPropertyNamesInternal</text>
</a>
</g>
</g>
<!-- Node290719&#45;&gt;Node291074 -->
<g id="edge45" class="edge">
<title>Node290719&#45;&gt;Node291074</title>
<path fill="none" stroke="#191970" d="M122.1532,-477.7916C164.4015,-477.7916 221.4401,-477.7916 269.6221,-477.7916"/>
<polygon fill="#191970" stroke="#191970" points="269.7608,-481.2917 279.7607,-477.7916 269.7607,-474.2917 269.7608,-481.2917"/>
</g>
<!-- Node290840 -->
<g id="node28" class="node">
<title>Node290840</title>
<g id="a_node28"><a xlink:href="quickjs_8h.html#a89b7c8686c7eee70b86be722ee4730ad" target="_top" xlink:title="JS_GetProperty">
<polygon fill="none" stroke="#ff0000" points="158,-335.2916 158,-354.2916 244,-354.2916 244,-335.2916 158,-335.2916"/>
<text text-anchor="middle" x="201" y="-342.2916" font-family="Helvetica,sans-Serif" font-size="10.00" fill="#000000">JS_GetProperty</text>
</a>
</g>
</g>
<!-- Node290719&#45;&gt;Node290840 -->
<g id="edge50" class="edge">
<title>Node290719&#45;&gt;Node290840</title>
<path fill="none" stroke="#191970" d="M67.8803,-468.0688C82.6197,-447.7371 119.0814,-400.0279 158,-368.7916 162.1442,-365.4654 166.8109,-362.3396 171.5021,-359.5129"/>
<polygon fill="#191970" stroke="#191970" points="173.4385,-362.4389 180.4225,-354.4718 169.9945,-356.3447 173.4385,-362.4389"/>
</g>
<!-- Node291149 -->
<g id="node29" class="node">
<title>Node291149</title>
<g id="a_node29"><a xlink:href="quickjs_8h.html#af763b173e78debf2075670ca2c128a30" target="_top" xlink:title="JS_SetProperty">
<polygon fill="none" stroke="#000000" points="158,-420.2916 158,-439.2916 244,-439.2916 244,-420.2916 158,-420.2916"/>
<text text-anchor="middle" x="201" y="-427.2916" font-family="Helvetica,sans-Serif" font-size="10.00" fill="#000000">JS_SetProperty</text>
</a>
</g>
</g>
<!-- Node290719&#45;&gt;Node291149 -->
<g id="edge52" class="edge">
<title>Node290719&#45;&gt;Node291149</title>
<path fill="none" stroke="#191970" d="M88.9946,-468.1935C110.36,-460.8682 140.0101,-450.7024 163.4371,-442.6703"/>
<polygon fill="#191970" stroke="#191970" points="164.7296,-445.9273 173.0539,-439.3731 162.4593,-439.3056 164.7296,-445.9273"/>
</g>
<!-- Node290721 -->
<g id="node3" class="node">
<title>Node290721</title>
<g id="a_node3"><a xlink:href="quickjs_8c.html#ab50618f1bf78e444caa6da0e3e2785d7" target="_top" xlink:title="JS_DefineProperty">
<polygon fill="none" stroke="#ff0000" points="506,-639.2916 506,-658.2916 605,-658.2916 605,-639.2916 506,-639.2916"/>
<text text-anchor="middle" x="555.5" y="-646.2916" font-family="Helvetica,sans-Serif" font-size="10.00" fill="#000000">JS_DefineProperty</text>
</a>
</g>
</g>
<!-- Node290720&#45;&gt;Node290721 -->
<g id="edge2" class="edge">
<title>Node290720&#45;&gt;Node290721</title>
<path fill="none" stroke="#191970" d="M368.4691,-1171.1036C391.076,-1107.9704 517.4827,-754.9607 548.5854,-668.1016"/>
<polygon fill="#191970" stroke="#191970" points="551.8892,-669.2571 551.9654,-658.6625 545.299,-666.8972 551.8892,-669.2571"/>
</g>
<!-- Node290749 -->
<g id="node14" class="node">
<title>Node290749</title>
<g id="a_node14"><a xlink:href="quickjs_8h.html#afaa20c47565bc704c6c85f3d77254e7d" target="_top" xlink:title="JS_FreeValue">
<polygon fill="none" stroke="#ff0000" points="889.5,-1133.2916 889.5,-1152.2916 967.5,-1152.2916 967.5,-1133.2916 889.5,-1133.2916"/>
<text text-anchor="middle" x="928.5" y="-1140.2916" font-family="Helvetica,sans-Serif" font-size="10.00" fill="#000000">JS_FreeValue</text>
</a>
</g>
</g>
<!-- Node290720&#45;&gt;Node290749 -->
<g id="edge38" class="edge">
<title>Node290720&#45;&gt;Node290749</title>
<path fill="none" stroke="#191970" d="M410.4278,-1190.3243C495.1046,-1206.3112 682.1492,-1233.1987 833,-1194.7916 860.6708,-1187.7466 888.9807,-1170.8747 907.5155,-1158.2469"/>
<polygon fill="#191970" stroke="#191970" points="909.6045,-1161.0569 915.7836,-1152.4504 905.5861,-1155.3251 909.6045,-1161.0569"/>
</g>
<!-- Node290722 -->
<g id="node4" class="node">
<title>Node290722</title>
<g id="a_node4"><a xlink:href="quickjs_8c.html#a014abd680db53ab89cb133345742a59c" target="_top" xlink:title="__attribute__">
<polygon fill="none" stroke="#ff0000" points="892,-335.2916 892,-354.2916 965,-354.2916 965,-335.2916 892,-335.2916"/>
<text text-anchor="middle" x="928.5" y="-342.2916" font-family="Helvetica,sans-Serif" font-size="10.00" fill="#000000">__attribute__</text>
</a>
</g>
</g>
<!-- Node290721&#45;&gt;Node290722 -->
<g id="edge3" class="edge">
<title>Node290721&#45;&gt;Node290722</title>
<path fill="none" stroke="#191970" d="M557.5928,-639.0651C567.71,-593.0075 613.0266,-397.5845 661,-361.7916 725.2125,-313.8828 824.0405,-322.7239 881.8838,-333.6527"/>
<polygon fill="#191970" stroke="#191970" points="881.3527,-337.1155 891.8432,-335.632 882.7172,-330.2498 881.3527,-337.1155"/>
</g>
<!-- Node290790 -->
<g id="node5" class="node">
<title>Node290790</title>
<g id="a_node5"><a xlink:href="quickjs_8c.html#a288254c06a39c9fca740a7abdad2834e" target="_top" xlink:title="__JS_AtomIsTaggedInt">
<polygon fill="none" stroke="#000000" points="869,-373.2916 869,-392.2916 988,-392.2916 988,-373.2916 869,-373.2916"/>
<text text-anchor="middle" x="928.5" y="-380.2916" font-family="Helvetica,sans-Serif" font-size="10.00" fill="#000000">__JS_AtomIsTaggedInt</text>
</a>
</g>
</g>
<!-- Node290721&#45;&gt;Node290790 -->
<g id="edge4" class="edge">
<title>Node290721&#45;&gt;Node290790</title>
<path fill="none" stroke="#191970" d="M556.2154,-639.0432C559.587,-600.9485 577.4494,-461.3154 661,-401.7916 723.9575,-356.939 817.77,-362.2736 875.9331,-371.563"/>
<polygon fill="#191970" stroke="#191970" points="875.5658,-375.0505 886.0098,-373.269 876.7344,-368.1487 875.5658,-375.0505"/>
</g>
<!-- Node290791 -->
<g id="node6" class="node">
<title>Node290791</title>
<g id="a_node6"><a xlink:href="quickjs_8c.html#a89f38938cee8077ce1fbba07946ed185" target="_top" xlink:title="__JS_AtomToUInt32">
<polygon fill="none" stroke="#000000" points="874.5,-411.2916 874.5,-430.2916 982.5,-430.2916 982.5,-411.2916 874.5,-411.2916"/>
<text text-anchor="middle" x="928.5" y="-418.2916" font-family="Helvetica,sans-Serif" font-size="10.00" fill="#000000">__JS_AtomToUInt32</text>
</a>
</g>
</g>
<!-- Node290721&#45;&gt;Node290791 -->
<g id="edge5" class="edge">
<title>Node290721&#45;&gt;Node290791</title>
<path fill="none" stroke="#191970" d="M562.4463,-639.2313C577.7447,-618.9491 616.5429,-571.604 661,-548.7916 730.2534,-513.2554 771.4598,-563.4537 833,-515.7916 862.5496,-492.9058 840.8702,-464.4016 869,-439.7916 870.9281,-438.1048 873.0071,-436.5675 875.1926,-435.1665"/>
<polygon fill="#191970" stroke="#191970" points="876.9002,-438.2223 884.0572,-430.4103 873.5907,-432.054 876.9002,-438.2223"/>
</g>
<!-- Node291143 -->
<g id="node7" class="node">
<title>Node291143</title>
<g id="a_node7"><a xlink:href="quickjs_8c.html#a68c7ae36cec3bf8bbf6cc0868a71cc4b" target="_top" xlink:title="check_define_prop_flags">
<polygon fill="none" stroke="#000000" points="684.5,-905.2916 684.5,-924.2916 809.5,-924.2916 809.5,-905.2916 684.5,-905.2916"/>
<text text-anchor="middle" x="747" y="-912.2916" font-family="Helvetica,sans-Serif" font-size="10.00" fill="#000000">check_define_prop_flags</text>
</a>
</g>
</g>
<!-- Node290721&#45;&gt;Node291143 -->
<g id="edge6" class="edge">
<title>Node290721&#45;&gt;Node291143</title>
<path fill="none" stroke="#191970" d="M556.5174,-658.439C560.9719,-695.5745 582.21,-830.4606 661,-895.7916 665.2668,-899.3296 670.0497,-902.2466 675.1168,-904.6475"/>
<polygon fill="#191970" stroke="#191970" points="673.9116,-907.9354 684.4947,-908.4344 676.5328,-901.4446 673.9116,-907.9354"/>
</g>
<!-- Node291010 -->
<g id="node8" class="node">
<title>Node291010</title>
<g id="a_node8"><a xlink:href="quickjs_8c.html#ac93c982cb636a5430b191d104083af3e" target="_top" xlink:title="convert_fast_array\l_to_array">
<polygon fill="none" stroke="#ff0000" points="879.5,-658.7916 879.5,-688.7916 977.5,-688.7916 977.5,-658.7916 879.5,-658.7916"/>
<text text-anchor="start" x="887.5" y="-676.7916" font-family="Helvetica,sans-Serif" font-size="10.00" fill="#000000">convert_fast_array</text>
<text text-anchor="middle" x="928.5" y="-665.7916" font-family="Helvetica,sans-Serif" font-size="10.00" fill="#000000">_to_array</text>
</a>
</g>
</g>
<!-- Node290721&#45;&gt;Node291010 -->
<g id="edge7" class="edge">
<title>Node290721&#45;&gt;Node291010</title>
<path fill="none" stroke="#191970" d="M605.0419,-656.3099C622.6691,-658.7345 642.6846,-661.2031 661,-662.7916 732.3444,-668.9794 814.704,-671.7034 868.9786,-672.8916"/>
<polygon fill="#191970" stroke="#191970" points="869.0412,-676.3936 879.112,-673.1027 869.1871,-669.3951 869.0412,-676.3936"/>
</g>
<!-- Node290739 -->
<g id="node9" class="node">
<title>Node290739</title>
<g id="a_node9"><a xlink:href="quickjs_8c.html#a06b76f5124fd985e35f4c652fd018d6d" target="_top" xlink:title="find_own_property">
<polygon fill="none" stroke="#ff0000" points="699,-221.2916 699,-240.2916 795,-240.2916 795,-221.2916 699,-221.2916"/>
<text text-anchor="middle" x="747" y="-228.2916" font-family="Helvetica,sans-Serif" font-size="10.00" fill="#000000">find_own_property</text>
</a>
</g>
</g>
<!-- Node290721&#45;&gt;Node290739 -->
<g id="edge8" class="edge">
<title>Node290721&#45;&gt;Node290739</title>
<path fill="none" stroke="#191970" d="M556.704,-639.0462C563.7659,-583.45 601.5513,-306.8483 661,-249.7916 668.6912,-242.4099 678.5717,-237.6396 688.8785,-234.6059"/>
<polygon fill="#191970" stroke="#191970" points="689.935,-237.9514 698.8334,-232.2008 688.2911,-231.1472 689.935,-237.9514"/>
</g>
<!-- Node290740 -->
<g id="node10" class="node">
<title>Node290740</title>
<g id="a_node10"><a xlink:href="quickjs_8c.html#a643df594b75933007bcdbb071b5ea8c5" target="_top" xlink:title="get_shape_prop">
<polygon fill="none" stroke="#000000" points="885.5,-449.2916 885.5,-468.2916 971.5,-468.2916 971.5,-449.2916 885.5,-449.2916"/>
<text text-anchor="middle" x="928.5" y="-456.2916" font-family="Helvetica,sans-Serif" font-size="10.00" fill="#000000">get_shape_prop</text>
</a>
</g>
</g>
<!-- Node290721&#45;&gt;Node290740 -->
<g id="edge12" class="edge">
<title>Node290721&#45;&gt;Node290740</title>
<path fill="none" stroke="#191970" d="M568.7857,-639.1129C588.1286,-625.4694 625.606,-600.6981 661,-586.7916 733.8654,-558.1626 768.942,-593.7978 833,-548.7916 857.5168,-531.5665 847.2186,-512.367 869,-491.7916 876.857,-484.3697 886.6986,-478.0375 896.1024,-472.9642"/>
<polygon fill="#191970" stroke="#191970" points="897.9335,-475.9601 905.2706,-468.3169 894.7686,-469.7164 897.9335,-475.9601"/>
</g>
<!-- Node290766 -->
<g id="node11" class="node">
<title>Node290766</title>
<g id="a_node11"><a xlink:href="quickjs_8c.html#a9e7b4bccf927d811b0f99b40b08c0472" target="_top" xlink:title="free_var_ref">
<polygon fill="none" stroke="#ff0000" points="713,-867.2916 713,-886.2916 781,-886.2916 781,-867.2916 713,-867.2916"/>
<text text-anchor="middle" x="747" y="-874.2916" font-family="Helvetica,sans-Serif" font-size="10.00" fill="#000000">free_var_ref</text>
</a>
</g>
</g>
<!-- Node290721&#45;&gt;Node290766 -->
<g id="edge10" class="edge">
<title>Node290721&#45;&gt;Node290766</title>
<path fill="none" stroke="#191970" d="M557.3438,-658.5603C564.2255,-692.172 591.6638,-803.9369 661,-857.7916 672.7579,-866.9242 688.0125,-871.8584 702.403,-874.4666"/>
<polygon fill="#191970" stroke="#191970" points="702.2625,-877.9837 712.6664,-875.9815 703.2847,-871.0587 702.2625,-877.9837"/>
</g>
<!-- Node291084 -->
<g id="node12" class="node">
<title>Node291084</title>
<g id="a_node12"><a xlink:href="quickjs_8c.html#a6df3ef223d7e76a0db2c14d972dbfa77" target="_top" xlink:title="get_prop_flags">
<polygon fill="none" stroke="#000000" points="888.5,-593.2916 888.5,-612.2916 968.5,-612.2916 968.5,-593.2916 888.5,-593.2916"/>
<text text-anchor="middle" x="928.5" y="-600.2916" font-family="Helvetica,sans-Serif" font-size="10.00" fill="#000000">get_prop_flags</text>
</a>
</g>
</g>
<!-- Node290721&#45;&gt;Node291084 -->
<g id="edge11" class="edge">
<title>Node290721&#45;&gt;Node291084</title>
<path fill="none" stroke="#191970" d="M605.1289,-646.5996C660.8466,-643.6521 753.826,-637.2719 833,-624.7916 849.2683,-622.2273 866.8876,-618.4568 882.5105,-614.759"/>
<polygon fill="#191970" stroke="#191970" points="883.558,-618.1066 892.4543,-612.3528 881.9117,-611.3029 883.558,-618.1066"/>
</g>
<!-- Node290843 -->
<g id="node13" class="node">
<title>Node290843</title>
<g id="a_node13"><a xlink:href="quickjs_8c.html#ab4e100a9cde5f7ec87c92f5e766dbbab" target="_top" xlink:title="JS_AtomIsNumericIndex1">
<polygon fill="none" stroke="#ff0000" points="681.5,-753.2916 681.5,-772.2916 812.5,-772.2916 812.5,-753.2916 681.5,-753.2916"/>
<text text-anchor="middle" x="747" y="-760.2916" font-family="Helvetica,sans-Serif" font-size="10.00" fill="#000000">JS_AtomIsNumericIndex1</text>
</a>
</g>
</g>
<!-- Node290721&#45;&gt;Node290843 -->
<g id="edge13" class="edge">
<title>Node290721&#45;&gt;Node290843</title>
<path fill="none" stroke="#191970" d="M564.0713,-658.4935C580.8494,-676.8908 619.9851,-716.9562 661,-738.7916 669.7228,-743.4355 679.4343,-747.2547 689.1012,-750.3722"/>
<polygon fill="#191970" stroke="#191970" points="688.1308,-753.7351 698.715,-753.2602 690.1448,-747.0311 688.1308,-753.7351"/>
</g>
<!-- Node290721&#45;&gt;Node290749 -->
<g id="edge30" class="edge">
<title>Node290721&#45;&gt;Node290749</title>
<path fill="none" stroke="#191970" d="M557.2332,-658.4134C566.6621,-709.8938 613.1209,-952.584 661,-1009.7916 718.1124,-1078.0316 818.8267,-1114.5426 879.0439,-1131.2025"/>
<polygon fill="#191970" stroke="#191970" points="878.5062,-1134.6821 889.0719,-1133.8969 880.3226,-1127.9219 878.5062,-1134.6821"/>
</g>
<!-- Node290721&#45;&gt;Node290785 -->
<g id="edge31" class="edge">
<title>Node290721&#45;&gt;Node290785</title>
<path fill="none" stroke="#191970" d="M560.1102,-658.3466C572.5778,-683.0973 609.5219,-749.6023 661,-781.7916 727.379,-823.2985 768.995,-774.71 833,-819.7916 880.8434,-853.4899 909.8812,-919.5306 921.9608,-952.3382"/>
<polygon fill="#191970" stroke="#191970" points="918.7771,-953.8336 925.4098,-962.0954 925.3769,-951.5006 918.7771,-953.8336"/>
</g>
<!-- Node290845 -->
<g id="node16" class="node">
<title>Node290845</title>
<g id="a_node16"><a xlink:href="quickjs_8h.html#a2050bc428da1c65ac7eb87c3fa3b0392" target="_top" xlink:title="JS_NewInt32">
<polygon fill="none" stroke="#000000" points="890.5,-753.2916 890.5,-772.2916 966.5,-772.2916 966.5,-753.2916 890.5,-753.2916"/>
<text text-anchor="middle" x="928.5" y="-760.2916" font-family="Helvetica,sans-Serif" font-size="10.00" fill="#000000">JS_NewInt32</text>
</a>
</g>
</g>
<!-- Node290721&#45;&gt;Node290845 -->
<g id="edge34" class="edge">
<title>Node290721&#45;&gt;Node290845</title>
<path fill="none" stroke="#191970" d="M586.6602,-658.3151C653.8549,-678.8518 812.3722,-727.2995 887.5587,-750.2788"/>
<polygon fill="#191970" stroke="#191970" points="886.5798,-753.6393 897.1662,-753.2151 888.6259,-746.945 886.5798,-753.6393"/>
</g>
<!-- Node290782 -->
<g id="node17" class="node">
<title>Node290782</title>
<g id="a_node17"><a xlink:href="quickjs_8c.html#af2bcf1faee5b5dd948692540d9cce73e" target="_top" xlink:title="js_autoinit_free">
<polygon fill="none" stroke="#ff0000" points="705.5,-829.2916 705.5,-848.2916 788.5,-848.2916 788.5,-829.2916 705.5,-829.2916"/>
<text text-anchor="middle" x="747" y="-836.2916" font-family="Helvetica,sans-Serif" font-size="10.00" fill="#000000">js_autoinit_free</text>
</a>
</g>
</g>
<!-- Node290721&#45;&gt;Node290782 -->
<g id="edge19" class="edge">
<title>Node290721&#45;&gt;Node290782</title>
<path fill="none" stroke="#191970" d="M558.77,-658.3961C568.9885,-686.9272 603.1396,-771.8559 661,-814.7916 671.0169,-822.2247 683.2336,-827.3562 695.2776,-830.8986"/>
<polygon fill="#191970" stroke="#191970" points="694.742,-834.376 705.3019,-833.5161 696.5106,-827.6031 694.742,-834.376"/>
</g>
<!-- Node291083 -->
<g id="node18" class="node">
<title>Node291083</title>
<g id="a_node18"><a xlink:href="quickjs_8c.html#ad5565bb5cfd5321f181573257f3b0c91" target="_top" xlink:title="JS_CreateProperty">
<polygon fill="none" stroke="#ff0000" points="697,-411.2916 697,-430.2916 797,-430.2916 797,-411.2916 697,-411.2916"/>
<text text-anchor="middle" x="747" y="-418.2916" font-family="Helvetica,sans-Serif" font-size="10.00" fill="#000000">JS_CreateProperty</text>
</a>
</g>
</g>
<!-- Node290721&#45;&gt;Node291083 -->
<g id="edge20" class="edge">
<title>Node290721&#45;&gt;Node291083</title>
<path fill="none" stroke="#191970" d="M559.7349,-638.9135C572.0633,-611.0009 610.293,-530.1749 661,-477.7916 677.8683,-460.3657 700.9506,-445.428 718.955,-435.2211"/>
<polygon fill="#191970" stroke="#191970" points="720.7744,-438.2149 727.8475,-430.3267 717.3991,-432.0824 720.7744,-438.2149"/>
</g>
<!-- Node290748 -->
<g id="node19" class="node">
<title>Node290748</title>
<g id="a_node19"><a xlink:href="quickjs_8h.html#a775522f2d084fc8fa0fcb33f390006b4" target="_top" xlink:title="JS_DupValue">
<polygon fill="none" stroke="#000000" points="890,-164.2916 890,-183.2916 967,-183.2916 967,-164.2916 890,-164.2916"/>
<text text-anchor="middle" x="928.5" y="-171.2916" font-family="Helvetica,sans-Serif" font-size="10.00" fill="#000000">JS_DupValue</text>
</a>
</g>
</g>
<!-- Node290721&#45;&gt;Node290748 -->
<g id="edge29" class="edge">
<title>Node290721&#45;&gt;Node290748</title>
<path fill="none" stroke="#191970" d="M557.2464,-639.2123C566.3936,-590.0765 610.298,-366.8865 661,-321.7916 719.2258,-270.005 765.9376,-327.4745 833,-287.7916 872.7997,-264.2409 903.6574,-217.8376 918.6022,-192.0897"/>
<polygon fill="#191970" stroke="#191970" points="921.6813,-193.7548 923.5363,-183.3236 915.5812,-190.3213 921.6813,-193.7548"/>
</g>
<!-- Node290961 -->
<g id="node20" class="node">
<title>Node290961</title>
<g id="a_node20"><a xlink:href="quickjs_8c.html#a1ca9cdb1fa2ffc3e6506e92b200e490f" target="_top" xlink:title="JS_IsFunction">
<polygon fill="none" stroke="#000000" points="888.5,-501.2916 888.5,-520.2916 968.5,-520.2916 968.5,-501.2916 888.5,-501.2916"/>
<text text-anchor="middle" x="928.5" y="-508.2916" font-family="Helvetica,sans-Serif" font-size="10.00" fill="#000000">JS_IsFunction</text>
</a>
</g>
</g>
<!-- Node290721&#45;&gt;Node290961 -->
<g id="edge32" class="edge">
<title>Node290721&#45;&gt;Node290961</title>
<path fill="none" stroke="#191970" d="M597.0756,-639.2707C616.4914,-634.8406 639.9218,-629.5175 661,-624.7916 737.3913,-607.6642 762.3301,-620.4778 833,-586.7916 864.1836,-571.9273 894.3808,-545.1724 912.201,-527.7001"/>
<polygon fill="#191970" stroke="#191970" points="914.8954,-529.9548 919.4767,-520.4016 909.9379,-525.0127 914.8954,-529.9548"/>
</g>
<!-- Node290863 -->
<g id="node21" class="node">
<title>Node290863</title>
<g id="a_node21"><a xlink:href="quickjs_8h.html#a4e407128a9605afb77523e49e9a627fd" target="_top" xlink:title="JS_IsUndefined">
<polygon fill="none" stroke="#000000" points="704,-259.2916 704,-278.2916 790,-278.2916 790,-259.2916 704,-259.2916"/>
<text text-anchor="middle" x="747" y="-266.2916" font-family="Helvetica,sans-Serif" font-size="10.00" fill="#000000">JS_IsUndefined</text>
</a>
</g>
</g>
<!-- Node290721&#45;&gt;Node290863 -->
<g id="edge33" class="edge">
<title>Node290721&#45;&gt;Node290863</title>
<path fill="none" stroke="#191970" d="M557.0735,-639.1385C565.6712,-587.5141 608.5089,-344.4517 661,-292.7916 669.9791,-283.9547 681.9249,-278.3098 694.0486,-274.7208"/>
<polygon fill="#191970" stroke="#191970" points="694.9222,-278.1102 703.7565,-272.2616 693.2032,-271.3245 694.9222,-278.1102"/>
</g>
<!-- Node291144 -->
<g id="node22" class="node">
<title>Node291144</title>
<g id="a_node22"><a xlink:href="quickjs_8c.html#af2333dd9d30e60437b73af383477188c" target="_top" xlink:title="JS_NumberIsInteger">
<polygon fill="none" stroke="#ff0000" points="693.5,-981.2916 693.5,-1000.2916 800.5,-1000.2916 800.5,-981.2916 693.5,-981.2916"/>
<text text-anchor="middle" x="747" y="-988.2916" font-family="Helvetica,sans-Serif" font-size="10.00" fill="#000000">JS_NumberIsInteger</text>
</a>
</g>
</g>
<!-- Node290721&#45;&gt;Node291144 -->
<g id="edge35" class="edge">
<title>Node290721&#45;&gt;Node291144</title>
<path fill="none" stroke="#191970" d="M557.3448,-658.5564C566.8081,-707.6396 611.3871,-926.8291 661,-971.7916 667.4333,-977.6219 675.2437,-981.8006 683.5037,-984.7735"/>
<polygon fill="#191970" stroke="#191970" points="682.7668,-988.2068 693.3512,-987.7363 684.7836,-981.5036 682.7668,-988.2068"/>
</g>
<!-- Node291147 -->
<g id="node23" class="node">
<title>Node291147</title>
<g id="a_node23"><a xlink:href="quickjs_8c.html#aced4796120beed3ba63dc0b234b399ab" target="_top" xlink:title="JS_NumberIsNegativeOrMinusZero">
<polygon fill="none" stroke="#000000" points="661,-943.2916 661,-962.2916 833,-962.2916 833,-943.2916 661,-943.2916"/>
<text text-anchor="middle" x="747" y="-950.2916" font-family="Helvetica,sans-Serif" font-size="10.00" fill="#000000">JS_NumberIsNegativeOrMinusZero</text>
</a>
</g>
</g>
<!-- Node290721&#45;&gt;Node291147 -->
<g id="edge36" class="edge">
<title>Node290721&#45;&gt;Node291147</title>
<path fill="none" stroke="#191970" d="M555.9158,-658.4655C558.2077,-699.0265 572.6995,-856.8369 661,-933.7916 662.7795,-935.3425 664.6572,-936.7754 666.6146,-938.099"/>
<polygon fill="#191970" stroke="#191970" points="665.227,-941.3359 675.6515,-943.2282 668.6824,-935.2481 665.227,-941.3359"/>
</g>
<!-- Node291078 -->
<g id="node24" class="node">
<title>Node291078</title>
<g id="a_node24"><a xlink:href="quickjs_8c.html#a3300653c365889b88c41c24ab23b4ca0" target="_top" xlink:title="typed_array_get_length">
<polygon fill="none" stroke="#000000" points="688,-487.2916 688,-506.2916 806,-506.2916 806,-487.2916 688,-487.2916"/>
<text text-anchor="middle" x="747" y="-494.2916" font-family="Helvetica,sans-Serif" font-size="10.00" fill="#000000">typed_array_get_length</text>
</a>
</g>
</g>
<!-- Node290721&#45;&gt;Node291078 -->
<g id="edge37" class="edge">
<title>Node290721&#45;&gt;Node291078</title>
<path fill="none" stroke="#191970" d="M560.6952,-639.059C574.0017,-615.0881 611.7576,-552.8292 661,-520.7916 668.0041,-516.2347 675.8718,-512.5327 683.9287,-509.5277"/>
<polygon fill="#191970" stroke="#191970" points="685.0833,-512.832 693.4334,-506.3107 682.8391,-506.2015 685.0833,-512.832"/>
</g>
<!-- Node290739&#45;&gt;Node290740 -->
<g id="edge9" class="edge">
<title>Node290739&#45;&gt;Node290740</title>
<path fill="none" stroke="#191970" d="M795.1536,-231.6783C809.0403,-234.2876 823.0977,-239.5858 833,-249.7916 892.8495,-311.4755 812.0391,-375.4307 869,-439.7916 871.2279,-442.3089 873.7886,-444.4952 876.5691,-446.3936"/>
<polygon fill="#191970" stroke="#191970" points="875.0051,-449.5277 885.4559,-451.2689 878.372,-443.3905 875.0051,-449.5277"/>
</g>
<!-- Node290843&#45;&gt;Node290790 -->
<g id="edge14" class="edge">
<title>Node290843&#45;&gt;Node290790</title>
<path fill="none" stroke="#191970" d="M750.5447,-752.9441C762.4905,-719.6884 802.2474,-608.4462 833,-515.7916 849.7373,-465.3637 831.4898,-439.4226 869,-401.7916 870.4641,-400.3228 872.0415,-398.9674 873.7071,-397.7167"/>
<polygon fill="#191970" stroke="#191970" points="875.9159,-400.4708 882.6542,-392.2949 872.288,-394.4842 875.9159,-400.4708"/>
</g>
<!-- Node290843&#45;&gt;Node290791 -->
<g id="edge15" class="edge">
<title>Node290843&#45;&gt;Node290791</title>
<path fill="none" stroke="#191970" d="M751.1648,-753.0647C764.0011,-722.9559 803.8484,-628.5151 833,-548.7916 850.5207,-500.8762 832.7465,-475.6879 869,-439.7916 870.4737,-438.3325 872.0593,-436.9853 873.7318,-435.7415"/>
<polygon fill="#191970" stroke="#191970" points="875.9387,-438.4984 882.7035,-430.3443 872.3303,-432.5001 875.9387,-438.4984"/>
</g>
<!-- Node290843&#45;&gt;Node290749 -->
<g id="edge16" class="edge">
<title>Node290843&#45;&gt;Node290749</title>
<path fill="none" stroke="#191970" d="M770.8669,-772.3995C790.6157,-781.6045 817.8063,-797.4149 833,-819.7916 876.6282,-884.0457 846.7686,-916.3755 869,-990.7916 883.6658,-1039.8832 907.2934,-1095.4474 919.9097,-1123.8564"/>
<polygon fill="#191970" stroke="#191970" points="916.7383,-1125.3383 924.0225,-1133.0319 923.126,-1122.4751 916.7383,-1125.3383"/>
</g>
<!-- Node290843&#45;&gt;Node290785 -->
<g id="edge17" class="edge">
<title>Node290843&#45;&gt;Node290785</title>
<path fill="none" stroke="#191970" d="M806.1331,-772.3136C815.7954,-775.7532 825.1858,-780.431 833,-786.7916 887.3446,-831.0266 914.1477,-914.3573 923.9574,-952.2035"/>
<polygon fill="#191970" stroke="#191970" points="920.5811,-953.1305 926.3758,-962.0002 927.3771,-951.4528 920.5811,-953.1305"/>
</g>
<!-- Node290843&#45;&gt;Node290845 -->
<g id="edge18" class="edge">
<title>Node290843&#45;&gt;Node290845</title>
<path fill="none" stroke="#191970" d="M812.5257,-762.7916C834.8498,-762.7916 859.3861,-762.7916 880.1184,-762.7916"/>
<polygon fill="#191970" stroke="#191970" points="880.2719,-766.2917 890.2718,-762.7916 880.2718,-759.2917 880.2719,-766.2917"/>
</g>
<!-- Node291083&#45;&gt;Node290722 -->
<g id="edge21" class="edge">
<title>Node291083&#45;&gt;Node290722</title>
<path fill="none" stroke="#191970" d="M765.6913,-411.1421C789.3543,-399.1406 831.5556,-378.448 869,-363.7916 874.5632,-361.6141 880.4877,-359.4938 886.3603,-357.507"/>
<polygon fill="#191970" stroke="#191970" points="887.7119,-360.7472 896.1214,-354.3028 885.5286,-354.0963 887.7119,-360.7472"/>
</g>
<!-- Node291083&#45;&gt;Node290790 -->
<g id="edge22" class="edge">
<title>Node291083&#45;&gt;Node290790</title>
<path fill="none" stroke="#191970" d="M792.8001,-411.2026C817.1826,-406.0978 847.3567,-399.7803 873.0557,-394.3998"/>
<polygon fill="#191970" stroke="#191970" points="873.9587,-397.7867 883.0292,-392.3117 872.5242,-390.9353 873.9587,-397.7867"/>
</g>
<!-- Node291083&#45;&gt;Node290791 -->
<g id="edge23" class="edge">
<title>Node291083&#45;&gt;Node290791</title>
<path fill="none" stroke="#191970" d="M797.0761,-420.7916C817.8194,-420.7916 842.1375,-420.7916 864.1772,-420.7916"/>
<polygon fill="#191970" stroke="#191970" points="864.454,-424.2917 874.4539,-420.7916 864.4539,-417.2917 864.454,-424.2917"/>
</g>
<!-- Node291083&#45;&gt;Node291010 -->
<g id="edge24" class="edge">
<title>Node291083&#45;&gt;Node291010</title>
<path fill="none" stroke="#191970" d="M770.2678,-430.3613C789.9142,-439.6315 817.2862,-455.5573 833,-477.7916 871.0742,-531.6652 834.5877,-565.5085 869,-621.7916 876.1149,-633.4284 886.6777,-643.8696 896.9372,-652.2887"/>
<polygon fill="#191970" stroke="#191970" points="894.9886,-655.2073 905.0285,-658.5914 899.2902,-649.685 894.9886,-655.2073"/>
</g>
<!-- Node291083&#45;&gt;Node290740 -->
<g id="edge26" class="edge">
<title>Node291083&#45;&gt;Node290740</title>
<path fill="none" stroke="#191970" d="M792.8001,-430.3806C817.8315,-435.6214 848.967,-442.1401 875.098,-447.611"/>
<polygon fill="#191970" stroke="#191970" points="874.7086,-451.1053 885.2136,-449.7289 876.1431,-444.2539 874.7086,-451.1053"/>
</g>
<!-- Node291083&#45;&gt;Node291084 -->
<g id="edge25" class="edge">
<title>Node291083&#45;&gt;Node291084</title>
<path fill="none" stroke="#191970" d="M765.5754,-430.3642C784.0542,-440.4815 812.5306,-457.7322 833,-477.7916 853.0762,-497.4657 852.1075,-507.3246 869,-529.7916 883.6205,-549.2368 901.3463,-570.7396 913.6283,-585.3387"/>
<polygon fill="#191970" stroke="#191970" points="911.036,-587.6937 920.166,-593.069 916.3808,-583.1734 911.036,-587.6937"/>
</g>
<!-- Node291083&#45;&gt;Node290748 -->
<g id="edge27" class="edge">
<title>Node291083&#45;&gt;Node290748</title>
<path fill="none" stroke="#191970" d="M755.998,-411.2205C772.173,-393.8264 806.9064,-355.6047 833,-320.7916 866.3087,-276.3524 900.6566,-220.5739 917.6371,-192.2027"/>
<polygon fill="#191970" stroke="#191970" points="920.7845,-193.7578 922.8889,-183.374 914.7684,-190.1791 920.7845,-193.7578"/>
</g>
<!-- Node291083&#45;&gt;Node290961 -->
<g id="edge28" class="edge">
<title>Node291083&#45;&gt;Node290961</title>
<path fill="none" stroke="#191970" d="M766.4237,-430.4232C798.4917,-446.3247 862.6595,-478.1435 899.9151,-496.6173"/>
<polygon fill="#191970" stroke="#191970" points="898.702,-499.9224 909.216,-501.2293 901.8118,-493.6511 898.702,-499.9224"/>
</g>
<!-- Node290987&#45;&gt;Node290790 -->
<g id="edge41" class="edge">
<title>Node290987&#45;&gt;Node290790</title>
<path fill="none" stroke="#191970" d="M576.2956,-145.2369C626.9924,-123.5351 758.26,-77.1496 833,-140.7916 909.4373,-205.8789 803.4927,-287.714 869,-363.7916 870.1431,-365.1192 871.379,-366.3549 872.6913,-367.5051"/>
<polygon fill="#191970" stroke="#191970" points="870.7136,-370.3928 880.9298,-373.2003 874.6942,-364.6347 870.7136,-370.3928"/>
</g>
<!-- Node290987&#45;&gt;Node290791 -->
<g id="edge42" class="edge">
<title>Node290987&#45;&gt;Node290791</title>
<path fill="none" stroke="#191970" d="M625.0125,-151.4329C697.263,-149.5261 803.8134,-151.6828 833,-178.7916 906.5595,-247.1145 803.4927,-325.714 869,-401.7916 870.1431,-403.1192 871.379,-404.3549 872.6913,-405.5051"/>
<polygon fill="#191970" stroke="#191970" points="870.7136,-408.3928 880.9298,-411.2003 874.6942,-402.6347 870.7136,-408.3928"/>
</g>
<!-- Node290987&#45;&gt;Node290739 -->
<g id="edge43" class="edge">
<title>Node290987&#45;&gt;Node290739</title>
<path fill="none" stroke="#191970" d="M579.7536,-164.4171C613.5678,-177.8368 675.0209,-202.2255 713.2789,-217.4088"/>
<polygon fill="#191970" stroke="#191970" points="712.3574,-220.8087 722.9433,-221.2443 714.9396,-214.3023 712.3574,-220.8087"/>
</g>
<!-- Node290987&#45;&gt;Node290748 -->
<g id="edge44" class="edge">
<title>Node290987&#45;&gt;Node290748</title>
<path fill="none" stroke="#191970" d="M569.7147,-145.1209C589.259,-132.4681 625.9988,-110.949 661,-102.7916 735.4493,-85.4405 760.4278,-78.7702 833,-102.7916 865.146,-113.432 895.2752,-139.5502 912.7936,-156.9661"/>
<polygon fill="#191970" stroke="#191970" points="910.4289,-159.5544 919.9171,-164.2688 915.4398,-154.6665 910.4289,-159.5544"/>
</g>
<!-- Node291074&#45;&gt;Node290740 -->
<g id="edge46" class="edge">
<title>Node291074&#45;&gt;Node290740</title>
<path fill="none" stroke="#191970" d="M450.2774,-474.9163C568.1293,-470.9425 777.305,-463.8896 875.1985,-460.5888"/>
<polygon fill="#191970" stroke="#191970" points="875.57,-464.0784 885.4464,-460.2433 875.3341,-457.0824 875.57,-464.0784"/>
</g>
<!-- Node291074&#45;&gt;Node291078 -->
<g id="edge49" class="edge">
<title>Node291074&#45;&gt;Node291078</title>
<path fill="none" stroke="#191970" d="M450.2528,-482.032C518.6777,-485.4353 613.5425,-490.1537 677.4338,-493.3315"/>
<polygon fill="#191970" stroke="#191970" points="677.6449,-496.8463 687.8064,-493.8474 677.9927,-489.8549 677.6449,-496.8463"/>
</g>
<!-- Node291074&#45;&gt;Node291073 -->
<g id="edge47" class="edge">
<title>Node291074&#45;&gt;Node291073</title>
<path fill="none" stroke="#191970" d="M365.8018,-487.4577C370.9544,-547.0823 401.8988,-870.473 486,-1118.7916 501.2606,-1163.8503 528.7308,-1212.7066 544.1706,-1238.4753"/>
<polygon fill="#191970" stroke="#191970" points="541.2658,-1240.4348 549.4485,-1247.1649 547.2487,-1236.8009 541.2658,-1240.4348"/>
</g>
<!-- Node291074&#45;&gt;Node290987 -->
<g id="edge48" class="edge">
<title>Node291074&#45;&gt;Node290987</title>
<path fill="none" stroke="#191970" d="M402.3902,-468.2571C418.8524,-462.4084 437.2954,-453.3619 450,-439.7916 523.9305,-360.8235 547.111,-225.5372 553.4109,-174.7955"/>
<polygon fill="#191970" stroke="#191970" points="556.9245,-174.8783 554.5919,-164.5435 549.9704,-174.0773 556.9245,-174.8783"/>
</g>
<!-- Node291079 -->
<g id="node30" class="node">
<title>Node291079</title>
<g id="a_node30"><a xlink:href="quickjs_8c.html#ad7f03358a8088ca920ab308225c6b2e6" target="_top" xlink:title="JS_SetPropertyInternal">
<polygon fill="none" stroke="#ff0000" points="306,-411.2916 306,-430.2916 424,-430.2916 424,-411.2916 306,-411.2916"/>
<text text-anchor="middle" x="365" y="-418.2916" font-family="Helvetica,sans-Serif" font-size="10.00" fill="#000000">JS_SetPropertyInternal</text>
</a>
</g>
</g>
<!-- Node291149&#45;&gt;Node291079 -->
<g id="edge53" class="edge">
<title>Node291149&#45;&gt;Node291079</title>
<path fill="none" stroke="#191970" d="M244.0891,-427.427C259.8763,-426.5606 278.1687,-425.5568 295.6717,-424.5962"/>
<polygon fill="#191970" stroke="#191970" points="296.0679,-428.0798 305.861,-424.0371 295.6842,-421.0904 296.0679,-428.0798"/>
</g>
<!-- Node291079&#45;&gt;Node290721 -->
<g id="edge59" class="edge">
<title>Node291079&#45;&gt;Node290721</title>
<path fill="none" stroke="#191970" d="M398.9566,-430.3199C415.8072,-436.3597 435.5848,-445.572 450,-458.7916 503.9083,-508.229 536.6706,-591.7501 549.3988,-629.3823"/>
<polygon fill="#191970" stroke="#191970" points="546.1454,-630.6939 552.5836,-639.1082 552.7978,-628.5155 546.1454,-630.6939"/>
</g>
<!-- Node291079&#45;&gt;Node290722 -->
<g id="edge54" class="edge">
<title>Node291079&#45;&gt;Node290722</title>
<path fill="none" stroke="#191970" d="M365.2979,-411.21C367.2244,-367.2634 381.4833,-183.5927 486,-100.7916 547.489,-52.0783 582.7207,-82.9137 661,-77.7916 737.2813,-72.8003 771.3982,-32.526 833,-77.7916 876.1582,-109.5047 851.228,-142.2693 869,-192.7916 886.0104,-241.149 908.6893,-297.0593 920.5328,-325.7044"/>
<polygon fill="#191970" stroke="#191970" points="917.4396,-327.3821 924.507,-335.2753 923.9044,-324.6976 917.4396,-327.3821"/>
</g>
<!-- Node291079&#45;&gt;Node290790 -->
<g id="edge55" class="edge">
<title>Node291079&#45;&gt;Node290790</title>
<path fill="none" stroke="#191970" d="M365.8666,-411.2544C370.1056,-370.577 392.4249,-210.2795 486,-135.7916 547.7995,-86.5978 582.3146,-111.7071 661,-104.7916 737.1509,-98.0989 775.3447,-54.5959 833,-104.7916 920.6529,-181.1038 794.1387,-274.8964 869,-363.7916 870.0259,-365.0099 871.13,-366.1509 872.2998,-367.2195"/>
<polygon fill="#191970" stroke="#191970" points="870.6615,-370.3481 880.8446,-373.2728 874.7079,-364.6361 870.6615,-370.3481"/>
</g>
<!-- Node291079&#45;&gt;Node290791 -->
<g id="edge56" class="edge">
<title>Node291079&#45;&gt;Node290791</title>
<path fill="none" stroke="#191970" d="M424.018,-413.0497C433.7365,-409.4402 442.9287,-404.2445 450,-396.7916 499.8705,-344.2302 432.8774,-287.064 486,-237.7916 542.6946,-185.2062 773.4489,-162.4644 833,-211.7916 899.1892,-266.6173 812.0391,-337.4307 869,-401.7916 870.1858,-403.1315 871.4659,-404.3775 872.8233,-405.5363"/>
<polygon fill="#191970" stroke="#191970" points="871.0741,-408.5782 881.3228,-411.2644 874.9862,-402.7733 871.0741,-408.5782"/>
</g>
<!-- Node291079&#45;&gt;Node290739 -->
<g id="edge57" class="edge">
<title>Node291079&#45;&gt;Node290739</title>
<path fill="none" stroke="#191970" d="M424.0125,-411.8278C433.5021,-408.3288 442.6162,-403.4865 450,-396.7916 482.528,-367.2988 453.9078,-334.7582 486,-304.7916 541.3689,-253.0901 630.1921,-237.1443 688.5745,-232.4334"/>
<polygon fill="#191970" stroke="#191970" points="689.0248,-235.9102 698.7476,-231.7011 688.5221,-228.9282 689.0248,-235.9102"/>
</g>
<!-- Node291079&#45;&gt;Node290749 -->
<g id="edge61" class="edge">
<title>Node291079&#45;&gt;Node290749</title>
<path fill="none" stroke="#191970" d="M408.6497,-430.3609C424.1924,-436.0142 440.2447,-444.9025 450,-458.7916 511.99,-547.0494 434.5214,-848.0174 486,-942.7916 564.6199,-1087.5343 780.9826,-1127.8367 879.0409,-1138.8075"/>
<polygon fill="#191970" stroke="#191970" points="878.9627,-1142.3188 889.2762,-1139.8936 879.7013,-1135.3579 878.9627,-1142.3188"/>
</g>
<!-- Node291079&#45;&gt;Node290785 -->
<g id="edge62" class="edge">
<title>Node291079&#45;&gt;Node290785</title>
<path fill="none" stroke="#191970" d="M408.0603,-430.3035C423.7206,-435.9628 440.0106,-444.8705 450,-458.7916 499.452,-527.7073 452.4503,-760.886 486,-838.7916 532.7169,-947.2727 553.4427,-989.9855 661,-1038.7916 730.6128,-1070.3797 760.1042,-1061.8122 833,-1038.7916 864.1514,-1028.954 893.9598,-1004.9152 911.751,-988.476"/>
<polygon fill="#191970" stroke="#191970" points="914.2116,-990.9659 919.0414,-981.5359 909.3852,-985.8958 914.2116,-990.9659"/>
</g>
<!-- Node291079&#45;&gt;Node290845 -->
<g id="edge64" class="edge">
<title>Node291079&#45;&gt;Node290845</title>
<path fill="none" stroke="#191970" d="M406.6409,-430.3853C422.4881,-436.0881 439.2898,-445.0054 450,-458.7916 507.8264,-533.2259 456.1918,-578.3723 486,-667.7916 539.9967,-829.7723 515.3404,-920.7037 661,-1009.7916 726.214,-1049.6776 769.9479,-1053.0141 833,-1009.7916 852.953,-996.1138 904.6479,-837.974 922.4053,-782.1543"/>
<polygon fill="#191970" stroke="#191970" points="925.8031,-783.0178 925.4848,-772.4278 919.1295,-780.9049 925.8031,-783.0178"/>
</g>
<!-- Node291079&#45;&gt;Node291083 -->
<g id="edge58" class="edge">
<title>Node291079&#45;&gt;Node291083</title>
<path fill="none" stroke="#191970" d="M424.2684,-420.7916C495.5757,-420.7916 614.6444,-420.7916 686.4975,-420.7916"/>
<polygon fill="#191970" stroke="#191970" points="686.745,-424.2917 696.7449,-420.7916 686.7449,-417.2917 686.745,-424.2917"/>
</g>
<!-- Node291079&#45;&gt;Node290748 -->
<g id="edge60" class="edge">
<title>Node291079&#45;&gt;Node290748</title>
<path fill="none" stroke="#191970" d="M366.8872,-411.0896C377.1773,-359.2298 428.1789,-115.3969 486,-69.7916 607.2353,25.8304 694.0533,14.5537 833,-52.7916 876.9685,-74.1025 906.7966,-126.5622 920.2896,-154.9005"/>
<polygon fill="#191970" stroke="#191970" points="917.1761,-156.5082 924.5175,-164.1472 923.5422,-153.5974 917.1761,-156.5082"/>
</g>
<!-- Node291079&#45;&gt;Node290863 -->
<g id="edge63" class="edge">
<title>Node291079&#45;&gt;Node290863</title>
<path fill="none" stroke="#191970" d="M404.4193,-411.2715C418.9386,-407.3461 435.3985,-402.3974 450,-396.7916 547.6043,-359.3195 563.3388,-330.1152 661,-292.7916 672.4253,-288.4252 684.9778,-284.4703 696.8772,-281.0882"/>
<polygon fill="#191970" stroke="#191970" points="697.97,-284.4176 706.68,-278.3854 696.1093,-277.6694 697.97,-284.4176"/>
</g>
</g>
</svg>
