<?xml version="1.0" encoding="UTF-8" standalone="no"?>
<!DOCTYPE svg PUBLIC "-//W3C//DTD SVG 1.1//EN"
 "http://www.w3.org/Graphics/SVG/1.1/DTD/svg11.dtd">
<!-- Generated by graphviz version 2.40.1 (20161225.0304)
 -->
<!-- Title: js_free_modules Pages: 1 -->
<!--zoomable 325 -->
<svg id="main" version="1.1" xmlns="http://www.w3.org/2000/svg" xmlns:xlink="http://www.w3.org/1999/xlink" xml:space="preserve" onload="init(evt)">
<style type="text/css"><![CDATA[
.edge:hover path { stroke: red; }
.edge:hover polygon { stroke: red; fill: red; }
]]></style>
<script type="text/javascript"><![CDATA[
var edges = document.getElementsByTagName('g');
if (edges && edges.length) {
  for (var i=0;i<edges.length;i++) {
    if (edges[i].id.substr(0,4)=='edge') {
      edges[i].setAttribute('class','edge');
    }
  }
}
]]></script>
        <defs>
                <circle id="rim" cx="0" cy="0" r="7"/>
                <circle id="rim2" cx="0" cy="0" r="3.5"/>
                <g id="zoomPlus">
                        <use xlink:href="#rim" fill="#404040">
                                <set attributeName="fill" to="#808080" begin="zoomplus.mouseover" end="zoomplus.mouseout"/>
                        </use>
                        <path d="M-4,0h8M0,-4v8" fill="none" stroke="white" stroke-width="1.5" pointer-events="none"/>
                </g>
                <g id="zoomMin">
                        <use xlink:href="#rim" fill="#404040">
                                <set attributeName="fill" to="#808080" begin="zoomminus.mouseover" end="zoomminus.mouseout"/>
                        </use>
                        <path d="M-4,0h8" fill="none" stroke="white" stroke-width="1.5" pointer-events="none"/>
                </g>
                <g id="dirArrow">
                        <path fill="none" stroke="white" stroke-width="1.5" d="M0,-3.0v7 M-2.5,-0.5L0,-3.0L2.5,-0.5"/>
                </g>
               <g id="resetDef">
                       <use xlink:href="#rim2" fill="#404040">
                               <set attributeName="fill" to="#808080" begin="reset.mouseover" end="reset.mouseout"/>
                       </use>
               </g>
        </defs>

<script type="text/javascript">
var viewWidth = 544;
var viewHeight = 325;
var sectionId = 'dynsection-209';
</script>
<script xlink:href="svgpan.js"/>
<svg id="graph" class="graph">
<g id="viewport">
<title>js_free_modules</title>
<!-- Node69085 -->
<g id="node1" class="node">
<title>Node69085</title>
<polygon fill="#bfbfbf" stroke="#000000" points="0,-228.5 0,-247.5 88,-247.5 88,-228.5 0,-228.5"/>
<text text-anchor="middle" x="44" y="-235.5" font-family="Helvetica,sans-Serif" font-size="10.00" fill="#000000">js_free_modules</text>
</g>
<!-- Node69086 -->
<g id="node2" class="node">
<title>Node69086</title>
<g id="a_node2"><a xlink:href="quickjs_8c.html#a5d217acce00892ab2b50a1dcc1eb4cc8" target="_top" xlink:title="JS_EvalFunctionInternal">
<polygon fill="none" stroke="#000000" points="124,-247.5 124,-266.5 247,-266.5 247,-247.5 124,-247.5"/>
<text text-anchor="middle" x="185.5" y="-254.5" font-family="Helvetica,sans-Serif" font-size="10.00" fill="#000000">JS_EvalFunctionInternal</text>
</a>
</g>
</g>
<!-- Node69085&#45;&gt;Node69086 -->
<g id="edge1" class="edge">
<title>Node69085&#45;&gt;Node69086</title>
<path fill="none" stroke="#191970" d="M98.3801,-245.3019C106.7343,-246.4237 115.4107,-247.5887 123.9079,-248.7297"/>
<polygon fill="#191970" stroke="#191970" points="98.7601,-241.8216 88.3832,-243.9596 97.8285,-248.7594 98.7601,-241.8216"/>
</g>
<!-- Node69089 -->
<g id="node5" class="node">
<title>Node69089</title>
<g id="a_node5"><a xlink:href="quickjs_8c.html#aa75a2b06808d8da661d4eb6698b17cab" target="_top" xlink:title="JS_RunModule">
<polygon fill="none" stroke="#ff0000" points="445,-294.5 445,-313.5 528,-313.5 528,-294.5 445,-294.5"/>
<text text-anchor="middle" x="486.5" y="-301.5" font-family="Helvetica,sans-Serif" font-size="10.00" fill="#000000">JS_RunModule</text>
</a>
</g>
</g>
<!-- Node69085&#45;&gt;Node69089 -->
<g id="edge16" class="edge">
<title>Node69085&#45;&gt;Node69089</title>
<path fill="none" stroke="#191970" d="M70.2481,-252.1775C85.5853,-260.0242 105.5068,-269.4786 124,-276 241.1911,-317.3258 276.9464,-321.23 401,-314 415.3228,-313.1653 430.927,-311.5503 444.8373,-309.8577"/>
<polygon fill="#191970" stroke="#191970" points="71.8305,-249.0554 61.3446,-247.5401 68.5969,-255.2638 71.8305,-249.0554"/>
</g>
<!-- Node69693 -->
<g id="node7" class="node">
<title>Node69693</title>
<g id="a_node7"><a xlink:href="quickjs_8c.html#a1b4fe6eb1b7bcaec6713bd5ac2921f1b" target="_top" xlink:title="JS_FreeContext">
<polygon fill="none" stroke="#000000" points="141.5,-114.5 141.5,-133.5 229.5,-133.5 229.5,-114.5 141.5,-114.5"/>
<text text-anchor="middle" x="185.5" y="-121.5" font-family="Helvetica,sans-Serif" font-size="10.00" fill="#000000">JS_FreeContext</text>
</a>
</g>
</g>
<!-- Node69085&#45;&gt;Node69693 -->
<g id="edge6" class="edge">
<title>Node69085&#45;&gt;Node69693</title>
<path fill="none" stroke="#191970" d="M64.1172,-221.7925C93.9903,-197.7251 149.1606,-153.2769 173.4663,-133.695"/>
<polygon fill="#191970" stroke="#191970" points="61.6556,-219.2811 56.0642,-228.2804 66.0472,-224.7321 61.6556,-219.2811"/>
</g>
<!-- Node69828 -->
<g id="node15" class="node">
<title>Node69828</title>
<g id="a_node15"><a xlink:href="quickjs_8c.html#a3178c361614999c86711f292c035a706" target="_top" xlink:title="JS_ResolveModule">
<polygon fill="none" stroke="#000000" points="135,-209.5 135,-228.5 236,-228.5 236,-209.5 135,-209.5"/>
<text text-anchor="middle" x="185.5" y="-216.5" font-family="Helvetica,sans-Serif" font-size="10.00" fill="#000000">JS_ResolveModule</text>
</a>
</g>
</g>
<!-- Node69085&#45;&gt;Node69828 -->
<g id="edge14" class="edge">
<title>Node69085&#45;&gt;Node69828</title>
<path fill="none" stroke="#191970" d="M98.6477,-230.6621C110.5577,-229.0629 123.1106,-227.3774 134.857,-225.8001"/>
<polygon fill="#191970" stroke="#191970" points="97.8285,-227.2406 88.3832,-232.0404 98.7601,-234.1784 97.8285,-227.2406"/>
</g>
<!-- Node69087 -->
<g id="node3" class="node">
<title>Node69087</title>
<g id="a_node3"><a xlink:href="quickjs_8c.html#af38ab3d672d41db0fa7a75b5c24149e4" target="_top" xlink:title="JS_EvalFunction">
<polygon fill="none" stroke="#000000" points="296.5,-247.5 296.5,-266.5 387.5,-266.5 387.5,-247.5 296.5,-247.5"/>
<text text-anchor="middle" x="342" y="-254.5" font-family="Helvetica,sans-Serif" font-size="10.00" fill="#000000">JS_EvalFunction</text>
</a>
</g>
</g>
<!-- Node69086&#45;&gt;Node69087 -->
<g id="edge2" class="edge">
<title>Node69086&#45;&gt;Node69087</title>
<path fill="none" stroke="#191970" d="M257.7293,-257C270.7624,-257 284.0195,-257 296.043,-257"/>
<polygon fill="#191970" stroke="#191970" points="257.353,-253.5001 247.3529,-257 257.3529,-260.5001 257.353,-253.5001"/>
</g>
<!-- Node69275 -->
<g id="node6" class="node">
<title>Node69275</title>
<g id="a_node6"><a xlink:href="quickjs_8c.html#a46a8a7e155cfd0af984f6725f060f0d6" target="_top" xlink:title="__JS_EvalInternal">
<polygon fill="none" stroke="#ff0000" points="294,-285.5 294,-304.5 390,-304.5 390,-285.5 294,-285.5"/>
<text text-anchor="middle" x="342" y="-292.5" font-family="Helvetica,sans-Serif" font-size="10.00" fill="#000000">__JS_EvalInternal</text>
</a>
</g>
</g>
<!-- Node69086&#45;&gt;Node69275 -->
<g id="edge5" class="edge">
<title>Node69086&#45;&gt;Node69275</title>
<path fill="none" stroke="#191970" d="M234.7892,-268.968C256.7203,-274.2931 282.1849,-280.4762 302.7924,-285.4799"/>
<polygon fill="#191970" stroke="#191970" points="235.5351,-265.5475 224.9916,-266.589 233.8833,-272.3498 235.5351,-265.5475"/>
</g>
<!-- Node69088 -->
<g id="node4" class="node">
<title>Node69088</title>
<g id="a_node4"><a xlink:href="quickjs-libc_8c.html#ab1b439d304c2125490b47ef262b5df67" target="_top" xlink:title="js_std_eval_binary">
<polygon fill="none" stroke="#000000" points="437.5,-228.5 437.5,-247.5 535.5,-247.5 535.5,-228.5 437.5,-228.5"/>
<text text-anchor="middle" x="486.5" y="-235.5" font-family="Helvetica,sans-Serif" font-size="10.00" fill="#000000">js_std_eval_binary</text>
</a>
</g>
</g>
<!-- Node69087&#45;&gt;Node69088 -->
<g id="edge3" class="edge">
<title>Node69087&#45;&gt;Node69088</title>
<path fill="none" stroke="#191970" d="M397.9422,-249.6443C410.9286,-247.9367 424.6567,-246.1316 437.3268,-244.4657"/>
<polygon fill="#191970" stroke="#191970" points="397.1791,-246.2144 387.7207,-250.9883 398.0917,-253.1547 397.1791,-246.2144"/>
</g>
<!-- Node69087&#45;&gt;Node69089 -->
<g id="edge4" class="edge">
<title>Node69087&#45;&gt;Node69089</title>
<path fill="none" stroke="#191970" d="M381.6695,-269.7453C388.1321,-271.8302 394.7535,-273.9714 401,-276 419.7182,-282.0789 440.7229,-288.9568 457.2289,-294.3746"/>
<polygon fill="#191970" stroke="#191970" points="382.3129,-266.2755 371.7214,-266.5398 380.166,-272.9381 382.3129,-266.2755"/>
</g>
<!-- Node69694 -->
<g id="node8" class="node">
<title>Node69694</title>
<g id="a_node8"><a xlink:href="classqjs_1_1Context.html#a5aeaa5a266944f0d9d515d2b8eac767f" target="_top" xlink:title="qjs::Context::~Context">
<polygon fill="none" stroke="#000000" points="284,-57.5 284,-76.5 400,-76.5 400,-57.5 284,-57.5"/>
<text text-anchor="middle" x="342" y="-64.5" font-family="Helvetica,sans-Serif" font-size="10.00" fill="#000000">qjs::Context::~Context</text>
</a>
</g>
</g>
<!-- Node69693&#45;&gt;Node69694 -->
<g id="edge7" class="edge">
<title>Node69693&#45;&gt;Node69694</title>
<path fill="none" stroke="#191970" d="M218.3131,-110.6441C237.1398,-103.1241 261.2807,-93.7218 283,-86 292.1254,-82.7557 302.1267,-79.4442 311.2601,-76.5137"/>
<polygon fill="#191970" stroke="#191970" points="216.9692,-107.4121 208.9934,-114.3862 219.5775,-113.908 216.9692,-107.4121"/>
</g>
<!-- Node69098 -->
<g id="node9" class="node">
<title>Node69098</title>
<g id="a_node9"><a xlink:href="quickjs-libc_8c.html#a1fbb3adc15e7b967479fc1940e99b67a" target="_top" xlink:title="worker_func">
<polygon fill="none" stroke="#ff0000" points="307,-171.5 307,-190.5 377,-190.5 377,-171.5 307,-171.5"/>
<text text-anchor="middle" x="342" y="-178.5" font-family="Helvetica,sans-Serif" font-size="10.00" fill="#000000">worker_func</text>
</a>
</g>
</g>
<!-- Node69693&#45;&gt;Node69098 -->
<g id="edge8" class="edge">
<title>Node69693&#45;&gt;Node69098</title>
<path fill="none" stroke="#191970" d="M218.3131,-137.3559C237.1398,-144.8759 261.2807,-154.2782 283,-162 292.1254,-165.2443 302.1267,-168.5558 311.2601,-171.4863"/>
<polygon fill="#191970" stroke="#191970" points="219.5775,-134.092 208.9934,-133.6138 216.9692,-140.5879 219.5775,-134.092"/>
</g>
<!-- Node69695 -->
<g id="node10" class="node">
<title>Node69695</title>
<g id="a_node10"><a xlink:href="quickjs_8c.html#af2bcf1faee5b5dd948692540d9cce73e" target="_top" xlink:title="js_autoinit_free">
<polygon fill="none" stroke="#000000" points="300.5,-19.5 300.5,-38.5 383.5,-38.5 383.5,-19.5 300.5,-19.5"/>
<text text-anchor="middle" x="342" y="-26.5" font-family="Helvetica,sans-Serif" font-size="10.00" fill="#000000">js_autoinit_free</text>
</a>
</g>
</g>
<!-- Node69693&#45;&gt;Node69695 -->
<g id="edge9" class="edge">
<title>Node69693&#45;&gt;Node69695</title>
<path fill="none" stroke="#191970" d="M202.8456,-107.371C221.3803,-90.3869 252.2664,-64.2679 283,-48 290.0381,-44.2746 297.9371,-41.1154 305.6113,-38.5063"/>
<polygon fill="#191970" stroke="#191970" points="200.3959,-104.8697 195.4692,-114.2494 205.1698,-109.9893 200.3959,-104.8697"/>
</g>
<!-- Node69827 -->
<g id="node13" class="node">
<title>Node69827</title>
<g id="a_node13"><a xlink:href="quickjs_8c.html#a7fc69d7fe9fa0f902d0d9a3640634711" target="_top" xlink:title="js_c_function_finalizer">
<polygon fill="none" stroke="#000000" points="285.5,-133.5 285.5,-152.5 398.5,-152.5 398.5,-133.5 285.5,-133.5"/>
<text text-anchor="middle" x="342" y="-140.5" font-family="Helvetica,sans-Serif" font-size="10.00" fill="#000000">js_c_function_finalizer</text>
</a>
</g>
</g>
<!-- Node69693&#45;&gt;Node69827 -->
<g id="edge12" class="edge">
<title>Node69693&#45;&gt;Node69827</title>
<path fill="none" stroke="#191970" d="M239.5399,-130.5608C254.367,-132.3608 270.4804,-134.3171 285.4446,-136.1338"/>
<polygon fill="#191970" stroke="#191970" points="239.8594,-127.0739 229.5105,-129.3431 239.0157,-134.0229 239.8594,-127.0739"/>
</g>
<!-- Node69758 -->
<g id="node14" class="node">
<title>Node69758</title>
<g id="a_node14"><a xlink:href="quickjs_8c.html#adc4a49d7eb1cc1ec4b3a8c37ab8cb075" target="_top" xlink:title="free_function_bytecode">
<polygon fill="none" stroke="#ff0000" points="283,-95.5 283,-114.5 401,-114.5 401,-95.5 283,-95.5"/>
<text text-anchor="middle" x="342" y="-102.5" font-family="Helvetica,sans-Serif" font-size="10.00" fill="#000000">free_function_bytecode</text>
</a>
</g>
</g>
<!-- Node69693&#45;&gt;Node69758 -->
<g id="edge13" class="edge">
<title>Node69693&#45;&gt;Node69758</title>
<path fill="none" stroke="#191970" d="M239.4664,-117.4482C253.4585,-115.7494 268.6005,-113.9111 282.8436,-112.1819"/>
<polygon fill="#191970" stroke="#191970" points="239.0157,-113.9771 229.5105,-118.6569 239.8594,-120.9261 239.0157,-113.9771"/>
</g>
<!-- Node69696 -->
<g id="node11" class="node">
<title>Node69696</title>
<g id="a_node11"><a xlink:href="quickjs_8c.html#af4274494e2e45f9018154ffcbb7e89e4" target="_top" xlink:title="free_property">
<polygon fill="none" stroke="#ff0000" points="449.5,-38.5 449.5,-57.5 523.5,-57.5 523.5,-38.5 449.5,-38.5"/>
<text text-anchor="middle" x="486.5" y="-45.5" font-family="Helvetica,sans-Serif" font-size="10.00" fill="#000000">free_property</text>
</a>
</g>
</g>
<!-- Node69695&#45;&gt;Node69696 -->
<g id="edge10" class="edge">
<title>Node69695&#45;&gt;Node69696</title>
<path fill="none" stroke="#191970" d="M393.7497,-35.8045C412.0835,-38.2151 432.3373,-40.8783 449.229,-43.0993"/>
<polygon fill="#191970" stroke="#191970" points="394.1664,-32.3292 383.7954,-34.4956 393.2537,-39.2695 394.1664,-32.3292"/>
</g>
<!-- Node69232 -->
<g id="node12" class="node">
<title>Node69232</title>
<g id="a_node12"><a xlink:href="quickjs_8c.html#ab50618f1bf78e444caa6da0e3e2785d7" target="_top" xlink:title="JS_DefineProperty">
<polygon fill="none" stroke="#ff0000" points="437,-.5 437,-19.5 536,-19.5 536,-.5 437,-.5"/>
<text text-anchor="middle" x="486.5" y="-7.5" font-family="Helvetica,sans-Serif" font-size="10.00" fill="#000000">JS_DefineProperty</text>
</a>
</g>
</g>
<!-- Node69695&#45;&gt;Node69232 -->
<g id="edge11" class="edge">
<title>Node69695&#45;&gt;Node69232</title>
<path fill="none" stroke="#191970" d="M393.7805,-22.1915C407.8124,-20.3465 422.9671,-18.3538 436.8771,-16.5248"/>
<polygon fill="#191970" stroke="#191970" points="393.2537,-18.7305 383.7954,-23.5044 394.1664,-25.6708 393.2537,-18.7305"/>
</g>
<!-- Node69828&#45;&gt;Node69088 -->
<g id="edge15" class="edge">
<title>Node69828&#45;&gt;Node69088</title>
<path fill="none" stroke="#191970" d="M246.3883,-222.8434C302.5464,-226.3883 384.8852,-231.5858 437.0738,-234.8801"/>
<polygon fill="#191970" stroke="#191970" points="246.4208,-219.3386 236.2202,-222.2016 245.9798,-226.3247 246.4208,-219.3386"/>
</g>
</g>
</svg>
        <g id="navigator" transform="translate(0 0)" fill="#404254">
                <rect fill="#f2f5e9" fill-opacity="0.5" stroke="#606060" stroke-width=".5" x="0" y="0" width="60" height="60"/>
                <use id="zoomplus" xlink:href="#zoomPlus" x="17" y="9" onmousedown="handleZoom(evt,'in')"/>
                <use id="zoomminus" xlink:href="#zoomMin" x="42" y="9" onmousedown="handleZoom(evt,'out')"/>
                <use id="reset" xlink:href="#resetDef" x="30" y="36" onmousedown="handleReset()"/>
                <g id="arrowUp" xlink:href="#dirArrow" transform="translate(30 24)" onmousedown="handlePan(0,-1)">
                  <use xlink:href="#rim" fill="#404040">
                        <set attributeName="fill" to="#808080" begin="arrowUp.mouseover" end="arrowUp.mouseout"/>
                  </use>
                  <path fill="none" stroke="white" stroke-width="1.5" d="M0,-3.0v7 M-2.5,-0.5L0,-3.0L2.5,-0.5"/>
                </g>
                <g id="arrowRight" xlink:href="#dirArrow" transform="rotate(90) translate(36 -43)" onmousedown="handlePan(1,0)">
                  <use xlink:href="#rim" fill="#404040">
                        <set attributeName="fill" to="#808080" begin="arrowRight.mouseover" end="arrowRight.mouseout"/>
                  </use>
                  <path fill="none" stroke="white" stroke-width="1.5" d="M0,-3.0v7 M-2.5,-0.5L0,-3.0L2.5,-0.5"/>
                </g>
                <g id="arrowDown" xlink:href="#dirArrow" transform="rotate(180) translate(-30 -48)" onmousedown="handlePan(0,1)">
                  <use xlink:href="#rim" fill="#404040">
                        <set attributeName="fill" to="#808080" begin="arrowDown.mouseover" end="arrowDown.mouseout"/>
                  </use>
                  <path fill="none" stroke="white" stroke-width="1.5" d="M0,-3.0v7 M-2.5,-0.5L0,-3.0L2.5,-0.5"/>
                </g>
                <g id="arrowLeft" xlink:href="#dirArrow" transform="rotate(270) translate(-36 17)" onmousedown="handlePan(-1,0)">
                  <use xlink:href="#rim" fill="#404040">
                        <set attributeName="fill" to="#808080" begin="arrowLeft.mouseover" end="arrowLeft.mouseout"/>
                  </use>
                  <path fill="none" stroke="white" stroke-width="1.5" d="M0,-3.0v7 M-2.5,-0.5L0,-3.0L2.5,-0.5"/>
                </g>
        </g>
        <svg viewBox="0 0 15 15" width="100%" height="30px" preserveAspectRatio="xMaxYMin meet">
         <g id="arrow_out" transform="scale(0.3 0.3)">
          <a xlink:href="quickjs_8c_adcabee55726eddca24893a78515c7ba2_icgraph_org.svg" target="_base">
           <rect id="button" ry="5" rx="5" y="6" x="6" height="38" width="38"
                fill="#f2f5e9" fill-opacity="0.5" stroke="#606060" stroke-width="1.0"/>
           <path id="arrow"
             d="M 11.500037,31.436501 C 11.940474,20.09759 22.043105,11.32322 32.158766,21.979434 L 37.068811,17.246167 C 37.068811,17.246167 37.088388,32 37.088388,32 L 22.160133,31.978069 C 22.160133,31.978069 26.997745,27.140456 26.997745,27.140456 C 18.528582,18.264221 13.291696,25.230495 11.500037,31.436501 z"
             style="fill:#404040;"/>
          </a>
         </g>
        </svg>
</svg>
