<?xml version="1.0" encoding="UTF-8" standalone="no"?>
<!DOCTYPE svg PUBLIC "-//W3C//DTD SVG 1.1//EN"
 "http://www.w3.org/Graphics/SVG/1.1/DTD/svg11.dtd">
<!-- Generated by graphviz version 2.40.1 (20161225.0304)
 -->
<!-- Title: js_eq_slow Pages: 1 -->
<!--zoomable 294 -->
<svg id="main" version="1.1" xmlns="http://www.w3.org/2000/svg" xmlns:xlink="http://www.w3.org/1999/xlink" xml:space="preserve" onload="init(evt)">
<style type="text/css"><![CDATA[
.edge:hover path { stroke: red; }
.edge:hover polygon { stroke: red; fill: red; }
]]></style>
<script type="text/javascript"><![CDATA[
var edges = document.getElementsByTagName('g');
if (edges && edges.length) {
  for (var i=0;i<edges.length;i++) {
    if (edges[i].id.substr(0,4)=='edge') {
      edges[i].setAttribute('class','edge');
    }
  }
}
]]></script>
        <defs>
                <circle id="rim" cx="0" cy="0" r="7"/>
                <circle id="rim2" cx="0" cy="0" r="3.5"/>
                <g id="zoomPlus">
                        <use xlink:href="#rim" fill="#404040">
                                <set attributeName="fill" to="#808080" begin="zoomplus.mouseover" end="zoomplus.mouseout"/>
                        </use>
                        <path d="M-4,0h8M0,-4v8" fill="none" stroke="white" stroke-width="1.5" pointer-events="none"/>
                </g>
                <g id="zoomMin">
                        <use xlink:href="#rim" fill="#404040">
                                <set attributeName="fill" to="#808080" begin="zoomminus.mouseover" end="zoomminus.mouseout"/>
                        </use>
                        <path d="M-4,0h8" fill="none" stroke="white" stroke-width="1.5" pointer-events="none"/>
                </g>
                <g id="dirArrow">
                        <path fill="none" stroke="white" stroke-width="1.5" d="M0,-3.0v7 M-2.5,-0.5L0,-3.0L2.5,-0.5"/>
                </g>
               <g id="resetDef">
                       <use xlink:href="#rim2" fill="#404040">
                               <set attributeName="fill" to="#808080" begin="reset.mouseover" end="reset.mouseout"/>
                       </use>
               </g>
        </defs>

<script type="text/javascript">
var viewWidth = 747;
var viewHeight = 294;
var sectionId = 'dynsection-771';
</script>
<script xlink:href="svgpan.js"/>
<svg id="graph" class="graph">
<g id="viewport">
<title>js_eq_slow</title>
<!-- Node262566 -->
<g id="node1" class="node">
<title>Node262566</title>
<polygon fill="#bfbfbf" stroke="#000000" points="0,-133.5 0,-152.5 65,-152.5 65,-133.5 0,-133.5"/>
<text text-anchor="middle" x="32.5" y="-140.5" font-family="Helvetica,sans-Serif" font-size="10.00" fill="#000000">js_eq_slow</text>
</g>
<!-- Node262567 -->
<g id="node2" class="node">
<title>Node262567</title>
<g id="a_node2"><a xlink:href="quickjs_8h.html#afaa20c47565bc704c6c85f3d77254e7d" target="_top" xlink:title="JS_FreeValue">
<polygon fill="none" stroke="#000000" points="387.5,-228.5 387.5,-247.5 465.5,-247.5 465.5,-228.5 387.5,-228.5"/>
<text text-anchor="middle" x="426.5" y="-235.5" font-family="Helvetica,sans-Serif" font-size="10.00" fill="#000000">JS_FreeValue</text>
</a>
</g>
</g>
<!-- Node262566&#45;&gt;Node262567 -->
<g id="edge1" class="edge">
<title>Node262566&#45;&gt;Node262567</title>
<path fill="none" stroke="#191970" d="M37.7451,-152.6361C47.5809,-169.6015 70.5778,-204.3876 101,-219 190.7252,-262.0968 310.7633,-254.9529 377.1379,-246.2539"/>
<polygon fill="#191970" stroke="#191970" points="377.8881,-249.6837 387.317,-244.8519 376.9329,-242.7492 377.8881,-249.6837"/>
</g>
<!-- Node262605 -->
<g id="node5" class="node">
<title>Node262605</title>
<g id="a_node5"><a xlink:href="quickjs_8h.html#ad80a83d73e9b7d872b88fbf2943aebe9" target="_top" xlink:title="JS_IsException">
<polygon fill="none" stroke="#000000" points="383.5,-38.5 383.5,-57.5 469.5,-57.5 469.5,-38.5 383.5,-38.5"/>
<text text-anchor="middle" x="426.5" y="-45.5" font-family="Helvetica,sans-Serif" font-size="10.00" fill="#000000">JS_IsException</text>
</a>
</g>
</g>
<!-- Node262566&#45;&gt;Node262605 -->
<g id="edge4" class="edge">
<title>Node262566&#45;&gt;Node262605</title>
<path fill="none" stroke="#191970" d="M40.1555,-133.3404C51.7037,-119.5455 75.011,-94.5915 101,-83 190.1811,-43.2238 306.2675,-41.073 372.9772,-43.9604"/>
<polygon fill="#191970" stroke="#191970" points="373.0892,-47.4699 383.2481,-44.462 373.4308,-40.4783 373.0892,-47.4699"/>
</g>
<!-- Node262606 -->
<g id="node6" class="node">
<title>Node262606</title>
<g id="a_node6"><a xlink:href="quickjs_8c.html#a0dec59aeda4a578b23b23a9dac6df7c9" target="_top" xlink:title="JS_IsHTMLDDA">
<polygon fill="none" stroke="#000000" points="104,-190.5 104,-209.5 195,-209.5 195,-190.5 104,-190.5"/>
<text text-anchor="middle" x="149.5" y="-197.5" font-family="Helvetica,sans-Serif" font-size="10.00" fill="#000000">JS_IsHTMLDDA</text>
</a>
</g>
</g>
<!-- Node262566&#45;&gt;Node262606 -->
<g id="edge5" class="edge">
<title>Node262566&#45;&gt;Node262606</title>
<path fill="none" stroke="#191970" d="M48.2408,-152.5203C61.9262,-160.6051 82.4198,-172.2545 101,-181 105.1154,-182.9371 109.4858,-184.8464 113.8522,-186.6641"/>
<polygon fill="#191970" stroke="#191970" points="112.7204,-189.9815 123.3039,-190.4723 115.3365,-183.4887 112.7204,-189.9815"/>
</g>
<!-- Node262607 -->
<g id="node7" class="node">
<title>Node262607</title>
<g id="a_node7"><a xlink:href="quickjs_8h.html#a93abffa925714e249a6aa2f4ae7900f6" target="_top" xlink:title="JS_NewBool">
<polygon fill="none" stroke="#000000" points="112.5,-152.5 112.5,-171.5 186.5,-171.5 186.5,-152.5 112.5,-152.5"/>
<text text-anchor="middle" x="149.5" y="-159.5" font-family="Helvetica,sans-Serif" font-size="10.00" fill="#000000">JS_NewBool</text>
</a>
</g>
</g>
<!-- Node262566&#45;&gt;Node262607 -->
<g id="edge6" class="edge">
<title>Node262566&#45;&gt;Node262607</title>
<path fill="none" stroke="#191970" d="M65.091,-148.2926C76.5012,-150.1455 89.5593,-152.266 101.9396,-154.2765"/>
<polygon fill="#191970" stroke="#191970" points="101.6968,-157.7829 112.1286,-155.9311 102.819,-150.8734 101.6968,-157.7829"/>
</g>
<!-- Node262608 -->
<g id="node8" class="node">
<title>Node262608</title>
<g id="a_node8"><a xlink:href="quickjs_8h.html#a2050bc428da1c65ac7eb87c3fa3b0392" target="_top" xlink:title="JS_NewInt32">
<polygon fill="none" stroke="#000000" points="111.5,-114.5 111.5,-133.5 187.5,-133.5 187.5,-114.5 111.5,-114.5"/>
<text text-anchor="middle" x="149.5" y="-121.5" font-family="Helvetica,sans-Serif" font-size="10.00" fill="#000000">JS_NewInt32</text>
</a>
</g>
</g>
<!-- Node262566&#45;&gt;Node262608 -->
<g id="edge7" class="edge">
<title>Node262566&#45;&gt;Node262608</title>
<path fill="none" stroke="#191970" d="M65.091,-137.7074C76.2899,-135.8888 89.0763,-133.8124 101.2512,-131.8353"/>
<polygon fill="#191970" stroke="#191970" points="101.9763,-135.2635 111.286,-130.2057 100.8542,-128.354 101.9763,-135.2635"/>
</g>
<!-- Node262609 -->
<g id="node9" class="node">
<title>Node262609</title>
<g id="a_node9"><a xlink:href="quickjs_8c.html#a2c7ed6633056510dfefd7919259f189d" target="_top" xlink:title="js_strict_eq">
<polygon fill="none" stroke="#000000" points="116,-266.5 116,-285.5 183,-285.5 183,-266.5 116,-266.5"/>
<text text-anchor="middle" x="149.5" y="-273.5" font-family="Helvetica,sans-Serif" font-size="10.00" fill="#000000">js_strict_eq</text>
</a>
</g>
</g>
<!-- Node262566&#45;&gt;Node262609 -->
<g id="edge8" class="edge">
<title>Node262566&#45;&gt;Node262609</title>
<path fill="none" stroke="#191970" d="M36.3981,-152.6819C45.1424,-173.3544 68.1602,-222.3367 101,-252 105.0958,-255.6997 109.8661,-258.9652 114.7855,-261.8011"/>
<polygon fill="#191970" stroke="#191970" points="113.2027,-264.923 123.688,-266.4426 116.4389,-258.716 113.2027,-264.923"/>
</g>
<!-- Node262616 -->
<g id="node12" class="node">
<title>Node262616</title>
<g id="a_node12"><a xlink:href="quickjs_8c.html#ab1b614ef35f1cea05da0ad4927c53118" target="_top" xlink:title="JS_ToFloat64Free">
<polygon fill="none" stroke="#000000" points="101,-.5 101,-19.5 198,-19.5 198,-.5 101,-.5"/>
<text text-anchor="middle" x="149.5" y="-7.5" font-family="Helvetica,sans-Serif" font-size="10.00" fill="#000000">JS_ToFloat64Free</text>
</a>
</g>
</g>
<!-- Node262566&#45;&gt;Node262616 -->
<g id="edge12" class="edge">
<title>Node262566&#45;&gt;Node262616</title>
<path fill="none" stroke="#191970" d="M36.3981,-133.3181C45.1424,-112.6456 68.1602,-63.6633 101,-34 105.0958,-30.3003 109.8661,-27.0348 114.7855,-24.1989"/>
<polygon fill="#191970" stroke="#191970" points="116.4389,-27.284 123.688,-19.5574 113.2027,-21.077 116.4389,-27.284"/>
</g>
<!-- Node262665 -->
<g id="node15" class="node">
<title>Node262665</title>
<g id="a_node15"><a xlink:href="quickjs_8c.html#abac33881bb91f8c31106f616d81b67e8" target="_top" xlink:title="JS_ToPrimitiveFree">
<polygon fill="none" stroke="#ff0000" points="236,-76.5 236,-95.5 339,-95.5 339,-76.5 236,-76.5"/>
<text text-anchor="middle" x="287.5" y="-83.5" font-family="Helvetica,sans-Serif" font-size="10.00" fill="#000000">JS_ToPrimitiveFree</text>
</a>
</g>
</g>
<!-- Node262566&#45;&gt;Node262665 -->
<g id="edge16" class="edge">
<title>Node262566&#45;&gt;Node262665</title>
<path fill="none" stroke="#191970" d="M45.9159,-133.3852C59.2099,-124.3996 80.4978,-111.4321 101,-105 141.3067,-92.3547 188.6841,-87.6479 225.6007,-86.0804"/>
<polygon fill="#191970" stroke="#191970" points="225.853,-89.5737 235.7211,-85.7175 225.6021,-82.5782 225.853,-89.5737"/>
</g>
<!-- Node262568 -->
<g id="node3" class="node">
<title>Node262568</title>
<g id="a_node3"><a xlink:href="quickjs_8c.html#aa059f309c30fd5166d16c82a97973146" target="_top" xlink:title="__JS_FreeValue">
<polygon fill="none" stroke="#000000" points="512,-228.5 512,-247.5 601,-247.5 601,-228.5 512,-228.5"/>
<text text-anchor="middle" x="556.5" y="-235.5" font-family="Helvetica,sans-Serif" font-size="10.00" fill="#000000">__JS_FreeValue</text>
</a>
</g>
</g>
<!-- Node262567&#45;&gt;Node262568 -->
<g id="edge2" class="edge">
<title>Node262567&#45;&gt;Node262568</title>
<path fill="none" stroke="#191970" d="M465.5043,-238C476.8396,-238 489.4377,-238 501.5577,-238"/>
<polygon fill="#191970" stroke="#191970" points="501.5879,-241.5001 511.5879,-238 501.5878,-234.5001 501.5879,-241.5001"/>
</g>
<!-- Node262569 -->
<g id="node4" class="node">
<title>Node262569</title>
<g id="a_node4"><a xlink:href="quickjs_8c.html#ab1ea3fad7d138be12144a38be4d36423" target="_top" xlink:title="__JS_FreeValueRT">
<polygon fill="none" stroke="#ff0000" points="637,-228.5 637,-247.5 739,-247.5 739,-228.5 637,-228.5"/>
<text text-anchor="middle" x="688" y="-235.5" font-family="Helvetica,sans-Serif" font-size="10.00" fill="#000000">__JS_FreeValueRT</text>
</a>
</g>
</g>
<!-- Node262568&#45;&gt;Node262569 -->
<g id="edge3" class="edge">
<title>Node262568&#45;&gt;Node262569</title>
<path fill="none" stroke="#191970" d="M601.0199,-238C609.2672,-238 618.0138,-238 626.6583,-238"/>
<polygon fill="#191970" stroke="#191970" points="626.7233,-241.5001 636.7233,-238 626.7232,-234.5001 626.7233,-241.5001"/>
</g>
<!-- Node262610 -->
<g id="node10" class="node">
<title>Node262610</title>
<g id="a_node10"><a xlink:href="quickjs_8c.html#a6b7e8c810c238daa5ac20c70c2f22b24" target="_top" xlink:title="js_strict_eq2">
<polygon fill="none" stroke="#000000" points="251.5,-266.5 251.5,-285.5 323.5,-285.5 323.5,-266.5 251.5,-266.5"/>
<text text-anchor="middle" x="287.5" y="-273.5" font-family="Helvetica,sans-Serif" font-size="10.00" fill="#000000">js_strict_eq2</text>
</a>
</g>
</g>
<!-- Node262609&#45;&gt;Node262610 -->
<g id="edge9" class="edge">
<title>Node262609&#45;&gt;Node262610</title>
<path fill="none" stroke="#191970" d="M183.2586,-276C200.6288,-276 222.0722,-276 240.9851,-276"/>
<polygon fill="#191970" stroke="#191970" points="241.19,-279.5001 251.19,-276 241.1899,-272.5001 241.19,-279.5001"/>
</g>
<!-- Node262610&#45;&gt;Node262567 -->
<g id="edge10" class="edge">
<title>Node262610&#45;&gt;Node262567</title>
<path fill="none" stroke="#191970" d="M322.5756,-266.411C340.5191,-261.5056 362.5584,-255.4804 381.7167,-250.2429"/>
<polygon fill="#191970" stroke="#191970" points="382.7126,-253.5992 391.4357,-247.5859 380.8666,-246.8469 382.7126,-253.5992"/>
</g>
<!-- Node262611 -->
<g id="node11" class="node">
<title>Node262611</title>
<g id="a_node11"><a xlink:href="quickjs_8c.html#a3d9b165d4274aa43e051caba9bcbbe9f" target="_top" xlink:title="js_string_compare">
<polygon fill="none" stroke="#ff0000" points="378.5,-266.5 378.5,-285.5 474.5,-285.5 474.5,-266.5 378.5,-266.5"/>
<text text-anchor="middle" x="426.5" y="-273.5" font-family="Helvetica,sans-Serif" font-size="10.00" fill="#000000">js_string_compare</text>
</a>
</g>
</g>
<!-- Node262610&#45;&gt;Node262611 -->
<g id="edge11" class="edge">
<title>Node262610&#45;&gt;Node262611</title>
<path fill="none" stroke="#191970" d="M323.6578,-276C337.252,-276 353.0768,-276 368.1785,-276"/>
<polygon fill="#191970" stroke="#191970" points="368.4817,-279.5001 378.4816,-276 368.4816,-272.5001 368.4817,-279.5001"/>
</g>
<!-- Node262617 -->
<g id="node13" class="node">
<title>Node262617</title>
<g id="a_node13"><a xlink:href="quickjs_8c.html#a9a2e141f21d9ea38a3a23c9b4eb6e356" target="_top" xlink:title="__JS_ToFloat64Free">
<polygon fill="none" stroke="#000000" points="234,-.5 234,-19.5 341,-19.5 341,-.5 234,-.5"/>
<text text-anchor="middle" x="287.5" y="-7.5" font-family="Helvetica,sans-Serif" font-size="10.00" fill="#000000">__JS_ToFloat64Free</text>
</a>
</g>
</g>
<!-- Node262616&#45;&gt;Node262617 -->
<g id="edge13" class="edge">
<title>Node262616&#45;&gt;Node262617</title>
<path fill="none" stroke="#191970" d="M198.1536,-10C206.3186,-10 214.901,-10 223.3844,-10"/>
<polygon fill="#191970" stroke="#191970" points="223.6485,-13.5001 233.6485,-10 223.6485,-6.5001 223.6485,-13.5001"/>
</g>
<!-- Node262617&#45;&gt;Node262605 -->
<g id="edge14" class="edge">
<title>Node262617&#45;&gt;Node262605</title>
<path fill="none" stroke="#191970" d="M322.5756,-19.589C340.5191,-24.4944 362.5584,-30.5196 381.7167,-35.7571"/>
<polygon fill="#191970" stroke="#191970" points="380.8666,-39.1531 391.4357,-38.4141 382.7126,-32.4008 380.8666,-39.1531"/>
</g>
<!-- Node262618 -->
<g id="node14" class="node">
<title>Node262618</title>
<g id="a_node14"><a xlink:href="quickjs_8c.html#ae738291483438efefca5c9fa4d269504" target="_top" xlink:title="JS_ToNumberFree">
<polygon fill="none" stroke="#ff0000" points="377,-.5 377,-19.5 476,-19.5 476,-.5 377,-.5"/>
<text text-anchor="middle" x="426.5" y="-7.5" font-family="Helvetica,sans-Serif" font-size="10.00" fill="#000000">JS_ToNumberFree</text>
</a>
</g>
</g>
<!-- Node262617&#45;&gt;Node262618 -->
<g id="edge15" class="edge">
<title>Node262617&#45;&gt;Node262618</title>
<path fill="none" stroke="#191970" d="M341.241,-10C349.6052,-10 358.2907,-10 366.7778,-10"/>
<polygon fill="#191970" stroke="#191970" points="366.9969,-13.5001 376.9968,-10 366.9968,-6.5001 366.9969,-13.5001"/>
</g>
<!-- Node262665&#45;&gt;Node262567 -->
<g id="edge17" class="edge">
<title>Node262665&#45;&gt;Node262567</title>
<path fill="none" stroke="#191970" d="M296.1951,-95.5083C319.1099,-120.5662 381.4022,-188.6845 410.7743,-220.8035"/>
<polygon fill="#191970" stroke="#191970" points="408.4769,-223.4777 417.8082,-228.4953 413.6426,-218.7537 408.4769,-223.4777"/>
</g>
<!-- Node262665&#45;&gt;Node262605 -->
<g id="edge18" class="edge">
<title>Node262665&#45;&gt;Node262605</title>
<path fill="none" stroke="#191970" d="M322.5756,-76.411C340.5191,-71.5056 362.5584,-65.4804 381.7167,-60.2429"/>
<polygon fill="#191970" stroke="#191970" points="382.7126,-63.5992 391.4357,-57.5859 380.8666,-56.8469 382.7126,-63.5992"/>
</g>
</g>
</svg>
        <g id="navigator" transform="translate(0 0)" fill="#404254">
                <rect fill="#f2f5e9" fill-opacity="0.5" stroke="#606060" stroke-width=".5" x="0" y="0" width="60" height="60"/>
                <use id="zoomplus" xlink:href="#zoomPlus" x="17" y="9" onmousedown="handleZoom(evt,'in')"/>
                <use id="zoomminus" xlink:href="#zoomMin" x="42" y="9" onmousedown="handleZoom(evt,'out')"/>
                <use id="reset" xlink:href="#resetDef" x="30" y="36" onmousedown="handleReset()"/>
                <g id="arrowUp" xlink:href="#dirArrow" transform="translate(30 24)" onmousedown="handlePan(0,-1)">
                  <use xlink:href="#rim" fill="#404040">
                        <set attributeName="fill" to="#808080" begin="arrowUp.mouseover" end="arrowUp.mouseout"/>
                  </use>
                  <path fill="none" stroke="white" stroke-width="1.5" d="M0,-3.0v7 M-2.5,-0.5L0,-3.0L2.5,-0.5"/>
                </g>
                <g id="arrowRight" xlink:href="#dirArrow" transform="rotate(90) translate(36 -43)" onmousedown="handlePan(1,0)">
                  <use xlink:href="#rim" fill="#404040">
                        <set attributeName="fill" to="#808080" begin="arrowRight.mouseover" end="arrowRight.mouseout"/>
                  </use>
                  <path fill="none" stroke="white" stroke-width="1.5" d="M0,-3.0v7 M-2.5,-0.5L0,-3.0L2.5,-0.5"/>
                </g>
                <g id="arrowDown" xlink:href="#dirArrow" transform="rotate(180) translate(-30 -48)" onmousedown="handlePan(0,1)">
                  <use xlink:href="#rim" fill="#404040">
                        <set attributeName="fill" to="#808080" begin="arrowDown.mouseover" end="arrowDown.mouseout"/>
                  </use>
                  <path fill="none" stroke="white" stroke-width="1.5" d="M0,-3.0v7 M-2.5,-0.5L0,-3.0L2.5,-0.5"/>
                </g>
                <g id="arrowLeft" xlink:href="#dirArrow" transform="rotate(270) translate(-36 17)" onmousedown="handlePan(-1,0)">
                  <use xlink:href="#rim" fill="#404040">
                        <set attributeName="fill" to="#808080" begin="arrowLeft.mouseover" end="arrowLeft.mouseout"/>
                  </use>
                  <path fill="none" stroke="white" stroke-width="1.5" d="M0,-3.0v7 M-2.5,-0.5L0,-3.0L2.5,-0.5"/>
                </g>
        </g>
        <svg viewBox="0 0 15 15" width="100%" height="30px" preserveAspectRatio="xMaxYMin meet">
         <g id="arrow_out" transform="scale(0.3 0.3)">
          <a xlink:href="quickjs_8c_a404705cd4008db4015ea19f234721fc2_cgraph_org.svg" target="_base">
           <rect id="button" ry="5" rx="5" y="6" x="6" height="38" width="38"
                fill="#f2f5e9" fill-opacity="0.5" stroke="#606060" stroke-width="1.0"/>
           <path id="arrow"
             d="M 11.500037,31.436501 C 11.940474,20.09759 22.043105,11.32322 32.158766,21.979434 L 37.068811,17.246167 C 37.068811,17.246167 37.088388,32 37.088388,32 L 22.160133,31.978069 C 22.160133,31.978069 26.997745,27.140456 26.997745,27.140456 C 18.528582,18.264221 13.291696,25.230495 11.500037,31.436501 z"
             style="fill:#404040;"/>
          </a>
         </g>
        </svg>
</svg>
