<?xml version="1.0" encoding="UTF-8" standalone="no"?>
<!DOCTYPE svg PUBLIC "-//W3C//DTD SVG 1.1//EN"
 "http://www.w3.org/Graphics/SVG/1.1/DTD/svg11.dtd">
<!-- Generated by graphviz version 2.40.1 (20161225.0304)
 -->
<!-- Title: js_object_propertyIsEnumerable Pages: 1 -->
<svg width="1002pt" height="668pt"
 viewBox="0.00 0.00 1002.00 668.32" xmlns="http://www.w3.org/2000/svg" xmlns:xlink="http://www.w3.org/1999/xlink">
<g id="graph0" class="graph" transform="scale(1 1) rotate(0) translate(4 664.3189)">
<title>js_object_propertyIsEnumerable</title>
<!-- Node384315 -->
<g id="node1" class="node">
<title>Node384315</title>
<polygon fill="#bfbfbf" stroke="#000000" points="0,-133.5 0,-152.5 156,-152.5 156,-133.5 0,-133.5"/>
<text text-anchor="middle" x="78" y="-140.5" font-family="Helvetica,sans-Serif" font-size="10.00" fill="#000000">js_object_propertyIsEnumerable</text>
</g>
<!-- Node384316 -->
<g id="node2" class="node">
<title>Node384316</title>
<g id="a_node2"><a xlink:href="quickjs_8c.html#adfe21c674d998ca6586b7f7400352dc4" target="_top" xlink:title="js_free_desc">
<polygon fill="none" stroke="#000000" points="612.5,-582.5 612.5,-601.5 684.5,-601.5 684.5,-582.5 612.5,-582.5"/>
<text text-anchor="middle" x="648.5" y="-589.5" font-family="Helvetica,sans-Serif" font-size="10.00" fill="#000000">js_free_desc</text>
</a>
</g>
</g>
<!-- Node384315&#45;&gt;Node384316 -->
<g id="edge1" class="edge">
<title>Node384315&#45;&gt;Node384316</title>
<path fill="none" stroke="#191970" d="M80.0487,-152.7698C92.9042,-211.1829 168.421,-514.9478 367,-611 448.3626,-650.3549 558.6782,-623.1081 613.9423,-604.8229"/>
<polygon fill="#191970" stroke="#191970" points="615.265,-608.0699 623.6013,-601.531 613.0068,-601.4441 615.265,-608.0699"/>
</g>
<!-- Node384317 -->
<g id="node3" class="node">
<title>Node384317</title>
<g id="a_node3"><a xlink:href="quickjs_8h.html#afaa20c47565bc704c6c85f3d77254e7d" target="_top" xlink:title="JS_FreeValue">
<polygon fill="none" stroke="#000000" points="770.5,-538.5 770.5,-557.5 848.5,-557.5 848.5,-538.5 770.5,-538.5"/>
<text text-anchor="middle" x="809.5" y="-545.5" font-family="Helvetica,sans-Serif" font-size="10.00" fill="#000000">JS_FreeValue</text>
</a>
</g>
</g>
<!-- Node384315&#45;&gt;Node384317 -->
<g id="edge5" class="edge">
<title>Node384315&#45;&gt;Node384317</title>
<path fill="none" stroke="#191970" d="M78.3208,-152.5728C80.347,-199.2346 94.6934,-405.6686 192,-531 247.4852,-602.4652 279.7564,-611.0327 367,-635 516.0679,-675.9516 569.4801,-665.8841 714,-611 743.0425,-599.9706 772.245,-578.902 790.5711,-564.1783"/>
<polygon fill="#191970" stroke="#191970" points="793.1492,-566.5895 798.6456,-557.5318 788.7004,-561.1849 793.1492,-566.5895"/>
</g>
<!-- Node384339 -->
<g id="node5" class="node">
<title>Node384339</title>
<g id="a_node5"><a xlink:href="quickjs_8c.html#ab7fc45a99935a1c0ba50b0216d9401a9" target="_top" xlink:title="JS_FreeAtom">
<polygon fill="none" stroke="#ff0000" points="223,-38.5 223,-57.5 300,-57.5 300,-38.5 223,-38.5"/>
<text text-anchor="middle" x="261.5" y="-45.5" font-family="Helvetica,sans-Serif" font-size="10.00" fill="#000000">JS_FreeAtom</text>
</a>
</g>
</g>
<!-- Node384315&#45;&gt;Node384339 -->
<g id="edge4" class="edge">
<title>Node384315&#45;&gt;Node384339</title>
<path fill="none" stroke="#191970" d="M89.5588,-133.4313C109.3505,-117.4922 151.5208,-85.4389 192,-67 198.6522,-63.9698 205.8888,-61.333 213.0965,-59.0679"/>
<polygon fill="#191970" stroke="#191970" points="214.2388,-62.3803 222.8496,-56.2074 212.2687,-55.6633 214.2388,-62.3803"/>
</g>
<!-- Node384355 -->
<g id="node6" class="node">
<title>Node384355</title>
<g id="a_node6"><a xlink:href="quickjs_8c.html#ad13892c0a0f11781b566808876658099" target="_top" xlink:title="JS_GetOwnPropertyInternal">
<polygon fill="none" stroke="#000000" points="192,-361.5 192,-380.5 331,-380.5 331,-361.5 192,-361.5"/>
<text text-anchor="middle" x="261.5" y="-368.5" font-family="Helvetica,sans-Serif" font-size="10.00" fill="#000000">JS_GetOwnPropertyInternal</text>
</a>
</g>
</g>
<!-- Node384315&#45;&gt;Node384355 -->
<g id="edge6" class="edge">
<title>Node384315&#45;&gt;Node384355</title>
<path fill="none" stroke="#191970" d="M85.6511,-152.5066C113.6309,-187.2716 210.6686,-307.8417 247.3278,-353.3909"/>
<polygon fill="#191970" stroke="#191970" points="244.8197,-355.8569 253.8162,-361.4528 250.2729,-351.468 244.8197,-355.8569"/>
</g>
<!-- Node384363 -->
<g id="node14" class="node">
<title>Node384363</title>
<g id="a_node14"><a xlink:href="quickjs_8h.html#ad80a83d73e9b7d872b88fbf2943aebe9" target="_top" xlink:title="JS_IsException">
<polygon fill="none" stroke="#000000" points="766.5,-152.5 766.5,-171.5 852.5,-171.5 852.5,-152.5 766.5,-152.5"/>
<text text-anchor="middle" x="809.5" y="-159.5" font-family="Helvetica,sans-Serif" font-size="10.00" fill="#000000">JS_IsException</text>
</a>
</g>
</g>
<!-- Node384315&#45;&gt;Node384363 -->
<g id="edge28" class="edge">
<title>Node384315&#45;&gt;Node384363</title>
<path fill="none" stroke="#191970" d="M156.0791,-142.2117C206.09,-141.9017 272.3732,-141.8524 331,-143 501.3201,-146.334 543.787,-151.1022 714,-158 727.6092,-158.5515 742.3087,-159.1606 756.0004,-159.7335"/>
<polygon fill="#191970" stroke="#191970" points="756.1013,-163.2408 766.2393,-160.1631 756.3948,-156.2469 756.1013,-163.2408"/>
</g>
<!-- Node384695 -->
<g id="node23" class="node">
<title>Node384695</title>
<g id="a_node23"><a xlink:href="quickjs_8h.html#a93abffa925714e249a6aa2f4ae7900f6" target="_top" xlink:title="JS_NewBool">
<polygon fill="none" stroke="#000000" points="224.5,-.5 224.5,-19.5 298.5,-19.5 298.5,-.5 224.5,-.5"/>
<text text-anchor="middle" x="261.5" y="-7.5" font-family="Helvetica,sans-Serif" font-size="10.00" fill="#000000">JS_NewBool</text>
</a>
</g>
</g>
<!-- Node384315&#45;&gt;Node384695 -->
<g id="edge29" class="edge">
<title>Node384315&#45;&gt;Node384695</title>
<path fill="none" stroke="#191970" d="M84.7882,-133.3873C100.8179,-111.4175 143.3495,-57.2528 192,-29 198.9212,-24.9807 206.7243,-21.7836 214.536,-19.2488"/>
<polygon fill="#191970" stroke="#191970" points="215.7501,-22.5406 224.3698,-16.3803 213.7898,-15.8207 215.7501,-22.5406"/>
</g>
<!-- Node384591 -->
<g id="node24" class="node">
<title>Node384591</title>
<g id="a_node24"><a xlink:href="quickjs_8c.html#a710289a14c2810467e5b448d3c28bd55" target="_top" xlink:title="JS_ToObject">
<polygon fill="none" stroke="#ff0000" points="224.5,-152.5 224.5,-171.5 298.5,-171.5 298.5,-152.5 224.5,-152.5"/>
<text text-anchor="middle" x="261.5" y="-159.5" font-family="Helvetica,sans-Serif" font-size="10.00" fill="#000000">JS_ToObject</text>
</a>
</g>
</g>
<!-- Node384315&#45;&gt;Node384591 -->
<g id="edge30" class="edge">
<title>Node384315&#45;&gt;Node384591</title>
<path fill="none" stroke="#191970" d="M156.0866,-151.0853C175.8201,-153.1285 196.4161,-155.2611 214.1124,-157.0934"/>
<polygon fill="#191970" stroke="#191970" points="213.8609,-160.586 224.1682,-158.1346 214.5819,-153.6232 213.8609,-160.586"/>
</g>
<!-- Node384444 -->
<g id="node25" class="node">
<title>Node384444</title>
<g id="a_node25"><a xlink:href="quickjs_8c.html#a859d5c989a2aaecef1653b3ac279e108" target="_top" xlink:title="JS_ValueToAtom">
<polygon fill="none" stroke="#ff0000" points="215,-76.5 215,-95.5 308,-95.5 308,-76.5 215,-76.5"/>
<text text-anchor="middle" x="261.5" y="-83.5" font-family="Helvetica,sans-Serif" font-size="10.00" fill="#000000">JS_ValueToAtom</text>
</a>
</g>
</g>
<!-- Node384315&#45;&gt;Node384444 -->
<g id="edge33" class="edge">
<title>Node384315&#45;&gt;Node384444</title>
<path fill="none" stroke="#191970" d="M108.7138,-133.4595C139.5435,-123.8829 187.2004,-109.0795 221.0839,-98.5543"/>
<polygon fill="#191970" stroke="#191970" points="222.1744,-101.8806 230.686,-95.5716 220.0979,-95.1957 222.1744,-101.8806"/>
</g>
<!-- Node384316&#45;&gt;Node384317 -->
<g id="edge2" class="edge">
<title>Node384316&#45;&gt;Node384317</title>
<path fill="none" stroke="#191970" d="M683.4346,-582.4527C707.275,-575.9373 739.0656,-567.2492 764.7575,-560.2278"/>
<polygon fill="#191970" stroke="#191970" points="765.91,-563.5412 774.6336,-557.5287 764.0646,-556.7888 765.91,-563.5412"/>
</g>
<!-- Node384318 -->
<g id="node4" class="node">
<title>Node384318</title>
<g id="a_node4"><a xlink:href="quickjs_8c.html#aa059f309c30fd5166d16c82a97973146" target="_top" xlink:title="__JS_FreeValue">
<polygon fill="none" stroke="#ff0000" points="905,-538.5 905,-557.5 994,-557.5 994,-538.5 905,-538.5"/>
<text text-anchor="middle" x="949.5" y="-545.5" font-family="Helvetica,sans-Serif" font-size="10.00" fill="#000000">__JS_FreeValue</text>
</a>
</g>
</g>
<!-- Node384317&#45;&gt;Node384318 -->
<g id="edge3" class="edge">
<title>Node384317&#45;&gt;Node384318</title>
<path fill="none" stroke="#191970" d="M848.8704,-548C862.9984,-548 879.2,-548 894.4155,-548"/>
<polygon fill="#191970" stroke="#191970" points="894.7543,-551.5001 904.7542,-548 894.7542,-544.5001 894.7543,-551.5001"/>
</g>
<!-- Node384356 -->
<g id="node7" class="node">
<title>Node384356</title>
<g id="a_node7"><a xlink:href="quickjs_8c.html#a288254c06a39c9fca740a7abdad2834e" target="_top" xlink:title="__JS_AtomIsTaggedInt">
<polygon fill="none" stroke="#000000" points="750,-367.5 750,-386.5 869,-386.5 869,-367.5 750,-367.5"/>
<text text-anchor="middle" x="809.5" y="-374.5" font-family="Helvetica,sans-Serif" font-size="10.00" fill="#000000">__JS_AtomIsTaggedInt</text>
</a>
</g>
</g>
<!-- Node384355&#45;&gt;Node384356 -->
<g id="edge7" class="edge">
<title>Node384355&#45;&gt;Node384356</title>
<path fill="none" stroke="#191970" d="M331.0231,-370.5564C388.8351,-370.2941 473.2754,-370.1575 547,-371 612.2746,-371.7459 686.6616,-373.5348 739.5409,-374.9664"/>
<polygon fill="#191970" stroke="#191970" points="739.729,-378.4728 749.8209,-375.2475 739.9204,-371.4754 739.729,-378.4728"/>
</g>
<!-- Node384357 -->
<g id="node8" class="node">
<title>Node384357</title>
<g id="a_node8"><a xlink:href="quickjs_8c.html#a89f38938cee8077ce1fbba07946ed185" target="_top" xlink:title="__JS_AtomToUInt32">
<polygon fill="none" stroke="#000000" points="755.5,-452.5 755.5,-471.5 863.5,-471.5 863.5,-452.5 755.5,-452.5"/>
<text text-anchor="middle" x="809.5" y="-459.5" font-family="Helvetica,sans-Serif" font-size="10.00" fill="#000000">__JS_AtomToUInt32</text>
</a>
</g>
</g>
<!-- Node384355&#45;&gt;Node384357 -->
<g id="edge8" class="edge">
<title>Node384355&#45;&gt;Node384357</title>
<path fill="none" stroke="#191970" d="M265.9071,-380.6963C277.8844,-405.6987 313.7468,-472.1334 367,-497 507.3328,-562.5285 700.0495,-503.5973 776.4097,-475.2373"/>
<polygon fill="#191970" stroke="#191970" points="777.8626,-478.4298 785.976,-471.6163 775.3845,-471.8831 777.8626,-478.4298"/>
</g>
<!-- Node384358 -->
<g id="node9" class="node">
<title>Node384358</title>
<g id="a_node9"><a xlink:href="quickjs_8c.html#a06b76f5124fd985e35f4c652fd018d6d" target="_top" xlink:title="find_own_property">
<polygon fill="none" stroke="#000000" points="409,-304.5 409,-323.5 505,-323.5 505,-304.5 409,-304.5"/>
<text text-anchor="middle" x="457" y="-311.5" font-family="Helvetica,sans-Serif" font-size="10.00" fill="#000000">find_own_property</text>
</a>
</g>
</g>
<!-- Node384355&#45;&gt;Node384358 -->
<g id="edge9" class="edge">
<title>Node384355&#45;&gt;Node384358</title>
<path fill="none" stroke="#191970" d="M290.9574,-361.4169C312.0601,-354.6422 341.1928,-345.4735 367,-338 380.874,-333.9822 396.0227,-329.8465 409.8678,-326.1641"/>
<polygon fill="#191970" stroke="#191970" points="410.9077,-329.5096 419.6818,-323.5711 409.1195,-322.7418 410.9077,-329.5096"/>
</g>
<!-- Node384359 -->
<g id="node12" class="node">
<title>Node384359</title>
<g id="a_node12"><a xlink:href="quickjs_8c.html#add3eea1f6d626963ade3c28a1fd563d1" target="_top" xlink:title="JS_AtomIsNumericIndex">
<polygon fill="none" stroke="#000000" points="394,-380.5 394,-399.5 520,-399.5 520,-380.5 394,-380.5"/>
<text text-anchor="middle" x="457" y="-387.5" font-family="Helvetica,sans-Serif" font-size="10.00" fill="#000000">JS_AtomIsNumericIndex</text>
</a>
</g>
</g>
<!-- Node384355&#45;&gt;Node384359 -->
<g id="edge12" class="edge">
<title>Node384355&#45;&gt;Node384359</title>
<path fill="none" stroke="#191970" d="M331.252,-377.779C348.3021,-379.436 366.5933,-381.2137 383.7995,-382.8859"/>
<polygon fill="#191970" stroke="#191970" points="383.4956,-386.3727 393.7872,-383.8566 384.1727,-379.4056 383.4956,-386.3727"/>
</g>
<!-- Node384439 -->
<g id="node16" class="node">
<title>Node384439</title>
<g id="a_node16"><a xlink:href="quickjs_8c.html#a23b7fe57d08a1b3b39ba556f9cbb6c76" target="_top" xlink:title="JS_AutoInitProperty">
<polygon fill="none" stroke="#ff0000" points="405,-266.5 405,-285.5 509,-285.5 509,-266.5 405,-266.5"/>
<text text-anchor="middle" x="457" y="-273.5" font-family="Helvetica,sans-Serif" font-size="10.00" fill="#000000">JS_AutoInitProperty</text>
</a>
</g>
</g>
<!-- Node384355&#45;&gt;Node384439 -->
<g id="edge21" class="edge">
<title>Node384355&#45;&gt;Node384439</title>
<path fill="none" stroke="#191970" d="M271.6605,-361.3932C289.4821,-345.1014 328.1839,-312.1559 367,-295 375.7809,-291.119 385.4009,-288.013 394.9817,-285.532"/>
<polygon fill="#191970" stroke="#191970" points="395.9977,-288.888 404.9148,-283.1665 394.376,-282.0784 395.9977,-288.888"/>
</g>
<!-- Node384371 -->
<g id="node17" class="node">
<title>Node384371</title>
<g id="a_node17"><a xlink:href="quickjs_8h.html#a775522f2d084fc8fa0fcb33f390006b4" target="_top" xlink:title="JS_DupValue">
<polygon fill="none" stroke="#000000" points="418.5,-190.5 418.5,-209.5 495.5,-209.5 495.5,-190.5 418.5,-190.5"/>
<text text-anchor="middle" x="457" y="-197.5" font-family="Helvetica,sans-Serif" font-size="10.00" fill="#000000">JS_DupValue</text>
</a>
</g>
</g>
<!-- Node384355&#45;&gt;Node384371 -->
<g id="edge22" class="edge">
<title>Node384355&#45;&gt;Node384371</title>
<path fill="none" stroke="#191970" d="M265.2065,-361.2657C276.1444,-333.9451 311.0672,-256.1314 367,-219 379.0978,-210.9688 393.9561,-206.2458 408.0876,-203.4941"/>
<polygon fill="#191970" stroke="#191970" points="408.9054,-206.9064 418.1992,-201.8197 407.7618,-200.0004 408.9054,-206.9064"/>
</g>
<!-- Node384441 -->
<g id="node18" class="node">
<title>Node384441</title>
<g id="a_node18"><a xlink:href="quickjs_8c.html#aeb97957655d979e9fe56c955da2b2d4b" target="_top" xlink:title="JS_GetPropertyUint32">
<polygon fill="none" stroke="#ff0000" points="399.5,-228.5 399.5,-247.5 514.5,-247.5 514.5,-228.5 399.5,-228.5"/>
<text text-anchor="middle" x="457" y="-235.5" font-family="Helvetica,sans-Serif" font-size="10.00" fill="#000000">JS_GetPropertyUint32</text>
</a>
</g>
</g>
<!-- Node384355&#45;&gt;Node384441 -->
<g id="edge23" class="edge">
<title>Node384355&#45;&gt;Node384441</title>
<path fill="none" stroke="#191970" d="M267.4885,-361.1789C281.7056,-338.7707 319.8569,-283.7475 367,-257 374.011,-253.0222 381.7562,-249.8744 389.6735,-247.3838"/>
<polygon fill="#191970" stroke="#191970" points="390.696,-250.7322 399.3784,-244.6604 388.8046,-243.9925 390.696,-250.7322"/>
</g>
<!-- Node384458 -->
<g id="node19" class="node">
<title>Node384458</title>
<g id="a_node19"><a xlink:href="quickjs_8h.html#aaab426b47c95d00479b7355b1cf7f56c" target="_top" xlink:title="JS_IsUninitialized">
<polygon fill="none" stroke="#000000" points="409.5,-582.5 409.5,-601.5 504.5,-601.5 504.5,-582.5 409.5,-582.5"/>
<text text-anchor="middle" x="457" y="-589.5" font-family="Helvetica,sans-Serif" font-size="10.00" fill="#000000">JS_IsUninitialized</text>
</a>
</g>
</g>
<!-- Node384355&#45;&gt;Node384458 -->
<g id="edge24" class="edge">
<title>Node384355&#45;&gt;Node384458</title>
<path fill="none" stroke="#191970" d="M263.5357,-380.9294C270.8758,-414.059 299.2192,-521.604 367,-573 376.3498,-580.0896 387.7466,-584.6748 399.2451,-587.609"/>
<polygon fill="#191970" stroke="#191970" points="398.8139,-591.0965 409.3272,-589.7841 400.2902,-584.2539 398.8139,-591.0965"/>
</g>
<!-- Node384466 -->
<g id="node20" class="node">
<title>Node384466</title>
<g id="a_node20"><a xlink:href="quickjs_8c.html#a75ac132a3af4de01e1fadeb0bede6ee7" target="_top" xlink:title="JS_ThrowReferenceErrorUninitialized">
<polygon fill="none" stroke="#ff0000" points="367,-544.5 367,-563.5 547,-563.5 547,-544.5 367,-544.5"/>
<text text-anchor="middle" x="457" y="-551.5" font-family="Helvetica,sans-Serif" font-size="10.00" fill="#000000">JS_ThrowReferenceErrorUninitialized</text>
</a>
</g>
</g>
<!-- Node384355&#45;&gt;Node384466 -->
<g id="edge25" class="edge">
<title>Node384355&#45;&gt;Node384466</title>
<path fill="none" stroke="#191970" d="M265.0214,-380.6256C275.7003,-408.4236 310.4924,-489.4204 367,-530 373.0503,-534.3449 379.8371,-537.9032 386.8995,-540.8174"/>
<polygon fill="#191970" stroke="#191970" points="386.064,-544.2392 396.6576,-544.4053 388.4798,-537.6693 386.064,-544.2392"/>
</g>
<!-- Node384467 -->
<g id="node21" class="node">
<title>Node384467</title>
<g id="a_node21"><a xlink:href="quickjs_8c.html#a033dd3ebd29c4eb9f0baff1dd0fec0b1" target="_top" xlink:title="JS_ThrowTypeErrorDetached\lArrayBuffer">
<polygon fill="none" stroke="#000000" points="384,-457 384,-487 530,-487 530,-457 384,-457"/>
<text text-anchor="start" x="392" y="-475" font-family="Helvetica,sans-Serif" font-size="10.00" fill="#000000">JS_ThrowTypeErrorDetached</text>
<text text-anchor="middle" x="457" y="-464" font-family="Helvetica,sans-Serif" font-size="10.00" fill="#000000">ArrayBuffer</text>
</a>
</g>
</g>
<!-- Node384355&#45;&gt;Node384467 -->
<g id="edge26" class="edge">
<title>Node384355&#45;&gt;Node384467</title>
<path fill="none" stroke="#191970" d="M272.0677,-380.6055C290.1933,-396.5988 328.946,-428.7299 367,-447 371.9339,-449.3688 377.1312,-451.5476 382.4366,-453.5452"/>
<polygon fill="#191970" stroke="#191970" points="381.4747,-456.9173 392.0695,-456.9472 383.8058,-450.3169 381.4747,-456.9173"/>
</g>
<!-- Node384468 -->
<g id="node22" class="node">
<title>Node384468</title>
<g id="a_node22"><a xlink:href="quickjs_8c.html#a869fa88a646c0a1914ec2e559b193b5c" target="_top" xlink:title="typed_array_is_detached">
<polygon fill="none" stroke="#000000" points="394.5,-418.5 394.5,-437.5 519.5,-437.5 519.5,-418.5 394.5,-418.5"/>
<text text-anchor="middle" x="457" y="-425.5" font-family="Helvetica,sans-Serif" font-size="10.00" fill="#000000">typed_array_is_detached</text>
</a>
</g>
</g>
<!-- Node384355&#45;&gt;Node384468 -->
<g id="edge27" class="edge">
<title>Node384355&#45;&gt;Node384468</title>
<path fill="none" stroke="#191970" d="M285.0781,-380.5501C306.2608,-388.8746 338.3487,-400.8576 367,-409 376.2347,-411.6244 386.0953,-414.064 395.7787,-416.2608"/>
<polygon fill="#191970" stroke="#191970" points="395.2534,-419.7289 405.7719,-418.4599 396.7578,-412.8925 395.2534,-419.7289"/>
</g>
<!-- Node384345 -->
<g id="node10" class="node">
<title>Node384345</title>
<g id="a_node10"><a xlink:href="quickjs_8c.html#a643df594b75933007bcdbb071b5ea8c5" target="_top" xlink:title="get_shape_prop">
<polygon fill="none" stroke="#000000" points="605.5,-253.5 605.5,-272.5 691.5,-272.5 691.5,-253.5 605.5,-253.5"/>
<text text-anchor="middle" x="648.5" y="-260.5" font-family="Helvetica,sans-Serif" font-size="10.00" fill="#000000">get_shape_prop</text>
</a>
</g>
</g>
<!-- Node384358&#45;&gt;Node384345 -->
<g id="edge10" class="edge">
<title>Node384358&#45;&gt;Node384345</title>
<path fill="none" stroke="#191970" d="M505.4111,-305.0643C518.9627,-302.2161 533.6374,-298.8034 547,-295 563.3614,-290.343 566.8228,-287.2612 583,-282 589.8896,-279.7594 597.2276,-277.5044 604.4061,-275.3699"/>
<polygon fill="#191970" stroke="#191970" points="605.4271,-278.718 614.039,-272.5467 603.4583,-272.0005 605.4271,-278.718"/>
</g>
<!-- Node384344 -->
<g id="node11" class="node">
<title>Node384344</title>
<g id="a_node11"><a xlink:href="quickjs_8c.html#acab22c2945c4d609e57a2484feb68a96" target="_top" xlink:title="prop_hash_end">
<polygon fill="none" stroke="#000000" points="607,-291.5 607,-310.5 690,-310.5 690,-291.5 607,-291.5"/>
<text text-anchor="middle" x="648.5" y="-298.5" font-family="Helvetica,sans-Serif" font-size="10.00" fill="#000000">prop_hash_end</text>
</a>
</g>
</g>
<!-- Node384358&#45;&gt;Node384344 -->
<g id="edge11" class="edge">
<title>Node384358&#45;&gt;Node384344</title>
<path fill="none" stroke="#191970" d="M505.3235,-310.7196C533.152,-308.8304 568.1309,-306.4559 596.5489,-304.5267"/>
<polygon fill="#191970" stroke="#191970" points="596.9564,-308.0072 606.6964,-303.8378 596.4823,-301.0233 596.9564,-308.0072"/>
</g>
<!-- Node384359&#45;&gt;Node384317 -->
<g id="edge18" class="edge">
<title>Node384359&#45;&gt;Node384317</title>
<path fill="none" stroke="#191970" d="M520.4026,-396.2901C529.8973,-399.1799 539.1279,-403.2621 547,-409 573.0609,-427.9955 558.0808,-451.5297 583,-472 634.4656,-514.2772 710.4839,-533.4194 760.0038,-541.8157"/>
<polygon fill="#191970" stroke="#191970" points="759.7211,-545.3152 770.1502,-543.4488 760.8334,-538.4041 759.7211,-545.3152"/>
</g>
<!-- Node384360 -->
<g id="node13" class="node">
<title>Node384360</title>
<g id="a_node13"><a xlink:href="quickjs_8c.html#ab4e100a9cde5f7ec87c92f5e766dbbab" target="_top" xlink:title="JS_AtomIsNumericIndex1">
<polygon fill="none" stroke="#ff0000" points="583,-405.5 583,-424.5 714,-424.5 714,-405.5 583,-405.5"/>
<text text-anchor="middle" x="648.5" y="-412.5" font-family="Helvetica,sans-Serif" font-size="10.00" fill="#000000">JS_AtomIsNumericIndex1</text>
</a>
</g>
</g>
<!-- Node384359&#45;&gt;Node384360 -->
<g id="edge13" class="edge">
<title>Node384359&#45;&gt;Node384360</title>
<path fill="none" stroke="#191970" d="M520.235,-398.2552C536.9921,-400.4428 555.2568,-402.8273 572.611,-405.0928"/>
<polygon fill="#191970" stroke="#191970" points="572.3365,-408.5866 582.7054,-406.4106 573.2427,-401.6455 572.3365,-408.5866"/>
</g>
<!-- Node384359&#45;&gt;Node384363 -->
<g id="edge19" class="edge">
<title>Node384359&#45;&gt;Node384363</title>
<path fill="none" stroke="#191970" d="M520.0868,-385.9179C575.9655,-379.4642 657.2497,-362.8314 714,-320 762.4784,-283.4117 791.5136,-214.4205 803.3281,-181.0427"/>
<polygon fill="#191970" stroke="#191970" points="806.6525,-182.1378 806.5617,-171.5434 800.0259,-179.8821 806.6525,-182.1378"/>
</g>
<!-- Node384536 -->
<g id="node15" class="node">
<title>Node384536</title>
<g id="a_node15"><a xlink:href="quickjs_8h.html#a4e407128a9605afb77523e49e9a627fd" target="_top" xlink:title="JS_IsUndefined">
<polygon fill="none" stroke="#000000" points="605.5,-443.5 605.5,-462.5 691.5,-462.5 691.5,-443.5 605.5,-443.5"/>
<text text-anchor="middle" x="648.5" y="-450.5" font-family="Helvetica,sans-Serif" font-size="10.00" fill="#000000">JS_IsUndefined</text>
</a>
</g>
</g>
<!-- Node384359&#45;&gt;Node384536 -->
<g id="edge20" class="edge">
<title>Node384359&#45;&gt;Node384536</title>
<path fill="none" stroke="#191970" d="M518.5376,-399.5574C528.265,-402.0395 538.0564,-405.1392 547,-409 564.8844,-416.7205 565.4146,-425.6208 583,-434 587.8768,-436.3237 593.0958,-438.4227 598.3801,-440.3031"/>
<polygon fill="#191970" stroke="#191970" points="597.3093,-443.6354 607.9026,-443.4534 599.508,-436.9896 597.3093,-443.6354"/>
</g>
<!-- Node384360&#45;&gt;Node384317 -->
<g id="edge16" class="edge">
<title>Node384360&#45;&gt;Node384317</title>
<path fill="none" stroke="#191970" d="M695.2636,-424.5599C701.8688,-427.0288 708.3311,-430.1238 714,-434 735.7204,-448.8516 733.253,-460.7051 750,-481 764.2671,-498.2897 781.3239,-517.3426 793.51,-530.6962"/>
<polygon fill="#191970" stroke="#191970" points="791.0607,-533.2038 800.3995,-538.2074 796.2193,-528.4721 791.0607,-533.2038"/>
</g>
<!-- Node384360&#45;&gt;Node384356 -->
<g id="edge14" class="edge">
<title>Node384360&#45;&gt;Node384356</title>
<path fill="none" stroke="#191970" d="M689.1271,-405.411C710.4685,-400.3739 736.8119,-394.1562 759.4081,-388.8229"/>
<polygon fill="#191970" stroke="#191970" points="760.2365,-392.2237 769.165,-386.5201 758.6284,-385.4109 760.2365,-392.2237"/>
</g>
<!-- Node384360&#45;&gt;Node384357 -->
<g id="edge15" class="edge">
<title>Node384360&#45;&gt;Node384357</title>
<path fill="none" stroke="#191970" d="M681.4909,-424.5499C691.8941,-427.5666 703.4289,-430.9171 714,-434 731.3073,-439.0474 750.3716,-444.6319 766.8852,-449.4772"/>
<polygon fill="#191970" stroke="#191970" points="766.2182,-452.929 776.7992,-452.3871 768.1897,-446.2124 766.2182,-452.929"/>
</g>
<!-- Node384360&#45;&gt;Node384363 -->
<g id="edge17" class="edge">
<title>Node384360&#45;&gt;Node384363</title>
<path fill="none" stroke="#191970" d="M690.5873,-405.3912C699.0989,-401.9407 707.4379,-397.2803 714,-391 776.1226,-331.5453 799.4306,-225.5693 806.6837,-181.7762"/>
<polygon fill="#191970" stroke="#191970" points="810.153,-182.2435 808.2279,-171.825 803.2358,-181.1701 810.153,-182.2435"/>
</g>
<!-- Node384591&#45;&gt;Node384363 -->
<g id="edge32" class="edge">
<title>Node384591&#45;&gt;Node384363</title>
<path fill="none" stroke="#191970" d="M298.7354,-162C393.7173,-162 645.3075,-162 755.9774,-162"/>
<polygon fill="#191970" stroke="#191970" points="756.2375,-165.5001 766.2375,-162 756.2374,-158.5001 756.2375,-165.5001"/>
</g>
<!-- Node384591&#45;&gt;Node384371 -->
<g id="edge31" class="edge">
<title>Node384591&#45;&gt;Node384371</title>
<path fill="none" stroke="#191970" d="M298.7322,-169.237C329.7558,-175.2671 374.1876,-183.9035 408.0804,-190.4913"/>
<polygon fill="#191970" stroke="#191970" points="407.7499,-193.9925 418.234,-192.4649 409.0856,-187.1211 407.7499,-193.9925"/>
</g>
<!-- Node384444&#45;&gt;Node384363 -->
<g id="edge34" class="edge">
<title>Node384444&#45;&gt;Node384363</title>
<path fill="none" stroke="#191970" d="M308.2002,-81.7989C391.5301,-75.758 570.5555,-69.4033 714,-110 741.3183,-117.7314 769.4979,-134.3249 788.099,-146.6999"/>
<polygon fill="#191970" stroke="#191970" points="786.1831,-149.6299 796.4152,-152.3788 790.1306,-143.8491 786.1831,-149.6299"/>
</g>
</g>
</svg>
