<?xml version="1.0" encoding="UTF-8" standalone="no"?>
<!DOCTYPE svg PUBLIC "-//W3C//DTD SVG 1.1//EN"
 "http://www.w3.org/Graphics/SVG/1.1/DTD/svg11.dtd">
<!-- Generated by graphviz version 2.40.1 (20161225.0304)
 -->
<!-- Title: JS_DefinePrivateField Pages: 1 -->
<!--zoomable 541 -->
<svg id="main" version="1.1" xmlns="http://www.w3.org/2000/svg" xmlns:xlink="http://www.w3.org/1999/xlink" xml:space="preserve" onload="init(evt)">
<style type="text/css"><![CDATA[
.edge:hover path { stroke: red; }
.edge:hover polygon { stroke: red; fill: red; }
]]></style>
<script type="text/javascript"><![CDATA[
var edges = document.getElementsByTagName('g');
if (edges && edges.length) {
  for (var i=0;i<edges.length;i++) {
    if (edges[i].id.substr(0,4)=='edge') {
      edges[i].setAttribute('class','edge');
    }
  }
}
]]></script>
        <defs>
                <circle id="rim" cx="0" cy="0" r="7"/>
                <circle id="rim2" cx="0" cy="0" r="3.5"/>
                <g id="zoomPlus">
                        <use xlink:href="#rim" fill="#404040">
                                <set attributeName="fill" to="#808080" begin="zoomplus.mouseover" end="zoomplus.mouseout"/>
                        </use>
                        <path d="M-4,0h8M0,-4v8" fill="none" stroke="white" stroke-width="1.5" pointer-events="none"/>
                </g>
                <g id="zoomMin">
                        <use xlink:href="#rim" fill="#404040">
                                <set attributeName="fill" to="#808080" begin="zoomminus.mouseover" end="zoomminus.mouseout"/>
                        </use>
                        <path d="M-4,0h8" fill="none" stroke="white" stroke-width="1.5" pointer-events="none"/>
                </g>
                <g id="dirArrow">
                        <path fill="none" stroke="white" stroke-width="1.5" d="M0,-3.0v7 M-2.5,-0.5L0,-3.0L2.5,-0.5"/>
                </g>
               <g id="resetDef">
                       <use xlink:href="#rim2" fill="#404040">
                               <set attributeName="fill" to="#808080" begin="reset.mouseover" end="reset.mouseout"/>
                       </use>
               </g>
        </defs>

<script type="text/javascript">
var viewWidth = 907;
var viewHeight = 541;
var sectionId = 'dynsection-546';
</script>
<script xlink:href="svgpan.js"/>
<svg id="graph" class="graph">
<g id="viewport">
<title>JS_DefinePrivateField</title>
<!-- Node181655 -->
<g id="node1" class="node">
<title>Node181655</title>
<polygon fill="#bfbfbf" stroke="#000000" points="0,-285.5 0,-304.5 114,-304.5 114,-285.5 0,-285.5"/>
<text text-anchor="middle" x="57" y="-292.5" font-family="Helvetica,sans-Serif" font-size="10.00" fill="#000000">JS_DefinePrivateField</text>
</g>
<!-- Node181656 -->
<g id="node2" class="node">
<title>Node181656</title>
<g id="a_node2"><a xlink:href="quickjs_8c.html#a74547db03bf739a52c83a326b32db997" target="_top" xlink:title="add_property">
<polygon fill="none" stroke="#000000" points="193.5,-342.5 193.5,-361.5 266.5,-361.5 266.5,-342.5 193.5,-342.5"/>
<text text-anchor="middle" x="230" y="-349.5" font-family="Helvetica,sans-Serif" font-size="10.00" fill="#000000">add_property</text>
</a>
</g>
</g>
<!-- Node181655&#45;&gt;Node181656 -->
<g id="edge1" class="edge">
<title>Node181655&#45;&gt;Node181656</title>
<path fill="none" stroke="#191970" d="M77.7104,-304.5442C96.3345,-312.8649 124.5907,-324.8456 150,-333 160.7189,-336.4399 172.4253,-339.5635 183.4937,-342.2392"/>
<polygon fill="#191970" stroke="#191970" points="182.8979,-345.6943 193.4326,-344.5668 184.4941,-338.8787 182.8979,-345.6943"/>
</g>
<!-- Node181714 -->
<g id="node24" class="node">
<title>Node181714</title>
<g id="a_node24"><a xlink:href="quickjs_8c.html#a06b76f5124fd985e35f4c652fd018d6d" target="_top" xlink:title="find_own_property">
<polygon fill="none" stroke="#000000" points="518.5,-494.5 518.5,-513.5 614.5,-513.5 614.5,-494.5 518.5,-494.5"/>
<text text-anchor="middle" x="566.5" y="-501.5" font-family="Helvetica,sans-Serif" font-size="10.00" fill="#000000">find_own_property</text>
</a>
</g>
</g>
<!-- Node181655&#45;&gt;Node181714 -->
<g id="edge38" class="edge">
<title>Node181655&#45;&gt;Node181714</title>
<path fill="none" stroke="#191970" d="M66.9051,-304.6013C101.6135,-337.5119 222.3413,-445.8817 346,-485 399.1888,-501.8258 462.9714,-505.6776 508.2226,-505.8597"/>
<polygon fill="#191970" stroke="#191970" points="508.4528,-509.3593 518.446,-505.8398 508.4391,-502.3593 508.4528,-509.3593"/>
</g>
<!-- Node181706 -->
<g id="node25" class="node">
<title>Node181706</title>
<g id="a_node25"><a xlink:href="quickjs_8h.html#afaa20c47565bc704c6c85f3d77254e7d" target="_top" xlink:title="JS_FreeValue">
<polygon fill="none" stroke="#ff0000" points="191,-304.5 191,-323.5 269,-323.5 269,-304.5 191,-304.5"/>
<text text-anchor="middle" x="230" y="-311.5" font-family="Helvetica,sans-Serif" font-size="10.00" fill="#000000">JS_FreeValue</text>
</a>
</g>
</g>
<!-- Node181655&#45;&gt;Node181706 -->
<g id="edge41" class="edge">
<title>Node181655&#45;&gt;Node181706</title>
<path fill="none" stroke="#191970" d="M114.1261,-301.274C135.6801,-303.6412 159.9952,-306.3116 180.766,-308.5928"/>
<polygon fill="#191970" stroke="#191970" points="180.6374,-312.0996 190.9597,-309.7123 181.4016,-305.1415 180.6374,-312.0996"/>
</g>
<!-- Node181715 -->
<g id="node26" class="node">
<title>Node181715</title>
<g id="a_node26"><a xlink:href="quickjs_8c.html#a11498940707b6928b86da6844ef8f2a1" target="_top" xlink:title="js_symbol_to_atom">
<polygon fill="none" stroke="#000000" points="179.5,-266.5 179.5,-285.5 280.5,-285.5 280.5,-266.5 179.5,-266.5"/>
<text text-anchor="middle" x="230" y="-273.5" font-family="Helvetica,sans-Serif" font-size="10.00" fill="#000000">js_symbol_to_atom</text>
</a>
</g>
</g>
<!-- Node181655&#45;&gt;Node181715 -->
<g id="edge42" class="edge">
<title>Node181655&#45;&gt;Node181715</title>
<path fill="none" stroke="#191970" d="M114.1261,-288.726C131.8148,-286.7833 151.3631,-284.6364 169.2859,-282.668"/>
<polygon fill="#191970" stroke="#191970" points="169.7798,-286.1349 179.3379,-281.564 169.0155,-279.1768 169.7798,-286.1349"/>
</g>
<!-- Node181716 -->
<g id="node27" class="node">
<title>Node181716</title>
<g id="a_node27"><a xlink:href="quickjs_8c.html#a726b00d108e0a0f4d958c36c2e426a64" target="_top" xlink:title="JS_ThrowTypeErrorNotAnObject">
<polygon fill="none" stroke="#000000" points="150,-228.5 150,-247.5 310,-247.5 310,-228.5 150,-228.5"/>
<text text-anchor="middle" x="230" y="-235.5" font-family="Helvetica,sans-Serif" font-size="10.00" fill="#000000">JS_ThrowTypeErrorNotAnObject</text>
</a>
</g>
</g>
<!-- Node181655&#45;&gt;Node181716 -->
<g id="edge43" class="edge">
<title>Node181655&#45;&gt;Node181716</title>
<path fill="none" stroke="#191970" d="M77.7104,-285.4558C96.3345,-277.1351 124.5907,-265.1544 150,-257 157.8273,-254.488 166.1812,-252.1448 174.4288,-250.0214"/>
<polygon fill="#191970" stroke="#191970" points="175.5336,-253.3534 184.3936,-247.5439 173.8446,-246.5602 175.5336,-253.3534"/>
</g>
<!-- Node181717 -->
<g id="node28" class="node">
<title>Node181717</title>
<g id="a_node28"><a xlink:href="quickjs_8c.html#abda92b710bb8f585930b1072d9d69917" target="_top" xlink:title="JS_ThrowTypeErrorNotASymbol">
<polygon fill="none" stroke="#000000" points="150.5,-190.5 150.5,-209.5 309.5,-209.5 309.5,-190.5 150.5,-190.5"/>
<text text-anchor="middle" x="230" y="-197.5" font-family="Helvetica,sans-Serif" font-size="10.00" fill="#000000">JS_ThrowTypeErrorNotASymbol</text>
</a>
</g>
</g>
<!-- Node181655&#45;&gt;Node181717 -->
<g id="edge44" class="edge">
<title>Node181655&#45;&gt;Node181717</title>
<path fill="none" stroke="#191970" d="M65.7612,-285.4393C81.1761,-269.217 114.8596,-236.3736 150,-219 154.8787,-216.5879 160.0786,-214.4729 165.3958,-212.6199"/>
<polygon fill="#191970" stroke="#191970" points="166.5744,-215.9181 175.0495,-209.5601 164.4593,-209.2452 166.5744,-215.9181"/>
</g>
<!-- Node181657 -->
<g id="node3" class="node">
<title>Node181657</title>
<g id="a_node3"><a xlink:href="quickjs_8c.html#a3cadcaa2bd1e3f9359f1c006f396cfa0" target="_top" xlink:title="add_shape_property">
<polygon fill="none" stroke="#000000" points="356.5,-342.5 356.5,-361.5 460.5,-361.5 460.5,-342.5 356.5,-342.5"/>
<text text-anchor="middle" x="408.5" y="-349.5" font-family="Helvetica,sans-Serif" font-size="10.00" fill="#000000">add_shape_property</text>
</a>
</g>
</g>
<!-- Node181656&#45;&gt;Node181657 -->
<g id="edge2" class="edge">
<title>Node181656&#45;&gt;Node181657</title>
<path fill="none" stroke="#191970" d="M266.5529,-352C289.5253,-352 319.7548,-352 346.4112,-352"/>
<polygon fill="#191970" stroke="#191970" points="346.43,-355.5001 356.43,-352 346.4299,-348.5001 346.43,-355.5001"/>
</g>
<!-- Node181662 -->
<g id="node7" class="node">
<title>Node181662</title>
<g id="a_node7"><a xlink:href="quickjs_8c.html#a82dbe63adeac7849406fd48d96f39f7b" target="_top" xlink:title="js_shape_hash_link">
<polygon fill="none" stroke="#000000" points="515.5,-418.5 515.5,-437.5 617.5,-437.5 617.5,-418.5 515.5,-418.5"/>
<text text-anchor="middle" x="566.5" y="-425.5" font-family="Helvetica,sans-Serif" font-size="10.00" fill="#000000">js_shape_hash_link</text>
</a>
</g>
</g>
<!-- Node181656&#45;&gt;Node181662 -->
<g id="edge37" class="edge">
<title>Node181656&#45;&gt;Node181662</title>
<path fill="none" stroke="#191970" d="M266.652,-360.278C326.5189,-373.7992 445.4845,-400.6681 514.2038,-416.1887"/>
<polygon fill="#191970" stroke="#191970" points="513.8494,-419.6967 524.3748,-418.4858 515.3916,-412.8687 513.8494,-419.6967"/>
</g>
<!-- Node181682 -->
<g id="node17" class="node">
<title>Node181682</title>
<g id="a_node17"><a xlink:href="quickjs_8c.html#ac0c5dbb01d6082796c44b1c7f7c170f1" target="_top" xlink:title="find_hashed_shape_prop">
<polygon fill="none" stroke="#000000" points="346,-456.5 346,-475.5 471,-475.5 471,-456.5 346,-456.5"/>
<text text-anchor="middle" x="408.5" y="-463.5" font-family="Helvetica,sans-Serif" font-size="10.00" fill="#000000">find_hashed_shape_prop</text>
</a>
</g>
</g>
<!-- Node181656&#45;&gt;Node181682 -->
<g id="edge19" class="edge">
<title>Node181656&#45;&gt;Node181682</title>
<path fill="none" stroke="#191970" d="M244.9118,-361.5235C275.8095,-381.2565 347.056,-426.7584 384.5047,-450.6753"/>
<polygon fill="#191970" stroke="#191970" points="382.9405,-453.8292 393.2523,-456.262 386.7083,-447.9297 382.9405,-453.8292"/>
</g>
<!-- Node181683 -->
<g id="node18" class="node">
<title>Node181683</title>
<g id="a_node18"><a xlink:href="quickjs_8c.html#a8e34657169da77ae6a386311351ed3de" target="_top" xlink:title="js_clone_shape">
<polygon fill="none" stroke="#000000" points="524.5,-152.5 524.5,-171.5 608.5,-171.5 608.5,-152.5 524.5,-152.5"/>
<text text-anchor="middle" x="566.5" y="-159.5" font-family="Helvetica,sans-Serif" font-size="10.00" fill="#000000">js_clone_shape</text>
</a>
</g>
</g>
<!-- Node181656&#45;&gt;Node181683 -->
<g id="edge22" class="edge">
<title>Node181656&#45;&gt;Node181683</title>
<path fill="none" stroke="#191970" d="M266.8805,-350.0881C281.6109,-347.692 297.9088,-342.7937 310,-333 339.0434,-309.4752 319.5538,-283.4109 346,-257 392.4943,-210.5678 465.3383,-185.297 514.4509,-172.7326"/>
<polygon fill="#191970" stroke="#191970" points="515.3777,-176.1089 524.2473,-170.3139 513.6998,-169.313 515.3777,-176.1089"/>
</g>
<!-- Node181686 -->
<g id="node21" class="node">
<title>Node181686</title>
<g id="a_node21"><a xlink:href="quickjs_8c.html#aed229eb80b3b03a2275471dee93c69d6" target="_top" xlink:title="js_dup_shape">
<polygon fill="none" stroke="#000000" points="370,-266.5 370,-285.5 447,-285.5 447,-266.5 370,-266.5"/>
<text text-anchor="middle" x="408.5" y="-273.5" font-family="Helvetica,sans-Serif" font-size="10.00" fill="#000000">js_dup_shape</text>
</a>
</g>
</g>
<!-- Node181656&#45;&gt;Node181686 -->
<g id="edge31" class="edge">
<title>Node181656&#45;&gt;Node181686</title>
<path fill="none" stroke="#191970" d="M266.7075,-347.8567C280.9203,-345.1115 296.8895,-340.5554 310,-333 330.1569,-321.3839 326.2125,-307.2347 346,-295 350.4086,-292.2742 355.235,-289.916 360.1897,-287.8812"/>
<polygon fill="#191970" stroke="#191970" points="361.6174,-291.0856 369.7995,-284.3549 359.2059,-284.514 361.6174,-291.0856"/>
</g>
<!-- Node181687 -->
<g id="node22" class="node">
<title>Node181687</title>
<g id="a_node22"><a xlink:href="quickjs_8c.html#a3a9f27520d96cf58aa5bd7359e9cddee" target="_top" xlink:title="js_free_shape">
<polygon fill="none" stroke="#000000" points="370,-304.5 370,-323.5 447,-323.5 447,-304.5 370,-304.5"/>
<text text-anchor="middle" x="408.5" y="-311.5" font-family="Helvetica,sans-Serif" font-size="10.00" fill="#000000">js_free_shape</text>
</a>
</g>
</g>
<!-- Node181656&#45;&gt;Node181687 -->
<g id="edge32" class="edge">
<title>Node181656&#45;&gt;Node181687</title>
<path fill="none" stroke="#191970" d="M266.5529,-344.2184C293.4686,-338.4885 330.3463,-330.6378 359.7673,-324.3745"/>
<polygon fill="#191970" stroke="#191970" points="360.7823,-327.7369 369.8343,-322.2314 359.3247,-320.8903 360.7823,-327.7369"/>
</g>
<!-- Node181658 -->
<g id="node4" class="node">
<title>Node181658</title>
<g id="a_node4"><a xlink:href="quickjs_8c.html#a288254c06a39c9fca740a7abdad2834e" target="_top" xlink:title="__JS_AtomIsTaggedInt">
<polygon fill="none" stroke="#000000" points="507,-266.5 507,-285.5 626,-285.5 626,-266.5 507,-266.5"/>
<text text-anchor="middle" x="566.5" y="-273.5" font-family="Helvetica,sans-Serif" font-size="10.00" fill="#000000">__JS_AtomIsTaggedInt</text>
</a>
</g>
</g>
<!-- Node181657&#45;&gt;Node181658 -->
<g id="edge3" class="edge">
<title>Node181657&#45;&gt;Node181658</title>
<path fill="none" stroke="#191970" d="M449.2763,-342.4934C456.7523,-339.9542 464.3019,-336.8221 471,-333 489.8519,-322.2428 488.6411,-311.5786 507,-300 513.2829,-296.0375 520.33,-292.5109 527.3169,-289.4618"/>
<polygon fill="#191970" stroke="#191970" points="528.8039,-292.635 536.7296,-285.6041 526.1493,-286.1579 528.8039,-292.635"/>
</g>
<!-- Node181659 -->
<g id="node5" class="node">
<title>Node181659</title>
<g id="a_node5"><a xlink:href="quickjs_8c.html#a643df594b75933007bcdbb071b5ea8c5" target="_top" xlink:title="get_shape_prop">
<polygon fill="none" stroke="#000000" points="675.5,-304.5 675.5,-323.5 761.5,-323.5 761.5,-304.5 675.5,-304.5"/>
<text text-anchor="middle" x="718.5" y="-311.5" font-family="Helvetica,sans-Serif" font-size="10.00" fill="#000000">get_shape_prop</text>
</a>
</g>
</g>
<!-- Node181657&#45;&gt;Node181659 -->
<g id="edge4" class="edge">
<title>Node181657&#45;&gt;Node181659</title>
<path fill="none" stroke="#191970" d="M460.7367,-345.5968C517.5471,-338.6329 607.8783,-327.5601 665.1298,-320.5421"/>
<polygon fill="#191970" stroke="#191970" points="665.5702,-324.0145 675.0701,-319.3237 664.7185,-317.0665 665.5702,-324.0145"/>
</g>
<!-- Node181660 -->
<g id="node6" class="node">
<title>Node181660</title>
<g id="a_node6"><a xlink:href="quickjs_8c.html#abbf44eaeace1104a6bef718fbf5700fe" target="_top" xlink:title="JS_DupAtom">
<polygon fill="none" stroke="#ff0000" points="681,-.5 681,-19.5 756,-19.5 756,-.5 681,-.5"/>
<text text-anchor="middle" x="718.5" y="-7.5" font-family="Helvetica,sans-Serif" font-size="10.00" fill="#000000">JS_DupAtom</text>
</a>
</g>
</g>
<!-- Node181657&#45;&gt;Node181660 -->
<g id="edge5" class="edge">
<title>Node181657&#45;&gt;Node181660</title>
<path fill="none" stroke="#191970" d="M458.6367,-342.4574C463.265,-339.983 467.5153,-336.8824 471,-333 528.4091,-269.0386 461.2041,-215.7297 507,-143 552.5657,-70.6359 586.1201,-68.4339 662,-29 666.0347,-26.9032 670.3488,-24.9665 674.7275,-23.1966"/>
<polygon fill="#191970" stroke="#191970" points="676.2007,-26.3822 684.333,-19.5914 673.7408,-19.8286 676.2007,-26.3822"/>
</g>
<!-- Node181657&#45;&gt;Node181662 -->
<g id="edge6" class="edge">
<title>Node181657&#45;&gt;Node181662</title>
<path fill="none" stroke="#191970" d="M425.3167,-361.555C444.7161,-372.4177 477.7082,-390.4039 507,-404 514.9153,-407.6739 523.5583,-411.3469 531.7425,-414.6754"/>
<polygon fill="#191970" stroke="#191970" points="530.4833,-417.9413 541.068,-418.404 533.0821,-411.4416 530.4833,-417.9413"/>
</g>
<!-- Node181664 -->
<g id="node9" class="node">
<title>Node181664</title>
<g id="a_node9"><a xlink:href="quickjs_8c.html#ae5e76f4be6214208cc91f10a192fc810" target="_top" xlink:title="js_shape_hash_unlink">
<polygon fill="none" stroke="#000000" points="662,-342.5 662,-361.5 775,-361.5 775,-342.5 662,-342.5"/>
<text text-anchor="middle" x="718.5" y="-349.5" font-family="Helvetica,sans-Serif" font-size="10.00" fill="#000000">js_shape_hash_unlink</text>
</a>
</g>
</g>
<!-- Node181657&#45;&gt;Node181664 -->
<g id="edge8" class="edge">
<title>Node181657&#45;&gt;Node181664</title>
<path fill="none" stroke="#191970" d="M460.7367,-352C513.3148,-352 594.6052,-352 651.8111,-352"/>
<polygon fill="#191970" stroke="#191970" points="651.8434,-355.5001 661.8434,-352 651.8433,-348.5001 651.8434,-355.5001"/>
</g>
<!-- Node181665 -->
<g id="node10" class="node">
<title>Node181665</title>
<g id="a_node10"><a xlink:href="quickjs_8c.html#acab22c2945c4d609e57a2484feb68a96" target="_top" xlink:title="prop_hash_end">
<polygon fill="none" stroke="#000000" points="813.5,-323.5 813.5,-342.5 896.5,-342.5 896.5,-323.5 813.5,-323.5"/>
<text text-anchor="middle" x="855" y="-330.5" font-family="Helvetica,sans-Serif" font-size="10.00" fill="#000000">prop_hash_end</text>
</a>
</g>
</g>
<!-- Node181657&#45;&gt;Node181665 -->
<g id="edge10" class="edge">
<title>Node181657&#45;&gt;Node181665</title>
<path fill="none" stroke="#191970" d="M450.902,-361.5553C519.8211,-375.4557 660.0148,-396.9212 775,-371 794.9988,-366.4917 815.866,-356.372 831.2725,-347.7087"/>
<polygon fill="#191970" stroke="#191970" points="833.223,-350.6231 840.103,-342.566 829.7002,-344.5742 833.223,-350.6231"/>
</g>
<!-- Node181666 -->
<g id="node11" class="node">
<title>Node181666</title>
<g id="a_node11"><a xlink:href="quickjs_8c.html#aa80740ff93b724ea7e0c280826f4a25a" target="_top" xlink:title="resize_properties">
<polygon fill="none" stroke="#ff0000" points="521,-190.5 521,-209.5 612,-209.5 612,-190.5 521,-190.5"/>
<text text-anchor="middle" x="566.5" y="-197.5" font-family="Helvetica,sans-Serif" font-size="10.00" fill="#000000">resize_properties</text>
</a>
</g>
</g>
<!-- Node181657&#45;&gt;Node181666 -->
<g id="edge11" class="edge">
<title>Node181657&#45;&gt;Node181666</title>
<path fill="none" stroke="#191970" d="M457.2584,-342.4878C462.3215,-340.0165 467.0495,-336.9083 471,-333 508.7722,-295.6319 469.4898,-256.631 507,-219 508.6172,-217.3776 510.3727,-215.8936 512.2325,-214.5361"/>
<polygon fill="#191970" stroke="#191970" points="514.1399,-217.4741 520.9511,-209.3587 510.5657,-211.4554 514.1399,-217.4741"/>
</g>
<!-- Node181681 -->
<g id="node16" class="node">
<title>Node181681</title>
<g id="a_node16"><a xlink:href="quickjs_8c.html#a11f047846c1027dc6066a5f1b2ef292a" target="_top" xlink:title="shape_hash">
<polygon fill="none" stroke="#000000" points="532,-456.5 532,-475.5 601,-475.5 601,-456.5 532,-456.5"/>
<text text-anchor="middle" x="566.5" y="-463.5" font-family="Helvetica,sans-Serif" font-size="10.00" fill="#000000">shape_hash</text>
</a>
</g>
</g>
<!-- Node181657&#45;&gt;Node181681 -->
<g id="edge18" class="edge">
<title>Node181657&#45;&gt;Node181681</title>
<path fill="none" stroke="#191970" d="M415.8369,-361.5661C430.8915,-380.5622 467.2208,-423.2523 507,-447 511.7718,-449.8487 517.0176,-452.3183 522.3565,-454.4464"/>
<polygon fill="#191970" stroke="#191970" points="521.3902,-457.8185 531.9846,-457.9163 523.7636,-451.2331 521.3902,-457.8185"/>
</g>
<!-- Node181663 -->
<g id="node8" class="node">
<title>Node181663</title>
<g id="a_node8"><a xlink:href="quickjs_8c.html#a8291bf195606b5d1b0faed795b6dc3ff" target="_top" xlink:title="get_shape_hash">
<polygon fill="none" stroke="#000000" points="811,-456.5 811,-475.5 899,-475.5 899,-456.5 811,-456.5"/>
<text text-anchor="middle" x="855" y="-463.5" font-family="Helvetica,sans-Serif" font-size="10.00" fill="#000000">get_shape_hash</text>
</a>
</g>
</g>
<!-- Node181662&#45;&gt;Node181663 -->
<g id="edge7" class="edge">
<title>Node181662&#45;&gt;Node181663</title>
<path fill="none" stroke="#191970" d="M617.7456,-434.7499C669.206,-441.528 748.1954,-451.9321 800.7099,-458.8491"/>
<polygon fill="#191970" stroke="#191970" points="800.4724,-462.348 810.8438,-460.1839 801.3865,-455.4079 800.4724,-462.348"/>
</g>
<!-- Node181664&#45;&gt;Node181663 -->
<g id="edge9" class="edge">
<title>Node181664&#45;&gt;Node181663</title>
<path fill="none" stroke="#191970" d="M730.1379,-361.7196C753.6096,-381.3223 806.8328,-425.7724 835.6298,-449.8227"/>
<polygon fill="#191970" stroke="#191970" points="833.4727,-452.5812 843.3915,-456.305 837.9598,-447.2085 833.4727,-452.5812"/>
</g>
<!-- Node181666&#45;&gt;Node181665 -->
<g id="edge17" class="edge">
<title>Node181666&#45;&gt;Node181665</title>
<path fill="none" stroke="#191970" d="M611.4109,-209.5702C663.8992,-221.2225 747.1318,-241.2903 775,-257 801.5746,-271.9805 826.043,-297.731 840.7428,-315.0563"/>
<polygon fill="#191970" stroke="#191970" points="838.4356,-317.7596 847.4989,-323.2467 843.8356,-313.3053 838.4356,-317.7596"/>
</g>
<!-- Node181667 -->
<g id="node12" class="node">
<title>Node181667</title>
<g id="a_node12"><a xlink:href="quickjs_8c.html#a7da0cfa6f27af0e1b9599d7f359edbe2" target="_top" xlink:title="get_alloc_from_shape">
<polygon fill="none" stroke="#000000" points="662.5,-266.5 662.5,-285.5 774.5,-285.5 774.5,-266.5 662.5,-266.5"/>
<text text-anchor="middle" x="718.5" y="-273.5" font-family="Helvetica,sans-Serif" font-size="10.00" fill="#000000">get_alloc_from_shape</text>
</a>
</g>
</g>
<!-- Node181666&#45;&gt;Node181667 -->
<g id="edge12" class="edge">
<title>Node181666&#45;&gt;Node181667</title>
<path fill="none" stroke="#191970" d="M605.0016,-209.5947C612.2215,-212.136 619.5274,-215.2465 626,-219 644.7763,-229.8886 643.7478,-240.2541 662,-252 667.9611,-255.8362 674.6388,-259.2991 681.2583,-262.3237"/>
<polygon fill="#191970" stroke="#191970" points="680.2552,-265.7021 690.8247,-266.4341 683.0186,-259.2706 680.2552,-265.7021"/>
</g>
<!-- Node181668 -->
<g id="node13" class="node">
<title>Node181668</title>
<g id="a_node13"><a xlink:href="quickjs_8c.html#a8b6c89e0f589df709eb31a92b7fac32a" target="_top" xlink:title="get_shape_from_alloc">
<polygon fill="none" stroke="#000000" points="662.5,-152.5 662.5,-171.5 774.5,-171.5 774.5,-152.5 662.5,-152.5"/>
<text text-anchor="middle" x="718.5" y="-159.5" font-family="Helvetica,sans-Serif" font-size="10.00" fill="#000000">get_shape_from_alloc</text>
</a>
</g>
</g>
<!-- Node181666&#45;&gt;Node181668 -->
<g id="edge14" class="edge">
<title>Node181666&#45;&gt;Node181668</title>
<path fill="none" stroke="#191970" d="M604.856,-190.411C624.8237,-185.4191 649.4295,-179.2676 670.6334,-173.9666"/>
<polygon fill="#191970" stroke="#191970" points="671.5673,-177.341 680.4198,-171.5201 669.8695,-170.55 671.5673,-177.341"/>
</g>
<!-- Node181669 -->
<g id="node14" class="node">
<title>Node181669</title>
<g id="a_node14"><a xlink:href="quickjs_8c.html#ab54e821a9b1b55dc16c4494bd410b698" target="_top" xlink:title="get_shape_size">
<polygon fill="none" stroke="#000000" points="676,-114.5 676,-133.5 761,-133.5 761,-114.5 676,-114.5"/>
<text text-anchor="middle" x="718.5" y="-121.5" font-family="Helvetica,sans-Serif" font-size="10.00" fill="#000000">get_shape_size</text>
</a>
</g>
</g>
<!-- Node181666&#45;&gt;Node181669 -->
<g id="edge15" class="edge">
<title>Node181666&#45;&gt;Node181669</title>
<path fill="none" stroke="#191970" d="M606.1591,-190.4273C613.0487,-187.9127 619.9392,-184.8062 626,-181 645.7016,-168.6274 642.3937,-155.5231 662,-143 665.1507,-140.9876 668.5372,-139.1648 672.0303,-137.5181"/>
<polygon fill="#191970" stroke="#191970" points="673.576,-140.6651 681.4369,-133.5617 670.862,-134.2126 673.576,-140.6651"/>
</g>
<!-- Node181672 -->
<g id="node15" class="node">
<title>Node181672</title>
<g id="a_node15"><a xlink:href="quickjs_8c.html#a78b7f6b85f2739b551ff54f16156128b" target="_top" xlink:title="js_malloc">
<polygon fill="none" stroke="#ff0000" points="689.5,-190.5 689.5,-209.5 747.5,-209.5 747.5,-190.5 689.5,-190.5"/>
<text text-anchor="middle" x="718.5" y="-197.5" font-family="Helvetica,sans-Serif" font-size="10.00" fill="#000000">js_malloc</text>
</a>
</g>
</g>
<!-- Node181666&#45;&gt;Node181672 -->
<g id="edge16" class="edge">
<title>Node181666&#45;&gt;Node181672</title>
<path fill="none" stroke="#191970" d="M612.105,-200C633.4023,-200 658.5122,-200 678.9887,-200"/>
<polygon fill="#191970" stroke="#191970" points="679.2295,-203.5001 689.2294,-200 679.2294,-196.5001 679.2295,-203.5001"/>
</g>
<!-- Node181667&#45;&gt;Node181665 -->
<g id="edge13" class="edge">
<title>Node181667&#45;&gt;Node181665</title>
<path fill="none" stroke="#191970" d="M749.2383,-285.5978C757.664,-288.4283 766.7479,-291.6664 775,-295 792.6594,-302.1339 811.959,-311.2607 827.1771,-318.7816"/>
<polygon fill="#191970" stroke="#191970" points="826.02,-322.1161 836.5299,-323.455 829.1489,-315.8542 826.02,-322.1161"/>
</g>
<!-- Node181682&#45;&gt;Node181663 -->
<g id="edge20" class="edge">
<title>Node181682&#45;&gt;Node181663</title>
<path fill="none" stroke="#191970" d="M420.3078,-475.65C437.9094,-489.3447 472.6528,-513.7783 507,-523 622.0999,-553.9024 763.3731,-504.8502 824.463,-479.5706"/>
<polygon fill="#191970" stroke="#191970" points="826.0492,-482.7001 833.9017,-475.5876 823.3277,-476.2508 826.0492,-482.7001"/>
</g>
<!-- Node181682&#45;&gt;Node181681 -->
<g id="edge21" class="edge">
<title>Node181682&#45;&gt;Node181681</title>
<path fill="none" stroke="#191970" d="M471.3998,-466C488.1809,-466 505.9741,-466 521.5744,-466"/>
<polygon fill="#191970" stroke="#191970" points="521.9849,-469.5001 531.9849,-466 521.9849,-462.5001 521.9849,-469.5001"/>
</g>
<!-- Node181683&#45;&gt;Node181659 -->
<g id="edge26" class="edge">
<title>Node181683&#45;&gt;Node181659</title>
<path fill="none" stroke="#191970" d="M608.7396,-169.8642C615.1246,-172.5539 621.1771,-176.1616 626,-181 663.5102,-218.631 624.7789,-257.083 662,-295 663.4409,-296.4678 664.9985,-297.8222 666.6462,-299.072"/>
<polygon fill="#191970" stroke="#191970" points="665.1526,-302.2611 675.5105,-304.4896 668.8031,-296.2882 665.1526,-302.2611"/>
</g>
<!-- Node181683&#45;&gt;Node181660 -->
<g id="edge28" class="edge">
<title>Node181683&#45;&gt;Node181660</title>
<path fill="none" stroke="#191970" d="M573.7322,-152.3387C585.021,-137.2173 607.4586,-106.9966 626,-81 642.3221,-58.1152 639.5351,-45.8953 662,-29 664.9878,-26.7529 668.2575,-24.7617 671.67,-22.9988"/>
<polygon fill="#191970" stroke="#191970" points="673.2449,-26.1286 680.941,-18.847 670.3838,-19.7399 673.2449,-26.1286"/>
</g>
<!-- Node181683&#45;&gt;Node181667 -->
<g id="edge24" class="edge">
<title>Node181683&#45;&gt;Node181667</title>
<path fill="none" stroke="#191970" d="M606.1591,-171.5727C613.0487,-174.0873 619.9392,-177.1938 626,-181 645.7016,-193.3726 645.8101,-202.2931 662,-219 675.2357,-232.6583 690.4201,-247.9568 701.712,-259.2631"/>
<polygon fill="#191970" stroke="#191970" points="699.2888,-261.7897 708.8358,-266.3836 704.2374,-256.8387 699.2888,-261.7897"/>
</g>
<!-- Node181683&#45;&gt;Node181668 -->
<g id="edge25" class="edge">
<title>Node181683&#45;&gt;Node181668</title>
<path fill="none" stroke="#191970" d="M608.8405,-162C622.3298,-162 637.5921,-162 652.3503,-162"/>
<polygon fill="#191970" stroke="#191970" points="652.4591,-165.5001 662.4591,-162 652.459,-158.5001 652.4591,-165.5001"/>
</g>
<!-- Node181683&#45;&gt;Node181669 -->
<g id="edge27" class="edge">
<title>Node181683&#45;&gt;Node181669</title>
<path fill="none" stroke="#191970" d="M604.856,-152.411C624.8237,-147.4191 649.4295,-141.2676 670.6334,-135.9666"/>
<polygon fill="#191970" stroke="#191970" points="671.5673,-139.341 680.4198,-133.5201 669.8695,-132.55 671.5673,-139.341"/>
</g>
<!-- Node181683&#45;&gt;Node181672 -->
<g id="edge30" class="edge">
<title>Node181683&#45;&gt;Node181672</title>
<path fill="none" stroke="#191970" d="M604.856,-171.589C627.6858,-177.2964 656.5785,-184.5196 679.5178,-190.2545"/>
<polygon fill="#191970" stroke="#191970" points="678.7213,-193.663 689.2716,-192.6929 680.4191,-186.872 678.7213,-193.663"/>
</g>
<!-- Node181684 -->
<g id="node19" class="node">
<title>Node181684</title>
<g id="a_node19"><a xlink:href="quickjs_8c.html#a9780456a71703c53244b88831bc8fb7a" target="_top" xlink:title="add_gc_object">
<polygon fill="none" stroke="#ff0000" points="678.5,-38.5 678.5,-57.5 758.5,-57.5 758.5,-38.5 678.5,-38.5"/>
<text text-anchor="middle" x="718.5" y="-45.5" font-family="Helvetica,sans-Serif" font-size="10.00" fill="#000000">add_gc_object</text>
</a>
</g>
</g>
<!-- Node181683&#45;&gt;Node181684 -->
<g id="edge23" class="edge">
<title>Node181683&#45;&gt;Node181684</title>
<path fill="none" stroke="#191970" d="M573.5752,-152.4727C588.1027,-133.5463 623.2081,-90.9755 662,-67 665.3218,-64.9469 668.8919,-63.0863 672.5649,-61.406"/>
<polygon fill="#191970" stroke="#191970" points="673.9099,-64.6374 681.8243,-57.5937 671.2449,-58.1645 673.9099,-64.6374"/>
</g>
<!-- Node181685 -->
<g id="node20" class="node">
<title>Node181685</title>
<g id="a_node20"><a xlink:href="quickjs_8h.html#a775522f2d084fc8fa0fcb33f390006b4" target="_top" xlink:title="JS_DupValue">
<polygon fill="none" stroke="#000000" points="680,-76.5 680,-95.5 757,-95.5 757,-76.5 680,-76.5"/>
<text text-anchor="middle" x="718.5" y="-83.5" font-family="Helvetica,sans-Serif" font-size="10.00" fill="#000000">JS_DupValue</text>
</a>
</g>
</g>
<!-- Node181683&#45;&gt;Node181685 -->
<g id="edge29" class="edge">
<title>Node181683&#45;&gt;Node181685</title>
<path fill="none" stroke="#191970" d="M580.5372,-152.3134C598.71,-140.085 631.6546,-118.9631 662,-105 666.6404,-102.8648 671.5918,-100.8466 676.5618,-98.9797"/>
<polygon fill="#191970" stroke="#191970" points="677.8254,-102.245 686.0653,-95.585 675.4706,-95.6529 677.8254,-102.245"/>
</g>
<!-- Node181688 -->
<g id="node23" class="node">
<title>Node181688</title>
<g id="a_node23"><a xlink:href="quickjs_8c.html#a6f921a6312ada5c7da7b485e24d37f54" target="_top" xlink:title="js_free_shape0">
<polygon fill="none" stroke="#ff0000" points="525,-228.5 525,-247.5 608,-247.5 608,-228.5 525,-228.5"/>
<text text-anchor="middle" x="566.5" y="-235.5" font-family="Helvetica,sans-Serif" font-size="10.00" fill="#000000">js_free_shape0</text>
</a>
</g>
</g>
<!-- Node181687&#45;&gt;Node181688 -->
<g id="edge33" class="edge">
<title>Node181687&#45;&gt;Node181688</title>
<path fill="none" stroke="#191970" d="M447.2005,-305.6451C455.4055,-302.9561 463.7655,-299.4732 471,-295 490.7875,-282.7653 487.2984,-269.3726 507,-257 510.3145,-254.9185 513.8772,-253.0462 517.5521,-251.3656"/>
<polygon fill="#191970" stroke="#191970" points="518.9061,-254.5933 526.8409,-247.5727 516.2598,-248.1128 518.9061,-254.5933"/>
</g>
<!-- Node181688&#45;&gt;Node181659 -->
<g id="edge35" class="edge">
<title>Node181688&#45;&gt;Node181659</title>
<path fill="none" stroke="#191970" d="M606.1591,-247.5727C613.0487,-250.0873 619.9392,-253.1938 626,-257 645.7016,-269.3726 642.3937,-282.4769 662,-295 665.1507,-297.0124 668.5372,-298.8352 672.0303,-300.4819"/>
<polygon fill="#191970" stroke="#191970" points="670.862,-303.7874 681.4369,-304.4383 673.576,-297.3349 670.862,-303.7874"/>
</g>
<!-- Node181688&#45;&gt;Node181664 -->
<g id="edge36" class="edge">
<title>Node181688&#45;&gt;Node181664</title>
<path fill="none" stroke="#191970" d="M608.1962,-246.4442C614.644,-249.0668 620.8584,-252.5018 626,-257 654.1298,-281.61 634.0594,-308.1754 662,-333 663.76,-334.5637 665.6534,-335.9996 667.6426,-337.318"/>
<polygon fill="#191970" stroke="#191970" points="666.4104,-340.6342 676.8608,-342.3779 669.7788,-334.4978 666.4104,-340.6342"/>
</g>
<!-- Node181688&#45;&gt;Node181667 -->
<g id="edge34" class="edge">
<title>Node181688&#45;&gt;Node181667</title>
<path fill="none" stroke="#191970" d="M604.856,-247.589C624.8237,-252.5809 649.4295,-258.7324 670.6334,-264.0334"/>
<polygon fill="#191970" stroke="#191970" points="669.8695,-267.45 680.4198,-266.4799 671.5673,-260.659 669.8695,-267.45"/>
</g>
<!-- Node181714&#45;&gt;Node181659 -->
<g id="edge39" class="edge">
<title>Node181714&#45;&gt;Node181659</title>
<path fill="none" stroke="#191970" d="M613.2127,-494.4679C617.981,-492.0001 622.3893,-488.8982 626,-485 673.1764,-434.0673 615.2149,-384.2923 662,-333 663.3861,-331.4804 664.8975,-330.0822 666.5065,-328.7957"/>
<polygon fill="#191970" stroke="#191970" points="668.6716,-331.5668 675.235,-323.2497 664.9176,-325.6585 668.6716,-331.5668"/>
</g>
<!-- Node181714&#45;&gt;Node181665 -->
<g id="edge40" class="edge">
<title>Node181714&#45;&gt;Node181665</title>
<path fill="none" stroke="#191970" d="M600.263,-494.4382C608.7787,-491.6955 617.8223,-488.4914 626,-485 695.3214,-455.4038 713.3012,-447.2972 775,-404 798.5585,-387.4678 822.9134,-364.9302 838.4659,-349.7181"/>
<polygon fill="#191970" stroke="#191970" points="841.1079,-352.0273 845.7456,-342.5014 836.1797,-347.056 841.1079,-352.0273"/>
</g>
</g>
</svg>
        <g id="navigator" transform="translate(0 0)" fill="#404254">
                <rect fill="#f2f5e9" fill-opacity="0.5" stroke="#606060" stroke-width=".5" x="0" y="0" width="60" height="60"/>
                <use id="zoomplus" xlink:href="#zoomPlus" x="17" y="9" onmousedown="handleZoom(evt,'in')"/>
                <use id="zoomminus" xlink:href="#zoomMin" x="42" y="9" onmousedown="handleZoom(evt,'out')"/>
                <use id="reset" xlink:href="#resetDef" x="30" y="36" onmousedown="handleReset()"/>
                <g id="arrowUp" xlink:href="#dirArrow" transform="translate(30 24)" onmousedown="handlePan(0,-1)">
                  <use xlink:href="#rim" fill="#404040">
                        <set attributeName="fill" to="#808080" begin="arrowUp.mouseover" end="arrowUp.mouseout"/>
                  </use>
                  <path fill="none" stroke="white" stroke-width="1.5" d="M0,-3.0v7 M-2.5,-0.5L0,-3.0L2.5,-0.5"/>
                </g>
                <g id="arrowRight" xlink:href="#dirArrow" transform="rotate(90) translate(36 -43)" onmousedown="handlePan(1,0)">
                  <use xlink:href="#rim" fill="#404040">
                        <set attributeName="fill" to="#808080" begin="arrowRight.mouseover" end="arrowRight.mouseout"/>
                  </use>
                  <path fill="none" stroke="white" stroke-width="1.5" d="M0,-3.0v7 M-2.5,-0.5L0,-3.0L2.5,-0.5"/>
                </g>
                <g id="arrowDown" xlink:href="#dirArrow" transform="rotate(180) translate(-30 -48)" onmousedown="handlePan(0,1)">
                  <use xlink:href="#rim" fill="#404040">
                        <set attributeName="fill" to="#808080" begin="arrowDown.mouseover" end="arrowDown.mouseout"/>
                  </use>
                  <path fill="none" stroke="white" stroke-width="1.5" d="M0,-3.0v7 M-2.5,-0.5L0,-3.0L2.5,-0.5"/>
                </g>
                <g id="arrowLeft" xlink:href="#dirArrow" transform="rotate(270) translate(-36 17)" onmousedown="handlePan(-1,0)">
                  <use xlink:href="#rim" fill="#404040">
                        <set attributeName="fill" to="#808080" begin="arrowLeft.mouseover" end="arrowLeft.mouseout"/>
                  </use>
                  <path fill="none" stroke="white" stroke-width="1.5" d="M0,-3.0v7 M-2.5,-0.5L0,-3.0L2.5,-0.5"/>
                </g>
        </g>
        <svg viewBox="0 0 15 15" width="100%" height="30px" preserveAspectRatio="xMaxYMin meet">
         <g id="arrow_out" transform="scale(0.3 0.3)">
          <a xlink:href="quickjs_8c_a3865abec9986277dbff58ea314f3d82e_cgraph_org.svg" target="_base">
           <rect id="button" ry="5" rx="5" y="6" x="6" height="38" width="38"
                fill="#f2f5e9" fill-opacity="0.5" stroke="#606060" stroke-width="1.0"/>
           <path id="arrow"
             d="M 11.500037,31.436501 C 11.940474,20.09759 22.043105,11.32322 32.158766,21.979434 L 37.068811,17.246167 C 37.068811,17.246167 37.088388,32 37.088388,32 L 22.160133,31.978069 C 22.160133,31.978069 26.997745,27.140456 26.997745,27.140456 C 18.528582,18.264221 13.291696,25.230495 11.500037,31.436501 z"
             style="fill:#404040;"/>
          </a>
         </g>
        </svg>
</svg>
