<?xml version="1.0" encoding="UTF-8" standalone="no"?>
<!DOCTYPE svg PUBLIC "-//W3C//DTD SVG 1.1//EN"
 "http://www.w3.org/Graphics/SVG/1.1/DTD/svg11.dtd">
<!-- Generated by graphviz version 2.40.1 (20161225.0304)
 -->
<!-- Title: js_regexp_Symbol_matchAll Pages: 1 -->
<!--zoomable 664 -->
<svg id="main" version="1.1" xmlns="http://www.w3.org/2000/svg" xmlns:xlink="http://www.w3.org/1999/xlink" xml:space="preserve" onload="init(evt)">
<style type="text/css"><![CDATA[
.edge:hover path { stroke: red; }
.edge:hover polygon { stroke: red; fill: red; }
]]></style>
<script type="text/javascript"><![CDATA[
var edges = document.getElementsByTagName('g');
if (edges && edges.length) {
  for (var i=0;i<edges.length;i++) {
    if (edges[i].id.substr(0,4)=='edge') {
      edges[i].setAttribute('class','edge');
    }
  }
}
]]></script>
        <defs>
                <circle id="rim" cx="0" cy="0" r="7"/>
                <circle id="rim2" cx="0" cy="0" r="3.5"/>
                <g id="zoomPlus">
                        <use xlink:href="#rim" fill="#404040">
                                <set attributeName="fill" to="#808080" begin="zoomplus.mouseover" end="zoomplus.mouseout"/>
                        </use>
                        <path d="M-4,0h8M0,-4v8" fill="none" stroke="white" stroke-width="1.5" pointer-events="none"/>
                </g>
                <g id="zoomMin">
                        <use xlink:href="#rim" fill="#404040">
                                <set attributeName="fill" to="#808080" begin="zoomminus.mouseover" end="zoomminus.mouseout"/>
                        </use>
                        <path d="M-4,0h8" fill="none" stroke="white" stroke-width="1.5" pointer-events="none"/>
                </g>
                <g id="dirArrow">
                        <path fill="none" stroke="white" stroke-width="1.5" d="M0,-3.0v7 M-2.5,-0.5L0,-3.0L2.5,-0.5"/>
                </g>
               <g id="resetDef">
                       <use xlink:href="#rim2" fill="#404040">
                               <set attributeName="fill" to="#808080" begin="reset.mouseover" end="reset.mouseout"/>
                       </use>
               </g>
        </defs>

<script type="text/javascript">
var viewWidth = 814;
var viewHeight = 664;
var sectionId = 'dynsection-1609';
</script>
<script xlink:href="svgpan.js"/>
<svg id="graph" class="graph">
<g id="viewport">
<title>js_regexp_Symbol_matchAll</title>
<!-- Node429170 -->
<g id="node1" class="node">
<title>Node429170</title>
<polygon fill="#bfbfbf" stroke="#000000" points="0,-266.5 0,-285.5 140,-285.5 140,-266.5 0,-266.5"/>
<text text-anchor="middle" x="70" y="-273.5" font-family="Helvetica,sans-Serif" font-size="10.00" fill="#000000">js_regexp_Symbol_matchAll</text>
</g>
<!-- Node429171 -->
<g id="node2" class="node">
<title>Node429171</title>
<g id="a_node2"><a xlink:href="quickjs_8c.html#a28704096ee67c5b0ab1bd60ce050e36a" target="_top" xlink:title="JS_CallConstructor">
<polygon fill="none" stroke="#000000" points="179,-475.5 179,-494.5 281,-494.5 281,-475.5 179,-475.5"/>
<text text-anchor="middle" x="230" y="-482.5" font-family="Helvetica,sans-Serif" font-size="10.00" fill="#000000">JS_CallConstructor</text>
</a>
</g>
</g>
<!-- Node429170&#45;&gt;Node429171 -->
<g id="edge1" class="edge">
<title>Node429170&#45;&gt;Node429171</title>
<path fill="none" stroke="#191970" d="M74.7614,-285.7461C88.1717,-312.5982 128.3953,-389.1577 176,-442 185.0579,-452.0544 196.6316,-461.6053 206.7394,-469.1406"/>
<polygon fill="#191970" stroke="#191970" points="204.9872,-472.1923 215.1445,-475.2057 209.0833,-466.5159 204.9872,-472.1923"/>
</g>
<!-- Node429226 -->
<g id="node6" class="node">
<title>Node429226</title>
<g id="a_node6"><a xlink:href="quickjs_8h.html#afaa20c47565bc704c6c85f3d77254e7d" target="_top" xlink:title="JS_FreeValue">
<polygon fill="none" stroke="#ff0000" points="687,-266.5 687,-285.5 765,-285.5 765,-266.5 687,-266.5"/>
<text text-anchor="middle" x="726" y="-273.5" font-family="Helvetica,sans-Serif" font-size="10.00" fill="#000000">JS_FreeValue</text>
</a>
</g>
</g>
<!-- Node429170&#45;&gt;Node429226 -->
<g id="edge25" class="edge">
<title>Node429170&#45;&gt;Node429226</title>
<path fill="none" stroke="#191970" d="M74.1118,-266.163C85.6157,-240.1135 120.9365,-169.5271 176,-143 367.3539,-50.8141 627.8006,-209.2134 704.1384,-260.6791"/>
<polygon fill="#191970" stroke="#191970" points="702.2862,-263.6525 712.5182,-266.4013 706.2336,-257.8716 702.2862,-263.6525"/>
</g>
<!-- Node429237 -->
<g id="node7" class="node">
<title>Node429237</title>
<g id="a_node7"><a xlink:href="quickjs_8h.html#a89b7c8686c7eee70b86be722ee4730ad" target="_top" xlink:title="JS_GetProperty">
<polygon fill="none" stroke="#ff0000" points="683,-532.5 683,-551.5 769,-551.5 769,-532.5 683,-532.5"/>
<text text-anchor="middle" x="726" y="-539.5" font-family="Helvetica,sans-Serif" font-size="10.00" fill="#000000">JS_GetProperty</text>
</a>
</g>
</g>
<!-- Node429170&#45;&gt;Node429237 -->
<g id="edge26" class="edge">
<title>Node429170&#45;&gt;Node429237</title>
<path fill="none" stroke="#191970" d="M71.4422,-285.5998C77.2557,-320.7893 102.3073,-443.7913 176,-504 327.5865,-627.8498 419.4886,-623.9736 610,-579 627.41,-574.8901 629.1863,-567.1073 646,-561 654.5725,-557.8862 663.849,-555.1432 672.9442,-552.7798"/>
<polygon fill="#191970" stroke="#191970" points="673.8344,-556.1652 682.7003,-550.3648 672.1523,-549.3703 673.8344,-556.1652"/>
</g>
<!-- Node429244 -->
<g id="node8" class="node">
<title>Node429244</title>
<g id="a_node8"><a xlink:href="quickjs_8h.html#ad80a83d73e9b7d872b88fbf2943aebe9" target="_top" xlink:title="JS_IsException">
<polygon fill="none" stroke="#000000" points="683,-570.5 683,-589.5 769,-589.5 769,-570.5 683,-570.5"/>
<text text-anchor="middle" x="726" y="-577.5" font-family="Helvetica,sans-Serif" font-size="10.00" fill="#000000">JS_IsException</text>
</a>
</g>
</g>
<!-- Node429170&#45;&gt;Node429244 -->
<g id="edge27" class="edge">
<title>Node429170&#45;&gt;Node429244</title>
<path fill="none" stroke="#191970" d="M70.9567,-285.5395C75.3255,-324.2421 96.7224,-471.3639 176,-553 314.2793,-695.3931 590.0248,-624.5796 689.3101,-592.7285"/>
<polygon fill="#191970" stroke="#191970" points="690.4836,-596.0272 698.9024,-589.5949 688.3099,-589.3733 690.4836,-596.0272"/>
</g>
<!-- Node429457 -->
<g id="node10" class="node">
<title>Node429457</title>
<g id="a_node10"><a xlink:href="quickjs_8h.html#a3d68fe446df2d9c7d1900b16371bff5b" target="_top" xlink:title="JS_IsObject">
<polygon fill="none" stroke="#000000" points="690.5,-418.5 690.5,-437.5 761.5,-437.5 761.5,-418.5 690.5,-418.5"/>
<text text-anchor="middle" x="726" y="-425.5" font-family="Helvetica,sans-Serif" font-size="10.00" fill="#000000">JS_IsObject</text>
</a>
</g>
</g>
<!-- Node429170&#45;&gt;Node429457 -->
<g id="edge28" class="edge">
<title>Node429170&#45;&gt;Node429457</title>
<path fill="none" stroke="#191970" d="M75.4353,-285.6025C89.0168,-308.593 126.9,-366.8265 176,-393 262.6864,-439.2096 564.1664,-433.8072 680.0928,-429.8594"/>
<polygon fill="#191970" stroke="#191970" points="680.525,-433.3464 690.3952,-429.4956 680.2779,-426.3508 680.525,-433.3464"/>
</g>
<!-- Node429416 -->
<g id="node13" class="node">
<title>Node429416</title>
<g id="a_node13"><a xlink:href="quickjs_8c.html#a726b00d108e0a0f4d958c36c2e426a64" target="_top" xlink:title="JS_ThrowTypeErrorNotAnObject">
<polygon fill="none" stroke="#000000" points="646,-304.5 646,-323.5 806,-323.5 806,-304.5 646,-304.5"/>
<text text-anchor="middle" x="726" y="-311.5" font-family="Helvetica,sans-Serif" font-size="10.00" fill="#000000">JS_ThrowTypeErrorNotAnObject</text>
</a>
</g>
</g>
<!-- Node429170&#45;&gt;Node429416 -->
<g id="edge43" class="edge">
<title>Node429170&#45;&gt;Node429416</title>
<path fill="none" stroke="#191970" d="M82.8365,-285.6599C101.94,-299.3669 139.5281,-323.8157 176,-333 222.5469,-344.7214 236.0111,-334.031 284,-333 405.8156,-330.383 546.3851,-323.7135 635.6894,-319.0188"/>
<polygon fill="#191970" stroke="#191970" points="635.981,-322.5084 645.7822,-318.4852 635.6113,-315.5181 635.981,-322.5084"/>
</g>
<!-- Node429443 -->
<g id="node15" class="node">
<title>Node429443</title>
<g id="a_node15"><a xlink:href="quickjs_8h.html#a6acbc709e59969eac6775f9b253b438f" target="_top" xlink:title="JS_NewInt64">
<polygon fill="none" stroke="#ff0000" points="192,-304.5 192,-323.5 268,-323.5 268,-304.5 192,-304.5"/>
<text text-anchor="middle" x="230" y="-311.5" font-family="Helvetica,sans-Serif" font-size="10.00" fill="#000000">JS_NewInt64</text>
</a>
</g>
</g>
<!-- Node429170&#45;&gt;Node429443 -->
<g id="edge29" class="edge">
<title>Node429170&#45;&gt;Node429443</title>
<path fill="none" stroke="#191970" d="M110.3748,-285.589C132.1481,-290.7602 159.1605,-297.1756 182.0042,-302.601"/>
<polygon fill="#191970" stroke="#191970" points="181.3031,-306.0318 191.8412,-304.9373 182.9206,-299.2212 181.3031,-306.0318"/>
</g>
<!-- Node429446 -->
<g id="node16" class="node">
<title>Node429446</title>
<g id="a_node16"><a xlink:href="quickjs_8c.html#a659dc0db7e440fd6eb012d613627faa3" target="_top" xlink:title="JS_NewObjectClass">
<polygon fill="none" stroke="#ff0000" points="176,-266.5 176,-285.5 284,-285.5 284,-266.5 176,-266.5"/>
<text text-anchor="middle" x="230" y="-273.5" font-family="Helvetica,sans-Serif" font-size="10.00" fill="#000000">JS_NewObjectClass</text>
</a>
</g>
</g>
<!-- Node429170&#45;&gt;Node429446 -->
<g id="edge30" class="edge">
<title>Node429170&#45;&gt;Node429446</title>
<path fill="none" stroke="#191970" d="M140.1783,-276C148.6548,-276 157.2807,-276 165.6675,-276"/>
<polygon fill="#191970" stroke="#191970" points="165.7529,-279.5001 175.7528,-276 165.7528,-272.5001 165.7529,-279.5001"/>
</g>
<!-- Node429447 -->
<g id="node17" class="node">
<title>Node429447</title>
<g id="a_node17"><a xlink:href="quickjs_8c.html#a0ddf716409e51648f0d59e7521150d19" target="_top" xlink:title="JS_SetOpaque">
<polygon fill="none" stroke="#000000" points="188.5,-228.5 188.5,-247.5 271.5,-247.5 271.5,-228.5 188.5,-228.5"/>
<text text-anchor="middle" x="230" y="-235.5" font-family="Helvetica,sans-Serif" font-size="10.00" fill="#000000">JS_SetOpaque</text>
</a>
</g>
</g>
<!-- Node429170&#45;&gt;Node429447 -->
<g id="edge31" class="edge">
<title>Node429170&#45;&gt;Node429447</title>
<path fill="none" stroke="#191970" d="M110.3748,-266.411C131.4885,-261.3965 157.5287,-255.2119 179.9169,-249.8947"/>
<polygon fill="#191970" stroke="#191970" points="180.995,-253.2361 189.9156,-247.5201 179.3774,-246.4256 180.995,-253.2361"/>
</g>
<!-- Node429486 -->
<g id="node18" class="node">
<title>Node429486</title>
<g id="a_node18"><a xlink:href="quickjs_8h.html#af763b173e78debf2075670ca2c128a30" target="_top" xlink:title="JS_SetProperty">
<polygon fill="none" stroke="#ff0000" points="187,-190.5 187,-209.5 273,-209.5 273,-190.5 187,-190.5"/>
<text text-anchor="middle" x="230" y="-197.5" font-family="Helvetica,sans-Serif" font-size="10.00" fill="#000000">JS_SetProperty</text>
</a>
</g>
</g>
<!-- Node429170&#45;&gt;Node429486 -->
<g id="edge32" class="edge">
<title>Node429170&#45;&gt;Node429486</title>
<path fill="none" stroke="#191970" d="M86.1294,-266.3058C106.5751,-254.2583 143.124,-233.5182 176,-219 180.709,-216.9205 185.7232,-214.9046 190.7261,-213.0118"/>
<polygon fill="#191970" stroke="#191970" points="192.0542,-216.253 200.2502,-209.5391 189.6562,-209.6766 192.0542,-216.253"/>
</g>
<!-- Node429602 -->
<g id="node19" class="node">
<title>Node429602</title>
<g id="a_node19"><a xlink:href="quickjs_8c.html#ab5d3dff6327702516a514e1f616ec149" target="_top" xlink:title="JS_SpeciesConstructor">
<polygon fill="none" stroke="#000000" points="490,-380.5 490,-399.5 610,-399.5 610,-380.5 490,-380.5"/>
<text text-anchor="middle" x="550" y="-387.5" font-family="Helvetica,sans-Serif" font-size="10.00" fill="#000000">JS_SpeciesConstructor</text>
</a>
</g>
</g>
<!-- Node429170&#45;&gt;Node429602 -->
<g id="edge33" class="edge">
<title>Node429170&#45;&gt;Node429602</title>
<path fill="none" stroke="#191970" d="M77.5092,-285.5928C93.3003,-304.9341 132.1292,-348.2729 176,-366 275.5899,-406.2418 402.2666,-404.5625 479.6792,-398.2947"/>
<polygon fill="#191970" stroke="#191970" points="480.1373,-401.7684 489.8014,-397.4261 479.5387,-394.794 480.1373,-401.7684"/>
</g>
<!-- Node429603 -->
<g id="node21" class="node">
<title>Node429603</title>
<g id="a_node21"><a xlink:href="quickjs_8c.html#a07acd485a57197356906928a788a0644" target="_top" xlink:title="JS_ToLengthFree">
<polygon fill="none" stroke="#000000" points="183,-152.5 183,-171.5 277,-171.5 277,-152.5 183,-152.5"/>
<text text-anchor="middle" x="230" y="-159.5" font-family="Helvetica,sans-Serif" font-size="10.00" fill="#000000">JS_ToLengthFree</text>
</a>
</g>
</g>
<!-- Node429170&#45;&gt;Node429603 -->
<g id="edge44" class="edge">
<title>Node429170&#45;&gt;Node429603</title>
<path fill="none" stroke="#191970" d="M78.3814,-266.28C95.1439,-247.3864 134.746,-205.4228 176,-181 179.4142,-178.9788 183.0767,-177.1259 186.8271,-175.438"/>
<polygon fill="#191970" stroke="#191970" points="188.3137,-178.6114 196.2392,-171.5803 185.6589,-172.1343 188.3137,-178.6114"/>
</g>
<!-- Node429265 -->
<g id="node24" class="node">
<title>Node429265</title>
<g id="a_node24"><a xlink:href="quickjs_8c.html#a7bcb8e1a20cbc8374a5f9ba4a2088cec" target="_top" xlink:title="JS_ToString">
<polygon fill="none" stroke="#ff0000" points="351.5,-38.5 351.5,-57.5 422.5,-57.5 422.5,-38.5 351.5,-38.5"/>
<text text-anchor="middle" x="387" y="-45.5" font-family="Helvetica,sans-Serif" font-size="10.00" fill="#000000">JS_ToString</text>
</a>
</g>
</g>
<!-- Node429170&#45;&gt;Node429265 -->
<g id="edge50" class="edge">
<title>Node429170&#45;&gt;Node429265</title>
<path fill="none" stroke="#191970" d="M71.5423,-266.3747C77.5692,-232.262 102.9167,-116.5299 176,-67 224.9693,-33.8126 295.6926,-34.8266 341.5062,-40.1665"/>
<polygon fill="#191970" stroke="#191970" points="341.0899,-43.6416 351.4533,-41.4393 341.9784,-36.6983 341.0899,-43.6416"/>
</g>
<!-- Node429434 -->
<g id="node25" class="node">
<title>Node429434</title>
<g id="a_node25"><a xlink:href="quickjs_8c.html#a38cad713b74c445668210ea8614bfb65" target="_top" xlink:title="JS_ToStringFree">
<polygon fill="none" stroke="#000000" points="185,-76.5 185,-95.5 275,-95.5 275,-76.5 185,-76.5"/>
<text text-anchor="middle" x="230" y="-83.5" font-family="Helvetica,sans-Serif" font-size="10.00" fill="#000000">JS_ToStringFree</text>
</a>
</g>
</g>
<!-- Node429170&#45;&gt;Node429434 -->
<g id="edge51" class="edge">
<title>Node429170&#45;&gt;Node429434</title>
<path fill="none" stroke="#191970" d="M73.7644,-266.3827C85.1074,-238.5317 121.5613,-156.8263 176,-110 180.4844,-106.1427 185.6879,-102.8055 191.0592,-99.9498"/>
<polygon fill="#191970" stroke="#191970" points="192.6523,-103.0676 200.1597,-95.5916 189.6288,-96.7542 192.6523,-103.0676"/>
</g>
<!-- Node429606 -->
<g id="node26" class="node">
<title>Node429606</title>
<g id="a_node26"><a xlink:href="quickjs_8c.html#a646c73cb7ff4b6af11529c2524d90a43" target="_top" xlink:title="string_indexof_char">
<polygon fill="none" stroke="#000000" points="179.5,-.5 179.5,-19.5 280.5,-19.5 280.5,-.5 179.5,-.5"/>
<text text-anchor="middle" x="230" y="-7.5" font-family="Helvetica,sans-Serif" font-size="10.00" fill="#000000">string_indexof_char</text>
</a>
</g>
</g>
<!-- Node429170&#45;&gt;Node429606 -->
<g id="edge54" class="edge">
<title>Node429170&#45;&gt;Node429606</title>
<path fill="none" stroke="#191970" d="M71.6523,-266.2727C78.1993,-230.5352 105.486,-104.8944 176,-34 179.7474,-30.2324 184.189,-27.0068 188.8906,-24.2583"/>
<polygon fill="#191970" stroke="#191970" points="190.8188,-27.2039 198.1379,-19.5435 187.6392,-20.9677 190.8188,-27.2039"/>
</g>
<!-- Node429172 -->
<g id="node3" class="node">
<title>Node429172</title>
<g id="a_node3"><a xlink:href="quickjs_8c.html#ad35594576a14c10812efaf958c99af8a" target="_top" xlink:title="JS_CallConstructorInternal">
<polygon fill="none" stroke="#000000" points="320,-494.5 320,-513.5 454,-513.5 454,-494.5 320,-494.5"/>
<text text-anchor="middle" x="387" y="-501.5" font-family="Helvetica,sans-Serif" font-size="10.00" fill="#000000">JS_CallConstructorInternal</text>
</a>
</g>
</g>
<!-- Node429171&#45;&gt;Node429172 -->
<g id="edge2" class="edge">
<title>Node429171&#45;&gt;Node429172</title>
<path fill="none" stroke="#191970" d="M281.4077,-491.2213C290.5008,-492.3218 300.1468,-493.4891 309.7673,-494.6534"/>
<polygon fill="#191970" stroke="#191970" points="309.4115,-498.1358 319.7596,-495.8626 310.2525,-491.1865 309.4115,-498.1358"/>
</g>
<!-- Node429173 -->
<g id="node4" class="node">
<title>Node429173</title>
<g id="a_node4"><a xlink:href="quickjs_8c.html#ac2894ff4edcdb4e6841bcce9c76081e3" target="_top" xlink:title="JS_CallInternal">
<polygon fill="none" stroke="#ff0000" points="508.5,-494.5 508.5,-513.5 591.5,-513.5 591.5,-494.5 508.5,-494.5"/>
<text text-anchor="middle" x="550" y="-501.5" font-family="Helvetica,sans-Serif" font-size="10.00" fill="#000000">JS_CallInternal</text>
</a>
</g>
</g>
<!-- Node429172&#45;&gt;Node429173 -->
<g id="edge3" class="edge">
<title>Node429172&#45;&gt;Node429173</title>
<path fill="none" stroke="#191970" d="M454.2394,-497.3427C468.775,-497.152 483.9352,-497.2556 497.7922,-497.6535"/>
<polygon fill="#191970" stroke="#191970" points="497.9863,-501.1623 508.1029,-498.0151 498.2317,-494.1666 497.9863,-501.1623"/>
</g>
<!-- Node429172&#45;&gt;Node429226 -->
<g id="edge22" class="edge">
<title>Node429172&#45;&gt;Node429226</title>
<path fill="none" stroke="#191970" d="M392.3006,-494.4185C405.8134,-470.724 443.7709,-408.582 490,-371 549.8435,-322.3501 573.3756,-320.9566 646,-295 655.8812,-291.4684 666.6838,-288.3983 677.064,-285.816"/>
<polygon fill="#191970" stroke="#191970" points="677.9239,-289.2092 686.8427,-283.4905 676.3043,-282.3991 677.9239,-289.2092"/>
</g>
<!-- Node429172&#45;&gt;Node429244 -->
<g id="edge23" class="edge">
<title>Node429172&#45;&gt;Node429244</title>
<path fill="none" stroke="#191970" d="M395.7841,-513.5044C412.2772,-530.5669 449.8528,-565.8378 490,-579 550.338,-598.7817 624.1111,-594.9791 672.94,-588.8973"/>
<polygon fill="#191970" stroke="#191970" points="673.5117,-592.3523 682.9671,-587.5727 672.5948,-585.4126 673.5117,-592.3523"/>
</g>
<!-- Node429588 -->
<g id="node12" class="node">
<title>Node429588</title>
<g id="a_node12"><a xlink:href="quickjs_8c.html#a246e337d6566552736209730827c0871" target="_top" xlink:title="js_poll_interrupts">
<polygon fill="none" stroke="#ff0000" points="681,-636.5 681,-655.5 771,-655.5 771,-636.5 681,-636.5"/>
<text text-anchor="middle" x="726" y="-643.5" font-family="Helvetica,sans-Serif" font-size="10.00" fill="#000000">js_poll_interrupts</text>
</a>
</g>
</g>
<!-- Node429172&#45;&gt;Node429588 -->
<g id="edge24" class="edge">
<title>Node429172&#45;&gt;Node429588</title>
<path fill="none" stroke="#191970" d="M394.2872,-513.763C409.6139,-533.528 447.3133,-578.2431 490,-600 547.1166,-629.1117 620.6376,-639.8497 670.3251,-643.782"/>
<polygon fill="#191970" stroke="#191970" points="670.3251,-647.291 680.5516,-644.5219 670.8303,-640.3093 670.3251,-647.291"/>
</g>
<!-- Node429540 -->
<g id="node14" class="node">
<title>Node429540</title>
<g id="a_node14"><a xlink:href="quickjs_8c.html#a93dbf502b17d1328c524401335f60499" target="_top" xlink:title="js_create_from_ctor">
<polygon fill="none" stroke="#ff0000" points="498.5,-456.5 498.5,-475.5 601.5,-475.5 601.5,-456.5 498.5,-456.5"/>
<text text-anchor="middle" x="550" y="-463.5" font-family="Helvetica,sans-Serif" font-size="10.00" fill="#000000">js_create_from_ctor</text>
</a>
</g>
</g>
<!-- Node429172&#45;&gt;Node429540 -->
<g id="edge15" class="edge">
<title>Node429172&#45;&gt;Node429540</title>
<path fill="none" stroke="#191970" d="M428.1318,-494.411C449.7383,-489.3739 476.409,-483.1562 499.2858,-477.8229"/>
<polygon fill="#191970" stroke="#191970" points="500.2198,-481.1991 509.164,-475.5201 498.6305,-474.3819 500.2198,-481.1991"/>
</g>
<!-- Node429173&#45;&gt;Node429172 -->
<g id="edge4" class="edge">
<title>Node429173&#45;&gt;Node429172</title>
<path fill="none" stroke="#191970" d="M508.1029,-509.9849C494.7792,-510.5436 479.5899,-510.7963 464.5784,-510.743"/>
<polygon fill="#191970" stroke="#191970" points="464.2681,-507.2405 454.2394,-510.6573 464.21,-514.2402 464.2681,-507.2405"/>
</g>
<!-- Node429173&#45;&gt;Node429173 -->
<g id="edge5" class="edge">
<title>Node429173&#45;&gt;Node429173</title>
<path fill="none" stroke="#191970" d="M525.0311,-513.7571C512.8841,-522.5653 521.207,-532 550,-532 569.3453,-532 579.4501,-527.741 580.3144,-522.2746"/>
<polygon fill="#191970" stroke="#191970" points="583.2492,-520.3667 574.9689,-513.7571 577.3201,-524.0877 583.2492,-520.3667"/>
</g>
<!-- Node429205 -->
<g id="node5" class="node">
<title>Node429205</title>
<g id="a_node5"><a xlink:href="quickjs_8h.html#a775522f2d084fc8fa0fcb33f390006b4" target="_top" xlink:title="JS_DupValue">
<polygon fill="none" stroke="#000000" points="687.5,-380.5 687.5,-399.5 764.5,-399.5 764.5,-380.5 687.5,-380.5"/>
<text text-anchor="middle" x="726" y="-387.5" font-family="Helvetica,sans-Serif" font-size="10.00" fill="#000000">JS_DupValue</text>
</a>
</g>
</g>
<!-- Node429173&#45;&gt;Node429205 -->
<g id="edge6" class="edge">
<title>Node429173&#45;&gt;Node429205</title>
<path fill="none" stroke="#191970" d="M591.7342,-495.7281C598.3471,-493.0847 604.7314,-489.5981 610,-485 638.1595,-460.424 616.9566,-432.5248 646,-409 655.0086,-401.7032 666.3524,-397.1238 677.6432,-394.2721"/>
<polygon fill="#191970" stroke="#191970" points="678.4342,-397.6823 687.4918,-392.186 676.9835,-390.8343 678.4342,-397.6823"/>
</g>
<!-- Node429173&#45;&gt;Node429226 -->
<g id="edge7" class="edge">
<title>Node429173&#45;&gt;Node429226</title>
<path fill="none" stroke="#191970" d="M591.571,-497.3019C598.5243,-494.5038 605.0691,-490.558 610,-485 667.0386,-420.708 586.6378,-357.153 646,-295 654.1597,-286.4567 665.4041,-281.4515 676.8862,-278.5896"/>
<polygon fill="#191970" stroke="#191970" points="677.8377,-281.9691 686.9662,-276.5912 676.4764,-275.1028 677.8377,-281.9691"/>
</g>
<!-- Node429173&#45;&gt;Node429237 -->
<g id="edge8" class="edge">
<title>Node429173&#45;&gt;Node429237</title>
<path fill="none" stroke="#191970" d="M591.7095,-513.0055C615.9391,-518.2369 646.7139,-524.8814 672.6884,-530.4895"/>
<polygon fill="#191970" stroke="#191970" points="672.2384,-533.973 682.7519,-532.6623 673.7158,-527.1306 672.2384,-533.973"/>
</g>
<!-- Node429173&#45;&gt;Node429244 -->
<g id="edge9" class="edge">
<title>Node429173&#45;&gt;Node429244</title>
<path fill="none" stroke="#191970" d="M565.7338,-513.6964C590.7531,-529.0612 637.6449,-557.6192 646,-561 654.5518,-564.4604 663.8841,-567.3844 673.0578,-569.8225"/>
<polygon fill="#191970" stroke="#191970" points="672.3557,-573.2546 682.9056,-572.2797 674.0504,-566.4628 672.3557,-573.2546"/>
</g>
<!-- Node429295 -->
<g id="node9" class="node">
<title>Node429295</title>
<g id="a_node9"><a xlink:href="quickjs_8h.html#a149f24b67e745bad93573b3b4c80db4c" target="_top" xlink:title="JS_IsNull">
<polygon fill="none" stroke="#000000" points="696.5,-456.5 696.5,-475.5 755.5,-475.5 755.5,-456.5 696.5,-456.5"/>
<text text-anchor="middle" x="726" y="-463.5" font-family="Helvetica,sans-Serif" font-size="10.00" fill="#000000">JS_IsNull</text>
</a>
</g>
</g>
<!-- Node429173&#45;&gt;Node429295 -->
<g id="edge10" class="edge">
<title>Node429173&#45;&gt;Node429295</title>
<path fill="none" stroke="#191970" d="M591.7095,-494.9945C620.4086,-488.7981 658.2903,-480.6191 686.5012,-474.5282"/>
<polygon fill="#191970" stroke="#191970" points="687.3861,-477.9178 696.4222,-472.3861 685.9087,-471.0755 687.3861,-477.9178"/>
</g>
<!-- Node429173&#45;&gt;Node429457 -->
<g id="edge11" class="edge">
<title>Node429173&#45;&gt;Node429457</title>
<path fill="none" stroke="#191970" d="M589.9925,-494.4631C596.9399,-491.9449 603.8883,-488.8279 610,-485 629.7165,-472.6512 625.8431,-458.6161 646,-447 656.4272,-440.991 668.6625,-436.8792 680.3844,-434.0667"/>
<polygon fill="#191970" stroke="#191970" points="681.4427,-437.4199 690.4949,-431.9145 679.9853,-430.5733 681.4427,-437.4199"/>
</g>
<!-- Node429296 -->
<g id="node11" class="node">
<title>Node429296</title>
<g id="a_node11"><a xlink:href="quickjs_8h.html#a4e407128a9605afb77523e49e9a627fd" target="_top" xlink:title="JS_IsUndefined">
<polygon fill="none" stroke="#000000" points="683,-494.5 683,-513.5 769,-513.5 769,-494.5 683,-494.5"/>
<text text-anchor="middle" x="726" y="-501.5" font-family="Helvetica,sans-Serif" font-size="10.00" fill="#000000">JS_IsUndefined</text>
</a>
</g>
</g>
<!-- Node429173&#45;&gt;Node429296 -->
<g id="edge12" class="edge">
<title>Node429173&#45;&gt;Node429296</title>
<path fill="none" stroke="#191970" d="M591.7095,-504C615.9391,-504 646.7139,-504 672.6884,-504"/>
<polygon fill="#191970" stroke="#191970" points="672.7519,-507.5001 682.7519,-504 672.7518,-500.5001 672.7519,-507.5001"/>
</g>
<!-- Node429173&#45;&gt;Node429588 -->
<g id="edge13" class="edge">
<title>Node429173&#45;&gt;Node429588</title>
<path fill="none" stroke="#191970" d="M570.5425,-513.6048C582.966,-520.1132 598.5606,-529.5939 610,-541 631.4846,-562.4221 624.2874,-577.809 646,-599 659.8427,-612.5101 678.3004,-623.6868 693.9982,-631.7467"/>
<polygon fill="#191970" stroke="#191970" points="692.8326,-635.0742 703.3497,-636.3554 695.9271,-628.7953 692.8326,-635.0742"/>
</g>
<!-- Node429173&#45;&gt;Node429416 -->
<g id="edge14" class="edge">
<title>Node429173&#45;&gt;Node429416</title>
<path fill="none" stroke="#191970" d="M591.6767,-496.9955C598.5352,-494.2229 605.0188,-490.3648 610,-485 657.2379,-434.1244 596.9248,-382.1058 646,-333 647.438,-331.5611 648.9637,-330.2236 650.563,-328.9805"/>
<polygon fill="#191970" stroke="#191970" points="652.5648,-331.855 659.1068,-323.5212 648.7956,-325.9564 652.5648,-331.855"/>
</g>
<!-- Node429540&#45;&gt;Node429205 -->
<g id="edge16" class="edge">
<title>Node429540&#45;&gt;Node429205</title>
<path fill="none" stroke="#191970" d="M563.3069,-456.3131C581.2411,-443.6876 614.5562,-421.7233 646,-409 655.9278,-404.9829 666.9075,-401.6884 677.4699,-399.0382"/>
<polygon fill="#191970" stroke="#191970" points="678.4909,-402.3935 687.4208,-396.692 676.8845,-395.5803 678.4909,-402.3935"/>
</g>
<!-- Node429540&#45;&gt;Node429226 -->
<g id="edge17" class="edge">
<title>Node429540&#45;&gt;Node429226</title>
<path fill="none" stroke="#191970" d="M563.8455,-456.1897C577.4267,-445.8876 597.8189,-428.496 610,-409 638.154,-363.9393 607.0888,-331.1805 646,-295 654.49,-287.1058 665.6443,-282.3081 676.918,-279.4367"/>
<polygon fill="#191970" stroke="#191970" points="677.7159,-282.8457 686.792,-277.3798 676.2883,-275.9928 677.7159,-282.8457"/>
</g>
<!-- Node429540&#45;&gt;Node429237 -->
<g id="edge18" class="edge">
<title>Node429540&#45;&gt;Node429237</title>
<path fill="none" stroke="#191970" d="M589.9925,-475.5369C596.9399,-478.0551 603.8883,-481.1721 610,-485 629.7165,-497.3488 625.8431,-511.3839 646,-523 654.2617,-527.7611 663.6586,-531.3312 673.0358,-534.0076"/>
<polygon fill="#191970" stroke="#191970" points="672.1975,-537.4058 682.7523,-536.4857 673.9275,-530.6229 672.1975,-537.4058"/>
</g>
<!-- Node429540&#45;&gt;Node429244 -->
<g id="edge19" class="edge">
<title>Node429540&#45;&gt;Node429244</title>
<path fill="none" stroke="#191970" d="M594.8139,-475.5738C600.3149,-478.032 605.5546,-481.1203 610,-485 638.1595,-509.576 616.9566,-537.4752 646,-561 653.8204,-567.3345 663.4007,-571.621 673.1785,-574.5071"/>
<polygon fill="#191970" stroke="#191970" points="672.4141,-577.9237 682.9642,-576.9504 674.1099,-571.1322 672.4141,-577.9237"/>
</g>
<!-- Node429540&#45;&gt;Node429457 -->
<g id="edge20" class="edge">
<title>Node429540&#45;&gt;Node429457</title>
<path fill="none" stroke="#191970" d="M594.4122,-456.411C620.779,-450.7182 654.1303,-443.5173 680.6588,-437.7896"/>
<polygon fill="#191970" stroke="#191970" points="681.4271,-441.2044 690.4632,-435.6727 679.9498,-434.3621 681.4271,-441.2044"/>
</g>
<!-- Node429540&#45;&gt;Node429296 -->
<g id="edge21" class="edge">
<title>Node429540&#45;&gt;Node429296</title>
<path fill="none" stroke="#191970" d="M594.4122,-475.589C618.2197,-480.7293 647.7215,-487.099 672.7534,-492.5036"/>
<polygon fill="#191970" stroke="#191970" points="672.3054,-495.9874 682.8188,-494.6768 673.7827,-489.1451 672.3054,-495.9874"/>
</g>
<!-- Node429602&#45;&gt;Node429205 -->
<g id="edge34" class="edge">
<title>Node429602&#45;&gt;Node429205</title>
<path fill="none" stroke="#191970" d="M610.077,-390C631.9705,-390 656.4366,-390 677.2289,-390"/>
<polygon fill="#191970" stroke="#191970" points="677.4228,-393.5001 687.4228,-390 677.4228,-386.5001 677.4228,-393.5001"/>
</g>
<!-- Node429602&#45;&gt;Node429226 -->
<g id="edge35" class="edge">
<title>Node429602&#45;&gt;Node429226</title>
<path fill="none" stroke="#191970" d="M559.3026,-380.2129C581.327,-357.127 635.5953,-300.7746 646,-295 655.4588,-289.7504 666.3279,-285.9438 676.9434,-283.186"/>
<polygon fill="#191970" stroke="#191970" points="678.0416,-286.5241 686.9892,-280.8503 676.4564,-279.7059 678.0416,-286.5241"/>
</g>
<!-- Node429602&#45;&gt;Node429237 -->
<g id="edge36" class="edge">
<title>Node429602&#45;&gt;Node429237</title>
<path fill="none" stroke="#191970" d="M562.8065,-399.7861C575.9481,-410.3293 596.3492,-428.1474 610,-447 631.92,-477.273 616.9566,-499.4752 646,-523 653.8204,-529.3345 663.4007,-533.621 673.1785,-536.5071"/>
<polygon fill="#191970" stroke="#191970" points="672.4141,-539.9237 682.9642,-538.9504 674.1099,-533.1322 672.4141,-539.9237"/>
</g>
<!-- Node429602&#45;&gt;Node429244 -->
<g id="edge38" class="edge">
<title>Node429602&#45;&gt;Node429244</title>
<path fill="none" stroke="#191970" d="M563.8455,-399.8103C577.4267,-410.1124 597.8189,-427.504 610,-447 638.154,-492.0607 607.0888,-524.8195 646,-561 653.4487,-567.9259 662.9481,-572.4684 672.7797,-575.4176"/>
<polygon fill="#191970" stroke="#191970" points="672.1102,-578.8575 682.6585,-577.865 673.7936,-572.0629 672.1102,-578.8575"/>
</g>
<!-- Node429602&#45;&gt;Node429295 -->
<g id="edge39" class="edge">
<title>Node429602&#45;&gt;Node429295</title>
<path fill="none" stroke="#191970" d="M563.3069,-399.6869C581.2411,-412.3124 614.5562,-434.2767 646,-447 658.7388,-452.1546 673.2094,-456.1192 686.308,-459.0599"/>
<polygon fill="#191970" stroke="#191970" points="685.9523,-462.5618 696.4595,-461.202 687.3976,-455.7127 685.9523,-462.5618"/>
</g>
<!-- Node429602&#45;&gt;Node429457 -->
<g id="edge40" class="edge">
<title>Node429602&#45;&gt;Node429457</title>
<path fill="none" stroke="#191970" d="M594.4122,-399.589C620.779,-405.2818 654.1303,-412.4827 680.6588,-418.2104"/>
<polygon fill="#191970" stroke="#191970" points="679.9498,-421.6379 690.4632,-420.3273 681.4271,-414.7956 679.9498,-421.6379"/>
</g>
<!-- Node429602&#45;&gt;Node429296 -->
<g id="edge41" class="edge">
<title>Node429602&#45;&gt;Node429296</title>
<path fill="none" stroke="#191970" d="M560.3489,-399.5208C572.434,-410.7097 592.9437,-429.9201 610,-447 626.4391,-463.4618 625.8431,-473.3839 646,-485 654.2617,-489.7611 663.6586,-493.3312 673.0358,-496.0076"/>
<polygon fill="#191970" stroke="#191970" points="672.1975,-499.4058 682.7523,-498.4857 673.9275,-492.6229 672.1975,-499.4058"/>
</g>
<!-- Node429602&#45;&gt;Node429416 -->
<g id="edge42" class="edge">
<title>Node429602&#45;&gt;Node429416</title>
<path fill="none" stroke="#191970" d="M563.3069,-380.3131C581.2411,-367.6876 614.5562,-345.7233 646,-333 652.2236,-330.4817 658.8606,-328.2474 665.549,-326.2778"/>
<polygon fill="#191970" stroke="#191970" points="666.632,-329.6099 675.343,-323.5792 664.7725,-322.8614 666.632,-329.6099"/>
</g>
<!-- Node429580 -->
<g id="node20" class="node">
<title>Node429580</title>
<g id="a_node20"><a xlink:href="quickjs_8c.html#afa39b15865cb50fc2383e76e33b2de1a" target="_top" xlink:title="JS_IsConstructor">
<polygon fill="none" stroke="#000000" points="679.5,-342.5 679.5,-361.5 772.5,-361.5 772.5,-342.5 679.5,-342.5"/>
<text text-anchor="middle" x="726" y="-349.5" font-family="Helvetica,sans-Serif" font-size="10.00" fill="#000000">JS_IsConstructor</text>
</a>
</g>
</g>
<!-- Node429602&#45;&gt;Node429580 -->
<g id="edge37" class="edge">
<title>Node429602&#45;&gt;Node429580</title>
<path fill="none" stroke="#191970" d="M594.4122,-380.411C617.9512,-375.3287 647.0567,-369.0446 671.9048,-363.6797"/>
<polygon fill="#191970" stroke="#191970" points="672.8711,-367.0518 681.9071,-361.5201 671.3937,-360.2094 672.8711,-367.0518"/>
</g>
<!-- Node429603&#45;&gt;Node429226 -->
<g id="edge45" class="edge">
<title>Node429603&#45;&gt;Node429226</title>
<path fill="none" stroke="#191970" d="M271.4356,-171.5235C362.3959,-192.4297 579.2024,-242.2602 676.8456,-264.7024"/>
<polygon fill="#191970" stroke="#191970" points="676.2236,-268.1506 686.7535,-266.9796 677.7917,-261.3285 676.2236,-268.1506"/>
</g>
<!-- Node429604 -->
<g id="node22" class="node">
<title>Node429604</title>
<g id="a_node22"><a xlink:href="quickjs_8c.html#a537e88d38784e3df2a19c72f8bd1d77e" target="_top" xlink:title="JS_ToInt64Clamp">
<polygon fill="none" stroke="#000000" points="339.5,-342.5 339.5,-361.5 434.5,-361.5 434.5,-342.5 339.5,-342.5"/>
<text text-anchor="middle" x="387" y="-349.5" font-family="Helvetica,sans-Serif" font-size="10.00" fill="#000000">JS_ToInt64Clamp</text>
</a>
</g>
</g>
<!-- Node429603&#45;&gt;Node429604 -->
<g id="edge46" class="edge">
<title>Node429603&#45;&gt;Node429604</title>
<path fill="none" stroke="#191970" d="M268.081,-171.6138C273.7729,-174.0888 279.2994,-177.1716 284,-181 335.3846,-222.8503 367.4729,-297.5869 380.4225,-332.7315"/>
<polygon fill="#191970" stroke="#191970" points="377.1737,-334.0418 383.827,-342.2871 383.7677,-331.6924 377.1737,-334.0418"/>
</g>
<!-- Node429604&#45;&gt;Node429205 -->
<g id="edge47" class="edge">
<title>Node429604&#45;&gt;Node429205</title>
<path fill="none" stroke="#191970" d="M434.5282,-354.98C479.7516,-358.0682 549.6555,-363.4987 610,-371 632.2765,-373.7692 656.8264,-377.6666 677.583,-381.2114"/>
<polygon fill="#191970" stroke="#191970" points="676.991,-384.6609 687.4413,-382.9167 678.1843,-377.7633 676.991,-384.6609"/>
</g>
<!-- Node429605 -->
<g id="node23" class="node">
<title>Node429605</title>
<g id="a_node23"><a xlink:href="quickjs_8c.html#a8c94da482e7e46bf333be67ff97e58c1" target="_top" xlink:title="JS_ToInt64SatFree">
<polygon fill="none" stroke="#ff0000" points="499.5,-550.5 499.5,-569.5 600.5,-569.5 600.5,-550.5 499.5,-550.5"/>
<text text-anchor="middle" x="550" y="-557.5" font-family="Helvetica,sans-Serif" font-size="10.00" fill="#000000">JS_ToInt64SatFree</text>
</a>
</g>
</g>
<!-- Node429604&#45;&gt;Node429605 -->
<g id="edge48" class="edge">
<title>Node429604&#45;&gt;Node429605</title>
<path fill="none" stroke="#191970" d="M391.7193,-361.6354C409.7646,-398.3337 474.1749,-527.959 490,-541 492.0659,-542.7024 494.2859,-544.2531 496.6116,-545.6653"/>
<polygon fill="#191970" stroke="#191970" points="495.505,-549.0298 506.0035,-550.455 498.6852,-542.7939 495.505,-549.0298"/>
</g>
<!-- Node429605&#45;&gt;Node429244 -->
<g id="edge49" class="edge">
<title>Node429605&#45;&gt;Node429244</title>
<path fill="none" stroke="#191970" d="M600.9065,-565.7848C623.4445,-568.346 649.9558,-571.3586 672.7577,-573.9497"/>
<polygon fill="#191970" stroke="#191970" points="672.6143,-577.4559 682.9456,-575.1074 673.4047,-570.5006 672.6143,-577.4559"/>
</g>
<!-- Node429434&#45;&gt;Node429226 -->
<g id="edge52" class="edge">
<title>Node429434&#45;&gt;Node429226</title>
<path fill="none" stroke="#191970" d="M275.2126,-84.0487C363.2312,-81.0209 553.885,-78.4658 610,-110 669.1413,-143.2348 705.0297,-220.6743 719.1196,-256.8016"/>
<polygon fill="#191970" stroke="#191970" points="715.8615,-258.0814 722.6563,-266.2104 722.4139,-255.6183 715.8615,-258.0814"/>
</g>
<!-- Node429434&#45;&gt;Node429265 -->
<g id="edge53" class="edge">
<title>Node429434&#45;&gt;Node429265</title>
<path fill="none" stroke="#191970" d="M269.6177,-76.411C291.5367,-71.1058 318.8666,-64.4909 341.6391,-58.9791"/>
<polygon fill="#191970" stroke="#191970" points="342.5212,-62.3667 351.4172,-56.6124 340.8744,-55.5632 342.5212,-62.3667"/>
</g>
</g>
</svg>
        <g id="navigator" transform="translate(0 0)" fill="#404254">
                <rect fill="#f2f5e9" fill-opacity="0.5" stroke="#606060" stroke-width=".5" x="0" y="0" width="60" height="60"/>
                <use id="zoomplus" xlink:href="#zoomPlus" x="17" y="9" onmousedown="handleZoom(evt,'in')"/>
                <use id="zoomminus" xlink:href="#zoomMin" x="42" y="9" onmousedown="handleZoom(evt,'out')"/>
                <use id="reset" xlink:href="#resetDef" x="30" y="36" onmousedown="handleReset()"/>
                <g id="arrowUp" xlink:href="#dirArrow" transform="translate(30 24)" onmousedown="handlePan(0,-1)">
                  <use xlink:href="#rim" fill="#404040">
                        <set attributeName="fill" to="#808080" begin="arrowUp.mouseover" end="arrowUp.mouseout"/>
                  </use>
                  <path fill="none" stroke="white" stroke-width="1.5" d="M0,-3.0v7 M-2.5,-0.5L0,-3.0L2.5,-0.5"/>
                </g>
                <g id="arrowRight" xlink:href="#dirArrow" transform="rotate(90) translate(36 -43)" onmousedown="handlePan(1,0)">
                  <use xlink:href="#rim" fill="#404040">
                        <set attributeName="fill" to="#808080" begin="arrowRight.mouseover" end="arrowRight.mouseout"/>
                  </use>
                  <path fill="none" stroke="white" stroke-width="1.5" d="M0,-3.0v7 M-2.5,-0.5L0,-3.0L2.5,-0.5"/>
                </g>
                <g id="arrowDown" xlink:href="#dirArrow" transform="rotate(180) translate(-30 -48)" onmousedown="handlePan(0,1)">
                  <use xlink:href="#rim" fill="#404040">
                        <set attributeName="fill" to="#808080" begin="arrowDown.mouseover" end="arrowDown.mouseout"/>
                  </use>
                  <path fill="none" stroke="white" stroke-width="1.5" d="M0,-3.0v7 M-2.5,-0.5L0,-3.0L2.5,-0.5"/>
                </g>
                <g id="arrowLeft" xlink:href="#dirArrow" transform="rotate(270) translate(-36 17)" onmousedown="handlePan(-1,0)">
                  <use xlink:href="#rim" fill="#404040">
                        <set attributeName="fill" to="#808080" begin="arrowLeft.mouseover" end="arrowLeft.mouseout"/>
                  </use>
                  <path fill="none" stroke="white" stroke-width="1.5" d="M0,-3.0v7 M-2.5,-0.5L0,-3.0L2.5,-0.5"/>
                </g>
        </g>
        <svg viewBox="0 0 15 15" width="100%" height="30px" preserveAspectRatio="xMaxYMin meet">
         <g id="arrow_out" transform="scale(0.3 0.3)">
          <a xlink:href="quickjs_8c_ace9b3fda4db2506ca054f0c7aaf41880_cgraph_org.svg" target="_base">
           <rect id="button" ry="5" rx="5" y="6" x="6" height="38" width="38"
                fill="#f2f5e9" fill-opacity="0.5" stroke="#606060" stroke-width="1.0"/>
           <path id="arrow"
             d="M 11.500037,31.436501 C 11.940474,20.09759 22.043105,11.32322 32.158766,21.979434 L 37.068811,17.246167 C 37.068811,17.246167 37.088388,32 37.088388,32 L 22.160133,31.978069 C 22.160133,31.978069 26.997745,27.140456 26.997745,27.140456 C 18.528582,18.264221 13.291696,25.230495 11.500037,31.436501 z"
             style="fill:#404040;"/>
          </a>
         </g>
        </svg>
</svg>
