<?xml version="1.0" encoding="UTF-8" standalone="no"?>
<!DOCTYPE svg PUBLIC "-//W3C//DTD SVG 1.1//EN"
 "http://www.w3.org/Graphics/SVG/1.1/DTD/svg11.dtd">
<!-- Generated by graphviz version 2.40.1 (20161225.0304)
 -->
<!-- Title: JS_NewGlobalCConstructorOnly Pages: 1 -->
<svg width="617pt" height="28pt"
 viewBox="0.00 0.00 617.00 28.00" xmlns="http://www.w3.org/2000/svg" xmlns:xlink="http://www.w3.org/1999/xlink">
<g id="graph0" class="graph" transform="scale(1 1) rotate(0) translate(4 24)">
<title>JS_NewGlobalCConstructorOnly</title>
<!-- Node369849 -->
<g id="node1" class="node">
<title>Node369849</title>
<polygon fill="#bfbfbf" stroke="#000000" points="0,-.5 0,-19.5 161,-19.5 161,-.5 0,-.5"/>
<text text-anchor="middle" x="80.5" y="-7.5" font-family="Helvetica,sans-Serif" font-size="10.00" fill="#000000">JS_NewGlobalCConstructorOnly</text>
</g>
<!-- Node369850 -->
<g id="node2" class="node">
<title>Node369850</title>
<g id="a_node2"><a xlink:href="quickjs_8c.html#a177d09828596bfe6df4bd90b2e93989d" target="_top" xlink:title="JS_AddIntrinsicTypedArrays">
<polygon fill="none" stroke="#000000" points="197,-.5 197,-19.5 338,-19.5 338,-.5 197,-.5"/>
<text text-anchor="middle" x="267.5" y="-7.5" font-family="Helvetica,sans-Serif" font-size="10.00" fill="#000000">JS_AddIntrinsicTypedArrays</text>
</a>
</g>
</g>
<!-- Node369849&#45;&gt;Node369850 -->
<g id="edge1" class="edge">
<title>Node369849&#45;&gt;Node369850</title>
<path fill="none" stroke="#191970" d="M171.2195,-10C179.8144,-10 188.4407,-10 196.8075,-10"/>
<polygon fill="#191970" stroke="#191970" points="171.1617,-6.5001 161.1617,-10 171.1616,-13.5001 171.1617,-6.5001"/>
</g>
<!-- Node369851 -->
<g id="node3" class="node">
<title>Node369851</title>
<g id="a_node3"><a xlink:href="quickjs_8c.html#ad8aedb643b8753b7a15f6cb2df61945e" target="_top" xlink:title="JS_NewContext">
<polygon fill="none" stroke="#000000" points="374,-.5 374,-19.5 463,-19.5 463,-.5 374,-.5"/>
<text text-anchor="middle" x="418.5" y="-7.5" font-family="Helvetica,sans-Serif" font-size="10.00" fill="#000000">JS_NewContext</text>
</a>
</g>
</g>
<!-- Node369850&#45;&gt;Node369851 -->
<g id="edge2" class="edge">
<title>Node369850&#45;&gt;Node369851</title>
<path fill="none" stroke="#191970" d="M348.3813,-10C357.0943,-10 365.7113,-10 373.7649,-10"/>
<polygon fill="#191970" stroke="#191970" points="348.1368,-6.5001 338.1368,-10 348.1367,-13.5001 348.1368,-6.5001"/>
</g>
<!-- Node369852 -->
<g id="node4" class="node">
<title>Node369852</title>
<g id="a_node4"><a xlink:href="classqjs_1_1Context.html#a4392a23648acfc4bf6b445336efb5007" target="_top" xlink:title="qjs::Context::Context">
<polygon fill="none" stroke="#ff0000" points="499,-.5 499,-19.5 609,-19.5 609,-.5 499,-.5"/>
<text text-anchor="middle" x="554" y="-7.5" font-family="Helvetica,sans-Serif" font-size="10.00" fill="#000000">qjs::Context::Context</text>
</a>
</g>
</g>
<!-- Node369851&#45;&gt;Node369852 -->
<g id="edge3" class="edge">
<title>Node369851&#45;&gt;Node369852</title>
<path fill="none" stroke="#191970" d="M473.3476,-10C481.7739,-10 490.4767,-10 498.9083,-10"/>
<polygon fill="#191970" stroke="#191970" points="473.2433,-6.5001 463.2433,-10 473.2433,-13.5001 473.2433,-6.5001"/>
</g>
</g>
</svg>
