<?xml version="1.0" encoding="UTF-8" standalone="no"?>
<!DOCTYPE svg PUBLIC "-//W3C//DTD SVG 1.1//EN"
 "http://www.w3.org/Graphics/SVG/1.1/DTD/svg11.dtd">
<!-- Generated by graphviz version 2.40.1 (20161225.0304)
 -->
<!-- Title: JS_FreeAtomStruct Pages: 1 -->
<!--zoomable 838 -->
<svg id="main" version="1.1" xmlns="http://www.w3.org/2000/svg" xmlns:xlink="http://www.w3.org/1999/xlink" xml:space="preserve" onload="init(evt)">
<style type="text/css"><![CDATA[
.edge:hover path { stroke: red; }
.edge:hover polygon { stroke: red; fill: red; }
]]></style>
<script type="text/javascript"><![CDATA[
var edges = document.getElementsByTagName('g');
if (edges && edges.length) {
  for (var i=0;i<edges.length;i++) {
    if (edges[i].id.substr(0,4)=='edge') {
      edges[i].setAttribute('class','edge');
    }
  }
}
]]></script>
        <defs>
                <circle id="rim" cx="0" cy="0" r="7"/>
                <circle id="rim2" cx="0" cy="0" r="3.5"/>
                <g id="zoomPlus">
                        <use xlink:href="#rim" fill="#404040">
                                <set attributeName="fill" to="#808080" begin="zoomplus.mouseover" end="zoomplus.mouseout"/>
                        </use>
                        <path d="M-4,0h8M0,-4v8" fill="none" stroke="white" stroke-width="1.5" pointer-events="none"/>
                </g>
                <g id="zoomMin">
                        <use xlink:href="#rim" fill="#404040">
                                <set attributeName="fill" to="#808080" begin="zoomminus.mouseover" end="zoomminus.mouseout"/>
                        </use>
                        <path d="M-4,0h8" fill="none" stroke="white" stroke-width="1.5" pointer-events="none"/>
                </g>
                <g id="dirArrow">
                        <path fill="none" stroke="white" stroke-width="1.5" d="M0,-3.0v7 M-2.5,-0.5L0,-3.0L2.5,-0.5"/>
                </g>
               <g id="resetDef">
                       <use xlink:href="#rim2" fill="#404040">
                               <set attributeName="fill" to="#808080" begin="reset.mouseover" end="reset.mouseout"/>
                       </use>
               </g>
        </defs>

<script type="text/javascript">
var viewWidth = 766;
var viewHeight = 838;
var sectionId = 'dynsection-6';
</script>
<script xlink:href="svgpan.js"/>
<svg id="graph" class="graph">
<g id="viewport">
<title>JS_FreeAtomStruct</title>
<!-- Node68 -->
<g id="node1" class="node">
<title>Node68</title>
<polygon fill="#bfbfbf" stroke="#000000" points="0,-238.5 0,-257.5 103,-257.5 103,-238.5 0,-238.5"/>
<text text-anchor="middle" x="51.5" y="-245.5" font-family="Helvetica,sans-Serif" font-size="10.00" fill="#000000">JS_FreeAtomStruct</text>
</g>
<!-- Node69 -->
<g id="node2" class="node">
<title>Node69</title>
<g id="a_node2"><a xlink:href="quickjs_8c.html#a0bbd9e3ecd55e3ea6c9d44bfda382095" target="_top" xlink:title="__JS_FreeAtom">
<polygon fill="none" stroke="#000000" points="146.5,-399.5 146.5,-418.5 233.5,-418.5 233.5,-399.5 146.5,-399.5"/>
<text text-anchor="middle" x="190" y="-406.5" font-family="Helvetica,sans-Serif" font-size="10.00" fill="#000000">__JS_FreeAtom</text>
</a>
</g>
</g>
<!-- Node68&#45;&gt;Node69 -->
<g id="edge1" class="edge">
<title>Node68&#45;&gt;Node69</title>
<path fill="none" stroke="#191970" d="M66.3416,-265.2527C95.3683,-298.9949 158.8063,-372.7388 181.6191,-399.2576"/>
<polygon fill="#191970" stroke="#191970" points="68.9239,-262.8875 59.749,-257.5891 63.6172,-267.4526 68.9239,-262.8875"/>
</g>
<!-- Node709 -->
<g id="node26" class="node">
<title>Node709</title>
<g id="a_node26"><a xlink:href="quickjs_8c.html#ab1ea3fad7d138be12144a38be4d36423" target="_top" xlink:title="__JS_FreeValueRT">
<polygon fill="none" stroke="#ff0000" points="139,-238.5 139,-257.5 241,-257.5 241,-238.5 139,-238.5"/>
<text text-anchor="middle" x="190" y="-245.5" font-family="Helvetica,sans-Serif" font-size="10.00" fill="#000000">__JS_FreeValueRT</text>
</a>
</g>
</g>
<!-- Node68&#45;&gt;Node709 -->
<g id="edge31" class="edge">
<title>Node68&#45;&gt;Node709</title>
<path fill="none" stroke="#191970" d="M113.0744,-248C121.685,-248 130.456,-248 138.8458,-248"/>
<polygon fill="#191970" stroke="#191970" points="113.0723,-244.5001 103.0723,-248 113.0723,-251.5001 113.0723,-244.5001"/>
</g>
<!-- Node837 -->
<g id="node27" class="node">
<title>Node837</title>
<g id="a_node27"><a xlink:href="quickjs_8c.html#aa506aaf9df272c0e9e541bbf0138b483" target="_top" xlink:title="js_free_string">
<polygon fill="none" stroke="#000000" points="152.5,-57.5 152.5,-76.5 227.5,-76.5 227.5,-57.5 152.5,-57.5"/>
<text text-anchor="middle" x="190" y="-64.5" font-family="Helvetica,sans-Serif" font-size="10.00" fill="#000000">js_free_string</text>
</a>
</g>
</g>
<!-- Node68&#45;&gt;Node837 -->
<g id="edge32" class="edge">
<title>Node68&#45;&gt;Node837</title>
<path fill="none" stroke="#191970" d="M65.1078,-230.2165C93.9072,-192.5797 160.205,-105.9378 182.5168,-76.7795"/>
<polygon fill="#191970" stroke="#191970" points="62.2437,-228.2 58.9464,-238.2687 67.8029,-232.4539 62.2437,-228.2"/>
</g>
<!-- Node70 -->
<g id="node3" class="node">
<title>Node70</title>
<g id="a_node3"><a xlink:href="quickjs_8c.html#ab7fc45a99935a1c0ba50b0216d9401a9" target="_top" xlink:title="JS_FreeAtom">
<polygon fill="none" stroke="#ff0000" points="283.5,-399.5 283.5,-418.5 360.5,-418.5 360.5,-399.5 283.5,-399.5"/>
<text text-anchor="middle" x="322" y="-406.5" font-family="Helvetica,sans-Serif" font-size="10.00" fill="#000000">JS_FreeAtom</text>
</a>
</g>
</g>
<!-- Node69&#45;&gt;Node70 -->
<g id="edge2" class="edge">
<title>Node69&#45;&gt;Node70</title>
<path fill="none" stroke="#191970" d="M243.5918,-409C256.9015,-409 270.9096,-409 283.3445,-409"/>
<polygon fill="#191970" stroke="#191970" points="243.5876,-405.5001 233.5876,-409 243.5875,-412.5001 243.5876,-405.5001"/>
</g>
<!-- Node832 -->
<g id="node25" class="node">
<title>Node832</title>
<g id="a_node25"><a xlink:href="quickjs_8c.html#a5a0aca30abbb4d4ae86746541bf4cbc7" target="_top" xlink:title="JS_FreeAtomRT">
<polygon fill="none" stroke="#ff0000" points="277,-437.5 277,-456.5 367,-456.5 367,-437.5 277,-437.5"/>
<text text-anchor="middle" x="322" y="-444.5" font-family="Helvetica,sans-Serif" font-size="10.00" fill="#000000">JS_FreeAtomRT</text>
</a>
</g>
</g>
<!-- Node69&#45;&gt;Node832 -->
<g id="edge30" class="edge">
<title>Node69&#45;&gt;Node832</title>
<path fill="none" stroke="#191970" d="M233.0409,-421.3906C251.1177,-426.5945 271.8195,-432.5541 288.7015,-437.4141"/>
<polygon fill="#191970" stroke="#191970" points="233.8872,-417.9921 223.3092,-418.589 231.9506,-424.7189 233.8872,-417.9921"/>
</g>
<!-- Node71 -->
<g id="node4" class="node">
<title>Node71</title>
<g id="a_node4"><a xlink:href="classqjs_1_1Value.html#ac6bbb5f2ab1ed265b2b508325807e2fb" target="_top" xlink:title="qjs::Value::add_getter\l_setter">
<polygon fill="none" stroke="#000000" points="421.5,-761 421.5,-791 533.5,-791 533.5,-761 421.5,-761"/>
<text text-anchor="start" x="429.5" y="-779" font-family="Helvetica,sans-Serif" font-size="10.00" fill="#000000">qjs::Value::add_getter</text>
<text text-anchor="middle" x="477.5" y="-768" font-family="Helvetica,sans-Serif" font-size="10.00" fill="#000000">_setter</text>
</a>
</g>
</g>
<!-- Node70&#45;&gt;Node71 -->
<g id="edge3" class="edge">
<title>Node70&#45;&gt;Node71</title>
<path fill="none" stroke="#191970" d="M364.3992,-424.9648C365.3302,-425.919 366.2011,-426.9296 367,-428 453.3935,-543.76 312.285,-638.5946 403,-751 407.8838,-757.0515 414.2862,-761.6477 421.2888,-765.1364"/>
<polygon fill="#191970" stroke="#191970" points="366.3366,-422.039 356.2812,-418.7014 362.0605,-427.5811 366.3366,-422.039"/>
</g>
<!-- Node72 -->
<g id="node5" class="node">
<title>Node72</title>
<g id="a_node5"><a xlink:href="classqjs_1_1Value.html#a7816587475ecf667433f9ea681df925b" target="_top" xlink:title="qjs::Value::add_getter">
<polygon fill="none" stroke="#000000" points="421.5,-722.5 421.5,-741.5 533.5,-741.5 533.5,-722.5 421.5,-722.5"/>
<text text-anchor="middle" x="477.5" y="-729.5" font-family="Helvetica,sans-Serif" font-size="10.00" fill="#000000">qjs::Value::add_getter</text>
</a>
</g>
</g>
<!-- Node70&#45;&gt;Node72 -->
<g id="edge4" class="edge">
<title>Node70&#45;&gt;Node72</title>
<path fill="none" stroke="#191970" d="M364.3754,-424.9827C365.3133,-425.9317 366.1921,-426.9364 367,-428 442.8896,-527.9159 322.7955,-611.5135 403,-708 408.2118,-714.2698 415.073,-718.9191 422.5241,-722.3629"/>
<polygon fill="#191970" stroke="#191970" points="366.2916,-422.0419 356.2226,-418.7455 362.0382,-427.6015 366.2916,-422.0419"/>
</g>
<!-- Node73 -->
<g id="node6" class="node">
<title>Node73</title>
<g id="a_node6"><a xlink:href="quickjs-libc_8c.html#a5cc3e22713f1916d49867f60a7375505" target="_top" xlink:title="js_module_set_import_meta">
<polygon fill="none" stroke="#ff0000" points="603.5,-747.5 603.5,-766.5 742.5,-766.5 742.5,-747.5 603.5,-747.5"/>
<text text-anchor="middle" x="673" y="-754.5" font-family="Helvetica,sans-Serif" font-size="10.00" fill="#000000">js_module_set_import_meta</text>
</a>
</g>
</g>
<!-- Node70&#45;&gt;Node73 -->
<g id="edge5" class="edge">
<title>Node70&#45;&gt;Node73</title>
<path fill="none" stroke="#191970" d="M363.9205,-424.5777C365.0276,-425.6447 366.06,-426.7839 367,-428 434.8428,-515.7754 328.779,-592.5476 403,-675 448.723,-725.7939 486.6952,-692.8532 552,-713 585.9614,-723.4773 624.413,-737.9131 648.6763,-747.3486"/>
<polygon fill="#191970" stroke="#191970" points="365.8452,-421.6483 355.719,-418.5321 361.6917,-427.2829 365.8452,-421.6483"/>
</g>
<!-- Node81 -->
<g id="node7" class="node">
<title>Node81</title>
<g id="a_node7"><a xlink:href="quickjs-libc_8c.html#afc77720d4d1c0b90749ce275a4a16f74" target="_top" xlink:title="build_envp">
<polygon fill="none" stroke="#ff0000" points="446,-646.5 446,-665.5 509,-665.5 509,-646.5 446,-646.5"/>
<text text-anchor="middle" x="477.5" y="-653.5" font-family="Helvetica,sans-Serif" font-size="10.00" fill="#000000">build_envp</text>
</a>
</g>
</g>
<!-- Node70&#45;&gt;Node81 -->
<g id="edge6" class="edge">
<title>Node70&#45;&gt;Node81</title>
<path fill="none" stroke="#191970" d="M363.88,-424.6094C364.9985,-425.6674 366.0444,-426.7961 367,-428 425.6007,-501.8262 339.039,-567.7661 403,-637 413.8693,-648.7653 430.9182,-653.6755 445.9652,-655.572"/>
<polygon fill="#191970" stroke="#191970" points="365.7736,-421.6587 355.6292,-418.6024 361.6535,-427.3178 365.7736,-421.6587"/>
</g>
<!-- Node77 -->
<g id="node8" class="node">
<title>Node77</title>
<g id="a_node8"><a xlink:href="quickjs-libc_8c.html#aff1e6131e8bf8b7eb25307623ad669e7" target="_top" xlink:title="js_worker_ctor">
<polygon fill="none" stroke="#ff0000" points="437.5,-608.5 437.5,-627.5 517.5,-627.5 517.5,-608.5 437.5,-608.5"/>
<text text-anchor="middle" x="477.5" y="-615.5" font-family="Helvetica,sans-Serif" font-size="10.00" fill="#000000">js_worker_ctor</text>
</a>
</g>
</g>
<!-- Node70&#45;&gt;Node77 -->
<g id="edge7" class="edge">
<title>Node70&#45;&gt;Node77</title>
<path fill="none" stroke="#191970" d="M363.8228,-424.6556C364.9575,-425.7006 366.0223,-426.814 367,-428 416.4006,-487.9298 349.2532,-542.935 403,-599 411.9601,-608.3465 424.826,-613.338 437.3516,-615.9328"/>
<polygon fill="#191970" stroke="#191970" points="365.6724,-421.6754 355.5025,-418.7049 361.6002,-427.3691 365.6724,-421.6754"/>
</g>
<!-- Node83 -->
<g id="node9" class="node">
<title>Node83</title>
<g id="a_node9"><a xlink:href="quickjs_8c.html#a27c3a725d4014a35b5bedcdf6e70dec7" target="_top" xlink:title="JS_NewAtomString">
<polygon fill="none" stroke="#ff0000" points="426,-570.5 426,-589.5 529,-589.5 529,-570.5 426,-570.5"/>
<text text-anchor="middle" x="477.5" y="-577.5" font-family="Helvetica,sans-Serif" font-size="10.00" fill="#000000">JS_NewAtomString</text>
</a>
</g>
</g>
<!-- Node70&#45;&gt;Node83 -->
<g id="edge8" class="edge">
<title>Node70&#45;&gt;Node83</title>
<path fill="none" stroke="#191970" d="M363.2532,-424.3087C364.5924,-425.454 365.8496,-426.6825 367,-428 407.2787,-474.1275 359.3824,-518.016 403,-561 409.2748,-567.1837 417.266,-571.4417 425.6714,-574.3561"/>
<polygon fill="#191970" stroke="#191970" points="365.0991,-421.3316 354.8576,-418.6182 361.1717,-427.1261 365.0991,-421.3316"/>
</g>
<!-- Node89 -->
<g id="node10" class="node">
<title>Node89</title>
<g id="a_node10"><a xlink:href="quickjs_8c.html#a21cfe4c4fc9372dc0b95b37667cff0c9" target="_top" xlink:title="JS_NewCFunction3">
<polygon fill="none" stroke="#ff0000" points="425.5,-532.5 425.5,-551.5 529.5,-551.5 529.5,-532.5 425.5,-532.5"/>
<text text-anchor="middle" x="477.5" y="-539.5" font-family="Helvetica,sans-Serif" font-size="10.00" fill="#000000">JS_NewCFunction3</text>
</a>
</g>
</g>
<!-- Node70&#45;&gt;Node89 -->
<g id="edge9" class="edge">
<title>Node70&#45;&gt;Node89</title>
<path fill="none" stroke="#191970" d="M362.5616,-424.0371C364.1414,-425.2613 365.632,-426.5801 367,-428 398.3266,-460.5171 369.3279,-492.9184 403,-523 409.3707,-528.6914 417.2123,-532.7246 425.3912,-535.573"/>
<polygon fill="#191970" stroke="#191970" points="364.3984,-421.0576 354.0754,-418.673 360.6582,-426.9746 364.3984,-421.0576"/>
</g>
<!-- Node103 -->
<g id="node11" class="node">
<title>Node103</title>
<g id="a_node11"><a xlink:href="quickjs_8c.html#a6a21784a40b8684f2e779bd460dd13b2" target="_top" xlink:title="JS_AddBrand">
<polygon fill="none" stroke="#ff0000" points="439,-494.5 439,-513.5 516,-513.5 516,-494.5 439,-494.5"/>
<text text-anchor="middle" x="477.5" y="-501.5" font-family="Helvetica,sans-Serif" font-size="10.00" fill="#000000">JS_AddBrand</text>
</a>
</g>
</g>
<!-- Node70&#45;&gt;Node103 -->
<g id="edge10" class="edge">
<title>Node70&#45;&gt;Node103</title>
<path fill="none" stroke="#191970" d="M361.2759,-423.7659C363.2886,-425.0749 365.2135,-426.4845 367,-428 389.8493,-447.3827 378.7643,-467.3815 403,-485 413.3647,-492.5348 426.4325,-497.0904 438.7185,-499.8416"/>
<polygon fill="#191970" stroke="#191970" points="362.4905,-420.4377 352.0467,-418.655 359.0993,-426.5615 362.4905,-420.4377"/>
</g>
<!-- Node682 -->
<g id="node12" class="node">
<title>Node682</title>
<g id="a_node12"><a xlink:href="quickjs_8c.html#a6b42cd922447e1eb6bfc52761895a174" target="_top" xlink:title="js_free_prop_enum">
<polygon fill="none" stroke="#ff0000" points="428,-456.5 428,-475.5 527,-475.5 527,-456.5 428,-456.5"/>
<text text-anchor="middle" x="477.5" y="-463.5" font-family="Helvetica,sans-Serif" font-size="10.00" fill="#000000">js_free_prop_enum</text>
</a>
</g>
</g>
<!-- Node70&#45;&gt;Node682 -->
<g id="edge11" class="edge">
<title>Node70&#45;&gt;Node682</title>
<path fill="none" stroke="#191970" d="M354.585,-422.5653C372.8107,-430.0951 393.6873,-438.6084 403,-442 417.045,-447.1151 432.7751,-452.2656 446.1491,-456.4766"/>
<polygon fill="#191970" stroke="#191970" points="355.6758,-419.2289 345.0975,-418.6362 352.9974,-425.6962 355.6758,-419.2289"/>
</g>
<!-- Node199 -->
<g id="node13" class="node">
<title>Node199</title>
<g id="a_node13"><a xlink:href="quickjs_8c.html#a176ac5ff56a118a0b1b2566798d28823" target="_top" xlink:title="JS_GetOwnPropertyNamesInternal">
<polygon fill="none" stroke="#ff0000" points="588,-427.5 588,-446.5 758,-446.5 758,-427.5 588,-427.5"/>
<text text-anchor="middle" x="673" y="-434.5" font-family="Helvetica,sans-Serif" font-size="10.00" fill="#000000">JS_GetOwnPropertyNamesInternal</text>
</a>
</g>
</g>
<!-- Node70&#45;&gt;Node199 -->
<g id="edge13" class="edge">
<title>Node70&#45;&gt;Node199</title>
<path fill="none" stroke="#191970" d="M370.5755,-412.875C426.5614,-417.3411 519.5978,-424.7628 587.7221,-430.1972"/>
<polygon fill="#191970" stroke="#191970" points="370.8139,-409.383 360.5672,-412.0766 370.2572,-416.3608 370.8139,-409.383"/>
</g>
<!-- Node195 -->
<g id="node14" class="node">
<title>Node195</title>
<g id="a_node14"><a xlink:href="quickjs_8c.html#a90d6e607f6917d817c1e997bd2e6ed07" target="_top" xlink:title="JS_GetPropertyValue">
<polygon fill="none" stroke="#ff0000" points="422,-342.5 422,-361.5 533,-361.5 533,-342.5 422,-342.5"/>
<text text-anchor="middle" x="477.5" y="-349.5" font-family="Helvetica,sans-Serif" font-size="10.00" fill="#000000">JS_GetPropertyValue</text>
</a>
</g>
</g>
<!-- Node70&#45;&gt;Node195 -->
<g id="edge14" class="edge">
<title>Node70&#45;&gt;Node195</title>
<path fill="none" stroke="#191970" d="M353.4588,-395.5405C368.3717,-389.3259 386.4971,-382.0103 403,-376 417.045,-370.8849 432.7751,-365.7344 446.1491,-361.5234"/>
<polygon fill="#191970" stroke="#191970" points="352.0368,-392.3415 344.1721,-399.4406 354.7473,-398.7955 352.0368,-392.3415"/>
</g>
<!-- Node220 -->
<g id="node15" class="node">
<title>Node220</title>
<g id="a_node15"><a xlink:href="quickjs_8c.html#a14674e74168715dc5a3a391910982e5d" target="_top" xlink:title="JS_TryGetPropertyInt64">
<polygon fill="none" stroke="#ff0000" points="612,-370.5 612,-389.5 734,-389.5 734,-370.5 612,-370.5"/>
<text text-anchor="middle" x="673" y="-377.5" font-family="Helvetica,sans-Serif" font-size="10.00" fill="#000000">JS_TryGetPropertyInt64</text>
</a>
</g>
</g>
<!-- Node70&#45;&gt;Node220 -->
<g id="edge17" class="edge">
<title>Node70&#45;&gt;Node220</title>
<path fill="none" stroke="#191970" d="M370.6252,-404.9825C433.5411,-399.7844 543.1878,-390.7252 611.7307,-385.0621"/>
<polygon fill="#191970" stroke="#191970" points="370.245,-401.5019 360.5672,-405.8135 370.8215,-408.4782 370.245,-401.5019"/>
</g>
<!-- Node267 -->
<g id="node16" class="node">
<title>Node267</title>
<g id="a_node16"><a xlink:href="quickjs_8c.html#a7bb763b31e1c40a04aa0c1d5db0f1191" target="_top" xlink:title="JS_GetPropertyInt64">
<polygon fill="none" stroke="#ff0000" points="619,-318.5 619,-337.5 727,-337.5 727,-318.5 619,-318.5"/>
<text text-anchor="middle" x="673" y="-325.5" font-family="Helvetica,sans-Serif" font-size="10.00" fill="#000000">JS_GetPropertyInt64</text>
</a>
</g>
</g>
<!-- Node70&#45;&gt;Node267 -->
<g id="edge18" class="edge">
<title>Node70&#45;&gt;Node267</title>
<path fill="none" stroke="#191970" d="M334.4768,-391.2696C348.6572,-372.7966 373.6775,-344.9176 403,-333 474.8813,-303.7851 566.6667,-310.2545 622.5786,-318.4796"/>
<polygon fill="#191970" stroke="#191970" points="331.544,-389.3491 328.4149,-399.4714 337.1734,-393.5098 331.544,-389.3491"/>
</g>
<!-- Node274 -->
<g id="node17" class="node">
<title>Node274</title>
<g id="a_node17"><a xlink:href="quickjs_8c.html#a04f589361a4fbc30d997402e92a50de2" target="_top" xlink:title="JS_GetPropertyStr">
<polygon fill="none" stroke="#ff0000" points="428,-266.5 428,-285.5 527,-285.5 527,-266.5 428,-266.5"/>
<text text-anchor="middle" x="477.5" y="-273.5" font-family="Helvetica,sans-Serif" font-size="10.00" fill="#000000">JS_GetPropertyStr</text>
</a>
</g>
</g>
<!-- Node70&#45;&gt;Node274 -->
<g id="edge19" class="edge">
<title>Node70&#45;&gt;Node274</title>
<path fill="none" stroke="#191970" d="M331.1441,-390.3449C343.9529,-366.0949 369.4792,-324.016 403,-300 411.7265,-293.7479 422.1617,-289.069 432.4201,-285.5877"/>
<polygon fill="#191970" stroke="#191970" points="328.0225,-388.762 326.5864,-399.259 334.2551,-391.9487 328.0225,-388.762"/>
</g>
<!-- Node683 -->
<g id="node18" class="node">
<title>Node683</title>
<g id="a_node18"><a xlink:href="quickjs_8c.html#a2b9a2014cb970af5b5b7dde00afbdffa" target="_top" xlink:title="delete_property">
<polygon fill="none" stroke="#ff0000" points="436,-228.5 436,-247.5 519,-247.5 519,-228.5 436,-228.5"/>
<text text-anchor="middle" x="477.5" y="-235.5" font-family="Helvetica,sans-Serif" font-size="10.00" fill="#000000">delete_property</text>
</a>
</g>
</g>
<!-- Node70&#45;&gt;Node683 -->
<g id="edge20" class="edge">
<title>Node70&#45;&gt;Node683</title>
<path fill="none" stroke="#191970" d="M326.9011,-389.327C336.0788,-356.6852 359.0237,-291.5156 403,-257 412.3451,-249.6653 424.1969,-245.1341 435.6829,-242.3436"/>
<polygon fill="#191970" stroke="#191970" points="323.4065,-388.849 324.217,-399.4127 330.1711,-390.6492 323.4065,-388.849"/>
</g>
<!-- Node333 -->
<g id="node19" class="node">
<title>Node333</title>
<g id="a_node19"><a xlink:href="quickjs_8c.html#ad55fe6f65ecb58e327ac9e9b4ab475f5" target="_top" xlink:title="set_array_length">
<polygon fill="none" stroke="#ff0000" points="628.5,-199.5 628.5,-218.5 717.5,-218.5 717.5,-199.5 628.5,-199.5"/>
<text text-anchor="middle" x="673" y="-206.5" font-family="Helvetica,sans-Serif" font-size="10.00" fill="#000000">set_array_length</text>
</a>
</g>
</g>
<!-- Node70&#45;&gt;Node333 -->
<g id="edge22" class="edge">
<title>Node70&#45;&gt;Node333</title>
<path fill="none" stroke="#191970" d="M323.7119,-389.2077C328.3559,-349.1376 345.0586,-258.8457 403,-219 474.3093,-169.9613 583.0744,-186.4132 638.2674,-199.4284"/>
<polygon fill="#191970" stroke="#191970" points="320.2152,-388.9978 322.6792,-399.3021 327.1789,-389.7103 320.2152,-388.9978"/>
</g>
<!-- Node308 -->
<g id="node20" class="node">
<title>Node308</title>
<g id="a_node20"><a xlink:href="quickjs_8c.html#aee75cc1546e19479e3ccda58f3b50a96" target="_top" xlink:title="JS_SetPropertyValue">
<polygon fill="none" stroke="#ff0000" points="422.5,-152.5 422.5,-171.5 532.5,-171.5 532.5,-152.5 422.5,-152.5"/>
<text text-anchor="middle" x="477.5" y="-159.5" font-family="Helvetica,sans-Serif" font-size="10.00" fill="#000000">JS_SetPropertyValue</text>
</a>
</g>
</g>
<!-- Node70&#45;&gt;Node308 -->
<g id="edge23" class="edge">
<title>Node70&#45;&gt;Node308</title>
<path fill="none" stroke="#191970" d="M323.4686,-389.3467C327.7418,-346.2891 343.925,-242.9423 403,-186 409.555,-179.6817 417.7819,-175.0266 426.3565,-171.5971"/>
<polygon fill="#191970" stroke="#191970" points="319.9768,-389.1008 322.5862,-399.3693 326.9498,-389.7148 319.9768,-389.1008"/>
</g>
<!-- Node295 -->
<g id="node21" class="node">
<title>Node295</title>
<g id="a_node21"><a xlink:href="quickjs_8c.html#a51b06daa618640e531fe808770553b96" target="_top" xlink:title="JS_SetPropertyInt64">
<polygon fill="none" stroke="#ff0000" points="619.5,-142.5 619.5,-161.5 726.5,-161.5 726.5,-142.5 619.5,-142.5"/>
<text text-anchor="middle" x="673" y="-149.5" font-family="Helvetica,sans-Serif" font-size="10.00" fill="#000000">JS_SetPropertyInt64</text>
</a>
</g>
</g>
<!-- Node70&#45;&gt;Node295 -->
<g id="edge25" class="edge">
<title>Node70&#45;&gt;Node295</title>
<path fill="none" stroke="#191970" d="M324.957,-389.268C333.8489,-332.8842 362.2651,-173.1774 403,-143 477.807,-87.5811 598.937,-123.5159 649.5769,-142.4543"/>
<polygon fill="#191970" stroke="#191970" points="321.4636,-388.9577 323.3996,-399.3741 328.382,-390.0239 321.4636,-388.9577"/>
</g>
<!-- Node436 -->
<g id="node22" class="node">
<title>Node436</title>
<g id="a_node22"><a xlink:href="quickjs_8c.html#a62617fe11025d2e5a545db069fc28e64" target="_top" xlink:title="JS_SetPropertyStr">
<polygon fill="none" stroke="#ff0000" points="428.5,-76.5 428.5,-95.5 526.5,-95.5 526.5,-76.5 428.5,-76.5"/>
<text text-anchor="middle" x="477.5" y="-83.5" font-family="Helvetica,sans-Serif" font-size="10.00" fill="#000000">JS_SetPropertyStr</text>
</a>
</g>
</g>
<!-- Node70&#45;&gt;Node436 -->
<g id="edge26" class="edge">
<title>Node70&#45;&gt;Node436</title>
<path fill="none" stroke="#191970" d="M324.8282,-389.4612C333.8356,-329.7622 363.5911,-151.31 403,-110 409.8472,-102.8225 418.8472,-97.7869 428.2155,-94.2552"/>
<polygon fill="#191970" stroke="#191970" points="321.3509,-389.0507 323.3482,-399.4556 328.2754,-390.0762 321.3509,-389.0507"/>
</g>
<!-- Node364 -->
<g id="node23" class="node">
<title>Node364</title>
<g id="a_node23"><a xlink:href="quickjs_8c.html#a0c61bd5a64c743e81188bb528b78e715" target="_top" xlink:title="JS_DefinePropertyValueValue">
<polygon fill="none" stroke="#ff0000" points="403,-38.5 403,-57.5 552,-57.5 552,-38.5 403,-38.5"/>
<text text-anchor="middle" x="477.5" y="-45.5" font-family="Helvetica,sans-Serif" font-size="10.00" fill="#000000">JS_DefinePropertyValueValue</text>
</a>
</g>
</g>
<!-- Node70&#45;&gt;Node364 -->
<g id="edge27" class="edge">
<title>Node70&#45;&gt;Node364</title>
<path fill="none" stroke="#191970" d="M324.0206,-389.1715C331.1182,-323.3765 356.9992,-113.7967 403,-67 406.7429,-63.1924 411.1349,-60.1107 415.882,-57.6212"/>
<polygon fill="#191970" stroke="#191970" points="320.5099,-389.0902 322.945,-399.4014 327.4716,-389.8222 320.5099,-389.0902"/>
</g>
<!-- Node388 -->
<g id="node24" class="node">
<title>Node388</title>
<g id="a_node24"><a xlink:href="quickjs_8c.html#a841f4cb887e4d9e03e94a0697255e578" target="_top" xlink:title="JS_DefinePropertyValueStr">
<polygon fill="none" stroke="#ff0000" points="409,-810.5 409,-829.5 546,-829.5 546,-810.5 409,-810.5"/>
<text text-anchor="middle" x="477.5" y="-817.5" font-family="Helvetica,sans-Serif" font-size="10.00" fill="#000000">JS_DefinePropertyValueStr</text>
</a>
</g>
</g>
<!-- Node70&#45;&gt;Node388 -->
<g id="edge28" class="edge">
<title>Node70&#45;&gt;Node388</title>
<path fill="none" stroke="#191970" d="M364.4202,-424.9493C365.3451,-425.9079 366.2091,-426.9237 367,-428 416.3124,-495.1033 348.8044,-737.775 403,-801 406.2142,-804.7497 410.0556,-807.8124 414.2756,-810.3084"/>
<polygon fill="#191970" stroke="#191970" points="366.3762,-422.0368 356.3328,-418.6632 362.0803,-427.5636 366.3762,-422.0368"/>
</g>
<!-- Node682&#45;&gt;Node199 -->
<g id="edge12" class="edge">
<title>Node682&#45;&gt;Node199</title>
<path fill="none" stroke="#191970" d="M537.226,-457.1404C559.8358,-453.7865 585.6609,-449.9557 608.6755,-446.5417"/>
<polygon fill="#191970" stroke="#191970" points="536.4638,-453.7151 527.0856,-458.6446 537.491,-460.6393 536.4638,-453.7151"/>
</g>
<!-- Node195&#45;&gt;Node220 -->
<g id="edge15" class="edge">
<title>Node195&#45;&gt;Node220</title>
<path fill="none" stroke="#191970" d="M543.2297,-361.414C565.3442,-364.5813 589.9168,-368.1006 611.6784,-371.2174"/>
<polygon fill="#191970" stroke="#191970" points="543.6561,-357.9394 533.2608,-359.9862 542.6636,-364.8687 543.6561,-357.9394"/>
</g>
<!-- Node195&#45;&gt;Node267 -->
<g id="edge16" class="edge">
<title>Node195&#45;&gt;Node267</title>
<path fill="none" stroke="#191970" d="M543.2297,-343.9309C567.8121,-340.9131 595.4318,-337.5224 618.8516,-334.6474"/>
<polygon fill="#191970" stroke="#191970" points="542.7598,-340.4622 533.2608,-345.1547 543.6128,-347.41 542.7598,-340.4622"/>
</g>
<!-- Node683&#45;&gt;Node333 -->
<g id="edge21" class="edge">
<title>Node683&#45;&gt;Node333</title>
<path fill="none" stroke="#191970" d="M529.5653,-230.2768C560.3788,-225.706 599.0063,-219.976 628.4106,-215.6143"/>
<polygon fill="#191970" stroke="#191970" points="528.8178,-226.8493 519.4397,-231.7788 529.845,-233.7735 528.8178,-226.8493"/>
</g>
<!-- Node308&#45;&gt;Node295 -->
<g id="edge24" class="edge">
<title>Node308&#45;&gt;Node295</title>
<path fill="none" stroke="#191970" d="M542.8017,-158.6598C567.6296,-157.3898 595.6076,-155.9587 619.2474,-154.7495"/>
<polygon fill="#191970" stroke="#191970" points="542.5467,-155.1681 532.7385,-159.1745 542.9043,-162.159 542.5467,-155.1681"/>
</g>
<!-- Node388&#45;&gt;Node73 -->
<g id="edge29" class="edge">
<title>Node388&#45;&gt;Node73</title>
<path fill="none" stroke="#191970" d="M527.7267,-807.9153C535.8787,-805.7463 544.2016,-803.4058 552,-801 585.9614,-790.5227 624.413,-776.0869 648.6763,-766.6514"/>
<polygon fill="#191970" stroke="#191970" points="526.7106,-804.5631 517.9145,-810.4689 528.4737,-811.3374 526.7106,-804.5631"/>
</g>
<!-- Node838 -->
<g id="node28" class="node">
<title>Node838</title>
<g id="a_node28"><a xlink:href="quickjs_8c.html#acd08798ec15cc37c60d2e7d70007c6a8" target="_top" xlink:title="__JS_NewAtom">
<polygon fill="none" stroke="#ff0000" points="278,-.5 278,-19.5 366,-19.5 366,-.5 278,-.5"/>
<text text-anchor="middle" x="322" y="-7.5" font-family="Helvetica,sans-Serif" font-size="10.00" fill="#000000">__JS_NewAtom</text>
</a>
</g>
</g>
<!-- Node837&#45;&gt;Node838 -->
<g id="edge33" class="edge">
<title>Node837&#45;&gt;Node838</title>
<path fill="none" stroke="#191970" d="M221.0115,-53.3446C237.6004,-46.0678 258.3901,-36.9926 277,-29 284.1687,-25.9212 291.9967,-22.6014 299.0842,-19.6115"/>
<polygon fill="#191970" stroke="#191970" points="219.5266,-50.174 211.7778,-57.3995 222.3412,-56.5832 219.5266,-50.174"/>
</g>
<!-- Node841 -->
<g id="node29" class="node">
<title>Node841</title>
<g id="a_node29"><a xlink:href="quickjs_8c.html#a33fd643aff7f70e649d246385cd99b00" target="_top" xlink:title="JS_NewAtomStr">
<polygon fill="none" stroke="#ff0000" points="432.5,-.5 432.5,-19.5 522.5,-19.5 522.5,-.5 432.5,-.5"/>
<text text-anchor="middle" x="477.5" y="-7.5" font-family="Helvetica,sans-Serif" font-size="10.00" fill="#000000">JS_NewAtomStr</text>
</a>
</g>
</g>
<!-- Node837&#45;&gt;Node841 -->
<g id="edge35" class="edge">
<title>Node837&#45;&gt;Node841</title>
<path fill="none" stroke="#191970" d="M237.6313,-76.8928C274.4823,-82.2567 325.9737,-84.6467 367,-67 388.3713,-57.8075 382.9398,-40.7823 403,-29 411.8624,-23.7947 422.1335,-20.0018 432.164,-17.2426"/>
<polygon fill="#191970" stroke="#191970" points="238.0702,-73.4188 227.6465,-75.3152 236.9777,-80.333 238.0702,-73.4188"/>
</g>
<!-- Node857 -->
<g id="node30" class="node">
<title>Node857</title>
<g id="a_node30"><a xlink:href="quickjs_8c.html#a73a002c998fe7508eae9aa069fac802b" target="_top" xlink:title="JS_ReadString">
<polygon fill="none" stroke="#ff0000" points="280.5,-38.5 280.5,-57.5 363.5,-57.5 363.5,-38.5 280.5,-38.5"/>
<text text-anchor="middle" x="322" y="-45.5" font-family="Helvetica,sans-Serif" font-size="10.00" fill="#000000">JS_ReadString</text>
</a>
</g>
</g>
<!-- Node837&#45;&gt;Node857 -->
<g id="edge36" class="edge">
<title>Node837&#45;&gt;Node857</title>
<path fill="none" stroke="#191970" d="M237.7571,-60.1259C251.7385,-58.1134 266.9052,-55.9303 280.4665,-53.9783"/>
<polygon fill="#191970" stroke="#191970" points="237.2252,-56.6663 227.8259,-61.5554 238.2226,-63.5949 237.2252,-56.6663"/>
</g>
<!-- Node838&#45;&gt;Node841 -->
<g id="edge34" class="edge">
<title>Node838&#45;&gt;Node841</title>
<path fill="none" stroke="#191970" d="M376.3818,-10C394.6967,-10 414.9187,-10 432.4349,-10"/>
<polygon fill="#191970" stroke="#191970" points="376.1442,-6.5001 366.1441,-10 376.1441,-13.5001 376.1442,-6.5001"/>
</g>
</g>
</svg>
        <g id="navigator" transform="translate(0 0)" fill="#404254">
                <rect fill="#f2f5e9" fill-opacity="0.5" stroke="#606060" stroke-width=".5" x="0" y="0" width="60" height="60"/>
                <use id="zoomplus" xlink:href="#zoomPlus" x="17" y="9" onmousedown="handleZoom(evt,'in')"/>
                <use id="zoomminus" xlink:href="#zoomMin" x="42" y="9" onmousedown="handleZoom(evt,'out')"/>
                <use id="reset" xlink:href="#resetDef" x="30" y="36" onmousedown="handleReset()"/>
                <g id="arrowUp" xlink:href="#dirArrow" transform="translate(30 24)" onmousedown="handlePan(0,-1)">
                  <use xlink:href="#rim" fill="#404040">
                        <set attributeName="fill" to="#808080" begin="arrowUp.mouseover" end="arrowUp.mouseout"/>
                  </use>
                  <path fill="none" stroke="white" stroke-width="1.5" d="M0,-3.0v7 M-2.5,-0.5L0,-3.0L2.5,-0.5"/>
                </g>
                <g id="arrowRight" xlink:href="#dirArrow" transform="rotate(90) translate(36 -43)" onmousedown="handlePan(1,0)">
                  <use xlink:href="#rim" fill="#404040">
                        <set attributeName="fill" to="#808080" begin="arrowRight.mouseover" end="arrowRight.mouseout"/>
                  </use>
                  <path fill="none" stroke="white" stroke-width="1.5" d="M0,-3.0v7 M-2.5,-0.5L0,-3.0L2.5,-0.5"/>
                </g>
                <g id="arrowDown" xlink:href="#dirArrow" transform="rotate(180) translate(-30 -48)" onmousedown="handlePan(0,1)">
                  <use xlink:href="#rim" fill="#404040">
                        <set attributeName="fill" to="#808080" begin="arrowDown.mouseover" end="arrowDown.mouseout"/>
                  </use>
                  <path fill="none" stroke="white" stroke-width="1.5" d="M0,-3.0v7 M-2.5,-0.5L0,-3.0L2.5,-0.5"/>
                </g>
                <g id="arrowLeft" xlink:href="#dirArrow" transform="rotate(270) translate(-36 17)" onmousedown="handlePan(-1,0)">
                  <use xlink:href="#rim" fill="#404040">
                        <set attributeName="fill" to="#808080" begin="arrowLeft.mouseover" end="arrowLeft.mouseout"/>
                  </use>
                  <path fill="none" stroke="white" stroke-width="1.5" d="M0,-3.0v7 M-2.5,-0.5L0,-3.0L2.5,-0.5"/>
                </g>
        </g>
        <svg viewBox="0 0 15 15" width="100%" height="30px" preserveAspectRatio="xMaxYMin meet">
         <g id="arrow_out" transform="scale(0.3 0.3)">
          <a xlink:href="quickjs_8c_a58c8965dad50b15b75918a09f3d9dc7c_icgraph_org.svg" target="_base">
           <rect id="button" ry="5" rx="5" y="6" x="6" height="38" width="38"
                fill="#f2f5e9" fill-opacity="0.5" stroke="#606060" stroke-width="1.0"/>
           <path id="arrow"
             d="M 11.500037,31.436501 C 11.940474,20.09759 22.043105,11.32322 32.158766,21.979434 L 37.068811,17.246167 C 37.068811,17.246167 37.088388,32 37.088388,32 L 22.160133,31.978069 C 22.160133,31.978069 26.997745,27.140456 26.997745,27.140456 C 18.528582,18.264221 13.291696,25.230495 11.500037,31.436501 z"
             style="fill:#404040;"/>
          </a>
         </g>
        </svg>
</svg>
