<?xml version="1.0" encoding="UTF-8" standalone="no"?>
<!DOCTYPE svg PUBLIC "-//W3C//DTD SVG 1.1//EN"
 "http://www.w3.org/Graphics/SVG/1.1/DTD/svg11.dtd">
<!-- Generated by graphviz version 2.40.1 (20161225.0304)
 -->
<!-- Title: JS_SetModuleLoaderFunc Pages: 1 -->
<svg width="455pt" height="66pt"
 viewBox="0.00 0.00 455.00 66.00" xmlns="http://www.w3.org/2000/svg" xmlns:xlink="http://www.w3.org/1999/xlink">
<g id="graph0" class="graph" transform="scale(1 1) rotate(0) translate(4 62)">
<title>JS_SetModuleLoaderFunc</title>
<!-- Node328781 -->
<g id="node1" class="node">
<title>Node328781</title>
<polygon fill="#bfbfbf" stroke="#000000" points="0,-19.5 0,-38.5 131,-38.5 131,-19.5 0,-19.5"/>
<text text-anchor="middle" x="65.5" y="-26.5" font-family="Helvetica,sans-Serif" font-size="10.00" fill="#000000">JS_SetModuleLoaderFunc</text>
</g>
<!-- Node328782 -->
<g id="node2" class="node">
<title>Node328782</title>
<g id="a_node2"><a xlink:href="qjs_8cpp.html#a3c04138a5bfe5d72780bb7e82a18e627" target="_top" xlink:title="main">
<polygon fill="none" stroke="#000000" points="183,-38.5 183,-57.5 221,-57.5 221,-38.5 183,-38.5"/>
<text text-anchor="middle" x="202" y="-45.5" font-family="Helvetica,sans-Serif" font-size="10.00" fill="#000000">main</text>
</a>
</g>
</g>
<!-- Node328781&#45;&gt;Node328782 -->
<g id="edge1" class="edge">
<title>Node328781&#45;&gt;Node328782</title>
<path fill="none" stroke="#191970" d="M141.4845,-39.5766C156.8398,-41.714 171.666,-43.7777 182.8,-45.3275"/>
<polygon fill="#191970" stroke="#191970" points="141.7381,-36.0782 131.351,-38.1661 140.773,-43.0114 141.7381,-36.0782"/>
</g>
<!-- Node328783 -->
<g id="node3" class="node">
<title>Node328783</title>
<g id="a_node3"><a xlink:href="quickjs-libc_8c.html#a1fbb3adc15e7b967479fc1940e99b67a" target="_top" xlink:title="worker_func">
<polygon fill="none" stroke="#000000" points="167,-.5 167,-19.5 237,-19.5 237,-.5 167,-.5"/>
<text text-anchor="middle" x="202" y="-7.5" font-family="Helvetica,sans-Serif" font-size="10.00" fill="#000000">worker_func</text>
</a>
</g>
</g>
<!-- Node328781&#45;&gt;Node328783 -->
<g id="edge2" class="edge">
<title>Node328781&#45;&gt;Node328783</title>
<path fill="none" stroke="#191970" d="M141.4082,-18.434C150.279,-17.1993 158.9751,-15.9888 166.8867,-14.8876"/>
<polygon fill="#191970" stroke="#191970" points="140.773,-14.9886 131.351,-19.8339 141.7381,-21.9218 140.773,-14.9886"/>
</g>
<!-- Node328784 -->
<g id="node4" class="node">
<title>Node328784</title>
<g id="a_node4"><a xlink:href="quickjs-libc_8c.html#aff1e6131e8bf8b7eb25307623ad669e7" target="_top" xlink:title="js_worker_ctor">
<polygon fill="none" stroke="#000000" points="273,-.5 273,-19.5 353,-19.5 353,-.5 273,-.5"/>
<text text-anchor="middle" x="313" y="-7.5" font-family="Helvetica,sans-Serif" font-size="10.00" fill="#000000">js_worker_ctor</text>
</a>
</g>
</g>
<!-- Node328783&#45;&gt;Node328784 -->
<g id="edge3" class="edge">
<title>Node328783&#45;&gt;Node328784</title>
<path fill="none" stroke="#191970" d="M247.1986,-10C255.6394,-10 264.4096,-10 272.691,-10"/>
<polygon fill="#191970" stroke="#191970" points="247.1211,-6.5001 237.1211,-10 247.1211,-13.5001 247.1211,-6.5001"/>
</g>
<!-- Node328785 -->
<g id="node5" class="node">
<title>Node328785</title>
<g id="a_node5"><a xlink:href="quickjs-libc_8c.html#a066e7962ce24f22d5df20968a8baa346" target="_top" xlink:title="js_os_init">
<polygon fill="none" stroke="#ff0000" points="389,-.5 389,-19.5 447,-19.5 447,-.5 389,-.5"/>
<text text-anchor="middle" x="418" y="-7.5" font-family="Helvetica,sans-Serif" font-size="10.00" fill="#000000">js_os_init</text>
</a>
</g>
</g>
<!-- Node328784&#45;&gt;Node328785 -->
<g id="edge4" class="edge">
<title>Node328784&#45;&gt;Node328785</title>
<path fill="none" stroke="#191970" d="M363.3994,-10C372.0852,-10 380.8478,-10 388.7342,-10"/>
<polygon fill="#191970" stroke="#191970" points="363.2955,-6.5001 353.2954,-10 363.2954,-13.5001 363.2955,-6.5001"/>
</g>
</g>
</svg>
