<?xml version="1.0" encoding="UTF-8" standalone="no"?>
<!DOCTYPE svg PUBLIC "-//W3C//DTD SVG 1.1//EN"
 "http://www.w3.org/Graphics/SVG/1.1/DTD/svg11.dtd">
<!-- Generated by graphviz version 2.40.1 (20161225.0304)
 -->
<!-- Title: js_resolve_module Pages: 1 -->
<svg width="564pt" height="142pt"
 viewBox="0.00 0.00 564.00 142.00" xmlns="http://www.w3.org/2000/svg" xmlns:xlink="http://www.w3.org/1999/xlink">
<g id="graph0" class="graph" transform="scale(1 1) rotate(0) translate(4 138)">
<title>js_resolve_module</title>
<!-- Node338704 -->
<g id="node1" class="node">
<title>Node338704</title>
<polygon fill="#bfbfbf" stroke="#000000" points="0,-76.5 0,-95.5 98,-95.5 98,-76.5 0,-76.5"/>
<text text-anchor="middle" x="49" y="-83.5" font-family="Helvetica,sans-Serif" font-size="10.00" fill="#000000">js_resolve_module</text>
</g>
<!-- Node338704&#45;&gt;Node338704 -->
<g id="edge10" class="edge">
<title>Node338704&#45;&gt;Node338704</title>
<path fill="none" stroke="#191970" d="M26.1889,-95.7571C15.0916,-104.5653 22.6953,-114 49,-114 66.2625,-114 75.4711,-109.9368 76.6258,-104.6539"/>
<polygon fill="#191970" stroke="#191970" points="79.6488,-102.886 71.8111,-95.7571 73.4924,-106.2176 79.6488,-102.886"/>
</g>
<!-- Node338705 -->
<g id="node2" class="node">
<title>Node338705</title>
<g id="a_node2"><a xlink:href="quickjs_8c.html#a5b9215d5347fb8696212caf3f8ebfad0" target="_top" xlink:title="js_host_resolve_imported\l_module_atom">
<polygon fill="none" stroke="#000000" points="134,-71 134,-101 262,-101 262,-71 134,-71"/>
<text text-anchor="start" x="142" y="-89" font-family="Helvetica,sans-Serif" font-size="10.00" fill="#000000">js_host_resolve_imported</text>
<text text-anchor="middle" x="198" y="-78" font-family="Helvetica,sans-Serif" font-size="10.00" fill="#000000">_module_atom</text>
</a>
</g>
</g>
<!-- Node338704&#45;&gt;Node338705 -->
<g id="edge1" class="edge">
<title>Node338704&#45;&gt;Node338705</title>
<path fill="none" stroke="#191970" d="M98.2011,-86C106.4261,-86 115.1179,-86 123.8042,-86"/>
<polygon fill="#191970" stroke="#191970" points="123.9704,-89.5001 133.9704,-86 123.9703,-82.5001 123.9704,-89.5001"/>
</g>
<!-- Node338706 -->
<g id="node3" class="node">
<title>Node338706</title>
<g id="a_node3"><a xlink:href="quickjs_8c.html#a4b66ebf3abee5d29490343fbe360ec5a" target="_top" xlink:title="JS_AtomToCString">
<polygon fill="none" stroke="#000000" points="311.5,-76.5 311.5,-95.5 412.5,-95.5 412.5,-76.5 311.5,-76.5"/>
<text text-anchor="middle" x="362" y="-83.5" font-family="Helvetica,sans-Serif" font-size="10.00" fill="#000000">JS_AtomToCString</text>
</a>
</g>
</g>
<!-- Node338705&#45;&gt;Node338706 -->
<g id="edge2" class="edge">
<title>Node338705&#45;&gt;Node338706</title>
<path fill="none" stroke="#191970" d="M262.3464,-86C275.0359,-86 288.3174,-86 300.8961,-86"/>
<polygon fill="#191970" stroke="#191970" points="301.2684,-89.5001 311.2684,-86 301.2683,-82.5001 301.2684,-89.5001"/>
</g>
<!-- Node338827 -->
<g id="node8" class="node">
<title>Node338827</title>
<g id="a_node8"><a xlink:href="quickjs_8c.html#ae0bc4f65da64810facb2cb9e476eda2e" target="_top" xlink:title="JS_FreeCString">
<polygon fill="none" stroke="#000000" points="319,-114.5 319,-133.5 405,-133.5 405,-114.5 319,-114.5"/>
<text text-anchor="middle" x="362" y="-121.5" font-family="Helvetica,sans-Serif" font-size="10.00" fill="#000000">JS_FreeCString</text>
</a>
</g>
</g>
<!-- Node338705&#45;&gt;Node338827 -->
<g id="edge7" class="edge">
<title>Node338705&#45;&gt;Node338827</title>
<path fill="none" stroke="#191970" d="M262.3464,-100.9095C278.5412,-104.662 295.7004,-108.6379 311.1321,-112.2135"/>
<polygon fill="#191970" stroke="#191970" points="310.464,-115.6514 320.996,-114.4991 312.0442,-108.8321 310.464,-115.6514"/>
</g>
<!-- Node339043 -->
<g id="node9" class="node">
<title>Node339043</title>
<g id="a_node9"><a xlink:href="quickjs_8c.html#a90dd988b99a5bc7b2a4aaffd2de405a9" target="_top" xlink:title="js_host_resolve_imported\l_module">
<polygon fill="none" stroke="#ff0000" points="298,-27 298,-57 426,-57 426,-27 298,-27"/>
<text text-anchor="start" x="306" y="-45" font-family="Helvetica,sans-Serif" font-size="10.00" fill="#000000">js_host_resolve_imported</text>
<text text-anchor="middle" x="362" y="-34" font-family="Helvetica,sans-Serif" font-size="10.00" fill="#000000">_module</text>
</a>
</g>
</g>
<!-- Node338705&#45;&gt;Node339043 -->
<g id="edge9" class="edge">
<title>Node338705&#45;&gt;Node339043</title>
<path fill="none" stroke="#191970" d="M253.9808,-70.9808C267.4958,-67.3548 282.0629,-63.4466 295.9897,-59.7101"/>
<polygon fill="#191970" stroke="#191970" points="297.2418,-62.998 305.9932,-57.0262 295.4278,-56.2371 297.2418,-62.998"/>
</g>
<!-- Node338707 -->
<g id="node4" class="node">
<title>Node338707</title>
<g id="a_node4"><a xlink:href="quickjs_8c.html#a260bfa297ff6cb5bd18e229afaa54663" target="_top" xlink:title="JS_AtomToString">
<polygon fill="none" stroke="#ff0000" points="462,-76.5 462,-95.5 556,-95.5 556,-76.5 462,-76.5"/>
<text text-anchor="middle" x="509" y="-83.5" font-family="Helvetica,sans-Serif" font-size="10.00" fill="#000000">JS_AtomToString</text>
</a>
</g>
</g>
<!-- Node338706&#45;&gt;Node338707 -->
<g id="edge3" class="edge">
<title>Node338706&#45;&gt;Node338707</title>
<path fill="none" stroke="#191970" d="M412.5891,-86C425.1712,-86 438.7486,-86 451.6307,-86"/>
<polygon fill="#191970" stroke="#191970" points="451.7805,-89.5001 461.7804,-86 451.7804,-82.5001 451.7805,-89.5001"/>
</g>
<!-- Node338735 -->
<g id="node5" class="node">
<title>Node338735</title>
<g id="a_node5"><a xlink:href="quickjs_8h.html#afaa20c47565bc704c6c85f3d77254e7d" target="_top" xlink:title="JS_FreeValue">
<polygon fill="none" stroke="#ff0000" points="470,-114.5 470,-133.5 548,-133.5 548,-114.5 470,-114.5"/>
<text text-anchor="middle" x="509" y="-121.5" font-family="Helvetica,sans-Serif" font-size="10.00" fill="#000000">JS_FreeValue</text>
</a>
</g>
</g>
<!-- Node338706&#45;&gt;Node338735 -->
<g id="edge4" class="edge">
<title>Node338706&#45;&gt;Node338735</title>
<path fill="none" stroke="#191970" d="M399.0943,-95.589C418.3178,-100.5583 441.9863,-106.6767 462.4294,-111.9613"/>
<polygon fill="#191970" stroke="#191970" points="461.6147,-115.3657 472.1724,-114.4799 463.3667,-108.5885 461.6147,-115.3657"/>
</g>
<!-- Node338771 -->
<g id="node6" class="node">
<title>Node338771</title>
<g id="a_node6"><a xlink:href="quickjs_8h.html#ad80a83d73e9b7d872b88fbf2943aebe9" target="_top" xlink:title="JS_IsException">
<polygon fill="none" stroke="#000000" points="466,-38.5 466,-57.5 552,-57.5 552,-38.5 466,-38.5"/>
<text text-anchor="middle" x="509" y="-45.5" font-family="Helvetica,sans-Serif" font-size="10.00" fill="#000000">JS_IsException</text>
</a>
</g>
</g>
<!-- Node338706&#45;&gt;Node338771 -->
<g id="edge5" class="edge">
<title>Node338706&#45;&gt;Node338771</title>
<path fill="none" stroke="#191970" d="M399.0943,-76.411C418.3178,-71.4417 441.9863,-65.3233 462.4294,-60.0387"/>
<polygon fill="#191970" stroke="#191970" points="463.3667,-63.4115 472.1724,-57.5201 461.6147,-56.6343 463.3667,-63.4115"/>
</g>
<!-- Node338772 -->
<g id="node7" class="node">
<title>Node338772</title>
<g id="a_node7"><a xlink:href="quickjs_8h.html#af931f06630ab719b5f82a16eb27effd1" target="_top" xlink:title="JS_ToCString">
<polygon fill="none" stroke="#ff0000" points="470,-.5 470,-19.5 548,-19.5 548,-.5 470,-.5"/>
<text text-anchor="middle" x="509" y="-7.5" font-family="Helvetica,sans-Serif" font-size="10.00" fill="#000000">JS_ToCString</text>
</a>
</g>
</g>
<!-- Node338706&#45;&gt;Node338772 -->
<g id="edge6" class="edge">
<title>Node338706&#45;&gt;Node338772</title>
<path fill="none" stroke="#191970" d="M405.6685,-76.3989C412.7406,-73.9102 419.7768,-70.8198 426,-67 445.8274,-54.83 442.7766,-42.1033 462,-29 464.6908,-27.1659 467.5856,-25.465 470.5692,-23.8972"/>
<polygon fill="#191970" stroke="#191970" points="472.1274,-27.032 479.6713,-19.5928 469.1348,-20.7039 472.1274,-27.032"/>
</g>
<!-- Node338827&#45;&gt;Node338735 -->
<g id="edge8" class="edge">
<title>Node338827&#45;&gt;Node338735</title>
<path fill="none" stroke="#191970" d="M405.3098,-124C422.3007,-124 441.8969,-124 459.4478,-124"/>
<polygon fill="#191970" stroke="#191970" points="459.5101,-127.5001 469.51,-124 459.51,-120.5001 459.5101,-127.5001"/>
</g>
</g>
</svg>
