<?xml version="1.0" encoding="UTF-8" standalone="no"?>
<!DOCTYPE svg PUBLIC "-//W3C//DTD SVG 1.1//EN"
 "http://www.w3.org/Graphics/SVG/1.1/DTD/svg11.dtd">
<!-- Generated by graphviz version 2.40.1 (20161225.0304)
 -->
<!-- Title: js_worker_ctor Pages: 1 -->
<svg width="387pt" height="28pt"
 viewBox="0.00 0.00 387.00 28.00" xmlns="http://www.w3.org/2000/svg" xmlns:xlink="http://www.w3.org/1999/xlink">
<g id="graph0" class="graph" transform="scale(1 1) rotate(0) translate(4 24)">
<title>js_worker_ctor</title>
<!-- Node28346 -->
<g id="node1" class="node">
<title>Node28346</title>
<polygon fill="#bfbfbf" stroke="#000000" points="0,-.5 0,-19.5 80,-19.5 80,-.5 0,-.5"/>
<text text-anchor="middle" x="40" y="-7.5" font-family="Helvetica,sans-Serif" font-size="10.00" fill="#000000">js_worker_ctor</text>
</g>
<!-- Node28347 -->
<g id="node2" class="node">
<title>Node28347</title>
<g id="a_node2"><a xlink:href="quickjs-libc_8c.html#a066e7962ce24f22d5df20968a8baa346" target="_top" xlink:title="js_os_init">
<polygon fill="none" stroke="#000000" points="116,-.5 116,-19.5 174,-19.5 174,-.5 116,-.5"/>
<text text-anchor="middle" x="145" y="-7.5" font-family="Helvetica,sans-Serif" font-size="10.00" fill="#000000">js_os_init</text>
</a>
</g>
</g>
<!-- Node28346&#45;&gt;Node28347 -->
<g id="edge1" class="edge">
<title>Node28346&#45;&gt;Node28347</title>
<path fill="none" stroke="#191970" d="M90.3994,-10C99.0852,-10 107.8478,-10 115.7342,-10"/>
<polygon fill="#191970" stroke="#191970" points="90.2955,-6.5001 80.2954,-10 90.2954,-13.5001 90.2955,-6.5001"/>
</g>
<!-- Node28348 -->
<g id="node3" class="node">
<title>Node28348</title>
<g id="a_node3"><a xlink:href="quickjs-libc_8c.html#adcca2b4a661355e6ff87a0def2339894" target="_top" xlink:title="js_init_module_os">
<polygon fill="none" stroke="#000000" points="210,-.5 210,-19.5 305,-19.5 305,-.5 210,-.5"/>
<text text-anchor="middle" x="257.5" y="-7.5" font-family="Helvetica,sans-Serif" font-size="10.00" fill="#000000">js_init_module_os</text>
</a>
</g>
</g>
<!-- Node28347&#45;&gt;Node28348 -->
<g id="edge2" class="edge">
<title>Node28347&#45;&gt;Node28348</title>
<path fill="none" stroke="#191970" d="M184.2908,-10C192.4764,-10 201.1906,-10 209.6459,-10"/>
<polygon fill="#191970" stroke="#191970" points="184.2644,-6.5001 174.2644,-10 184.2643,-13.5001 184.2644,-6.5001"/>
</g>
<!-- Node28349 -->
<g id="node4" class="node">
<title>Node28349</title>
<g id="a_node4"><a xlink:href="qjs_8cpp.html#a3c04138a5bfe5d72780bb7e82a18e627" target="_top" xlink:title="main">
<polygon fill="none" stroke="#000000" points="341,-.5 341,-19.5 379,-19.5 379,-.5 341,-.5"/>
<text text-anchor="middle" x="360" y="-7.5" font-family="Helvetica,sans-Serif" font-size="10.00" fill="#000000">main</text>
</a>
</g>
</g>
<!-- Node28348&#45;&gt;Node28349 -->
<g id="edge3" class="edge">
<title>Node28348&#45;&gt;Node28349</title>
<path fill="none" stroke="#191970" d="M315.1521,-10C324.3223,-10 333.2148,-10 340.6302,-10"/>
<polygon fill="#191970" stroke="#191970" points="315.1492,-6.5001 305.1491,-10 315.1491,-13.5001 315.1492,-6.5001"/>
</g>
</g>
</svg>
