<?xml version="1.0" encoding="UTF-8" standalone="no"?>
<!DOCTYPE svg PUBLIC "-//W3C//DTD SVG 1.1//EN"
 "http://www.w3.org/Graphics/SVG/1.1/DTD/svg11.dtd">
<!-- Generated by graphviz version 2.40.1 (20161225.0304)
 -->
<!-- Title: JS_GetGlobalVar Pages: 1 -->
<svg width="793pt" height="754pt"
 viewBox="0.00 0.00 793.00 754.00" xmlns="http://www.w3.org/2000/svg" xmlns:xlink="http://www.w3.org/1999/xlink">
<g id="graph0" class="graph" transform="scale(1 1) rotate(0) translate(4 750)">
<title>JS_GetGlobalVar</title>
<!-- Node217238 -->
<g id="node1" class="node">
<title>Node217238</title>
<polygon fill="#bfbfbf" stroke="#000000" points="0,-327.5 0,-346.5 92,-346.5 92,-327.5 0,-327.5"/>
<text text-anchor="middle" x="46" y="-334.5" font-family="Helvetica,sans-Serif" font-size="10.00" fill="#000000">JS_GetGlobalVar</text>
</g>
<!-- Node217239 -->
<g id="node2" class="node">
<title>Node217239</title>
<g id="a_node2"><a xlink:href="quickjs_8c.html#a06b76f5124fd985e35f4c652fd018d6d" target="_top" xlink:title="find_own_property">
<polygon fill="none" stroke="#000000" points="325,-688.5 325,-707.5 421,-707.5 421,-688.5 325,-688.5"/>
<text text-anchor="middle" x="373" y="-695.5" font-family="Helvetica,sans-Serif" font-size="10.00" fill="#000000">find_own_property</text>
</a>
</g>
</g>
<!-- Node217238&#45;&gt;Node217239 -->
<g id="edge1" class="edge">
<title>Node217238&#45;&gt;Node217239</title>
<path fill="none" stroke="#191970" d="M48.4667,-346.7397C56.3752,-376.7181 83.2292,-469.4733 128,-534 181.7753,-611.5047 199.3298,-635.4333 283,-679 292.7601,-684.082 303.7865,-687.8048 314.6904,-690.5318"/>
<polygon fill="#191970" stroke="#191970" points="314.1057,-693.9877 324.63,-692.7668 315.6414,-687.1582 314.1057,-693.9877"/>
</g>
<!-- Node217242 -->
<g id="node5" class="node">
<title>Node217242</title>
<g id="a_node5"><a xlink:href="quickjs_8h.html#a775522f2d084fc8fa0fcb33f390006b4" target="_top" xlink:title="JS_DupValue">
<polygon fill="none" stroke="#000000" points="334.5,-650.5 334.5,-669.5 411.5,-669.5 411.5,-650.5 334.5,-650.5"/>
<text text-anchor="middle" x="373" y="-657.5" font-family="Helvetica,sans-Serif" font-size="10.00" fill="#000000">JS_DupValue</text>
</a>
</g>
</g>
<!-- Node217238&#45;&gt;Node217242 -->
<g id="edge4" class="edge">
<title>Node217238&#45;&gt;Node217242</title>
<path fill="none" stroke="#191970" d="M53.3189,-346.5766C91.5556,-396.5642 267.2152,-625.6452 283,-636 295.2949,-644.0654 310.2103,-649.4292 324.3335,-652.9929"/>
<polygon fill="#191970" stroke="#191970" points="323.902,-656.4839 334.4285,-655.2827 325.4504,-649.6573 323.902,-656.4839"/>
</g>
<!-- Node217243 -->
<g id="node6" class="node">
<title>Node217243</title>
<g id="a_node6"><a xlink:href="quickjs_8c.html#a5762c57ae0c9937e986040c01222833a" target="_top" xlink:title="JS_GetPropertyInternal">
<polygon fill="none" stroke="#000000" points="128,-327.5 128,-346.5 247,-346.5 247,-327.5 128,-327.5"/>
<text text-anchor="middle" x="187.5" y="-334.5" font-family="Helvetica,sans-Serif" font-size="10.00" fill="#000000">JS_GetPropertyInternal</text>
</a>
</g>
</g>
<!-- Node217238&#45;&gt;Node217243 -->
<g id="edge5" class="edge">
<title>Node217238&#45;&gt;Node217243</title>
<path fill="none" stroke="#191970" d="M92.3324,-337C100.5007,-337 109.164,-337 117.8063,-337"/>
<polygon fill="#191970" stroke="#191970" points="117.911,-340.5001 127.911,-337 117.9109,-333.5001 117.911,-340.5001"/>
</g>
<!-- Node217532 -->
<g id="node19" class="node">
<title>Node217532</title>
<g id="a_node19"><a xlink:href="quickjs_8h.html#aaab426b47c95d00479b7355b1cf7f56c" target="_top" xlink:title="JS_IsUninitialized">
<polygon fill="none" stroke="#000000" points="325.5,-38.5 325.5,-57.5 420.5,-57.5 420.5,-38.5 325.5,-38.5"/>
<text text-anchor="middle" x="373" y="-45.5" font-family="Helvetica,sans-Serif" font-size="10.00" fill="#000000">JS_IsUninitialized</text>
</a>
</g>
</g>
<!-- Node217238&#45;&gt;Node217532 -->
<g id="edge35" class="edge">
<title>Node217238&#45;&gt;Node217532</title>
<path fill="none" stroke="#191970" d="M51.5611,-327.498C74.5936,-289.0152 166.772,-143.3976 283,-72 292.8046,-65.9772 304.1119,-61.4483 315.3292,-58.0481"/>
<polygon fill="#191970" stroke="#191970" points="316.4172,-61.3788 325.1236,-55.3415 314.5526,-54.6316 316.4172,-61.3788"/>
</g>
<!-- Node217533 -->
<g id="node24" class="node">
<title>Node217533</title>
<g id="a_node24"><a xlink:href="quickjs_8c.html#a75ac132a3af4de01e1fadeb0bede6ee7" target="_top" xlink:title="JS_ThrowReferenceErrorUninitialized">
<polygon fill="none" stroke="#ff0000" points="283,-.5 283,-19.5 463,-19.5 463,-.5 283,-.5"/>
<text text-anchor="middle" x="373" y="-7.5" font-family="Helvetica,sans-Serif" font-size="10.00" fill="#000000">JS_ThrowReferenceErrorUninitialized</text>
</a>
</g>
</g>
<!-- Node217238&#45;&gt;Node217533 -->
<g id="edge36" class="edge">
<title>Node217238&#45;&gt;Node217533</title>
<path fill="none" stroke="#191970" d="M46.5644,-327.326C49.137,-291.7816 62.6527,-166.7988 128,-96 166.6963,-54.0755 227.0129,-32.5849 278.1143,-21.5707"/>
<polygon fill="#191970" stroke="#191970" points="279.1081,-24.9399 288.2025,-19.5047 277.7036,-18.0823 279.1081,-24.9399"/>
</g>
<!-- Node217240 -->
<g id="node3" class="node">
<title>Node217240</title>
<g id="a_node3"><a xlink:href="quickjs_8c.html#a643df594b75933007bcdbb071b5ea8c5" target="_top" xlink:title="get_shape_prop">
<polygon fill="none" stroke="#000000" points="521.5,-688.5 521.5,-707.5 607.5,-707.5 607.5,-688.5 521.5,-688.5"/>
<text text-anchor="middle" x="564.5" y="-695.5" font-family="Helvetica,sans-Serif" font-size="10.00" fill="#000000">get_shape_prop</text>
</a>
</g>
</g>
<!-- Node217239&#45;&gt;Node217240 -->
<g id="edge2" class="edge">
<title>Node217239&#45;&gt;Node217240</title>
<path fill="none" stroke="#191970" d="M421.3235,-698C448.7573,-698 483.1401,-698 511.3357,-698"/>
<polygon fill="#191970" stroke="#191970" points="511.4193,-701.5001 521.4192,-698 511.4192,-694.5001 511.4193,-701.5001"/>
</g>
<!-- Node217241 -->
<g id="node4" class="node">
<title>Node217241</title>
<g id="a_node4"><a xlink:href="quickjs_8c.html#acab22c2945c4d609e57a2484feb68a96" target="_top" xlink:title="prop_hash_end">
<polygon fill="none" stroke="#000000" points="523,-726.5 523,-745.5 606,-745.5 606,-726.5 523,-726.5"/>
<text text-anchor="middle" x="564.5" y="-733.5" font-family="Helvetica,sans-Serif" font-size="10.00" fill="#000000">prop_hash_end</text>
</a>
</g>
</g>
<!-- Node217239&#45;&gt;Node217241 -->
<g id="edge3" class="edge">
<title>Node217239&#45;&gt;Node217241</title>
<path fill="none" stroke="#191970" d="M421.3235,-707.589C449.152,-713.1111 484.1309,-720.0521 512.5489,-725.6912"/>
<polygon fill="#191970" stroke="#191970" points="512.2064,-729.1914 522.6964,-727.7048 513.5689,-722.3252 512.2064,-729.1914"/>
</g>
<!-- Node217243&#45;&gt;Node217239 -->
<g id="edge8" class="edge">
<title>Node217243&#45;&gt;Node217239</title>
<path fill="none" stroke="#191970" d="M189.6037,-346.8048C201.1518,-400.244 257.2557,-654.8588 283,-679 291.7367,-687.1927 303.079,-692.2157 314.7503,-695.2232"/>
<polygon fill="#191970" stroke="#191970" points="314.074,-698.6575 324.5816,-697.3007 315.5213,-691.8087 314.074,-698.6575"/>
</g>
<!-- Node217243&#45;&gt;Node217242 -->
<g id="edge22" class="edge">
<title>Node217243&#45;&gt;Node217242</title>
<path fill="none" stroke="#191970" d="M191.6554,-346.7817C201.9564,-371.2634 229.1281,-437.2859 247,-494 266.5684,-556.0974 237.2462,-589.6794 283,-636 293.8953,-647.0302 309.253,-653.1648 324.2026,-656.5235"/>
<polygon fill="#191970" stroke="#191970" points="323.9549,-660.0377 334.4273,-658.4314 325.239,-653.1564 323.9549,-660.0377"/>
</g>
<!-- Node217244 -->
<g id="node7" class="node">
<title>Node217244</title>
<g id="a_node7"><a xlink:href="quickjs_8c.html#a288254c06a39c9fca740a7abdad2834e" target="_top" xlink:title="__JS_AtomIsTaggedInt">
<polygon fill="none" stroke="#000000" points="666,-384.5 666,-403.5 785,-403.5 785,-384.5 666,-384.5"/>
<text text-anchor="middle" x="725.5" y="-391.5" font-family="Helvetica,sans-Serif" font-size="10.00" fill="#000000">__JS_AtomIsTaggedInt</text>
</a>
</g>
</g>
<!-- Node217243&#45;&gt;Node217244 -->
<g id="edge6" class="edge">
<title>Node217243&#45;&gt;Node217244</title>
<path fill="none" stroke="#191970" d="M198.8942,-346.6455C215.8927,-360.3346 249.495,-384.7614 283,-394 411.9416,-429.5542 570.1702,-416.7474 658.2086,-404.9152"/>
<polygon fill="#191970" stroke="#191970" points="658.9026,-408.3527 668.3297,-403.5174 657.9449,-401.4185 658.9026,-408.3527"/>
</g>
<!-- Node217245 -->
<g id="node8" class="node">
<title>Node217245</title>
<g id="a_node8"><a xlink:href="quickjs_8c.html#a89f38938cee8077ce1fbba07946ed185" target="_top" xlink:title="__JS_AtomToUInt32">
<polygon fill="none" stroke="#000000" points="671.5,-211.5 671.5,-230.5 779.5,-230.5 779.5,-211.5 671.5,-211.5"/>
<text text-anchor="middle" x="725.5" y="-218.5" font-family="Helvetica,sans-Serif" font-size="10.00" fill="#000000">__JS_AtomToUInt32</text>
</a>
</g>
</g>
<!-- Node217243&#45;&gt;Node217245 -->
<g id="edge7" class="edge">
<title>Node217243&#45;&gt;Node217245</title>
<path fill="none" stroke="#191970" d="M190.749,-327.3867C205.0747,-285.2717 262.7791,-118.5434 283,-105 424.4568,-10.2563 639.301,-155.5339 705.4275,-205.2824"/>
<polygon fill="#191970" stroke="#191970" points="703.3412,-208.093 713.4148,-211.3751 707.5866,-202.5273 703.3412,-208.093"/>
</g>
<!-- Node217246 -->
<g id="node9" class="node">
<title>Node217246</title>
<g id="a_node9"><a xlink:href="quickjs_8c.html#add3eea1f6d626963ade3c28a1fd563d1" target="_top" xlink:title="JS_AtomIsNumericIndex">
<polygon fill="none" stroke="#000000" points="310,-498.5 310,-517.5 436,-517.5 436,-498.5 310,-498.5"/>
<text text-anchor="middle" x="373" y="-505.5" font-family="Helvetica,sans-Serif" font-size="10.00" fill="#000000">JS_AtomIsNumericIndex</text>
</a>
</g>
</g>
<!-- Node217243&#45;&gt;Node217246 -->
<g id="edge9" class="edge">
<title>Node217243&#45;&gt;Node217246</title>
<path fill="none" stroke="#191970" d="M192.493,-346.5931C204.9427,-369.7197 239.5114,-429.2711 283,-465 298.2116,-477.4974 317.6621,-487.3752 334.5866,-494.4953"/>
<polygon fill="#191970" stroke="#191970" points="333.6247,-497.881 344.2084,-498.3679 336.2384,-491.3872 333.6247,-497.881"/>
</g>
<!-- Node217250 -->
<g id="node11" class="node">
<title>Node217250</title>
<g id="a_node11"><a xlink:href="quickjs_8h.html#afaa20c47565bc704c6c85f3d77254e7d" target="_top" xlink:title="JS_FreeValue">
<polygon fill="none" stroke="#ff0000" points="686.5,-593.5 686.5,-612.5 764.5,-612.5 764.5,-593.5 686.5,-593.5"/>
<text text-anchor="middle" x="725.5" y="-600.5" font-family="Helvetica,sans-Serif" font-size="10.00" fill="#000000">JS_FreeValue</text>
</a>
</g>
</g>
<!-- Node217243&#45;&gt;Node217250 -->
<g id="edge23" class="edge">
<title>Node217243&#45;&gt;Node217250</title>
<path fill="none" stroke="#191970" d="M193.4364,-346.7488C204.5699,-365.2051 229.0772,-406.6602 247,-443 264.9662,-479.4279 252.7087,-499.9405 283,-527 357.7654,-593.7885 400.1997,-574.9979 499,-592 559.4188,-602.3972 630.1423,-604.2156 676.2779,-604.0448"/>
<polygon fill="#191970" stroke="#191970" points="676.3334,-607.5446 686.3087,-603.9747 676.2844,-600.5447 676.3334,-607.5446"/>
</g>
<!-- Node217287 -->
<g id="node13" class="node">
<title>Node217287</title>
<g id="a_node13"><a xlink:href="quickjs_8h.html#a2050bc428da1c65ac7eb87c3fa3b0392" target="_top" xlink:title="JS_NewInt32">
<polygon fill="none" stroke="#000000" points="687.5,-431.5 687.5,-450.5 763.5,-450.5 763.5,-431.5 687.5,-431.5"/>
<text text-anchor="middle" x="725.5" y="-438.5" font-family="Helvetica,sans-Serif" font-size="10.00" fill="#000000">JS_NewInt32</text>
</a>
</g>
</g>
<!-- Node217243&#45;&gt;Node217287 -->
<g id="edge30" class="edge">
<title>Node217243&#45;&gt;Node217287</title>
<path fill="none" stroke="#191970" d="M194.8869,-346.6147C209.4391,-364.7015 243.8256,-403.3722 283,-419 353.3809,-447.0769 577.5378,-444.9673 677.0774,-442.5053"/>
<polygon fill="#191970" stroke="#191970" points="677.2588,-446.0019 687.1647,-442.2439 677.0774,-439.0042 677.2588,-446.0019"/>
</g>
<!-- Node217453 -->
<g id="node15" class="node">
<title>Node217453</title>
<g id="a_node15"><a xlink:href="quickjs_8c.html#a23b7fe57d08a1b3b39ba556f9cbb6c76" target="_top" xlink:title="JS_AutoInitProperty">
<polygon fill="none" stroke="#ff0000" points="321,-365.5 321,-384.5 425,-384.5 425,-365.5 321,-365.5"/>
<text text-anchor="middle" x="373" y="-372.5" font-family="Helvetica,sans-Serif" font-size="10.00" fill="#000000">JS_AutoInitProperty</text>
</a>
</g>
</g>
<!-- Node217243&#45;&gt;Node217453 -->
<g id="edge19" class="edge">
<title>Node217243&#45;&gt;Node217453</title>
<path fill="none" stroke="#191970" d="M234.3095,-346.589C259.3395,-351.7165 290.3414,-358.0672 316.6822,-363.4632"/>
<polygon fill="#191970" stroke="#191970" points="316.0281,-366.9018 326.5271,-365.4799 317.433,-360.0442 316.0281,-366.9018"/>
</g>
<!-- Node217322 -->
<g id="node16" class="node">
<title>Node217322</title>
<g id="a_node16"><a xlink:href="quickjs_8c.html#a75f6ee5e4235a7dc99889f3d2eb2c147" target="_top" xlink:title="JS_CallFree">
<polygon fill="none" stroke="#ff0000" points="529,-650.5 529,-669.5 600,-669.5 600,-650.5 529,-650.5"/>
<text text-anchor="middle" x="564.5" y="-657.5" font-family="Helvetica,sans-Serif" font-size="10.00" fill="#000000">JS_CallFree</text>
</a>
</g>
</g>
<!-- Node217243&#45;&gt;Node217322 -->
<g id="edge20" class="edge">
<title>Node217243&#45;&gt;Node217322</title>
<path fill="none" stroke="#191970" d="M194.2417,-346.7621C206.4799,-364.9096 232.4295,-405.4174 247,-443 272.5646,-508.9403 232.7068,-548.2781 283,-598 291.4187,-606.3231 441.2351,-636.2244 518.7863,-651.2509"/>
<polygon fill="#191970" stroke="#191970" points="518.2931,-654.7203 528.7756,-653.1816 519.6216,-647.8475 518.2931,-654.7203"/>
</g>
<!-- Node217345 -->
<g id="node17" class="node">
<title>Node217345</title>
<g id="a_node17"><a xlink:href="quickjs_8c.html#aeb97957655d979e9fe56c955da2b2d4b" target="_top" xlink:title="JS_GetPropertyUint32">
<polygon fill="none" stroke="#ff0000" points="315.5,-327.5 315.5,-346.5 430.5,-346.5 430.5,-327.5 315.5,-327.5"/>
<text text-anchor="middle" x="373" y="-334.5" font-family="Helvetica,sans-Serif" font-size="10.00" fill="#000000">JS_GetPropertyUint32</text>
</a>
</g>
</g>
<!-- Node217243&#45;&gt;Node217345 -->
<g id="edge24" class="edge">
<title>Node217243&#45;&gt;Node217345</title>
<path fill="none" stroke="#191970" d="M247.2144,-337C265.7087,-337 286.2188,-337 305.2185,-337"/>
<polygon fill="#191970" stroke="#191970" points="305.2958,-340.5001 315.2957,-337 305.2957,-333.5001 305.2958,-340.5001"/>
</g>
<!-- Node217455 -->
<g id="node18" class="node">
<title>Node217455</title>
<g id="a_node18"><a xlink:href="quickjs_8c.html#a93550bf785e919d0881399712c54cb34" target="_top" xlink:title="JS_GetPrototypePrimitive">
<polygon fill="none" stroke="#000000" points="308,-289.5 308,-308.5 438,-308.5 438,-289.5 308,-289.5"/>
<text text-anchor="middle" x="373" y="-296.5" font-family="Helvetica,sans-Serif" font-size="10.00" fill="#000000">JS_GetPrototypePrimitive</text>
</a>
</g>
</g>
<!-- Node217243&#45;&gt;Node217455 -->
<g id="edge25" class="edge">
<title>Node217243&#45;&gt;Node217455</title>
<path fill="none" stroke="#191970" d="M234.3095,-327.411C259.3395,-322.2835 290.3414,-315.9328 316.6822,-310.5368"/>
<polygon fill="#191970" stroke="#191970" points="317.433,-313.9558 326.5271,-308.5201 316.0281,-307.0982 317.433,-313.9558"/>
</g>
<!-- Node217243&#45;&gt;Node217532 -->
<g id="edge26" class="edge">
<title>Node217243&#45;&gt;Node217532</title>
<path fill="none" stroke="#191970" d="M196.0765,-327.3365C209.1636,-312.0496 233.969,-280.8471 247,-250 278.4088,-175.6491 227.6958,-130.7878 283,-72 291.6556,-62.7991 303.4091,-56.9787 315.5637,-53.3325"/>
<polygon fill="#191970" stroke="#191970" points="316.5135,-56.7025 325.3461,-50.8513 314.7925,-49.9173 316.5135,-56.7025"/>
</g>
<!-- Node217667 -->
<g id="node20" class="node">
<title>Node217667</title>
<g id="a_node20"><a xlink:href="quickjs_8c.html#a077ffa6455c0d7831bd4547542b5f2f7" target="_top" xlink:title="js_new_string_char">
<polygon fill="none" stroke="#000000" points="322.5,-251.5 322.5,-270.5 423.5,-270.5 423.5,-251.5 322.5,-251.5"/>
<text text-anchor="middle" x="373" y="-258.5" font-family="Helvetica,sans-Serif" font-size="10.00" fill="#000000">js_new_string_char</text>
</a>
</g>
</g>
<!-- Node217243&#45;&gt;Node217667 -->
<g id="edge27" class="edge">
<title>Node217243&#45;&gt;Node217667</title>
<path fill="none" stroke="#191970" d="M200.3786,-327.4086C218.083,-314.6829 251.3547,-292.3863 283,-280 292.2571,-276.3767 302.3338,-273.392 312.2841,-270.9497"/>
<polygon fill="#191970" stroke="#191970" points="313.1932,-274.3321 322.1573,-268.6845 311.6279,-267.5094 313.1932,-274.3321"/>
</g>
<!-- Node217456 -->
<g id="node23" class="node">
<title>Node217456</title>
<g id="a_node23"><a xlink:href="quickjs_8c.html#ab8d0b87c9eed4eb6c054b6f4e1731554" target="_top" xlink:title="JS_ThrowReferenceErrorNot\lDefined">
<polygon fill="none" stroke="#ff0000" points="301.5,-202 301.5,-232 444.5,-232 444.5,-202 301.5,-202"/>
<text text-anchor="start" x="309.5" y="-220" font-family="Helvetica,sans-Serif" font-size="10.00" fill="#000000">JS_ThrowReferenceErrorNot</text>
<text text-anchor="middle" x="373" y="-209" font-family="Helvetica,sans-Serif" font-size="10.00" fill="#000000">Defined</text>
</a>
</g>
</g>
<!-- Node217243&#45;&gt;Node217456 -->
<g id="edge31" class="edge">
<title>Node217243&#45;&gt;Node217456</title>
<path fill="none" stroke="#191970" d="M194.4685,-327.2946C208.8039,-308.0481 243.5812,-264.9302 283,-242 286.7059,-239.8443 290.6062,-237.8672 294.6212,-236.0548"/>
<polygon fill="#191970" stroke="#191970" points="296.2517,-239.1683 304.1604,-232.1183 293.5814,-232.6976 296.2517,-239.1683"/>
</g>
<!-- Node217243&#45;&gt;Node217533 -->
<g id="edge32" class="edge">
<title>Node217243&#45;&gt;Node217533</title>
<path fill="none" stroke="#191970" d="M189.1454,-327.3742C197.4422,-279.9485 236.1413,-71.7084 283,-29 284.5491,-27.5881 286.1759,-26.271 287.8684,-25.0428"/>
<polygon fill="#191970" stroke="#191970" points="290.0861,-27.7913 296.8226,-19.6139 286.4569,-21.8056 290.0861,-27.7913"/>
</g>
<!-- Node217460 -->
<g id="node25" class="node">
<title>Node217460</title>
<g id="a_node25"><a xlink:href="quickjs_8c.html#a033dd3ebd29c4eb9f0baff1dd0fec0b1" target="_top" xlink:title="JS_ThrowTypeErrorDetached\lArrayBuffer">
<polygon fill="none" stroke="#000000" points="300,-153 300,-183 446,-183 446,-153 300,-153"/>
<text text-anchor="start" x="308" y="-171" font-family="Helvetica,sans-Serif" font-size="10.00" fill="#000000">JS_ThrowTypeErrorDetached</text>
<text text-anchor="middle" x="373" y="-160" font-family="Helvetica,sans-Serif" font-size="10.00" fill="#000000">ArrayBuffer</text>
</a>
</g>
</g>
<!-- Node217243&#45;&gt;Node217460 -->
<g id="edge33" class="edge">
<title>Node217243&#45;&gt;Node217460</title>
<path fill="none" stroke="#191970" d="M194.2193,-327.4221C205.3653,-311.4798 228.3027,-278.44 247,-250 263.46,-224.9631 258.9528,-210.8748 283,-193 285.5216,-191.1256 288.1771,-189.3917 290.9317,-187.7879"/>
<polygon fill="#191970" stroke="#191970" points="292.7429,-190.7918 300.0237,-183.095 289.5323,-184.5715 292.7429,-190.7918"/>
</g>
<!-- Node217466 -->
<g id="node26" class="node">
<title>Node217466</title>
<g id="a_node26"><a xlink:href="quickjs_8c.html#a869fa88a646c0a1914ec2e559b193b5c" target="_top" xlink:title="typed_array_is_detached">
<polygon fill="none" stroke="#000000" points="310.5,-114.5 310.5,-133.5 435.5,-133.5 435.5,-114.5 310.5,-114.5"/>
<text text-anchor="middle" x="373" y="-121.5" font-family="Helvetica,sans-Serif" font-size="10.00" fill="#000000">typed_array_is_detached</text>
</a>
</g>
</g>
<!-- Node217243&#45;&gt;Node217466 -->
<g id="edge34" class="edge">
<title>Node217243&#45;&gt;Node217466</title>
<path fill="none" stroke="#191970" d="M195.4093,-327.3771C207.8169,-311.8963 231.9862,-280.1368 247,-250 269.3739,-205.0896 245.5157,-176.3535 283,-143 288.2102,-138.364 294.2619,-134.7568 300.7164,-131.9623"/>
<polygon fill="#191970" stroke="#191970" points="302.2162,-135.1408 310.4101,-128.4244 299.8162,-128.5651 302.2162,-135.1408"/>
</g>
<!-- Node217247 -->
<g id="node10" class="node">
<title>Node217247</title>
<g id="a_node10"><a xlink:href="quickjs_8c.html#ab4e100a9cde5f7ec87c92f5e766dbbab" target="_top" xlink:title="JS_AtomIsNumericIndex1">
<polygon fill="none" stroke="#ff0000" points="499,-460.5 499,-479.5 630,-479.5 630,-460.5 499,-460.5"/>
<text text-anchor="middle" x="564.5" y="-467.5" font-family="Helvetica,sans-Serif" font-size="10.00" fill="#000000">JS_AtomIsNumericIndex1</text>
</a>
</g>
</g>
<!-- Node217246&#45;&gt;Node217247 -->
<g id="edge10" class="edge">
<title>Node217246&#45;&gt;Node217247</title>
<path fill="none" stroke="#191970" d="M421.3235,-498.411C447.1632,-493.2835 479.1678,-486.9328 506.3606,-481.5368"/>
<polygon fill="#191970" stroke="#191970" points="507.3965,-484.8996 516.524,-479.5201 506.0339,-478.0334 507.3965,-484.8996"/>
</g>
<!-- Node217246&#45;&gt;Node217250 -->
<g id="edge16" class="edge">
<title>Node217246&#45;&gt;Node217250</title>
<path fill="none" stroke="#191970" d="M390.3806,-517.6147C414.1801,-530.3668 458.5756,-552.6931 499,-565 558.5761,-583.1375 629.7669,-593.2881 676.2239,-598.4462"/>
<polygon fill="#191970" stroke="#191970" points="676.0075,-601.9431 686.3244,-599.5322 676.7559,-594.9832 676.0075,-601.9431"/>
</g>
<!-- Node217286 -->
<g id="node12" class="node">
<title>Node217286</title>
<g id="a_node12"><a xlink:href="quickjs_8h.html#ad80a83d73e9b7d872b88fbf2943aebe9" target="_top" xlink:title="JS_IsException">
<polygon fill="none" stroke="#000000" points="682.5,-479.5 682.5,-498.5 768.5,-498.5 768.5,-479.5 682.5,-479.5"/>
<text text-anchor="middle" x="725.5" y="-486.5" font-family="Helvetica,sans-Serif" font-size="10.00" fill="#000000">JS_IsException</text>
</a>
</g>
</g>
<!-- Node217246&#45;&gt;Node217286 -->
<g id="edge17" class="edge">
<title>Node217246&#45;&gt;Node217286</title>
<path fill="none" stroke="#191970" d="M436.0199,-504.6032C503.3638,-500.9733 608.9546,-495.2819 672.2762,-491.8688"/>
<polygon fill="#191970" stroke="#191970" points="672.6476,-495.354 682.4447,-491.3207 672.2708,-488.3641 672.6476,-495.354"/>
</g>
<!-- Node217298 -->
<g id="node14" class="node">
<title>Node217298</title>
<g id="a_node14"><a xlink:href="quickjs_8h.html#a4e407128a9605afb77523e49e9a627fd" target="_top" xlink:title="JS_IsUndefined">
<polygon fill="none" stroke="#000000" points="521.5,-536.5 521.5,-555.5 607.5,-555.5 607.5,-536.5 521.5,-536.5"/>
<text text-anchor="middle" x="564.5" y="-543.5" font-family="Helvetica,sans-Serif" font-size="10.00" fill="#000000">JS_IsUndefined</text>
</a>
</g>
</g>
<!-- Node217246&#45;&gt;Node217298 -->
<g id="edge18" class="edge">
<title>Node217246&#45;&gt;Node217298</title>
<path fill="none" stroke="#191970" d="M421.3235,-517.589C448.7573,-523.0328 483.1401,-529.8555 511.3357,-535.4504"/>
<polygon fill="#191970" stroke="#191970" points="510.9292,-538.9379 521.4192,-537.4513 512.2918,-532.0718 510.9292,-538.9379"/>
</g>
<!-- Node217247&#45;&gt;Node217244 -->
<g id="edge11" class="edge">
<title>Node217247&#45;&gt;Node217244</title>
<path fill="none" stroke="#191970" d="M584.7154,-460.4262C605.1963,-450.7299 637.7929,-435.3066 666,-422 675.7574,-417.397 686.4188,-412.3769 695.9873,-407.8748"/>
<polygon fill="#191970" stroke="#191970" points="697.5583,-411.0038 705.1174,-403.5801 694.5788,-404.6696 697.5583,-411.0038"/>
</g>
<!-- Node217247&#45;&gt;Node217245 -->
<g id="edge12" class="edge">
<title>Node217247&#45;&gt;Node217245</title>
<path fill="none" stroke="#191970" d="M570.8114,-460.2389C594.9568,-422.8961 681.7121,-288.7216 713.6173,-239.3775"/>
<polygon fill="#191970" stroke="#191970" points="716.7416,-240.9916 719.2322,-230.6936 710.8633,-237.1907 716.7416,-240.9916"/>
</g>
<!-- Node217247&#45;&gt;Node217250 -->
<g id="edge13" class="edge">
<title>Node217247&#45;&gt;Node217250</title>
<path fill="none" stroke="#191970" d="M576.0787,-479.565C603.3307,-502.0776 671.7768,-558.6199 705.7448,-586.6805"/>
<polygon fill="#191970" stroke="#191970" points="703.6531,-589.4923 713.5918,-593.1628 708.1113,-584.0956 703.6531,-589.4923"/>
</g>
<!-- Node217247&#45;&gt;Node217286 -->
<g id="edge14" class="edge">
<title>Node217247&#45;&gt;Node217286</title>
<path fill="none" stroke="#191970" d="M630.4494,-477.7828C644.428,-479.4325 659.0121,-481.1536 672.4393,-482.7382"/>
<polygon fill="#191970" stroke="#191970" points="672.1112,-486.2237 682.4525,-483.9199 672.9316,-479.2719 672.1112,-486.2237"/>
</g>
<!-- Node217247&#45;&gt;Node217287 -->
<g id="edge15" class="edge">
<title>Node217247&#45;&gt;Node217287</title>
<path fill="none" stroke="#191970" d="M617.6636,-460.4239C636.8295,-456.9717 658.3413,-453.0969 677.0802,-449.7216"/>
<polygon fill="#191970" stroke="#191970" points="677.9518,-453.121 687.173,-447.9036 676.7109,-446.2319 677.9518,-453.121"/>
</g>
<!-- Node217322&#45;&gt;Node217250 -->
<g id="edge21" class="edge">
<title>Node217322&#45;&gt;Node217250</title>
<path fill="none" stroke="#191970" d="M591.4478,-650.4595C618.1491,-641.0062 659.2364,-626.4598 688.8853,-615.963"/>
<polygon fill="#191970" stroke="#191970" points="690.2058,-619.2084 698.4643,-612.5716 687.8695,-612.6098 690.2058,-619.2084"/>
</g>
<!-- Node217668 -->
<g id="node21" class="node">
<title>Node217668</title>
<g id="a_node21"><a xlink:href="quickjs_8c.html#a960b48be1175b0982ecc03505711fc56" target="_top" xlink:title="js_new_string16">
<polygon fill="none" stroke="#ff0000" points="521,-232.5 521,-251.5 608,-251.5 608,-232.5 521,-232.5"/>
<text text-anchor="middle" x="564.5" y="-239.5" font-family="Helvetica,sans-Serif" font-size="10.00" fill="#000000">js_new_string16</text>
</a>
</g>
</g>
<!-- Node217667&#45;&gt;Node217668 -->
<g id="edge28" class="edge">
<title>Node217667&#45;&gt;Node217668</title>
<path fill="none" stroke="#191970" d="M423.5649,-255.9831C450.3896,-253.3217 483.3536,-250.0511 510.6551,-247.3423"/>
<polygon fill="#191970" stroke="#191970" points="511.2113,-250.8044 520.8168,-246.3341 510.5201,-243.8386 511.2113,-250.8044"/>
</g>
<!-- Node217305 -->
<g id="node22" class="node">
<title>Node217305</title>
<g id="a_node22"><a xlink:href="quickjs_8c.html#aa923510185fe24e3083baf7405b09f51" target="_top" xlink:title="js_new_string8">
<polygon fill="none" stroke="#ff0000" points="523.5,-270.5 523.5,-289.5 605.5,-289.5 605.5,-270.5 523.5,-270.5"/>
<text text-anchor="middle" x="564.5" y="-277.5" font-family="Helvetica,sans-Serif" font-size="10.00" fill="#000000">js_new_string8</text>
</a>
</g>
</g>
<!-- Node217667&#45;&gt;Node217305 -->
<g id="edge29" class="edge">
<title>Node217667&#45;&gt;Node217305</title>
<path fill="none" stroke="#191970" d="M423.5649,-266.0169C451.1757,-268.7563 485.2909,-272.1411 513.0404,-274.8943"/>
<polygon fill="#191970" stroke="#191970" points="513.0404,-278.4114 523.3371,-275.916 513.7316,-271.4457 513.0404,-278.4114"/>
</g>
</g>
</svg>
