<?xml version="1.0" encoding="UTF-8" standalone="no"?>
<!DOCTYPE svg PUBLIC "-//W3C//DTD SVG 1.1//EN"
 "http://www.w3.org/Graphics/SVG/1.1/DTD/svg11.dtd">
<!-- Generated by graphviz version 2.40.1 (20161225.0304)
 -->
<!-- Title: JS_ToLengthFree Pages: 1 -->
<svg width="707pt" height="986pt"
 viewBox="0.00 0.00 707.00 986.00" xmlns="http://www.w3.org/2000/svg" xmlns:xlink="http://www.w3.org/1999/xlink">
<g id="graph0" class="graph" transform="scale(1 1) rotate(0) translate(4 982)">
<title>JS_ToLengthFree</title>
<!-- Node247159 -->
<g id="node1" class="node">
<title>Node247159</title>
<polygon fill="#bfbfbf" stroke="#000000" points="0,-152.5 0,-171.5 94,-171.5 94,-152.5 0,-152.5"/>
<text text-anchor="middle" x="47" y="-159.5" font-family="Helvetica,sans-Serif" font-size="10.00" fill="#000000">JS_ToLengthFree</text>
</g>
<!-- Node247160 -->
<g id="node2" class="node">
<title>Node247160</title>
<g id="a_node2"><a xlink:href="quickjs_8c.html#a5f848f76409193212a44e6221e430919" target="_top" xlink:title="js_get_length64">
<polygon fill="none" stroke="#ff0000" points="161,-541.5 161,-560.5 246,-560.5 246,-541.5 161,-541.5"/>
<text text-anchor="middle" x="203.5" y="-548.5" font-family="Helvetica,sans-Serif" font-size="10.00" fill="#000000">js_get_length64</text>
</a>
</g>
</g>
<!-- Node247159&#45;&gt;Node247160 -->
<g id="edge1" class="edge">
<title>Node247159&#45;&gt;Node247160</title>
<path fill="none" stroke="#191970" d="M54.6141,-180.9259C82.5797,-250.4377 179.0645,-490.2626 199.6266,-541.3721"/>
<polygon fill="#191970" stroke="#191970" points="57.8481,-179.5868 50.8686,-171.6158 51.354,-182.1995 57.8481,-179.5868"/>
</g>
<!-- Node247182 -->
<g id="node23" class="node">
<title>Node247182</title>
<g id="a_node23"><a xlink:href="quickjs_8c.html#a79872a6d9d139e36d5d1894d16132024" target="_top" xlink:title="js_regexp_Symbol_split">
<polygon fill="none" stroke="#000000" points="320,-180.5 320,-199.5 440,-199.5 440,-180.5 320,-180.5"/>
<text text-anchor="middle" x="380" y="-187.5" font-family="Helvetica,sans-Serif" font-size="10.00" fill="#000000">js_regexp_Symbol_split</text>
</a>
</g>
</g>
<!-- Node247159&#45;&gt;Node247182 -->
<g id="edge36" class="edge">
<title>Node247159&#45;&gt;Node247182</title>
<path fill="none" stroke="#191970" d="M56.5814,-180.4426C69.6518,-203.3453 95.453,-241.3081 130,-257 189.4846,-284.019 218.5641,-286.218 277,-257 300.8514,-245.0743 291.0184,-224.097 313,-209 318.6809,-205.0984 325.1536,-201.9923 331.7838,-199.5208"/>
<polygon fill="#191970" stroke="#191970" points="59.6439,-178.7479 51.7709,-171.658 53.5042,-182.1101 59.6439,-178.7479"/>
</g>
<!-- Node247208 -->
<g id="node24" class="node">
<title>Node247208</title>
<g id="a_node24"><a xlink:href="quickjs_8c.html#a9eb2d90f27f684820f9de13189502b7c" target="_top" xlink:title="js_regexp_exec">
<polygon fill="none" stroke="#ff0000" points="161,-228.5 161,-247.5 246,-247.5 246,-228.5 161,-228.5"/>
<text text-anchor="middle" x="203.5" y="-235.5" font-family="Helvetica,sans-Serif" font-size="10.00" fill="#000000">js_regexp_exec</text>
</a>
</g>
</g>
<!-- Node247159&#45;&gt;Node247208 -->
<g id="edge31" class="edge">
<title>Node247159&#45;&gt;Node247208</title>
<path fill="none" stroke="#191970" d="M66.3939,-178.2382C82.5053,-190.9821 106.5104,-208.3019 130,-219 139.5956,-223.3702 150.3716,-226.8645 160.6533,-229.6036"/>
<polygon fill="#191970" stroke="#191970" points="68.2852,-175.2664 58.3086,-171.7001 63.8837,-180.7095 68.2852,-175.2664"/>
</g>
<!-- Node247212 -->
<g id="node25" class="node">
<title>Node247212</title>
<g id="a_node25"><a xlink:href="quickjs_8c.html#aeb6df5fcffc6fecfac1e9b0d709e99c5" target="_top" xlink:title="js_regexp_string_iterator_next">
<polygon fill="none" stroke="#000000" points="130,-190.5 130,-209.5 277,-209.5 277,-190.5 130,-190.5"/>
<text text-anchor="middle" x="203.5" y="-197.5" font-family="Helvetica,sans-Serif" font-size="10.00" fill="#000000">js_regexp_string_iterator_next</text>
</a>
</g>
</g>
<!-- Node247159&#45;&gt;Node247212 -->
<g id="edge32" class="edge">
<title>Node247159&#45;&gt;Node247212</title>
<path fill="none" stroke="#191970" d="M96.2892,-173.968C118.2203,-179.2931 143.6849,-185.4762 164.2924,-190.4799"/>
<polygon fill="#191970" stroke="#191970" points="97.0351,-170.5475 86.4916,-171.589 95.3833,-177.3498 97.0351,-170.5475"/>
</g>
<!-- Node247211 -->
<g id="node26" class="node">
<title>Node247211</title>
<g id="a_node26"><a xlink:href="quickjs_8c.html#a41fc4304b39616e7be3500fe6ec881c2" target="_top" xlink:title="js_regexp_Symbol_match">
<polygon fill="none" stroke="#000000" points="139,-152.5 139,-171.5 268,-171.5 268,-152.5 139,-152.5"/>
<text text-anchor="middle" x="203.5" y="-159.5" font-family="Helvetica,sans-Serif" font-size="10.00" fill="#000000">js_regexp_Symbol_match</text>
</a>
</g>
</g>
<!-- Node247159&#45;&gt;Node247211 -->
<g id="edge33" class="edge">
<title>Node247159&#45;&gt;Node247211</title>
<path fill="none" stroke="#191970" d="M104.4787,-162C115.695,-162 127.525,-162 138.9525,-162"/>
<polygon fill="#191970" stroke="#191970" points="104.3799,-158.5001 94.3799,-162 104.3798,-165.5001 104.3799,-158.5001"/>
</g>
<!-- Node247216 -->
<g id="node27" class="node">
<title>Node247216</title>
<g id="a_node27"><a xlink:href="quickjs_8c.html#ace9b3fda4db2506ca054f0c7aaf41880" target="_top" xlink:title="js_regexp_Symbol_matchAll">
<polygon fill="none" stroke="#000000" points="133.5,-114.5 133.5,-133.5 273.5,-133.5 273.5,-114.5 133.5,-114.5"/>
<text text-anchor="middle" x="203.5" y="-121.5" font-family="Helvetica,sans-Serif" font-size="10.00" fill="#000000">js_regexp_Symbol_matchAll</text>
</a>
</g>
</g>
<!-- Node247159&#45;&gt;Node247216 -->
<g id="edge34" class="edge">
<title>Node247159&#45;&gt;Node247216</title>
<path fill="none" stroke="#191970" d="M96.2892,-150.032C118.2203,-144.7069 143.6849,-138.5238 164.2924,-133.5201"/>
<polygon fill="#191970" stroke="#191970" points="95.3833,-146.6502 86.4916,-152.411 97.0351,-153.4525 95.3833,-146.6502"/>
</g>
<!-- Node247213 -->
<g id="node28" class="node">
<title>Node247213</title>
<g id="a_node28"><a xlink:href="quickjs_8c.html#a6a77bcdb9f7f18c13c108c99a198708b" target="_top" xlink:title="js_regexp_Symbol_replace">
<polygon fill="none" stroke="#000000" points="313,-57.5 313,-76.5 447,-76.5 447,-57.5 313,-57.5"/>
<text text-anchor="middle" x="380" y="-64.5" font-family="Helvetica,sans-Serif" font-size="10.00" fill="#000000">js_regexp_Symbol_replace</text>
</a>
</g>
</g>
<!-- Node247159&#45;&gt;Node247213 -->
<g id="edge35" class="edge">
<title>Node247159&#45;&gt;Node247213</title>
<path fill="none" stroke="#191970" d="M56.5814,-143.5574C69.6518,-120.6547 95.453,-82.6919 130,-67 198.9577,-35.6782 290.0651,-47.0568 341.0859,-57.4763"/>
<polygon fill="#191970" stroke="#191970" points="53.5042,-141.8899 51.7709,-152.342 59.6439,-145.2521 53.5042,-141.8899"/>
</g>
<!-- Node247217 -->
<g id="node29" class="node">
<title>Node247217</title>
<g id="a_node29"><a xlink:href="quickjs_8c.html#a14fa3c10f581e1cd38b349913f47fb43" target="_top" xlink:title="JS_RegExpDelete">
<polygon fill="none" stroke="#000000" points="154.5,-76.5 154.5,-95.5 252.5,-95.5 252.5,-76.5 154.5,-76.5"/>
<text text-anchor="middle" x="203.5" y="-83.5" font-family="Helvetica,sans-Serif" font-size="10.00" fill="#000000">JS_RegExpDelete</text>
</a>
</g>
</g>
<!-- Node247159&#45;&gt;Node247217 -->
<g id="edge37" class="edge">
<title>Node247159&#45;&gt;Node247217</title>
<path fill="none" stroke="#191970" d="M66.3939,-145.7618C82.5053,-133.0179 106.5104,-115.6981 130,-105 138.2762,-101.2307 147.4305,-98.113 156.3884,-95.5694"/>
<polygon fill="#191970" stroke="#191970" points="63.8837,-143.2905 58.3086,-152.2999 68.2852,-148.7336 63.8837,-143.2905"/>
</g>
<!-- Node247218 -->
<g id="node30" class="node">
<title>Node247218</title>
<g id="a_node30"><a xlink:href="quickjs_8c.html#a8c18ce4b7a8c97ab520d4d37a1c6fc72" target="_top" xlink:title="js_typed_array_create">
<polygon fill="none" stroke="#ff0000" points="147,-.5 147,-19.5 260,-19.5 260,-.5 147,-.5"/>
<text text-anchor="middle" x="203.5" y="-7.5" font-family="Helvetica,sans-Serif" font-size="10.00" fill="#000000">js_typed_array_create</text>
</a>
</g>
</g>
<!-- Node247159&#45;&gt;Node247218 -->
<g id="edge39" class="edge">
<title>Node247159&#45;&gt;Node247218</title>
<path fill="none" stroke="#191970" d="M54.4342,-142.9526C66.2739,-115.0468 92.0222,-63.206 130,-34 138.1934,-27.699 148.1075,-23.0172 157.9659,-19.5506"/>
<polygon fill="#191970" stroke="#191970" points="51.1252,-141.7978 50.581,-152.3787 57.6047,-144.4466 51.1252,-141.7978"/>
</g>
<!-- Node247161 -->
<g id="node3" class="node">
<title>Node247161</title>
<g id="a_node3"><a xlink:href="quickjs_8c.html#aaa85fa359f7aa8985f0299147272adef" target="_top" xlink:title="js_array_concat">
<polygon fill="none" stroke="#000000" points="337,-864.5 337,-883.5 423,-883.5 423,-864.5 337,-864.5"/>
<text text-anchor="middle" x="380" y="-871.5" font-family="Helvetica,sans-Serif" font-size="10.00" fill="#000000">js_array_concat</text>
</a>
</g>
</g>
<!-- Node247160&#45;&gt;Node247161 -->
<g id="edge2" class="edge">
<title>Node247160&#45;&gt;Node247161</title>
<path fill="none" stroke="#191970" d="M204.6212,-570.8498C208.7627,-624.8188 227.7806,-775.4989 313,-855 319.6306,-861.1857 328.1268,-865.3777 336.8262,-868.2134"/>
<polygon fill="#191970" stroke="#191970" points="208.0949,-570.3399 203.9296,-560.5982 201.1107,-570.8112 208.0949,-570.3399"/>
</g>
<!-- Node247162 -->
<g id="node4" class="node">
<title>Node247162</title>
<g id="a_node4"><a xlink:href="quickjs_8c.html#a93380da0068e066053740a43c8d8f15a" target="_top" xlink:title="js_array_copyWithin">
<polygon fill="none" stroke="#000000" points="327.5,-826.5 327.5,-845.5 432.5,-845.5 432.5,-826.5 327.5,-826.5"/>
<text text-anchor="middle" x="380" y="-833.5" font-family="Helvetica,sans-Serif" font-size="10.00" fill="#000000">js_array_copyWithin</text>
</a>
</g>
</g>
<!-- Node247160&#45;&gt;Node247162 -->
<g id="edge3" class="edge">
<title>Node247160&#45;&gt;Node247162</title>
<path fill="none" stroke="#191970" d="M205.7513,-570.6636C212.4436,-619.8256 236.7571,-749.0012 313,-817 317.3312,-820.8628 322.3936,-823.9451 327.7608,-826.4037"/>
<polygon fill="#191970" stroke="#191970" points="209.2182,-570.1806 204.492,-560.6984 202.2734,-571.0583 209.2182,-570.1806"/>
</g>
<!-- Node247163 -->
<g id="node5" class="node">
<title>Node247163</title>
<g id="a_node5"><a xlink:href="quickjs_8c.html#aa0bbf08a7e91459c68a312fba7016c6d" target="_top" xlink:title="js_array_every">
<polygon fill="none" stroke="#000000" points="340,-788.5 340,-807.5 420,-807.5 420,-788.5 340,-788.5"/>
<text text-anchor="middle" x="380" y="-795.5" font-family="Helvetica,sans-Serif" font-size="10.00" fill="#000000">js_array_every</text>
</a>
</g>
</g>
<!-- Node247160&#45;&gt;Node247163 -->
<g id="edge4" class="edge">
<title>Node247160&#45;&gt;Node247163</title>
<path fill="none" stroke="#191970" d="M207.2048,-570.4792C216.6142,-614.513 245.6293,-722.2896 313,-779 320.5848,-785.3847 330.1848,-789.6285 339.7308,-792.448"/>
<polygon fill="#191970" stroke="#191970" points="210.5996,-569.609 205.1809,-560.5047 203.7394,-571.001 210.5996,-569.609"/>
</g>
<!-- Node247164 -->
<g id="node6" class="node">
<title>Node247164</title>
<g id="a_node6"><a xlink:href="quickjs_8c.html#ae2647134d809434118ae04182c0169cb" target="_top" xlink:title="js_array_fill">
<polygon fill="none" stroke="#000000" points="347,-750.5 347,-769.5 413,-769.5 413,-750.5 347,-750.5"/>
<text text-anchor="middle" x="380" y="-757.5" font-family="Helvetica,sans-Serif" font-size="10.00" fill="#000000">js_array_fill</text>
</a>
</g>
</g>
<!-- Node247160&#45;&gt;Node247164 -->
<g id="edge5" class="edge">
<title>Node247160&#45;&gt;Node247164</title>
<path fill="none" stroke="#191970" d="M209.2585,-570.5822C221.6395,-609.2074 254.5167,-695.4089 313,-741 322.7262,-748.5822 335.3383,-753.1386 346.9925,-755.8767"/>
<polygon fill="#191970" stroke="#191970" points="212.4777,-569.144 206.1863,-560.6195 205.7886,-571.2068 212.4777,-569.144"/>
</g>
<!-- Node247165 -->
<g id="node7" class="node">
<title>Node247165</title>
<g id="a_node7"><a xlink:href="quickjs_8c.html#a9dd41b086da4e13b3487cc9c6e2af2b8" target="_top" xlink:title="js_array_find">
<polygon fill="none" stroke="#000000" points="344,-712.5 344,-731.5 416,-731.5 416,-712.5 344,-712.5"/>
<text text-anchor="middle" x="380" y="-719.5" font-family="Helvetica,sans-Serif" font-size="10.00" fill="#000000">js_array_find</text>
</a>
</g>
</g>
<!-- Node247160&#45;&gt;Node247165 -->
<g id="edge6" class="edge">
<title>Node247160&#45;&gt;Node247165</title>
<path fill="none" stroke="#191970" d="M212.9193,-570.0741C229.1883,-601.155 265.4328,-662.7857 313,-698 322.1361,-704.7635 333.3587,-709.7654 343.9882,-713.3983"/>
<polygon fill="#191970" stroke="#191970" points="215.8431,-568.1036 208.1803,-560.7871 209.608,-571.2853 215.8431,-568.1036"/>
</g>
<!-- Node247166 -->
<g id="node8" class="node">
<title>Node247166</title>
<g id="a_node8"><a xlink:href="quickjs_8c.html#a12e173fe76ae1141ef47318f9d0cbea7" target="_top" xlink:title="js_array_flatten">
<polygon fill="none" stroke="#000000" points="483,-788.5 483,-807.5 566,-807.5 566,-788.5 483,-788.5"/>
<text text-anchor="middle" x="524.5" y="-795.5" font-family="Helvetica,sans-Serif" font-size="10.00" fill="#000000">js_array_flatten</text>
</a>
</g>
</g>
<!-- Node247160&#45;&gt;Node247166 -->
<g id="edge7" class="edge">
<title>Node247160&#45;&gt;Node247166</title>
<path fill="none" stroke="#191970" d="M215.8262,-568.8645C234.1269,-594.0402 270.8869,-639.703 313,-665 366.066,-696.8763 395.2677,-669.002 447,-703 481.6859,-725.7953 508.4967,-768.9839 519.3043,-788.2716"/>
<polygon fill="#191970" stroke="#191970" points="218.591,-566.713 209.9434,-560.5918 212.8864,-570.7697 218.591,-566.713"/>
</g>
<!-- Node247167 -->
<g id="node9" class="node">
<title>Node247167</title>
<g id="a_node9"><a xlink:href="quickjs_8c.html#a5e32da9a43002cb96dcbd62a1a340144" target="_top" xlink:title="js_array_from">
<polygon fill="none" stroke="#000000" points="342,-636.5 342,-655.5 418,-655.5 418,-636.5 342,-636.5"/>
<text text-anchor="middle" x="380" y="-643.5" font-family="Helvetica,sans-Serif" font-size="10.00" fill="#000000">js_array_from</text>
</a>
</g>
</g>
<!-- Node247160&#45;&gt;Node247167 -->
<g id="edge8" class="edge">
<title>Node247160&#45;&gt;Node247167</title>
<path fill="none" stroke="#191970" d="M222.3316,-566.9974C243.247,-584.038 278.6145,-610.7477 313,-627 322.0728,-631.2883 332.3054,-634.7931 341.9919,-637.5717"/>
<polygon fill="#191970" stroke="#191970" points="224.4853,-564.2367 214.5499,-560.5572 220.0222,-569.6294 224.4853,-564.2367"/>
</g>
<!-- Node247168 -->
<g id="node10" class="node">
<title>Node247168</title>
<g id="a_node10"><a xlink:href="quickjs_8c.html#a2ef89587b2e4287d4bd0417788c8e21e" target="_top" xlink:title="js_array_includes">
<polygon fill="none" stroke="#000000" points="334,-370.5 334,-389.5 426,-389.5 426,-370.5 334,-370.5"/>
<text text-anchor="middle" x="380" y="-377.5" font-family="Helvetica,sans-Serif" font-size="10.00" fill="#000000">js_array_includes</text>
</a>
</g>
</g>
<!-- Node247160&#45;&gt;Node247168 -->
<g id="edge9" class="edge">
<title>Node247160&#45;&gt;Node247168</title>
<path fill="none" stroke="#191970" d="M211.8317,-532.2563C227.1248,-500.0321 262.7762,-434.2086 313,-399 319.2371,-394.6276 326.4621,-391.2565 333.8109,-388.6587"/>
<polygon fill="#191970" stroke="#191970" points="208.5984,-530.91 207.5891,-541.4566 214.9551,-533.8413 208.5984,-530.91"/>
</g>
<!-- Node247169 -->
<g id="node11" class="node">
<title>Node247169</title>
<g id="a_node11"><a xlink:href="quickjs_8c.html#a60d84dd116a9d7d912d08f298a4734dd" target="_top" xlink:title="js_json_to_str">
<polygon fill="none" stroke="#000000" points="486,-522.5 486,-541.5 563,-541.5 563,-522.5 486,-522.5"/>
<text text-anchor="middle" x="524.5" y="-529.5" font-family="Helvetica,sans-Serif" font-size="10.00" fill="#000000">js_json_to_str</text>
</a>
</g>
</g>
<!-- Node247160&#45;&gt;Node247169 -->
<g id="edge28" class="edge">
<title>Node247160&#45;&gt;Node247169</title>
<path fill="none" stroke="#191970" d="M256.4978,-554.6476C305.9722,-557.1907 381.7616,-558.8803 447,-551 462.4037,-549.1394 479.1632,-545.2701 493.1437,-541.5058"/>
<polygon fill="#191970" stroke="#191970" points="256.5287,-551.1442 246.3532,-554.0951 256.148,-558.1338 256.5287,-551.1442"/>
</g>
<!-- Node247170 -->
<g id="node12" class="node">
<title>Node247170</title>
<g id="a_node12"><a xlink:href="quickjs_8c.html#a343a343b16bc3c9875050e99ee0d2884" target="_top" xlink:title="JS_JSONStringify">
<polygon fill="none" stroke="#ff0000" points="602,-370.5 602,-389.5 699,-389.5 699,-370.5 602,-370.5"/>
<text text-anchor="middle" x="650.5" y="-377.5" font-family="Helvetica,sans-Serif" font-size="10.00" fill="#000000">JS_JSONStringify</text>
</a>
</g>
</g>
<!-- Node247160&#45;&gt;Node247170 -->
<g id="edge29" class="edge">
<title>Node247160&#45;&gt;Node247170</title>
<path fill="none" stroke="#191970" d="M207.9287,-531.3205C218.2408,-490.758 248.0797,-398.5154 313,-361 416.4037,-301.2463 568.6782,-348.4978 626.7857,-370.3913"/>
<polygon fill="#191970" stroke="#191970" points="204.5142,-530.5502 205.5727,-541.092 211.3192,-532.191 204.5142,-530.5502"/>
</g>
<!-- Node247172 -->
<g id="node13" class="node">
<title>Node247172</title>
<g id="a_node13"><a xlink:href="quickjs_8c.html#af4bd013e63a5d5d55e4d4700d80de12e" target="_top" xlink:title="js_array_indexOf">
<polygon fill="none" stroke="#000000" points="335,-484.5 335,-503.5 425,-503.5 425,-484.5 335,-484.5"/>
<text text-anchor="middle" x="380" y="-491.5" font-family="Helvetica,sans-Serif" font-size="10.00" fill="#000000">js_array_indexOf</text>
</a>
</g>
</g>
<!-- Node247160&#45;&gt;Node247172 -->
<g id="edge14" class="edge">
<title>Node247160&#45;&gt;Node247172</title>
<path fill="none" stroke="#191970" d="M239.5124,-537.9156C260.7891,-530.3324 288.3125,-520.777 313,-513 323.2634,-509.7668 334.4885,-506.4853 344.7661,-503.5798"/>
<polygon fill="#191970" stroke="#191970" points="238.1436,-534.6881 229.9096,-541.3552 240.5042,-541.2781 238.1436,-534.6881"/>
</g>
<!-- Node247173 -->
<g id="node14" class="node">
<title>Node247173</title>
<g id="a_node14"><a xlink:href="quickjs_8c.html#a4f8035820871c730dd7e98d46e137bc1" target="_top" xlink:title="js_array_join">
<polygon fill="none" stroke="#000000" points="344.5,-446.5 344.5,-465.5 415.5,-465.5 415.5,-446.5 344.5,-446.5"/>
<text text-anchor="middle" x="380" y="-453.5" font-family="Helvetica,sans-Serif" font-size="10.00" fill="#000000">js_array_join</text>
</a>
</g>
</g>
<!-- Node247160&#45;&gt;Node247173 -->
<g id="edge15" class="edge">
<title>Node247160&#45;&gt;Node247173</title>
<path fill="none" stroke="#191970" d="M222.3316,-535.0026C243.247,-517.962 278.6145,-491.2523 313,-475 322.838,-470.3501 334.0396,-466.6213 344.4301,-463.7407"/>
<polygon fill="#191970" stroke="#191970" points="220.0222,-532.3706 214.5499,-541.4428 224.4853,-537.7633 220.0222,-532.3706"/>
</g>
<!-- Node247174 -->
<g id="node15" class="node">
<title>Node247174</title>
<g id="a_node15"><a xlink:href="quickjs_8c.html#acb566d2d7d0ce8fed7bb7f73d3baa508" target="_top" xlink:title="js_array_lastIndexOf">
<polygon fill="none" stroke="#000000" points="326.5,-408.5 326.5,-427.5 433.5,-427.5 433.5,-408.5 326.5,-408.5"/>
<text text-anchor="middle" x="380" y="-415.5" font-family="Helvetica,sans-Serif" font-size="10.00" fill="#000000">js_array_lastIndexOf</text>
</a>
</g>
</g>
<!-- Node247160&#45;&gt;Node247174 -->
<g id="edge16" class="edge">
<title>Node247160&#45;&gt;Node247174</title>
<path fill="none" stroke="#191970" d="M215.8262,-533.1355C234.1269,-507.9598 270.8869,-462.297 313,-437 319.426,-433.14 326.6692,-430.0352 333.957,-427.5463"/>
<polygon fill="#191970" stroke="#191970" points="212.8864,-531.2303 209.9434,-541.4082 218.591,-535.287 212.8864,-531.2303"/>
</g>
<!-- Node247175 -->
<g id="node16" class="node">
<title>Node247175</title>
<g id="a_node16"><a xlink:href="quickjs_8c.html#a01281ea66186a034a0e9021ee8c9f945" target="_top" xlink:title="js_array_pop">
<polygon fill="none" stroke="#000000" points="344,-522.5 344,-541.5 416,-541.5 416,-522.5 344,-522.5"/>
<text text-anchor="middle" x="380" y="-529.5" font-family="Helvetica,sans-Serif" font-size="10.00" fill="#000000">js_array_pop</text>
</a>
</g>
</g>
<!-- Node247160&#45;&gt;Node247175 -->
<g id="edge17" class="edge">
<title>Node247160&#45;&gt;Node247175</title>
<path fill="none" stroke="#191970" d="M256.3515,-545.3106C284.6229,-542.2672 318.7041,-538.5984 343.92,-535.884"/>
<polygon fill="#191970" stroke="#191970" points="255.7936,-541.8503 246.2257,-546.4006 256.5429,-548.8101 255.7936,-541.8503"/>
</g>
<!-- Node247176 -->
<g id="node17" class="node">
<title>Node247176</title>
<g id="a_node17"><a xlink:href="quickjs_8c.html#a3d640b89712ebda808c0c3eca9849674" target="_top" xlink:title="js_array_push">
<polygon fill="none" stroke="#000000" points="341.5,-598.5 341.5,-617.5 418.5,-617.5 418.5,-598.5 341.5,-598.5"/>
<text text-anchor="middle" x="380" y="-605.5" font-family="Helvetica,sans-Serif" font-size="10.00" fill="#000000">js_array_push</text>
</a>
</g>
</g>
<!-- Node247160&#45;&gt;Node247176 -->
<g id="edge19" class="edge">
<title>Node247160&#45;&gt;Node247176</title>
<path fill="none" stroke="#191970" d="M242.6885,-563.6558C275.224,-574.163 320.8002,-588.8816 350.3615,-598.4284"/>
<polygon fill="#191970" stroke="#191970" points="243.6338,-560.2831 233.0421,-560.5405 241.4826,-566.9444 243.6338,-560.2831"/>
</g>
<!-- Node247177 -->
<g id="node18" class="node">
<title>Node247177</title>
<g id="a_node18"><a xlink:href="quickjs_8c.html#a36c1692489542a86dd79a7d39ab8ff95" target="_top" xlink:title="js_array_reduce">
<polygon fill="none" stroke="#000000" points="337,-294.5 337,-313.5 423,-313.5 423,-294.5 337,-294.5"/>
<text text-anchor="middle" x="380" y="-301.5" font-family="Helvetica,sans-Serif" font-size="10.00" fill="#000000">js_array_reduce</text>
</a>
</g>
</g>
<!-- Node247160&#45;&gt;Node247177 -->
<g id="edge21" class="edge">
<title>Node247160&#45;&gt;Node247177</title>
<path fill="none" stroke="#191970" d="M207.8173,-531.3908C218.2688,-488.4217 248.9292,-385.2411 313,-328 320.0027,-321.7438 328.7526,-317.0869 337.5951,-313.6312"/>
<polygon fill="#191970" stroke="#191970" points="204.3476,-530.8589 205.4901,-541.392 211.1655,-532.4454 204.3476,-530.8589"/>
</g>
<!-- Node247178 -->
<g id="node19" class="node">
<title>Node247178</title>
<g id="a_node19"><a xlink:href="quickjs_8c.html#a8235fb13f196d6ef5002daed858b7eeb" target="_top" xlink:title="js_array_reverse">
<polygon fill="none" stroke="#000000" points="335.5,-256.5 335.5,-275.5 424.5,-275.5 424.5,-256.5 335.5,-256.5"/>
<text text-anchor="middle" x="380" y="-263.5" font-family="Helvetica,sans-Serif" font-size="10.00" fill="#000000">js_array_reverse</text>
</a>
</g>
</g>
<!-- Node247160&#45;&gt;Node247178 -->
<g id="edge22" class="edge">
<title>Node247160&#45;&gt;Node247178</title>
<path fill="none" stroke="#191970" d="M205.7513,-531.3364C212.4436,-482.1744 236.7571,-352.9988 313,-285 319.3163,-279.3667 327.1878,-275.3935 335.2918,-272.5938"/>
<polygon fill="#191970" stroke="#191970" points="202.2734,-530.9417 204.492,-541.3016 209.2182,-531.8194 202.2734,-530.9417"/>
</g>
<!-- Node247179 -->
<g id="node20" class="node">
<title>Node247179</title>
<g id="a_node20"><a xlink:href="quickjs_8c.html#a70b7ec8358ab99b905686d5bf80950cc" target="_top" xlink:title="js_array_slice">
<polygon fill="none" stroke="#000000" points="341.5,-218.5 341.5,-237.5 418.5,-237.5 418.5,-218.5 341.5,-218.5"/>
<text text-anchor="middle" x="380" y="-225.5" font-family="Helvetica,sans-Serif" font-size="10.00" fill="#000000">js_array_slice</text>
</a>
</g>
</g>
<!-- Node247160&#45;&gt;Node247179 -->
<g id="edge23" class="edge">
<title>Node247160&#45;&gt;Node247179</title>
<path fill="none" stroke="#191970" d="M208.0823,-531.3933C222.6267,-470.7258 269.3644,-287.7076 313,-247 320.7799,-239.7421 331.1281,-235.2289 341.3596,-232.431"/>
<polygon fill="#191970" stroke="#191970" points="204.6502,-530.6979 205.7492,-541.2355 211.4615,-532.3125 204.6502,-530.6979"/>
</g>
<!-- Node247180 -->
<g id="node21" class="node">
<title>Node247180</title>
<g id="a_node21"><a xlink:href="quickjs_8c.html#a874518d6b2fb6ff79531c4a9652202f3" target="_top" xlink:title="js_array_sort">
<polygon fill="none" stroke="#000000" points="343.5,-958.5 343.5,-977.5 416.5,-977.5 416.5,-958.5 343.5,-958.5"/>
<text text-anchor="middle" x="380" y="-965.5" font-family="Helvetica,sans-Serif" font-size="10.00" fill="#000000">js_array_sort</text>
</a>
</g>
</g>
<!-- Node247160&#45;&gt;Node247180 -->
<g id="edge24" class="edge">
<title>Node247160&#45;&gt;Node247180</title>
<path fill="none" stroke="#191970" d="M206.3373,-570.7193C217.142,-643.1907 257.901,-893.467 313,-949 321.09,-957.1537 332.4023,-961.8723 343.4313,-964.5825"/>
<polygon fill="#191970" stroke="#191970" points="209.7778,-570.0576 204.8628,-560.6717 202.8519,-571.074 209.7778,-570.0576"/>
</g>
<!-- Node247181 -->
<g id="node22" class="node">
<title>Node247181</title>
<g id="a_node22"><a xlink:href="quickjs_8c.html#ad90c33b4aae1181151bda4a98ac2ef23" target="_top" xlink:title="JS_FlattenIntoArray">
<polygon fill="none" stroke="#000000" points="328,-902.5 328,-921.5 432,-921.5 432,-902.5 328,-902.5"/>
<text text-anchor="middle" x="380" y="-909.5" font-family="Helvetica,sans-Serif" font-size="10.00" fill="#000000">JS_FlattenIntoArray</text>
</a>
</g>
</g>
<!-- Node247160&#45;&gt;Node247181 -->
<g id="edge25" class="edge">
<title>Node247160&#45;&gt;Node247181</title>
<path fill="none" stroke="#191970" d="M207.2232,-570.4359C220.1136,-635.8149 264.7028,-846.2959 313,-893 317.2588,-897.1184 322.342,-900.3562 327.7778,-902.8998"/>
<polygon fill="#191970" stroke="#191970" points="210.656,-569.7528 205.3097,-560.6058 203.7849,-571.0904 210.656,-569.7528"/>
</g>
<!-- Node247160&#45;&gt;Node247182 -->
<g id="edge30" class="edge">
<title>Node247160&#45;&gt;Node247182</title>
<path fill="none" stroke="#191970" d="M208.6761,-531.1703C226.9574,-461.7368 288.6954,-232.5029 313,-209 316.9981,-205.1338 321.7226,-202.0435 326.7835,-199.5752"/>
<polygon fill="#191970" stroke="#191970" points="205.1925,-530.6568 206.041,-541.2176 211.9635,-532.4327 205.1925,-530.6568"/>
</g>
<!-- Node247168&#45;&gt;Node247169 -->
<g id="edge10" class="edge">
<title>Node247168&#45;&gt;Node247169</title>
<path fill="none" stroke="#191970" d="M435.4454,-391.9042C439.5527,-393.9118 443.4653,-396.2581 447,-399 490.2879,-432.5792 513.9444,-497.6655 521.6521,-522.2657"/>
<polygon fill="#191970" stroke="#191970" points="436.7889,-388.6723 426.2137,-388.0277 434.0788,-395.1264 436.7889,-388.6723"/>
</g>
<!-- Node247168&#45;&gt;Node247170 -->
<g id="edge13" class="edge">
<title>Node247168&#45;&gt;Node247170</title>
<path fill="none" stroke="#191970" d="M436.2867,-380C485.169,-380 555.2302,-380 601.7567,-380"/>
<polygon fill="#191970" stroke="#191970" points="436.1933,-376.5001 426.1933,-380 436.1932,-383.5001 436.1933,-376.5001"/>
</g>
<!-- Node247169&#45;&gt;Node247169 -->
<g id="edge11" class="edge">
<title>Node247169&#45;&gt;Node247169</title>
<path fill="none" stroke="#191970" d="M501.0626,-551.0292C502.341,-556.128 510.1535,-560 524.5,-560 546.8945,-560 553.368,-550.5653 543.9203,-541.7571"/>
<polygon fill="#191970" stroke="#191970" points="504.3158,-552.3243 505.0797,-541.7571 497.8927,-549.5415 504.3158,-552.3243"/>
</g>
<!-- Node247169&#45;&gt;Node247170 -->
<g id="edge12" class="edge">
<title>Node247169&#45;&gt;Node247170</title>
<path fill="none" stroke="#191970" d="M539.1003,-514.3869C565.8666,-482.0975 621.9412,-414.4519 642.6211,-389.5047"/>
<polygon fill="#191970" stroke="#191970" points="536.0692,-512.5592 532.3819,-522.4917 541.4584,-517.0266 536.0692,-512.5592"/>
</g>
<!-- Node247175&#45;&gt;Node247169 -->
<g id="edge18" class="edge">
<title>Node247175&#45;&gt;Node247169</title>
<path fill="none" stroke="#191970" d="M426.1474,-532C445.383,-532 467.4703,-532 485.8345,-532"/>
<polygon fill="#191970" stroke="#191970" points="426.0907,-528.5001 416.0907,-532 426.0907,-535.5001 426.0907,-528.5001"/>
</g>
<!-- Node247176&#45;&gt;Node247169 -->
<g id="edge20" class="edge">
<title>Node247176&#45;&gt;Node247169</title>
<path fill="none" stroke="#191970" d="M421.2837,-595.023C429.9467,-591.8013 438.9058,-588.0858 447,-584 471.445,-571.6604 497.39,-552.951 512.2012,-541.6596"/>
<polygon fill="#191970" stroke="#191970" points="419.9339,-591.7884 411.6905,-598.4441 422.2851,-598.3817 419.9339,-591.7884"/>
</g>
<!-- Node247181&#45;&gt;Node247166 -->
<g id="edge27" class="edge">
<title>Node247181&#45;&gt;Node247166</title>
<path fill="none" stroke="#191970" d="M437.0949,-898.5089C440.5523,-896.8748 443.8867,-895.046 447,-893 481.6859,-870.2047 508.4967,-827.0161 519.3043,-807.7284"/>
<polygon fill="#191970" stroke="#191970" points="435.62,-895.3315 427.7239,-902.3956 438.3019,-901.7974 435.62,-895.3315"/>
</g>
<!-- Node247181&#45;&gt;Node247181 -->
<g id="edge26" class="edge">
<title>Node247181&#45;&gt;Node247181</title>
<path fill="none" stroke="#191970" d="M353.1208,-930.6539C354.2444,-935.9368 363.2041,-940 380,-940 405.5938,-940 412.9919,-930.5653 402.1946,-921.7571"/>
<polygon fill="#191970" stroke="#191970" points="356.2433,-932.2361 357.8054,-921.7571 350.0494,-928.9747 356.2433,-932.2361"/>
</g>
<!-- Node247217&#45;&gt;Node247213 -->
<g id="edge38" class="edge">
<title>Node247217&#45;&gt;Node247213</title>
<path fill="none" stroke="#191970" d="M262.9846,-79.5966C279.0402,-77.8682 296.5221,-75.9863 312.9603,-74.2167"/>
<polygon fill="#191970" stroke="#191970" points="262.233,-76.1572 252.6651,-80.7074 262.9823,-83.1169 262.233,-76.1572"/>
</g>
</g>
</svg>
