<?xml version="1.0" encoding="UTF-8" standalone="no"?>
<!DOCTYPE svg PUBLIC "-//W3C//DTD SVG 1.1//EN"
 "http://www.w3.org/Graphics/SVG/1.1/DTD/svg11.dtd">
<!-- Generated by graphviz version 2.40.1 (20161225.0304)
 -->
<!-- Title: qjs::js_traits&lt; std::vector&lt; T &gt; &gt;::wrap Pages: 1 -->
<!--zoomable 230 -->
<svg id="main" version="1.1" xmlns="http://www.w3.org/2000/svg" xmlns:xlink="http://www.w3.org/1999/xlink" xml:space="preserve" onload="init(evt)">
<style type="text/css"><![CDATA[
.edge:hover path { stroke: red; }
.edge:hover polygon { stroke: red; fill: red; }
]]></style>
<script type="text/javascript"><![CDATA[
var edges = document.getElementsByTagName('g');
if (edges && edges.length) {
  for (var i=0;i<edges.length;i++) {
    if (edges[i].id.substr(0,4)=='edge') {
      edges[i].setAttribute('class','edge');
    }
  }
}
]]></script>
        <defs>
                <circle id="rim" cx="0" cy="0" r="7"/>
                <circle id="rim2" cx="0" cy="0" r="3.5"/>
                <g id="zoomPlus">
                        <use xlink:href="#rim" fill="#404040">
                                <set attributeName="fill" to="#808080" begin="zoomplus.mouseover" end="zoomplus.mouseout"/>
                        </use>
                        <path d="M-4,0h8M0,-4v8" fill="none" stroke="white" stroke-width="1.5" pointer-events="none"/>
                </g>
                <g id="zoomMin">
                        <use xlink:href="#rim" fill="#404040">
                                <set attributeName="fill" to="#808080" begin="zoomminus.mouseover" end="zoomminus.mouseout"/>
                        </use>
                        <path d="M-4,0h8" fill="none" stroke="white" stroke-width="1.5" pointer-events="none"/>
                </g>
                <g id="dirArrow">
                        <path fill="none" stroke="white" stroke-width="1.5" d="M0,-3.0v7 M-2.5,-0.5L0,-3.0L2.5,-0.5"/>
                </g>
               <g id="resetDef">
                       <use xlink:href="#rim2" fill="#404040">
                               <set attributeName="fill" to="#808080" begin="reset.mouseover" end="reset.mouseout"/>
                       </use>
               </g>
        </defs>

<script type="text/javascript">
var viewWidth = 659;
var viewHeight = 230;
var sectionId = 'dynsection-0';
</script>
<script xlink:href="svgpan.js"/>
<svg id="graph" class="graph">
<g id="viewport">
<title>qjs::js_traits&lt; std::vector&lt; T &gt; &gt;::wrap</title>
<!-- Node0 -->
<g id="node1" class="node">
<title>Node0</title>
<polygon fill="#bfbfbf" stroke="#000000" points="0,-90 0,-120 110,-120 110,-90 0,-90"/>
<text text-anchor="start" x="8" y="-108" font-family="Helvetica,sans-Serif" font-size="10.00" fill="#000000">qjs::js_traits&lt; std</text>
<text text-anchor="middle" x="55" y="-97" font-family="Helvetica,sans-Serif" font-size="10.00" fill="#000000">::vector&lt; T &gt; &gt;::wrap</text>
</g>
<!-- Node1 -->
<g id="node2" class="node">
<title>Node1</title>
<g id="a_node2"><a xlink:href="quickjs_8c.html#ad4ba09e4c7ab9f28c144182e1aacf1f6" target="_top" xlink:title="JS_NewArray">
<polygon fill="none" stroke="#000000" points="161,-152.5 161,-171.5 238,-171.5 238,-152.5 161,-152.5"/>
<text text-anchor="middle" x="199.5" y="-159.5" font-family="Helvetica,sans-Serif" font-size="10.00" fill="#000000">JS_NewArray</text>
</a>
</g>
</g>
<!-- Node0&#45;&gt;Node1 -->
<g id="edge1" class="edge">
<title>Node0&#45;&gt;Node1</title>
<path fill="none" stroke="#191970" d="M89.823,-120.0629C106.699,-127.2288 127.3128,-135.7861 146,-143 151.1723,-144.9967 156.6546,-147.0332 162.0609,-148.9957"/>
<polygon fill="#191970" stroke="#191970" points="161.0323,-152.345 171.6269,-152.4236 163.3938,-145.7553 161.0323,-152.345"/>
</g>
<!-- Node77 -->
<g id="node11" class="node">
<title>Node77</title>
<g id="a_node11"><a xlink:href="classqjs_1_1Value.html#af11fd023b991d7d6adc5c18142ded292" target="_top" xlink:title="Access JS properties. ">
<polygon fill="none" stroke="#000000" points="146,-114.5 146,-133.5 253,-133.5 253,-114.5 146,-114.5"/>
<text text-anchor="middle" x="199.5" y="-121.5" font-family="Helvetica,sans-Serif" font-size="10.00" fill="#000000">qjs::Value::operator[]</text>
</a>
</g>
</g>
<!-- Node0&#45;&gt;Node77 -->
<g id="edge12" class="edge">
<title>Node0&#45;&gt;Node77</title>
<path fill="none" stroke="#191970" d="M110.0415,-112.2373C118.411,-113.3378 127.1076,-114.4813 135.6457,-115.6039"/>
<polygon fill="#191970" stroke="#191970" points="135.1958,-119.0748 145.5667,-116.9084 136.1084,-112.1346 135.1958,-119.0748"/>
</g>
<!-- Node78 -->
<g id="node12" class="node">
<title>Node78</title>
<g id="a_node12"><a xlink:href="classqjs_1_1Value.html#ad7677a3e42f8c82bb64b5633a611f2f6" target="_top" xlink:title="qjs::Value::release">
<polygon fill="none" stroke="#000000" points="150.5,-76.5 150.5,-95.5 248.5,-95.5 248.5,-76.5 150.5,-76.5"/>
<text text-anchor="middle" x="199.5" y="-83.5" font-family="Helvetica,sans-Serif" font-size="10.00" fill="#000000">qjs::Value::release</text>
</a>
</g>
</g>
<!-- Node0&#45;&gt;Node78 -->
<g id="edge13" class="edge">
<title>Node0&#45;&gt;Node78</title>
<path fill="none" stroke="#191970" d="M110.0415,-97.7627C119.8678,-96.4707 130.145,-95.1193 140.0872,-93.8121"/>
<polygon fill="#191970" stroke="#191970" points="140.8354,-97.2439 150.2937,-92.47 139.9227,-90.3036 140.8354,-97.2439"/>
</g>
<!-- Node79 -->
<g id="node13" class="node">
<title>Node79</title>
<g id="a_node13"><a xlink:href="classqjs_1_1Value.html#a8e2a5be6c89f30cee044b884e30bf819" target="_top" xlink:title="Use context.newValue(val) instead. ">
<polygon fill="none" stroke="#000000" points="154,-38.5 154,-57.5 245,-57.5 245,-38.5 154,-38.5"/>
<text text-anchor="middle" x="199.5" y="-45.5" font-family="Helvetica,sans-Serif" font-size="10.00" fill="#000000">qjs::Value::Value</text>
</a>
</g>
</g>
<!-- Node0&#45;&gt;Node79 -->
<g id="edge14" class="edge">
<title>Node0&#45;&gt;Node79</title>
<path fill="none" stroke="#191970" d="M89.823,-89.9371C106.699,-82.7712 127.3128,-74.2139 146,-67 151.1723,-65.0033 156.6546,-62.9668 162.0609,-61.0043"/>
<polygon fill="#191970" stroke="#191970" points="163.3938,-64.2447 171.6269,-57.5764 161.0323,-57.655 163.3938,-64.2447"/>
</g>
<!-- Node2 -->
<g id="node3" class="node">
<title>Node2</title>
<g id="a_node3"><a xlink:href="quickjs_8c.html#aed229eb80b3b03a2275471dee93c69d6" target="_top" xlink:title="js_dup_shape">
<polygon fill="none" stroke="#000000" points="574,-199.5 574,-218.5 651,-218.5 651,-199.5 574,-199.5"/>
<text text-anchor="middle" x="612.5" y="-206.5" font-family="Helvetica,sans-Serif" font-size="10.00" fill="#000000">js_dup_shape</text>
</a>
</g>
</g>
<!-- Node1&#45;&gt;Node2 -->
<g id="edge2" class="edge">
<title>Node1&#45;&gt;Node2</title>
<path fill="none" stroke="#191970" d="M232.1723,-171.6049C280.8499,-185.3642 375.5363,-210.0162 458,-219 493.3464,-222.8507 502.5235,-221.3703 538,-219 546.423,-218.4372 555.346,-217.5204 563.9786,-216.4643"/>
<polygon fill="#191970" stroke="#191970" points="564.465,-219.9306 573.9318,-215.1735 563.5647,-212.9887 564.465,-219.9306"/>
</g>
<!-- Node3 -->
<g id="node4" class="node">
<title>Node3</title>
<g id="a_node4"><a xlink:href="quickjs_8c.html#a030c2e98b1775a7e3bdd13be1400b1fe" target="_top" xlink:title="JS_NewObjectFromShape">
<polygon fill="none" stroke="#000000" points="289,-114.5 289,-133.5 422,-133.5 422,-114.5 289,-114.5"/>
<text text-anchor="middle" x="355.5" y="-121.5" font-family="Helvetica,sans-Serif" font-size="10.00" fill="#000000">JS_NewObjectFromShape</text>
</a>
</g>
</g>
<!-- Node1&#45;&gt;Node3 -->
<g id="edge3" class="edge">
<title>Node1&#45;&gt;Node3</title>
<path fill="none" stroke="#191970" d="M238.0618,-152.6067C258.7181,-147.5751 284.382,-141.3236 306.4453,-135.9492"/>
<polygon fill="#191970" stroke="#191970" points="307.4107,-139.3165 316.2982,-133.5491 305.754,-132.5153 307.4107,-139.3165"/>
</g>
<!-- Node4 -->
<g id="node5" class="node">
<title>Node4</title>
<g id="a_node5"><a xlink:href="quickjs_8c.html#a9780456a71703c53244b88831bc8fb7a" target="_top" xlink:title="add_gc_object">
<polygon fill="none" stroke="#ff0000" points="458,-190.5 458,-209.5 538,-209.5 538,-190.5 458,-190.5"/>
<text text-anchor="middle" x="498" y="-197.5" font-family="Helvetica,sans-Serif" font-size="10.00" fill="#000000">add_gc_object</text>
</a>
</g>
</g>
<!-- Node3&#45;&gt;Node4 -->
<g id="edge4" class="edge">
<title>Node3&#45;&gt;Node4</title>
<path fill="none" stroke="#191970" d="M372.0114,-133.6114C392.1227,-145.2181 427.225,-165.1546 458,-181 461.172,-182.6332 464.5084,-184.2986 467.8454,-185.9309"/>
<polygon fill="#191970" stroke="#191970" points="466.5863,-189.2091 477.1153,-190.3892 469.6203,-182.9008 466.5863,-189.2091"/>
</g>
<!-- Node7 -->
<g id="node6" class="node">
<title>Node7</title>
<g id="a_node6"><a xlink:href="quickjs_8c.html#a74547db03bf739a52c83a326b32db997" target="_top" xlink:title="add_property">
<polygon fill="none" stroke="#ff0000" points="461.5,-152.5 461.5,-171.5 534.5,-171.5 534.5,-152.5 461.5,-152.5"/>
<text text-anchor="middle" x="498" y="-159.5" font-family="Helvetica,sans-Serif" font-size="10.00" fill="#000000">add_property</text>
</a>
</g>
</g>
<!-- Node3&#45;&gt;Node7 -->
<g id="edge5" class="edge">
<title>Node3&#45;&gt;Node7</title>
<path fill="none" stroke="#191970" d="M391.4588,-133.589C409.9385,-138.5169 432.6558,-144.5749 452.3591,-149.8291"/>
<polygon fill="#191970" stroke="#191970" points="451.4885,-153.2192 462.0527,-152.4141 453.2922,-146.4555 451.4885,-153.2192"/>
</g>
<!-- Node34 -->
<g id="node7" class="node">
<title>Node34</title>
<g id="a_node7"><a xlink:href="quickjs_8c.html#a3a9f27520d96cf58aa5bd7359e9cddee" target="_top" xlink:title="js_free_shape">
<polygon fill="none" stroke="#ff0000" points="574,-133.5 574,-152.5 651,-152.5 651,-133.5 574,-133.5"/>
<text text-anchor="middle" x="612.5" y="-140.5" font-family="Helvetica,sans-Serif" font-size="10.00" fill="#000000">js_free_shape</text>
</a>
</g>
</g>
<!-- Node3&#45;&gt;Node34 -->
<g id="edge9" class="edge">
<title>Node3&#45;&gt;Node34</title>
<path fill="none" stroke="#191970" d="M422.0181,-128.9177C466.3468,-132.1949 523.6161,-136.4288 563.7372,-139.395"/>
<polygon fill="#191970" stroke="#191970" points="563.5741,-142.8924 573.805,-140.1393 564.0903,-135.9114 563.5741,-142.8924"/>
</g>
<!-- Node21 -->
<g id="node8" class="node">
<title>Node21</title>
<g id="a_node8"><a xlink:href="quickjs_8c.html#a80e54dcf9ac687d4ccc2f90273565f30" target="_top" xlink:title="js_free">
<polygon fill="none" stroke="#ff0000" points="475,-76.5 475,-95.5 521,-95.5 521,-76.5 475,-76.5"/>
<text text-anchor="middle" x="498" y="-83.5" font-family="Helvetica,sans-Serif" font-size="10.00" fill="#000000">js_free</text>
</a>
</g>
</g>
<!-- Node3&#45;&gt;Node21 -->
<g id="edge8" class="edge">
<title>Node3&#45;&gt;Node21</title>
<path fill="none" stroke="#191970" d="M391.4588,-114.411C414.0933,-108.3751 443.0848,-100.6441 465.1092,-94.7709"/>
<polygon fill="#191970" stroke="#191970" points="466.2356,-98.0929 474.9961,-92.1344 464.4319,-91.3293 466.2356,-98.0929"/>
</g>
<!-- Node61 -->
<g id="node9" class="node">
<title>Node61</title>
<g id="a_node9"><a xlink:href="quickjs_8h.html#a2050bc428da1c65ac7eb87c3fa3b0392" target="_top" xlink:title="JS_NewInt32">
<polygon fill="none" stroke="#000000" points="460,-38.5 460,-57.5 536,-57.5 536,-38.5 460,-38.5"/>
<text text-anchor="middle" x="498" y="-45.5" font-family="Helvetica,sans-Serif" font-size="10.00" fill="#000000">JS_NewInt32</text>
</a>
</g>
</g>
<!-- Node3&#45;&gt;Node61 -->
<g id="edge10" class="edge">
<title>Node3&#45;&gt;Node61</title>
<path fill="none" stroke="#191970" d="M372.0114,-114.3886C392.1227,-102.7819 427.225,-82.8454 458,-67 461.172,-65.3668 464.5084,-63.7014 467.8454,-62.0691"/>
<polygon fill="#191970" stroke="#191970" points="469.6203,-65.0992 477.1153,-57.6108 466.5863,-58.7909 469.6203,-65.0992"/>
</g>
<!-- Node62 -->
<g id="node10" class="node">
<title>Node62</title>
<g id="a_node10"><a xlink:href="quickjs_8c.html#a85321334e4bec66bfc03451897a03a3b" target="_top" xlink:title="js_trigger_gc">
<polygon fill="none" stroke="#ff0000" points="462,-.5 462,-19.5 534,-19.5 534,-.5 462,-.5"/>
<text text-anchor="middle" x="498" y="-7.5" font-family="Helvetica,sans-Serif" font-size="10.00" fill="#000000">js_trigger_gc</text>
</a>
</g>
</g>
<!-- Node3&#45;&gt;Node62 -->
<g id="edge11" class="edge">
<title>Node3&#45;&gt;Node62</title>
<path fill="none" stroke="#191970" d="M367.5977,-114.2699C381.1806,-103.2006 403.713,-84.3991 422,-67 438.8545,-50.9638 439.1734,-42.6673 458,-29 460.1989,-27.4037 462.5531,-25.886 464.9778,-24.4556"/>
<polygon fill="#191970" stroke="#191970" points="466.7494,-27.4773 473.9157,-19.6738 463.4472,-21.3051 466.7494,-27.4773"/>
</g>
<!-- Node7&#45;&gt;Node2 -->
<g id="edge6" class="edge">
<title>Node7&#45;&gt;Node2</title>
<path fill="none" stroke="#191970" d="M521.1708,-171.5112C537.976,-178.4094 560.9409,-187.836 579.6377,-195.5107"/>
<polygon fill="#191970" stroke="#191970" points="578.3906,-198.7821 588.9707,-199.3417 581.0488,-192.3064 578.3906,-198.7821"/>
</g>
<!-- Node7&#45;&gt;Node34 -->
<g id="edge7" class="edge">
<title>Node7&#45;&gt;Node34</title>
<path fill="none" stroke="#191970" d="M534.5433,-155.936C543.8696,-154.3884 554.0432,-152.7003 563.87,-151.0696"/>
<polygon fill="#191970" stroke="#191970" points="564.6429,-154.4893 573.935,-149.3994 563.497,-147.5837 564.6429,-154.4893"/>
</g>
<!-- Node80 -->
<g id="node14" class="node">
<title>Node80</title>
<g id="a_node14"><a xlink:href="quickjs_8h.html#ad80a83d73e9b7d872b88fbf2943aebe9" target="_top" xlink:title="JS_IsException">
<polygon fill="none" stroke="#000000" points="312.5,-38.5 312.5,-57.5 398.5,-57.5 398.5,-38.5 312.5,-38.5"/>
<text text-anchor="middle" x="355.5" y="-45.5" font-family="Helvetica,sans-Serif" font-size="10.00" fill="#000000">JS_IsException</text>
</a>
</g>
</g>
<!-- Node79&#45;&gt;Node80 -->
<g id="edge15" class="edge">
<title>Node79&#45;&gt;Node80</title>
<path fill="none" stroke="#191970" d="M245.041,-48C262.9489,-48 283.635,-48 302.2296,-48"/>
<polygon fill="#191970" stroke="#191970" points="302.314,-51.5001 312.3139,-48 302.3139,-44.5001 302.314,-51.5001"/>
</g>
</g>
</svg>
        <g id="navigator" transform="translate(0 0)" fill="#404254">
                <rect fill="#f2f5e9" fill-opacity="0.5" stroke="#606060" stroke-width=".5" x="0" y="0" width="60" height="60"/>
                <use id="zoomplus" xlink:href="#zoomPlus" x="17" y="9" onmousedown="handleZoom(evt,'in')"/>
                <use id="zoomminus" xlink:href="#zoomMin" x="42" y="9" onmousedown="handleZoom(evt,'out')"/>
                <use id="reset" xlink:href="#resetDef" x="30" y="36" onmousedown="handleReset()"/>
                <g id="arrowUp" xlink:href="#dirArrow" transform="translate(30 24)" onmousedown="handlePan(0,-1)">
                  <use xlink:href="#rim" fill="#404040">
                        <set attributeName="fill" to="#808080" begin="arrowUp.mouseover" end="arrowUp.mouseout"/>
                  </use>
                  <path fill="none" stroke="white" stroke-width="1.5" d="M0,-3.0v7 M-2.5,-0.5L0,-3.0L2.5,-0.5"/>
                </g>
                <g id="arrowRight" xlink:href="#dirArrow" transform="rotate(90) translate(36 -43)" onmousedown="handlePan(1,0)">
                  <use xlink:href="#rim" fill="#404040">
                        <set attributeName="fill" to="#808080" begin="arrowRight.mouseover" end="arrowRight.mouseout"/>
                  </use>
                  <path fill="none" stroke="white" stroke-width="1.5" d="M0,-3.0v7 M-2.5,-0.5L0,-3.0L2.5,-0.5"/>
                </g>
                <g id="arrowDown" xlink:href="#dirArrow" transform="rotate(180) translate(-30 -48)" onmousedown="handlePan(0,1)">
                  <use xlink:href="#rim" fill="#404040">
                        <set attributeName="fill" to="#808080" begin="arrowDown.mouseover" end="arrowDown.mouseout"/>
                  </use>
                  <path fill="none" stroke="white" stroke-width="1.5" d="M0,-3.0v7 M-2.5,-0.5L0,-3.0L2.5,-0.5"/>
                </g>
                <g id="arrowLeft" xlink:href="#dirArrow" transform="rotate(270) translate(-36 17)" onmousedown="handlePan(-1,0)">
                  <use xlink:href="#rim" fill="#404040">
                        <set attributeName="fill" to="#808080" begin="arrowLeft.mouseover" end="arrowLeft.mouseout"/>
                  </use>
                  <path fill="none" stroke="white" stroke-width="1.5" d="M0,-3.0v7 M-2.5,-0.5L0,-3.0L2.5,-0.5"/>
                </g>
        </g>
        <svg viewBox="0 0 15 15" width="100%" height="30px" preserveAspectRatio="xMaxYMin meet">
         <g id="arrow_out" transform="scale(0.3 0.3)">
          <a xlink:href="structqjs_1_1js__traits_3_01std_1_1vector_3_01T_01_4_01_4_a0a1cc387d5c49e5cb5ae417730d32b1c_cgraph_org.svg" target="_base">
           <rect id="button" ry="5" rx="5" y="6" x="6" height="38" width="38"
                fill="#f2f5e9" fill-opacity="0.5" stroke="#606060" stroke-width="1.0"/>
           <path id="arrow"
             d="M 11.500037,31.436501 C 11.940474,20.09759 22.043105,11.32322 32.158766,21.979434 L 37.068811,17.246167 C 37.068811,17.246167 37.088388,32 37.088388,32 L 22.160133,31.978069 C 22.160133,31.978069 26.997745,27.140456 26.997745,27.140456 C 18.528582,18.264221 13.291696,25.230495 11.500037,31.436501 z"
             style="fill:#404040;"/>
          </a>
         </g>
        </svg>
</svg>
